<?xml version="1.0" encoding="utf-8" standalone="no"?>
<!DOCTYPE svg PUBLIC "-//W3C//DTD SVG 1.1//EN"
  "http://www.w3.org/Graphics/SVG/1.1/DTD/svg11.dtd">
<svg xmlns:xlink="http://www.w3.org/1999/xlink" width="460.8pt" height="345.6pt" viewBox="0 0 460.8 345.6" xmlns="http://www.w3.org/2000/svg" version="1.1">
 <metadata>
  <rdf:RDF xmlns:dc="http://purl.org/dc/elements/1.1/" xmlns:cc="http://creativecommons.org/ns#" xmlns:rdf="http://www.w3.org/1999/02/22-rdf-syntax-ns#">
   <cc:Work>
    <dc:type rdf:resource="http://purl.org/dc/dcmitype/StillImage"/>
    <dc:date>2024-02-12T22:46:46.291139</dc:date>
    <dc:format>image/svg+xml</dc:format>
    <dc:creator>
     <cc:Agent>
      <dc:title>Matplotlib v3.8.2, https://matplotlib.org/</dc:title>
     </cc:Agent>
    </dc:creator>
   </cc:Work>
  </rdf:RDF>
 </metadata>
 <defs>
  <style type="text/css">*{stroke-linejoin: round; stroke-linecap: butt}</style>
 </defs>
 <g id="figure_1">
  <g id="patch_1">
   <path d="M 0 345.6 
L 460.8 345.6 
L 460.8 0 
L 0 0 
z
" style="fill: #ffffff; stroke: #ffffff; stroke-linejoin: miter"/>
  </g>
  <g id="axes_1">
   <g id="patch_2">
    <path d="M 46.36825 303.229812 
L 456.192 303.229812 
L 456.192 13.824 
L 46.36825 13.824 
z
" style="fill: #ffffff; stroke: #7f7f7f; stroke-linejoin: miter"/>
   </g>
   <g id="matplotlib.axis_1">
    <g id="xtick_1">
     <g id="line2d_1">
      <path d="M 48.803419 303.229812 
L 48.803419 13.824 
" clip-path="url(#p9b45cf9779)" style="fill: none; stroke: #e5e5e5; stroke-width: 0.8"/>
     </g>
     <g id="line2d_2">
      <path d="M 48.803419 303.229812 
" style="fill: none; stroke: #000000; stroke-width: 1.5"/>
      <defs>
       <path id="m943a198652" d="M 0 0 
L 0 3.5 
" style="stroke: #333333"/>
      </defs>
      <g>
       <use xlink:href="#m943a198652" x="48.803419" y="303.229812" style="stroke: #333333"/>
      </g>
     </g>
     <g id="text_1">
      <!-- −0.03 -->
      <g style="fill: #4d4d4d" transform="translate(34.634544 316.746562) scale(0.112 -0.112)">
       <defs>
        <path id="ArialMT-2212" d="M 3381 1997 
L 356 1997 
L 356 2522 
L 3381 2522 
L 3381 1997 
z
" transform="scale(0.015625)"/>
        <path id="ArialMT-30" d="M 266 2259 
Q 266 3072 433 3567 
Q 600 4063 929 4331 
Q 1259 4600 1759 4600 
Q 2128 4600 2406 4451 
Q 2684 4303 2865 4023 
Q 3047 3744 3150 3342 
Q 3253 2941 3253 2259 
Q 3253 1453 3087 958 
Q 2922 463 2592 192 
Q 2263 -78 1759 -78 
Q 1097 -78 719 397 
Q 266 969 266 2259 
z
M 844 2259 
Q 844 1131 1108 757 
Q 1372 384 1759 384 
Q 2147 384 2411 759 
Q 2675 1134 2675 2259 
Q 2675 3391 2411 3762 
Q 2147 4134 1753 4134 
Q 1366 4134 1134 3806 
Q 844 3388 844 2259 
z
" transform="scale(0.015625)"/>
        <path id="ArialMT-2e" d="M 581 0 
L 581 641 
L 1222 641 
L 1222 0 
L 581 0 
z
" transform="scale(0.015625)"/>
        <path id="ArialMT-33" d="M 269 1209 
L 831 1284 
Q 928 806 1161 595 
Q 1394 384 1728 384 
Q 2125 384 2398 659 
Q 2672 934 2672 1341 
Q 2672 1728 2419 1979 
Q 2166 2231 1775 2231 
Q 1616 2231 1378 2169 
L 1441 2663 
Q 1497 2656 1531 2656 
Q 1891 2656 2178 2843 
Q 2466 3031 2466 3422 
Q 2466 3731 2256 3934 
Q 2047 4138 1716 4138 
Q 1388 4138 1169 3931 
Q 950 3725 888 3313 
L 325 3413 
Q 428 3978 793 4289 
Q 1159 4600 1703 4600 
Q 2078 4600 2393 4439 
Q 2709 4278 2876 4000 
Q 3044 3722 3044 3409 
Q 3044 3113 2884 2869 
Q 2725 2625 2413 2481 
Q 2819 2388 3044 2092 
Q 3269 1797 3269 1353 
Q 3269 753 2831 336 
Q 2394 -81 1725 -81 
Q 1122 -81 723 278 
Q 325 638 269 1209 
z
" transform="scale(0.015625)"/>
       </defs>
       <use xlink:href="#ArialMT-2212"/>
       <use xlink:href="#ArialMT-30" x="58.398438"/>
       <use xlink:href="#ArialMT-2e" x="114.013672"/>
       <use xlink:href="#ArialMT-30" x="141.796875"/>
       <use xlink:href="#ArialMT-33" x="197.412109"/>
      </g>
     </g>
    </g>
    <g id="xtick_2">
     <g id="line2d_3">
      <path d="M 160.725345 303.229812 
L 160.725345 13.824 
" clip-path="url(#p9b45cf9779)" style="fill: none; stroke: #e5e5e5; stroke-width: 0.8"/>
     </g>
     <g id="line2d_4">
      <path d="M 160.725345 303.229812 
" style="fill: none; stroke: #000000; stroke-width: 1.5"/>
      <g>
       <use xlink:href="#m943a198652" x="160.725345" y="303.229812" style="stroke: #333333"/>
      </g>
     </g>
     <g id="text_2">
      <!-- −0.02 -->
      <g style="fill: #4d4d4d" transform="translate(146.55647 316.746562) scale(0.112 -0.112)">
       <defs>
        <path id="ArialMT-32" d="M 3222 541 
L 3222 0 
L 194 0 
Q 188 203 259 391 
Q 375 700 629 1000 
Q 884 1300 1366 1694 
Q 2113 2306 2375 2664 
Q 2638 3022 2638 3341 
Q 2638 3675 2398 3904 
Q 2159 4134 1775 4134 
Q 1369 4134 1125 3890 
Q 881 3647 878 3216 
L 300 3275 
Q 359 3922 746 4261 
Q 1134 4600 1788 4600 
Q 2447 4600 2831 4234 
Q 3216 3869 3216 3328 
Q 3216 3053 3103 2787 
Q 2991 2522 2730 2228 
Q 2469 1934 1863 1422 
Q 1356 997 1212 845 
Q 1069 694 975 541 
L 3222 541 
z
" transform="scale(0.015625)"/>
       </defs>
       <use xlink:href="#ArialMT-2212"/>
       <use xlink:href="#ArialMT-30" x="58.398438"/>
       <use xlink:href="#ArialMT-2e" x="114.013672"/>
       <use xlink:href="#ArialMT-30" x="141.796875"/>
       <use xlink:href="#ArialMT-32" x="197.412109"/>
      </g>
     </g>
    </g>
    <g id="xtick_3">
     <g id="line2d_5">
      <path d="M 272.647271 303.229812 
L 272.647271 13.824 
" clip-path="url(#p9b45cf9779)" style="fill: none; stroke: #e5e5e5; stroke-width: 0.8"/>
     </g>
     <g id="line2d_6">
      <path d="M 272.647271 303.229812 
" style="fill: none; stroke: #000000; stroke-width: 1.5"/>
      <g>
       <use xlink:href="#m943a198652" x="272.647271" y="303.229812" style="stroke: #333333"/>
      </g>
     </g>
     <g id="text_3">
      <!-- −0.01 -->
      <g style="fill: #4d4d4d" transform="translate(258.478396 316.746562) scale(0.112 -0.112)">
       <defs>
        <path id="ArialMT-31" d="M 2384 0 
L 1822 0 
L 1822 3584 
Q 1619 3391 1289 3197 
Q 959 3003 697 2906 
L 697 3450 
Q 1169 3672 1522 3987 
Q 1875 4303 2022 4600 
L 2384 4600 
L 2384 0 
z
" transform="scale(0.015625)"/>
       </defs>
       <use xlink:href="#ArialMT-2212"/>
       <use xlink:href="#ArialMT-30" x="58.398438"/>
       <use xlink:href="#ArialMT-2e" x="114.013672"/>
       <use xlink:href="#ArialMT-30" x="141.796875"/>
       <use xlink:href="#ArialMT-31" x="197.412109"/>
      </g>
     </g>
    </g>
    <g id="xtick_4">
     <g id="line2d_7">
      <path d="M 384.569197 303.229812 
L 384.569197 13.824 
" clip-path="url(#p9b45cf9779)" style="fill: none; stroke: #e5e5e5; stroke-width: 0.8"/>
     </g>
     <g id="line2d_8">
      <path d="M 384.569197 303.229812 
" style="fill: none; stroke: #000000; stroke-width: 1.5"/>
      <g>
       <use xlink:href="#m943a198652" x="384.569197" y="303.229812" style="stroke: #333333"/>
      </g>
     </g>
     <g id="text_4">
      <!-- 0 -->
      <g style="fill: #4d4d4d" transform="translate(381.455072 316.746562) scale(0.112 -0.112)">
       <use xlink:href="#ArialMT-30"/>
      </g>
     </g>
    </g>
    <g id="xtick_5">
     <g id="line2d_9">
      <path d="M 104.764382 303.229812 
L 104.764382 13.824 
" clip-path="url(#p9b45cf9779)" style="fill: none; stroke: #fafafa"/>
     </g>
    </g>
    <g id="xtick_6">
     <g id="line2d_10">
      <path d="M 216.686308 303.229812 
L 216.686308 13.824 
" clip-path="url(#p9b45cf9779)" style="fill: none; stroke: #fafafa"/>
     </g>
    </g>
    <g id="xtick_7">
     <g id="line2d_11">
      <path d="M 328.608234 303.229812 
L 328.608234 13.824 
" clip-path="url(#p9b45cf9779)" style="fill: none; stroke: #fafafa"/>
     </g>
    </g>
    <g id="xtick_8">
     <g id="line2d_12">
      <path d="M 440.53016 303.229812 
L 440.53016 13.824 
" clip-path="url(#p9b45cf9779)" style="fill: none; stroke: #fafafa"/>
     </g>
    </g>
   </g>
   <g id="matplotlib.axis_2">
    <g id="ytick_1">
     <g id="line2d_13">
      <path d="M 46.36825 290.075003 
L 456.192 290.075003 
" clip-path="url(#p9b45cf9779)" style="fill: none; stroke: #e5e5e5; stroke-width: 0.8"/>
     </g>
     <g id="line2d_14">
      <path d="M 46.36825 290.075003 
" style="fill: none; stroke: #000000; stroke-width: 1.5"/>
      <defs>
       <path id="m4494e53d98" d="M 0 0 
L -3.5 0 
" style="stroke: #333333"/>
      </defs>
      <g>
       <use xlink:href="#m4494e53d98" x="46.36825" y="290.075003" style="stroke: #333333"/>
      </g>
     </g>
     <g id="text_5">
      <!-- 0 -->
      <g style="fill: #4d4d4d" transform="translate(34.64 292.970378) scale(0.112 -0.112)">
       <use xlink:href="#ArialMT-30"/>
      </g>
     </g>
    </g>
    <g id="ytick_2">
     <g id="line2d_15">
      <path d="M 46.36825 236.604885 
L 456.192 236.604885 
" clip-path="url(#p9b45cf9779)" style="fill: none; stroke: #e5e5e5; stroke-width: 0.8"/>
     </g>
     <g id="line2d_16">
      <path d="M 46.36825 236.604885 
" style="fill: none; stroke: #000000; stroke-width: 1.5"/>
      <g>
       <use xlink:href="#m4494e53d98" x="46.36825" y="236.604885" style="stroke: #333333"/>
      </g>
     </g>
     <g id="text_6">
      <!-- 50 -->
      <g style="fill: #4d4d4d" transform="translate(28.41175 239.50026) scale(0.112 -0.112)">
       <defs>
        <path id="ArialMT-35" d="M 266 1200 
L 856 1250 
Q 922 819 1161 601 
Q 1400 384 1738 384 
Q 2144 384 2425 690 
Q 2706 997 2706 1503 
Q 2706 1984 2436 2262 
Q 2166 2541 1728 2541 
Q 1456 2541 1237 2417 
Q 1019 2294 894 2097 
L 366 2166 
L 809 4519 
L 3088 4519 
L 3088 3981 
L 1259 3981 
L 1013 2750 
Q 1425 3038 1878 3038 
Q 2478 3038 2890 2622 
Q 3303 2206 3303 1553 
Q 3303 931 2941 478 
Q 2500 -78 1738 -78 
Q 1113 -78 717 272 
Q 322 622 266 1200 
z
" transform="scale(0.015625)"/>
       </defs>
       <use xlink:href="#ArialMT-35"/>
       <use xlink:href="#ArialMT-30" x="55.615234"/>
      </g>
     </g>
    </g>
    <g id="ytick_3">
     <g id="line2d_17">
      <path d="M 46.36825 183.134767 
L 456.192 183.134767 
" clip-path="url(#p9b45cf9779)" style="fill: none; stroke: #e5e5e5; stroke-width: 0.8"/>
     </g>
     <g id="line2d_18">
      <path d="M 46.36825 183.134767 
" style="fill: none; stroke: #000000; stroke-width: 1.5"/>
      <g>
       <use xlink:href="#m4494e53d98" x="46.36825" y="183.134767" style="stroke: #333333"/>
      </g>
     </g>
     <g id="text_7">
      <!-- 100 -->
      <g style="fill: #4d4d4d" transform="translate(22.1835 186.030142) scale(0.112 -0.112)">
       <use xlink:href="#ArialMT-31"/>
       <use xlink:href="#ArialMT-30" x="55.615234"/>
       <use xlink:href="#ArialMT-30" x="111.230469"/>
      </g>
     </g>
    </g>
    <g id="ytick_4">
     <g id="line2d_19">
      <path d="M 46.36825 129.66465 
L 456.192 129.66465 
" clip-path="url(#p9b45cf9779)" style="fill: none; stroke: #e5e5e5; stroke-width: 0.8"/>
     </g>
     <g id="line2d_20">
      <path d="M 46.36825 129.66465 
" style="fill: none; stroke: #000000; stroke-width: 1.5"/>
      <g>
       <use xlink:href="#m4494e53d98" x="46.36825" y="129.66465" style="stroke: #333333"/>
      </g>
     </g>
     <g id="text_8">
      <!-- 150 -->
      <g style="fill: #4d4d4d" transform="translate(22.1835 132.560025) scale(0.112 -0.112)">
       <use xlink:href="#ArialMT-31"/>
       <use xlink:href="#ArialMT-35" x="55.615234"/>
       <use xlink:href="#ArialMT-30" x="111.230469"/>
      </g>
     </g>
    </g>
    <g id="ytick_5">
     <g id="line2d_21">
      <path d="M 46.36825 76.194532 
L 456.192 76.194532 
" clip-path="url(#p9b45cf9779)" style="fill: none; stroke: #e5e5e5; stroke-width: 0.8"/>
     </g>
     <g id="line2d_22">
      <path d="M 46.36825 76.194532 
" style="fill: none; stroke: #000000; stroke-width: 1.5"/>
      <g>
       <use xlink:href="#m4494e53d98" x="46.36825" y="76.194532" style="stroke: #333333"/>
      </g>
     </g>
     <g id="text_9">
      <!-- 200 -->
      <g style="fill: #4d4d4d" transform="translate(22.1835 79.089907) scale(0.112 -0.112)">
       <use xlink:href="#ArialMT-32"/>
       <use xlink:href="#ArialMT-30" x="55.615234"/>
       <use xlink:href="#ArialMT-30" x="111.230469"/>
      </g>
     </g>
    </g>
    <g id="ytick_6">
     <g id="line2d_23">
      <path d="M 46.36825 22.724414 
L 456.192 22.724414 
" clip-path="url(#p9b45cf9779)" style="fill: none; stroke: #e5e5e5; stroke-width: 0.8"/>
     </g>
     <g id="line2d_24">
      <path d="M 46.36825 22.724414 
" style="fill: none; stroke: #000000; stroke-width: 1.5"/>
      <g>
       <use xlink:href="#m4494e53d98" x="46.36825" y="22.724414" style="stroke: #333333"/>
      </g>
     </g>
     <g id="text_10">
      <!-- 250 -->
      <g style="fill: #4d4d4d" transform="translate(22.1835 25.619789) scale(0.112 -0.112)">
       <use xlink:href="#ArialMT-32"/>
       <use xlink:href="#ArialMT-35" x="55.615234"/>
       <use xlink:href="#ArialMT-30" x="111.230469"/>
      </g>
     </g>
    </g>
    <g id="ytick_7">
     <g id="line2d_25">
      <path d="M 46.36825 263.339944 
L 456.192 263.339944 
" clip-path="url(#p9b45cf9779)" style="fill: none; stroke: #fafafa"/>
     </g>
    </g>
    <g id="ytick_8">
     <g id="line2d_26">
      <path d="M 46.36825 209.869826 
L 456.192 209.869826 
" clip-path="url(#p9b45cf9779)" style="fill: none; stroke: #fafafa"/>
     </g>
    </g>
    <g id="ytick_9">
     <g id="line2d_27">
      <path d="M 46.36825 156.399708 
L 456.192 156.399708 
" clip-path="url(#p9b45cf9779)" style="fill: none; stroke: #fafafa"/>
     </g>
    </g>
    <g id="ytick_10">
     <g id="line2d_28">
      <path d="M 46.36825 102.929591 
L 456.192 102.929591 
" clip-path="url(#p9b45cf9779)" style="fill: none; stroke: #fafafa"/>
     </g>
    </g>
    <g id="ytick_11">
     <g id="line2d_29">
      <path d="M 46.36825 49.459473 
L 456.192 49.459473 
" clip-path="url(#p9b45cf9779)" style="fill: none; stroke: #fafafa"/>
     </g>
    </g>
   </g>
   <g id="PolyCollection_1">
    <path d="M 64.996602 290.075003 
L 64.996602 289.702345 
L 68.208387 289.702345 
L 68.208387 290.075003 
z
" clip-path="url(#p9b45cf9779)" style="fill: #add8e6; stroke: #ffffff; stroke-width: 0.886227"/>
    <path d="M 68.208387 290.075003 
L 68.208387 290.075003 
L 71.420172 290.075003 
L 71.420172 290.075003 
z
" clip-path="url(#p9b45cf9779)" style="fill: #add8e6; stroke: #ffffff; stroke-width: 0.886227"/>
    <path d="M 71.420172 290.075003 
L 71.420172 290.075003 
L 74.631957 290.075003 
L 74.631957 290.075003 
z
" clip-path="url(#p9b45cf9779)" style="fill: #add8e6; stroke: #ffffff; stroke-width: 0.886227"/>
    <path d="M 74.631957 290.075003 
L 74.631957 290.075003 
L 77.843742 290.075003 
L 77.843742 290.075003 
z
" clip-path="url(#p9b45cf9779)" style="fill: #add8e6; stroke: #ffffff; stroke-width: 0.886227"/>
    <path d="M 77.843742 290.075003 
L 77.843742 290.075003 
L 81.055527 290.075003 
L 81.055527 290.075003 
z
" clip-path="url(#p9b45cf9779)" style="fill: #add8e6; stroke: #ffffff; stroke-width: 0.886227"/>
    <path d="M 81.055527 290.075003 
L 81.055527 290.075003 
L 84.267312 290.075003 
L 84.267312 290.075003 
z
" clip-path="url(#p9b45cf9779)" style="fill: #add8e6; stroke: #ffffff; stroke-width: 0.886227"/>
    <path d="M 84.267312 290.075003 
L 84.267312 290.075003 
L 87.479096 290.075003 
L 87.479096 290.075003 
z
" clip-path="url(#p9b45cf9779)" style="fill: #add8e6; stroke: #ffffff; stroke-width: 0.886227"/>
    <path d="M 87.479096 290.075003 
L 87.479096 290.075003 
L 90.690881 290.075003 
L 90.690881 290.075003 
z
" clip-path="url(#p9b45cf9779)" style="fill: #add8e6; stroke: #ffffff; stroke-width: 0.886227"/>
    <path d="M 90.690881 290.075003 
L 90.690881 290.075003 
L 93.902666 290.075003 
L 93.902666 290.075003 
z
" clip-path="url(#p9b45cf9779)" style="fill: #add8e6; stroke: #ffffff; stroke-width: 0.886227"/>
    <path d="M 93.902666 290.075003 
L 93.902666 290.075003 
L 97.114451 290.075003 
L 97.114451 290.075003 
z
" clip-path="url(#p9b45cf9779)" style="fill: #add8e6; stroke: #ffffff; stroke-width: 0.886227"/>
    <path d="M 97.114451 290.075003 
L 97.114451 290.075003 
L 100.326236 290.075003 
L 100.326236 290.075003 
z
" clip-path="url(#p9b45cf9779)" style="fill: #add8e6; stroke: #ffffff; stroke-width: 0.886227"/>
    <path d="M 100.326236 290.075003 
L 100.326236 290.075003 
L 103.538021 290.075003 
L 103.538021 290.075003 
z
" clip-path="url(#p9b45cf9779)" style="fill: #add8e6; stroke: #ffffff; stroke-width: 0.886227"/>
    <path d="M 103.538021 290.075003 
L 103.538021 290.075003 
L 106.749806 290.075003 
L 106.749806 290.075003 
z
" clip-path="url(#p9b45cf9779)" style="fill: #add8e6; stroke: #ffffff; stroke-width: 0.886227"/>
    <path d="M 106.749806 290.075003 
L 106.749806 290.075003 
L 109.961591 290.075003 
L 109.961591 290.075003 
z
" clip-path="url(#p9b45cf9779)" style="fill: #add8e6; stroke: #ffffff; stroke-width: 0.886227"/>
    <path d="M 109.961591 290.075003 
L 109.961591 290.075003 
L 113.173375 290.075003 
L 113.173375 290.075003 
z
" clip-path="url(#p9b45cf9779)" style="fill: #add8e6; stroke: #ffffff; stroke-width: 0.886227"/>
    <path d="M 113.173375 290.075003 
L 113.173375 289.702345 
L 116.38516 289.702345 
L 116.38516 290.075003 
z
" clip-path="url(#p9b45cf9779)" style="fill: #add8e6; stroke: #ffffff; stroke-width: 0.886227"/>
    <path d="M 116.38516 290.075003 
L 116.38516 290.075003 
L 119.596945 290.075003 
L 119.596945 290.075003 
z
" clip-path="url(#p9b45cf9779)" style="fill: #add8e6; stroke: #ffffff; stroke-width: 0.886227"/>
    <path d="M 119.596945 290.075003 
L 119.596945 290.075003 
L 122.80873 290.075003 
L 122.80873 290.075003 
z
" clip-path="url(#p9b45cf9779)" style="fill: #add8e6; stroke: #ffffff; stroke-width: 0.886227"/>
    <path d="M 122.80873 290.075003 
L 122.80873 289.329688 
L 126.020515 289.329688 
L 126.020515 290.075003 
z
" clip-path="url(#p9b45cf9779)" style="fill: #add8e6; stroke: #ffffff; stroke-width: 0.886227"/>
    <path d="M 126.020515 290.075003 
L 126.020515 289.702345 
L 129.2323 289.702345 
L 129.2323 290.075003 
z
" clip-path="url(#p9b45cf9779)" style="fill: #add8e6; stroke: #ffffff; stroke-width: 0.886227"/>
    <path d="M 129.2323 290.075003 
L 129.2323 289.702345 
L 132.444085 289.702345 
L 132.444085 290.075003 
z
" clip-path="url(#p9b45cf9779)" style="fill: #add8e6; stroke: #ffffff; stroke-width: 0.886227"/>
    <path d="M 132.444085 290.075003 
L 132.444085 290.075003 
L 135.65587 290.075003 
L 135.65587 290.075003 
z
" clip-path="url(#p9b45cf9779)" style="fill: #add8e6; stroke: #ffffff; stroke-width: 0.886227"/>
    <path d="M 135.65587 290.075003 
L 135.65587 289.702345 
L 138.867654 289.702345 
L 138.867654 290.075003 
z
" clip-path="url(#p9b45cf9779)" style="fill: #add8e6; stroke: #ffffff; stroke-width: 0.886227"/>
    <path d="M 138.867654 290.075003 
L 138.867654 290.075003 
L 142.079439 290.075003 
L 142.079439 290.075003 
z
" clip-path="url(#p9b45cf9779)" style="fill: #add8e6; stroke: #ffffff; stroke-width: 0.886227"/>
    <path d="M 142.079439 290.075003 
L 142.079439 290.075003 
L 145.291224 290.075003 
L 145.291224 290.075003 
z
" clip-path="url(#p9b45cf9779)" style="fill: #add8e6; stroke: #ffffff; stroke-width: 0.886227"/>
    <path d="M 145.291224 290.075003 
L 145.291224 290.075003 
L 148.503009 290.075003 
L 148.503009 290.075003 
z
" clip-path="url(#p9b45cf9779)" style="fill: #add8e6; stroke: #ffffff; stroke-width: 0.886227"/>
    <path d="M 148.503009 290.075003 
L 148.503009 290.075003 
L 151.714794 290.075003 
L 151.714794 290.075003 
z
" clip-path="url(#p9b45cf9779)" style="fill: #add8e6; stroke: #ffffff; stroke-width: 0.886227"/>
    <path d="M 151.714794 290.075003 
L 151.714794 290.075003 
L 154.926579 290.075003 
L 154.926579 290.075003 
z
" clip-path="url(#p9b45cf9779)" style="fill: #add8e6; stroke: #ffffff; stroke-width: 0.886227"/>
    <path d="M 154.926579 290.075003 
L 154.926579 289.702345 
L 158.138364 289.702345 
L 158.138364 290.075003 
z
" clip-path="url(#p9b45cf9779)" style="fill: #add8e6; stroke: #ffffff; stroke-width: 0.886227"/>
    <path d="M 158.138364 290.075003 
L 158.138364 289.702345 
L 161.350149 289.702345 
L 161.350149 290.075003 
z
" clip-path="url(#p9b45cf9779)" style="fill: #add8e6; stroke: #ffffff; stroke-width: 0.886227"/>
    <path d="M 161.350149 290.075003 
L 161.350149 289.702345 
L 164.561933 289.702345 
L 164.561933 290.075003 
z
" clip-path="url(#p9b45cf9779)" style="fill: #add8e6; stroke: #ffffff; stroke-width: 0.886227"/>
    <path d="M 164.561933 290.075003 
L 164.561933 289.702345 
L 167.773718 289.702345 
L 167.773718 290.075003 
z
" clip-path="url(#p9b45cf9779)" style="fill: #add8e6; stroke: #ffffff; stroke-width: 0.886227"/>
    <path d="M 167.773718 290.075003 
L 167.773718 290.075003 
L 170.985503 290.075003 
L 170.985503 290.075003 
z
" clip-path="url(#p9b45cf9779)" style="fill: #add8e6; stroke: #ffffff; stroke-width: 0.886227"/>
    <path d="M 170.985503 290.075003 
L 170.985503 288.95703 
L 174.197288 288.95703 
L 174.197288 290.075003 
z
" clip-path="url(#p9b45cf9779)" style="fill: #add8e6; stroke: #ffffff; stroke-width: 0.886227"/>
    <path d="M 174.197288 290.075003 
L 174.197288 289.329688 
L 177.409073 289.329688 
L 177.409073 290.075003 
z
" clip-path="url(#p9b45cf9779)" style="fill: #add8e6; stroke: #ffffff; stroke-width: 0.886227"/>
    <path d="M 177.409073 290.075003 
L 177.409073 288.95703 
L 180.620858 288.95703 
L 180.620858 290.075003 
z
" clip-path="url(#p9b45cf9779)" style="fill: #add8e6; stroke: #ffffff; stroke-width: 0.886227"/>
    <path d="M 180.620858 290.075003 
L 180.620858 288.95703 
L 183.832643 288.95703 
L 183.832643 290.075003 
z
" clip-path="url(#p9b45cf9779)" style="fill: #add8e6; stroke: #ffffff; stroke-width: 0.886227"/>
    <path d="M 183.832643 290.075003 
L 183.832643 289.702345 
L 187.044428 289.702345 
L 187.044428 290.075003 
z
" clip-path="url(#p9b45cf9779)" style="fill: #add8e6; stroke: #ffffff; stroke-width: 0.886227"/>
    <path d="M 187.044428 290.075003 
L 187.044428 288.584373 
L 190.256212 288.584373 
L 190.256212 290.075003 
z
" clip-path="url(#p9b45cf9779)" style="fill: #add8e6; stroke: #ffffff; stroke-width: 0.886227"/>
    <path d="M 190.256212 290.075003 
L 190.256212 289.702345 
L 193.467997 289.702345 
L 193.467997 290.075003 
z
" clip-path="url(#p9b45cf9779)" style="fill: #add8e6; stroke: #ffffff; stroke-width: 0.886227"/>
    <path d="M 193.467997 290.075003 
L 193.467997 289.329688 
L 196.679782 289.329688 
L 196.679782 290.075003 
z
" clip-path="url(#p9b45cf9779)" style="fill: #add8e6; stroke: #ffffff; stroke-width: 0.886227"/>
    <path d="M 196.679782 290.075003 
L 196.679782 290.075003 
L 199.891567 290.075003 
L 199.891567 290.075003 
z
" clip-path="url(#p9b45cf9779)" style="fill: #add8e6; stroke: #ffffff; stroke-width: 0.886227"/>
    <path d="M 199.891567 290.075003 
L 199.891567 289.702345 
L 203.103352 289.702345 
L 203.103352 290.075003 
z
" clip-path="url(#p9b45cf9779)" style="fill: #add8e6; stroke: #ffffff; stroke-width: 0.886227"/>
    <path d="M 203.103352 290.075003 
L 203.103352 289.702345 
L 206.315137 289.702345 
L 206.315137 290.075003 
z
" clip-path="url(#p9b45cf9779)" style="fill: #add8e6; stroke: #ffffff; stroke-width: 0.886227"/>
    <path d="M 206.315137 290.075003 
L 206.315137 288.584373 
L 209.526922 288.584373 
L 209.526922 290.075003 
z
" clip-path="url(#p9b45cf9779)" style="fill: #add8e6; stroke: #ffffff; stroke-width: 0.886227"/>
    <path d="M 209.526922 290.075003 
L 209.526922 286.348428 
L 212.738707 286.348428 
L 212.738707 290.075003 
z
" clip-path="url(#p9b45cf9779)" style="fill: #add8e6; stroke: #ffffff; stroke-width: 0.886227"/>
    <path d="M 212.738707 290.075003 
L 212.738707 288.584373 
L 215.950491 288.584373 
L 215.950491 290.075003 
z
" clip-path="url(#p9b45cf9779)" style="fill: #add8e6; stroke: #ffffff; stroke-width: 0.886227"/>
    <path d="M 215.950491 290.075003 
L 215.950491 287.4664 
L 219.162276 287.4664 
L 219.162276 290.075003 
z
" clip-path="url(#p9b45cf9779)" style="fill: #add8e6; stroke: #ffffff; stroke-width: 0.886227"/>
    <path d="M 219.162276 290.075003 
L 219.162276 287.4664 
L 222.374061 287.4664 
L 222.374061 290.075003 
z
" clip-path="url(#p9b45cf9779)" style="fill: #add8e6; stroke: #ffffff; stroke-width: 0.886227"/>
    <path d="M 222.374061 290.075003 
L 222.374061 289.702345 
L 225.585846 289.702345 
L 225.585846 290.075003 
z
" clip-path="url(#p9b45cf9779)" style="fill: #add8e6; stroke: #ffffff; stroke-width: 0.886227"/>
    <path d="M 225.585846 290.075003 
L 225.585846 287.839058 
L 228.797631 287.839058 
L 228.797631 290.075003 
z
" clip-path="url(#p9b45cf9779)" style="fill: #add8e6; stroke: #ffffff; stroke-width: 0.886227"/>
    <path d="M 228.797631 290.075003 
L 228.797631 287.4664 
L 232.009416 287.4664 
L 232.009416 290.075003 
z
" clip-path="url(#p9b45cf9779)" style="fill: #add8e6; stroke: #ffffff; stroke-width: 0.886227"/>
    <path d="M 232.009416 290.075003 
L 232.009416 287.839058 
L 235.221201 287.839058 
L 235.221201 290.075003 
z
" clip-path="url(#p9b45cf9779)" style="fill: #add8e6; stroke: #ffffff; stroke-width: 0.886227"/>
    <path d="M 235.221201 290.075003 
L 235.221201 286.348428 
L 238.432986 286.348428 
L 238.432986 290.075003 
z
" clip-path="url(#p9b45cf9779)" style="fill: #add8e6; stroke: #ffffff; stroke-width: 0.886227"/>
    <path d="M 238.432986 290.075003 
L 238.432986 285.97577 
L 241.64477 285.97577 
L 241.64477 290.075003 
z
" clip-path="url(#p9b45cf9779)" style="fill: #add8e6; stroke: #ffffff; stroke-width: 0.886227"/>
    <path d="M 241.64477 290.075003 
L 241.64477 286.721085 
L 244.856555 286.721085 
L 244.856555 290.075003 
z
" clip-path="url(#p9b45cf9779)" style="fill: #add8e6; stroke: #ffffff; stroke-width: 0.886227"/>
    <path d="M 244.856555 290.075003 
L 244.856555 286.348428 
L 248.06834 286.348428 
L 248.06834 290.075003 
z
" clip-path="url(#p9b45cf9779)" style="fill: #add8e6; stroke: #ffffff; stroke-width: 0.886227"/>
    <path d="M 248.06834 290.075003 
L 248.06834 283.367168 
L 251.280125 283.367168 
L 251.280125 290.075003 
z
" clip-path="url(#p9b45cf9779)" style="fill: #add8e6; stroke: #ffffff; stroke-width: 0.886227"/>
    <path d="M 251.280125 290.075003 
L 251.280125 285.97577 
L 254.49191 285.97577 
L 254.49191 290.075003 
z
" clip-path="url(#p9b45cf9779)" style="fill: #add8e6; stroke: #ffffff; stroke-width: 0.886227"/>
    <path d="M 254.49191 290.075003 
L 254.49191 285.603113 
L 257.703695 285.603113 
L 257.703695 290.075003 
z
" clip-path="url(#p9b45cf9779)" style="fill: #add8e6; stroke: #ffffff; stroke-width: 0.886227"/>
    <path d="M 257.703695 290.075003 
L 257.703695 282.249195 
L 260.91548 282.249195 
L 260.91548 290.075003 
z
" clip-path="url(#p9b45cf9779)" style="fill: #add8e6; stroke: #ffffff; stroke-width: 0.886227"/>
    <path d="M 260.91548 290.075003 
L 260.91548 280.01325 
L 264.127264 280.01325 
L 264.127264 290.075003 
z
" clip-path="url(#p9b45cf9779)" style="fill: #add8e6; stroke: #ffffff; stroke-width: 0.886227"/>
    <path d="M 264.127264 290.075003 
L 264.127264 282.621853 
L 267.339049 282.621853 
L 267.339049 290.075003 
z
" clip-path="url(#p9b45cf9779)" style="fill: #add8e6; stroke: #ffffff; stroke-width: 0.886227"/>
    <path d="M 267.339049 290.075003 
L 267.339049 282.249195 
L 270.550834 282.249195 
L 270.550834 290.075003 
z
" clip-path="url(#p9b45cf9779)" style="fill: #add8e6; stroke: #ffffff; stroke-width: 0.886227"/>
    <path d="M 270.550834 290.075003 
L 270.550834 281.50388 
L 273.762619 281.50388 
L 273.762619 290.075003 
z
" clip-path="url(#p9b45cf9779)" style="fill: #add8e6; stroke: #ffffff; stroke-width: 0.886227"/>
    <path d="M 273.762619 290.075003 
L 273.762619 281.131223 
L 276.974404 281.131223 
L 276.974404 290.075003 
z
" clip-path="url(#p9b45cf9779)" style="fill: #add8e6; stroke: #ffffff; stroke-width: 0.886227"/>
    <path d="M 276.974404 290.075003 
L 276.974404 278.895278 
L 280.186189 278.895278 
L 280.186189 290.075003 
z
" clip-path="url(#p9b45cf9779)" style="fill: #add8e6; stroke: #ffffff; stroke-width: 0.886227"/>
    <path d="M 280.186189 290.075003 
L 280.186189 281.50388 
L 283.397974 281.50388 
L 283.397974 290.075003 
z
" clip-path="url(#p9b45cf9779)" style="fill: #add8e6; stroke: #ffffff; stroke-width: 0.886227"/>
    <path d="M 283.397974 290.075003 
L 283.397974 279.267935 
L 286.609759 279.267935 
L 286.609759 290.075003 
z
" clip-path="url(#p9b45cf9779)" style="fill: #add8e6; stroke: #ffffff; stroke-width: 0.886227"/>
    <path d="M 286.609759 290.075003 
L 286.609759 275.168703 
L 289.821543 275.168703 
L 289.821543 290.075003 
z
" clip-path="url(#p9b45cf9779)" style="fill: #add8e6; stroke: #ffffff; stroke-width: 0.886227"/>
    <path d="M 289.821543 290.075003 
L 289.821543 269.57884 
L 293.033328 269.57884 
L 293.033328 290.075003 
z
" clip-path="url(#p9b45cf9779)" style="fill: #add8e6; stroke: #ffffff; stroke-width: 0.886227"/>
    <path d="M 293.033328 290.075003 
L 293.033328 275.54136 
L 296.245113 275.54136 
L 296.245113 290.075003 
z
" clip-path="url(#p9b45cf9779)" style="fill: #add8e6; stroke: #ffffff; stroke-width: 0.886227"/>
    <path d="M 296.245113 290.075003 
L 296.245113 268.460868 
L 299.456898 268.460868 
L 299.456898 290.075003 
z
" clip-path="url(#p9b45cf9779)" style="fill: #add8e6; stroke: #ffffff; stroke-width: 0.886227"/>
    <path d="M 299.456898 290.075003 
L 299.456898 271.06947 
L 302.668683 271.06947 
L 302.668683 290.075003 
z
" clip-path="url(#p9b45cf9779)" style="fill: #add8e6; stroke: #ffffff; stroke-width: 0.886227"/>
    <path d="M 302.668683 290.075003 
L 302.668683 266.597581 
L 305.880468 266.597581 
L 305.880468 290.075003 
z
" clip-path="url(#p9b45cf9779)" style="fill: #add8e6; stroke: #ffffff; stroke-width: 0.886227"/>
    <path d="M 305.880468 290.075003 
L 305.880468 270.696813 
L 309.092253 270.696813 
L 309.092253 290.075003 
z
" clip-path="url(#p9b45cf9779)" style="fill: #add8e6; stroke: #ffffff; stroke-width: 0.886227"/>
    <path d="M 309.092253 290.075003 
L 309.092253 264.361636 
L 312.304038 264.361636 
L 312.304038 290.075003 
z
" clip-path="url(#p9b45cf9779)" style="fill: #add8e6; stroke: #ffffff; stroke-width: 0.886227"/>
    <path d="M 312.304038 290.075003 
L 312.304038 265.106951 
L 315.515822 265.106951 
L 315.515822 290.075003 
z
" clip-path="url(#p9b45cf9779)" style="fill: #add8e6; stroke: #ffffff; stroke-width: 0.886227"/>
    <path d="M 315.515822 290.075003 
L 315.515822 268.08821 
L 318.727607 268.08821 
L 318.727607 290.075003 
z
" clip-path="url(#p9b45cf9779)" style="fill: #add8e6; stroke: #ffffff; stroke-width: 0.886227"/>
    <path d="M 318.727607 290.075003 
L 318.727607 261.007718 
L 321.939392 261.007718 
L 321.939392 290.075003 
z
" clip-path="url(#p9b45cf9779)" style="fill: #add8e6; stroke: #ffffff; stroke-width: 0.886227"/>
    <path d="M 321.939392 290.075003 
L 321.939392 259.517088 
L 325.151177 259.517088 
L 325.151177 290.075003 
z
" clip-path="url(#p9b45cf9779)" style="fill: #add8e6; stroke: #ffffff; stroke-width: 0.886227"/>
    <path d="M 325.151177 290.075003 
L 325.151177 253.181911 
L 328.362962 253.181911 
L 328.362962 290.075003 
z
" clip-path="url(#p9b45cf9779)" style="fill: #add8e6; stroke: #ffffff; stroke-width: 0.886227"/>
    <path d="M 328.362962 290.075003 
L 328.362962 251.318623 
L 331.574747 251.318623 
L 331.574747 290.075003 
z
" clip-path="url(#p9b45cf9779)" style="fill: #add8e6; stroke: #ffffff; stroke-width: 0.886227"/>
    <path d="M 331.574747 290.075003 
L 331.574747 233.803721 
L 334.786532 233.803721 
L 334.786532 290.075003 
z
" clip-path="url(#p9b45cf9779)" style="fill: #add8e6; stroke: #ffffff; stroke-width: 0.886227"/>
    <path d="M 334.786532 290.075003 
L 334.786532 233.431063 
L 337.998317 233.431063 
L 337.998317 290.075003 
z
" clip-path="url(#p9b45cf9779)" style="fill: #add8e6; stroke: #ffffff; stroke-width: 0.886227"/>
    <path d="M 337.998317 290.075003 
L 337.998317 225.232598 
L 341.210101 225.232598 
L 341.210101 290.075003 
z
" clip-path="url(#p9b45cf9779)" style="fill: #add8e6; stroke: #ffffff; stroke-width: 0.886227"/>
    <path d="M 341.210101 290.075003 
L 341.210101 218.152106 
L 344.421886 218.152106 
L 344.421886 290.075003 
z
" clip-path="url(#p9b45cf9779)" style="fill: #add8e6; stroke: #ffffff; stroke-width: 0.886227"/>
    <path d="M 344.421886 290.075003 
L 344.421886 224.487283 
L 347.633671 224.487283 
L 347.633671 290.075003 
z
" clip-path="url(#p9b45cf9779)" style="fill: #add8e6; stroke: #ffffff; stroke-width: 0.886227"/>
    <path d="M 347.633671 290.075003 
L 347.633671 212.934901 
L 350.845456 212.934901 
L 350.845456 290.075003 
z
" clip-path="url(#p9b45cf9779)" style="fill: #add8e6; stroke: #ffffff; stroke-width: 0.886227"/>
    <path d="M 350.845456 290.075003 
L 350.845456 210.698956 
L 354.057241 210.698956 
L 354.057241 290.075003 
z
" clip-path="url(#p9b45cf9779)" style="fill: #add8e6; stroke: #ffffff; stroke-width: 0.886227"/>
    <path d="M 354.057241 290.075003 
L 354.057241 195.419998 
L 357.269026 195.419998 
L 357.269026 290.075003 
z
" clip-path="url(#p9b45cf9779)" style="fill: #add8e6; stroke: #ffffff; stroke-width: 0.886227"/>
    <path d="M 357.269026 290.075003 
L 357.269026 184.985589 
L 360.480811 184.985589 
L 360.480811 290.075003 
z
" clip-path="url(#p9b45cf9779)" style="fill: #add8e6; stroke: #ffffff; stroke-width: 0.886227"/>
    <path d="M 360.480811 290.075003 
L 360.480811 170.079289 
L 363.692596 170.079289 
L 363.692596 290.075003 
z
" clip-path="url(#p9b45cf9779)" style="fill: #add8e6; stroke: #ffffff; stroke-width: 0.886227"/>
    <path d="M 363.692596 290.075003 
L 363.692596 145.483894 
L 366.90438 145.483894 
L 366.90438 290.075003 
z
" clip-path="url(#p9b45cf9779)" style="fill: #add8e6; stroke: #ffffff; stroke-width: 0.886227"/>
    <path d="M 366.90438 290.075003 
L 366.90438 135.794799 
L 370.116165 135.794799 
L 370.116165 290.075003 
z
" clip-path="url(#p9b45cf9779)" style="fill: #add8e6; stroke: #ffffff; stroke-width: 0.886227"/>
    <path d="M 370.116165 290.075003 
L 370.116165 105.982199 
L 373.32795 105.982199 
L 373.32795 290.075003 
z
" clip-path="url(#p9b45cf9779)" style="fill: #add8e6; stroke: #ffffff; stroke-width: 0.886227"/>
    <path d="M 373.32795 290.075003 
L 373.32795 92.193872 
L 376.539735 92.193872 
L 376.539735 290.075003 
z
" clip-path="url(#p9b45cf9779)" style="fill: #add8e6; stroke: #ffffff; stroke-width: 0.886227"/>
    <path d="M 376.539735 290.075003 
L 376.539735 70.952394 
L 379.75152 70.952394 
L 379.75152 290.075003 
z
" clip-path="url(#p9b45cf9779)" style="fill: #add8e6; stroke: #ffffff; stroke-width: 0.886227"/>
    <path d="M 379.75152 290.075003 
L 379.75152 46.729657 
L 382.963305 46.729657 
L 382.963305 290.075003 
z
" clip-path="url(#p9b45cf9779)" style="fill: #add8e6; stroke: #ffffff; stroke-width: 0.886227"/>
    <path d="M 382.963305 290.075003 
L 382.963305 28.46944 
L 386.17509 28.46944 
L 386.17509 290.075003 
z
" clip-path="url(#p9b45cf9779)" style="fill: #add8e6; stroke: #ffffff; stroke-width: 0.886227"/>
    <path d="M 386.17509 290.075003 
L 386.17509 26.97881 
L 389.386875 26.97881 
L 389.386875 290.075003 
z
" clip-path="url(#p9b45cf9779)" style="fill: #add8e6; stroke: #ffffff; stroke-width: 0.886227"/>
    <path d="M 389.386875 290.075003 
L 389.386875 31.078042 
L 392.598659 31.078042 
L 392.598659 290.075003 
z
" clip-path="url(#p9b45cf9779)" style="fill: #add8e6; stroke: #ffffff; stroke-width: 0.886227"/>
    <path d="M 392.598659 290.075003 
L 392.598659 100.392337 
L 395.810444 100.392337 
L 395.810444 290.075003 
z
" clip-path="url(#p9b45cf9779)" style="fill: #add8e6; stroke: #ffffff; stroke-width: 0.886227"/>
    <path d="M 395.810444 290.075003 
L 395.810444 152.564386 
L 399.022229 152.564386 
L 399.022229 290.075003 
z
" clip-path="url(#p9b45cf9779)" style="fill: #add8e6; stroke: #ffffff; stroke-width: 0.886227"/>
    <path d="M 399.022229 290.075003 
L 399.022229 197.655943 
L 402.234014 197.655943 
L 402.234014 290.075003 
z
" clip-path="url(#p9b45cf9779)" style="fill: #add8e6; stroke: #ffffff; stroke-width: 0.886227"/>
    <path d="M 402.234014 290.075003 
L 402.234014 248.337363 
L 405.445799 248.337363 
L 405.445799 290.075003 
z
" clip-path="url(#p9b45cf9779)" style="fill: #add8e6; stroke: #ffffff; stroke-width: 0.886227"/>
    <path d="M 405.445799 290.075003 
L 405.445799 258.771773 
L 408.657584 258.771773 
L 408.657584 290.075003 
z
" clip-path="url(#p9b45cf9779)" style="fill: #add8e6; stroke: #ffffff; stroke-width: 0.886227"/>
    <path d="M 408.657584 290.075003 
L 408.657584 275.54136 
L 411.869369 275.54136 
L 411.869369 290.075003 
z
" clip-path="url(#p9b45cf9779)" style="fill: #add8e6; stroke: #ffffff; stroke-width: 0.886227"/>
    <path d="M 411.869369 290.075003 
L 411.869369 281.876538 
L 415.081154 281.876538 
L 415.081154 290.075003 
z
" clip-path="url(#p9b45cf9779)" style="fill: #add8e6; stroke: #ffffff; stroke-width: 0.886227"/>
    <path d="M 415.081154 290.075003 
L 415.081154 287.093743 
L 418.292938 287.093743 
L 418.292938 290.075003 
z
" clip-path="url(#p9b45cf9779)" style="fill: #add8e6; stroke: #ffffff; stroke-width: 0.886227"/>
    <path d="M 418.292938 290.075003 
L 418.292938 287.4664 
L 421.504723 287.4664 
L 421.504723 290.075003 
z
" clip-path="url(#p9b45cf9779)" style="fill: #add8e6; stroke: #ffffff; stroke-width: 0.886227"/>
    <path d="M 421.504723 290.075003 
L 421.504723 288.95703 
L 424.716508 288.95703 
L 424.716508 290.075003 
z
" clip-path="url(#p9b45cf9779)" style="fill: #add8e6; stroke: #ffffff; stroke-width: 0.886227"/>
    <path d="M 424.716508 290.075003 
L 424.716508 288.95703 
L 427.928293 288.95703 
L 427.928293 290.075003 
z
" clip-path="url(#p9b45cf9779)" style="fill: #add8e6; stroke: #ffffff; stroke-width: 0.886227"/>
    <path d="M 427.928293 290.075003 
L 427.928293 289.702345 
L 431.140078 289.702345 
L 431.140078 290.075003 
z
" clip-path="url(#p9b45cf9779)" style="fill: #add8e6; stroke: #ffffff; stroke-width: 0.886227"/>
    <path d="M 431.140078 290.075003 
L 431.140078 290.075003 
L 434.351863 290.075003 
L 434.351863 290.075003 
z
" clip-path="url(#p9b45cf9779)" style="fill: #add8e6; stroke: #ffffff; stroke-width: 0.886227"/>
    <path d="M 434.351863 290.075003 
L 434.351863 289.702345 
L 437.563648 289.702345 
L 437.563648 290.075003 
z
" clip-path="url(#p9b45cf9779)" style="fill: #add8e6; stroke: #ffffff; stroke-width: 0.886227"/>
   </g>
   <g id="PolyCollection_2"/>
   <g id="line2d_30">
    <path d="M 65.361764 289.943583 
L 119.880478 289.940096 
L 123.852039 289.734114 
L 127.46255 289.600182 
L 130.71201 289.73547 
L 135.405674 289.927394 
L 153.458228 289.955281 
L 161.401352 289.67061 
L 168.622374 289.670953 
L 180.176009 289.099189 
L 185.230724 289.171355 
L 191.729644 289.461975 
L 197.14541 289.604362 
L 201.116972 289.55478 
L 203.644329 289.303537 
L 206.171687 288.827276 
L 210.5043 287.942505 
L 212.670607 287.752079 
L 215.559015 287.765854 
L 219.530577 288.006884 
L 224.585292 288.405584 
L 226.751599 288.310915 
L 229.278956 287.984769 
L 238.305234 286.567965 
L 244.082051 286.169709 
L 246.609409 285.628171 
L 249.136766 285.094119 
L 251.303073 284.899789 
L 254.191481 284.691451 
L 255.635686 284.376577 
L 257.440941 283.749217 
L 261.412503 282.235493 
L 262.856707 281.922343 
L 264.661963 281.779278 
L 270.43878 281.598595 
L 273.68824 281.153327 
L 281.631364 279.684066 
L 283.075568 279.167316 
L 284.519773 278.412015 
L 286.325028 277.150912 
L 291.018692 273.582459 
L 292.823948 272.61199 
L 294.990254 271.718543 
L 298.600765 270.512214 
L 309.432297 266.998987 
L 312.320706 265.947664 
L 316.653319 264.530667 
L 318.097524 263.733846 
L 319.541728 262.641101 
L 320.985932 261.226434 
L 322.791188 259.054144 
L 325.318545 255.567478 
L 327.123801 252.814761 
L 328.568005 250.246912 
L 330.012209 247.185691 
L 331.817465 242.754015 
L 334.705873 235.571428 
L 336.511129 231.69053 
L 338.677435 227.643351 
L 340.482691 224.716015 
L 342.287946 222.263934 
L 344.093202 220.218947 
L 347.703713 216.266083 
L 349.147917 214.281748 
L 350.23107 212.427084 
L 351.314223 210.128553 
L 352.397377 207.312395 
L 353.841581 202.771164 
L 355.646836 196.141991 
L 357.813143 187.315751 
L 359.618398 179.168663 
L 361.423654 170.080669 
L 365.395216 148.440132 
L 369.005727 128.178013 
L 371.894135 110.481268 
L 375.504646 86.848821 
L 380.559361 53.245432 
L 382.003566 45.463533 
L 383.086719 40.780175 
L 383.808821 38.316519 
L 384.530923 36.44228 
L 385.253025 35.212818 
L 385.614077 34.858874 
L 385.975128 34.69008 
L 386.336179 34.715748 
L 386.69723 34.945864 
L 387.058281 35.391011 
L 387.419332 36.062217 
L 388.141434 38.127762 
L 388.863536 41.22965 
L 389.585638 45.441883 
L 390.307741 50.811952 
L 391.390894 61.044089 
L 392.474047 73.717186 
L 393.918251 93.682352 
L 396.084558 127.365051 
L 399.334018 177.896161 
L 401.139273 202.839348 
L 402.583478 220.149898 
L 404.027682 234.727827 
L 405.471886 246.588255 
L 406.555039 253.900541 
L 407.999244 261.932472 
L 409.443448 268.414689 
L 410.887653 273.656041 
L 411.970806 276.880858 
L 413.053959 279.557604 
L 414.137112 281.735315 
L 415.220266 283.467681 
L 416.303419 284.813171 
L 417.386572 285.833859 
L 418.469725 286.594368 
L 419.91393 287.315178 
L 421.719185 287.934586 
L 424.968645 288.742904 
L 428.579156 289.423445 
L 431.467564 289.745821 
L 434.717024 289.893583 
L 434.717024 289.893583 
" clip-path="url(#p9b45cf9779)" style="fill: none; stroke-dasharray: 3.27904,1.417963; stroke-dashoffset: 0; stroke: #000000; stroke-width: 0.886227; stroke-linejoin: miter"/>
   </g>
  </g>
  <g id="text_11">
   <!-- $\rho$ -->
   <g transform="translate(246.800125 333.444) scale(0.14 -0.14)">
    <defs>
     <path id="DejaVuSans-Oblique-3c1" d="M 1203 2875 
Q 1453 3194 1981 3475 
Q 2188 3584 2756 3584 
Q 3394 3584 3694 3078 
Q 3994 2572 3834 1747 
Q 3672 922 3175 415 
Q 2678 -91 2041 -91 
Q 1656 -91 1409 63 
Q 1163 213 1044 525 
L 681 -1331 
L 103 -1331 
L 697 1716 
Q 838 2438 1203 2875 
z
M 3238 1747 
Q 3359 2381 3169 2744 
Q 2978 3103 2522 3103 
Q 2066 3103 1734 2744 
Q 1403 2381 1281 1747 
Q 1156 1113 1347 750 
Q 1538 391 1994 391 
Q 2450 391 2781 750 
Q 3113 1113 3238 1747 
z
" transform="scale(0.015625)"/>
    </defs>
    <use xlink:href="#DejaVuSans-Oblique-3c1"/>
   </g>
  </g>
  <g id="text_12">
   <!-- density -->
   <g transform="translate(14.628938 180.704875) rotate(-90) scale(0.14 -0.14)">
    <defs>
     <path id="ArialMT-64" d="M 2575 0 
L 2575 419 
Q 2259 -75 1647 -75 
Q 1250 -75 917 144 
Q 584 363 401 755 
Q 219 1147 219 1656 
Q 219 2153 384 2558 
Q 550 2963 881 3178 
Q 1213 3394 1622 3394 
Q 1922 3394 2156 3267 
Q 2391 3141 2538 2938 
L 2538 4581 
L 3097 4581 
L 3097 0 
L 2575 0 
z
M 797 1656 
Q 797 1019 1065 703 
Q 1334 388 1700 388 
Q 2069 388 2326 689 
Q 2584 991 2584 1609 
Q 2584 2291 2321 2609 
Q 2059 2928 1675 2928 
Q 1300 2928 1048 2622 
Q 797 2316 797 1656 
z
" transform="scale(0.015625)"/>
     <path id="ArialMT-65" d="M 2694 1069 
L 3275 997 
Q 3138 488 2766 206 
Q 2394 -75 1816 -75 
Q 1088 -75 661 373 
Q 234 822 234 1631 
Q 234 2469 665 2931 
Q 1097 3394 1784 3394 
Q 2450 3394 2872 2941 
Q 3294 2488 3294 1666 
Q 3294 1616 3291 1516 
L 816 1516 
Q 847 969 1125 678 
Q 1403 388 1819 388 
Q 2128 388 2347 550 
Q 2566 713 2694 1069 
z
M 847 1978 
L 2700 1978 
Q 2663 2397 2488 2606 
Q 2219 2931 1791 2931 
Q 1403 2931 1139 2672 
Q 875 2413 847 1978 
z
" transform="scale(0.015625)"/>
     <path id="ArialMT-6e" d="M 422 0 
L 422 3319 
L 928 3319 
L 928 2847 
Q 1294 3394 1984 3394 
Q 2284 3394 2536 3286 
Q 2788 3178 2913 3003 
Q 3038 2828 3088 2588 
Q 3119 2431 3119 2041 
L 3119 0 
L 2556 0 
L 2556 2019 
Q 2556 2363 2490 2533 
Q 2425 2703 2258 2804 
Q 2091 2906 1866 2906 
Q 1506 2906 1245 2678 
Q 984 2450 984 1813 
L 984 0 
L 422 0 
z
" transform="scale(0.015625)"/>
     <path id="ArialMT-73" d="M 197 991 
L 753 1078 
Q 800 744 1014 566 
Q 1228 388 1613 388 
Q 2000 388 2187 545 
Q 2375 703 2375 916 
Q 2375 1106 2209 1216 
Q 2094 1291 1634 1406 
Q 1016 1563 777 1677 
Q 538 1791 414 1992 
Q 291 2194 291 2438 
Q 291 2659 392 2848 
Q 494 3038 669 3163 
Q 800 3259 1026 3326 
Q 1253 3394 1513 3394 
Q 1903 3394 2198 3281 
Q 2494 3169 2634 2976 
Q 2775 2784 2828 2463 
L 2278 2388 
Q 2241 2644 2061 2787 
Q 1881 2931 1553 2931 
Q 1166 2931 1000 2803 
Q 834 2675 834 2503 
Q 834 2394 903 2306 
Q 972 2216 1119 2156 
Q 1203 2125 1616 2013 
Q 2213 1853 2448 1751 
Q 2684 1650 2818 1456 
Q 2953 1263 2953 975 
Q 2953 694 2789 445 
Q 2625 197 2315 61 
Q 2006 -75 1616 -75 
Q 969 -75 630 194 
Q 291 463 197 991 
z
" transform="scale(0.015625)"/>
     <path id="ArialMT-69" d="M 425 3934 
L 425 4581 
L 988 4581 
L 988 3934 
L 425 3934 
z
M 425 0 
L 425 3319 
L 988 3319 
L 988 0 
L 425 0 
z
" transform="scale(0.015625)"/>
     <path id="ArialMT-74" d="M 1650 503 
L 1731 6 
Q 1494 -44 1306 -44 
Q 1000 -44 831 53 
Q 663 150 594 308 
Q 525 466 525 972 
L 525 2881 
L 113 2881 
L 113 3319 
L 525 3319 
L 525 4141 
L 1084 4478 
L 1084 3319 
L 1650 3319 
L 1650 2881 
L 1084 2881 
L 1084 941 
Q 1084 700 1114 631 
Q 1144 563 1211 522 
Q 1278 481 1403 481 
Q 1497 481 1650 503 
z
" transform="scale(0.015625)"/>
     <path id="ArialMT-79" d="M 397 -1278 
L 334 -750 
Q 519 -800 656 -800 
Q 844 -800 956 -737 
Q 1069 -675 1141 -563 
Q 1194 -478 1313 -144 
Q 1328 -97 1363 -6 
L 103 3319 
L 709 3319 
L 1400 1397 
Q 1534 1031 1641 628 
Q 1738 1016 1872 1384 
L 2581 3319 
L 3144 3319 
L 1881 -56 
Q 1678 -603 1566 -809 
Q 1416 -1088 1222 -1217 
Q 1028 -1347 759 -1347 
Q 597 -1347 397 -1278 
z
" transform="scale(0.015625)"/>
    </defs>
    <use xlink:href="#ArialMT-64"/>
    <use xlink:href="#ArialMT-65" x="55.615234"/>
    <use xlink:href="#ArialMT-6e" x="111.230469"/>
    <use xlink:href="#ArialMT-73" x="166.845703"/>
    <use xlink:href="#ArialMT-69" x="216.845703"/>
    <use xlink:href="#ArialMT-74" x="239.0625"/>
    <use xlink:href="#ArialMT-79" x="266.845703"/>
   </g>
  </g>
 </g>
 <defs>
  <clipPath id="p9b45cf9779">
   <rect x="46.36825" y="13.824" width="409.82375" height="289.405812"/>
  </clipPath>
 </defs>
</svg>
