<?xml version="1.0" encoding="utf-8" standalone="no"?>
<!DOCTYPE svg PUBLIC "-//W3C//DTD SVG 1.1//EN"
  "http://www.w3.org/Graphics/SVG/1.1/DTD/svg11.dtd">
<svg xmlns:xlink="http://www.w3.org/1999/xlink" width="460.8pt" height="345.6pt" viewBox="0 0 460.8 345.6" xmlns="http://www.w3.org/2000/svg" version="1.1">
 <metadata>
  <rdf:RDF xmlns:dc="http://purl.org/dc/elements/1.1/" xmlns:cc="http://creativecommons.org/ns#" xmlns:rdf="http://www.w3.org/1999/02/22-rdf-syntax-ns#">
   <cc:Work>
    <dc:type rdf:resource="http://purl.org/dc/dcmitype/StillImage"/>
    <dc:date>2024-02-12T22:41:22.076299</dc:date>
    <dc:format>image/svg+xml</dc:format>
    <dc:creator>
     <cc:Agent>
      <dc:title>Matplotlib v3.8.2, https://matplotlib.org/</dc:title>
     </cc:Agent>
    </dc:creator>
   </cc:Work>
  </rdf:RDF>
 </metadata>
 <defs>
  <style type="text/css">*{stroke-linejoin: round; stroke-linecap: butt}</style>
 </defs>
 <g id="figure_1">
  <g id="patch_1">
   <path d="M 0 345.6 
L 460.8 345.6 
L 460.8 0 
L 0 0 
z
" style="fill: #ffffff; stroke: #ffffff; stroke-linejoin: miter"/>
  </g>
  <g id="axes_1">
   <g id="patch_2">
    <path d="M 46.36825 303.229812 
L 456.192 303.229812 
L 456.192 13.824 
L 46.36825 13.824 
z
" style="fill: #ffffff; stroke: #7f7f7f; stroke-linejoin: miter"/>
   </g>
   <g id="matplotlib.axis_1">
    <g id="xtick_1">
     <g id="line2d_1">
      <path d="M 51.137529 303.229812 
L 51.137529 13.824 
" clip-path="url(#p173d46628b)" style="fill: none; stroke: #e5e5e5; stroke-width: 0.8"/>
     </g>
     <g id="line2d_2">
      <path d="M 51.137529 303.229812 
" style="fill: none; stroke: #000000; stroke-width: 1.5"/>
      <defs>
       <path id="mbfc108b862" d="M 0 0 
L 0 3.5 
" style="stroke: #333333"/>
      </defs>
      <g>
       <use xlink:href="#mbfc108b862" x="51.137529" y="303.229812" style="stroke: #333333"/>
      </g>
     </g>
     <g id="text_1">
      <!-- 0.97 -->
      <g style="fill: #4d4d4d" transform="translate(40.239404 316.746562) scale(0.112 -0.112)">
       <defs>
        <path id="ArialMT-30" d="M 266 2259 
Q 266 3072 433 3567 
Q 600 4063 929 4331 
Q 1259 4600 1759 4600 
Q 2128 4600 2406 4451 
Q 2684 4303 2865 4023 
Q 3047 3744 3150 3342 
Q 3253 2941 3253 2259 
Q 3253 1453 3087 958 
Q 2922 463 2592 192 
Q 2263 -78 1759 -78 
Q 1097 -78 719 397 
Q 266 969 266 2259 
z
M 844 2259 
Q 844 1131 1108 757 
Q 1372 384 1759 384 
Q 2147 384 2411 759 
Q 2675 1134 2675 2259 
Q 2675 3391 2411 3762 
Q 2147 4134 1753 4134 
Q 1366 4134 1134 3806 
Q 844 3388 844 2259 
z
" transform="scale(0.015625)"/>
        <path id="ArialMT-2e" d="M 581 0 
L 581 641 
L 1222 641 
L 1222 0 
L 581 0 
z
" transform="scale(0.015625)"/>
        <path id="ArialMT-39" d="M 350 1059 
L 891 1109 
Q 959 728 1153 556 
Q 1347 384 1650 384 
Q 1909 384 2104 503 
Q 2300 622 2425 820 
Q 2550 1019 2634 1356 
Q 2719 1694 2719 2044 
Q 2719 2081 2716 2156 
Q 2547 1888 2255 1720 
Q 1963 1553 1622 1553 
Q 1053 1553 659 1965 
Q 266 2378 266 3053 
Q 266 3750 677 4175 
Q 1088 4600 1706 4600 
Q 2153 4600 2523 4359 
Q 2894 4119 3086 3673 
Q 3278 3228 3278 2384 
Q 3278 1506 3087 986 
Q 2897 466 2520 194 
Q 2144 -78 1638 -78 
Q 1100 -78 759 220 
Q 419 519 350 1059 
z
M 2653 3081 
Q 2653 3566 2395 3850 
Q 2138 4134 1775 4134 
Q 1400 4134 1122 3828 
Q 844 3522 844 3034 
Q 844 2597 1108 2323 
Q 1372 2050 1759 2050 
Q 2150 2050 2401 2323 
Q 2653 2597 2653 3081 
z
" transform="scale(0.015625)"/>
        <path id="ArialMT-37" d="M 303 3981 
L 303 4522 
L 3269 4522 
L 3269 4084 
Q 2831 3619 2401 2847 
Q 1972 2075 1738 1259 
Q 1569 684 1522 0 
L 944 0 
Q 953 541 1156 1306 
Q 1359 2072 1739 2783 
Q 2119 3494 2547 3981 
L 303 3981 
z
" transform="scale(0.015625)"/>
       </defs>
       <use xlink:href="#ArialMT-30"/>
       <use xlink:href="#ArialMT-2e" x="55.615234"/>
       <use xlink:href="#ArialMT-39" x="83.398438"/>
       <use xlink:href="#ArialMT-37" x="139.013672"/>
      </g>
     </g>
    </g>
    <g id="xtick_2">
     <g id="line2d_3">
      <path d="M 163.059455 303.229812 
L 163.059455 13.824 
" clip-path="url(#p173d46628b)" style="fill: none; stroke: #e5e5e5; stroke-width: 0.8"/>
     </g>
     <g id="line2d_4">
      <path d="M 163.059455 303.229812 
" style="fill: none; stroke: #000000; stroke-width: 1.5"/>
      <g>
       <use xlink:href="#mbfc108b862" x="163.059455" y="303.229812" style="stroke: #333333"/>
      </g>
     </g>
     <g id="text_2">
      <!-- 0.98 -->
      <g style="fill: #4d4d4d" transform="translate(152.16133 316.746562) scale(0.112 -0.112)">
       <defs>
        <path id="ArialMT-38" d="M 1131 2484 
Q 781 2613 612 2850 
Q 444 3088 444 3419 
Q 444 3919 803 4259 
Q 1163 4600 1759 4600 
Q 2359 4600 2725 4251 
Q 3091 3903 3091 3403 
Q 3091 3084 2923 2848 
Q 2756 2613 2416 2484 
Q 2838 2347 3058 2040 
Q 3278 1734 3278 1309 
Q 3278 722 2862 322 
Q 2447 -78 1769 -78 
Q 1091 -78 675 323 
Q 259 725 259 1325 
Q 259 1772 486 2073 
Q 713 2375 1131 2484 
z
M 1019 3438 
Q 1019 3113 1228 2906 
Q 1438 2700 1772 2700 
Q 2097 2700 2305 2904 
Q 2513 3109 2513 3406 
Q 2513 3716 2298 3927 
Q 2084 4138 1766 4138 
Q 1444 4138 1231 3931 
Q 1019 3725 1019 3438 
z
M 838 1322 
Q 838 1081 952 856 
Q 1066 631 1291 507 
Q 1516 384 1775 384 
Q 2178 384 2440 643 
Q 2703 903 2703 1303 
Q 2703 1709 2433 1975 
Q 2163 2241 1756 2241 
Q 1359 2241 1098 1978 
Q 838 1716 838 1322 
z
" transform="scale(0.015625)"/>
       </defs>
       <use xlink:href="#ArialMT-30"/>
       <use xlink:href="#ArialMT-2e" x="55.615234"/>
       <use xlink:href="#ArialMT-39" x="83.398438"/>
       <use xlink:href="#ArialMT-38" x="139.013672"/>
      </g>
     </g>
    </g>
    <g id="xtick_3">
     <g id="line2d_5">
      <path d="M 274.981381 303.229812 
L 274.981381 13.824 
" clip-path="url(#p173d46628b)" style="fill: none; stroke: #e5e5e5; stroke-width: 0.8"/>
     </g>
     <g id="line2d_6">
      <path d="M 274.981381 303.229812 
" style="fill: none; stroke: #000000; stroke-width: 1.5"/>
      <g>
       <use xlink:href="#mbfc108b862" x="274.981381" y="303.229812" style="stroke: #333333"/>
      </g>
     </g>
     <g id="text_3">
      <!-- 0.99 -->
      <g style="fill: #4d4d4d" transform="translate(264.083256 316.746562) scale(0.112 -0.112)">
       <use xlink:href="#ArialMT-30"/>
       <use xlink:href="#ArialMT-2e" x="55.615234"/>
       <use xlink:href="#ArialMT-39" x="83.398438"/>
       <use xlink:href="#ArialMT-39" x="139.013672"/>
      </g>
     </g>
    </g>
    <g id="xtick_4">
     <g id="line2d_7">
      <path d="M 386.903307 303.229812 
L 386.903307 13.824 
" clip-path="url(#p173d46628b)" style="fill: none; stroke: #e5e5e5; stroke-width: 0.8"/>
     </g>
     <g id="line2d_8">
      <path d="M 386.903307 303.229812 
" style="fill: none; stroke: #000000; stroke-width: 1.5"/>
      <g>
       <use xlink:href="#mbfc108b862" x="386.903307" y="303.229812" style="stroke: #333333"/>
      </g>
     </g>
     <g id="text_4">
      <!-- 1 -->
      <g style="fill: #4d4d4d" transform="translate(383.789182 316.746562) scale(0.112 -0.112)">
       <defs>
        <path id="ArialMT-31" d="M 2384 0 
L 1822 0 
L 1822 3584 
Q 1619 3391 1289 3197 
Q 959 3003 697 2906 
L 697 3450 
Q 1169 3672 1522 3987 
Q 1875 4303 2022 4600 
L 2384 4600 
L 2384 0 
z
" transform="scale(0.015625)"/>
       </defs>
       <use xlink:href="#ArialMT-31"/>
      </g>
     </g>
    </g>
    <g id="xtick_5">
     <g id="line2d_9">
      <path d="M 107.098492 303.229812 
L 107.098492 13.824 
" clip-path="url(#p173d46628b)" style="fill: none; stroke: #fafafa"/>
     </g>
    </g>
    <g id="xtick_6">
     <g id="line2d_10">
      <path d="M 219.020418 303.229812 
L 219.020418 13.824 
" clip-path="url(#p173d46628b)" style="fill: none; stroke: #fafafa"/>
     </g>
    </g>
    <g id="xtick_7">
     <g id="line2d_11">
      <path d="M 330.942344 303.229812 
L 330.942344 13.824 
" clip-path="url(#p173d46628b)" style="fill: none; stroke: #fafafa"/>
     </g>
    </g>
    <g id="xtick_8">
     <g id="line2d_12">
      <path d="M 442.86427 303.229812 
L 442.86427 13.824 
" clip-path="url(#p173d46628b)" style="fill: none; stroke: #fafafa"/>
     </g>
    </g>
   </g>
   <g id="matplotlib.axis_2">
    <g id="ytick_1">
     <g id="line2d_13">
      <path d="M 46.36825 290.075003 
L 456.192 290.075003 
" clip-path="url(#p173d46628b)" style="fill: none; stroke: #e5e5e5; stroke-width: 0.8"/>
     </g>
     <g id="line2d_14">
      <path d="M 46.36825 290.075003 
" style="fill: none; stroke: #000000; stroke-width: 1.5"/>
      <defs>
       <path id="m9a7d5f5eaa" d="M 0 0 
L -3.5 0 
" style="stroke: #333333"/>
      </defs>
      <g>
       <use xlink:href="#m9a7d5f5eaa" x="46.36825" y="290.075003" style="stroke: #333333"/>
      </g>
     </g>
     <g id="text_5">
      <!-- 0 -->
      <g style="fill: #4d4d4d" transform="translate(34.64 292.970378) scale(0.112 -0.112)">
       <use xlink:href="#ArialMT-30"/>
      </g>
     </g>
    </g>
    <g id="ytick_2">
     <g id="line2d_15">
      <path d="M 46.36825 236.14657 
L 456.192 236.14657 
" clip-path="url(#p173d46628b)" style="fill: none; stroke: #e5e5e5; stroke-width: 0.8"/>
     </g>
     <g id="line2d_16">
      <path d="M 46.36825 236.14657 
" style="fill: none; stroke: #000000; stroke-width: 1.5"/>
      <g>
       <use xlink:href="#m9a7d5f5eaa" x="46.36825" y="236.14657" style="stroke: #333333"/>
      </g>
     </g>
     <g id="text_6">
      <!-- 50 -->
      <g style="fill: #4d4d4d" transform="translate(28.41175 239.041945) scale(0.112 -0.112)">
       <defs>
        <path id="ArialMT-35" d="M 266 1200 
L 856 1250 
Q 922 819 1161 601 
Q 1400 384 1738 384 
Q 2144 384 2425 690 
Q 2706 997 2706 1503 
Q 2706 1984 2436 2262 
Q 2166 2541 1728 2541 
Q 1456 2541 1237 2417 
Q 1019 2294 894 2097 
L 366 2166 
L 809 4519 
L 3088 4519 
L 3088 3981 
L 1259 3981 
L 1013 2750 
Q 1425 3038 1878 3038 
Q 2478 3038 2890 2622 
Q 3303 2206 3303 1553 
Q 3303 931 2941 478 
Q 2500 -78 1738 -78 
Q 1113 -78 717 272 
Q 322 622 266 1200 
z
" transform="scale(0.015625)"/>
       </defs>
       <use xlink:href="#ArialMT-35"/>
       <use xlink:href="#ArialMT-30" x="55.615234"/>
      </g>
     </g>
    </g>
    <g id="ytick_3">
     <g id="line2d_17">
      <path d="M 46.36825 182.218137 
L 456.192 182.218137 
" clip-path="url(#p173d46628b)" style="fill: none; stroke: #e5e5e5; stroke-width: 0.8"/>
     </g>
     <g id="line2d_18">
      <path d="M 46.36825 182.218137 
" style="fill: none; stroke: #000000; stroke-width: 1.5"/>
      <g>
       <use xlink:href="#m9a7d5f5eaa" x="46.36825" y="182.218137" style="stroke: #333333"/>
      </g>
     </g>
     <g id="text_7">
      <!-- 100 -->
      <g style="fill: #4d4d4d" transform="translate(22.1835 185.113512) scale(0.112 -0.112)">
       <use xlink:href="#ArialMT-31"/>
       <use xlink:href="#ArialMT-30" x="55.615234"/>
       <use xlink:href="#ArialMT-30" x="111.230469"/>
      </g>
     </g>
    </g>
    <g id="ytick_4">
     <g id="line2d_19">
      <path d="M 46.36825 128.289704 
L 456.192 128.289704 
" clip-path="url(#p173d46628b)" style="fill: none; stroke: #e5e5e5; stroke-width: 0.8"/>
     </g>
     <g id="line2d_20">
      <path d="M 46.36825 128.289704 
" style="fill: none; stroke: #000000; stroke-width: 1.5"/>
      <g>
       <use xlink:href="#m9a7d5f5eaa" x="46.36825" y="128.289704" style="stroke: #333333"/>
      </g>
     </g>
     <g id="text_8">
      <!-- 150 -->
      <g style="fill: #4d4d4d" transform="translate(22.1835 131.185079) scale(0.112 -0.112)">
       <use xlink:href="#ArialMT-31"/>
       <use xlink:href="#ArialMT-35" x="55.615234"/>
       <use xlink:href="#ArialMT-30" x="111.230469"/>
      </g>
     </g>
    </g>
    <g id="ytick_5">
     <g id="line2d_21">
      <path d="M 46.36825 74.361271 
L 456.192 74.361271 
" clip-path="url(#p173d46628b)" style="fill: none; stroke: #e5e5e5; stroke-width: 0.8"/>
     </g>
     <g id="line2d_22">
      <path d="M 46.36825 74.361271 
" style="fill: none; stroke: #000000; stroke-width: 1.5"/>
      <g>
       <use xlink:href="#m9a7d5f5eaa" x="46.36825" y="74.361271" style="stroke: #333333"/>
      </g>
     </g>
     <g id="text_9">
      <!-- 200 -->
      <g style="fill: #4d4d4d" transform="translate(22.1835 77.256646) scale(0.112 -0.112)">
       <defs>
        <path id="ArialMT-32" d="M 3222 541 
L 3222 0 
L 194 0 
Q 188 203 259 391 
Q 375 700 629 1000 
Q 884 1300 1366 1694 
Q 2113 2306 2375 2664 
Q 2638 3022 2638 3341 
Q 2638 3675 2398 3904 
Q 2159 4134 1775 4134 
Q 1369 4134 1125 3890 
Q 881 3647 878 3216 
L 300 3275 
Q 359 3922 746 4261 
Q 1134 4600 1788 4600 
Q 2447 4600 2831 4234 
Q 3216 3869 3216 3328 
Q 3216 3053 3103 2787 
Q 2991 2522 2730 2228 
Q 2469 1934 1863 1422 
Q 1356 997 1212 845 
Q 1069 694 975 541 
L 3222 541 
z
" transform="scale(0.015625)"/>
       </defs>
       <use xlink:href="#ArialMT-32"/>
       <use xlink:href="#ArialMT-30" x="55.615234"/>
       <use xlink:href="#ArialMT-30" x="111.230469"/>
      </g>
     </g>
    </g>
    <g id="ytick_6">
     <g id="line2d_23">
      <path d="M 46.36825 20.432838 
L 456.192 20.432838 
" clip-path="url(#p173d46628b)" style="fill: none; stroke: #e5e5e5; stroke-width: 0.8"/>
     </g>
     <g id="line2d_24">
      <path d="M 46.36825 20.432838 
" style="fill: none; stroke: #000000; stroke-width: 1.5"/>
      <g>
       <use xlink:href="#m9a7d5f5eaa" x="46.36825" y="20.432838" style="stroke: #333333"/>
      </g>
     </g>
     <g id="text_10">
      <!-- 250 -->
      <g style="fill: #4d4d4d" transform="translate(22.1835 23.328213) scale(0.112 -0.112)">
       <use xlink:href="#ArialMT-32"/>
       <use xlink:href="#ArialMT-35" x="55.615234"/>
       <use xlink:href="#ArialMT-30" x="111.230469"/>
      </g>
     </g>
    </g>
    <g id="ytick_7">
     <g id="line2d_25">
      <path d="M 46.36825 263.110786 
L 456.192 263.110786 
" clip-path="url(#p173d46628b)" style="fill: none; stroke: #fafafa"/>
     </g>
    </g>
    <g id="ytick_8">
     <g id="line2d_26">
      <path d="M 46.36825 209.182353 
L 456.192 209.182353 
" clip-path="url(#p173d46628b)" style="fill: none; stroke: #fafafa"/>
     </g>
    </g>
    <g id="ytick_9">
     <g id="line2d_27">
      <path d="M 46.36825 155.25392 
L 456.192 155.25392 
" clip-path="url(#p173d46628b)" style="fill: none; stroke: #fafafa"/>
     </g>
    </g>
    <g id="ytick_10">
     <g id="line2d_28">
      <path d="M 46.36825 101.325487 
L 456.192 101.325487 
" clip-path="url(#p173d46628b)" style="fill: none; stroke: #fafafa"/>
     </g>
    </g>
    <g id="ytick_11">
     <g id="line2d_29">
      <path d="M 46.36825 47.397054 
L 456.192 47.397054 
" clip-path="url(#p173d46628b)" style="fill: none; stroke: #fafafa"/>
     </g>
    </g>
   </g>
   <g id="PolyCollection_1">
    <path d="M 64.996602 290.075003 
L 64.996602 289.699151 
L 68.208387 289.699151 
L 68.208387 290.075003 
z
" clip-path="url(#p173d46628b)" style="fill: #add8e6; stroke: #ffffff; stroke-width: 0.886227"/>
    <path d="M 68.208387 290.075003 
L 68.208387 290.075003 
L 71.420172 290.075003 
L 71.420172 290.075003 
z
" clip-path="url(#p173d46628b)" style="fill: #add8e6; stroke: #ffffff; stroke-width: 0.886227"/>
    <path d="M 71.420172 290.075003 
L 71.420172 290.075003 
L 74.631957 290.075003 
L 74.631957 290.075003 
z
" clip-path="url(#p173d46628b)" style="fill: #add8e6; stroke: #ffffff; stroke-width: 0.886227"/>
    <path d="M 74.631957 290.075003 
L 74.631957 290.075003 
L 77.843742 290.075003 
L 77.843742 290.075003 
z
" clip-path="url(#p173d46628b)" style="fill: #add8e6; stroke: #ffffff; stroke-width: 0.886227"/>
    <path d="M 77.843742 290.075003 
L 77.843742 290.075003 
L 81.055527 290.075003 
L 81.055527 290.075003 
z
" clip-path="url(#p173d46628b)" style="fill: #add8e6; stroke: #ffffff; stroke-width: 0.886227"/>
    <path d="M 81.055527 290.075003 
L 81.055527 290.075003 
L 84.267312 290.075003 
L 84.267312 290.075003 
z
" clip-path="url(#p173d46628b)" style="fill: #add8e6; stroke: #ffffff; stroke-width: 0.886227"/>
    <path d="M 84.267312 290.075003 
L 84.267312 290.075003 
L 87.479096 290.075003 
L 87.479096 290.075003 
z
" clip-path="url(#p173d46628b)" style="fill: #add8e6; stroke: #ffffff; stroke-width: 0.886227"/>
    <path d="M 87.479096 290.075003 
L 87.479096 290.075003 
L 90.690881 290.075003 
L 90.690881 290.075003 
z
" clip-path="url(#p173d46628b)" style="fill: #add8e6; stroke: #ffffff; stroke-width: 0.886227"/>
    <path d="M 90.690881 290.075003 
L 90.690881 290.075003 
L 93.902666 290.075003 
L 93.902666 290.075003 
z
" clip-path="url(#p173d46628b)" style="fill: #add8e6; stroke: #ffffff; stroke-width: 0.886227"/>
    <path d="M 93.902666 290.075003 
L 93.902666 290.075003 
L 97.114451 290.075003 
L 97.114451 290.075003 
z
" clip-path="url(#p173d46628b)" style="fill: #add8e6; stroke: #ffffff; stroke-width: 0.886227"/>
    <path d="M 97.114451 290.075003 
L 97.114451 290.075003 
L 100.326236 290.075003 
L 100.326236 290.075003 
z
" clip-path="url(#p173d46628b)" style="fill: #add8e6; stroke: #ffffff; stroke-width: 0.886227"/>
    <path d="M 100.326236 290.075003 
L 100.326236 290.075003 
L 103.538021 290.075003 
L 103.538021 290.075003 
z
" clip-path="url(#p173d46628b)" style="fill: #add8e6; stroke: #ffffff; stroke-width: 0.886227"/>
    <path d="M 103.538021 290.075003 
L 103.538021 290.075003 
L 106.749806 290.075003 
L 106.749806 290.075003 
z
" clip-path="url(#p173d46628b)" style="fill: #add8e6; stroke: #ffffff; stroke-width: 0.886227"/>
    <path d="M 106.749806 290.075003 
L 106.749806 290.075003 
L 109.961591 290.075003 
L 109.961591 290.075003 
z
" clip-path="url(#p173d46628b)" style="fill: #add8e6; stroke: #ffffff; stroke-width: 0.886227"/>
    <path d="M 109.961591 290.075003 
L 109.961591 290.075003 
L 113.173375 290.075003 
L 113.173375 290.075003 
z
" clip-path="url(#p173d46628b)" style="fill: #add8e6; stroke: #ffffff; stroke-width: 0.886227"/>
    <path d="M 113.173375 290.075003 
L 113.173375 290.075003 
L 116.38516 290.075003 
L 116.38516 290.075003 
z
" clip-path="url(#p173d46628b)" style="fill: #add8e6; stroke: #ffffff; stroke-width: 0.886227"/>
    <path d="M 116.38516 290.075003 
L 116.38516 289.699151 
L 119.596945 289.699151 
L 119.596945 290.075003 
z
" clip-path="url(#p173d46628b)" style="fill: #add8e6; stroke: #ffffff; stroke-width: 0.886227"/>
    <path d="M 119.596945 290.075003 
L 119.596945 290.075003 
L 122.80873 290.075003 
L 122.80873 290.075003 
z
" clip-path="url(#p173d46628b)" style="fill: #add8e6; stroke: #ffffff; stroke-width: 0.886227"/>
    <path d="M 122.80873 290.075003 
L 122.80873 290.075003 
L 126.020515 290.075003 
L 126.020515 290.075003 
z
" clip-path="url(#p173d46628b)" style="fill: #add8e6; stroke: #ffffff; stroke-width: 0.886227"/>
    <path d="M 126.020515 290.075003 
L 126.020515 289.323299 
L 129.2323 289.323299 
L 129.2323 290.075003 
z
" clip-path="url(#p173d46628b)" style="fill: #add8e6; stroke: #ffffff; stroke-width: 0.886227"/>
    <path d="M 129.2323 290.075003 
L 129.2323 289.323299 
L 132.444085 289.323299 
L 132.444085 290.075003 
z
" clip-path="url(#p173d46628b)" style="fill: #add8e6; stroke: #ffffff; stroke-width: 0.886227"/>
    <path d="M 132.444085 290.075003 
L 132.444085 290.075003 
L 135.65587 290.075003 
L 135.65587 290.075003 
z
" clip-path="url(#p173d46628b)" style="fill: #add8e6; stroke: #ffffff; stroke-width: 0.886227"/>
    <path d="M 135.65587 290.075003 
L 135.65587 290.075003 
L 138.867654 290.075003 
L 138.867654 290.075003 
z
" clip-path="url(#p173d46628b)" style="fill: #add8e6; stroke: #ffffff; stroke-width: 0.886227"/>
    <path d="M 138.867654 290.075003 
L 138.867654 289.699151 
L 142.079439 289.699151 
L 142.079439 290.075003 
z
" clip-path="url(#p173d46628b)" style="fill: #add8e6; stroke: #ffffff; stroke-width: 0.886227"/>
    <path d="M 142.079439 290.075003 
L 142.079439 290.075003 
L 145.291224 290.075003 
L 145.291224 290.075003 
z
" clip-path="url(#p173d46628b)" style="fill: #add8e6; stroke: #ffffff; stroke-width: 0.886227"/>
    <path d="M 145.291224 290.075003 
L 145.291224 290.075003 
L 148.503009 290.075003 
L 148.503009 290.075003 
z
" clip-path="url(#p173d46628b)" style="fill: #add8e6; stroke: #ffffff; stroke-width: 0.886227"/>
    <path d="M 148.503009 290.075003 
L 148.503009 290.075003 
L 151.714794 290.075003 
L 151.714794 290.075003 
z
" clip-path="url(#p173d46628b)" style="fill: #add8e6; stroke: #ffffff; stroke-width: 0.886227"/>
    <path d="M 151.714794 290.075003 
L 151.714794 290.075003 
L 154.926579 290.075003 
L 154.926579 290.075003 
z
" clip-path="url(#p173d46628b)" style="fill: #add8e6; stroke: #ffffff; stroke-width: 0.886227"/>
    <path d="M 154.926579 290.075003 
L 154.926579 290.075003 
L 158.138364 290.075003 
L 158.138364 290.075003 
z
" clip-path="url(#p173d46628b)" style="fill: #add8e6; stroke: #ffffff; stroke-width: 0.886227"/>
    <path d="M 158.138364 290.075003 
L 158.138364 289.323299 
L 161.350149 289.323299 
L 161.350149 290.075003 
z
" clip-path="url(#p173d46628b)" style="fill: #add8e6; stroke: #ffffff; stroke-width: 0.886227"/>
    <path d="M 161.350149 290.075003 
L 161.350149 289.699151 
L 164.561933 289.699151 
L 164.561933 290.075003 
z
" clip-path="url(#p173d46628b)" style="fill: #add8e6; stroke: #ffffff; stroke-width: 0.886227"/>
    <path d="M 164.561933 290.075003 
L 164.561933 289.699151 
L 167.773718 289.699151 
L 167.773718 290.075003 
z
" clip-path="url(#p173d46628b)" style="fill: #add8e6; stroke: #ffffff; stroke-width: 0.886227"/>
    <path d="M 167.773718 290.075003 
L 167.773718 290.075003 
L 170.985503 290.075003 
L 170.985503 290.075003 
z
" clip-path="url(#p173d46628b)" style="fill: #add8e6; stroke: #ffffff; stroke-width: 0.886227"/>
    <path d="M 170.985503 290.075003 
L 170.985503 289.699151 
L 174.197288 289.699151 
L 174.197288 290.075003 
z
" clip-path="url(#p173d46628b)" style="fill: #add8e6; stroke: #ffffff; stroke-width: 0.886227"/>
    <path d="M 174.197288 290.075003 
L 174.197288 289.323299 
L 177.409073 289.323299 
L 177.409073 290.075003 
z
" clip-path="url(#p173d46628b)" style="fill: #add8e6; stroke: #ffffff; stroke-width: 0.886227"/>
    <path d="M 177.409073 290.075003 
L 177.409073 288.947448 
L 180.620858 288.947448 
L 180.620858 290.075003 
z
" clip-path="url(#p173d46628b)" style="fill: #add8e6; stroke: #ffffff; stroke-width: 0.886227"/>
    <path d="M 180.620858 290.075003 
L 180.620858 289.323299 
L 183.832643 289.323299 
L 183.832643 290.075003 
z
" clip-path="url(#p173d46628b)" style="fill: #add8e6; stroke: #ffffff; stroke-width: 0.886227"/>
    <path d="M 183.832643 290.075003 
L 183.832643 288.947448 
L 187.044428 288.947448 
L 187.044428 290.075003 
z
" clip-path="url(#p173d46628b)" style="fill: #add8e6; stroke: #ffffff; stroke-width: 0.886227"/>
    <path d="M 187.044428 290.075003 
L 187.044428 288.947448 
L 190.256212 288.947448 
L 190.256212 290.075003 
z
" clip-path="url(#p173d46628b)" style="fill: #add8e6; stroke: #ffffff; stroke-width: 0.886227"/>
    <path d="M 190.256212 290.075003 
L 190.256212 289.323299 
L 193.467997 289.323299 
L 193.467997 290.075003 
z
" clip-path="url(#p173d46628b)" style="fill: #add8e6; stroke: #ffffff; stroke-width: 0.886227"/>
    <path d="M 193.467997 290.075003 
L 193.467997 289.699151 
L 196.679782 289.699151 
L 196.679782 290.075003 
z
" clip-path="url(#p173d46628b)" style="fill: #add8e6; stroke: #ffffff; stroke-width: 0.886227"/>
    <path d="M 196.679782 290.075003 
L 196.679782 289.323299 
L 199.891567 289.323299 
L 199.891567 290.075003 
z
" clip-path="url(#p173d46628b)" style="fill: #add8e6; stroke: #ffffff; stroke-width: 0.886227"/>
    <path d="M 199.891567 290.075003 
L 199.891567 289.699151 
L 203.103352 289.699151 
L 203.103352 290.075003 
z
" clip-path="url(#p173d46628b)" style="fill: #add8e6; stroke: #ffffff; stroke-width: 0.886227"/>
    <path d="M 203.103352 290.075003 
L 203.103352 289.699151 
L 206.315137 289.699151 
L 206.315137 290.075003 
z
" clip-path="url(#p173d46628b)" style="fill: #add8e6; stroke: #ffffff; stroke-width: 0.886227"/>
    <path d="M 206.315137 290.075003 
L 206.315137 289.323299 
L 209.526922 289.323299 
L 209.526922 290.075003 
z
" clip-path="url(#p173d46628b)" style="fill: #add8e6; stroke: #ffffff; stroke-width: 0.886227"/>
    <path d="M 209.526922 290.075003 
L 209.526922 287.819893 
L 212.738707 287.819893 
L 212.738707 290.075003 
z
" clip-path="url(#p173d46628b)" style="fill: #add8e6; stroke: #ffffff; stroke-width: 0.886227"/>
    <path d="M 212.738707 290.075003 
L 212.738707 287.068189 
L 215.950491 287.068189 
L 215.950491 290.075003 
z
" clip-path="url(#p173d46628b)" style="fill: #add8e6; stroke: #ffffff; stroke-width: 0.886227"/>
    <path d="M 215.950491 290.075003 
L 215.950491 288.195744 
L 219.162276 288.195744 
L 219.162276 290.075003 
z
" clip-path="url(#p173d46628b)" style="fill: #add8e6; stroke: #ffffff; stroke-width: 0.886227"/>
    <path d="M 219.162276 290.075003 
L 219.162276 287.819893 
L 222.374061 287.819893 
L 222.374061 290.075003 
z
" clip-path="url(#p173d46628b)" style="fill: #add8e6; stroke: #ffffff; stroke-width: 0.886227"/>
    <path d="M 222.374061 290.075003 
L 222.374061 288.195744 
L 225.585846 288.195744 
L 225.585846 290.075003 
z
" clip-path="url(#p173d46628b)" style="fill: #add8e6; stroke: #ffffff; stroke-width: 0.886227"/>
    <path d="M 225.585846 290.075003 
L 225.585846 289.323299 
L 228.797631 289.323299 
L 228.797631 290.075003 
z
" clip-path="url(#p173d46628b)" style="fill: #add8e6; stroke: #ffffff; stroke-width: 0.886227"/>
    <path d="M 228.797631 290.075003 
L 228.797631 287.444041 
L 232.009416 287.444041 
L 232.009416 290.075003 
z
" clip-path="url(#p173d46628b)" style="fill: #add8e6; stroke: #ffffff; stroke-width: 0.886227"/>
    <path d="M 232.009416 290.075003 
L 232.009416 288.195744 
L 235.221201 288.195744 
L 235.221201 290.075003 
z
" clip-path="url(#p173d46628b)" style="fill: #add8e6; stroke: #ffffff; stroke-width: 0.886227"/>
    <path d="M 235.221201 290.075003 
L 235.221201 286.692338 
L 238.432986 286.692338 
L 238.432986 290.075003 
z
" clip-path="url(#p173d46628b)" style="fill: #add8e6; stroke: #ffffff; stroke-width: 0.886227"/>
    <path d="M 238.432986 290.075003 
L 238.432986 286.316486 
L 241.64477 286.316486 
L 241.64477 290.075003 
z
" clip-path="url(#p173d46628b)" style="fill: #add8e6; stroke: #ffffff; stroke-width: 0.886227"/>
    <path d="M 241.64477 290.075003 
L 241.64477 286.316486 
L 244.856555 286.316486 
L 244.856555 290.075003 
z
" clip-path="url(#p173d46628b)" style="fill: #add8e6; stroke: #ffffff; stroke-width: 0.886227"/>
    <path d="M 244.856555 290.075003 
L 244.856555 287.068189 
L 248.06834 287.068189 
L 248.06834 290.075003 
z
" clip-path="url(#p173d46628b)" style="fill: #add8e6; stroke: #ffffff; stroke-width: 0.886227"/>
    <path d="M 248.06834 290.075003 
L 248.06834 285.940634 
L 251.280125 285.940634 
L 251.280125 290.075003 
z
" clip-path="url(#p173d46628b)" style="fill: #add8e6; stroke: #ffffff; stroke-width: 0.886227"/>
    <path d="M 251.280125 290.075003 
L 251.280125 282.182117 
L 254.49191 282.182117 
L 254.49191 290.075003 
z
" clip-path="url(#p173d46628b)" style="fill: #add8e6; stroke: #ffffff; stroke-width: 0.886227"/>
    <path d="M 254.49191 290.075003 
L 254.49191 287.819893 
L 257.703695 287.819893 
L 257.703695 290.075003 
z
" clip-path="url(#p173d46628b)" style="fill: #add8e6; stroke: #ffffff; stroke-width: 0.886227"/>
    <path d="M 257.703695 290.075003 
L 257.703695 281.430414 
L 260.91548 281.430414 
L 260.91548 290.075003 
z
" clip-path="url(#p173d46628b)" style="fill: #add8e6; stroke: #ffffff; stroke-width: 0.886227"/>
    <path d="M 260.91548 290.075003 
L 260.91548 285.188931 
L 264.127264 285.188931 
L 264.127264 290.075003 
z
" clip-path="url(#p173d46628b)" style="fill: #add8e6; stroke: #ffffff; stroke-width: 0.886227"/>
    <path d="M 264.127264 290.075003 
L 264.127264 278.047748 
L 267.339049 278.047748 
L 267.339049 290.075003 
z
" clip-path="url(#p173d46628b)" style="fill: #add8e6; stroke: #ffffff; stroke-width: 0.886227"/>
    <path d="M 267.339049 290.075003 
L 267.339049 284.437227 
L 270.550834 284.437227 
L 270.550834 290.075003 
z
" clip-path="url(#p173d46628b)" style="fill: #add8e6; stroke: #ffffff; stroke-width: 0.886227"/>
    <path d="M 270.550834 290.075003 
L 270.550834 280.302859 
L 273.762619 280.302859 
L 273.762619 290.075003 
z
" clip-path="url(#p173d46628b)" style="fill: #add8e6; stroke: #ffffff; stroke-width: 0.886227"/>
    <path d="M 273.762619 290.075003 
L 273.762619 282.557969 
L 276.974404 282.557969 
L 276.974404 290.075003 
z
" clip-path="url(#p173d46628b)" style="fill: #add8e6; stroke: #ffffff; stroke-width: 0.886227"/>
    <path d="M 276.974404 290.075003 
L 276.974404 279.927007 
L 280.186189 279.927007 
L 280.186189 290.075003 
z
" clip-path="url(#p173d46628b)" style="fill: #add8e6; stroke: #ffffff; stroke-width: 0.886227"/>
    <path d="M 280.186189 290.075003 
L 280.186189 279.927007 
L 283.397974 279.927007 
L 283.397974 290.075003 
z
" clip-path="url(#p173d46628b)" style="fill: #add8e6; stroke: #ffffff; stroke-width: 0.886227"/>
    <path d="M 283.397974 290.075003 
L 283.397974 278.4236 
L 286.609759 278.4236 
L 286.609759 290.075003 
z
" clip-path="url(#p173d46628b)" style="fill: #add8e6; stroke: #ffffff; stroke-width: 0.886227"/>
    <path d="M 286.609759 290.075003 
L 286.609759 279.175303 
L 289.821543 279.175303 
L 289.821543 290.075003 
z
" clip-path="url(#p173d46628b)" style="fill: #add8e6; stroke: #ffffff; stroke-width: 0.886227"/>
    <path d="M 289.821543 290.075003 
L 289.821543 274.665083 
L 293.033328 274.665083 
L 293.033328 290.075003 
z
" clip-path="url(#p173d46628b)" style="fill: #add8e6; stroke: #ffffff; stroke-width: 0.886227"/>
    <path d="M 293.033328 290.075003 
L 293.033328 271.282418 
L 296.245113 271.282418 
L 296.245113 290.075003 
z
" clip-path="url(#p173d46628b)" style="fill: #add8e6; stroke: #ffffff; stroke-width: 0.886227"/>
    <path d="M 296.245113 290.075003 
L 296.245113 272.409973 
L 299.456898 272.409973 
L 299.456898 290.075003 
z
" clip-path="url(#p173d46628b)" style="fill: #add8e6; stroke: #ffffff; stroke-width: 0.886227"/>
    <path d="M 299.456898 290.075003 
L 299.456898 269.403159 
L 302.668683 269.403159 
L 302.668683 290.075003 
z
" clip-path="url(#p173d46628b)" style="fill: #add8e6; stroke: #ffffff; stroke-width: 0.886227"/>
    <path d="M 302.668683 290.075003 
L 302.668683 270.530714 
L 305.880468 270.530714 
L 305.880468 290.075003 
z
" clip-path="url(#p173d46628b)" style="fill: #add8e6; stroke: #ffffff; stroke-width: 0.886227"/>
    <path d="M 305.880468 290.075003 
L 305.880468 267.899752 
L 309.092253 267.899752 
L 309.092253 290.075003 
z
" clip-path="url(#p173d46628b)" style="fill: #add8e6; stroke: #ffffff; stroke-width: 0.886227"/>
    <path d="M 309.092253 290.075003 
L 309.092253 268.651456 
L 312.304038 268.651456 
L 312.304038 290.075003 
z
" clip-path="url(#p173d46628b)" style="fill: #add8e6; stroke: #ffffff; stroke-width: 0.886227"/>
    <path d="M 312.304038 290.075003 
L 312.304038 264.141235 
L 315.515822 264.141235 
L 315.515822 290.075003 
z
" clip-path="url(#p173d46628b)" style="fill: #add8e6; stroke: #ffffff; stroke-width: 0.886227"/>
    <path d="M 315.515822 290.075003 
L 315.515822 264.517087 
L 318.727607 264.517087 
L 318.727607 290.075003 
z
" clip-path="url(#p173d46628b)" style="fill: #add8e6; stroke: #ffffff; stroke-width: 0.886227"/>
    <path d="M 318.727607 290.075003 
L 318.727607 263.01368 
L 321.939392 263.01368 
L 321.939392 290.075003 
z
" clip-path="url(#p173d46628b)" style="fill: #add8e6; stroke: #ffffff; stroke-width: 0.886227"/>
    <path d="M 321.939392 290.075003 
L 321.939392 268.275604 
L 325.151177 268.275604 
L 325.151177 290.075003 
z
" clip-path="url(#p173d46628b)" style="fill: #add8e6; stroke: #ffffff; stroke-width: 0.886227"/>
    <path d="M 325.151177 290.075003 
L 325.151177 251.738129 
L 328.362962 251.738129 
L 328.362962 290.075003 
z
" clip-path="url(#p173d46628b)" style="fill: #add8e6; stroke: #ffffff; stroke-width: 0.886227"/>
    <path d="M 328.362962 290.075003 
L 328.362962 254.369091 
L 331.574747 254.369091 
L 331.574747 290.075003 
z
" clip-path="url(#p173d46628b)" style="fill: #add8e6; stroke: #ffffff; stroke-width: 0.886227"/>
    <path d="M 331.574747 290.075003 
L 331.574747 249.483019 
L 334.786532 249.483019 
L 334.786532 290.075003 
z
" clip-path="url(#p173d46628b)" style="fill: #add8e6; stroke: #ffffff; stroke-width: 0.886227"/>
    <path d="M 334.786532 290.075003 
L 334.786532 228.811175 
L 337.998317 228.811175 
L 337.998317 290.075003 
z
" clip-path="url(#p173d46628b)" style="fill: #add8e6; stroke: #ffffff; stroke-width: 0.886227"/>
    <path d="M 337.998317 290.075003 
L 337.998317 234.824802 
L 341.210101 234.824802 
L 341.210101 290.075003 
z
" clip-path="url(#p173d46628b)" style="fill: #add8e6; stroke: #ffffff; stroke-width: 0.886227"/>
    <path d="M 341.210101 290.075003 
L 341.210101 219.414882 
L 344.421886 219.414882 
L 344.421886 290.075003 
z
" clip-path="url(#p173d46628b)" style="fill: #add8e6; stroke: #ffffff; stroke-width: 0.886227"/>
    <path d="M 344.421886 290.075003 
L 344.421886 218.663179 
L 347.633671 218.663179 
L 347.633671 290.075003 
z
" clip-path="url(#p173d46628b)" style="fill: #add8e6; stroke: #ffffff; stroke-width: 0.886227"/>
    <path d="M 347.633671 290.075003 
L 347.633671 218.287327 
L 350.845456 218.287327 
L 350.845456 290.075003 
z
" clip-path="url(#p173d46628b)" style="fill: #add8e6; stroke: #ffffff; stroke-width: 0.886227"/>
    <path d="M 350.845456 290.075003 
L 350.845456 214.152959 
L 354.057241 214.152959 
L 354.057241 290.075003 
z
" clip-path="url(#p173d46628b)" style="fill: #add8e6; stroke: #ffffff; stroke-width: 0.886227"/>
    <path d="M 354.057241 290.075003 
L 354.057241 210.770293 
L 357.269026 210.770293 
L 357.269026 290.075003 
z
" clip-path="url(#p173d46628b)" style="fill: #add8e6; stroke: #ffffff; stroke-width: 0.886227"/>
    <path d="M 357.269026 290.075003 
L 357.269026 185.588229 
L 360.480811 185.588229 
L 360.480811 290.075003 
z
" clip-path="url(#p173d46628b)" style="fill: #add8e6; stroke: #ffffff; stroke-width: 0.886227"/>
    <path d="M 360.480811 290.075003 
L 360.480811 185.588229 
L 363.692596 185.588229 
L 363.692596 290.075003 
z
" clip-path="url(#p173d46628b)" style="fill: #add8e6; stroke: #ffffff; stroke-width: 0.886227"/>
    <path d="M 363.692596 290.075003 
L 363.692596 155.520093 
L 366.90438 155.520093 
L 366.90438 290.075003 
z
" clip-path="url(#p173d46628b)" style="fill: #add8e6; stroke: #ffffff; stroke-width: 0.886227"/>
    <path d="M 366.90438 290.075003 
L 366.90438 146.875503 
L 370.116165 146.875503 
L 370.116165 290.075003 
z
" clip-path="url(#p173d46628b)" style="fill: #add8e6; stroke: #ffffff; stroke-width: 0.886227"/>
    <path d="M 370.116165 290.075003 
L 370.116165 124.700253 
L 373.32795 124.700253 
L 373.32795 290.075003 
z
" clip-path="url(#p173d46628b)" style="fill: #add8e6; stroke: #ffffff; stroke-width: 0.886227"/>
    <path d="M 373.32795 290.075003 
L 373.32795 107.035223 
L 376.539735 107.035223 
L 376.539735 290.075003 
z
" clip-path="url(#p173d46628b)" style="fill: #add8e6; stroke: #ffffff; stroke-width: 0.886227"/>
    <path d="M 376.539735 290.075003 
L 376.539735 84.48412 
L 379.75152 84.48412 
L 379.75152 290.075003 
z
" clip-path="url(#p173d46628b)" style="fill: #add8e6; stroke: #ffffff; stroke-width: 0.886227"/>
    <path d="M 379.75152 290.075003 
L 379.75152 58.174501 
L 382.963305 58.174501 
L 382.963305 290.075003 
z
" clip-path="url(#p173d46628b)" style="fill: #add8e6; stroke: #ffffff; stroke-width: 0.886227"/>
    <path d="M 382.963305 290.075003 
L 382.963305 30.737327 
L 386.17509 30.737327 
L 386.17509 290.075003 
z
" clip-path="url(#p173d46628b)" style="fill: #add8e6; stroke: #ffffff; stroke-width: 0.886227"/>
    <path d="M 386.17509 290.075003 
L 386.17509 27.730513 
L 389.386875 27.730513 
L 389.386875 290.075003 
z
" clip-path="url(#p173d46628b)" style="fill: #add8e6; stroke: #ffffff; stroke-width: 0.886227"/>
    <path d="M 389.386875 290.075003 
L 389.386875 26.97881 
L 392.598659 26.97881 
L 392.598659 290.075003 
z
" clip-path="url(#p173d46628b)" style="fill: #add8e6; stroke: #ffffff; stroke-width: 0.886227"/>
    <path d="M 392.598659 290.075003 
L 392.598659 40.885323 
L 395.810444 40.885323 
L 395.810444 290.075003 
z
" clip-path="url(#p173d46628b)" style="fill: #add8e6; stroke: #ffffff; stroke-width: 0.886227"/>
    <path d="M 395.810444 290.075003 
L 395.810444 119.062477 
L 399.022229 119.062477 
L 399.022229 290.075003 
z
" clip-path="url(#p173d46628b)" style="fill: #add8e6; stroke: #ffffff; stroke-width: 0.886227"/>
    <path d="M 399.022229 290.075003 
L 399.022229 160.782016 
L 402.234014 160.782016 
L 402.234014 290.075003 
z
" clip-path="url(#p173d46628b)" style="fill: #add8e6; stroke: #ffffff; stroke-width: 0.886227"/>
    <path d="M 402.234014 290.075003 
L 402.234014 215.656365 
L 405.445799 215.656365 
L 405.445799 290.075003 
z
" clip-path="url(#p173d46628b)" style="fill: #add8e6; stroke: #ffffff; stroke-width: 0.886227"/>
    <path d="M 405.445799 290.075003 
L 405.445799 250.986426 
L 408.657584 250.986426 
L 408.657584 290.075003 
z
" clip-path="url(#p173d46628b)" style="fill: #add8e6; stroke: #ffffff; stroke-width: 0.886227"/>
    <path d="M 408.657584 290.075003 
L 408.657584 261.886125 
L 411.869369 261.886125 
L 411.869369 290.075003 
z
" clip-path="url(#p173d46628b)" style="fill: #add8e6; stroke: #ffffff; stroke-width: 0.886227"/>
    <path d="M 411.869369 290.075003 
L 411.869369 279.551155 
L 415.081154 279.551155 
L 415.081154 290.075003 
z
" clip-path="url(#p173d46628b)" style="fill: #add8e6; stroke: #ffffff; stroke-width: 0.886227"/>
    <path d="M 415.081154 290.075003 
L 415.081154 283.685524 
L 418.292938 283.685524 
L 418.292938 290.075003 
z
" clip-path="url(#p173d46628b)" style="fill: #add8e6; stroke: #ffffff; stroke-width: 0.886227"/>
    <path d="M 418.292938 290.075003 
L 418.292938 287.819893 
L 421.504723 287.819893 
L 421.504723 290.075003 
z
" clip-path="url(#p173d46628b)" style="fill: #add8e6; stroke: #ffffff; stroke-width: 0.886227"/>
    <path d="M 421.504723 290.075003 
L 421.504723 286.692338 
L 424.716508 286.692338 
L 424.716508 290.075003 
z
" clip-path="url(#p173d46628b)" style="fill: #add8e6; stroke: #ffffff; stroke-width: 0.886227"/>
    <path d="M 424.716508 290.075003 
L 424.716508 289.323299 
L 427.928293 289.323299 
L 427.928293 290.075003 
z
" clip-path="url(#p173d46628b)" style="fill: #add8e6; stroke: #ffffff; stroke-width: 0.886227"/>
    <path d="M 427.928293 290.075003 
L 427.928293 288.947448 
L 431.140078 288.947448 
L 431.140078 290.075003 
z
" clip-path="url(#p173d46628b)" style="fill: #add8e6; stroke: #ffffff; stroke-width: 0.886227"/>
    <path d="M 431.140078 290.075003 
L 431.140078 290.075003 
L 434.351863 290.075003 
L 434.351863 290.075003 
z
" clip-path="url(#p173d46628b)" style="fill: #add8e6; stroke: #ffffff; stroke-width: 0.886227"/>
    <path d="M 434.351863 290.075003 
L 434.351863 289.699151 
L 437.563648 289.699151 
L 437.563648 290.075003 
z
" clip-path="url(#p173d46628b)" style="fill: #add8e6; stroke: #ffffff; stroke-width: 0.886227"/>
   </g>
   <g id="PolyCollection_2"/>
   <g id="line2d_30">
    <path d="M 67.695873 289.942456 
L 77.083202 290.070295 
L 109.577799 290.058661 
L 125.102996 289.803747 
L 129.79666 289.596112 
L 133.04612 289.732559 
L 137.739784 289.926129 
L 155.792338 289.954255 
L 163.735462 289.667144 
L 170.595433 289.686465 
L 183.954323 289.089385 
L 190.092191 289.250751 
L 200.562673 289.609461 
L 203.812133 289.528196 
L 206.33949 289.241031 
L 209.227899 288.652569 
L 212.83841 287.924227 
L 215.004716 287.732168 
L 217.893125 287.746061 
L 221.864687 287.989158 
L 226.919402 288.391275 
L 229.085709 288.295794 
L 231.613066 287.966853 
L 240.639343 286.537904 
L 246.416161 286.136235 
L 248.943518 285.590055 
L 251.470876 285.051426 
L 253.637183 284.85543 
L 256.525591 284.645307 
L 257.969796 284.327733 
L 259.775051 283.694996 
L 263.746613 282.168297 
L 265.190817 281.852463 
L 266.996073 281.708172 
L 272.77289 281.52594 
L 276.02235 281.076855 
L 283.965474 279.595 
L 285.409678 279.073821 
L 286.853882 278.312046 
L 288.659138 277.040134 
L 293.352802 273.441095 
L 295.158057 272.462307 
L 297.324364 271.561202 
L 300.934875 270.344533 
L 311.766407 266.801193 
L 314.654816 265.740858 
L 318.987429 264.311715 
L 320.431633 263.508065 
L 321.875838 262.405953 
L 323.320042 260.979161 
L 325.125297 258.788251 
L 327.652655 255.271699 
L 329.45791 252.495388 
L 330.902115 249.905528 
L 332.346319 246.818068 
L 334.151575 242.348406 
L 337.039983 235.104255 
L 338.845239 231.190091 
L 341.011545 227.108223 
L 342.816801 224.155795 
L 344.622056 221.682696 
L 346.427312 219.620181 
L 350.037822 215.633436 
L 351.482027 213.632092 
L 352.56518 211.761531 
L 353.648333 209.443297 
L 354.731486 206.603001 
L 356.175691 202.022845 
L 357.980946 195.336851 
L 360.147253 186.434957 
L 361.952508 178.218037 
L 363.757764 169.052146 
L 367.729326 147.226119 
L 371.339836 126.790325 
L 374.228245 108.941893 
L 377.838756 85.106883 
L 382.893471 51.215465 
L 384.337675 43.366863 
L 385.420829 38.643362 
L 386.142931 36.158589 
L 386.865033 34.268285 
L 387.587135 33.028285 
L 387.948186 32.671308 
L 388.309237 32.501066 
L 388.670289 32.526954 
L 389.03134 32.759043 
L 389.392391 33.208006 
L 389.753442 33.884965 
L 390.475544 35.968215 
L 391.197646 39.096689 
L 391.919748 43.345028 
L 392.64185 48.761126 
L 393.725004 59.080967 
L 394.808157 71.86269 
L 396.252361 91.998986 
L 398.418668 125.970394 
L 401.668128 176.934628 
L 403.473383 202.091614 
L 404.917587 219.55054 
L 406.361792 234.253423 
L 407.805996 246.215511 
L 408.889149 253.590474 
L 410.333354 261.69125 
L 411.777558 268.229029 
L 413.221762 273.515307 
L 414.304916 276.767765 
L 415.388069 279.467455 
L 416.471222 281.663832 
L 417.554375 283.411047 
L 418.637529 284.76807 
L 419.720682 285.797506 
L 420.803835 286.564534 
L 422.248039 287.291522 
L 424.053295 287.916239 
L 426.941704 288.650492 
L 430.552214 289.361476 
L 433.440623 289.714634 
L 437.051134 289.892028 
L 437.051134 289.892028 
" clip-path="url(#p173d46628b)" style="fill: none; stroke-dasharray: 3.27904,1.417963; stroke-dashoffset: 0; stroke: #000000; stroke-width: 0.886227; stroke-linejoin: miter"/>
   </g>
  </g>
  <g id="text_11">
   <!-- $\rho$ -->
   <g transform="translate(246.800125 333.444) scale(0.14 -0.14)">
    <defs>
     <path id="DejaVuSans-Oblique-3c1" d="M 1203 2875 
Q 1453 3194 1981 3475 
Q 2188 3584 2756 3584 
Q 3394 3584 3694 3078 
Q 3994 2572 3834 1747 
Q 3672 922 3175 415 
Q 2678 -91 2041 -91 
Q 1656 -91 1409 63 
Q 1163 213 1044 525 
L 681 -1331 
L 103 -1331 
L 697 1716 
Q 838 2438 1203 2875 
z
M 3238 1747 
Q 3359 2381 3169 2744 
Q 2978 3103 2522 3103 
Q 2066 3103 1734 2744 
Q 1403 2381 1281 1747 
Q 1156 1113 1347 750 
Q 1538 391 1994 391 
Q 2450 391 2781 750 
Q 3113 1113 3238 1747 
z
" transform="scale(0.015625)"/>
    </defs>
    <use xlink:href="#DejaVuSans-Oblique-3c1"/>
   </g>
  </g>
  <g id="text_12">
   <!-- density -->
   <g transform="translate(14.628938 180.704875) rotate(-90) scale(0.14 -0.14)">
    <defs>
     <path id="ArialMT-64" d="M 2575 0 
L 2575 419 
Q 2259 -75 1647 -75 
Q 1250 -75 917 144 
Q 584 363 401 755 
Q 219 1147 219 1656 
Q 219 2153 384 2558 
Q 550 2963 881 3178 
Q 1213 3394 1622 3394 
Q 1922 3394 2156 3267 
Q 2391 3141 2538 2938 
L 2538 4581 
L 3097 4581 
L 3097 0 
L 2575 0 
z
M 797 1656 
Q 797 1019 1065 703 
Q 1334 388 1700 388 
Q 2069 388 2326 689 
Q 2584 991 2584 1609 
Q 2584 2291 2321 2609 
Q 2059 2928 1675 2928 
Q 1300 2928 1048 2622 
Q 797 2316 797 1656 
z
" transform="scale(0.015625)"/>
     <path id="ArialMT-65" d="M 2694 1069 
L 3275 997 
Q 3138 488 2766 206 
Q 2394 -75 1816 -75 
Q 1088 -75 661 373 
Q 234 822 234 1631 
Q 234 2469 665 2931 
Q 1097 3394 1784 3394 
Q 2450 3394 2872 2941 
Q 3294 2488 3294 1666 
Q 3294 1616 3291 1516 
L 816 1516 
Q 847 969 1125 678 
Q 1403 388 1819 388 
Q 2128 388 2347 550 
Q 2566 713 2694 1069 
z
M 847 1978 
L 2700 1978 
Q 2663 2397 2488 2606 
Q 2219 2931 1791 2931 
Q 1403 2931 1139 2672 
Q 875 2413 847 1978 
z
" transform="scale(0.015625)"/>
     <path id="ArialMT-6e" d="M 422 0 
L 422 3319 
L 928 3319 
L 928 2847 
Q 1294 3394 1984 3394 
Q 2284 3394 2536 3286 
Q 2788 3178 2913 3003 
Q 3038 2828 3088 2588 
Q 3119 2431 3119 2041 
L 3119 0 
L 2556 0 
L 2556 2019 
Q 2556 2363 2490 2533 
Q 2425 2703 2258 2804 
Q 2091 2906 1866 2906 
Q 1506 2906 1245 2678 
Q 984 2450 984 1813 
L 984 0 
L 422 0 
z
" transform="scale(0.015625)"/>
     <path id="ArialMT-73" d="M 197 991 
L 753 1078 
Q 800 744 1014 566 
Q 1228 388 1613 388 
Q 2000 388 2187 545 
Q 2375 703 2375 916 
Q 2375 1106 2209 1216 
Q 2094 1291 1634 1406 
Q 1016 1563 777 1677 
Q 538 1791 414 1992 
Q 291 2194 291 2438 
Q 291 2659 392 2848 
Q 494 3038 669 3163 
Q 800 3259 1026 3326 
Q 1253 3394 1513 3394 
Q 1903 3394 2198 3281 
Q 2494 3169 2634 2976 
Q 2775 2784 2828 2463 
L 2278 2388 
Q 2241 2644 2061 2787 
Q 1881 2931 1553 2931 
Q 1166 2931 1000 2803 
Q 834 2675 834 2503 
Q 834 2394 903 2306 
Q 972 2216 1119 2156 
Q 1203 2125 1616 2013 
Q 2213 1853 2448 1751 
Q 2684 1650 2818 1456 
Q 2953 1263 2953 975 
Q 2953 694 2789 445 
Q 2625 197 2315 61 
Q 2006 -75 1616 -75 
Q 969 -75 630 194 
Q 291 463 197 991 
z
" transform="scale(0.015625)"/>
     <path id="ArialMT-69" d="M 425 3934 
L 425 4581 
L 988 4581 
L 988 3934 
L 425 3934 
z
M 425 0 
L 425 3319 
L 988 3319 
L 988 0 
L 425 0 
z
" transform="scale(0.015625)"/>
     <path id="ArialMT-74" d="M 1650 503 
L 1731 6 
Q 1494 -44 1306 -44 
Q 1000 -44 831 53 
Q 663 150 594 308 
Q 525 466 525 972 
L 525 2881 
L 113 2881 
L 113 3319 
L 525 3319 
L 525 4141 
L 1084 4478 
L 1084 3319 
L 1650 3319 
L 1650 2881 
L 1084 2881 
L 1084 941 
Q 1084 700 1114 631 
Q 1144 563 1211 522 
Q 1278 481 1403 481 
Q 1497 481 1650 503 
z
" transform="scale(0.015625)"/>
     <path id="ArialMT-79" d="M 397 -1278 
L 334 -750 
Q 519 -800 656 -800 
Q 844 -800 956 -737 
Q 1069 -675 1141 -563 
Q 1194 -478 1313 -144 
Q 1328 -97 1363 -6 
L 103 3319 
L 709 3319 
L 1400 1397 
Q 1534 1031 1641 628 
Q 1738 1016 1872 1384 
L 2581 3319 
L 3144 3319 
L 1881 -56 
Q 1678 -603 1566 -809 
Q 1416 -1088 1222 -1217 
Q 1028 -1347 759 -1347 
Q 597 -1347 397 -1278 
z
" transform="scale(0.015625)"/>
    </defs>
    <use xlink:href="#ArialMT-64"/>
    <use xlink:href="#ArialMT-65" x="55.615234"/>
    <use xlink:href="#ArialMT-6e" x="111.230469"/>
    <use xlink:href="#ArialMT-73" x="166.845703"/>
    <use xlink:href="#ArialMT-69" x="216.845703"/>
    <use xlink:href="#ArialMT-74" x="239.0625"/>
    <use xlink:href="#ArialMT-79" x="266.845703"/>
   </g>
  </g>
 </g>
 <defs>
  <clipPath id="p173d46628b">
   <rect x="46.36825" y="13.824" width="409.82375" height="289.405812"/>
  </clipPath>
 </defs>
</svg>
