<?xml version="1.0" encoding="utf-8" standalone="no"?>
<!DOCTYPE svg PUBLIC "-//W3C//DTD SVG 1.1//EN"
  "http://www.w3.org/Graphics/SVG/1.1/DTD/svg11.dtd">
<svg xmlns:xlink="http://www.w3.org/1999/xlink" width="576pt" height="288pt" viewBox="0 0 576 288" xmlns="http://www.w3.org/2000/svg" version="1.1">
 <metadata>
  <rdf:RDF xmlns:dc="http://purl.org/dc/elements/1.1/" xmlns:cc="http://creativecommons.org/ns#" xmlns:rdf="http://www.w3.org/1999/02/22-rdf-syntax-ns#">
   <cc:Work>
    <dc:type rdf:resource="http://purl.org/dc/dcmitype/StillImage"/>
    <dc:date>2025-06-24T15:00:14.265010</dc:date>
    <dc:format>image/svg+xml</dc:format>
    <dc:creator>
     <cc:Agent>
      <dc:title>Matplotlib v3.10.0, https://matplotlib.org/</dc:title>
     </cc:Agent>
    </dc:creator>
   </cc:Work>
  </rdf:RDF>
 </metadata>
 <defs>
  <style type="text/css">*{stroke-linejoin: round; stroke-linecap: butt}</style>
 </defs>
 <g id="figure_1">
  <g id="patch_1">
   <path d="M 0 288 
L 576 288 
L 576 0 
L 0 0 
z
" style="fill: #ffffff"/>
  </g>
  <g id="axes_1">
   <g id="patch_2">
    <path d="M 72 256.32 
L 274.909091 256.32 
L 274.909091 34.56 
L 72 34.56 
z
" style="fill: #ffffff"/>
   </g>
   <g id="patch_3">
    <path d="M 81.22314 256.32 
L 90.446285 256.32 
L 90.446285 256.013469 
L 81.22314 256.013469 
z
" clip-path="url(#p155698ac6e)" style="fill: #4682b4"/>
   </g>
   <g id="patch_4">
    <path d="M 90.446285 256.32 
L 99.66943 256.32 
L 99.66943 256.013469 
L 90.446285 256.013469 
z
" clip-path="url(#p155698ac6e)" style="fill: #4682b4"/>
   </g>
   <g id="patch_5">
    <path d="M 99.66943 256.32 
L 108.892558 256.32 
L 108.892558 254.787344 
L 99.66943 254.787344 
z
" clip-path="url(#p155698ac6e)" style="fill: #4682b4"/>
   </g>
   <g id="patch_6">
    <path d="M 108.892558 256.32 
L 118.115702 256.32 
L 118.115702 253.867755 
L 108.892558 253.867755 
z
" clip-path="url(#p155698ac6e)" style="fill: #4682b4"/>
   </g>
   <g id="patch_7">
    <path d="M 118.115702 256.32 
L 127.338847 256.32 
L 127.338847 235.782447 
L 118.115702 235.782447 
z
" clip-path="url(#p155698ac6e)" style="fill: #4682b4"/>
   </g>
   <g id="patch_8">
    <path d="M 127.338847 256.32 
L 136.561975 256.32 
L 136.561975 226.893004 
L 127.338847 226.893004 
z
" clip-path="url(#p155698ac6e)" style="fill: #4682b4"/>
   </g>
   <g id="patch_9">
    <path d="M 136.561975 256.32 
L 145.78512 256.32 
L 145.78512 189.802851 
L 136.561975 189.802851 
z
" clip-path="url(#p155698ac6e)" style="fill: #4682b4"/>
   </g>
   <g id="patch_10">
    <path d="M 145.78512 256.32 
L 155.008264 256.32 
L 155.008264 154.245297 
L 145.78512 154.245297 
z
" clip-path="url(#p155698ac6e)" style="fill: #4682b4"/>
   </g>
   <g id="patch_11">
    <path d="M 155.008264 256.32 
L 164.231409 256.32 
L 164.231409 119.300805 
L 155.008264 119.300805 
z
" clip-path="url(#p155698ac6e)" style="fill: #4682b4"/>
   </g>
   <g id="patch_12">
    <path d="M 164.231409 256.32 
L 173.454554 256.32 
L 173.454554 62.899167 
L 164.231409 62.899167 
z
" clip-path="url(#p155698ac6e)" style="fill: #4682b4"/>
   </g>
   <g id="patch_13">
    <path d="M 173.454554 256.32 
L 182.677682 256.32 
L 182.677682 45.12 
L 173.454554 45.12 
z
" clip-path="url(#p155698ac6e)" style="fill: #4682b4"/>
   </g>
   <g id="patch_14">
    <path d="M 182.677682 256.32 
L 191.900826 256.32 
L 191.900826 80.371414 
L 182.677682 80.371414 
z
" clip-path="url(#p155698ac6e)" style="fill: #4682b4"/>
   </g>
   <g id="patch_15">
    <path d="M 191.900826 256.32 
L 201.123971 256.32 
L 201.123971 133.707745 
L 191.900826 133.707745 
z
" clip-path="url(#p155698ac6e)" style="fill: #4682b4"/>
   </g>
   <g id="patch_16">
    <path d="M 201.123971 256.32 
L 210.347107 256.32 
L 210.347107 178.767677 
L 201.123971 178.767677 
z
" clip-path="url(#p155698ac6e)" style="fill: #4682b4"/>
   </g>
   <g id="patch_17">
    <path d="M 210.347107 256.32 
L 219.570244 256.32 
L 219.570244 210.033831 
L 210.347107 210.033831 
z
" clip-path="url(#p155698ac6e)" style="fill: #4682b4"/>
   </g>
   <g id="patch_18">
    <path d="M 219.570244 256.32 
L 228.793388 256.32 
L 228.793388 229.958365 
L 219.570244 229.958365 
z
" clip-path="url(#p155698ac6e)" style="fill: #4682b4"/>
   </g>
   <g id="patch_19">
    <path d="M 228.793388 256.32 
L 238.016533 256.32 
L 238.016533 248.043673 
L 228.793388 248.043673 
z
" clip-path="url(#p155698ac6e)" style="fill: #4682b4"/>
   </g>
   <g id="patch_20">
    <path d="M 238.016533 256.32 
L 247.239669 256.32 
L 247.239669 252.641629 
L 238.016533 252.641629 
z
" clip-path="url(#p155698ac6e)" style="fill: #4682b4"/>
   </g>
   <g id="patch_21">
    <path d="M 247.239669 256.32 
L 256.462806 256.32 
L 256.462806 256.013469 
L 247.239669 256.013469 
z
" clip-path="url(#p155698ac6e)" style="fill: #4682b4"/>
   </g>
   <g id="patch_22">
    <path d="M 256.462806 256.32 
L 265.68595 256.32 
L 265.68595 256.013469 
L 256.462806 256.013469 
z
" clip-path="url(#p155698ac6e)" style="fill: #4682b4"/>
   </g>
   <g id="matplotlib.axis_1">
    <g id="xtick_1">
     <g id="line2d_1">
      <defs>
       <path id="m6d566ec15e" d="M 0 0 
L 0 3.5 
" style="stroke: #000000; stroke-width: 0.8"/>
      </defs>
      <g>
       <use xlink:href="#m6d566ec15e" x="102.974155" y="256.32" style="stroke: #000000; stroke-width: 0.8"/>
      </g>
     </g>
     <g id="text_1">
      <!-- −3.5 -->
      <g transform="translate(90.832749 270.918437) scale(0.1 -0.1)">
       <defs>
        <path id="DejaVuSans-2212" d="M 678 2272 
L 4684 2272 
L 4684 1741 
L 678 1741 
L 678 2272 
z
" transform="scale(0.015625)"/>
        <path id="DejaVuSans-33" d="M 2597 2516 
Q 3050 2419 3304 2112 
Q 3559 1806 3559 1356 
Q 3559 666 3084 287 
Q 2609 -91 1734 -91 
Q 1441 -91 1130 -33 
Q 819 25 488 141 
L 488 750 
Q 750 597 1062 519 
Q 1375 441 1716 441 
Q 2309 441 2620 675 
Q 2931 909 2931 1356 
Q 2931 1769 2642 2001 
Q 2353 2234 1838 2234 
L 1294 2234 
L 1294 2753 
L 1863 2753 
Q 2328 2753 2575 2939 
Q 2822 3125 2822 3475 
Q 2822 3834 2567 4026 
Q 2313 4219 1838 4219 
Q 1578 4219 1281 4162 
Q 984 4106 628 3988 
L 628 4550 
Q 988 4650 1302 4700 
Q 1616 4750 1894 4750 
Q 2613 4750 3031 4423 
Q 3450 4097 3450 3541 
Q 3450 3153 3228 2886 
Q 3006 2619 2597 2516 
z
" transform="scale(0.015625)"/>
        <path id="DejaVuSans-2e" d="M 684 794 
L 1344 794 
L 1344 0 
L 684 0 
L 684 794 
z
" transform="scale(0.015625)"/>
        <path id="DejaVuSans-35" d="M 691 4666 
L 3169 4666 
L 3169 4134 
L 1269 4134 
L 1269 2991 
Q 1406 3038 1543 3061 
Q 1681 3084 1819 3084 
Q 2600 3084 3056 2656 
Q 3513 2228 3513 1497 
Q 3513 744 3044 326 
Q 2575 -91 1722 -91 
Q 1428 -91 1123 -41 
Q 819 9 494 109 
L 494 744 
Q 775 591 1075 516 
Q 1375 441 1709 441 
Q 2250 441 2565 725 
Q 2881 1009 2881 1497 
Q 2881 1984 2565 2268 
Q 2250 2553 1709 2553 
Q 1456 2553 1204 2497 
Q 953 2441 691 2322 
L 691 4666 
z
" transform="scale(0.015625)"/>
       </defs>
       <use xlink:href="#DejaVuSans-2212"/>
       <use xlink:href="#DejaVuSans-33" transform="translate(83.789062 0)"/>
       <use xlink:href="#DejaVuSans-2e" transform="translate(147.412109 0)"/>
       <use xlink:href="#DejaVuSans-35" transform="translate(179.199219 0)"/>
      </g>
     </g>
    </g>
    <g id="xtick_2">
     <g id="line2d_2">
      <g>
       <use xlink:href="#m6d566ec15e" x="138.702125" y="256.32" style="stroke: #000000; stroke-width: 0.8"/>
      </g>
     </g>
     <g id="text_2">
      <!-- −3.0 -->
      <g transform="translate(126.560718 270.918437) scale(0.1 -0.1)">
       <defs>
        <path id="DejaVuSans-30" d="M 2034 4250 
Q 1547 4250 1301 3770 
Q 1056 3291 1056 2328 
Q 1056 1369 1301 889 
Q 1547 409 2034 409 
Q 2525 409 2770 889 
Q 3016 1369 3016 2328 
Q 3016 3291 2770 3770 
Q 2525 4250 2034 4250 
z
M 2034 4750 
Q 2819 4750 3233 4129 
Q 3647 3509 3647 2328 
Q 3647 1150 3233 529 
Q 2819 -91 2034 -91 
Q 1250 -91 836 529 
Q 422 1150 422 2328 
Q 422 3509 836 4129 
Q 1250 4750 2034 4750 
z
" transform="scale(0.015625)"/>
       </defs>
       <use xlink:href="#DejaVuSans-2212"/>
       <use xlink:href="#DejaVuSans-33" transform="translate(83.789062 0)"/>
       <use xlink:href="#DejaVuSans-2e" transform="translate(147.412109 0)"/>
       <use xlink:href="#DejaVuSans-30" transform="translate(179.199219 0)"/>
      </g>
     </g>
    </g>
    <g id="xtick_3">
     <g id="line2d_3">
      <g>
       <use xlink:href="#m6d566ec15e" x="174.430094" y="256.32" style="stroke: #000000; stroke-width: 0.8"/>
      </g>
     </g>
     <g id="text_3">
      <!-- −2.5 -->
      <g transform="translate(162.288687 270.918437) scale(0.1 -0.1)">
       <defs>
        <path id="DejaVuSans-32" d="M 1228 531 
L 3431 531 
L 3431 0 
L 469 0 
L 469 531 
Q 828 903 1448 1529 
Q 2069 2156 2228 2338 
Q 2531 2678 2651 2914 
Q 2772 3150 2772 3378 
Q 2772 3750 2511 3984 
Q 2250 4219 1831 4219 
Q 1534 4219 1204 4116 
Q 875 4013 500 3803 
L 500 4441 
Q 881 4594 1212 4672 
Q 1544 4750 1819 4750 
Q 2544 4750 2975 4387 
Q 3406 4025 3406 3419 
Q 3406 3131 3298 2873 
Q 3191 2616 2906 2266 
Q 2828 2175 2409 1742 
Q 1991 1309 1228 531 
z
" transform="scale(0.015625)"/>
       </defs>
       <use xlink:href="#DejaVuSans-2212"/>
       <use xlink:href="#DejaVuSans-32" transform="translate(83.789062 0)"/>
       <use xlink:href="#DejaVuSans-2e" transform="translate(147.412109 0)"/>
       <use xlink:href="#DejaVuSans-35" transform="translate(179.199219 0)"/>
      </g>
     </g>
    </g>
    <g id="xtick_4">
     <g id="line2d_4">
      <g>
       <use xlink:href="#m6d566ec15e" x="210.158063" y="256.32" style="stroke: #000000; stroke-width: 0.8"/>
      </g>
     </g>
     <g id="text_4">
      <!-- −2.0 -->
      <g transform="translate(198.016657 270.918437) scale(0.1 -0.1)">
       <use xlink:href="#DejaVuSans-2212"/>
       <use xlink:href="#DejaVuSans-32" transform="translate(83.789062 0)"/>
       <use xlink:href="#DejaVuSans-2e" transform="translate(147.412109 0)"/>
       <use xlink:href="#DejaVuSans-30" transform="translate(179.199219 0)"/>
      </g>
     </g>
    </g>
    <g id="xtick_5">
     <g id="line2d_5">
      <g>
       <use xlink:href="#m6d566ec15e" x="245.886032" y="256.32" style="stroke: #000000; stroke-width: 0.8"/>
      </g>
     </g>
     <g id="text_5">
      <!-- −1.5 -->
      <g transform="translate(233.744626 270.918437) scale(0.1 -0.1)">
       <defs>
        <path id="DejaVuSans-31" d="M 794 531 
L 1825 531 
L 1825 4091 
L 703 3866 
L 703 4441 
L 1819 4666 
L 2450 4666 
L 2450 531 
L 3481 531 
L 3481 0 
L 794 0 
L 794 531 
z
" transform="scale(0.015625)"/>
       </defs>
       <use xlink:href="#DejaVuSans-2212"/>
       <use xlink:href="#DejaVuSans-31" transform="translate(83.789062 0)"/>
       <use xlink:href="#DejaVuSans-2e" transform="translate(147.412109 0)"/>
       <use xlink:href="#DejaVuSans-35" transform="translate(179.199219 0)"/>
      </g>
     </g>
    </g>
    <g id="text_6">
     <!-- $\mu$ -->
     <g transform="translate(170.254545 284.57625) scale(0.1 -0.1)">
      <defs>
       <path id="DejaVuSans-Oblique-3bc" d="M -84 -1331 
L 856 3500 
L 1434 3500 
L 1009 1322 
Q 997 1256 987 1175 
Q 978 1094 978 1013 
Q 978 722 1161 565 
Q 1344 409 1684 409 
Q 2147 409 2431 671 
Q 2716 934 2816 1459 
L 3213 3500 
L 3788 3500 
L 3266 809 
Q 3253 750 3248 706 
Q 3244 663 3244 628 
Q 3244 531 3283 486 
Q 3322 441 3406 441 
Q 3438 441 3492 456 
Q 3547 472 3647 513 
L 3559 50 
Q 3422 -19 3297 -55 
Q 3172 -91 3053 -91 
Q 2847 -91 2730 40 
Q 2613 172 2613 403 
Q 2438 153 2195 31 
Q 1953 -91 1625 -91 
Q 1334 -91 1117 43 
Q 900 178 831 397 
L 494 -1331 
L -84 -1331 
z
" transform="scale(0.015625)"/>
      </defs>
      <use xlink:href="#DejaVuSans-Oblique-3bc" transform="translate(0 0.3125)"/>
     </g>
    </g>
   </g>
   <g id="matplotlib.axis_2">
    <g id="ytick_1">
     <g id="line2d_6">
      <defs>
       <path id="m16c04aa0aa" d="M 0 0 
L -3.5 0 
" style="stroke: #000000; stroke-width: 0.8"/>
      </defs>
      <g>
       <use xlink:href="#m16c04aa0aa" x="72" y="256.32" style="stroke: #000000; stroke-width: 0.8"/>
      </g>
     </g>
     <g id="text_7">
      <!-- 0.0 -->
      <g transform="translate(49.096875 260.119219) scale(0.1 -0.1)">
       <use xlink:href="#DejaVuSans-30"/>
       <use xlink:href="#DejaVuSans-2e" transform="translate(63.623047 0)"/>
       <use xlink:href="#DejaVuSans-30" transform="translate(95.410156 0)"/>
      </g>
     </g>
    </g>
    <g id="ytick_2">
     <g id="line2d_7">
      <g>
       <use xlink:href="#m16c04aa0aa" x="72" y="224.667751" style="stroke: #000000; stroke-width: 0.8"/>
      </g>
     </g>
     <g id="text_8">
      <!-- 0.2 -->
      <g transform="translate(49.096875 228.46697) scale(0.1 -0.1)">
       <use xlink:href="#DejaVuSans-30"/>
       <use xlink:href="#DejaVuSans-2e" transform="translate(63.623047 0)"/>
       <use xlink:href="#DejaVuSans-32" transform="translate(95.410156 0)"/>
      </g>
     </g>
    </g>
    <g id="ytick_3">
     <g id="line2d_8">
      <g>
       <use xlink:href="#m16c04aa0aa" x="72" y="193.015502" style="stroke: #000000; stroke-width: 0.8"/>
      </g>
     </g>
     <g id="text_9">
      <!-- 0.4 -->
      <g transform="translate(49.096875 196.81472) scale(0.1 -0.1)">
       <defs>
        <path id="DejaVuSans-34" d="M 2419 4116 
L 825 1625 
L 2419 1625 
L 2419 4116 
z
M 2253 4666 
L 3047 4666 
L 3047 1625 
L 3713 1625 
L 3713 1100 
L 3047 1100 
L 3047 0 
L 2419 0 
L 2419 1100 
L 313 1100 
L 313 1709 
L 2253 4666 
z
" transform="scale(0.015625)"/>
       </defs>
       <use xlink:href="#DejaVuSans-30"/>
       <use xlink:href="#DejaVuSans-2e" transform="translate(63.623047 0)"/>
       <use xlink:href="#DejaVuSans-34" transform="translate(95.410156 0)"/>
      </g>
     </g>
    </g>
    <g id="ytick_4">
     <g id="line2d_9">
      <g>
       <use xlink:href="#m16c04aa0aa" x="72" y="161.363253" style="stroke: #000000; stroke-width: 0.8"/>
      </g>
     </g>
     <g id="text_10">
      <!-- 0.6 -->
      <g transform="translate(49.096875 165.162471) scale(0.1 -0.1)">
       <defs>
        <path id="DejaVuSans-36" d="M 2113 2584 
Q 1688 2584 1439 2293 
Q 1191 2003 1191 1497 
Q 1191 994 1439 701 
Q 1688 409 2113 409 
Q 2538 409 2786 701 
Q 3034 994 3034 1497 
Q 3034 2003 2786 2293 
Q 2538 2584 2113 2584 
z
M 3366 4563 
L 3366 3988 
Q 3128 4100 2886 4159 
Q 2644 4219 2406 4219 
Q 1781 4219 1451 3797 
Q 1122 3375 1075 2522 
Q 1259 2794 1537 2939 
Q 1816 3084 2150 3084 
Q 2853 3084 3261 2657 
Q 3669 2231 3669 1497 
Q 3669 778 3244 343 
Q 2819 -91 2113 -91 
Q 1303 -91 875 529 
Q 447 1150 447 2328 
Q 447 3434 972 4092 
Q 1497 4750 2381 4750 
Q 2619 4750 2861 4703 
Q 3103 4656 3366 4563 
z
" transform="scale(0.015625)"/>
       </defs>
       <use xlink:href="#DejaVuSans-30"/>
       <use xlink:href="#DejaVuSans-2e" transform="translate(63.623047 0)"/>
       <use xlink:href="#DejaVuSans-36" transform="translate(95.410156 0)"/>
      </g>
     </g>
    </g>
    <g id="ytick_5">
     <g id="line2d_10">
      <g>
       <use xlink:href="#m16c04aa0aa" x="72" y="129.711003" style="stroke: #000000; stroke-width: 0.8"/>
      </g>
     </g>
     <g id="text_11">
      <!-- 0.8 -->
      <g transform="translate(49.096875 133.510222) scale(0.1 -0.1)">
       <defs>
        <path id="DejaVuSans-38" d="M 2034 2216 
Q 1584 2216 1326 1975 
Q 1069 1734 1069 1313 
Q 1069 891 1326 650 
Q 1584 409 2034 409 
Q 2484 409 2743 651 
Q 3003 894 3003 1313 
Q 3003 1734 2745 1975 
Q 2488 2216 2034 2216 
z
M 1403 2484 
Q 997 2584 770 2862 
Q 544 3141 544 3541 
Q 544 4100 942 4425 
Q 1341 4750 2034 4750 
Q 2731 4750 3128 4425 
Q 3525 4100 3525 3541 
Q 3525 3141 3298 2862 
Q 3072 2584 2669 2484 
Q 3125 2378 3379 2068 
Q 3634 1759 3634 1313 
Q 3634 634 3220 271 
Q 2806 -91 2034 -91 
Q 1263 -91 848 271 
Q 434 634 434 1313 
Q 434 1759 690 2068 
Q 947 2378 1403 2484 
z
M 1172 3481 
Q 1172 3119 1398 2916 
Q 1625 2713 2034 2713 
Q 2441 2713 2670 2916 
Q 2900 3119 2900 3481 
Q 2900 3844 2670 4047 
Q 2441 4250 2034 4250 
Q 1625 4250 1398 4047 
Q 1172 3844 1172 3481 
z
" transform="scale(0.015625)"/>
       </defs>
       <use xlink:href="#DejaVuSans-30"/>
       <use xlink:href="#DejaVuSans-2e" transform="translate(63.623047 0)"/>
       <use xlink:href="#DejaVuSans-38" transform="translate(95.410156 0)"/>
      </g>
     </g>
    </g>
    <g id="ytick_6">
     <g id="line2d_11">
      <g>
       <use xlink:href="#m16c04aa0aa" x="72" y="98.058754" style="stroke: #000000; stroke-width: 0.8"/>
      </g>
     </g>
     <g id="text_12">
      <!-- 1.0 -->
      <g transform="translate(49.096875 101.857973) scale(0.1 -0.1)">
       <use xlink:href="#DejaVuSans-31"/>
       <use xlink:href="#DejaVuSans-2e" transform="translate(63.623047 0)"/>
       <use xlink:href="#DejaVuSans-30" transform="translate(95.410156 0)"/>
      </g>
     </g>
    </g>
    <g id="ytick_7">
     <g id="line2d_12">
      <g>
       <use xlink:href="#m16c04aa0aa" x="72" y="66.406505" style="stroke: #000000; stroke-width: 0.8"/>
      </g>
     </g>
     <g id="text_13">
      <!-- 1.2 -->
      <g transform="translate(49.096875 70.205724) scale(0.1 -0.1)">
       <use xlink:href="#DejaVuSans-31"/>
       <use xlink:href="#DejaVuSans-2e" transform="translate(63.623047 0)"/>
       <use xlink:href="#DejaVuSans-32" transform="translate(95.410156 0)"/>
      </g>
     </g>
    </g>
    <g id="ytick_8">
     <g id="line2d_13">
      <g>
       <use xlink:href="#m16c04aa0aa" x="72" y="34.754256" style="stroke: #000000; stroke-width: 0.8"/>
      </g>
     </g>
     <g id="text_14">
      <!-- 1.4 -->
      <g transform="translate(49.096875 38.553475) scale(0.1 -0.1)">
       <use xlink:href="#DejaVuSans-31"/>
       <use xlink:href="#DejaVuSans-2e" transform="translate(63.623047 0)"/>
       <use xlink:href="#DejaVuSans-34" transform="translate(95.410156 0)"/>
      </g>
     </g>
    </g>
   </g>
   <g id="line2d_14">
    <path d="M 110.119749 253.62358 
L 112.408628 252.72306 
L 114.554452 251.650093 
L 116.557221 250.408779 
L 118.55999 248.894642 
L 120.419704 247.206133 
L 122.279418 245.207349 
L 124.139132 242.859467 
L 125.998847 240.12292 
L 127.858561 236.958416 
L 129.718275 233.328103 
L 131.577989 229.196957 
L 133.437703 224.534303 
L 135.440472 218.890452 
L 137.443241 212.581021 
L 139.589065 205.073863 
L 141.877944 196.226454 
L 144.309878 185.923121 
L 147.027922 173.419729 
L 150.318185 157.16763 
L 155.897327 128.20445 
L 160.188975 106.47648 
L 162.907019 93.831912 
L 165.052843 84.818825 
L 166.912557 77.878606 
L 168.629216 72.305848 
L 170.059765 68.339548 
L 171.34726 65.336482 
L 172.634754 62.899099 
L 173.779194 61.225949 
L 174.780578 60.153217 
L 175.638908 59.529424 
L 176.497237 59.181362 
L 177.212512 59.103067 
L 177.927787 59.217509 
L 178.786116 59.608813 
L 179.644446 60.275507 
L 180.502775 61.214837 
L 181.50416 62.649933 
L 182.648599 64.727197 
L 183.936094 67.602936 
L 185.366643 71.435739 
L 186.940247 76.376611 
L 188.656907 82.556464 
L 190.659676 90.681689 
L 192.948555 100.968405 
L 195.809653 114.937655 
L 200.387411 138.615853 
L 205.680443 165.732059 
L 208.827652 180.736022 
L 211.545696 192.655458 
L 213.977629 202.367208 
L 216.266508 210.62434 
L 218.412332 217.567839 
L 220.558156 223.744167 
L 222.560925 228.836367 
L 224.563694 233.309616 
L 226.423408 236.942238 
L 228.283123 240.108872 
L 230.142837 242.847369 
L 232.002551 245.197012 
L 233.862265 247.197367 
L 235.721979 248.887265 
L 237.724748 250.402706 
L 239.727517 251.645137 
L 241.873341 252.719113 
L 244.16222 253.620515 
L 246.737209 254.39108 
L 249.598307 255.011797 
L 253.031626 255.515843 
L 253.031626 255.515843 
" clip-path="url(#p155698ac6e)" style="fill: none; stroke: #ff0000; stroke-width: 1.5; stroke-linecap: square"/>
   </g>
   <g id="patch_23">
    <path d="M 72 256.32 
L 72 34.56 
" style="fill: none; stroke: #000000; stroke-width: 0.8; stroke-linejoin: miter; stroke-linecap: square"/>
   </g>
   <g id="patch_24">
    <path d="M 274.909091 256.32 
L 274.909091 34.56 
" style="fill: none; stroke: #000000; stroke-width: 0.8; stroke-linejoin: miter; stroke-linecap: square"/>
   </g>
   <g id="patch_25">
    <path d="M 72 256.32 
L 274.909091 256.32 
" style="fill: none; stroke: #000000; stroke-width: 0.8; stroke-linejoin: miter; stroke-linecap: square"/>
   </g>
   <g id="patch_26">
    <path d="M 72 34.56 
L 274.909091 34.56 
" style="fill: none; stroke: #000000; stroke-width: 0.8; stroke-linejoin: miter; stroke-linecap: square"/>
   </g>
   <g id="legend_1">
    <g id="patch_27">
     <path d="M 204.687216 71.91625 
L 267.909091 71.91625 
Q 269.909091 71.91625 269.909091 69.91625 
L 269.909091 41.56 
Q 269.909091 39.56 267.909091 39.56 
L 204.687216 39.56 
Q 202.687216 39.56 202.687216 41.56 
L 202.687216 69.91625 
Q 202.687216 71.91625 204.687216 71.91625 
z
" style="fill: #ffffff; opacity: 0.8; stroke: #cccccc; stroke-linejoin: miter"/>
    </g>
    <g id="patch_28">
     <path d="M 206.687216 51.158437 
L 226.687216 51.158437 
L 226.687216 44.158437 
L 206.687216 44.158437 
z
" style="fill: #4682b4"/>
    </g>
    <g id="text_15">
     <!-- MCMC -->
     <g transform="translate(234.687216 51.158437) scale(0.1 -0.1)">
      <defs>
       <path id="DejaVuSans-4d" d="M 628 4666 
L 1569 4666 
L 2759 1491 
L 3956 4666 
L 4897 4666 
L 4897 0 
L 4281 0 
L 4281 4097 
L 3078 897 
L 2444 897 
L 1241 4097 
L 1241 0 
L 628 0 
L 628 4666 
z
" transform="scale(0.015625)"/>
       <path id="DejaVuSans-43" d="M 4122 4306 
L 4122 3641 
Q 3803 3938 3442 4084 
Q 3081 4231 2675 4231 
Q 1875 4231 1450 3742 
Q 1025 3253 1025 2328 
Q 1025 1406 1450 917 
Q 1875 428 2675 428 
Q 3081 428 3442 575 
Q 3803 722 4122 1019 
L 4122 359 
Q 3791 134 3420 21 
Q 3050 -91 2638 -91 
Q 1578 -91 968 557 
Q 359 1206 359 2328 
Q 359 3453 968 4101 
Q 1578 4750 2638 4750 
Q 3056 4750 3426 4639 
Q 3797 4528 4122 4306 
z
" transform="scale(0.015625)"/>
      </defs>
      <use xlink:href="#DejaVuSans-4d"/>
      <use xlink:href="#DejaVuSans-43" transform="translate(86.279297 0)"/>
      <use xlink:href="#DejaVuSans-4d" transform="translate(156.103516 0)"/>
      <use xlink:href="#DejaVuSans-43" transform="translate(242.382812 0)"/>
     </g>
    </g>
    <g id="line2d_15">
     <path d="M 206.687216 62.336562 
L 216.687216 62.336562 
L 226.687216 62.336562 
" style="fill: none; stroke: #ff0000; stroke-width: 1.5; stroke-linecap: square"/>
    </g>
    <g id="text_16">
     <!-- VI -->
     <g transform="translate(234.687216 65.836562) scale(0.1 -0.1)">
      <defs>
       <path id="DejaVuSans-56" d="M 1831 0 
L 50 4666 
L 709 4666 
L 2188 738 
L 3669 4666 
L 4325 4666 
L 2547 0 
L 1831 0 
z
" transform="scale(0.015625)"/>
       <path id="DejaVuSans-49" d="M 628 4666 
L 1259 4666 
L 1259 0 
L 628 0 
L 628 4666 
z
" transform="scale(0.015625)"/>
      </defs>
      <use xlink:href="#DejaVuSans-56"/>
      <use xlink:href="#DejaVuSans-49" transform="translate(68.408203 0)"/>
     </g>
    </g>
   </g>
  </g>
  <g id="axes_2">
   <g id="patch_29">
    <path d="M 315.490909 256.32 
L 518.4 256.32 
L 518.4 34.56 
L 315.490909 34.56 
z
" style="fill: #ffffff"/>
   </g>
   <g id="patch_30">
    <path d="M 349.133766 256.32 
L 356.231947 256.32 
L 356.231947 255.552751 
L 349.133766 255.552751 
z
" clip-path="url(#p3b02fa0c1c)" style="fill: #4682b4"/>
   </g>
   <g id="patch_31">
    <path d="M 356.231947 256.32 
L 363.33004 256.32 
L 363.33004 254.401853 
L 356.231947 254.401853 
z
" clip-path="url(#p3b02fa0c1c)" style="fill: #4682b4"/>
   </g>
   <g id="patch_32">
    <path d="M 363.33004 256.32 
L 370.42822 256.32 
L 370.42822 250.182005 
L 363.33004 250.182005 
z
" clip-path="url(#p3b02fa0c1c)" style="fill: #4682b4"/>
   </g>
   <g id="patch_33">
    <path d="M 370.42822 256.32 
L 377.526401 256.32 
L 377.526401 235.220641 
L 370.42822 235.220641 
z
" clip-path="url(#p3b02fa0c1c)" style="fill: #4682b4"/>
   </g>
   <g id="patch_34">
    <path d="M 377.526401 256.32 
L 384.624494 256.32 
L 384.624494 220.64246 
L 377.526401 220.64246 
z
" clip-path="url(#p3b02fa0c1c)" style="fill: #4682b4"/>
   </g>
   <g id="patch_35">
    <path d="M 384.624494 256.32 
L 391.722675 256.32 
L 391.722675 193.789173 
L 384.624494 193.789173 
z
" clip-path="url(#p3b02fa0c1c)" style="fill: #4682b4"/>
   </g>
   <g id="patch_36">
    <path d="M 391.722675 256.32 
L 398.820856 256.32 
L 398.820856 149.288708 
L 391.722675 149.288708 
z
" clip-path="url(#p3b02fa0c1c)" style="fill: #4682b4"/>
   </g>
   <g id="patch_37">
    <path d="M 398.820856 256.32 
L 405.919037 256.32 
L 405.919037 109.391738 
L 398.820856 109.391738 
z
" clip-path="url(#p3b02fa0c1c)" style="fill: #4682b4"/>
   </g>
   <g id="patch_38">
    <path d="M 405.919037 256.32 
L 413.01713 256.32 
L 413.01713 71.026972 
L 405.919037 71.026972 
z
" clip-path="url(#p3b02fa0c1c)" style="fill: #4682b4"/>
   </g>
   <g id="patch_39">
    <path d="M 413.01713 256.32 
L 420.115311 256.32 
L 420.115311 48.779035 
L 413.01713 48.779035 
z
" clip-path="url(#p3b02fa0c1c)" style="fill: #4682b4"/>
   </g>
   <g id="patch_40">
    <path d="M 420.115311 256.32 
L 427.213492 256.32 
L 427.213492 51.464408 
L 420.115311 51.464408 
z
" clip-path="url(#p3b02fa0c1c)" style="fill: #4682b4"/>
   </g>
   <g id="patch_41">
    <path d="M 427.213492 256.32 
L 434.311585 256.32 
L 434.311585 78.315931 
L 427.213492 78.315931 
z
" clip-path="url(#p3b02fa0c1c)" style="fill: #4682b4"/>
   </g>
   <g id="patch_42">
    <path d="M 434.311585 256.32 
L 441.409766 256.32 
L 441.409766 115.529734 
L 434.311585 115.529734 
z
" clip-path="url(#p3b02fa0c1c)" style="fill: #4682b4"/>
   </g>
   <g id="patch_43">
    <path d="M 441.409766 256.32 
L 448.507947 256.32 
L 448.507947 156.577577 
L 441.409766 156.577577 
z
" clip-path="url(#p3b02fa0c1c)" style="fill: #4682b4"/>
   </g>
   <g id="patch_44">
    <path d="M 448.507947 256.32 
L 455.606128 256.32 
L 455.606128 190.720176 
L 448.507947 190.720176 
z
" clip-path="url(#p3b02fa0c1c)" style="fill: #4682b4"/>
   </g>
   <g id="patch_45">
    <path d="M 455.606128 256.32 
L 462.704221 256.32 
L 462.704221 221.409719 
L 455.606128 221.409719 
z
" clip-path="url(#p3b02fa0c1c)" style="fill: #4682b4"/>
   </g>
   <g id="patch_46">
    <path d="M 462.704221 256.32 
L 469.802401 256.32 
L 469.802401 234.069767 
L 462.704221 234.069767 
z
" clip-path="url(#p3b02fa0c1c)" style="fill: #4682b4"/>
   </g>
   <g id="patch_47">
    <path d="M 469.802401 256.32 
L 476.900582 256.32 
L 476.900582 249.79838 
L 469.802401 249.79838 
z
" clip-path="url(#p3b02fa0c1c)" style="fill: #4682b4"/>
   </g>
   <g id="patch_48">
    <path d="M 476.900582 256.32 
L 483.998675 256.32 
L 483.998675 250.181929 
L 476.900582 250.181929 
z
" clip-path="url(#p3b02fa0c1c)" style="fill: #4682b4"/>
   </g>
   <g id="patch_49">
    <path d="M 483.998675 256.32 
L 491.096856 256.32 
L 491.096856 255.552751 
L 483.998675 255.552751 
z
" clip-path="url(#p3b02fa0c1c)" style="fill: #4682b4"/>
   </g>
   <g id="matplotlib.axis_3">
    <g id="xtick_6">
     <g id="line2d_16">
      <g>
       <use xlink:href="#m6d566ec15e" x="324.71405" y="256.32" style="stroke: #000000; stroke-width: 0.8"/>
      </g>
     </g>
     <g id="text_17">
      <!-- 9.0 -->
      <g transform="translate(316.762487 270.918437) scale(0.1 -0.1)">
       <defs>
        <path id="DejaVuSans-39" d="M 703 97 
L 703 672 
Q 941 559 1184 500 
Q 1428 441 1663 441 
Q 2288 441 2617 861 
Q 2947 1281 2994 2138 
Q 2813 1869 2534 1725 
Q 2256 1581 1919 1581 
Q 1219 1581 811 2004 
Q 403 2428 403 3163 
Q 403 3881 828 4315 
Q 1253 4750 1959 4750 
Q 2769 4750 3195 4129 
Q 3622 3509 3622 2328 
Q 3622 1225 3098 567 
Q 2575 -91 1691 -91 
Q 1453 -91 1209 -44 
Q 966 3 703 97 
z
M 1959 2075 
Q 2384 2075 2632 2365 
Q 2881 2656 2881 3163 
Q 2881 3666 2632 3958 
Q 2384 4250 1959 4250 
Q 1534 4250 1286 3958 
Q 1038 3666 1038 3163 
Q 1038 2656 1286 2365 
Q 1534 2075 1959 2075 
z
" transform="scale(0.015625)"/>
       </defs>
       <use xlink:href="#DejaVuSans-39"/>
       <use xlink:href="#DejaVuSans-2e" transform="translate(63.623047 0)"/>
       <use xlink:href="#DejaVuSans-30" transform="translate(95.410156 0)"/>
      </g>
     </g>
    </g>
    <g id="xtick_7">
     <g id="line2d_17">
      <g>
       <use xlink:href="#m6d566ec15e" x="370.829752" y="256.32" style="stroke: #000000; stroke-width: 0.8"/>
      </g>
     </g>
     <g id="text_18">
      <!-- 9.5 -->
      <g transform="translate(362.87819 270.918437) scale(0.1 -0.1)">
       <use xlink:href="#DejaVuSans-39"/>
       <use xlink:href="#DejaVuSans-2e" transform="translate(63.623047 0)"/>
       <use xlink:href="#DejaVuSans-35" transform="translate(95.410156 0)"/>
      </g>
     </g>
    </g>
    <g id="xtick_8">
     <g id="line2d_18">
      <g>
       <use xlink:href="#m6d566ec15e" x="416.945455" y="256.32" style="stroke: #000000; stroke-width: 0.8"/>
      </g>
     </g>
     <g id="text_19">
      <!-- 10.0 -->
      <g transform="translate(405.812642 270.918437) scale(0.1 -0.1)">
       <use xlink:href="#DejaVuSans-31"/>
       <use xlink:href="#DejaVuSans-30" transform="translate(63.623047 0)"/>
       <use xlink:href="#DejaVuSans-2e" transform="translate(127.246094 0)"/>
       <use xlink:href="#DejaVuSans-30" transform="translate(159.033203 0)"/>
      </g>
     </g>
    </g>
    <g id="xtick_9">
     <g id="line2d_19">
      <g>
       <use xlink:href="#m6d566ec15e" x="463.061157" y="256.32" style="stroke: #000000; stroke-width: 0.8"/>
      </g>
     </g>
     <g id="text_20">
      <!-- 10.5 -->
      <g transform="translate(451.928345 270.918437) scale(0.1 -0.1)">
       <use xlink:href="#DejaVuSans-31"/>
       <use xlink:href="#DejaVuSans-30" transform="translate(63.623047 0)"/>
       <use xlink:href="#DejaVuSans-2e" transform="translate(127.246094 0)"/>
       <use xlink:href="#DejaVuSans-35" transform="translate(159.033203 0)"/>
      </g>
     </g>
    </g>
    <g id="xtick_10">
     <g id="line2d_20">
      <g>
       <use xlink:href="#m6d566ec15e" x="509.17686" y="256.32" style="stroke: #000000; stroke-width: 0.8"/>
      </g>
     </g>
     <g id="text_21">
      <!-- 11.0 -->
      <g transform="translate(498.044047 270.918437) scale(0.1 -0.1)">
       <use xlink:href="#DejaVuSans-31"/>
       <use xlink:href="#DejaVuSans-31" transform="translate(63.623047 0)"/>
       <use xlink:href="#DejaVuSans-2e" transform="translate(127.246094 0)"/>
       <use xlink:href="#DejaVuSans-30" transform="translate(159.033203 0)"/>
      </g>
     </g>
    </g>
    <g id="text_22">
     <!-- $\sigma$ -->
     <g transform="translate(413.745455 284.596563) scale(0.1 -0.1)">
      <defs>
       <path id="DejaVuSans-Oblique-3c3" d="M 2219 3044 
Q 1744 3044 1422 2700 
Q 1081 2341 969 1747 
Q 844 1119 1044 756 
Q 1241 397 1706 397 
Q 2166 397 2503 759 
Q 2844 1122 2966 1747 
Q 3075 2319 2881 2700 
Q 2700 3044 2219 3044 
z
M 2309 3503 
L 4219 3500 
L 4106 2925 
L 3463 2925 
Q 3706 2438 3575 1747 
Q 3406 888 2884 400 
Q 2359 -91 1609 -91 
Q 856 -91 525 400 
Q 194 888 363 1747 
Q 528 2609 1050 3097 
Q 1484 3503 2309 3503 
z
" transform="scale(0.015625)"/>
      </defs>
      <use xlink:href="#DejaVuSans-Oblique-3c3" transform="translate(0 0.265625)"/>
     </g>
    </g>
   </g>
   <g id="matplotlib.axis_4">
    <g id="ytick_9">
     <g id="line2d_21">
      <g>
       <use xlink:href="#m16c04aa0aa" x="315.490909" y="256.32" style="stroke: #000000; stroke-width: 0.8"/>
      </g>
     </g>
     <g id="text_23">
      <!-- 0.00 -->
      <g transform="translate(286.225284 260.119219) scale(0.1 -0.1)">
       <use xlink:href="#DejaVuSans-30"/>
       <use xlink:href="#DejaVuSans-2e" transform="translate(63.623047 0)"/>
       <use xlink:href="#DejaVuSans-30" transform="translate(95.410156 0)"/>
       <use xlink:href="#DejaVuSans-30" transform="translate(159.033203 0)"/>
      </g>
     </g>
    </g>
    <g id="ytick_10">
     <g id="line2d_22">
      <g>
       <use xlink:href="#m16c04aa0aa" x="315.490909" y="226.796027" style="stroke: #000000; stroke-width: 0.8"/>
      </g>
     </g>
     <g id="text_24">
      <!-- 0.25 -->
      <g transform="translate(286.225284 230.595245) scale(0.1 -0.1)">
       <use xlink:href="#DejaVuSans-30"/>
       <use xlink:href="#DejaVuSans-2e" transform="translate(63.623047 0)"/>
       <use xlink:href="#DejaVuSans-32" transform="translate(95.410156 0)"/>
       <use xlink:href="#DejaVuSans-35" transform="translate(159.033203 0)"/>
      </g>
     </g>
    </g>
    <g id="ytick_11">
     <g id="line2d_23">
      <g>
       <use xlink:href="#m16c04aa0aa" x="315.490909" y="197.272053" style="stroke: #000000; stroke-width: 0.8"/>
      </g>
     </g>
     <g id="text_25">
      <!-- 0.50 -->
      <g transform="translate(286.225284 201.071272) scale(0.1 -0.1)">
       <use xlink:href="#DejaVuSans-30"/>
       <use xlink:href="#DejaVuSans-2e" transform="translate(63.623047 0)"/>
       <use xlink:href="#DejaVuSans-35" transform="translate(95.410156 0)"/>
       <use xlink:href="#DejaVuSans-30" transform="translate(159.033203 0)"/>
      </g>
     </g>
    </g>
    <g id="ytick_12">
     <g id="line2d_24">
      <g>
       <use xlink:href="#m16c04aa0aa" x="315.490909" y="167.74808" style="stroke: #000000; stroke-width: 0.8"/>
      </g>
     </g>
     <g id="text_26">
      <!-- 0.75 -->
      <g transform="translate(286.225284 171.547298) scale(0.1 -0.1)">
       <defs>
        <path id="DejaVuSans-37" d="M 525 4666 
L 3525 4666 
L 3525 4397 
L 1831 0 
L 1172 0 
L 2766 4134 
L 525 4134 
L 525 4666 
z
" transform="scale(0.015625)"/>
       </defs>
       <use xlink:href="#DejaVuSans-30"/>
       <use xlink:href="#DejaVuSans-2e" transform="translate(63.623047 0)"/>
       <use xlink:href="#DejaVuSans-37" transform="translate(95.410156 0)"/>
       <use xlink:href="#DejaVuSans-35" transform="translate(159.033203 0)"/>
      </g>
     </g>
    </g>
    <g id="ytick_13">
     <g id="line2d_25">
      <g>
       <use xlink:href="#m16c04aa0aa" x="315.490909" y="138.224106" style="stroke: #000000; stroke-width: 0.8"/>
      </g>
     </g>
     <g id="text_27">
      <!-- 1.00 -->
      <g transform="translate(286.225284 142.023325) scale(0.1 -0.1)">
       <use xlink:href="#DejaVuSans-31"/>
       <use xlink:href="#DejaVuSans-2e" transform="translate(63.623047 0)"/>
       <use xlink:href="#DejaVuSans-30" transform="translate(95.410156 0)"/>
       <use xlink:href="#DejaVuSans-30" transform="translate(159.033203 0)"/>
      </g>
     </g>
    </g>
    <g id="ytick_14">
     <g id="line2d_26">
      <g>
       <use xlink:href="#m16c04aa0aa" x="315.490909" y="108.700133" style="stroke: #000000; stroke-width: 0.8"/>
      </g>
     </g>
     <g id="text_28">
      <!-- 1.25 -->
      <g transform="translate(286.225284 112.499351) scale(0.1 -0.1)">
       <use xlink:href="#DejaVuSans-31"/>
       <use xlink:href="#DejaVuSans-2e" transform="translate(63.623047 0)"/>
       <use xlink:href="#DejaVuSans-32" transform="translate(95.410156 0)"/>
       <use xlink:href="#DejaVuSans-35" transform="translate(159.033203 0)"/>
      </g>
     </g>
    </g>
    <g id="ytick_15">
     <g id="line2d_27">
      <g>
       <use xlink:href="#m16c04aa0aa" x="315.490909" y="79.176159" style="stroke: #000000; stroke-width: 0.8"/>
      </g>
     </g>
     <g id="text_29">
      <!-- 1.50 -->
      <g transform="translate(286.225284 82.975378) scale(0.1 -0.1)">
       <use xlink:href="#DejaVuSans-31"/>
       <use xlink:href="#DejaVuSans-2e" transform="translate(63.623047 0)"/>
       <use xlink:href="#DejaVuSans-35" transform="translate(95.410156 0)"/>
       <use xlink:href="#DejaVuSans-30" transform="translate(159.033203 0)"/>
      </g>
     </g>
    </g>
    <g id="ytick_16">
     <g id="line2d_28">
      <g>
       <use xlink:href="#m16c04aa0aa" x="315.490909" y="49.652186" style="stroke: #000000; stroke-width: 0.8"/>
      </g>
     </g>
     <g id="text_30">
      <!-- 1.75 -->
      <g transform="translate(286.225284 53.451404) scale(0.1 -0.1)">
       <use xlink:href="#DejaVuSans-31"/>
       <use xlink:href="#DejaVuSans-2e" transform="translate(63.623047 0)"/>
       <use xlink:href="#DejaVuSans-37" transform="translate(95.410156 0)"/>
       <use xlink:href="#DejaVuSans-35" transform="translate(159.033203 0)"/>
      </g>
     </g>
    </g>
   </g>
   <g id="line2d_29">
    <path d="M 324.71405 256.318091 
L 342.440205 256.201976 
L 348.164277 255.956718 
L 352.041873 255.584147 
L 354.996233 255.097099 
L 357.581297 254.45221 
L 359.797066 253.675737 
L 361.828189 252.728119 
L 363.674663 251.623264 
L 365.33649 250.390437 
L 366.998317 248.891821 
L 368.660144 247.086201 
L 370.321972 244.930018 
L 371.983799 242.377497 
L 373.645626 239.382443 
L 375.307453 235.899262 
L 376.96928 231.884552 
L 378.631107 227.298825 
L 380.477582 221.492655 
L 382.324056 214.904957 
L 384.170531 207.517301 
L 386.201653 198.464942 
L 388.417422 187.521901 
L 390.817839 174.511698 
L 393.587551 158.247885 
L 397.465148 134.016506 
L 403.189219 98.257752 
L 405.774283 83.539492 
L 407.805405 73.151326 
L 409.65188 64.851833 
L 411.12906 59.124879 
L 412.606239 54.298263 
L 413.898771 50.866086 
L 415.006656 48.542576 
L 415.929894 47.056348 
L 416.853131 45.987424 
L 417.591721 45.436336 
L 418.33031 45.157307 
L 419.0689 45.150662 
L 419.80749 45.415824 
L 420.54608 45.95106 
L 421.28467 46.753626 
L 422.207907 48.127327 
L 423.131144 49.903706 
L 424.239029 52.549591 
L 425.531561 56.315617 
L 426.824094 60.768965 
L 428.301273 66.632055 
L 430.147748 74.993773 
L 432.17887 85.306184 
L 434.763934 99.71557 
L 438.456883 121.762833 
L 444.734897 159.308017 
L 447.689256 175.588801 
L 450.274321 188.629765 
L 452.674738 199.574552 
L 454.890507 208.619672 
L 456.921629 216.007081 
L 458.952751 222.542197 
L 460.799226 227.772966 
L 462.6457 232.362701 
L 464.492175 236.354917 
L 466.338649 239.797383 
L 468.185124 242.74032 
L 470.031599 245.235917 
L 471.878073 247.334348 
L 473.724548 249.085079 
L 475.571022 250.533796 
L 477.602144 251.8298 
L 479.633266 252.863575 
L 481.849036 253.74552 
L 484.249453 254.468895 
L 487.019165 255.072164 
L 490.342819 255.557446 
L 494.405063 255.91394 
L 499.944487 256.15634 
L 508.622917 256.284778 
L 509.17686 256.288214 
L 509.17686 256.288214 
" clip-path="url(#p3b02fa0c1c)" style="fill: none; stroke: #ff0000; stroke-width: 1.5; stroke-linecap: square"/>
   </g>
   <g id="patch_50">
    <path d="M 315.490909 256.32 
L 315.490909 34.56 
" style="fill: none; stroke: #000000; stroke-width: 0.8; stroke-linejoin: miter; stroke-linecap: square"/>
   </g>
   <g id="patch_51">
    <path d="M 518.4 256.32 
L 518.4 34.56 
" style="fill: none; stroke: #000000; stroke-width: 0.8; stroke-linejoin: miter; stroke-linecap: square"/>
   </g>
   <g id="patch_52">
    <path d="M 315.490909 256.32 
L 518.4 256.32 
" style="fill: none; stroke: #000000; stroke-width: 0.8; stroke-linejoin: miter; stroke-linecap: square"/>
   </g>
   <g id="patch_53">
    <path d="M 315.490909 34.56 
L 518.4 34.56 
" style="fill: none; stroke: #000000; stroke-width: 0.8; stroke-linejoin: miter; stroke-linecap: square"/>
   </g>
   <g id="legend_2">
    <g id="patch_54">
     <path d="M 448.178125 71.91625 
L 511.4 71.91625 
Q 513.4 71.91625 513.4 69.91625 
L 513.4 41.56 
Q 513.4 39.56 511.4 39.56 
L 448.178125 39.56 
Q 446.178125 39.56 446.178125 41.56 
L 446.178125 69.91625 
Q 446.178125 71.91625 448.178125 71.91625 
z
" style="fill: #ffffff; opacity: 0.8; stroke: #cccccc; stroke-linejoin: miter"/>
    </g>
    <g id="patch_55">
     <path d="M 450.178125 51.158437 
L 470.178125 51.158437 
L 470.178125 44.158437 
L 450.178125 44.158437 
z
" style="fill: #4682b4"/>
    </g>
    <g id="text_31">
     <!-- MCMC -->
     <g transform="translate(478.178125 51.158437) scale(0.1 -0.1)">
      <use xlink:href="#DejaVuSans-4d"/>
      <use xlink:href="#DejaVuSans-43" transform="translate(86.279297 0)"/>
      <use xlink:href="#DejaVuSans-4d" transform="translate(156.103516 0)"/>
      <use xlink:href="#DejaVuSans-43" transform="translate(242.382812 0)"/>
     </g>
    </g>
    <g id="line2d_30">
     <path d="M 450.178125 62.336562 
L 460.178125 62.336562 
L 470.178125 62.336562 
" style="fill: none; stroke: #ff0000; stroke-width: 1.5; stroke-linecap: square"/>
    </g>
    <g id="text_32">
     <!-- VI -->
     <g transform="translate(478.178125 65.836562) scale(0.1 -0.1)">
      <use xlink:href="#DejaVuSans-56"/>
      <use xlink:href="#DejaVuSans-49" transform="translate(68.408203 0)"/>
     </g>
    </g>
   </g>
  </g>
 </g>
 <defs>
  <clipPath id="p155698ac6e">
   <rect x="72" y="34.56" width="202.909091" height="221.76"/>
  </clipPath>
  <clipPath id="p3b02fa0c1c">
   <rect x="315.490909" y="34.56" width="202.909091" height="221.76"/>
  </clipPath>
 </defs>
</svg>
