<?xml version="1.0" encoding="utf-8" standalone="no"?>
<!DOCTYPE svg PUBLIC "-//W3C//DTD SVG 1.1//EN"
  "http://www.w3.org/Graphics/SVG/1.1/DTD/svg11.dtd">
<svg xmlns:xlink="http://www.w3.org/1999/xlink" width="460.8pt" height="345.6pt" viewBox="0 0 460.8 345.6" xmlns="http://www.w3.org/2000/svg" version="1.1">
 <metadata>
  <rdf:RDF xmlns:dc="http://purl.org/dc/elements/1.1/" xmlns:cc="http://creativecommons.org/ns#" xmlns:rdf="http://www.w3.org/1999/02/22-rdf-syntax-ns#">
   <cc:Work>
    <dc:type rdf:resource="http://purl.org/dc/dcmitype/StillImage"/>
    <dc:date>2023-06-27T20:11:31.075959</dc:date>
    <dc:format>image/svg+xml</dc:format>
    <dc:creator>
     <cc:Agent>
      <dc:title>Matplotlib v3.5.2, https://matplotlib.org/</dc:title>
     </cc:Agent>
    </dc:creator>
   </cc:Work>
  </rdf:RDF>
 </metadata>
 <defs>
  <style type="text/css">*{stroke-linejoin: round; stroke-linecap: butt}</style>
 </defs>
 <g id="figure_1">
  <g id="patch_1">
   <path d="M 0 345.6 
L 460.8 345.6 
L 460.8 0 
L 0 0 
z
" style="fill: #ffffff"/>
  </g>
  <g id="axes_1">
   <g id="patch_2">
    <path d="M 57.6 307.584 
L 414.72 307.584 
L 414.72 41.472 
L 57.6 41.472 
z
" style="fill: #ffffff"/>
   </g>
   <g id="PathCollection_1">
    <defs>
     <path id="m41c1d3ddaa" d="M 0 3 
C 0.795609 3 1.55874 2.683901 2.12132 2.12132 
C 2.683901 1.55874 3 0.795609 3 0 
C 3 -0.795609 2.683901 -1.55874 2.12132 -2.12132 
C 1.55874 -2.683901 0.795609 -3 0 -3 
C -0.795609 -3 -1.55874 -2.683901 -2.12132 -2.12132 
C -2.683901 -1.55874 -3 -0.795609 -3 0 
C -3 0.795609 -2.683901 1.55874 -2.12132 2.12132 
C -1.55874 2.683901 -0.795609 3 0 3 
z
" style="stroke: #000000"/>
    </defs>
    <g clip-path="url(#pe6cf9bcb96)">
     <use xlink:href="#m41c1d3ddaa" x="209.220817" y="249.523377" style="stroke: #000000"/>
     <use xlink:href="#m41c1d3ddaa" x="307.689348" y="133.402168" style="stroke: #000000"/>
     <use xlink:href="#m41c1d3ddaa" x="73.86986" y="200.33866" style="stroke: #000000"/>
     <use xlink:href="#m41c1d3ddaa" x="171.986371" y="175.483984" style="stroke: #000000"/>
     <use xlink:href="#m41c1d3ddaa" x="121.477694" y="167.062876" style="stroke: #000000"/>
     <use xlink:href="#m41c1d3ddaa" x="103.810872" y="170.251874" style="stroke: #000000"/>
     <use xlink:href="#m41c1d3ddaa" x="134.302952" y="169.201846" style="stroke: #000000"/>
     <use xlink:href="#m41c1d3ddaa" x="186.020588" y="216.374733" style="stroke: #000000"/>
     <use xlink:href="#m41c1d3ddaa" x="202.645091" y="240.758774" style="stroke: #000000"/>
     <use xlink:href="#m41c1d3ddaa" x="248.762029" y="258.481736" style="stroke: #000000"/>
     <use xlink:href="#m41c1d3ddaa" x="209.926132" y="252.558904" style="stroke: #000000"/>
     <use xlink:href="#m41c1d3ddaa" x="296.292353" y="131.701978" style="stroke: #000000"/>
     <use xlink:href="#m41c1d3ddaa" x="140.209079" y="176.08405" style="stroke: #000000"/>
     <use xlink:href="#m41c1d3ddaa" x="358.917544" y="101.093739" style="stroke: #000000"/>
     <use xlink:href="#m41c1d3ddaa" x="82.724234" y="191.968249" style="stroke: #000000"/>
     <use xlink:href="#m41c1d3ddaa" x="291.503052" y="130.675973" style="stroke: #000000"/>
     <use xlink:href="#m41c1d3ddaa" x="209.312628" y="234.939937" style="stroke: #000000"/>
     <use xlink:href="#m41c1d3ddaa" x="255.21392" y="251.883829" style="stroke: #000000"/>
     <use xlink:href="#m41c1d3ddaa" x="119.409985" y="178.411898" style="stroke: #000000"/>
     <use xlink:href="#m41c1d3ddaa" x="138.147276" y="175.596916" style="stroke: #000000"/>
     <use xlink:href="#m41c1d3ddaa" x="333.798091" y="56.251677" style="stroke: #000000"/>
     <use xlink:href="#m41c1d3ddaa" x="388.183249" y="235.104634" style="stroke: #000000"/>
     <use xlink:href="#m41c1d3ddaa" x="175.587311" y="200.582251" style="stroke: #000000"/>
     <use xlink:href="#m41c1d3ddaa" x="298.598411" y="125.57735" style="stroke: #000000"/>
     <use xlink:href="#m41c1d3ddaa" x="358.356449" y="115.890219" style="stroke: #000000"/>
     <use xlink:href="#m41c1d3ddaa" x="364.270847" y="114.89853" style="stroke: #000000"/>
     <use xlink:href="#m41c1d3ddaa" x="101.442717" y="192.032517" style="stroke: #000000"/>
     <use xlink:href="#m41c1d3ddaa" x="86.51204" y="172.341754" style="stroke: #000000"/>
     <use xlink:href="#m41c1d3ddaa" x="128.968945" y="160.425053" style="stroke: #000000"/>
     <use xlink:href="#m41c1d3ddaa" x="358.925683" y="97.519434" style="stroke: #000000"/>
     <use xlink:href="#m41c1d3ddaa" x="105.761474" y="199.839304" style="stroke: #000000"/>
     <use xlink:href="#m41c1d3ddaa" x="210.547232" y="253.974351" style="stroke: #000000"/>
     <use xlink:href="#m41c1d3ddaa" x="384.815917" y="207.401737" style="stroke: #000000"/>
     <use xlink:href="#m41c1d3ddaa" x="246.927261" y="283.511246" style="stroke: #000000"/>
     <use xlink:href="#m41c1d3ddaa" x="298.453777" y="131.199426" style="stroke: #000000"/>
     <use xlink:href="#m41c1d3ddaa" x="176.266311" y="195.403695" style="stroke: #000000"/>
     <use xlink:href="#m41c1d3ddaa" x="296.708374" y="155.23156" style="stroke: #000000"/>
     <use xlink:href="#m41c1d3ddaa" x="344.797745" y="67.362017" style="stroke: #000000"/>
     <use xlink:href="#m41c1d3ddaa" x="79.7701" y="180.573278" style="stroke: #000000"/>
     <use xlink:href="#m41c1d3ddaa" x="317.370489" y="92.198251" style="stroke: #000000"/>
     <use xlink:href="#m41c1d3ddaa" x="394.870975" y="263.141384" style="stroke: #000000"/>
     <use xlink:href="#m41c1d3ddaa" x="316.728108" y="100.930833" style="stroke: #000000"/>
     <use xlink:href="#m41c1d3ddaa" x="164.880144" y="180.413293" style="stroke: #000000"/>
     <use xlink:href="#m41c1d3ddaa" x="330.075849" y="90.689633" style="stroke: #000000"/>
     <use xlink:href="#m41c1d3ddaa" x="107.34552" y="161.766004" style="stroke: #000000"/>
     <use xlink:href="#m41c1d3ddaa" x="219.243396" y="261.059548" style="stroke: #000000"/>
     <use xlink:href="#m41c1d3ddaa" x="368.812387" y="145.298927" style="stroke: #000000"/>
     <use xlink:href="#m41c1d3ddaa" x="169.155895" y="198.17078" style="stroke: #000000"/>
     <use xlink:href="#m41c1d3ddaa" x="167.260299" y="161.488101" style="stroke: #000000"/>
     <use xlink:href="#m41c1d3ddaa" x="116.047094" y="141.552065" style="stroke: #000000"/>
     <use xlink:href="#m41c1d3ddaa" x="80.120298" y="225.586793" style="stroke: #000000"/>
     <use xlink:href="#m41c1d3ddaa" x="294.219769" y="119.85777" style="stroke: #000000"/>
     <use xlink:href="#m41c1d3ddaa" x="142.538757" y="137.939379" style="stroke: #000000"/>
     <use xlink:href="#m41c1d3ddaa" x="160.043657" y="168.916394" style="stroke: #000000"/>
     <use xlink:href="#m41c1d3ddaa" x="233.424188" y="295.488" style="stroke: #000000"/>
     <use xlink:href="#m41c1d3ddaa" x="91.15712" y="176.316243" style="stroke: #000000"/>
     <use xlink:href="#m41c1d3ddaa" x="260.222618" y="247.623121" style="stroke: #000000"/>
     <use xlink:href="#m41c1d3ddaa" x="121.468826" y="180.971863" style="stroke: #000000"/>
     <use xlink:href="#m41c1d3ddaa" x="265.153448" y="253.102573" style="stroke: #000000"/>
     <use xlink:href="#m41c1d3ddaa" x="301.01246" y="109.62745" style="stroke: #000000"/>
     <use xlink:href="#m41c1d3ddaa" x="107.056065" y="167.450424" style="stroke: #000000"/>
     <use xlink:href="#m41c1d3ddaa" x="208.257886" y="263.674271" style="stroke: #000000"/>
     <use xlink:href="#m41c1d3ddaa" x="299.272895" y="115.5049" style="stroke: #000000"/>
     <use xlink:href="#m41c1d3ddaa" x="208.29791" y="272.419946" style="stroke: #000000"/>
     <use xlink:href="#m41c1d3ddaa" x="90.050345" y="177.877164" style="stroke: #000000"/>
     <use xlink:href="#m41c1d3ddaa" x="247.813931" y="265.763471" style="stroke: #000000"/>
     <use xlink:href="#m41c1d3ddaa" x="289.336676" y="159.904572" style="stroke: #000000"/>
     <use xlink:href="#m41c1d3ddaa" x="240.993818" y="274.718344" style="stroke: #000000"/>
     <use xlink:href="#m41c1d3ddaa" x="380.499708" y="184.082272" style="stroke: #000000"/>
     <use xlink:href="#m41c1d3ddaa" x="264.260487" y="222.385089" style="stroke: #000000"/>
     <use xlink:href="#m41c1d3ddaa" x="367.126265" y="129.04337" style="stroke: #000000"/>
     <use xlink:href="#m41c1d3ddaa" x="118.464515" y="170.459178" style="stroke: #000000"/>
     <use xlink:href="#m41c1d3ddaa" x="119.049426" y="171.08505" style="stroke: #000000"/>
     <use xlink:href="#m41c1d3ddaa" x="335.955979" y="53.568" style="stroke: #000000"/>
     <use xlink:href="#m41c1d3ddaa" x="202.94032" y="240.511078" style="stroke: #000000"/>
     <use xlink:href="#m41c1d3ddaa" x="127.515719" y="156.383581" style="stroke: #000000"/>
     <use xlink:href="#m41c1d3ddaa" x="374.952604" y="177.344282" style="stroke: #000000"/>
     <use xlink:href="#m41c1d3ddaa" x="186.736494" y="254.943825" style="stroke: #000000"/>
     <use xlink:href="#m41c1d3ddaa" x="317.587289" y="60.160786" style="stroke: #000000"/>
     <use xlink:href="#m41c1d3ddaa" x="309.531273" y="58.476444" style="stroke: #000000"/>
     <use xlink:href="#m41c1d3ddaa" x="360.602065" y="105.739207" style="stroke: #000000"/>
     <use xlink:href="#m41c1d3ddaa" x="276.310744" y="201.732789" style="stroke: #000000"/>
     <use xlink:href="#m41c1d3ddaa" x="317.629602" y="79.677905" style="stroke: #000000"/>
     <use xlink:href="#m41c1d3ddaa" x="187.10416" y="217.02055" style="stroke: #000000"/>
     <use xlink:href="#m41c1d3ddaa" x="161.466044" y="175.682615" style="stroke: #000000"/>
     <use xlink:href="#m41c1d3ddaa" x="364.68626" y="146.843921" style="stroke: #000000"/>
     <use xlink:href="#m41c1d3ddaa" x="212.814478" y="268.680154" style="stroke: #000000"/>
     <use xlink:href="#m41c1d3ddaa" x="387.072434" y="247.525347" style="stroke: #000000"/>
     <use xlink:href="#m41c1d3ddaa" x="289.222025" y="153.033543" style="stroke: #000000"/>
     <use xlink:href="#m41c1d3ddaa" x="275.669069" y="207.038266" style="stroke: #000000"/>
     <use xlink:href="#m41c1d3ddaa" x="111.085529" y="169.537882" style="stroke: #000000"/>
     <use xlink:href="#m41c1d3ddaa" x="382.088731" y="209.235674" style="stroke: #000000"/>
     <use xlink:href="#m41c1d3ddaa" x="219.898746" y="252.095963" style="stroke: #000000"/>
     <use xlink:href="#m41c1d3ddaa" x="261.609545" y="237.841502" style="stroke: #000000"/>
     <use xlink:href="#m41c1d3ddaa" x="206.336195" y="213.650333" style="stroke: #000000"/>
     <use xlink:href="#m41c1d3ddaa" x="150.784614" y="199.30307" style="stroke: #000000"/>
     <use xlink:href="#m41c1d3ddaa" x="367.118995" y="148.62493" style="stroke: #000000"/>
     <use xlink:href="#m41c1d3ddaa" x="260.08038" y="229.899241" style="stroke: #000000"/>
     <use xlink:href="#m41c1d3ddaa" x="74.764592" y="153.07085" style="stroke: #000000"/>
     <use xlink:href="#m41c1d3ddaa" x="274.191629" y="210.850852" style="stroke: #000000"/>
    </g>
   </g>
   <g id="PolyCollection_1">
    <defs>
     <path id="m44460e7166" d="M 73.832727 -163.335694 
L 73.832727 -163.286693 
L 74.157707 -162.710429 
L 74.482686 -162.162585 
L 74.807666 -161.642717 
L 75.132645 -161.150378 
L 75.457625 -160.685115 
L 75.782604 -160.246476 
L 76.107584 -159.834006 
L 76.432563 -159.447245 
L 76.757543 -159.085735 
L 77.082523 -158.74901 
L 77.407502 -158.436605 
L 77.732482 -158.148048 
L 78.057461 -157.882864 
L 78.382441 -157.640575 
L 78.70742 -157.420697 
L 79.0324 -157.222742 
L 79.357379 -157.046221 
L 79.682359 -156.890638 
L 80.007338 -156.755498 
L 80.332318 -156.640301 
L 80.657297 -156.544547 
L 80.982277 -156.467733 
L 81.307256 -156.409357 
L 81.632236 -156.368915 
L 81.957215 -156.345902 
L 82.282195 -156.339816 
L 82.607174 -156.350152 
L 82.932154 -156.37641 
L 83.257133 -156.418088 
L 83.582113 -156.474686 
L 83.907093 -156.545706 
L 84.232072 -156.630653 
L 84.557052 -156.729034 
L 84.882031 -156.840359 
L 85.207011 -156.964138 
L 85.53199 -157.099889 
L 85.85697 -157.24713 
L 86.181949 -157.405384 
L 86.506929 -157.574177 
L 86.831908 -157.753042 
L 87.156888 -157.941513 
L 87.481867 -158.139131 
L 87.806847 -158.345441 
L 88.131826 -158.559992 
L 88.456806 -158.782342 
L 88.781785 -159.012051 
L 89.106765 -159.248686 
L 89.431744 -159.49182 
L 89.756724 -159.741032 
L 90.081704 -159.995908 
L 90.406683 -160.25604 
L 90.731663 -160.521026 
L 91.056642 -160.790471 
L 91.381622 -161.063989 
L 91.706601 -161.341199 
L 92.031581 -161.621728 
L 92.35656 -161.90521 
L 92.68154 -162.191287 
L 93.006519 -162.479608 
L 93.331499 -162.769832 
L 93.656478 -163.061624 
L 93.981458 -163.354657 
L 94.306437 -163.648613 
L 94.631417 -163.943181 
L 94.956396 -164.238061 
L 95.281376 -164.532958 
L 95.606355 -164.827589 
L 95.931335 -165.121676 
L 96.256314 -165.414954 
L 96.581294 -165.707162 
L 96.906274 -165.998052 
L 97.231253 -166.287382 
L 97.556233 -166.574919 
L 97.881212 -166.860441 
L 98.206192 -167.143733 
L 98.531171 -167.42459 
L 98.856151 -167.702816 
L 99.18113 -167.978222 
L 99.50611 -168.25063 
L 99.831089 -168.51987 
L 100.156069 -168.785782 
L 100.481048 -169.048214 
L 100.806028 -169.307022 
L 101.131007 -169.562072 
L 101.455987 -169.813239 
L 101.780966 -170.060405 
L 102.105946 -170.303463 
L 102.430925 -170.542312 
L 102.755905 -170.776861 
L 103.080885 -171.007027 
L 103.405864 -171.232735 
L 103.730844 -171.453919 
L 104.055823 -171.67052 
L 104.380803 -171.882487 
L 104.705782 -172.089778 
L 105.030762 -172.292357 
L 105.355741 -172.490196 
L 105.680721 -172.683277 
L 106.0057 -172.871585 
L 106.33068 -173.055115 
L 106.655659 -173.233867 
L 106.980639 -173.407851 
L 107.305618 -173.57708 
L 107.630598 -173.741575 
L 107.955577 -173.901363 
L 108.280557 -174.056479 
L 108.605536 -174.20696 
L 108.930516 -174.352853 
L 109.255495 -174.494206 
L 109.580475 -174.631078 
L 109.905455 -174.763527 
L 110.230434 -174.89162 
L 110.555414 -175.015427 
L 110.880393 -175.135023 
L 111.205373 -175.250488 
L 111.530352 -175.361905 
L 111.855332 -175.46936 
L 112.180311 -175.572944 
L 112.505291 -175.672752 
L 112.83027 -175.76888 
L 113.15525 -175.861429 
L 113.480229 -175.950501 
L 113.805209 -176.036201 
L 114.130188 -176.118637 
L 114.455168 -176.197919 
L 114.780147 -176.274156 
L 115.105127 -176.347463 
L 115.430106 -176.417953 
L 115.755086 -176.48574 
L 116.080066 -176.550941 
L 116.405045 -176.613673 
L 116.730025 -176.674051 
L 117.055004 -176.732193 
L 117.379984 -176.788216 
L 117.704963 -176.842237 
L 118.029943 -176.894371 
L 118.354922 -176.944733 
L 118.679902 -176.993439 
L 119.004881 -177.040602 
L 119.329861 -177.086333 
L 119.65484 -177.130743 
L 119.97982 -177.17394 
L 120.304799 -177.216032 
L 120.629779 -177.257123 
L 120.954758 -177.297315 
L 121.279738 -177.336707 
L 121.604717 -177.375398 
L 121.929697 -177.413482 
L 122.254676 -177.451049 
L 122.579656 -177.488188 
L 122.904636 -177.524984 
L 123.229615 -177.561518 
L 123.554595 -177.597869 
L 123.879574 -177.634109 
L 124.204554 -177.67031 
L 124.529533 -177.706538 
L 124.854513 -177.742855 
L 125.179492 -177.779318 
L 125.504472 -177.815982 
L 125.829451 -177.852896 
L 126.154431 -177.890104 
L 126.47941 -177.927646 
L 126.80439 -177.965559 
L 127.129369 -178.003872 
L 127.454349 -178.042611 
L 127.779328 -178.081799 
L 128.104308 -178.12145 
L 128.429287 -178.161576 
L 128.754267 -178.202183 
L 129.079247 -178.243273 
L 129.404226 -178.284841 
L 129.729206 -178.326879 
L 130.054185 -178.369373 
L 130.379165 -178.412304 
L 130.704144 -178.455647 
L 131.029124 -178.499373 
L 131.354103 -178.54345 
L 131.679083 -178.587836 
L 132.004062 -178.632489 
L 132.329042 -178.677359 
L 132.654021 -178.722393 
L 132.979001 -178.767532 
L 133.30398 -178.812712 
L 133.62896 -178.857866 
L 133.953939 -178.90292 
L 134.278919 -178.947798 
L 134.603898 -178.992418 
L 134.928878 -179.036694 
L 135.253857 -179.080535 
L 135.578837 -179.123848 
L 135.903817 -179.166533 
L 136.228796 -179.208489 
L 136.553776 -179.24961 
L 136.878755 -179.289785 
L 137.203735 -179.328902 
L 137.528714 -179.366842 
L 137.853694 -179.403488 
L 138.178673 -179.438715 
L 138.503653 -179.472397 
L 138.828632 -179.504406 
L 139.153612 -179.534609 
L 139.478591 -179.562873 
L 139.803571 -179.589062 
L 140.12855 -179.613037 
L 140.45353 -179.634656 
L 140.778509 -179.653779 
L 141.103489 -179.67026 
L 141.428468 -179.683955 
L 141.753448 -179.694716 
L 142.078428 -179.702396 
L 142.403407 -179.706846 
L 142.728387 -179.707916 
L 143.053366 -179.705457 
L 143.378346 -179.699317 
L 143.703325 -179.689346 
L 144.028305 -179.675394 
L 144.353284 -179.65731 
L 144.678264 -179.634945 
L 145.003243 -179.608148 
L 145.328223 -179.576771 
L 145.653202 -179.540666 
L 145.978182 -179.499688 
L 146.303161 -179.45369 
L 146.628141 -179.402528 
L 146.95312 -179.346062 
L 147.2781 -179.28415 
L 147.603079 -179.216655 
L 147.928059 -179.14344 
L 148.253038 -179.064373 
L 148.578018 -178.979322 
L 148.902998 -178.888159 
L 149.227977 -178.790759 
L 149.552957 -178.687 
L 149.877936 -178.576763 
L 150.202916 -178.459931 
L 150.527895 -178.336393 
L 150.852875 -178.206041 
L 151.177854 -178.06877 
L 151.502834 -177.924479 
L 151.827813 -177.773071 
L 152.152793 -177.614455 
L 152.477772 -177.448541 
L 152.802752 -177.275247 
L 153.127731 -177.094492 
L 153.452711 -176.906204 
L 153.77769 -176.710311 
L 154.10267 -176.506749 
L 154.427649 -176.295459 
L 154.752629 -176.076384 
L 155.077609 -175.849476 
L 155.402588 -175.614689 
L 155.727568 -175.371984 
L 156.052547 -175.121327 
L 156.377527 -174.862689 
L 156.702506 -174.596046 
L 157.027486 -174.321381 
L 157.352465 -174.038681 
L 157.677445 -173.747938 
L 158.002424 -173.449151 
L 158.327404 -173.142324 
L 158.652383 -172.827467 
L 158.977363 -172.504593 
L 159.302342 -172.173724 
L 159.627322 -171.834886 
L 159.952301 -171.48811 
L 160.277281 -171.133432 
L 160.60226 -170.770895 
L 160.92724 -170.400547 
L 161.252219 -170.02244 
L 161.577199 -169.636634 
L 161.902179 -169.243191 
L 162.227158 -168.842179 
L 162.552138 -168.433674 
L 162.877117 -168.017753 
L 163.202097 -167.5945 
L 163.527076 -167.164005 
L 163.852056 -166.726359 
L 164.177035 -166.281662 
L 164.502015 -165.830016 
L 164.826994 -165.371528 
L 165.151974 -164.90631 
L 165.476953 -164.434476 
L 165.801933 -163.956148 
L 166.126912 -163.471448 
L 166.451892 -162.980504 
L 166.776871 -162.483448 
L 167.101851 -161.980415 
L 167.42683 -161.471543 
L 167.75181 -160.956973 
L 168.07679 -160.436851 
L 168.401769 -159.911324 
L 168.726749 -159.380544 
L 169.051728 -158.844663 
L 169.376708 -158.303837 
L 169.701687 -157.758225 
L 170.026667 -157.207988 
L 170.351646 -156.653287 
L 170.676626 -156.094288 
L 171.001605 -155.531156 
L 171.326585 -154.964059 
L 171.651564 -154.393166 
L 171.976544 -153.818648 
L 172.301523 -153.240675 
L 172.626503 -152.65942 
L 172.951482 -152.075055 
L 173.276462 -151.487753 
L 173.601441 -150.897689 
L 173.926421 -150.305035 
L 174.2514 -149.709966 
L 174.57638 -149.112654 
L 174.90136 -148.513274 
L 175.226339 -147.911997 
L 175.551319 -147.308995 
L 175.876298 -146.704439 
L 176.201278 -146.098499 
L 176.526257 -145.491344 
L 176.851237 -144.883141 
L 177.176216 -144.274056 
L 177.501196 -143.664253 
L 177.826175 -143.053894 
L 178.151155 -142.44314 
L 178.476134 -141.832148 
L 178.801114 -141.221075 
L 179.126093 -140.610074 
L 179.451073 -139.999296 
L 179.776052 -139.388889 
L 180.101032 -138.779 
L 180.426011 -138.16977 
L 180.750991 -137.561339 
L 181.075971 -136.953843 
L 181.40095 -136.347416 
L 181.72593 -135.742187 
L 182.050909 -135.138283 
L 182.375889 -134.535826 
L 182.700868 -133.934937 
L 183.025848 -133.335729 
L 183.350827 -132.738315 
L 183.675807 -132.142802 
L 184.000786 -131.549295 
L 184.325766 -130.957893 
L 184.650745 -130.368693 
L 184.975725 -129.781785 
L 185.300704 -129.197257 
L 185.625684 -128.615193 
L 185.950663 -128.035672 
L 186.275643 -127.458769 
L 186.600622 -126.884555 
L 186.925602 -126.313096 
L 187.250581 -125.744454 
L 187.575561 -125.178687 
L 187.900541 -124.615849 
L 188.22552 -124.055989 
L 188.5505 -123.499152 
L 188.875479 -122.945379 
L 189.200459 -122.394707 
L 189.525438 -121.847169 
L 189.850418 -121.302792 
L 190.175397 -120.7616 
L 190.500377 -120.223616 
L 190.825356 -119.688853 
L 191.150336 -119.157326 
L 191.475315 -118.629041 
L 191.800295 -118.104005 
L 192.125274 -117.582218 
L 192.450254 -117.063676 
L 192.775233 -116.548375 
L 193.100213 -116.036305 
L 193.425192 -115.527451 
L 193.750172 -115.021799 
L 194.075152 -114.519328 
L 194.400131 -114.020016 
L 194.725111 -113.523837 
L 195.05009 -113.030763 
L 195.37507 -112.540764 
L 195.700049 -112.053804 
L 196.025029 -111.569848 
L 196.350008 -111.088858 
L 196.674988 -110.610792 
L 196.999967 -110.135608 
L 197.324947 -109.663261 
L 197.649926 -109.193704 
L 197.974906 -108.726889 
L 198.299885 -108.262766 
L 198.624865 -107.801284 
L 198.949844 -107.34239 
L 199.274824 -106.88603 
L 199.599803 -106.43215 
L 199.924783 -105.980694 
L 200.249762 -105.531607 
L 200.574742 -105.08483 
L 200.899722 -104.640309 
L 201.224701 -104.197984 
L 201.549681 -103.757799 
L 201.87466 -103.319697 
L 202.19964 -102.883621 
L 202.524619 -102.449513 
L 202.849599 -102.017318 
L 203.174578 -101.586981 
L 203.499558 -101.158446 
L 203.824537 -100.731661 
L 204.149517 -100.306572 
L 204.474496 -99.883128 
L 204.799476 -99.461279 
L 205.124455 -99.040977 
L 205.449435 -98.622176 
L 205.774414 -98.20483 
L 206.099394 -97.788896 
L 206.424373 -97.374334 
L 206.749353 -96.961105 
L 207.074333 -96.549172 
L 207.399312 -96.138502 
L 207.724292 -95.729063 
L 208.049271 -95.320827 
L 208.374251 -94.913767 
L 208.69923 -94.507861 
L 209.02421 -94.103089 
L 209.349189 -93.699434 
L 209.674169 -93.296882 
L 209.999148 -92.895422 
L 210.324128 -92.495049 
L 210.649107 -92.095757 
L 210.974087 -91.697548 
L 211.299066 -91.300424 
L 211.624046 -90.904392 
L 211.949025 -90.509464 
L 212.274005 -90.115653 
L 212.598984 -89.722979 
L 212.923964 -89.331463 
L 213.248943 -88.941131 
L 213.573923 -88.552013 
L 213.898903 -88.164144 
L 214.223882 -87.77756 
L 214.548862 -87.392303 
L 214.873841 -87.008419 
L 215.198821 -86.625959 
L 215.5238 -86.244974 
L 215.84878 -85.865524 
L 216.173759 -85.487669 
L 216.498739 -85.111474 
L 216.823718 -84.737011 
L 217.148698 -84.364351 
L 217.473677 -83.993572 
L 217.798657 -83.624756 
L 218.123636 -83.257986 
L 218.448616 -82.893352 
L 218.773595 -82.530946 
L 219.098575 -82.170864 
L 219.423554 -81.813207 
L 219.748534 -81.458076 
L 220.073514 -81.105579 
L 220.398493 -80.755825 
L 220.723473 -80.40893 
L 221.048452 -80.065009 
L 221.373432 -79.724182 
L 221.698411 -79.386572 
L 222.023391 -79.052306 
L 222.34837 -78.721513 
L 222.67335 -78.394324 
L 222.998329 -78.070875 
L 223.323309 -77.751302 
L 223.648288 -77.435745 
L 223.973268 -77.124346 
L 224.298247 -76.817251 
L 224.623227 -76.514605 
L 224.948206 -76.216557 
L 225.273186 -75.923259 
L 225.598165 -75.634862 
L 225.923145 -75.351521 
L 226.248124 -75.073392 
L 226.573104 -74.800632 
L 226.898084 -74.533399 
L 227.223063 -74.271854 
L 227.548043 -74.016157 
L 227.873022 -73.76647 
L 228.198002 -73.522955 
L 228.522981 -73.285775 
L 228.847961 -73.055095 
L 229.17294 -72.831077 
L 229.49792 -72.613887 
L 229.822899 -72.403689 
L 230.147879 -72.200647 
L 230.472858 -72.004924 
L 230.797838 -71.816685 
L 231.122817 -71.636093 
L 231.447797 -71.46331 
L 231.772776 -71.298499 
L 232.097756 -71.14182 
L 232.422735 -70.993434 
L 232.747715 -70.853498 
L 233.072695 -70.722171 
L 233.397674 -70.599608 
L 233.722654 -70.485964 
L 234.047633 -70.381392 
L 234.372613 -70.286043 
L 234.697592 -70.200066 
L 235.022572 -70.123607 
L 235.347551 -70.056812 
L 235.672531 -69.999823 
L 235.99751 -69.952779 
L 236.32249 -69.915819 
L 236.647469 -69.889076 
L 236.972449 -69.872684 
L 237.297428 -69.86677 
L 237.622408 -69.871462 
L 237.947387 -69.886882 
L 238.272367 -69.91315 
L 238.597346 -69.950382 
L 238.922326 -69.998693 
L 239.247305 -70.05819 
L 239.572285 -70.128982 
L 239.897265 -70.211169 
L 240.222244 -70.304851 
L 240.547224 -70.410123 
L 240.872203 -70.527076 
L 241.197183 -70.655797 
L 241.522162 -70.79637 
L 241.847142 -70.948873 
L 242.172121 -71.113382 
L 242.497101 -71.289968 
L 242.82208 -71.478697 
L 243.14706 -71.679631 
L 243.472039 -71.892829 
L 243.797019 -72.118345 
L 244.121998 -72.356227 
L 244.446978 -72.606521 
L 244.771957 -72.869268 
L 245.096937 -73.144503 
L 245.421916 -73.432258 
L 245.746896 -73.732561 
L 246.071876 -74.045433 
L 246.396855 -74.370893 
L 246.721835 -74.708954 
L 247.046814 -75.059626 
L 247.371794 -75.422913 
L 247.696773 -75.798815 
L 248.021753 -76.187328 
L 248.346732 -76.588443 
L 248.671712 -77.002145 
L 248.996691 -77.428419 
L 249.321671 -77.86724 
L 249.64665 -78.318583 
L 249.97163 -78.782417 
L 250.296609 -79.258705 
L 250.621589 -79.747409 
L 250.946568 -80.248485 
L 251.271548 -80.761883 
L 251.596527 -81.287553 
L 251.921507 -81.825438 
L 252.246486 -82.375476 
L 252.571466 -82.937605 
L 252.896446 -83.511754 
L 253.221425 -84.097852 
L 253.546405 -84.695823 
L 253.871384 -85.305586 
L 254.196364 -85.927057 
L 254.521343 -86.560151 
L 254.846323 -87.204774 
L 255.171302 -87.860833 
L 255.496282 -88.528231 
L 255.821261 -89.206865 
L 256.146241 -89.896631 
L 256.47122 -90.597422 
L 256.7962 -91.309126 
L 257.121179 -92.031629 
L 257.446159 -92.764815 
L 257.771138 -93.508564 
L 258.096118 -94.262752 
L 258.421097 -95.027255 
L 258.746077 -95.801944 
L 259.071057 -96.58669 
L 259.396036 -97.381358 
L 259.721016 -98.185814 
L 260.045995 -98.999919 
L 260.370975 -99.823534 
L 260.695954 -100.656517 
L 261.020934 -101.498723 
L 261.345913 -102.350007 
L 261.670893 -103.21022 
L 261.995872 -104.079213 
L 262.320852 -104.956834 
L 262.645831 -105.842931 
L 262.970811 -106.737349 
L 263.29579 -107.639932 
L 263.62077 -108.550523 
L 263.945749 -109.468963 
L 264.270729 -110.395093 
L 264.595708 -111.328751 
L 264.920688 -112.269777 
L 265.245667 -113.218007 
L 265.570647 -114.173278 
L 265.895627 -115.135425 
L 266.220606 -116.104285 
L 266.545586 -117.07969 
L 266.870565 -118.061476 
L 267.195545 -119.049475 
L 267.520524 -120.04352 
L 267.845504 -121.043446 
L 268.170483 -122.049084 
L 268.495463 -123.060267 
L 268.820442 -124.076826 
L 269.145422 -125.098596 
L 269.470401 -126.125408 
L 269.795381 -127.157095 
L 270.12036 -128.193489 
L 270.44534 -129.234425 
L 270.770319 -130.279734 
L 271.095299 -131.329252 
L 271.420278 -132.382812 
L 271.745258 -133.44025 
L 272.070238 -134.5014 
L 272.395217 -135.566099 
L 272.720197 -136.634183 
L 273.045176 -137.70549 
L 273.370156 -138.779858 
L 273.695135 -139.857126 
L 274.020115 -140.937134 
L 274.345094 -142.019723 
L 274.670074 -143.104734 
L 274.995053 -144.192011 
L 275.320033 -145.281397 
L 275.645012 -146.372738 
L 275.969992 -147.465879 
L 276.294971 -148.560667 
L 276.619951 -149.656952 
L 276.94493 -150.754583 
L 277.26991 -151.853411 
L 277.594889 -152.953288 
L 277.919869 -154.054069 
L 278.244848 -155.155608 
L 278.569828 -156.257761 
L 278.894808 -157.360387 
L 279.219787 -158.463345 
L 279.544767 -159.566496 
L 279.869746 -160.669702 
L 280.194726 -161.772827 
L 280.519705 -162.875736 
L 280.844685 -163.978297 
L 281.169664 -165.080377 
L 281.494644 -166.181847 
L 281.819623 -167.282579 
L 282.144603 -168.382445 
L 282.469582 -169.481322 
L 282.794562 -170.579085 
L 283.119541 -171.675612 
L 283.444521 -172.770784 
L 283.7695 -173.864482 
L 284.09448 -174.95659 
L 284.419459 -176.046992 
L 284.744439 -177.135574 
L 285.069419 -178.222226 
L 285.394398 -179.306838 
L 285.719378 -180.3893 
L 286.044357 -181.469506 
L 286.369337 -182.547352 
L 286.694316 -183.622733 
L 287.019296 -184.69555 
L 287.344275 -185.765701 
L 287.669255 -186.833088 
L 287.994234 -187.897616 
L 288.319214 -188.959188 
L 288.644193 -190.017713 
L 288.969173 -191.073099 
L 289.294152 -192.125255 
L 289.619132 -193.174094 
L 289.944111 -194.219528 
L 290.269091 -195.261474 
L 290.59407 -196.299848 
L 290.91905 -197.334568 
L 291.244029 -198.365554 
L 291.569009 -199.392727 
L 291.893989 -200.416011 
L 292.218968 -201.435329 
L 292.543948 -202.450609 
L 292.868927 -203.461778 
L 293.193907 -204.468764 
L 293.518886 -205.471499 
L 293.843866 -206.469914 
L 294.168845 -207.463943 
L 294.493825 -208.453521 
L 294.818804 -209.438584 
L 295.143784 -210.41907 
L 295.468763 -211.394918 
L 295.793743 -212.366068 
L 296.118722 -213.332462 
L 296.443702 -214.294043 
L 296.768681 -215.250755 
L 297.093661 -216.202543 
L 297.41864 -217.149354 
L 297.74362 -218.091137 
L 298.0686 -219.027839 
L 298.393579 -219.959411 
L 298.718559 -220.885804 
L 299.043538 -221.80697 
L 299.368518 -222.722862 
L 299.693497 -223.633435 
L 300.018477 -224.538644 
L 300.343456 -225.438444 
L 300.668436 -226.332792 
L 300.993415 -227.221647 
L 301.318395 -228.104966 
L 301.643374 -228.982709 
L 301.968354 -229.854836 
L 302.293333 -230.721308 
L 302.618313 -231.582085 
L 302.943292 -232.437129 
L 303.268272 -233.286404 
L 303.593251 -234.129872 
L 303.918231 -234.967496 
L 304.24321 -235.79924 
L 304.56819 -236.625068 
L 304.89317 -237.444945 
L 305.218149 -238.258836 
L 305.543129 -239.066705 
L 305.868108 -239.868518 
L 306.193088 -240.66424 
L 306.518067 -241.453837 
L 306.843047 -242.237273 
L 307.168026 -243.014516 
L 307.493006 -243.785529 
L 307.817985 -244.550278 
L 308.142965 -245.308729 
L 308.467944 -246.060847 
L 308.792924 -246.806595 
L 309.117903 -247.54594 
L 309.442883 -248.278844 
L 309.767862 -249.005271 
L 310.092842 -249.725186 
L 310.417821 -250.43855 
L 310.742801 -251.145325 
L 311.067781 -251.845475 
L 311.39276 -252.538958 
L 311.71774 -253.225736 
L 312.042719 -253.905768 
L 312.367699 -254.579014 
L 312.692678 -255.24543 
L 313.017658 -255.904974 
L 313.342637 -256.557603 
L 313.667617 -257.20327 
L 313.992596 -257.841931 
L 314.317576 -258.473538 
L 314.642555 -259.098044 
L 314.967535 -259.715399 
L 315.292514 -260.325552 
L 315.617494 -260.928453 
L 315.942473 -261.524048 
L 316.267453 -262.112282 
L 316.592432 -262.693102 
L 316.917412 -263.266448 
L 317.242391 -263.832263 
L 317.567371 -264.390487 
L 317.892351 -264.941059 
L 318.21733 -265.483916 
L 318.54231 -266.018993 
L 318.867289 -266.546225 
L 319.192269 -267.065543 
L 319.517248 -267.576879 
L 319.842228 -268.080161 
L 320.167207 -268.575316 
L 320.492187 -269.062272 
L 320.817166 -269.540951 
L 321.142146 -270.011276 
L 321.467125 -270.473168 
L 321.792105 -270.926544 
L 322.117084 -271.371323 
L 322.442064 -271.80742 
L 322.767043 -272.234748 
L 323.092023 -272.653218 
L 323.417002 -273.062742 
L 323.741982 -273.463227 
L 324.066962 -273.854579 
L 324.391941 -274.236704 
L 324.716921 -274.609505 
L 325.0419 -274.972882 
L 325.36688 -275.326737 
L 325.691859 -275.670966 
L 326.016839 -276.005466 
L 326.341818 -276.330132 
L 326.666798 -276.644857 
L 326.991777 -276.949533 
L 327.316757 -277.244049 
L 327.641736 -277.528295 
L 327.966716 -277.802158 
L 328.291695 -278.065524 
L 328.616675 -278.318276 
L 328.941654 -278.560299 
L 329.266634 -278.791475 
L 329.591613 -279.011684 
L 329.916593 -279.220805 
L 330.241572 -279.418718 
L 330.566552 -279.605301 
L 330.891532 -279.78043 
L 331.216511 -279.94398 
L 331.541491 -280.095828 
L 331.86647 -280.235848 
L 332.19145 -280.363913 
L 332.516429 -280.479897 
L 332.841409 -280.583673 
L 333.166388 -280.675113 
L 333.491368 -280.75409 
L 333.816347 -280.820476 
L 334.141327 -280.874142 
L 334.466306 -280.914962 
L 334.791286 -280.942806 
L 335.116265 -280.957549 
L 335.441245 -280.959061 
L 335.766224 -280.947218 
L 336.091204 -280.921892 
L 336.416183 -280.882958 
L 336.741163 -280.830291 
L 337.066143 -280.763767 
L 337.391122 -280.683265 
L 337.716102 -280.588661 
L 338.041081 -280.479836 
L 338.366061 -280.35667 
L 338.69104 -280.219046 
L 339.01602 -280.066849 
L 339.340999 -279.899963 
L 339.665979 -279.718277 
L 339.990958 -279.521681 
L 340.315938 -279.310066 
L 340.640917 -279.083326 
L 340.965897 -278.841359 
L 341.290876 -278.584062 
L 341.615856 -278.311339 
L 341.940835 -278.023092 
L 342.265815 -277.719231 
L 342.590794 -277.399664 
L 342.915774 -277.064306 
L 343.240753 -276.713074 
L 343.565733 -276.345888 
L 343.890713 -275.962671 
L 344.215692 -275.563352 
L 344.540672 -275.147862 
L 344.865651 -274.716135 
L 345.190631 -274.268111 
L 345.51561 -273.803734 
L 345.84059 -273.32295 
L 346.165569 -272.825713 
L 346.490549 -272.311979 
L 346.815528 -271.781708 
L 347.140508 -271.234867 
L 347.465487 -270.671427 
L 347.790467 -270.091362 
L 348.115446 -269.494653 
L 348.440426 -268.881287 
L 348.765405 -268.251253 
L 349.090385 -267.604548 
L 349.415364 -266.941174 
L 349.740344 -266.261138 
L 350.065324 -265.564451 
L 350.390303 -264.851133 
L 350.715283 -264.121206 
L 351.040262 -263.3747 
L 351.365242 -262.611651 
L 351.690221 -261.832099 
L 352.015201 -261.036092 
L 352.34018 -260.223681 
L 352.66516 -259.394927 
L 352.990139 -258.549894 
L 353.315119 -257.688652 
L 353.640098 -256.811279 
L 353.965078 -255.917858 
L 354.290057 -255.008477 
L 354.615037 -254.083232 
L 354.940016 -253.142224 
L 355.264996 -252.18556 
L 355.589975 -251.213354 
L 355.914955 -250.225725 
L 356.239934 -249.222799 
L 356.564914 -248.204706 
L 356.889894 -247.171585 
L 357.214873 -246.123578 
L 357.539853 -245.060835 
L 357.864832 -243.983511 
L 358.189812 -242.891767 
L 358.514791 -241.785769 
L 358.839771 -240.665688 
L 359.16475 -239.531704 
L 359.48973 -238.383999 
L 359.814709 -237.222761 
L 360.139689 -236.048185 
L 360.464668 -234.860469 
L 360.789648 -233.659817 
L 361.114627 -232.446439 
L 361.439607 -231.220549 
L 361.764586 -229.982365 
L 362.089566 -228.73211 
L 362.414545 -227.470013 
L 362.739525 -226.196306 
L 363.064505 -224.911224 
L 363.389484 -223.615008 
L 363.714464 -222.307903 
L 364.039443 -220.990156 
L 364.364423 -219.662018 
L 364.689402 -218.323745 
L 365.014382 -216.975593 
L 365.339361 -215.617823 
L 365.664341 -214.250699 
L 365.98932 -212.874486 
L 366.3143 -211.489452 
L 366.639279 -210.095867 
L 366.964259 -208.694002 
L 367.289238 -207.284131 
L 367.614218 -205.866528 
L 367.939197 -204.441468 
L 368.264177 -203.009228 
L 368.589156 -201.570084 
L 368.914136 -200.124313 
L 369.239115 -198.672193 
L 369.564095 -197.214 
L 369.889075 -195.75001 
L 370.214054 -194.280499 
L 370.539034 -192.805741 
L 370.864013 -191.326009 
L 371.188993 -189.841574 
L 371.513972 -188.352707 
L 371.838952 -186.859675 
L 372.163931 -185.362742 
L 372.488911 -183.862172 
L 372.81389 -182.358224 
L 373.13887 -180.851154 
L 373.463849 -179.341214 
L 373.788829 -177.828654 
L 374.113808 -176.313719 
L 374.438788 -174.796648 
L 374.763767 -173.277678 
L 375.088747 -171.757041 
L 375.413726 -170.23496 
L 375.738706 -168.711658 
L 376.063686 -167.187349 
L 376.388665 -165.662242 
L 376.713645 -164.136538 
L 377.038624 -162.610435 
L 377.363604 -161.08412 
L 377.688583 -159.557778 
L 378.013563 -158.031582 
L 378.338542 -156.505699 
L 378.663522 -154.980291 
L 378.988501 -153.455509 
L 379.313481 -151.931496 
L 379.63846 -150.408387 
L 379.96344 -148.886309 
L 380.288419 -147.365381 
L 380.613399 -145.845709 
L 380.938378 -144.327395 
L 381.263358 -142.810528 
L 381.588337 -141.295188 
L 381.913317 -139.781445 
L 382.238296 -138.269361 
L 382.563276 -136.758985 
L 382.888256 -135.250358 
L 383.213235 -133.743509 
L 383.538215 -132.238456 
L 383.863194 -130.735208 
L 384.188174 -129.233761 
L 384.513153 -127.734102 
L 384.838133 -126.236204 
L 385.163112 -124.740031 
L 385.488092 -123.245534 
L 385.813071 -121.752652 
L 386.138051 -120.261315 
L 386.46303 -118.771438 
L 386.78801 -117.282925 
L 387.112989 -115.795667 
L 387.437969 -114.309544 
L 387.762948 -112.824423 
L 388.087928 -111.340159 
L 388.412907 -109.856593 
L 388.737887 -108.373555 
L 389.062867 -106.890862 
L 389.387846 -105.408317 
L 389.712826 -103.92571 
L 390.037805 -102.442821 
L 390.362785 -100.959414 
L 390.687764 -99.475241 
L 391.012744 -97.990043 
L 391.337723 -96.503547 
L 391.662703 -95.015469 
L 391.987682 -93.525511 
L 392.312662 -92.033366 
L 392.637641 -90.538713 
L 392.962621 -89.041222 
L 393.2876 -87.540553 
L 393.61258 -86.036352 
L 393.937559 -84.528259 
L 394.262539 -83.015902 
L 394.587518 -81.498898 
L 394.912498 -79.976856 
L 395.237477 -78.449375 
L 395.562457 -76.916045 
L 395.887437 -75.376447 
L 396.212416 -73.83015 
L 396.537396 -72.276718 
L 396.862375 -70.715703 
L 397.187355 -69.146651 
L 397.512334 -67.569098 
L 397.837314 -65.982572 
L 398.162293 -64.386595 
L 398.487273 -62.780678 
L 398.487273 -62.910446 
L 398.487273 -62.910446 
L 398.162293 -64.508165 
L 397.837314 -66.096412 
L 397.512334 -67.67566 
L 397.187355 -69.246376 
L 396.862375 -70.80902 
L 396.537396 -72.364044 
L 396.212416 -73.911893 
L 395.887437 -75.453 
L 395.562457 -76.987793 
L 395.237477 -78.516689 
L 394.912498 -80.040094 
L 394.587518 -81.558409 
L 394.262539 -83.072019 
L 393.937559 -84.581304 
L 393.61258 -86.086628 
L 393.2876 -87.588349 
L 392.962621 -89.086811 
L 392.637641 -90.582348 
L 392.312662 -92.07528 
L 391.987682 -93.56592 
L 391.662703 -95.054565 
L 391.337723 -96.541504 
L 391.012744 -98.027013 
L 390.687764 -99.511358 
L 390.362785 -100.994792 
L 390.037805 -102.477558 
L 389.712826 -103.959889 
L 389.387846 -105.442005 
L 389.062867 -106.924117 
L 388.737887 -108.406422 
L 388.412907 -109.889109 
L 388.087928 -111.372354 
L 387.762948 -112.856321 
L 387.437969 -114.341163 
L 387.112989 -115.827023 
L 386.78801 -117.314031 
L 386.46303 -118.802306 
L 386.138051 -120.291954 
L 385.813071 -121.783071 
L 385.488092 -123.27574 
L 385.163112 -124.770035 
L 384.838133 -126.266014 
L 384.513153 -127.763727 
L 384.188174 -129.263213 
L 383.863194 -130.764495 
L 383.538215 -132.267591 
L 383.213235 -133.772502 
L 382.888256 -135.279221 
L 382.563276 -136.78773 
L 382.238296 -138.298 
L 381.913317 -139.809989 
L 381.588337 -141.323649 
L 381.263358 -142.838916 
L 380.938378 -144.355722 
L 380.613399 -145.873984 
L 380.288419 -147.393611 
L 379.96344 -148.914504 
L 379.63846 -150.436552 
L 379.313481 -151.959636 
L 378.988501 -153.483628 
L 378.663522 -155.008393 
L 378.338542 -156.533784 
L 378.013563 -158.05965 
L 377.688583 -159.585828 
L 377.363604 -161.11215 
L 377.038624 -162.63844 
L 376.713645 -164.164514 
L 376.388665 -165.690181 
L 376.063686 -167.215246 
L 375.738706 -168.739504 
L 375.413726 -170.262746 
L 375.088747 -171.784757 
L 374.763767 -173.305315 
L 374.438788 -174.824194 
L 374.113808 -176.341163 
L 373.788829 -177.855986 
L 373.463849 -179.368422 
L 373.13887 -180.878226 
L 372.81389 -182.38515 
L 372.488911 -183.88894 
L 372.163931 -185.389341 
L 371.838952 -186.886095 
L 371.513972 -188.378939 
L 371.188993 -189.867608 
L 370.864013 -191.351837 
L 370.539034 -192.831357 
L 370.214054 -194.305896 
L 369.889075 -195.775184 
L 369.564095 -197.238946 
L 369.239115 -198.69691 
L 368.914136 -200.148799 
L 368.589156 -201.59434 
L 368.264177 -203.033255 
L 367.939197 -204.465271 
L 367.614218 -205.890112 
L 367.289238 -207.307503 
L 366.964259 -208.717172 
L 366.639279 -210.118844 
L 366.3143 -211.51225 
L 365.98932 -212.897118 
L 365.664341 -214.273181 
L 365.339361 -215.640173 
L 365.014382 -216.997829 
L 364.689402 -218.345887 
L 364.364423 -219.684089 
L 364.039443 -221.012177 
L 363.714464 -222.329898 
L 363.389484 -223.637001 
L 363.064505 -224.933239 
L 362.739525 -226.218368 
L 362.414545 -227.492148 
L 362.089566 -228.754342 
L 361.764586 -230.004719 
L 361.439607 -231.243048 
L 361.114627 -232.469107 
L 360.789648 -233.682676 
L 360.464668 -234.88354 
L 360.139689 -236.071489 
L 359.814709 -237.246316 
L 359.48973 -238.407823 
L 359.16475 -239.555813 
L 358.839771 -240.690096 
L 358.514791 -241.810488 
L 358.189812 -242.91681 
L 357.864832 -244.008888 
L 357.539853 -245.086553 
L 357.214873 -246.149645 
L 356.889894 -247.198005 
L 356.564914 -248.231485 
L 356.239934 -249.249938 
L 355.914955 -250.253226 
L 355.589975 -251.241217 
L 355.264996 -252.213783 
L 354.940016 -253.170805 
L 354.615037 -254.112168 
L 354.290057 -255.037763 
L 353.965078 -255.947488 
L 353.640098 -256.841248 
L 353.315119 -257.718952 
L 352.990139 -258.580516 
L 352.66516 -259.425864 
L 352.34018 -260.254923 
L 352.015201 -261.067628 
L 351.690221 -261.86392 
L 351.365242 -262.643746 
L 351.040262 -263.407057 
L 350.715283 -264.153812 
L 350.390303 -264.883977 
L 350.065324 -265.597521 
L 349.740344 -266.29442 
L 349.415364 -266.974655 
L 349.090385 -267.638215 
L 348.765405 -268.285093 
L 348.440426 -268.915286 
L 348.115446 -269.528798 
L 347.790467 -270.125639 
L 347.465487 -270.705823 
L 347.140508 -271.269369 
L 346.815528 -271.816302 
L 346.490549 -272.346652 
L 346.165569 -272.860452 
L 345.84059 -273.357743 
L 345.51561 -273.838566 
L 345.190631 -274.302971 
L 344.865651 -274.751011 
L 344.540672 -275.182741 
L 344.215692 -275.598224 
L 343.890713 -275.997524 
L 343.565733 -276.38071 
L 343.240753 -276.747855 
L 342.915774 -277.099036 
L 342.590794 -277.434332 
L 342.265815 -277.753828 
L 341.940835 -278.05761 
L 341.615856 -278.345767 
L 341.290876 -278.618394 
L 340.965897 -278.875585 
L 340.640917 -279.11744 
L 340.315938 -279.34406 
L 339.990958 -279.555549 
L 339.665979 -279.752013 
L 339.340999 -279.933561 
L 339.01602 -280.100304 
L 338.69104 -280.252353 
L 338.366061 -280.389825 
L 338.041081 -280.512834 
L 337.716102 -280.6215 
L 337.391122 -280.715941 
L 337.066143 -280.796279 
L 336.741163 -280.862635 
L 336.416183 -280.915132 
L 336.091204 -280.953896 
L 335.766224 -280.979051 
L 335.441245 -280.990722 
L 335.116265 -280.989037 
L 334.791286 -280.974123 
L 334.466306 -280.946107 
L 334.141327 -280.905117 
L 333.816347 -280.85128 
L 333.491368 -280.784726 
L 333.166388 -280.705583 
L 332.841409 -280.613978 
L 332.516429 -280.510039 
L 332.19145 -280.393895 
L 331.86647 -280.265672 
L 331.541491 -280.125498 
L 331.216511 -279.973497 
L 330.891532 -279.809798 
L 330.566552 -279.634523 
L 330.241572 -279.447797 
L 329.916593 -279.249745 
L 329.591613 -279.040487 
L 329.266634 -278.820145 
L 328.941654 -278.58884 
L 328.616675 -278.346691 
L 328.291695 -278.093816 
L 327.966716 -277.830331 
L 327.641736 -277.556352 
L 327.316757 -277.271993 
L 326.991777 -276.977366 
L 326.666798 -276.672584 
L 326.341818 -276.357755 
L 326.016839 -276.032988 
L 325.691859 -275.69839 
L 325.36688 -275.354065 
L 325.0419 -275.000117 
L 324.716921 -274.636648 
L 324.391941 -274.263759 
L 324.066962 -273.881547 
L 323.741982 -273.490109 
L 323.417002 -273.08954 
L 323.092023 -272.679934 
L 322.767043 -272.261383 
L 322.442064 -271.833975 
L 322.117084 -271.397799 
L 321.792105 -270.952941 
L 321.467125 -270.499486 
L 321.142146 -270.037517 
L 320.817166 -269.567115 
L 320.492187 -269.088358 
L 320.167207 -268.601324 
L 319.842228 -268.10609 
L 319.517248 -267.60273 
L 319.192269 -267.091315 
L 318.867289 -266.571917 
L 318.54231 -266.044604 
L 318.21733 -265.509445 
L 317.892351 -264.966505 
L 317.567371 -264.415848 
L 317.242391 -263.857538 
L 316.917412 -263.291635 
L 316.592432 -262.7182 
L 316.267453 -262.13729 
L 315.942473 -261.548963 
L 315.617494 -260.953275 
L 315.292514 -260.350278 
L 314.967535 -259.740027 
L 314.642555 -259.122572 
L 314.317576 -258.497965 
L 313.992596 -257.866255 
L 313.667617 -257.227489 
L 313.342637 -256.581714 
L 313.017658 -255.928977 
L 312.692678 -255.269322 
L 312.367699 -254.602793 
L 312.042719 -253.929434 
L 311.71774 -253.249285 
L 311.39276 -252.56239 
L 311.067781 -251.868788 
L 310.742801 -251.168519 
L 310.417821 -250.461622 
L 310.092842 -249.748136 
L 309.767862 -249.028098 
L 309.442883 -248.301547 
L 309.117903 -247.568518 
L 308.792924 -246.829049 
L 308.467944 -246.083175 
L 308.142965 -245.330933 
L 307.817985 -244.572357 
L 307.493006 -243.807483 
L 307.168026 -243.036346 
L 306.843047 -242.258981 
L 306.518067 -241.475423 
L 306.193088 -240.685706 
L 305.868108 -239.889865 
L 305.543129 -239.087936 
L 305.218149 -238.279952 
L 304.89317 -237.46595 
L 304.56819 -236.645963 
L 304.24321 -235.820029 
L 303.918231 -234.988182 
L 303.593251 -234.15046 
L 303.268272 -233.306897 
L 302.943292 -232.457532 
L 302.618313 -231.602401 
L 302.293333 -230.741542 
L 301.968354 -229.874995 
L 301.643374 -229.002797 
L 301.318395 -228.124989 
L 300.993415 -227.241611 
L 300.668436 -226.352703 
L 300.343456 -225.458308 
L 300.018477 -224.558468 
L 299.693497 -223.653226 
L 299.368518 -222.742627 
L 299.043538 -221.826715 
L 298.718559 -220.905537 
L 298.393579 -219.979139 
L 298.0686 -219.047569 
L 297.74362 -218.110877 
L 297.41864 -217.169112 
L 297.093661 -216.222325 
L 296.768681 -215.270568 
L 296.443702 -214.313896 
L 296.118722 -213.352361 
L 295.793743 -212.386021 
L 295.468763 -211.414931 
L 295.143784 -210.43915 
L 294.818804 -209.458738 
L 294.493825 -208.473755 
L 294.168845 -207.484263 
L 293.843866 -206.490326 
L 293.518886 -205.492008 
L 293.193907 -204.489376 
L 292.868927 -203.482498 
L 292.543948 -202.471442 
L 292.218968 -201.456279 
L 291.893989 -200.437082 
L 291.569009 -199.413923 
L 291.244029 -198.386878 
L 290.91905 -197.356023 
L 290.59407 -196.321437 
L 290.269091 -195.2832 
L 289.944111 -194.241392 
L 289.619132 -193.196096 
L 289.294152 -192.147398 
L 288.969173 -191.095384 
L 288.644193 -190.04014 
L 288.319214 -188.981758 
L 287.994234 -187.920327 
L 287.669255 -186.855941 
L 287.344275 -185.788694 
L 287.019296 -184.718682 
L 286.694316 -183.646004 
L 286.369337 -182.570758 
L 286.044357 -181.493046 
L 285.719378 -180.412971 
L 285.394398 -179.330638 
L 285.069419 -178.246153 
L 284.744439 -177.159623 
L 284.419459 -176.07116 
L 284.09448 -174.980874 
L 283.7695 -173.888878 
L 283.444521 -172.795287 
L 283.119541 -171.700218 
L 282.794562 -170.60379 
L 282.469582 -169.506121 
L 282.144603 -168.407335 
L 281.819623 -167.307553 
L 281.494644 -166.206901 
L 281.169664 -165.105505 
L 280.844685 -164.003494 
L 280.519705 -162.900998 
L 280.194726 -161.798147 
L 279.869746 -160.695076 
L 279.544767 -159.591918 
L 279.219787 -158.488809 
L 278.894808 -157.385888 
L 278.569828 -156.283293 
L 278.244848 -155.181165 
L 277.919869 -154.079646 
L 277.594889 -152.97888 
L 277.26991 -151.879012 
L 276.94493 -150.780187 
L 276.619951 -149.682555 
L 276.294971 -148.586263 
L 275.969992 -147.491462 
L 275.645012 -146.398304 
L 275.320033 -145.306942 
L 274.995053 -144.217528 
L 274.670074 -143.13022 
L 274.345094 -142.045172 
L 274.020115 -140.962542 
L 273.695135 -139.882489 
L 273.370156 -138.805172 
L 273.045176 -137.73075 
L 272.720197 -136.659386 
L 272.395217 -135.591241 
L 272.070238 -134.526478 
L 271.745258 -133.46526 
L 271.420278 -132.407752 
L 271.095299 -131.354118 
L 270.770319 -130.304524 
L 270.44534 -129.259137 
L 270.12036 -128.218121 
L 269.795381 -127.181644 
L 269.470401 -126.149873 
L 269.145422 -125.122976 
L 268.820442 -124.10112 
L 268.495463 -123.084473 
L 268.170483 -122.073202 
L 267.845504 -121.067476 
L 267.520524 -120.067461 
L 267.195545 -119.073327 
L 266.870565 -118.085239 
L 266.545586 -117.103366 
L 266.220606 -116.127874 
L 265.895627 -115.158929 
L 265.570647 -114.196698 
L 265.245667 -113.241344 
L 264.920688 -112.293033 
L 264.595708 -111.351929 
L 264.270729 -110.418194 
L 263.945749 -109.491991 
L 263.62077 -108.57348 
L 263.29579 -107.662821 
L 262.970811 -106.760173 
L 262.645831 -105.865694 
L 262.320852 -104.97954 
L 261.995872 -104.101865 
L 261.670893 -103.232822 
L 261.345913 -102.372564 
L 261.020934 -101.52124 
L 260.695954 -100.678997 
L 260.370975 -99.845983 
L 260.045995 -99.022342 
L 259.721016 -98.208215 
L 259.396036 -97.403744 
L 259.071057 -96.609065 
L 258.746077 -95.824314 
L 258.421097 -95.049625 
L 258.096118 -94.285128 
L 257.771138 -93.530951 
L 257.446159 -92.787221 
L 257.121179 -92.054058 
L 256.7962 -91.331584 
L 256.47122 -90.619915 
L 256.146241 -89.919166 
L 255.821261 -89.229447 
L 255.496282 -88.550867 
L 255.171302 -87.883529 
L 254.846323 -87.227534 
L 254.521343 -86.582982 
L 254.196364 -85.949966 
L 253.871384 -85.328578 
L 253.546405 -84.718904 
L 253.221425 -84.121028 
L 252.896446 -83.53503 
L 252.571466 -82.960987 
L 252.246486 -82.39897 
L 251.921507 -81.849049 
L 251.596527 -81.311287 
L 251.271548 -80.785744 
L 250.946568 -80.272478 
L 250.621589 -79.77154 
L 250.296609 -79.282978 
L 249.97163 -78.806836 
L 249.64665 -78.343153 
L 249.321671 -77.891966 
L 248.996691 -77.453304 
L 248.671712 -77.027194 
L 248.346732 -76.613658 
L 248.021753 -76.212714 
L 247.696773 -75.824375 
L 247.371794 -75.448649 
L 247.046814 -75.085542 
L 246.721835 -74.735052 
L 246.396855 -74.397175 
L 246.071876 -74.071902 
L 245.746896 -73.759218 
L 245.421916 -73.459106 
L 245.096937 -73.171543 
L 244.771957 -72.8965 
L 244.446978 -72.633947 
L 244.121998 -72.383847 
L 243.797019 -72.146159 
L 243.472039 -71.920838 
L 243.14706 -71.707835 
L 242.82208 -71.507094 
L 242.497101 -71.318558 
L 242.172121 -71.142165 
L 241.847142 -70.977846 
L 241.522162 -70.825532 
L 241.197183 -70.685146 
L 240.872203 -70.556609 
L 240.547224 -70.439839 
L 240.222244 -70.334746 
L 239.897265 -70.24124 
L 239.572285 -70.159225 
L 239.247305 -70.088603 
L 238.922326 -70.029271 
L 238.597346 -69.981121 
L 238.272367 -69.944045 
L 237.947387 -69.917929 
L 237.622408 -69.902655 
L 237.297428 -69.898104 
L 236.972449 -69.904153 
L 236.647469 -69.920675 
L 236.32249 -69.94754 
L 235.99751 -69.984617 
L 235.672531 -70.031771 
L 235.347551 -70.088863 
L 235.022572 -70.155755 
L 234.697592 -70.232302 
L 234.372613 -70.31836 
L 234.047633 -70.413782 
L 233.722654 -70.518418 
L 233.397674 -70.632119 
L 233.072695 -70.754729 
L 232.747715 -70.886096 
L 232.422735 -71.026063 
L 232.097756 -71.174471 
L 231.772776 -71.331163 
L 231.447797 -71.495977 
L 231.122817 -71.668754 
L 230.797838 -71.84933 
L 230.472858 -72.037544 
L 230.147879 -72.233231 
L 229.822899 -72.436229 
L 229.49792 -72.646373 
L 229.17294 -72.863499 
L 228.847961 -73.087441 
L 228.522981 -73.318038 
L 228.198002 -73.555123 
L 227.873022 -73.798534 
L 227.548043 -74.048107 
L 227.223063 -74.30368 
L 226.898084 -74.565091 
L 226.573104 -74.83218 
L 226.248124 -75.104787 
L 225.923145 -75.382753 
L 225.598165 -75.665922 
L 225.273186 -75.954137 
L 224.948206 -76.247244 
L 224.623227 -76.545092 
L 224.298247 -76.847529 
L 223.973268 -77.154408 
L 223.648288 -77.465581 
L 223.323309 -77.780905 
L 222.998329 -78.100237 
L 222.67335 -78.423438 
L 222.34837 -78.750371 
L 222.023391 -79.080902 
L 221.698411 -79.414899 
L 221.373432 -79.752234 
L 221.048452 -80.092781 
L 220.723473 -80.436417 
L 220.398493 -80.783023 
L 220.073514 -81.132482 
L 219.748534 -81.484681 
L 219.423554 -81.839512 
L 219.098575 -82.196867 
L 218.773595 -82.556643 
L 218.448616 -82.918743 
L 218.123636 -83.283071 
L 217.798657 -83.649534 
L 217.473677 -84.018044 
L 217.148698 -84.388519 
L 216.823718 -84.760877 
L 216.498739 -85.135042 
L 216.173759 -85.510941 
L 215.84878 -85.888506 
L 215.5238 -86.267672 
L 215.198821 -86.648378 
L 214.873841 -87.030569 
L 214.548862 -87.41419 
L 214.223882 -87.799193 
L 213.898903 -88.185533 
L 213.573923 -88.57317 
L 213.248943 -88.962067 
L 212.923964 -89.35219 
L 212.598984 -89.74351 
L 212.274005 -90.136003 
L 211.949025 -90.529647 
L 211.624046 -90.924424 
L 211.299066 -91.320321 
L 210.974087 -91.717326 
L 210.649107 -92.115434 
L 210.324128 -92.514641 
L 209.999148 -92.914948 
L 209.674169 -93.316359 
L 209.349189 -93.71888 
L 209.02421 -94.122523 
L 208.69923 -94.5273 
L 208.374251 -94.933229 
L 208.049271 -95.340329 
L 207.724292 -95.748622 
L 207.399312 -96.158135 
L 207.074333 -96.568895 
L 206.749353 -96.980933 
L 206.424373 -97.394282 
L 206.099394 -97.808977 
L 205.774414 -98.225058 
L 205.449435 -98.642563 
L 205.124455 -99.061535 
L 204.799476 -99.482017 
L 204.474496 -99.904056 
L 204.149517 -100.327699 
L 203.824537 -100.752995 
L 203.499558 -101.179995 
L 203.174578 -101.60875 
L 202.849599 -102.039312 
L 202.524619 -102.471736 
L 202.19964 -102.906077 
L 201.87466 -103.342389 
L 201.549681 -103.780728 
L 201.224701 -104.221151 
L 200.899722 -104.663714 
L 200.574742 -105.108474 
L 200.249762 -105.555487 
L 199.924783 -106.00481 
L 199.599803 -106.456498 
L 199.274824 -106.910608 
L 198.949844 -107.367194 
L 198.624865 -107.826311 
L 198.299885 -108.288011 
L 197.974906 -108.752346 
L 197.649926 -109.219368 
L 197.324947 -109.689126 
L 196.999967 -110.161668 
L 196.674988 -110.63704 
L 196.350008 -111.115287 
L 196.025029 -111.596451 
L 195.700049 -112.080574 
L 195.37507 -112.567692 
L 195.05009 -113.057842 
L 194.725111 -113.551058 
L 194.400131 -114.04737 
L 194.075152 -114.546808 
L 193.750172 -115.049395 
L 193.425192 -115.555155 
L 193.100213 -116.064107 
L 192.775233 -116.576267 
L 192.450254 -117.091648 
L 192.125274 -117.610261 
L 191.800295 -118.13211 
L 191.475315 -118.657199 
L 191.150336 -119.185528 
L 190.825356 -119.71709 
L 190.500377 -120.251878 
L 190.175397 -120.78988 
L 189.850418 -121.331079 
L 189.525438 -121.875455 
L 189.200459 -122.422984 
L 188.875479 -122.973639 
L 188.5505 -123.527385 
L 188.22552 -124.084188 
L 187.900541 -124.644006 
L 187.575561 -125.206794 
L 187.250581 -125.772504 
L 186.925602 -126.341081 
L 186.600622 -126.912469 
L 186.275643 -127.486605 
L 185.950663 -128.063423 
L 185.625684 -128.642853 
L 185.300704 -129.22482 
L 184.975725 -129.809245 
L 184.650745 -130.396045 
L 184.325766 -130.985133 
L 184.000786 -131.576418 
L 183.675807 -132.169803 
L 183.350827 -132.765191 
L 183.025848 -133.362476 
L 182.700868 -133.961552 
L 182.375889 -134.562307 
L 182.050909 -135.164627 
L 181.72593 -135.768392 
L 181.40095 -136.37348 
L 181.075971 -136.979766 
L 180.750991 -137.58712 
L 180.426011 -138.195408 
L 180.101032 -138.804496 
L 179.776052 -139.414244 
L 179.451073 -140.02451 
L 179.126093 -140.635149 
L 178.801114 -141.246012 
L 178.476134 -141.85695 
L 178.151155 -142.467808 
L 177.826175 -143.078433 
L 177.501196 -143.688666 
L 177.176216 -144.298346 
L 176.851237 -144.907313 
L 176.526257 -145.515402 
L 176.201278 -146.122447 
L 175.876298 -146.728283 
L 175.551319 -147.33274 
L 175.226339 -147.935649 
L 174.90136 -148.53684 
L 174.57638 -149.13614 
L 174.2514 -149.733377 
L 173.926421 -150.328379 
L 173.601441 -150.920973 
L 173.276462 -151.510984 
L 172.951482 -152.098239 
L 172.626503 -152.682566 
L 172.301523 -153.26379 
L 171.976544 -153.841739 
L 171.651564 -154.416242 
L 171.326585 -154.987126 
L 171.001605 -155.554222 
L 170.676626 -156.11736 
L 170.351646 -156.676374 
L 170.026667 -157.231096 
L 169.701687 -157.781362 
L 169.376708 -158.32701 
L 169.051728 -158.867878 
L 168.726749 -159.403809 
L 168.401769 -159.934645 
L 168.07679 -160.460235 
L 167.75181 -160.980426 
L 167.42683 -161.49507 
L 167.101851 -162.004023 
L 166.776871 -162.507143 
L 166.451892 -163.00429 
L 166.126912 -163.49533 
L 165.801933 -163.98013 
L 165.476953 -164.458564 
L 165.151974 -164.930507 
L 164.826994 -165.395838 
L 164.502015 -165.854443 
L 164.177035 -166.306208 
L 163.852056 -166.751028 
L 163.527076 -167.188798 
L 163.202097 -167.619421 
L 162.877117 -168.042802 
L 162.552138 -168.458854 
L 162.227158 -168.867491 
L 161.902179 -169.268636 
L 161.577199 -169.662213 
L 161.252219 -170.048153 
L 160.92724 -170.426394 
L 160.60226 -170.796877 
L 160.277281 -171.159548 
L 159.952301 -171.514359 
L 159.627322 -171.861268 
L 159.302342 -172.200237 
L 158.977363 -172.531236 
L 158.652383 -172.854238 
L 158.327404 -173.169222 
L 158.002424 -173.476173 
L 157.677445 -173.775082 
L 157.352465 -174.065945 
L 157.027486 -174.348762 
L 156.702506 -174.623541 
L 156.377527 -174.890295 
L 156.052547 -175.149041 
L 155.727568 -175.399802 
L 155.402588 -175.642608 
L 155.077609 -175.877492 
L 154.752629 -176.104493 
L 154.427649 -176.323657 
L 154.10267 -176.535032 
L 153.77769 -176.738674 
L 153.452711 -176.934642 
L 153.127731 -177.123002 
L 152.802752 -177.303823 
L 152.477772 -177.477179 
L 152.152793 -177.643149 
L 151.827813 -177.801818 
L 151.502834 -177.953272 
L 151.177854 -178.097605 
L 150.852875 -178.234912 
L 150.527895 -178.365295 
L 150.202916 -178.488858 
L 149.877936 -178.60571 
L 149.552957 -178.715962 
L 149.227977 -178.819731 
L 148.902998 -178.917135 
L 148.578018 -179.008296 
L 148.253038 -179.09334 
L 147.928059 -179.172394 
L 147.603079 -179.24559 
L 147.2781 -179.313062 
L 146.95312 -179.374945 
L 146.628141 -179.431377 
L 146.303161 -179.482499 
L 145.978182 -179.528452 
L 145.653202 -179.56938 
L 145.328223 -179.60543 
L 145.003243 -179.636746 
L 144.678264 -179.663478 
L 144.353284 -179.685774 
L 144.028305 -179.703784 
L 143.703325 -179.717657 
L 143.378346 -179.727544 
L 143.053366 -179.733596 
L 142.728387 -179.735964 
L 142.403407 -179.734798 
L 142.078428 -179.730248 
L 141.753448 -179.722466 
L 141.428468 -179.711598 
L 141.103489 -179.697794 
L 140.778509 -179.6812 
L 140.45353 -179.661962 
L 140.12855 -179.640225 
L 139.803571 -179.61613 
L 139.478591 -179.589819 
L 139.153612 -179.561431 
L 138.828632 -179.531102 
L 138.503653 -179.498966 
L 138.178673 -179.465156 
L 137.853694 -179.4298 
L 137.528714 -179.393025 
L 137.203735 -179.354954 
L 136.878755 -179.315708 
L 136.553776 -179.275402 
L 136.228796 -179.234152 
L 135.903817 -179.192067 
L 135.578837 -179.149253 
L 135.253857 -179.105813 
L 134.928878 -179.061846 
L 134.603898 -179.017445 
L 134.278919 -178.972702 
L 133.953939 -178.927703 
L 133.62896 -178.88253 
L 133.30398 -178.837259 
L 132.979001 -178.791964 
L 132.654021 -178.746713 
L 132.329042 -178.70157 
L 132.004062 -178.656592 
L 131.679083 -178.611835 
L 131.354103 -178.567347 
L 131.029124 -178.523171 
L 130.704144 -178.479349 
L 130.379165 -178.435913 
L 130.054185 -178.392892 
L 129.729206 -178.350311 
L 129.404226 -178.308189 
L 129.079247 -178.266539 
L 128.754267 -178.22537 
L 128.429287 -178.184686 
L 128.104308 -178.144486 
L 127.779328 -178.104764 
L 127.454349 -178.065508 
L 127.129369 -178.026701 
L 126.80439 -177.988323 
L 126.47941 -177.950348 
L 126.154431 -177.912744 
L 125.829451 -177.875476 
L 125.504472 -177.838505 
L 125.179492 -177.801784 
L 124.854513 -177.765265 
L 124.529533 -177.728893 
L 124.204554 -177.692612 
L 123.879574 -177.656357 
L 123.554595 -177.620064 
L 123.229615 -177.583661 
L 122.904636 -177.547075 
L 122.579656 -177.510228 
L 122.254676 -177.473038 
L 121.929697 -177.43542 
L 121.604717 -177.397285 
L 121.279738 -177.358544 
L 120.954758 -177.319101 
L 120.629779 -177.278859 
L 120.304799 -177.237719 
L 119.97982 -177.195578 
L 119.65484 -177.152332 
L 119.329861 -177.107875 
L 119.004881 -177.062097 
L 118.679902 -177.014889 
L 118.354922 -176.966139 
L 118.029943 -176.915734 
L 117.704963 -176.86356 
L 117.379984 -176.809502 
L 117.055004 -176.753444 
L 116.730025 -176.695269 
L 116.405045 -176.634863 
L 116.080066 -176.572107 
L 115.755086 -176.506886 
L 115.430106 -176.439084 
L 115.105127 -176.368585 
L 114.780147 -176.295275 
L 114.455168 -176.21904 
L 114.130188 -176.139768 
L 113.805209 -176.057349 
L 113.480229 -175.971673 
L 113.15525 -175.882634 
L 112.83027 -175.790126 
L 112.505291 -175.694048 
L 112.180311 -175.5943 
L 111.855332 -175.490784 
L 111.530352 -175.383408 
L 111.205373 -175.27208 
L 110.880393 -175.156714 
L 110.555414 -175.037227 
L 110.230434 -174.913539 
L 109.905455 -174.785575 
L 109.580475 -174.653266 
L 109.255495 -174.516544 
L 108.930516 -174.375349 
L 108.605536 -174.229626 
L 108.280557 -174.079322 
L 107.955577 -173.924393 
L 107.630598 -173.764799 
L 107.305618 -173.600506 
L 106.980639 -173.431486 
L 106.655659 -173.257719 
L 106.33068 -173.079188 
L 106.0057 -172.895885 
L 105.680721 -172.707808 
L 105.355741 -172.514962 
L 105.030762 -172.31736 
L 104.705782 -172.115021 
L 104.380803 -171.907971 
L 104.055823 -171.696245 
L 103.730844 -171.479884 
L 103.405864 -171.25894 
L 103.080885 -171.033469 
L 102.755905 -170.803537 
L 102.430925 -170.569218 
L 102.105946 -170.330595 
L 101.780966 -170.087758 
L 101.455987 -169.840806 
L 101.131007 -169.589846 
L 100.806028 -169.334996 
L 100.481048 -169.07638 
L 100.156069 -168.814131 
L 99.831089 -168.548392 
L 99.50611 -168.279316 
L 99.18113 -168.007061 
L 98.856151 -167.731798 
L 98.531171 -167.453704 
L 98.206192 -167.172968 
L 97.881212 -166.889784 
L 97.556233 -166.60436 
L 97.231253 -166.316908 
L 96.906274 -166.027652 
L 96.581294 -165.736825 
L 96.256314 -165.444667 
L 95.931335 -165.151429 
L 95.606355 -164.857371 
L 95.281376 -164.562758 
L 94.956396 -164.26787 
L 94.631417 -163.97299 
L 94.306437 -163.678412 
L 93.981458 -163.38444 
L 93.656478 -163.091383 
L 93.331499 -162.799562 
L 93.006519 -162.509304 
L 92.68154 -162.220943 
L 92.35656 -161.934825 
L 92.031581 -161.651301 
L 91.706601 -161.370729 
L 91.381622 -161.093477 
L 91.056642 -160.819919 
L 90.731663 -160.550436 
L 90.406683 -160.285418 
L 90.081704 -160.02526 
L 89.756724 -159.770364 
L 89.431744 -159.52114 
L 89.106765 -159.278002 
L 88.781785 -159.041373 
L 88.456806 -158.81168 
L 88.131826 -158.589357 
L 87.806847 -158.374842 
L 87.481867 -158.168579 
L 87.156888 -157.971019 
L 86.831908 -157.782614 
L 86.506929 -157.603826 
L 86.181949 -157.435116 
L 85.85697 -157.276952 
L 85.53199 -157.129807 
L 85.207011 -156.994156 
L 84.882031 -156.870477 
L 84.557052 -156.759254 
L 84.232072 -156.660972 
L 83.907093 -156.576118 
L 83.582113 -156.505184 
L 83.257133 -156.448663 
L 82.932154 -156.407051 
L 82.607174 -156.380845 
L 82.282195 -156.370544 
L 81.957215 -156.376649 
L 81.632236 -156.399662 
L 81.307256 -156.440086 
L 80.982277 -156.498425 
L 80.657297 -156.575183 
L 80.332318 -156.670867 
L 80.007338 -156.785981 
L 79.682359 -156.921033 
L 79.357379 -157.076528 
L 79.0324 -157.252974 
L 78.70742 -157.450876 
L 78.382441 -157.670742 
L 78.057461 -157.913078 
L 77.732482 -158.178391 
L 77.407502 -158.467185 
L 77.082523 -158.779965 
L 76.757543 -159.117235 
L 76.432563 -159.479493 
L 76.107584 -159.867238 
L 75.782604 -160.280962 
L 75.457625 -160.721152 
L 75.132645 -161.188289 
L 74.807666 -161.682847 
L 74.482686 -162.205295 
L 74.157707 -162.756092 
L 73.832727 -163.335694 
z
" style="stroke: #ff7f0e; stroke-opacity: 0.25"/>
    </defs>
    <g clip-path="url(#pe6cf9bcb96)">
     <use xlink:href="#m44460e7166" x="0" y="345.6" style="fill: #ff7f0e; fill-opacity: 0.25; stroke: #ff7f0e; stroke-opacity: 0.25"/>
    </g>
   </g>
   <g id="matplotlib.axis_1">
    <g id="xtick_1">
     <g id="line2d_1">
      <defs>
       <path id="m99be3e4076" d="M 0 0 
L 0 3.5 
" style="stroke: #000000; stroke-width: 0.8"/>
      </defs>
      <g>
       <use xlink:href="#m99be3e4076" x="73.832727" y="307.584" style="stroke: #000000; stroke-width: 0.8"/>
      </g>
     </g>
     <g id="text_1">
      <!-- 0 -->
      <g transform="translate(70.651477 322.182437)scale(0.1 -0.1)">
       <defs>
        <path id="DejaVuSans-30" d="M 2034 4250 
Q 1547 4250 1301 3770 
Q 1056 3291 1056 2328 
Q 1056 1369 1301 889 
Q 1547 409 2034 409 
Q 2525 409 2770 889 
Q 3016 1369 3016 2328 
Q 3016 3291 2770 3770 
Q 2525 4250 2034 4250 
z
M 2034 4750 
Q 2819 4750 3233 4129 
Q 3647 3509 3647 2328 
Q 3647 1150 3233 529 
Q 2819 -91 2034 -91 
Q 1250 -91 836 529 
Q 422 1150 422 2328 
Q 422 3509 836 4129 
Q 1250 4750 2034 4750 
z
" transform="scale(0.015625)"/>
       </defs>
       <use xlink:href="#DejaVuSans-30"/>
      </g>
     </g>
    </g>
    <g id="xtick_2">
     <g id="line2d_2">
      <g>
       <use xlink:href="#m99be3e4076" x="138.763636" y="307.584" style="stroke: #000000; stroke-width: 0.8"/>
      </g>
     </g>
     <g id="text_2">
      <!-- 2 -->
      <g transform="translate(135.582386 322.182437)scale(0.1 -0.1)">
       <defs>
        <path id="DejaVuSans-32" d="M 1228 531 
L 3431 531 
L 3431 0 
L 469 0 
L 469 531 
Q 828 903 1448 1529 
Q 2069 2156 2228 2338 
Q 2531 2678 2651 2914 
Q 2772 3150 2772 3378 
Q 2772 3750 2511 3984 
Q 2250 4219 1831 4219 
Q 1534 4219 1204 4116 
Q 875 4013 500 3803 
L 500 4441 
Q 881 4594 1212 4672 
Q 1544 4750 1819 4750 
Q 2544 4750 2975 4387 
Q 3406 4025 3406 3419 
Q 3406 3131 3298 2873 
Q 3191 2616 2906 2266 
Q 2828 2175 2409 1742 
Q 1991 1309 1228 531 
z
" transform="scale(0.015625)"/>
       </defs>
       <use xlink:href="#DejaVuSans-32"/>
      </g>
     </g>
    </g>
    <g id="xtick_3">
     <g id="line2d_3">
      <g>
       <use xlink:href="#m99be3e4076" x="203.694545" y="307.584" style="stroke: #000000; stroke-width: 0.8"/>
      </g>
     </g>
     <g id="text_3">
      <!-- 4 -->
      <g transform="translate(200.513295 322.182437)scale(0.1 -0.1)">
       <defs>
        <path id="DejaVuSans-34" d="M 2419 4116 
L 825 1625 
L 2419 1625 
L 2419 4116 
z
M 2253 4666 
L 3047 4666 
L 3047 1625 
L 3713 1625 
L 3713 1100 
L 3047 1100 
L 3047 0 
L 2419 0 
L 2419 1100 
L 313 1100 
L 313 1709 
L 2253 4666 
z
" transform="scale(0.015625)"/>
       </defs>
       <use xlink:href="#DejaVuSans-34"/>
      </g>
     </g>
    </g>
    <g id="xtick_4">
     <g id="line2d_4">
      <g>
       <use xlink:href="#m99be3e4076" x="268.625455" y="307.584" style="stroke: #000000; stroke-width: 0.8"/>
      </g>
     </g>
     <g id="text_4">
      <!-- 6 -->
      <g transform="translate(265.444205 322.182437)scale(0.1 -0.1)">
       <defs>
        <path id="DejaVuSans-36" d="M 2113 2584 
Q 1688 2584 1439 2293 
Q 1191 2003 1191 1497 
Q 1191 994 1439 701 
Q 1688 409 2113 409 
Q 2538 409 2786 701 
Q 3034 994 3034 1497 
Q 3034 2003 2786 2293 
Q 2538 2584 2113 2584 
z
M 3366 4563 
L 3366 3988 
Q 3128 4100 2886 4159 
Q 2644 4219 2406 4219 
Q 1781 4219 1451 3797 
Q 1122 3375 1075 2522 
Q 1259 2794 1537 2939 
Q 1816 3084 2150 3084 
Q 2853 3084 3261 2657 
Q 3669 2231 3669 1497 
Q 3669 778 3244 343 
Q 2819 -91 2113 -91 
Q 1303 -91 875 529 
Q 447 1150 447 2328 
Q 447 3434 972 4092 
Q 1497 4750 2381 4750 
Q 2619 4750 2861 4703 
Q 3103 4656 3366 4563 
z
" transform="scale(0.015625)"/>
       </defs>
       <use xlink:href="#DejaVuSans-36"/>
      </g>
     </g>
    </g>
    <g id="xtick_5">
     <g id="line2d_5">
      <g>
       <use xlink:href="#m99be3e4076" x="333.556364" y="307.584" style="stroke: #000000; stroke-width: 0.8"/>
      </g>
     </g>
     <g id="text_5">
      <!-- 8 -->
      <g transform="translate(330.375114 322.182437)scale(0.1 -0.1)">
       <defs>
        <path id="DejaVuSans-38" d="M 2034 2216 
Q 1584 2216 1326 1975 
Q 1069 1734 1069 1313 
Q 1069 891 1326 650 
Q 1584 409 2034 409 
Q 2484 409 2743 651 
Q 3003 894 3003 1313 
Q 3003 1734 2745 1975 
Q 2488 2216 2034 2216 
z
M 1403 2484 
Q 997 2584 770 2862 
Q 544 3141 544 3541 
Q 544 4100 942 4425 
Q 1341 4750 2034 4750 
Q 2731 4750 3128 4425 
Q 3525 4100 3525 3541 
Q 3525 3141 3298 2862 
Q 3072 2584 2669 2484 
Q 3125 2378 3379 2068 
Q 3634 1759 3634 1313 
Q 3634 634 3220 271 
Q 2806 -91 2034 -91 
Q 1263 -91 848 271 
Q 434 634 434 1313 
Q 434 1759 690 2068 
Q 947 2378 1403 2484 
z
M 1172 3481 
Q 1172 3119 1398 2916 
Q 1625 2713 2034 2713 
Q 2441 2713 2670 2916 
Q 2900 3119 2900 3481 
Q 2900 3844 2670 4047 
Q 2441 4250 2034 4250 
Q 1625 4250 1398 4047 
Q 1172 3844 1172 3481 
z
" transform="scale(0.015625)"/>
       </defs>
       <use xlink:href="#DejaVuSans-38"/>
      </g>
     </g>
    </g>
    <g id="xtick_6">
     <g id="line2d_6">
      <g>
       <use xlink:href="#m99be3e4076" x="398.487273" y="307.584" style="stroke: #000000; stroke-width: 0.8"/>
      </g>
     </g>
     <g id="text_6">
      <!-- 10 -->
      <g transform="translate(392.124773 322.182437)scale(0.1 -0.1)">
       <defs>
        <path id="DejaVuSans-31" d="M 794 531 
L 1825 531 
L 1825 4091 
L 703 3866 
L 703 4441 
L 1819 4666 
L 2450 4666 
L 2450 531 
L 3481 531 
L 3481 0 
L 794 0 
L 794 531 
z
" transform="scale(0.015625)"/>
       </defs>
       <use xlink:href="#DejaVuSans-31"/>
       <use xlink:href="#DejaVuSans-30" x="63.623047"/>
      </g>
     </g>
    </g>
    <g id="text_7">
     <!-- $x$ -->
     <g transform="translate(233.16 335.860562)scale(0.1 -0.1)">
      <defs>
       <path id="DejaVuSans-Oblique-78" d="M 3841 3500 
L 2234 1784 
L 3219 0 
L 2559 0 
L 1819 1388 
L 531 0 
L -166 0 
L 1556 1844 
L 641 3500 
L 1300 3500 
L 1972 2234 
L 3144 3500 
L 3841 3500 
z
" transform="scale(0.015625)"/>
      </defs>
      <use xlink:href="#DejaVuSans-Oblique-78" transform="translate(0 0.3125)"/>
     </g>
    </g>
   </g>
   <g id="matplotlib.axis_2">
    <g id="ytick_1">
     <g id="line2d_7">
      <defs>
       <path id="maf013b228b" d="M 0 0 
L -3.5 0 
" style="stroke: #000000; stroke-width: 0.8"/>
      </defs>
      <g>
       <use xlink:href="#maf013b228b" x="57.6" y="295.25926" style="stroke: #000000; stroke-width: 0.8"/>
      </g>
     </g>
     <g id="text_8">
      <!-- 6 -->
      <g transform="translate(35.857813 299.058478)scale(0.1 -0.1)">
       <defs>
        <path id="DejaVuSans-2212" d="M 678 2272 
L 4684 2272 
L 4684 1741 
L 678 1741 
L 678 2272 
z
" transform="scale(0.015625)"/>
       </defs>
       <use xlink:href="#DejaVuSans-2212"/>
       <use xlink:href="#DejaVuSans-36" x="83.789062"/>
      </g>
     </g>
    </g>
    <g id="ytick_2">
     <g id="line2d_8">
      <g>
       <use xlink:href="#maf013b228b" x="57.6" y="261.917504" style="stroke: #000000; stroke-width: 0.8"/>
      </g>
     </g>
     <g id="text_9">
      <!-- 4 -->
      <g transform="translate(35.857813 265.716723)scale(0.1 -0.1)">
       <use xlink:href="#DejaVuSans-2212"/>
       <use xlink:href="#DejaVuSans-34" x="83.789062"/>
      </g>
     </g>
    </g>
    <g id="ytick_3">
     <g id="line2d_9">
      <g>
       <use xlink:href="#maf013b228b" x="57.6" y="228.575748" style="stroke: #000000; stroke-width: 0.8"/>
      </g>
     </g>
     <g id="text_10">
      <!-- 2 -->
      <g transform="translate(35.857813 232.374967)scale(0.1 -0.1)">
       <use xlink:href="#DejaVuSans-2212"/>
       <use xlink:href="#DejaVuSans-32" x="83.789062"/>
      </g>
     </g>
    </g>
    <g id="ytick_4">
     <g id="line2d_10">
      <g>
       <use xlink:href="#maf013b228b" x="57.6" y="195.233992" style="stroke: #000000; stroke-width: 0.8"/>
      </g>
     </g>
     <g id="text_11">
      <!-- 0 -->
      <g transform="translate(44.2375 199.033211)scale(0.1 -0.1)">
       <use xlink:href="#DejaVuSans-30"/>
      </g>
     </g>
    </g>
    <g id="ytick_5">
     <g id="line2d_11">
      <g>
       <use xlink:href="#maf013b228b" x="57.6" y="161.892237" style="stroke: #000000; stroke-width: 0.8"/>
      </g>
     </g>
     <g id="text_12">
      <!-- 2 -->
      <g transform="translate(44.2375 165.691455)scale(0.1 -0.1)">
       <use xlink:href="#DejaVuSans-32"/>
      </g>
     </g>
    </g>
    <g id="ytick_6">
     <g id="line2d_12">
      <g>
       <use xlink:href="#maf013b228b" x="57.6" y="128.550481" style="stroke: #000000; stroke-width: 0.8"/>
      </g>
     </g>
     <g id="text_13">
      <!-- 4 -->
      <g transform="translate(44.2375 132.349699)scale(0.1 -0.1)">
       <use xlink:href="#DejaVuSans-34"/>
      </g>
     </g>
    </g>
    <g id="ytick_7">
     <g id="line2d_13">
      <g>
       <use xlink:href="#maf013b228b" x="57.6" y="95.208725" style="stroke: #000000; stroke-width: 0.8"/>
      </g>
     </g>
     <g id="text_14">
      <!-- 6 -->
      <g transform="translate(44.2375 99.007944)scale(0.1 -0.1)">
       <use xlink:href="#DejaVuSans-36"/>
      </g>
     </g>
    </g>
    <g id="ytick_8">
     <g id="line2d_14">
      <g>
       <use xlink:href="#maf013b228b" x="57.6" y="61.866969" style="stroke: #000000; stroke-width: 0.8"/>
      </g>
     </g>
     <g id="text_15">
      <!-- 8 -->
      <g transform="translate(44.2375 65.666188)scale(0.1 -0.1)">
       <use xlink:href="#DejaVuSans-38"/>
      </g>
     </g>
    </g>
    <g id="text_16">
     <!-- $f$ -->
     <g transform="translate(29.778125 176.328)rotate(-90)scale(0.1 -0.1)">
      <defs>
       <path id="DejaVuSans-Oblique-66" d="M 3059 4863 
L 2969 4384 
L 2419 4384 
Q 2106 4384 1964 4261 
Q 1822 4138 1753 3809 
L 1691 3500 
L 2638 3500 
L 2553 3053 
L 1606 3053 
L 1013 0 
L 434 0 
L 1031 3053 
L 481 3053 
L 563 3500 
L 1113 3500 
L 1159 3744 
Q 1278 4363 1576 4613 
Q 1875 4863 2516 4863 
L 3059 4863 
z
" transform="scale(0.015625)"/>
      </defs>
      <use xlink:href="#DejaVuSans-Oblique-66" transform="translate(0 0.015625)"/>
     </g>
    </g>
   </g>
   <g id="line2d_15">
    <path d="M 73.832727 195.233992 
L 76.432563 195.127199 
L 79.0324 194.808189 
L 81.632236 194.281055 
L 84.557052 193.4478 
L 87.481867 192.3734 
L 90.731663 190.918379 
L 93.981458 189.217209 
L 97.556233 187.103607 
L 101.780966 184.349905 
L 107.955577 180.025896 
L 116.730025 173.888332 
L 120.954758 171.209139 
L 124.529533 169.2025 
L 127.779328 167.646913 
L 130.704144 166.507578 
L 133.30398 165.730284 
L 135.903817 165.197214 
L 138.178673 164.946692 
L 140.45353 164.910192 
L 142.728387 165.09823 
L 145.003243 165.519848 
L 147.2781 166.182522 
L 149.552957 167.092076 
L 151.827813 168.252613 
L 154.10267 169.666449 
L 156.377527 171.334062 
L 158.652383 173.254058 
L 161.252219 175.753061 
L 163.852056 178.56935 
L 166.776871 182.102794 
L 169.701687 186.002555 
L 172.951482 190.733471 
L 176.526257 196.371375 
L 180.426011 202.963535 
L 184.975725 211.106406 
L 191.800295 223.851588 
L 200.574742 240.178947 
L 205.124455 248.146714 
L 208.69923 253.97413 
L 211.949025 258.842584 
L 214.873841 262.807981 
L 217.473677 265.955924 
L 219.748534 268.389491 
L 222.023391 270.499384 
L 223.973268 272.033814 
L 225.923145 273.301829 
L 227.873022 274.291652 
L 229.49792 274.896182 
L 231.122817 275.294327 
L 232.747715 275.480936 
L 234.372613 275.451415 
L 235.99751 275.201751 
L 237.622408 274.728527 
L 239.247305 274.028948 
L 240.872203 273.100852 
L 242.497101 271.942727 
L 244.446978 270.248194 
L 246.396855 268.221056 
L 248.346732 265.862559 
L 250.296609 263.175387 
L 252.571466 259.630546 
L 254.846323 255.65311 
L 257.121179 251.25485 
L 259.721016 245.731627 
L 262.320852 239.703496 
L 265.245667 232.356066 
L 268.495463 223.548019 
L 272.070238 213.165561 
L 275.969992 201.142958 
L 280.844685 185.342133 
L 288.644193 159.132632 
L 296.118722 134.24914 
L 300.668436 119.857885 
L 304.24321 109.221613 
L 307.493006 100.211825 
L 310.417821 92.7391 
L 313.017658 86.670363 
L 315.617494 81.197573 
L 317.892351 76.937529 
L 319.842228 73.704037 
L 321.792105 70.875996 
L 323.741982 68.470604 
L 325.36688 66.800387 
L 326.991777 65.442978 
L 328.616675 64.40594 
L 329.916593 63.811557 
L 331.216511 63.429653 
L 332.516429 63.262979 
L 333.816347 63.313932 
L 335.116265 63.584549 
L 336.416183 64.076506 
L 337.716102 64.791103 
L 339.01602 65.729266 
L 340.640917 67.217152 
L 342.265815 69.055394 
L 343.890713 71.243256 
L 345.51561 73.779038 
L 347.465487 77.277414 
L 349.415364 81.266468 
L 351.365242 85.737756 
L 353.640098 91.549705 
L 355.914955 97.983751 
L 358.514791 106.068271 
L 361.114627 114.893543 
L 364.039443 125.649054 
L 367.289238 138.538287 
L 370.864013 153.724176 
L 374.763767 171.30046 
L 379.63846 194.392545 
L 387.112989 231.104575 
L 395.237477 270.731036 
L 398.487273 285.927087 
L 398.487273 285.927087 
" clip-path="url(#pe6cf9bcb96)" style="fill: none; stroke: #1f77b4; stroke-width: 1.5; stroke-linecap: square"/>
   </g>
   <g id="line2d_16">
    <path d="M 73.832727 188.550164 
L 78.057461 187.278984 
L 82.282195 185.776386 
L 86.831908 183.924006 
L 92.031581 181.557805 
L 98.531171 178.33867 
L 112.505291 171.328942 
L 117.055004 169.330722 
L 120.954758 167.849835 
L 124.529533 166.734999 
L 127.779328 165.963018 
L 130.704144 165.493797 
L 133.62896 165.262748 
L 136.228796 165.275331 
L 138.828632 165.5082 
L 141.428468 165.974606 
L 144.028305 166.686354 
L 146.628141 167.653614 
L 149.227977 168.884742 
L 151.827813 170.386105 
L 154.427649 172.161926 
L 157.027486 174.21413 
L 159.627322 176.542221 
L 162.552138 179.487211 
L 165.476953 182.769141 
L 168.401769 186.37535 
L 171.651564 190.741646 
L 175.226339 195.946605 
L 179.126093 202.04846 
L 183.675807 209.625082 
L 189.200459 219.286626 
L 203.174578 243.929924 
L 207.399312 250.792376 
L 210.974087 256.157517 
L 213.898903 260.16883 
L 216.498739 263.400021 
L 219.098575 266.27693 
L 221.373432 268.474944 
L 223.648288 270.350603 
L 225.598165 271.685097 
L 227.548043 272.753708 
L 229.49792 273.544394 
L 231.122817 273.982978 
L 232.747715 274.215002 
L 234.372613 274.235152 
L 235.99751 274.038681 
L 237.622408 273.621434 
L 239.247305 272.97988 
L 240.872203 272.111128 
L 242.497101 271.012956 
L 244.446978 269.390197 
L 246.396855 267.433581 
L 248.346732 265.14329 
L 250.296609 262.521035 
L 252.571466 259.046617 
L 254.846323 255.132757 
L 257.121179 250.790267 
L 259.721016 245.320319 
L 262.320852 239.333691 
L 265.245667 232.018655 
L 268.495463 223.229366 
L 272.070238 212.848478 
L 275.969992 200.808894 
L 280.844685 184.968989 
L 288.644193 158.693187 
L 295.793743 134.855148 
L 300.343456 120.449275 
L 303.918231 109.820389 
L 307.168026 100.835245 
L 310.092842 93.400716 
L 312.692678 87.378934 
L 314.967535 82.606695 
L 317.242391 78.333134 
L 319.192269 75.090447 
L 321.142146 72.254728 
L 323.092023 69.842329 
L 324.716921 68.166051 
L 326.341818 66.801648 
L 327.966716 65.755915 
L 329.266634 65.152785 
L 330.566552 64.760042 
L 331.86647 64.579941 
L 333.166388 64.614364 
L 334.466306 64.86481 
L 335.766224 65.332396 
L 337.066143 66.017851 
L 338.366061 66.921514 
L 339.990958 68.357834 
L 341.615856 70.134041 
L 343.240753 72.248224 
L 344.865651 74.697528 
L 346.815528 78.073648 
L 348.765405 81.918518 
L 350.715283 86.221945 
L 352.990139 91.806023 
L 355.264996 97.975648 
L 357.864832 105.711044 
L 360.464668 114.135558 
L 363.389484 124.377828 
L 366.639279 136.620752 
L 370.214054 151.00909 
L 374.113808 167.625862 
L 378.988501 189.424546 
L 386.138051 222.587768 
L 396.212416 269.250425 
L 398.487273 279.433693 
L 398.487273 279.433693 
" clip-path="url(#pe6cf9bcb96)" style="fill: none; stroke: #ff7f0e; stroke-width: 1.5; stroke-linecap: square"/>
   </g>
   <g id="patch_3">
    <path d="M 57.6 307.584 
L 57.6 41.472 
" style="fill: none; stroke: #000000; stroke-width: 0.8; stroke-linejoin: miter; stroke-linecap: square"/>
   </g>
   <g id="patch_4">
    <path d="M 414.72 307.584 
L 414.72 41.472 
" style="fill: none; stroke: #000000; stroke-width: 0.8; stroke-linejoin: miter; stroke-linecap: square"/>
   </g>
   <g id="patch_5">
    <path d="M 57.6 307.584 
L 414.72 307.584 
" style="fill: none; stroke: #000000; stroke-width: 0.8; stroke-linejoin: miter; stroke-linecap: square"/>
   </g>
   <g id="patch_6">
    <path d="M 57.6 41.472 
L 414.72 41.472 
" style="fill: none; stroke: #000000; stroke-width: 0.8; stroke-linejoin: miter; stroke-linecap: square"/>
   </g>
   <g id="text_17">
    <!-- $\alpha=1$; $\ell=1.5$ -->
    <g transform="translate(197.7 35.472)scale(0.12 -0.12)">
     <defs>
      <path id="DejaVuSans-Oblique-3b1" d="M 2619 1628 
L 2622 2350 
Q 2625 3088 2069 3091 
Q 1653 3094 1394 2747 
Q 1069 2319 959 1747 
Q 825 1059 994 731 
Q 1169 397 1547 397 
Q 1966 397 2319 1063 
L 2619 1628 
z
M 2166 3578 
Q 3141 3594 3128 2584 
Q 3128 2584 3616 3500 
L 4128 3500 
L 3119 1603 
L 3109 919 
Q 3109 766 3194 638 
Q 3291 488 3391 488 
L 3669 488 
L 3575 0 
L 3228 0 
Q 2934 0 2722 263 
Q 2622 394 2619 669 
Q 2416 334 2066 50 
Q 1900 -81 1453 -78 
Q 722 -72 456 397 
Q 184 884 353 1747 
Q 534 2675 1009 3097 
Q 1544 3569 2166 3578 
z
" transform="scale(0.015625)"/>
      <path id="DejaVuSans-3d" d="M 678 2906 
L 4684 2906 
L 4684 2381 
L 678 2381 
L 678 2906 
z
M 678 1631 
L 4684 1631 
L 4684 1100 
L 678 1100 
L 678 1631 
z
" transform="scale(0.015625)"/>
      <path id="DejaVuSans-3b" d="M 750 3309 
L 1409 3309 
L 1409 2516 
L 750 2516 
L 750 3309 
z
M 750 794 
L 1409 794 
L 1409 256 
L 897 -744 
L 494 -744 
L 750 256 
L 750 794 
z
" transform="scale(0.015625)"/>
      <path id="DejaVuSans-20" transform="scale(0.015625)"/>
      <path id="DejaVuSans-Oblique-2113" d="M 950 838 
Q 1078 213 1350 213 
Q 1531 213 1766 572 
L 2181 572 
Q 1994 253 1775 88 
Q 1538 -91 1319 -91 
Q 831 -91 634 344 
L 400 0 
L -88 0 
Q 250 459 500 888 
Q 469 1131 469 1397 
Q 469 1872 566 2347 
Q 931 4131 1256 4497 
Q 1481 4750 1866 4750 
Q 2256 4750 2256 4209 
Q 2253 3966 2197 3675 
Q 1972 2484 950 838 
z
M 947 1656 
Q 1531 2744 1709 3613 
Q 1803 4072 1803 4191 
Q 1803 4406 1725 4406 
Q 1384 4134 1081 2516 
Q 997 2063 947 1656 
z
" transform="scale(0.015625)"/>
      <path id="DejaVuSans-2e" d="M 684 794 
L 1344 794 
L 1344 0 
L 684 0 
L 684 794 
z
" transform="scale(0.015625)"/>
      <path id="DejaVuSans-35" d="M 691 4666 
L 3169 4666 
L 3169 4134 
L 1269 4134 
L 1269 2991 
Q 1406 3038 1543 3061 
Q 1681 3084 1819 3084 
Q 2600 3084 3056 2656 
Q 3513 2228 3513 1497 
Q 3513 744 3044 326 
Q 2575 -91 1722 -91 
Q 1428 -91 1123 -41 
Q 819 9 494 109 
L 494 744 
Q 775 591 1075 516 
Q 1375 441 1709 441 
Q 2250 441 2565 725 
Q 2881 1009 2881 1497 
Q 2881 1984 2565 2268 
Q 2250 2553 1709 2553 
Q 1456 2553 1204 2497 
Q 953 2441 691 2322 
L 691 4666 
z
" transform="scale(0.015625)"/>
     </defs>
     <use xlink:href="#DejaVuSans-Oblique-3b1" transform="translate(0 0.78125)"/>
     <use xlink:href="#DejaVuSans-3d" transform="translate(85.400391 0.78125)"/>
     <use xlink:href="#DejaVuSans-31" transform="translate(188.671875 0.78125)"/>
     <use xlink:href="#DejaVuSans-3b" transform="translate(252.294922 0.78125)"/>
     <use xlink:href="#DejaVuSans-20" transform="translate(285.986328 0.78125)"/>
     <use xlink:href="#DejaVuSans-Oblique-2113" transform="translate(317.773438 0.78125)"/>
     <use xlink:href="#DejaVuSans-3d" transform="translate(378.564453 0.78125)"/>
     <use xlink:href="#DejaVuSans-31" transform="translate(481.835938 0.78125)"/>
     <use xlink:href="#DejaVuSans-2e" transform="translate(545.458984 0.78125)"/>
     <use xlink:href="#DejaVuSans-35" transform="translate(577.246094 0.78125)"/>
    </g>
   </g>
   <g id="legend_1">
    <g id="patch_7">
     <path d="M 64.6 108.1845 
L 223.382812 108.1845 
Q 225.382812 108.1845 225.382812 106.1845 
L 225.382812 48.472 
Q 225.382812 46.472 223.382812 46.472 
L 64.6 46.472 
Q 62.6 46.472 62.6 48.472 
L 62.6 106.1845 
Q 62.6 108.1845 64.6 108.1845 
z
" style="fill: #ffffff; opacity: 0.8; stroke: #cccccc; stroke-linejoin: miter"/>
    </g>
    <g id="PathCollection_2">
     <g>
      <use xlink:href="#m41c1d3ddaa" x="76.6" y="55.445438" style="stroke: #000000"/>
     </g>
    </g>
    <g id="text_18">
     <!-- Training Data -->
     <g transform="translate(94.6 58.070438)scale(0.1 -0.1)">
      <defs>
       <path id="DejaVuSans-54" d="M -19 4666 
L 3928 4666 
L 3928 4134 
L 2272 4134 
L 2272 0 
L 1638 0 
L 1638 4134 
L -19 4134 
L -19 4666 
z
" transform="scale(0.015625)"/>
       <path id="DejaVuSans-72" d="M 2631 2963 
Q 2534 3019 2420 3045 
Q 2306 3072 2169 3072 
Q 1681 3072 1420 2755 
Q 1159 2438 1159 1844 
L 1159 0 
L 581 0 
L 581 3500 
L 1159 3500 
L 1159 2956 
Q 1341 3275 1631 3429 
Q 1922 3584 2338 3584 
Q 2397 3584 2469 3576 
Q 2541 3569 2628 3553 
L 2631 2963 
z
" transform="scale(0.015625)"/>
       <path id="DejaVuSans-61" d="M 2194 1759 
Q 1497 1759 1228 1600 
Q 959 1441 959 1056 
Q 959 750 1161 570 
Q 1363 391 1709 391 
Q 2188 391 2477 730 
Q 2766 1069 2766 1631 
L 2766 1759 
L 2194 1759 
z
M 3341 1997 
L 3341 0 
L 2766 0 
L 2766 531 
Q 2569 213 2275 61 
Q 1981 -91 1556 -91 
Q 1019 -91 701 211 
Q 384 513 384 1019 
Q 384 1609 779 1909 
Q 1175 2209 1959 2209 
L 2766 2209 
L 2766 2266 
Q 2766 2663 2505 2880 
Q 2244 3097 1772 3097 
Q 1472 3097 1187 3025 
Q 903 2953 641 2809 
L 641 3341 
Q 956 3463 1253 3523 
Q 1550 3584 1831 3584 
Q 2591 3584 2966 3190 
Q 3341 2797 3341 1997 
z
" transform="scale(0.015625)"/>
       <path id="DejaVuSans-69" d="M 603 3500 
L 1178 3500 
L 1178 0 
L 603 0 
L 603 3500 
z
M 603 4863 
L 1178 4863 
L 1178 4134 
L 603 4134 
L 603 4863 
z
" transform="scale(0.015625)"/>
       <path id="DejaVuSans-6e" d="M 3513 2113 
L 3513 0 
L 2938 0 
L 2938 2094 
Q 2938 2591 2744 2837 
Q 2550 3084 2163 3084 
Q 1697 3084 1428 2787 
Q 1159 2491 1159 1978 
L 1159 0 
L 581 0 
L 581 3500 
L 1159 3500 
L 1159 2956 
Q 1366 3272 1645 3428 
Q 1925 3584 2291 3584 
Q 2894 3584 3203 3211 
Q 3513 2838 3513 2113 
z
" transform="scale(0.015625)"/>
       <path id="DejaVuSans-67" d="M 2906 1791 
Q 2906 2416 2648 2759 
Q 2391 3103 1925 3103 
Q 1463 3103 1205 2759 
Q 947 2416 947 1791 
Q 947 1169 1205 825 
Q 1463 481 1925 481 
Q 2391 481 2648 825 
Q 2906 1169 2906 1791 
z
M 3481 434 
Q 3481 -459 3084 -895 
Q 2688 -1331 1869 -1331 
Q 1566 -1331 1297 -1286 
Q 1028 -1241 775 -1147 
L 775 -588 
Q 1028 -725 1275 -790 
Q 1522 -856 1778 -856 
Q 2344 -856 2625 -561 
Q 2906 -266 2906 331 
L 2906 616 
Q 2728 306 2450 153 
Q 2172 0 1784 0 
Q 1141 0 747 490 
Q 353 981 353 1791 
Q 353 2603 747 3093 
Q 1141 3584 1784 3584 
Q 2172 3584 2450 3431 
Q 2728 3278 2906 2969 
L 2906 3500 
L 3481 3500 
L 3481 434 
z
" transform="scale(0.015625)"/>
       <path id="DejaVuSans-44" d="M 1259 4147 
L 1259 519 
L 2022 519 
Q 2988 519 3436 956 
Q 3884 1394 3884 2338 
Q 3884 3275 3436 3711 
Q 2988 4147 2022 4147 
L 1259 4147 
z
M 628 4666 
L 1925 4666 
Q 3281 4666 3915 4102 
Q 4550 3538 4550 2338 
Q 4550 1131 3912 565 
Q 3275 0 1925 0 
L 628 0 
L 628 4666 
z
" transform="scale(0.015625)"/>
       <path id="DejaVuSans-74" d="M 1172 4494 
L 1172 3500 
L 2356 3500 
L 2356 3053 
L 1172 3053 
L 1172 1153 
Q 1172 725 1289 603 
Q 1406 481 1766 481 
L 2356 481 
L 2356 0 
L 1766 0 
Q 1100 0 847 248 
Q 594 497 594 1153 
L 594 3053 
L 172 3053 
L 172 3500 
L 594 3500 
L 594 4494 
L 1172 4494 
z
" transform="scale(0.015625)"/>
      </defs>
      <use xlink:href="#DejaVuSans-54"/>
      <use xlink:href="#DejaVuSans-72" x="46.333984"/>
      <use xlink:href="#DejaVuSans-61" x="87.447266"/>
      <use xlink:href="#DejaVuSans-69" x="148.726562"/>
      <use xlink:href="#DejaVuSans-6e" x="176.509766"/>
      <use xlink:href="#DejaVuSans-69" x="239.888672"/>
      <use xlink:href="#DejaVuSans-6e" x="267.671875"/>
      <use xlink:href="#DejaVuSans-67" x="331.050781"/>
      <use xlink:href="#DejaVuSans-20" x="394.527344"/>
      <use xlink:href="#DejaVuSans-44" x="426.314453"/>
      <use xlink:href="#DejaVuSans-61" x="503.316406"/>
      <use xlink:href="#DejaVuSans-74" x="564.595703"/>
      <use xlink:href="#DejaVuSans-61" x="603.804688"/>
     </g>
    </g>
    <g id="line2d_17">
     <path d="M 66.6 69.248563 
L 76.6 69.248563 
L 86.6 69.248563 
" style="fill: none; stroke: #1f77b4; stroke-width: 1.5; stroke-linecap: square"/>
    </g>
    <g id="text_19">
     <!-- $f=x \sin x$ -->
     <g transform="translate(94.6 72.748563)scale(0.1 -0.1)">
      <defs>
       <path id="DejaVuSans-73" d="M 2834 3397 
L 2834 2853 
Q 2591 2978 2328 3040 
Q 2066 3103 1784 3103 
Q 1356 3103 1142 2972 
Q 928 2841 928 2578 
Q 928 2378 1081 2264 
Q 1234 2150 1697 2047 
L 1894 2003 
Q 2506 1872 2764 1633 
Q 3022 1394 3022 966 
Q 3022 478 2636 193 
Q 2250 -91 1575 -91 
Q 1294 -91 989 -36 
Q 684 19 347 128 
L 347 722 
Q 666 556 975 473 
Q 1284 391 1588 391 
Q 1994 391 2212 530 
Q 2431 669 2431 922 
Q 2431 1156 2273 1281 
Q 2116 1406 1581 1522 
L 1381 1569 
Q 847 1681 609 1914 
Q 372 2147 372 2553 
Q 372 3047 722 3315 
Q 1072 3584 1716 3584 
Q 2034 3584 2315 3537 
Q 2597 3491 2834 3397 
z
" transform="scale(0.015625)"/>
      </defs>
      <use xlink:href="#DejaVuSans-Oblique-66" transform="translate(0 0.015625)"/>
      <use xlink:href="#DejaVuSans-3d" transform="translate(54.6875 0.015625)"/>
      <use xlink:href="#DejaVuSans-Oblique-78" transform="translate(157.958984 0.015625)"/>
      <use xlink:href="#DejaVuSans-73" transform="translate(217.138672 0.015625)"/>
      <use xlink:href="#DejaVuSans-69" transform="translate(269.238281 0.015625)"/>
      <use xlink:href="#DejaVuSans-6e" transform="translate(297.021484 0.015625)"/>
      <use xlink:href="#DejaVuSans-Oblique-78" transform="translate(376.636067 0.015625)"/>
     </g>
    </g>
    <g id="line2d_18">
     <path d="M 66.6 83.926688 
L 76.6 83.926688 
L 86.6 83.926688 
" style="fill: none; stroke: #ff7f0e; stroke-width: 1.5; stroke-linecap: square"/>
    </g>
    <g id="text_20">
     <!-- Prediction -->
     <g transform="translate(94.6 87.426688)scale(0.1 -0.1)">
      <defs>
       <path id="DejaVuSans-50" d="M 1259 4147 
L 1259 2394 
L 2053 2394 
Q 2494 2394 2734 2622 
Q 2975 2850 2975 3272 
Q 2975 3691 2734 3919 
Q 2494 4147 2053 4147 
L 1259 4147 
z
M 628 4666 
L 2053 4666 
Q 2838 4666 3239 4311 
Q 3641 3956 3641 3272 
Q 3641 2581 3239 2228 
Q 2838 1875 2053 1875 
L 1259 1875 
L 1259 0 
L 628 0 
L 628 4666 
z
" transform="scale(0.015625)"/>
       <path id="DejaVuSans-65" d="M 3597 1894 
L 3597 1613 
L 953 1613 
Q 991 1019 1311 708 
Q 1631 397 2203 397 
Q 2534 397 2845 478 
Q 3156 559 3463 722 
L 3463 178 
Q 3153 47 2828 -22 
Q 2503 -91 2169 -91 
Q 1331 -91 842 396 
Q 353 884 353 1716 
Q 353 2575 817 3079 
Q 1281 3584 2069 3584 
Q 2775 3584 3186 3129 
Q 3597 2675 3597 1894 
z
M 3022 2063 
Q 3016 2534 2758 2815 
Q 2500 3097 2075 3097 
Q 1594 3097 1305 2825 
Q 1016 2553 972 2059 
L 3022 2063 
z
" transform="scale(0.015625)"/>
       <path id="DejaVuSans-64" d="M 2906 2969 
L 2906 4863 
L 3481 4863 
L 3481 0 
L 2906 0 
L 2906 525 
Q 2725 213 2448 61 
Q 2172 -91 1784 -91 
Q 1150 -91 751 415 
Q 353 922 353 1747 
Q 353 2572 751 3078 
Q 1150 3584 1784 3584 
Q 2172 3584 2448 3432 
Q 2725 3281 2906 2969 
z
M 947 1747 
Q 947 1113 1208 752 
Q 1469 391 1925 391 
Q 2381 391 2643 752 
Q 2906 1113 2906 1747 
Q 2906 2381 2643 2742 
Q 2381 3103 1925 3103 
Q 1469 3103 1208 2742 
Q 947 2381 947 1747 
z
" transform="scale(0.015625)"/>
       <path id="DejaVuSans-63" d="M 3122 3366 
L 3122 2828 
Q 2878 2963 2633 3030 
Q 2388 3097 2138 3097 
Q 1578 3097 1268 2742 
Q 959 2388 959 1747 
Q 959 1106 1268 751 
Q 1578 397 2138 397 
Q 2388 397 2633 464 
Q 2878 531 3122 666 
L 3122 134 
Q 2881 22 2623 -34 
Q 2366 -91 2075 -91 
Q 1284 -91 818 406 
Q 353 903 353 1747 
Q 353 2603 823 3093 
Q 1294 3584 2113 3584 
Q 2378 3584 2631 3529 
Q 2884 3475 3122 3366 
z
" transform="scale(0.015625)"/>
       <path id="DejaVuSans-6f" d="M 1959 3097 
Q 1497 3097 1228 2736 
Q 959 2375 959 1747 
Q 959 1119 1226 758 
Q 1494 397 1959 397 
Q 2419 397 2687 759 
Q 2956 1122 2956 1747 
Q 2956 2369 2687 2733 
Q 2419 3097 1959 3097 
z
M 1959 3584 
Q 2709 3584 3137 3096 
Q 3566 2609 3566 1747 
Q 3566 888 3137 398 
Q 2709 -91 1959 -91 
Q 1206 -91 779 398 
Q 353 888 353 1747 
Q 353 2609 779 3096 
Q 1206 3584 1959 3584 
z
" transform="scale(0.015625)"/>
      </defs>
      <use xlink:href="#DejaVuSans-50"/>
      <use xlink:href="#DejaVuSans-72" x="58.552734"/>
      <use xlink:href="#DejaVuSans-65" x="97.416016"/>
      <use xlink:href="#DejaVuSans-64" x="158.939453"/>
      <use xlink:href="#DejaVuSans-69" x="222.416016"/>
      <use xlink:href="#DejaVuSans-63" x="250.199219"/>
      <use xlink:href="#DejaVuSans-74" x="305.179688"/>
      <use xlink:href="#DejaVuSans-69" x="344.388672"/>
      <use xlink:href="#DejaVuSans-6f" x="372.171875"/>
      <use xlink:href="#DejaVuSans-6e" x="433.353516"/>
     </g>
    </g>
    <g id="patch_8">
     <path d="M 66.6 102.104813 
L 86.6 102.104813 
L 86.6 95.104813 
L 66.6 95.104813 
z
" style="fill: #ff7f0e; fill-opacity: 0.25; stroke: #ff7f0e; stroke-opacity: 0.25; stroke-linejoin: miter"/>
    </g>
    <g id="text_21">
     <!-- Prediction Mean Intervals -->
     <g transform="translate(94.6 102.104813)scale(0.1 -0.1)">
      <defs>
       <path id="DejaVuSans-4d" d="M 628 4666 
L 1569 4666 
L 2759 1491 
L 3956 4666 
L 4897 4666 
L 4897 0 
L 4281 0 
L 4281 4097 
L 3078 897 
L 2444 897 
L 1241 4097 
L 1241 0 
L 628 0 
L 628 4666 
z
" transform="scale(0.015625)"/>
       <path id="DejaVuSans-49" d="M 628 4666 
L 1259 4666 
L 1259 0 
L 628 0 
L 628 4666 
z
" transform="scale(0.015625)"/>
       <path id="DejaVuSans-76" d="M 191 3500 
L 800 3500 
L 1894 563 
L 2988 3500 
L 3597 3500 
L 2284 0 
L 1503 0 
L 191 3500 
z
" transform="scale(0.015625)"/>
       <path id="DejaVuSans-6c" d="M 603 4863 
L 1178 4863 
L 1178 0 
L 603 0 
L 603 4863 
z
" transform="scale(0.015625)"/>
      </defs>
      <use xlink:href="#DejaVuSans-50"/>
      <use xlink:href="#DejaVuSans-72" x="58.552734"/>
      <use xlink:href="#DejaVuSans-65" x="97.416016"/>
      <use xlink:href="#DejaVuSans-64" x="158.939453"/>
      <use xlink:href="#DejaVuSans-69" x="222.416016"/>
      <use xlink:href="#DejaVuSans-63" x="250.199219"/>
      <use xlink:href="#DejaVuSans-74" x="305.179688"/>
      <use xlink:href="#DejaVuSans-69" x="344.388672"/>
      <use xlink:href="#DejaVuSans-6f" x="372.171875"/>
      <use xlink:href="#DejaVuSans-6e" x="433.353516"/>
      <use xlink:href="#DejaVuSans-20" x="496.732422"/>
      <use xlink:href="#DejaVuSans-4d" x="528.519531"/>
      <use xlink:href="#DejaVuSans-65" x="614.798828"/>
      <use xlink:href="#DejaVuSans-61" x="676.322266"/>
      <use xlink:href="#DejaVuSans-6e" x="737.601562"/>
      <use xlink:href="#DejaVuSans-20" x="800.980469"/>
      <use xlink:href="#DejaVuSans-49" x="832.767578"/>
      <use xlink:href="#DejaVuSans-6e" x="862.259766"/>
      <use xlink:href="#DejaVuSans-74" x="925.638672"/>
      <use xlink:href="#DejaVuSans-65" x="964.847656"/>
      <use xlink:href="#DejaVuSans-72" x="1026.371094"/>
      <use xlink:href="#DejaVuSans-76" x="1067.484375"/>
      <use xlink:href="#DejaVuSans-61" x="1126.664062"/>
      <use xlink:href="#DejaVuSans-6c" x="1187.943359"/>
      <use xlink:href="#DejaVuSans-73" x="1215.726562"/>
     </g>
    </g>
   </g>
  </g>
 </g>
 <defs>
  <clipPath id="pe6cf9bcb96">
   <rect x="57.6" y="41.472" width="357.12" height="266.112"/>
  </clipPath>
 </defs>
</svg>
