<?xml version="1.0" encoding="utf-8" standalone="no"?>
<!DOCTYPE svg PUBLIC "-//W3C//DTD SVG 1.1//EN"
  "http://www.w3.org/Graphics/SVG/1.1/DTD/svg11.dtd">
<svg xmlns:xlink="http://www.w3.org/1999/xlink" width="460.8pt" height="345.6pt" viewBox="0 0 460.8 345.6" xmlns="http://www.w3.org/2000/svg" version="1.1">
 <metadata>
  <rdf:RDF xmlns:dc="http://purl.org/dc/elements/1.1/" xmlns:cc="http://creativecommons.org/ns#" xmlns:rdf="http://www.w3.org/1999/02/22-rdf-syntax-ns#">
   <cc:Work>
    <dc:type rdf:resource="http://purl.org/dc/dcmitype/StillImage"/>
    <dc:date>2023-06-27T16:32:50.313063</dc:date>
    <dc:format>image/svg+xml</dc:format>
    <dc:creator>
     <cc:Agent>
      <dc:title>Matplotlib v3.5.2, https://matplotlib.org/</dc:title>
     </cc:Agent>
    </dc:creator>
   </cc:Work>
  </rdf:RDF>
 </metadata>
 <defs>
  <style type="text/css">*{stroke-linejoin: round; stroke-linecap: butt}</style>
 </defs>
 <g id="figure_1">
  <g id="patch_1">
   <path d="M 0 345.6 
L 460.8 345.6 
L 460.8 0 
L 0 0 
z
" style="fill: #ffffff"/>
  </g>
  <g id="axes_1">
   <g id="patch_2">
    <path d="M 57.6 307.584 
L 414.72 307.584 
L 414.72 41.472 
L 57.6 41.472 
z
" style="fill: #ffffff"/>
   </g>
   <g id="PathCollection_1">
    <defs>
     <path id="m817adac2ad" d="M 0 3 
C 0.795609 3 1.55874 2.683901 2.12132 2.12132 
C 2.683901 1.55874 3 0.795609 3 0 
C 3 -0.795609 2.683901 -1.55874 2.12132 -2.12132 
C 1.55874 -2.683901 0.795609 -3 0 -3 
C -0.795609 -3 -1.55874 -2.683901 -2.12132 -2.12132 
C -2.683901 -1.55874 -3 -0.795609 -3 0 
C -3 0.795609 -2.683901 1.55874 -2.12132 2.12132 
C -1.55874 2.683901 -0.795609 3 0 3 
z
" style="stroke: #000000"/>
    </defs>
    <g clip-path="url(#p64c50b6d41)">
     <use xlink:href="#m817adac2ad" x="209.220817" y="245.587923" style="stroke: #000000"/>
     <use xlink:href="#m817adac2ad" x="307.689348" y="131.798825" style="stroke: #000000"/>
     <use xlink:href="#m817adac2ad" x="73.86986" y="197.391003" style="stroke: #000000"/>
     <use xlink:href="#m817adac2ad" x="171.986371" y="173.035495" style="stroke: #000000"/>
     <use xlink:href="#m817adac2ad" x="121.477694" y="164.783511" style="stroke: #000000"/>
     <use xlink:href="#m817adac2ad" x="103.810872" y="167.908463" style="stroke: #000000"/>
     <use xlink:href="#m817adac2ad" x="134.302952" y="166.879523" style="stroke: #000000"/>
     <use xlink:href="#m817adac2ad" x="186.020588" y="213.105018" style="stroke: #000000"/>
     <use xlink:href="#m817adac2ad" x="202.645091" y="236.999343" style="stroke: #000000"/>
     <use xlink:href="#m817adac2ad" x="248.762029" y="254.366367" style="stroke: #000000"/>
     <use xlink:href="#m817adac2ad" x="209.926132" y="248.562486" style="stroke: #000000"/>
     <use xlink:href="#m817adac2ad" x="296.292353" y="130.132781" style="stroke: #000000"/>
     <use xlink:href="#m817adac2ad" x="140.209079" y="173.623509" style="stroke: #000000"/>
     <use xlink:href="#m817adac2ad" x="358.917544" y="100.13926" style="stroke: #000000"/>
     <use xlink:href="#m817adac2ad" x="82.724234" y="189.188699" style="stroke: #000000"/>
     <use xlink:href="#m817adac2ad" x="291.503052" y="129.127381" style="stroke: #000000"/>
     <use xlink:href="#m817adac2ad" x="209.312628" y="231.297368" style="stroke: #000000"/>
     <use xlink:href="#m817adac2ad" x="255.21392" y="247.900969" style="stroke: #000000"/>
     <use xlink:href="#m817adac2ad" x="119.409985" y="175.904606" style="stroke: #000000"/>
     <use xlink:href="#m817adac2ad" x="138.147276" y="173.146158" style="stroke: #000000"/>
     <use xlink:href="#m817adac2ad" x="333.798091" y="56.19778" style="stroke: #000000"/>
     <use xlink:href="#m817adac2ad" x="388.183249" y="231.458758" style="stroke: #000000"/>
     <use xlink:href="#m817adac2ad" x="175.587311" y="197.629702" style="stroke: #000000"/>
     <use xlink:href="#m817adac2ad" x="298.598411" y="124.131156" style="stroke: #000000"/>
     <use xlink:href="#m817adac2ad" x="358.356449" y="114.638576" style="stroke: #000000"/>
     <use xlink:href="#m817adac2ad" x="364.270847" y="113.666804" style="stroke: #000000"/>
     <use xlink:href="#m817adac2ad" x="101.442717" y="189.251676" style="stroke: #000000"/>
     <use xlink:href="#m817adac2ad" x="86.51204" y="169.956371" style="stroke: #000000"/>
     <use xlink:href="#m817adac2ad" x="128.968945" y="158.278998" style="stroke: #000000"/>
     <use xlink:href="#m817adac2ad" x="358.925683" y="96.636739" style="stroke: #000000"/>
     <use xlink:href="#m817adac2ad" x="105.761474" y="196.901676" style="stroke: #000000"/>
     <use xlink:href="#m817adac2ad" x="210.547232" y="249.949506" style="stroke: #000000"/>
     <use xlink:href="#m817adac2ad" x="384.815917" y="204.312229" style="stroke: #000000"/>
     <use xlink:href="#m817adac2ad" x="246.927261" y="278.8932" style="stroke: #000000"/>
     <use xlink:href="#m817adac2ad" x="298.453777" y="129.640322" style="stroke: #000000"/>
     <use xlink:href="#m817adac2ad" x="176.266311" y="192.555149" style="stroke: #000000"/>
     <use xlink:href="#m817adac2ad" x="296.708374" y="153.189808" style="stroke: #000000"/>
     <use xlink:href="#m817adac2ad" x="344.797745" y="67.084986" style="stroke: #000000"/>
     <use xlink:href="#m817adac2ad" x="79.7701" y="178.022578" style="stroke: #000000"/>
     <use xlink:href="#m817adac2ad" x="317.370489" y="91.422424" style="stroke: #000000"/>
     <use xlink:href="#m817adac2ad" x="394.870975" y="258.932434" style="stroke: #000000"/>
     <use xlink:href="#m817adac2ad" x="316.728108" y="99.979626" style="stroke: #000000"/>
     <use xlink:href="#m817adac2ad" x="164.880144" y="177.865806" style="stroke: #000000"/>
     <use xlink:href="#m817adac2ad" x="330.075849" y="89.944103" style="stroke: #000000"/>
     <use xlink:href="#m817adac2ad" x="107.34552" y="159.593018" style="stroke: #000000"/>
     <use xlink:href="#m817adac2ad" x="219.243396" y="256.892408" style="stroke: #000000"/>
     <use xlink:href="#m817adac2ad" x="368.812387" y="143.456656" style="stroke: #000000"/>
     <use xlink:href="#m817adac2ad" x="169.155895" y="195.266662" style="stroke: #000000"/>
     <use xlink:href="#m817adac2ad" x="167.260299" y="159.320696" style="stroke: #000000"/>
     <use xlink:href="#m817adac2ad" x="116.047094" y="139.785044" style="stroke: #000000"/>
     <use xlink:href="#m817adac2ad" x="80.120298" y="222.132067" style="stroke: #000000"/>
     <use xlink:href="#m817adac2ad" x="294.219769" y="118.526445" style="stroke: #000000"/>
     <use xlink:href="#m817adac2ad" x="142.538757" y="136.244913" style="stroke: #000000"/>
     <use xlink:href="#m817adac2ad" x="160.043657" y="166.599804" style="stroke: #000000"/>
     <use xlink:href="#m817adac2ad" x="233.424188" y="290.629419" style="stroke: #000000"/>
     <use xlink:href="#m817adac2ad" x="91.15712" y="173.851039" style="stroke: #000000"/>
     <use xlink:href="#m817adac2ad" x="260.222618" y="243.72583" style="stroke: #000000"/>
     <use xlink:href="#m817adac2ad" x="121.468826" y="178.413158" style="stroke: #000000"/>
     <use xlink:href="#m817adac2ad" x="265.153448" y="249.095236" style="stroke: #000000"/>
     <use xlink:href="#m817adac2ad" x="301.01246" y="108.501585" style="stroke: #000000"/>
     <use xlink:href="#m817adac2ad" x="107.056065" y="165.163275" style="stroke: #000000"/>
     <use xlink:href="#m817adac2ad" x="208.257886" y="259.454619" style="stroke: #000000"/>
     <use xlink:href="#m817adac2ad" x="299.272895" y="114.260995" style="stroke: #000000"/>
     <use xlink:href="#m817adac2ad" x="208.29791" y="268.024651" style="stroke: #000000"/>
     <use xlink:href="#m817adac2ad" x="90.050345" y="175.380611" style="stroke: #000000"/>
     <use xlink:href="#m817adac2ad" x="247.813931" y="261.50186" style="stroke: #000000"/>
     <use xlink:href="#m817adac2ad" x="289.336676" y="157.76897" style="stroke: #000000"/>
     <use xlink:href="#m817adac2ad" x="240.993818" y="270.276889" style="stroke: #000000"/>
     <use xlink:href="#m817adac2ad" x="380.499708" y="181.4611" style="stroke: #000000"/>
     <use xlink:href="#m817adac2ad" x="264.260487" y="218.994664" style="stroke: #000000"/>
     <use xlink:href="#m817adac2ad" x="367.126265" y="127.527567" style="stroke: #000000"/>
     <use xlink:href="#m817adac2ad" x="118.464515" y="168.111604" style="stroke: #000000"/>
     <use xlink:href="#m817adac2ad" x="119.049426" y="168.724906" style="stroke: #000000"/>
     <use xlink:href="#m817adac2ad" x="335.955979" y="53.568" style="stroke: #000000"/>
     <use xlink:href="#m817adac2ad" x="202.94032" y="236.756622" style="stroke: #000000"/>
     <use xlink:href="#m817adac2ad" x="127.515719" y="154.318693" style="stroke: #000000"/>
     <use xlink:href="#m817adac2ad" x="374.952604" y="174.858431" style="stroke: #000000"/>
     <use xlink:href="#m817adac2ad" x="186.736494" y="250.89951" style="stroke: #000000"/>
     <use xlink:href="#m817adac2ad" x="317.587289" y="60.02838" style="stroke: #000000"/>
     <use xlink:href="#m817adac2ad" x="309.531273" y="58.377866" style="stroke: #000000"/>
     <use xlink:href="#m817adac2ad" x="360.602065" y="104.69143" style="stroke: #000000"/>
     <use xlink:href="#m817adac2ad" x="276.310744" y="198.757133" style="stroke: #000000"/>
     <use xlink:href="#m817adac2ad" x="317.629602" y="79.153529" style="stroke: #000000"/>
     <use xlink:href="#m817adac2ad" x="187.10416" y="213.737864" style="stroke: #000000"/>
     <use xlink:href="#m817adac2ad" x="161.466044" y="173.230136" style="stroke: #000000"/>
     <use xlink:href="#m817adac2ad" x="364.68626" y="144.970621" style="stroke: #000000"/>
     <use xlink:href="#m817adac2ad" x="212.814478" y="264.359967" style="stroke: #000000"/>
     <use xlink:href="#m817adac2ad" x="387.072434" y="243.630021" style="stroke: #000000"/>
     <use xlink:href="#m817adac2ad" x="289.222025" y="151.035935" style="stroke: #000000"/>
     <use xlink:href="#m817adac2ad" x="275.669069" y="203.956059" style="stroke: #000000"/>
     <use xlink:href="#m817adac2ad" x="111.085529" y="167.208811" style="stroke: #000000"/>
     <use xlink:href="#m817adac2ad" x="382.088731" y="206.109335" style="stroke: #000000"/>
     <use xlink:href="#m817adac2ad" x="219.898746" y="248.108843" style="stroke: #000000"/>
     <use xlink:href="#m817adac2ad" x="261.609545" y="234.14066" style="stroke: #000000"/>
     <use xlink:href="#m817adac2ad" x="206.336195" y="210.435332" style="stroke: #000000"/>
     <use xlink:href="#m817adac2ad" x="150.784614" y="196.376212" style="stroke: #000000"/>
     <use xlink:href="#m817adac2ad" x="367.118995" y="146.715862" style="stroke: #000000"/>
     <use xlink:href="#m817adac2ad" x="260.08038" y="226.357907" style="stroke: #000000"/>
     <use xlink:href="#m817adac2ad" x="74.764592" y="151.072493" style="stroke: #000000"/>
     <use xlink:href="#m817adac2ad" x="274.191629" y="207.692075" style="stroke: #000000"/>
    </g>
   </g>
   <g id="PolyCollection_1">
    <defs>
     <path id="m7db5520043" d="M 73.832727 -174.174479 
L 73.832727 -145.346999 
L 74.157707 -145.681472 
L 74.482686 -146.011656 
L 74.807666 -146.337545 
L 75.132645 -146.659133 
L 75.457625 -146.976416 
L 75.782604 -147.289394 
L 76.107584 -147.598067 
L 76.432563 -147.902438 
L 76.757543 -148.202515 
L 77.082523 -148.498305 
L 77.407502 -148.789822 
L 77.732482 -149.077079 
L 78.057461 -149.360097 
L 78.382441 -149.638897 
L 78.70742 -149.913506 
L 79.0324 -150.183953 
L 79.357379 -150.450274 
L 79.682359 -150.712505 
L 80.007338 -150.970691 
L 80.332318 -151.224878 
L 80.657297 -151.475119 
L 80.982277 -151.721469 
L 81.307256 -151.96399 
L 81.632236 -152.202746 
L 81.957215 -152.437809 
L 82.282195 -152.669253 
L 82.607174 -152.897157 
L 82.932154 -153.121604 
L 83.257133 -153.342681 
L 83.582113 -153.560479 
L 83.907093 -153.775095 
L 84.232072 -153.986625 
L 84.557052 -154.195172 
L 84.882031 -154.400839 
L 85.207011 -154.603735 
L 85.53199 -154.803967 
L 85.85697 -155.001647 
L 86.181949 -155.196887 
L 86.506929 -155.389801 
L 86.831908 -155.580503 
L 87.156888 -155.769107 
L 87.481867 -155.955729 
L 87.806847 -156.140482 
L 88.131826 -156.323479 
L 88.456806 -156.504834 
L 88.781785 -156.684657 
L 89.106765 -156.863058 
L 89.431744 -157.040143 
L 89.756724 -157.216017 
L 90.081704 -157.390784 
L 90.406683 -157.564541 
L 90.731663 -157.737386 
L 91.056642 -157.909413 
L 91.381622 -158.080711 
L 91.706601 -158.251366 
L 92.031581 -158.421461 
L 92.35656 -158.591076 
L 92.68154 -158.760285 
L 93.006519 -158.929161 
L 93.331499 -159.09777 
L 93.656478 -159.266176 
L 93.981458 -159.434438 
L 94.306437 -159.602612 
L 94.631417 -159.77075 
L 94.956396 -159.938899 
L 95.281376 -160.107103 
L 95.606355 -160.275401 
L 95.931335 -160.44383 
L 96.256314 -160.612423 
L 96.581294 -160.781207 
L 96.906274 -160.950208 
L 97.231253 -161.119447 
L 97.556233 -161.288942 
L 97.881212 -161.458709 
L 98.206192 -161.628758 
L 98.531171 -161.799099 
L 98.856151 -161.969735 
L 99.18113 -162.14067 
L 99.50611 -162.311903 
L 99.831089 -162.48343 
L 100.156069 -162.655246 
L 100.481048 -162.827341 
L 100.806028 -162.999704 
L 101.131007 -163.172322 
L 101.455987 -163.345178 
L 101.780966 -163.518255 
L 102.105946 -163.691532 
L 102.430925 -163.864987 
L 102.755905 -164.038594 
L 103.080885 -164.212328 
L 103.405864 -164.386161 
L 103.730844 -164.560063 
L 104.055823 -164.734002 
L 104.380803 -164.907945 
L 104.705782 -165.081858 
L 105.030762 -165.255704 
L 105.355741 -165.429447 
L 105.680721 -165.603047 
L 106.0057 -165.776465 
L 106.33068 -165.94966 
L 106.655659 -166.122591 
L 106.980639 -166.295213 
L 107.305618 -166.467483 
L 107.630598 -166.639357 
L 107.955577 -166.810788 
L 108.280557 -166.981731 
L 108.605536 -167.152138 
L 108.930516 -167.321962 
L 109.255495 -167.491155 
L 109.580475 -167.659667 
L 109.905455 -167.827451 
L 110.230434 -167.994456 
L 110.555414 -168.160632 
L 110.880393 -168.325929 
L 111.205373 -168.490298 
L 111.530352 -168.653687 
L 111.855332 -168.816046 
L 112.180311 -168.977323 
L 112.505291 -169.13747 
L 112.83027 -169.296433 
L 113.15525 -169.454164 
L 113.480229 -169.61061 
L 113.805209 -169.765723 
L 114.130188 -169.919451 
L 114.455168 -170.071744 
L 114.780147 -170.222554 
L 115.105127 -170.37183 
L 115.430106 -170.519524 
L 115.755086 -170.665586 
L 116.080066 -170.809969 
L 116.405045 -170.952625 
L 116.730025 -171.093506 
L 117.055004 -171.232566 
L 117.379984 -171.369759 
L 117.704963 -171.50504 
L 118.029943 -171.638362 
L 118.354922 -171.769682 
L 118.679902 -171.898956 
L 119.004881 -172.026142 
L 119.329861 -172.151196 
L 119.65484 -172.274077 
L 119.97982 -172.394745 
L 120.304799 -172.513158 
L 120.629779 -172.629279 
L 120.954758 -172.743068 
L 121.279738 -172.854487 
L 121.604717 -172.963499 
L 121.929697 -173.070069 
L 122.254676 -173.17416 
L 122.579656 -173.275737 
L 122.904636 -173.374768 
L 123.229615 -173.471219 
L 123.554595 -173.565057 
L 123.879574 -173.65625 
L 124.204554 -173.744769 
L 124.529533 -173.830583 
L 124.854513 -173.913662 
L 125.179492 -173.993979 
L 125.504472 -174.071505 
L 125.829451 -174.146213 
L 126.154431 -174.218077 
L 126.47941 -174.287071 
L 126.80439 -174.35317 
L 127.129369 -174.41635 
L 127.454349 -174.476587 
L 127.779328 -174.533857 
L 128.104308 -174.588139 
L 128.429287 -174.63941 
L 128.754267 -174.687649 
L 129.079247 -174.732835 
L 129.404226 -174.774947 
L 129.729206 -174.813967 
L 130.054185 -174.849874 
L 130.379165 -174.88265 
L 130.704144 -174.912276 
L 131.029124 -174.938734 
L 131.354103 -174.962007 
L 131.679083 -174.982077 
L 132.004062 -174.998928 
L 132.329042 -175.012543 
L 132.654021 -175.022906 
L 132.979001 -175.030001 
L 133.30398 -175.033812 
L 133.62896 -175.034325 
L 133.953939 -175.031525 
L 134.278919 -175.025396 
L 134.603898 -175.015924 
L 134.928878 -175.003095 
L 135.253857 -174.986895 
L 135.578837 -174.96731 
L 135.903817 -174.944326 
L 136.228796 -174.91793 
L 136.553776 -174.88811 
L 136.878755 -174.85485 
L 137.203735 -174.818139 
L 137.528714 -174.777964 
L 137.853694 -174.734312 
L 138.178673 -174.687171 
L 138.503653 -174.636528 
L 138.828632 -174.58237 
L 139.153612 -174.524686 
L 139.478591 -174.463464 
L 139.803571 -174.398692 
L 140.12855 -174.330358 
L 140.45353 -174.258449 
L 140.778509 -174.182956 
L 141.103489 -174.103865 
L 141.428468 -174.021166 
L 141.753448 -173.934848 
L 142.078428 -173.844899 
L 142.403407 -173.751309 
L 142.728387 -173.654065 
L 143.053366 -173.553158 
L 143.378346 -173.448578 
L 143.703325 -173.340312 
L 144.028305 -173.228351 
L 144.353284 -173.112685 
L 144.678264 -172.993304 
L 145.003243 -172.870197 
L 145.328223 -172.743354 
L 145.653202 -172.612767 
L 145.978182 -172.478424 
L 146.303161 -172.340318 
L 146.628141 -172.198438 
L 146.95312 -172.052776 
L 147.2781 -171.903323 
L 147.603079 -171.75007 
L 147.928059 -171.593009 
L 148.253038 -171.432132 
L 148.578018 -171.26743 
L 148.902998 -171.098895 
L 149.227977 -170.926521 
L 149.552957 -170.7503 
L 149.877936 -170.570224 
L 150.202916 -170.386287 
L 150.527895 -170.198483 
L 150.852875 -170.006804 
L 151.177854 -169.811246 
L 151.502834 -169.611802 
L 151.827813 -169.408467 
L 152.152793 -169.201235 
L 152.477772 -168.990103 
L 152.802752 -168.775065 
L 153.127731 -168.556117 
L 153.452711 -168.333256 
L 153.77769 -168.106478 
L 154.10267 -167.87578 
L 154.427649 -167.641159 
L 154.752629 -167.402613 
L 155.077609 -167.16014 
L 155.402588 -166.913738 
L 155.727568 -166.663406 
L 156.052547 -166.409144 
L 156.377527 -166.150951 
L 156.702506 -165.888826 
L 157.027486 -165.622771 
L 157.352465 -165.352787 
L 157.677445 -165.078875 
L 158.002424 -164.801036 
L 158.327404 -164.519273 
L 158.652383 -164.233589 
L 158.977363 -163.943987 
L 159.302342 -163.65047 
L 159.627322 -163.353044 
L 159.952301 -163.051712 
L 160.277281 -162.74648 
L 160.60226 -162.437354 
L 160.92724 -162.124339 
L 161.252219 -161.807443 
L 161.577199 -161.486674 
L 161.902179 -161.162038 
L 162.227158 -160.833544 
L 162.552138 -160.501202 
L 162.877117 -160.16502 
L 163.202097 -159.825009 
L 163.527076 -159.48118 
L 163.852056 -159.133544 
L 164.177035 -158.782111 
L 164.502015 -158.426896 
L 164.826994 -158.067911 
L 165.151974 -157.705168 
L 165.476953 -157.338684 
L 165.801933 -156.968472 
L 166.126912 -156.594547 
L 166.451892 -156.216926 
L 166.776871 -155.835625 
L 167.101851 -155.450662 
L 167.42683 -155.062054 
L 167.75181 -154.669819 
L 168.07679 -154.273978 
L 168.401769 -153.874549 
L 168.726749 -153.471553 
L 169.051728 -153.06501 
L 169.376708 -152.654943 
L 169.701687 -152.241374 
L 170.026667 -151.824325 
L 170.351646 -151.403821 
L 170.676626 -150.979885 
L 171.001605 -150.552542 
L 171.326585 -150.121818 
L 171.651564 -149.687738 
L 171.976544 -149.250331 
L 172.301523 -148.809622 
L 172.626503 -148.365641 
L 172.951482 -147.918415 
L 173.276462 -147.467975 
L 173.601441 -147.01435 
L 173.926421 -146.557572 
L 174.2514 -146.097671 
L 174.57638 -145.634679 
L 174.90136 -145.16863 
L 175.226339 -144.699557 
L 175.551319 -144.227493 
L 175.876298 -143.752474 
L 176.201278 -143.274534 
L 176.526257 -142.79371 
L 176.851237 -142.310038 
L 177.176216 -141.823556 
L 177.501196 -141.334301 
L 177.826175 -140.842312 
L 178.151155 -140.347629 
L 178.476134 -139.850291 
L 178.801114 -139.350338 
L 179.126093 -138.847813 
L 179.451073 -138.342756 
L 179.776052 -137.83521 
L 180.101032 -137.325218 
L 180.426011 -136.812824 
L 180.750991 -136.298073 
L 181.075971 -135.781008 
L 181.40095 -135.261677 
L 181.72593 -134.740124 
L 182.050909 -134.216398 
L 182.375889 -133.690545 
L 182.700868 -133.162613 
L 183.025848 -132.632652 
L 183.350827 -132.10071 
L 183.675807 -131.566837 
L 184.000786 -131.031085 
L 184.325766 -130.493503 
L 184.650745 -129.954145 
L 184.975725 -129.413061 
L 185.300704 -128.870306 
L 185.625684 -128.325932 
L 185.950663 -127.779995 
L 186.275643 -127.232547 
L 186.600622 -126.683645 
L 186.925602 -126.133345 
L 187.250581 -125.581703 
L 187.575561 -125.028775 
L 187.900541 -124.47462 
L 188.22552 -123.919296 
L 188.5505 -123.36286 
L 188.875479 -122.805373 
L 189.200459 -122.246895 
L 189.525438 -121.687485 
L 189.850418 -121.127204 
L 190.175397 -120.566114 
L 190.500377 -120.004276 
L 190.825356 -119.441754 
L 191.150336 -118.878609 
L 191.475315 -118.314907 
L 191.800295 -117.750709 
L 192.125274 -117.186082 
L 192.450254 -116.621089 
L 192.775233 -116.055797 
L 193.100213 -115.490272 
L 193.425192 -114.924579 
L 193.750172 -114.358787 
L 194.075152 -113.792961 
L 194.400131 -113.227171 
L 194.725111 -112.661485 
L 195.05009 -112.095971 
L 195.37507 -111.530699 
L 195.700049 -110.965738 
L 196.025029 -110.401159 
L 196.350008 -109.837032 
L 196.674988 -109.273429 
L 196.999967 -108.71042 
L 197.324947 -108.148077 
L 197.649926 -107.586474 
L 197.974906 -107.025682 
L 198.299885 -106.465774 
L 198.624865 -105.906825 
L 198.949844 -105.348908 
L 199.274824 -104.792096 
L 199.599803 -104.236465 
L 199.924783 -103.68209 
L 200.249762 -103.129045 
L 200.574742 -102.577407 
L 200.899722 -102.02725 
L 201.224701 -101.478653 
L 201.549681 -100.93169 
L 201.87466 -100.386439 
L 202.19964 -99.842977 
L 202.524619 -99.301381 
L 202.849599 -98.761729 
L 203.174578 -98.224099 
L 203.499558 -97.688569 
L 203.824537 -97.155217 
L 204.149517 -96.624122 
L 204.474496 -96.095363 
L 204.799476 -95.569019 
L 205.124455 -95.045169 
L 205.449435 -94.523893 
L 205.774414 -94.00527 
L 206.099394 -93.489379 
L 206.424373 -92.976301 
L 206.749353 -92.466115 
L 207.074333 -91.958903 
L 207.399312 -91.454743 
L 207.724292 -90.953716 
L 208.049271 -90.455903 
L 208.374251 -89.961384 
L 208.69923 -89.470239 
L 209.02421 -88.98255 
L 209.349189 -88.498396 
L 209.674169 -88.017858 
L 209.999148 -87.541017 
L 210.324128 -87.067953 
L 210.649107 -86.598746 
L 210.974087 -86.133478 
L 211.299066 -85.672228 
L 211.624046 -85.215077 
L 211.949025 -84.762104 
L 212.274005 -84.313391 
L 212.598984 -83.869017 
L 212.923964 -83.429061 
L 213.248943 -82.993604 
L 213.573923 -82.562725 
L 213.898903 -82.136502 
L 214.223882 -81.715017 
L 214.548862 -81.298346 
L 214.873841 -80.88657 
L 215.198821 -80.479765 
L 215.5238 -80.078011 
L 215.84878 -79.681386 
L 216.173759 -79.289966 
L 216.498739 -78.903829 
L 216.823718 -78.523052 
L 217.148698 -78.147712 
L 217.473677 -77.777885 
L 217.798657 -77.413647 
L 218.123636 -77.055072 
L 218.448616 -76.702237 
L 218.773595 -76.355216 
L 219.098575 -76.014083 
L 219.423554 -75.678911 
L 219.748534 -75.349775 
L 220.073514 -75.026747 
L 220.398493 -74.709899 
L 220.723473 -74.399304 
L 221.048452 -74.095031 
L 221.373432 -73.797153 
L 221.698411 -73.50574 
L 222.023391 -73.22086 
L 222.34837 -72.942583 
L 222.67335 -72.670978 
L 222.998329 -72.406112 
L 223.323309 -72.148053 
L 223.648288 -71.896867 
L 223.973268 -71.65262 
L 224.298247 -71.415377 
L 224.623227 -71.185203 
L 224.948206 -70.962161 
L 225.273186 -70.746316 
L 225.598165 -70.537728 
L 225.923145 -70.336461 
L 226.248124 -70.142575 
L 226.573104 -69.95613 
L 226.898084 -69.777185 
L 227.223063 -69.6058 
L 227.548043 -69.442031 
L 227.873022 -69.285937 
L 228.198002 -69.137573 
L 228.522981 -68.996995 
L 228.847961 -68.864257 
L 229.17294 -68.739412 
L 229.49792 -68.622514 
L 229.822899 -68.513615 
L 230.147879 -68.412765 
L 230.472858 -68.320015 
L 230.797838 -68.235414 
L 231.122817 -68.15901 
L 231.447797 -68.090851 
L 231.772776 -68.030982 
L 232.097756 -67.97945 
L 232.422735 -67.936299 
L 232.747715 -67.901572 
L 233.072695 -67.875312 
L 233.397674 -67.857561 
L 233.722654 -67.848358 
L 234.047633 -67.847745 
L 234.372613 -67.855758 
L 234.697592 -67.872436 
L 235.022572 -67.897815 
L 235.347551 -67.93193 
L 235.672531 -67.974816 
L 235.99751 -68.026506 
L 236.32249 -68.087033 
L 236.647469 -68.156427 
L 236.972449 -68.234718 
L 237.297428 -68.321937 
L 237.622408 -68.418109 
L 237.947387 -68.523264 
L 238.272367 -68.637425 
L 238.597346 -68.760617 
L 238.922326 -68.892865 
L 239.247305 -69.03419 
L 239.572285 -69.184614 
L 239.897265 -69.344156 
L 240.222244 -69.512836 
L 240.547224 -69.690671 
L 240.872203 -69.877678 
L 241.197183 -70.073873 
L 241.522162 -70.27927 
L 241.847142 -70.493881 
L 242.172121 -70.717719 
L 242.497101 -70.950795 
L 242.82208 -71.193119 
L 243.14706 -71.444698 
L 243.472039 -71.70554 
L 243.797019 -71.975652 
L 244.121998 -72.255037 
L 244.446978 -72.5437 
L 244.771957 -72.841643 
L 245.096937 -73.148868 
L 245.421916 -73.465374 
L 245.746896 -73.791161 
L 246.071876 -74.126225 
L 246.396855 -74.470564 
L 246.721835 -74.824174 
L 247.046814 -75.187046 
L 247.371794 -75.559176 
L 247.696773 -75.940554 
L 248.021753 -76.33117 
L 248.346732 -76.731015 
L 248.671712 -77.140075 
L 248.996691 -77.558338 
L 249.321671 -77.985788 
L 249.64665 -78.422411 
L 249.97163 -78.86819 
L 250.296609 -79.323105 
L 250.621589 -79.787139 
L 250.946568 -80.260269 
L 251.271548 -80.742475 
L 251.596527 -81.233734 
L 251.921507 -81.73402 
L 252.246486 -82.243309 
L 252.571466 -82.761574 
L 252.896446 -83.288787 
L 253.221425 -83.824919 
L 253.546405 -84.369938 
L 253.871384 -84.923815 
L 254.196364 -85.486516 
L 254.521343 -86.058006 
L 254.846323 -86.638251 
L 255.171302 -87.227214 
L 255.496282 -87.824858 
L 255.821261 -88.431143 
L 256.146241 -89.04603 
L 256.47122 -89.669477 
L 256.7962 -90.301441 
L 257.121179 -90.94188 
L 257.446159 -91.590747 
L 257.771138 -92.247998 
L 258.096118 -92.913583 
L 258.421097 -93.587456 
L 258.746077 -94.269566 
L 259.071057 -94.959863 
L 259.396036 -95.658294 
L 259.721016 -96.364806 
L 260.045995 -97.079344 
L 260.370975 -97.801853 
L 260.695954 -98.532277 
L 261.020934 -99.270556 
L 261.345913 -100.016633 
L 261.670893 -100.770446 
L 261.995872 -101.531934 
L 262.320852 -102.301035 
L 262.645831 -103.077684 
L 262.970811 -103.861817 
L 263.29579 -104.653368 
L 263.62077 -105.452269 
L 263.945749 -106.258452 
L 264.270729 -107.071848 
L 264.595708 -107.892385 
L 264.920688 -108.719993 
L 265.245667 -109.554597 
L 265.570647 -110.396124 
L 265.895627 -111.244499 
L 266.220606 -112.099646 
L 266.545586 -112.961487 
L 266.870565 -113.829944 
L 267.195545 -114.704938 
L 267.520524 -115.586386 
L 267.845504 -116.474209 
L 268.170483 -117.368323 
L 268.495463 -118.268643 
L 268.820442 -119.175087 
L 269.145422 -120.087566 
L 269.470401 -121.005995 
L 269.795381 -121.930284 
L 270.12036 -122.860346 
L 270.44534 -123.796089 
L 270.770319 -124.737423 
L 271.095299 -125.684256 
L 271.420278 -126.636493 
L 271.745258 -127.594042 
L 272.070238 -128.556806 
L 272.395217 -129.524689 
L 272.720197 -130.497595 
L 273.045176 -131.475425 
L 273.370156 -132.45808 
L 273.695135 -133.44546 
L 274.020115 -134.437464 
L 274.345094 -135.43399 
L 274.670074 -136.434935 
L 274.995053 -137.440195 
L 275.320033 -138.449666 
L 275.645012 -139.463242 
L 275.969992 -140.480817 
L 276.294971 -141.502283 
L 276.619951 -142.527531 
L 276.94493 -143.556454 
L 277.26991 -144.588941 
L 277.594889 -145.624881 
L 277.919869 -146.664163 
L 278.244848 -147.706674 
L 278.569828 -148.752302 
L 278.894808 -149.800933 
L 279.219787 -150.852451 
L 279.544767 -151.906742 
L 279.869746 -152.963689 
L 280.194726 -154.023176 
L 280.519705 -155.085085 
L 280.844685 -156.149298 
L 281.169664 -157.215696 
L 281.494644 -158.284159 
L 281.819623 -159.354568 
L 282.144603 -160.426801 
L 282.469582 -161.500737 
L 282.794562 -162.576254 
L 283.119541 -163.65323 
L 283.444521 -164.731541 
L 283.7695 -165.811064 
L 284.09448 -166.891675 
L 284.419459 -167.97325 
L 284.744439 -169.055662 
L 285.069419 -170.138787 
L 285.394398 -171.222498 
L 285.719378 -172.306669 
L 286.044357 -173.391174 
L 286.369337 -174.475885 
L 286.694316 -175.560674 
L 287.019296 -176.645414 
L 287.344275 -177.729978 
L 287.669255 -178.814235 
L 287.994234 -179.898058 
L 288.319214 -180.981318 
L 288.644193 -182.063885 
L 288.969173 -183.14563 
L 289.294152 -184.226425 
L 289.619132 -185.306138 
L 289.944111 -186.38464 
L 290.269091 -187.461802 
L 290.59407 -188.537494 
L 290.91905 -189.611585 
L 291.244029 -190.683945 
L 291.569009 -191.754445 
L 291.893989 -192.822954 
L 292.218968 -193.889342 
L 292.543948 -194.95348 
L 292.868927 -196.015238 
L 293.193907 -197.074485 
L 293.518886 -198.131093 
L 293.843866 -199.184932 
L 294.168845 -200.235872 
L 294.493825 -201.283785 
L 294.818804 -202.328542 
L 295.143784 -203.370015 
L 295.468763 -204.408074 
L 295.793743 -205.442593 
L 296.118722 -206.473443 
L 296.443702 -207.500497 
L 296.768681 -208.523629 
L 297.093661 -209.542711 
L 297.41864 -210.557618 
L 297.74362 -211.568224 
L 298.0686 -212.574403 
L 298.393579 -213.576031 
L 298.718559 -214.572983 
L 299.043538 -215.565136 
L 299.368518 -216.552366 
L 299.693497 -217.534551 
L 300.018477 -218.511569 
L 300.343456 -219.483297 
L 300.668436 -220.449615 
L 300.993415 -221.410403 
L 301.318395 -222.36554 
L 301.643374 -223.314908 
L 301.968354 -224.258387 
L 302.293333 -225.195862 
L 302.618313 -226.127213 
L 302.943292 -227.052325 
L 303.268272 -227.971083 
L 303.593251 -228.883371 
L 303.918231 -229.789074 
L 304.24321 -230.688081 
L 304.56819 -231.580277 
L 304.89317 -232.465551 
L 305.218149 -233.343793 
L 305.543129 -234.21489 
L 305.868108 -235.078735 
L 306.193088 -235.935219 
L 306.518067 -236.784232 
L 306.843047 -237.62567 
L 307.168026 -238.459424 
L 307.493006 -239.285391 
L 307.817985 -240.103466 
L 308.142965 -240.913544 
L 308.467944 -241.715524 
L 308.792924 -242.509303 
L 309.117903 -243.294781 
L 309.442883 -244.071857 
L 309.767862 -244.840433 
L 310.092842 -245.60041 
L 310.417821 -246.351691 
L 310.742801 -247.09418 
L 311.067781 -247.827781 
L 311.39276 -248.5524 
L 311.71774 -249.267943 
L 312.042719 -249.974317 
L 312.367699 -250.671431 
L 312.692678 -251.359195 
L 313.017658 -252.037518 
L 313.342637 -252.706312 
L 313.667617 -253.365489 
L 313.992596 -254.014963 
L 314.317576 -254.654646 
L 314.642555 -255.284456 
L 314.967535 -255.904307 
L 315.292514 -256.514118 
L 315.617494 -257.113805 
L 315.942473 -257.703289 
L 316.267453 -258.28249 
L 316.592432 -258.851329 
L 316.917412 -259.409727 
L 317.242391 -259.957609 
L 317.567371 -260.494899 
L 317.892351 -261.021522 
L 318.21733 -261.537405 
L 318.54231 -262.042475 
L 318.867289 -262.53666 
L 319.192269 -263.01989 
L 319.517248 -263.492096 
L 319.842228 -263.95321 
L 320.167207 -264.403163 
L 320.492187 -264.841891 
L 320.817166 -265.269328 
L 321.142146 -265.68541 
L 321.467125 -266.090074 
L 321.792105 -266.483259 
L 322.117084 -266.864904 
L 322.442064 -267.234949 
L 322.767043 -267.593336 
L 323.092023 -267.940007 
L 323.417002 -268.274907 
L 323.741982 -268.597981 
L 324.066962 -268.909174 
L 324.391941 -269.208434 
L 324.716921 -269.495709 
L 325.0419 -269.77095 
L 325.36688 -270.034105 
L 325.691859 -270.285129 
L 326.016839 -270.523973 
L 326.341818 -270.750592 
L 326.666798 -270.964941 
L 326.991777 -271.166977 
L 327.316757 -271.356658 
L 327.641736 -271.533944 
L 327.966716 -271.698793 
L 328.291695 -271.851168 
L 328.616675 -271.991032 
L 328.941654 -272.118349 
L 329.266634 -272.233083 
L 329.591613 -272.335201 
L 329.916593 -272.424671 
L 330.241572 -272.501462 
L 330.566552 -272.565544 
L 330.891532 -272.616888 
L 331.216511 -272.655468 
L 331.541491 -272.681257 
L 331.86647 -272.694231 
L 332.19145 -272.694366 
L 332.516429 -272.68164 
L 332.841409 -272.656033 
L 333.166388 -272.617525 
L 333.491368 -272.566098 
L 333.816347 -272.501735 
L 334.141327 -272.42442 
L 334.466306 -272.33414 
L 334.791286 -272.230881 
L 335.116265 -272.114633 
L 335.441245 -271.985385 
L 335.766224 -271.843128 
L 336.091204 -271.687855 
L 336.416183 -271.51956 
L 336.741163 -271.338238 
L 337.066143 -271.143886 
L 337.391122 -270.936503 
L 337.716102 -270.716086 
L 338.041081 -270.482639 
L 338.366061 -270.236162 
L 338.69104 -269.976659 
L 339.01602 -269.704136 
L 339.340999 -269.418599 
L 339.665979 -269.120056 
L 339.990958 -268.808517 
L 340.315938 -268.483991 
L 340.640917 -268.146491 
L 340.965897 -267.796031 
L 341.290876 -267.432626 
L 341.615856 -267.056292 
L 341.940835 -266.667047 
L 342.265815 -266.26491 
L 342.590794 -265.849903 
L 342.915774 -265.422046 
L 343.240753 -264.981364 
L 343.565733 -264.527882 
L 343.890713 -264.061626 
L 344.215692 -263.582624 
L 344.540672 -263.090906 
L 344.865651 -262.586501 
L 345.190631 -262.069443 
L 345.51561 -261.539764 
L 345.84059 -260.997501 
L 346.165569 -260.442688 
L 346.490549 -259.875364 
L 346.815528 -259.295569 
L 347.140508 -258.703342 
L 347.465487 -258.098726 
L 347.790467 -257.481763 
L 348.115446 -256.8525 
L 348.440426 -256.210981 
L 348.765405 -255.557255 
L 349.090385 -254.89137 
L 349.415364 -254.213376 
L 349.740344 -253.523324 
L 350.065324 -252.821268 
L 350.390303 -252.107261 
L 350.715283 -251.381359 
L 351.040262 -250.643618 
L 351.365242 -249.894095 
L 351.690221 -249.132851 
L 352.015201 -248.359945 
L 352.34018 -247.575438 
L 352.66516 -246.779393 
L 352.990139 -245.971874 
L 353.315119 -245.152945 
L 353.640098 -244.322672 
L 353.965078 -243.481123 
L 354.290057 -242.628365 
L 354.615037 -241.764466 
L 354.940016 -240.889497 
L 355.264996 -240.003529 
L 355.589975 -239.106634 
L 355.914955 -238.198883 
L 356.239934 -237.28035 
L 356.564914 -236.351109 
L 356.889894 -235.411235 
L 357.214873 -234.460804 
L 357.539853 -233.499891 
L 357.864832 -232.528574 
L 358.189812 -231.54693 
L 358.514791 -230.555036 
L 358.839771 -229.55297 
L 359.16475 -228.540812 
L 359.48973 -227.51864 
L 359.814709 -226.486533 
L 360.139689 -225.44457 
L 360.464668 -224.392831 
L 360.789648 -223.331396 
L 361.114627 -222.260343 
L 361.439607 -221.179753 
L 361.764586 -220.089704 
L 362.089566 -218.990275 
L 362.414545 -217.881546 
L 362.739525 -216.763594 
L 363.064505 -215.636497 
L 363.389484 -214.500333 
L 363.714464 -213.355177 
L 364.039443 -212.201106 
L 364.364423 -211.038196 
L 364.689402 -209.866519 
L 365.014382 -208.686149 
L 365.339361 -207.497159 
L 365.664341 -206.299618 
L 365.98932 -205.093597 
L 366.3143 -203.879163 
L 366.639279 -202.656384 
L 366.964259 -201.425324 
L 367.289238 -200.186048 
L 367.614218 -198.938616 
L 367.939197 -197.683089 
L 368.264177 -196.419526 
L 368.589156 -195.147981 
L 368.914136 -193.86851 
L 369.239115 -192.581165 
L 369.564095 -191.285996 
L 369.889075 -189.98305 
L 370.214054 -188.672373 
L 370.539034 -187.354009 
L 370.864013 -186.027999 
L 371.188993 -184.694381 
L 371.513972 -183.353194 
L 371.838952 -182.00447 
L 372.163931 -180.648244 
L 372.488911 -179.284544 
L 372.81389 -177.9134 
L 373.13887 -176.534838 
L 373.463849 -175.148883 
L 373.788829 -173.755558 
L 374.113808 -172.354885 
L 374.438788 -170.946883 
L 374.763767 -169.531573 
L 375.088747 -168.108972 
L 375.413726 -166.679097 
L 375.738706 -165.241967 
L 376.063686 -163.797598 
L 376.388665 -162.346007 
L 376.713645 -160.887212 
L 377.038624 -159.42123 
L 377.363604 -157.948082 
L 377.688583 -156.467786 
L 378.013563 -154.980366 
L 378.338542 -153.485844 
L 378.663522 -151.984248 
L 378.988501 -150.475604 
L 379.313481 -148.959946 
L 379.63846 -147.437305 
L 379.96344 -145.90772 
L 380.288419 -144.371232 
L 380.613399 -142.827884 
L 380.938378 -141.277724 
L 381.263358 -139.720806 
L 381.588337 -138.157184 
L 381.913317 -136.586919 
L 382.238296 -135.010075 
L 382.563276 -133.426721 
L 382.888256 -131.83693 
L 383.213235 -130.240778 
L 383.538215 -128.638347 
L 383.863194 -127.029721 
L 384.188174 -125.414991 
L 384.513153 -123.794248 
L 384.838133 -122.167591 
L 385.163112 -120.535118 
L 385.488092 -118.896935 
L 385.813071 -117.253147 
L 386.138051 -115.603866 
L 386.46303 -113.949204 
L 386.78801 -112.289276 
L 387.112989 -110.624202 
L 387.437969 -108.954101 
L 387.762948 -107.279096 
L 388.087928 -105.599312 
L 388.412907 -103.914874 
L 388.737887 -102.225912 
L 389.062867 -100.532553 
L 389.387846 -98.834929 
L 389.712826 -97.13317 
L 390.037805 -95.42741 
L 390.362785 -93.717781 
L 390.687764 -92.004417 
L 391.012744 -90.287452 
L 391.337723 -88.567022 
L 391.662703 -86.84326 
L 391.987682 -85.116301 
L 392.312662 -83.386281 
L 392.637641 -81.653335 
L 392.962621 -79.917598 
L 393.2876 -78.179204 
L 393.61258 -76.438288 
L 393.937559 -74.694985 
L 394.262539 -72.949426 
L 394.587518 -71.201748 
L 394.912498 -69.452081 
L 395.237477 -67.700559 
L 395.562457 -65.947313 
L 395.887437 -64.192475 
L 396.212416 -62.436175 
L 396.537396 -60.678544 
L 396.862375 -58.919711 
L 397.187355 -57.159805 
L 397.512334 -55.398954 
L 397.837314 -53.637285 
L 398.162293 -51.874925 
L 398.487273 -50.112 
L 398.487273 -91.292925 
L 398.487273 -91.292925 
L 398.162293 -92.356583 
L 397.837314 -93.42935 
L 397.512334 -94.511126 
L 397.187355 -95.601807 
L 396.862375 -96.701292 
L 396.537396 -97.809476 
L 396.212416 -98.926256 
L 395.887437 -100.051528 
L 395.562457 -101.185185 
L 395.237477 -102.327122 
L 394.912498 -103.477231 
L 394.587518 -104.635407 
L 394.262539 -105.801542 
L 393.937559 -106.975525 
L 393.61258 -108.15725 
L 393.2876 -109.346605 
L 392.962621 -110.543481 
L 392.637641 -111.747766 
L 392.312662 -112.959348 
L 391.987682 -114.178115 
L 391.662703 -115.403953 
L 391.337723 -116.636748 
L 391.012744 -117.876384 
L 390.687764 -119.122745 
L 390.362785 -120.375713 
L 390.037805 -121.635171 
L 389.712826 -122.900998 
L 389.387846 -124.173072 
L 389.062867 -125.451272 
L 388.737887 -126.735473 
L 388.412907 -128.025549 
L 388.087928 -129.321373 
L 387.762948 -130.622814 
L 387.437969 -131.929741 
L 387.112989 -133.24202 
L 386.78801 -134.559514 
L 386.46303 -135.882084 
L 386.138051 -137.209588 
L 385.813071 -138.541882 
L 385.488092 -139.878818 
L 385.163112 -141.220245 
L 384.838133 -142.566008 
L 384.513153 -143.91595 
L 384.188174 -145.269909 
L 383.863194 -146.62772 
L 383.538215 -147.989214 
L 383.213235 -149.354216 
L 382.888256 -150.722551 
L 382.563276 -152.094035 
L 382.238296 -153.468485 
L 381.913317 -154.845709 
L 381.588337 -156.225514 
L 381.263358 -157.607701 
L 380.938378 -158.992068 
L 380.613399 -160.378409 
L 380.288419 -161.766513 
L 379.96344 -163.156167 
L 379.63846 -164.547152 
L 379.313481 -165.939248 
L 378.988501 -167.332231 
L 378.663522 -168.725873 
L 378.338542 -170.119946 
L 378.013563 -171.514217 
L 377.688583 -172.908453 
L 377.363604 -174.302417 
L 377.038624 -175.695873 
L 376.713645 -177.088583 
L 376.388665 -178.480307 
L 376.063686 -179.870807 
L 375.738706 -181.259844 
L 375.413726 -182.647178 
L 375.088747 -184.032571 
L 374.763767 -185.415785 
L 374.438788 -186.796585 
L 374.113808 -188.174735 
L 373.788829 -189.550003 
L 373.463849 -190.922156 
L 373.13887 -192.290966 
L 372.81389 -193.656207 
L 372.488911 -195.017654 
L 372.163931 -196.375086 
L 371.838952 -197.728284 
L 371.513972 -199.077034 
L 371.188993 -200.421123 
L 370.864013 -201.760341 
L 370.539034 -203.094484 
L 370.214054 -204.423348 
L 369.889075 -205.746736 
L 369.564095 -207.064451 
L 369.239115 -208.376301 
L 368.914136 -209.682098 
L 368.589156 -210.981657 
L 368.264177 -212.274796 
L 367.939197 -213.561337 
L 367.614218 -214.841106 
L 367.289238 -216.113931 
L 366.964259 -217.379643 
L 366.639279 -218.638079 
L 366.3143 -219.889076 
L 365.98932 -221.132477 
L 365.664341 -222.368126 
L 365.339361 -223.595872 
L 365.014382 -224.815564 
L 364.689402 -226.027058 
L 364.364423 -227.230209 
L 364.039443 -228.424878 
L 363.714464 -229.610926 
L 363.389484 -230.788219 
L 363.064505 -231.956625 
L 362.739525 -233.116013 
L 362.414545 -234.266256 
L 362.089566 -235.407231 
L 361.764586 -236.538813 
L 361.439607 -237.660884 
L 361.114627 -238.773326 
L 360.789648 -239.876022 
L 360.464668 -240.968861 
L 360.139689 -242.05173 
L 359.814709 -243.12452 
L 359.48973 -244.187125 
L 359.16475 -245.239439 
L 358.839771 -246.28136 
L 358.514791 -247.312786 
L 358.189812 -248.333618 
L 357.864832 -249.343759 
L 357.539853 -250.343113 
L 357.214873 -251.331586 
L 356.889894 -252.309086 
L 356.564914 -253.275522 
L 356.239934 -254.230807 
L 355.914955 -255.174854 
L 355.589975 -256.107576 
L 355.264996 -257.02889 
L 354.940016 -257.938715 
L 354.615037 -258.836969 
L 354.290057 -259.723575 
L 353.965078 -260.598453 
L 353.640098 -261.46153 
L 353.315119 -262.31273 
L 352.990139 -263.15198 
L 352.66516 -263.97921 
L 352.34018 -264.79435 
L 352.015201 -265.597332 
L 351.690221 -266.388088 
L 351.365242 -267.166553 
L 351.040262 -267.932664 
L 350.715283 -268.686358 
L 350.390303 -269.427574 
L 350.065324 -270.156253 
L 349.740344 -270.872337 
L 349.415364 -271.575769 
L 349.090385 -272.266494 
L 348.765405 -272.944459 
L 348.440426 -273.60961 
L 348.115446 -274.261898 
L 347.790467 -274.901273 
L 347.465487 -275.527688 
L 347.140508 -276.141095 
L 346.815528 -276.741449 
L 346.490549 -277.328709 
L 346.165569 -277.90283 
L 345.84059 -278.463773 
L 345.51561 -279.011499 
L 345.190631 -279.545969 
L 344.865651 -280.067148 
L 344.540672 -280.575002 
L 344.215692 -281.069496 
L 343.890713 -281.550599 
L 343.565733 -282.018282 
L 343.240753 -282.472514 
L 342.915774 -282.91327 
L 342.590794 -283.340523 
L 342.265815 -283.754249 
L 341.940835 -284.154426 
L 341.615856 -284.541032 
L 341.290876 -284.914049 
L 340.965897 -285.273457 
L 340.640917 -285.61924 
L 340.315938 -285.951384 
L 339.990958 -286.269876 
L 339.665979 -286.574702 
L 339.340999 -286.865853 
L 339.01602 -287.143321 
L 338.69104 -287.407098 
L 338.366061 -287.657178 
L 338.041081 -287.893559 
L 337.716102 -288.116237 
L 337.391122 -288.325211 
L 337.066143 -288.520483 
L 336.741163 -288.702055 
L 336.416183 -288.86993 
L 336.091204 -289.024116 
L 335.766224 -289.164618 
L 335.441245 -289.291446 
L 335.116265 -289.40461 
L 334.791286 -289.504122 
L 334.466306 -289.589997 
L 334.141327 -289.662248 
L 333.816347 -289.720894 
L 333.491368 -289.765953 
L 333.166388 -289.797445 
L 332.841409 -289.815391 
L 332.516429 -289.819816 
L 332.19145 -289.810744 
L 331.86647 -289.788202 
L 331.541491 -289.752218 
L 331.216511 -289.702822 
L 330.891532 -289.640045 
L 330.566552 -289.563922 
L 330.241572 -289.474485 
L 329.916593 -289.371772 
L 329.591613 -289.255821 
L 329.266634 -289.126671 
L 328.941654 -288.984363 
L 328.616675 -288.82894 
L 328.291695 -288.660445 
L 327.966716 -288.478926 
L 327.641736 -288.284429 
L 327.316757 -288.077003 
L 326.991777 -287.856699 
L 326.666798 -287.623569 
L 326.341818 -287.377666 
L 326.016839 -287.119046 
L 325.691859 -286.847765 
L 325.36688 -286.563881 
L 325.0419 -286.267454 
L 324.716921 -285.958546 
L 324.391941 -285.637219 
L 324.066962 -285.303536 
L 323.741982 -284.957564 
L 323.417002 -284.59937 
L 323.092023 -284.229023 
L 322.767043 -283.846591 
L 322.442064 -283.452147 
L 322.117084 -283.045763 
L 321.792105 -282.627514 
L 321.467125 -282.197474 
L 321.142146 -281.755722 
L 320.817166 -281.302334 
L 320.492187 -280.837391 
L 320.167207 -280.360974 
L 319.842228 -279.873165 
L 319.517248 -279.374047 
L 319.192269 -278.863705 
L 318.867289 -278.342226 
L 318.54231 -277.809696 
L 318.21733 -277.266204 
L 317.892351 -276.71184 
L 317.567371 -276.146695 
L 317.242391 -275.57086 
L 316.917412 -274.98443 
L 316.592432 -274.387497 
L 316.267453 -273.780159 
L 315.942473 -273.162512 
L 315.617494 -272.534652 
L 315.292514 -271.89668 
L 314.967535 -271.248694 
L 314.642555 -270.590796 
L 314.317576 -269.923088 
L 313.992596 -269.245671 
L 313.667617 -268.558651 
L 313.342637 -267.862131 
L 313.017658 -267.156217 
L 312.692678 -266.441015 
L 312.367699 -265.716634 
L 312.042719 -264.983181 
L 311.71774 -264.240765 
L 311.39276 -263.489496 
L 311.067781 -262.729484 
L 310.742801 -261.960842 
L 310.417821 -261.18368 
L 310.092842 -260.398112 
L 309.767862 -259.604252 
L 309.442883 -258.802213 
L 309.117903 -257.992111 
L 308.792924 -257.17406 
L 308.467944 -256.348176 
L 308.142965 -255.514578 
L 307.817985 -254.67338 
L 307.493006 -253.824702 
L 307.168026 -252.968662 
L 306.843047 -252.105377 
L 306.518067 -251.234967 
L 306.193088 -250.357552 
L 305.868108 -249.473252 
L 305.543129 -248.582187 
L 305.218149 -247.684478 
L 304.89317 -246.780246 
L 304.56819 -245.869613 
L 304.24321 -244.952699 
L 303.918231 -244.029628 
L 303.593251 -243.100521 
L 303.268272 -242.165502 
L 302.943292 -241.224692 
L 302.618313 -240.278215 
L 302.293333 -239.326194 
L 301.968354 -238.368753 
L 301.643374 -237.406014 
L 301.318395 -236.438102 
L 300.993415 -235.46514 
L 300.668436 -234.487252 
L 300.343456 -233.504563 
L 300.018477 -232.517195 
L 299.693497 -231.525273 
L 299.368518 -230.528922 
L 299.043538 -229.528265 
L 298.718559 -228.523426 
L 298.393579 -227.514529 
L 298.0686 -226.501699 
L 297.74362 -225.48506 
L 297.41864 -224.464735 
L 297.093661 -223.440848 
L 296.768681 -222.413523 
L 296.443702 -221.382884 
L 296.118722 -220.349055 
L 295.793743 -219.312159 
L 295.468763 -218.272318 
L 295.143784 -217.229658 
L 294.818804 -216.1843 
L 294.493825 -215.136368 
L 294.168845 -214.085983 
L 293.843866 -213.03327 
L 293.518886 -211.97835 
L 293.193907 -210.921346 
L 292.868927 -209.862379 
L 292.543948 -208.801571 
L 292.218968 -207.739044 
L 291.893989 -206.674919 
L 291.569009 -205.609317 
L 291.244029 -204.542359 
L 290.91905 -203.474165 
L 290.59407 -202.404857 
L 290.269091 -201.334553 
L 289.944111 -200.263374 
L 289.619132 -199.191439 
L 289.294152 -198.118867 
L 288.969173 -197.045777 
L 288.644193 -195.972288 
L 288.319214 -194.898517 
L 287.994234 -193.824583 
L 287.669255 -192.750604 
L 287.344275 -191.676696 
L 287.019296 -190.602976 
L 286.694316 -189.529562 
L 286.369337 -188.456568 
L 286.044357 -187.384111 
L 285.719378 -186.312306 
L 285.394398 -185.241269 
L 285.069419 -184.171113 
L 284.744439 -183.101953 
L 284.419459 -182.033903 
L 284.09448 -180.967076 
L 283.7695 -179.901585 
L 283.444521 -178.837542 
L 283.119541 -177.77506 
L 282.794562 -176.71425 
L 282.469582 -175.655223 
L 282.144603 -174.598089 
L 281.819623 -173.54296 
L 281.494644 -172.489944 
L 281.169664 -171.43915 
L 280.844685 -170.390687 
L 280.519705 -169.344664 
L 280.194726 -168.301187 
L 279.869746 -167.260363 
L 279.544767 -166.2223 
L 279.219787 -165.187103 
L 278.894808 -164.154876 
L 278.569828 -163.125725 
L 278.244848 -162.099754 
L 277.919869 -161.077066 
L 277.594889 -160.057764 
L 277.26991 -159.041951 
L 276.94493 -158.029726 
L 276.619951 -157.021193 
L 276.294971 -156.01645 
L 275.969992 -155.015597 
L 275.645012 -154.018733 
L 275.320033 -153.025956 
L 274.995053 -152.037364 
L 274.670074 -151.053053 
L 274.345094 -150.073118 
L 274.020115 -149.097656 
L 273.695135 -148.126761 
L 273.370156 -147.160526 
L 273.045176 -146.199043 
L 272.720197 -145.242406 
L 272.395217 -144.290705 
L 272.070238 -143.344031 
L 271.745258 -142.402473 
L 271.420278 -141.466121 
L 271.095299 -140.535061 
L 270.770319 -139.609381 
L 270.44534 -138.689167 
L 270.12036 -137.774505 
L 269.795381 -136.865478 
L 269.470401 -135.962171 
L 269.145422 -135.064666 
L 268.820442 -134.173043 
L 268.495463 -133.287385 
L 268.170483 -132.407771 
L 267.845504 -131.53428 
L 267.520524 -130.666988 
L 267.195545 -129.805975 
L 266.870565 -128.951314 
L 266.545586 -128.103081 
L 266.220606 -127.26135 
L 265.895627 -126.426194 
L 265.570647 -125.597684 
L 265.245667 -124.775892 
L 264.920688 -123.960887 
L 264.595708 -123.152737 
L 264.270729 -122.351511 
L 263.945749 -121.557276 
L 263.62077 -120.770095 
L 263.29579 -119.990035 
L 262.970811 -119.217159 
L 262.645831 -118.451528 
L 262.320852 -117.693204 
L 261.995872 -116.942247 
L 261.670893 -116.198716 
L 261.345913 -115.462669 
L 261.020934 -114.734163 
L 260.695954 -114.013254 
L 260.370975 -113.299995 
L 260.045995 -112.59444 
L 259.721016 -111.896642 
L 259.396036 -111.206651 
L 259.071057 -110.524518 
L 258.746077 -109.850292 
L 258.421097 -109.184019 
L 258.096118 -108.525747 
L 257.771138 -107.875521 
L 257.446159 -107.233385 
L 257.121179 -106.599382 
L 256.7962 -105.973554 
L 256.47122 -105.355941 
L 256.146241 -104.746584 
L 255.821261 -104.14552 
L 255.496282 -103.552787 
L 255.171302 -102.96842 
L 254.846323 -102.392455 
L 254.521343 -101.824925 
L 254.196364 -101.265862 
L 253.871384 -100.715299 
L 253.546405 -100.173264 
L 253.221425 -99.639788 
L 252.896446 -99.114897 
L 252.571466 -98.598619 
L 252.246486 -98.090978 
L 251.921507 -97.592 
L 251.596527 -97.101707 
L 251.271548 -96.620121 
L 250.946568 -96.147263 
L 250.621589 -95.683153 
L 250.296609 -95.227808 
L 249.97163 -94.781247 
L 249.64665 -94.343485 
L 249.321671 -93.914538 
L 248.996691 -93.49442 
L 248.671712 -93.083142 
L 248.346732 -92.680717 
L 248.021753 -92.287155 
L 247.696773 -91.902465 
L 247.371794 -91.526656 
L 247.046814 -91.159735 
L 246.721835 -90.801707 
L 246.396855 -90.452578 
L 246.071876 -90.11235 
L 245.746896 -89.781028 
L 245.421916 -89.458612 
L 245.096937 -89.145103 
L 244.771957 -88.840499 
L 244.446978 -88.544801 
L 244.121998 -88.258003 
L 243.797019 -87.980104 
L 243.472039 -87.711098 
L 243.14706 -87.450978 
L 242.82208 -87.199738 
L 242.497101 -86.95737 
L 242.172121 -86.723864 
L 241.847142 -86.499211 
L 241.522162 -86.2834 
L 241.197183 -86.076418 
L 240.872203 -85.878252 
L 240.547224 -85.688887 
L 240.222244 -85.50831 
L 239.897265 -85.336503 
L 239.572285 -85.173449 
L 239.247305 -85.019131 
L 238.922326 -84.87353 
L 238.597346 -84.736624 
L 238.272367 -84.608394 
L 237.947387 -84.488818 
L 237.622408 -84.377872 
L 237.297428 -84.275534 
L 236.972449 -84.181777 
L 236.647469 -84.096578 
L 236.32249 -84.019909 
L 235.99751 -83.951743 
L 235.672531 -83.892051 
L 235.347551 -83.840806 
L 235.022572 -83.797976 
L 234.697592 -83.763531 
L 234.372613 -83.73744 
L 234.047633 -83.719669 
L 233.722654 -83.710186 
L 233.397674 -83.708956 
L 233.072695 -83.715944 
L 232.747715 -83.731116 
L 232.422735 -83.754433 
L 232.097756 -83.785859 
L 231.772776 -83.825356 
L 231.447797 -83.872885 
L 231.122817 -83.928406 
L 230.797838 -83.991879 
L 230.472858 -84.063262 
L 230.147879 -84.142514 
L 229.822899 -84.229592 
L 229.49792 -84.324454 
L 229.17294 -84.427054 
L 228.847961 -84.537348 
L 228.522981 -84.655291 
L 228.198002 -84.780837 
L 227.873022 -84.913939 
L 227.548043 -85.054549 
L 227.223063 -85.20262 
L 226.898084 -85.358102 
L 226.573104 -85.520947 
L 226.248124 -85.691104 
L 225.923145 -85.868522 
L 225.598165 -86.053151 
L 225.273186 -86.244939 
L 224.948206 -86.443832 
L 224.623227 -86.649779 
L 224.298247 -86.862725 
L 223.973268 -87.082616 
L 223.648288 -87.309398 
L 223.323309 -87.543016 
L 222.998329 -87.783412 
L 222.67335 -88.030531 
L 222.34837 -88.284317 
L 222.023391 -88.54471 
L 221.698411 -88.811654 
L 221.373432 -89.085091 
L 221.048452 -89.36496 
L 220.723473 -89.651203 
L 220.398493 -89.943759 
L 220.073514 -90.242568 
L 219.748534 -90.547569 
L 219.423554 -90.858701 
L 219.098575 -91.175902 
L 218.773595 -91.499109 
L 218.448616 -91.82826 
L 218.123636 -92.163292 
L 217.798657 -92.50414 
L 217.473677 -92.850742 
L 217.148698 -93.203032 
L 216.823718 -93.560945 
L 216.498739 -93.924417 
L 216.173759 -94.293382 
L 215.84878 -94.667774 
L 215.5238 -95.047525 
L 215.198821 -95.432571 
L 214.873841 -95.822843 
L 214.548862 -96.218273 
L 214.223882 -96.618795 
L 213.898903 -97.02434 
L 213.573923 -97.434839 
L 213.248943 -97.850224 
L 212.923964 -98.270425 
L 212.598984 -98.695374 
L 212.274005 -99.125 
L 211.949025 -99.559232 
L 211.624046 -99.998002 
L 211.299066 -100.441238 
L 210.974087 -100.88887 
L 210.649107 -101.340825 
L 210.324128 -101.797034 
L 209.999148 -102.257423 
L 209.674169 -102.721922 
L 209.349189 -103.190458 
L 209.02421 -103.662959 
L 208.69923 -104.139352 
L 208.374251 -104.619564 
L 208.049271 -105.103522 
L 207.724292 -105.591154 
L 207.399312 -106.082385 
L 207.074333 -106.577143 
L 206.749353 -107.075352 
L 206.424373 -107.576941 
L 206.099394 -108.081834 
L 205.774414 -108.589957 
L 205.449435 -109.101237 
L 205.124455 -109.615597 
L 204.799476 -110.132965 
L 204.474496 -110.653265 
L 204.149517 -111.176423 
L 203.824537 -111.702363 
L 203.499558 -112.231011 
L 203.174578 -112.762291 
L 202.849599 -113.296129 
L 202.524619 -113.832449 
L 202.19964 -114.371176 
L 201.87466 -114.912235 
L 201.549681 -115.455551 
L 201.224701 -116.001049 
L 200.899722 -116.548652 
L 200.574742 -117.098286 
L 200.249762 -117.649876 
L 199.924783 -118.203346 
L 199.599803 -118.758622 
L 199.274824 -119.315627 
L 198.949844 -119.874287 
L 198.624865 -120.434527 
L 198.299885 -120.996272 
L 197.974906 -121.559447 
L 197.649926 -122.123977 
L 197.324947 -122.689788 
L 196.999967 -123.256805 
L 196.674988 -123.824953 
L 196.350008 -124.394158 
L 196.025029 -124.964347 
L 195.700049 -125.535445 
L 195.37507 -126.107378 
L 195.05009 -126.680073 
L 194.725111 -127.253456 
L 194.400131 -127.827455 
L 194.075152 -128.401995 
L 193.750172 -128.977004 
L 193.425192 -129.55241 
L 193.100213 -130.128141 
L 192.775233 -130.704123 
L 192.450254 -131.280286 
L 192.125274 -131.856558 
L 191.800295 -132.432867 
L 191.475315 -133.009143 
L 191.150336 -133.585315 
L 190.825356 -134.161313 
L 190.500377 -134.737066 
L 190.175397 -135.312505 
L 189.850418 -135.887561 
L 189.525438 -136.462164 
L 189.200459 -137.036246 
L 188.875479 -137.609739 
L 188.5505 -138.182574 
L 188.22552 -138.754685 
L 187.900541 -139.326003 
L 187.575561 -139.896463 
L 187.250581 -140.465998 
L 186.925602 -141.034543 
L 186.600622 -141.602031 
L 186.275643 -142.168398 
L 185.950663 -142.733579 
L 185.625684 -143.29751 
L 185.300704 -143.860127 
L 184.975725 -144.421368 
L 184.650745 -144.98117 
L 184.325766 -145.53947 
L 184.000786 -146.096206 
L 183.675807 -146.651318 
L 183.350827 -147.204745 
L 183.025848 -147.756426 
L 182.700868 -148.306302 
L 182.375889 -148.854313 
L 182.050909 -149.400402 
L 181.72593 -149.944509 
L 181.40095 -150.486578 
L 181.075971 -151.026551 
L 180.750991 -151.564372 
L 180.426011 -152.099984 
L 180.101032 -152.633334 
L 179.776052 -153.164365 
L 179.451073 -153.693024 
L 179.126093 -154.219257 
L 178.801114 -154.743011 
L 178.476134 -155.264234 
L 178.151155 -155.782874 
L 177.826175 -156.298879 
L 177.501196 -156.812199 
L 177.176216 -157.322783 
L 176.851237 -157.830584 
L 176.526257 -158.335551 
L 176.201278 -158.837636 
L 175.876298 -159.336792 
L 175.551319 -159.832973 
L 175.226339 -160.326131 
L 174.90136 -160.816221 
L 174.57638 -161.303198 
L 174.2514 -161.787018 
L 173.926421 -162.267637 
L 173.601441 -162.745011 
L 173.276462 -163.219099 
L 172.951482 -163.689859 
L 172.626503 -164.157249 
L 172.301523 -164.621229 
L 171.976544 -165.08176 
L 171.651564 -165.538801 
L 171.326585 -165.992315 
L 171.001605 -166.442264 
L 170.676626 -166.888611 
L 170.351646 -167.331319 
L 170.026667 -167.770353 
L 169.701687 -168.205677 
L 169.376708 -168.637258 
L 169.051728 -169.065061 
L 168.726749 -169.489053 
L 168.401769 -169.909203 
L 168.07679 -170.325478 
L 167.75181 -170.737847 
L 167.42683 -171.146282 
L 167.101851 -171.550751 
L 166.776871 -171.951226 
L 166.451892 -172.347679 
L 166.126912 -172.740083 
L 165.801933 -173.128411 
L 165.476953 -173.512636 
L 165.151974 -173.892735 
L 164.826994 -174.268682 
L 164.502015 -174.640453 
L 164.177035 -175.008025 
L 163.852056 -175.371377 
L 163.527076 -175.730486 
L 163.202097 -176.085331 
L 162.877117 -176.435893 
L 162.552138 -176.782152 
L 162.227158 -177.124089 
L 161.902179 -177.461686 
L 161.577199 -177.794926 
L 161.252219 -178.123793 
L 160.92724 -178.44827 
L 160.60226 -178.768344 
L 160.277281 -179.083999 
L 159.952301 -179.395222 
L 159.627322 -179.702 
L 159.302342 -180.004322 
L 158.977363 -180.302176 
L 158.652383 -180.595552 
L 158.327404 -180.884439 
L 158.002424 -181.16883 
L 157.677445 -181.448716 
L 157.352465 -181.724089 
L 157.027486 -181.994942 
L 156.702506 -182.261271 
L 156.377527 -182.523069 
L 156.052547 -182.780333 
L 155.727568 -183.033058 
L 155.402588 -183.281242 
L 155.077609 -183.524884 
L 154.752629 -183.763981 
L 154.427649 -183.998533 
L 154.10267 -184.228541 
L 153.77769 -184.454005 
L 153.452711 -184.674928 
L 153.127731 -184.891311 
L 152.802752 -185.103159 
L 152.477772 -185.310476 
L 152.152793 -185.513267 
L 151.827813 -185.711537 
L 151.502834 -185.905292 
L 151.177854 -186.094542 
L 150.852875 -186.279292 
L 150.527895 -186.459553 
L 150.202916 -186.635333 
L 149.877936 -186.806645 
L 149.552957 -186.973498 
L 149.227977 -187.135904 
L 148.902998 -187.293877 
L 148.578018 -187.447431 
L 148.253038 -187.596578 
L 147.928059 -187.741336 
L 147.603079 -187.881719 
L 147.2781 -188.017744 
L 146.95312 -188.149429 
L 146.628141 -188.276792 
L 146.303161 -188.399852 
L 145.978182 -188.518629 
L 145.653202 -188.633144 
L 145.328223 -188.743417 
L 145.003243 -188.849471 
L 144.678264 -188.951328 
L 144.353284 -189.049012 
L 144.028305 -189.142548 
L 143.703325 -189.23196 
L 143.378346 -189.317275 
L 143.053366 -189.398518 
L 142.728387 -189.475717 
L 142.403407 -189.548899 
L 142.078428 -189.618095 
L 141.753448 -189.683332 
L 141.428468 -189.74464 
L 141.103489 -189.802051 
L 140.778509 -189.855596 
L 140.45353 -189.905307 
L 140.12855 -189.951216 
L 139.803571 -189.993357 
L 139.478591 -190.031764 
L 139.153612 -190.066471 
L 138.828632 -190.097514 
L 138.503653 -190.124928 
L 138.178673 -190.148749 
L 137.853694 -190.169015 
L 137.528714 -190.185762 
L 137.203735 -190.19903 
L 136.878755 -190.208855 
L 136.553776 -190.215278 
L 136.228796 -190.218337 
L 135.903817 -190.218073 
L 135.578837 -190.214526 
L 135.253857 -190.207736 
L 134.928878 -190.197745 
L 134.603898 -190.184595 
L 134.278919 -190.168326 
L 133.953939 -190.148982 
L 133.62896 -190.126604 
L 133.30398 -190.101236 
L 132.979001 -190.072921 
L 132.654021 -190.041701 
L 132.329042 -190.00762 
L 132.004062 -189.970723 
L 131.679083 -189.931051 
L 131.354103 -189.888651 
L 131.029124 -189.843564 
L 130.704144 -189.795836 
L 130.379165 -189.745511 
L 130.054185 -189.692632 
L 129.729206 -189.637243 
L 129.404226 -189.579389 
L 129.079247 -189.519112 
L 128.754267 -189.456458 
L 128.429287 -189.391469 
L 128.104308 -189.324188 
L 127.779328 -189.254659 
L 127.454349 -189.182925 
L 127.129369 -189.109028 
L 126.80439 -189.033011 
L 126.47941 -188.954914 
L 126.154431 -188.874781 
L 125.829451 -188.792652 
L 125.504472 -188.708567 
L 125.179492 -188.622567 
L 124.854513 -188.534691 
L 124.529533 -188.44498 
L 124.204554 -188.353471 
L 123.879574 -188.260202 
L 123.554595 -188.165212 
L 123.229615 -188.068537 
L 122.904636 -187.970213 
L 122.579656 -187.870276 
L 122.254676 -187.768762 
L 121.929697 -187.665704 
L 121.604717 -187.561136 
L 121.279738 -187.455091 
L 120.954758 -187.347602 
L 120.629779 -187.2387 
L 120.304799 -187.128415 
L 119.97982 -187.016778 
L 119.65484 -186.903819 
L 119.329861 -186.789565 
L 119.004881 -186.674046 
L 118.679902 -186.557287 
L 118.354922 -186.439316 
L 118.029943 -186.320158 
L 117.704963 -186.199839 
L 117.379984 -186.078383 
L 117.055004 -185.955813 
L 116.730025 -185.832152 
L 116.405045 -185.707424 
L 116.080066 -185.581649 
L 115.755086 -185.454849 
L 115.430106 -185.327045 
L 115.105127 -185.198256 
L 114.780147 -185.068502 
L 114.455168 -184.937801 
L 114.130188 -184.806173 
L 113.805209 -184.673635 
L 113.480229 -184.540205 
L 113.15525 -184.4059 
L 112.83027 -184.270737 
L 112.505291 -184.134731 
L 112.180311 -183.9979 
L 111.855332 -183.860259 
L 111.530352 -183.721824 
L 111.205373 -183.58261 
L 110.880393 -183.442633 
L 110.555414 -183.301908 
L 110.230434 -183.16045 
L 109.905455 -183.018274 
L 109.580475 -182.875395 
L 109.255495 -182.731828 
L 108.930516 -182.58759 
L 108.605536 -182.442695 
L 108.280557 -182.297159 
L 107.955577 -182.150998 
L 107.630598 -182.004228 
L 107.305618 -181.856866 
L 106.980639 -181.70893 
L 106.655659 -181.560436 
L 106.33068 -181.411402 
L 106.0057 -181.261848 
L 105.680721 -181.111793 
L 105.355741 -180.961256 
L 105.030762 -180.810259 
L 104.705782 -180.658823 
L 104.380803 -180.50697 
L 104.055823 -180.354724 
L 103.730844 -180.202109 
L 103.405864 -180.049152 
L 103.080885 -179.895878 
L 102.755905 -179.742315 
L 102.430925 -179.588494 
L 102.105946 -179.434444 
L 101.780966 -179.280197 
L 101.455987 -179.125788 
L 101.131007 -178.971252 
L 100.806028 -178.816625 
L 100.481048 -178.661946 
L 100.156069 -178.507256 
L 99.831089 -178.352598 
L 99.50611 -178.198016 
L 99.18113 -178.043557 
L 98.856151 -177.889269 
L 98.531171 -177.735205 
L 98.206192 -177.581418 
L 97.881212 -177.427964 
L 97.556233 -177.274902 
L 97.231253 -177.122293 
L 96.906274 -176.970201 
L 96.581294 -176.818694 
L 96.256314 -176.667842 
L 95.931335 -176.517717 
L 95.606355 -176.368395 
L 95.281376 -176.219956 
L 94.956396 -176.072482 
L 94.631417 -175.926058 
L 94.306437 -175.780774 
L 93.981458 -175.636722 
L 93.656478 -175.493997 
L 93.331499 -175.352699 
L 93.006519 -175.21293 
L 92.68154 -175.074796 
L 92.35656 -174.938407 
L 92.031581 -174.803874 
L 91.706601 -174.671315 
L 91.381622 -174.540849 
L 91.056642 -174.412598 
L 90.731663 -174.286687 
L 90.406683 -174.163245 
L 90.081704 -174.042404 
L 89.756724 -173.924297 
L 89.431744 -173.80906 
L 89.106765 -173.696832 
L 88.781785 -173.587754 
L 88.456806 -173.481968 
L 88.131826 -173.379617 
L 87.806847 -173.280846 
L 87.481867 -173.185801 
L 87.156888 -173.094628 
L 86.831908 -173.007473 
L 86.506929 -172.924483 
L 86.181949 -172.845802 
L 85.85697 -172.771576 
L 85.53199 -172.701948 
L 85.207011 -172.637059 
L 84.882031 -172.577048 
L 84.557052 -172.522053 
L 84.232072 -172.472208 
L 83.907093 -172.427644 
L 83.582113 -172.388488 
L 83.257133 -172.354865 
L 82.932154 -172.326894 
L 82.607174 -172.304691 
L 82.282195 -172.288368 
L 81.957215 -172.278029 
L 81.632236 -172.273777 
L 81.307256 -172.275709 
L 80.982277 -172.283916 
L 80.657297 -172.298483 
L 80.332318 -172.319494 
L 80.007338 -172.347022 
L 79.682359 -172.381139 
L 79.357379 -172.421911 
L 79.0324 -172.469398 
L 78.70742 -172.523656 
L 78.382441 -172.584735 
L 78.057461 -172.652683 
L 77.732482 -172.72754 
L 77.407502 -172.809343 
L 77.082523 -172.898126 
L 76.757543 -172.993918 
L 76.432563 -173.096744 
L 76.107584 -173.206625 
L 75.782604 -173.323579 
L 75.457625 -173.447622 
L 75.132645 -173.578765 
L 74.807666 -173.717018 
L 74.482686 -173.862385 
L 74.157707 -174.014872 
L 73.832727 -174.174479 
z
" style="stroke: #ff7f0e; stroke-opacity: 0.25"/>
    </defs>
    <g clip-path="url(#p64c50b6d41)">
     <use xlink:href="#m7db5520043" x="0" y="345.6" style="fill: #ff7f0e; fill-opacity: 0.25; stroke: #ff7f0e; stroke-opacity: 0.25"/>
    </g>
   </g>
   <g id="matplotlib.axis_1">
    <g id="xtick_1">
     <g id="line2d_1">
      <defs>
       <path id="m76b51a985b" d="M 0 0 
L 0 3.5 
" style="stroke: #000000; stroke-width: 0.8"/>
      </defs>
      <g>
       <use xlink:href="#m76b51a985b" x="73.832727" y="307.584" style="stroke: #000000; stroke-width: 0.8"/>
      </g>
     </g>
     <g id="text_1">
      <!-- 0 -->
      <g transform="translate(70.651477 322.182437)scale(0.1 -0.1)">
       <defs>
        <path id="DejaVuSans-30" d="M 2034 4250 
Q 1547 4250 1301 3770 
Q 1056 3291 1056 2328 
Q 1056 1369 1301 889 
Q 1547 409 2034 409 
Q 2525 409 2770 889 
Q 3016 1369 3016 2328 
Q 3016 3291 2770 3770 
Q 2525 4250 2034 4250 
z
M 2034 4750 
Q 2819 4750 3233 4129 
Q 3647 3509 3647 2328 
Q 3647 1150 3233 529 
Q 2819 -91 2034 -91 
Q 1250 -91 836 529 
Q 422 1150 422 2328 
Q 422 3509 836 4129 
Q 1250 4750 2034 4750 
z
" transform="scale(0.015625)"/>
       </defs>
       <use xlink:href="#DejaVuSans-30"/>
      </g>
     </g>
    </g>
    <g id="xtick_2">
     <g id="line2d_2">
      <g>
       <use xlink:href="#m76b51a985b" x="138.763636" y="307.584" style="stroke: #000000; stroke-width: 0.8"/>
      </g>
     </g>
     <g id="text_2">
      <!-- 2 -->
      <g transform="translate(135.582386 322.182437)scale(0.1 -0.1)">
       <defs>
        <path id="DejaVuSans-32" d="M 1228 531 
L 3431 531 
L 3431 0 
L 469 0 
L 469 531 
Q 828 903 1448 1529 
Q 2069 2156 2228 2338 
Q 2531 2678 2651 2914 
Q 2772 3150 2772 3378 
Q 2772 3750 2511 3984 
Q 2250 4219 1831 4219 
Q 1534 4219 1204 4116 
Q 875 4013 500 3803 
L 500 4441 
Q 881 4594 1212 4672 
Q 1544 4750 1819 4750 
Q 2544 4750 2975 4387 
Q 3406 4025 3406 3419 
Q 3406 3131 3298 2873 
Q 3191 2616 2906 2266 
Q 2828 2175 2409 1742 
Q 1991 1309 1228 531 
z
" transform="scale(0.015625)"/>
       </defs>
       <use xlink:href="#DejaVuSans-32"/>
      </g>
     </g>
    </g>
    <g id="xtick_3">
     <g id="line2d_3">
      <g>
       <use xlink:href="#m76b51a985b" x="203.694545" y="307.584" style="stroke: #000000; stroke-width: 0.8"/>
      </g>
     </g>
     <g id="text_3">
      <!-- 4 -->
      <g transform="translate(200.513295 322.182437)scale(0.1 -0.1)">
       <defs>
        <path id="DejaVuSans-34" d="M 2419 4116 
L 825 1625 
L 2419 1625 
L 2419 4116 
z
M 2253 4666 
L 3047 4666 
L 3047 1625 
L 3713 1625 
L 3713 1100 
L 3047 1100 
L 3047 0 
L 2419 0 
L 2419 1100 
L 313 1100 
L 313 1709 
L 2253 4666 
z
" transform="scale(0.015625)"/>
       </defs>
       <use xlink:href="#DejaVuSans-34"/>
      </g>
     </g>
    </g>
    <g id="xtick_4">
     <g id="line2d_4">
      <g>
       <use xlink:href="#m76b51a985b" x="268.625455" y="307.584" style="stroke: #000000; stroke-width: 0.8"/>
      </g>
     </g>
     <g id="text_4">
      <!-- 6 -->
      <g transform="translate(265.444205 322.182437)scale(0.1 -0.1)">
       <defs>
        <path id="DejaVuSans-36" d="M 2113 2584 
Q 1688 2584 1439 2293 
Q 1191 2003 1191 1497 
Q 1191 994 1439 701 
Q 1688 409 2113 409 
Q 2538 409 2786 701 
Q 3034 994 3034 1497 
Q 3034 2003 2786 2293 
Q 2538 2584 2113 2584 
z
M 3366 4563 
L 3366 3988 
Q 3128 4100 2886 4159 
Q 2644 4219 2406 4219 
Q 1781 4219 1451 3797 
Q 1122 3375 1075 2522 
Q 1259 2794 1537 2939 
Q 1816 3084 2150 3084 
Q 2853 3084 3261 2657 
Q 3669 2231 3669 1497 
Q 3669 778 3244 343 
Q 2819 -91 2113 -91 
Q 1303 -91 875 529 
Q 447 1150 447 2328 
Q 447 3434 972 4092 
Q 1497 4750 2381 4750 
Q 2619 4750 2861 4703 
Q 3103 4656 3366 4563 
z
" transform="scale(0.015625)"/>
       </defs>
       <use xlink:href="#DejaVuSans-36"/>
      </g>
     </g>
    </g>
    <g id="xtick_5">
     <g id="line2d_5">
      <g>
       <use xlink:href="#m76b51a985b" x="333.556364" y="307.584" style="stroke: #000000; stroke-width: 0.8"/>
      </g>
     </g>
     <g id="text_5">
      <!-- 8 -->
      <g transform="translate(330.375114 322.182437)scale(0.1 -0.1)">
       <defs>
        <path id="DejaVuSans-38" d="M 2034 2216 
Q 1584 2216 1326 1975 
Q 1069 1734 1069 1313 
Q 1069 891 1326 650 
Q 1584 409 2034 409 
Q 2484 409 2743 651 
Q 3003 894 3003 1313 
Q 3003 1734 2745 1975 
Q 2488 2216 2034 2216 
z
M 1403 2484 
Q 997 2584 770 2862 
Q 544 3141 544 3541 
Q 544 4100 942 4425 
Q 1341 4750 2034 4750 
Q 2731 4750 3128 4425 
Q 3525 4100 3525 3541 
Q 3525 3141 3298 2862 
Q 3072 2584 2669 2484 
Q 3125 2378 3379 2068 
Q 3634 1759 3634 1313 
Q 3634 634 3220 271 
Q 2806 -91 2034 -91 
Q 1263 -91 848 271 
Q 434 634 434 1313 
Q 434 1759 690 2068 
Q 947 2378 1403 2484 
z
M 1172 3481 
Q 1172 3119 1398 2916 
Q 1625 2713 2034 2713 
Q 2441 2713 2670 2916 
Q 2900 3119 2900 3481 
Q 2900 3844 2670 4047 
Q 2441 4250 2034 4250 
Q 1625 4250 1398 4047 
Q 1172 3844 1172 3481 
z
" transform="scale(0.015625)"/>
       </defs>
       <use xlink:href="#DejaVuSans-38"/>
      </g>
     </g>
    </g>
    <g id="xtick_6">
     <g id="line2d_6">
      <g>
       <use xlink:href="#m76b51a985b" x="398.487273" y="307.584" style="stroke: #000000; stroke-width: 0.8"/>
      </g>
     </g>
     <g id="text_6">
      <!-- 10 -->
      <g transform="translate(392.124773 322.182437)scale(0.1 -0.1)">
       <defs>
        <path id="DejaVuSans-31" d="M 794 531 
L 1825 531 
L 1825 4091 
L 703 3866 
L 703 4441 
L 1819 4666 
L 2450 4666 
L 2450 531 
L 3481 531 
L 3481 0 
L 794 0 
L 794 531 
z
" transform="scale(0.015625)"/>
       </defs>
       <use xlink:href="#DejaVuSans-31"/>
       <use xlink:href="#DejaVuSans-30" x="63.623047"/>
      </g>
     </g>
    </g>
    <g id="text_7">
     <!-- $x$ -->
     <g transform="translate(233.16 335.860562)scale(0.1 -0.1)">
      <defs>
       <path id="DejaVuSans-Oblique-78" d="M 3841 3500 
L 2234 1784 
L 3219 0 
L 2559 0 
L 1819 1388 
L 531 0 
L -166 0 
L 1556 1844 
L 641 3500 
L 1300 3500 
L 1972 2234 
L 3144 3500 
L 3841 3500 
z
" transform="scale(0.015625)"/>
      </defs>
      <use xlink:href="#DejaVuSans-Oblique-78" transform="translate(0 0.3125)"/>
     </g>
    </g>
   </g>
   <g id="matplotlib.axis_2">
    <g id="ytick_1">
     <g id="line2d_7">
      <defs>
       <path id="m86bab99260" d="M 0 0 
L -3.5 0 
" style="stroke: #000000; stroke-width: 0.8"/>
      </defs>
      <g>
       <use xlink:href="#m86bab99260" x="57.6" y="290.405273" style="stroke: #000000; stroke-width: 0.8"/>
      </g>
     </g>
     <g id="text_8">
      <!-- 6 -->
      <g transform="translate(35.857813 294.204491)scale(0.1 -0.1)">
       <defs>
        <path id="DejaVuSans-2212" d="M 678 2272 
L 4684 2272 
L 4684 1741 
L 678 1741 
L 678 2272 
z
" transform="scale(0.015625)"/>
       </defs>
       <use xlink:href="#DejaVuSans-2212"/>
       <use xlink:href="#DejaVuSans-36" x="83.789062"/>
      </g>
     </g>
    </g>
    <g id="ytick_2">
     <g id="line2d_8">
      <g>
       <use xlink:href="#m86bab99260" x="57.6" y="257.733133" style="stroke: #000000; stroke-width: 0.8"/>
      </g>
     </g>
     <g id="text_9">
      <!-- 4 -->
      <g transform="translate(35.857813 261.532352)scale(0.1 -0.1)">
       <use xlink:href="#DejaVuSans-2212"/>
       <use xlink:href="#DejaVuSans-34" x="83.789062"/>
      </g>
     </g>
    </g>
    <g id="ytick_3">
     <g id="line2d_9">
      <g>
       <use xlink:href="#m86bab99260" x="57.6" y="225.060994" style="stroke: #000000; stroke-width: 0.8"/>
      </g>
     </g>
     <g id="text_10">
      <!-- 2 -->
      <g transform="translate(35.857813 228.860213)scale(0.1 -0.1)">
       <use xlink:href="#DejaVuSans-2212"/>
       <use xlink:href="#DejaVuSans-32" x="83.789062"/>
      </g>
     </g>
    </g>
    <g id="ytick_4">
     <g id="line2d_10">
      <g>
       <use xlink:href="#m86bab99260" x="57.6" y="192.388855" style="stroke: #000000; stroke-width: 0.8"/>
      </g>
     </g>
     <g id="text_11">
      <!-- 0 -->
      <g transform="translate(44.2375 196.188074)scale(0.1 -0.1)">
       <use xlink:href="#DejaVuSans-30"/>
      </g>
     </g>
    </g>
    <g id="ytick_5">
     <g id="line2d_11">
      <g>
       <use xlink:href="#m86bab99260" x="57.6" y="159.716715" style="stroke: #000000; stroke-width: 0.8"/>
      </g>
     </g>
     <g id="text_12">
      <!-- 2 -->
      <g transform="translate(44.2375 163.515934)scale(0.1 -0.1)">
       <use xlink:href="#DejaVuSans-32"/>
      </g>
     </g>
    </g>
    <g id="ytick_6">
     <g id="line2d_12">
      <g>
       <use xlink:href="#m86bab99260" x="57.6" y="127.044576" style="stroke: #000000; stroke-width: 0.8"/>
      </g>
     </g>
     <g id="text_13">
      <!-- 4 -->
      <g transform="translate(44.2375 130.843795)scale(0.1 -0.1)">
       <use xlink:href="#DejaVuSans-34"/>
      </g>
     </g>
    </g>
    <g id="ytick_7">
     <g id="line2d_13">
      <g>
       <use xlink:href="#m86bab99260" x="57.6" y="94.372437" style="stroke: #000000; stroke-width: 0.8"/>
      </g>
     </g>
     <g id="text_14">
      <!-- 6 -->
      <g transform="translate(44.2375 98.171656)scale(0.1 -0.1)">
       <use xlink:href="#DejaVuSans-36"/>
      </g>
     </g>
    </g>
    <g id="ytick_8">
     <g id="line2d_14">
      <g>
       <use xlink:href="#m86bab99260" x="57.6" y="61.700297" style="stroke: #000000; stroke-width: 0.8"/>
      </g>
     </g>
     <g id="text_15">
      <!-- 8 -->
      <g transform="translate(44.2375 65.499516)scale(0.1 -0.1)">
       <use xlink:href="#DejaVuSans-38"/>
      </g>
     </g>
    </g>
    <g id="text_16">
     <!-- $f$ -->
     <g transform="translate(29.778125 176.328)rotate(-90)scale(0.1 -0.1)">
      <defs>
       <path id="DejaVuSans-Oblique-66" d="M 3059 4863 
L 2969 4384 
L 2419 4384 
Q 2106 4384 1964 4261 
Q 1822 4138 1753 3809 
L 1691 3500 
L 2638 3500 
L 2553 3053 
L 1606 3053 
L 1013 0 
L 434 0 
L 1031 3053 
L 481 3053 
L 563 3500 
L 1113 3500 
L 1159 3744 
Q 1278 4363 1576 4613 
Q 1875 4863 2516 4863 
L 3059 4863 
z
" transform="scale(0.015625)"/>
      </defs>
      <use xlink:href="#DejaVuSans-Oblique-66" transform="translate(0 0.015625)"/>
     </g>
    </g>
   </g>
   <g id="line2d_15">
    <path d="M 73.832727 192.388855 
L 76.432563 192.284206 
L 79.0324 191.971603 
L 81.632236 191.455056 
L 84.557052 190.638535 
L 87.481867 189.585713 
L 90.731663 188.159914 
L 93.981458 186.492909 
L 97.881212 184.22282 
L 102.430925 181.289749 
L 109.255495 176.576508 
L 116.730025 171.471888 
L 120.954758 168.846503 
L 124.529533 166.880164 
L 127.779328 165.355819 
L 130.704144 164.239365 
L 133.30398 163.477682 
L 135.903817 162.955317 
L 138.178673 162.709827 
L 140.45353 162.67406 
L 142.728387 162.858322 
L 145.003243 163.271472 
L 147.2781 163.920837 
L 149.552957 164.812125 
L 151.827813 165.949354 
L 154.10267 167.334795 
L 156.377527 168.968917 
L 158.977363 171.139153 
L 161.577199 173.627325 
L 164.177035 176.425208 
L 167.101851 179.928677 
L 170.026667 183.78852 
L 173.276462 188.463396 
L 176.851237 194.025628 
L 180.750991 200.519001 
L 185.625684 209.111988 
L 193.100213 222.835313 
L 200.574742 236.431161 
L 205.124455 244.238908 
L 208.69923 249.949289 
L 211.949025 254.719968 
L 214.873841 258.605727 
L 217.473677 261.690449 
L 219.748534 264.075141 
L 222.023391 266.14266 
L 223.973268 267.646273 
L 225.923145 268.888823 
L 227.873022 269.858766 
L 229.822899 270.545533 
L 231.447797 270.894611 
L 233.072695 271.035457 
L 234.697592 270.963681 
L 236.32249 270.675466 
L 237.947387 270.167584 
L 239.572285 269.437418 
L 241.197183 268.482977 
L 242.82208 267.302909 
L 244.771957 265.588062 
L 246.721835 263.547396 
L 248.671712 261.182365 
L 250.621589 258.495838 
L 252.896446 254.961025 
L 255.171302 251.003791 
L 257.771138 245.979389 
L 260.370975 240.44086 
L 263.29579 233.628452 
L 266.220606 226.242804 
L 269.470401 217.425923 
L 273.045176 207.07605 
L 277.26991 194.120709 
L 282.469582 177.402408 
L 299.043538 123.469782 
L 302.943292 111.81536 
L 306.193088 102.724911 
L 309.117903 95.128502 
L 312.042719 88.169952 
L 314.642555 82.582107 
L 316.917412 78.195826 
L 319.192269 74.312546 
L 321.142146 71.406927 
L 323.092023 68.910002 
L 324.716921 67.152962 
L 326.341818 65.699272 
L 327.966716 64.556647 
L 329.591613 63.732035 
L 330.891532 63.305483 
L 332.19145 63.089196 
L 333.491368 63.08561 
L 334.791286 63.296811 
L 336.091204 63.72453 
L 337.391122 64.370134 
L 338.69104 65.234622 
L 340.315938 66.623957 
L 341.940835 68.356645 
L 343.565733 70.43215 
L 345.190631 72.848997 
L 347.140508 76.19631 
L 349.090385 80.025635 
L 351.040262 84.329023 
L 353.315119 89.935481 
L 355.589975 96.154556 
L 358.189812 103.983044 
L 360.789648 112.542726 
L 363.714464 122.990073 
L 366.964259 135.528146 
L 370.539034 150.3212 
L 374.438788 167.466673 
L 378.988501 188.492414 
L 385.813071 221.239402 
L 395.237477 266.36966 
L 398.487273 281.260522 
L 398.487273 281.260522 
" clip-path="url(#p64c50b6d41)" style="fill: none; stroke: #1f77b4; stroke-width: 1.5; stroke-linecap: square"/>
   </g>
   <g id="line2d_16">
    <path d="M 73.832727 185.839261 
L 78.057461 184.59361 
L 82.282195 183.12119 
L 86.831908 181.306012 
L 92.031581 178.987332 
L 98.531171 175.832848 
L 112.505291 168.9639 
L 117.055004 167.00581 
L 120.954758 165.554665 
L 124.529533 164.462219 
L 127.779328 163.705742 
L 130.704144 163.245944 
L 133.62896 163.019535 
L 136.228796 163.031866 
L 138.828632 163.260058 
L 141.428468 163.717097 
L 144.028305 164.41455 
L 146.628141 165.362385 
L 149.227977 166.568787 
L 151.827813 168.039998 
L 154.427649 169.780154 
L 157.027486 171.791143 
L 159.627322 174.072478 
L 162.552138 176.958323 
L 165.476953 180.17434 
L 168.401769 183.708124 
L 171.651564 187.98673 
L 175.226339 193.087156 
L 179.126093 199.066465 
L 183.675807 206.490922 
L 189.525438 216.525176 
L 202.849599 239.571071 
L 207.074333 246.331977 
L 210.649107 251.630214 
L 213.573923 255.601218 
L 216.498739 259.185877 
L 219.098575 262.005008 
L 221.373432 264.158878 
L 223.648288 265.996867 
L 225.598165 267.30456 
L 227.548043 268.35171 
L 229.49792 269.126516 
L 231.122817 269.556292 
L 232.747715 269.783656 
L 234.372613 269.803401 
L 235.99751 269.610876 
L 237.622408 269.202009 
L 239.247305 268.573339 
L 240.872203 267.722035 
L 242.497101 266.645917 
L 244.446978 265.05575 
L 246.396855 263.138429 
L 248.346732 260.894134 
L 250.296609 258.324543 
L 252.571466 254.919903 
L 254.846323 251.084647 
L 257.121179 246.829369 
L 259.721016 241.469276 
L 262.320852 235.602881 
L 265.245667 228.434756 
L 268.495463 219.821986 
L 272.070238 209.649582 
L 275.969992 197.851793 
L 280.844685 182.330007 
L 288.644193 156.581914 
L 295.793743 133.222624 
L 300.343456 119.10607 
L 303.918231 108.690649 
L 307.168026 99.885957 
L 310.092842 92.600739 
L 312.692678 86.699895 
L 314.967535 82.023499 
L 317.242391 77.835765 
L 319.192269 74.658202 
L 321.142146 71.879434 
L 323.092023 69.515485 
L 324.716921 67.872872 
L 326.341818 66.535871 
L 327.966716 65.51114 
L 329.266634 64.920123 
L 330.566552 64.535267 
L 331.86647 64.358784 
L 333.166388 64.392515 
L 334.466306 64.637932 
L 335.766224 65.096127 
L 337.066143 65.767815 
L 338.366061 66.65333 
L 339.990958 68.060804 
L 341.615856 69.801338 
L 343.240753 71.873061 
L 344.865651 74.273175 
L 346.815528 77.581491 
L 348.765405 81.349143 
L 350.715283 85.566142 
L 352.990139 91.038073 
L 355.264996 97.08379 
L 357.864832 104.663833 
L 360.464668 112.919154 
L 363.389484 122.955724 
L 366.639279 134.952769 
L 370.214054 149.052139 
L 374.113808 165.33519 
L 378.988501 186.696082 
L 386.138051 219.193273 
L 396.212416 264.918784 
L 398.487273 274.897537 
L 398.487273 274.897537 
" clip-path="url(#p64c50b6d41)" style="fill: none; stroke: #ff7f0e; stroke-width: 1.5; stroke-linecap: square"/>
   </g>
   <g id="patch_3">
    <path d="M 57.6 307.584 
L 57.6 41.472 
" style="fill: none; stroke: #000000; stroke-width: 0.8; stroke-linejoin: miter; stroke-linecap: square"/>
   </g>
   <g id="patch_4">
    <path d="M 414.72 307.584 
L 414.72 41.472 
" style="fill: none; stroke: #000000; stroke-width: 0.8; stroke-linejoin: miter; stroke-linecap: square"/>
   </g>
   <g id="patch_5">
    <path d="M 57.6 307.584 
L 414.72 307.584 
" style="fill: none; stroke: #000000; stroke-width: 0.8; stroke-linejoin: miter; stroke-linecap: square"/>
   </g>
   <g id="patch_6">
    <path d="M 57.6 41.472 
L 414.72 41.472 
" style="fill: none; stroke: #000000; stroke-width: 0.8; stroke-linejoin: miter; stroke-linecap: square"/>
   </g>
   <g id="text_17">
    <!-- $\alpha=64.1$; $\ell=2.08$; $\sigma = 0.922$ -->
    <g transform="translate(152.16 35.472)scale(0.12 -0.12)">
     <defs>
      <path id="DejaVuSans-Oblique-3b1" d="M 2619 1628 
L 2622 2350 
Q 2625 3088 2069 3091 
Q 1653 3094 1394 2747 
Q 1069 2319 959 1747 
Q 825 1059 994 731 
Q 1169 397 1547 397 
Q 1966 397 2319 1063 
L 2619 1628 
z
M 2166 3578 
Q 3141 3594 3128 2584 
Q 3128 2584 3616 3500 
L 4128 3500 
L 3119 1603 
L 3109 919 
Q 3109 766 3194 638 
Q 3291 488 3391 488 
L 3669 488 
L 3575 0 
L 3228 0 
Q 2934 0 2722 263 
Q 2622 394 2619 669 
Q 2416 334 2066 50 
Q 1900 -81 1453 -78 
Q 722 -72 456 397 
Q 184 884 353 1747 
Q 534 2675 1009 3097 
Q 1544 3569 2166 3578 
z
" transform="scale(0.015625)"/>
      <path id="DejaVuSans-3d" d="M 678 2906 
L 4684 2906 
L 4684 2381 
L 678 2381 
L 678 2906 
z
M 678 1631 
L 4684 1631 
L 4684 1100 
L 678 1100 
L 678 1631 
z
" transform="scale(0.015625)"/>
      <path id="DejaVuSans-2e" d="M 684 794 
L 1344 794 
L 1344 0 
L 684 0 
L 684 794 
z
" transform="scale(0.015625)"/>
      <path id="DejaVuSans-3b" d="M 750 3309 
L 1409 3309 
L 1409 2516 
L 750 2516 
L 750 3309 
z
M 750 794 
L 1409 794 
L 1409 256 
L 897 -744 
L 494 -744 
L 750 256 
L 750 794 
z
" transform="scale(0.015625)"/>
      <path id="DejaVuSans-20" transform="scale(0.015625)"/>
      <path id="DejaVuSans-Oblique-2113" d="M 950 838 
Q 1078 213 1350 213 
Q 1531 213 1766 572 
L 2181 572 
Q 1994 253 1775 88 
Q 1538 -91 1319 -91 
Q 831 -91 634 344 
L 400 0 
L -88 0 
Q 250 459 500 888 
Q 469 1131 469 1397 
Q 469 1872 566 2347 
Q 931 4131 1256 4497 
Q 1481 4750 1866 4750 
Q 2256 4750 2256 4209 
Q 2253 3966 2197 3675 
Q 1972 2484 950 838 
z
M 947 1656 
Q 1531 2744 1709 3613 
Q 1803 4072 1803 4191 
Q 1803 4406 1725 4406 
Q 1384 4134 1081 2516 
Q 997 2063 947 1656 
z
" transform="scale(0.015625)"/>
      <path id="DejaVuSans-Oblique-3c3" d="M 2219 3044 
Q 1744 3044 1422 2700 
Q 1081 2341 969 1747 
Q 844 1119 1044 756 
Q 1241 397 1706 397 
Q 2166 397 2503 759 
Q 2844 1122 2966 1747 
Q 3075 2319 2881 2700 
Q 2700 3044 2219 3044 
z
M 2309 3503 
L 4219 3500 
L 4106 2925 
L 3463 2925 
Q 3706 2438 3575 1747 
Q 3406 888 2884 400 
Q 2359 -91 1609 -91 
Q 856 -91 525 400 
Q 194 888 363 1747 
Q 528 2609 1050 3097 
Q 1484 3503 2309 3503 
z
" transform="scale(0.015625)"/>
      <path id="DejaVuSans-39" d="M 703 97 
L 703 672 
Q 941 559 1184 500 
Q 1428 441 1663 441 
Q 2288 441 2617 861 
Q 2947 1281 2994 2138 
Q 2813 1869 2534 1725 
Q 2256 1581 1919 1581 
Q 1219 1581 811 2004 
Q 403 2428 403 3163 
Q 403 3881 828 4315 
Q 1253 4750 1959 4750 
Q 2769 4750 3195 4129 
Q 3622 3509 3622 2328 
Q 3622 1225 3098 567 
Q 2575 -91 1691 -91 
Q 1453 -91 1209 -44 
Q 966 3 703 97 
z
M 1959 2075 
Q 2384 2075 2632 2365 
Q 2881 2656 2881 3163 
Q 2881 3666 2632 3958 
Q 2384 4250 1959 4250 
Q 1534 4250 1286 3958 
Q 1038 3666 1038 3163 
Q 1038 2656 1286 2365 
Q 1534 2075 1959 2075 
z
" transform="scale(0.015625)"/>
     </defs>
     <use xlink:href="#DejaVuSans-Oblique-3b1" transform="translate(0 0.78125)"/>
     <use xlink:href="#DejaVuSans-3d" transform="translate(85.400391 0.78125)"/>
     <use xlink:href="#DejaVuSans-36" transform="translate(188.671875 0.78125)"/>
     <use xlink:href="#DejaVuSans-34" transform="translate(252.294922 0.78125)"/>
     <use xlink:href="#DejaVuSans-2e" transform="translate(315.917969 0.78125)"/>
     <use xlink:href="#DejaVuSans-31" transform="translate(347.705078 0.78125)"/>
     <use xlink:href="#DejaVuSans-3b" transform="translate(411.328125 0.78125)"/>
     <use xlink:href="#DejaVuSans-20" transform="translate(445.019531 0.78125)"/>
     <use xlink:href="#DejaVuSans-Oblique-2113" transform="translate(476.806641 0.78125)"/>
     <use xlink:href="#DejaVuSans-3d" transform="translate(537.597656 0.78125)"/>
     <use xlink:href="#DejaVuSans-32" transform="translate(640.869141 0.78125)"/>
     <use xlink:href="#DejaVuSans-2e" transform="translate(704.492188 0.78125)"/>
     <use xlink:href="#DejaVuSans-30" transform="translate(736.279297 0.78125)"/>
     <use xlink:href="#DejaVuSans-38" transform="translate(799.902344 0.78125)"/>
     <use xlink:href="#DejaVuSans-3b" transform="translate(863.525391 0.78125)"/>
     <use xlink:href="#DejaVuSans-20" transform="translate(897.216797 0.78125)"/>
     <use xlink:href="#DejaVuSans-Oblique-3c3" transform="translate(929.003906 0.78125)"/>
     <use xlink:href="#DejaVuSans-3d" transform="translate(1011.865234 0.78125)"/>
     <use xlink:href="#DejaVuSans-30" transform="translate(1115.136719 0.78125)"/>
     <use xlink:href="#DejaVuSans-2e" transform="translate(1178.759766 0.78125)"/>
     <use xlink:href="#DejaVuSans-39" transform="translate(1210.546875 0.78125)"/>
     <use xlink:href="#DejaVuSans-32" transform="translate(1272.419922 0.78125)"/>
     <use xlink:href="#DejaVuSans-32" transform="translate(1336.042969 0.78125)"/>
    </g>
   </g>
   <g id="legend_1">
    <g id="patch_7">
     <path d="M 64.6 108.1845 
L 236.2 108.1845 
Q 238.2 108.1845 238.2 106.1845 
L 238.2 48.472 
Q 238.2 46.472 236.2 46.472 
L 64.6 46.472 
Q 62.6 46.472 62.6 48.472 
L 62.6 106.1845 
Q 62.6 108.1845 64.6 108.1845 
z
" style="fill: #ffffff; opacity: 0.8; stroke: #cccccc; stroke-linejoin: miter"/>
    </g>
    <g id="PathCollection_2">
     <g>
      <use xlink:href="#m817adac2ad" x="76.6" y="55.445438" style="stroke: #000000"/>
     </g>
    </g>
    <g id="text_18">
     <!-- Training Data -->
     <g transform="translate(94.6 58.070438)scale(0.1 -0.1)">
      <defs>
       <path id="DejaVuSans-54" d="M -19 4666 
L 3928 4666 
L 3928 4134 
L 2272 4134 
L 2272 0 
L 1638 0 
L 1638 4134 
L -19 4134 
L -19 4666 
z
" transform="scale(0.015625)"/>
       <path id="DejaVuSans-72" d="M 2631 2963 
Q 2534 3019 2420 3045 
Q 2306 3072 2169 3072 
Q 1681 3072 1420 2755 
Q 1159 2438 1159 1844 
L 1159 0 
L 581 0 
L 581 3500 
L 1159 3500 
L 1159 2956 
Q 1341 3275 1631 3429 
Q 1922 3584 2338 3584 
Q 2397 3584 2469 3576 
Q 2541 3569 2628 3553 
L 2631 2963 
z
" transform="scale(0.015625)"/>
       <path id="DejaVuSans-61" d="M 2194 1759 
Q 1497 1759 1228 1600 
Q 959 1441 959 1056 
Q 959 750 1161 570 
Q 1363 391 1709 391 
Q 2188 391 2477 730 
Q 2766 1069 2766 1631 
L 2766 1759 
L 2194 1759 
z
M 3341 1997 
L 3341 0 
L 2766 0 
L 2766 531 
Q 2569 213 2275 61 
Q 1981 -91 1556 -91 
Q 1019 -91 701 211 
Q 384 513 384 1019 
Q 384 1609 779 1909 
Q 1175 2209 1959 2209 
L 2766 2209 
L 2766 2266 
Q 2766 2663 2505 2880 
Q 2244 3097 1772 3097 
Q 1472 3097 1187 3025 
Q 903 2953 641 2809 
L 641 3341 
Q 956 3463 1253 3523 
Q 1550 3584 1831 3584 
Q 2591 3584 2966 3190 
Q 3341 2797 3341 1997 
z
" transform="scale(0.015625)"/>
       <path id="DejaVuSans-69" d="M 603 3500 
L 1178 3500 
L 1178 0 
L 603 0 
L 603 3500 
z
M 603 4863 
L 1178 4863 
L 1178 4134 
L 603 4134 
L 603 4863 
z
" transform="scale(0.015625)"/>
       <path id="DejaVuSans-6e" d="M 3513 2113 
L 3513 0 
L 2938 0 
L 2938 2094 
Q 2938 2591 2744 2837 
Q 2550 3084 2163 3084 
Q 1697 3084 1428 2787 
Q 1159 2491 1159 1978 
L 1159 0 
L 581 0 
L 581 3500 
L 1159 3500 
L 1159 2956 
Q 1366 3272 1645 3428 
Q 1925 3584 2291 3584 
Q 2894 3584 3203 3211 
Q 3513 2838 3513 2113 
z
" transform="scale(0.015625)"/>
       <path id="DejaVuSans-67" d="M 2906 1791 
Q 2906 2416 2648 2759 
Q 2391 3103 1925 3103 
Q 1463 3103 1205 2759 
Q 947 2416 947 1791 
Q 947 1169 1205 825 
Q 1463 481 1925 481 
Q 2391 481 2648 825 
Q 2906 1169 2906 1791 
z
M 3481 434 
Q 3481 -459 3084 -895 
Q 2688 -1331 1869 -1331 
Q 1566 -1331 1297 -1286 
Q 1028 -1241 775 -1147 
L 775 -588 
Q 1028 -725 1275 -790 
Q 1522 -856 1778 -856 
Q 2344 -856 2625 -561 
Q 2906 -266 2906 331 
L 2906 616 
Q 2728 306 2450 153 
Q 2172 0 1784 0 
Q 1141 0 747 490 
Q 353 981 353 1791 
Q 353 2603 747 3093 
Q 1141 3584 1784 3584 
Q 2172 3584 2450 3431 
Q 2728 3278 2906 2969 
L 2906 3500 
L 3481 3500 
L 3481 434 
z
" transform="scale(0.015625)"/>
       <path id="DejaVuSans-44" d="M 1259 4147 
L 1259 519 
L 2022 519 
Q 2988 519 3436 956 
Q 3884 1394 3884 2338 
Q 3884 3275 3436 3711 
Q 2988 4147 2022 4147 
L 1259 4147 
z
M 628 4666 
L 1925 4666 
Q 3281 4666 3915 4102 
Q 4550 3538 4550 2338 
Q 4550 1131 3912 565 
Q 3275 0 1925 0 
L 628 0 
L 628 4666 
z
" transform="scale(0.015625)"/>
       <path id="DejaVuSans-74" d="M 1172 4494 
L 1172 3500 
L 2356 3500 
L 2356 3053 
L 1172 3053 
L 1172 1153 
Q 1172 725 1289 603 
Q 1406 481 1766 481 
L 2356 481 
L 2356 0 
L 1766 0 
Q 1100 0 847 248 
Q 594 497 594 1153 
L 594 3053 
L 172 3053 
L 172 3500 
L 594 3500 
L 594 4494 
L 1172 4494 
z
" transform="scale(0.015625)"/>
      </defs>
      <use xlink:href="#DejaVuSans-54"/>
      <use xlink:href="#DejaVuSans-72" x="46.333984"/>
      <use xlink:href="#DejaVuSans-61" x="87.447266"/>
      <use xlink:href="#DejaVuSans-69" x="148.726562"/>
      <use xlink:href="#DejaVuSans-6e" x="176.509766"/>
      <use xlink:href="#DejaVuSans-69" x="239.888672"/>
      <use xlink:href="#DejaVuSans-6e" x="267.671875"/>
      <use xlink:href="#DejaVuSans-67" x="331.050781"/>
      <use xlink:href="#DejaVuSans-20" x="394.527344"/>
      <use xlink:href="#DejaVuSans-44" x="426.314453"/>
      <use xlink:href="#DejaVuSans-61" x="503.316406"/>
      <use xlink:href="#DejaVuSans-74" x="564.595703"/>
      <use xlink:href="#DejaVuSans-61" x="603.804688"/>
     </g>
    </g>
    <g id="line2d_17">
     <path d="M 66.6 69.248563 
L 76.6 69.248563 
L 86.6 69.248563 
" style="fill: none; stroke: #1f77b4; stroke-width: 1.5; stroke-linecap: square"/>
    </g>
    <g id="text_19">
     <!-- $f=x \sin x$ -->
     <g transform="translate(94.6 72.748563)scale(0.1 -0.1)">
      <defs>
       <path id="DejaVuSans-73" d="M 2834 3397 
L 2834 2853 
Q 2591 2978 2328 3040 
Q 2066 3103 1784 3103 
Q 1356 3103 1142 2972 
Q 928 2841 928 2578 
Q 928 2378 1081 2264 
Q 1234 2150 1697 2047 
L 1894 2003 
Q 2506 1872 2764 1633 
Q 3022 1394 3022 966 
Q 3022 478 2636 193 
Q 2250 -91 1575 -91 
Q 1294 -91 989 -36 
Q 684 19 347 128 
L 347 722 
Q 666 556 975 473 
Q 1284 391 1588 391 
Q 1994 391 2212 530 
Q 2431 669 2431 922 
Q 2431 1156 2273 1281 
Q 2116 1406 1581 1522 
L 1381 1569 
Q 847 1681 609 1914 
Q 372 2147 372 2553 
Q 372 3047 722 3315 
Q 1072 3584 1716 3584 
Q 2034 3584 2315 3537 
Q 2597 3491 2834 3397 
z
" transform="scale(0.015625)"/>
      </defs>
      <use xlink:href="#DejaVuSans-Oblique-66" transform="translate(0 0.015625)"/>
      <use xlink:href="#DejaVuSans-3d" transform="translate(54.6875 0.015625)"/>
      <use xlink:href="#DejaVuSans-Oblique-78" transform="translate(157.958984 0.015625)"/>
      <use xlink:href="#DejaVuSans-73" transform="translate(217.138672 0.015625)"/>
      <use xlink:href="#DejaVuSans-69" transform="translate(269.238281 0.015625)"/>
      <use xlink:href="#DejaVuSans-6e" transform="translate(297.021484 0.015625)"/>
      <use xlink:href="#DejaVuSans-Oblique-78" transform="translate(376.636067 0.015625)"/>
     </g>
    </g>
    <g id="line2d_18">
     <path d="M 66.6 83.926688 
L 76.6 83.926688 
L 86.6 83.926688 
" style="fill: none; stroke: #ff7f0e; stroke-width: 1.5; stroke-linecap: square"/>
    </g>
    <g id="text_20">
     <!-- Prediction -->
     <g transform="translate(94.6 87.426688)scale(0.1 -0.1)">
      <defs>
       <path id="DejaVuSans-50" d="M 1259 4147 
L 1259 2394 
L 2053 2394 
Q 2494 2394 2734 2622 
Q 2975 2850 2975 3272 
Q 2975 3691 2734 3919 
Q 2494 4147 2053 4147 
L 1259 4147 
z
M 628 4666 
L 2053 4666 
Q 2838 4666 3239 4311 
Q 3641 3956 3641 3272 
Q 3641 2581 3239 2228 
Q 2838 1875 2053 1875 
L 1259 1875 
L 1259 0 
L 628 0 
L 628 4666 
z
" transform="scale(0.015625)"/>
       <path id="DejaVuSans-65" d="M 3597 1894 
L 3597 1613 
L 953 1613 
Q 991 1019 1311 708 
Q 1631 397 2203 397 
Q 2534 397 2845 478 
Q 3156 559 3463 722 
L 3463 178 
Q 3153 47 2828 -22 
Q 2503 -91 2169 -91 
Q 1331 -91 842 396 
Q 353 884 353 1716 
Q 353 2575 817 3079 
Q 1281 3584 2069 3584 
Q 2775 3584 3186 3129 
Q 3597 2675 3597 1894 
z
M 3022 2063 
Q 3016 2534 2758 2815 
Q 2500 3097 2075 3097 
Q 1594 3097 1305 2825 
Q 1016 2553 972 2059 
L 3022 2063 
z
" transform="scale(0.015625)"/>
       <path id="DejaVuSans-64" d="M 2906 2969 
L 2906 4863 
L 3481 4863 
L 3481 0 
L 2906 0 
L 2906 525 
Q 2725 213 2448 61 
Q 2172 -91 1784 -91 
Q 1150 -91 751 415 
Q 353 922 353 1747 
Q 353 2572 751 3078 
Q 1150 3584 1784 3584 
Q 2172 3584 2448 3432 
Q 2725 3281 2906 2969 
z
M 947 1747 
Q 947 1113 1208 752 
Q 1469 391 1925 391 
Q 2381 391 2643 752 
Q 2906 1113 2906 1747 
Q 2906 2381 2643 2742 
Q 2381 3103 1925 3103 
Q 1469 3103 1208 2742 
Q 947 2381 947 1747 
z
" transform="scale(0.015625)"/>
       <path id="DejaVuSans-63" d="M 3122 3366 
L 3122 2828 
Q 2878 2963 2633 3030 
Q 2388 3097 2138 3097 
Q 1578 3097 1268 2742 
Q 959 2388 959 1747 
Q 959 1106 1268 751 
Q 1578 397 2138 397 
Q 2388 397 2633 464 
Q 2878 531 3122 666 
L 3122 134 
Q 2881 22 2623 -34 
Q 2366 -91 2075 -91 
Q 1284 -91 818 406 
Q 353 903 353 1747 
Q 353 2603 823 3093 
Q 1294 3584 2113 3584 
Q 2378 3584 2631 3529 
Q 2884 3475 3122 3366 
z
" transform="scale(0.015625)"/>
       <path id="DejaVuSans-6f" d="M 1959 3097 
Q 1497 3097 1228 2736 
Q 959 2375 959 1747 
Q 959 1119 1226 758 
Q 1494 397 1959 397 
Q 2419 397 2687 759 
Q 2956 1122 2956 1747 
Q 2956 2369 2687 2733 
Q 2419 3097 1959 3097 
z
M 1959 3584 
Q 2709 3584 3137 3096 
Q 3566 2609 3566 1747 
Q 3566 888 3137 398 
Q 2709 -91 1959 -91 
Q 1206 -91 779 398 
Q 353 888 353 1747 
Q 353 2609 779 3096 
Q 1206 3584 1959 3584 
z
" transform="scale(0.015625)"/>
      </defs>
      <use xlink:href="#DejaVuSans-50"/>
      <use xlink:href="#DejaVuSans-72" x="58.552734"/>
      <use xlink:href="#DejaVuSans-65" x="97.416016"/>
      <use xlink:href="#DejaVuSans-64" x="158.939453"/>
      <use xlink:href="#DejaVuSans-69" x="222.416016"/>
      <use xlink:href="#DejaVuSans-63" x="250.199219"/>
      <use xlink:href="#DejaVuSans-74" x="305.179688"/>
      <use xlink:href="#DejaVuSans-69" x="344.388672"/>
      <use xlink:href="#DejaVuSans-6f" x="372.171875"/>
      <use xlink:href="#DejaVuSans-6e" x="433.353516"/>
     </g>
    </g>
    <g id="patch_8">
     <path d="M 66.6 102.104813 
L 86.6 102.104813 
L 86.6 95.104813 
L 66.6 95.104813 
z
" style="fill: #ff7f0e; fill-opacity: 0.25; stroke: #ff7f0e; stroke-opacity: 0.25; stroke-linejoin: miter"/>
    </g>
    <g id="text_21">
     <!-- Prediction Intervals of Mean -->
     <g transform="translate(94.6 102.104813)scale(0.1 -0.1)">
      <defs>
       <path id="DejaVuSans-49" d="M 628 4666 
L 1259 4666 
L 1259 0 
L 628 0 
L 628 4666 
z
" transform="scale(0.015625)"/>
       <path id="DejaVuSans-76" d="M 191 3500 
L 800 3500 
L 1894 563 
L 2988 3500 
L 3597 3500 
L 2284 0 
L 1503 0 
L 191 3500 
z
" transform="scale(0.015625)"/>
       <path id="DejaVuSans-6c" d="M 603 4863 
L 1178 4863 
L 1178 0 
L 603 0 
L 603 4863 
z
" transform="scale(0.015625)"/>
       <path id="DejaVuSans-66" d="M 2375 4863 
L 2375 4384 
L 1825 4384 
Q 1516 4384 1395 4259 
Q 1275 4134 1275 3809 
L 1275 3500 
L 2222 3500 
L 2222 3053 
L 1275 3053 
L 1275 0 
L 697 0 
L 697 3053 
L 147 3053 
L 147 3500 
L 697 3500 
L 697 3744 
Q 697 4328 969 4595 
Q 1241 4863 1831 4863 
L 2375 4863 
z
" transform="scale(0.015625)"/>
       <path id="DejaVuSans-4d" d="M 628 4666 
L 1569 4666 
L 2759 1491 
L 3956 4666 
L 4897 4666 
L 4897 0 
L 4281 0 
L 4281 4097 
L 3078 897 
L 2444 897 
L 1241 4097 
L 1241 0 
L 628 0 
L 628 4666 
z
" transform="scale(0.015625)"/>
      </defs>
      <use xlink:href="#DejaVuSans-50"/>
      <use xlink:href="#DejaVuSans-72" x="58.552734"/>
      <use xlink:href="#DejaVuSans-65" x="97.416016"/>
      <use xlink:href="#DejaVuSans-64" x="158.939453"/>
      <use xlink:href="#DejaVuSans-69" x="222.416016"/>
      <use xlink:href="#DejaVuSans-63" x="250.199219"/>
      <use xlink:href="#DejaVuSans-74" x="305.179688"/>
      <use xlink:href="#DejaVuSans-69" x="344.388672"/>
      <use xlink:href="#DejaVuSans-6f" x="372.171875"/>
      <use xlink:href="#DejaVuSans-6e" x="433.353516"/>
      <use xlink:href="#DejaVuSans-20" x="496.732422"/>
      <use xlink:href="#DejaVuSans-49" x="528.519531"/>
      <use xlink:href="#DejaVuSans-6e" x="558.011719"/>
      <use xlink:href="#DejaVuSans-74" x="621.390625"/>
      <use xlink:href="#DejaVuSans-65" x="660.599609"/>
      <use xlink:href="#DejaVuSans-72" x="722.123047"/>
      <use xlink:href="#DejaVuSans-76" x="763.236328"/>
      <use xlink:href="#DejaVuSans-61" x="822.416016"/>
      <use xlink:href="#DejaVuSans-6c" x="883.695312"/>
      <use xlink:href="#DejaVuSans-73" x="911.478516"/>
      <use xlink:href="#DejaVuSans-20" x="963.578125"/>
      <use xlink:href="#DejaVuSans-6f" x="995.365234"/>
      <use xlink:href="#DejaVuSans-66" x="1056.546875"/>
      <use xlink:href="#DejaVuSans-20" x="1091.751953"/>
      <use xlink:href="#DejaVuSans-4d" x="1123.539062"/>
      <use xlink:href="#DejaVuSans-65" x="1209.818359"/>
      <use xlink:href="#DejaVuSans-61" x="1271.341797"/>
      <use xlink:href="#DejaVuSans-6e" x="1332.621094"/>
     </g>
    </g>
   </g>
  </g>
 </g>
 <defs>
  <clipPath id="p64c50b6d41">
   <rect x="57.6" y="41.472" width="357.12" height="266.112"/>
  </clipPath>
 </defs>
</svg>
