<?xml version="1.0" encoding="utf-8" standalone="no"?>
<!DOCTYPE svg PUBLIC "-//W3C//DTD SVG 1.1//EN"
  "http://www.w3.org/Graphics/SVG/1.1/DTD/svg11.dtd">
<svg height="662.4pt" version="1.1" viewBox="0 0 1490.4 662.4" width="1490.4pt" xmlns="http://www.w3.org/2000/svg" xmlns:xlink="http://www.w3.org/1999/xlink">
 <metadata>
  <rdf:RDF xmlns:cc="http://creativecommons.org/ns#" xmlns:dc="http://purl.org/dc/elements/1.1/" xmlns:rdf="http://www.w3.org/1999/02/22-rdf-syntax-ns#">
   <cc:Work>
    <dc:type rdf:resource="http://purl.org/dc/dcmitype/StillImage"/>
    <dc:date>2022-05-09T09:59:26.360528</dc:date>
    <dc:format>image/svg+xml</dc:format>
    <dc:creator>
     <cc:Agent>
      <dc:title>Matplotlib v3.4.3, https://matplotlib.org/</dc:title>
     </cc:Agent>
    </dc:creator>
   </cc:Work>
  </rdf:RDF>
 </metadata>
 <defs>
  <style type="text/css">*{stroke-linecap:butt;stroke-linejoin:round;}</style>
 </defs>
 <g id="figure_1">
  <g id="patch_1">
   <path d="M 0 662.4 
L 1490.4 662.4 
L 1490.4 0 
L 0 0 
z
" style="fill:none;"/>
  </g>
  <g id="axes_1">
   <g id="patch_2">
    <path d="M 3.00024 307.838625 
L 491.17608 307.838625 
L 491.17608 39.17424 
L 3.00024 39.17424 
z
" style="fill:#ffffff;"/>
   </g>
   <g id="patch_3">
    <path clip-path="url(#p6400da9dcb)" d="M 25.190051 307.838625 
L 35.052189 307.838625 
L 35.052189 307.04152 
L 25.190051 307.04152 
z
" style="fill:#1f77b4;opacity:0.35;"/>
   </g>
   <g id="patch_4">
    <path clip-path="url(#p6400da9dcb)" d="M 35.052189 307.838625 
L 44.914327 307.838625 
L 44.914327 307.838625 
L 35.052189 307.838625 
z
" style="fill:#1f77b4;opacity:0.35;"/>
   </g>
   <g id="patch_5">
    <path clip-path="url(#p6400da9dcb)" d="M 44.914327 307.838625 
L 54.776465 307.838625 
L 54.776465 303.853098 
L 44.914327 303.853098 
z
" style="fill:#1f77b4;opacity:0.35;"/>
   </g>
   <g id="patch_6">
    <path clip-path="url(#p6400da9dcb)" d="M 54.776465 307.838625 
L 64.638604 307.838625 
L 64.638604 304.650203 
L 54.776465 304.650203 
z
" style="fill:#1f77b4;opacity:0.35;"/>
   </g>
   <g id="patch_7">
    <path clip-path="url(#p6400da9dcb)" d="M 64.638604 307.838625 
L 74.500742 307.838625 
L 74.500742 306.244414 
L 64.638604 306.244414 
z
" style="fill:#1f77b4;opacity:0.35;"/>
   </g>
   <g id="patch_8">
    <path clip-path="url(#p6400da9dcb)" d="M 74.500742 307.838625 
L 84.36288 307.838625 
L 84.36288 304.650203 
L 74.500742 304.650203 
z
" style="fill:#1f77b4;opacity:0.35;"/>
   </g>
   <g id="patch_9">
    <path clip-path="url(#p6400da9dcb)" d="M 84.36288 307.838625 
L 94.225018 307.838625 
L 94.225018 303.853098 
L 84.36288 303.853098 
z
" style="fill:#1f77b4;opacity:0.35;"/>
   </g>
   <g id="patch_10">
    <path clip-path="url(#p6400da9dcb)" d="M 94.225018 307.838625 
L 104.087156 307.838625 
L 104.087156 303.055992 
L 94.225018 303.055992 
z
" style="fill:#1f77b4;opacity:0.35;"/>
   </g>
   <g id="patch_11">
    <path clip-path="url(#p6400da9dcb)" d="M 104.087156 307.838625 
L 113.949295 307.838625 
L 113.949295 303.853098 
L 104.087156 303.853098 
z
" style="fill:#1f77b4;opacity:0.35;"/>
   </g>
   <g id="patch_12">
    <path clip-path="url(#p6400da9dcb)" d="M 113.949295 307.838625 
L 123.811433 307.838625 
L 123.811433 296.679149 
L 113.949295 296.679149 
z
" style="fill:#1f77b4;opacity:0.35;"/>
   </g>
   <g id="patch_13">
    <path clip-path="url(#p6400da9dcb)" d="M 123.811433 307.838625 
L 133.673571 307.838625 
L 133.673571 293.490727 
L 123.811433 293.490727 
z
" style="fill:#1f77b4;opacity:0.35;"/>
   </g>
   <g id="patch_14">
    <path clip-path="url(#p6400da9dcb)" d="M 133.673571 307.838625 
L 143.535709 307.838625 
L 143.535709 295.084938 
L 133.673571 295.084938 
z
" style="fill:#1f77b4;opacity:0.35;"/>
   </g>
   <g id="patch_15">
    <path clip-path="url(#p6400da9dcb)" d="M 143.535709 307.838625 
L 153.397847 307.838625 
L 153.397847 283.128357 
L 143.535709 283.128357 
z
" style="fill:#1f77b4;opacity:0.35;"/>
   </g>
   <g id="patch_16">
    <path clip-path="url(#p6400da9dcb)" d="M 153.397847 307.838625 
L 163.259985 307.838625 
L 163.259985 282.331251 
L 153.397847 282.331251 
z
" style="fill:#1f77b4;opacity:0.35;"/>
   </g>
   <g id="patch_17">
    <path clip-path="url(#p6400da9dcb)" d="M 163.259985 307.838625 
L 173.122124 307.838625 
L 173.122124 262.403616 
L 163.259985 262.403616 
z
" style="fill:#1f77b4;opacity:0.35;"/>
   </g>
   <g id="patch_18">
    <path clip-path="url(#p6400da9dcb)" d="M 173.122124 307.838625 
L 182.984262 307.838625 
L 182.984262 258.418088 
L 173.122124 258.418088 
z
" style="fill:#1f77b4;opacity:0.35;"/>
   </g>
   <g id="patch_19">
    <path clip-path="url(#p6400da9dcb)" d="M 182.984262 307.838625 
L 192.8464 307.838625 
L 192.8464 248.055718 
L 182.984262 248.055718 
z
" style="fill:#1f77b4;opacity:0.35;"/>
   </g>
   <g id="patch_20">
    <path clip-path="url(#p6400da9dcb)" d="M 192.8464 307.838625 
L 202.708538 307.838625 
L 202.708538 263.997826 
L 192.8464 263.997826 
z
" style="fill:#1f77b4;opacity:0.35;"/>
   </g>
   <g id="patch_21">
    <path clip-path="url(#p6400da9dcb)" d="M 202.708538 307.838625 
L 212.570676 307.838625 
L 212.570676 229.722293 
L 202.708538 229.722293 
z
" style="fill:#1f77b4;opacity:0.35;"/>
   </g>
   <g id="patch_22">
    <path clip-path="url(#p6400da9dcb)" d="M 212.570676 307.838625 
L 222.432815 307.838625 
L 222.432815 206.606235 
L 212.570676 206.606235 
z
" style="fill:#1f77b4;opacity:0.35;"/>
   </g>
   <g id="patch_23">
    <path clip-path="url(#p6400da9dcb)" d="M 222.432815 307.838625 
L 232.294953 307.838625 
L 232.294953 216.968606 
L 222.432815 216.968606 
z
" style="fill:#1f77b4;opacity:0.35;"/>
   </g>
   <g id="patch_24">
    <path clip-path="url(#p6400da9dcb)" d="M 232.294953 307.838625 
L 242.157091 307.838625 
L 242.157091 169.14228 
L 232.294953 169.14228 
z
" style="fill:#1f77b4;opacity:0.35;"/>
   </g>
   <g id="patch_25">
    <path clip-path="url(#p6400da9dcb)" d="M 242.157091 307.838625 
L 252.019229 307.838625 
L 252.019229 157.185699 
L 242.157091 157.185699 
z
" style="fill:#1f77b4;opacity:0.35;"/>
   </g>
   <g id="patch_26">
    <path clip-path="url(#p6400da9dcb)" d="M 252.019229 307.838625 
L 261.881367 307.838625 
L 261.881367 153.997277 
L 252.019229 153.997277 
z
" style="fill:#1f77b4;opacity:0.35;"/>
   </g>
   <g id="patch_27">
    <path clip-path="url(#p6400da9dcb)" d="M 261.881367 307.838625 
L 271.743505 307.838625 
L 271.743505 131.678325 
L 261.881367 131.678325 
z
" style="fill:#1f77b4;opacity:0.35;"/>
   </g>
   <g id="patch_28">
    <path clip-path="url(#p6400da9dcb)" d="M 271.743505 307.838625 
L 281.605644 307.838625 
L 281.605644 101.388319 
L 271.743505 101.388319 
z
" style="fill:#1f77b4;opacity:0.35;"/>
   </g>
   <g id="patch_29">
    <path clip-path="url(#p6400da9dcb)" d="M 281.605644 307.838625 
L 291.467782 307.838625 
L 291.467782 51.967782 
L 281.605644 51.967782 
z
" style="fill:#1f77b4;opacity:0.35;"/>
   </g>
   <g id="patch_30">
    <path clip-path="url(#p6400da9dcb)" d="M 291.467782 307.838625 
L 301.32992 307.838625 
L 301.32992 63.127258 
L 291.467782 63.127258 
z
" style="fill:#1f77b4;opacity:0.35;"/>
   </g>
   <g id="patch_31">
    <path clip-path="url(#p6400da9dcb)" d="M 301.32992 307.838625 
L 311.192058 307.838625 
L 311.192058 102.98253 
L 301.32992 102.98253 
z
" style="fill:#1f77b4;opacity:0.35;"/>
   </g>
   <g id="patch_32">
    <path clip-path="url(#p6400da9dcb)" d="M 311.192058 307.838625 
L 321.054196 307.838625 
L 321.054196 104.57674 
L 311.192058 104.57674 
z
" style="fill:#1f77b4;opacity:0.35;"/>
   </g>
   <g id="patch_33">
    <path clip-path="url(#p6400da9dcb)" d="M 321.054196 307.838625 
L 330.916335 307.838625 
L 330.916335 140.446485 
L 321.054196 140.446485 
z
" style="fill:#1f77b4;opacity:0.35;"/>
   </g>
   <g id="patch_34">
    <path clip-path="url(#p6400da9dcb)" d="M 330.916335 307.838625 
L 340.778473 307.838625 
L 340.778473 173.924913 
L 330.916335 173.924913 
z
" style="fill:#1f77b4;opacity:0.35;"/>
   </g>
   <g id="patch_35">
    <path clip-path="url(#p6400da9dcb)" d="M 340.778473 307.838625 
L 350.640611 307.838625 
L 350.640611 177.91044 
L 340.778473 177.91044 
z
" style="fill:#1f77b4;opacity:0.35;"/>
   </g>
   <g id="patch_36">
    <path clip-path="url(#p6400da9dcb)" d="M 350.640611 307.838625 
L 360.502749 307.838625 
L 360.502749 211.388868 
L 350.640611 211.388868 
z
" style="fill:#1f77b4;opacity:0.35;"/>
   </g>
   <g id="patch_37">
    <path clip-path="url(#p6400da9dcb)" d="M 360.502749 307.838625 
L 370.364887 307.838625 
L 370.364887 209.794657 
L 360.502749 209.794657 
z
" style="fill:#1f77b4;opacity:0.35;"/>
   </g>
   <g id="patch_38">
    <path clip-path="url(#p6400da9dcb)" d="M 370.364887 307.838625 
L 380.227025 307.838625 
L 380.227025 232.113609 
L 370.364887 232.113609 
z
" style="fill:#1f77b4;opacity:0.35;"/>
   </g>
   <g id="patch_39">
    <path clip-path="url(#p6400da9dcb)" d="M 380.227025 307.838625 
L 390.089164 307.838625 
L 390.089164 240.881769 
L 380.227025 240.881769 
z
" style="fill:#1f77b4;opacity:0.35;"/>
   </g>
   <g id="patch_40">
    <path clip-path="url(#p6400da9dcb)" d="M 390.089164 307.838625 
L 399.951302 307.838625 
L 399.951302 267.186248 
L 390.089164 267.186248 
z
" style="fill:#1f77b4;opacity:0.35;"/>
   </g>
   <g id="patch_41">
    <path clip-path="url(#p6400da9dcb)" d="M 399.951302 307.838625 
L 409.81344 307.838625 
L 409.81344 279.14283 
L 399.951302 279.14283 
z
" style="fill:#1f77b4;opacity:0.35;"/>
   </g>
   <g id="patch_42">
    <path clip-path="url(#p6400da9dcb)" d="M 409.81344 307.838625 
L 419.675578 307.838625 
L 419.675578 287.910989 
L 409.81344 287.910989 
z
" style="fill:#1f77b4;opacity:0.35;"/>
   </g>
   <g id="patch_43">
    <path clip-path="url(#p6400da9dcb)" d="M 419.675578 307.838625 
L 429.537716 307.838625 
L 429.537716 302.258887 
L 419.675578 302.258887 
z
" style="fill:#1f77b4;opacity:0.35;"/>
   </g>
   <g id="patch_44">
    <path clip-path="url(#p6400da9dcb)" d="M 429.537716 307.838625 
L 439.399855 307.838625 
L 439.399855 303.055992 
L 429.537716 303.055992 
z
" style="fill:#1f77b4;opacity:0.35;"/>
   </g>
   <g id="patch_45">
    <path clip-path="url(#p6400da9dcb)" d="M 439.399855 307.838625 
L 449.261993 307.838625 
L 449.261993 307.04152 
L 439.399855 307.04152 
z
" style="fill:#1f77b4;opacity:0.35;"/>
   </g>
   <g id="patch_46">
    <path clip-path="url(#p6400da9dcb)" d="M 449.261993 307.838625 
L 459.124131 307.838625 
L 459.124131 306.244414 
L 449.261993 306.244414 
z
" style="fill:#1f77b4;opacity:0.35;"/>
   </g>
   <g id="patch_47">
    <path clip-path="url(#p6400da9dcb)" d="M 459.124131 307.838625 
L 468.986269 307.838625 
L 468.986269 307.04152 
L 459.124131 307.04152 
z
" style="fill:#1f77b4;opacity:0.35;"/>
   </g>
   <g id="matplotlib.axis_1">
    <g id="xtick_1">
     <g id="line2d_1">
      <defs>
       <path d="M 0 0 
L 0 3 
" id="mbd4cc3ef6f" style="stroke:#808080;"/>
      </defs>
      <g>
       <use style="fill:#808080;stroke:#808080;" x="50.978812" xlink:href="#mbd4cc3ef6f" y="307.838625"/>
      </g>
     </g>
     <g id="text_1">
      <!-- 0.95 -->
      <g transform="translate(35.392875 324.976437)scale(0.14 -0.14)">
       <defs>
        <path d="M 2034 4250 
Q 1547 4250 1301 3770 
Q 1056 3291 1056 2328 
Q 1056 1369 1301 889 
Q 1547 409 2034 409 
Q 2525 409 2770 889 
Q 3016 1369 3016 2328 
Q 3016 3291 2770 3770 
Q 2525 4250 2034 4250 
z
M 2034 4750 
Q 2819 4750 3233 4129 
Q 3647 3509 3647 2328 
Q 3647 1150 3233 529 
Q 2819 -91 2034 -91 
Q 1250 -91 836 529 
Q 422 1150 422 2328 
Q 422 3509 836 4129 
Q 1250 4750 2034 4750 
z
" id="DejaVuSans-30" transform="scale(0.015625)"/>
        <path d="M 684 794 
L 1344 794 
L 1344 0 
L 684 0 
L 684 794 
z
" id="DejaVuSans-2e" transform="scale(0.015625)"/>
        <path d="M 703 97 
L 703 672 
Q 941 559 1184 500 
Q 1428 441 1663 441 
Q 2288 441 2617 861 
Q 2947 1281 2994 2138 
Q 2813 1869 2534 1725 
Q 2256 1581 1919 1581 
Q 1219 1581 811 2004 
Q 403 2428 403 3163 
Q 403 3881 828 4315 
Q 1253 4750 1959 4750 
Q 2769 4750 3195 4129 
Q 3622 3509 3622 2328 
Q 3622 1225 3098 567 
Q 2575 -91 1691 -91 
Q 1453 -91 1209 -44 
Q 966 3 703 97 
z
M 1959 2075 
Q 2384 2075 2632 2365 
Q 2881 2656 2881 3163 
Q 2881 3666 2632 3958 
Q 2384 4250 1959 4250 
Q 1534 4250 1286 3958 
Q 1038 3666 1038 3163 
Q 1038 2656 1286 2365 
Q 1534 2075 1959 2075 
z
" id="DejaVuSans-39" transform="scale(0.015625)"/>
        <path d="M 691 4666 
L 3169 4666 
L 3169 4134 
L 1269 4134 
L 1269 2991 
Q 1406 3038 1543 3061 
Q 1681 3084 1819 3084 
Q 2600 3084 3056 2656 
Q 3513 2228 3513 1497 
Q 3513 744 3044 326 
Q 2575 -91 1722 -91 
Q 1428 -91 1123 -41 
Q 819 9 494 109 
L 494 744 
Q 775 591 1075 516 
Q 1375 441 1709 441 
Q 2250 441 2565 725 
Q 2881 1009 2881 1497 
Q 2881 1984 2565 2268 
Q 2250 2553 1709 2553 
Q 1456 2553 1204 2497 
Q 953 2441 691 2322 
L 691 4666 
z
" id="DejaVuSans-35" transform="scale(0.015625)"/>
       </defs>
       <use xlink:href="#DejaVuSans-30"/>
       <use x="63.623047" xlink:href="#DejaVuSans-2e"/>
       <use x="95.410156" xlink:href="#DejaVuSans-39"/>
       <use x="159.033203" xlink:href="#DejaVuSans-35"/>
      </g>
     </g>
    </g>
    <g id="xtick_2">
     <g id="line2d_2">
      <g>
       <use style="fill:#808080;stroke:#808080;" x="145.901546" xlink:href="#mbd4cc3ef6f" y="307.838625"/>
      </g>
     </g>
     <g id="text_2">
      <!-- 0.96 -->
      <g transform="translate(130.315609 324.976437)scale(0.14 -0.14)">
       <defs>
        <path d="M 2113 2584 
Q 1688 2584 1439 2293 
Q 1191 2003 1191 1497 
Q 1191 994 1439 701 
Q 1688 409 2113 409 
Q 2538 409 2786 701 
Q 3034 994 3034 1497 
Q 3034 2003 2786 2293 
Q 2538 2584 2113 2584 
z
M 3366 4563 
L 3366 3988 
Q 3128 4100 2886 4159 
Q 2644 4219 2406 4219 
Q 1781 4219 1451 3797 
Q 1122 3375 1075 2522 
Q 1259 2794 1537 2939 
Q 1816 3084 2150 3084 
Q 2853 3084 3261 2657 
Q 3669 2231 3669 1497 
Q 3669 778 3244 343 
Q 2819 -91 2113 -91 
Q 1303 -91 875 529 
Q 447 1150 447 2328 
Q 447 3434 972 4092 
Q 1497 4750 2381 4750 
Q 2619 4750 2861 4703 
Q 3103 4656 3366 4563 
z
" id="DejaVuSans-36" transform="scale(0.015625)"/>
       </defs>
       <use xlink:href="#DejaVuSans-30"/>
       <use x="63.623047" xlink:href="#DejaVuSans-2e"/>
       <use x="95.410156" xlink:href="#DejaVuSans-39"/>
       <use x="159.033203" xlink:href="#DejaVuSans-36"/>
      </g>
     </g>
    </g>
    <g id="xtick_3">
     <g id="line2d_3">
      <g>
       <use style="fill:#808080;stroke:#808080;" x="240.82428" xlink:href="#mbd4cc3ef6f" y="307.838625"/>
      </g>
     </g>
     <g id="text_3">
      <!-- 0.97 -->
      <g transform="translate(225.238343 324.976437)scale(0.14 -0.14)">
       <defs>
        <path d="M 525 4666 
L 3525 4666 
L 3525 4397 
L 1831 0 
L 1172 0 
L 2766 4134 
L 525 4134 
L 525 4666 
z
" id="DejaVuSans-37" transform="scale(0.015625)"/>
       </defs>
       <use xlink:href="#DejaVuSans-30"/>
       <use x="63.623047" xlink:href="#DejaVuSans-2e"/>
       <use x="95.410156" xlink:href="#DejaVuSans-39"/>
       <use x="159.033203" xlink:href="#DejaVuSans-37"/>
      </g>
     </g>
    </g>
    <g id="xtick_4">
     <g id="line2d_4">
      <g>
       <use style="fill:#808080;stroke:#808080;" x="335.747014" xlink:href="#mbd4cc3ef6f" y="307.838625"/>
      </g>
     </g>
     <g id="text_4">
      <!-- 0.98 -->
      <g transform="translate(320.161077 324.976437)scale(0.14 -0.14)">
       <defs>
        <path d="M 2034 2216 
Q 1584 2216 1326 1975 
Q 1069 1734 1069 1313 
Q 1069 891 1326 650 
Q 1584 409 2034 409 
Q 2484 409 2743 651 
Q 3003 894 3003 1313 
Q 3003 1734 2745 1975 
Q 2488 2216 2034 2216 
z
M 1403 2484 
Q 997 2584 770 2862 
Q 544 3141 544 3541 
Q 544 4100 942 4425 
Q 1341 4750 2034 4750 
Q 2731 4750 3128 4425 
Q 3525 4100 3525 3541 
Q 3525 3141 3298 2862 
Q 3072 2584 2669 2484 
Q 3125 2378 3379 2068 
Q 3634 1759 3634 1313 
Q 3634 634 3220 271 
Q 2806 -91 2034 -91 
Q 1263 -91 848 271 
Q 434 634 434 1313 
Q 434 1759 690 2068 
Q 947 2378 1403 2484 
z
M 1172 3481 
Q 1172 3119 1398 2916 
Q 1625 2713 2034 2713 
Q 2441 2713 2670 2916 
Q 2900 3119 2900 3481 
Q 2900 3844 2670 4047 
Q 2441 4250 2034 4250 
Q 1625 4250 1398 4047 
Q 1172 3844 1172 3481 
z
" id="DejaVuSans-38" transform="scale(0.015625)"/>
       </defs>
       <use xlink:href="#DejaVuSans-30"/>
       <use x="63.623047" xlink:href="#DejaVuSans-2e"/>
       <use x="95.410156" xlink:href="#DejaVuSans-39"/>
       <use x="159.033203" xlink:href="#DejaVuSans-38"/>
      </g>
     </g>
    </g>
    <g id="xtick_5">
     <g id="line2d_5">
      <g>
       <use style="fill:#808080;stroke:#808080;" x="430.669748" xlink:href="#mbd4cc3ef6f" y="307.838625"/>
      </g>
     </g>
     <g id="text_5">
      <!-- 0.99 -->
      <g transform="translate(415.083811 324.976437)scale(0.14 -0.14)">
       <use xlink:href="#DejaVuSans-30"/>
       <use x="63.623047" xlink:href="#DejaVuSans-2e"/>
       <use x="95.410156" xlink:href="#DejaVuSans-39"/>
       <use x="159.033203" xlink:href="#DejaVuSans-39"/>
      </g>
     </g>
    </g>
   </g>
   <g id="matplotlib.axis_2"/>
   <g id="line2d_6">
    <path clip-path="url(#p6400da9dcb)" d="M 172.390747 302.465337 
L 402.7231 302.465337 
" style="fill:none;stroke:#000000;stroke-width:3;"/>
   </g>
   <g id="patch_48">
    <path d="M 3.00024 307.838625 
L 491.17608 307.838625 
" style="fill:none;stroke:#808080;stroke-linecap:square;stroke-linejoin:miter;stroke-width:0.8;"/>
   </g>
   <g id="text_6">
    <!-- 0.96  -->
    <g transform="translate(134.225122 289.032118)scale(0.15 -0.15)">
     <defs>
      <path id="DejaVuSans-20" transform="scale(0.015625)"/>
     </defs>
     <use xlink:href="#DejaVuSans-30"/>
     <use x="63.623047" xlink:href="#DejaVuSans-2e"/>
     <use x="95.410156" xlink:href="#DejaVuSans-39"/>
     <use x="159.033203" xlink:href="#DejaVuSans-36"/>
     <use x="222.65625" xlink:href="#DejaVuSans-20"/>
    </g>
   </g>
   <g id="text_7">
    <!--  0.99 -->
    <g transform="translate(402.7231 289.032118)scale(0.15 -0.15)">
     <use xlink:href="#DejaVuSans-20"/>
     <use x="31.787109" xlink:href="#DejaVuSans-30"/>
     <use x="95.410156" xlink:href="#DejaVuSans-2e"/>
     <use x="127.197266" xlink:href="#DejaVuSans-39"/>
     <use x="190.820312" xlink:href="#DejaVuSans-39"/>
    </g>
   </g>
   <g id="text_8">
    <!-- 94% HDI -->
    <g transform="translate(254.875674 227.239309)scale(0.15 -0.15)">
     <defs>
      <path d="M 2419 4116 
L 825 1625 
L 2419 1625 
L 2419 4116 
z
M 2253 4666 
L 3047 4666 
L 3047 1625 
L 3713 1625 
L 3713 1100 
L 3047 1100 
L 3047 0 
L 2419 0 
L 2419 1100 
L 313 1100 
L 313 1709 
L 2253 4666 
z
" id="DejaVuSans-34" transform="scale(0.015625)"/>
      <path d="M 4653 2053 
Q 4381 2053 4226 1822 
Q 4072 1591 4072 1178 
Q 4072 772 4226 539 
Q 4381 306 4653 306 
Q 4919 306 5073 539 
Q 5228 772 5228 1178 
Q 5228 1588 5073 1820 
Q 4919 2053 4653 2053 
z
M 4653 2450 
Q 5147 2450 5437 2106 
Q 5728 1763 5728 1178 
Q 5728 594 5436 251 
Q 5144 -91 4653 -91 
Q 4153 -91 3862 251 
Q 3572 594 3572 1178 
Q 3572 1766 3864 2108 
Q 4156 2450 4653 2450 
z
M 1428 4353 
Q 1159 4353 1004 4120 
Q 850 3888 850 3481 
Q 850 3069 1003 2837 
Q 1156 2606 1428 2606 
Q 1700 2606 1854 2837 
Q 2009 3069 2009 3481 
Q 2009 3884 1853 4118 
Q 1697 4353 1428 4353 
z
M 4250 4750 
L 4750 4750 
L 1831 -91 
L 1331 -91 
L 4250 4750 
z
M 1428 4750 
Q 1922 4750 2215 4408 
Q 2509 4066 2509 3481 
Q 2509 2891 2217 2550 
Q 1925 2209 1428 2209 
Q 931 2209 642 2551 
Q 353 2894 353 3481 
Q 353 4063 643 4406 
Q 934 4750 1428 4750 
z
" id="DejaVuSans-25" transform="scale(0.015625)"/>
      <path d="M 628 4666 
L 1259 4666 
L 1259 2753 
L 3553 2753 
L 3553 4666 
L 4184 4666 
L 4184 0 
L 3553 0 
L 3553 2222 
L 1259 2222 
L 1259 0 
L 628 0 
L 628 4666 
z
" id="DejaVuSans-48" transform="scale(0.015625)"/>
      <path d="M 1259 4147 
L 1259 519 
L 2022 519 
Q 2988 519 3436 956 
Q 3884 1394 3884 2338 
Q 3884 3275 3436 3711 
Q 2988 4147 2022 4147 
L 1259 4147 
z
M 628 4666 
L 1925 4666 
Q 3281 4666 3915 4102 
Q 4550 3538 4550 2338 
Q 4550 1131 3912 565 
Q 3275 0 1925 0 
L 628 0 
L 628 4666 
z
" id="DejaVuSans-44" transform="scale(0.015625)"/>
      <path d="M 628 4666 
L 1259 4666 
L 1259 0 
L 628 0 
L 628 4666 
z
" id="DejaVuSans-49" transform="scale(0.015625)"/>
     </defs>
     <use xlink:href="#DejaVuSans-39"/>
     <use x="63.623047" xlink:href="#DejaVuSans-34"/>
     <use x="127.246094" xlink:href="#DejaVuSans-25"/>
     <use x="222.265625" xlink:href="#DejaVuSans-20"/>
     <use x="254.052734" xlink:href="#DejaVuSans-48"/>
     <use x="329.248047" xlink:href="#DejaVuSans-44"/>
     <use x="406.25" xlink:href="#DejaVuSans-49"/>
    </g>
   </g>
   <g id="text_9">
    <!-- mean=0.98 -->
    <g transform="translate(245.185542 92.907117)scale(0.15 -0.15)">
     <defs>
      <path d="M 3328 2828 
Q 3544 3216 3844 3400 
Q 4144 3584 4550 3584 
Q 5097 3584 5394 3201 
Q 5691 2819 5691 2113 
L 5691 0 
L 5113 0 
L 5113 2094 
Q 5113 2597 4934 2840 
Q 4756 3084 4391 3084 
Q 3944 3084 3684 2787 
Q 3425 2491 3425 1978 
L 3425 0 
L 2847 0 
L 2847 2094 
Q 2847 2600 2669 2842 
Q 2491 3084 2119 3084 
Q 1678 3084 1418 2786 
Q 1159 2488 1159 1978 
L 1159 0 
L 581 0 
L 581 3500 
L 1159 3500 
L 1159 2956 
Q 1356 3278 1631 3431 
Q 1906 3584 2284 3584 
Q 2666 3584 2933 3390 
Q 3200 3197 3328 2828 
z
" id="DejaVuSans-6d" transform="scale(0.015625)"/>
      <path d="M 3597 1894 
L 3597 1613 
L 953 1613 
Q 991 1019 1311 708 
Q 1631 397 2203 397 
Q 2534 397 2845 478 
Q 3156 559 3463 722 
L 3463 178 
Q 3153 47 2828 -22 
Q 2503 -91 2169 -91 
Q 1331 -91 842 396 
Q 353 884 353 1716 
Q 353 2575 817 3079 
Q 1281 3584 2069 3584 
Q 2775 3584 3186 3129 
Q 3597 2675 3597 1894 
z
M 3022 2063 
Q 3016 2534 2758 2815 
Q 2500 3097 2075 3097 
Q 1594 3097 1305 2825 
Q 1016 2553 972 2059 
L 3022 2063 
z
" id="DejaVuSans-65" transform="scale(0.015625)"/>
      <path d="M 2194 1759 
Q 1497 1759 1228 1600 
Q 959 1441 959 1056 
Q 959 750 1161 570 
Q 1363 391 1709 391 
Q 2188 391 2477 730 
Q 2766 1069 2766 1631 
L 2766 1759 
L 2194 1759 
z
M 3341 1997 
L 3341 0 
L 2766 0 
L 2766 531 
Q 2569 213 2275 61 
Q 1981 -91 1556 -91 
Q 1019 -91 701 211 
Q 384 513 384 1019 
Q 384 1609 779 1909 
Q 1175 2209 1959 2209 
L 2766 2209 
L 2766 2266 
Q 2766 2663 2505 2880 
Q 2244 3097 1772 3097 
Q 1472 3097 1187 3025 
Q 903 2953 641 2809 
L 641 3341 
Q 956 3463 1253 3523 
Q 1550 3584 1831 3584 
Q 2591 3584 2966 3190 
Q 3341 2797 3341 1997 
z
" id="DejaVuSans-61" transform="scale(0.015625)"/>
      <path d="M 3513 2113 
L 3513 0 
L 2938 0 
L 2938 2094 
Q 2938 2591 2744 2837 
Q 2550 3084 2163 3084 
Q 1697 3084 1428 2787 
Q 1159 2491 1159 1978 
L 1159 0 
L 581 0 
L 581 3500 
L 1159 3500 
L 1159 2956 
Q 1366 3272 1645 3428 
Q 1925 3584 2291 3584 
Q 2894 3584 3203 3211 
Q 3513 2838 3513 2113 
z
" id="DejaVuSans-6e" transform="scale(0.015625)"/>
      <path d="M 678 2906 
L 4684 2906 
L 4684 2381 
L 678 2381 
L 678 2906 
z
M 678 1631 
L 4684 1631 
L 4684 1100 
L 678 1100 
L 678 1631 
z
" id="DejaVuSans-3d" transform="scale(0.015625)"/>
     </defs>
     <use xlink:href="#DejaVuSans-6d"/>
     <use x="97.412109" xlink:href="#DejaVuSans-65"/>
     <use x="158.935547" xlink:href="#DejaVuSans-61"/>
     <use x="220.214844" xlink:href="#DejaVuSans-6e"/>
     <use x="283.59375" xlink:href="#DejaVuSans-3d"/>
     <use x="367.382812" xlink:href="#DejaVuSans-30"/>
     <use x="431.005859" xlink:href="#DejaVuSans-2e"/>
     <use x="462.792969" xlink:href="#DejaVuSans-39"/>
     <use x="526.416016" xlink:href="#DejaVuSans-38"/>
    </g>
   </g>
   <g id="text_10">
    <!-- β -->
    <g transform="translate(241.98316 17.68924)scale(0.16 -0.16)">
     <defs>
      <path d="M 1178 216 
L 1178 -1331 
L 600 -1331 
L 600 3478 
Q 600 4903 1931 4903 
Q 3288 4903 3288 3700 
Q 3288 2844 2750 2531 
Q 3625 2250 3625 1416 
Q 3625 -66 2119 -66 
Q 1456 -66 1178 216 
z
M 1178 966 
Q 1525 425 2141 425 
Q 3041 425 3041 1406 
Q 3041 2288 1591 2219 
L 1591 2750 
Q 2725 2750 2725 3750 
Q 2725 4434 1994 4434 
Q 1178 4434 1178 3459 
L 1178 966 
z
" id="DejaVuSans-3b2" transform="scale(0.015625)"/>
     </defs>
     <use xlink:href="#DejaVuSans-3b2"/>
    </g>
    <!-- 0 -->
    <g transform="translate(241.99816 35.60574)scale(0.16 -0.16)">
     <use xlink:href="#DejaVuSans-30"/>
    </g>
   </g>
  </g>
  <g id="axes_2">
   <g id="patch_49">
    <path d="M 501.11208 307.838625 
L 989.28792 307.838625 
L 989.28792 39.17424 
L 501.11208 39.17424 
z
" style="fill:#ffffff;"/>
   </g>
   <g id="patch_50">
    <path clip-path="url(#pdb8cb14bde)" d="M 523.301891 307.838625 
L 526.984847 307.838625 
L 526.984847 307.699186 
L 523.301891 307.699186 
z
" style="fill:#1f77b4;opacity:0.35;"/>
   </g>
   <g id="patch_51">
    <path clip-path="url(#pdb8cb14bde)" d="M 526.984847 307.838625 
L 530.667803 307.838625 
L 530.667803 307.838625 
L 526.984847 307.838625 
z
" style="fill:#1f77b4;opacity:0.35;"/>
   </g>
   <g id="patch_52">
    <path clip-path="url(#pdb8cb14bde)" d="M 530.667803 307.838625 
L 534.350759 307.838625 
L 534.350759 307.838625 
L 530.667803 307.838625 
z
" style="fill:#1f77b4;opacity:0.35;"/>
   </g>
   <g id="patch_53">
    <path clip-path="url(#pdb8cb14bde)" d="M 534.350759 307.838625 
L 538.033716 307.838625 
L 538.033716 307.838625 
L 534.350759 307.838625 
z
" style="fill:#1f77b4;opacity:0.35;"/>
   </g>
   <g id="patch_54">
    <path clip-path="url(#pdb8cb14bde)" d="M 538.033716 307.838625 
L 541.716672 307.838625 
L 541.716672 307.838625 
L 538.033716 307.838625 
z
" style="fill:#1f77b4;opacity:0.35;"/>
   </g>
   <g id="patch_55">
    <path clip-path="url(#pdb8cb14bde)" d="M 541.716672 307.838625 
L 545.399628 307.838625 
L 545.399628 307.838625 
L 541.716672 307.838625 
z
" style="fill:#1f77b4;opacity:0.35;"/>
   </g>
   <g id="patch_56">
    <path clip-path="url(#pdb8cb14bde)" d="M 545.399628 307.838625 
L 549.082584 307.838625 
L 549.082584 307.838625 
L 545.399628 307.838625 
z
" style="fill:#1f77b4;opacity:0.35;"/>
   </g>
   <g id="patch_57">
    <path clip-path="url(#pdb8cb14bde)" d="M 549.082584 307.838625 
L 552.76554 307.838625 
L 552.76554 307.838625 
L 549.082584 307.838625 
z
" style="fill:#1f77b4;opacity:0.35;"/>
   </g>
   <g id="patch_58">
    <path clip-path="url(#pdb8cb14bde)" d="M 552.76554 307.838625 
L 556.448496 307.838625 
L 556.448496 305.747038 
L 552.76554 305.747038 
z
" style="fill:#1f77b4;opacity:0.35;"/>
   </g>
   <g id="patch_59">
    <path clip-path="url(#pdb8cb14bde)" d="M 556.448496 307.838625 
L 560.131453 307.838625 
L 560.131453 307.838625 
L 556.448496 307.838625 
z
" style="fill:#1f77b4;opacity:0.35;"/>
   </g>
   <g id="patch_60">
    <path clip-path="url(#pdb8cb14bde)" d="M 560.131453 307.838625 
L 563.814409 307.838625 
L 563.814409 307.838625 
L 560.131453 307.838625 
z
" style="fill:#1f77b4;opacity:0.35;"/>
   </g>
   <g id="patch_61">
    <path clip-path="url(#pdb8cb14bde)" d="M 563.814409 307.838625 
L 567.497365 307.838625 
L 567.497365 307.699186 
L 563.814409 307.699186 
z
" style="fill:#1f77b4;opacity:0.35;"/>
   </g>
   <g id="patch_62">
    <path clip-path="url(#pdb8cb14bde)" d="M 567.497365 307.838625 
L 571.180321 307.838625 
L 571.180321 307.559747 
L 567.497365 307.559747 
z
" style="fill:#1f77b4;opacity:0.35;"/>
   </g>
   <g id="patch_63">
    <path clip-path="url(#pdb8cb14bde)" d="M 571.180321 307.838625 
L 574.863277 307.838625 
L 574.863277 307.838625 
L 571.180321 307.838625 
z
" style="fill:#1f77b4;opacity:0.35;"/>
   </g>
   <g id="patch_64">
    <path clip-path="url(#pdb8cb14bde)" d="M 574.863277 307.838625 
L 578.546233 307.838625 
L 578.546233 307.838625 
L 574.863277 307.838625 
z
" style="fill:#1f77b4;opacity:0.35;"/>
   </g>
   <g id="patch_65">
    <path clip-path="url(#pdb8cb14bde)" d="M 578.546233 307.838625 
L 582.22919 307.838625 
L 582.22919 307.838625 
L 578.546233 307.838625 
z
" style="fill:#1f77b4;opacity:0.35;"/>
   </g>
   <g id="patch_66">
    <path clip-path="url(#pdb8cb14bde)" d="M 582.22919 307.838625 
L 585.912146 307.838625 
L 585.912146 307.838625 
L 582.22919 307.838625 
z
" style="fill:#1f77b4;opacity:0.35;"/>
   </g>
   <g id="patch_67">
    <path clip-path="url(#pdb8cb14bde)" d="M 585.912146 307.838625 
L 589.595102 307.838625 
L 589.595102 307.838625 
L 585.912146 307.838625 
z
" style="fill:#1f77b4;opacity:0.35;"/>
   </g>
   <g id="patch_68">
    <path clip-path="url(#pdb8cb14bde)" d="M 589.595102 307.838625 
L 593.278058 307.838625 
L 593.278058 307.838625 
L 589.595102 307.838625 
z
" style="fill:#1f77b4;opacity:0.35;"/>
   </g>
   <g id="patch_69">
    <path clip-path="url(#pdb8cb14bde)" d="M 593.278058 307.838625 
L 596.961014 307.838625 
L 596.961014 307.838625 
L 593.278058 307.838625 
z
" style="fill:#1f77b4;opacity:0.35;"/>
   </g>
   <g id="patch_70">
    <path clip-path="url(#pdb8cb14bde)" d="M 596.961014 307.838625 
L 600.64397 307.838625 
L 600.64397 307.838625 
L 596.961014 307.838625 
z
" style="fill:#1f77b4;opacity:0.35;"/>
   </g>
   <g id="patch_71">
    <path clip-path="url(#pdb8cb14bde)" d="M 600.64397 307.838625 
L 604.326927 307.838625 
L 604.326927 307.838625 
L 600.64397 307.838625 
z
" style="fill:#1f77b4;opacity:0.35;"/>
   </g>
   <g id="patch_72">
    <path clip-path="url(#pdb8cb14bde)" d="M 604.326927 307.838625 
L 608.009883 307.838625 
L 608.009883 307.838625 
L 604.326927 307.838625 
z
" style="fill:#1f77b4;opacity:0.35;"/>
   </g>
   <g id="patch_73">
    <path clip-path="url(#pdb8cb14bde)" d="M 608.009883 307.838625 
L 611.692839 307.838625 
L 611.692839 306.025916 
L 608.009883 306.025916 
z
" style="fill:#1f77b4;opacity:0.35;"/>
   </g>
   <g id="patch_74">
    <path clip-path="url(#pdb8cb14bde)" d="M 611.692839 307.838625 
L 615.375795 307.838625 
L 615.375795 303.65545 
L 611.692839 303.65545 
z
" style="fill:#1f77b4;opacity:0.35;"/>
   </g>
   <g id="patch_75">
    <path clip-path="url(#pdb8cb14bde)" d="M 615.375795 307.838625 
L 619.058751 307.838625 
L 619.058751 307.838625 
L 615.375795 307.838625 
z
" style="fill:#1f77b4;opacity:0.35;"/>
   </g>
   <g id="patch_76">
    <path clip-path="url(#pdb8cb14bde)" d="M 619.058751 307.838625 
L 622.741707 307.838625 
L 622.741707 307.559747 
L 619.058751 307.559747 
z
" style="fill:#1f77b4;opacity:0.35;"/>
   </g>
   <g id="patch_77">
    <path clip-path="url(#pdb8cb14bde)" d="M 622.741707 307.838625 
L 626.424664 307.838625 
L 626.424664 307.838625 
L 622.741707 307.838625 
z
" style="fill:#1f77b4;opacity:0.35;"/>
   </g>
   <g id="patch_78">
    <path clip-path="url(#pdb8cb14bde)" d="M 626.424664 307.838625 
L 630.10762 307.838625 
L 630.10762 307.699186 
L 626.424664 307.699186 
z
" style="fill:#1f77b4;opacity:0.35;"/>
   </g>
   <g id="patch_79">
    <path clip-path="url(#pdb8cb14bde)" d="M 630.10762 307.838625 
L 633.790576 307.838625 
L 633.790576 307.699186 
L 630.10762 307.699186 
z
" style="fill:#1f77b4;opacity:0.35;"/>
   </g>
   <g id="patch_80">
    <path clip-path="url(#pdb8cb14bde)" d="M 633.790576 307.838625 
L 637.473532 307.838625 
L 637.473532 307.838625 
L 633.790576 307.838625 
z
" style="fill:#1f77b4;opacity:0.35;"/>
   </g>
   <g id="patch_81">
    <path clip-path="url(#pdb8cb14bde)" d="M 637.473532 307.838625 
L 641.156488 307.838625 
L 641.156488 307.838625 
L 637.473532 307.838625 
z
" style="fill:#1f77b4;opacity:0.35;"/>
   </g>
   <g id="patch_82">
    <path clip-path="url(#pdb8cb14bde)" d="M 641.156488 307.838625 
L 644.839444 307.838625 
L 644.839444 307.559747 
L 641.156488 307.559747 
z
" style="fill:#1f77b4;opacity:0.35;"/>
   </g>
   <g id="patch_83">
    <path clip-path="url(#pdb8cb14bde)" d="M 644.839444 307.838625 
L 648.522401 307.838625 
L 648.522401 306.304794 
L 644.839444 306.304794 
z
" style="fill:#1f77b4;opacity:0.35;"/>
   </g>
   <g id="patch_84">
    <path clip-path="url(#pdb8cb14bde)" d="M 648.522401 307.838625 
L 652.205357 307.838625 
L 652.205357 307.838625 
L 648.522401 307.838625 
z
" style="fill:#1f77b4;opacity:0.35;"/>
   </g>
   <g id="patch_85">
    <path clip-path="url(#pdb8cb14bde)" d="M 652.205357 307.838625 
L 655.888313 307.838625 
L 655.888313 307.838625 
L 652.205357 307.838625 
z
" style="fill:#1f77b4;opacity:0.35;"/>
   </g>
   <g id="patch_86">
    <path clip-path="url(#pdb8cb14bde)" d="M 655.888313 307.838625 
L 659.571269 307.838625 
L 659.571269 307.699186 
L 655.888313 307.699186 
z
" style="fill:#1f77b4;opacity:0.35;"/>
   </g>
   <g id="patch_87">
    <path clip-path="url(#pdb8cb14bde)" d="M 659.571269 307.838625 
L 663.254225 307.838625 
L 663.254225 307.699186 
L 659.571269 307.699186 
z
" style="fill:#1f77b4;opacity:0.35;"/>
   </g>
   <g id="patch_88">
    <path clip-path="url(#pdb8cb14bde)" d="M 663.254225 307.838625 
L 666.937181 307.838625 
L 666.937181 307.699186 
L 663.254225 307.699186 
z
" style="fill:#1f77b4;opacity:0.35;"/>
   </g>
   <g id="patch_89">
    <path clip-path="url(#pdb8cb14bde)" d="M 666.937181 307.838625 
L 670.620138 307.838625 
L 670.620138 307.838625 
L 666.937181 307.838625 
z
" style="fill:#1f77b4;opacity:0.35;"/>
   </g>
   <g id="patch_90">
    <path clip-path="url(#pdb8cb14bde)" d="M 670.620138 307.838625 
L 674.303094 307.838625 
L 674.303094 307.699186 
L 670.620138 307.699186 
z
" style="fill:#1f77b4;opacity:0.35;"/>
   </g>
   <g id="patch_91">
    <path clip-path="url(#pdb8cb14bde)" d="M 674.303094 307.838625 
L 677.98605 307.838625 
L 677.98605 307.838625 
L 674.303094 307.838625 
z
" style="fill:#1f77b4;opacity:0.35;"/>
   </g>
   <g id="patch_92">
    <path clip-path="url(#pdb8cb14bde)" d="M 677.98605 307.838625 
L 681.669006 307.838625 
L 681.669006 299.472276 
L 677.98605 299.472276 
z
" style="fill:#1f77b4;opacity:0.35;"/>
   </g>
   <g id="patch_93">
    <path clip-path="url(#pdb8cb14bde)" d="M 681.669006 307.838625 
L 685.351962 307.838625 
L 685.351962 307.699186 
L 681.669006 307.699186 
z
" style="fill:#1f77b4;opacity:0.35;"/>
   </g>
   <g id="patch_94">
    <path clip-path="url(#pdb8cb14bde)" d="M 685.351962 307.838625 
L 689.034918 307.838625 
L 689.034918 307.141429 
L 685.351962 307.141429 
z
" style="fill:#1f77b4;opacity:0.35;"/>
   </g>
   <g id="patch_95">
    <path clip-path="url(#pdb8cb14bde)" d="M 689.034918 307.838625 
L 692.717875 307.838625 
L 692.717875 307.141429 
L 689.034918 307.141429 
z
" style="fill:#1f77b4;opacity:0.35;"/>
   </g>
   <g id="patch_96">
    <path clip-path="url(#pdb8cb14bde)" d="M 692.717875 307.838625 
L 696.400831 307.838625 
L 696.400831 307.420308 
L 692.717875 307.420308 
z
" style="fill:#1f77b4;opacity:0.35;"/>
   </g>
   <g id="patch_97">
    <path clip-path="url(#pdb8cb14bde)" d="M 696.400831 307.838625 
L 700.083787 307.838625 
L 700.083787 307.838625 
L 696.400831 307.838625 
z
" style="fill:#1f77b4;opacity:0.35;"/>
   </g>
   <g id="patch_98">
    <path clip-path="url(#pdb8cb14bde)" d="M 700.083787 307.838625 
L 703.766743 307.838625 
L 703.766743 306.723112 
L 700.083787 306.723112 
z
" style="fill:#1f77b4;opacity:0.35;"/>
   </g>
   <g id="patch_99">
    <path clip-path="url(#pdb8cb14bde)" d="M 703.766743 307.838625 
L 707.449699 307.838625 
L 707.449699 307.838625 
L 703.766743 307.838625 
z
" style="fill:#1f77b4;opacity:0.35;"/>
   </g>
   <g id="patch_100">
    <path clip-path="url(#pdb8cb14bde)" d="M 707.449699 307.838625 
L 711.132655 307.838625 
L 711.132655 307.559747 
L 707.449699 307.559747 
z
" style="fill:#1f77b4;opacity:0.35;"/>
   </g>
   <g id="patch_101">
    <path clip-path="url(#pdb8cb14bde)" d="M 711.132655 307.838625 
L 714.815612 307.838625 
L 714.815612 307.699186 
L 711.132655 307.699186 
z
" style="fill:#1f77b4;opacity:0.35;"/>
   </g>
   <g id="patch_102">
    <path clip-path="url(#pdb8cb14bde)" d="M 714.815612 307.838625 
L 718.498568 307.838625 
L 718.498568 307.420308 
L 714.815612 307.420308 
z
" style="fill:#1f77b4;opacity:0.35;"/>
   </g>
   <g id="patch_103">
    <path clip-path="url(#pdb8cb14bde)" d="M 718.498568 307.838625 
L 722.181524 307.838625 
L 722.181524 307.141429 
L 718.498568 307.141429 
z
" style="fill:#1f77b4;opacity:0.35;"/>
   </g>
   <g id="patch_104">
    <path clip-path="url(#pdb8cb14bde)" d="M 722.181524 307.838625 
L 725.86448 307.838625 
L 725.86448 307.838625 
L 722.181524 307.838625 
z
" style="fill:#1f77b4;opacity:0.35;"/>
   </g>
   <g id="patch_105">
    <path clip-path="url(#pdb8cb14bde)" d="M 725.86448 307.838625 
L 729.547436 307.838625 
L 729.547436 307.699186 
L 725.86448 307.699186 
z
" style="fill:#1f77b4;opacity:0.35;"/>
   </g>
   <g id="patch_106">
    <path clip-path="url(#pdb8cb14bde)" d="M 729.547436 307.838625 
L 733.230392 307.838625 
L 733.230392 307.420308 
L 729.547436 307.420308 
z
" style="fill:#1f77b4;opacity:0.35;"/>
   </g>
   <g id="patch_107">
    <path clip-path="url(#pdb8cb14bde)" d="M 733.230392 307.838625 
L 736.913349 307.838625 
L 736.913349 307.699186 
L 733.230392 307.699186 
z
" style="fill:#1f77b4;opacity:0.35;"/>
   </g>
   <g id="patch_108">
    <path clip-path="url(#pdb8cb14bde)" d="M 736.913349 307.838625 
L 740.596305 307.838625 
L 740.596305 306.583673 
L 736.913349 306.583673 
z
" style="fill:#1f77b4;opacity:0.35;"/>
   </g>
   <g id="patch_109">
    <path clip-path="url(#pdb8cb14bde)" d="M 740.596305 307.838625 
L 744.279261 307.838625 
L 744.279261 307.699186 
L 740.596305 307.699186 
z
" style="fill:#1f77b4;opacity:0.35;"/>
   </g>
   <g id="patch_110">
    <path clip-path="url(#pdb8cb14bde)" d="M 744.279261 307.838625 
L 747.962217 307.838625 
L 747.962217 307.699186 
L 744.279261 307.699186 
z
" style="fill:#1f77b4;opacity:0.35;"/>
   </g>
   <g id="patch_111">
    <path clip-path="url(#pdb8cb14bde)" d="M 747.962217 307.838625 
L 751.645173 307.838625 
L 751.645173 306.862551 
L 747.962217 306.862551 
z
" style="fill:#1f77b4;opacity:0.35;"/>
   </g>
   <g id="patch_112">
    <path clip-path="url(#pdb8cb14bde)" d="M 751.645173 307.838625 
L 755.328129 307.838625 
L 755.328129 307.699186 
L 751.645173 307.699186 
z
" style="fill:#1f77b4;opacity:0.35;"/>
   </g>
   <g id="patch_113">
    <path clip-path="url(#pdb8cb14bde)" d="M 755.328129 307.838625 
L 759.011086 307.838625 
L 759.011086 307.280868 
L 755.328129 307.280868 
z
" style="fill:#1f77b4;opacity:0.35;"/>
   </g>
   <g id="patch_114">
    <path clip-path="url(#pdb8cb14bde)" d="M 759.011086 307.838625 
L 762.694042 307.838625 
L 762.694042 307.699186 
L 759.011086 307.699186 
z
" style="fill:#1f77b4;opacity:0.35;"/>
   </g>
   <g id="patch_115">
    <path clip-path="url(#pdb8cb14bde)" d="M 762.694042 307.838625 
L 766.376998 307.838625 
L 766.376998 307.699186 
L 762.694042 307.699186 
z
" style="fill:#1f77b4;opacity:0.35;"/>
   </g>
   <g id="patch_116">
    <path clip-path="url(#pdb8cb14bde)" d="M 766.376998 307.838625 
L 770.059954 307.838625 
L 770.059954 306.862551 
L 766.376998 306.862551 
z
" style="fill:#1f77b4;opacity:0.35;"/>
   </g>
   <g id="patch_117">
    <path clip-path="url(#pdb8cb14bde)" d="M 770.059954 307.838625 
L 773.74291 307.838625 
L 773.74291 307.141429 
L 770.059954 307.141429 
z
" style="fill:#1f77b4;opacity:0.35;"/>
   </g>
   <g id="patch_118">
    <path clip-path="url(#pdb8cb14bde)" d="M 773.74291 307.838625 
L 777.425866 307.838625 
L 777.425866 306.862551 
L 773.74291 306.862551 
z
" style="fill:#1f77b4;opacity:0.35;"/>
   </g>
   <g id="patch_119">
    <path clip-path="url(#pdb8cb14bde)" d="M 777.425866 307.838625 
L 781.108823 307.838625 
L 781.108823 307.420308 
L 777.425866 307.420308 
z
" style="fill:#1f77b4;opacity:0.35;"/>
   </g>
   <g id="patch_120">
    <path clip-path="url(#pdb8cb14bde)" d="M 781.108823 307.838625 
L 784.791779 307.838625 
L 784.791779 306.165355 
L 781.108823 306.165355 
z
" style="fill:#1f77b4;opacity:0.35;"/>
   </g>
   <g id="patch_121">
    <path clip-path="url(#pdb8cb14bde)" d="M 784.791779 307.838625 
L 788.474735 307.838625 
L 788.474735 307.699186 
L 784.791779 307.699186 
z
" style="fill:#1f77b4;opacity:0.35;"/>
   </g>
   <g id="patch_122">
    <path clip-path="url(#pdb8cb14bde)" d="M 788.474735 307.838625 
L 792.157691 307.838625 
L 792.157691 307.559747 
L 788.474735 307.559747 
z
" style="fill:#1f77b4;opacity:0.35;"/>
   </g>
   <g id="patch_123">
    <path clip-path="url(#pdb8cb14bde)" d="M 792.157691 307.838625 
L 795.840647 307.838625 
L 795.840647 306.862551 
L 792.157691 306.862551 
z
" style="fill:#1f77b4;opacity:0.35;"/>
   </g>
   <g id="patch_124">
    <path clip-path="url(#pdb8cb14bde)" d="M 795.840647 307.838625 
L 799.523603 307.838625 
L 799.523603 307.280868 
L 795.840647 307.280868 
z
" style="fill:#1f77b4;opacity:0.35;"/>
   </g>
   <g id="patch_125">
    <path clip-path="url(#pdb8cb14bde)" d="M 799.523603 307.838625 
L 803.20656 307.838625 
L 803.20656 307.280868 
L 799.523603 307.280868 
z
" style="fill:#1f77b4;opacity:0.35;"/>
   </g>
   <g id="patch_126">
    <path clip-path="url(#pdb8cb14bde)" d="M 803.20656 307.838625 
L 806.889516 307.838625 
L 806.889516 307.141429 
L 803.20656 307.141429 
z
" style="fill:#1f77b4;opacity:0.35;"/>
   </g>
   <g id="patch_127">
    <path clip-path="url(#pdb8cb14bde)" d="M 806.889516 307.838625 
L 810.572472 307.838625 
L 810.572472 307.559747 
L 806.889516 307.559747 
z
" style="fill:#1f77b4;opacity:0.35;"/>
   </g>
   <g id="patch_128">
    <path clip-path="url(#pdb8cb14bde)" d="M 810.572472 307.838625 
L 814.255428 307.838625 
L 814.255428 304.213207 
L 810.572472 304.213207 
z
" style="fill:#1f77b4;opacity:0.35;"/>
   </g>
   <g id="patch_129">
    <path clip-path="url(#pdb8cb14bde)" d="M 814.255428 307.838625 
L 817.938384 307.838625 
L 817.938384 307.141429 
L 814.255428 307.141429 
z
" style="fill:#1f77b4;opacity:0.35;"/>
   </g>
   <g id="patch_130">
    <path clip-path="url(#pdb8cb14bde)" d="M 817.938384 307.838625 
L 821.62134 307.838625 
L 821.62134 307.141429 
L 817.938384 307.141429 
z
" style="fill:#1f77b4;opacity:0.35;"/>
   </g>
   <g id="patch_131">
    <path clip-path="url(#pdb8cb14bde)" d="M 821.62134 307.838625 
L 825.304297 307.838625 
L 825.304297 307.280868 
L 821.62134 307.280868 
z
" style="fill:#1f77b4;opacity:0.35;"/>
   </g>
   <g id="patch_132">
    <path clip-path="url(#pdb8cb14bde)" d="M 825.304297 307.838625 
L 828.987253 307.838625 
L 828.987253 307.280868 
L 825.304297 307.280868 
z
" style="fill:#1f77b4;opacity:0.35;"/>
   </g>
   <g id="patch_133">
    <path clip-path="url(#pdb8cb14bde)" d="M 828.987253 307.838625 
L 832.670209 307.838625 
L 832.670209 303.65545 
L 828.987253 303.65545 
z
" style="fill:#1f77b4;opacity:0.35;"/>
   </g>
   <g id="patch_134">
    <path clip-path="url(#pdb8cb14bde)" d="M 832.670209 307.838625 
L 836.353165 307.838625 
L 836.353165 306.444233 
L 832.670209 306.444233 
z
" style="fill:#1f77b4;opacity:0.35;"/>
   </g>
   <g id="patch_135">
    <path clip-path="url(#pdb8cb14bde)" d="M 836.353165 307.838625 
L 840.036121 307.838625 
L 840.036121 307.280868 
L 836.353165 307.280868 
z
" style="fill:#1f77b4;opacity:0.35;"/>
   </g>
   <g id="patch_136">
    <path clip-path="url(#pdb8cb14bde)" d="M 840.036121 307.838625 
L 843.719077 307.838625 
L 843.719077 306.025916 
L 840.036121 306.025916 
z
" style="fill:#1f77b4;opacity:0.35;"/>
   </g>
   <g id="patch_137">
    <path clip-path="url(#pdb8cb14bde)" d="M 843.719077 307.838625 
L 847.402034 307.838625 
L 847.402034 306.444233 
L 843.719077 306.444233 
z
" style="fill:#1f77b4;opacity:0.35;"/>
   </g>
   <g id="patch_138">
    <path clip-path="url(#pdb8cb14bde)" d="M 847.402034 307.838625 
L 851.08499 307.838625 
L 851.08499 306.862551 
L 847.402034 306.862551 
z
" style="fill:#1f77b4;opacity:0.35;"/>
   </g>
   <g id="patch_139">
    <path clip-path="url(#pdb8cb14bde)" d="M 851.08499 307.838625 
L 854.767946 307.838625 
L 854.767946 305.886477 
L 851.08499 305.886477 
z
" style="fill:#1f77b4;opacity:0.35;"/>
   </g>
   <g id="patch_140">
    <path clip-path="url(#pdb8cb14bde)" d="M 854.767946 307.838625 
L 858.450902 307.838625 
L 858.450902 306.444233 
L 854.767946 306.444233 
z
" style="fill:#1f77b4;opacity:0.35;"/>
   </g>
   <g id="patch_141">
    <path clip-path="url(#pdb8cb14bde)" d="M 858.450902 307.838625 
L 862.133858 307.838625 
L 862.133858 306.583673 
L 858.450902 306.583673 
z
" style="fill:#1f77b4;opacity:0.35;"/>
   </g>
   <g id="patch_142">
    <path clip-path="url(#pdb8cb14bde)" d="M 862.133858 307.838625 
L 865.816814 307.838625 
L 865.816814 306.165355 
L 862.133858 306.165355 
z
" style="fill:#1f77b4;opacity:0.35;"/>
   </g>
   <g id="patch_143">
    <path clip-path="url(#pdb8cb14bde)" d="M 865.816814 307.838625 
L 869.499771 307.838625 
L 869.499771 306.723112 
L 865.816814 306.723112 
z
" style="fill:#1f77b4;opacity:0.35;"/>
   </g>
   <g id="patch_144">
    <path clip-path="url(#pdb8cb14bde)" d="M 869.499771 307.838625 
L 873.182727 307.838625 
L 873.182727 306.025916 
L 869.499771 306.025916 
z
" style="fill:#1f77b4;opacity:0.35;"/>
   </g>
   <g id="patch_145">
    <path clip-path="url(#pdb8cb14bde)" d="M 873.182727 307.838625 
L 876.865683 307.838625 
L 876.865683 305.468159 
L 873.182727 305.468159 
z
" style="fill:#1f77b4;opacity:0.35;"/>
   </g>
   <g id="patch_146">
    <path clip-path="url(#pdb8cb14bde)" d="M 876.865683 307.838625 
L 880.548639 307.838625 
L 880.548639 305.607599 
L 876.865683 305.607599 
z
" style="fill:#1f77b4;opacity:0.35;"/>
   </g>
   <g id="patch_147">
    <path clip-path="url(#pdb8cb14bde)" d="M 880.548639 307.838625 
L 884.231595 307.838625 
L 884.231595 304.910403 
L 880.548639 304.910403 
z
" style="fill:#1f77b4;opacity:0.35;"/>
   </g>
   <g id="patch_148">
    <path clip-path="url(#pdb8cb14bde)" d="M 884.231595 307.838625 
L 887.914551 307.838625 
L 887.914551 305.607599 
L 884.231595 305.607599 
z
" style="fill:#1f77b4;opacity:0.35;"/>
   </g>
   <g id="patch_149">
    <path clip-path="url(#pdb8cb14bde)" d="M 887.914551 307.838625 
L 891.597508 307.838625 
L 891.597508 305.468159 
L 887.914551 305.468159 
z
" style="fill:#1f77b4;opacity:0.35;"/>
   </g>
   <g id="patch_150">
    <path clip-path="url(#pdb8cb14bde)" d="M 891.597508 307.838625 
L 895.280464 307.838625 
L 895.280464 304.213207 
L 891.597508 304.213207 
z
" style="fill:#1f77b4;opacity:0.35;"/>
   </g>
   <g id="patch_151">
    <path clip-path="url(#pdb8cb14bde)" d="M 895.280464 307.838625 
L 898.96342 307.838625 
L 898.96342 304.492085 
L 895.280464 304.492085 
z
" style="fill:#1f77b4;opacity:0.35;"/>
   </g>
   <g id="patch_152">
    <path clip-path="url(#pdb8cb14bde)" d="M 898.96342 307.838625 
L 902.646376 307.838625 
L 902.646376 303.237133 
L 898.96342 303.237133 
z
" style="fill:#1f77b4;opacity:0.35;"/>
   </g>
   <g id="patch_153">
    <path clip-path="url(#pdb8cb14bde)" d="M 902.646376 307.838625 
L 906.329332 307.838625 
L 906.329332 304.352646 
L 902.646376 304.352646 
z
" style="fill:#1f77b4;opacity:0.35;"/>
   </g>
   <g id="patch_154">
    <path clip-path="url(#pdb8cb14bde)" d="M 906.329332 307.838625 
L 910.012288 307.838625 
L 910.012288 303.516011 
L 906.329332 303.516011 
z
" style="fill:#1f77b4;opacity:0.35;"/>
   </g>
   <g id="patch_155">
    <path clip-path="url(#pdb8cb14bde)" d="M 910.012288 307.838625 
L 913.695245 307.838625 
L 913.695245 304.073768 
L 910.012288 304.073768 
z
" style="fill:#1f77b4;opacity:0.35;"/>
   </g>
   <g id="patch_156">
    <path clip-path="url(#pdb8cb14bde)" d="M 913.695245 307.838625 
L 917.378201 307.838625 
L 917.378201 302.679376 
L 913.695245 302.679376 
z
" style="fill:#1f77b4;opacity:0.35;"/>
   </g>
   <g id="patch_157">
    <path clip-path="url(#pdb8cb14bde)" d="M 917.378201 307.838625 
L 921.061157 307.838625 
L 921.061157 301.842741 
L 917.378201 301.842741 
z
" style="fill:#1f77b4;opacity:0.35;"/>
   </g>
   <g id="patch_158">
    <path clip-path="url(#pdb8cb14bde)" d="M 921.061157 307.838625 
L 924.744113 307.838625 
L 924.744113 301.703302 
L 921.061157 301.703302 
z
" style="fill:#1f77b4;opacity:0.35;"/>
   </g>
   <g id="patch_159">
    <path clip-path="url(#pdb8cb14bde)" d="M 924.744113 307.838625 
L 928.427069 307.838625 
L 928.427069 301.424424 
L 924.744113 301.424424 
z
" style="fill:#1f77b4;opacity:0.35;"/>
   </g>
   <g id="patch_160">
    <path clip-path="url(#pdb8cb14bde)" d="M 928.427069 307.838625 
L 932.110025 307.838625 
L 932.110025 300.44835 
L 928.427069 300.44835 
z
" style="fill:#1f77b4;opacity:0.35;"/>
   </g>
   <g id="patch_161">
    <path clip-path="url(#pdb8cb14bde)" d="M 932.110025 307.838625 
L 935.792982 307.838625 
L 935.792982 296.822932 
L 932.110025 296.822932 
z
" style="fill:#1f77b4;opacity:0.35;"/>
   </g>
   <g id="patch_162">
    <path clip-path="url(#pdb8cb14bde)" d="M 935.792982 307.838625 
L 939.475938 307.838625 
L 939.475938 295.846858 
L 935.792982 295.846858 
z
" style="fill:#1f77b4;opacity:0.35;"/>
   </g>
   <g id="patch_163">
    <path clip-path="url(#pdb8cb14bde)" d="M 939.475938 307.838625 
L 943.158894 307.838625 
L 943.158894 295.010223 
L 939.475938 295.010223 
z
" style="fill:#1f77b4;opacity:0.35;"/>
   </g>
   <g id="patch_164">
    <path clip-path="url(#pdb8cb14bde)" d="M 943.158894 307.838625 
L 946.84185 307.838625 
L 946.84185 291.105927 
L 943.158894 291.105927 
z
" style="fill:#1f77b4;opacity:0.35;"/>
   </g>
   <g id="patch_165">
    <path clip-path="url(#pdb8cb14bde)" d="M 946.84185 307.838625 
L 950.524806 307.838625 
L 950.524806 292.082001 
L 946.84185 292.082001 
z
" style="fill:#1f77b4;opacity:0.35;"/>
   </g>
   <g id="patch_166">
    <path clip-path="url(#pdb8cb14bde)" d="M 950.524806 307.838625 
L 954.207763 307.838625 
L 954.207763 283.855091 
L 950.524806 283.855091 
z
" style="fill:#1f77b4;opacity:0.35;"/>
   </g>
   <g id="patch_167">
    <path clip-path="url(#pdb8cb14bde)" d="M 954.207763 307.838625 
L 957.890719 307.838625 
L 957.890719 274.373229 
L 954.207763 274.373229 
z
" style="fill:#1f77b4;opacity:0.35;"/>
   </g>
   <g id="patch_168">
    <path clip-path="url(#pdb8cb14bde)" d="M 957.890719 307.838625 
L 961.573675 307.838625 
L 961.573675 260.708192 
L 957.890719 260.708192 
z
" style="fill:#1f77b4;opacity:0.35;"/>
   </g>
   <g id="patch_169">
    <path clip-path="url(#pdb8cb14bde)" d="M 961.573675 307.838625 
L 965.256631 307.838625 
L 965.256631 51.967782 
L 961.573675 51.967782 
z
" style="fill:#1f77b4;opacity:0.35;"/>
   </g>
   <g id="matplotlib.axis_3">
    <g id="xtick_6">
     <g id="line2d_7">
      <g>
       <use style="fill:#808080;stroke:#808080;" x="520.500025" xlink:href="#mbd4cc3ef6f" y="307.838625"/>
      </g>
     </g>
     <g id="text_11">
      <!-- 0.4 -->
      <g transform="translate(509.367838 324.976437)scale(0.14 -0.14)">
       <use xlink:href="#DejaVuSans-30"/>
       <use x="63.623047" xlink:href="#DejaVuSans-2e"/>
       <use x="95.410156" xlink:href="#DejaVuSans-34"/>
      </g>
     </g>
    </g>
    <g id="xtick_7">
     <g id="line2d_8">
      <g>
       <use style="fill:#808080;stroke:#808080;" x="594.933039" xlink:href="#mbd4cc3ef6f" y="307.838625"/>
      </g>
     </g>
     <g id="text_12">
      <!-- 0.5 -->
      <g transform="translate(583.800852 324.976437)scale(0.14 -0.14)">
       <use xlink:href="#DejaVuSans-30"/>
       <use x="63.623047" xlink:href="#DejaVuSans-2e"/>
       <use x="95.410156" xlink:href="#DejaVuSans-35"/>
      </g>
     </g>
    </g>
    <g id="xtick_8">
     <g id="line2d_9">
      <g>
       <use style="fill:#808080;stroke:#808080;" x="669.366053" xlink:href="#mbd4cc3ef6f" y="307.838625"/>
      </g>
     </g>
     <g id="text_13">
      <!-- 0.6 -->
      <g transform="translate(658.233866 324.976437)scale(0.14 -0.14)">
       <use xlink:href="#DejaVuSans-30"/>
       <use x="63.623047" xlink:href="#DejaVuSans-2e"/>
       <use x="95.410156" xlink:href="#DejaVuSans-36"/>
      </g>
     </g>
    </g>
    <g id="xtick_9">
     <g id="line2d_10">
      <g>
       <use style="fill:#808080;stroke:#808080;" x="743.799067" xlink:href="#mbd4cc3ef6f" y="307.838625"/>
      </g>
     </g>
     <g id="text_14">
      <!-- 0.7 -->
      <g transform="translate(732.66688 324.976437)scale(0.14 -0.14)">
       <use xlink:href="#DejaVuSans-30"/>
       <use x="63.623047" xlink:href="#DejaVuSans-2e"/>
       <use x="95.410156" xlink:href="#DejaVuSans-37"/>
      </g>
     </g>
    </g>
    <g id="xtick_10">
     <g id="line2d_11">
      <g>
       <use style="fill:#808080;stroke:#808080;" x="818.232081" xlink:href="#mbd4cc3ef6f" y="307.838625"/>
      </g>
     </g>
     <g id="text_15">
      <!-- 0.8 -->
      <g transform="translate(807.099894 324.976437)scale(0.14 -0.14)">
       <use xlink:href="#DejaVuSans-30"/>
       <use x="63.623047" xlink:href="#DejaVuSans-2e"/>
       <use x="95.410156" xlink:href="#DejaVuSans-38"/>
      </g>
     </g>
    </g>
    <g id="xtick_11">
     <g id="line2d_12">
      <g>
       <use style="fill:#808080;stroke:#808080;" x="892.665095" xlink:href="#mbd4cc3ef6f" y="307.838625"/>
      </g>
     </g>
     <g id="text_16">
      <!-- 0.9 -->
      <g transform="translate(881.532908 324.976437)scale(0.14 -0.14)">
       <use xlink:href="#DejaVuSans-30"/>
       <use x="63.623047" xlink:href="#DejaVuSans-2e"/>
       <use x="95.410156" xlink:href="#DejaVuSans-39"/>
      </g>
     </g>
    </g>
    <g id="xtick_12">
     <g id="line2d_13">
      <g>
       <use style="fill:#808080;stroke:#808080;" x="967.098109" xlink:href="#mbd4cc3ef6f" y="307.838625"/>
      </g>
     </g>
     <g id="text_17">
      <!-- 1.0 -->
      <g transform="translate(955.965922 324.976437)scale(0.14 -0.14)">
       <defs>
        <path d="M 794 531 
L 1825 531 
L 1825 4091 
L 703 3866 
L 703 4441 
L 1819 4666 
L 2450 4666 
L 2450 531 
L 3481 531 
L 3481 0 
L 794 0 
L 794 531 
z
" id="DejaVuSans-31" transform="scale(0.015625)"/>
       </defs>
       <use xlink:href="#DejaVuSans-31"/>
       <use x="63.623047" xlink:href="#DejaVuSans-2e"/>
       <use x="95.410156" xlink:href="#DejaVuSans-30"/>
      </g>
     </g>
    </g>
   </g>
   <g id="matplotlib.axis_4"/>
   <g id="line2d_14">
    <path clip-path="url(#pdb8cb14bde)" d="M 785.742229 302.465337 
L 967.098109 302.465337 
" style="fill:none;stroke:#000000;stroke-width:3;"/>
   </g>
   <g id="patch_170">
    <path d="M 501.11208 307.838625 
L 989.28792 307.838625 
" style="fill:none;stroke:#808080;stroke-linecap:square;stroke-linejoin:miter;stroke-width:0.8;"/>
   </g>
   <g id="text_18">
    <!-- 0.76  -->
    <g transform="translate(747.576604 289.032118)scale(0.15 -0.15)">
     <use xlink:href="#DejaVuSans-30"/>
     <use x="63.623047" xlink:href="#DejaVuSans-2e"/>
     <use x="95.410156" xlink:href="#DejaVuSans-37"/>
     <use x="159.033203" xlink:href="#DejaVuSans-36"/>
     <use x="222.65625" xlink:href="#DejaVuSans-20"/>
    </g>
   </g>
   <g id="text_19">
    <!--  1 -->
    <g transform="translate(967.098109 289.032118)scale(0.15 -0.15)">
     <use xlink:href="#DejaVuSans-20"/>
     <use x="31.787109" xlink:href="#DejaVuSans-31"/>
    </g>
   </g>
   <g id="text_20">
    <!-- 94% HDI -->
    <g transform="translate(843.738919 227.239309)scale(0.15 -0.15)">
     <use xlink:href="#DejaVuSans-39"/>
     <use x="63.623047" xlink:href="#DejaVuSans-34"/>
     <use x="127.246094" xlink:href="#DejaVuSans-25"/>
     <use x="222.265625" xlink:href="#DejaVuSans-20"/>
     <use x="254.052734" xlink:href="#DejaVuSans-48"/>
     <use x="329.248047" xlink:href="#DejaVuSans-44"/>
     <use x="406.25" xlink:href="#DejaVuSans-49"/>
    </g>
   </g>
   <g id="text_21">
    <!-- mean=0.95 -->
    <g transform="translate(887.508082 92.907117)scale(0.15 -0.15)">
     <use xlink:href="#DejaVuSans-6d"/>
     <use x="97.412109" xlink:href="#DejaVuSans-65"/>
     <use x="158.935547" xlink:href="#DejaVuSans-61"/>
     <use x="220.214844" xlink:href="#DejaVuSans-6e"/>
     <use x="283.59375" xlink:href="#DejaVuSans-3d"/>
     <use x="367.382812" xlink:href="#DejaVuSans-30"/>
     <use x="431.005859" xlink:href="#DejaVuSans-2e"/>
     <use x="462.792969" xlink:href="#DejaVuSans-39"/>
     <use x="526.416016" xlink:href="#DejaVuSans-35"/>
    </g>
   </g>
   <g id="text_22">
    <!-- β -->
    <g transform="translate(740.095 17.68924)scale(0.16 -0.16)">
     <use xlink:href="#DejaVuSans-3b2"/>
    </g>
    <!-- 1 -->
    <g transform="translate(740.11 35.60574)scale(0.16 -0.16)">
     <use xlink:href="#DejaVuSans-31"/>
    </g>
   </g>
  </g>
  <g id="axes_3">
   <g id="patch_171">
    <path d="M 999.22392 307.838625 
L 1487.39976 307.838625 
L 1487.39976 39.17424 
L 999.22392 39.17424 
z
" style="fill:#ffffff;"/>
   </g>
   <g id="patch_172">
    <path clip-path="url(#paeec748661)" d="M 1021.413731 307.838625 
L 1042.055415 307.838625 
L 1042.055415 297.348377 
L 1021.413731 297.348377 
z
" style="fill:#1f77b4;opacity:0.35;"/>
   </g>
   <g id="patch_173">
    <path clip-path="url(#paeec748661)" d="M 1042.055415 307.838625 
L 1062.6971 307.838625 
L 1062.6971 296.588214 
L 1042.055415 296.588214 
z
" style="fill:#1f77b4;opacity:0.35;"/>
   </g>
   <g id="patch_174">
    <path clip-path="url(#paeec748661)" d="M 1062.6971 307.838625 
L 1083.338785 307.838625 
L 1083.338785 298.108539 
L 1062.6971 298.108539 
z
" style="fill:#1f77b4;opacity:0.35;"/>
   </g>
   <g id="patch_175">
    <path clip-path="url(#paeec748661)" d="M 1083.338785 307.838625 
L 1103.980469 307.838625 
L 1103.980469 298.71667 
L 1083.338785 298.71667 
z
" style="fill:#1f77b4;opacity:0.35;"/>
   </g>
   <g id="patch_176">
    <path clip-path="url(#paeec748661)" d="M 1103.980469 307.838625 
L 1124.622154 307.838625 
L 1124.622154 298.564637 
L 1103.980469 298.564637 
z
" style="fill:#1f77b4;opacity:0.35;"/>
   </g>
   <g id="patch_177">
    <path clip-path="url(#paeec748661)" d="M 1124.622154 307.838625 
L 1145.263838 307.838625 
L 1145.263838 298.260572 
L 1124.622154 298.260572 
z
" style="fill:#1f77b4;opacity:0.35;"/>
   </g>
   <g id="patch_178">
    <path clip-path="url(#paeec748661)" d="M 1145.263838 307.838625 
L 1165.905523 307.838625 
L 1165.905523 294.459757 
L 1145.263838 294.459757 
z
" style="fill:#1f77b4;opacity:0.35;"/>
   </g>
   <g id="patch_179">
    <path clip-path="url(#paeec748661)" d="M 1165.905523 307.838625 
L 1186.547207 307.838625 
L 1186.547207 295.676018 
L 1165.905523 295.676018 
z
" style="fill:#1f77b4;opacity:0.35;"/>
   </g>
   <g id="patch_180">
    <path clip-path="url(#paeec748661)" d="M 1186.547207 307.838625 
L 1207.188892 307.838625 
L 1207.188892 297.956507 
L 1186.547207 297.956507 
z
" style="fill:#1f77b4;opacity:0.35;"/>
   </g>
   <g id="patch_181">
    <path clip-path="url(#paeec748661)" d="M 1207.188892 307.838625 
L 1227.830577 307.838625 
L 1227.830577 292.483334 
L 1207.188892 292.483334 
z
" style="fill:#1f77b4;opacity:0.35;"/>
   </g>
   <g id="patch_182">
    <path clip-path="url(#paeec748661)" d="M 1227.830577 307.838625 
L 1248.472261 307.838625 
L 1248.472261 293.699594 
L 1227.830577 293.699594 
z
" style="fill:#1f77b4;opacity:0.35;"/>
   </g>
   <g id="patch_183">
    <path clip-path="url(#paeec748661)" d="M 1248.472261 307.838625 
L 1269.113946 307.838625 
L 1269.113946 294.155692 
L 1248.472261 294.155692 
z
" style="fill:#1f77b4;opacity:0.35;"/>
   </g>
   <g id="patch_184">
    <path clip-path="url(#paeec748661)" d="M 1269.113946 307.838625 
L 1289.75563 307.838625 
L 1289.75563 292.939432 
L 1269.113946 292.939432 
z
" style="fill:#1f77b4;opacity:0.35;"/>
   </g>
   <g id="patch_185">
    <path clip-path="url(#paeec748661)" d="M 1289.75563 307.838625 
L 1310.397315 307.838625 
L 1310.397315 289.138617 
L 1289.75563 289.138617 
z
" style="fill:#1f77b4;opacity:0.35;"/>
   </g>
   <g id="patch_186">
    <path clip-path="url(#paeec748661)" d="M 1310.397315 307.838625 
L 1331.038999 307.838625 
L 1331.038999 292.027236 
L 1310.397315 292.027236 
z
" style="fill:#1f77b4;opacity:0.35;"/>
   </g>
   <g id="patch_187">
    <path clip-path="url(#paeec748661)" d="M 1331.038999 307.838625 
L 1351.680684 307.838625 
L 1351.680684 288.074389 
L 1331.038999 288.074389 
z
" style="fill:#1f77b4;opacity:0.35;"/>
   </g>
   <g id="patch_188">
    <path clip-path="url(#paeec748661)" d="M 1351.680684 307.838625 
L 1372.322369 307.838625 
L 1372.322369 283.665444 
L 1351.680684 283.665444 
z
" style="fill:#1f77b4;opacity:0.35;"/>
   </g>
   <g id="patch_189">
    <path clip-path="url(#paeec748661)" d="M 1372.322369 307.838625 
L 1392.964053 307.838625 
L 1392.964053 275.911782 
L 1372.322369 275.911782 
z
" style="fill:#1f77b4;opacity:0.35;"/>
   </g>
   <g id="patch_190">
    <path clip-path="url(#paeec748661)" d="M 1392.964053 307.838625 
L 1413.605738 307.838625 
L 1413.605738 272.110967 
L 1392.964053 272.110967 
z
" style="fill:#1f77b4;opacity:0.35;"/>
   </g>
   <g id="patch_191">
    <path clip-path="url(#paeec748661)" d="M 1413.605738 307.838625 
L 1434.247422 307.838625 
L 1434.247422 254.62722 
L 1413.605738 254.62722 
z
" style="fill:#1f77b4;opacity:0.35;"/>
   </g>
   <g id="patch_192">
    <path clip-path="url(#paeec748661)" d="M 1434.247422 307.838625 
L 1454.889107 307.838625 
L 1454.889107 51.967782 
L 1434.247422 51.967782 
z
" style="fill:#1f77b4;opacity:0.35;"/>
   </g>
   <g id="matplotlib.axis_5">
    <g id="xtick_13">
     <g id="line2d_15">
      <g>
       <use style="fill:#808080;stroke:#808080;" x="1031.722817" xlink:href="#mbd4cc3ef6f" y="307.838625"/>
      </g>
     </g>
     <g id="text_23">
      <!-- 0.0 -->
      <g transform="translate(1020.59063 324.976437)scale(0.14 -0.14)">
       <use xlink:href="#DejaVuSans-30"/>
       <use x="63.623047" xlink:href="#DejaVuSans-2e"/>
       <use x="95.410156" xlink:href="#DejaVuSans-30"/>
      </g>
     </g>
    </g>
    <g id="xtick_14">
     <g id="line2d_16">
      <g>
       <use style="fill:#808080;stroke:#808080;" x="1118.420244" xlink:href="#mbd4cc3ef6f" y="307.838625"/>
      </g>
     </g>
     <g id="text_24">
      <!-- 0.2 -->
      <g transform="translate(1107.288056 324.976437)scale(0.14 -0.14)">
       <defs>
        <path d="M 1228 531 
L 3431 531 
L 3431 0 
L 469 0 
L 469 531 
Q 828 903 1448 1529 
Q 2069 2156 2228 2338 
Q 2531 2678 2651 2914 
Q 2772 3150 2772 3378 
Q 2772 3750 2511 3984 
Q 2250 4219 1831 4219 
Q 1534 4219 1204 4116 
Q 875 4013 500 3803 
L 500 4441 
Q 881 4594 1212 4672 
Q 1544 4750 1819 4750 
Q 2544 4750 2975 4387 
Q 3406 4025 3406 3419 
Q 3406 3131 3298 2873 
Q 3191 2616 2906 2266 
Q 2828 2175 2409 1742 
Q 1991 1309 1228 531 
z
" id="DejaVuSans-32" transform="scale(0.015625)"/>
       </defs>
       <use xlink:href="#DejaVuSans-30"/>
       <use x="63.623047" xlink:href="#DejaVuSans-2e"/>
       <use x="95.410156" xlink:href="#DejaVuSans-32"/>
      </g>
     </g>
    </g>
    <g id="xtick_15">
     <g id="line2d_17">
      <g>
       <use style="fill:#808080;stroke:#808080;" x="1205.11767" xlink:href="#mbd4cc3ef6f" y="307.838625"/>
      </g>
     </g>
     <g id="text_25">
      <!-- 0.4 -->
      <g transform="translate(1193.985483 324.976437)scale(0.14 -0.14)">
       <use xlink:href="#DejaVuSans-30"/>
       <use x="63.623047" xlink:href="#DejaVuSans-2e"/>
       <use x="95.410156" xlink:href="#DejaVuSans-34"/>
      </g>
     </g>
    </g>
    <g id="xtick_16">
     <g id="line2d_18">
      <g>
       <use style="fill:#808080;stroke:#808080;" x="1291.815096" xlink:href="#mbd4cc3ef6f" y="307.838625"/>
      </g>
     </g>
     <g id="text_26">
      <!-- 0.6 -->
      <g transform="translate(1280.682909 324.976437)scale(0.14 -0.14)">
       <use xlink:href="#DejaVuSans-30"/>
       <use x="63.623047" xlink:href="#DejaVuSans-2e"/>
       <use x="95.410156" xlink:href="#DejaVuSans-36"/>
      </g>
     </g>
    </g>
    <g id="xtick_17">
     <g id="line2d_19">
      <g>
       <use style="fill:#808080;stroke:#808080;" x="1378.512523" xlink:href="#mbd4cc3ef6f" y="307.838625"/>
      </g>
     </g>
     <g id="text_27">
      <!-- 0.8 -->
      <g transform="translate(1367.380335 324.976437)scale(0.14 -0.14)">
       <use xlink:href="#DejaVuSans-30"/>
       <use x="63.623047" xlink:href="#DejaVuSans-2e"/>
       <use x="95.410156" xlink:href="#DejaVuSans-38"/>
      </g>
     </g>
    </g>
    <g id="xtick_18">
     <g id="line2d_20">
      <g>
       <use style="fill:#808080;stroke:#808080;" x="1465.209949" xlink:href="#mbd4cc3ef6f" y="307.838625"/>
      </g>
     </g>
     <g id="text_28">
      <!-- 1.0 -->
      <g transform="translate(1454.077762 324.976437)scale(0.14 -0.14)">
       <use xlink:href="#DejaVuSans-31"/>
       <use x="63.623047" xlink:href="#DejaVuSans-2e"/>
       <use x="95.410156" xlink:href="#DejaVuSans-30"/>
      </g>
     </g>
    </g>
   </g>
   <g id="matplotlib.axis_6"/>
   <g id="line2d_21">
    <path clip-path="url(#paeec748661)" d="M 1106.521474 302.465337 
L 1465.209949 302.465337 
" style="fill:none;stroke:#000000;stroke-width:3;"/>
   </g>
   <g id="patch_193">
    <path d="M 999.22392 307.838625 
L 1487.39976 307.838625 
" style="fill:none;stroke:#808080;stroke-linecap:square;stroke-linejoin:miter;stroke-width:0.8;"/>
   </g>
   <g id="text_29">
    <!-- 0.17  -->
    <g transform="translate(1068.355849 289.032118)scale(0.15 -0.15)">
     <use xlink:href="#DejaVuSans-30"/>
     <use x="63.623047" xlink:href="#DejaVuSans-2e"/>
     <use x="95.410156" xlink:href="#DejaVuSans-31"/>
     <use x="159.033203" xlink:href="#DejaVuSans-37"/>
     <use x="222.65625" xlink:href="#DejaVuSans-20"/>
    </g>
   </g>
   <g id="text_30">
    <!--  1 -->
    <g transform="translate(1465.209949 289.032118)scale(0.15 -0.15)">
     <use xlink:href="#DejaVuSans-20"/>
     <use x="31.787109" xlink:href="#DejaVuSans-31"/>
    </g>
   </g>
   <g id="text_31">
    <!-- 94% HDI -->
    <g transform="translate(1253.184462 227.239309)scale(0.15 -0.15)">
     <use xlink:href="#DejaVuSans-39"/>
     <use x="63.623047" xlink:href="#DejaVuSans-34"/>
     <use x="127.246094" xlink:href="#DejaVuSans-25"/>
     <use x="222.265625" xlink:href="#DejaVuSans-20"/>
     <use x="254.052734" xlink:href="#DejaVuSans-48"/>
     <use x="329.248047" xlink:href="#DejaVuSans-44"/>
     <use x="406.25" xlink:href="#DejaVuSans-49"/>
    </g>
   </g>
   <g id="text_32">
    <!-- mean=0.77 -->
    <g transform="translate(1321.498882 92.907117)scale(0.15 -0.15)">
     <use xlink:href="#DejaVuSans-6d"/>
     <use x="97.412109" xlink:href="#DejaVuSans-65"/>
     <use x="158.935547" xlink:href="#DejaVuSans-61"/>
     <use x="220.214844" xlink:href="#DejaVuSans-6e"/>
     <use x="283.59375" xlink:href="#DejaVuSans-3d"/>
     <use x="367.382812" xlink:href="#DejaVuSans-30"/>
     <use x="431.005859" xlink:href="#DejaVuSans-2e"/>
     <use x="462.792969" xlink:href="#DejaVuSans-37"/>
     <use x="526.416016" xlink:href="#DejaVuSans-37"/>
    </g>
   </g>
   <g id="text_33">
    <!-- β -->
    <g transform="translate(1238.20684 17.68924)scale(0.16 -0.16)">
     <use xlink:href="#DejaVuSans-3b2"/>
    </g>
    <!-- 2 -->
    <g transform="translate(1238.22184 35.60574)scale(0.16 -0.16)">
     <use xlink:href="#DejaVuSans-32"/>
    </g>
   </g>
  </g>
  <g id="axes_4">
   <g id="patch_194">
    <path d="M 3.00024 639.350385 
L 491.17608 639.350385 
L 491.17608 370.686 
L 3.00024 370.686 
z
" style="fill:#ffffff;"/>
   </g>
   <g id="patch_195">
    <path clip-path="url(#p49a5d6433e)" d="M 25.190051 639.350385 
L 47.948831 639.350385 
L 47.948831 626.164608 
L 25.190051 626.164608 
z
" style="fill:#1f77b4;opacity:0.35;"/>
   </g>
   <g id="patch_196">
    <path clip-path="url(#p49a5d6433e)" d="M 47.948831 639.350385 
L 70.707612 639.350385 
L 70.707612 626.832242 
L 47.948831 626.832242 
z
" style="fill:#1f77b4;opacity:0.35;"/>
   </g>
   <g id="patch_197">
    <path clip-path="url(#p49a5d6433e)" d="M 70.707612 639.350385 
L 93.466392 639.350385 
L 93.466392 628.668236 
L 70.707612 628.668236 
z
" style="fill:#1f77b4;opacity:0.35;"/>
   </g>
   <g id="patch_198">
    <path clip-path="url(#p49a5d6433e)" d="M 93.466392 639.350385 
L 116.225173 639.350385 
L 116.225173 625.496973 
L 93.466392 625.496973 
z
" style="fill:#1f77b4;opacity:0.35;"/>
   </g>
   <g id="patch_199">
    <path clip-path="url(#p49a5d6433e)" d="M 116.225173 639.350385 
L 138.983953 639.350385 
L 138.983953 618.987539 
L 116.225173 618.987539 
z
" style="fill:#1f77b4;opacity:0.35;"/>
   </g>
   <g id="patch_200">
    <path clip-path="url(#p49a5d6433e)" d="M 138.983953 639.350385 
L 161.742733 639.350385 
L 161.742733 622.659528 
L 138.983953 622.659528 
z
" style="fill:#1f77b4;opacity:0.35;"/>
   </g>
   <g id="patch_201">
    <path clip-path="url(#p49a5d6433e)" d="M 161.742733 639.350385 
L 184.501514 639.350385 
L 184.501514 627.666785 
L 161.742733 627.666785 
z
" style="fill:#1f77b4;opacity:0.35;"/>
   </g>
   <g id="patch_202">
    <path clip-path="url(#p49a5d6433e)" d="M 184.501514 639.350385 
L 207.260294 639.350385 
L 207.260294 622.826436 
L 184.501514 622.826436 
z
" style="fill:#1f77b4;opacity:0.35;"/>
   </g>
   <g id="patch_203">
    <path clip-path="url(#p49a5d6433e)" d="M 207.260294 639.350385 
L 230.019075 639.350385 
L 230.019075 622.158802 
L 207.260294 622.158802 
z
" style="fill:#1f77b4;opacity:0.35;"/>
   </g>
   <g id="patch_204">
    <path clip-path="url(#p49a5d6433e)" d="M 230.019075 639.350385 
L 252.777855 639.350385 
L 252.777855 621.157351 
L 230.019075 621.157351 
z
" style="fill:#1f77b4;opacity:0.35;"/>
   </g>
   <g id="patch_205">
    <path clip-path="url(#p49a5d6433e)" d="M 252.777855 639.350385 
L 275.536636 639.350385 
L 275.536636 620.489716 
L 252.777855 620.489716 
z
" style="fill:#1f77b4;opacity:0.35;"/>
   </g>
   <g id="patch_206">
    <path clip-path="url(#p49a5d6433e)" d="M 275.536636 639.350385 
L 298.295416 639.350385 
L 298.295416 619.154448 
L 275.536636 619.154448 
z
" style="fill:#1f77b4;opacity:0.35;"/>
   </g>
   <g id="patch_207">
    <path clip-path="url(#p49a5d6433e)" d="M 298.295416 639.350385 
L 321.054196 639.350385 
L 321.054196 612.478105 
L 298.295416 612.478105 
z
" style="fill:#1f77b4;opacity:0.35;"/>
   </g>
   <g id="patch_208">
    <path clip-path="url(#p49a5d6433e)" d="M 321.054196 639.350385 
L 343.812977 639.350385 
L 343.812977 617.819179 
L 321.054196 617.819179 
z
" style="fill:#1f77b4;opacity:0.35;"/>
   </g>
   <g id="patch_209">
    <path clip-path="url(#p49a5d6433e)" d="M 343.812977 639.350385 
L 366.571757 639.350385 
L 366.571757 603.131225 
L 343.812977 603.131225 
z
" style="fill:#1f77b4;opacity:0.35;"/>
   </g>
   <g id="patch_210">
    <path clip-path="url(#p49a5d6433e)" d="M 366.571757 639.350385 
L 389.330538 639.350385 
L 389.330538 606.970122 
L 366.571757 606.970122 
z
" style="fill:#1f77b4;opacity:0.35;"/>
   </g>
   <g id="patch_211">
    <path clip-path="url(#p49a5d6433e)" d="M 389.330538 639.350385 
L 412.089318 639.350385 
L 412.089318 597.456333 
L 389.330538 597.456333 
z
" style="fill:#1f77b4;opacity:0.35;"/>
   </g>
   <g id="patch_212">
    <path clip-path="url(#p49a5d6433e)" d="M 412.089318 639.350385 
L 434.848098 639.350385 
L 434.848098 576.425853 
L 412.089318 576.425853 
z
" style="fill:#1f77b4;opacity:0.35;"/>
   </g>
   <g id="patch_213">
    <path clip-path="url(#p49a5d6433e)" d="M 434.848098 639.350385 
L 457.606879 639.350385 
L 457.606879 383.479542 
L 434.848098 383.479542 
z
" style="fill:#1f77b4;opacity:0.35;"/>
   </g>
   <g id="matplotlib.axis_7">
    <g id="xtick_19">
     <g id="line2d_22">
      <g>
       <use style="fill:#808080;stroke:#808080;" x="36.411577" xlink:href="#mbd4cc3ef6f" y="639.350385"/>
      </g>
     </g>
     <g id="text_34">
      <!-- 0.0 -->
      <g transform="translate(25.27939 656.488197)scale(0.14 -0.14)">
       <use xlink:href="#DejaVuSans-30"/>
       <use x="63.623047" xlink:href="#DejaVuSans-2e"/>
       <use x="95.410156" xlink:href="#DejaVuSans-30"/>
      </g>
     </g>
    </g>
    <g id="xtick_20">
     <g id="line2d_23">
      <g>
       <use style="fill:#808080;stroke:#808080;" x="122.926516" xlink:href="#mbd4cc3ef6f" y="639.350385"/>
      </g>
     </g>
     <g id="text_35">
      <!-- 0.2 -->
      <g transform="translate(111.794328 656.488197)scale(0.14 -0.14)">
       <use xlink:href="#DejaVuSans-30"/>
       <use x="63.623047" xlink:href="#DejaVuSans-2e"/>
       <use x="95.410156" xlink:href="#DejaVuSans-32"/>
      </g>
     </g>
    </g>
    <g id="xtick_21">
     <g id="line2d_24">
      <g>
       <use style="fill:#808080;stroke:#808080;" x="209.441454" xlink:href="#mbd4cc3ef6f" y="639.350385"/>
      </g>
     </g>
     <g id="text_36">
      <!-- 0.4 -->
      <g transform="translate(198.309267 656.488197)scale(0.14 -0.14)">
       <use xlink:href="#DejaVuSans-30"/>
       <use x="63.623047" xlink:href="#DejaVuSans-2e"/>
       <use x="95.410156" xlink:href="#DejaVuSans-34"/>
      </g>
     </g>
    </g>
    <g id="xtick_22">
     <g id="line2d_25">
      <g>
       <use style="fill:#808080;stroke:#808080;" x="295.956392" xlink:href="#mbd4cc3ef6f" y="639.350385"/>
      </g>
     </g>
     <g id="text_37">
      <!-- 0.6 -->
      <g transform="translate(284.824205 656.488197)scale(0.14 -0.14)">
       <use xlink:href="#DejaVuSans-30"/>
       <use x="63.623047" xlink:href="#DejaVuSans-2e"/>
       <use x="95.410156" xlink:href="#DejaVuSans-36"/>
      </g>
     </g>
    </g>
    <g id="xtick_23">
     <g id="line2d_26">
      <g>
       <use style="fill:#808080;stroke:#808080;" x="382.471331" xlink:href="#mbd4cc3ef6f" y="639.350385"/>
      </g>
     </g>
     <g id="text_38">
      <!-- 0.8 -->
      <g transform="translate(371.339143 656.488197)scale(0.14 -0.14)">
       <use xlink:href="#DejaVuSans-30"/>
       <use x="63.623047" xlink:href="#DejaVuSans-2e"/>
       <use x="95.410156" xlink:href="#DejaVuSans-38"/>
      </g>
     </g>
    </g>
    <g id="xtick_24">
     <g id="line2d_27">
      <g>
       <use style="fill:#808080;stroke:#808080;" x="468.986269" xlink:href="#mbd4cc3ef6f" y="639.350385"/>
      </g>
     </g>
     <g id="text_39">
      <!-- 1.0 -->
      <g transform="translate(457.854082 656.488197)scale(0.14 -0.14)">
       <use xlink:href="#DejaVuSans-31"/>
       <use x="63.623047" xlink:href="#DejaVuSans-2e"/>
       <use x="95.410156" xlink:href="#DejaVuSans-30"/>
      </g>
     </g>
    </g>
   </g>
   <g id="matplotlib.axis_8"/>
   <g id="line2d_28">
    <path clip-path="url(#p49a5d6433e)" d="M 111.84214 633.977097 
L 468.986269 633.977097 
" style="fill:none;stroke:#000000;stroke-width:3;"/>
   </g>
   <g id="patch_214">
    <path d="M 3.00024 639.350385 
L 491.17608 639.350385 
" style="fill:none;stroke:#808080;stroke-linecap:square;stroke-linejoin:miter;stroke-width:0.8;"/>
   </g>
   <g id="text_40">
    <!-- 0.17  -->
    <g transform="translate(73.676515 620.543878)scale(0.15 -0.15)">
     <use xlink:href="#DejaVuSans-30"/>
     <use x="63.623047" xlink:href="#DejaVuSans-2e"/>
     <use x="95.410156" xlink:href="#DejaVuSans-31"/>
     <use x="159.033203" xlink:href="#DejaVuSans-37"/>
     <use x="222.65625" xlink:href="#DejaVuSans-20"/>
    </g>
   </g>
   <g id="text_41">
    <!--  1 -->
    <g transform="translate(468.986269 620.543878)scale(0.15 -0.15)">
     <use xlink:href="#DejaVuSans-20"/>
     <use x="31.787109" xlink:href="#DejaVuSans-31"/>
    </g>
   </g>
   <g id="text_42">
    <!-- 94% HDI -->
    <g transform="translate(257.732955 558.751069)scale(0.15 -0.15)">
     <use xlink:href="#DejaVuSans-39"/>
     <use x="63.623047" xlink:href="#DejaVuSans-34"/>
     <use x="127.246094" xlink:href="#DejaVuSans-25"/>
     <use x="222.265625" xlink:href="#DejaVuSans-20"/>
     <use x="254.052734" xlink:href="#DejaVuSans-48"/>
     <use x="329.248047" xlink:href="#DejaVuSans-44"/>
     <use x="406.25" xlink:href="#DejaVuSans-49"/>
    </g>
   </g>
   <g id="text_43">
    <!-- mean=0.75 -->
    <g transform="translate(316.06638 424.418877)scale(0.15 -0.15)">
     <use xlink:href="#DejaVuSans-6d"/>
     <use x="97.412109" xlink:href="#DejaVuSans-65"/>
     <use x="158.935547" xlink:href="#DejaVuSans-61"/>
     <use x="220.214844" xlink:href="#DejaVuSans-6e"/>
     <use x="283.59375" xlink:href="#DejaVuSans-3d"/>
     <use x="367.382812" xlink:href="#DejaVuSans-30"/>
     <use x="431.005859" xlink:href="#DejaVuSans-2e"/>
     <use x="462.792969" xlink:href="#DejaVuSans-37"/>
     <use x="526.416016" xlink:href="#DejaVuSans-35"/>
    </g>
   </g>
   <g id="text_44">
    <!-- β -->
    <g transform="translate(241.98316 349.201)scale(0.16 -0.16)">
     <use xlink:href="#DejaVuSans-3b2"/>
    </g>
    <!-- 3 -->
    <g transform="translate(241.99816 367.1175)scale(0.16 -0.16)">
     <defs>
      <path d="M 2597 2516 
Q 3050 2419 3304 2112 
Q 3559 1806 3559 1356 
Q 3559 666 3084 287 
Q 2609 -91 1734 -91 
Q 1441 -91 1130 -33 
Q 819 25 488 141 
L 488 750 
Q 750 597 1062 519 
Q 1375 441 1716 441 
Q 2309 441 2620 675 
Q 2931 909 2931 1356 
Q 2931 1769 2642 2001 
Q 2353 2234 1838 2234 
L 1294 2234 
L 1294 2753 
L 1863 2753 
Q 2328 2753 2575 2939 
Q 2822 3125 2822 3475 
Q 2822 3834 2567 4026 
Q 2313 4219 1838 4219 
Q 1578 4219 1281 4162 
Q 984 4106 628 3988 
L 628 4550 
Q 988 4650 1302 4700 
Q 1616 4750 1894 4750 
Q 2613 4750 3031 4423 
Q 3450 4097 3450 3541 
Q 3450 3153 3228 2886 
Q 3006 2619 2597 2516 
z
" id="DejaVuSans-33" transform="scale(0.015625)"/>
     </defs>
     <use xlink:href="#DejaVuSans-33"/>
    </g>
   </g>
  </g>
  <g id="axes_5">
   <g id="patch_215">
    <path d="M 501.11208 639.350385 
L 989.28792 639.350385 
L 989.28792 370.686 
L 501.11208 370.686 
z
" style="fill:#ffffff;"/>
   </g>
   <g id="patch_216">
    <path clip-path="url(#p1299958a7b)" d="M 523.301891 639.350385 
L 547.290876 639.350385 
L 547.290876 620.135437 
L 523.301891 620.135437 
z
" style="fill:#1f77b4;opacity:0.35;"/>
   </g>
   <g id="patch_217">
    <path clip-path="url(#p1299958a7b)" d="M 547.290876 639.350385 
L 571.27986 639.350385 
L 571.27986 615.208528 
L 547.290876 615.208528 
z
" style="fill:#1f77b4;opacity:0.35;"/>
   </g>
   <g id="patch_218">
    <path clip-path="url(#p1299958a7b)" d="M 571.27986 639.350385 
L 595.268845 639.350385 
L 595.268845 626.70465 
L 571.27986 626.70465 
z
" style="fill:#1f77b4;opacity:0.35;"/>
   </g>
   <g id="patch_219">
    <path clip-path="url(#p1299958a7b)" d="M 595.268845 639.350385 
L 619.25783 639.350385 
L 619.25783 623.584274 
L 595.268845 623.584274 
z
" style="fill:#1f77b4;opacity:0.35;"/>
   </g>
   <g id="patch_220">
    <path clip-path="url(#p1299958a7b)" d="M 619.25783 639.350385 
L 643.246815 639.350385 
L 643.246815 622.434662 
L 619.25783 622.434662 
z
" style="fill:#1f77b4;opacity:0.35;"/>
   </g>
   <g id="patch_221">
    <path clip-path="url(#p1299958a7b)" d="M 643.246815 639.350385 
L 667.2358 639.350385 
L 667.2358 624.569656 
L 643.246815 624.569656 
z
" style="fill:#1f77b4;opacity:0.35;"/>
   </g>
   <g id="patch_222">
    <path clip-path="url(#p1299958a7b)" d="M 667.2358 639.350385 
L 691.224784 639.350385 
L 691.224784 624.569656 
L 667.2358 624.569656 
z
" style="fill:#1f77b4;opacity:0.35;"/>
   </g>
   <g id="patch_223">
    <path clip-path="url(#p1299958a7b)" d="M 691.224784 639.350385 
L 715.213769 639.350385 
L 715.213769 618.164673 
L 691.224784 618.164673 
z
" style="fill:#1f77b4;opacity:0.35;"/>
   </g>
   <g id="patch_224">
    <path clip-path="url(#p1299958a7b)" d="M 715.213769 639.350385 
L 739.202754 639.350385 
L 739.202754 622.598892 
L 715.213769 622.598892 
z
" style="fill:#1f77b4;opacity:0.35;"/>
   </g>
   <g id="patch_225">
    <path clip-path="url(#p1299958a7b)" d="M 739.202754 639.350385 
L 763.191739 639.350385 
L 763.191739 617.015061 
L 739.202754 617.015061 
z
" style="fill:#1f77b4;opacity:0.35;"/>
   </g>
   <g id="patch_226">
    <path clip-path="url(#p1299958a7b)" d="M 763.191739 639.350385 
L 787.180723 639.350385 
L 787.180723 619.642746 
L 763.191739 619.642746 
z
" style="fill:#1f77b4;opacity:0.35;"/>
   </g>
   <g id="patch_227">
    <path clip-path="url(#p1299958a7b)" d="M 787.180723 639.350385 
L 811.169708 639.350385 
L 811.169708 614.551606 
L 787.180723 614.551606 
z
" style="fill:#1f77b4;opacity:0.35;"/>
   </g>
   <g id="patch_228">
    <path clip-path="url(#p1299958a7b)" d="M 811.169708 639.350385 
L 835.158693 639.350385 
L 835.158693 615.865449 
L 811.169708 615.865449 
z
" style="fill:#1f77b4;opacity:0.35;"/>
   </g>
   <g id="patch_229">
    <path clip-path="url(#p1299958a7b)" d="M 835.158693 639.350385 
L 859.147678 639.350385 
L 859.147678 611.267 
L 835.158693 611.267 
z
" style="fill:#1f77b4;opacity:0.35;"/>
   </g>
   <g id="patch_230">
    <path clip-path="url(#p1299958a7b)" d="M 859.147678 639.350385 
L 883.136662 639.350385 
L 883.136662 607.818163 
L 859.147678 607.818163 
z
" style="fill:#1f77b4;opacity:0.35;"/>
   </g>
   <g id="patch_231">
    <path clip-path="url(#p1299958a7b)" d="M 883.136662 639.350385 
L 907.125647 639.350385 
L 907.125647 595.829349 
L 883.136662 595.829349 
z
" style="fill:#1f77b4;opacity:0.35;"/>
   </g>
   <g id="patch_232">
    <path clip-path="url(#p1299958a7b)" d="M 907.125647 639.350385 
L 931.114632 639.350385 
L 931.114632 587.946294 
L 907.125647 587.946294 
z
" style="fill:#1f77b4;opacity:0.35;"/>
   </g>
   <g id="patch_233">
    <path clip-path="url(#p1299958a7b)" d="M 931.114632 639.350385 
L 955.103617 639.350385 
L 955.103617 383.479542 
L 931.114632 383.479542 
z
" style="fill:#1f77b4;opacity:0.35;"/>
   </g>
   <g id="matplotlib.axis_9">
    <g id="xtick_25">
     <g id="line2d_29">
      <g>
       <use style="fill:#808080;stroke:#808080;" x="535.255881" xlink:href="#mbd4cc3ef6f" y="639.350385"/>
      </g>
     </g>
     <g id="text_45">
      <!-- 0.0 -->
      <g transform="translate(524.123693 656.488197)scale(0.14 -0.14)">
       <use xlink:href="#DejaVuSans-30"/>
       <use x="63.623047" xlink:href="#DejaVuSans-2e"/>
       <use x="95.410156" xlink:href="#DejaVuSans-30"/>
      </g>
     </g>
    </g>
    <g id="xtick_26">
     <g id="line2d_30">
      <g>
       <use style="fill:#808080;stroke:#808080;" x="621.624326" xlink:href="#mbd4cc3ef6f" y="639.350385"/>
      </g>
     </g>
     <g id="text_46">
      <!-- 0.2 -->
      <g transform="translate(610.492139 656.488197)scale(0.14 -0.14)">
       <use xlink:href="#DejaVuSans-30"/>
       <use x="63.623047" xlink:href="#DejaVuSans-2e"/>
       <use x="95.410156" xlink:href="#DejaVuSans-32"/>
      </g>
     </g>
    </g>
    <g id="xtick_27">
     <g id="line2d_31">
      <g>
       <use style="fill:#808080;stroke:#808080;" x="707.992772" xlink:href="#mbd4cc3ef6f" y="639.350385"/>
      </g>
     </g>
     <g id="text_47">
      <!-- 0.4 -->
      <g transform="translate(696.860585 656.488197)scale(0.14 -0.14)">
       <use xlink:href="#DejaVuSans-30"/>
       <use x="63.623047" xlink:href="#DejaVuSans-2e"/>
       <use x="95.410156" xlink:href="#DejaVuSans-34"/>
      </g>
     </g>
    </g>
    <g id="xtick_28">
     <g id="line2d_32">
      <g>
       <use style="fill:#808080;stroke:#808080;" x="794.361218" xlink:href="#mbd4cc3ef6f" y="639.350385"/>
      </g>
     </g>
     <g id="text_48">
      <!-- 0.6 -->
      <g transform="translate(783.22903 656.488197)scale(0.14 -0.14)">
       <use xlink:href="#DejaVuSans-30"/>
       <use x="63.623047" xlink:href="#DejaVuSans-2e"/>
       <use x="95.410156" xlink:href="#DejaVuSans-36"/>
      </g>
     </g>
    </g>
    <g id="xtick_29">
     <g id="line2d_33">
      <g>
       <use style="fill:#808080;stroke:#808080;" x="880.729663" xlink:href="#mbd4cc3ef6f" y="639.350385"/>
      </g>
     </g>
     <g id="text_49">
      <!-- 0.8 -->
      <g transform="translate(869.597476 656.488197)scale(0.14 -0.14)">
       <use xlink:href="#DejaVuSans-30"/>
       <use x="63.623047" xlink:href="#DejaVuSans-2e"/>
       <use x="95.410156" xlink:href="#DejaVuSans-38"/>
      </g>
     </g>
    </g>
    <g id="xtick_30">
     <g id="line2d_34">
      <g>
       <use style="fill:#808080;stroke:#808080;" x="967.098109" xlink:href="#mbd4cc3ef6f" y="639.350385"/>
      </g>
     </g>
     <g id="text_50">
      <!-- 1.0 -->
      <g transform="translate(955.965922 656.488197)scale(0.14 -0.14)">
       <use xlink:href="#DejaVuSans-31"/>
       <use x="63.623047" xlink:href="#DejaVuSans-2e"/>
       <use x="95.410156" xlink:href="#DejaVuSans-30"/>
      </g>
     </g>
    </g>
   </g>
   <g id="matplotlib.axis_10"/>
   <g id="line2d_35">
    <path clip-path="url(#p1299958a7b)" d="M 575.71186 633.977097 
L 967.098109 633.977097 
" style="fill:none;stroke:#000000;stroke-width:3;"/>
   </g>
   <g id="patch_234">
    <path d="M 501.11208 639.350385 
L 989.28792 639.350385 
" style="fill:none;stroke:#808080;stroke-linecap:square;stroke-linejoin:miter;stroke-width:0.8;"/>
   </g>
   <g id="text_51">
    <!-- 0.094  -->
    <g transform="translate(528.002485 620.543878)scale(0.15 -0.15)">
     <use xlink:href="#DejaVuSans-30"/>
     <use x="63.623047" xlink:href="#DejaVuSans-2e"/>
     <use x="95.410156" xlink:href="#DejaVuSans-30"/>
     <use x="159.033203" xlink:href="#DejaVuSans-39"/>
     <use x="222.65625" xlink:href="#DejaVuSans-34"/>
     <use x="286.279297" xlink:href="#DejaVuSans-20"/>
    </g>
   </g>
   <g id="text_52">
    <!--  1 -->
    <g transform="translate(967.098109 620.543878)scale(0.15 -0.15)">
     <use xlink:href="#DejaVuSans-20"/>
     <use x="31.787109" xlink:href="#DejaVuSans-31"/>
    </g>
   </g>
   <g id="text_53">
    <!-- 94% HDI -->
    <g transform="translate(738.723735 558.751069)scale(0.15 -0.15)">
     <use xlink:href="#DejaVuSans-39"/>
     <use x="63.623047" xlink:href="#DejaVuSans-34"/>
     <use x="127.246094" xlink:href="#DejaVuSans-25"/>
     <use x="222.265625" xlink:href="#DejaVuSans-20"/>
     <use x="254.052734" xlink:href="#DejaVuSans-48"/>
     <use x="329.248047" xlink:href="#DejaVuSans-44"/>
     <use x="406.25" xlink:href="#DejaVuSans-49"/>
    </g>
   </g>
   <g id="text_54">
    <!-- mean=0.73 -->
    <g transform="translate(805.063994 424.418877)scale(0.15 -0.15)">
     <use xlink:href="#DejaVuSans-6d"/>
     <use x="97.412109" xlink:href="#DejaVuSans-65"/>
     <use x="158.935547" xlink:href="#DejaVuSans-61"/>
     <use x="220.214844" xlink:href="#DejaVuSans-6e"/>
     <use x="283.59375" xlink:href="#DejaVuSans-3d"/>
     <use x="367.382812" xlink:href="#DejaVuSans-30"/>
     <use x="431.005859" xlink:href="#DejaVuSans-2e"/>
     <use x="462.792969" xlink:href="#DejaVuSans-37"/>
     <use x="526.416016" xlink:href="#DejaVuSans-33"/>
    </g>
   </g>
   <g id="text_55">
    <!-- β -->
    <g transform="translate(740.095 349.201)scale(0.16 -0.16)">
     <use xlink:href="#DejaVuSans-3b2"/>
    </g>
    <!-- 4 -->
    <g transform="translate(740.11 367.1175)scale(0.16 -0.16)">
     <use xlink:href="#DejaVuSans-34"/>
    </g>
   </g>
  </g>
  <g id="axes_6">
   <g id="patch_235">
    <path d="M 999.22392 639.350385 
L 1487.39976 639.350385 
L 1487.39976 370.686 
L 999.22392 370.686 
z
" style="fill:#ffffff;"/>
   </g>
   <g id="patch_236">
    <path clip-path="url(#p68d1719ad2)" d="M 1021.413731 639.350385 
L 1042.055415 639.350385 
L 1042.055415 627.857368 
L 1021.413731 627.857368 
z
" style="fill:#1f77b4;opacity:0.35;"/>
   </g>
   <g id="patch_237">
    <path clip-path="url(#p68d1719ad2)" d="M 1042.055415 639.350385 
L 1062.6971 639.350385 
L 1062.6971 627.252473 
L 1042.055415 627.252473 
z
" style="fill:#1f77b4;opacity:0.35;"/>
   </g>
   <g id="patch_238">
    <path clip-path="url(#p68d1719ad2)" d="M 1062.6971 639.350385 
L 1083.338785 639.350385 
L 1083.338785 630.579399 
L 1062.6971 630.579399 
z
" style="fill:#1f77b4;opacity:0.35;"/>
   </g>
   <g id="patch_239">
    <path clip-path="url(#p68d1719ad2)" d="M 1083.338785 639.350385 
L 1103.980469 639.350385 
L 1103.980469 630.428175 
L 1083.338785 630.428175 
z
" style="fill:#1f77b4;opacity:0.35;"/>
   </g>
   <g id="patch_240">
    <path clip-path="url(#p68d1719ad2)" d="M 1103.980469 639.350385 
L 1124.622154 639.350385 
L 1124.622154 626.798801 
L 1103.980469 626.798801 
z
" style="fill:#1f77b4;opacity:0.35;"/>
   </g>
   <g id="patch_241">
    <path clip-path="url(#p68d1719ad2)" d="M 1124.622154 639.350385 
L 1145.263838 639.350385 
L 1145.263838 628.462264 
L 1124.622154 628.462264 
z
" style="fill:#1f77b4;opacity:0.35;"/>
   </g>
   <g id="patch_242">
    <path clip-path="url(#p68d1719ad2)" d="M 1145.263838 639.350385 
L 1165.905523 639.350385 
L 1165.905523 627.101249 
L 1145.263838 627.101249 
z
" style="fill:#1f77b4;opacity:0.35;"/>
   </g>
   <g id="patch_243">
    <path clip-path="url(#p68d1719ad2)" d="M 1165.905523 639.350385 
L 1186.547207 639.350385 
L 1186.547207 628.008592 
L 1165.905523 628.008592 
z
" style="fill:#1f77b4;opacity:0.35;"/>
   </g>
   <g id="patch_244">
    <path clip-path="url(#p68d1719ad2)" d="M 1186.547207 639.350385 
L 1207.188892 639.350385 
L 1207.188892 628.462264 
L 1186.547207 628.462264 
z
" style="fill:#1f77b4;opacity:0.35;"/>
   </g>
   <g id="patch_245">
    <path clip-path="url(#p68d1719ad2)" d="M 1207.188892 639.350385 
L 1227.830577 639.350385 
L 1227.830577 626.193905 
L 1207.188892 626.193905 
z
" style="fill:#1f77b4;opacity:0.35;"/>
   </g>
   <g id="patch_246">
    <path clip-path="url(#p68d1719ad2)" d="M 1227.830577 639.350385 
L 1248.472261 639.350385 
L 1248.472261 628.008592 
L 1227.830577 628.008592 
z
" style="fill:#1f77b4;opacity:0.35;"/>
   </g>
   <g id="patch_247">
    <path clip-path="url(#p68d1719ad2)" d="M 1248.472261 639.350385 
L 1269.113946 639.350385 
L 1269.113946 623.320651 
L 1248.472261 623.320651 
z
" style="fill:#1f77b4;opacity:0.35;"/>
   </g>
   <g id="patch_248">
    <path clip-path="url(#p68d1719ad2)" d="M 1269.113946 639.350385 
L 1289.75563 639.350385 
L 1289.75563 622.11086 
L 1269.113946 622.11086 
z
" style="fill:#1f77b4;opacity:0.35;"/>
   </g>
   <g id="patch_249">
    <path clip-path="url(#p68d1719ad2)" d="M 1289.75563 639.350385 
L 1310.397315 639.350385 
L 1310.397315 621.203517 
L 1289.75563 621.203517 
z
" style="fill:#1f77b4;opacity:0.35;"/>
   </g>
   <g id="patch_250">
    <path clip-path="url(#p68d1719ad2)" d="M 1310.397315 639.350385 
L 1331.038999 639.350385 
L 1331.038999 622.564532 
L 1310.397315 622.564532 
z
" style="fill:#1f77b4;opacity:0.35;"/>
   </g>
   <g id="patch_251">
    <path clip-path="url(#p68d1719ad2)" d="M 1331.038999 639.350385 
L 1351.680684 639.350385 
L 1351.680684 619.237606 
L 1331.038999 619.237606 
z
" style="fill:#1f77b4;opacity:0.35;"/>
   </g>
   <g id="patch_252">
    <path clip-path="url(#p68d1719ad2)" d="M 1351.680684 639.350385 
L 1372.322369 639.350385 
L 1372.322369 618.481486 
L 1351.680684 618.481486 
z
" style="fill:#1f77b4;opacity:0.35;"/>
   </g>
   <g id="patch_253">
    <path clip-path="url(#p68d1719ad2)" d="M 1372.322369 639.350385 
L 1392.964053 639.350385 
L 1392.964053 611.525187 
L 1372.322369 611.525187 
z
" style="fill:#1f77b4;opacity:0.35;"/>
   </g>
   <g id="patch_254">
    <path clip-path="url(#p68d1719ad2)" d="M 1392.964053 639.350385 
L 1413.605738 639.350385 
L 1413.605738 606.081126 
L 1392.964053 606.081126 
z
" style="fill:#1f77b4;opacity:0.35;"/>
   </g>
   <g id="patch_255">
    <path clip-path="url(#p68d1719ad2)" d="M 1413.605738 639.350385 
L 1434.247422 639.350385 
L 1434.247422 584.304885 
L 1413.605738 584.304885 
z
" style="fill:#1f77b4;opacity:0.35;"/>
   </g>
   <g id="patch_256">
    <path clip-path="url(#p68d1719ad2)" d="M 1434.247422 639.350385 
L 1454.889107 639.350385 
L 1454.889107 383.479542 
L 1434.247422 383.479542 
z
" style="fill:#1f77b4;opacity:0.35;"/>
   </g>
   <g id="matplotlib.axis_11">
    <g id="xtick_31">
     <g id="line2d_36">
      <g>
       <use style="fill:#808080;stroke:#808080;" x="1031.44755" xlink:href="#mbd4cc3ef6f" y="639.350385"/>
      </g>
     </g>
     <g id="text_56">
      <!-- 0.0 -->
      <g transform="translate(1020.315362 656.488197)scale(0.14 -0.14)">
       <use xlink:href="#DejaVuSans-30"/>
       <use x="63.623047" xlink:href="#DejaVuSans-2e"/>
       <use x="95.410156" xlink:href="#DejaVuSans-30"/>
      </g>
     </g>
    </g>
    <g id="xtick_32">
     <g id="line2d_37">
      <g>
       <use style="fill:#808080;stroke:#808080;" x="1118.20003" xlink:href="#mbd4cc3ef6f" y="639.350385"/>
      </g>
     </g>
     <g id="text_57">
      <!-- 0.2 -->
      <g transform="translate(1107.067842 656.488197)scale(0.14 -0.14)">
       <use xlink:href="#DejaVuSans-30"/>
       <use x="63.623047" xlink:href="#DejaVuSans-2e"/>
       <use x="95.410156" xlink:href="#DejaVuSans-32"/>
      </g>
     </g>
    </g>
    <g id="xtick_33">
     <g id="line2d_38">
      <g>
       <use style="fill:#808080;stroke:#808080;" x="1204.95251" xlink:href="#mbd4cc3ef6f" y="639.350385"/>
      </g>
     </g>
     <g id="text_58">
      <!-- 0.4 -->
      <g transform="translate(1193.820322 656.488197)scale(0.14 -0.14)">
       <use xlink:href="#DejaVuSans-30"/>
       <use x="63.623047" xlink:href="#DejaVuSans-2e"/>
       <use x="95.410156" xlink:href="#DejaVuSans-34"/>
      </g>
     </g>
    </g>
    <g id="xtick_34">
     <g id="line2d_39">
      <g>
       <use style="fill:#808080;stroke:#808080;" x="1291.704989" xlink:href="#mbd4cc3ef6f" y="639.350385"/>
      </g>
     </g>
     <g id="text_59">
      <!-- 0.6 -->
      <g transform="translate(1280.572802 656.488197)scale(0.14 -0.14)">
       <use xlink:href="#DejaVuSans-30"/>
       <use x="63.623047" xlink:href="#DejaVuSans-2e"/>
       <use x="95.410156" xlink:href="#DejaVuSans-36"/>
      </g>
     </g>
    </g>
    <g id="xtick_35">
     <g id="line2d_40">
      <g>
       <use style="fill:#808080;stroke:#808080;" x="1378.457469" xlink:href="#mbd4cc3ef6f" y="639.350385"/>
      </g>
     </g>
     <g id="text_60">
      <!-- 0.8 -->
      <g transform="translate(1367.325282 656.488197)scale(0.14 -0.14)">
       <use xlink:href="#DejaVuSans-30"/>
       <use x="63.623047" xlink:href="#DejaVuSans-2e"/>
       <use x="95.410156" xlink:href="#DejaVuSans-38"/>
      </g>
     </g>
    </g>
    <g id="xtick_36">
     <g id="line2d_41">
      <g>
       <use style="fill:#808080;stroke:#808080;" x="1465.209949" xlink:href="#mbd4cc3ef6f" y="639.350385"/>
      </g>
     </g>
     <g id="text_61">
      <!-- 1.0 -->
      <g transform="translate(1454.077762 656.488197)scale(0.14 -0.14)">
       <use xlink:href="#DejaVuSans-31"/>
       <use x="63.623047" xlink:href="#DejaVuSans-2e"/>
       <use x="95.410156" xlink:href="#DejaVuSans-30"/>
      </g>
     </g>
    </g>
   </g>
   <g id="matplotlib.axis_12"/>
   <g id="line2d_42">
    <path clip-path="url(#p68d1719ad2)" d="M 1103.20326 633.977097 
L 1465.209949 633.977097 
" style="fill:none;stroke:#000000;stroke-width:3;"/>
   </g>
   <g id="patch_257">
    <path d="M 999.22392 639.350385 
L 1487.39976 639.350385 
" style="fill:none;stroke:#808080;stroke-linecap:square;stroke-linejoin:miter;stroke-width:0.8;"/>
   </g>
   <g id="text_62">
    <!-- 0.17  -->
    <g transform="translate(1065.037635 620.543878)scale(0.15 -0.15)">
     <use xlink:href="#DejaVuSans-30"/>
     <use x="63.623047" xlink:href="#DejaVuSans-2e"/>
     <use x="95.410156" xlink:href="#DejaVuSans-31"/>
     <use x="159.033203" xlink:href="#DejaVuSans-37"/>
     <use x="222.65625" xlink:href="#DejaVuSans-20"/>
    </g>
   </g>
   <g id="text_63">
    <!--  1 -->
    <g transform="translate(1465.209949 620.543878)scale(0.15 -0.15)">
     <use xlink:href="#DejaVuSans-20"/>
     <use x="31.787109" xlink:href="#DejaVuSans-31"/>
    </g>
   </g>
   <g id="text_64">
    <!-- 94% HDI -->
    <g transform="translate(1251.525354 558.751069)scale(0.15 -0.15)">
     <use xlink:href="#DejaVuSans-39"/>
     <use x="63.623047" xlink:href="#DejaVuSans-34"/>
     <use x="127.246094" xlink:href="#DejaVuSans-25"/>
     <use x="222.265625" xlink:href="#DejaVuSans-20"/>
     <use x="254.052734" xlink:href="#DejaVuSans-48"/>
     <use x="329.248047" xlink:href="#DejaVuSans-44"/>
     <use x="406.25" xlink:href="#DejaVuSans-49"/>
    </g>
   </g>
   <g id="text_65">
    <!-- mean=0.77 -->
    <g transform="translate(1319.820085 424.418877)scale(0.15 -0.15)">
     <use xlink:href="#DejaVuSans-6d"/>
     <use x="97.412109" xlink:href="#DejaVuSans-65"/>
     <use x="158.935547" xlink:href="#DejaVuSans-61"/>
     <use x="220.214844" xlink:href="#DejaVuSans-6e"/>
     <use x="283.59375" xlink:href="#DejaVuSans-3d"/>
     <use x="367.382812" xlink:href="#DejaVuSans-30"/>
     <use x="431.005859" xlink:href="#DejaVuSans-2e"/>
     <use x="462.792969" xlink:href="#DejaVuSans-37"/>
     <use x="526.416016" xlink:href="#DejaVuSans-37"/>
    </g>
   </g>
   <g id="text_66">
    <!-- β -->
    <g transform="translate(1238.20684 349.201)scale(0.16 -0.16)">
     <use xlink:href="#DejaVuSans-3b2"/>
    </g>
    <!-- 5 -->
    <g transform="translate(1238.22184 367.1175)scale(0.16 -0.16)">
     <use xlink:href="#DejaVuSans-35"/>
    </g>
   </g>
  </g>
 </g>
 <defs>
  <clipPath id="p6400da9dcb">
   <rect height="268.664385" width="488.17584" x="3.00024" y="39.17424"/>
  </clipPath>
  <clipPath id="pdb8cb14bde">
   <rect height="268.664385" width="488.17584" x="501.11208" y="39.17424"/>
  </clipPath>
  <clipPath id="paeec748661">
   <rect height="268.664385" width="488.17584" x="999.22392" y="39.17424"/>
  </clipPath>
  <clipPath id="p49a5d6433e">
   <rect height="268.664385" width="488.17584" x="3.00024" y="370.686"/>
  </clipPath>
  <clipPath id="p1299958a7b">
   <rect height="268.664385" width="488.17584" x="501.11208" y="370.686"/>
  </clipPath>
  <clipPath id="p68d1719ad2">
   <rect height="268.664385" width="488.17584" x="999.22392" y="370.686"/>
  </clipPath>
 </defs>
</svg>
