<?xml version="1.0" encoding="UTF-8" standalone="no"?>
<!DOCTYPE svg PUBLIC "-//W3C//DTD SVG 1.1//EN"
 "http://www.w3.org/Graphics/SVG/1.1/DTD/svg11.dtd">
<!-- Generated by graphviz version 2.49.2 (20211016.1639)
 -->
<!-- Pages: 1 -->
<svg width="488pt" height="444pt"
 viewBox="0.00 0.00 488.40 443.86" xmlns="http://www.w3.org/2000/svg" xmlns:xlink="http://www.w3.org/1999/xlink">
<g id="graph0" class="graph" transform="scale(1 1) rotate(0) translate(4 439.86)">
<polygon fill="white" stroke="transparent" points="-4,4 -4,-439.86 484.4,-439.86 484.4,4 -4,4"/>
<g id="clust1" class="cluster">
<title>cluster30</title>
<path fill="none" stroke="black" d="M33.4,-129.95C33.4,-129.95 460.4,-129.95 460.4,-129.95 466.4,-129.95 472.4,-135.95 472.4,-141.95 472.4,-141.95 472.4,-320.91 472.4,-320.91 472.4,-326.91 466.4,-332.91 460.4,-332.91 460.4,-332.91 33.4,-332.91 33.4,-332.91 27.4,-332.91 21.4,-326.91 21.4,-320.91 21.4,-320.91 21.4,-141.95 21.4,-141.95 21.4,-135.95 27.4,-129.95 33.4,-129.95"/>
<text text-anchor="middle" x="457.4" y="-137.75" font-family="Times,serif" font-size="14.00">  </text>
</g>
<g id="clust2" class="cluster">
<title>cluster1,389</title>
<path fill="none" stroke="black" d="M194.4,-8C194.4,-8 274.4,-8 274.4,-8 280.4,-8 286.4,-14 286.4,-20 286.4,-20 286.4,-109.95 286.4,-109.95 286.4,-115.95 280.4,-121.95 274.4,-121.95 274.4,-121.95 194.4,-121.95 194.4,-121.95 188.4,-121.95 182.4,-115.95 182.4,-109.95 182.4,-109.95 182.4,-20 182.4,-20 182.4,-14 188.4,-8 194.4,-8"/>
<text text-anchor="middle" x="262.4" y="-15.8" font-family="Times,serif" font-size="14.00">     </text>
</g>
<!-- α -->
<g id="node1" class="node">
<title>α</title>
<ellipse fill="none" stroke="black" cx="59.4" cy="-398.38" rx="59.29" ry="37.45"/>
<text text-anchor="middle" x="59.4" y="-409.68" font-family="Times,serif" font-size="14.00">α</text>
<text text-anchor="middle" x="59.4" y="-394.68" font-family="Times,serif" font-size="14.00">~</text>
<text text-anchor="middle" x="59.4" y="-379.68" font-family="Times,serif" font-size="14.00">Exponential</text>
</g>
<!-- β -->
<g id="node3" class="node">
<title>β</title>
<ellipse fill="none" stroke="black" cx="59.4" cy="-287.43" rx="29.9" ry="37.45"/>
<text text-anchor="middle" x="59.4" y="-298.73" font-family="Times,serif" font-size="14.00">β</text>
<text text-anchor="middle" x="59.4" y="-283.73" font-family="Times,serif" font-size="14.00">~</text>
<text text-anchor="middle" x="59.4" y="-268.73" font-family="Times,serif" font-size="14.00">Beta</text>
</g>
<!-- α&#45;&gt;β -->
<g id="edge1" class="edge">
<title>α&#45;&gt;β</title>
<path fill="none" stroke="black" d="M59.4,-360.8C59.4,-352.63 59.4,-343.85 59.4,-335.32"/>
<polygon fill="black" stroke="black" points="62.9,-335.1 59.4,-325.1 55.9,-335.1 62.9,-335.1"/>
</g>
<!-- ν -->
<g id="node2" class="node">
<title>ν</title>
<ellipse fill="none" stroke="black" cx="166.4" cy="-287.43" rx="59.29" ry="37.45"/>
<text text-anchor="middle" x="166.4" y="-298.73" font-family="Times,serif" font-size="14.00">ν</text>
<text text-anchor="middle" x="166.4" y="-283.73" font-family="Times,serif" font-size="14.00">~</text>
<text text-anchor="middle" x="166.4" y="-268.73" font-family="Times,serif" font-size="14.00">Exponential</text>
</g>
<!-- obs -->
<g id="node7" class="node">
<title>obs</title>
<ellipse fill="lightgrey" stroke="black" cx="234.4" cy="-76.48" rx="43.68" ry="37.45"/>
<text text-anchor="middle" x="234.4" y="-87.78" font-family="Times,serif" font-size="14.00">obs</text>
<text text-anchor="middle" x="234.4" y="-72.78" font-family="Times,serif" font-size="14.00">~</text>
<text text-anchor="middle" x="234.4" y="-57.78" font-family="Times,serif" font-size="14.00">Mixture</text>
</g>
<!-- ν&#45;&gt;obs -->
<g id="edge3" class="edge">
<title>ν&#45;&gt;obs</title>
<path fill="none" stroke="black" d="M178.09,-250.51C189.59,-215.16 207.19,-161.07 219.65,-122.79"/>
<polygon fill="black" stroke="black" points="223.09,-123.52 222.86,-112.93 216.44,-121.35 223.09,-123.52"/>
</g>
<!-- w -->
<g id="node6" class="node">
<title>w</title>
<polygon fill="none" stroke="black" points="155.9,-213.95 62.9,-213.95 62.9,-160.95 155.9,-160.95 155.9,-213.95"/>
<text text-anchor="middle" x="109.4" y="-198.75" font-family="Times,serif" font-size="14.00">w</text>
<text text-anchor="middle" x="109.4" y="-183.75" font-family="Times,serif" font-size="14.00">~</text>
<text text-anchor="middle" x="109.4" y="-168.75" font-family="Times,serif" font-size="14.00">Deterministic</text>
</g>
<!-- β&#45;&gt;w -->
<g id="edge2" class="edge">
<title>β&#45;&gt;w</title>
<path fill="none" stroke="black" d="M75.22,-255.43C80.48,-245.11 86.38,-233.55 91.78,-222.98"/>
<polygon fill="black" stroke="black" points="94.93,-224.5 96.36,-214 88.69,-221.32 94.93,-224.5"/>
</g>
<!-- σ -->
<g id="node4" class="node">
<title>σ</title>
<ellipse fill="none" stroke="black" cx="303.4" cy="-287.43" rx="59.29" ry="37.45"/>
<text text-anchor="middle" x="303.4" y="-298.73" font-family="Times,serif" font-size="14.00">σ</text>
<text text-anchor="middle" x="303.4" y="-283.73" font-family="Times,serif" font-size="14.00">~</text>
<text text-anchor="middle" x="303.4" y="-268.73" font-family="Times,serif" font-size="14.00">HalfNormal</text>
</g>
<!-- σ&#45;&gt;obs -->
<g id="edge4" class="edge">
<title>σ&#45;&gt;obs</title>
<path fill="none" stroke="black" d="M291.54,-250.51C279.86,-215.16 262,-161.07 249.36,-122.79"/>
<polygon fill="black" stroke="black" points="252.56,-121.33 246.1,-112.93 245.92,-123.52 252.56,-121.33"/>
</g>
<!-- μ -->
<g id="node5" class="node">
<title>μ</title>
<ellipse fill="none" stroke="black" cx="422.4" cy="-287.43" rx="41.94" ry="37.45"/>
<text text-anchor="middle" x="422.4" y="-298.73" font-family="Times,serif" font-size="14.00">μ</text>
<text text-anchor="middle" x="422.4" y="-283.73" font-family="Times,serif" font-size="14.00">~</text>
<text text-anchor="middle" x="422.4" y="-268.73" font-family="Times,serif" font-size="14.00">Normal</text>
</g>
<!-- μ&#45;&gt;obs -->
<g id="edge6" class="edge">
<title>μ&#45;&gt;obs</title>
<path fill="none" stroke="black" d="M396.65,-257.81C363.11,-220.54 304.42,-155.31 267.58,-114.36"/>
<polygon fill="black" stroke="black" points="270.03,-111.85 260.74,-106.76 264.83,-116.53 270.03,-111.85"/>
</g>
<!-- w&#45;&gt;obs -->
<g id="edge5" class="edge">
<title>w&#45;&gt;obs</title>
<path fill="none" stroke="black" d="M138.7,-160.9C155.88,-145.93 177.76,-126.85 196.27,-110.72"/>
<polygon fill="black" stroke="black" points="198.73,-113.21 203.97,-104 194.13,-107.94 198.73,-113.21"/>
</g>
</g>
</svg>
