<svg width="632" height="426" xmlns="http://www.w3.org/2000/svg" xmlns:xlink="http://www.w3.org/1999/xlink" xml:space="preserve" overflow="hidden"><g transform="translate(-2012 -751)"><g><text fill="#000000" fill-opacity="1" font-family="Cambria Math,Cambria Math_MSFontService,sans-serif" font-style="normal" font-variant="normal" font-weight="400" font-stretch="normal" font-size="83" text-anchor="start" direction="ltr" writing-mode="lr-tb" unicode-bidi="normal" text-decoration="none" transform="matrix(1 0 0 1 2044.07 1149)">𝑋</text><text fill="#000000" fill-opacity="1" font-family="Cambria Math,Cambria Math_MSFontService,sans-serif" font-style="normal" font-variant="normal" font-weight="400" font-stretch="normal" font-size="83" text-anchor="start" direction="ltr" writing-mode="lr-tb" unicode-bidi="normal" text-decoration="none" transform="matrix(1 0 0 1 2563.37 1149)">𝑌</text><text fill="#000000" fill-opacity="1" font-family="Cambria Math,Cambria Math_MSFontService,sans-serif" font-style="normal" font-variant="normal" font-weight="400" font-stretch="normal" font-size="83" text-anchor="start" direction="ltr" writing-mode="lr-tb" unicode-bidi="normal" text-decoration="none" transform="matrix(1 0 0 1 2279.42 832)">𝑍</text><path d="M2.34399-2.51438 205.206 186.601 200.518 191.629-2.34399 2.51438ZM208.886 175.932 233.035 217.243 190.134 196.047Z" fill="#000000" fill-rule="nonzero" fill-opacity="1" transform="matrix(-1 0 0 1 2305.53 855.5)"/><path d="M2108.5 1119.06 2513.94 1119.06 2513.94 1125.94 2108.5 1125.94ZM2509.35 1108.75 2555.19 1122.5 2509.35 1136.25Z" fill="#000000" fill-rule="nonzero" fill-opacity="1"/><path d="M2307.59 852.768 2559.33 1044.98 2555.16 1050.44 2303.41 858.232ZM2561.95 1034 2590.03 1072.74 2545.26 1055.86Z" fill="#000000" fill-rule="nonzero" fill-opacity="1"/></g></g></svg>