<?xml version="1.0" encoding="utf-8" standalone="no"?>
<!DOCTYPE svg PUBLIC "-//W3C//DTD SVG 1.1//EN"
  "http://www.w3.org/Graphics/SVG/1.1/DTD/svg11.dtd">
<svg xmlns:xlink="http://www.w3.org/1999/xlink" width="460.8pt" height="345.6pt" viewBox="0 0 460.8 345.6" xmlns="http://www.w3.org/2000/svg" version="1.1">
 <metadata>
  <rdf:RDF xmlns:dc="http://purl.org/dc/elements/1.1/" xmlns:cc="http://creativecommons.org/ns#" xmlns:rdf="http://www.w3.org/1999/02/22-rdf-syntax-ns#">
   <cc:Work>
    <dc:type rdf:resource="http://purl.org/dc/dcmitype/StillImage"/>
    <dc:date>2023-05-31T11:28:31.914169</dc:date>
    <dc:format>image/svg+xml</dc:format>
    <dc:creator>
     <cc:Agent>
      <dc:title>Matplotlib v3.5.2, https://matplotlib.org/</dc:title>
     </cc:Agent>
    </dc:creator>
   </cc:Work>
  </rdf:RDF>
 </metadata>
 <defs>
  <style type="text/css">*{stroke-linejoin: round; stroke-linecap: butt}</style>
 </defs>
 <g id="figure_1">
  <g id="patch_1">
   <path d="M 0 345.6 
L 460.8 345.6 
L 460.8 0 
L 0 0 
z
" style="fill: #ffffff"/>
  </g>
  <g id="axes_1">
   <g id="patch_2">
    <path d="M 57.6 307.584 
L 414.72 307.584 
L 414.72 41.472 
L 57.6 41.472 
z
" style="fill: #ffffff"/>
   </g>
   <g id="PathCollection_1">
    <defs>
     <path id="m685941c3b2" d="M 0 3.354102 
C 0.889518 3.354102 1.742724 3.000693 2.371708 2.371708 
C 3.000693 1.742724 3.354102 0.889518 3.354102 0 
C 3.354102 -0.889518 3.000693 -1.742724 2.371708 -2.371708 
C 1.742724 -3.000693 0.889518 -3.354102 0 -3.354102 
C -0.889518 -3.354102 -1.742724 -3.000693 -2.371708 -2.371708 
C -3.000693 -1.742724 -3.354102 -0.889518 -3.354102 0 
C -3.354102 0.889518 -3.000693 1.742724 -2.371708 2.371708 
C -1.742724 3.000693 -0.889518 3.354102 0 3.354102 
z
" style="stroke: #000000"/>
    </defs>
    <g clip-path="url(#pd2d1ee1862)">
     <use xlink:href="#m685941c3b2" x="238.597346" y="244.911959" style="stroke: #000000"/>
     <use xlink:href="#m685941c3b2" x="339.665979" y="87.485533" style="stroke: #000000"/>
     <use xlink:href="#m685941c3b2" x="220.723473" y="241.127561" style="stroke: #000000"/>
     <use xlink:href="#m685941c3b2" x="193.425192" y="209.031923" style="stroke: #000000"/>
     <use xlink:href="#m685941c3b2" x="152.477772" y="164.928636" style="stroke: #000000"/>
     <use xlink:href="#m685941c3b2" x="375.738706" y="170.377887" style="stroke: #000000"/>
    </g>
   </g>
   <g id="PolyCollection_1">
    <defs>
     <path id="mb8522002e3" d="M 73.832727 -286.263772 
L 73.832727 -50.112 
L 74.157707 -50.408744 
L 74.482686 -50.709395 
L 74.807666 -51.013979 
L 75.132645 -51.322523 
L 75.457625 -51.635055 
L 75.782604 -51.9516 
L 76.107584 -52.272186 
L 76.432563 -52.596836 
L 76.757543 -52.925576 
L 77.082523 -53.258431 
L 77.407502 -53.595424 
L 77.732482 -53.93658 
L 78.057461 -54.28192 
L 78.382441 -54.631469 
L 78.70742 -54.985248 
L 79.0324 -55.343277 
L 79.357379 -55.705579 
L 79.682359 -56.072173 
L 80.007338 -56.443079 
L 80.332318 -56.818316 
L 80.657297 -57.197902 
L 80.982277 -57.581855 
L 81.307256 -57.970193 
L 81.632236 -58.362931 
L 81.957215 -58.760085 
L 82.282195 -59.161671 
L 82.607174 -59.567702 
L 82.932154 -59.978192 
L 83.257133 -60.393153 
L 83.582113 -60.812599 
L 83.907093 -61.236539 
L 84.232072 -61.664984 
L 84.557052 -62.097943 
L 84.882031 -62.535426 
L 85.207011 -62.977441 
L 85.53199 -63.423993 
L 85.85697 -63.875089 
L 86.181949 -64.330735 
L 86.506929 -64.790935 
L 86.831908 -65.255691 
L 87.156888 -65.725007 
L 87.481867 -66.198884 
L 87.806847 -66.677321 
L 88.131826 -67.16032 
L 88.456806 -67.647878 
L 88.781785 -68.139992 
L 89.106765 -68.63666 
L 89.431744 -69.137876 
L 89.756724 -69.643635 
L 90.081704 -70.15393 
L 90.406683 -70.668754 
L 90.731663 -71.188097 
L 91.056642 -71.71195 
L 91.381622 -72.240302 
L 91.706601 -72.773139 
L 92.031581 -73.31045 
L 92.35656 -73.852219 
L 92.68154 -74.398431 
L 93.006519 -74.949069 
L 93.331499 -75.504115 
L 93.656478 -76.06355 
L 93.981458 -76.627354 
L 94.306437 -77.195504 
L 94.631417 -77.767979 
L 94.956396 -78.344753 
L 95.281376 -78.925803 
L 95.606355 -79.511101 
L 95.931335 -80.100619 
L 96.256314 -80.694329 
L 96.581294 -81.292201 
L 96.906274 -81.894203 
L 97.231253 -82.500301 
L 97.556233 -83.110463 
L 97.881212 -83.724652 
L 98.206192 -84.342832 
L 98.531171 -84.964966 
L 98.856151 -85.591013 
L 99.18113 -86.220933 
L 99.50611 -86.854685 
L 99.831089 -87.492225 
L 100.156069 -88.133509 
L 100.481048 -88.778491 
L 100.806028 -89.427124 
L 101.131007 -90.07936 
L 101.455987 -90.735148 
L 101.780966 -91.394438 
L 102.105946 -92.057177 
L 102.430925 -92.723311 
L 102.755905 -93.392787 
L 103.080885 -94.065547 
L 103.405864 -94.741533 
L 103.730844 -95.420687 
L 104.055823 -96.102949 
L 104.380803 -96.788256 
L 104.705782 -97.476547 
L 105.030762 -98.167757 
L 105.355741 -98.86182 
L 105.680721 -99.55867 
L 106.0057 -100.258239 
L 106.33068 -100.960457 
L 106.655659 -101.665254 
L 106.980639 -102.372559 
L 107.305618 -103.082298 
L 107.630598 -103.794397 
L 107.955577 -104.50878 
L 108.280557 -105.225371 
L 108.605536 -105.944092 
L 108.930516 -106.664863 
L 109.255495 -107.387605 
L 109.580475 -108.112236 
L 109.905455 -108.838673 
L 110.230434 -109.566832 
L 110.555414 -110.296628 
L 110.880393 -111.027976 
L 111.205373 -111.760788 
L 111.530352 -112.494975 
L 111.855332 -113.23045 
L 112.180311 -113.96712 
L 112.505291 -114.704894 
L 112.83027 -115.443681 
L 113.15525 -116.183386 
L 113.480229 -116.923915 
L 113.805209 -117.665172 
L 114.130188 -118.407061 
L 114.455168 -119.149485 
L 114.780147 -119.892345 
L 115.105127 -120.635541 
L 115.430106 -121.378975 
L 115.755086 -122.122544 
L 116.080066 -122.866148 
L 116.405045 -123.609683 
L 116.730025 -124.353046 
L 117.055004 -125.096132 
L 117.379984 -125.838838 
L 117.704963 -126.581057 
L 118.029943 -127.322683 
L 118.354922 -128.063608 
L 118.679902 -128.803726 
L 119.004881 -129.542928 
L 119.329861 -130.281105 
L 119.65484 -131.018147 
L 119.97982 -131.753946 
L 120.304799 -132.488389 
L 120.629779 -133.221367 
L 120.954758 -133.952767 
L 121.279738 -134.682478 
L 121.604717 -135.410388 
L 121.929697 -136.136384 
L 122.254676 -136.860353 
L 122.579656 -137.582181 
L 122.904636 -138.301756 
L 123.229615 -139.018963 
L 123.554595 -139.733689 
L 123.879574 -140.445819 
L 124.204554 -141.155238 
L 124.529533 -141.861833 
L 124.854513 -142.565489 
L 125.179492 -143.26609 
L 125.504472 -143.963523 
L 125.829451 -144.657673 
L 126.154431 -145.348425 
L 126.47941 -146.035665 
L 126.80439 -146.719278 
L 127.129369 -147.399149 
L 127.454349 -148.075166 
L 127.779328 -148.747213 
L 128.104308 -149.415177 
L 128.429287 -150.078945 
L 128.754267 -150.738404 
L 129.079247 -151.39344 
L 129.404226 -152.043943 
L 129.729206 -152.689798 
L 130.054185 -153.330896 
L 130.379165 -153.967125 
L 130.704144 -154.598374 
L 131.029124 -155.224534 
L 131.354103 -155.845495 
L 131.679083 -156.461149 
L 132.004062 -157.071387 
L 132.329042 -157.676103 
L 132.654021 -158.275188 
L 132.979001 -158.868538 
L 133.30398 -159.456048 
L 133.62896 -160.037612 
L 133.953939 -160.613129 
L 134.278919 -161.182494 
L 134.603898 -161.745607 
L 134.928878 -162.302367 
L 135.253857 -162.852675 
L 135.578837 -163.396431 
L 135.903817 -163.933539 
L 136.228796 -164.463902 
L 136.553776 -164.987424 
L 136.878755 -165.504013 
L 137.203735 -166.013573 
L 137.528714 -166.516015 
L 137.853694 -167.011248 
L 138.178673 -167.499183 
L 138.503653 -167.979731 
L 138.828632 -168.452807 
L 139.153612 -168.918325 
L 139.478591 -169.376202 
L 139.803571 -169.826356 
L 140.12855 -170.268706 
L 140.45353 -170.703174 
L 140.778509 -171.12968 
L 141.103489 -171.54815 
L 141.428468 -171.958509 
L 141.753448 -172.360684 
L 142.078428 -172.754605 
L 142.403407 -173.140201 
L 142.728387 -173.517404 
L 143.053366 -173.88615 
L 143.378346 -174.246373 
L 143.703325 -174.598011 
L 144.028305 -174.941003 
L 144.353284 -175.275291 
L 144.678264 -175.600818 
L 145.003243 -175.917528 
L 145.328223 -176.225368 
L 145.653202 -176.524287 
L 145.978182 -176.814236 
L 146.303161 -177.095167 
L 146.628141 -177.367035 
L 146.95312 -177.629796 
L 147.2781 -177.883409 
L 147.603079 -178.127834 
L 147.928059 -178.363035 
L 148.253038 -178.588975 
L 148.578018 -178.805623 
L 148.902998 -179.012946 
L 149.227977 -179.210917 
L 149.552957 -179.399507 
L 149.877936 -179.578692 
L 150.202916 -179.748451 
L 150.527895 -179.908762 
L 150.852875 -180.059607 
L 151.177854 -180.20097 
L 151.502834 -180.332838 
L 151.827813 -180.455199 
L 152.152793 -180.568043 
L 152.477772 -180.67136 
L 152.802752 -180.217929 
L 153.127731 -179.767637 
L 153.452711 -179.320486 
L 153.77769 -178.87647 
L 154.10267 -178.435582 
L 154.427649 -177.997813 
L 154.752629 -177.563153 
L 155.077609 -177.131592 
L 155.402588 -176.703116 
L 155.727568 -176.277712 
L 156.052547 -175.855364 
L 156.377527 -175.436055 
L 156.702506 -175.019767 
L 157.027486 -174.606481 
L 157.352465 -174.196175 
L 157.677445 -173.788826 
L 158.002424 -173.384412 
L 158.327404 -172.982908 
L 158.652383 -172.584286 
L 158.977363 -172.188519 
L 159.302342 -171.795578 
L 159.627322 -171.405433 
L 159.952301 -171.018053 
L 160.277281 -170.633405 
L 160.60226 -170.251454 
L 160.92724 -169.872166 
L 161.252219 -169.495503 
L 161.577199 -169.12143 
L 161.902179 -168.749906 
L 162.227158 -168.380893 
L 162.552138 -168.014348 
L 162.877117 -167.650231 
L 163.202097 -167.288497 
L 163.527076 -166.929104 
L 163.852056 -166.572005 
L 164.177035 -166.217155 
L 164.502015 -165.864506 
L 164.826994 -165.514011 
L 165.151974 -165.16562 
L 165.476953 -164.819283 
L 165.801933 -164.474951 
L 166.126912 -164.132571 
L 166.451892 -163.792091 
L 166.776871 -163.453458 
L 167.101851 -163.116618 
L 167.42683 -162.781517 
L 167.75181 -162.448099 
L 168.07679 -162.116308 
L 168.401769 -161.786088 
L 168.726749 -161.457383 
L 169.051728 -161.130133 
L 169.376708 -160.804281 
L 169.701687 -160.479769 
L 170.026667 -160.156537 
L 170.351646 -159.834526 
L 170.676626 -159.513676 
L 171.001605 -159.193927 
L 171.326585 -158.875218 
L 171.651564 -158.557488 
L 171.976544 -158.240677 
L 172.301523 -157.924724 
L 172.626503 -157.609566 
L 172.951482 -157.295142 
L 173.276462 -156.981392 
L 173.601441 -156.668252 
L 173.926421 -156.355663 
L 174.2514 -156.043561 
L 174.57638 -155.731886 
L 174.90136 -155.420575 
L 175.226339 -155.109569 
L 175.551319 -154.798806 
L 175.876298 -154.488224 
L 176.201278 -154.177764 
L 176.526257 -153.867364 
L 176.851237 -153.556966 
L 177.176216 -153.24651 
L 177.501196 -152.935935 
L 177.826175 -152.625185 
L 178.151155 -152.314201 
L 178.476134 -152.002924 
L 178.801114 -151.691299 
L 179.126093 -151.379268 
L 179.451073 -151.066776 
L 179.776052 -150.753768 
L 180.101032 -150.44019 
L 180.426011 -150.125988 
L 180.750991 -149.811109 
L 181.075971 -149.495502 
L 181.40095 -149.179115 
L 181.72593 -148.861899 
L 182.050909 -148.543805 
L 182.375889 -148.224784 
L 182.700868 -147.90479 
L 183.025848 -147.583777 
L 183.350827 -147.261699 
L 183.675807 -146.938513 
L 184.000786 -146.614178 
L 184.325766 -146.288651 
L 184.650745 -145.961893 
L 184.975725 -145.633864 
L 185.300704 -145.304529 
L 185.625684 -144.97385 
L 185.950663 -144.641793 
L 186.275643 -144.308325 
L 186.600622 -143.973415 
L 186.925602 -143.637032 
L 187.250581 -143.299148 
L 187.575561 -142.959735 
L 187.900541 -142.618767 
L 188.22552 -142.276222 
L 188.5505 -141.932077 
L 188.875479 -141.586311 
L 189.200459 -141.238905 
L 189.525438 -140.889843 
L 189.850418 -140.539108 
L 190.175397 -140.186688 
L 190.500377 -139.832569 
L 190.825356 -139.476743 
L 191.150336 -139.119201 
L 191.475315 -138.759937 
L 191.800295 -138.398947 
L 192.125274 -138.036227 
L 192.450254 -137.671778 
L 192.775233 -137.305601 
L 193.100213 -136.937698 
L 193.425192 -136.568069 
L 193.750172 -136.032137 
L 194.075152 -135.498106 
L 194.400131 -134.966082 
L 194.725111 -134.43616 
L 195.05009 -133.908435 
L 195.37507 -133.383 
L 195.700049 -132.859946 
L 196.025029 -132.339364 
L 196.350008 -131.821342 
L 196.674988 -131.305967 
L 196.999967 -130.793326 
L 197.324947 -130.283503 
L 197.649926 -129.776579 
L 197.974906 -129.272637 
L 198.299885 -128.771755 
L 198.624865 -128.274012 
L 198.949844 -127.779485 
L 199.274824 -127.288247 
L 199.599803 -126.800372 
L 199.924783 -126.315932 
L 200.249762 -125.834996 
L 200.574742 -125.357633 
L 200.899722 -124.88391 
L 201.224701 -124.41389 
L 201.549681 -123.947639 
L 201.87466 -123.485216 
L 202.19964 -123.026683 
L 202.524619 -122.572096 
L 202.849599 -122.121514 
L 203.174578 -121.674991 
L 203.499558 -121.232579 
L 203.824537 -120.794332 
L 204.149517 -120.360297 
L 204.474496 -119.930524 
L 204.799476 -119.505059 
L 205.124455 -119.083946 
L 205.449435 -118.66723 
L 205.774414 -118.25495 
L 206.099394 -117.847148 
L 206.424373 -117.443861 
L 206.749353 -117.045125 
L 207.074333 -116.650976 
L 207.399312 -116.261446 
L 207.724292 -115.876567 
L 208.049271 -115.496369 
L 208.374251 -115.120881 
L 208.69923 -114.750128 
L 209.02421 -114.384137 
L 209.349189 -114.02293 
L 209.674169 -113.66653 
L 209.999148 -113.314958 
L 210.324128 -112.968231 
L 210.649107 -112.626368 
L 210.974087 -112.289385 
L 211.299066 -111.957295 
L 211.624046 -111.630113 
L 211.949025 -111.307849 
L 212.274005 -110.990514 
L 212.598984 -110.678116 
L 212.923964 -110.370663 
L 213.248943 -110.068161 
L 213.573923 -109.770614 
L 213.898903 -109.478027 
L 214.223882 -109.1904 
L 214.548862 -108.907735 
L 214.873841 -108.630031 
L 215.198821 -108.357286 
L 215.5238 -108.089499 
L 215.84878 -107.826664 
L 216.173759 -107.568776 
L 216.498739 -107.31583 
L 216.823718 -107.067817 
L 217.148698 -106.82473 
L 217.473677 -106.586558 
L 217.798657 -106.353292 
L 218.123636 -106.12492 
L 218.448616 -105.901429 
L 218.773595 -105.682806 
L 219.098575 -105.469037 
L 219.423554 -105.260106 
L 219.748534 -105.055998 
L 220.073514 -104.856696 
L 220.398493 -104.662183 
L 220.723473 -104.472439 
L 221.048452 -104.18736 
L 221.373432 -103.908015 
L 221.698411 -103.634541 
L 222.023391 -103.367074 
L 222.34837 -103.105753 
L 222.67335 -102.850712 
L 222.998329 -102.602088 
L 223.323309 -102.360017 
L 223.648288 -102.124634 
L 223.973268 -101.896075 
L 224.298247 -101.674474 
L 224.623227 -101.459965 
L 224.948206 -101.252683 
L 225.273186 -101.052759 
L 225.598165 -100.860327 
L 225.923145 -100.675519 
L 226.248124 -100.498464 
L 226.573104 -100.329294 
L 226.898084 -100.168137 
L 227.223063 -100.015122 
L 227.548043 -99.870376 
L 227.873022 -99.734025 
L 228.198002 -99.606195 
L 228.522981 -99.487009 
L 228.847961 -99.376591 
L 229.17294 -99.275062 
L 229.49792 -99.182543 
L 229.822899 -99.099152 
L 230.147879 -99.025008 
L 230.472858 -98.960225 
L 230.797838 -98.90492 
L 231.122817 -98.859205 
L 231.447797 -98.823192 
L 231.772776 -98.79699 
L 232.097756 -98.780709 
L 232.422735 -98.774453 
L 232.747715 -98.778329 
L 233.072695 -98.792439 
L 233.397674 -98.816884 
L 233.722654 -98.851763 
L 234.047633 -98.897173 
L 234.372613 -98.95321 
L 234.697592 -99.019966 
L 235.022572 -99.097532 
L 235.347551 -99.185998 
L 235.672531 -99.285449 
L 235.99751 -99.395971 
L 236.32249 -99.517645 
L 236.647469 -99.650551 
L 236.972449 -99.794768 
L 237.297428 -99.950369 
L 237.622408 -100.117428 
L 237.947387 -100.296015 
L 238.272367 -100.486197 
L 238.597346 -100.688041 
L 238.922326 -100.727384 
L 239.247305 -100.770217 
L 239.572285 -100.816528 
L 239.897265 -100.866309 
L 240.222244 -100.919548 
L 240.547224 -100.976238 
L 240.872203 -101.036371 
L 241.197183 -101.099939 
L 241.522162 -101.166937 
L 241.847142 -101.237359 
L 242.172121 -101.311201 
L 242.497101 -101.388459 
L 242.82208 -101.469131 
L 243.14706 -101.553216 
L 243.472039 -101.640712 
L 243.797019 -101.731619 
L 244.121998 -101.825939 
L 244.446978 -101.923673 
L 244.771957 -102.024825 
L 245.096937 -102.129397 
L 245.421916 -102.237396 
L 245.746896 -102.348826 
L 246.071876 -102.463693 
L 246.396855 -102.582006 
L 246.721835 -102.703773 
L 247.046814 -102.829002 
L 247.371794 -102.957705 
L 247.696773 -103.089892 
L 248.021753 -103.225575 
L 248.346732 -103.364766 
L 248.671712 -103.507481 
L 248.996691 -103.653732 
L 249.321671 -103.803537 
L 249.64665 -103.95691 
L 249.97163 -104.11387 
L 250.296609 -104.274434 
L 250.621589 -104.438621 
L 250.946568 -104.606451 
L 251.271548 -104.777944 
L 251.596527 -104.953121 
L 251.921507 -105.132005 
L 252.246486 -105.314618 
L 252.571466 -105.500984 
L 252.896446 -105.691126 
L 253.221425 -105.885071 
L 253.546405 -106.082843 
L 253.871384 -106.284469 
L 254.196364 -106.489976 
L 254.521343 -106.699392 
L 254.846323 -106.912744 
L 255.171302 -107.130062 
L 255.496282 -107.351375 
L 255.821261 -107.576713 
L 256.146241 -107.806106 
L 256.47122 -108.039586 
L 256.7962 -108.277184 
L 257.121179 -108.518932 
L 257.446159 -108.764863 
L 257.771138 -109.015008 
L 258.096118 -109.269402 
L 258.421097 -109.528079 
L 258.746077 -109.791071 
L 259.071057 -110.058413 
L 259.396036 -110.330141 
L 259.721016 -110.606287 
L 260.045995 -110.886889 
L 260.370975 -111.17198 
L 260.695954 -111.461596 
L 261.020934 -111.755773 
L 261.345913 -112.054546 
L 261.670893 -112.357951 
L 261.995872 -112.666024 
L 262.320852 -112.9788 
L 262.645831 -113.296316 
L 262.970811 -113.618608 
L 263.29579 -113.94571 
L 263.62077 -114.277658 
L 263.945749 -114.614489 
L 264.270729 -114.956237 
L 264.595708 -115.302937 
L 264.920688 -115.654625 
L 265.245667 -116.011334 
L 265.570647 -116.3731 
L 265.895627 -116.739956 
L 266.220606 -117.111937 
L 266.545586 -117.489074 
L 266.870565 -117.871401 
L 267.195545 -118.258951 
L 267.520524 -118.651756 
L 267.845504 -119.049846 
L 268.170483 -119.453253 
L 268.495463 -119.862007 
L 268.820442 -120.276138 
L 269.145422 -120.695674 
L 269.470401 -121.120644 
L 269.795381 -121.551075 
L 270.12036 -121.986996 
L 270.44534 -122.42843 
L 270.770319 -122.875404 
L 271.095299 -123.327943 
L 271.420278 -123.786069 
L 271.745258 -124.249805 
L 272.070238 -124.719174 
L 272.395217 -125.194195 
L 272.720197 -125.674889 
L 273.045176 -126.161274 
L 273.370156 -126.653368 
L 273.695135 -127.151187 
L 274.020115 -127.654747 
L 274.345094 -128.164062 
L 274.670074 -128.679146 
L 274.995053 -129.200009 
L 275.320033 -129.726663 
L 275.645012 -130.259117 
L 275.969992 -130.797379 
L 276.294971 -131.341456 
L 276.619951 -131.891353 
L 276.94493 -132.447075 
L 277.26991 -133.008623 
L 277.594889 -133.576 
L 277.919869 -134.149204 
L 278.244848 -134.728235 
L 278.569828 -135.313088 
L 278.894808 -135.903759 
L 279.219787 -136.500242 
L 279.544767 -137.102529 
L 279.869746 -137.71061 
L 280.194726 -138.324475 
L 280.519705 -138.94411 
L 280.844685 -139.569501 
L 281.169664 -140.200632 
L 281.494644 -140.837486 
L 281.819623 -141.480042 
L 282.144603 -142.128279 
L 282.469582 -142.782176 
L 282.794562 -143.441706 
L 283.119541 -144.106843 
L 283.444521 -144.777559 
L 283.7695 -145.453824 
L 284.09448 -146.135606 
L 284.419459 -146.822871 
L 284.744439 -147.515583 
L 285.069419 -148.213705 
L 285.394398 -148.917197 
L 285.719378 -149.626018 
L 286.044357 -150.340125 
L 286.369337 -151.059473 
L 286.694316 -151.784014 
L 287.019296 -152.5137 
L 287.344275 -153.24848 
L 287.669255 -153.9883 
L 287.994234 -154.733107 
L 288.319214 -155.482844 
L 288.644193 -156.237451 
L 288.969173 -156.996868 
L 289.294152 -157.761033 
L 289.619132 -158.529881 
L 289.944111 -159.303345 
L 290.269091 -160.081358 
L 290.59407 -160.863848 
L 290.91905 -161.650743 
L 291.244029 -162.441969 
L 291.569009 -163.237449 
L 291.893989 -164.037106 
L 292.218968 -164.840859 
L 292.543948 -165.648626 
L 292.868927 -166.460323 
L 293.193907 -167.275864 
L 293.518886 -168.095161 
L 293.843866 -168.918123 
L 294.168845 -169.744661 
L 294.493825 -170.574679 
L 294.818804 -171.408082 
L 295.143784 -172.244774 
L 295.468763 -173.084654 
L 295.793743 -173.927622 
L 296.118722 -174.773575 
L 296.443702 -175.622407 
L 296.768681 -176.474014 
L 297.093661 -177.328285 
L 297.41864 -178.185112 
L 297.74362 -179.044382 
L 298.0686 -179.905983 
L 298.393579 -180.769797 
L 298.718559 -181.63571 
L 299.043538 -182.503602 
L 299.368518 -183.373352 
L 299.693497 -184.24484 
L 300.018477 -185.117941 
L 300.343456 -185.99253 
L 300.668436 -186.868482 
L 300.993415 -187.745667 
L 301.318395 -188.623956 
L 301.643374 -189.503218 
L 301.968354 -190.38332 
L 302.293333 -191.264128 
L 302.618313 -192.145508 
L 302.943292 -193.027321 
L 303.268272 -193.909431 
L 303.593251 -194.791697 
L 303.918231 -195.673979 
L 304.24321 -196.556135 
L 304.56819 -197.438021 
L 304.89317 -198.319494 
L 305.218149 -199.200408 
L 305.543129 -200.080616 
L 305.868108 -200.959971 
L 306.193088 -201.838324 
L 306.518067 -202.715524 
L 306.843047 -203.591422 
L 307.168026 -204.465866 
L 307.493006 -205.338702 
L 307.817985 -206.209778 
L 308.142965 -207.07894 
L 308.467944 -207.946031 
L 308.792924 -208.810897 
L 309.117903 -209.673381 
L 309.442883 -210.533325 
L 309.767862 -211.390572 
L 310.092842 -212.244963 
L 310.417821 -213.09634 
L 310.742801 -213.944542 
L 311.067781 -214.789409 
L 311.39276 -215.630782 
L 311.71774 -216.468499 
L 312.042719 -217.302399 
L 312.367699 -218.132321 
L 312.692678 -218.958102 
L 313.017658 -219.779581 
L 313.342637 -220.596596 
L 313.667617 -221.408984 
L 313.992596 -222.216583 
L 314.317576 -223.019229 
L 314.642555 -223.816762 
L 314.967535 -224.609018 
L 315.292514 -225.395835 
L 315.617494 -226.17705 
L 315.942473 -226.952502 
L 316.267453 -227.722029 
L 316.592432 -228.485469 
L 316.917412 -229.24266 
L 317.242391 -229.993442 
L 317.567371 -230.737654 
L 317.892351 -231.475136 
L 318.21733 -232.205728 
L 318.54231 -232.929271 
L 318.867289 -233.645606 
L 319.192269 -234.354576 
L 319.517248 -235.056022 
L 319.842228 -235.749789 
L 320.167207 -236.43572 
L 320.492187 -237.113661 
L 320.817166 -237.783456 
L 321.142146 -238.444953 
L 321.467125 -239.097999 
L 321.792105 -239.742442 
L 322.117084 -240.378132 
L 322.442064 -241.004919 
L 322.767043 -241.622655 
L 323.092023 -242.231193 
L 323.417002 -242.830386 
L 323.741982 -243.42009 
L 324.066962 -244.000161 
L 324.391941 -244.570457 
L 324.716921 -245.130836 
L 325.0419 -245.681159 
L 325.36688 -246.221288 
L 325.691859 -246.751085 
L 326.016839 -247.270417 
L 326.341818 -247.779149 
L 326.666798 -248.277149 
L 326.991777 -248.764286 
L 327.316757 -249.240433 
L 327.641736 -249.70546 
L 327.966716 -250.159244 
L 328.291695 -250.601661 
L 328.616675 -251.032588 
L 328.941654 -251.451907 
L 329.266634 -251.859498 
L 329.591613 -252.255245 
L 329.916593 -252.639035 
L 330.241572 -253.010755 
L 330.566552 -253.370295 
L 330.891532 -253.717546 
L 331.216511 -254.052403 
L 331.541491 -254.374762 
L 331.86647 -254.684521 
L 332.19145 -254.98158 
L 332.516429 -255.265842 
L 332.841409 -255.537211 
L 333.166388 -255.795595 
L 333.491368 -256.040903 
L 333.816347 -256.273047 
L 334.141327 -256.491941 
L 334.466306 -256.697501 
L 334.791286 -256.889646 
L 335.116265 -257.068298 
L 335.441245 -257.233379 
L 335.766224 -257.384817 
L 336.091204 -257.52254 
L 336.416183 -257.646479 
L 336.741163 -257.756567 
L 337.066143 -257.852742 
L 337.391122 -257.934942 
L 337.716102 -258.003109 
L 338.041081 -258.057187 
L 338.366061 -258.097122 
L 338.69104 -258.122864 
L 339.01602 -258.134365 
L 339.340999 -258.131581 
L 339.665979 -258.114464 
L 339.990958 -257.302456 
L 340.315938 -256.485188 
L 340.640917 -255.66285 
L 340.965897 -254.835631 
L 341.290876 -254.003719 
L 341.615856 -253.167303 
L 341.940835 -252.326573 
L 342.265815 -251.481718 
L 342.590794 -250.632929 
L 342.915774 -249.780397 
L 343.240753 -248.924311 
L 343.565733 -248.064862 
L 343.890713 -247.202242 
L 344.215692 -246.336642 
L 344.540672 -245.468251 
L 344.865651 -244.597262 
L 345.190631 -243.723865 
L 345.51561 -242.84825 
L 345.84059 -241.97061 
L 346.165569 -241.091133 
L 346.490549 -240.21001 
L 346.815528 -239.327432 
L 347.140508 -238.443587 
L 347.465487 -237.558665 
L 347.790467 -236.672855 
L 348.115446 -235.786345 
L 348.440426 -234.899323 
L 348.765405 -234.011977 
L 349.090385 -233.124492 
L 349.415364 -232.237056 
L 349.740344 -231.349853 
L 350.065324 -230.463068 
L 350.390303 -229.576886 
L 350.715283 -228.69149 
L 351.040262 -227.807062 
L 351.365242 -226.923783 
L 351.690221 -226.041834 
L 352.015201 -225.161396 
L 352.34018 -224.282646 
L 352.66516 -223.405762 
L 352.990139 -222.53092 
L 353.315119 -221.658297 
L 353.640098 -220.788067 
L 353.965078 -219.920403 
L 354.290057 -219.055476 
L 354.615037 -218.193458 
L 354.940016 -217.334518 
L 355.264996 -216.478824 
L 355.589975 -215.626542 
L 355.914955 -214.777839 
L 356.239934 -213.932878 
L 356.564914 -213.091822 
L 356.889894 -212.254831 
L 357.214873 -211.422066 
L 357.539853 -210.593683 
L 357.864832 -209.76984 
L 358.189812 -208.950692 
L 358.514791 -208.13639 
L 358.839771 -207.327087 
L 359.16475 -206.522932 
L 359.48973 -205.724074 
L 359.814709 -204.930658 
L 360.139689 -204.142829 
L 360.464668 -203.360729 
L 360.789648 -202.5845 
L 361.114627 -201.81428 
L 361.439607 -201.050206 
L 361.764586 -200.292413 
L 362.089566 -199.541034 
L 362.414545 -198.7962 
L 362.739525 -198.058042 
L 363.064505 -197.326684 
L 363.389484 -196.602254 
L 363.714464 -195.884874 
L 364.039443 -195.174664 
L 364.364423 -194.471744 
L 364.689402 -193.776231 
L 365.014382 -193.088238 
L 365.339361 -192.407879 
L 365.664341 -191.735264 
L 365.98932 -191.070502 
L 366.3143 -190.413697 
L 366.639279 -189.764953 
L 366.964259 -189.124373 
L 367.289238 -188.492055 
L 367.614218 -187.868096 
L 367.939197 -187.252591 
L 368.264177 -186.645633 
L 368.589156 -186.047311 
L 368.914136 -185.457714 
L 369.239115 -184.876926 
L 369.564095 -184.305031 
L 369.889075 -183.742111 
L 370.214054 -183.188242 
L 370.539034 -182.643502 
L 370.864013 -182.107965 
L 371.188993 -181.581701 
L 371.513972 -181.06478 
L 371.838952 -180.557269 
L 372.163931 -180.059231 
L 372.488911 -179.570729 
L 372.81389 -179.091823 
L 373.13887 -178.62257 
L 373.463849 -178.163023 
L 373.788829 -177.713237 
L 374.113808 -177.273261 
L 374.438788 -176.843142 
L 374.763767 -176.422926 
L 375.088747 -176.012656 
L 375.413726 -175.612372 
L 375.738706 -175.222113 
L 376.063686 -173.960764 
L 376.388665 -172.695952 
L 376.713645 -171.427855 
L 377.038624 -170.156651 
L 377.363604 -168.88252 
L 377.688583 -167.60564 
L 378.013563 -166.326188 
L 378.338542 -165.044344 
L 378.663522 -163.760284 
L 378.988501 -162.474187 
L 379.313481 -161.18623 
L 379.63846 -159.89659 
L 379.96344 -158.605443 
L 380.288419 -157.312966 
L 380.613399 -156.019334 
L 380.938378 -154.724723 
L 381.263358 -153.429307 
L 381.588337 -152.133261 
L 381.913317 -150.836757 
L 382.238296 -149.539969 
L 382.563276 -148.243068 
L 382.888256 -146.946226 
L 383.213235 -145.649614 
L 383.538215 -144.353401 
L 383.863194 -143.057757 
L 384.188174 -141.762848 
L 384.513153 -140.468843 
L 384.838133 -139.175908 
L 385.163112 -137.884207 
L 385.488092 -136.593906 
L 385.813071 -135.305166 
L 386.138051 -134.01815 
L 386.46303 -132.73302 
L 386.78801 -131.449934 
L 387.112989 -130.169051 
L 387.437969 -128.890528 
L 387.762948 -127.614522 
L 388.087928 -126.341187 
L 388.412907 -125.070677 
L 388.737887 -123.803144 
L 389.062867 -122.538739 
L 389.387846 -121.27761 
L 389.712826 -120.019907 
L 390.037805 -118.765774 
L 390.362785 -117.515358 
L 390.687764 -116.268802 
L 391.012744 -115.026248 
L 391.337723 -113.787835 
L 391.662703 -112.553704 
L 391.987682 -111.32399 
L 392.312662 -110.09883 
L 392.637641 -108.878358 
L 392.962621 -107.662705 
L 393.2876 -106.452002 
L 393.61258 -105.246378 
L 393.937559 -104.04596 
L 394.262539 -102.850873 
L 394.587518 -101.661241 
L 394.912498 -100.477185 
L 395.237477 -99.298826 
L 395.562457 -98.126281 
L 395.887437 -96.959666 
L 396.212416 -95.799096 
L 396.537396 -94.644683 
L 396.862375 -93.496538 
L 397.187355 -92.354769 
L 397.512334 -91.219483 
L 397.837314 -90.090784 
L 398.162293 -88.968776 
L 398.487273 -87.853559 
L 398.487273 -172.68225 
L 398.487273 -172.68225 
L 398.162293 -172.404463 
L 397.837314 -172.134286 
L 397.512334 -171.871809 
L 397.187355 -171.617116 
L 396.862375 -171.370295 
L 396.537396 -171.131431 
L 396.212416 -170.900606 
L 395.887437 -170.677905 
L 395.562457 -170.463408 
L 395.237477 -170.257197 
L 394.912498 -170.059351 
L 394.587518 -169.869948 
L 394.262539 -169.689066 
L 393.937559 -169.516779 
L 393.61258 -169.353164 
L 393.2876 -169.198293 
L 392.962621 -169.052238 
L 392.637641 -168.91507 
L 392.312662 -168.786859 
L 391.987682 -168.667671 
L 391.662703 -168.557574 
L 391.337723 -168.456633 
L 391.012744 -168.364911 
L 390.687764 -168.28247 
L 390.362785 -168.20937 
L 390.037805 -168.145671 
L 389.712826 -168.09143 
L 389.387846 -168.046702 
L 389.062867 -168.011541 
L 388.737887 -167.986 
L 388.412907 -167.97013 
L 388.087928 -167.963979 
L 387.762948 -167.967595 
L 387.437969 -167.981022 
L 387.112989 -168.004305 
L 386.78801 -168.037486 
L 386.46303 -168.080604 
L 386.138051 -168.133697 
L 385.813071 -168.196801 
L 385.488092 -168.269952 
L 385.163112 -168.353181 
L 384.838133 -168.446518 
L 384.513153 -168.549992 
L 384.188174 -168.66363 
L 383.863194 -168.787456 
L 383.538215 -168.921491 
L 383.213235 -169.065757 
L 382.888256 -169.220272 
L 382.563276 -169.385052 
L 382.238296 -169.56011 
L 381.913317 -169.74546 
L 381.588337 -169.94111 
L 381.263358 -170.147068 
L 380.938378 -170.36334 
L 380.613399 -170.589928 
L 380.288419 -170.826834 
L 379.96344 -171.074057 
L 379.63846 -171.331594 
L 379.313481 -171.599438 
L 378.988501 -171.877581 
L 378.663522 -172.166014 
L 378.338542 -172.464724 
L 378.013563 -172.773696 
L 377.688583 -173.092913 
L 377.363604 -173.422355 
L 377.038624 -173.762002 
L 376.713645 -174.111829 
L 376.388665 -174.471809 
L 376.063686 -174.841914 
L 375.738706 -175.222113 
L 375.413726 -176.47982 
L 375.088747 -177.733706 
L 374.763767 -178.983594 
L 374.438788 -180.229304 
L 374.113808 -181.47066 
L 373.788829 -182.707482 
L 373.463849 -183.939594 
L 373.13887 -185.166819 
L 372.81389 -186.388979 
L 372.488911 -187.605899 
L 372.163931 -188.817402 
L 371.838952 -190.023313 
L 371.513972 -191.223457 
L 371.188993 -192.417661 
L 370.864013 -193.605749 
L 370.539034 -194.78755 
L 370.214054 -195.962892 
L 369.889075 -197.131601 
L 369.564095 -198.293509 
L 369.239115 -199.448445 
L 368.914136 -200.59624 
L 368.589156 -201.736726 
L 368.264177 -202.869736 
L 367.939197 -203.995105 
L 367.614218 -205.112667 
L 367.289238 -206.222258 
L 366.964259 -207.323715 
L 366.639279 -208.416878 
L 366.3143 -209.501585 
L 365.98932 -210.577678 
L 365.664341 -211.645 
L 365.339361 -212.703392 
L 365.014382 -213.752702 
L 364.689402 -214.792774 
L 364.364423 -215.823457 
L 364.039443 -216.8446 
L 363.714464 -217.856055 
L 363.389484 -218.857673 
L 363.064505 -219.84931 
L 362.739525 -220.830819 
L 362.414545 -221.80206 
L 362.089566 -222.762892 
L 361.764586 -223.713174 
L 361.439607 -224.652771 
L 361.114627 -225.581547 
L 360.789648 -226.499368 
L 360.464668 -227.406102 
L 360.139689 -228.301621 
L 359.814709 -229.185796 
L 359.48973 -230.058501 
L 359.16475 -230.919614 
L 358.839771 -231.769013 
L 358.514791 -232.606578 
L 358.189812 -233.432191 
L 357.864832 -234.245739 
L 357.539853 -235.047107 
L 357.214873 -235.836186 
L 356.889894 -236.612867 
L 356.564914 -237.377043 
L 356.239934 -238.128611 
L 355.914955 -238.86747 
L 355.589975 -239.593519 
L 355.264996 -240.306664 
L 354.940016 -241.006809 
L 354.615037 -241.693862 
L 354.290057 -242.367734 
L 353.965078 -243.028338 
L 353.640098 -243.675591 
L 353.315119 -244.309409 
L 352.990139 -244.929713 
L 352.66516 -245.536428 
L 352.34018 -246.129479 
L 352.015201 -246.708794 
L 351.690221 -247.274304 
L 351.365242 -247.825943 
L 351.040262 -248.363648 
L 350.715283 -248.887358 
L 350.390303 -249.397015 
L 350.065324 -249.892563 
L 349.740344 -250.373949 
L 349.415364 -250.841124 
L 349.090385 -251.294039 
L 348.765405 -251.732652 
L 348.440426 -252.15692 
L 348.115446 -252.566803 
L 347.790467 -252.962267 
L 347.465487 -253.343277 
L 347.140508 -253.709804 
L 346.815528 -254.061818 
L 346.490549 -254.399297 
L 346.165569 -254.722217 
L 345.84059 -255.030559 
L 345.51561 -255.324307 
L 345.190631 -255.603448 
L 344.865651 -255.86797 
L 344.540672 -256.117865 
L 344.215692 -256.35313 
L 343.890713 -256.573761 
L 343.565733 -256.779759 
L 343.240753 -256.971128 
L 342.915774 -257.147874 
L 342.590794 -257.310006 
L 342.265815 -257.457535 
L 341.940835 -257.590478 
L 341.615856 -257.708851 
L 341.290876 -257.812675 
L 340.965897 -257.901973 
L 340.640917 -257.976771 
L 340.315938 -258.037098 
L 339.990958 -258.082985 
L 339.665979 -258.114471 
L 339.340999 -258.921033 
L 339.01602 -259.721969 
L 338.69104 -260.517087 
L 338.366061 -261.306203 
L 338.041081 -262.089133 
L 337.716102 -262.865692 
L 337.391122 -263.635699 
L 337.066143 -264.398971 
L 336.741163 -265.155327 
L 336.416183 -265.904587 
L 336.091204 -266.646573 
L 335.766224 -267.381105 
L 335.441245 -268.108008 
L 335.116265 -268.827105 
L 334.791286 -269.538223 
L 334.466306 -270.241187 
L 334.141327 -270.935825 
L 333.816347 -271.621968 
L 333.491368 -272.299445 
L 333.166388 -272.968088 
L 332.841409 -273.627732 
L 332.516429 -274.27821 
L 332.19145 -274.91936 
L 331.86647 -275.551018 
L 331.541491 -276.173026 
L 331.216511 -276.785224 
L 330.891532 -277.387454 
L 330.566552 -277.979563 
L 330.241572 -278.561395 
L 329.916593 -279.1328 
L 329.591613 -279.693627 
L 329.266634 -280.243728 
L 328.941654 -280.782957 
L 328.616675 -281.31117 
L 328.291695 -281.828224 
L 327.966716 -282.333979 
L 327.641736 -282.828298 
L 327.316757 -283.311043 
L 326.991777 -283.782082 
L 326.666798 -284.241282 
L 326.341818 -284.688514 
L 326.016839 -285.12365 
L 325.691859 -285.546565 
L 325.36688 -285.957137 
L 325.0419 -286.355244 
L 324.716921 -286.74077 
L 324.391941 -287.113598 
L 324.066962 -287.473614 
L 323.741982 -287.820709 
L 323.417002 -288.154774 
L 323.092023 -288.475702 
L 322.767043 -288.783391 
L 322.442064 -289.07774 
L 322.117084 -289.358651 
L 321.792105 -289.626028 
L 321.467125 -289.879779 
L 321.142146 -290.119812 
L 320.817166 -290.346041 
L 320.492187 -290.558382 
L 320.167207 -290.756751 
L 319.842228 -290.94107 
L 319.517248 -291.111262 
L 319.192269 -291.267254 
L 318.867289 -291.408974 
L 318.54231 -291.536355 
L 318.21733 -291.649332 
L 317.892351 -291.747843 
L 317.567371 -291.831828 
L 317.242391 -291.901231 
L 316.917412 -291.955999 
L 316.592432 -291.996081 
L 316.267453 -292.021429 
L 315.942473 -292.032 
L 315.617494 -292.027752 
L 315.292514 -292.008646 
L 314.967535 -291.974647 
L 314.642555 -291.925723 
L 314.317576 -291.861845 
L 313.992596 -291.782986 
L 313.667617 -291.689123 
L 313.342637 -291.580236 
L 313.017658 -291.456309 
L 312.692678 -291.317327 
L 312.367699 -291.16328 
L 312.042719 -290.99416 
L 311.71774 -290.809963 
L 311.39276 -290.610687 
L 311.067781 -290.396335 
L 310.742801 -290.166911 
L 310.417821 -289.922423 
L 310.092842 -289.662883 
L 309.767862 -289.388305 
L 309.442883 -289.098707 
L 309.117903 -288.794109 
L 308.792924 -288.474535 
L 308.467944 -288.140012 
L 308.142965 -287.79057 
L 307.817985 -287.426244 
L 307.493006 -287.047068 
L 307.168026 -286.653082 
L 306.843047 -286.24433 
L 306.518067 -285.820856 
L 306.193088 -285.382711 
L 305.868108 -284.929945 
L 305.543129 -284.462614 
L 305.218149 -283.980777 
L 304.89317 -283.484493 
L 304.56819 -282.973828 
L 304.24321 -282.44885 
L 303.918231 -281.909627 
L 303.593251 -281.356235 
L 303.268272 -280.788748 
L 302.943292 -280.207248 
L 302.618313 -279.611816 
L 302.293333 -279.002537 
L 301.968354 -278.3795 
L 301.643374 -277.742796 
L 301.318395 -277.09252 
L 300.993415 -276.428768 
L 300.668436 -275.75164 
L 300.343456 -275.06124 
L 300.018477 -274.357673 
L 299.693497 -273.641047 
L 299.368518 -272.911473 
L 299.043538 -272.169066 
L 298.718559 -271.413943 
L 298.393579 -270.646222 
L 298.0686 -269.866026 
L 297.74362 -269.073481 
L 297.41864 -268.268712 
L 297.093661 -267.451851 
L 296.768681 -266.62303 
L 296.443702 -265.782384 
L 296.118722 -264.930051 
L 295.793743 -264.066171 
L 295.468763 -263.190887 
L 295.143784 -262.304344 
L 294.818804 -261.406689 
L 294.493825 -260.498073 
L 294.168845 -259.578647 
L 293.843866 -258.648567 
L 293.518886 -257.707988 
L 293.193907 -256.75707 
L 292.868927 -255.795973 
L 292.543948 -254.824862 
L 292.218968 -253.843902 
L 291.893989 -252.85326 
L 291.569009 -251.853106 
L 291.244029 -250.843611 
L 290.91905 -249.824949 
L 290.59407 -248.797296 
L 290.269091 -247.760827 
L 289.944111 -246.715724 
L 289.619132 -245.662166 
L 289.294152 -244.600337 
L 288.969173 -243.530421 
L 288.644193 -242.452603 
L 288.319214 -241.367072 
L 287.994234 -240.274017 
L 287.669255 -239.173628 
L 287.344275 -238.066099 
L 287.019296 -236.951622 
L 286.694316 -235.830393 
L 286.369337 -234.702609 
L 286.044357 -233.568467 
L 285.719378 -232.428166 
L 285.394398 -231.281906 
L 285.069419 -230.129889 
L 284.744439 -228.972318 
L 284.419459 -227.809396 
L 284.09448 -226.641328 
L 283.7695 -225.468319 
L 283.444521 -224.290576 
L 283.119541 -223.108306 
L 282.794562 -221.921717 
L 282.469582 -220.731018 
L 282.144603 -219.53642 
L 281.819623 -218.338131 
L 281.494644 -217.136364 
L 281.169664 -215.93133 
L 280.844685 -214.72324 
L 280.519705 -213.512307 
L 280.194726 -212.298744 
L 279.869746 -211.082765 
L 279.544767 -209.864582 
L 279.219787 -208.644409 
L 278.894808 -207.422461 
L 278.569828 -206.198951 
L 278.244848 -204.974093 
L 277.919869 -203.748103 
L 277.594889 -202.521193 
L 277.26991 -201.293578 
L 276.94493 -200.065472 
L 276.619951 -198.837089 
L 276.294971 -197.608643 
L 275.969992 -196.380345 
L 275.645012 -195.152411 
L 275.320033 -193.925051 
L 274.995053 -192.698478 
L 274.670074 -191.472904 
L 274.345094 -190.24854 
L 274.020115 -189.025596 
L 273.695135 -187.804282 
L 273.370156 -186.584806 
L 273.045176 -185.367378 
L 272.720197 -184.152205 
L 272.395217 -182.939492 
L 272.070238 -181.729447 
L 271.745258 -180.522274 
L 271.420278 -179.318176 
L 271.095299 -178.117355 
L 270.770319 -176.920015 
L 270.44534 -175.726354 
L 270.12036 -174.536572 
L 269.795381 -173.350866 
L 269.470401 -172.169433 
L 269.145422 -170.992469 
L 268.820442 -169.820167 
L 268.495463 -168.652718 
L 268.170483 -167.490315 
L 267.845504 -166.333145 
L 267.520524 -165.181396 
L 267.195545 -164.035254 
L 266.870565 -162.894904 
L 266.545586 -161.760527 
L 266.220606 -160.632304 
L 265.895627 -159.510414 
L 265.570647 -158.395034 
L 265.245667 -157.286338 
L 264.920688 -156.184499 
L 264.595708 -155.089689 
L 264.270729 -154.002075 
L 263.945749 -152.921825 
L 263.62077 -151.849104 
L 263.29579 -150.784073 
L 262.970811 -149.726892 
L 262.645831 -148.67772 
L 262.320852 -147.636712 
L 261.995872 -146.604021 
L 261.670893 -145.579799 
L 261.345913 -144.564193 
L 261.020934 -143.557349 
L 260.695954 -142.559411 
L 260.370975 -141.57052 
L 260.045995 -140.590814 
L 259.721016 -139.620429 
L 259.396036 -138.659499 
L 259.071057 -137.708153 
L 258.746077 -136.76652 
L 258.421097 -135.834724 
L 258.096118 -134.912889 
L 257.771138 -134.001133 
L 257.446159 -133.099574 
L 257.121179 -132.208326 
L 256.7962 -131.327499 
L 256.47122 -130.457203 
L 256.146241 -129.597542 
L 255.821261 -128.748619 
L 255.496282 -127.910534 
L 255.171302 -127.083383 
L 254.846323 -126.26726 
L 254.521343 -125.462255 
L 254.196364 -124.668457 
L 253.871384 -123.885949 
L 253.546405 -123.114814 
L 253.221425 -122.35513 
L 252.896446 -121.606973 
L 252.571466 -120.870414 
L 252.246486 -120.145523 
L 251.921507 -119.432367 
L 251.596527 -118.731007 
L 251.271548 -118.041505 
L 250.946568 -117.363917 
L 250.621589 -116.698297 
L 250.296609 -116.044695 
L 249.97163 -115.403158 
L 249.64665 -114.773732 
L 249.321671 -114.156456 
L 248.996691 -113.551369 
L 248.671712 -112.958506 
L 248.346732 -112.377898 
L 248.021753 -111.809573 
L 247.696773 -111.253558 
L 247.371794 -110.709874 
L 247.046814 -110.17854 
L 246.721835 -109.659572 
L 246.396855 -109.152983 
L 246.071876 -108.658783 
L 245.746896 -108.176978 
L 245.421916 -107.707571 
L 245.096937 -107.250563 
L 244.771957 -106.805951 
L 244.446978 -106.37373 
L 244.121998 -105.953891 
L 243.797019 -105.546421 
L 243.472039 -105.151305 
L 243.14706 -104.768527 
L 242.82208 -104.398065 
L 242.497101 -104.039895 
L 242.172121 -103.693991 
L 241.847142 -103.360323 
L 241.522162 -103.038858 
L 241.197183 -102.72956 
L 240.872203 -102.432393 
L 240.547224 -102.147313 
L 240.222244 -101.874278 
L 239.897265 -101.613241 
L 239.572285 -101.364152 
L 239.247305 -101.12696 
L 238.922326 -100.901608 
L 238.597346 -100.688041 
L 238.272367 -100.6522 
L 237.947387 -100.619874 
L 237.622408 -100.591076 
L 237.297428 -100.56582 
L 236.972449 -100.544121 
L 236.647469 -100.525995 
L 236.32249 -100.511458 
L 235.99751 -100.500528 
L 235.672531 -100.493221 
L 235.347551 -100.489557 
L 235.022572 -100.489553 
L 234.697592 -100.493231 
L 234.372613 -100.500609 
L 234.047633 -100.511709 
L 233.722654 -100.526552 
L 233.397674 -100.545159 
L 233.072695 -100.567553 
L 232.747715 -100.593757 
L 232.422735 -100.623793 
L 232.097756 -100.657686 
L 231.772776 -100.695459 
L 231.447797 -100.737137 
L 231.122817 -100.782745 
L 230.797838 -100.832307 
L 230.472858 -100.885849 
L 230.147879 -100.943396 
L 229.822899 -101.004974 
L 229.49792 -101.07061 
L 229.17294 -101.14033 
L 228.847961 -101.214159 
L 228.522981 -101.292125 
L 228.198002 -101.374254 
L 227.873022 -101.460573 
L 227.548043 -101.551108 
L 227.223063 -101.645886 
L 226.898084 -101.744935 
L 226.573104 -101.848279 
L 226.248124 -101.955947 
L 225.923145 -102.067965 
L 225.598165 -102.184359 
L 225.273186 -102.305154 
L 224.948206 -102.430378 
L 224.623227 -102.560055 
L 224.298247 -102.694211 
L 223.973268 -102.832871 
L 223.648288 -102.97606 
L 223.323309 -103.123802 
L 222.998329 -103.276121 
L 222.67335 -103.433042 
L 222.34837 -103.594586 
L 222.023391 -103.760777 
L 221.698411 -103.931636 
L 221.373432 -104.107186 
L 221.048452 -104.287447 
L 220.723473 -104.472439 
L 220.398493 -104.763116 
L 220.073514 -105.059255 
L 219.748534 -105.360717 
L 219.423554 -105.667367 
L 219.098575 -105.979068 
L 218.773595 -106.295685 
L 218.448616 -106.617081 
L 218.123636 -106.943122 
L 217.798657 -107.273671 
L 217.473677 -107.608595 
L 217.148698 -107.94776 
L 216.823718 -108.291031 
L 216.498739 -108.638276 
L 216.173759 -108.989362 
L 215.84878 -109.344159 
L 215.5238 -109.702534 
L 215.198821 -110.064359 
L 214.873841 -110.429503 
L 214.548862 -110.797838 
L 214.223882 -111.169237 
L 213.898903 -111.543573 
L 213.573923 -111.92072 
L 213.248943 -112.300556 
L 212.923964 -112.682955 
L 212.598984 -113.067795 
L 212.274005 -113.454957 
L 211.949025 -113.844319 
L 211.624046 -114.235764 
L 211.299066 -114.629173 
L 210.974087 -115.024432 
L 210.649107 -115.421425 
L 210.324128 -115.82004 
L 209.999148 -116.220165 
L 209.674169 -116.62169 
L 209.349189 -117.024505 
L 209.02421 -117.428504 
L 208.69923 -117.833582 
L 208.374251 -118.239634 
L 208.049271 -118.646558 
L 207.724292 -119.054254 
L 207.399312 -119.462622 
L 207.074333 -119.871566 
L 206.749353 -120.28099 
L 206.424373 -120.690801 
L 206.099394 -121.100907 
L 205.774414 -121.511218 
L 205.449435 -121.921646 
L 205.124455 -122.332104 
L 204.799476 -122.742509 
L 204.474496 -123.152778 
L 204.149517 -123.56283 
L 203.824537 -123.972589 
L 203.499558 -124.381976 
L 203.174578 -124.790917 
L 202.849599 -125.199341 
L 202.524619 -125.607177 
L 202.19964 -126.014356 
L 201.87466 -126.420813 
L 201.549681 -126.826482 
L 201.224701 -127.231303 
L 200.899722 -127.635214 
L 200.574742 -128.038159 
L 200.249762 -128.440081 
L 199.924783 -128.840927 
L 199.599803 -129.240645 
L 199.274824 -129.639186 
L 198.949844 -130.036502 
L 198.624865 -130.432549 
L 198.299885 -130.827283 
L 197.974906 -131.220664 
L 197.649926 -131.612653 
L 197.324947 -132.003213 
L 196.999967 -132.39231 
L 196.674988 -132.779911 
L 196.350008 -133.165987 
L 196.025029 -133.550509 
L 195.700049 -133.933451 
L 195.37507 -134.31479 
L 195.05009 -134.694503 
L 194.725111 -135.072572 
L 194.400131 -135.448978 
L 194.075152 -135.823706 
L 193.750172 -136.196743 
L 193.425192 -136.568084 
L 193.100213 -137.105827 
L 192.775233 -137.645289 
L 192.450254 -138.186361 
L 192.125274 -138.72894 
L 191.800295 -139.272923 
L 191.475315 -139.818205 
L 191.150336 -140.36468 
L 190.825356 -140.91224 
L 190.500377 -141.460779 
L 190.175397 -142.010185 
L 189.850418 -142.560349 
L 189.525438 -143.111159 
L 189.200459 -143.662503 
L 188.875479 -144.214267 
L 188.5505 -144.766336 
L 188.22552 -145.318597 
L 187.900541 -145.870931 
L 187.575561 -146.423222 
L 187.250581 -146.975353 
L 186.925602 -147.527204 
L 186.600622 -148.078657 
L 186.275643 -148.629591 
L 185.950663 -149.179885 
L 185.625684 -149.729419 
L 185.300704 -150.27807 
L 184.975725 -150.825716 
L 184.650745 -151.372233 
L 184.325766 -151.917498 
L 184.000786 -152.461388 
L 183.675807 -153.003778 
L 183.350827 -153.544543 
L 183.025848 -154.083558 
L 182.700868 -154.620698 
L 182.375889 -155.155838 
L 182.050909 -155.688851 
L 181.72593 -156.219612 
L 181.40095 -156.747995 
L 181.075971 -157.273873 
L 180.750991 -157.797121 
L 180.426011 -158.317613 
L 180.101032 -158.835221 
L 179.776052 -159.349821 
L 179.451073 -159.861287 
L 179.126093 -160.369492 
L 178.801114 -160.874312 
L 178.476134 -161.37562 
L 178.151155 -161.873293 
L 177.826175 -162.367204 
L 177.501196 -162.857232 
L 177.176216 -163.34325 
L 176.851237 -163.825137 
L 176.526257 -164.302768 
L 176.201278 -164.776023 
L 175.876298 -165.244778 
L 175.551319 -165.708914 
L 175.226339 -166.168309 
L 174.90136 -166.622843 
L 174.57638 -167.072399 
L 174.2514 -167.516857 
L 173.926421 -167.9561 
L 173.601441 -168.390012 
L 173.276462 -168.818477 
L 172.951482 -169.24138 
L 172.626503 -169.658607 
L 172.301523 -170.070047 
L 171.976544 -170.475587 
L 171.651564 -170.875117 
L 171.326585 -171.268527 
L 171.001605 -171.65571 
L 170.676626 -172.036557 
L 170.351646 -172.410964 
L 170.026667 -172.778826 
L 169.701687 -173.14004 
L 169.376708 -173.494504 
L 169.051728 -173.842117 
L 168.726749 -174.182781 
L 168.401769 -174.516397 
L 168.07679 -174.842871 
L 167.75181 -175.162106 
L 167.42683 -175.474011 
L 167.101851 -175.778494 
L 166.776871 -176.075465 
L 166.451892 -176.364835 
L 166.126912 -176.646519 
L 165.801933 -176.920431 
L 165.476953 -177.186488 
L 165.151974 -177.444609 
L 164.826994 -177.694714 
L 164.502015 -177.936726 
L 164.177035 -178.170569 
L 163.852056 -178.396168 
L 163.527076 -178.613451 
L 163.202097 -178.822349 
L 162.877117 -179.022792 
L 162.552138 -179.214714 
L 162.227158 -179.398051 
L 161.902179 -179.57274 
L 161.577199 -179.738721 
L 161.252219 -179.895935 
L 160.92724 -180.044326 
L 160.60226 -180.183839 
L 160.277281 -180.314423 
L 159.952301 -180.436027 
L 159.627322 -180.548603 
L 159.302342 -180.652105 
L 158.977363 -180.74649 
L 158.652383 -180.831715 
L 158.327404 -180.907741 
L 158.002424 -180.974531 
L 157.677445 -181.03205 
L 157.352465 -181.080265 
L 157.027486 -181.119145 
L 156.702506 -181.148661 
L 156.377527 -181.168787 
L 156.052547 -181.1795 
L 155.727568 -181.180777 
L 155.402588 -181.172598 
L 155.077609 -181.154947 
L 154.752629 -181.127807 
L 154.427649 -181.091167 
L 154.10267 -181.045015 
L 153.77769 -180.989343 
L 153.452711 -180.924145 
L 153.127731 -180.849416 
L 152.802752 -180.765156 
L 152.477772 -180.671368 
L 152.152793 -181.127946 
L 151.827813 -181.587677 
L 151.502834 -182.050555 
L 151.177854 -182.51658 
L 150.852875 -182.985748 
L 150.527895 -183.458054 
L 150.202916 -183.933493 
L 149.877936 -184.412057 
L 149.552957 -184.893737 
L 149.227977 -185.378522 
L 148.902998 -185.866403 
L 148.578018 -186.357364 
L 148.253038 -186.851391 
L 147.928059 -187.34847 
L 147.603079 -187.848581 
L 147.2781 -188.351707 
L 146.95312 -188.857828 
L 146.628141 -189.366921 
L 146.303161 -189.878964 
L 145.978182 -190.393934 
L 145.653202 -190.911803 
L 145.328223 -191.432547 
L 145.003243 -191.956136 
L 144.678264 -192.48254 
L 144.353284 -193.011731 
L 144.028305 -193.543674 
L 143.703325 -194.078337 
L 143.378346 -194.615686 
L 143.053366 -195.155685 
L 142.728387 -195.698297 
L 142.403407 -196.243484 
L 142.078428 -196.791206 
L 141.753448 -197.341423 
L 141.428468 -197.894094 
L 141.103489 -198.449175 
L 140.778509 -199.006624 
L 140.45353 -199.566395 
L 140.12855 -200.128442 
L 139.803571 -200.692719 
L 139.478591 -201.259176 
L 139.153612 -201.827767 
L 138.828632 -202.398439 
L 138.503653 -202.971143 
L 138.178673 -203.545827 
L 137.853694 -204.122437 
L 137.528714 -204.700921 
L 137.203735 -205.281224 
L 136.878755 -205.86329 
L 136.553776 -206.447063 
L 136.228796 -207.032487 
L 135.903817 -207.619503 
L 135.578837 -208.208054 
L 135.253857 -208.798079 
L 134.928878 -209.38952 
L 134.603898 -209.982315 
L 134.278919 -210.576404 
L 133.953939 -211.171725 
L 133.62896 -211.768215 
L 133.30398 -212.365811 
L 132.979001 -212.96445 
L 132.654021 -213.564068 
L 132.329042 -214.1646 
L 132.004062 -214.765982 
L 131.679083 -215.368147 
L 131.354103 -215.971031 
L 131.029124 -216.574568 
L 130.704144 -217.178689 
L 130.379165 -217.78333 
L 130.054185 -218.388421 
L 129.729206 -218.993897 
L 129.404226 -219.599689 
L 129.079247 -220.20573 
L 128.754267 -220.811951 
L 128.429287 -221.418284 
L 128.104308 -222.024661 
L 127.779328 -222.631012 
L 127.454349 -223.23727 
L 127.129369 -223.843366 
L 126.80439 -224.44923 
L 126.47941 -225.054795 
L 126.154431 -225.659991 
L 125.829451 -226.264749 
L 125.504472 -226.869001 
L 125.179492 -227.472679 
L 124.854513 -228.075714 
L 124.529533 -228.678037 
L 124.204554 -229.27958 
L 123.879574 -229.880275 
L 123.554595 -230.480055 
L 123.229615 -231.078852 
L 122.904636 -231.676598 
L 122.579656 -232.273227 
L 122.254676 -232.868672 
L 121.929697 -233.462866 
L 121.604717 -234.055743 
L 121.279738 -234.647238 
L 120.954758 -235.237286 
L 120.629779 -235.82582 
L 120.304799 -236.412778 
L 119.97982 -236.998094 
L 119.65484 -237.581706 
L 119.329861 -238.16355 
L 119.004881 -238.743565 
L 118.679902 -239.321686 
L 118.354922 -239.897855 
L 118.029943 -240.472008 
L 117.704963 -241.044088 
L 117.379984 -241.614032 
L 117.055004 -242.181784 
L 116.730025 -242.747283 
L 116.405045 -243.310473 
L 116.080066 -243.871297 
L 115.755086 -244.429698 
L 115.430106 -244.98562 
L 115.105127 -245.539009 
L 114.780147 -246.08981 
L 114.455168 -246.637971 
L 114.130188 -247.183438 
L 113.805209 -247.726159 
L 113.480229 -248.266085 
L 113.15525 -248.803163 
L 112.83027 -249.337346 
L 112.505291 -249.868584 
L 112.180311 -250.39683 
L 111.855332 -250.922037 
L 111.530352 -251.444159 
L 111.205373 -251.963151 
L 110.880393 -252.478968 
L 110.555414 -252.991568 
L 110.230434 -253.500909 
L 109.905455 -254.006947 
L 109.580475 -254.509644 
L 109.255495 -255.008959 
L 108.930516 -255.504855 
L 108.605536 -255.997292 
L 108.280557 -256.486235 
L 107.955577 -256.971648 
L 107.630598 -257.453496 
L 107.305618 -257.931744 
L 106.980639 -258.406362 
L 106.655659 -258.877315 
L 106.33068 -259.344575 
L 106.0057 -259.80811 
L 105.680721 -260.267892 
L 105.355741 -260.723893 
L 105.030762 -261.176086 
L 104.705782 -261.624446 
L 104.380803 -262.068947 
L 104.055823 -262.509566 
L 103.730844 -262.94628 
L 103.405864 -263.379066 
L 103.080885 -263.807905 
L 102.755905 -264.232777 
L 102.430925 -264.653661 
L 102.105946 -265.070542 
L 101.780966 -265.483401 
L 101.455987 -265.892224 
L 101.131007 -266.296995 
L 100.806028 -266.6977 
L 100.481048 -267.094327 
L 100.156069 -267.486864 
L 99.831089 -267.8753 
L 99.50611 -268.259625 
L 99.18113 -268.63983 
L 98.856151 -269.015908 
L 98.531171 -269.387851 
L 98.206192 -269.755654 
L 97.881212 -270.11931 
L 97.556233 -270.478817 
L 97.231253 -270.834172 
L 96.906274 -271.185371 
L 96.581294 -271.532413 
L 96.256314 -271.875299 
L 95.931335 -272.214029 
L 95.606355 -272.548604 
L 95.281376 -272.879026 
L 94.956396 -273.205299 
L 94.631417 -273.527427 
L 94.306437 -273.845414 
L 93.981458 -274.159267 
L 93.656478 -274.468993 
L 93.331499 -274.774598 
L 93.006519 -275.076091 
L 92.68154 -275.373482 
L 92.35656 -275.66678 
L 92.031581 -275.955996 
L 91.706601 -276.241141 
L 91.381622 -276.522228 
L 91.056642 -276.79927 
L 90.731663 -277.072281 
L 90.406683 -277.341275 
L 90.081704 -277.606267 
L 89.756724 -277.867275 
L 89.431744 -278.124313 
L 89.106765 -278.3774 
L 88.781785 -278.626554 
L 88.456806 -278.871794 
L 88.131826 -279.113138 
L 87.806847 -279.350608 
L 87.481867 -279.584223 
L 87.156888 -279.814005 
L 86.831908 -280.039975 
L 86.506929 -280.262157 
L 86.181949 -280.480573 
L 85.85697 -280.695247 
L 85.53199 -280.906203 
L 85.207011 -281.113466 
L 84.882031 -281.31706 
L 84.557052 -281.517012 
L 84.232072 -281.713348 
L 83.907093 -281.906094 
L 83.582113 -282.095277 
L 83.257133 -282.280926 
L 82.932154 -282.463067 
L 82.607174 -282.64173 
L 82.282195 -282.816944 
L 81.957215 -282.988737 
L 81.632236 -283.157138 
L 81.307256 -283.322179 
L 80.982277 -283.48389 
L 80.657297 -283.6423 
L 80.332318 -283.797442 
L 80.007338 -283.949346 
L 79.682359 -284.098043 
L 79.357379 -284.243567 
L 79.0324 -284.385948 
L 78.70742 -284.525219 
L 78.382441 -284.661414 
L 78.057461 -284.794564 
L 77.732482 -284.924703 
L 77.407502 -285.051864 
L 77.082523 -285.176081 
L 76.757543 -285.297387 
L 76.432563 -285.415816 
L 76.107584 -285.531401 
L 75.782604 -285.644178 
L 75.457625 -285.75418 
L 75.132645 -285.861441 
L 74.807666 -285.965997 
L 74.482686 -286.067881 
L 74.157707 -286.167127 
L 73.832727 -286.263772 
z
" style="stroke: #ff7f0e; stroke-opacity: 0.25"/>
    </defs>
    <g clip-path="url(#pd2d1ee1862)">
     <use xlink:href="#mb8522002e3" x="0" y="345.6" style="fill: #ff7f0e; fill-opacity: 0.25; stroke: #ff7f0e; stroke-opacity: 0.25"/>
    </g>
   </g>
   <g id="matplotlib.axis_1">
    <g id="xtick_1">
     <g id="line2d_1">
      <defs>
       <path id="m8dde29f505" d="M 0 0 
L 0 3.5 
" style="stroke: #000000; stroke-width: 0.8"/>
      </defs>
      <g>
       <use xlink:href="#m8dde29f505" x="73.832727" y="307.584" style="stroke: #000000; stroke-width: 0.8"/>
      </g>
     </g>
     <g id="text_1">
      <!-- 0 -->
      <g transform="translate(70.651477 322.182437)scale(0.1 -0.1)">
       <defs>
        <path id="DejaVuSans-30" d="M 2034 4250 
Q 1547 4250 1301 3770 
Q 1056 3291 1056 2328 
Q 1056 1369 1301 889 
Q 1547 409 2034 409 
Q 2525 409 2770 889 
Q 3016 1369 3016 2328 
Q 3016 3291 2770 3770 
Q 2525 4250 2034 4250 
z
M 2034 4750 
Q 2819 4750 3233 4129 
Q 3647 3509 3647 2328 
Q 3647 1150 3233 529 
Q 2819 -91 2034 -91 
Q 1250 -91 836 529 
Q 422 1150 422 2328 
Q 422 3509 836 4129 
Q 1250 4750 2034 4750 
z
" transform="scale(0.015625)"/>
       </defs>
       <use xlink:href="#DejaVuSans-30"/>
      </g>
     </g>
    </g>
    <g id="xtick_2">
     <g id="line2d_2">
      <g>
       <use xlink:href="#m8dde29f505" x="138.763636" y="307.584" style="stroke: #000000; stroke-width: 0.8"/>
      </g>
     </g>
     <g id="text_2">
      <!-- 2 -->
      <g transform="translate(135.582386 322.182437)scale(0.1 -0.1)">
       <defs>
        <path id="DejaVuSans-32" d="M 1228 531 
L 3431 531 
L 3431 0 
L 469 0 
L 469 531 
Q 828 903 1448 1529 
Q 2069 2156 2228 2338 
Q 2531 2678 2651 2914 
Q 2772 3150 2772 3378 
Q 2772 3750 2511 3984 
Q 2250 4219 1831 4219 
Q 1534 4219 1204 4116 
Q 875 4013 500 3803 
L 500 4441 
Q 881 4594 1212 4672 
Q 1544 4750 1819 4750 
Q 2544 4750 2975 4387 
Q 3406 4025 3406 3419 
Q 3406 3131 3298 2873 
Q 3191 2616 2906 2266 
Q 2828 2175 2409 1742 
Q 1991 1309 1228 531 
z
" transform="scale(0.015625)"/>
       </defs>
       <use xlink:href="#DejaVuSans-32"/>
      </g>
     </g>
    </g>
    <g id="xtick_3">
     <g id="line2d_3">
      <g>
       <use xlink:href="#m8dde29f505" x="203.694545" y="307.584" style="stroke: #000000; stroke-width: 0.8"/>
      </g>
     </g>
     <g id="text_3">
      <!-- 4 -->
      <g transform="translate(200.513295 322.182437)scale(0.1 -0.1)">
       <defs>
        <path id="DejaVuSans-34" d="M 2419 4116 
L 825 1625 
L 2419 1625 
L 2419 4116 
z
M 2253 4666 
L 3047 4666 
L 3047 1625 
L 3713 1625 
L 3713 1100 
L 3047 1100 
L 3047 0 
L 2419 0 
L 2419 1100 
L 313 1100 
L 313 1709 
L 2253 4666 
z
" transform="scale(0.015625)"/>
       </defs>
       <use xlink:href="#DejaVuSans-34"/>
      </g>
     </g>
    </g>
    <g id="xtick_4">
     <g id="line2d_4">
      <g>
       <use xlink:href="#m8dde29f505" x="268.625455" y="307.584" style="stroke: #000000; stroke-width: 0.8"/>
      </g>
     </g>
     <g id="text_4">
      <!-- 6 -->
      <g transform="translate(265.444205 322.182437)scale(0.1 -0.1)">
       <defs>
        <path id="DejaVuSans-36" d="M 2113 2584 
Q 1688 2584 1439 2293 
Q 1191 2003 1191 1497 
Q 1191 994 1439 701 
Q 1688 409 2113 409 
Q 2538 409 2786 701 
Q 3034 994 3034 1497 
Q 3034 2003 2786 2293 
Q 2538 2584 2113 2584 
z
M 3366 4563 
L 3366 3988 
Q 3128 4100 2886 4159 
Q 2644 4219 2406 4219 
Q 1781 4219 1451 3797 
Q 1122 3375 1075 2522 
Q 1259 2794 1537 2939 
Q 1816 3084 2150 3084 
Q 2853 3084 3261 2657 
Q 3669 2231 3669 1497 
Q 3669 778 3244 343 
Q 2819 -91 2113 -91 
Q 1303 -91 875 529 
Q 447 1150 447 2328 
Q 447 3434 972 4092 
Q 1497 4750 2381 4750 
Q 2619 4750 2861 4703 
Q 3103 4656 3366 4563 
z
" transform="scale(0.015625)"/>
       </defs>
       <use xlink:href="#DejaVuSans-36"/>
      </g>
     </g>
    </g>
    <g id="xtick_5">
     <g id="line2d_5">
      <g>
       <use xlink:href="#m8dde29f505" x="333.556364" y="307.584" style="stroke: #000000; stroke-width: 0.8"/>
      </g>
     </g>
     <g id="text_5">
      <!-- 8 -->
      <g transform="translate(330.375114 322.182437)scale(0.1 -0.1)">
       <defs>
        <path id="DejaVuSans-38" d="M 2034 2216 
Q 1584 2216 1326 1975 
Q 1069 1734 1069 1313 
Q 1069 891 1326 650 
Q 1584 409 2034 409 
Q 2484 409 2743 651 
Q 3003 894 3003 1313 
Q 3003 1734 2745 1975 
Q 2488 2216 2034 2216 
z
M 1403 2484 
Q 997 2584 770 2862 
Q 544 3141 544 3541 
Q 544 4100 942 4425 
Q 1341 4750 2034 4750 
Q 2731 4750 3128 4425 
Q 3525 4100 3525 3541 
Q 3525 3141 3298 2862 
Q 3072 2584 2669 2484 
Q 3125 2378 3379 2068 
Q 3634 1759 3634 1313 
Q 3634 634 3220 271 
Q 2806 -91 2034 -91 
Q 1263 -91 848 271 
Q 434 634 434 1313 
Q 434 1759 690 2068 
Q 947 2378 1403 2484 
z
M 1172 3481 
Q 1172 3119 1398 2916 
Q 1625 2713 2034 2713 
Q 2441 2713 2670 2916 
Q 2900 3119 2900 3481 
Q 2900 3844 2670 4047 
Q 2441 4250 2034 4250 
Q 1625 4250 1398 4047 
Q 1172 3844 1172 3481 
z
" transform="scale(0.015625)"/>
       </defs>
       <use xlink:href="#DejaVuSans-38"/>
      </g>
     </g>
    </g>
    <g id="xtick_6">
     <g id="line2d_6">
      <g>
       <use xlink:href="#m8dde29f505" x="398.487273" y="307.584" style="stroke: #000000; stroke-width: 0.8"/>
      </g>
     </g>
     <g id="text_6">
      <!-- 10 -->
      <g transform="translate(392.124773 322.182437)scale(0.1 -0.1)">
       <defs>
        <path id="DejaVuSans-31" d="M 794 531 
L 1825 531 
L 1825 4091 
L 703 3866 
L 703 4441 
L 1819 4666 
L 2450 4666 
L 2450 531 
L 3481 531 
L 3481 0 
L 794 0 
L 794 531 
z
" transform="scale(0.015625)"/>
       </defs>
       <use xlink:href="#DejaVuSans-31"/>
       <use xlink:href="#DejaVuSans-30" x="63.623047"/>
      </g>
     </g>
    </g>
    <g id="text_7">
     <!-- $x$ -->
     <g transform="translate(233.16 335.860562)scale(0.1 -0.1)">
      <defs>
       <path id="DejaVuSans-Oblique-78" d="M 3841 3500 
L 2234 1784 
L 3219 0 
L 2559 0 
L 1819 1388 
L 531 0 
L -166 0 
L 1556 1844 
L 641 3500 
L 1300 3500 
L 1972 2234 
L 3144 3500 
L 3841 3500 
z
" transform="scale(0.015625)"/>
      </defs>
      <use xlink:href="#DejaVuSans-Oblique-78" transform="translate(0 0.3125)"/>
     </g>
    </g>
   </g>
   <g id="matplotlib.axis_2">
    <g id="ytick_1">
     <g id="line2d_7">
      <defs>
       <path id="mf0aac94a2a" d="M 0 0 
L -3.5 0 
" style="stroke: #000000; stroke-width: 0.8"/>
      </defs>
      <g>
       <use xlink:href="#mf0aac94a2a" x="57.6" y="279.665069" style="stroke: #000000; stroke-width: 0.8"/>
      </g>
     </g>
     <g id="text_8">
      <!-- 7.5 -->
      <g transform="translate(26.317187 283.464288)scale(0.1 -0.1)">
       <defs>
        <path id="DejaVuSans-2212" d="M 678 2272 
L 4684 2272 
L 4684 1741 
L 678 1741 
L 678 2272 
z
" transform="scale(0.015625)"/>
        <path id="DejaVuSans-37" d="M 525 4666 
L 3525 4666 
L 3525 4397 
L 1831 0 
L 1172 0 
L 2766 4134 
L 525 4134 
L 525 4666 
z
" transform="scale(0.015625)"/>
        <path id="DejaVuSans-2e" d="M 684 794 
L 1344 794 
L 1344 0 
L 684 0 
L 684 794 
z
" transform="scale(0.015625)"/>
        <path id="DejaVuSans-35" d="M 691 4666 
L 3169 4666 
L 3169 4134 
L 1269 4134 
L 1269 2991 
Q 1406 3038 1543 3061 
Q 1681 3084 1819 3084 
Q 2600 3084 3056 2656 
Q 3513 2228 3513 1497 
Q 3513 744 3044 326 
Q 2575 -91 1722 -91 
Q 1428 -91 1123 -41 
Q 819 9 494 109 
L 494 744 
Q 775 591 1075 516 
Q 1375 441 1709 441 
Q 2250 441 2565 725 
Q 2881 1009 2881 1497 
Q 2881 1984 2565 2268 
Q 2250 2553 1709 2553 
Q 1456 2553 1204 2497 
Q 953 2441 691 2322 
L 691 4666 
z
" transform="scale(0.015625)"/>
       </defs>
       <use xlink:href="#DejaVuSans-2212"/>
       <use xlink:href="#DejaVuSans-37" x="83.789062"/>
       <use xlink:href="#DejaVuSans-2e" x="147.412109"/>
       <use xlink:href="#DejaVuSans-35" x="179.199219"/>
      </g>
     </g>
    </g>
    <g id="ytick_2">
     <g id="line2d_8">
      <g>
       <use xlink:href="#mf0aac94a2a" x="57.6" y="248.129504" style="stroke: #000000; stroke-width: 0.8"/>
      </g>
     </g>
     <g id="text_9">
      <!-- 5.0 -->
      <g transform="translate(26.317187 251.928723)scale(0.1 -0.1)">
       <use xlink:href="#DejaVuSans-2212"/>
       <use xlink:href="#DejaVuSans-35" x="83.789062"/>
       <use xlink:href="#DejaVuSans-2e" x="147.412109"/>
       <use xlink:href="#DejaVuSans-30" x="179.199219"/>
      </g>
     </g>
    </g>
    <g id="ytick_3">
     <g id="line2d_9">
      <g>
       <use xlink:href="#mf0aac94a2a" x="57.6" y="216.593939" style="stroke: #000000; stroke-width: 0.8"/>
      </g>
     </g>
     <g id="text_10">
      <!-- 2.5 -->
      <g transform="translate(26.317187 220.393158)scale(0.1 -0.1)">
       <use xlink:href="#DejaVuSans-2212"/>
       <use xlink:href="#DejaVuSans-32" x="83.789062"/>
       <use xlink:href="#DejaVuSans-2e" x="147.412109"/>
       <use xlink:href="#DejaVuSans-35" x="179.199219"/>
      </g>
     </g>
    </g>
    <g id="ytick_4">
     <g id="line2d_10">
      <g>
       <use xlink:href="#mf0aac94a2a" x="57.6" y="185.058374" style="stroke: #000000; stroke-width: 0.8"/>
      </g>
     </g>
     <g id="text_11">
      <!-- 0.0 -->
      <g transform="translate(34.696875 188.857593)scale(0.1 -0.1)">
       <use xlink:href="#DejaVuSans-30"/>
       <use xlink:href="#DejaVuSans-2e" x="63.623047"/>
       <use xlink:href="#DejaVuSans-30" x="95.410156"/>
      </g>
     </g>
    </g>
    <g id="ytick_5">
     <g id="line2d_11">
      <g>
       <use xlink:href="#mf0aac94a2a" x="57.6" y="153.522809" style="stroke: #000000; stroke-width: 0.8"/>
      </g>
     </g>
     <g id="text_12">
      <!-- 2.5 -->
      <g transform="translate(34.696875 157.322027)scale(0.1 -0.1)">
       <use xlink:href="#DejaVuSans-32"/>
       <use xlink:href="#DejaVuSans-2e" x="63.623047"/>
       <use xlink:href="#DejaVuSans-35" x="95.410156"/>
      </g>
     </g>
    </g>
    <g id="ytick_6">
     <g id="line2d_12">
      <g>
       <use xlink:href="#mf0aac94a2a" x="57.6" y="121.987243" style="stroke: #000000; stroke-width: 0.8"/>
      </g>
     </g>
     <g id="text_13">
      <!-- 5.0 -->
      <g transform="translate(34.696875 125.786462)scale(0.1 -0.1)">
       <use xlink:href="#DejaVuSans-35"/>
       <use xlink:href="#DejaVuSans-2e" x="63.623047"/>
       <use xlink:href="#DejaVuSans-30" x="95.410156"/>
      </g>
     </g>
    </g>
    <g id="ytick_7">
     <g id="line2d_13">
      <g>
       <use xlink:href="#mf0aac94a2a" x="57.6" y="90.451678" style="stroke: #000000; stroke-width: 0.8"/>
      </g>
     </g>
     <g id="text_14">
      <!-- 7.5 -->
      <g transform="translate(34.696875 94.250897)scale(0.1 -0.1)">
       <use xlink:href="#DejaVuSans-37"/>
       <use xlink:href="#DejaVuSans-2e" x="63.623047"/>
       <use xlink:href="#DejaVuSans-35" x="95.410156"/>
      </g>
     </g>
    </g>
    <g id="ytick_8">
     <g id="line2d_14">
      <g>
       <use xlink:href="#mf0aac94a2a" x="57.6" y="58.916113" style="stroke: #000000; stroke-width: 0.8"/>
      </g>
     </g>
     <g id="text_15">
      <!-- 10.0 -->
      <g transform="translate(28.334375 62.715332)scale(0.1 -0.1)">
       <use xlink:href="#DejaVuSans-31"/>
       <use xlink:href="#DejaVuSans-30" x="63.623047"/>
       <use xlink:href="#DejaVuSans-2e" x="127.246094"/>
       <use xlink:href="#DejaVuSans-30" x="159.033203"/>
      </g>
     </g>
    </g>
    <g id="text_16">
     <!-- $y$ -->
     <g transform="translate(20.217188 177.528)rotate(-90)scale(0.1 -0.1)">
      <defs>
       <path id="DejaVuSans-Oblique-79" d="M 1588 -325 
Q 1188 -997 936 -1164 
Q 684 -1331 294 -1331 
L -159 -1331 
L -63 -850 
L 269 -850 
Q 509 -850 678 -719 
Q 847 -588 1056 -206 
L 1234 128 
L 459 3500 
L 1069 3500 
L 1650 819 
L 3256 3500 
L 3859 3500 
L 1588 -325 
z
" transform="scale(0.015625)"/>
      </defs>
      <use xlink:href="#DejaVuSans-Oblique-79" transform="translate(0 0.3125)"/>
     </g>
    </g>
   </g>
   <g id="line2d_15">
    <path d="M 73.832727 177.412114 
L 80.007338 175.403788 
L 87.156888 172.830494 
L 97.231253 168.932764 
L 107.305618 165.092979 
L 112.83027 163.209487 
L 117.379984 161.873565 
L 121.604717 160.866934 
L 125.179492 160.230615 
L 128.754267 159.824823 
L 132.004062 159.681315 
L 135.253857 159.774623 
L 138.178673 160.077495 
L 141.103489 160.601337 
L 144.028305 161.357661 
L 146.95312 162.356188 
L 149.877936 163.604626 
L 152.802752 165.108458 
L 155.727568 166.870756 
L 158.652383 168.892 
L 161.577199 171.169925 
L 164.826994 173.995638 
L 168.07679 177.120411 
L 171.651564 180.883697 
L 175.551319 185.34614 
L 179.776052 190.548205 
L 184.650745 196.932937 
L 191.150336 205.858059 
L 202.19964 221.079481 
L 206.749353 226.936942 
L 210.324128 231.205864 
L 213.573923 234.754333 
L 216.498739 237.622947 
L 219.098575 239.875948 
L 221.698411 241.816911 
L 223.973268 243.235527 
L 226.248124 244.372794 
L 228.198002 245.109776 
L 230.147879 245.615798 
L 232.097756 245.880803 
L 234.047633 245.895559 
L 235.99751 245.651751 
L 237.947387 245.142056 
L 239.897265 244.360225 
L 241.847142 243.301159 
L 243.797019 241.96098 
L 245.746896 240.337098 
L 247.696773 238.428275 
L 249.64665 236.234679 
L 251.921507 233.317814 
L 254.196364 230.020783 
L 256.47122 226.351606 
L 259.071057 221.716717 
L 261.670893 216.631125 
L 264.595708 210.403687 
L 267.845504 202.908505 
L 271.420278 194.047878 
L 275.320033 183.774143 
L 280.194726 170.28839 
L 295.793743 126.603104 
L 299.368518 117.457587 
L 302.618313 109.721338 
L 305.543129 103.328385 
L 308.142965 98.165245 
L 310.417821 94.090619 
L 312.692678 90.462285 
L 314.642555 87.728757 
L 316.592432 85.359225 
L 318.54231 83.367187 
L 320.167207 82.003764 
L 321.792105 80.915765 
L 323.417002 80.10742 
L 325.0419 79.581799 
L 326.341818 79.366169 
L 327.641736 79.333121 
L 328.941654 79.482568 
L 330.241572 79.813925 
L 331.86647 80.48223 
L 333.491368 81.429826 
L 335.116265 82.652299 
L 336.741163 84.144053 
L 338.69104 86.280025 
L 340.640917 88.780189 
L 342.590794 91.628533 
L 344.865651 95.367384 
L 347.140508 99.523305 
L 349.740344 104.738099 
L 352.66516 111.128905 
L 355.914955 118.777346 
L 359.814709 128.541773 
L 365.339361 143.044364 
L 375.088747 168.726819 
L 379.313481 179.207166 
L 382.888256 187.516751 
L 386.138051 194.524076 
L 389.062867 200.32486 
L 391.662703 205.044361 
L 394.262539 209.330031 
L 396.862375 213.166583 
L 398.487273 215.332095 
L 398.487273 215.332095 
" clip-path="url(#pd2d1ee1862)" style="fill: none; stroke: #ff7f0e; stroke-width: 1.5; stroke-linecap: square"/>
   </g>
   <g id="line2d_16">
    <path d="M 73.832727 185.058374 
L 76.757543 184.956132 
L 79.682359 184.651066 
L 82.932154 184.080361 
L 86.181949 183.276927 
L 89.756724 182.14386 
L 93.331499 180.776825 
L 97.556233 178.906417 
L 102.430925 176.487975 
L 110.230434 172.322186 
L 117.379984 168.581855 
L 121.929697 166.445119 
L 125.829451 164.864994 
L 129.079247 163.776381 
L 132.004062 163.005995 
L 134.928878 162.459294 
L 137.528714 162.179123 
L 140.12855 162.107212 
L 142.728387 162.255776 
L 145.328223 162.635146 
L 147.928059 163.253633 
L 150.527895 164.1174 
L 153.127731 165.230367 
L 155.727568 166.594116 
L 158.327404 168.20783 
L 160.92724 170.068246 
L 163.852056 172.448866 
L 166.776871 175.12249 
L 170.026667 178.417451 
L 173.276462 182.027252 
L 176.851237 186.322241 
L 181.075971 191.767303 
L 185.950663 198.424709 
L 194.400131 210.42137 
L 201.224701 219.950719 
L 205.774414 225.92154 
L 209.349189 230.268402 
L 212.598984 233.882773 
L 215.5238 236.810923 
L 218.123636 239.121103 
L 220.723473 241.127561 
L 222.998329 242.614 
L 225.273186 243.832512 
L 227.223063 244.652585 
L 229.17294 245.256631 
L 231.122817 245.637017 
L 233.072695 245.786936 
L 235.022572 245.700459 
L 236.972449 245.372571 
L 238.922326 244.799209 
L 240.872203 243.977297 
L 242.82208 242.904773 
L 244.771957 241.580619 
L 246.721835 240.004878 
L 248.996691 237.850093 
L 251.271548 235.358104 
L 253.546405 232.534613 
L 256.146241 228.911869 
L 258.746077 224.881132 
L 261.345913 220.460639 
L 264.270729 215.048726 
L 267.520524 208.532679 
L 271.095299 200.81902 
L 274.995053 191.84889 
L 279.544767 180.812119 
L 286.044357 164.391474 
L 296.118722 138.913431 
L 300.668436 128.02411 
L 304.56819 119.271312 
L 307.817985 112.506643 
L 310.742801 106.907054 
L 313.342637 102.36926 
L 315.942473 98.287311 
L 318.21733 95.119392 
L 320.492187 92.353187 
L 322.442064 90.318521 
L 324.391941 88.607759 
L 326.016839 87.43792 
L 327.641736 86.507131 
L 329.266634 85.820878 
L 330.891532 85.384042 
L 332.516429 85.200874 
L 334.141327 85.274982 
L 335.766224 85.609313 
L 337.391122 86.206133 
L 339.01602 87.06702 
L 340.640917 88.192847 
L 342.265815 89.583776 
L 343.890713 91.239249 
L 345.84059 93.573152 
L 347.790467 96.282501 
L 349.740344 99.362168 
L 352.015201 103.414207 
L 354.290057 107.948044 
L 356.564914 112.947774 
L 359.16475 119.208224 
L 361.764586 126.020749 
L 364.689402 134.299252 
L 367.939197 144.191972 
L 371.513972 155.815041 
L 375.738706 170.377887 
L 380.938378 189.195871 
L 398.487273 253.682427 
L 398.487273 253.682427 
" clip-path="url(#pd2d1ee1862)" style="fill: none; stroke: #1f77b4; stroke-width: 1.5; stroke-linecap: square"/>
   </g>
   <g id="patch_3">
    <path d="M 57.6 307.584 
L 57.6 41.472 
" style="fill: none; stroke: #000000; stroke-width: 0.8; stroke-linejoin: miter; stroke-linecap: square"/>
   </g>
   <g id="patch_4">
    <path d="M 414.72 307.584 
L 414.72 41.472 
" style="fill: none; stroke: #000000; stroke-width: 0.8; stroke-linejoin: miter; stroke-linecap: square"/>
   </g>
   <g id="patch_5">
    <path d="M 57.6 307.584 
L 414.72 307.584 
" style="fill: none; stroke: #000000; stroke-width: 0.8; stroke-linejoin: miter; stroke-linecap: square"/>
   </g>
   <g id="patch_6">
    <path d="M 57.6 41.472 
L 414.72 41.472 
" style="fill: none; stroke: #000000; stroke-width: 0.8; stroke-linejoin: miter; stroke-linecap: square"/>
   </g>
   <g id="legend_1">
    <g id="patch_7">
     <path d="M 64.6 108.206375 
L 219.707813 108.206375 
Q 221.707813 108.206375 221.707813 106.206375 
L 221.707813 48.472 
Q 221.707813 46.472 219.707813 46.472 
L 64.6 46.472 
Q 62.6 46.472 62.6 48.472 
L 62.6 106.206375 
Q 62.6 108.206375 64.6 108.206375 
z
" style="fill: #ffffff; opacity: 0.8; stroke: #cccccc; stroke-linejoin: miter"/>
    </g>
    <g id="line2d_17">
     <path d="M 66.6 54.570438 
L 76.6 54.570438 
L 86.6 54.570438 
" style="fill: none; stroke: #ff7f0e; stroke-width: 1.5; stroke-linecap: square"/>
    </g>
    <g id="text_17">
     <!-- Mean Prediction -->
     <g transform="translate(94.6 58.070438)scale(0.1 -0.1)">
      <defs>
       <path id="DejaVuSans-4d" d="M 628 4666 
L 1569 4666 
L 2759 1491 
L 3956 4666 
L 4897 4666 
L 4897 0 
L 4281 0 
L 4281 4097 
L 3078 897 
L 2444 897 
L 1241 4097 
L 1241 0 
L 628 0 
L 628 4666 
z
" transform="scale(0.015625)"/>
       <path id="DejaVuSans-65" d="M 3597 1894 
L 3597 1613 
L 953 1613 
Q 991 1019 1311 708 
Q 1631 397 2203 397 
Q 2534 397 2845 478 
Q 3156 559 3463 722 
L 3463 178 
Q 3153 47 2828 -22 
Q 2503 -91 2169 -91 
Q 1331 -91 842 396 
Q 353 884 353 1716 
Q 353 2575 817 3079 
Q 1281 3584 2069 3584 
Q 2775 3584 3186 3129 
Q 3597 2675 3597 1894 
z
M 3022 2063 
Q 3016 2534 2758 2815 
Q 2500 3097 2075 3097 
Q 1594 3097 1305 2825 
Q 1016 2553 972 2059 
L 3022 2063 
z
" transform="scale(0.015625)"/>
       <path id="DejaVuSans-61" d="M 2194 1759 
Q 1497 1759 1228 1600 
Q 959 1441 959 1056 
Q 959 750 1161 570 
Q 1363 391 1709 391 
Q 2188 391 2477 730 
Q 2766 1069 2766 1631 
L 2766 1759 
L 2194 1759 
z
M 3341 1997 
L 3341 0 
L 2766 0 
L 2766 531 
Q 2569 213 2275 61 
Q 1981 -91 1556 -91 
Q 1019 -91 701 211 
Q 384 513 384 1019 
Q 384 1609 779 1909 
Q 1175 2209 1959 2209 
L 2766 2209 
L 2766 2266 
Q 2766 2663 2505 2880 
Q 2244 3097 1772 3097 
Q 1472 3097 1187 3025 
Q 903 2953 641 2809 
L 641 3341 
Q 956 3463 1253 3523 
Q 1550 3584 1831 3584 
Q 2591 3584 2966 3190 
Q 3341 2797 3341 1997 
z
" transform="scale(0.015625)"/>
       <path id="DejaVuSans-6e" d="M 3513 2113 
L 3513 0 
L 2938 0 
L 2938 2094 
Q 2938 2591 2744 2837 
Q 2550 3084 2163 3084 
Q 1697 3084 1428 2787 
Q 1159 2491 1159 1978 
L 1159 0 
L 581 0 
L 581 3500 
L 1159 3500 
L 1159 2956 
Q 1366 3272 1645 3428 
Q 1925 3584 2291 3584 
Q 2894 3584 3203 3211 
Q 3513 2838 3513 2113 
z
" transform="scale(0.015625)"/>
       <path id="DejaVuSans-20" transform="scale(0.015625)"/>
       <path id="DejaVuSans-50" d="M 1259 4147 
L 1259 2394 
L 2053 2394 
Q 2494 2394 2734 2622 
Q 2975 2850 2975 3272 
Q 2975 3691 2734 3919 
Q 2494 4147 2053 4147 
L 1259 4147 
z
M 628 4666 
L 2053 4666 
Q 2838 4666 3239 4311 
Q 3641 3956 3641 3272 
Q 3641 2581 3239 2228 
Q 2838 1875 2053 1875 
L 1259 1875 
L 1259 0 
L 628 0 
L 628 4666 
z
" transform="scale(0.015625)"/>
       <path id="DejaVuSans-72" d="M 2631 2963 
Q 2534 3019 2420 3045 
Q 2306 3072 2169 3072 
Q 1681 3072 1420 2755 
Q 1159 2438 1159 1844 
L 1159 0 
L 581 0 
L 581 3500 
L 1159 3500 
L 1159 2956 
Q 1341 3275 1631 3429 
Q 1922 3584 2338 3584 
Q 2397 3584 2469 3576 
Q 2541 3569 2628 3553 
L 2631 2963 
z
" transform="scale(0.015625)"/>
       <path id="DejaVuSans-64" d="M 2906 2969 
L 2906 4863 
L 3481 4863 
L 3481 0 
L 2906 0 
L 2906 525 
Q 2725 213 2448 61 
Q 2172 -91 1784 -91 
Q 1150 -91 751 415 
Q 353 922 353 1747 
Q 353 2572 751 3078 
Q 1150 3584 1784 3584 
Q 2172 3584 2448 3432 
Q 2725 3281 2906 2969 
z
M 947 1747 
Q 947 1113 1208 752 
Q 1469 391 1925 391 
Q 2381 391 2643 752 
Q 2906 1113 2906 1747 
Q 2906 2381 2643 2742 
Q 2381 3103 1925 3103 
Q 1469 3103 1208 2742 
Q 947 2381 947 1747 
z
" transform="scale(0.015625)"/>
       <path id="DejaVuSans-69" d="M 603 3500 
L 1178 3500 
L 1178 0 
L 603 0 
L 603 3500 
z
M 603 4863 
L 1178 4863 
L 1178 4134 
L 603 4134 
L 603 4863 
z
" transform="scale(0.015625)"/>
       <path id="DejaVuSans-63" d="M 3122 3366 
L 3122 2828 
Q 2878 2963 2633 3030 
Q 2388 3097 2138 3097 
Q 1578 3097 1268 2742 
Q 959 2388 959 1747 
Q 959 1106 1268 751 
Q 1578 397 2138 397 
Q 2388 397 2633 464 
Q 2878 531 3122 666 
L 3122 134 
Q 2881 22 2623 -34 
Q 2366 -91 2075 -91 
Q 1284 -91 818 406 
Q 353 903 353 1747 
Q 353 2603 823 3093 
Q 1294 3584 2113 3584 
Q 2378 3584 2631 3529 
Q 2884 3475 3122 3366 
z
" transform="scale(0.015625)"/>
       <path id="DejaVuSans-74" d="M 1172 4494 
L 1172 3500 
L 2356 3500 
L 2356 3053 
L 1172 3053 
L 1172 1153 
Q 1172 725 1289 603 
Q 1406 481 1766 481 
L 2356 481 
L 2356 0 
L 1766 0 
Q 1100 0 847 248 
Q 594 497 594 1153 
L 594 3053 
L 172 3053 
L 172 3500 
L 594 3500 
L 594 4494 
L 1172 4494 
z
" transform="scale(0.015625)"/>
       <path id="DejaVuSans-6f" d="M 1959 3097 
Q 1497 3097 1228 2736 
Q 959 2375 959 1747 
Q 959 1119 1226 758 
Q 1494 397 1959 397 
Q 2419 397 2687 759 
Q 2956 1122 2956 1747 
Q 2956 2369 2687 2733 
Q 2419 3097 1959 3097 
z
M 1959 3584 
Q 2709 3584 3137 3096 
Q 3566 2609 3566 1747 
Q 3566 888 3137 398 
Q 2709 -91 1959 -91 
Q 1206 -91 779 398 
Q 353 888 353 1747 
Q 353 2609 779 3096 
Q 1206 3584 1959 3584 
z
" transform="scale(0.015625)"/>
      </defs>
      <use xlink:href="#DejaVuSans-4d"/>
      <use xlink:href="#DejaVuSans-65" x="86.279297"/>
      <use xlink:href="#DejaVuSans-61" x="147.802734"/>
      <use xlink:href="#DejaVuSans-6e" x="209.082031"/>
      <use xlink:href="#DejaVuSans-20" x="272.460938"/>
      <use xlink:href="#DejaVuSans-50" x="304.248047"/>
      <use xlink:href="#DejaVuSans-72" x="362.800781"/>
      <use xlink:href="#DejaVuSans-65" x="401.664062"/>
      <use xlink:href="#DejaVuSans-64" x="463.1875"/>
      <use xlink:href="#DejaVuSans-69" x="526.664062"/>
      <use xlink:href="#DejaVuSans-63" x="554.447266"/>
      <use xlink:href="#DejaVuSans-74" x="609.427734"/>
      <use xlink:href="#DejaVuSans-69" x="648.636719"/>
      <use xlink:href="#DejaVuSans-6f" x="676.419922"/>
      <use xlink:href="#DejaVuSans-6e" x="737.601562"/>
     </g>
    </g>
    <g id="line2d_18">
     <path d="M 66.6 69.250125 
L 76.6 69.250125 
L 86.6 69.250125 
" style="fill: none; stroke: #1f77b4; stroke-width: 1.5; stroke-linecap: square"/>
    </g>
    <g id="text_18">
     <!-- $y = x\sin x$ -->
     <g transform="translate(94.6 72.750125)scale(0.1 -0.1)">
      <defs>
       <path id="DejaVuSans-3d" d="M 678 2906 
L 4684 2906 
L 4684 2381 
L 678 2381 
L 678 2906 
z
M 678 1631 
L 4684 1631 
L 4684 1100 
L 678 1100 
L 678 1631 
z
" transform="scale(0.015625)"/>
       <path id="DejaVuSans-73" d="M 2834 3397 
L 2834 2853 
Q 2591 2978 2328 3040 
Q 2066 3103 1784 3103 
Q 1356 3103 1142 2972 
Q 928 2841 928 2578 
Q 928 2378 1081 2264 
Q 1234 2150 1697 2047 
L 1894 2003 
Q 2506 1872 2764 1633 
Q 3022 1394 3022 966 
Q 3022 478 2636 193 
Q 2250 -91 1575 -91 
Q 1294 -91 989 -36 
Q 684 19 347 128 
L 347 722 
Q 666 556 975 473 
Q 1284 391 1588 391 
Q 1994 391 2212 530 
Q 2431 669 2431 922 
Q 2431 1156 2273 1281 
Q 2116 1406 1581 1522 
L 1381 1569 
Q 847 1681 609 1914 
Q 372 2147 372 2553 
Q 372 3047 722 3315 
Q 1072 3584 1716 3584 
Q 2034 3584 2315 3537 
Q 2597 3491 2834 3397 
z
" transform="scale(0.015625)"/>
      </defs>
      <use xlink:href="#DejaVuSans-Oblique-79" transform="translate(0 0.015625)"/>
      <use xlink:href="#DejaVuSans-3d" transform="translate(78.662109 0.015625)"/>
      <use xlink:href="#DejaVuSans-Oblique-78" transform="translate(181.933594 0.015625)"/>
      <use xlink:href="#DejaVuSans-73" transform="translate(241.113281 0.015625)"/>
      <use xlink:href="#DejaVuSans-69" transform="translate(293.212891 0.015625)"/>
      <use xlink:href="#DejaVuSans-6e" transform="translate(320.996094 0.015625)"/>
      <use xlink:href="#DejaVuSans-Oblique-78" transform="translate(400.610676 0.015625)"/>
     </g>
    </g>
    <g id="PathCollection_2">
     <g>
      <use xlink:href="#m685941c3b2" x="76.6" y="84.823563" style="stroke: #000000"/>
     </g>
    </g>
    <g id="text_19">
     <!-- Observation -->
     <g transform="translate(94.6 87.448563)scale(0.1 -0.1)">
      <defs>
       <path id="DejaVuSans-4f" d="M 2522 4238 
Q 1834 4238 1429 3725 
Q 1025 3213 1025 2328 
Q 1025 1447 1429 934 
Q 1834 422 2522 422 
Q 3209 422 3611 934 
Q 4013 1447 4013 2328 
Q 4013 3213 3611 3725 
Q 3209 4238 2522 4238 
z
M 2522 4750 
Q 3503 4750 4090 4092 
Q 4678 3434 4678 2328 
Q 4678 1225 4090 567 
Q 3503 -91 2522 -91 
Q 1538 -91 948 565 
Q 359 1222 359 2328 
Q 359 3434 948 4092 
Q 1538 4750 2522 4750 
z
" transform="scale(0.015625)"/>
       <path id="DejaVuSans-62" d="M 3116 1747 
Q 3116 2381 2855 2742 
Q 2594 3103 2138 3103 
Q 1681 3103 1420 2742 
Q 1159 2381 1159 1747 
Q 1159 1113 1420 752 
Q 1681 391 2138 391 
Q 2594 391 2855 752 
Q 3116 1113 3116 1747 
z
M 1159 2969 
Q 1341 3281 1617 3432 
Q 1894 3584 2278 3584 
Q 2916 3584 3314 3078 
Q 3713 2572 3713 1747 
Q 3713 922 3314 415 
Q 2916 -91 2278 -91 
Q 1894 -91 1617 61 
Q 1341 213 1159 525 
L 1159 0 
L 581 0 
L 581 4863 
L 1159 4863 
L 1159 2969 
z
" transform="scale(0.015625)"/>
       <path id="DejaVuSans-76" d="M 191 3500 
L 800 3500 
L 1894 563 
L 2988 3500 
L 3597 3500 
L 2284 0 
L 1503 0 
L 191 3500 
z
" transform="scale(0.015625)"/>
      </defs>
      <use xlink:href="#DejaVuSans-4f"/>
      <use xlink:href="#DejaVuSans-62" x="78.710938"/>
      <use xlink:href="#DejaVuSans-73" x="142.1875"/>
      <use xlink:href="#DejaVuSans-65" x="194.287109"/>
      <use xlink:href="#DejaVuSans-72" x="255.810547"/>
      <use xlink:href="#DejaVuSans-76" x="296.923828"/>
      <use xlink:href="#DejaVuSans-61" x="356.103516"/>
      <use xlink:href="#DejaVuSans-74" x="417.382812"/>
      <use xlink:href="#DejaVuSans-69" x="456.591797"/>
      <use xlink:href="#DejaVuSans-6f" x="484.375"/>
      <use xlink:href="#DejaVuSans-6e" x="545.556641"/>
     </g>
    </g>
    <g id="patch_8">
     <path d="M 66.6 102.126688 
L 86.6 102.126688 
L 86.6 95.126688 
L 66.6 95.126688 
z
" style="fill: #ff7f0e; fill-opacity: 0.25; stroke: #ff7f0e; stroke-opacity: 0.25; stroke-linejoin: miter"/>
    </g>
    <g id="text_20">
     <!-- 95% Confidence Interval -->
     <g transform="translate(94.6 102.126688)scale(0.1 -0.1)">
      <defs>
       <path id="DejaVuSans-39" d="M 703 97 
L 703 672 
Q 941 559 1184 500 
Q 1428 441 1663 441 
Q 2288 441 2617 861 
Q 2947 1281 2994 2138 
Q 2813 1869 2534 1725 
Q 2256 1581 1919 1581 
Q 1219 1581 811 2004 
Q 403 2428 403 3163 
Q 403 3881 828 4315 
Q 1253 4750 1959 4750 
Q 2769 4750 3195 4129 
Q 3622 3509 3622 2328 
Q 3622 1225 3098 567 
Q 2575 -91 1691 -91 
Q 1453 -91 1209 -44 
Q 966 3 703 97 
z
M 1959 2075 
Q 2384 2075 2632 2365 
Q 2881 2656 2881 3163 
Q 2881 3666 2632 3958 
Q 2384 4250 1959 4250 
Q 1534 4250 1286 3958 
Q 1038 3666 1038 3163 
Q 1038 2656 1286 2365 
Q 1534 2075 1959 2075 
z
" transform="scale(0.015625)"/>
       <path id="DejaVuSans-25" d="M 4653 2053 
Q 4381 2053 4226 1822 
Q 4072 1591 4072 1178 
Q 4072 772 4226 539 
Q 4381 306 4653 306 
Q 4919 306 5073 539 
Q 5228 772 5228 1178 
Q 5228 1588 5073 1820 
Q 4919 2053 4653 2053 
z
M 4653 2450 
Q 5147 2450 5437 2106 
Q 5728 1763 5728 1178 
Q 5728 594 5436 251 
Q 5144 -91 4653 -91 
Q 4153 -91 3862 251 
Q 3572 594 3572 1178 
Q 3572 1766 3864 2108 
Q 4156 2450 4653 2450 
z
M 1428 4353 
Q 1159 4353 1004 4120 
Q 850 3888 850 3481 
Q 850 3069 1003 2837 
Q 1156 2606 1428 2606 
Q 1700 2606 1854 2837 
Q 2009 3069 2009 3481 
Q 2009 3884 1853 4118 
Q 1697 4353 1428 4353 
z
M 4250 4750 
L 4750 4750 
L 1831 -91 
L 1331 -91 
L 4250 4750 
z
M 1428 4750 
Q 1922 4750 2215 4408 
Q 2509 4066 2509 3481 
Q 2509 2891 2217 2550 
Q 1925 2209 1428 2209 
Q 931 2209 642 2551 
Q 353 2894 353 3481 
Q 353 4063 643 4406 
Q 934 4750 1428 4750 
z
" transform="scale(0.015625)"/>
       <path id="DejaVuSans-43" d="M 4122 4306 
L 4122 3641 
Q 3803 3938 3442 4084 
Q 3081 4231 2675 4231 
Q 1875 4231 1450 3742 
Q 1025 3253 1025 2328 
Q 1025 1406 1450 917 
Q 1875 428 2675 428 
Q 3081 428 3442 575 
Q 3803 722 4122 1019 
L 4122 359 
Q 3791 134 3420 21 
Q 3050 -91 2638 -91 
Q 1578 -91 968 557 
Q 359 1206 359 2328 
Q 359 3453 968 4101 
Q 1578 4750 2638 4750 
Q 3056 4750 3426 4639 
Q 3797 4528 4122 4306 
z
" transform="scale(0.015625)"/>
       <path id="DejaVuSans-66" d="M 2375 4863 
L 2375 4384 
L 1825 4384 
Q 1516 4384 1395 4259 
Q 1275 4134 1275 3809 
L 1275 3500 
L 2222 3500 
L 2222 3053 
L 1275 3053 
L 1275 0 
L 697 0 
L 697 3053 
L 147 3053 
L 147 3500 
L 697 3500 
L 697 3744 
Q 697 4328 969 4595 
Q 1241 4863 1831 4863 
L 2375 4863 
z
" transform="scale(0.015625)"/>
       <path id="DejaVuSans-49" d="M 628 4666 
L 1259 4666 
L 1259 0 
L 628 0 
L 628 4666 
z
" transform="scale(0.015625)"/>
       <path id="DejaVuSans-6c" d="M 603 4863 
L 1178 4863 
L 1178 0 
L 603 0 
L 603 4863 
z
" transform="scale(0.015625)"/>
      </defs>
      <use xlink:href="#DejaVuSans-39"/>
      <use xlink:href="#DejaVuSans-35" x="63.623047"/>
      <use xlink:href="#DejaVuSans-25" x="127.246094"/>
      <use xlink:href="#DejaVuSans-20" x="222.265625"/>
      <use xlink:href="#DejaVuSans-43" x="254.052734"/>
      <use xlink:href="#DejaVuSans-6f" x="323.876953"/>
      <use xlink:href="#DejaVuSans-6e" x="385.058594"/>
      <use xlink:href="#DejaVuSans-66" x="448.4375"/>
      <use xlink:href="#DejaVuSans-69" x="483.642578"/>
      <use xlink:href="#DejaVuSans-64" x="511.425781"/>
      <use xlink:href="#DejaVuSans-65" x="574.902344"/>
      <use xlink:href="#DejaVuSans-6e" x="636.425781"/>
      <use xlink:href="#DejaVuSans-63" x="699.804688"/>
      <use xlink:href="#DejaVuSans-65" x="754.785156"/>
      <use xlink:href="#DejaVuSans-20" x="816.308594"/>
      <use xlink:href="#DejaVuSans-49" x="848.095703"/>
      <use xlink:href="#DejaVuSans-6e" x="877.587891"/>
      <use xlink:href="#DejaVuSans-74" x="940.966797"/>
      <use xlink:href="#DejaVuSans-65" x="980.175781"/>
      <use xlink:href="#DejaVuSans-72" x="1041.699219"/>
      <use xlink:href="#DejaVuSans-76" x="1082.8125"/>
      <use xlink:href="#DejaVuSans-61" x="1141.992188"/>
      <use xlink:href="#DejaVuSans-6c" x="1203.271484"/>
     </g>
    </g>
   </g>
  </g>
 </g>
 <defs>
  <clipPath id="pd2d1ee1862">
   <rect x="57.6" y="41.472" width="357.12" height="266.112"/>
  </clipPath>
 </defs>
</svg>
