<?xml version="1.0" encoding="utf-8" standalone="no"?>
<!DOCTYPE svg PUBLIC "-//W3C//DTD SVG 1.1//EN"
  "http://www.w3.org/Graphics/SVG/1.1/DTD/svg11.dtd">
<svg xmlns:xlink="http://www.w3.org/1999/xlink" width="460.8pt" height="345.6pt" viewBox="0 0 460.8 345.6" xmlns="http://www.w3.org/2000/svg" version="1.1">
 <metadata>
  <rdf:RDF xmlns:dc="http://purl.org/dc/elements/1.1/" xmlns:cc="http://creativecommons.org/ns#" xmlns:rdf="http://www.w3.org/1999/02/22-rdf-syntax-ns#">
   <cc:Work>
    <dc:type rdf:resource="http://purl.org/dc/dcmitype/StillImage"/>
    <dc:date>2023-05-31T13:00:38.827981</dc:date>
    <dc:format>image/svg+xml</dc:format>
    <dc:creator>
     <cc:Agent>
      <dc:title>Matplotlib v3.5.2, https://matplotlib.org/</dc:title>
     </cc:Agent>
    </dc:creator>
   </cc:Work>
  </rdf:RDF>
 </metadata>
 <defs>
  <style type="text/css">*{stroke-linejoin: round; stroke-linecap: butt}</style>
 </defs>
 <g id="figure_1">
  <g id="patch_1">
   <path d="M 0 345.6 
L 460.8 345.6 
L 460.8 0 
L 0 0 
z
" style="fill: #ffffff"/>
  </g>
  <g id="axes_1">
   <g id="patch_2">
    <path d="M 57.6 307.584 
L 414.72 307.584 
L 414.72 41.472 
L 57.6 41.472 
z
" style="fill: #ffffff"/>
   </g>
   <g id="PathCollection_1">
    <defs>
     <path id="m425c7b8022" d="M 0 3.354102 
C 0.889518 3.354102 1.742724 3.000693 2.371708 2.371708 
C 3.000693 1.742724 3.354102 0.889518 3.354102 0 
C 3.354102 -0.889518 3.000693 -1.742724 2.371708 -2.371708 
C 1.742724 -3.000693 0.889518 -3.354102 0 -3.354102 
C -0.889518 -3.354102 -1.742724 -3.000693 -2.371708 -2.371708 
C -3.000693 -1.742724 -3.354102 -0.889518 -3.354102 0 
C -3.354102 0.889518 -3.000693 1.742724 -2.371708 2.371708 
C -1.742724 3.000693 -0.889518 3.354102 0 3.354102 
z
" style="stroke: #000000"/>
    </defs>
    <g clip-path="url(#pec8c378247)">
     <use xlink:href="#m425c7b8022" x="238.597346" y="245.908156" style="stroke: #000000"/>
     <use xlink:href="#m425c7b8022" x="339.665979" y="87.978082" style="stroke: #000000"/>
     <use xlink:href="#m425c7b8022" x="220.723473" y="242.111651" style="stroke: #000000"/>
     <use xlink:href="#m425c7b8022" x="193.425192" y="209.913331" style="stroke: #000000"/>
     <use xlink:href="#m425c7b8022" x="152.477772" y="165.668946" style="stroke: #000000"/>
     <use xlink:href="#m425c7b8022" x="375.738706" y="171.135631" style="stroke: #000000"/>
    </g>
   </g>
   <g id="PolyCollection_1">
    <defs>
     <path id="m0cdb6d7df9" d="M 73.832727 -286.379681 
L 73.832727 -50.112 
L 74.157707 -50.401404 
L 74.482686 -50.694679 
L 74.807666 -50.991852 
L 75.132645 -51.292952 
L 75.457625 -51.598005 
L 75.782604 -51.907039 
L 76.107584 -52.220081 
L 76.432563 -52.537158 
L 76.757543 -52.858294 
L 77.082523 -53.183516 
L 77.407502 -53.512848 
L 77.732482 -53.846315 
L 78.057461 -54.183941 
L 78.382441 -54.525749 
L 78.70742 -54.871762 
L 79.0324 -55.222003 
L 79.357379 -55.576494 
L 79.682359 -55.935256 
L 80.007338 -56.298309 
L 80.332318 -56.665674 
L 80.657297 -57.03737 
L 80.982277 -57.413416 
L 81.307256 -57.79383 
L 81.632236 -58.17863 
L 81.957215 -58.567832 
L 82.282195 -58.961452 
L 82.607174 -59.359507 
L 82.932154 -59.76201 
L 83.257133 -60.168976 
L 83.582113 -60.580417 
L 83.907093 -60.996346 
L 84.232072 -61.416775 
L 84.557052 -61.841714 
L 84.882031 -62.271173 
L 85.207011 -62.705161 
L 85.53199 -63.143687 
L 85.85697 -63.586758 
L 86.181949 -64.034381 
L 86.506929 -64.48656 
L 86.831908 -64.9433 
L 87.156888 -65.404606 
L 87.481867 -65.87048 
L 87.806847 -66.340924 
L 88.131826 -66.815938 
L 88.456806 -67.295523 
L 88.781785 -67.779677 
L 89.106765 -68.268398 
L 89.431744 -68.761682 
L 89.756724 -69.259526 
L 90.081704 -69.761925 
L 90.406683 -70.268871 
L 90.731663 -70.780357 
L 91.056642 -71.296375 
L 91.381622 -71.816915 
L 91.706601 -72.341966 
L 92.031581 -72.871516 
L 92.35656 -73.405552 
L 92.68154 -73.94406 
L 93.006519 -74.487025 
L 93.331499 -75.034429 
L 93.656478 -75.586255 
L 93.981458 -76.142484 
L 94.306437 -76.703095 
L 94.631417 -77.268068 
L 94.956396 -77.83738 
L 95.281376 -78.411007 
L 95.606355 -78.988923 
L 95.931335 -79.571102 
L 96.256314 -80.157517 
L 96.581294 -80.748139 
L 96.906274 -81.342937 
L 97.231253 -81.94188 
L 97.556233 -82.544936 
L 97.881212 -83.15207 
L 98.206192 -83.763246 
L 98.531171 -84.378429 
L 98.856151 -84.99758 
L 99.18113 -85.62066 
L 99.50611 -86.247629 
L 99.831089 -86.878444 
L 100.156069 -87.513062 
L 100.481048 -88.151439 
L 100.806028 -88.793528 
L 101.131007 -89.439283 
L 101.455987 -90.088655 
L 101.780966 -90.741594 
L 102.105946 -91.398049 
L 102.430925 -92.057967 
L 102.755905 -92.721295 
L 103.080885 -93.387976 
L 103.405864 -94.057956 
L 103.730844 -94.731175 
L 104.055823 -95.407574 
L 104.380803 -96.087093 
L 104.705782 -96.769671 
L 105.030762 -97.455243 
L 105.355741 -98.143746 
L 105.680721 -98.835114 
L 106.0057 -99.529279 
L 106.33068 -100.226173 
L 106.655659 -100.925728 
L 106.980639 -101.62787 
L 107.305618 -102.332529 
L 107.630598 -103.039631 
L 107.955577 -103.749101 
L 108.280557 -104.460864 
L 108.605536 -105.174841 
L 108.930516 -105.890955 
L 109.255495 -106.609126 
L 109.580475 -107.329273 
L 109.905455 -108.051314 
L 110.230434 -108.775166 
L 110.555414 -109.500744 
L 110.880393 -110.227963 
L 111.205373 -110.956736 
L 111.530352 -111.686975 
L 111.855332 -112.418592 
L 112.180311 -113.151496 
L 112.505291 -113.885596 
L 112.83027 -114.620801 
L 113.15525 -115.357016 
L 113.480229 -116.094147 
L 113.805209 -116.832101 
L 114.130188 -117.570779 
L 114.455168 -118.310085 
L 114.780147 -119.049921 
L 115.105127 -119.790187 
L 115.430106 -120.530784 
L 115.755086 -121.271611 
L 116.080066 -122.012566 
L 116.405045 -122.753546 
L 116.730025 -123.494448 
L 117.055004 -124.235168 
L 117.379984 -124.975601 
L 117.704963 -125.71564 
L 118.029943 -126.45518 
L 118.354922 -127.194114 
L 118.679902 -127.932332 
L 119.004881 -128.669728 
L 119.329861 -129.406191 
L 119.65484 -130.141612 
L 119.97982 -130.875881 
L 120.304799 -131.608886 
L 120.629779 -132.340517 
L 120.954758 -133.070661 
L 121.279738 -133.799207 
L 121.604717 -134.526041 
L 121.929697 -135.25105 
L 122.254676 -135.974121 
L 122.579656 -136.695139 
L 122.904636 -137.413992 
L 123.229615 -138.130563 
L 123.554595 -138.84474 
L 123.879574 -139.556405 
L 124.204554 -140.265445 
L 124.529533 -140.971744 
L 124.854513 -141.675187 
L 125.179492 -142.375659 
L 125.504472 -143.073043 
L 125.829451 -143.767224 
L 126.154431 -144.458087 
L 126.47941 -145.145516 
L 126.80439 -145.829396 
L 127.129369 -146.509611 
L 127.454349 -147.186047 
L 127.779328 -147.858587 
L 128.104308 -148.527119 
L 128.429287 -149.191526 
L 128.754267 -149.851695 
L 129.079247 -150.507512 
L 129.404226 -151.158863 
L 129.729206 -151.805636 
L 130.054185 -152.447717 
L 130.379165 -153.084994 
L 130.704144 -153.717355 
L 131.029124 -154.344689 
L 131.354103 -154.966886 
L 131.679083 -155.583835 
L 132.004062 -156.195427 
L 132.329042 -156.801554 
L 132.654021 -157.402106 
L 132.979001 -157.996977 
L 133.30398 -158.58606 
L 133.62896 -159.169249 
L 133.953939 -159.746441 
L 134.278919 -160.317529 
L 134.603898 -160.882413 
L 134.928878 -161.440989 
L 135.253857 -161.993156 
L 135.578837 -162.538814 
L 135.903817 -163.077864 
L 136.228796 -163.610209 
L 136.553776 -164.135751 
L 136.878755 -164.654394 
L 137.203735 -165.166045 
L 137.528714 -165.670609 
L 137.853694 -166.167996 
L 138.178673 -166.658114 
L 138.503653 -167.140873 
L 138.828632 -167.616187 
L 139.153612 -168.083968 
L 139.478591 -168.54413 
L 139.803571 -168.996591 
L 140.12855 -169.441268 
L 140.45353 -169.878079 
L 140.778509 -170.306947 
L 141.103489 -170.727793 
L 141.428468 -171.140541 
L 141.753448 -171.545117 
L 142.078428 -171.941447 
L 142.403407 -172.329462 
L 142.728387 -172.709091 
L 143.053366 -173.080266 
L 143.378346 -173.442923 
L 143.703325 -173.796996 
L 144.028305 -174.142423 
L 144.353284 -174.479145 
L 144.678264 -174.807101 
L 145.003243 -175.126237 
L 145.328223 -175.436496 
L 145.653202 -175.737826 
L 145.978182 -176.030177 
L 146.303161 -176.313498 
L 146.628141 -176.587744 
L 146.95312 -176.852868 
L 147.2781 -177.108829 
L 147.603079 -177.355586 
L 147.928059 -177.593099 
L 148.253038 -177.821331 
L 148.578018 -178.04025 
L 148.902998 -178.249821 
L 149.227977 -178.450014 
L 149.552957 -178.640802 
L 149.877936 -178.822158 
L 150.202916 -178.994058 
L 150.527895 -179.15648 
L 150.852875 -179.309406 
L 151.177854 -179.452818 
L 151.502834 -179.5867 
L 151.827813 -179.71104 
L 152.152793 -179.825828 
L 152.477772 -179.931054 
L 152.802752 -179.472944 
L 153.127731 -179.018046 
L 153.452711 -178.566356 
L 153.77769 -178.11787 
L 154.10267 -177.672582 
L 154.427649 -177.230483 
L 154.752629 -176.791565 
L 155.077609 -176.355817 
L 155.402588 -175.923225 
L 155.727568 -175.493778 
L 156.052547 -175.067459 
L 156.377527 -174.644253 
L 156.702506 -174.22414 
L 157.027486 -173.807103 
L 157.352465 -173.39312 
L 157.677445 -172.98217 
L 158.002424 -172.574228 
L 158.327404 -172.169269 
L 158.652383 -171.767268 
L 158.977363 -171.368198 
L 159.302342 -170.972028 
L 159.627322 -170.578729 
L 159.952301 -170.18827 
L 160.277281 -169.800617 
L 160.60226 -169.415737 
L 160.92724 -169.033594 
L 161.252219 -168.654152 
L 161.577199 -168.277374 
L 161.902179 -167.903219 
L 162.227158 -167.531648 
L 162.552138 -167.162621 
L 162.877117 -166.796094 
L 163.202097 -166.432024 
L 163.527076 -166.070367 
L 163.852056 -165.711077 
L 164.177035 -165.354107 
L 164.502015 -164.999411 
L 164.826994 -164.646939 
L 165.151974 -164.296642 
L 165.476953 -163.948469 
L 165.801933 -163.60237 
L 166.126912 -163.258292 
L 166.451892 -162.916182 
L 166.776871 -162.575986 
L 167.101851 -162.237651 
L 167.42683 -161.901119 
L 167.75181 -161.566337 
L 168.07679 -161.233246 
L 168.401769 -160.901789 
L 168.726749 -160.571909 
L 169.051728 -160.243547 
L 169.376708 -159.916644 
L 169.701687 -159.591141 
L 170.026667 -159.266977 
L 170.351646 -158.944092 
L 170.676626 -158.622425 
L 171.001605 -158.301915 
L 171.326585 -157.9825 
L 171.651564 -157.664118 
L 171.976544 -157.346708 
L 172.301523 -157.030207 
L 172.626503 -156.714552 
L 172.951482 -156.399681 
L 173.276462 -156.085531 
L 173.601441 -155.772039 
L 173.926421 -155.459142 
L 174.2514 -155.146779 
L 174.57638 -154.834885 
L 174.90136 -154.523398 
L 175.226339 -154.212256 
L 175.551319 -153.901396 
L 175.876298 -153.590756 
L 176.201278 -153.280274 
L 176.526257 -152.969889 
L 176.851237 -152.659539 
L 177.176216 -152.349164 
L 177.501196 -152.038703 
L 177.826175 -151.728095 
L 178.151155 -151.417282 
L 178.476134 -151.106205 
L 178.801114 -150.794804 
L 179.126093 -150.483023 
L 179.451073 -150.170804 
L 179.776052 -149.858091 
L 180.101032 -149.544828 
L 180.426011 -149.23096 
L 180.750991 -148.916433 
L 181.075971 -148.601193 
L 181.40095 -148.285189 
L 181.72593 -147.968369 
L 182.050909 -147.650683 
L 182.375889 -147.332081 
L 182.700868 -147.012515 
L 183.025848 -146.691937 
L 183.350827 -146.370301 
L 183.675807 -146.047563 
L 184.000786 -145.723679 
L 184.325766 -145.398605 
L 184.650745 -145.072301 
L 184.975725 -144.744727 
L 185.300704 -144.415844 
L 185.625684 -144.085615 
L 185.950663 -143.754004 
L 186.275643 -143.420976 
L 186.600622 -143.086499 
L 186.925602 -142.750542 
L 187.250581 -142.413073 
L 187.575561 -142.074066 
L 187.900541 -141.733493 
L 188.22552 -141.391329 
L 188.5505 -141.047551 
L 188.875479 -140.702138 
L 189.200459 -140.355068 
L 189.525438 -140.006324 
L 189.850418 -139.65589 
L 190.175397 -139.30375 
L 190.500377 -138.949892 
L 190.825356 -138.594306 
L 191.150336 -138.23698 
L 191.475315 -137.87791 
L 191.800295 -137.517088 
L 192.125274 -137.154512 
L 192.450254 -136.790181 
L 192.775233 -136.424095 
L 193.100213 -136.056256 
L 193.425192 -135.686669 
L 193.750172 -135.148177 
L 194.075152 -134.611615 
L 194.400131 -134.077082 
L 194.725111 -133.544675 
L 195.05009 -133.014488 
L 195.37507 -132.486615 
L 195.700049 -131.96115 
L 196.025029 -131.438182 
L 196.350008 -130.917802 
L 196.674988 -130.400097 
L 196.999967 -129.885154 
L 197.324947 -129.373058 
L 197.649926 -128.863892 
L 197.974906 -128.357738 
L 198.299885 -127.854676 
L 198.624865 -127.354784 
L 198.949844 -126.858141 
L 199.274824 -126.36482 
L 199.599803 -125.874895 
L 199.924783 -125.38844 
L 200.249762 -124.905523 
L 200.574742 -124.426214 
L 200.899722 -123.95058 
L 201.224701 -123.478686 
L 201.549681 -123.010595 
L 201.87466 -122.546371 
L 202.19964 -122.086072 
L 202.524619 -121.629757 
L 202.849599 -121.177484 
L 203.174578 -120.729307 
L 203.499558 -120.28528 
L 203.824537 -119.845454 
L 204.149517 -119.409879 
L 204.474496 -118.978604 
L 204.799476 -118.551676 
L 205.124455 -118.129138 
L 205.449435 -117.711034 
L 205.774414 -117.297405 
L 206.099394 -116.888292 
L 206.424373 -116.483732 
L 206.749353 -116.083762 
L 207.074333 -115.688415 
L 207.399312 -115.297726 
L 207.724292 -114.911726 
L 208.049271 -114.530444 
L 208.374251 -114.153908 
L 208.69923 -113.782145 
L 209.02421 -113.41518 
L 209.349189 -113.053036 
L 209.674169 -112.695734 
L 209.999148 -112.343296 
L 210.324128 -111.995738 
L 210.649107 -111.653079 
L 210.974087 -111.315333 
L 211.299066 -110.982515 
L 211.624046 -110.654638 
L 211.949025 -110.331712 
L 212.274005 -110.013747 
L 212.598984 -109.70075 
L 212.923964 -109.39273 
L 213.248943 -109.089691 
L 213.573923 -108.791638 
L 213.898903 -108.498572 
L 214.223882 -108.210496 
L 214.548862 -107.927409 
L 214.873841 -107.649311 
L 215.198821 -107.376199 
L 215.5238 -107.108069 
L 215.84878 -106.844916 
L 216.173759 -106.586735 
L 216.498739 -106.333519 
L 216.823718 -106.085259 
L 217.148698 -105.841945 
L 217.473677 -105.603569 
L 217.798657 -105.370117 
L 218.123636 -105.141579 
L 218.448616 -104.91794 
L 218.773595 -104.699187 
L 219.098575 -104.485303 
L 219.423554 -104.276274 
L 219.748534 -104.072082 
L 220.073514 -103.87271 
L 220.398493 -103.678139 
L 220.723473 -103.488349 
L 221.048452 -103.201619 
L 221.373432 -102.920649 
L 221.698411 -102.645578 
L 222.023391 -102.376544 
L 222.34837 -102.113685 
L 222.67335 -101.85714 
L 222.998329 -101.607047 
L 223.323309 -101.363541 
L 223.648288 -101.126762 
L 223.973268 -100.896845 
L 224.298247 -100.673927 
L 224.623227 -100.458144 
L 224.948206 -100.249631 
L 225.273186 -100.048522 
L 225.598165 -99.854952 
L 225.923145 -99.669053 
L 226.248124 -99.490959 
L 226.573104 -99.320801 
L 226.898084 -99.158709 
L 227.223063 -99.004814 
L 227.548043 -98.859244 
L 227.873022 -98.722127 
L 228.198002 -98.59359 
L 228.522981 -98.473758 
L 228.847961 -98.362756 
L 229.17294 -98.260706 
L 229.49792 -98.167731 
L 229.822899 -98.083951 
L 230.147879 -98.009485 
L 230.472858 -97.94445 
L 230.797838 -97.888963 
L 231.122817 -97.843137 
L 231.447797 -97.807087 
L 231.772776 -97.780922 
L 232.097756 -97.764752 
L 232.422735 -97.758686 
L 232.747715 -97.762829 
L 233.072695 -97.777285 
L 233.397674 -97.802156 
L 233.722654 -97.837542 
L 234.047633 -97.883542 
L 234.372613 -97.940252 
L 234.697592 -98.007765 
L 235.022572 -98.086175 
L 235.347551 -98.175569 
L 235.672531 -98.276038 
L 235.99751 -98.387664 
L 236.32249 -98.510532 
L 236.647469 -98.644722 
L 236.972449 -98.790313 
L 237.297428 -98.94738 
L 237.622408 -99.115997 
L 237.947387 -99.296234 
L 238.272367 -99.488161 
L 238.597346 -99.691844 
L 238.922326 -99.730356 
L 239.247305 -99.772325 
L 239.572285 -99.81774 
L 239.897265 -99.86659 
L 240.222244 -99.918866 
L 240.547224 -99.974558 
L 240.872203 -100.033658 
L 241.197183 -100.09616 
L 241.522162 -100.162057 
L 241.847142 -100.231344 
L 242.172121 -100.304016 
L 242.497101 -100.38007 
L 242.82208 -100.459504 
L 243.14706 -100.542315 
L 243.472039 -100.628503 
L 243.797019 -100.718068 
L 244.121998 -100.811012 
L 244.446978 -100.907336 
L 244.771957 -101.007043 
L 245.096937 -101.110138 
L 245.421916 -101.216625 
L 245.746896 -101.32651 
L 246.071876 -101.4398 
L 246.396855 -101.556502 
L 246.721835 -101.676626 
L 247.046814 -101.800181 
L 247.371794 -101.927177 
L 247.696773 -102.057627 
L 248.021753 -102.191542 
L 248.346732 -102.328935 
L 248.671712 -102.469822 
L 248.996691 -102.614217 
L 249.321671 -102.762135 
L 249.64665 -102.913595 
L 249.97163 -103.068614 
L 250.296609 -103.22721 
L 250.621589 -103.389403 
L 250.946568 -103.555213 
L 251.271548 -103.724662 
L 251.596527 -103.897772 
L 251.921507 -104.074564 
L 252.246486 -104.255063 
L 252.571466 -104.439294 
L 252.896446 -104.62728 
L 253.221425 -104.819049 
L 253.546405 -105.014626 
L 253.871384 -105.214038 
L 254.196364 -105.417315 
L 254.521343 -105.624483 
L 254.846323 -105.835573 
L 255.171302 -106.050614 
L 255.496282 -106.269637 
L 255.821261 -106.492673 
L 256.146241 -106.719752 
L 256.47122 -106.950908 
L 256.7962 -107.186173 
L 257.121179 -107.425579 
L 257.446159 -107.669161 
L 257.771138 -107.916953 
L 258.096118 -108.168988 
L 258.421097 -108.425301 
L 258.746077 -108.685928 
L 259.071057 -108.950904 
L 259.396036 -109.220265 
L 259.721016 -109.494046 
L 260.045995 -109.772284 
L 260.370975 -110.055016 
L 260.695954 -110.342277 
L 261.020934 -110.634105 
L 261.345913 -110.930536 
L 261.670893 -111.231609 
L 261.995872 -111.537358 
L 262.320852 -111.847823 
L 262.645831 -112.163039 
L 262.970811 -112.483044 
L 263.29579 -112.807875 
L 263.62077 -113.137568 
L 263.945749 -113.472161 
L 264.270729 -113.811691 
L 264.595708 -114.156192 
L 264.920688 -114.505703 
L 265.245667 -114.860258 
L 265.570647 -115.219894 
L 265.895627 -115.584645 
L 266.220606 -115.954546 
L 266.545586 -116.329633 
L 266.870565 -116.70994 
L 267.195545 -117.095499 
L 267.520524 -117.486345 
L 267.845504 -117.88251 
L 268.170483 -118.284026 
L 268.495463 -118.690924 
L 268.820442 -119.103236 
L 269.145422 -119.520992 
L 269.470401 -119.944222 
L 269.795381 -120.372954 
L 270.12036 -120.807216 
L 270.44534 -121.247036 
L 270.770319 -121.69244 
L 271.095299 -122.143454 
L 271.420278 -122.600102 
L 271.745258 -123.062409 
L 272.070238 -123.530397 
L 272.395217 -124.004088 
L 272.720197 -124.483504 
L 273.045176 -124.968663 
L 273.370156 -125.459585 
L 273.695135 -125.956287 
L 274.020115 -126.458785 
L 274.345094 -126.967096 
L 274.670074 -127.481233 
L 274.995053 -128.001209 
L 275.320033 -128.527036 
L 275.645012 -129.058724 
L 275.969992 -129.596282 
L 276.294971 -130.139719 
L 276.619951 -130.689039 
L 276.94493 -131.244248 
L 277.26991 -131.80535 
L 277.594889 -132.372347 
L 277.919869 -132.945239 
L 278.244848 -133.524025 
L 278.569828 -134.108703 
L 278.894808 -134.699269 
L 279.219787 -135.295718 
L 279.544767 -135.898041 
L 279.869746 -136.506231 
L 280.194726 -137.120277 
L 280.519705 -137.740167 
L 280.844685 -138.365886 
L 281.169664 -138.997421 
L 281.494644 -139.634752 
L 281.819623 -140.277862 
L 282.144603 -140.92673 
L 282.469582 -141.581332 
L 282.794562 -142.241646 
L 283.119541 -142.907644 
L 283.444521 -143.5793 
L 283.7695 -144.256582 
L 284.09448 -144.939459 
L 284.419459 -145.627899 
L 284.744439 -146.321865 
L 285.069419 -147.02132 
L 285.394398 -147.726225 
L 285.719378 -148.436539 
L 286.044357 -149.152219 
L 286.369337 -149.87322 
L 286.694316 -150.599494 
L 287.019296 -151.330994 
L 287.344275 -152.067667 
L 287.669255 -152.809462 
L 287.994234 -153.556324 
L 288.319214 -154.308195 
L 288.644193 -155.065017 
L 288.969173 -155.826729 
L 289.294152 -156.593268 
L 289.619132 -157.364571 
L 289.944111 -158.140569 
L 290.269091 -158.921194 
L 290.59407 -159.706376 
L 290.91905 -160.496042 
L 291.244029 -161.290117 
L 291.569009 -162.088525 
L 291.893989 -162.891186 
L 292.218968 -163.69802 
L 292.543948 -164.508946 
L 292.868927 -165.323877 
L 293.193907 -166.142727 
L 293.518886 -166.965409 
L 293.843866 -167.791831 
L 294.168845 -168.621902 
L 294.493825 -169.455526 
L 294.818804 -170.292609 
L 295.143784 -171.133051 
L 295.468763 -171.976753 
L 295.793743 -172.823613 
L 296.118722 -173.673528 
L 296.443702 -174.526391 
L 296.768681 -175.382095 
L 297.093661 -176.240532 
L 297.41864 -177.101591 
L 297.74362 -177.965157 
L 298.0686 -178.831118 
L 298.393579 -179.699357 
L 298.718559 -180.569756 
L 299.043538 -181.442195 
L 299.368518 -182.316553 
L 299.693497 -183.192707 
L 300.018477 -184.070532 
L 300.343456 -184.949903 
L 300.668436 -185.830691 
L 300.993415 -186.712767 
L 301.318395 -187.596 
L 301.643374 -188.480259 
L 301.968354 -189.365408 
L 302.293333 -190.251313 
L 302.618313 -191.137837 
L 302.943292 -192.024842 
L 303.268272 -192.912189 
L 303.593251 -193.799737 
L 303.918231 -194.687343 
L 304.24321 -195.574864 
L 304.56819 -196.462156 
L 304.89317 -197.349073 
L 305.218149 -198.235468 
L 305.543129 -199.121193 
L 305.868108 -200.006098 
L 306.193088 -200.890034 
L 306.518067 -201.77285 
L 306.843047 -202.654392 
L 307.168026 -203.534508 
L 307.493006 -204.413043 
L 307.817985 -205.289843 
L 308.142965 -206.164752 
L 308.467944 -207.037612 
L 308.792924 -207.908267 
L 309.117903 -208.776559 
L 309.442883 -209.642328 
L 309.767862 -210.505415 
L 310.092842 -211.36566 
L 310.417821 -212.222902 
L 310.742801 -213.07698 
L 311.067781 -213.927732 
L 311.39276 -214.774996 
L 311.71774 -215.618611 
L 312.042719 -216.458411 
L 312.367699 -217.294236 
L 312.692678 -218.12592 
L 313.017658 -218.953301 
L 313.342637 -219.776214 
L 313.667617 -220.594496 
L 313.992596 -221.407982 
L 314.317576 -222.216508 
L 314.642555 -223.01991 
L 314.967535 -223.818024 
L 315.292514 -224.610685 
L 315.617494 -225.39773 
L 315.942473 -226.178995 
L 316.267453 -226.954316 
L 316.592432 -227.72353 
L 316.917412 -228.486475 
L 317.242391 -229.242986 
L 317.567371 -229.992903 
L 317.892351 -230.736062 
L 318.21733 -231.472304 
L 318.54231 -232.201466 
L 318.867289 -232.923389 
L 319.192269 -233.637913 
L 319.517248 -234.34488 
L 319.842228 -235.04413 
L 320.167207 -235.735506 
L 320.492187 -236.418852 
L 320.817166 -237.094012 
L 321.142146 -237.76083 
L 321.467125 -238.419153 
L 321.792105 -239.068827 
L 322.117084 -239.709701 
L 322.442064 -240.341624 
L 322.767043 -240.964445 
L 323.092023 -241.578016 
L 323.417002 -242.182188 
L 323.741982 -242.776817 
L 324.066962 -243.361757 
L 324.391941 -243.936864 
L 324.716921 -244.501995 
L 325.0419 -245.05701 
L 325.36688 -245.60177 
L 325.691859 -246.136135 
L 326.016839 -246.659971 
L 326.341818 -247.17314 
L 326.666798 -247.675512 
L 326.991777 -248.166952 
L 327.316757 -248.647333 
L 327.641736 -249.116525 
L 327.966716 -249.574401 
L 328.291695 -250.020837 
L 328.616675 -250.455711 
L 328.941654 -250.8789 
L 329.266634 -251.290287 
L 329.591613 -251.689753 
L 329.916593 -252.077183 
L 330.241572 -252.452465 
L 330.566552 -252.815487 
L 330.891532 -253.16614 
L 331.216511 -253.504317 
L 331.541491 -253.829913 
L 331.86647 -254.142826 
L 332.19145 -254.442955 
L 332.516429 -254.730203 
L 332.841409 -255.004472 
L 333.166388 -255.26567 
L 333.491368 -255.513705 
L 333.816347 -255.748488 
L 334.141327 -255.969933 
L 334.466306 -256.177955 
L 334.791286 -256.372473 
L 335.116265 -256.553408 
L 335.441245 -256.720683 
L 335.766224 -256.874223 
L 336.091204 -257.013957 
L 336.416183 -257.139816 
L 336.741163 -257.251733 
L 337.066143 -257.349644 
L 337.391122 -257.433488 
L 337.716102 -257.503206 
L 338.041081 -257.558742 
L 338.366061 -257.600043 
L 338.69104 -257.627057 
L 339.01602 -257.639737 
L 339.340999 -257.638038 
L 339.665979 -257.621918 
L 339.990958 -256.802627 
L 340.315938 -255.978113 
L 340.640917 -255.148564 
L 340.965897 -254.314172 
L 341.290876 -253.475126 
L 341.615856 -252.631619 
L 341.940835 -251.78384 
L 342.265815 -250.931983 
L 342.590794 -250.076238 
L 342.915774 -249.216799 
L 343.240753 -248.353857 
L 343.565733 -247.487606 
L 343.890713 -246.618238 
L 344.215692 -245.745947 
L 344.540672 -244.870924 
L 344.865651 -243.993362 
L 345.190631 -243.113455 
L 345.51561 -242.231395 
L 345.84059 -241.347375 
L 346.165569 -240.461586 
L 346.490549 -239.57422 
L 346.815528 -238.68547 
L 347.140508 -237.795526 
L 347.465487 -236.90458 
L 347.790467 -236.012822 
L 348.115446 -235.120442 
L 348.440426 -234.22763 
L 348.765405 -233.334575 
L 349.090385 -232.441465 
L 349.415364 -231.548487 
L 349.740344 -230.655829 
L 350.065324 -229.763678 
L 350.390303 -228.872218 
L 350.715283 -227.981635 
L 351.040262 -227.092112 
L 351.365242 -226.203833 
L 351.690221 -225.31698 
L 352.015201 -224.431733 
L 352.34018 -223.548272 
L 352.66516 -222.666778 
L 352.990139 -221.787428 
L 353.315119 -220.910398 
L 353.640098 -220.035864 
L 353.965078 -219.164002 
L 354.290057 -218.294983 
L 354.615037 -217.42898 
L 354.940016 -216.566165 
L 355.264996 -215.706705 
L 355.589975 -214.850769 
L 355.914955 -213.998524 
L 356.239934 -213.150134 
L 356.564914 -212.305764 
L 356.889894 -211.465574 
L 357.214873 -210.629726 
L 357.539853 -209.798379 
L 357.864832 -208.97169 
L 358.189812 -208.149814 
L 358.514791 -207.332906 
L 358.839771 -206.521118 
L 359.16475 -205.7146 
L 359.48973 -204.913502 
L 359.814709 -204.117969 
L 360.139689 -203.328148 
L 360.464668 -202.544181 
L 360.789648 -201.766211 
L 361.114627 -200.994376 
L 361.439607 -200.228814 
L 361.764586 -199.469661 
L 362.089566 -198.71705 
L 362.414545 -197.971114 
L 362.739525 -197.231981 
L 363.064505 -196.49978 
L 363.389484 -195.774635 
L 363.714464 -195.056671 
L 364.039443 -194.346009 
L 364.364423 -193.642767 
L 364.689402 -192.947063 
L 365.014382 -192.259012 
L 365.339361 -191.578726 
L 365.664341 -190.906317 
L 365.98932 -190.241891 
L 366.3143 -189.585556 
L 366.639279 -188.937415 
L 366.964259 -188.297569 
L 367.289238 -187.666118 
L 367.614218 -187.043158 
L 367.939197 -186.428785 
L 368.264177 -185.82309 
L 368.589156 -185.226164 
L 368.914136 -184.638094 
L 369.239115 -184.058966 
L 369.564095 -183.488862 
L 369.889075 -182.927863 
L 370.214054 -182.376048 
L 370.539034 -181.833491 
L 370.864013 -181.300267 
L 371.188993 -180.776446 
L 371.513972 -180.262097 
L 371.838952 -179.757287 
L 372.163931 -179.262079 
L 372.488911 -178.776534 
L 372.81389 -178.300712 
L 373.13887 -177.83467 
L 373.463849 -177.37846 
L 373.788829 -176.932136 
L 374.113808 -176.495745 
L 374.438788 -176.069337 
L 374.763767 -175.652954 
L 375.088747 -175.246639 
L 375.413726 -174.850432 
L 375.738706 -174.464369 
L 376.063686 -173.200458 
L 376.388665 -171.933149 
L 376.713645 -170.662621 
L 377.038624 -169.389055 
L 377.363604 -168.112631 
L 377.688583 -166.833529 
L 378.013563 -165.551929 
L 378.338542 -164.268011 
L 378.663522 -162.981954 
L 378.988501 -161.693938 
L 379.313481 -160.40414 
L 379.63846 -159.11274 
L 379.96344 -157.819916 
L 380.288419 -156.525844 
L 380.613399 -155.230703 
L 380.938378 -153.934669 
L 381.263358 -152.637917 
L 381.588337 -151.340623 
L 381.913317 -150.042963 
L 382.238296 -148.745109 
L 382.563276 -147.447235 
L 382.888256 -146.149514 
L 383.213235 -144.852118 
L 383.538215 -143.555217 
L 383.863194 -142.258981 
L 384.188174 -140.96358 
L 384.513153 -139.669182 
L 384.838133 -138.375953 
L 385.163112 -137.084061 
L 385.488092 -135.793669 
L 385.813071 -134.504943 
L 386.138051 -133.218044 
L 386.46303 -131.933136 
L 386.78801 -130.650377 
L 387.112989 -129.369928 
L 387.437969 -128.091947 
L 387.762948 -126.81659 
L 388.087928 -125.544012 
L 388.412907 -124.274369 
L 388.737887 -123.007812 
L 389.062867 -121.744493 
L 389.387846 -120.484562 
L 389.712826 -119.228167 
L 390.037805 -117.975456 
L 390.362785 -116.726572 
L 390.687764 -115.481662 
L 391.012744 -114.240866 
L 391.337723 -113.004325 
L 391.662703 -111.772179 
L 391.987682 -110.544564 
L 392.312662 -109.321617 
L 392.637641 -108.103472 
L 392.962621 -106.890261 
L 393.2876 -105.682114 
L 393.61258 -104.479161 
L 393.937559 -103.281528 
L 394.262539 -102.089341 
L 394.587518 -100.902724 
L 394.912498 -99.721797 
L 395.237477 -98.546681 
L 395.562457 -97.377493 
L 395.887437 -96.21435 
L 396.212416 -95.057365 
L 396.537396 -93.906651 
L 396.862375 -92.762318 
L 397.187355 -91.624474 
L 397.512334 -90.493225 
L 397.837314 -89.368677 
L 398.162293 -88.250931 
L 398.487273 -87.140087 
L 398.487273 -172.438767 
L 398.487273 -172.438767 
L 398.162293 -172.151887 
L 397.837314 -171.872628 
L 397.512334 -171.601079 
L 397.187355 -171.337329 
L 396.862375 -171.081465 
L 396.537396 -170.833575 
L 396.212416 -170.593744 
L 395.887437 -170.362057 
L 395.562457 -170.138598 
L 395.237477 -169.923448 
L 394.912498 -169.71669 
L 394.587518 -169.518404 
L 394.262539 -169.328668 
L 393.937559 -169.14756 
L 393.61258 -168.975158 
L 393.2876 -168.811535 
L 392.962621 -168.656766 
L 392.637641 -168.510923 
L 392.312662 -168.374078 
L 391.987682 -168.246301 
L 391.662703 -168.127659 
L 391.337723 -168.018219 
L 391.012744 -167.918048 
L 390.687764 -167.827208 
L 390.362785 -167.745761 
L 390.037805 -167.67377 
L 389.712826 -167.611292 
L 389.387846 -167.558386 
L 389.062867 -167.515106 
L 388.737887 -167.481508 
L 388.412907 -167.457643 
L 388.087928 -167.443563 
L 387.762948 -167.439315 
L 387.437969 -167.444949 
L 387.112989 -167.460508 
L 386.78801 -167.486036 
L 386.46303 -167.521575 
L 386.138051 -167.567164 
L 385.813071 -167.622843 
L 385.488092 -167.688645 
L 385.163112 -167.764606 
L 384.838133 -167.850758 
L 384.513153 -167.94713 
L 384.188174 -168.05375 
L 383.863194 -168.170645 
L 383.538215 -168.297838 
L 383.213235 -168.435352 
L 382.888256 -168.583205 
L 382.563276 -168.741416 
L 382.238296 -168.910001 
L 381.913317 -169.088971 
L 381.588337 -169.27834 
L 381.263358 -169.478115 
L 380.938378 -169.688303 
L 380.613399 -169.90891 
L 380.288419 -170.139937 
L 379.96344 -170.381384 
L 379.63846 -170.633251 
L 379.313481 -170.895531 
L 378.988501 -171.168218 
L 378.663522 -171.451304 
L 378.338542 -171.744777 
L 378.013563 -172.048623 
L 377.688583 -172.362827 
L 377.363604 -172.68737 
L 377.038624 -173.022232 
L 376.713645 -173.36739 
L 376.388665 -173.722817 
L 376.063686 -174.088487 
L 375.738706 -174.464369 
L 375.413726 -175.724702 
L 375.088747 -176.981275 
L 374.763767 -178.23391 
L 374.438788 -179.482425 
L 374.113808 -180.726642 
L 373.788829 -181.966381 
L 373.463849 -183.201462 
L 373.13887 -184.431706 
L 372.81389 -185.656935 
L 372.488911 -186.876971 
L 372.163931 -188.091636 
L 371.838952 -189.300752 
L 371.513972 -190.504144 
L 371.188993 -191.701634 
L 370.864013 -192.893048 
L 370.539034 -194.07821 
L 370.214054 -195.256946 
L 369.889075 -196.429083 
L 369.564095 -197.594448 
L 369.239115 -198.75287 
L 368.914136 -199.904178 
L 368.589156 -201.048201 
L 368.264177 -202.184771 
L 367.939197 -203.313719 
L 367.614218 -204.434879 
L 367.289238 -205.548086 
L 366.964259 -206.653173 
L 366.639279 -207.749978 
L 366.3143 -208.838339 
L 365.98932 -209.918094 
L 365.664341 -210.989085 
L 365.339361 -212.051151 
L 365.014382 -213.104137 
L 364.689402 -214.147887 
L 364.364423 -215.182247 
L 364.039443 -216.207064 
L 363.714464 -217.222187 
L 363.389484 -218.227467 
L 363.064505 -219.222756 
L 362.739525 -220.207908 
L 362.414545 -221.182779 
L 362.089566 -222.147225 
L 361.764586 -223.101106 
L 361.439607 -224.044283 
L 361.114627 -224.976618 
L 360.789648 -225.897977 
L 360.464668 -226.808225 
L 360.139689 -227.707232 
L 359.814709 -228.594867 
L 359.48973 -229.471004 
L 359.16475 -230.335516 
L 358.839771 -231.188281 
L 358.514791 -232.029178 
L 358.189812 -232.858087 
L 357.864832 -233.674891 
L 357.539853 -234.479476 
L 357.214873 -235.27173 
L 356.889894 -236.051542 
L 356.564914 -236.818805 
L 356.239934 -237.573412 
L 355.914955 -238.315262 
L 355.589975 -239.044253 
L 355.264996 -239.760288 
L 354.940016 -240.463269 
L 354.615037 -241.153104 
L 354.290057 -241.829702 
L 353.965078 -242.492975 
L 353.640098 -243.142836 
L 353.315119 -243.779203 
L 352.990139 -244.401994 
L 352.66516 -245.011132 
L 352.34018 -245.606541 
L 352.015201 -246.188149 
L 351.690221 -246.755884 
L 351.365242 -247.30968 
L 351.040262 -247.849472 
L 350.715283 -248.375198 
L 350.390303 -248.886798 
L 350.065324 -249.384216 
L 349.740344 -249.867397 
L 349.415364 -250.336292 
L 349.090385 -250.790851 
L 348.765405 -251.231029 
L 348.440426 -251.656783 
L 348.115446 -252.068073 
L 347.790467 -252.464863 
L 347.465487 -252.847118 
L 347.140508 -253.214806 
L 346.815528 -253.5679 
L 346.490549 -253.906373 
L 346.165569 -254.230203 
L 345.84059 -254.539369 
L 345.51561 -254.833854 
L 345.190631 -255.113645 
L 344.865651 -255.37873 
L 344.540672 -255.629101 
L 344.215692 -255.864751 
L 343.890713 -256.085678 
L 343.565733 -256.291883 
L 343.240753 -256.483368 
L 342.915774 -256.660139 
L 342.590794 -256.822204 
L 342.265815 -256.969577 
L 341.940835 -257.10227 
L 341.615856 -257.220301 
L 341.290876 -257.323691 
L 340.965897 -257.412462 
L 340.640917 -257.48664 
L 340.315938 -257.546254 
L 339.990958 -257.591335 
L 339.665979 -257.621918 
L 339.340999 -258.435795 
L 339.01602 -259.244072 
L 338.69104 -260.046559 
L 338.366061 -260.843071 
L 338.041081 -261.633419 
L 337.716102 -262.41742 
L 337.391122 -263.194887 
L 337.066143 -263.965637 
L 336.741163 -264.729488 
L 336.416183 -265.486256 
L 336.091204 -266.235762 
L 335.766224 -266.977824 
L 335.441245 -267.712265 
L 335.116265 -268.438907 
L 334.791286 -269.157572 
L 334.466306 -269.868086 
L 334.141327 -270.570275 
L 333.816347 -271.263965 
L 333.491368 -271.948986 
L 333.166388 -272.625168 
L 332.841409 -273.292342 
L 332.516429 -273.95034 
L 332.19145 -274.598999 
L 331.86647 -275.238152 
L 331.541491 -275.867639 
L 331.216511 -276.487299 
L 330.891532 -277.096971 
L 330.566552 -277.6965 
L 330.241572 -278.28573 
L 329.916593 -278.864506 
L 329.591613 -279.432678 
L 329.266634 -279.990094 
L 328.941654 -280.536608 
L 328.616675 -281.072073 
L 328.291695 -281.596344 
L 327.966716 -282.10928 
L 327.641736 -282.610741 
L 327.316757 -283.100588 
L 326.991777 -283.578687 
L 326.666798 -284.044903 
L 326.341818 -284.499105 
L 326.016839 -284.941165 
L 325.691859 -285.370954 
L 325.36688 -285.788349 
L 325.0419 -286.193227 
L 324.716921 -286.585469 
L 324.391941 -286.964957 
L 324.066962 -287.331577 
L 323.741982 -287.685215 
L 323.417002 -288.025761 
L 323.092023 -288.353109 
L 322.767043 -288.667154 
L 322.442064 -288.967792 
L 322.117084 -289.254924 
L 321.792105 -289.528454 
L 321.467125 -289.788286 
L 321.142146 -290.03433 
L 320.817166 -290.266495 
L 320.492187 -290.484696 
L 320.167207 -290.68885 
L 319.842228 -290.878875 
L 319.517248 -291.054694 
L 319.192269 -291.216231 
L 318.867289 -291.363415 
L 318.54231 -291.496176 
L 318.21733 -291.614447 
L 317.892351 -291.718166 
L 317.567371 -291.807271 
L 317.242391 -291.881705 
L 316.917412 -291.941413 
L 316.592432 -291.986344 
L 316.267453 -292.016449 
L 315.942473 -292.031681 
L 315.617494 -292.032 
L 315.292514 -292.017365 
L 314.967535 -291.987739 
L 314.642555 -291.943089 
L 314.317576 -291.883385 
L 313.992596 -291.808599 
L 313.667617 -291.718708 
L 313.342637 -291.61369 
L 313.017658 -291.493527 
L 312.692678 -291.358205 
L 312.367699 -291.207711 
L 312.042719 -291.042039 
L 311.71774 -290.861181 
L 311.39276 -290.665136 
L 311.067781 -290.453905 
L 310.742801 -290.227492 
L 310.417821 -289.985904 
L 310.092842 -289.729152 
L 309.767862 -289.45725 
L 309.442883 -289.170214 
L 309.117903 -288.868064 
L 308.792924 -288.550823 
L 308.467944 -288.218519 
L 308.142965 -287.871179 
L 307.817985 -287.508838 
L 307.493006 -287.131531 
L 307.168026 -286.739296 
L 306.843047 -286.332176 
L 306.518067 -285.910216 
L 306.193088 -285.473466 
L 305.868108 -285.021975 
L 305.543129 -284.555799 
L 305.218149 -284.074996 
L 304.89317 -283.579627 
L 304.56819 -283.069755 
L 304.24321 -282.545448 
L 303.918231 -282.006776 
L 303.593251 -281.453812 
L 303.268272 -280.886632 
L 302.943292 -280.305315 
L 302.618313 -279.709945 
L 302.293333 -279.100605 
L 301.968354 -278.477384 
L 301.643374 -277.840374 
L 301.318395 -277.189669 
L 300.993415 -276.525366 
L 300.668436 -275.847564 
L 300.343456 -275.156367 
L 300.018477 -274.45188 
L 299.693497 -273.734211 
L 299.368518 -273.003473 
L 299.043538 -272.25978 
L 298.718559 -271.503248 
L 298.393579 -270.733996 
L 298.0686 -269.952149 
L 297.74362 -269.15783 
L 297.41864 -268.351167 
L 297.093661 -267.53229 
L 296.768681 -266.701334 
L 296.443702 -265.858433 
L 296.118722 -265.003725 
L 295.793743 -264.137351 
L 295.468763 -263.259455 
L 295.143784 -262.370182 
L 294.818804 -261.469679 
L 294.493825 -260.558098 
L 294.168845 -259.635591 
L 293.843866 -258.702314 
L 293.518886 -257.758423 
L 293.193907 -256.804078 
L 292.868927 -255.839441 
L 292.543948 -254.864677 
L 292.218968 -253.879951 
L 291.893989 -252.885432 
L 291.569009 -251.881291 
L 291.244029 -250.867698 
L 290.91905 -249.84483 
L 290.59407 -248.812861 
L 290.269091 -247.771972 
L 289.944111 -246.72234 
L 289.619132 -245.66415 
L 289.294152 -244.597583 
L 288.969173 -243.522826 
L 288.644193 -242.440066 
L 288.319214 -241.349491 
L 287.994234 -240.251293 
L 287.669255 -239.145662 
L 287.344275 -238.032793 
L 287.019296 -236.912879 
L 286.694316 -235.786119 
L 286.369337 -234.652709 
L 286.044357 -233.512848 
L 285.719378 -232.366737 
L 285.394398 -231.214578 
L 285.069419 -230.056572 
L 284.744439 -228.892925 
L 284.419459 -227.723841 
L 284.09448 -226.549525 
L 283.7695 -225.370186 
L 283.444521 -224.186031 
L 283.119541 -222.997268 
L 282.794562 -221.804108 
L 282.469582 -220.606761 
L 282.144603 -219.405438 
L 281.819623 -218.200351 
L 281.494644 -216.991712 
L 281.169664 -215.779735 
L 280.844685 -214.564633 
L 280.519705 -213.346621 
L 280.194726 -212.125912 
L 279.869746 -210.902722 
L 279.544767 -209.677265 
L 279.219787 -208.449758 
L 278.894808 -207.220416 
L 278.569828 -205.989454 
L 278.244848 -204.757089 
L 277.919869 -203.523537 
L 277.594889 -202.289013 
L 277.26991 -201.053734 
L 276.94493 -199.817915 
L 276.619951 -198.581771 
L 276.294971 -197.345519 
L 275.969992 -196.109373 
L 275.645012 -194.873549 
L 275.320033 -193.638259 
L 274.995053 -192.40372 
L 274.670074 -191.170143 
L 274.345094 -189.937742 
L 274.020115 -188.706729 
L 273.695135 -187.477317 
L 273.370156 -186.249715 
L 273.045176 -185.024134 
L 272.720197 -183.800784 
L 272.395217 -182.579873 
L 272.070238 -181.361609 
L 271.745258 -180.146198 
L 271.420278 -178.933846 
L 271.095299 -177.724758 
L 270.770319 -176.519137 
L 270.44534 -175.317185 
L 270.12036 -174.119104 
L 269.795381 -172.925093 
L 269.470401 -171.735351 
L 269.145422 -170.550074 
L 268.820442 -169.369459 
L 268.495463 -168.1937 
L 268.170483 -167.022988 
L 267.845504 -165.857516 
L 267.520524 -164.697473 
L 267.195545 -163.543046 
L 266.870565 -162.394422 
L 266.545586 -161.251785 
L 266.220606 -160.115317 
L 265.895627 -158.985199 
L 265.570647 -157.86161 
L 265.245667 -156.744726 
L 264.920688 -155.634723 
L 264.595708 -154.531773 
L 264.270729 -153.436047 
L 263.945749 -152.347713 
L 263.62077 -151.266938 
L 263.29579 -150.193887 
L 262.970811 -149.12872 
L 262.645831 -148.071598 
L 262.320852 -147.022677 
L 261.995872 -145.982114 
L 261.670893 -144.950061 
L 261.345913 -143.926668 
L 261.020934 -142.912082 
L 260.695954 -141.906449 
L 260.370975 -140.909912 
L 260.045995 -139.92261 
L 259.721016 -138.944681 
L 259.396036 -137.97626 
L 259.071057 -137.017479 
L 258.746077 -136.068468 
L 258.421097 -135.129353 
L 258.096118 -134.200258 
L 257.771138 -133.281305 
L 257.446159 -132.372611 
L 257.121179 -131.474293 
L 256.7962 -130.586463 
L 256.47122 -129.709231 
L 256.146241 -128.842703 
L 255.821261 -127.986984 
L 255.496282 -127.142174 
L 255.171302 -126.308372 
L 254.846323 -125.485673 
L 254.521343 -124.674167 
L 254.196364 -123.873945 
L 253.871384 -123.085093 
L 253.546405 -122.307692 
L 253.221425 -121.541822 
L 252.896446 -120.787561 
L 252.571466 -120.044981 
L 252.246486 -119.314154 
L 251.921507 -118.595145 
L 251.596527 -117.88802 
L 251.271548 -117.192839 
L 250.946568 -116.50966 
L 250.621589 -115.838537 
L 250.296609 -115.179522 
L 249.97163 -114.532663 
L 249.64665 -113.898006 
L 249.321671 -113.275591 
L 248.996691 -112.665457 
L 248.671712 -112.067641 
L 248.346732 -111.482173 
L 248.021753 -110.909084 
L 247.696773 -110.3484 
L 247.371794 -109.800142 
L 247.046814 -109.26433 
L 246.721835 -108.740981 
L 246.396855 -108.230108 
L 246.071876 -107.731721 
L 245.746896 -107.245827 
L 245.421916 -106.772429 
L 245.096937 -106.311529 
L 244.771957 -105.863123 
L 244.446978 -105.427207 
L 244.121998 -105.00377 
L 243.797019 -104.592803 
L 243.472039 -104.194289 
L 243.14706 -103.808211 
L 242.82208 -103.434548 
L 242.497101 -103.073277 
L 242.172121 -102.724369 
L 241.847142 -102.387797 
L 241.522162 -102.063526 
L 241.197183 -101.751521 
L 240.872203 -101.451744 
L 240.547224 -101.164153 
L 240.222244 -100.888704 
L 239.897265 -100.62535 
L 239.572285 -100.374041 
L 239.247305 -100.134724 
L 238.922326 -99.907344 
L 238.597346 -99.691844 
L 238.272367 -99.6568 
L 237.947387 -99.62524 
L 237.622408 -99.597175 
L 237.297428 -99.57262 
L 236.972449 -99.551592 
L 236.647469 -99.534106 
L 236.32249 -99.520178 
L 235.99751 -99.509827 
L 235.672531 -99.50307 
L 235.347551 -99.499926 
L 235.022572 -99.500415 
L 234.697592 -99.504558 
L 234.372613 -99.512373 
L 234.047633 -99.523884 
L 233.722654 -99.539112 
L 233.397674 -99.558079 
L 233.072695 -99.580808 
L 232.747715 -99.607323 
L 232.422735 -99.637648 
L 232.097756 -99.671806 
L 231.772776 -99.709823 
L 231.447797 -99.751723 
L 231.122817 -99.797533 
L 230.797838 -99.847278 
L 230.472858 -99.900985 
L 230.147879 -99.958678 
L 229.822899 -100.020387 
L 229.49792 -100.086136 
L 229.17294 -100.155954 
L 228.847961 -100.229867 
L 228.522981 -100.307904 
L 228.198002 -100.390091 
L 227.873022 -100.476456 
L 227.548043 -100.567027 
L 227.223063 -100.661832 
L 226.898084 -100.760897 
L 226.573104 -100.864252 
L 226.248124 -100.971922 
L 225.923145 -101.083936 
L 225.598165 -101.200321 
L 225.273186 -101.321104 
L 224.948206 -101.446312 
L 224.623227 -101.575972 
L 224.298247 -101.710109 
L 223.973268 -101.848751 
L 223.648288 -101.991922 
L 223.323309 -102.139649 
L 222.998329 -102.291956 
L 222.67335 -102.448867 
L 222.34837 -102.610408 
L 222.023391 -102.7766 
L 221.698411 -102.947469 
L 221.373432 -103.123035 
L 221.048452 -103.303321 
L 220.723473 -103.488349 
L 220.398493 -103.780702 
L 220.073514 -104.078538 
L 219.748534 -104.38172 
L 219.423554 -104.69011 
L 219.098575 -105.003569 
L 218.773595 -105.32196 
L 218.448616 -105.645145 
L 218.123636 -105.972988 
L 217.798657 -106.305352 
L 217.473677 -106.642101 
L 217.148698 -106.983098 
L 216.823718 -107.32821 
L 216.498739 -107.677302 
L 216.173759 -108.030239 
L 215.84878 -108.386889 
L 215.5238 -108.74712 
L 215.198821 -109.110799 
L 214.873841 -109.477796 
L 214.548862 -109.847981 
L 214.223882 -110.221226 
L 213.898903 -110.597402 
L 213.573923 -110.976383 
L 213.248943 -111.358043 
L 212.923964 -111.742257 
L 212.598984 -112.128902 
L 212.274005 -112.517855 
L 211.949025 -112.908996 
L 211.624046 -113.302204 
L 211.299066 -113.697362 
L 210.974087 -114.094352 
L 210.649107 -114.493058 
L 210.324128 -114.893366 
L 209.999148 -115.295164 
L 209.674169 -115.69834 
L 209.349189 -116.102785 
L 209.02421 -116.50839 
L 208.69923 -116.91505 
L 208.374251 -117.322658 
L 208.049271 -117.731113 
L 207.724292 -118.140312 
L 207.399312 -118.550156 
L 207.074333 -118.960547 
L 206.749353 -119.371388 
L 206.424373 -119.782587 
L 206.099394 -120.194049 
L 205.774414 -120.605685 
L 205.449435 -121.017405 
L 205.124455 -121.429124 
L 204.799476 -121.840755 
L 204.474496 -122.252218 
L 204.149517 -122.663429 
L 203.824537 -123.074312 
L 203.499558 -123.484788 
L 203.174578 -123.894783 
L 202.849599 -124.304225 
L 202.524619 -124.713042 
L 202.19964 -125.121166 
L 201.87466 -125.528531 
L 201.549681 -125.935072 
L 201.224701 -126.340727 
L 200.899722 -126.745437 
L 200.574742 -127.149142 
L 200.249762 -127.551787 
L 199.924783 -127.953319 
L 199.599803 -128.353685 
L 199.274824 -128.752838 
L 198.949844 -129.150728 
L 198.624865 -129.547313 
L 198.299885 -129.942548 
L 197.974906 -130.336393 
L 197.649926 -130.728809 
L 197.324947 -131.119761 
L 196.999967 -131.509214 
L 196.674988 -131.897136 
L 196.350008 -132.283498 
L 196.025029 -132.668271 
L 195.700049 -133.05143 
L 195.37507 -133.432953 
L 195.05009 -133.812817 
L 194.725111 -134.191004 
L 194.400131 -134.567496 
L 194.075152 -134.942279 
L 193.750172 -135.31534 
L 193.425192 -135.686669 
L 193.100213 -136.226992 
L 192.775233 -136.769045 
L 192.450254 -137.312726 
L 192.125274 -137.857933 
L 191.800295 -138.404559 
L 191.475315 -138.9525 
L 191.150336 -139.501648 
L 190.825356 -140.051894 
L 190.500377 -140.603131 
L 190.175397 -141.155246 
L 189.850418 -141.708129 
L 189.525438 -142.261667 
L 189.200459 -142.815747 
L 188.875479 -143.370252 
L 188.5505 -143.925069 
L 188.22552 -144.480081 
L 187.900541 -145.03517 
L 187.575561 -145.590217 
L 187.250581 -146.145105 
L 186.925602 -146.699712 
L 186.600622 -147.253919 
L 186.275643 -147.807605 
L 185.950663 -148.360646 
L 185.625684 -148.912921 
L 185.300704 -149.464307 
L 184.975725 -150.01468 
L 184.650745 -150.563915 
L 184.325766 -151.111887 
L 184.000786 -151.658472 
L 183.675807 -152.203545 
L 183.350827 -152.746978 
L 183.025848 -153.288646 
L 182.700868 -153.828423 
L 182.375889 -154.366181 
L 182.050909 -154.901793 
L 181.72593 -155.435133 
L 181.40095 -155.966073 
L 181.075971 -156.494486 
L 180.750991 -157.020245 
L 180.426011 -157.543221 
L 180.101032 -158.063289 
L 179.776052 -158.58032 
L 179.451073 -159.094188 
L 179.126093 -159.604766 
L 178.801114 -160.111927 
L 178.476134 -160.615544 
L 178.151155 -161.115492 
L 177.826175 -161.611646 
L 177.501196 -162.103878 
L 177.176216 -162.592066 
L 176.851237 -163.076083 
L 176.526257 -163.555807 
L 176.201278 -164.031114 
L 175.876298 -164.501881 
L 175.551319 -164.967987 
L 175.226339 -165.429308 
L 174.90136 -165.885726 
L 174.57638 -166.33712 
L 174.2514 -166.78337 
L 173.926421 -167.22436 
L 173.601441 -167.65997 
L 173.276462 -168.090085 
L 172.951482 -168.514589 
L 172.626503 -168.933368 
L 172.301523 -169.346308 
L 171.976544 -169.753297 
L 171.651564 -170.154223 
L 171.326585 -170.548977 
L 171.001605 -170.937449 
L 170.676626 -171.319533 
L 170.351646 -171.695121 
L 170.026667 -172.064108 
L 169.701687 -172.426391 
L 169.376708 -172.781867 
L 169.051728 -173.130436 
L 168.726749 -173.471998 
L 168.401769 -173.806455 
L 168.07679 -174.13371 
L 167.75181 -174.453668 
L 167.42683 -174.766237 
L 167.101851 -175.071324 
L 166.776871 -175.368839 
L 166.451892 -175.658693 
L 166.126912 -175.940801 
L 165.801933 -176.215077 
L 165.476953 -176.481437 
L 165.151974 -176.7398 
L 164.826994 -176.990087 
L 164.502015 -177.232219 
L 164.177035 -177.466122 
L 163.852056 -177.691719 
L 163.527076 -177.908941 
L 163.202097 -178.117715 
L 162.877117 -178.317974 
L 162.552138 -178.509652 
L 162.227158 -178.692685 
L 161.902179 -178.867009 
L 161.577199 -179.032565 
L 161.252219 -179.189295 
L 160.92724 -179.337143 
L 160.60226 -179.476054 
L 160.277281 -179.605976 
L 159.952301 -179.726861 
L 159.627322 -179.83866 
L 159.302342 -179.941328 
L 158.977363 -180.034822 
L 158.652383 -180.1191 
L 158.327404 -180.194124 
L 158.002424 -180.259856 
L 157.677445 -180.316264 
L 157.352465 -180.363313 
L 157.027486 -180.400974 
L 156.702506 -180.42922 
L 156.377527 -180.448024 
L 156.052547 -180.457365 
L 155.727568 -180.457219 
L 155.402588 -180.447569 
L 155.077609 -180.428399 
L 154.752629 -180.399693 
L 154.427649 -180.361441 
L 154.10267 -180.313631 
L 153.77769 -180.256258 
L 153.452711 -180.189315 
L 153.127731 -180.1128 
L 152.802752 -180.026713 
L 152.477772 -179.931054 
L 152.152793 -180.392378 
L 151.827813 -180.856917 
L 151.502834 -181.324669 
L 151.177854 -181.795633 
L 150.852875 -182.269803 
L 150.527895 -182.747175 
L 150.202916 -183.227743 
L 149.877936 -183.711496 
L 149.552957 -184.198426 
L 149.227977 -184.688522 
L 148.902998 -185.181771 
L 148.578018 -185.678158 
L 148.253038 -186.177669 
L 147.928059 -186.680285 
L 147.603079 -187.185989 
L 147.2781 -187.694762 
L 146.95312 -188.206581 
L 146.628141 -188.721423 
L 146.303161 -189.239267 
L 145.978182 -189.760084 
L 145.653202 -190.28385 
L 145.328223 -190.810536 
L 145.003243 -191.340113 
L 144.678264 -191.872549 
L 144.353284 -192.407814 
L 144.028305 -192.945873 
L 143.703325 -193.486692 
L 143.378346 -194.030236 
L 143.053366 -194.576467 
L 142.728387 -195.125347 
L 142.403407 -195.676836 
L 142.078428 -196.230895 
L 141.753448 -196.78748 
L 141.428468 -197.34655 
L 141.103489 -197.90806 
L 140.778509 -198.471965 
L 140.45353 -199.038218 
L 140.12855 -199.606772 
L 139.803571 -200.177579 
L 139.478591 -200.75059 
L 139.153612 -201.325753 
L 138.828632 -201.903018 
L 138.503653 -202.482333 
L 138.178673 -203.063643 
L 137.853694 -203.646894 
L 137.528714 -204.232033 
L 137.203735 -204.819001 
L 136.878755 -205.407744 
L 136.553776 -205.998203 
L 136.228796 -206.590319 
L 135.903817 -207.184034 
L 135.578837 -207.779288 
L 135.253857 -208.376019 
L 134.928878 -208.974168 
L 134.603898 -209.573671 
L 134.278919 -210.174466 
L 133.953939 -210.776489 
L 133.62896 -211.379678 
L 133.30398 -211.983967 
L 132.979001 -212.589292 
L 132.654021 -213.195587 
L 132.329042 -213.802786 
L 132.004062 -214.410824 
L 131.679083 -215.019632 
L 131.354103 -215.629144 
L 131.029124 -216.239293 
L 130.704144 -216.85001 
L 130.379165 -217.461228 
L 130.054185 -218.072877 
L 129.729206 -218.684889 
L 129.404226 -219.297195 
L 129.079247 -219.909726 
L 128.754267 -220.522412 
L 128.429287 -221.135184 
L 128.104308 -221.747971 
L 127.779328 -222.360705 
L 127.454349 -222.973315 
L 127.129369 -223.585732 
L 126.80439 -224.197885 
L 126.47941 -224.809704 
L 126.154431 -225.42112 
L 125.829451 -226.032063 
L 125.504472 -226.642462 
L 125.179492 -227.252249 
L 124.854513 -227.861353 
L 124.529533 -228.469705 
L 124.204554 -229.077236 
L 123.879574 -229.683877 
L 123.554595 -230.289559 
L 123.229615 -230.894213 
L 122.904636 -231.497772 
L 122.579656 -232.100167 
L 122.254676 -232.70133 
L 121.929697 -233.301195 
L 121.604717 -233.899694 
L 121.279738 -234.496761 
L 120.954758 -235.09233 
L 120.629779 -235.686335 
L 120.304799 -236.27871 
L 119.97982 -236.869391 
L 119.65484 -237.458315 
L 119.329861 -238.045416 
L 119.004881 -238.630632 
L 118.679902 -239.2139 
L 118.354922 -239.795159 
L 118.029943 -240.374346 
L 117.704963 -240.951401 
L 117.379984 -241.526263 
L 117.055004 -242.098874 
L 116.730025 -242.669174 
L 116.405045 -243.237105 
L 116.080066 -243.80261 
L 115.755086 -244.365631 
L 115.430106 -244.926113 
L 115.105127 -245.484001 
L 114.780147 -246.03924 
L 114.455168 -246.591776 
L 114.130188 -247.141557 
L 113.805209 -247.68853 
L 113.480229 -248.232644 
L 113.15525 -248.773849 
L 112.83027 -249.312095 
L 112.505291 -249.847333 
L 112.180311 -250.379516 
L 111.855332 -250.908596 
L 111.530352 -251.434528 
L 111.205373 -251.957266 
L 110.880393 -252.476767 
L 110.555414 -252.992986 
L 110.230434 -253.505882 
L 109.905455 -254.015413 
L 109.580475 -254.521539 
L 109.255495 -255.02422 
L 108.930516 -255.523418 
L 108.605536 -256.019094 
L 108.280557 -256.511213 
L 107.955577 -256.999739 
L 107.630598 -257.484637 
L 107.305618 -257.965874 
L 106.980639 -258.443417 
L 106.655659 -258.917235 
L 106.33068 -259.387297 
L 106.0057 -259.853573 
L 105.680721 -260.316035 
L 105.355741 -260.774655 
L 105.030762 -261.229407 
L 104.705782 -261.680266 
L 104.380803 -262.127206 
L 104.055823 -262.570205 
L 103.730844 -263.00924 
L 103.405864 -263.44429 
L 103.080885 -263.875334 
L 102.755905 -264.302353 
L 102.430925 -264.725329 
L 102.105946 -265.144244 
L 101.780966 -265.559082 
L 101.455987 -265.969829 
L 101.131007 -266.376469 
L 100.806028 -266.778989 
L 100.481048 -267.177378 
L 100.156069 -267.571623 
L 99.831089 -267.961716 
L 99.50611 -268.347646 
L 99.18113 -268.729405 
L 98.856151 -269.106986 
L 98.531171 -269.480383 
L 98.206192 -269.84959 
L 97.881212 -270.214603 
L 97.556233 -270.575419 
L 97.231253 -270.932036 
L 96.906274 -271.284451 
L 96.581294 -271.632664 
L 96.256314 -271.976676 
L 95.931335 -272.316487 
L 95.606355 -272.652101 
L 95.281376 -272.983519 
L 94.956396 -273.310747 
L 94.631417 -273.633789 
L 94.306437 -273.95265 
L 93.981458 -274.267338 
L 93.656478 -274.577859 
L 93.331499 -274.884223 
L 93.006519 -275.186437 
L 92.68154 -275.484513 
L 92.35656 -275.778461 
L 92.031581 -276.068292 
L 91.706601 -276.354019 
L 91.381622 -276.635655 
L 91.056642 -276.913214 
L 90.731663 -277.186711 
L 90.406683 -277.45616 
L 90.081704 -277.721578 
L 89.756724 -277.982983 
L 89.431744 -278.24039 
L 89.106765 -278.493819 
L 88.781785 -278.743289 
L 88.456806 -278.988818 
L 88.131826 -279.230428 
L 87.806847 -279.468139 
L 87.481867 -279.701972 
L 87.156888 -279.93195 
L 86.831908 -280.158095 
L 86.506929 -280.380431 
L 86.181949 -280.598981 
L 85.85697 -280.81377 
L 85.53199 -281.024823 
L 85.207011 -281.232164 
L 84.882031 -281.435821 
L 84.557052 -281.63582 
L 84.232072 -281.832186 
L 83.907093 -282.024949 
L 83.582113 -282.214135 
L 83.257133 -282.399774 
L 82.932154 -282.581893 
L 82.607174 -282.760522 
L 82.282195 -282.93569 
L 81.957215 -283.107428 
L 81.632236 -283.275766 
L 81.307256 -283.440734 
L 80.982277 -283.602363 
L 80.657297 -283.760685 
L 80.332318 -283.915732 
L 80.007338 -284.067534 
L 79.682359 -284.216125 
L 79.357379 -284.361537 
L 79.0324 -284.503803 
L 78.70742 -284.642956 
L 78.382441 -284.779028 
L 78.057461 -284.912054 
L 77.732482 -285.042067 
L 77.407502 -285.169101 
L 77.082523 -285.29319 
L 76.757543 -285.414367 
L 76.432563 -285.532669 
L 76.107584 -285.648128 
L 75.782604 -285.76078 
L 75.457625 -285.870658 
L 75.132645 -285.977799 
L 74.807666 -286.082237 
L 74.482686 -286.184006 
L 74.157707 -286.283143 
L 73.832727 -286.379681 
z
" style="stroke: #ff7f0e; stroke-opacity: 0.25"/>
    </defs>
    <g clip-path="url(#pec8c378247)">
     <use xlink:href="#m0cdb6d7df9" x="0" y="345.6" style="fill: #ff7f0e; fill-opacity: 0.25; stroke: #ff7f0e; stroke-opacity: 0.25"/>
    </g>
   </g>
   <g id="matplotlib.axis_1">
    <g id="xtick_1">
     <g id="line2d_1">
      <defs>
       <path id="m7abbc3ad92" d="M 0 0 
L 0 3.5 
" style="stroke: #000000; stroke-width: 0.8"/>
      </defs>
      <g>
       <use xlink:href="#m7abbc3ad92" x="73.832727" y="307.584" style="stroke: #000000; stroke-width: 0.8"/>
      </g>
     </g>
     <g id="text_1">
      <!-- 0 -->
      <g transform="translate(70.651477 322.182437)scale(0.1 -0.1)">
       <defs>
        <path id="DejaVuSans-30" d="M 2034 4250 
Q 1547 4250 1301 3770 
Q 1056 3291 1056 2328 
Q 1056 1369 1301 889 
Q 1547 409 2034 409 
Q 2525 409 2770 889 
Q 3016 1369 3016 2328 
Q 3016 3291 2770 3770 
Q 2525 4250 2034 4250 
z
M 2034 4750 
Q 2819 4750 3233 4129 
Q 3647 3509 3647 2328 
Q 3647 1150 3233 529 
Q 2819 -91 2034 -91 
Q 1250 -91 836 529 
Q 422 1150 422 2328 
Q 422 3509 836 4129 
Q 1250 4750 2034 4750 
z
" transform="scale(0.015625)"/>
       </defs>
       <use xlink:href="#DejaVuSans-30"/>
      </g>
     </g>
    </g>
    <g id="xtick_2">
     <g id="line2d_2">
      <g>
       <use xlink:href="#m7abbc3ad92" x="138.763636" y="307.584" style="stroke: #000000; stroke-width: 0.8"/>
      </g>
     </g>
     <g id="text_2">
      <!-- 2 -->
      <g transform="translate(135.582386 322.182437)scale(0.1 -0.1)">
       <defs>
        <path id="DejaVuSans-32" d="M 1228 531 
L 3431 531 
L 3431 0 
L 469 0 
L 469 531 
Q 828 903 1448 1529 
Q 2069 2156 2228 2338 
Q 2531 2678 2651 2914 
Q 2772 3150 2772 3378 
Q 2772 3750 2511 3984 
Q 2250 4219 1831 4219 
Q 1534 4219 1204 4116 
Q 875 4013 500 3803 
L 500 4441 
Q 881 4594 1212 4672 
Q 1544 4750 1819 4750 
Q 2544 4750 2975 4387 
Q 3406 4025 3406 3419 
Q 3406 3131 3298 2873 
Q 3191 2616 2906 2266 
Q 2828 2175 2409 1742 
Q 1991 1309 1228 531 
z
" transform="scale(0.015625)"/>
       </defs>
       <use xlink:href="#DejaVuSans-32"/>
      </g>
     </g>
    </g>
    <g id="xtick_3">
     <g id="line2d_3">
      <g>
       <use xlink:href="#m7abbc3ad92" x="203.694545" y="307.584" style="stroke: #000000; stroke-width: 0.8"/>
      </g>
     </g>
     <g id="text_3">
      <!-- 4 -->
      <g transform="translate(200.513295 322.182437)scale(0.1 -0.1)">
       <defs>
        <path id="DejaVuSans-34" d="M 2419 4116 
L 825 1625 
L 2419 1625 
L 2419 4116 
z
M 2253 4666 
L 3047 4666 
L 3047 1625 
L 3713 1625 
L 3713 1100 
L 3047 1100 
L 3047 0 
L 2419 0 
L 2419 1100 
L 313 1100 
L 313 1709 
L 2253 4666 
z
" transform="scale(0.015625)"/>
       </defs>
       <use xlink:href="#DejaVuSans-34"/>
      </g>
     </g>
    </g>
    <g id="xtick_4">
     <g id="line2d_4">
      <g>
       <use xlink:href="#m7abbc3ad92" x="268.625455" y="307.584" style="stroke: #000000; stroke-width: 0.8"/>
      </g>
     </g>
     <g id="text_4">
      <!-- 6 -->
      <g transform="translate(265.444205 322.182437)scale(0.1 -0.1)">
       <defs>
        <path id="DejaVuSans-36" d="M 2113 2584 
Q 1688 2584 1439 2293 
Q 1191 2003 1191 1497 
Q 1191 994 1439 701 
Q 1688 409 2113 409 
Q 2538 409 2786 701 
Q 3034 994 3034 1497 
Q 3034 2003 2786 2293 
Q 2538 2584 2113 2584 
z
M 3366 4563 
L 3366 3988 
Q 3128 4100 2886 4159 
Q 2644 4219 2406 4219 
Q 1781 4219 1451 3797 
Q 1122 3375 1075 2522 
Q 1259 2794 1537 2939 
Q 1816 3084 2150 3084 
Q 2853 3084 3261 2657 
Q 3669 2231 3669 1497 
Q 3669 778 3244 343 
Q 2819 -91 2113 -91 
Q 1303 -91 875 529 
Q 447 1150 447 2328 
Q 447 3434 972 4092 
Q 1497 4750 2381 4750 
Q 2619 4750 2861 4703 
Q 3103 4656 3366 4563 
z
" transform="scale(0.015625)"/>
       </defs>
       <use xlink:href="#DejaVuSans-36"/>
      </g>
     </g>
    </g>
    <g id="xtick_5">
     <g id="line2d_5">
      <g>
       <use xlink:href="#m7abbc3ad92" x="333.556364" y="307.584" style="stroke: #000000; stroke-width: 0.8"/>
      </g>
     </g>
     <g id="text_5">
      <!-- 8 -->
      <g transform="translate(330.375114 322.182437)scale(0.1 -0.1)">
       <defs>
        <path id="DejaVuSans-38" d="M 2034 2216 
Q 1584 2216 1326 1975 
Q 1069 1734 1069 1313 
Q 1069 891 1326 650 
Q 1584 409 2034 409 
Q 2484 409 2743 651 
Q 3003 894 3003 1313 
Q 3003 1734 2745 1975 
Q 2488 2216 2034 2216 
z
M 1403 2484 
Q 997 2584 770 2862 
Q 544 3141 544 3541 
Q 544 4100 942 4425 
Q 1341 4750 2034 4750 
Q 2731 4750 3128 4425 
Q 3525 4100 3525 3541 
Q 3525 3141 3298 2862 
Q 3072 2584 2669 2484 
Q 3125 2378 3379 2068 
Q 3634 1759 3634 1313 
Q 3634 634 3220 271 
Q 2806 -91 2034 -91 
Q 1263 -91 848 271 
Q 434 634 434 1313 
Q 434 1759 690 2068 
Q 947 2378 1403 2484 
z
M 1172 3481 
Q 1172 3119 1398 2916 
Q 1625 2713 2034 2713 
Q 2441 2713 2670 2916 
Q 2900 3119 2900 3481 
Q 2900 3844 2670 4047 
Q 2441 4250 2034 4250 
Q 1625 4250 1398 4047 
Q 1172 3844 1172 3481 
z
" transform="scale(0.015625)"/>
       </defs>
       <use xlink:href="#DejaVuSans-38"/>
      </g>
     </g>
    </g>
    <g id="xtick_6">
     <g id="line2d_6">
      <g>
       <use xlink:href="#m7abbc3ad92" x="398.487273" y="307.584" style="stroke: #000000; stroke-width: 0.8"/>
      </g>
     </g>
     <g id="text_6">
      <!-- 10 -->
      <g transform="translate(392.124773 322.182437)scale(0.1 -0.1)">
       <defs>
        <path id="DejaVuSans-31" d="M 794 531 
L 1825 531 
L 1825 4091 
L 703 3866 
L 703 4441 
L 1819 4666 
L 2450 4666 
L 2450 531 
L 3481 531 
L 3481 0 
L 794 0 
L 794 531 
z
" transform="scale(0.015625)"/>
       </defs>
       <use xlink:href="#DejaVuSans-31"/>
       <use xlink:href="#DejaVuSans-30" x="63.623047"/>
      </g>
     </g>
    </g>
    <g id="text_7">
     <!-- $x$ -->
     <g transform="translate(233.16 335.860562)scale(0.1 -0.1)">
      <defs>
       <path id="DejaVuSans-Oblique-78" d="M 3841 3500 
L 2234 1784 
L 3219 0 
L 2559 0 
L 1819 1388 
L 531 0 
L -166 0 
L 1556 1844 
L 641 3500 
L 1300 3500 
L 1972 2234 
L 3144 3500 
L 3841 3500 
z
" transform="scale(0.015625)"/>
      </defs>
      <use xlink:href="#DejaVuSans-Oblique-78" transform="translate(0 0.3125)"/>
     </g>
    </g>
   </g>
   <g id="matplotlib.axis_2">
    <g id="ytick_1">
     <g id="line2d_7">
      <defs>
       <path id="mcbed00f54d" d="M 0 0 
L -3.5 0 
" style="stroke: #000000; stroke-width: 0.8"/>
      </defs>
      <g>
       <use xlink:href="#mcbed00f54d" x="57.6" y="280.772451" style="stroke: #000000; stroke-width: 0.8"/>
      </g>
     </g>
     <g id="text_8">
      <!-- 7.5 -->
      <g transform="translate(26.317187 284.57167)scale(0.1 -0.1)">
       <defs>
        <path id="DejaVuSans-2212" d="M 678 2272 
L 4684 2272 
L 4684 1741 
L 678 1741 
L 678 2272 
z
" transform="scale(0.015625)"/>
        <path id="DejaVuSans-37" d="M 525 4666 
L 3525 4666 
L 3525 4397 
L 1831 0 
L 1172 0 
L 2766 4134 
L 525 4134 
L 525 4666 
z
" transform="scale(0.015625)"/>
        <path id="DejaVuSans-2e" d="M 684 794 
L 1344 794 
L 1344 0 
L 684 0 
L 684 794 
z
" transform="scale(0.015625)"/>
        <path id="DejaVuSans-35" d="M 691 4666 
L 3169 4666 
L 3169 4134 
L 1269 4134 
L 1269 2991 
Q 1406 3038 1543 3061 
Q 1681 3084 1819 3084 
Q 2600 3084 3056 2656 
Q 3513 2228 3513 1497 
Q 3513 744 3044 326 
Q 2575 -91 1722 -91 
Q 1428 -91 1123 -41 
Q 819 9 494 109 
L 494 744 
Q 775 591 1075 516 
Q 1375 441 1709 441 
Q 2250 441 2565 725 
Q 2881 1009 2881 1497 
Q 2881 1984 2565 2268 
Q 2250 2553 1709 2553 
Q 1456 2553 1204 2497 
Q 953 2441 691 2322 
L 691 4666 
z
" transform="scale(0.015625)"/>
       </defs>
       <use xlink:href="#DejaVuSans-2212"/>
       <use xlink:href="#DejaVuSans-37" x="83.789062"/>
       <use xlink:href="#DejaVuSans-2e" x="147.412109"/>
       <use xlink:href="#DejaVuSans-35" x="179.199219"/>
      </g>
     </g>
    </g>
    <g id="ytick_2">
     <g id="line2d_8">
      <g>
       <use xlink:href="#mcbed00f54d" x="57.6" y="249.135995" style="stroke: #000000; stroke-width: 0.8"/>
      </g>
     </g>
     <g id="text_9">
      <!-- 5.0 -->
      <g transform="translate(26.317187 252.935214)scale(0.1 -0.1)">
       <use xlink:href="#DejaVuSans-2212"/>
       <use xlink:href="#DejaVuSans-35" x="83.789062"/>
       <use xlink:href="#DejaVuSans-2e" x="147.412109"/>
       <use xlink:href="#DejaVuSans-30" x="179.199219"/>
      </g>
     </g>
    </g>
    <g id="ytick_3">
     <g id="line2d_9">
      <g>
       <use xlink:href="#mcbed00f54d" x="57.6" y="217.49954" style="stroke: #000000; stroke-width: 0.8"/>
      </g>
     </g>
     <g id="text_10">
      <!-- 2.5 -->
      <g transform="translate(26.317187 221.298758)scale(0.1 -0.1)">
       <use xlink:href="#DejaVuSans-2212"/>
       <use xlink:href="#DejaVuSans-32" x="83.789062"/>
       <use xlink:href="#DejaVuSans-2e" x="147.412109"/>
       <use xlink:href="#DejaVuSans-35" x="179.199219"/>
      </g>
     </g>
    </g>
    <g id="ytick_4">
     <g id="line2d_10">
      <g>
       <use xlink:href="#mcbed00f54d" x="57.6" y="185.863084" style="stroke: #000000; stroke-width: 0.8"/>
      </g>
     </g>
     <g id="text_11">
      <!-- 0.0 -->
      <g transform="translate(34.696875 189.662303)scale(0.1 -0.1)">
       <use xlink:href="#DejaVuSans-30"/>
       <use xlink:href="#DejaVuSans-2e" x="63.623047"/>
       <use xlink:href="#DejaVuSans-30" x="95.410156"/>
      </g>
     </g>
    </g>
    <g id="ytick_5">
     <g id="line2d_11">
      <g>
       <use xlink:href="#mcbed00f54d" x="57.6" y="154.226629" style="stroke: #000000; stroke-width: 0.8"/>
      </g>
     </g>
     <g id="text_12">
      <!-- 2.5 -->
      <g transform="translate(34.696875 158.025847)scale(0.1 -0.1)">
       <use xlink:href="#DejaVuSans-32"/>
       <use xlink:href="#DejaVuSans-2e" x="63.623047"/>
       <use xlink:href="#DejaVuSans-35" x="95.410156"/>
      </g>
     </g>
    </g>
    <g id="ytick_6">
     <g id="line2d_12">
      <g>
       <use xlink:href="#mcbed00f54d" x="57.6" y="122.590173" style="stroke: #000000; stroke-width: 0.8"/>
      </g>
     </g>
     <g id="text_13">
      <!-- 5.0 -->
      <g transform="translate(34.696875 126.389392)scale(0.1 -0.1)">
       <use xlink:href="#DejaVuSans-35"/>
       <use xlink:href="#DejaVuSans-2e" x="63.623047"/>
       <use xlink:href="#DejaVuSans-30" x="95.410156"/>
      </g>
     </g>
    </g>
    <g id="ytick_7">
     <g id="line2d_13">
      <g>
       <use xlink:href="#mcbed00f54d" x="57.6" y="90.953717" style="stroke: #000000; stroke-width: 0.8"/>
      </g>
     </g>
     <g id="text_14">
      <!-- 7.5 -->
      <g transform="translate(34.696875 94.752936)scale(0.1 -0.1)">
       <use xlink:href="#DejaVuSans-37"/>
       <use xlink:href="#DejaVuSans-2e" x="63.623047"/>
       <use xlink:href="#DejaVuSans-35" x="95.410156"/>
      </g>
     </g>
    </g>
    <g id="ytick_8">
     <g id="line2d_14">
      <g>
       <use xlink:href="#mcbed00f54d" x="57.6" y="59.317262" style="stroke: #000000; stroke-width: 0.8"/>
      </g>
     </g>
     <g id="text_15">
      <!-- 10.0 -->
      <g transform="translate(28.334375 63.11648)scale(0.1 -0.1)">
       <use xlink:href="#DejaVuSans-31"/>
       <use xlink:href="#DejaVuSans-30" x="63.623047"/>
       <use xlink:href="#DejaVuSans-2e" x="127.246094"/>
       <use xlink:href="#DejaVuSans-30" x="159.033203"/>
      </g>
     </g>
    </g>
    <g id="text_16">
     <!-- $y$ -->
     <g transform="translate(20.217188 177.528)rotate(-90)scale(0.1 -0.1)">
      <defs>
       <path id="DejaVuSans-Oblique-79" d="M 1588 -325 
Q 1188 -997 936 -1164 
Q 684 -1331 294 -1331 
L -159 -1331 
L -63 -850 
L 269 -850 
Q 509 -850 678 -719 
Q 847 -588 1056 -206 
L 1234 128 
L 459 3500 
L 1069 3500 
L 1650 819 
L 3256 3500 
L 3859 3500 
L 1588 -325 
z
" transform="scale(0.015625)"/>
      </defs>
      <use xlink:href="#DejaVuSans-Oblique-79" transform="translate(0 0.3125)"/>
     </g>
    </g>
   </g>
   <g id="line2d_15">
    <path d="M 73.832727 177.354159 
L 80.007338 175.417078 
L 87.156888 172.931722 
L 97.556233 169.039822 
L 107.630598 165.337866 
L 113.15525 163.534568 
L 117.704963 162.266479 
L 121.929697 161.323878 
L 125.504472 160.742248 
L 129.079247 160.391381 
L 132.329042 160.29783 
L 135.578837 160.440949 
L 138.503653 160.788397 
L 141.428468 161.356454 
L 144.353284 162.156521 
L 147.2781 163.198205 
L 150.202916 164.4891 
L 153.127731 166.034577 
L 156.052547 167.837588 
L 158.977363 169.89849 
L 161.902179 172.214886 
L 165.151974 175.081779 
L 168.401769 178.245878 
L 171.976544 182.049998 
L 175.876298 186.553681 
L 180.101032 191.795942 
L 184.975725 198.220297 
L 191.800295 207.639176 
L 202.19964 221.996381 
L 206.749353 227.872425 
L 210.324128 232.155448 
L 213.573923 235.71599 
L 216.498739 238.59459 
L 219.098575 240.855564 
L 221.698411 242.803477 
L 223.973268 244.227202 
L 226.248124 245.368559 
L 228.198002 246.10816 
L 230.147879 246.615918 
L 232.097756 246.881721 
L 234.047633 246.896287 
L 235.99751 246.651255 
L 237.947387 246.139263 
L 239.897265 245.35403 
L 241.847142 244.29043 
L 243.797019 242.944565 
L 245.746896 241.313832 
L 247.696773 239.396987 
L 249.64665 237.1942 
L 251.921507 234.265145 
L 254.196364 230.95437 
L 256.47122 227.269931 
L 259.071057 222.615808 
L 261.670893 217.509165 
L 264.595708 211.256017 
L 267.845504 203.729987 
L 271.420278 194.833026 
L 275.320033 184.517352 
L 280.194726 170.976906 
L 295.793743 127.119518 
L 299.368518 117.939987 
L 302.618313 110.176109 
L 305.543129 103.761504 
L 308.142965 98.582034 
L 310.417821 94.495597 
L 312.692678 90.857937 
L 314.642555 88.118501 
L 316.592432 85.745063 
L 318.54231 83.751179 
L 320.167207 82.387822 
L 321.792105 81.301359 
L 323.417002 80.496025 
L 325.0419 79.974881 
L 326.341818 79.763877 
L 327.641736 79.736367 
L 328.941654 79.892246 
L 330.241572 80.230903 
L 331.86647 80.909511 
L 333.491368 81.868655 
L 335.116265 83.103843 
L 336.741163 84.60939 
L 338.69104 86.763192 
L 340.640917 89.282398 
L 342.590794 92.150779 
L 344.865651 95.913954 
L 347.140508 100.094834 
L 349.740344 105.338387 
L 352.66516 111.761045 
L 355.914955 119.443107 
L 359.814709 129.243582 
L 365.339361 143.785061 
L 375.088747 169.486043 
L 379.313481 179.950165 
L 382.888256 188.23364 
L 386.138051 195.207396 
L 389.062867 200.9702 
L 391.662703 205.650081 
L 394.262539 209.890995 
L 396.862375 213.678109 
L 398.487273 215.810573 
L 398.487273 215.810573 
" clip-path="url(#pec8c378247)" style="fill: none; stroke: #ff7f0e; stroke-width: 1.5; stroke-linecap: square"/>
   </g>
   <g id="line2d_16">
    <path d="M 73.832727 185.863084 
L 76.757543 185.760516 
L 79.682359 185.454474 
L 82.932154 184.881942 
L 86.181949 184.075938 
L 89.756724 182.939246 
L 93.331499 181.567837 
L 97.556233 179.691446 
L 102.430925 177.265266 
L 110.230434 173.08615 
L 117.379984 169.333853 
L 121.929697 167.190281 
L 125.829451 165.605101 
L 129.079247 164.513005 
L 132.004062 163.740155 
L 134.928878 163.191704 
L 137.528714 162.910637 
L 140.12855 162.838496 
L 142.728387 162.987535 
L 145.328223 163.368119 
L 147.928059 163.988584 
L 150.527895 164.855115 
L 153.127731 165.971643 
L 155.727568 167.339755 
L 158.327404 168.958631 
L 160.92724 170.824999 
L 163.852056 173.213235 
L 166.776871 175.895413 
L 170.026667 179.200916 
L 173.276462 182.822265 
L 176.851237 187.130995 
L 181.075971 192.593477 
L 185.950663 199.272181 
L 194.400131 211.307224 
L 201.224701 220.867059 
L 205.774414 226.856982 
L 209.349189 231.217751 
L 212.598984 234.843685 
L 215.5238 237.781203 
L 218.123636 240.098774 
L 220.723473 242.111651 
L 222.998329 243.602846 
L 225.273186 244.825257 
L 227.223063 245.647953 
L 229.17294 246.253932 
L 231.122817 246.635534 
L 233.072695 246.785933 
L 235.022572 246.699179 
L 236.972449 246.370242 
L 238.922326 245.795046 
L 240.872203 244.970504 
L 242.82208 243.894549 
L 244.771957 242.566159 
L 246.721835 240.985377 
L 248.996691 238.823698 
L 251.271548 236.323737 
L 253.546405 233.491212 
L 256.146241 229.856878 
L 258.746077 225.813246 
L 261.345913 221.378611 
L 264.270729 215.949383 
L 267.520524 209.41249 
L 271.095299 201.674153 
L 274.995053 192.675325 
L 279.544767 181.603245 
L 286.044357 165.130065 
L 296.118722 139.570511 
L 300.668436 128.646353 
L 304.56819 119.865552 
L 307.817985 113.079242 
L 310.742801 107.461738 
L 313.342637 102.909427 
L 315.942473 98.814419 
L 318.21733 95.636365 
L 320.492187 92.861309 
L 322.442064 90.820134 
L 324.391941 89.103899 
L 326.016839 87.930318 
L 327.641736 86.996551 
L 329.266634 86.308102 
L 330.891532 85.869868 
L 332.516429 85.686114 
L 334.141327 85.76046 
L 335.766224 86.09586 
L 337.391122 86.69459 
L 339.01602 87.558231 
L 340.640917 88.687659 
L 342.265815 90.083038 
L 343.890713 91.743807 
L 345.84059 94.085178 
L 347.790467 96.803194 
L 349.740344 99.892714 
L 352.015201 103.957716 
L 354.290057 108.506058 
L 356.564914 113.521784 
L 359.16475 119.802263 
L 361.764586 126.636583 
L 364.689402 134.941571 
L 367.939197 144.86594 
L 371.513972 156.526194 
L 375.738706 171.135631 
L 380.938378 190.013818 
L 398.487273 254.706683 
L 398.487273 254.706683 
" clip-path="url(#pec8c378247)" style="fill: none; stroke: #1f77b4; stroke-width: 1.5; stroke-linecap: square"/>
   </g>
   <g id="patch_3">
    <path d="M 57.6 307.584 
L 57.6 41.472 
" style="fill: none; stroke: #000000; stroke-width: 0.8; stroke-linejoin: miter; stroke-linecap: square"/>
   </g>
   <g id="patch_4">
    <path d="M 414.72 307.584 
L 414.72 41.472 
" style="fill: none; stroke: #000000; stroke-width: 0.8; stroke-linejoin: miter; stroke-linecap: square"/>
   </g>
   <g id="patch_5">
    <path d="M 57.6 307.584 
L 414.72 307.584 
" style="fill: none; stroke: #000000; stroke-width: 0.8; stroke-linejoin: miter; stroke-linecap: square"/>
   </g>
   <g id="patch_6">
    <path d="M 57.6 41.472 
L 414.72 41.472 
" style="fill: none; stroke: #000000; stroke-width: 0.8; stroke-linejoin: miter; stroke-linecap: square"/>
   </g>
   <g id="legend_1">
    <g id="patch_7">
     <path d="M 64.6 108.206375 
L 219.707813 108.206375 
Q 221.707813 108.206375 221.707813 106.206375 
L 221.707813 48.472 
Q 221.707813 46.472 219.707813 46.472 
L 64.6 46.472 
Q 62.6 46.472 62.6 48.472 
L 62.6 106.206375 
Q 62.6 108.206375 64.6 108.206375 
z
" style="fill: #ffffff; opacity: 0.8; stroke: #cccccc; stroke-linejoin: miter"/>
    </g>
    <g id="line2d_17">
     <path d="M 66.6 54.570438 
L 76.6 54.570438 
L 86.6 54.570438 
" style="fill: none; stroke: #ff7f0e; stroke-width: 1.5; stroke-linecap: square"/>
    </g>
    <g id="text_17">
     <!-- Mean Prediction -->
     <g transform="translate(94.6 58.070438)scale(0.1 -0.1)">
      <defs>
       <path id="DejaVuSans-4d" d="M 628 4666 
L 1569 4666 
L 2759 1491 
L 3956 4666 
L 4897 4666 
L 4897 0 
L 4281 0 
L 4281 4097 
L 3078 897 
L 2444 897 
L 1241 4097 
L 1241 0 
L 628 0 
L 628 4666 
z
" transform="scale(0.015625)"/>
       <path id="DejaVuSans-65" d="M 3597 1894 
L 3597 1613 
L 953 1613 
Q 991 1019 1311 708 
Q 1631 397 2203 397 
Q 2534 397 2845 478 
Q 3156 559 3463 722 
L 3463 178 
Q 3153 47 2828 -22 
Q 2503 -91 2169 -91 
Q 1331 -91 842 396 
Q 353 884 353 1716 
Q 353 2575 817 3079 
Q 1281 3584 2069 3584 
Q 2775 3584 3186 3129 
Q 3597 2675 3597 1894 
z
M 3022 2063 
Q 3016 2534 2758 2815 
Q 2500 3097 2075 3097 
Q 1594 3097 1305 2825 
Q 1016 2553 972 2059 
L 3022 2063 
z
" transform="scale(0.015625)"/>
       <path id="DejaVuSans-61" d="M 2194 1759 
Q 1497 1759 1228 1600 
Q 959 1441 959 1056 
Q 959 750 1161 570 
Q 1363 391 1709 391 
Q 2188 391 2477 730 
Q 2766 1069 2766 1631 
L 2766 1759 
L 2194 1759 
z
M 3341 1997 
L 3341 0 
L 2766 0 
L 2766 531 
Q 2569 213 2275 61 
Q 1981 -91 1556 -91 
Q 1019 -91 701 211 
Q 384 513 384 1019 
Q 384 1609 779 1909 
Q 1175 2209 1959 2209 
L 2766 2209 
L 2766 2266 
Q 2766 2663 2505 2880 
Q 2244 3097 1772 3097 
Q 1472 3097 1187 3025 
Q 903 2953 641 2809 
L 641 3341 
Q 956 3463 1253 3523 
Q 1550 3584 1831 3584 
Q 2591 3584 2966 3190 
Q 3341 2797 3341 1997 
z
" transform="scale(0.015625)"/>
       <path id="DejaVuSans-6e" d="M 3513 2113 
L 3513 0 
L 2938 0 
L 2938 2094 
Q 2938 2591 2744 2837 
Q 2550 3084 2163 3084 
Q 1697 3084 1428 2787 
Q 1159 2491 1159 1978 
L 1159 0 
L 581 0 
L 581 3500 
L 1159 3500 
L 1159 2956 
Q 1366 3272 1645 3428 
Q 1925 3584 2291 3584 
Q 2894 3584 3203 3211 
Q 3513 2838 3513 2113 
z
" transform="scale(0.015625)"/>
       <path id="DejaVuSans-20" transform="scale(0.015625)"/>
       <path id="DejaVuSans-50" d="M 1259 4147 
L 1259 2394 
L 2053 2394 
Q 2494 2394 2734 2622 
Q 2975 2850 2975 3272 
Q 2975 3691 2734 3919 
Q 2494 4147 2053 4147 
L 1259 4147 
z
M 628 4666 
L 2053 4666 
Q 2838 4666 3239 4311 
Q 3641 3956 3641 3272 
Q 3641 2581 3239 2228 
Q 2838 1875 2053 1875 
L 1259 1875 
L 1259 0 
L 628 0 
L 628 4666 
z
" transform="scale(0.015625)"/>
       <path id="DejaVuSans-72" d="M 2631 2963 
Q 2534 3019 2420 3045 
Q 2306 3072 2169 3072 
Q 1681 3072 1420 2755 
Q 1159 2438 1159 1844 
L 1159 0 
L 581 0 
L 581 3500 
L 1159 3500 
L 1159 2956 
Q 1341 3275 1631 3429 
Q 1922 3584 2338 3584 
Q 2397 3584 2469 3576 
Q 2541 3569 2628 3553 
L 2631 2963 
z
" transform="scale(0.015625)"/>
       <path id="DejaVuSans-64" d="M 2906 2969 
L 2906 4863 
L 3481 4863 
L 3481 0 
L 2906 0 
L 2906 525 
Q 2725 213 2448 61 
Q 2172 -91 1784 -91 
Q 1150 -91 751 415 
Q 353 922 353 1747 
Q 353 2572 751 3078 
Q 1150 3584 1784 3584 
Q 2172 3584 2448 3432 
Q 2725 3281 2906 2969 
z
M 947 1747 
Q 947 1113 1208 752 
Q 1469 391 1925 391 
Q 2381 391 2643 752 
Q 2906 1113 2906 1747 
Q 2906 2381 2643 2742 
Q 2381 3103 1925 3103 
Q 1469 3103 1208 2742 
Q 947 2381 947 1747 
z
" transform="scale(0.015625)"/>
       <path id="DejaVuSans-69" d="M 603 3500 
L 1178 3500 
L 1178 0 
L 603 0 
L 603 3500 
z
M 603 4863 
L 1178 4863 
L 1178 4134 
L 603 4134 
L 603 4863 
z
" transform="scale(0.015625)"/>
       <path id="DejaVuSans-63" d="M 3122 3366 
L 3122 2828 
Q 2878 2963 2633 3030 
Q 2388 3097 2138 3097 
Q 1578 3097 1268 2742 
Q 959 2388 959 1747 
Q 959 1106 1268 751 
Q 1578 397 2138 397 
Q 2388 397 2633 464 
Q 2878 531 3122 666 
L 3122 134 
Q 2881 22 2623 -34 
Q 2366 -91 2075 -91 
Q 1284 -91 818 406 
Q 353 903 353 1747 
Q 353 2603 823 3093 
Q 1294 3584 2113 3584 
Q 2378 3584 2631 3529 
Q 2884 3475 3122 3366 
z
" transform="scale(0.015625)"/>
       <path id="DejaVuSans-74" d="M 1172 4494 
L 1172 3500 
L 2356 3500 
L 2356 3053 
L 1172 3053 
L 1172 1153 
Q 1172 725 1289 603 
Q 1406 481 1766 481 
L 2356 481 
L 2356 0 
L 1766 0 
Q 1100 0 847 248 
Q 594 497 594 1153 
L 594 3053 
L 172 3053 
L 172 3500 
L 594 3500 
L 594 4494 
L 1172 4494 
z
" transform="scale(0.015625)"/>
       <path id="DejaVuSans-6f" d="M 1959 3097 
Q 1497 3097 1228 2736 
Q 959 2375 959 1747 
Q 959 1119 1226 758 
Q 1494 397 1959 397 
Q 2419 397 2687 759 
Q 2956 1122 2956 1747 
Q 2956 2369 2687 2733 
Q 2419 3097 1959 3097 
z
M 1959 3584 
Q 2709 3584 3137 3096 
Q 3566 2609 3566 1747 
Q 3566 888 3137 398 
Q 2709 -91 1959 -91 
Q 1206 -91 779 398 
Q 353 888 353 1747 
Q 353 2609 779 3096 
Q 1206 3584 1959 3584 
z
" transform="scale(0.015625)"/>
      </defs>
      <use xlink:href="#DejaVuSans-4d"/>
      <use xlink:href="#DejaVuSans-65" x="86.279297"/>
      <use xlink:href="#DejaVuSans-61" x="147.802734"/>
      <use xlink:href="#DejaVuSans-6e" x="209.082031"/>
      <use xlink:href="#DejaVuSans-20" x="272.460938"/>
      <use xlink:href="#DejaVuSans-50" x="304.248047"/>
      <use xlink:href="#DejaVuSans-72" x="362.800781"/>
      <use xlink:href="#DejaVuSans-65" x="401.664062"/>
      <use xlink:href="#DejaVuSans-64" x="463.1875"/>
      <use xlink:href="#DejaVuSans-69" x="526.664062"/>
      <use xlink:href="#DejaVuSans-63" x="554.447266"/>
      <use xlink:href="#DejaVuSans-74" x="609.427734"/>
      <use xlink:href="#DejaVuSans-69" x="648.636719"/>
      <use xlink:href="#DejaVuSans-6f" x="676.419922"/>
      <use xlink:href="#DejaVuSans-6e" x="737.601562"/>
     </g>
    </g>
    <g id="line2d_18">
     <path d="M 66.6 69.250125 
L 76.6 69.250125 
L 86.6 69.250125 
" style="fill: none; stroke: #1f77b4; stroke-width: 1.5; stroke-linecap: square"/>
    </g>
    <g id="text_18">
     <!-- $y = x\sin x$ -->
     <g transform="translate(94.6 72.750125)scale(0.1 -0.1)">
      <defs>
       <path id="DejaVuSans-3d" d="M 678 2906 
L 4684 2906 
L 4684 2381 
L 678 2381 
L 678 2906 
z
M 678 1631 
L 4684 1631 
L 4684 1100 
L 678 1100 
L 678 1631 
z
" transform="scale(0.015625)"/>
       <path id="DejaVuSans-73" d="M 2834 3397 
L 2834 2853 
Q 2591 2978 2328 3040 
Q 2066 3103 1784 3103 
Q 1356 3103 1142 2972 
Q 928 2841 928 2578 
Q 928 2378 1081 2264 
Q 1234 2150 1697 2047 
L 1894 2003 
Q 2506 1872 2764 1633 
Q 3022 1394 3022 966 
Q 3022 478 2636 193 
Q 2250 -91 1575 -91 
Q 1294 -91 989 -36 
Q 684 19 347 128 
L 347 722 
Q 666 556 975 473 
Q 1284 391 1588 391 
Q 1994 391 2212 530 
Q 2431 669 2431 922 
Q 2431 1156 2273 1281 
Q 2116 1406 1581 1522 
L 1381 1569 
Q 847 1681 609 1914 
Q 372 2147 372 2553 
Q 372 3047 722 3315 
Q 1072 3584 1716 3584 
Q 2034 3584 2315 3537 
Q 2597 3491 2834 3397 
z
" transform="scale(0.015625)"/>
      </defs>
      <use xlink:href="#DejaVuSans-Oblique-79" transform="translate(0 0.015625)"/>
      <use xlink:href="#DejaVuSans-3d" transform="translate(78.662109 0.015625)"/>
      <use xlink:href="#DejaVuSans-Oblique-78" transform="translate(181.933594 0.015625)"/>
      <use xlink:href="#DejaVuSans-73" transform="translate(241.113281 0.015625)"/>
      <use xlink:href="#DejaVuSans-69" transform="translate(293.212891 0.015625)"/>
      <use xlink:href="#DejaVuSans-6e" transform="translate(320.996094 0.015625)"/>
      <use xlink:href="#DejaVuSans-Oblique-78" transform="translate(400.610676 0.015625)"/>
     </g>
    </g>
    <g id="PathCollection_2">
     <g>
      <use xlink:href="#m425c7b8022" x="76.6" y="84.823563" style="stroke: #000000"/>
     </g>
    </g>
    <g id="text_19">
     <!-- Observation -->
     <g transform="translate(94.6 87.448563)scale(0.1 -0.1)">
      <defs>
       <path id="DejaVuSans-4f" d="M 2522 4238 
Q 1834 4238 1429 3725 
Q 1025 3213 1025 2328 
Q 1025 1447 1429 934 
Q 1834 422 2522 422 
Q 3209 422 3611 934 
Q 4013 1447 4013 2328 
Q 4013 3213 3611 3725 
Q 3209 4238 2522 4238 
z
M 2522 4750 
Q 3503 4750 4090 4092 
Q 4678 3434 4678 2328 
Q 4678 1225 4090 567 
Q 3503 -91 2522 -91 
Q 1538 -91 948 565 
Q 359 1222 359 2328 
Q 359 3434 948 4092 
Q 1538 4750 2522 4750 
z
" transform="scale(0.015625)"/>
       <path id="DejaVuSans-62" d="M 3116 1747 
Q 3116 2381 2855 2742 
Q 2594 3103 2138 3103 
Q 1681 3103 1420 2742 
Q 1159 2381 1159 1747 
Q 1159 1113 1420 752 
Q 1681 391 2138 391 
Q 2594 391 2855 752 
Q 3116 1113 3116 1747 
z
M 1159 2969 
Q 1341 3281 1617 3432 
Q 1894 3584 2278 3584 
Q 2916 3584 3314 3078 
Q 3713 2572 3713 1747 
Q 3713 922 3314 415 
Q 2916 -91 2278 -91 
Q 1894 -91 1617 61 
Q 1341 213 1159 525 
L 1159 0 
L 581 0 
L 581 4863 
L 1159 4863 
L 1159 2969 
z
" transform="scale(0.015625)"/>
       <path id="DejaVuSans-76" d="M 191 3500 
L 800 3500 
L 1894 563 
L 2988 3500 
L 3597 3500 
L 2284 0 
L 1503 0 
L 191 3500 
z
" transform="scale(0.015625)"/>
      </defs>
      <use xlink:href="#DejaVuSans-4f"/>
      <use xlink:href="#DejaVuSans-62" x="78.710938"/>
      <use xlink:href="#DejaVuSans-73" x="142.1875"/>
      <use xlink:href="#DejaVuSans-65" x="194.287109"/>
      <use xlink:href="#DejaVuSans-72" x="255.810547"/>
      <use xlink:href="#DejaVuSans-76" x="296.923828"/>
      <use xlink:href="#DejaVuSans-61" x="356.103516"/>
      <use xlink:href="#DejaVuSans-74" x="417.382812"/>
      <use xlink:href="#DejaVuSans-69" x="456.591797"/>
      <use xlink:href="#DejaVuSans-6f" x="484.375"/>
      <use xlink:href="#DejaVuSans-6e" x="545.556641"/>
     </g>
    </g>
    <g id="patch_8">
     <path d="M 66.6 102.126688 
L 86.6 102.126688 
L 86.6 95.126688 
L 66.6 95.126688 
z
" style="fill: #ff7f0e; fill-opacity: 0.25; stroke: #ff7f0e; stroke-opacity: 0.25; stroke-linejoin: miter"/>
    </g>
    <g id="text_20">
     <!-- 95% Confidence Interval -->
     <g transform="translate(94.6 102.126688)scale(0.1 -0.1)">
      <defs>
       <path id="DejaVuSans-39" d="M 703 97 
L 703 672 
Q 941 559 1184 500 
Q 1428 441 1663 441 
Q 2288 441 2617 861 
Q 2947 1281 2994 2138 
Q 2813 1869 2534 1725 
Q 2256 1581 1919 1581 
Q 1219 1581 811 2004 
Q 403 2428 403 3163 
Q 403 3881 828 4315 
Q 1253 4750 1959 4750 
Q 2769 4750 3195 4129 
Q 3622 3509 3622 2328 
Q 3622 1225 3098 567 
Q 2575 -91 1691 -91 
Q 1453 -91 1209 -44 
Q 966 3 703 97 
z
M 1959 2075 
Q 2384 2075 2632 2365 
Q 2881 2656 2881 3163 
Q 2881 3666 2632 3958 
Q 2384 4250 1959 4250 
Q 1534 4250 1286 3958 
Q 1038 3666 1038 3163 
Q 1038 2656 1286 2365 
Q 1534 2075 1959 2075 
z
" transform="scale(0.015625)"/>
       <path id="DejaVuSans-25" d="M 4653 2053 
Q 4381 2053 4226 1822 
Q 4072 1591 4072 1178 
Q 4072 772 4226 539 
Q 4381 306 4653 306 
Q 4919 306 5073 539 
Q 5228 772 5228 1178 
Q 5228 1588 5073 1820 
Q 4919 2053 4653 2053 
z
M 4653 2450 
Q 5147 2450 5437 2106 
Q 5728 1763 5728 1178 
Q 5728 594 5436 251 
Q 5144 -91 4653 -91 
Q 4153 -91 3862 251 
Q 3572 594 3572 1178 
Q 3572 1766 3864 2108 
Q 4156 2450 4653 2450 
z
M 1428 4353 
Q 1159 4353 1004 4120 
Q 850 3888 850 3481 
Q 850 3069 1003 2837 
Q 1156 2606 1428 2606 
Q 1700 2606 1854 2837 
Q 2009 3069 2009 3481 
Q 2009 3884 1853 4118 
Q 1697 4353 1428 4353 
z
M 4250 4750 
L 4750 4750 
L 1831 -91 
L 1331 -91 
L 4250 4750 
z
M 1428 4750 
Q 1922 4750 2215 4408 
Q 2509 4066 2509 3481 
Q 2509 2891 2217 2550 
Q 1925 2209 1428 2209 
Q 931 2209 642 2551 
Q 353 2894 353 3481 
Q 353 4063 643 4406 
Q 934 4750 1428 4750 
z
" transform="scale(0.015625)"/>
       <path id="DejaVuSans-43" d="M 4122 4306 
L 4122 3641 
Q 3803 3938 3442 4084 
Q 3081 4231 2675 4231 
Q 1875 4231 1450 3742 
Q 1025 3253 1025 2328 
Q 1025 1406 1450 917 
Q 1875 428 2675 428 
Q 3081 428 3442 575 
Q 3803 722 4122 1019 
L 4122 359 
Q 3791 134 3420 21 
Q 3050 -91 2638 -91 
Q 1578 -91 968 557 
Q 359 1206 359 2328 
Q 359 3453 968 4101 
Q 1578 4750 2638 4750 
Q 3056 4750 3426 4639 
Q 3797 4528 4122 4306 
z
" transform="scale(0.015625)"/>
       <path id="DejaVuSans-66" d="M 2375 4863 
L 2375 4384 
L 1825 4384 
Q 1516 4384 1395 4259 
Q 1275 4134 1275 3809 
L 1275 3500 
L 2222 3500 
L 2222 3053 
L 1275 3053 
L 1275 0 
L 697 0 
L 697 3053 
L 147 3053 
L 147 3500 
L 697 3500 
L 697 3744 
Q 697 4328 969 4595 
Q 1241 4863 1831 4863 
L 2375 4863 
z
" transform="scale(0.015625)"/>
       <path id="DejaVuSans-49" d="M 628 4666 
L 1259 4666 
L 1259 0 
L 628 0 
L 628 4666 
z
" transform="scale(0.015625)"/>
       <path id="DejaVuSans-6c" d="M 603 4863 
L 1178 4863 
L 1178 0 
L 603 0 
L 603 4863 
z
" transform="scale(0.015625)"/>
      </defs>
      <use xlink:href="#DejaVuSans-39"/>
      <use xlink:href="#DejaVuSans-35" x="63.623047"/>
      <use xlink:href="#DejaVuSans-25" x="127.246094"/>
      <use xlink:href="#DejaVuSans-20" x="222.265625"/>
      <use xlink:href="#DejaVuSans-43" x="254.052734"/>
      <use xlink:href="#DejaVuSans-6f" x="323.876953"/>
      <use xlink:href="#DejaVuSans-6e" x="385.058594"/>
      <use xlink:href="#DejaVuSans-66" x="448.4375"/>
      <use xlink:href="#DejaVuSans-69" x="483.642578"/>
      <use xlink:href="#DejaVuSans-64" x="511.425781"/>
      <use xlink:href="#DejaVuSans-65" x="574.902344"/>
      <use xlink:href="#DejaVuSans-6e" x="636.425781"/>
      <use xlink:href="#DejaVuSans-63" x="699.804688"/>
      <use xlink:href="#DejaVuSans-65" x="754.785156"/>
      <use xlink:href="#DejaVuSans-20" x="816.308594"/>
      <use xlink:href="#DejaVuSans-49" x="848.095703"/>
      <use xlink:href="#DejaVuSans-6e" x="877.587891"/>
      <use xlink:href="#DejaVuSans-74" x="940.966797"/>
      <use xlink:href="#DejaVuSans-65" x="980.175781"/>
      <use xlink:href="#DejaVuSans-72" x="1041.699219"/>
      <use xlink:href="#DejaVuSans-76" x="1082.8125"/>
      <use xlink:href="#DejaVuSans-61" x="1141.992188"/>
      <use xlink:href="#DejaVuSans-6c" x="1203.271484"/>
     </g>
    </g>
   </g>
  </g>
 </g>
 <defs>
  <clipPath id="pec8c378247">
   <rect x="57.6" y="41.472" width="357.12" height="266.112"/>
  </clipPath>
 </defs>
</svg>
