<?xml version="1.0" encoding="utf-8" standalone="no"?>
<!DOCTYPE svg PUBLIC "-//W3C//DTD SVG 1.1//EN"
  "http://www.w3.org/Graphics/SVG/1.1/DTD/svg11.dtd">
<svg xmlns:xlink="http://www.w3.org/1999/xlink" width="460.8pt" height="345.6pt" viewBox="0 0 460.8 345.6" xmlns="http://www.w3.org/2000/svg" version="1.1">
 <metadata>
  <rdf:RDF xmlns:dc="http://purl.org/dc/elements/1.1/" xmlns:cc="http://creativecommons.org/ns#" xmlns:rdf="http://www.w3.org/1999/02/22-rdf-syntax-ns#">
   <cc:Work>
    <dc:type rdf:resource="http://purl.org/dc/dcmitype/StillImage"/>
    <dc:date>2023-05-25T14:22:47.146918</dc:date>
    <dc:format>image/svg+xml</dc:format>
    <dc:creator>
     <cc:Agent>
      <dc:title>Matplotlib v3.5.2, https://matplotlib.org/</dc:title>
     </cc:Agent>
    </dc:creator>
   </cc:Work>
  </rdf:RDF>
 </metadata>
 <defs>
  <style type="text/css">*{stroke-linejoin: round; stroke-linecap: butt}</style>
 </defs>
 <g id="figure_1">
  <g id="patch_1">
   <path d="M 0 345.6 
L 460.8 345.6 
L 460.8 0 
L 0 0 
z
" style="fill: #ffffff"/>
  </g>
  <g id="axes_1">
   <g id="patch_2">
    <path d="M 57.6 307.584 
L 414.72 307.584 
L 414.72 41.472 
L 57.6 41.472 
z
" style="fill: #ffffff"/>
   </g>
   <g id="PathCollection_1">
    <defs>
     <path id="mcd00288b91" d="M 0 2.5 
C 0.663008 2.5 1.29895 2.236584 1.767767 1.767767 
C 2.236584 1.29895 2.5 0.663008 2.5 0 
C 2.5 -0.663008 2.236584 -1.29895 1.767767 -1.767767 
C 1.29895 -2.236584 0.663008 -2.5 0 -2.5 
C -0.663008 -2.5 -1.29895 -2.236584 -1.767767 -1.767767 
C -2.236584 -1.29895 -2.5 -0.663008 -2.5 0 
C -2.5 0.663008 -2.236584 1.29895 -1.767767 1.767767 
C -1.29895 2.236584 -0.663008 2.5 0 2.5 
z
" style="stroke: #ff0000"/>
    </defs>
    <g clip-path="url(#p946c449c2a)">
     <use xlink:href="#mcd00288b91" x="176.713255" y="141.045047" style="fill: #ff0000; stroke: #ff0000"/>
    </g>
   </g>
   <g id="matplotlib.axis_1">
    <g id="xtick_1">
     <g id="line2d_1">
      <path d="M 57.6 307.584 
L 57.6 41.472 
" clip-path="url(#p946c449c2a)" style="fill: none; stroke: #b0b0b0; stroke-width: 0.8; stroke-linecap: square"/>
     </g>
     <g id="line2d_2">
      <defs>
       <path id="m611e82eccf" d="M 0 0 
L 0 3.5 
" style="stroke: #000000; stroke-width: 0.8"/>
      </defs>
      <g>
       <use xlink:href="#m611e82eccf" x="57.6" y="307.584" style="stroke: #000000; stroke-width: 0.8"/>
      </g>
     </g>
     <g id="text_1">
      <!-- 1.0 -->
      <g transform="translate(49.648437 322.182437)scale(0.1 -0.1)">
       <defs>
        <path id="DejaVuSans-31" d="M 794 531 
L 1825 531 
L 1825 4091 
L 703 3866 
L 703 4441 
L 1819 4666 
L 2450 4666 
L 2450 531 
L 3481 531 
L 3481 0 
L 794 0 
L 794 531 
z
" transform="scale(0.015625)"/>
        <path id="DejaVuSans-2e" d="M 684 794 
L 1344 794 
L 1344 0 
L 684 0 
L 684 794 
z
" transform="scale(0.015625)"/>
        <path id="DejaVuSans-30" d="M 2034 4250 
Q 1547 4250 1301 3770 
Q 1056 3291 1056 2328 
Q 1056 1369 1301 889 
Q 1547 409 2034 409 
Q 2525 409 2770 889 
Q 3016 1369 3016 2328 
Q 3016 3291 2770 3770 
Q 2525 4250 2034 4250 
z
M 2034 4750 
Q 2819 4750 3233 4129 
Q 3647 3509 3647 2328 
Q 3647 1150 3233 529 
Q 2819 -91 2034 -91 
Q 1250 -91 836 529 
Q 422 1150 422 2328 
Q 422 3509 836 4129 
Q 1250 4750 2034 4750 
z
" transform="scale(0.015625)"/>
       </defs>
       <use xlink:href="#DejaVuSans-31"/>
       <use xlink:href="#DejaVuSans-2e" x="63.623047"/>
       <use xlink:href="#DejaVuSans-30" x="95.410156"/>
      </g>
     </g>
    </g>
    <g id="xtick_2">
     <g id="line2d_3">
      <path d="M 112.541538 307.584 
L 112.541538 41.472 
" clip-path="url(#p946c449c2a)" style="fill: none; stroke: #b0b0b0; stroke-width: 0.8; stroke-linecap: square"/>
     </g>
     <g id="line2d_4">
      <g>
       <use xlink:href="#m611e82eccf" x="112.541538" y="307.584" style="stroke: #000000; stroke-width: 0.8"/>
      </g>
     </g>
     <g id="text_2">
      <!-- 1.2 -->
      <g transform="translate(104.589976 322.182437)scale(0.1 -0.1)">
       <defs>
        <path id="DejaVuSans-32" d="M 1228 531 
L 3431 531 
L 3431 0 
L 469 0 
L 469 531 
Q 828 903 1448 1529 
Q 2069 2156 2228 2338 
Q 2531 2678 2651 2914 
Q 2772 3150 2772 3378 
Q 2772 3750 2511 3984 
Q 2250 4219 1831 4219 
Q 1534 4219 1204 4116 
Q 875 4013 500 3803 
L 500 4441 
Q 881 4594 1212 4672 
Q 1544 4750 1819 4750 
Q 2544 4750 2975 4387 
Q 3406 4025 3406 3419 
Q 3406 3131 3298 2873 
Q 3191 2616 2906 2266 
Q 2828 2175 2409 1742 
Q 1991 1309 1228 531 
z
" transform="scale(0.015625)"/>
       </defs>
       <use xlink:href="#DejaVuSans-31"/>
       <use xlink:href="#DejaVuSans-2e" x="63.623047"/>
       <use xlink:href="#DejaVuSans-32" x="95.410156"/>
      </g>
     </g>
    </g>
    <g id="xtick_3">
     <g id="line2d_5">
      <path d="M 167.483077 307.584 
L 167.483077 41.472 
" clip-path="url(#p946c449c2a)" style="fill: none; stroke: #b0b0b0; stroke-width: 0.8; stroke-linecap: square"/>
     </g>
     <g id="line2d_6">
      <g>
       <use xlink:href="#m611e82eccf" x="167.483077" y="307.584" style="stroke: #000000; stroke-width: 0.8"/>
      </g>
     </g>
     <g id="text_3">
      <!-- 1.4 -->
      <g transform="translate(159.531514 322.182437)scale(0.1 -0.1)">
       <defs>
        <path id="DejaVuSans-34" d="M 2419 4116 
L 825 1625 
L 2419 1625 
L 2419 4116 
z
M 2253 4666 
L 3047 4666 
L 3047 1625 
L 3713 1625 
L 3713 1100 
L 3047 1100 
L 3047 0 
L 2419 0 
L 2419 1100 
L 313 1100 
L 313 1709 
L 2253 4666 
z
" transform="scale(0.015625)"/>
       </defs>
       <use xlink:href="#DejaVuSans-31"/>
       <use xlink:href="#DejaVuSans-2e" x="63.623047"/>
       <use xlink:href="#DejaVuSans-34" x="95.410156"/>
      </g>
     </g>
    </g>
    <g id="xtick_4">
     <g id="line2d_7">
      <path d="M 222.424615 307.584 
L 222.424615 41.472 
" clip-path="url(#p946c449c2a)" style="fill: none; stroke: #b0b0b0; stroke-width: 0.8; stroke-linecap: square"/>
     </g>
     <g id="line2d_8">
      <g>
       <use xlink:href="#m611e82eccf" x="222.424615" y="307.584" style="stroke: #000000; stroke-width: 0.8"/>
      </g>
     </g>
     <g id="text_4">
      <!-- 1.6 -->
      <g transform="translate(214.473053 322.182437)scale(0.1 -0.1)">
       <defs>
        <path id="DejaVuSans-36" d="M 2113 2584 
Q 1688 2584 1439 2293 
Q 1191 2003 1191 1497 
Q 1191 994 1439 701 
Q 1688 409 2113 409 
Q 2538 409 2786 701 
Q 3034 994 3034 1497 
Q 3034 2003 2786 2293 
Q 2538 2584 2113 2584 
z
M 3366 4563 
L 3366 3988 
Q 3128 4100 2886 4159 
Q 2644 4219 2406 4219 
Q 1781 4219 1451 3797 
Q 1122 3375 1075 2522 
Q 1259 2794 1537 2939 
Q 1816 3084 2150 3084 
Q 2853 3084 3261 2657 
Q 3669 2231 3669 1497 
Q 3669 778 3244 343 
Q 2819 -91 2113 -91 
Q 1303 -91 875 529 
Q 447 1150 447 2328 
Q 447 3434 972 4092 
Q 1497 4750 2381 4750 
Q 2619 4750 2861 4703 
Q 3103 4656 3366 4563 
z
" transform="scale(0.015625)"/>
       </defs>
       <use xlink:href="#DejaVuSans-31"/>
       <use xlink:href="#DejaVuSans-2e" x="63.623047"/>
       <use xlink:href="#DejaVuSans-36" x="95.410156"/>
      </g>
     </g>
    </g>
    <g id="xtick_5">
     <g id="line2d_9">
      <path d="M 277.366154 307.584 
L 277.366154 41.472 
" clip-path="url(#p946c449c2a)" style="fill: none; stroke: #b0b0b0; stroke-width: 0.8; stroke-linecap: square"/>
     </g>
     <g id="line2d_10">
      <g>
       <use xlink:href="#m611e82eccf" x="277.366154" y="307.584" style="stroke: #000000; stroke-width: 0.8"/>
      </g>
     </g>
     <g id="text_5">
      <!-- 1.8 -->
      <g transform="translate(269.414591 322.182437)scale(0.1 -0.1)">
       <defs>
        <path id="DejaVuSans-38" d="M 2034 2216 
Q 1584 2216 1326 1975 
Q 1069 1734 1069 1313 
Q 1069 891 1326 650 
Q 1584 409 2034 409 
Q 2484 409 2743 651 
Q 3003 894 3003 1313 
Q 3003 1734 2745 1975 
Q 2488 2216 2034 2216 
z
M 1403 2484 
Q 997 2584 770 2862 
Q 544 3141 544 3541 
Q 544 4100 942 4425 
Q 1341 4750 2034 4750 
Q 2731 4750 3128 4425 
Q 3525 4100 3525 3541 
Q 3525 3141 3298 2862 
Q 3072 2584 2669 2484 
Q 3125 2378 3379 2068 
Q 3634 1759 3634 1313 
Q 3634 634 3220 271 
Q 2806 -91 2034 -91 
Q 1263 -91 848 271 
Q 434 634 434 1313 
Q 434 1759 690 2068 
Q 947 2378 1403 2484 
z
M 1172 3481 
Q 1172 3119 1398 2916 
Q 1625 2713 2034 2713 
Q 2441 2713 2670 2916 
Q 2900 3119 2900 3481 
Q 2900 3844 2670 4047 
Q 2441 4250 2034 4250 
Q 1625 4250 1398 4047 
Q 1172 3844 1172 3481 
z
" transform="scale(0.015625)"/>
       </defs>
       <use xlink:href="#DejaVuSans-31"/>
       <use xlink:href="#DejaVuSans-2e" x="63.623047"/>
       <use xlink:href="#DejaVuSans-38" x="95.410156"/>
      </g>
     </g>
    </g>
    <g id="xtick_6">
     <g id="line2d_11">
      <path d="M 332.307692 307.584 
L 332.307692 41.472 
" clip-path="url(#p946c449c2a)" style="fill: none; stroke: #b0b0b0; stroke-width: 0.8; stroke-linecap: square"/>
     </g>
     <g id="line2d_12">
      <g>
       <use xlink:href="#m611e82eccf" x="332.307692" y="307.584" style="stroke: #000000; stroke-width: 0.8"/>
      </g>
     </g>
     <g id="text_6">
      <!-- 2.0 -->
      <g transform="translate(324.35613 322.182437)scale(0.1 -0.1)">
       <use xlink:href="#DejaVuSans-32"/>
       <use xlink:href="#DejaVuSans-2e" x="63.623047"/>
       <use xlink:href="#DejaVuSans-30" x="95.410156"/>
      </g>
     </g>
    </g>
    <g id="xtick_7">
     <g id="line2d_13">
      <path d="M 387.249231 307.584 
L 387.249231 41.472 
" clip-path="url(#p946c449c2a)" style="fill: none; stroke: #b0b0b0; stroke-width: 0.8; stroke-linecap: square"/>
     </g>
     <g id="line2d_14">
      <g>
       <use xlink:href="#m611e82eccf" x="387.249231" y="307.584" style="stroke: #000000; stroke-width: 0.8"/>
      </g>
     </g>
     <g id="text_7">
      <!-- 2.2 -->
      <g transform="translate(379.297668 322.182437)scale(0.1 -0.1)">
       <use xlink:href="#DejaVuSans-32"/>
       <use xlink:href="#DejaVuSans-2e" x="63.623047"/>
       <use xlink:href="#DejaVuSans-32" x="95.410156"/>
      </g>
     </g>
    </g>
    <g id="text_8">
     <!-- $l$ -->
     <g transform="translate(234.2 338.899937)scale(0.14 -0.14)">
      <defs>
       <path id="DejaVuSans-Oblique-6c" d="M 1172 4863 
L 1747 4863 
L 800 0 
L 225 0 
L 1172 4863 
z
" transform="scale(0.015625)"/>
      </defs>
      <use xlink:href="#DejaVuSans-Oblique-6c" transform="translate(0 0.015625)"/>
     </g>
    </g>
   </g>
   <g id="matplotlib.axis_2">
    <g id="ytick_1">
     <g id="line2d_15">
      <path d="M 57.6 277.267443 
L 414.72 277.267443 
" clip-path="url(#p946c449c2a)" style="fill: none; stroke: #b0b0b0; stroke-width: 0.8; stroke-linecap: square"/>
     </g>
     <g id="line2d_16">
      <defs>
       <path id="m78e3035bef" d="M 0 0 
L -3.5 0 
" style="stroke: #000000; stroke-width: 0.8"/>
      </defs>
      <g>
       <use xlink:href="#m78e3035bef" x="57.6" y="277.267443" style="stroke: #000000; stroke-width: 0.8"/>
      </g>
     </g>
     <g id="text_9">
      <!-- 5 -->
      <g transform="translate(44.2375 281.066662)scale(0.1 -0.1)">
       <defs>
        <path id="DejaVuSans-35" d="M 691 4666 
L 3169 4666 
L 3169 4134 
L 1269 4134 
L 1269 2991 
Q 1406 3038 1543 3061 
Q 1681 3084 1819 3084 
Q 2600 3084 3056 2656 
Q 3513 2228 3513 1497 
Q 3513 744 3044 326 
Q 2575 -91 1722 -91 
Q 1428 -91 1123 -41 
Q 819 9 494 109 
L 494 744 
Q 775 591 1075 516 
Q 1375 441 1709 441 
Q 2250 441 2565 725 
Q 2881 1009 2881 1497 
Q 2881 1984 2565 2268 
Q 2250 2553 1709 2553 
Q 1456 2553 1204 2497 
Q 953 2441 691 2322 
L 691 4666 
z
" transform="scale(0.015625)"/>
       </defs>
       <use xlink:href="#DejaVuSans-35"/>
      </g>
     </g>
    </g>
    <g id="ytick_2">
     <g id="line2d_17">
      <path d="M 57.6 243.58238 
L 414.72 243.58238 
" clip-path="url(#p946c449c2a)" style="fill: none; stroke: #b0b0b0; stroke-width: 0.8; stroke-linecap: square"/>
     </g>
     <g id="line2d_18">
      <g>
       <use xlink:href="#m78e3035bef" x="57.6" y="243.58238" style="stroke: #000000; stroke-width: 0.8"/>
      </g>
     </g>
     <g id="text_10">
      <!-- 10 -->
      <g transform="translate(37.875 247.381598)scale(0.1 -0.1)">
       <use xlink:href="#DejaVuSans-31"/>
       <use xlink:href="#DejaVuSans-30" x="63.623047"/>
      </g>
     </g>
    </g>
    <g id="ytick_3">
     <g id="line2d_19">
      <path d="M 57.6 209.897316 
L 414.72 209.897316 
" clip-path="url(#p946c449c2a)" style="fill: none; stroke: #b0b0b0; stroke-width: 0.8; stroke-linecap: square"/>
     </g>
     <g id="line2d_20">
      <g>
       <use xlink:href="#m78e3035bef" x="57.6" y="209.897316" style="stroke: #000000; stroke-width: 0.8"/>
      </g>
     </g>
     <g id="text_11">
      <!-- 15 -->
      <g transform="translate(37.875 213.696535)scale(0.1 -0.1)">
       <use xlink:href="#DejaVuSans-31"/>
       <use xlink:href="#DejaVuSans-35" x="63.623047"/>
      </g>
     </g>
    </g>
    <g id="ytick_4">
     <g id="line2d_21">
      <path d="M 57.6 176.212253 
L 414.72 176.212253 
" clip-path="url(#p946c449c2a)" style="fill: none; stroke: #b0b0b0; stroke-width: 0.8; stroke-linecap: square"/>
     </g>
     <g id="line2d_22">
      <g>
       <use xlink:href="#m78e3035bef" x="57.6" y="176.212253" style="stroke: #000000; stroke-width: 0.8"/>
      </g>
     </g>
     <g id="text_12">
      <!-- 20 -->
      <g transform="translate(37.875 180.011472)scale(0.1 -0.1)">
       <use xlink:href="#DejaVuSans-32"/>
       <use xlink:href="#DejaVuSans-30" x="63.623047"/>
      </g>
     </g>
    </g>
    <g id="ytick_5">
     <g id="line2d_23">
      <path d="M 57.6 142.52719 
L 414.72 142.52719 
" clip-path="url(#p946c449c2a)" style="fill: none; stroke: #b0b0b0; stroke-width: 0.8; stroke-linecap: square"/>
     </g>
     <g id="line2d_24">
      <g>
       <use xlink:href="#m78e3035bef" x="57.6" y="142.52719" style="stroke: #000000; stroke-width: 0.8"/>
      </g>
     </g>
     <g id="text_13">
      <!-- 25 -->
      <g transform="translate(37.875 146.326409)scale(0.1 -0.1)">
       <use xlink:href="#DejaVuSans-32"/>
       <use xlink:href="#DejaVuSans-35" x="63.623047"/>
      </g>
     </g>
    </g>
    <g id="ytick_6">
     <g id="line2d_25">
      <path d="M 57.6 108.842127 
L 414.72 108.842127 
" clip-path="url(#p946c449c2a)" style="fill: none; stroke: #b0b0b0; stroke-width: 0.8; stroke-linecap: square"/>
     </g>
     <g id="line2d_26">
      <g>
       <use xlink:href="#m78e3035bef" x="57.6" y="108.842127" style="stroke: #000000; stroke-width: 0.8"/>
      </g>
     </g>
     <g id="text_14">
      <!-- 30 -->
      <g transform="translate(37.875 112.641345)scale(0.1 -0.1)">
       <defs>
        <path id="DejaVuSans-33" d="M 2597 2516 
Q 3050 2419 3304 2112 
Q 3559 1806 3559 1356 
Q 3559 666 3084 287 
Q 2609 -91 1734 -91 
Q 1441 -91 1130 -33 
Q 819 25 488 141 
L 488 750 
Q 750 597 1062 519 
Q 1375 441 1716 441 
Q 2309 441 2620 675 
Q 2931 909 2931 1356 
Q 2931 1769 2642 2001 
Q 2353 2234 1838 2234 
L 1294 2234 
L 1294 2753 
L 1863 2753 
Q 2328 2753 2575 2939 
Q 2822 3125 2822 3475 
Q 2822 3834 2567 4026 
Q 2313 4219 1838 4219 
Q 1578 4219 1281 4162 
Q 984 4106 628 3988 
L 628 4550 
Q 988 4650 1302 4700 
Q 1616 4750 1894 4750 
Q 2613 4750 3031 4423 
Q 3450 4097 3450 3541 
Q 3450 3153 3228 2886 
Q 3006 2619 2597 2516 
z
" transform="scale(0.015625)"/>
       </defs>
       <use xlink:href="#DejaVuSans-33"/>
       <use xlink:href="#DejaVuSans-30" x="63.623047"/>
      </g>
     </g>
    </g>
    <g id="ytick_7">
     <g id="line2d_27">
      <path d="M 57.6 75.157063 
L 414.72 75.157063 
" clip-path="url(#p946c449c2a)" style="fill: none; stroke: #b0b0b0; stroke-width: 0.8; stroke-linecap: square"/>
     </g>
     <g id="line2d_28">
      <g>
       <use xlink:href="#m78e3035bef" x="57.6" y="75.157063" style="stroke: #000000; stroke-width: 0.8"/>
      </g>
     </g>
     <g id="text_15">
      <!-- 35 -->
      <g transform="translate(37.875 78.956282)scale(0.1 -0.1)">
       <use xlink:href="#DejaVuSans-33"/>
       <use xlink:href="#DejaVuSans-35" x="63.623047"/>
      </g>
     </g>
    </g>
    <g id="ytick_8">
     <g id="line2d_29">
      <path d="M 57.6 41.472 
L 414.72 41.472 
" clip-path="url(#p946c449c2a)" style="fill: none; stroke: #b0b0b0; stroke-width: 0.8; stroke-linecap: square"/>
     </g>
     <g id="line2d_30">
      <g>
       <use xlink:href="#m78e3035bef" x="57.6" y="41.472" style="stroke: #000000; stroke-width: 0.8"/>
      </g>
     </g>
     <g id="text_16">
      <!-- 40 -->
      <g transform="translate(37.875 45.271219)scale(0.1 -0.1)">
       <use xlink:href="#DejaVuSans-34"/>
       <use xlink:href="#DejaVuSans-30" x="63.623047"/>
      </g>
     </g>
    </g>
    <g id="text_17">
     <!-- $\alpha$ -->
     <g transform="translate(30.963437 179.148)rotate(-90)scale(0.14 -0.14)">
      <defs>
       <path id="DejaVuSans-Oblique-3b1" d="M 2619 1628 
L 2622 2350 
Q 2625 3088 2069 3091 
Q 1653 3094 1394 2747 
Q 1069 2319 959 1747 
Q 825 1059 994 731 
Q 1169 397 1547 397 
Q 1966 397 2319 1063 
L 2619 1628 
z
M 2166 3578 
Q 3141 3594 3128 2584 
Q 3128 2584 3616 3500 
L 4128 3500 
L 3119 1603 
L 3109 919 
Q 3109 766 3194 638 
Q 3291 488 3391 488 
L 3669 488 
L 3575 0 
L 3228 0 
Q 2934 0 2722 263 
Q 2622 394 2619 669 
Q 2416 334 2066 50 
Q 1900 -81 1453 -78 
Q 722 -72 456 397 
Q 184 884 353 1747 
Q 534 2675 1009 3097 
Q 1544 3569 2166 3578 
z
" transform="scale(0.015625)"/>
      </defs>
      <use xlink:href="#DejaVuSans-Oblique-3b1" transform="translate(0 0.84375)"/>
     </g>
    </g>
   </g>
   <g id="PathCollection_2">
    <path d="M 203.690872 122.295586 
L 203.601075 122.934857 
L 203.363265 123.721675 
L 201.543984 128.365714 
L 198.989914 133.796571 
L 196.227211 139.227429 
L 196.075102 139.467515 
L 192.056508 144.658286 
L 188.786939 148.913865 
L 187.650856 150.089143 
L 182.12863 155.52 
L 181.498776 156.093295 
L 174.963866 160.950857 
L 174.210612 161.481995 
L 166.922449 165.278844 
L 163.425908 166.381714 
L 159.634286 167.468709 
L 152.346122 167.008902 
L 151.35519 166.381714 
L 148.947083 160.950857 
L 149.742906 155.52 
L 151.75346 150.089143 
L 152.346122 148.976369 
L 155.016806 144.658286 
L 158.555923 139.227429 
L 159.634286 137.713906 
L 162.907724 133.796571 
L 166.922449 128.786776 
L 167.337819 128.365714 
L 172.705212 122.934857 
L 174.210612 121.341586 
L 178.7635 117.504 
L 181.498776 115.020895 
L 185.984004 112.073143 
L 188.786939 110.053236 
L 192.004228 108.75033 
" clip-path="url(#p946c449c2a)" style="fill: none; stroke: #440154; stroke-width: 1.5"/>
   </g>
   <g id="PathCollection_3">
    <path d="M 57.6 138.83537 
L 61.261023 133.796571 
L 64.888163 128.781467 
L 65.192308 128.365714 
L 69.174536 122.934857 
L 72.176327 118.805142 
L 73.134343 117.504 
L 77.114368 112.073143 
L 79.46449 108.832877 
L 81.076053 106.642286 
L 85.031428 101.211429 
L 86.752653 98.821585 
L 86.80882 98.744798 
" clip-path="url(#p946c449c2a)" style="fill: none; stroke: #481668; stroke-width: 1.5"/>
    <path d="M 101.230292 78.704767 
L 101.32898 78.564596 
L 104.559694 74.057143 
L 108.374307 68.626286 
L 108.617143 68.276539 
L 112.212887 63.195429 
L 115.905306 57.860942 
L 115.973425 57.764571 
L 119.763789 52.333714 
L 123.193469 47.305531 
L 123.474322 46.902857 
L 127.209129 41.472 
" clip-path="url(#p946c449c2a)" style="fill: none; stroke: #481668; stroke-width: 1.5"/>
    <path d="M 305.589484 41.472 
L 305.397551 42.160183 
L 303.958023 46.902857 
L 302.281111 52.333714 
L 300.582965 57.764571 
L 298.86212 63.195429 
L 298.109388 65.48538 
L 296.991523 68.626286 
L 295.006425 74.057143 
L 293.002442 79.488 
L 290.977127 84.918857 
L 290.821224 85.316339 
L 288.696791 90.349714 
L 286.382103 95.780571 
L 284.049049 101.211429 
L 283.533061 102.360534 
L 281.472319 106.642286 
L 278.820428 112.073143 
L 276.244898 117.306917 
L 276.141096 117.504 
L 273.134638 122.934857 
L 270.119477 128.365714 
L 268.956735 130.385233 
L 266.866335 133.796571 
L 263.469824 139.227429 
L 261.668571 142.027385 
L 259.872328 144.658286 
L 256.061003 150.089143 
L 254.380408 152.406495 
L 251.992437 155.52 
L 247.734015 160.950857 
L 247.092245 161.728951 
L 243.050952 166.381714 
L 241.35329 168.288655 
" clip-path="url(#p946c449c2a)" style="fill: none; stroke: #481668; stroke-width: 1.5"/>
    <path d="M 223.726874 185.548367 
L 220.720418 188.105143 
L 217.939592 190.348875 
L 213.823567 193.536 
L 210.651429 195.846832 
L 206.201379 198.966857 
L 203.363265 200.822418 
L 197.701293 204.397714 
L 196.075102 205.346497 
L 188.786939 209.44264 
L 188.064868 209.828571 
L 181.498776 213.026712 
L 176.79161 215.259429 
L 174.210612 216.363939 
L 166.922449 219.330972 
L 163.423047 220.690286 
L 159.634286 221.998097 
L 152.346122 224.373956 
L 146.718422 226.121143 
L 145.057959 226.572086 
L 137.769796 228.362118 
L 130.481633 230.035683 
L 123.294609 231.552 
L 123.193469 231.570263 
L 115.905306 232.674786 
L 108.617143 233.619113 
L 101.32898 234.381828 
L 94.040816 234.93852 
L 86.752653 235.261738 
L 79.46449 235.321134 
L 72.176327 235.08382 
L 64.888163 234.514984 
L 57.6 233.578785 
" clip-path="url(#p946c449c2a)" style="fill: none; stroke: #481668; stroke-width: 1.5"/>
   </g>
   <g id="PathCollection_4">
    <path d="M 57.6 60.267869 
L 59.283411 57.764571 
L 62.888673 52.333714 
L 64.888163 49.281711 
L 66.454196 46.902857 
L 69.982047 41.472 
" clip-path="url(#p946c449c2a)" style="fill: none; stroke: #482576; stroke-width: 1.5"/>
    <path d="M 333.298374 41.472 
L 331.445185 46.902857 
L 329.580029 52.333714 
L 327.701129 57.764571 
L 327.262041 58.994373 
L 325.667468 63.195429 
L 323.579866 68.626286 
L 321.478955 74.057143 
L 319.973878 77.882875 
L 319.303877 79.488 
L 316.971287 84.918857 
L 314.625486 90.349714 
L 312.685714 94.781988 
L 312.22318 95.780571 
L 309.621864 101.211429 
L 307.006649 106.642286 
L 305.397551 109.914076 
L 304.277204 112.073143 
L 301.381585 117.504 
L 298.469867 122.934857 
L 298.109388 123.580153 
L 295.299304 128.365714 
L 292.080502 133.796571 
L 290.821224 135.855275 
L 288.657023 139.227429 
L 285.100905 144.658286 
L 283.533061 146.981124 
L 281.337092 150.089143 
L 277.41163 155.52 
L 276.244898 157.073823 
L 273.206079 160.950857 
L 268.956735 166.276591 
L 268.869208 166.381714 
L 264.113526 171.812571 
L 261.668571 174.525756 
L 259.122685 177.243429 
L 256.941852 179.494915 
" clip-path="url(#p946c449c2a)" style="fill: none; stroke: #482576; stroke-width: 1.5"/>
    <path d="M 238.720151 196.130033 
L 235.17978 198.966857 
L 232.515918 200.978902 
L 227.858248 204.397714 
L 225.227755 206.203493 
L 219.808826 209.828571 
L 217.939592 210.988289 
L 210.897891 215.259429 
L 210.651429 215.396849 
L 203.363265 219.304155 
L 200.72176 220.690286 
L 196.075102 222.903495 
L 189.220582 226.121143 
L 188.786939 226.304061 
L 181.498776 229.22773 
L 175.634901 231.552 
L 174.210612 232.052035 
L 166.922449 234.481005 
L 159.634286 236.8774 
L 159.291716 236.982857 
L 152.346122 238.839801 
L 145.057959 240.72856 
L 138.311793 242.413714 
L 137.769796 242.529403 
L 130.481633 243.952999 
L 123.193469 245.299701 
L 115.905306 246.562005 
L 108.617143 247.731172 
L 107.810305 247.844571 
L 101.32898 248.599039 
L 94.040816 249.344962 
L 86.752653 249.983352 
L 79.46449 250.504785 
L 72.176327 250.899329 
L 64.888163 251.156807 
L 57.6 251.267106 
" clip-path="url(#p946c449c2a)" style="fill: none; stroke: #482576; stroke-width: 1.5"/>
   </g>
   <g id="PathCollection_5">
    <path d="M 353.543674 41.472 
L 351.621042 46.902857 
L 349.685591 52.333714 
L 349.126531 53.862954 
L 347.624658 57.764571 
L 345.506928 63.195429 
L 343.375785 68.626286 
L 341.838367 72.485967 
L 341.180341 74.057143 
L 338.847577 79.488 
L 336.500314 84.918857 
L 334.550204 89.375295 
L 334.102715 90.349714 
L 331.533127 95.780571 
L 328.947086 101.211429 
L 327.262041 104.685341 
L 326.268194 106.642286 
L 323.437402 112.073143 
L 320.586754 117.504 
L 319.973878 118.632794 
L 317.535258 122.934857 
L 314.414922 128.365714 
L 312.685714 131.305205 
L 311.15764 133.796571 
L 307.740405 139.227429 
L 305.397551 142.878444 
L 304.208747 144.658286 
L 300.465021 150.089143 
L 298.109388 153.429955 
L 296.578646 155.52 
L 292.475807 160.950857 
L 290.821224 163.069691 
L 288.141544 166.381714 
L 283.642772 171.812571 
L 283.533061 171.938359 
L 278.753281 177.243429 
L 276.244898 179.940821 
L 273.62104 182.674286 
L 270.651206 185.656314 
" clip-path="url(#p946c449c2a)" style="fill: none; stroke: #463480; stroke-width: 1.5"/>
    <path d="M 252.185599 202.022681 
L 249.183544 204.397714 
L 247.092245 205.954386 
L 241.768318 209.828571 
L 239.804082 211.163375 
L 233.65339 215.259429 
L 232.515918 215.961144 
L 225.227755 220.362236 
L 224.669683 220.690286 
L 217.939592 224.314249 
L 214.535217 226.121143 
L 210.651429 227.991636 
L 203.363265 231.460783 
L 203.164114 231.552 
L 196.075102 234.459472 
L 189.889939 236.982857 
L 188.786939 237.381424 
L 181.498776 239.905551 
L 174.214955 242.413714 
L 174.210612 242.415019 
L 166.922449 244.484118 
L 159.634286 246.519344 
L 154.732873 247.844571 
L 152.346122 248.3961 
L 145.057959 249.990591 
L 137.769796 251.535117 
L 130.481633 253.026097 
L 129.171694 253.275429 
L 123.193469 254.222889 
L 115.905306 255.31038 
L 108.617143 256.333243 
L 101.32898 257.286552 
L 94.040816 258.164655 
L 89.030167 258.706286 
L 86.752653 258.904822 
L 79.46449 259.453165 
L 72.176327 259.922938 
L 64.888163 260.309212 
L 57.6 260.607071 
" clip-path="url(#p946c449c2a)" style="fill: none; stroke: #463480; stroke-width: 1.5"/>
   </g>
   <g id="PathCollection_6">
    <path d="M 384.561793 41.472 
L 382.496483 46.902857 
L 380.416202 52.333714 
L 378.31914 57.764571 
L 378.279184 57.865145 
L 376.078633 63.195429 
L 373.818999 68.626286 
L 371.540454 74.057143 
L 370.99102 75.333801 
L 369.135314 79.488 
L 366.677283 84.918857 
L 364.197349 90.349714 
L 363.702857 91.402657 
L 361.571989 95.780571 
L 358.893643 101.211429 
L 356.414694 106.179304 
L 356.175352 106.642286 
L 353.278589 112.073143 
L 350.353977 117.504 
L 349.126531 119.725077 
L 347.292793 122.934857 
L 344.125659 128.365714 
L 341.838367 132.214371 
L 340.867234 133.796571 
L 337.432677 139.227429 
L 334.550204 143.71089 
L 333.921926 144.658286 
L 330.192021 150.089143 
L 327.262041 154.274719 
L 326.364239 155.52 
L 322.307151 160.950857 
L 319.973878 163.990307 
L 318.086657 166.381714 
L 313.66524 171.812571 
L 312.685714 172.96696 
L 308.963578 177.243429 
L 305.397551 181.214988 
L 304.054142 182.674286 
L 298.846437 188.105143 
L 298.109388 188.836894 
L 293.270485 193.536 
L 290.821224 195.810856 
L 290.30361 196.281555 
" clip-path="url(#p946c449c2a)" style="fill: none; stroke: #3c508b; stroke-width: 1.5"/>
    <path d="M 271.303363 211.981333 
L 268.956735 213.717131 
L 266.836215 215.259429 
L 261.668571 218.76647 
L 258.79118 220.690286 
L 254.380408 223.421082 
L 249.96357 226.121143 
L 247.092245 227.733099 
L 240.220349 231.552 
L 239.804082 231.762536 
L 232.515918 235.356291 
L 229.185028 236.982857 
L 225.227755 238.720131 
L 217.939592 241.887028 
L 216.695715 242.413714 
L 210.651429 244.683138 
L 203.363265 247.405513 
L 202.150838 247.844571 
L 196.075102 249.766075 
L 188.786939 252.043486 
L 184.753881 253.275429 
L 181.498776 254.129271 
L 174.210612 255.980054 
L 166.922449 257.802895 
L 163.191103 258.706286 
L 159.634286 259.429484 
L 152.346122 260.853159 
L 145.057959 262.239932 
L 137.769796 263.588636 
L 134.661369 264.137143 
L 130.481633 264.739155 
L 123.193469 265.735988 
L 115.905306 266.690303 
L 108.617143 267.600241 
L 101.32898 268.463508 
L 94.040816 269.277358 
L 91.212012 269.568 
L 86.752653 269.927585 
L 79.46449 270.462991 
L 72.176327 270.948943 
L 64.888163 271.382946 
L 57.6 271.762443 
" clip-path="url(#p946c449c2a)" style="fill: none; stroke: #3c508b; stroke-width: 1.5"/>
   </g>
   <g id="PathCollection_7">
    <path d="M 414.72 78.29436 
L 414.169692 79.488 
L 411.606072 84.918857 
L 409.010805 90.349714 
L 407.431837 93.589734 
L 406.338972 95.780571 
L 403.568543 101.211429 
L 400.760375 106.642286 
L 400.143673 107.802294 
L 397.82243 112.073143 
L 394.818055 117.504 
L 392.85551 120.976034 
L 391.724046 122.934857 
L 388.503147 128.365714 
L 385.567347 133.228431 
L 385.217032 133.796571 
L 381.756497 139.227429 
L 378.279184 144.592506 
L 378.235674 144.658286 
L 374.508859 150.089143 
L 370.99102 155.116361 
L 370.703052 155.52 
L 366.678716 160.950857 
L 363.702857 164.864936 
L 362.528509 166.381714 
L 358.169235 171.812571 
L 356.414694 173.921411 
L 353.604069 177.243429 
L 349.126531 182.366262 
L 348.852804 182.674286 
L 343.799112 188.105143 
L 341.838367 190.127982 
L 338.485881 193.536 
L 334.550204 197.367661 
L 332.884017 198.966857 
L 327.262041 204.112814 
L 326.946519 204.397714 
L 320.590942 209.828571 
L 319.973878 210.325998 
L 313.785673 215.259429 
L 312.685714 216.083377 
L 308.24785 219.374361 
" clip-path="url(#p946c449c2a)" style="fill: none; stroke: #26818e; stroke-width: 1.5"/>
    <path d="M 287.60208 232.891987 
L 283.533061 235.223714 
L 280.443857 236.982857 
L 276.244898 239.162771 
L 269.955126 242.413714 
L 268.956735 242.879724 
L 261.668571 246.227021 
L 258.12399 247.844571 
L 254.380408 249.367991 
L 247.092245 252.307288 
L 244.656776 253.275429 
L 239.804082 254.970859 
L 232.515918 257.493547 
L 228.961478 258.706286 
L 225.227755 259.807411 
L 217.939592 261.917635 
L 210.651429 264.014577 
L 210.212031 264.137143 
L 203.363265 265.752049 
L 196.075102 267.445345 
L 188.786939 269.115955 
L 186.752172 269.568 
L 181.498776 270.529204 
L 174.210612 271.826913 
L 166.922449 273.096558 
L 159.634286 274.338214 
L 155.627113 274.998857 
L 152.346122 275.42932 
L 145.057959 276.346915 
L 137.769796 277.235517 
L 130.481633 278.09509 
L 123.193469 278.925429 
L 115.905306 279.726113 
L 109.237626 280.429714 
L 108.617143 280.479352 
L 101.32898 281.026675 
L 94.040816 281.545927 
L 86.752653 282.036339 
L 79.46449 282.496962 
L 72.176327 282.926696 
L 64.888163 283.324322 
L 57.6 283.688532 
" clip-path="url(#p946c449c2a)" style="fill: none; stroke: #26818e; stroke-width: 1.5"/>
   </g>
   <g id="PathCollection_8">
    <path d="M 414.72 142.992717 
L 413.614004 144.658286 
L 409.893656 150.089143 
L 407.431837 153.58473 
L 406.051405 155.52 
L 402.049306 160.950857 
L 400.143673 163.453432 
L 397.887058 166.381714 
L 393.565336 171.812571 
L 392.85551 172.668985 
L 389.022096 177.243429 
L 385.567347 181.226536 
L 384.297796 182.674286 
L 379.335292 188.105143 
L 378.279184 189.209989 
L 374.10363 193.536 
L 370.99102 196.623423 
L 368.60602 198.966857 
L 363.702857 203.562928 
L 362.804149 204.397714 
L 356.645946 209.828571 
L 356.414694 210.020931 
L 350.070356 215.259429 
L 349.126531 215.993343 
L 343.045112 220.690286 
L 341.838367 221.563374 
L 335.500547 226.121143 
L 334.550204 226.757586 
L 327.353647 231.552 
L 327.262041 231.608459 
L 319.973878 236.059536 
L 318.454548 236.982857 
L 312.685714 240.1991 
L 308.699644 242.413714 
L 305.397551 244.082494 
L 298.109388 247.755627 
L 297.930624 247.844571 
L 297.061685 248.233504 
" clip-path="url(#p946c449c2a)" style="fill: none; stroke: #27ad81; stroke-width: 1.5"/>
    <path d="M 274.307376 257.80021 
L 271.991566 258.706286 
L 268.956735 259.746964 
L 261.668571 262.215404 
L 255.965105 264.137143 
L 254.380408 264.59697 
L 247.092245 266.669808 
L 239.804082 268.73063 
L 236.791219 269.568 
L 232.515918 270.567414 
L 225.227755 272.239449 
L 217.939592 273.891791 
L 212.969058 274.998857 
L 210.651429 275.42066 
L 203.363265 276.708944 
L 196.075102 277.972765 
L 188.786939 279.212294 
L 181.498776 280.427717 
L 181.486344 280.429714 
L 174.210612 281.34506 
L 166.922449 282.236895 
L 159.634286 283.103983 
L 152.346122 283.946627 
L 145.057959 284.765106 
L 137.769796 285.559642 
L 134.897836 285.860571 
L 130.481633 286.202322 
L 123.193469 286.742324 
L 115.905306 287.260946 
L 108.617143 287.758168 
L 101.32898 288.233823 
L 94.040816 288.687594 
L 86.752653 289.119007 
L 79.46449 289.527447 
L 72.176327 289.912173 
L 64.888163 290.272337 
L 57.6 290.607011 
" clip-path="url(#p946c449c2a)" style="fill: none; stroke: #27ad81; stroke-width: 1.5"/>
   </g>
   <g id="PathCollection_9">
    <path d="M 414.72 211.202316 
L 409.924067 215.259429 
L 407.431837 217.247984 
L 403.10694 220.690286 
L 400.143673 222.90503 
L 395.831134 226.121143 
L 392.85551 228.194603 
L 388.028305 231.552 
L 385.567347 233.142364 
L 379.615664 236.982857 
L 378.279184 237.779086 
L 370.99102 242.112493 
L 370.482471 242.413714 
L 363.702857 246.092266 
L 360.470744 247.844571 
L 356.414694 249.842032 
L 349.441075 253.275429 
L 349.126531 253.414725 
L 341.838367 256.61814 
L 337.086274 258.706286 
L 334.550204 259.696126 
L 327.262041 262.524171 
L 323.091672 264.137143 
L 319.973878 265.192065 
L 312.685714 267.640127 
L 306.927857 269.568 
L 305.397551 270.007942 
L 298.109388 272.077424 
L 290.821224 274.138099 
L 287.74396 274.998857 
L 283.533061 275.984868 
L 276.244898 277.670041 
L 276.16847 277.687561 
" clip-path="url(#p946c449c2a)" style="fill: none; stroke: #fde725; stroke-width: 1.5"/>
    <path d="M 252.012406 282.614533 
L 247.092245 283.486666 
L 239.804082 284.759816 
L 233.40048 285.860571 
L 232.515918 285.977981 
L 225.227755 286.919015 
L 217.939592 287.839808 
L 210.651429 288.740308 
L 203.363265 289.620522 
L 196.075102 290.480506 
L 189.03585 291.291429 
L 188.786939 291.311952 
L 181.498776 291.891301 
L 174.210612 292.452784 
L 166.922449 292.996646 
L 159.634286 293.523168 
L 152.346122 294.032654 
L 145.057959 294.525417 
L 137.769796 295.001757 
L 130.481633 295.461941 
L 123.193469 295.906184 
L 115.905306 296.334623 
L 109.055619 296.722286 
L 108.617143 296.737696 
L 101.32898 296.981236 
L 94.040816 297.213282 
L 86.752653 297.433774 
L 79.46449 297.64259 
L 72.176327 297.839559 
L 64.888163 298.024472 
L 57.6 298.197083 
" clip-path="url(#p946c449c2a)" style="fill: none; stroke: #fde725; stroke-width: 1.5"/>
   </g>
   <g id="patch_3">
    <path d="M 57.6 307.584 
L 57.6 41.472 
" style="fill: none; stroke: #000000; stroke-width: 0.8; stroke-linejoin: miter; stroke-linecap: square"/>
   </g>
   <g id="patch_4">
    <path d="M 414.72 307.584 
L 414.72 41.472 
" style="fill: none; stroke: #000000; stroke-width: 0.8; stroke-linejoin: miter; stroke-linecap: square"/>
   </g>
   <g id="patch_5">
    <path d="M 57.6 307.584 
L 414.72 307.584 
" style="fill: none; stroke: #000000; stroke-width: 0.8; stroke-linejoin: miter; stroke-linecap: square"/>
   </g>
   <g id="patch_6">
    <path d="M 57.6 41.472 
L 414.72 41.472 
" style="fill: none; stroke: #000000; stroke-width: 0.8; stroke-linejoin: miter; stroke-linecap: square"/>
   </g>
   <g id="text_18">
    <g clip-path="url(#p946c449c2a)">
     <!-- 2.94 -->
     <g style="fill: #440154" transform="translate(194.095078 103.413956)rotate(-309.985998)scale(0.1 -0.1)">
      <defs>
       <path id="DejaVuSans-39" d="M 703 97 
L 703 672 
Q 941 559 1184 500 
Q 1428 441 1663 441 
Q 2288 441 2617 861 
Q 2947 1281 2994 2138 
Q 2813 1869 2534 1725 
Q 2256 1581 1919 1581 
Q 1219 1581 811 2004 
Q 403 2428 403 3163 
Q 403 3881 828 4315 
Q 1253 4750 1959 4750 
Q 2769 4750 3195 4129 
Q 3622 3509 3622 2328 
Q 3622 1225 3098 567 
Q 2575 -91 1691 -91 
Q 1453 -91 1209 -44 
Q 966 3 703 97 
z
M 1959 2075 
Q 2384 2075 2632 2365 
Q 2881 2656 2881 3163 
Q 2881 3666 2632 3958 
Q 2384 4250 1959 4250 
Q 1534 4250 1286 3958 
Q 1038 3666 1038 3163 
Q 1038 2656 1286 2365 
Q 1534 2075 1959 2075 
z
" transform="scale(0.015625)"/>
      </defs>
      <use xlink:href="#DejaVuSans-32"/>
      <use xlink:href="#DejaVuSans-2e" x="63.623047"/>
      <use xlink:href="#DejaVuSans-39" x="95.410156"/>
      <use xlink:href="#DejaVuSans-34" x="159.033203"/>
     </g>
    </g>
   </g>
   <g id="text_19">
    <g clip-path="url(#p946c449c2a)">
     <!-- 3.00 -->
     <g style="fill: #481668" transform="translate(89.77691 99.387732)rotate(-54.255376)scale(0.1 -0.1)">
      <use xlink:href="#DejaVuSans-33"/>
      <use xlink:href="#DejaVuSans-2e" x="63.623047"/>
      <use xlink:href="#DejaVuSans-30" x="95.410156"/>
      <use xlink:href="#DejaVuSans-30" x="159.033203"/>
     </g>
    </g>
   </g>
   <g id="text_20">
    <g clip-path="url(#p946c449c2a)">
     <!-- 3.00 -->
     <g style="fill: #481668" transform="translate(226.83513 187.004442)rotate(-44.402806)scale(0.1 -0.1)">
      <use xlink:href="#DejaVuSans-33"/>
      <use xlink:href="#DejaVuSans-2e" x="63.623047"/>
      <use xlink:href="#DejaVuSans-30" x="95.410156"/>
      <use xlink:href="#DejaVuSans-30" x="159.033203"/>
     </g>
    </g>
   </g>
   <g id="text_21">
    <g clip-path="url(#p946c449c2a)">
     <!-- 3.05 -->
     <g style="fill: #482576" transform="translate(241.738725 197.650033)rotate(-42.402999)scale(0.1 -0.1)">
      <use xlink:href="#DejaVuSans-33"/>
      <use xlink:href="#DejaVuSans-2e" x="63.623047"/>
      <use xlink:href="#DejaVuSans-30" x="95.410156"/>
      <use xlink:href="#DejaVuSans-35" x="159.033203"/>
     </g>
    </g>
   </g>
   <g id="text_22">
    <g clip-path="url(#p946c449c2a)">
     <!-- 3.10 -->
     <g style="fill: #463480" transform="translate(255.164202 203.568512)rotate(-41.531523)scale(0.1 -0.1)">
      <use xlink:href="#DejaVuSans-33"/>
      <use xlink:href="#DejaVuSans-2e" x="63.623047"/>
      <use xlink:href="#DejaVuSans-31" x="95.410156"/>
      <use xlink:href="#DejaVuSans-30" x="159.033203"/>
     </g>
    </g>
   </g>
   <g id="text_23">
    <g clip-path="url(#p946c449c2a)">
     <!-- 3.20 -->
     <g style="fill: #3c508b" transform="translate(274.201823 213.618521)rotate(-39.586137)scale(0.1 -0.1)">
      <use xlink:href="#DejaVuSans-33"/>
      <use xlink:href="#DejaVuSans-2e" x="63.623047"/>
      <use xlink:href="#DejaVuSans-32" x="95.410156"/>
      <use xlink:href="#DejaVuSans-30" x="159.033203"/>
     </g>
    </g>
   </g>
   <g id="text_24">
    <g clip-path="url(#p946c449c2a)">
     <!-- 3.40 -->
     <g style="fill: #26818e" transform="translate(290.307324 234.822211)rotate(-33.21734)scale(0.1 -0.1)">
      <use xlink:href="#DejaVuSans-33"/>
      <use xlink:href="#DejaVuSans-2e" x="63.623047"/>
      <use xlink:href="#DejaVuSans-34" x="95.410156"/>
      <use xlink:href="#DejaVuSans-30" x="159.033203"/>
     </g>
    </g>
   </g>
   <g id="text_25">
    <g clip-path="url(#p946c449c2a)">
     <!-- 3.60 -->
     <g style="fill: #27ad81" transform="translate(276.600844 260.134996)rotate(-22.810362)scale(0.1 -0.1)">
      <use xlink:href="#DejaVuSans-33"/>
      <use xlink:href="#DejaVuSans-2e" x="63.623047"/>
      <use xlink:href="#DejaVuSans-36" x="95.410156"/>
      <use xlink:href="#DejaVuSans-30" x="159.033203"/>
     </g>
    </g>
   </g>
   <g id="text_26">
    <g clip-path="url(#p946c449c2a)">
     <!-- 4.00 -->
     <g style="fill: #fde725" transform="translate(253.790938 285.359222)rotate(-11.533202)scale(0.1 -0.1)">
      <use xlink:href="#DejaVuSans-34"/>
      <use xlink:href="#DejaVuSans-2e" x="63.623047"/>
      <use xlink:href="#DejaVuSans-30" x="95.410156"/>
      <use xlink:href="#DejaVuSans-30" x="159.033203"/>
     </g>
    </g>
   </g>
  </g>
 </g>
 <defs>
  <clipPath id="p946c449c2a">
   <rect x="57.6" y="41.472" width="357.12" height="266.112"/>
  </clipPath>
 </defs>
</svg>
