<?xml version="1.0" encoding="utf-8" standalone="no"?>
<!DOCTYPE svg PUBLIC "-//W3C//DTD SVG 1.1//EN"
  "http://www.w3.org/Graphics/SVG/1.1/DTD/svg11.dtd">
<svg xmlns:xlink="http://www.w3.org/1999/xlink" width="460.8pt" height="345.6pt" viewBox="0 0 460.8 345.6" xmlns="http://www.w3.org/2000/svg" version="1.1">
 <metadata>
  <rdf:RDF xmlns:dc="http://purl.org/dc/elements/1.1/" xmlns:cc="http://creativecommons.org/ns#" xmlns:rdf="http://www.w3.org/1999/02/22-rdf-syntax-ns#">
   <cc:Work>
    <dc:type rdf:resource="http://purl.org/dc/dcmitype/StillImage"/>
    <dc:date>2023-06-07T12:06:10.245173</dc:date>
    <dc:format>image/svg+xml</dc:format>
    <dc:creator>
     <cc:Agent>
      <dc:title>Matplotlib v3.5.2, https://matplotlib.org/</dc:title>
     </cc:Agent>
    </dc:creator>
   </cc:Work>
  </rdf:RDF>
 </metadata>
 <defs>
  <style type="text/css">*{stroke-linejoin: round; stroke-linecap: butt}</style>
 </defs>
 <g id="figure_1">
  <g id="patch_1">
   <path d="M 0 345.6 
L 460.8 345.6 
L 460.8 0 
L 0 0 
z
" style="fill: #ffffff"/>
  </g>
  <g id="axes_1">
   <g id="patch_2">
    <path d="M 57.6 307.584 
L 343.296 307.584 
L 343.296 41.472 
L 57.6 41.472 
z
" style="fill: #ffffff"/>
   </g>
   <g id="PathCollection_1">
    <path d="M 232.515918 296.849997 
L 238.346449 297.060562 
L 244.17698 297.277297 
L 250.00751 297.500459 
L 255.838041 297.73027 
L 261.668571 297.966894 
L 267.499102 298.210429 
L 273.329633 298.460891 
L 279.160163 298.71821 
L 284.990694 298.982227 
L 290.821224 299.252695 
L 296.651755 299.529282 
L 302.482286 299.811584 
L 308.312816 300.099123 
L 314.143347 300.391369 
L 319.973878 300.687761 
L 325.804408 300.98768 
L 331.634939 301.290488 
L 337.465469 301.595543 
L 343.296 301.902222 
L 343.296 298.33768 
L 337.465469 298.059097 
L 331.634939 297.783424 
L 325.804408 297.511119 
L 319.973878 297.242643 
L 314.143347 296.978484 
L 308.384922 296.722286 
L 308.312816 296.713605 
L 302.482286 296.019665 
L 296.651755 295.342038 
L 290.821224 294.681534 
L 284.990694 294.038787 
L 279.160163 293.414247 
L 273.329633 292.808185 
L 267.499102 292.22069 
L 261.668571 291.651673 
L 257.869769 291.291429 
L 255.838041 290.906206 
L 250.00751 289.830152 
L 244.17698 288.791145 
L 238.346449 287.787876 
L 232.515918 286.818966 
L 226.685388 285.883031 
L 226.542209 285.860571 
L 220.854857 284.324261 
L 215.024327 282.804967 
L 209.193796 281.339767 
L 205.455261 280.429714 
L 203.363265 279.626428 
L 197.532735 277.453893 
L 191.702204 275.364975 
L 190.650745 274.998857 
L 185.871673 272.521075 
L 180.041143 269.615913 
L 179.942239 269.568 
L 174.210612 265.589857 
L 172.044215 264.137143 
L 168.380082 260.704984 
L 166.182509 258.706286 
L 162.549551 254.166156 
L 161.818828 253.275429 
L 158.567963 247.844571 
L 156.71902 243.626451 
L 156.177222 242.413714 
L 154.436226 236.982857 
L 153.211806 231.552 
L 152.392989 226.121143 
L 151.895932 220.690286 
L 151.656347 215.259429 
L 151.624298 209.828571 
L 151.760544 204.397714 
L 152.033935 198.966857 
L 152.419516 193.536 
L 152.897128 188.105143 
L 153.45037 182.674286 
L 154.065809 177.243429 
L 154.732374 171.812571 
L 155.440895 166.381714 
L 156.183738 160.950857 
L 156.71902 157.177025 
L 156.952044 155.52 
L 157.737014 150.089143 
L 158.5398 144.658286 
L 159.356637 139.227429 
L 160.184335 133.796571 
L 161.020187 128.365714 
L 161.861892 122.934857 
L 162.549551 118.517325 
L 162.705619 117.504 
L 163.543379 112.073143 
L 164.381902 106.642286 
L 165.219984 101.211429 
L 166.056599 95.780571 
L 166.890872 90.349714 
L 167.722055 84.918857 
L 168.380082 80.599264 
L 168.54734 79.488 
L 169.359968 74.057143 
L 170.167929 68.626286 
L 170.970842 63.195429 
L 171.768387 57.764571 
L 172.560299 52.333714 
L 173.346357 46.902857 
L 174.126382 41.472 
L 168.380082 41.472 
L 162.549551 41.472 
L 156.71902 41.472 
L 150.88849 41.472 
L 145.057959 41.472 
L 139.227429 41.472 
L 133.396898 41.472 
L 127.566367 41.472 
L 121.735837 41.472 
L 115.905306 41.472 
L 110.074776 41.472 
L 104.244245 41.472 
L 98.413714 41.472 
L 92.583184 41.472 
L 86.752653 41.472 
L 80.922122 41.472 
L 75.091592 41.472 
L 69.261061 41.472 
L 63.430531 41.472 
L 57.6 41.472 
L 57.6 46.902857 
L 57.6 52.333714 
L 57.6 57.764571 
L 57.6 63.195429 
L 57.6 68.626286 
L 57.6 74.057143 
L 57.6 79.488 
L 57.6 84.918857 
L 57.6 90.349714 
L 57.6 95.780571 
L 57.6 101.211429 
L 57.6 106.642286 
L 57.6 112.073143 
L 57.6 117.504 
L 57.6 122.934857 
L 57.6 128.365714 
L 57.6 133.796571 
L 57.6 139.227429 
L 57.6 144.658286 
L 57.6 150.089143 
L 57.6 155.52 
L 57.6 160.950857 
L 57.6 166.381714 
L 57.6 171.812571 
L 57.6 177.243429 
L 57.6 182.674286 
L 57.6 188.105143 
L 57.6 193.536 
L 57.6 198.966857 
L 57.6 204.397714 
L 57.6 209.828571 
L 57.6 215.259429 
L 57.6 220.690286 
L 57.6 226.121143 
L 57.6 231.552 
L 57.6 236.982857 
L 57.6 242.413714 
L 57.6 247.844571 
L 57.6 253.275429 
L 57.6 258.706286 
L 57.6 264.137143 
L 57.6 266.001468 
L 63.430531 269.370139 
L 63.766243 269.568 
L 69.261061 271.973051 
L 75.091592 274.635127 
L 75.885684 274.998857 
L 80.922122 276.627054 
L 86.752653 278.545146 
L 92.400946 280.429714 
L 92.583184 280.46981 
L 98.413714 281.725664 
L 104.244245 282.983291 
L 110.074776 284.238902 
L 115.905306 285.490237 
L 117.658605 285.860571 
L 121.735837 286.371333 
L 127.566367 287.094364 
L 133.396898 287.815206 
L 139.227429 288.536571 
L 145.057959 289.262159 
L 150.88849 289.996516 
L 156.71902 290.744676 
L 160.888132 291.291429 
L 162.549551 291.401846 
L 168.380082 291.797666 
L 174.210612 292.206136 
L 180.041143 292.628226 
L 185.871673 293.064365 
L 191.702204 293.514629 
L 197.532735 293.978945 
L 203.363265 294.457259 
L 209.193796 294.949643 
L 215.024327 295.456339 
L 220.854857 295.977774 
L 226.685388 296.514533 
L 228.891415 296.722286 
z
" clip-path="url(#pf3aa36698c)" style="fill: #433d84"/>
   </g>
   <g id="PathCollection_2">
    <path d="M 314.143347 296.978484 
L 319.973878 297.242643 
L 325.804408 297.511119 
L 331.634939 297.783424 
L 337.465469 298.059097 
L 343.296 298.33768 
L 343.296 296.722286 
L 343.296 293.327786 
L 337.465469 292.627893 
L 331.634939 291.939794 
L 326.038478 291.291429 
L 325.804408 291.23645 
L 319.973878 289.884211 
L 314.143347 288.565026 
L 308.312816 287.280433 
L 302.482286 286.031851 
L 301.666551 285.860571 
L 296.651755 284.020563 
L 290.821224 281.94926 
L 286.403429 280.429714 
L 284.990694 279.649459 
L 279.160163 276.519392 
L 276.231688 274.998857 
L 273.329633 272.705902 
L 269.22975 269.568 
L 267.499102 267.617782 
L 264.32134 264.137143 
L 261.668571 259.941098 
L 260.867301 258.706286 
L 258.434833 253.275429 
L 256.764607 247.844571 
L 255.838041 243.298307 
L 255.653835 242.413714 
L 254.957589 236.982857 
L 254.586911 231.552 
L 254.467114 226.121143 
L 254.542493 220.690286 
L 254.770865 215.259429 
L 255.119853 209.828571 
L 255.564321 204.397714 
L 255.838041 201.536435 
L 256.080963 198.966857 
L 256.652861 193.536 
L 257.271701 188.105143 
L 257.927616 182.674286 
L 258.612628 177.243429 
L 259.320252 171.812571 
L 260.045185 166.381714 
L 260.783083 160.950857 
L 261.530366 155.52 
L 261.668571 154.523086 
L 262.275114 150.089143 
L 263.021743 144.658286 
L 263.77027 139.227429 
L 264.519042 133.796571 
L 265.266684 128.365714 
L 266.012055 122.934857 
L 266.754214 117.504 
L 267.492381 112.073143 
L 267.499102 112.02334 
L 268.215415 106.642286 
L 268.93324 101.211429 
L 269.645526 95.780571 
L 270.351929 90.349714 
L 271.052175 84.918857 
L 271.746051 79.488 
L 272.433384 74.057143 
L 273.114053 68.626286 
L 273.329633 66.888368 
L 273.781436 63.195429 
L 274.439013 57.764571 
L 275.089823 52.333714 
L 275.733858 46.902857 
L 276.371117 41.472 
L 273.329633 41.472 
L 267.499102 41.472 
L 261.668571 41.472 
L 255.838041 41.472 
L 250.00751 41.472 
L 244.17698 41.472 
L 238.346449 41.472 
L 232.515918 41.472 
L 226.685388 41.472 
L 220.854857 41.472 
L 215.024327 41.472 
L 209.193796 41.472 
L 203.363265 41.472 
L 197.532735 41.472 
L 191.702204 41.472 
L 185.871673 41.472 
L 180.041143 41.472 
L 174.210612 41.472 
L 174.126382 41.472 
L 173.346357 46.902857 
L 172.560299 52.333714 
L 171.768387 57.764571 
L 170.970842 63.195429 
L 170.167929 68.626286 
L 169.359968 74.057143 
L 168.54734 79.488 
L 168.380082 80.599264 
L 167.722055 84.918857 
L 166.890872 90.349714 
L 166.056599 95.780571 
L 165.219984 101.211429 
L 164.381902 106.642286 
L 163.543379 112.073143 
L 162.705619 117.504 
L 162.549551 118.517325 
L 161.861892 122.934857 
L 161.020187 128.365714 
L 160.184335 133.796571 
L 159.356637 139.227429 
L 158.5398 144.658286 
L 157.737014 150.089143 
L 156.952044 155.52 
L 156.71902 157.177025 
L 156.183738 160.950857 
L 155.440895 166.381714 
L 154.732374 171.812571 
L 154.065809 177.243429 
L 153.45037 182.674286 
L 152.897128 188.105143 
L 152.419516 193.536 
L 152.033935 198.966857 
L 151.760544 204.397714 
L 151.624298 209.828571 
L 151.656347 215.259429 
L 151.895932 220.690286 
L 152.392989 226.121143 
L 153.211806 231.552 
L 154.436226 236.982857 
L 156.177222 242.413714 
L 156.71902 243.626451 
L 158.567963 247.844571 
L 161.818828 253.275429 
L 162.549551 254.166156 
L 166.182509 258.706286 
L 168.380082 260.704984 
L 172.044215 264.137143 
L 174.210612 265.589857 
L 179.942239 269.568 
L 180.041143 269.615913 
L 185.871673 272.521075 
L 190.650745 274.998857 
L 191.702204 275.364975 
L 197.532735 277.453893 
L 203.363265 279.626428 
L 205.455261 280.429714 
L 209.193796 281.339767 
L 215.024327 282.804967 
L 220.854857 284.324261 
L 226.542209 285.860571 
L 226.685388 285.883031 
L 232.515918 286.818966 
L 238.346449 287.787876 
L 244.17698 288.791145 
L 250.00751 289.830152 
L 255.838041 290.906206 
L 257.869769 291.291429 
L 261.668571 291.651673 
L 267.499102 292.22069 
L 273.329633 292.808185 
L 279.160163 293.414247 
L 284.990694 294.038787 
L 290.821224 294.681534 
L 296.651755 295.342038 
L 302.482286 296.019665 
L 308.312816 296.713605 
L 308.384922 296.722286 
z
" clip-path="url(#pf3aa36698c)" style="fill: #21918c"/>
   </g>
   <g id="PathCollection_3">
    <path d="M 331.634939 291.939794 
L 337.465469 292.627893 
L 343.296 293.327786 
L 343.296 291.370262 
L 342.628089 291.291429 
L 337.465469 290.052586 
L 331.634939 288.680058 
L 325.804408 287.337943 
L 319.973878 286.028035 
L 319.216056 285.860571 
L 314.143347 283.892757 
L 308.312816 281.695414 
L 304.862081 280.429714 
L 302.482286 279.02093 
L 296.651755 275.666299 
L 295.460205 274.998857 
L 290.821224 271.021878 
L 289.076143 269.568 
L 284.990694 264.52172 
L 284.671199 264.137143 
L 281.603074 258.706286 
L 279.500236 253.275429 
L 279.160163 251.957116 
L 278.077284 247.844571 
L 277.164886 242.413714 
L 276.63716 236.982857 
L 276.401047 231.552 
L 276.388561 226.121143 
L 276.549146 220.690286 
L 276.844637 215.259429 
L 277.245835 209.828571 
L 277.730107 204.397714 
L 278.279779 198.966857 
L 278.88088 193.536 
L 279.160163 191.168473 
L 279.517462 188.105143 
L 280.18127 182.674286 
L 280.868947 177.243429 
L 281.574758 171.812571 
L 282.294048 166.381714 
L 283.023004 160.950857 
L 283.758503 155.52 
L 284.497977 150.089143 
L 284.990694 146.478319 
L 285.236013 144.658286 
L 285.967563 139.227429 
L 286.697778 133.796571 
L 287.425509 128.365714 
L 288.149807 122.934857 
L 288.869855 117.504 
L 289.585029 112.073143 
L 290.294818 106.642286 
L 290.821224 102.580518 
L 290.996435 101.211429 
L 291.684994 95.780571 
L 292.367203 90.349714 
L 293.042826 84.918857 
L 293.711739 79.488 
L 294.373831 74.057143 
L 295.029037 68.626286 
L 295.677249 63.195429 
L 296.318532 57.764571 
L 296.651755 54.910898 
L 296.94889 52.333714 
L 297.567997 46.902857 
L 298.180302 41.472 
L 296.651755 41.472 
L 290.821224 41.472 
L 284.990694 41.472 
L 279.160163 41.472 
L 276.371117 41.472 
L 275.733858 46.902857 
L 275.089823 52.333714 
L 274.439013 57.764571 
L 273.781436 63.195429 
L 273.329633 66.888368 
L 273.114053 68.626286 
L 272.433384 74.057143 
L 271.746051 79.488 
L 271.052175 84.918857 
L 270.351929 90.349714 
L 269.645526 95.780571 
L 268.93324 101.211429 
L 268.215415 106.642286 
L 267.499102 112.02334 
L 267.492381 112.073143 
L 266.754214 117.504 
L 266.012055 122.934857 
L 265.266684 128.365714 
L 264.519042 133.796571 
L 263.77027 139.227429 
L 263.021743 144.658286 
L 262.275114 150.089143 
L 261.668571 154.523086 
L 261.530366 155.52 
L 260.783083 160.950857 
L 260.045185 166.381714 
L 259.320252 171.812571 
L 258.612628 177.243429 
L 257.927616 182.674286 
L 257.271701 188.105143 
L 256.652861 193.536 
L 256.080963 198.966857 
L 255.838041 201.536435 
L 255.564321 204.397714 
L 255.119853 209.828571 
L 254.770865 215.259429 
L 254.542493 220.690286 
L 254.467114 226.121143 
L 254.586911 231.552 
L 254.957589 236.982857 
L 255.653835 242.413714 
L 255.838041 243.298307 
L 256.764607 247.844571 
L 258.434833 253.275429 
L 260.867301 258.706286 
L 261.668571 259.941098 
L 264.32134 264.137143 
L 267.499102 267.617782 
L 269.22975 269.568 
L 273.329633 272.705902 
L 276.231688 274.998857 
L 279.160163 276.519392 
L 284.990694 279.649459 
L 286.403429 280.429714 
L 290.821224 281.94926 
L 296.651755 284.020563 
L 301.666551 285.860571 
L 302.482286 286.031851 
L 308.312816 287.280433 
L 314.143347 288.565026 
L 319.973878 289.884211 
L 325.804408 291.23645 
L 326.038478 291.291429 
z
" clip-path="url(#pf3aa36698c)" style="fill: #3aba76"/>
   </g>
   <g id="PathCollection_4">
    <path d="M 343.296 291.370262 
L 343.296 291.291429 
L 343.296 287.435306 
L 337.465469 286.072801 
L 336.544723 285.860571 
L 331.634939 283.864423 
L 325.804408 281.551603 
L 322.912113 280.429714 
L 319.973878 278.579939 
L 314.143347 275.006357 
L 314.130848 274.998857 
L 308.312816 269.62081 
L 308.254249 269.568 
L 304.247508 264.137143 
L 302.482286 260.602628 
L 301.515661 258.706286 
L 299.666396 253.275429 
L 298.459924 247.844571 
L 297.722977 242.413714 
L 297.335112 236.982857 
L 297.210565 231.552 
L 297.286782 226.121143 
L 297.51747 220.690286 
L 297.86784 215.259429 
L 298.311312 209.828571 
L 298.827359 204.397714 
L 299.400071 198.966857 
L 300.016798 193.536 
L 300.667605 188.105143 
L 301.344542 182.674286 
L 302.041254 177.243429 
L 302.482286 173.874206 
L 302.749286 171.812571 
L 303.462161 166.381714 
L 304.181962 160.950857 
L 304.905821 155.52 
L 305.631581 150.089143 
L 306.357487 144.658286 
L 307.081925 139.227429 
L 307.803589 133.796571 
L 308.312816 129.945273 
L 308.519313 128.365714 
L 309.224234 122.934857 
L 309.924152 117.504 
L 310.61843 112.073143 
L 311.306736 106.642286 
L 311.988518 101.211429 
L 312.663741 95.780571 
L 313.332177 90.349714 
L 313.993628 84.918857 
L 314.143347 83.675618 
L 314.641828 79.488 
L 315.281395 74.057143 
L 315.913615 68.626286 
L 316.539012 63.195429 
L 317.157067 57.764571 
L 317.768165 52.333714 
L 318.372052 46.902857 
L 318.969083 41.472 
L 314.143347 41.472 
L 308.312816 41.472 
L 302.482286 41.472 
L 298.180302 41.472 
L 297.567997 46.902857 
L 296.94889 52.333714 
L 296.651755 54.910898 
L 296.318532 57.764571 
L 295.677249 63.195429 
L 295.029037 68.626286 
L 294.373831 74.057143 
L 293.711739 79.488 
L 293.042826 84.918857 
L 292.367203 90.349714 
L 291.684994 95.780571 
L 290.996435 101.211429 
L 290.821224 102.580518 
L 290.294818 106.642286 
L 289.585029 112.073143 
L 288.869855 117.504 
L 288.149807 122.934857 
L 287.425509 128.365714 
L 286.697778 133.796571 
L 285.967563 139.227429 
L 285.236013 144.658286 
L 284.990694 146.478319 
L 284.497977 150.089143 
L 283.758503 155.52 
L 283.023004 160.950857 
L 282.294048 166.381714 
L 281.574758 171.812571 
L 280.868947 177.243429 
L 280.18127 182.674286 
L 279.517462 188.105143 
L 279.160163 191.168473 
L 278.88088 193.536 
L 278.279779 198.966857 
L 277.730107 204.397714 
L 277.245835 209.828571 
L 276.844637 215.259429 
L 276.549146 220.690286 
L 276.388561 226.121143 
L 276.401047 231.552 
L 276.63716 236.982857 
L 277.164886 242.413714 
L 278.077284 247.844571 
L 279.160163 251.957116 
L 279.500236 253.275429 
L 281.603074 258.706286 
L 284.671199 264.137143 
L 284.990694 264.52172 
L 289.076143 269.568 
L 290.821224 271.021878 
L 295.460205 274.998857 
L 296.651755 275.666299 
L 302.482286 279.02093 
L 304.862081 280.429714 
L 308.312816 281.695414 
L 314.143347 283.892757 
L 319.216056 285.860571 
L 319.973878 286.028035 
L 325.804408 287.337943 
L 331.634939 288.680058 
L 337.465469 290.052586 
L 342.628089 291.291429 
z
" clip-path="url(#pf3aa36698c)" style="fill: #5ec962"/>
   </g>
   <g id="PathCollection_5">
    <path d="M 337.465469 286.072801 
L 343.296 287.435306 
L 343.296 285.860571 
L 343.296 281.497253 
L 340.67149 280.429714 
L 337.465469 278.301431 
L 332.378408 274.998857 
L 331.634939 274.247874 
L 326.908284 269.568 
L 325.804408 267.915219 
L 323.234515 264.137143 
L 320.770003 258.706286 
L 319.973878 256.033933 
L 319.138657 253.275429 
L 318.10165 247.844571 
L 317.500847 242.413714 
L 317.223686 236.982857 
L 317.188737 231.552 
L 317.337768 226.121143 
L 317.627042 220.690286 
L 318.02475 215.259429 
L 318.506445 209.828571 
L 319.05241 204.397714 
L 319.648312 198.966857 
L 319.973878 196.177894 
L 320.279504 193.536 
L 320.936135 188.105143 
L 321.614171 182.674286 
L 322.308597 177.243429 
L 323.013988 171.812571 
L 323.72723 166.381714 
L 324.445189 160.950857 
L 325.165135 155.52 
L 325.804408 150.697815 
L 325.884292 150.089143 
L 326.595876 144.658286 
L 327.303755 139.227429 
L 328.007886 133.796571 
L 328.707527 128.365714 
L 329.401919 122.934857 
L 330.090829 117.504 
L 330.773573 112.073143 
L 331.448227 106.642286 
L 331.634939 105.127446 
L 332.112552 101.211429 
L 332.767594 95.780571 
L 333.415331 90.349714 
L 334.055343 84.918857 
L 334.688716 79.488 
L 335.313909 74.057143 
L 335.931971 68.626286 
L 336.544469 63.195429 
L 337.147551 57.764571 
L 337.465469 54.873997 
L 337.741857 52.333714 
L 338.322495 46.902857 
L 338.900187 41.472 
L 337.465469 41.472 
L 331.634939 41.472 
L 325.804408 41.472 
L 319.973878 41.472 
L 318.969083 41.472 
L 318.372052 46.902857 
L 317.768165 52.333714 
L 317.157067 57.764571 
L 316.539012 63.195429 
L 315.913615 68.626286 
L 315.281395 74.057143 
L 314.641828 79.488 
L 314.143347 83.675618 
L 313.993628 84.918857 
L 313.332177 90.349714 
L 312.663741 95.780571 
L 311.988518 101.211429 
L 311.306736 106.642286 
L 310.61843 112.073143 
L 309.924152 117.504 
L 309.224234 122.934857 
L 308.519313 128.365714 
L 308.312816 129.945273 
L 307.803589 133.796571 
L 307.081925 139.227429 
L 306.357487 144.658286 
L 305.631581 150.089143 
L 304.905821 155.52 
L 304.181962 160.950857 
L 303.462161 166.381714 
L 302.749286 171.812571 
L 302.482286 173.874206 
L 302.041254 177.243429 
L 301.344542 182.674286 
L 300.667605 188.105143 
L 300.016798 193.536 
L 299.400071 198.966857 
L 298.827359 204.397714 
L 298.311312 209.828571 
L 297.86784 215.259429 
L 297.51747 220.690286 
L 297.286782 226.121143 
L 297.210565 231.552 
L 297.335112 236.982857 
L 297.722977 242.413714 
L 298.459924 247.844571 
L 299.666396 253.275429 
L 301.515661 258.706286 
L 302.482286 260.602628 
L 304.247508 264.137143 
L 308.254249 269.568 
L 308.312816 269.62081 
L 314.130848 274.998857 
L 314.143347 275.006357 
L 319.973878 278.579939 
L 322.912113 280.429714 
L 325.804408 281.551603 
L 331.634939 283.864423 
L 336.544723 285.860571 
z
" clip-path="url(#pf3aa36698c)" style="fill: #89d548"/>
   </g>
   <g id="PathCollection_6">
    <path d="M 343.296 281.497253 
L 343.296 280.429714 
L 343.296 274.998857 
L 343.296 269.568 
L 343.296 266.567497 
L 341.758156 264.137143 
L 339.50268 258.706286 
L 338.044644 253.275429 
L 337.465469 249.747247 
L 337.149098 247.844571 
L 336.658222 242.413714 
L 336.469311 236.982857 
L 336.507322 231.552 
L 336.711832 226.121143 
L 337.048603 220.690286 
L 337.465469 215.45636 
L 337.481051 215.259429 
L 337.988817 209.828571 
L 338.550285 204.397714 
L 339.156543 198.966857 
L 339.796312 193.536 
L 340.460837 188.105143 
L 341.144206 182.674286 
L 341.838857 177.243429 
L 342.544155 171.812571 
L 343.253074 166.381714 
L 343.296 166.054457 
L 343.296 160.950857 
L 343.296 155.52 
L 343.296 150.089143 
L 343.296 144.658286 
L 343.296 139.227429 
L 343.296 133.796571 
L 343.296 128.365714 
L 343.296 122.934857 
L 343.296 117.504 
L 343.296 112.073143 
L 343.296 106.642286 
L 343.296 101.211429 
L 343.296 95.780571 
L 343.296 90.349714 
L 343.296 84.918857 
L 343.296 79.488 
L 343.296 74.057143 
L 343.296 68.626286 
L 343.296 63.195429 
L 343.296 57.764571 
L 343.296 52.333714 
L 343.296 46.902857 
L 343.296 41.472 
L 338.900187 41.472 
L 338.322495 46.902857 
L 337.741857 52.333714 
L 337.465469 54.873997 
L 337.147551 57.764571 
L 336.544469 63.195429 
L 335.931971 68.626286 
L 335.313909 74.057143 
L 334.688716 79.488 
L 334.055343 84.918857 
L 333.415331 90.349714 
L 332.767594 95.780571 
L 332.112552 101.211429 
L 331.634939 105.127446 
L 331.448227 106.642286 
L 330.773573 112.073143 
L 330.090829 117.504 
L 329.401919 122.934857 
L 328.707527 128.365714 
L 328.007886 133.796571 
L 327.303755 139.227429 
L 326.595876 144.658286 
L 325.884292 150.089143 
L 325.804408 150.697815 
L 325.165135 155.52 
L 324.445189 160.950857 
L 323.72723 166.381714 
L 323.013988 171.812571 
L 322.308597 177.243429 
L 321.614171 182.674286 
L 320.936135 188.105143 
L 320.279504 193.536 
L 319.973878 196.177894 
L 319.648312 198.966857 
L 319.05241 204.397714 
L 318.506445 209.828571 
L 318.02475 215.259429 
L 317.627042 220.690286 
L 317.337768 226.121143 
L 317.188737 231.552 
L 317.223686 236.982857 
L 317.500847 242.413714 
L 318.10165 247.844571 
L 319.138657 253.275429 
L 319.973878 256.033933 
L 320.770003 258.706286 
L 323.234515 264.137143 
L 325.804408 267.915219 
L 326.908284 269.568 
L 331.634939 274.247874 
L 332.378408 274.998857 
L 337.465469 278.301431 
L 340.67149 280.429714 
z
" clip-path="url(#pf3aa36698c)" style="fill: #b8de29"/>
   </g>
   <g id="PathCollection_7">
    <path d="M 343.296 266.567497 
L 343.296 264.137143 
L 343.296 258.706286 
L 343.296 253.275429 
L 343.296 247.844571 
L 343.296 242.413714 
L 343.296 236.982857 
L 343.296 231.552 
L 343.296 226.121143 
L 343.296 220.690286 
L 343.296 215.259429 
L 343.296 209.828571 
L 343.296 204.397714 
L 343.296 198.966857 
L 343.296 193.536 
L 343.296 188.105143 
L 343.296 182.674286 
L 343.296 177.243429 
L 343.296 171.812571 
L 343.296 166.381714 
L 343.296 166.054457 
L 343.253074 166.381714 
L 342.544155 171.812571 
L 341.838857 177.243429 
L 341.144206 182.674286 
L 340.460837 188.105143 
L 339.796312 193.536 
L 339.156543 198.966857 
L 338.550285 204.397714 
L 337.988817 209.828571 
L 337.481051 215.259429 
L 337.465469 215.45636 
L 337.048603 220.690286 
L 336.711832 226.121143 
L 336.507322 231.552 
L 336.469311 236.982857 
L 336.658222 242.413714 
L 337.149098 247.844571 
L 337.465469 249.747247 
L 338.044644 253.275429 
L 339.50268 258.706286 
L 341.758156 264.137143 
z
" clip-path="url(#pf3aa36698c)" style="fill: #e7e419"/>
   </g>
   <g id="matplotlib.axis_1">
    <g id="xtick_1">
     <g id="line2d_1">
      <path d="M 57.6 307.584 
L 57.6 41.472 
" clip-path="url(#pf3aa36698c)" style="fill: none; stroke: #b0b0b0; stroke-opacity: 0.15; stroke-width: 0.8; stroke-linecap: square"/>
     </g>
     <g id="line2d_2">
      <defs>
       <path id="ma234aa336d" d="M 0 0 
L 0 3.5 
" style="stroke: #000000; stroke-width: 0.8"/>
      </defs>
      <g>
       <use xlink:href="#ma234aa336d" x="57.6" y="307.584" style="stroke: #000000; stroke-width: 0.8"/>
      </g>
     </g>
     <g id="text_1">
      <!-- 0.10 -->
      <g transform="translate(46.467188 322.182437)scale(0.1 -0.1)">
       <defs>
        <path id="DejaVuSans-30" d="M 2034 4250 
Q 1547 4250 1301 3770 
Q 1056 3291 1056 2328 
Q 1056 1369 1301 889 
Q 1547 409 2034 409 
Q 2525 409 2770 889 
Q 3016 1369 3016 2328 
Q 3016 3291 2770 3770 
Q 2525 4250 2034 4250 
z
M 2034 4750 
Q 2819 4750 3233 4129 
Q 3647 3509 3647 2328 
Q 3647 1150 3233 529 
Q 2819 -91 2034 -91 
Q 1250 -91 836 529 
Q 422 1150 422 2328 
Q 422 3509 836 4129 
Q 1250 4750 2034 4750 
z
" transform="scale(0.015625)"/>
        <path id="DejaVuSans-2e" d="M 684 794 
L 1344 794 
L 1344 0 
L 684 0 
L 684 794 
z
" transform="scale(0.015625)"/>
        <path id="DejaVuSans-31" d="M 794 531 
L 1825 531 
L 1825 4091 
L 703 3866 
L 703 4441 
L 1819 4666 
L 2450 4666 
L 2450 531 
L 3481 531 
L 3481 0 
L 794 0 
L 794 531 
z
" transform="scale(0.015625)"/>
       </defs>
       <use xlink:href="#DejaVuSans-30"/>
       <use xlink:href="#DejaVuSans-2e" x="63.623047"/>
       <use xlink:href="#DejaVuSans-31" x="95.410156"/>
       <use xlink:href="#DejaVuSans-30" x="159.033203"/>
      </g>
     </g>
    </g>
    <g id="xtick_2">
     <g id="line2d_3">
      <path d="M 99.614118 307.584 
L 99.614118 41.472 
" clip-path="url(#pf3aa36698c)" style="fill: none; stroke: #b0b0b0; stroke-opacity: 0.15; stroke-width: 0.8; stroke-linecap: square"/>
     </g>
     <g id="line2d_4">
      <g>
       <use xlink:href="#ma234aa336d" x="99.614118" y="307.584" style="stroke: #000000; stroke-width: 0.8"/>
      </g>
     </g>
     <g id="text_2">
      <!-- 0.15 -->
      <g transform="translate(88.481305 322.182437)scale(0.1 -0.1)">
       <defs>
        <path id="DejaVuSans-35" d="M 691 4666 
L 3169 4666 
L 3169 4134 
L 1269 4134 
L 1269 2991 
Q 1406 3038 1543 3061 
Q 1681 3084 1819 3084 
Q 2600 3084 3056 2656 
Q 3513 2228 3513 1497 
Q 3513 744 3044 326 
Q 2575 -91 1722 -91 
Q 1428 -91 1123 -41 
Q 819 9 494 109 
L 494 744 
Q 775 591 1075 516 
Q 1375 441 1709 441 
Q 2250 441 2565 725 
Q 2881 1009 2881 1497 
Q 2881 1984 2565 2268 
Q 2250 2553 1709 2553 
Q 1456 2553 1204 2497 
Q 953 2441 691 2322 
L 691 4666 
z
" transform="scale(0.015625)"/>
       </defs>
       <use xlink:href="#DejaVuSans-30"/>
       <use xlink:href="#DejaVuSans-2e" x="63.623047"/>
       <use xlink:href="#DejaVuSans-31" x="95.410156"/>
       <use xlink:href="#DejaVuSans-35" x="159.033203"/>
      </g>
     </g>
    </g>
    <g id="xtick_3">
     <g id="line2d_5">
      <path d="M 141.628235 307.584 
L 141.628235 41.472 
" clip-path="url(#pf3aa36698c)" style="fill: none; stroke: #b0b0b0; stroke-opacity: 0.15; stroke-width: 0.8; stroke-linecap: square"/>
     </g>
     <g id="line2d_6">
      <g>
       <use xlink:href="#ma234aa336d" x="141.628235" y="307.584" style="stroke: #000000; stroke-width: 0.8"/>
      </g>
     </g>
     <g id="text_3">
      <!-- 0.20 -->
      <g transform="translate(130.495423 322.182437)scale(0.1 -0.1)">
       <defs>
        <path id="DejaVuSans-32" d="M 1228 531 
L 3431 531 
L 3431 0 
L 469 0 
L 469 531 
Q 828 903 1448 1529 
Q 2069 2156 2228 2338 
Q 2531 2678 2651 2914 
Q 2772 3150 2772 3378 
Q 2772 3750 2511 3984 
Q 2250 4219 1831 4219 
Q 1534 4219 1204 4116 
Q 875 4013 500 3803 
L 500 4441 
Q 881 4594 1212 4672 
Q 1544 4750 1819 4750 
Q 2544 4750 2975 4387 
Q 3406 4025 3406 3419 
Q 3406 3131 3298 2873 
Q 3191 2616 2906 2266 
Q 2828 2175 2409 1742 
Q 1991 1309 1228 531 
z
" transform="scale(0.015625)"/>
       </defs>
       <use xlink:href="#DejaVuSans-30"/>
       <use xlink:href="#DejaVuSans-2e" x="63.623047"/>
       <use xlink:href="#DejaVuSans-32" x="95.410156"/>
       <use xlink:href="#DejaVuSans-30" x="159.033203"/>
      </g>
     </g>
    </g>
    <g id="xtick_4">
     <g id="line2d_7">
      <path d="M 183.642353 307.584 
L 183.642353 41.472 
" clip-path="url(#pf3aa36698c)" style="fill: none; stroke: #b0b0b0; stroke-opacity: 0.15; stroke-width: 0.8; stroke-linecap: square"/>
     </g>
     <g id="line2d_8">
      <g>
       <use xlink:href="#ma234aa336d" x="183.642353" y="307.584" style="stroke: #000000; stroke-width: 0.8"/>
      </g>
     </g>
     <g id="text_4">
      <!-- 0.25 -->
      <g transform="translate(172.50954 322.182437)scale(0.1 -0.1)">
       <use xlink:href="#DejaVuSans-30"/>
       <use xlink:href="#DejaVuSans-2e" x="63.623047"/>
       <use xlink:href="#DejaVuSans-32" x="95.410156"/>
       <use xlink:href="#DejaVuSans-35" x="159.033203"/>
      </g>
     </g>
    </g>
    <g id="xtick_5">
     <g id="line2d_9">
      <path d="M 225.656471 307.584 
L 225.656471 41.472 
" clip-path="url(#pf3aa36698c)" style="fill: none; stroke: #b0b0b0; stroke-opacity: 0.15; stroke-width: 0.8; stroke-linecap: square"/>
     </g>
     <g id="line2d_10">
      <g>
       <use xlink:href="#ma234aa336d" x="225.656471" y="307.584" style="stroke: #000000; stroke-width: 0.8"/>
      </g>
     </g>
     <g id="text_5">
      <!-- 0.30 -->
      <g transform="translate(214.523658 322.182437)scale(0.1 -0.1)">
       <defs>
        <path id="DejaVuSans-33" d="M 2597 2516 
Q 3050 2419 3304 2112 
Q 3559 1806 3559 1356 
Q 3559 666 3084 287 
Q 2609 -91 1734 -91 
Q 1441 -91 1130 -33 
Q 819 25 488 141 
L 488 750 
Q 750 597 1062 519 
Q 1375 441 1716 441 
Q 2309 441 2620 675 
Q 2931 909 2931 1356 
Q 2931 1769 2642 2001 
Q 2353 2234 1838 2234 
L 1294 2234 
L 1294 2753 
L 1863 2753 
Q 2328 2753 2575 2939 
Q 2822 3125 2822 3475 
Q 2822 3834 2567 4026 
Q 2313 4219 1838 4219 
Q 1578 4219 1281 4162 
Q 984 4106 628 3988 
L 628 4550 
Q 988 4650 1302 4700 
Q 1616 4750 1894 4750 
Q 2613 4750 3031 4423 
Q 3450 4097 3450 3541 
Q 3450 3153 3228 2886 
Q 3006 2619 2597 2516 
z
" transform="scale(0.015625)"/>
       </defs>
       <use xlink:href="#DejaVuSans-30"/>
       <use xlink:href="#DejaVuSans-2e" x="63.623047"/>
       <use xlink:href="#DejaVuSans-33" x="95.410156"/>
       <use xlink:href="#DejaVuSans-30" x="159.033203"/>
      </g>
     </g>
    </g>
    <g id="xtick_6">
     <g id="line2d_11">
      <path d="M 267.670588 307.584 
L 267.670588 41.472 
" clip-path="url(#pf3aa36698c)" style="fill: none; stroke: #b0b0b0; stroke-opacity: 0.15; stroke-width: 0.8; stroke-linecap: square"/>
     </g>
     <g id="line2d_12">
      <g>
       <use xlink:href="#ma234aa336d" x="267.670588" y="307.584" style="stroke: #000000; stroke-width: 0.8"/>
      </g>
     </g>
     <g id="text_6">
      <!-- 0.35 -->
      <g transform="translate(256.537776 322.182437)scale(0.1 -0.1)">
       <use xlink:href="#DejaVuSans-30"/>
       <use xlink:href="#DejaVuSans-2e" x="63.623047"/>
       <use xlink:href="#DejaVuSans-33" x="95.410156"/>
       <use xlink:href="#DejaVuSans-35" x="159.033203"/>
      </g>
     </g>
    </g>
    <g id="xtick_7">
     <g id="line2d_13">
      <path d="M 309.684706 307.584 
L 309.684706 41.472 
" clip-path="url(#pf3aa36698c)" style="fill: none; stroke: #b0b0b0; stroke-opacity: 0.15; stroke-width: 0.8; stroke-linecap: square"/>
     </g>
     <g id="line2d_14">
      <g>
       <use xlink:href="#ma234aa336d" x="309.684706" y="307.584" style="stroke: #000000; stroke-width: 0.8"/>
      </g>
     </g>
     <g id="text_7">
      <!-- 0.40 -->
      <g transform="translate(298.551893 322.182437)scale(0.1 -0.1)">
       <defs>
        <path id="DejaVuSans-34" d="M 2419 4116 
L 825 1625 
L 2419 1625 
L 2419 4116 
z
M 2253 4666 
L 3047 4666 
L 3047 1625 
L 3713 1625 
L 3713 1100 
L 3047 1100 
L 3047 0 
L 2419 0 
L 2419 1100 
L 313 1100 
L 313 1709 
L 2253 4666 
z
" transform="scale(0.015625)"/>
       </defs>
       <use xlink:href="#DejaVuSans-30"/>
       <use xlink:href="#DejaVuSans-2e" x="63.623047"/>
       <use xlink:href="#DejaVuSans-34" x="95.410156"/>
       <use xlink:href="#DejaVuSans-30" x="159.033203"/>
      </g>
     </g>
    </g>
    <g id="text_8">
     <!-- $l$ -->
     <g transform="translate(198.488 338.899937)scale(0.14 -0.14)">
      <defs>
       <path id="DejaVuSans-Oblique-6c" d="M 1172 4863 
L 1747 4863 
L 800 0 
L 225 0 
L 1172 4863 
z
" transform="scale(0.015625)"/>
      </defs>
      <use xlink:href="#DejaVuSans-Oblique-6c" transform="translate(0 0.015625)"/>
     </g>
    </g>
   </g>
   <g id="matplotlib.axis_2">
    <g id="ytick_1">
     <g id="line2d_15">
      <path d="M 57.6 273.650255 
L 343.296 273.650255 
" clip-path="url(#pf3aa36698c)" style="fill: none; stroke: #b0b0b0; stroke-opacity: 0.15; stroke-width: 0.8; stroke-linecap: square"/>
     </g>
     <g id="line2d_16">
      <defs>
       <path id="m8241da600e" d="M 0 0 
L -3.5 0 
" style="stroke: #000000; stroke-width: 0.8"/>
      </defs>
      <g>
       <use xlink:href="#m8241da600e" x="57.6" y="273.650255" style="stroke: #000000; stroke-width: 0.8"/>
      </g>
     </g>
     <g id="text_9">
      <!-- 2 -->
      <g transform="translate(44.2375 277.449474)scale(0.1 -0.1)">
       <use xlink:href="#DejaVuSans-32"/>
      </g>
     </g>
    </g>
    <g id="ytick_2">
     <g id="line2d_17">
      <path d="M 57.6 237.930523 
L 343.296 237.930523 
" clip-path="url(#pf3aa36698c)" style="fill: none; stroke: #b0b0b0; stroke-opacity: 0.15; stroke-width: 0.8; stroke-linecap: square"/>
     </g>
     <g id="line2d_18">
      <g>
       <use xlink:href="#m8241da600e" x="57.6" y="237.930523" style="stroke: #000000; stroke-width: 0.8"/>
      </g>
     </g>
     <g id="text_10">
      <!-- 4 -->
      <g transform="translate(44.2375 241.729742)scale(0.1 -0.1)">
       <use xlink:href="#DejaVuSans-34"/>
      </g>
     </g>
    </g>
    <g id="ytick_3">
     <g id="line2d_19">
      <path d="M 57.6 202.210792 
L 343.296 202.210792 
" clip-path="url(#pf3aa36698c)" style="fill: none; stroke: #b0b0b0; stroke-opacity: 0.15; stroke-width: 0.8; stroke-linecap: square"/>
     </g>
     <g id="line2d_20">
      <g>
       <use xlink:href="#m8241da600e" x="57.6" y="202.210792" style="stroke: #000000; stroke-width: 0.8"/>
      </g>
     </g>
     <g id="text_11">
      <!-- 6 -->
      <g transform="translate(44.2375 206.010011)scale(0.1 -0.1)">
       <defs>
        <path id="DejaVuSans-36" d="M 2113 2584 
Q 1688 2584 1439 2293 
Q 1191 2003 1191 1497 
Q 1191 994 1439 701 
Q 1688 409 2113 409 
Q 2538 409 2786 701 
Q 3034 994 3034 1497 
Q 3034 2003 2786 2293 
Q 2538 2584 2113 2584 
z
M 3366 4563 
L 3366 3988 
Q 3128 4100 2886 4159 
Q 2644 4219 2406 4219 
Q 1781 4219 1451 3797 
Q 1122 3375 1075 2522 
Q 1259 2794 1537 2939 
Q 1816 3084 2150 3084 
Q 2853 3084 3261 2657 
Q 3669 2231 3669 1497 
Q 3669 778 3244 343 
Q 2819 -91 2113 -91 
Q 1303 -91 875 529 
Q 447 1150 447 2328 
Q 447 3434 972 4092 
Q 1497 4750 2381 4750 
Q 2619 4750 2861 4703 
Q 3103 4656 3366 4563 
z
" transform="scale(0.015625)"/>
       </defs>
       <use xlink:href="#DejaVuSans-36"/>
      </g>
     </g>
    </g>
    <g id="ytick_4">
     <g id="line2d_21">
      <path d="M 57.6 166.49106 
L 343.296 166.49106 
" clip-path="url(#pf3aa36698c)" style="fill: none; stroke: #b0b0b0; stroke-opacity: 0.15; stroke-width: 0.8; stroke-linecap: square"/>
     </g>
     <g id="line2d_22">
      <g>
       <use xlink:href="#m8241da600e" x="57.6" y="166.49106" style="stroke: #000000; stroke-width: 0.8"/>
      </g>
     </g>
     <g id="text_12">
      <!-- 8 -->
      <g transform="translate(44.2375 170.290279)scale(0.1 -0.1)">
       <defs>
        <path id="DejaVuSans-38" d="M 2034 2216 
Q 1584 2216 1326 1975 
Q 1069 1734 1069 1313 
Q 1069 891 1326 650 
Q 1584 409 2034 409 
Q 2484 409 2743 651 
Q 3003 894 3003 1313 
Q 3003 1734 2745 1975 
Q 2488 2216 2034 2216 
z
M 1403 2484 
Q 997 2584 770 2862 
Q 544 3141 544 3541 
Q 544 4100 942 4425 
Q 1341 4750 2034 4750 
Q 2731 4750 3128 4425 
Q 3525 4100 3525 3541 
Q 3525 3141 3298 2862 
Q 3072 2584 2669 2484 
Q 3125 2378 3379 2068 
Q 3634 1759 3634 1313 
Q 3634 634 3220 271 
Q 2806 -91 2034 -91 
Q 1263 -91 848 271 
Q 434 634 434 1313 
Q 434 1759 690 2068 
Q 947 2378 1403 2484 
z
M 1172 3481 
Q 1172 3119 1398 2916 
Q 1625 2713 2034 2713 
Q 2441 2713 2670 2916 
Q 2900 3119 2900 3481 
Q 2900 3844 2670 4047 
Q 2441 4250 2034 4250 
Q 1625 4250 1398 4047 
Q 1172 3844 1172 3481 
z
" transform="scale(0.015625)"/>
       </defs>
       <use xlink:href="#DejaVuSans-38"/>
      </g>
     </g>
    </g>
    <g id="ytick_5">
     <g id="line2d_23">
      <path d="M 57.6 130.771329 
L 343.296 130.771329 
" clip-path="url(#pf3aa36698c)" style="fill: none; stroke: #b0b0b0; stroke-opacity: 0.15; stroke-width: 0.8; stroke-linecap: square"/>
     </g>
     <g id="line2d_24">
      <g>
       <use xlink:href="#m8241da600e" x="57.6" y="130.771329" style="stroke: #000000; stroke-width: 0.8"/>
      </g>
     </g>
     <g id="text_13">
      <!-- 10 -->
      <g transform="translate(37.875 134.570548)scale(0.1 -0.1)">
       <use xlink:href="#DejaVuSans-31"/>
       <use xlink:href="#DejaVuSans-30" x="63.623047"/>
      </g>
     </g>
    </g>
    <g id="ytick_6">
     <g id="line2d_25">
      <path d="M 57.6 95.051597 
L 343.296 95.051597 
" clip-path="url(#pf3aa36698c)" style="fill: none; stroke: #b0b0b0; stroke-opacity: 0.15; stroke-width: 0.8; stroke-linecap: square"/>
     </g>
     <g id="line2d_26">
      <g>
       <use xlink:href="#m8241da600e" x="57.6" y="95.051597" style="stroke: #000000; stroke-width: 0.8"/>
      </g>
     </g>
     <g id="text_14">
      <!-- 12 -->
      <g transform="translate(37.875 98.850816)scale(0.1 -0.1)">
       <use xlink:href="#DejaVuSans-31"/>
       <use xlink:href="#DejaVuSans-32" x="63.623047"/>
      </g>
     </g>
    </g>
    <g id="ytick_7">
     <g id="line2d_27">
      <path d="M 57.6 59.331866 
L 343.296 59.331866 
" clip-path="url(#pf3aa36698c)" style="fill: none; stroke: #b0b0b0; stroke-opacity: 0.15; stroke-width: 0.8; stroke-linecap: square"/>
     </g>
     <g id="line2d_28">
      <g>
       <use xlink:href="#m8241da600e" x="57.6" y="59.331866" style="stroke: #000000; stroke-width: 0.8"/>
      </g>
     </g>
     <g id="text_15">
      <!-- 14 -->
      <g transform="translate(37.875 63.131085)scale(0.1 -0.1)">
       <use xlink:href="#DejaVuSans-31"/>
       <use xlink:href="#DejaVuSans-34" x="63.623047"/>
      </g>
     </g>
    </g>
    <g id="text_16">
     <!-- $\alpha$ -->
     <g transform="translate(30.963437 179.148)rotate(-90)scale(0.14 -0.14)">
      <defs>
       <path id="DejaVuSans-Oblique-3b1" d="M 2619 1628 
L 2622 2350 
Q 2625 3088 2069 3091 
Q 1653 3094 1394 2747 
Q 1069 2319 959 1747 
Q 825 1059 994 731 
Q 1169 397 1547 397 
Q 1966 397 2319 1063 
L 2619 1628 
z
M 2166 3578 
Q 3141 3594 3128 2584 
Q 3128 2584 3616 3500 
L 4128 3500 
L 3119 1603 
L 3109 919 
Q 3109 766 3194 638 
Q 3291 488 3391 488 
L 3669 488 
L 3575 0 
L 3228 0 
Q 2934 0 2722 263 
Q 2622 394 2619 669 
Q 2416 334 2066 50 
Q 1900 -81 1453 -78 
Q 722 -72 456 397 
Q 184 884 353 1747 
Q 534 2675 1009 3097 
Q 1544 3569 2166 3578 
z
" transform="scale(0.015625)"/>
      </defs>
      <use xlink:href="#DejaVuSans-Oblique-3b1" transform="translate(0 0.84375)"/>
     </g>
    </g>
   </g>
   <g id="patch_3">
    <path d="M 57.6 307.584 
L 57.6 41.472 
" style="fill: none; stroke: #000000; stroke-width: 0.8; stroke-linejoin: miter; stroke-linecap: square"/>
   </g>
   <g id="patch_4">
    <path d="M 343.296 307.584 
L 343.296 41.472 
" style="fill: none; stroke: #000000; stroke-width: 0.8; stroke-linejoin: miter; stroke-linecap: square"/>
   </g>
   <g id="patch_5">
    <path d="M 57.6 307.584 
L 343.296 307.584 
" style="fill: none; stroke: #000000; stroke-width: 0.8; stroke-linejoin: miter; stroke-linecap: square"/>
   </g>
   <g id="patch_6">
    <path d="M 57.6 41.472 
L 343.296 41.472 
" style="fill: none; stroke: #000000; stroke-width: 0.8; stroke-linejoin: miter; stroke-linecap: square"/>
   </g>
  </g>
  <g id="axes_2">
   <g id="patch_7">
    <path d="M 361.152 307.584 
L 374.4576 307.584 
L 374.4576 41.472 
L 361.152 41.472 
z
" style="fill: #ffffff"/>
   </g>
   <g id="patch_8">
    <path clip-path="url(#p1e970d55ef)" style="fill: #ffffff; stroke: #ffffff; stroke-width: 0.01; stroke-linejoin: miter"/>
   </g>
   <g id="QuadMesh_1">
    <path d="M 361.152 307.584 
L 374.4576 307.584 
L 374.4576 269.568 
L 361.152 269.568 
L 361.152 307.584 
" clip-path="url(#p1e970d55ef)" style="fill: #433d84"/>
    <path d="M 361.152 269.568 
L 374.4576 269.568 
L 374.4576 231.552 
L 361.152 231.552 
L 361.152 269.568 
" clip-path="url(#p1e970d55ef)" style="fill: #21918c"/>
    <path d="M 361.152 231.552 
L 374.4576 231.552 
L 374.4576 193.536 
L 361.152 193.536 
L 361.152 231.552 
" clip-path="url(#p1e970d55ef)" style="fill: #3aba76"/>
    <path d="M 361.152 193.536 
L 374.4576 193.536 
L 374.4576 155.52 
L 361.152 155.52 
L 361.152 193.536 
" clip-path="url(#p1e970d55ef)" style="fill: #5ec962"/>
    <path d="M 361.152 155.52 
L 374.4576 155.52 
L 374.4576 117.504 
L 361.152 117.504 
L 361.152 155.52 
" clip-path="url(#p1e970d55ef)" style="fill: #89d548"/>
    <path d="M 361.152 117.504 
L 374.4576 117.504 
L 374.4576 79.488 
L 361.152 79.488 
L 361.152 117.504 
" clip-path="url(#p1e970d55ef)" style="fill: #b8de29"/>
    <path d="M 361.152 79.488 
L 374.4576 79.488 
L 374.4576 41.472 
L 361.152 41.472 
L 361.152 79.488 
" clip-path="url(#p1e970d55ef)" style="fill: #e7e419"/>
   </g>
   <g id="matplotlib.axis_3">
    <g id="ytick_8">
     <g id="line2d_29">
      <defs>
       <path id="ma3726425b4" d="M 0 0 
L 3.5 0 
" style="stroke: #000000; stroke-width: 0.8"/>
      </defs>
      <g>
       <use xlink:href="#ma3726425b4" x="374.4576" y="307.584" style="stroke: #000000; stroke-width: 0.8"/>
      </g>
     </g>
     <g id="text_17">
      <!-- −100 -->
      <g transform="translate(381.4576 311.383219)scale(0.1 -0.1)">
       <defs>
        <path id="DejaVuSans-2212" d="M 678 2272 
L 4684 2272 
L 4684 1741 
L 678 1741 
L 678 2272 
z
" transform="scale(0.015625)"/>
       </defs>
       <use xlink:href="#DejaVuSans-2212"/>
       <use xlink:href="#DejaVuSans-31" x="83.789062"/>
       <use xlink:href="#DejaVuSans-30" x="147.412109"/>
       <use xlink:href="#DejaVuSans-30" x="211.035156"/>
      </g>
     </g>
    </g>
    <g id="ytick_9">
     <g id="line2d_30">
      <g>
       <use xlink:href="#ma3726425b4" x="374.4576" y="269.568" style="stroke: #000000; stroke-width: 0.8"/>
      </g>
     </g>
     <g id="text_18">
      <!-- −50 -->
      <g transform="translate(381.4576 273.367219)scale(0.1 -0.1)">
       <use xlink:href="#DejaVuSans-2212"/>
       <use xlink:href="#DejaVuSans-35" x="83.789062"/>
       <use xlink:href="#DejaVuSans-30" x="147.412109"/>
      </g>
     </g>
    </g>
    <g id="ytick_10">
     <g id="line2d_31">
      <g>
       <use xlink:href="#ma3726425b4" x="374.4576" y="231.552" style="stroke: #000000; stroke-width: 0.8"/>
      </g>
     </g>
     <g id="text_19">
      <!-- −10 -->
      <g transform="translate(381.4576 235.351219)scale(0.1 -0.1)">
       <use xlink:href="#DejaVuSans-2212"/>
       <use xlink:href="#DejaVuSans-31" x="83.789062"/>
       <use xlink:href="#DejaVuSans-30" x="147.412109"/>
      </g>
     </g>
    </g>
    <g id="ytick_11">
     <g id="line2d_32">
      <g>
       <use xlink:href="#ma3726425b4" x="374.4576" y="193.536" style="stroke: #000000; stroke-width: 0.8"/>
      </g>
     </g>
     <g id="text_20">
      <!-- 0 -->
      <g transform="translate(381.4576 197.335219)scale(0.1 -0.1)">
       <use xlink:href="#DejaVuSans-30"/>
      </g>
     </g>
    </g>
    <g id="ytick_12">
     <g id="line2d_33">
      <g>
       <use xlink:href="#ma3726425b4" x="374.4576" y="155.52" style="stroke: #000000; stroke-width: 0.8"/>
      </g>
     </g>
     <g id="text_21">
      <!-- 10 -->
      <g transform="translate(381.4576 159.319219)scale(0.1 -0.1)">
       <use xlink:href="#DejaVuSans-31"/>
       <use xlink:href="#DejaVuSans-30" x="63.623047"/>
      </g>
     </g>
    </g>
    <g id="ytick_13">
     <g id="line2d_34">
      <g>
       <use xlink:href="#ma3726425b4" x="374.4576" y="117.504" style="stroke: #000000; stroke-width: 0.8"/>
      </g>
     </g>
     <g id="text_22">
      <!-- 20 -->
      <g transform="translate(381.4576 121.303219)scale(0.1 -0.1)">
       <use xlink:href="#DejaVuSans-32"/>
       <use xlink:href="#DejaVuSans-30" x="63.623047"/>
      </g>
     </g>
    </g>
    <g id="ytick_14">
     <g id="line2d_35">
      <g>
       <use xlink:href="#ma3726425b4" x="374.4576" y="79.488" style="stroke: #000000; stroke-width: 0.8"/>
      </g>
     </g>
     <g id="text_23">
      <!-- 30 -->
      <g transform="translate(381.4576 83.287219)scale(0.1 -0.1)">
       <use xlink:href="#DejaVuSans-33"/>
       <use xlink:href="#DejaVuSans-30" x="63.623047"/>
      </g>
     </g>
    </g>
    <g id="ytick_15">
     <g id="line2d_36">
      <g>
       <use xlink:href="#ma3726425b4" x="374.4576" y="41.472" style="stroke: #000000; stroke-width: 0.8"/>
      </g>
     </g>
     <g id="text_24">
      <!-- 40 -->
      <g transform="translate(381.4576 45.271219)scale(0.1 -0.1)">
       <use xlink:href="#DejaVuSans-34"/>
       <use xlink:href="#DejaVuSans-30" x="63.623047"/>
      </g>
     </g>
    </g>
   </g>
   <g id="LineCollection_1"/>
   <g id="patch_9">
    <path d="M 361.152 307.584 
L 367.8048 307.584 
L 374.4576 307.584 
L 374.4576 41.472 
L 367.8048 41.472 
L 361.152 41.472 
L 361.152 307.584 
z
" style="fill: none; stroke: #000000; stroke-width: 0.8; stroke-linejoin: miter; stroke-linecap: square"/>
   </g>
  </g>
 </g>
 <defs>
  <clipPath id="pf3aa36698c">
   <rect x="57.6" y="41.472" width="285.696" height="266.112"/>
  </clipPath>
  <clipPath id="p1e970d55ef">
   <rect x="361.152" y="41.472" width="13.3056" height="266.112"/>
  </clipPath>
 </defs>
</svg>
