<?xml version="1.0" encoding="utf-8" standalone="no"?>
<!DOCTYPE svg PUBLIC "-//W3C//DTD SVG 1.1//EN"
  "http://www.w3.org/Graphics/SVG/1.1/DTD/svg11.dtd">
<svg xmlns:xlink="http://www.w3.org/1999/xlink" width="460.8pt" height="345.6pt" viewBox="0 0 460.8 345.6" xmlns="http://www.w3.org/2000/svg" version="1.1">
 <metadata>
  <rdf:RDF xmlns:dc="http://purl.org/dc/elements/1.1/" xmlns:cc="http://creativecommons.org/ns#" xmlns:rdf="http://www.w3.org/1999/02/22-rdf-syntax-ns#">
   <cc:Work>
    <dc:type rdf:resource="http://purl.org/dc/dcmitype/StillImage"/>
    <dc:date>2023-05-31T13:01:58.512285</dc:date>
    <dc:format>image/svg+xml</dc:format>
    <dc:creator>
     <cc:Agent>
      <dc:title>Matplotlib v3.5.2, https://matplotlib.org/</dc:title>
     </cc:Agent>
    </dc:creator>
   </cc:Work>
  </rdf:RDF>
 </metadata>
 <defs>
  <style type="text/css">*{stroke-linejoin: round; stroke-linecap: butt}</style>
 </defs>
 <g id="figure_1">
  <g id="patch_1">
   <path d="M 0 345.6 
L 460.8 345.6 
L 460.8 0 
L 0 0 
z
" style="fill: #ffffff"/>
  </g>
  <g id="axes_1">
   <g id="patch_2">
    <path d="M 57.6 307.584 
L 414.72 307.584 
L 414.72 41.472 
L 57.6 41.472 
z
" style="fill: #ffffff"/>
   </g>
   <g id="PolyCollection_1">
    <defs>
     <path id="m6e700f98d0" d="M 73.832727 -262.088196 
L 73.832727 -50.112 
L 74.157707 -50.22848 
L 74.482686 -50.34722 
L 74.807666 -50.468256 
L 75.132645 -50.591625 
L 75.457625 -50.717364 
L 75.782604 -50.845511 
L 76.107584 -50.976105 
L 76.432563 -51.109184 
L 76.757543 -51.244787 
L 77.082523 -51.382953 
L 77.407502 -51.523722 
L 77.732482 -51.667134 
L 78.057461 -51.81323 
L 78.382441 -51.96205 
L 78.70742 -52.113635 
L 79.0324 -52.268028 
L 79.357379 -52.42527 
L 79.682359 -52.585403 
L 80.007338 -52.748469 
L 80.332318 -52.914512 
L 80.657297 -53.083574 
L 80.982277 -53.255699 
L 81.307256 -53.430931 
L 81.632236 -53.609314 
L 81.957215 -53.790891 
L 82.282195 -53.975708 
L 82.607174 -54.163809 
L 82.932154 -54.355239 
L 83.257133 -54.550043 
L 83.582113 -54.748267 
L 83.907093 -54.949957 
L 84.232072 -55.155157 
L 84.557052 -55.363914 
L 84.882031 -55.576274 
L 85.207011 -55.792283 
L 85.53199 -56.011987 
L 85.85697 -56.235433 
L 86.181949 -56.462667 
L 86.506929 -56.693736 
L 86.831908 -56.928686 
L 87.156888 -57.167563 
L 87.481867 -57.410415 
L 87.806847 -57.657287 
L 88.131826 -57.908227 
L 88.456806 -58.16328 
L 88.781785 -58.422493 
L 89.106765 -58.685912 
L 89.431744 -58.953583 
L 89.756724 -59.225552 
L 90.081704 -59.501864 
L 90.406683 -59.782565 
L 90.731663 -60.0677 
L 91.056642 -60.357315 
L 91.381622 -60.651453 
L 91.706601 -60.950159 
L 92.031581 -61.253477 
L 92.35656 -61.561451 
L 92.68154 -61.874123 
L 93.006519 -62.191537 
L 93.331499 -62.513734 
L 93.656478 -62.840756 
L 93.981458 -63.172645 
L 94.306437 -63.509441 
L 94.631417 -63.851185 
L 94.956396 -64.197914 
L 95.281376 -64.549669 
L 95.606355 -64.906487 
L 95.931335 -65.268405 
L 96.256314 -65.63546 
L 96.581294 -66.007687 
L 96.906274 -66.385122 
L 97.231253 -66.767798 
L 97.556233 -67.155748 
L 97.881212 -67.549004 
L 98.206192 -67.947598 
L 98.531171 -68.351559 
L 98.856151 -68.760916 
L 99.18113 -69.175697 
L 99.50611 -69.59593 
L 99.831089 -70.021638 
L 100.156069 -70.452848 
L 100.481048 -70.889581 
L 100.806028 -71.331859 
L 101.131007 -71.779704 
L 101.455987 -72.233133 
L 101.780966 -72.692165 
L 102.105946 -73.156815 
L 102.430925 -73.627099 
L 102.755905 -74.103029 
L 103.080885 -74.584617 
L 103.405864 -75.071872 
L 103.730844 -75.564804 
L 104.055823 -76.063419 
L 104.380803 -76.567721 
L 104.705782 -77.077714 
L 105.030762 -77.593398 
L 105.355741 -78.114774 
L 105.680721 -78.641839 
L 106.0057 -79.174588 
L 106.33068 -79.713015 
L 106.655659 -80.257111 
L 106.980639 -80.806867 
L 107.305618 -81.362269 
L 107.630598 -81.923303 
L 107.955577 -82.489953 
L 108.280557 -83.062199 
L 108.605536 -83.64002 
L 108.930516 -84.223393 
L 109.255495 -84.812292 
L 109.580475 -85.406688 
L 109.905455 -86.006553 
L 110.230434 -86.611852 
L 110.555414 -87.22255 
L 110.880393 -87.83861 
L 111.205373 -88.459991 
L 111.530352 -89.086651 
L 111.855332 -89.718545 
L 112.180311 -90.355625 
L 112.505291 -90.997839 
L 112.83027 -91.645136 
L 113.15525 -92.297458 
L 113.480229 -92.954749 
L 113.805209 -93.616946 
L 114.130188 -94.283986 
L 114.455168 -94.955801 
L 114.780147 -95.632323 
L 115.105127 -96.313479 
L 115.430106 -96.999194 
L 115.755086 -97.689389 
L 116.080066 -98.383984 
L 116.405045 -99.082895 
L 116.730025 -99.786036 
L 117.055004 -100.493316 
L 117.379984 -101.204643 
L 117.704963 -101.91992 
L 118.029943 -102.639051 
L 118.354922 -103.361932 
L 118.679902 -104.08846 
L 119.004881 -104.818525 
L 119.329861 -105.552019 
L 119.65484 -106.288826 
L 119.97982 -107.02883 
L 120.304799 -107.771912 
L 120.629779 -108.517946 
L 120.954758 -109.266809 
L 121.279738 -110.018369 
L 121.604717 -110.772495 
L 121.929697 -111.529052 
L 122.254676 -112.287899 
L 122.579656 -113.048896 
L 122.904636 -113.811897 
L 123.229615 -114.576754 
L 123.554595 -115.343315 
L 123.879574 -116.111426 
L 124.204554 -116.880929 
L 124.529533 -117.651663 
L 124.854513 -118.423464 
L 125.179492 -119.196163 
L 125.504472 -119.969591 
L 125.829451 -120.743573 
L 126.154431 -121.517932 
L 126.47941 -122.292487 
L 126.80439 -123.067055 
L 127.129369 -123.841448 
L 127.454349 -124.615476 
L 127.779328 -125.388945 
L 128.104308 -126.161658 
L 128.429287 -126.933415 
L 128.754267 -127.704011 
L 129.079247 -128.473238 
L 129.404226 -129.240887 
L 129.729206 -130.006742 
L 130.054185 -130.770586 
L 130.379165 -131.532197 
L 130.704144 -132.29135 
L 131.029124 -133.047816 
L 131.354103 -133.801363 
L 131.679083 -134.551753 
L 132.004062 -135.298747 
L 132.329042 -136.0421 
L 132.654021 -136.781564 
L 132.979001 -137.516886 
L 133.30398 -138.24781 
L 133.62896 -138.974075 
L 133.953939 -139.695415 
L 134.278919 -140.41156 
L 134.603898 -141.122235 
L 134.928878 -141.82716 
L 135.253857 -142.526052 
L 135.578837 -143.218619 
L 135.903817 -143.904566 
L 136.228796 -144.583593 
L 136.553776 -145.255392 
L 136.878755 -145.919652 
L 137.203735 -146.576052 
L 137.528714 -147.224267 
L 137.853694 -147.863964 
L 138.178673 -148.494805 
L 138.503653 -149.116442 
L 138.828632 -149.72852 
L 139.153612 -150.330677 
L 139.478591 -150.922542 
L 139.803571 -151.503734 
L 140.12855 -152.073866 
L 140.45353 -152.632539 
L 140.778509 -153.179345 
L 141.103489 -153.713867 
L 141.428468 -154.235675 
L 141.753448 -154.744331 
L 142.078428 -155.239385 
L 142.403407 -155.720376 
L 142.728387 -156.186832 
L 143.053366 -156.638269 
L 143.378346 -157.074193 
L 143.703325 -157.494098 
L 144.028305 -157.897467 
L 144.353284 -158.283775 
L 144.678264 -158.652484 
L 145.003243 -159.00305 
L 145.328223 -159.33492 
L 145.653202 -159.647538 
L 145.978182 -159.94034 
L 146.303161 -160.212763 
L 146.628141 -160.464245 
L 146.95312 -160.694226 
L 147.2781 -160.902156 
L 147.603079 -161.087494 
L 147.928059 -161.249718 
L 148.253038 -161.388326 
L 148.578018 -161.50284 
L 148.902998 -161.592819 
L 149.227977 -161.657856 
L 149.552957 -161.69759 
L 149.877936 -161.71171 
L 150.202916 -161.699962 
L 150.527895 -161.662154 
L 150.852875 -161.598162 
L 151.177854 -161.507934 
L 151.502834 -161.391494 
L 151.827813 -161.248945 
L 152.152793 -161.080471 
L 152.477772 -160.886337 
L 152.802752 -160.666889 
L 153.127731 -160.42255 
L 153.452711 -160.15382 
L 153.77769 -159.861269 
L 154.10267 -159.545532 
L 154.427649 -159.207304 
L 154.752629 -158.847332 
L 155.077609 -158.466409 
L 155.402588 -158.065362 
L 155.727568 -157.645052 
L 156.052547 -157.20636 
L 156.377527 -156.750182 
L 156.702506 -156.277422 
L 157.027486 -155.788988 
L 157.352465 -155.285782 
L 157.677445 -154.768697 
L 158.002424 -154.238615 
L 158.327404 -153.696398 
L 158.652383 -153.14289 
L 158.977363 -152.57891 
L 159.302342 -152.005255 
L 159.627322 -151.422692 
L 159.952301 -150.831964 
L 160.277281 -150.233783 
L 160.60226 -149.628835 
L 160.92724 -149.017775 
L 161.252219 -148.401231 
L 161.577199 -147.779802 
L 161.902179 -147.154062 
L 162.227158 -146.524554 
L 162.552138 -145.891798 
L 162.877117 -145.256288 
L 163.202097 -144.618494 
L 163.527076 -143.978862 
L 163.852056 -143.337814 
L 164.177035 -142.695753 
L 164.502015 -142.053059 
L 164.826994 -141.410095 
L 165.151974 -140.767202 
L 165.476953 -140.124704 
L 165.801933 -139.482908 
L 166.126912 -138.842105 
L 166.451892 -138.202568 
L 166.776871 -137.564557 
L 167.101851 -136.928317 
L 167.42683 -136.29408 
L 167.75181 -135.662062 
L 168.07679 -135.032469 
L 168.401769 -134.405494 
L 168.726749 -133.78132 
L 169.051728 -133.160116 
L 169.376708 -132.542042 
L 169.701687 -131.927248 
L 170.026667 -131.315874 
L 170.351646 -130.708049 
L 170.676626 -130.103896 
L 171.001605 -129.503525 
L 171.326585 -128.907041 
L 171.651564 -128.31454 
L 171.976544 -127.726108 
L 172.301523 -127.141826 
L 172.626503 -126.561766 
L 172.951482 -125.985993 
L 173.276462 -125.414565 
L 173.601441 -124.847533 
L 173.926421 -124.284941 
L 174.2514 -123.726829 
L 174.57638 -123.173227 
L 174.90136 -122.624161 
L 175.226339 -122.079651 
L 175.551319 -121.53971 
L 175.876298 -121.004346 
L 176.201278 -120.473562 
L 176.526257 -119.947355 
L 176.851237 -119.425716 
L 177.176216 -118.908632 
L 177.501196 -118.396084 
L 177.826175 -117.888048 
L 178.151155 -117.384496 
L 178.476134 -116.885395 
L 178.801114 -116.390706 
L 179.126093 -115.900388 
L 179.451073 -115.414393 
L 179.776052 -114.932671 
L 180.101032 -114.455165 
L 180.426011 -113.981817 
L 180.750991 -113.512563 
L 181.075971 -113.047335 
L 181.40095 -112.586064 
L 181.72593 -112.128674 
L 182.050909 -111.675088 
L 182.375889 -111.225224 
L 182.700868 -110.778997 
L 183.025848 -110.336321 
L 183.350827 -109.897105 
L 183.675807 -109.461256 
L 184.000786 -109.02868 
L 184.325766 -108.599278 
L 184.650745 -108.17295 
L 184.975725 -107.749596 
L 185.300704 -107.329112 
L 185.625684 -106.911394 
L 185.950663 -106.496336 
L 186.275643 -106.083832 
L 186.600622 -105.673775 
L 186.925602 -105.266059 
L 187.250581 -104.860575 
L 187.575561 -104.457218 
L 187.900541 -104.055882 
L 188.22552 -103.656463 
L 188.5505 -103.258857 
L 188.875479 -102.862965 
L 189.200459 -102.468686 
L 189.525438 -102.075927 
L 189.850418 -101.684595 
L 190.175397 -101.294601 
L 190.500377 -100.90586 
L 190.825356 -100.518295 
L 191.150336 -100.131829 
L 191.475315 -99.746394 
L 191.800295 -99.361929 
L 192.125274 -98.978376 
L 192.450254 -98.595686 
L 192.775233 -98.21382 
L 193.100213 -97.832742 
L 193.425192 -97.452427 
L 193.750172 -97.07286 
L 194.075152 -96.694033 
L 194.400131 -96.315946 
L 194.725111 -95.938613 
L 195.05009 -95.562054 
L 195.37507 -95.186301 
L 195.700049 -94.811394 
L 196.025029 -94.437386 
L 196.350008 -94.064339 
L 196.674988 -93.692325 
L 196.999967 -93.321426 
L 197.324947 -92.951735 
L 197.649926 -92.583353 
L 197.974906 -92.216392 
L 198.299885 -91.850973 
L 198.624865 -91.487227 
L 198.949844 -91.12529 
L 199.274824 -90.76531 
L 199.599803 -90.40744 
L 199.924783 -90.051841 
L 200.249762 -89.698681 
L 200.574742 -89.348132 
L 200.899722 -89.000375 
L 201.224701 -88.655591 
L 201.549681 -88.313969 
L 201.87466 -87.9757 
L 202.19964 -87.640977 
L 202.524619 -87.309997 
L 202.849599 -86.982957 
L 203.174578 -86.660056 
L 203.499558 -86.341494 
L 203.824537 -86.02747 
L 204.149517 -85.718182 
L 204.474496 -85.413827 
L 204.799476 -85.114602 
L 205.124455 -84.820699 
L 205.449435 -84.53231 
L 205.774414 -84.249622 
L 206.099394 -83.972819 
L 206.424373 -83.702083 
L 206.749353 -83.437589 
L 207.074333 -83.17951 
L 207.399312 -82.928013 
L 207.724292 -82.683259 
L 208.049271 -82.445406 
L 208.374251 -82.214606 
L 208.69923 -81.991003 
L 209.02421 -81.774738 
L 209.349189 -81.565944 
L 209.674169 -81.36475 
L 209.999148 -81.171276 
L 210.324128 -80.985637 
L 210.649107 -80.807941 
L 210.974087 -80.638291 
L 211.299066 -80.47678 
L 211.624046 -80.323498 
L 211.949025 -80.178526 
L 212.274005 -80.041937 
L 212.598984 -79.9138 
L 212.923964 -79.794175 
L 213.248943 -79.683114 
L 213.573923 -79.580665 
L 213.898903 -79.486866 
L 214.223882 -79.401748 
L 214.548862 -79.325336 
L 214.873841 -79.257647 
L 215.198821 -79.198691 
L 215.5238 -79.148468 
L 215.84878 -79.106975 
L 216.173759 -79.074197 
L 216.498739 -79.050113 
L 216.823718 -79.034695 
L 217.148698 -79.027906 
L 217.473677 -79.0297 
L 217.798657 -79.040024 
L 218.123636 -79.058817 
L 218.448616 -79.086009 
L 218.773595 -79.12152 
L 219.098575 -79.165264 
L 219.423554 -79.217144 
L 219.748534 -79.277054 
L 220.073514 -79.344878 
L 220.398493 -79.420492 
L 220.723473 -79.503761 
L 221.048452 -79.59454 
L 221.373432 -79.692674 
L 221.698411 -79.797997 
L 222.023391 -79.910334 
L 222.34837 -80.029496 
L 222.67335 -80.155284 
L 222.998329 -80.287489 
L 223.323309 -80.425887 
L 223.648288 -80.570246 
L 223.973268 -80.720318 
L 224.298247 -80.875845 
L 224.623227 -81.036556 
L 224.948206 -81.202167 
L 225.273186 -81.372382 
L 225.598165 -81.546891 
L 225.923145 -81.725374 
L 226.248124 -81.907496 
L 226.573104 -82.092911 
L 226.898084 -82.28126 
L 227.223063 -82.472175 
L 227.548043 -82.665275 
L 227.873022 -82.860169 
L 228.198002 -83.056457 
L 228.522981 -83.25373 
L 228.847961 -83.451572 
L 229.17294 -83.649562 
L 229.49792 -83.847271 
L 229.822899 -84.044271 
L 230.147879 -84.24013 
L 230.472858 -84.434415 
L 230.797838 -84.6267 
L 231.122817 -84.816558 
L 231.447797 -85.003572 
L 231.772776 -85.187332 
L 232.097756 -85.367441 
L 232.422735 -85.543511 
L 232.747715 -85.715175 
L 233.072695 -85.882077 
L 233.397674 -86.043885 
L 233.722654 -86.200286 
L 234.047633 -86.350988 
L 234.372613 -86.495727 
L 234.697592 -86.63426 
L 235.022572 -86.766371 
L 235.347551 -86.891872 
L 235.672531 -87.010599 
L 235.99751 -87.122417 
L 236.32249 -87.227215 
L 236.647469 -87.324912 
L 236.972449 -87.415447 
L 237.297428 -87.498787 
L 237.622408 -87.574921 
L 237.947387 -87.64386 
L 238.272367 -87.705635 
L 238.597346 -87.760297 
L 238.922326 -87.807914 
L 239.247305 -87.84857 
L 239.572285 -87.882365 
L 239.897265 -87.909409 
L 240.222244 -87.929826 
L 240.547224 -87.943749 
L 240.872203 -87.951322 
L 241.197183 -87.952693 
L 241.522162 -87.948018 
L 241.847142 -87.93746 
L 242.172121 -87.921184 
L 242.497101 -87.89936 
L 242.82208 -87.872158 
L 243.14706 -87.839754 
L 243.472039 -87.802323 
L 243.797019 -87.760039 
L 244.121998 -87.713081 
L 244.446978 -87.661622 
L 244.771957 -87.605841 
L 245.096937 -87.545911 
L 245.421916 -87.482006 
L 245.746896 -87.4143 
L 246.071876 -87.342963 
L 246.396855 -87.268168 
L 246.721835 -87.190082 
L 247.046814 -87.108872 
L 247.371794 -87.024705 
L 247.696773 -86.937745 
L 248.021753 -86.848155 
L 248.346732 -86.756096 
L 248.671712 -86.661729 
L 248.996691 -86.565211 
L 249.321671 -86.466701 
L 249.64665 -86.366353 
L 249.97163 -86.264324 
L 250.296609 -86.160767 
L 250.621589 -86.055833 
L 250.946568 -85.949676 
L 251.271548 -85.842445 
L 251.596527 -85.734291 
L 251.921507 -85.625362 
L 252.246486 -85.515807 
L 252.571466 -85.405773 
L 252.896446 -85.295408 
L 253.221425 -85.184857 
L 253.546405 -85.074266 
L 253.871384 -84.963782 
L 254.196364 -84.853548 
L 254.521343 -84.743709 
L 254.846323 -84.634411 
L 255.171302 -84.525795 
L 255.496282 -84.418007 
L 255.821261 -84.311188 
L 256.146241 -84.205483 
L 256.47122 -84.101034 
L 256.7962 -83.997983 
L 257.121179 -83.896472 
L 257.446159 -83.796644 
L 257.771138 -83.69864 
L 258.096118 -83.602602 
L 258.421097 -83.508672 
L 258.746077 -83.416989 
L 259.071057 -83.327696 
L 259.396036 -83.240932 
L 259.721016 -83.156839 
L 260.045995 -83.075555 
L 260.370975 -82.997221 
L 260.695954 -82.921977 
L 261.020934 -82.84996 
L 261.345913 -82.78131 
L 261.670893 -82.716165 
L 261.995872 -82.654663 
L 262.320852 -82.596941 
L 262.645831 -82.543135 
L 262.970811 -82.493383 
L 263.29579 -82.44782 
L 263.62077 -82.406581 
L 263.945749 -82.369801 
L 264.270729 -82.337613 
L 264.595708 -82.310151 
L 264.920688 -82.287547 
L 265.245667 -82.269932 
L 265.570647 -82.257438 
L 265.895627 -82.250194 
L 266.220606 -82.24833 
L 266.545586 -82.251972 
L 266.870565 -82.261249 
L 267.195545 -82.276286 
L 267.520524 -82.297209 
L 267.845504 -82.32414 
L 268.170483 -82.357203 
L 268.495463 -82.39652 
L 268.820442 -82.442209 
L 269.145422 -82.49439 
L 269.470401 -82.553181 
L 269.795381 -82.618698 
L 270.12036 -82.691055 
L 270.44534 -82.770365 
L 270.770319 -82.856741 
L 271.095299 -82.950292 
L 271.420278 -83.051127 
L 271.745258 -83.159353 
L 272.070238 -83.275074 
L 272.395217 -83.398395 
L 272.720197 -83.529417 
L 273.045176 -83.66824 
L 273.370156 -83.814962 
L 273.695135 -83.969679 
L 274.020115 -84.132485 
L 274.345094 -84.303472 
L 274.670074 -84.482731 
L 274.995053 -84.67035 
L 275.320033 -84.866414 
L 275.645012 -85.071008 
L 275.969992 -85.284214 
L 276.294971 -85.50611 
L 276.619951 -85.736774 
L 276.94493 -85.976282 
L 277.26991 -86.224706 
L 277.594889 -86.482116 
L 277.919869 -86.74858 
L 278.244848 -87.024165 
L 278.569828 -87.308932 
L 278.894808 -87.602944 
L 279.219787 -87.906257 
L 279.544767 -88.218928 
L 279.869746 -88.54101 
L 280.194726 -88.872553 
L 280.519705 -89.213606 
L 280.844685 -89.564213 
L 281.169664 -89.924417 
L 281.494644 -90.294257 
L 281.819623 -90.673772 
L 282.144603 -91.062996 
L 282.469582 -91.461959 
L 282.794562 -91.870692 
L 283.119541 -92.289219 
L 283.444521 -92.717565 
L 283.7695 -93.155749 
L 284.09448 -93.60379 
L 284.419459 -94.0617 
L 284.744439 -94.529493 
L 285.069419 -95.007176 
L 285.394398 -95.494756 
L 285.719378 -95.992235 
L 286.044357 -96.499613 
L 286.369337 -97.016887 
L 286.694316 -97.544049 
L 287.019296 -98.081092 
L 287.344275 -98.628001 
L 287.669255 -99.184763 
L 287.994234 -99.751358 
L 288.319214 -100.327765 
L 288.644193 -100.913958 
L 288.969173 -101.50991 
L 289.294152 -102.11559 
L 289.619132 -102.730963 
L 289.944111 -103.355992 
L 290.269091 -103.990636 
L 290.59407 -104.634853 
L 290.91905 -105.288593 
L 291.244029 -105.951809 
L 291.569009 -106.624446 
L 291.893989 -107.306447 
L 292.218968 -107.997753 
L 292.543948 -108.698301 
L 292.868927 -109.408025 
L 293.193907 -110.126855 
L 293.518886 -110.854719 
L 293.843866 -111.591539 
L 294.168845 -112.337239 
L 294.493825 -113.091734 
L 294.818804 -113.854939 
L 295.143784 -114.626766 
L 295.468763 -115.407122 
L 295.793743 -116.195912 
L 296.118722 -116.993036 
L 296.443702 -117.798394 
L 296.768681 -118.61188 
L 297.093661 -119.433385 
L 297.41864 -120.262798 
L 297.74362 -121.100004 
L 298.0686 -121.944886 
L 298.393579 -122.79732 
L 298.718559 -123.657184 
L 299.043538 -124.524348 
L 299.368518 -125.398683 
L 299.693497 -126.280054 
L 300.018477 -127.168324 
L 300.343456 -128.063351 
L 300.668436 -128.964993 
L 300.993415 -129.873102 
L 301.318395 -130.787528 
L 301.643374 -131.708119 
L 301.968354 -132.634716 
L 302.293333 -133.567162 
L 302.618313 -134.505294 
L 302.943292 -135.448945 
L 303.268272 -136.397948 
L 303.593251 -137.352129 
L 303.918231 -138.311315 
L 304.24321 -139.275327 
L 304.56819 -140.243984 
L 304.89317 -141.217103 
L 305.218149 -142.194496 
L 305.543129 -143.175973 
L 305.868108 -144.161341 
L 306.193088 -145.150405 
L 306.518067 -146.142965 
L 306.843047 -147.13882 
L 307.168026 -148.137765 
L 307.493006 -149.139594 
L 307.817985 -150.144094 
L 308.142965 -151.151054 
L 308.467944 -152.160258 
L 308.792924 -153.171485 
L 309.117903 -154.184516 
L 309.442883 -155.199126 
L 309.767862 -156.215086 
L 310.092842 -157.232169 
L 310.417821 -158.250141 
L 310.742801 -159.268768 
L 311.067781 -160.28781 
L 311.39276 -161.307029 
L 311.71774 -162.32618 
L 312.042719 -163.345018 
L 312.367699 -164.363295 
L 312.692678 -165.380759 
L 313.017658 -166.397158 
L 313.342637 -167.412234 
L 313.667617 -168.42573 
L 313.992596 -169.437384 
L 314.317576 -170.446933 
L 314.642555 -171.454109 
L 314.967535 -172.458645 
L 315.292514 -173.460268 
L 315.617494 -174.458704 
L 315.942473 -175.453678 
L 316.267453 -176.444909 
L 316.592432 -177.432117 
L 316.917412 -178.415015 
L 317.242391 -179.393318 
L 317.567371 -180.366736 
L 317.892351 -181.334976 
L 318.21733 -182.297742 
L 318.54231 -183.254738 
L 318.867289 -184.205661 
L 319.192269 -185.150208 
L 319.517248 -186.088071 
L 319.842228 -187.018942 
L 320.167207 -187.942507 
L 320.492187 -188.858448 
L 320.817166 -189.766447 
L 321.142146 -190.666181 
L 321.467125 -191.557321 
L 321.792105 -192.439537 
L 322.117084 -193.312495 
L 322.442064 -194.175856 
L 322.767043 -195.029276 
L 323.092023 -195.872409 
L 323.417002 -196.7049 
L 323.741982 -197.526394 
L 324.066962 -198.336527 
L 324.391941 -199.134932 
L 324.716921 -199.921234 
L 325.0419 -200.695054 
L 325.36688 -201.456005 
L 325.691859 -202.203694 
L 326.016839 -202.937721 
L 326.341818 -203.657678 
L 326.666798 -204.363148 
L 326.991777 -205.053709 
L 327.316757 -205.728926 
L 327.641736 -206.388359 
L 327.966716 -207.031554 
L 328.291695 -207.658051 
L 328.616675 -208.267377 
L 328.941654 -208.859048 
L 329.266634 -209.432571 
L 329.591613 -209.98744 
L 329.916593 -210.523136 
L 330.241572 -211.039129 
L 330.566552 -211.534878 
L 330.891532 -212.009829 
L 331.216511 -212.463415 
L 331.541491 -212.895059 
L 331.86647 -213.304173 
L 332.19145 -213.690159 
L 332.516429 -214.052409 
L 332.841409 -214.390308 
L 333.166388 -214.703238 
L 333.491368 -214.990575 
L 333.816347 -215.251696 
L 334.141327 -215.485981 
L 334.466306 -215.692819 
L 334.791286 -215.871607 
L 335.116265 -216.021762 
L 335.441245 -216.142722 
L 335.766224 -216.233956 
L 336.091204 -216.294965 
L 336.416183 -216.325295 
L 336.741163 -216.324542 
L 337.066143 -216.292359 
L 337.391122 -216.228462 
L 337.716102 -216.132642 
L 338.041081 -216.004766 
L 338.366061 -215.844787 
L 338.69104 -215.652745 
L 339.01602 -215.428775 
L 339.340999 -215.173104 
L 339.665979 -214.886057 
L 339.990958 -214.568053 
L 340.315938 -214.219602 
L 340.640917 -213.841305 
L 340.965897 -213.433845 
L 341.290876 -212.997981 
L 341.615856 -212.534543 
L 341.940835 -212.044421 
L 342.265815 -211.528557 
L 342.590794 -210.987936 
L 342.915774 -210.423579 
L 343.240753 -209.83653 
L 343.565733 -209.227852 
L 343.890713 -208.598617 
L 344.215692 -207.949896 
L 344.540672 -207.282761 
L 344.865651 -206.598268 
L 345.190631 -205.897462 
L 345.51561 -205.181367 
L 345.84059 -204.450985 
L 346.165569 -203.707294 
L 346.490549 -202.951241 
L 346.815528 -202.183747 
L 347.140508 -201.405704 
L 347.465487 -200.617971 
L 347.790467 -199.821376 
L 348.115446 -199.01672 
L 348.440426 -198.204769 
L 348.765405 -197.386262 
L 349.090385 -196.561907 
L 349.415364 -195.732386 
L 349.740344 -194.89835 
L 350.065324 -194.060427 
L 350.390303 -193.219215 
L 350.715283 -192.375291 
L 351.040262 -191.529205 
L 351.365242 -190.681487 
L 351.690221 -189.832641 
L 352.015201 -188.983155 
L 352.34018 -188.133491 
L 352.66516 -187.284096 
L 352.990139 -186.435395 
L 353.315119 -185.587796 
L 353.640098 -184.74169 
L 353.965078 -183.89745 
L 354.290057 -183.055434 
L 354.615037 -182.215981 
L 354.940016 -181.379418 
L 355.264996 -180.546054 
L 355.589975 -179.716186 
L 355.914955 -178.890094 
L 356.239934 -178.068045 
L 356.564914 -177.250292 
L 356.889894 -176.437072 
L 357.214873 -175.628612 
L 357.539853 -174.82512 
L 357.864832 -174.026796 
L 358.189812 -173.233822 
L 358.514791 -172.446368 
L 358.839771 -171.664589 
L 359.16475 -170.888627 
L 359.48973 -170.118609 
L 359.814709 -169.354647 
L 360.139689 -168.596839 
L 360.464668 -167.845268 
L 360.789648 -167.100001 
L 361.114627 -166.361088 
L 361.439607 -165.628565 
L 361.764586 -164.902449 
L 362.089566 -164.18274 
L 362.414545 -163.469421 
L 362.739525 -162.762454 
L 363.064505 -162.061783 
L 363.389484 -161.367332 
L 363.714464 -160.679002 
L 364.039443 -159.996676 
L 364.364423 -159.320209 
L 364.689402 -158.649435 
L 365.014382 -157.984164 
L 365.339361 -157.324178 
L 365.664341 -156.669233 
L 365.98932 -156.019056 
L 366.3143 -155.373347 
L 366.639279 -154.731774 
L 366.964259 -154.093973 
L 367.289238 -153.45955 
L 367.614218 -152.828076 
L 367.939197 -152.199089 
L 368.264177 -151.572091 
L 368.589156 -150.94655 
L 368.914136 -150.321898 
L 369.239115 -149.697532 
L 369.564095 -149.072814 
L 369.889075 -148.447071 
L 370.214054 -147.819599 
L 370.539034 -147.189662 
L 370.864013 -146.556497 
L 371.188993 -145.919314 
L 371.513972 -145.277303 
L 371.838952 -144.629639 
L 372.163931 -143.975485 
L 372.488911 -143.314 
L 372.81389 -142.644346 
L 373.13887 -141.965695 
L 373.463849 -141.277241 
L 373.788829 -140.578203 
L 374.113808 -139.867838 
L 374.438788 -139.14545 
L 374.763767 -138.410397 
L 375.088747 -137.662104 
L 375.413726 -136.900063 
L 375.738706 -136.123847 
L 376.063686 -135.333111 
L 376.388665 -134.527599 
L 376.713645 -133.707145 
L 377.038624 -132.871672 
L 377.363604 -132.021196 
L 377.688583 -131.155818 
L 378.013563 -130.275728 
L 378.338542 -129.381191 
L 378.663522 -128.472548 
L 378.988501 -127.550208 
L 379.313481 -126.614638 
L 379.63846 -125.666357 
L 379.96344 -124.705932 
L 380.288419 -123.733963 
L 380.613399 -122.751084 
L 380.938378 -121.757949 
L 381.263358 -120.755229 
L 381.588337 -119.743609 
L 381.913317 -118.723775 
L 382.238296 -117.696419 
L 382.563276 -116.662226 
L 382.888256 -115.621877 
L 383.213235 -114.576042 
L 383.538215 -113.525381 
L 383.863194 -112.470539 
L 384.188174 -111.412146 
L 384.513153 -110.350818 
L 384.838133 -109.287149 
L 385.163112 -108.22172 
L 385.488092 -107.155091 
L 385.813071 -106.087805 
L 386.138051 -105.020386 
L 386.46303 -103.953339 
L 386.78801 -102.887155 
L 387.112989 -101.822301 
L 387.437969 -100.759233 
L 387.762948 -99.698386 
L 388.087928 -98.64018 
L 388.412907 -97.585019 
L 388.737887 -96.533291 
L 389.062867 -95.485371 
L 389.387846 -94.441618 
L 389.712826 -93.402377 
L 390.037805 -92.36798 
L 390.362785 -91.338745 
L 390.687764 -90.314978 
L 391.012744 -89.296975 
L 391.337723 -88.285018 
L 391.662703 -87.279377 
L 391.987682 -86.280312 
L 392.312662 -85.288075 
L 392.637641 -84.302903 
L 392.962621 -83.325028 
L 393.2876 -82.354668 
L 393.61258 -81.392034 
L 393.937559 -80.43733 
L 394.262539 -79.490747 
L 394.587518 -78.55247 
L 394.912498 -77.622677 
L 395.237477 -76.701535 
L 395.562457 -75.789206 
L 395.887437 -74.885842 
L 396.212416 -73.99159 
L 396.537396 -73.106588 
L 396.862375 -72.230968 
L 397.187355 -71.364855 
L 397.512334 -70.508368 
L 397.837314 -69.661617 
L 398.162293 -68.82471 
L 398.487273 -67.997744 
L 398.487273 -181.075608 
L 398.487273 -181.075608 
L 398.162293 -180.545225 
L 397.837314 -180.020002 
L 397.512334 -179.500154 
L 397.187355 -178.985901 
L 396.862375 -178.477464 
L 396.537396 -177.975068 
L 396.212416 -177.478941 
L 395.887437 -176.989314 
L 395.562457 -176.506421 
L 395.237477 -176.030498 
L 394.912498 -175.561788 
L 394.587518 -175.100534 
L 394.262539 -174.646984 
L 393.937559 -174.20139 
L 393.61258 -173.764009 
L 393.2876 -173.335099 
L 392.962621 -172.914925 
L 392.637641 -172.503757 
L 392.312662 -172.101867 
L 391.987682 -171.709534 
L 391.662703 -171.327042 
L 391.337723 -170.95468 
L 391.012744 -170.592743 
L 390.687764 -170.241533 
L 390.362785 -169.901357 
L 390.037805 -169.572529 
L 389.712826 -169.255372 
L 389.387846 -168.950213 
L 389.062867 -168.65739 
L 388.737887 -168.377249 
L 388.412907 -168.110143 
L 388.087928 -167.856435 
L 387.762948 -167.616499 
L 387.437969 -167.390718 
L 387.112989 -167.179485 
L 386.78801 -166.983205 
L 386.46303 -166.802294 
L 386.138051 -166.63718 
L 385.813071 -166.488304 
L 385.488092 -166.356117 
L 385.163112 -166.241085 
L 384.838133 -166.143686 
L 384.513153 -166.06441 
L 384.188174 -166.003762 
L 383.863194 -165.962256 
L 383.538215 -165.940419 
L 383.213235 -165.93879 
L 382.888256 -165.957915 
L 382.563276 -165.99835 
L 382.238296 -166.060656 
L 381.913317 -166.145398 
L 381.588337 -166.253142 
L 381.263358 -166.384451 
L 380.938378 -166.539881 
L 380.613399 -166.719978 
L 380.288419 -166.925269 
L 379.96344 -167.156262 
L 379.63846 -167.413433 
L 379.313481 -167.697225 
L 378.988501 -168.008036 
L 378.663522 -168.346216 
L 378.338542 -168.712055 
L 378.013563 -169.10578 
L 377.688583 -169.527543 
L 377.363604 -169.977418 
L 377.038624 -170.455395 
L 376.713645 -170.961372 
L 376.388665 -171.495156 
L 376.063686 -172.056456 
L 375.738706 -172.644887 
L 375.413726 -173.259967 
L 375.088747 -173.901123 
L 374.763767 -174.567691 
L 374.438788 -175.258928 
L 374.113808 -175.97401 
L 373.788829 -176.712047 
L 373.463849 -177.472089 
L 373.13887 -178.253134 
L 372.81389 -179.05414 
L 372.488911 -179.87403 
L 372.163931 -180.711704 
L 371.838952 -181.566047 
L 371.513972 -182.435938 
L 371.188993 -183.320255 
L 370.864013 -184.217881 
L 370.539034 -185.127713 
L 370.214054 -186.048665 
L 369.889075 -186.979671 
L 369.564095 -187.91969 
L 369.239115 -188.867708 
L 368.914136 -189.822741 
L 368.589156 -190.783833 
L 368.264177 -191.750064 
L 367.939197 -192.72054 
L 367.614218 -193.694405 
L 367.289238 -194.670832 
L 366.964259 -195.649026 
L 366.639279 -196.628223 
L 366.3143 -197.607692 
L 365.98932 -198.586727 
L 365.664341 -199.564655 
L 365.339361 -200.54083 
L 365.014382 -201.514631 
L 364.689402 -202.485465 
L 364.364423 -203.452762 
L 364.039443 -204.415978 
L 363.714464 -205.374591 
L 363.389484 -206.328101 
L 363.064505 -207.27603 
L 362.739525 -208.217919 
L 362.414545 -209.153332 
L 362.089566 -210.081849 
L 361.764586 -211.00307 
L 361.439607 -211.916613 
L 361.114627 -212.822111 
L 360.789648 -213.719218 
L 360.464668 -214.607601 
L 360.139689 -215.486945 
L 359.814709 -216.356949 
L 359.48973 -217.217329 
L 359.16475 -218.067816 
L 358.839771 -218.908155 
L 358.514791 -219.738107 
L 358.189812 -220.557447 
L 357.864832 -221.365965 
L 357.539853 -222.163466 
L 357.214873 -222.949768 
L 356.889894 -223.724707 
L 356.564914 -224.488131 
L 356.239934 -225.239904 
L 355.914955 -225.979905 
L 355.589975 -226.708028 
L 355.264996 -227.424186 
L 354.940016 -228.128303 
L 354.615037 -228.820322 
L 354.290057 -229.500204 
L 353.965078 -230.167926 
L 353.640098 -230.823482 
L 353.315119 -231.466885 
L 352.990139 -232.098169 
L 352.66516 -232.717384 
L 352.34018 -233.324604 
L 352.015201 -233.919921 
L 351.690221 -234.50345 
L 351.365242 -235.075331 
L 351.040262 -235.635724 
L 350.715283 -236.184816 
L 350.390303 -236.722819 
L 350.065324 -237.249972 
L 349.740344 -237.76654 
L 349.415364 -238.272818 
L 349.090385 -238.769132 
L 348.765405 -239.255836 
L 348.440426 -239.733319 
L 348.115446 -240.201999 
L 347.790467 -240.662331 
L 347.465487 -241.114802 
L 347.140508 -241.559936 
L 346.815528 -241.998291 
L 346.490549 -242.430461 
L 346.165569 -242.857074 
L 345.84059 -243.278796 
L 345.51561 -243.696324 
L 345.190631 -244.110388 
L 344.865651 -244.52175 
L 344.540672 -244.931197 
L 344.215692 -245.339544 
L 343.890713 -245.747623 
L 343.565733 -246.156283 
L 343.240753 -246.566385 
L 342.915774 -246.978791 
L 342.590794 -247.39436 
L 342.265815 -247.81394 
L 341.940835 -248.238359 
L 341.615856 -248.668419 
L 341.290876 -249.10488 
L 340.965897 -249.54846 
L 340.640917 -249.999821 
L 340.315938 -250.459559 
L 339.990958 -250.928203 
L 339.665979 -251.406202 
L 339.340999 -251.893925 
L 339.01602 -252.391653 
L 338.69104 -252.899579 
L 338.366061 -253.417807 
L 338.041081 -253.946352 
L 337.716102 -254.485142 
L 337.391122 -255.034023 
L 337.066143 -255.592765 
L 336.741163 -256.161062 
L 336.416183 -256.738545 
L 336.091204 -257.324786 
L 335.766224 -257.919306 
L 335.441245 -258.521582 
L 335.116265 -259.131056 
L 334.791286 -259.747139 
L 334.466306 -260.36922 
L 334.141327 -260.996673 
L 333.816347 -261.628859 
L 333.491368 -262.265137 
L 333.166388 -262.904862 
L 332.841409 -263.547393 
L 332.516429 -264.192096 
L 332.19145 -264.838345 
L 331.86647 -265.485527 
L 331.541491 -266.13304 
L 331.216511 -266.7803 
L 330.891532 -267.426737 
L 330.566552 -268.071799 
L 330.241572 -268.714949 
L 329.916593 -269.355671 
L 329.591613 -269.993465 
L 329.266634 -270.62785 
L 328.941654 -271.258362 
L 328.616675 -271.884554 
L 328.291695 -272.505998 
L 327.966716 -273.122282 
L 327.641736 -273.733009 
L 327.316757 -274.3378 
L 326.991777 -274.93629 
L 326.666798 -275.528131 
L 326.341818 -276.112986 
L 326.016839 -276.690535 
L 325.691859 -277.260471 
L 325.36688 -277.822499 
L 325.0419 -278.376337 
L 324.716921 -278.921714 
L 324.391941 -279.458372 
L 324.066962 -279.986064 
L 323.741982 -280.504554 
L 323.417002 -281.013613 
L 323.092023 -281.513028 
L 322.767043 -282.002589 
L 322.442064 -282.482101 
L 322.117084 -282.951374 
L 321.792105 -283.410228 
L 321.467125 -283.858492 
L 321.142146 -284.296002 
L 320.817166 -284.722601 
L 320.492187 -285.138142 
L 320.167207 -285.542482 
L 319.842228 -285.935489 
L 319.517248 -286.317034 
L 319.192269 -286.686997 
L 318.867289 -287.045263 
L 318.54231 -287.391724 
L 318.21733 -287.726278 
L 317.892351 -288.048828 
L 317.567371 -288.359283 
L 317.242391 -288.65756 
L 316.917412 -288.943577 
L 316.592432 -289.21726 
L 316.267453 -289.478539 
L 315.942473 -289.72735 
L 315.617494 -289.963634 
L 315.292514 -290.187334 
L 314.967535 -290.398401 
L 314.642555 -290.596788 
L 314.317576 -290.782454 
L 313.992596 -290.95536 
L 313.667617 -291.115474 
L 313.342637 -291.262766 
L 313.017658 -291.39721 
L 312.692678 -291.518785 
L 312.367699 -291.627472 
L 312.042719 -291.723257 
L 311.71774 -291.80613 
L 311.39276 -291.876082 
L 311.067781 -291.933109 
L 310.742801 -291.977211 
L 310.417821 -292.008389 
L 310.092842 -292.026649 
L 309.767862 -292.032 
L 309.442883 -292.024452 
L 309.117903 -292.00402 
L 308.792924 -291.97072 
L 308.467944 -291.924573 
L 308.142965 -291.865599 
L 307.817985 -291.793825 
L 307.493006 -291.709277 
L 307.168026 -291.611985 
L 306.843047 -291.50198 
L 306.518067 -291.379298 
L 306.193088 -291.243974 
L 305.868108 -291.096048 
L 305.543129 -290.935559 
L 305.218149 -290.762551 
L 304.89317 -290.577068 
L 304.56819 -290.379157 
L 304.24321 -290.168866 
L 303.918231 -289.946245 
L 303.593251 -289.711346 
L 303.268272 -289.464223 
L 302.943292 -289.204931 
L 302.618313 -288.933527 
L 302.293333 -288.650068 
L 301.968354 -288.354615 
L 301.643374 -288.047229 
L 301.318395 -287.727971 
L 300.993415 -287.396907 
L 300.668436 -287.0541 
L 300.343456 -286.699617 
L 300.018477 -286.333526 
L 299.693497 -285.955894 
L 299.368518 -285.566792 
L 299.043538 -285.16629 
L 298.718559 -284.75446 
L 298.393579 -284.331374 
L 298.0686 -283.897107 
L 297.74362 -283.451731 
L 297.41864 -282.995324 
L 297.093661 -282.527961 
L 296.768681 -282.049718 
L 296.443702 -281.560674 
L 296.118722 -281.060907 
L 295.793743 -280.550496 
L 295.468763 -280.029522 
L 295.143784 -279.498064 
L 294.818804 -278.956203 
L 294.493825 -278.404023 
L 294.168845 -277.841604 
L 293.843866 -277.269029 
L 293.518886 -276.686383 
L 293.193907 -276.093749 
L 292.868927 -275.491211 
L 292.543948 -274.878856 
L 292.218968 -274.256767 
L 291.893989 -273.625031 
L 291.569009 -272.983735 
L 291.244029 -272.332965 
L 290.91905 -271.672809 
L 290.59407 -271.003354 
L 290.269091 -270.324688 
L 289.944111 -269.636901 
L 289.619132 -268.94008 
L 289.294152 -268.234316 
L 288.969173 -267.519698 
L 288.644193 -266.796316 
L 288.319214 -266.064261 
L 287.994234 -265.323623 
L 287.669255 -264.574494 
L 287.344275 -263.816966 
L 287.019296 -263.051131 
L 286.694316 -262.277082 
L 286.369337 -261.49491 
L 286.044357 -260.704711 
L 285.719378 -259.906576 
L 285.394398 -259.100601 
L 285.069419 -258.28688 
L 284.744439 -257.465508 
L 284.419459 -256.636581 
L 284.09448 -255.800194 
L 283.7695 -254.956444 
L 283.444521 -254.105427 
L 283.119541 -253.247241 
L 282.794562 -252.381984 
L 282.469582 -251.509753 
L 282.144603 -250.630648 
L 281.819623 -249.744768 
L 281.494644 -248.852213 
L 281.169664 -247.953082 
L 280.844685 -247.047478 
L 280.519705 -246.1355 
L 280.194726 -245.217252 
L 279.869746 -244.292836 
L 279.544767 -243.362355 
L 279.219787 -242.425914 
L 278.894808 -241.483615 
L 278.569828 -240.535565 
L 278.244848 -239.58187 
L 277.919869 -238.622635 
L 277.594889 -237.657967 
L 277.26991 -236.687976 
L 276.94493 -235.712768 
L 276.619951 -234.732454 
L 276.294971 -233.747142 
L 275.969992 -232.756945 
L 275.645012 -231.761972 
L 275.320033 -230.762337 
L 274.995053 -229.758153 
L 274.670074 -228.749532 
L 274.345094 -227.73659 
L 274.020115 -226.719441 
L 273.695135 -225.698202 
L 273.370156 -224.672991 
L 273.045176 -223.643923 
L 272.720197 -222.61112 
L 272.395217 -221.574698 
L 272.070238 -220.53478 
L 271.745258 -219.491486 
L 271.420278 -218.444938 
L 271.095299 -217.395259 
L 270.770319 -216.342573 
L 270.44534 -215.287005 
L 270.12036 -214.228679 
L 269.795381 -213.167724 
L 269.470401 -212.104265 
L 269.145422 -211.038431 
L 268.820442 -209.970351 
L 268.495463 -208.900156 
L 268.170483 -207.827977 
L 267.845504 -206.753944 
L 267.520524 -205.678191 
L 267.195545 -204.600853 
L 266.870565 -203.522062 
L 266.545586 -202.441955 
L 266.220606 -201.360669 
L 265.895627 -200.27834 
L 265.570647 -199.195107 
L 265.245667 -198.111109 
L 264.920688 -197.026486 
L 264.595708 -195.941379 
L 264.270729 -194.855931 
L 263.945749 -193.770283 
L 263.62077 -192.684581 
L 263.29579 -191.598967 
L 262.970811 -190.513588 
L 262.645831 -189.428591 
L 262.320852 -188.344123 
L 261.995872 -187.260331 
L 261.670893 -186.177366 
L 261.345913 -185.095378 
L 261.020934 -184.014516 
L 260.695954 -182.934935 
L 260.370975 -181.856785 
L 260.045995 -180.780222 
L 259.721016 -179.7054 
L 259.396036 -178.632474 
L 259.071057 -177.561602 
L 258.746077 -176.49294 
L 258.421097 -175.426648 
L 258.096118 -174.362885 
L 257.771138 -173.301812 
L 257.446159 -172.24359 
L 257.121179 -171.188382 
L 256.7962 -170.136352 
L 256.47122 -169.087664 
L 256.146241 -168.042484 
L 255.821261 -167.000979 
L 255.496282 -165.963318 
L 255.171302 -164.929669 
L 254.846323 -163.900203 
L 254.521343 -162.875092 
L 254.196364 -161.854509 
L 253.871384 -160.838628 
L 253.546405 -159.827625 
L 253.221425 -158.821678 
L 252.896446 -157.820964 
L 252.571466 -156.825665 
L 252.246486 -155.835961 
L 251.921507 -154.852037 
L 251.596527 -153.874077 
L 251.271548 -152.902268 
L 250.946568 -151.9368 
L 250.621589 -150.977862 
L 250.296609 -150.025647 
L 249.97163 -149.08035 
L 249.64665 -148.142168 
L 249.321671 -147.211299 
L 248.996691 -146.287944 
L 248.671712 -145.372308 
L 248.346732 -144.464595 
L 248.021753 -143.565014 
L 247.696773 -142.673777 
L 247.371794 -141.791095 
L 247.046814 -140.917185 
L 246.721835 -140.052266 
L 246.396855 -139.196558 
L 246.071876 -138.350286 
L 245.746896 -137.513674 
L 245.421916 -136.686952 
L 245.096937 -135.870352 
L 244.771957 -135.064105 
L 244.446978 -134.268449 
L 244.121998 -133.48362 
L 243.797019 -132.709858 
L 243.472039 -131.947403 
L 243.14706 -131.196497 
L 242.82208 -130.457382 
L 242.497101 -129.730302 
L 242.172121 -129.015498 
L 241.847142 -128.313211 
L 241.522162 -127.623681 
L 241.197183 -126.947144 
L 240.872203 -126.283834 
L 240.547224 -125.63398 
L 240.222244 -124.997805 
L 239.897265 -124.375526 
L 239.572285 -123.767351 
L 239.247305 -123.173478 
L 238.922326 -122.594097 
L 238.597346 -122.029384 
L 238.272367 -121.479499 
L 237.947387 -120.94459 
L 237.622408 -120.424787 
L 237.297428 -119.9202 
L 236.972449 -119.430921 
L 236.647469 -118.957019 
L 236.32249 -118.498541 
L 235.99751 -118.055511 
L 235.672531 -117.627927 
L 235.347551 -117.215762 
L 235.022572 -116.818963 
L 234.697592 -116.437451 
L 234.372613 -116.071118 
L 234.047633 -115.719834 
L 233.722654 -115.383441 
L 233.397674 -115.061757 
L 233.072695 -114.754575 
L 232.747715 -114.461667 
L 232.422735 -114.182783 
L 232.097756 -113.917656 
L 231.772776 -113.665999 
L 231.447797 -113.427511 
L 231.122817 -113.20188 
L 230.797838 -112.988778 
L 230.472858 -112.787873 
L 230.147879 -112.598824 
L 229.822899 -112.421286 
L 229.49792 -112.254912 
L 229.17294 -112.099352 
L 228.847961 -111.95426 
L 228.522981 -111.819291 
L 228.198002 -111.694105 
L 227.873022 -111.578369 
L 227.548043 -111.471753 
L 227.223063 -111.37394 
L 226.898084 -111.284617 
L 226.573104 -111.203484 
L 226.248124 -111.13025 
L 225.923145 -111.064635 
L 225.598165 -111.00637 
L 225.273186 -110.955196 
L 224.948206 -110.910869 
L 224.623227 -110.873154 
L 224.298247 -110.841828 
L 223.973268 -110.816681 
L 223.648288 -110.797512 
L 223.323309 -110.784135 
L 222.998329 -110.776372 
L 222.67335 -110.774058 
L 222.34837 -110.777037 
L 222.023391 -110.785167 
L 221.698411 -110.798312 
L 221.373432 -110.816349 
L 221.048452 -110.839163 
L 220.723473 -110.86665 
L 220.398493 -110.898714 
L 220.073514 -110.935268 
L 219.748534 -110.976233 
L 219.423554 -111.02154 
L 219.098575 -111.071127 
L 218.773595 -111.124939 
L 218.448616 -111.18293 
L 218.123636 -111.245061 
L 217.798657 -111.311299 
L 217.473677 -111.381619 
L 217.148698 -111.456002 
L 216.823718 -111.534437 
L 216.498739 -111.616917 
L 216.173759 -111.703443 
L 215.84878 -111.794021 
L 215.5238 -111.888663 
L 215.198821 -111.987387 
L 214.873841 -112.090218 
L 214.548862 -112.197183 
L 214.223882 -112.308317 
L 213.898903 -112.423661 
L 213.573923 -112.543258 
L 213.248943 -112.667159 
L 212.923964 -112.795418 
L 212.598984 -112.928097 
L 212.274005 -113.065258 
L 211.949025 -113.206972 
L 211.624046 -113.353312 
L 211.299066 -113.504357 
L 210.974087 -113.660191 
L 210.649107 -113.820901 
L 210.324128 -113.986578 
L 209.999148 -114.157318 
L 209.674169 -114.333222 
L 209.349189 -114.514394 
L 209.02421 -114.700941 
L 208.69923 -114.892975 
L 208.374251 -115.090611 
L 208.049271 -115.293968 
L 207.724292 -115.503168 
L 207.399312 -115.718334 
L 207.074333 -115.939595 
L 206.749353 -116.167081 
L 206.424373 -116.400924 
L 206.099394 -116.641259 
L 205.774414 -116.88822 
L 205.449435 -117.141947 
L 205.124455 -117.402577 
L 204.799476 -117.67025 
L 204.474496 -117.945104 
L 204.149517 -118.22728 
L 203.824537 -118.516914 
L 203.499558 -118.814146 
L 203.174578 -119.119109 
L 202.849599 -119.431939 
L 202.524619 -119.752765 
L 202.19964 -120.081715 
L 201.87466 -120.418913 
L 201.549681 -120.764477 
L 201.224701 -121.118522 
L 200.899722 -121.481156 
L 200.574742 -121.85248 
L 200.249762 -122.232591 
L 199.924783 -122.621574 
L 199.599803 -123.01951 
L 199.274824 -123.426469 
L 198.949844 -123.842512 
L 198.624865 -124.26769 
L 198.299885 -124.702045 
L 197.974906 -125.145606 
L 197.649926 -125.598393 
L 197.324947 -126.060412 
L 196.999967 -126.53166 
L 196.674988 -127.012118 
L 196.350008 -127.501758 
L 196.025029 -128.000538 
L 195.700049 -128.508402 
L 195.37507 -129.025284 
L 195.05009 -129.551101 
L 194.725111 -130.085761 
L 194.400131 -130.629157 
L 194.075152 -131.181172 
L 193.750172 -131.741673 
L 193.425192 -132.310517 
L 193.100213 -132.88755 
L 192.775233 -133.472606 
L 192.450254 -134.065505 
L 192.125274 -134.666061 
L 191.800295 -135.274075 
L 191.475315 -135.889339 
L 191.150336 -136.511634 
L 190.825356 -137.140735 
L 190.500377 -137.776407 
L 190.175397 -138.418408 
L 189.850418 -139.066487 
L 189.525438 -139.720388 
L 189.200459 -140.379849 
L 188.875479 -141.0446 
L 188.5505 -141.714368 
L 188.22552 -142.388874 
L 187.900541 -143.067836 
L 187.575561 -143.750967 
L 187.250581 -144.437976 
L 186.925602 -145.128571 
L 186.600622 -145.822457 
L 186.275643 -146.519336 
L 185.950663 -147.218909 
L 185.625684 -147.920875 
L 185.300704 -148.624933 
L 184.975725 -149.330781 
L 184.650745 -150.038117 
L 184.325766 -150.746638 
L 184.000786 -151.456043 
L 183.675807 -152.166031 
L 183.350827 -152.876301 
L 183.025848 -153.586554 
L 182.700868 -154.296492 
L 182.375889 -155.00582 
L 182.050909 -155.714243 
L 181.72593 -156.42147 
L 181.40095 -157.127211 
L 181.075971 -157.831179 
L 180.750991 -158.533091 
L 180.426011 -159.232664 
L 180.101032 -159.929621 
L 179.776052 -160.623687 
L 179.451073 -161.314591 
L 179.126093 -162.002066 
L 178.801114 -162.685848 
L 178.476134 -163.365678 
L 178.151155 -164.041301 
L 177.826175 -164.712466 
L 177.501196 -165.378927 
L 177.176216 -166.040443 
L 176.851237 -166.696777 
L 176.526257 -167.347698 
L 176.201278 -167.99298 
L 175.876298 -168.632403 
L 175.551319 -169.265753 
L 175.226339 -169.89282 
L 174.90136 -170.513401 
L 174.57638 -171.1273 
L 174.2514 -171.734327 
L 173.926421 -172.334299 
L 173.601441 -172.927039 
L 173.276462 -173.512377 
L 172.951482 -174.090152 
L 172.626503 -174.66021 
L 172.301523 -175.222403 
L 171.976544 -175.776593 
L 171.651564 -176.32265 
L 171.326585 -176.860453 
L 171.001605 -177.389888 
L 170.676626 -177.910854 
L 170.351646 -178.423255 
L 170.026667 -178.927008 
L 169.701687 -179.422041 
L 169.376708 -179.908289 
L 169.051728 -180.385703 
L 168.726749 -180.85424 
L 168.401769 -181.313874 
L 168.07679 -181.764588 
L 167.75181 -182.206381 
L 167.42683 -182.639261 
L 167.101851 -183.063255 
L 166.776871 -183.478402 
L 166.451892 -183.884755 
L 166.126912 -184.282387 
L 165.801933 -184.671383 
L 165.476953 -185.051848 
L 165.151974 -185.423904 
L 164.826994 -185.787694 
L 164.502015 -186.143377 
L 164.177035 -186.491135 
L 163.852056 -186.831172 
L 163.527076 -187.163711 
L 163.202097 -187.489003 
L 162.877117 -187.807319 
L 162.552138 -188.118957 
L 162.227158 -188.424242 
L 161.902179 -188.723525 
L 161.577199 -189.017185 
L 161.252219 -189.305629 
L 160.92724 -189.589296 
L 160.60226 -189.868654 
L 160.277281 -190.144201 
L 159.952301 -190.416469 
L 159.627322 -190.686018 
L 159.302342 -190.953443 
L 158.977363 -191.219368 
L 158.652383 -191.484448 
L 158.327404 -191.749368 
L 158.002424 -192.01484 
L 157.677445 -192.281604 
L 157.352465 -192.55042 
L 157.027486 -192.822073 
L 156.702506 -193.097359 
L 156.377527 -193.377091 
L 156.052547 -193.662086 
L 155.727568 -193.953164 
L 155.402588 -194.251139 
L 155.077609 -194.556813 
L 154.752629 -194.870971 
L 154.427649 -195.19437 
L 154.10267 -195.527733 
L 153.77769 -195.871741 
L 153.452711 -196.227027 
L 153.127731 -196.594168 
L 152.802752 -196.973678 
L 152.477772 -197.366004 
L 152.152793 -197.771522 
L 151.827813 -198.190532 
L 151.502834 -198.623257 
L 151.177854 -199.069842 
L 150.852875 -199.530355 
L 150.527895 -200.004788 
L 150.202916 -200.49306 
L 149.877936 -200.995022 
L 149.552957 -201.51046 
L 149.227977 -202.039101 
L 148.902998 -202.58062 
L 148.578018 -203.134642 
L 148.253038 -203.700754 
L 147.928059 -204.278507 
L 147.603079 -204.867422 
L 147.2781 -205.466999 
L 146.95312 -206.076717 
L 146.628141 -206.696046 
L 146.303161 -207.324444 
L 145.978182 -207.961367 
L 145.653202 -208.606269 
L 145.328223 -209.258607 
L 145.003243 -209.917841 
L 144.678264 -210.58344 
L 144.353284 -211.254881 
L 144.028305 -211.931652 
L 143.703325 -212.613252 
L 143.378346 -213.299193 
L 143.053366 -213.988998 
L 142.728387 -214.682208 
L 142.403407 -215.378373 
L 142.078428 -216.077061 
L 141.753448 -216.777852 
L 141.428468 -217.48034 
L 141.103489 -218.184134 
L 140.778509 -218.888855 
L 140.45353 -219.594139 
L 140.12855 -220.299633 
L 139.803571 -221.004999 
L 139.478591 -221.709909 
L 139.153612 -222.414049 
L 138.828632 -223.117114 
L 138.503653 -223.818813 
L 138.178673 -224.518863 
L 137.853694 -225.216993 
L 137.528714 -225.912942 
L 137.203735 -226.606458 
L 136.878755 -227.297298 
L 136.553776 -227.985228 
L 136.228796 -228.670025 
L 135.903817 -229.35147 
L 135.578837 -230.029357 
L 135.253857 -230.703483 
L 134.928878 -231.373656 
L 134.603898 -232.039689 
L 134.278919 -232.701403 
L 133.953939 -233.358627 
L 133.62896 -234.011194 
L 133.30398 -234.658945 
L 132.979001 -235.301727 
L 132.654021 -235.939393 
L 132.329042 -236.571803 
L 132.004062 -237.198819 
L 131.679083 -237.820312 
L 131.354103 -238.436158 
L 131.029124 -239.046238 
L 130.704144 -239.650436 
L 130.379165 -240.248644 
L 130.054185 -240.840757 
L 129.729206 -241.426676 
L 129.404226 -242.006306 
L 129.079247 -242.579556 
L 128.754267 -243.146341 
L 128.429287 -243.70658 
L 128.104308 -244.260194 
L 127.779328 -244.807111 
L 127.454349 -245.347263 
L 127.129369 -245.880585 
L 126.80439 -246.407015 
L 126.47941 -246.926498 
L 126.154431 -247.438979 
L 125.829451 -247.94441 
L 125.504472 -248.442745 
L 125.179492 -248.933943 
L 124.854513 -249.417965 
L 124.529533 -249.894776 
L 124.204554 -250.364346 
L 123.879574 -250.826645 
L 123.554595 -251.28165 
L 123.229615 -251.72934 
L 122.904636 -252.169696 
L 122.579656 -252.602703 
L 122.254676 -253.02835 
L 121.929697 -253.446629 
L 121.604717 -253.857532 
L 121.279738 -254.261059 
L 120.954758 -254.657209 
L 120.629779 -255.045984 
L 120.304799 -255.427392 
L 119.97982 -255.801441 
L 119.65484 -256.168142 
L 119.329861 -256.527508 
L 119.004881 -256.879558 
L 118.679902 -257.224309 
L 118.354922 -257.561784 
L 118.029943 -257.892007 
L 117.704963 -258.215003 
L 117.379984 -258.530803 
L 117.055004 -258.839437 
L 116.730025 -259.140938 
L 116.405045 -259.435342 
L 116.080066 -259.722687 
L 115.755086 -260.003013 
L 115.430106 -260.27636 
L 115.105127 -260.542774 
L 114.780147 -260.8023 
L 114.455168 -261.054985 
L 114.130188 -261.300879 
L 113.805209 -261.540033 
L 113.480229 -261.7725 
L 113.15525 -261.998335 
L 112.83027 -262.217593 
L 112.505291 -262.430334 
L 112.180311 -262.636615 
L 111.855332 -262.836498 
L 111.530352 -263.030045 
L 111.205373 -263.21732 
L 110.880393 -263.398387 
L 110.555414 -263.573313 
L 110.230434 -263.742165 
L 109.905455 -263.905011 
L 109.580475 -264.061922 
L 109.255495 -264.212968 
L 108.930516 -264.35822 
L 108.605536 -264.497752 
L 108.280557 -264.631637 
L 107.955577 -264.75995 
L 107.630598 -264.882765 
L 107.305618 -265.00016 
L 106.980639 -265.11221 
L 106.655659 -265.218993 
L 106.33068 -265.320588 
L 106.0057 -265.417073 
L 105.680721 -265.508527 
L 105.355741 -265.59503 
L 105.030762 -265.676663 
L 104.705782 -265.753505 
L 104.380803 -265.825637 
L 104.055823 -265.893142 
L 103.730844 -265.956099 
L 103.405864 -266.014592 
L 103.080885 -266.068702 
L 102.755905 -266.11851 
L 102.430925 -266.1641 
L 102.105946 -266.205553 
L 101.780966 -266.242952 
L 101.455987 -266.276378 
L 101.131007 -266.305914 
L 100.806028 -266.331642 
L 100.481048 -266.353643 
L 100.156069 -266.372 
L 99.831089 -266.386794 
L 99.50611 -266.398106 
L 99.18113 -266.406018 
L 98.856151 -266.410609 
L 98.531171 -266.41196 
L 98.206192 -266.410151 
L 97.881212 -266.405263 
L 97.556233 -266.397373 
L 97.231253 -266.38656 
L 96.906274 -266.372903 
L 96.581294 -266.356479 
L 96.256314 -266.337365 
L 95.931335 -266.315638 
L 95.606355 -266.291373 
L 95.281376 -266.264647 
L 94.956396 -266.235532 
L 94.631417 -266.204104 
L 94.306437 -266.170435 
L 93.981458 -266.134598 
L 93.656478 -266.096664 
L 93.331499 -266.056705 
L 93.006519 -266.01479 
L 92.68154 -265.97099 
L 92.35656 -265.925372 
L 92.031581 -265.878004 
L 91.706601 -265.828953 
L 91.381622 -265.778285 
L 91.056642 -265.726065 
L 90.731663 -265.672357 
L 90.406683 -265.617225 
L 90.081704 -265.56073 
L 89.756724 -265.502935 
L 89.431744 -265.443899 
L 89.106765 -265.383682 
L 88.781785 -265.322343 
L 88.456806 -265.259939 
L 88.131826 -265.196526 
L 87.806847 -265.132161 
L 87.481867 -265.066897 
L 87.156888 -265.000789 
L 86.831908 -264.933889 
L 86.506929 -264.866249 
L 86.181949 -264.797918 
L 85.85697 -264.728947 
L 85.53199 -264.659385 
L 85.207011 -264.589278 
L 84.882031 -264.518673 
L 84.557052 -264.447615 
L 84.232072 -264.37615 
L 83.907093 -264.30432 
L 83.582113 -264.232168 
L 83.257133 -264.159735 
L 82.932154 -264.087062 
L 82.607174 -264.014188 
L 82.282195 -263.941152 
L 81.957215 -263.867991 
L 81.632236 -263.794741 
L 81.307256 -263.721437 
L 80.982277 -263.648115 
L 80.657297 -263.574808 
L 80.332318 -263.501548 
L 80.007338 -263.428366 
L 79.682359 -263.355295 
L 79.357379 -263.282362 
L 79.0324 -263.209597 
L 78.70742 -263.137028 
L 78.382441 -263.064681 
L 78.057461 -262.992583 
L 77.732482 -262.920759 
L 77.407502 -262.849232 
L 77.082523 -262.778027 
L 76.757543 -262.707166 
L 76.432563 -262.636671 
L 76.107584 -262.566562 
L 75.782604 -262.496859 
L 75.457625 -262.427582 
L 75.132645 -262.358749 
L 74.807666 -262.290377 
L 74.482686 -262.222484 
L 74.157707 -262.155085 
L 73.832727 -262.088196 
z
" style="stroke: #ff7f0e; stroke-opacity: 0.25"/>
    </defs>
    <g clip-path="url(#p9ba89c437b)">
     <use xlink:href="#m6e700f98d0" x="0" y="345.6" style="fill: #ff7f0e; fill-opacity: 0.25; stroke: #ff7f0e; stroke-opacity: 0.25"/>
    </g>
   </g>
   <g id="matplotlib.axis_1">
    <g id="xtick_1">
     <g id="line2d_1">
      <defs>
       <path id="m61faca50ad" d="M 0 0 
L 0 3.5 
" style="stroke: #000000; stroke-width: 0.8"/>
      </defs>
      <g>
       <use xlink:href="#m61faca50ad" x="73.832727" y="307.584" style="stroke: #000000; stroke-width: 0.8"/>
      </g>
     </g>
     <g id="text_1">
      <!-- 0 -->
      <g transform="translate(70.651477 322.182437)scale(0.1 -0.1)">
       <defs>
        <path id="DejaVuSans-30" d="M 2034 4250 
Q 1547 4250 1301 3770 
Q 1056 3291 1056 2328 
Q 1056 1369 1301 889 
Q 1547 409 2034 409 
Q 2525 409 2770 889 
Q 3016 1369 3016 2328 
Q 3016 3291 2770 3770 
Q 2525 4250 2034 4250 
z
M 2034 4750 
Q 2819 4750 3233 4129 
Q 3647 3509 3647 2328 
Q 3647 1150 3233 529 
Q 2819 -91 2034 -91 
Q 1250 -91 836 529 
Q 422 1150 422 2328 
Q 422 3509 836 4129 
Q 1250 4750 2034 4750 
z
" transform="scale(0.015625)"/>
       </defs>
       <use xlink:href="#DejaVuSans-30"/>
      </g>
     </g>
    </g>
    <g id="xtick_2">
     <g id="line2d_2">
      <g>
       <use xlink:href="#m61faca50ad" x="138.763636" y="307.584" style="stroke: #000000; stroke-width: 0.8"/>
      </g>
     </g>
     <g id="text_2">
      <!-- 2 -->
      <g transform="translate(135.582386 322.182437)scale(0.1 -0.1)">
       <defs>
        <path id="DejaVuSans-32" d="M 1228 531 
L 3431 531 
L 3431 0 
L 469 0 
L 469 531 
Q 828 903 1448 1529 
Q 2069 2156 2228 2338 
Q 2531 2678 2651 2914 
Q 2772 3150 2772 3378 
Q 2772 3750 2511 3984 
Q 2250 4219 1831 4219 
Q 1534 4219 1204 4116 
Q 875 4013 500 3803 
L 500 4441 
Q 881 4594 1212 4672 
Q 1544 4750 1819 4750 
Q 2544 4750 2975 4387 
Q 3406 4025 3406 3419 
Q 3406 3131 3298 2873 
Q 3191 2616 2906 2266 
Q 2828 2175 2409 1742 
Q 1991 1309 1228 531 
z
" transform="scale(0.015625)"/>
       </defs>
       <use xlink:href="#DejaVuSans-32"/>
      </g>
     </g>
    </g>
    <g id="xtick_3">
     <g id="line2d_3">
      <g>
       <use xlink:href="#m61faca50ad" x="203.694545" y="307.584" style="stroke: #000000; stroke-width: 0.8"/>
      </g>
     </g>
     <g id="text_3">
      <!-- 4 -->
      <g transform="translate(200.513295 322.182437)scale(0.1 -0.1)">
       <defs>
        <path id="DejaVuSans-34" d="M 2419 4116 
L 825 1625 
L 2419 1625 
L 2419 4116 
z
M 2253 4666 
L 3047 4666 
L 3047 1625 
L 3713 1625 
L 3713 1100 
L 3047 1100 
L 3047 0 
L 2419 0 
L 2419 1100 
L 313 1100 
L 313 1709 
L 2253 4666 
z
" transform="scale(0.015625)"/>
       </defs>
       <use xlink:href="#DejaVuSans-34"/>
      </g>
     </g>
    </g>
    <g id="xtick_4">
     <g id="line2d_4">
      <g>
       <use xlink:href="#m61faca50ad" x="268.625455" y="307.584" style="stroke: #000000; stroke-width: 0.8"/>
      </g>
     </g>
     <g id="text_4">
      <!-- 6 -->
      <g transform="translate(265.444205 322.182437)scale(0.1 -0.1)">
       <defs>
        <path id="DejaVuSans-36" d="M 2113 2584 
Q 1688 2584 1439 2293 
Q 1191 2003 1191 1497 
Q 1191 994 1439 701 
Q 1688 409 2113 409 
Q 2538 409 2786 701 
Q 3034 994 3034 1497 
Q 3034 2003 2786 2293 
Q 2538 2584 2113 2584 
z
M 3366 4563 
L 3366 3988 
Q 3128 4100 2886 4159 
Q 2644 4219 2406 4219 
Q 1781 4219 1451 3797 
Q 1122 3375 1075 2522 
Q 1259 2794 1537 2939 
Q 1816 3084 2150 3084 
Q 2853 3084 3261 2657 
Q 3669 2231 3669 1497 
Q 3669 778 3244 343 
Q 2819 -91 2113 -91 
Q 1303 -91 875 529 
Q 447 1150 447 2328 
Q 447 3434 972 4092 
Q 1497 4750 2381 4750 
Q 2619 4750 2861 4703 
Q 3103 4656 3366 4563 
z
" transform="scale(0.015625)"/>
       </defs>
       <use xlink:href="#DejaVuSans-36"/>
      </g>
     </g>
    </g>
    <g id="xtick_5">
     <g id="line2d_5">
      <g>
       <use xlink:href="#m61faca50ad" x="333.556364" y="307.584" style="stroke: #000000; stroke-width: 0.8"/>
      </g>
     </g>
     <g id="text_5">
      <!-- 8 -->
      <g transform="translate(330.375114 322.182437)scale(0.1 -0.1)">
       <defs>
        <path id="DejaVuSans-38" d="M 2034 2216 
Q 1584 2216 1326 1975 
Q 1069 1734 1069 1313 
Q 1069 891 1326 650 
Q 1584 409 2034 409 
Q 2484 409 2743 651 
Q 3003 894 3003 1313 
Q 3003 1734 2745 1975 
Q 2488 2216 2034 2216 
z
M 1403 2484 
Q 997 2584 770 2862 
Q 544 3141 544 3541 
Q 544 4100 942 4425 
Q 1341 4750 2034 4750 
Q 2731 4750 3128 4425 
Q 3525 4100 3525 3541 
Q 3525 3141 3298 2862 
Q 3072 2584 2669 2484 
Q 3125 2378 3379 2068 
Q 3634 1759 3634 1313 
Q 3634 634 3220 271 
Q 2806 -91 2034 -91 
Q 1263 -91 848 271 
Q 434 634 434 1313 
Q 434 1759 690 2068 
Q 947 2378 1403 2484 
z
M 1172 3481 
Q 1172 3119 1398 2916 
Q 1625 2713 2034 2713 
Q 2441 2713 2670 2916 
Q 2900 3119 2900 3481 
Q 2900 3844 2670 4047 
Q 2441 4250 2034 4250 
Q 1625 4250 1398 4047 
Q 1172 3844 1172 3481 
z
" transform="scale(0.015625)"/>
       </defs>
       <use xlink:href="#DejaVuSans-38"/>
      </g>
     </g>
    </g>
    <g id="xtick_6">
     <g id="line2d_6">
      <g>
       <use xlink:href="#m61faca50ad" x="398.487273" y="307.584" style="stroke: #000000; stroke-width: 0.8"/>
      </g>
     </g>
     <g id="text_6">
      <!-- 10 -->
      <g transform="translate(392.124773 322.182437)scale(0.1 -0.1)">
       <defs>
        <path id="DejaVuSans-31" d="M 794 531 
L 1825 531 
L 1825 4091 
L 703 3866 
L 703 4441 
L 1819 4666 
L 2450 4666 
L 2450 531 
L 3481 531 
L 3481 0 
L 794 0 
L 794 531 
z
" transform="scale(0.015625)"/>
       </defs>
       <use xlink:href="#DejaVuSans-31"/>
       <use xlink:href="#DejaVuSans-30" x="63.623047"/>
      </g>
     </g>
    </g>
    <g id="text_7">
     <!-- $x$ -->
     <g transform="translate(233.16 335.860562)scale(0.1 -0.1)">
      <defs>
       <path id="DejaVuSans-Oblique-78" d="M 3841 3500 
L 2234 1784 
L 3219 0 
L 2559 0 
L 1819 1388 
L 531 0 
L -166 0 
L 1556 1844 
L 641 3500 
L 1300 3500 
L 1972 2234 
L 3144 3500 
L 3841 3500 
z
" transform="scale(0.015625)"/>
      </defs>
      <use xlink:href="#DejaVuSans-Oblique-78" transform="translate(0 0.3125)"/>
     </g>
    </g>
   </g>
   <g id="matplotlib.axis_2">
    <g id="ytick_1">
     <g id="line2d_7">
      <defs>
       <path id="m7fe65cb1b0" d="M 0 0 
L -3.5 0 
" style="stroke: #000000; stroke-width: 0.8"/>
      </defs>
      <g>
       <use xlink:href="#m7fe65cb1b0" x="57.6" y="287.60778" style="stroke: #000000; stroke-width: 0.8"/>
      </g>
     </g>
     <g id="text_8">
      <!-- 7.5 -->
      <g transform="translate(26.317187 291.406999)scale(0.1 -0.1)">
       <defs>
        <path id="DejaVuSans-2212" d="M 678 2272 
L 4684 2272 
L 4684 1741 
L 678 1741 
L 678 2272 
z
" transform="scale(0.015625)"/>
        <path id="DejaVuSans-37" d="M 525 4666 
L 3525 4666 
L 3525 4397 
L 1831 0 
L 1172 0 
L 2766 4134 
L 525 4134 
L 525 4666 
z
" transform="scale(0.015625)"/>
        <path id="DejaVuSans-2e" d="M 684 794 
L 1344 794 
L 1344 0 
L 684 0 
L 684 794 
z
" transform="scale(0.015625)"/>
        <path id="DejaVuSans-35" d="M 691 4666 
L 3169 4666 
L 3169 4134 
L 1269 4134 
L 1269 2991 
Q 1406 3038 1543 3061 
Q 1681 3084 1819 3084 
Q 2600 3084 3056 2656 
Q 3513 2228 3513 1497 
Q 3513 744 3044 326 
Q 2575 -91 1722 -91 
Q 1428 -91 1123 -41 
Q 819 9 494 109 
L 494 744 
Q 775 591 1075 516 
Q 1375 441 1709 441 
Q 2250 441 2565 725 
Q 2881 1009 2881 1497 
Q 2881 1984 2565 2268 
Q 2250 2553 1709 2553 
Q 1456 2553 1204 2497 
Q 953 2441 691 2322 
L 691 4666 
z
" transform="scale(0.015625)"/>
       </defs>
       <use xlink:href="#DejaVuSans-2212"/>
       <use xlink:href="#DejaVuSans-37" x="83.789062"/>
       <use xlink:href="#DejaVuSans-2e" x="147.412109"/>
       <use xlink:href="#DejaVuSans-35" x="179.199219"/>
      </g>
     </g>
    </g>
    <g id="ytick_2">
     <g id="line2d_8">
      <g>
       <use xlink:href="#m7fe65cb1b0" x="57.6" y="256.459331" style="stroke: #000000; stroke-width: 0.8"/>
      </g>
     </g>
     <g id="text_9">
      <!-- 5.0 -->
      <g transform="translate(26.317187 260.25855)scale(0.1 -0.1)">
       <use xlink:href="#DejaVuSans-2212"/>
       <use xlink:href="#DejaVuSans-35" x="83.789062"/>
       <use xlink:href="#DejaVuSans-2e" x="147.412109"/>
       <use xlink:href="#DejaVuSans-30" x="179.199219"/>
      </g>
     </g>
    </g>
    <g id="ytick_3">
     <g id="line2d_9">
      <g>
       <use xlink:href="#m7fe65cb1b0" x="57.6" y="225.310882" style="stroke: #000000; stroke-width: 0.8"/>
      </g>
     </g>
     <g id="text_10">
      <!-- 2.5 -->
      <g transform="translate(26.317187 229.110101)scale(0.1 -0.1)">
       <use xlink:href="#DejaVuSans-2212"/>
       <use xlink:href="#DejaVuSans-32" x="83.789062"/>
       <use xlink:href="#DejaVuSans-2e" x="147.412109"/>
       <use xlink:href="#DejaVuSans-35" x="179.199219"/>
      </g>
     </g>
    </g>
    <g id="ytick_4">
     <g id="line2d_10">
      <g>
       <use xlink:href="#m7fe65cb1b0" x="57.6" y="194.162433" style="stroke: #000000; stroke-width: 0.8"/>
      </g>
     </g>
     <g id="text_11">
      <!-- 0.0 -->
      <g transform="translate(34.696875 197.961652)scale(0.1 -0.1)">
       <use xlink:href="#DejaVuSans-30"/>
       <use xlink:href="#DejaVuSans-2e" x="63.623047"/>
       <use xlink:href="#DejaVuSans-30" x="95.410156"/>
      </g>
     </g>
    </g>
    <g id="ytick_5">
     <g id="line2d_11">
      <g>
       <use xlink:href="#m7fe65cb1b0" x="57.6" y="163.013984" style="stroke: #000000; stroke-width: 0.8"/>
      </g>
     </g>
     <g id="text_12">
      <!-- 2.5 -->
      <g transform="translate(34.696875 166.813203)scale(0.1 -0.1)">
       <use xlink:href="#DejaVuSans-32"/>
       <use xlink:href="#DejaVuSans-2e" x="63.623047"/>
       <use xlink:href="#DejaVuSans-35" x="95.410156"/>
      </g>
     </g>
    </g>
    <g id="ytick_6">
     <g id="line2d_12">
      <g>
       <use xlink:href="#m7fe65cb1b0" x="57.6" y="131.865535" style="stroke: #000000; stroke-width: 0.8"/>
      </g>
     </g>
     <g id="text_13">
      <!-- 5.0 -->
      <g transform="translate(34.696875 135.664754)scale(0.1 -0.1)">
       <use xlink:href="#DejaVuSans-35"/>
       <use xlink:href="#DejaVuSans-2e" x="63.623047"/>
       <use xlink:href="#DejaVuSans-30" x="95.410156"/>
      </g>
     </g>
    </g>
    <g id="ytick_7">
     <g id="line2d_13">
      <g>
       <use xlink:href="#m7fe65cb1b0" x="57.6" y="100.717086" style="stroke: #000000; stroke-width: 0.8"/>
      </g>
     </g>
     <g id="text_14">
      <!-- 7.5 -->
      <g transform="translate(34.696875 104.516305)scale(0.1 -0.1)">
       <use xlink:href="#DejaVuSans-37"/>
       <use xlink:href="#DejaVuSans-2e" x="63.623047"/>
       <use xlink:href="#DejaVuSans-35" x="95.410156"/>
      </g>
     </g>
    </g>
    <g id="ytick_8">
     <g id="line2d_14">
      <g>
       <use xlink:href="#m7fe65cb1b0" x="57.6" y="69.568637" style="stroke: #000000; stroke-width: 0.8"/>
      </g>
     </g>
     <g id="text_15">
      <!-- 10.0 -->
      <g transform="translate(28.334375 73.367856)scale(0.1 -0.1)">
       <use xlink:href="#DejaVuSans-31"/>
       <use xlink:href="#DejaVuSans-30" x="63.623047"/>
       <use xlink:href="#DejaVuSans-2e" x="127.246094"/>
       <use xlink:href="#DejaVuSans-30" x="159.033203"/>
      </g>
     </g>
    </g>
    <g id="text_16">
     <!-- $y$ -->
     <g transform="translate(20.217188 177.528)rotate(-90)scale(0.1 -0.1)">
      <defs>
       <path id="DejaVuSans-Oblique-79" d="M 1588 -325 
Q 1188 -997 936 -1164 
Q 684 -1331 294 -1331 
L -159 -1331 
L -63 -850 
L 269 -850 
Q 509 -850 678 -719 
Q 847 -588 1056 -206 
L 1234 128 
L 459 3500 
L 1069 3500 
L 1650 819 
L 3256 3500 
L 3859 3500 
L 1588 -325 
z
" transform="scale(0.015625)"/>
      </defs>
      <use xlink:href="#DejaVuSans-Oblique-79" transform="translate(0 0.3125)"/>
     </g>
    </g>
   </g>
   <g id="line2d_15">
    <path d="M 73.832727 189.499902 
L 78.057461 188.197094 
L 81.957215 186.770559 
L 85.85697 185.11781 
L 89.756724 183.235757 
L 93.981458 180.946378 
L 98.531171 178.218241 
L 104.055823 174.62172 
L 118.354922 165.138142 
L 121.929697 163.11216 
L 124.854513 161.679286 
L 127.454349 160.61863 
L 130.054185 159.794328 
L 132.329042 159.293049 
L 134.603898 159.019038 
L 136.878755 158.991525 
L 138.828632 159.177183 
L 140.778509 159.5659 
L 142.728387 160.16548 
L 144.678264 160.982038 
L 146.628141 162.019855 
L 148.578018 163.281259 
L 150.852875 165.035742 
L 153.127731 167.091641 
L 155.402588 169.44175 
L 158.002424 172.473272 
L 160.60226 175.851256 
L 163.527076 180.028714 
L 166.776871 185.078521 
L 170.676626 191.592625 
L 175.876298 200.781625 
L 186.275643 219.298416 
L 190.175397 225.743496 
L 193.425192 230.718528 
L 196.350008 234.816951 
L 198.949844 238.116099 
L 201.549681 241.060777 
L 203.824537 243.327808 
L 206.099394 245.292961 
L 208.374251 246.947391 
L 210.324128 248.113893 
L 212.274005 249.046402 
L 214.223882 249.744967 
L 216.173759 250.21118 
L 218.123636 250.448061 
L 220.073514 250.459927 
L 222.023391 250.25225 
L 223.973268 249.831501 
L 225.923145 249.204996 
L 228.198002 248.224719 
L 230.472858 246.988856 
L 232.747715 245.511579 
L 235.347551 243.546183 
L 237.947387 241.305775 
L 240.872203 238.482422 
L 244.121998 235.00165 
L 247.371794 231.1921 
L 250.946568 226.656762 
L 254.846323 221.332693 
L 259.071057 215.155351 
L 263.29579 208.576606 
L 267.845504 201.060958 
L 272.395217 193.113453 
L 277.26991 184.143659 
L 282.794562 173.473662 
L 289.619132 159.764479 
L 300.018477 138.849075 
L 304.24321 130.877904 
L 307.493006 125.175565 
L 310.417821 120.470735 
L 313.017658 116.702816 
L 315.292514 113.776199 
L 317.567371 111.23699 
L 319.517248 109.397447 
L 321.467125 107.892094 
L 323.092023 106.907282 
L 324.716921 106.178526 
L 326.341818 105.714668 
L 327.966716 105.523082 
L 329.266634 105.569789 
L 330.566552 105.796662 
L 332.19145 106.335748 
L 333.816347 107.159722 
L 335.441245 108.267848 
L 337.066143 109.657438 
L 338.69104 111.323838 
L 340.640917 113.679437 
L 342.590794 116.408852 
L 344.540672 119.493021 
L 346.815528 123.508981 
L 349.415364 128.597398 
L 352.34018 134.870953 
L 355.589975 142.387893 
L 359.814709 152.744202 
L 371.188993 180.980216 
L 374.763767 189.110956 
L 377.688583 195.258319 
L 380.288419 200.270384 
L 382.888256 204.810104 
L 385.163112 208.368598 
L 387.437969 211.525025 
L 389.712826 214.271126 
L 391.662703 216.296791 
L 393.61258 218.021978 
L 395.562457 219.452187 
L 397.512334 220.595739 
L 398.487273 221.063324 
L 398.487273 221.063324 
" clip-path="url(#p9ba89c437b)" style="fill: none; stroke: #ff7f0e; stroke-width: 1.5; stroke-linecap: square"/>
   </g>
   <g id="line2d_16">
    <path d="M 73.832727 194.162433 
L 76.757543 194.061447 
L 80.007338 193.714461 
L 83.257133 193.127185 
L 86.506929 192.311432 
L 90.081704 191.170032 
L 93.981458 189.665646 
L 98.206192 187.781324 
L 103.405864 185.19571 
L 120.954758 176.206884 
L 124.854513 174.581632 
L 128.429287 173.338403 
L 131.679083 172.45482 
L 134.603898 171.889155 
L 137.528714 171.564038 
L 140.12855 171.49301 
L 142.728387 171.63975 
L 145.328223 172.014463 
L 147.928059 172.625357 
L 150.527895 173.478522 
L 153.127731 174.577826 
L 155.727568 175.924834 
L 158.327404 177.518739 
L 160.92724 179.356318 
L 163.852056 181.707714 
L 166.776871 184.348518 
L 170.026667 187.603032 
L 173.276462 191.16852 
L 176.851237 195.410786 
L 181.075971 200.789007 
L 186.275643 207.813408 
L 196.025029 221.492388 
L 202.19964 229.923689 
L 206.424373 235.329795 
L 209.999148 239.558909 
L 213.248943 243.058045 
L 216.173759 245.876832 
L 218.773595 248.086107 
L 221.373432 249.988936 
L 223.648288 251.383065 
L 225.923145 252.5083 
L 227.873022 253.248067 
L 229.822899 253.771859 
L 231.772776 254.0724 
L 233.722654 254.143255 
L 235.672531 253.978862 
L 237.622408 253.574577 
L 239.572285 252.926709 
L 241.522162 252.03255 
L 243.472039 250.890406 
L 245.421916 249.499617 
L 247.371794 247.860579 
L 249.64665 245.636627 
L 251.921507 243.081013 
L 254.196364 240.199946 
L 256.7962 236.519422 
L 259.396036 232.440102 
L 262.320852 227.397781 
L 265.245667 221.906504 
L 268.495463 215.323599 
L 272.070238 207.564021 
L 276.294971 197.809019 
L 281.169664 185.965249 
L 289.619132 164.72142 
L 296.443702 147.796723 
L 300.993415 137.085124 
L 304.56819 129.182943 
L 307.817985 122.501314 
L 310.742801 116.970463 
L 313.342637 112.488373 
L 315.942473 108.456532 
L 318.21733 105.327501 
L 320.492187 102.595252 
L 322.442064 100.585564 
L 324.391941 98.895802 
L 326.341818 97.53738 
L 327.966716 96.665909 
L 329.591613 96.036985 
L 331.216511 95.655306 
L 332.841409 95.524946 
L 334.466306 95.649339 
L 336.091204 96.031261 
L 337.716102 96.672817 
L 339.340999 97.575427 
L 340.965897 98.739814 
L 342.590794 100.165995 
L 344.215692 101.853275 
L 346.165569 104.220623 
L 348.115446 106.958067 
L 350.065324 110.060294 
L 352.34018 114.131434 
L 354.615037 118.67638 
L 357.214873 124.430003 
L 359.814709 130.753065 
L 362.739525 138.506244 
L 365.664341 146.885518 
L 368.914136 156.857497 
L 372.488911 168.526145 
L 376.713645 183.084547 
L 382.238296 202.998088 
L 397.512334 258.580537 
L 398.487273 261.944089 
L 398.487273 261.944089 
" clip-path="url(#p9ba89c437b)" style="fill: none; stroke: #1f77b4; stroke-width: 1.5; stroke-linecap: square"/>
   </g>
   <g id="LineCollection_1">
    <path d="M 238.597346 250.387226 
L 238.597346 231.698156 
" clip-path="url(#p9ba89c437b)" style="fill: none; stroke: #000000; stroke-width: 1.5"/>
    <path d="M 339.665979 117.924662 
L 339.665979 99.235592 
" clip-path="url(#p9ba89c437b)" style="fill: none; stroke: #000000; stroke-width: 1.5"/>
    <path d="M 220.723473 260.547765 
L 220.723473 241.858696 
" clip-path="url(#p9ba89c437b)" style="fill: none; stroke: #000000; stroke-width: 1.5"/>
    <path d="M 193.425192 241.300741 
L 193.425192 222.611672 
" clip-path="url(#p9ba89c437b)" style="fill: none; stroke: #000000; stroke-width: 1.5"/>
    <path d="M 152.477772 174.175074 
L 152.477772 155.486005 
" clip-path="url(#p9ba89c437b)" style="fill: none; stroke: #000000; stroke-width: 1.5"/>
    <path d="M 375.738706 202.804483 
L 375.738706 184.115413 
" clip-path="url(#p9ba89c437b)" style="fill: none; stroke: #000000; stroke-width: 1.5"/>
   </g>
   <g id="line2d_17">
    <defs>
     <path id="m40984baf0e" d="M 0 3.75 
C 0.994512 3.75 1.948425 3.354876 2.65165 2.65165 
C 3.354876 1.948425 3.75 0.994512 3.75 0 
C 3.75 -0.994512 3.354876 -1.948425 2.65165 -2.65165 
C 1.948425 -3.354876 0.994512 -3.75 0 -3.75 
C -0.994512 -3.75 -1.948425 -3.354876 -2.65165 -2.65165 
C -3.354876 -1.948425 -3.75 -0.994512 -3.75 0 
C -3.75 0.994512 -3.354876 1.948425 -2.65165 2.65165 
C -1.948425 3.354876 -0.994512 3.75 0 3.75 
z
" style="stroke: #000000"/>
    </defs>
    <g clip-path="url(#p9ba89c437b)">
     <use xlink:href="#m40984baf0e" x="238.597346" y="241.042691" style="stroke: #000000"/>
     <use xlink:href="#m40984baf0e" x="339.665979" y="108.580127" style="stroke: #000000"/>
     <use xlink:href="#m40984baf0e" x="220.723473" y="251.203231" style="stroke: #000000"/>
     <use xlink:href="#m40984baf0e" x="193.425192" y="231.956207" style="stroke: #000000"/>
     <use xlink:href="#m40984baf0e" x="152.477772" y="164.830539" style="stroke: #000000"/>
     <use xlink:href="#m40984baf0e" x="375.738706" y="193.459948" style="stroke: #000000"/>
    </g>
   </g>
   <g id="patch_3">
    <path d="M 57.6 307.584 
L 57.6 41.472 
" style="fill: none; stroke: #000000; stroke-width: 0.8; stroke-linejoin: miter; stroke-linecap: square"/>
   </g>
   <g id="patch_4">
    <path d="M 414.72 307.584 
L 414.72 41.472 
" style="fill: none; stroke: #000000; stroke-width: 0.8; stroke-linejoin: miter; stroke-linecap: square"/>
   </g>
   <g id="patch_5">
    <path d="M 57.6 307.584 
L 414.72 307.584 
" style="fill: none; stroke: #000000; stroke-width: 0.8; stroke-linejoin: miter; stroke-linecap: square"/>
   </g>
   <g id="patch_6">
    <path d="M 57.6 41.472 
L 414.72 41.472 
" style="fill: none; stroke: #000000; stroke-width: 0.8; stroke-linejoin: miter; stroke-linecap: square"/>
   </g>
   <g id="legend_1">
    <g id="patch_7">
     <path d="M 64.6 108.206375 
L 219.707813 108.206375 
Q 221.707813 108.206375 221.707813 106.206375 
L 221.707813 48.472 
Q 221.707813 46.472 219.707813 46.472 
L 64.6 46.472 
Q 62.6 46.472 62.6 48.472 
L 62.6 106.206375 
Q 62.6 108.206375 64.6 108.206375 
z
" style="fill: #ffffff; opacity: 0.8; stroke: #cccccc; stroke-linejoin: miter"/>
    </g>
    <g id="line2d_18">
     <path d="M 66.6 54.570438 
L 76.6 54.570438 
L 86.6 54.570438 
" style="fill: none; stroke: #ff7f0e; stroke-width: 1.5; stroke-linecap: square"/>
    </g>
    <g id="text_17">
     <!-- Mean Prediction -->
     <g transform="translate(94.6 58.070438)scale(0.1 -0.1)">
      <defs>
       <path id="DejaVuSans-4d" d="M 628 4666 
L 1569 4666 
L 2759 1491 
L 3956 4666 
L 4897 4666 
L 4897 0 
L 4281 0 
L 4281 4097 
L 3078 897 
L 2444 897 
L 1241 4097 
L 1241 0 
L 628 0 
L 628 4666 
z
" transform="scale(0.015625)"/>
       <path id="DejaVuSans-65" d="M 3597 1894 
L 3597 1613 
L 953 1613 
Q 991 1019 1311 708 
Q 1631 397 2203 397 
Q 2534 397 2845 478 
Q 3156 559 3463 722 
L 3463 178 
Q 3153 47 2828 -22 
Q 2503 -91 2169 -91 
Q 1331 -91 842 396 
Q 353 884 353 1716 
Q 353 2575 817 3079 
Q 1281 3584 2069 3584 
Q 2775 3584 3186 3129 
Q 3597 2675 3597 1894 
z
M 3022 2063 
Q 3016 2534 2758 2815 
Q 2500 3097 2075 3097 
Q 1594 3097 1305 2825 
Q 1016 2553 972 2059 
L 3022 2063 
z
" transform="scale(0.015625)"/>
       <path id="DejaVuSans-61" d="M 2194 1759 
Q 1497 1759 1228 1600 
Q 959 1441 959 1056 
Q 959 750 1161 570 
Q 1363 391 1709 391 
Q 2188 391 2477 730 
Q 2766 1069 2766 1631 
L 2766 1759 
L 2194 1759 
z
M 3341 1997 
L 3341 0 
L 2766 0 
L 2766 531 
Q 2569 213 2275 61 
Q 1981 -91 1556 -91 
Q 1019 -91 701 211 
Q 384 513 384 1019 
Q 384 1609 779 1909 
Q 1175 2209 1959 2209 
L 2766 2209 
L 2766 2266 
Q 2766 2663 2505 2880 
Q 2244 3097 1772 3097 
Q 1472 3097 1187 3025 
Q 903 2953 641 2809 
L 641 3341 
Q 956 3463 1253 3523 
Q 1550 3584 1831 3584 
Q 2591 3584 2966 3190 
Q 3341 2797 3341 1997 
z
" transform="scale(0.015625)"/>
       <path id="DejaVuSans-6e" d="M 3513 2113 
L 3513 0 
L 2938 0 
L 2938 2094 
Q 2938 2591 2744 2837 
Q 2550 3084 2163 3084 
Q 1697 3084 1428 2787 
Q 1159 2491 1159 1978 
L 1159 0 
L 581 0 
L 581 3500 
L 1159 3500 
L 1159 2956 
Q 1366 3272 1645 3428 
Q 1925 3584 2291 3584 
Q 2894 3584 3203 3211 
Q 3513 2838 3513 2113 
z
" transform="scale(0.015625)"/>
       <path id="DejaVuSans-20" transform="scale(0.015625)"/>
       <path id="DejaVuSans-50" d="M 1259 4147 
L 1259 2394 
L 2053 2394 
Q 2494 2394 2734 2622 
Q 2975 2850 2975 3272 
Q 2975 3691 2734 3919 
Q 2494 4147 2053 4147 
L 1259 4147 
z
M 628 4666 
L 2053 4666 
Q 2838 4666 3239 4311 
Q 3641 3956 3641 3272 
Q 3641 2581 3239 2228 
Q 2838 1875 2053 1875 
L 1259 1875 
L 1259 0 
L 628 0 
L 628 4666 
z
" transform="scale(0.015625)"/>
       <path id="DejaVuSans-72" d="M 2631 2963 
Q 2534 3019 2420 3045 
Q 2306 3072 2169 3072 
Q 1681 3072 1420 2755 
Q 1159 2438 1159 1844 
L 1159 0 
L 581 0 
L 581 3500 
L 1159 3500 
L 1159 2956 
Q 1341 3275 1631 3429 
Q 1922 3584 2338 3584 
Q 2397 3584 2469 3576 
Q 2541 3569 2628 3553 
L 2631 2963 
z
" transform="scale(0.015625)"/>
       <path id="DejaVuSans-64" d="M 2906 2969 
L 2906 4863 
L 3481 4863 
L 3481 0 
L 2906 0 
L 2906 525 
Q 2725 213 2448 61 
Q 2172 -91 1784 -91 
Q 1150 -91 751 415 
Q 353 922 353 1747 
Q 353 2572 751 3078 
Q 1150 3584 1784 3584 
Q 2172 3584 2448 3432 
Q 2725 3281 2906 2969 
z
M 947 1747 
Q 947 1113 1208 752 
Q 1469 391 1925 391 
Q 2381 391 2643 752 
Q 2906 1113 2906 1747 
Q 2906 2381 2643 2742 
Q 2381 3103 1925 3103 
Q 1469 3103 1208 2742 
Q 947 2381 947 1747 
z
" transform="scale(0.015625)"/>
       <path id="DejaVuSans-69" d="M 603 3500 
L 1178 3500 
L 1178 0 
L 603 0 
L 603 3500 
z
M 603 4863 
L 1178 4863 
L 1178 4134 
L 603 4134 
L 603 4863 
z
" transform="scale(0.015625)"/>
       <path id="DejaVuSans-63" d="M 3122 3366 
L 3122 2828 
Q 2878 2963 2633 3030 
Q 2388 3097 2138 3097 
Q 1578 3097 1268 2742 
Q 959 2388 959 1747 
Q 959 1106 1268 751 
Q 1578 397 2138 397 
Q 2388 397 2633 464 
Q 2878 531 3122 666 
L 3122 134 
Q 2881 22 2623 -34 
Q 2366 -91 2075 -91 
Q 1284 -91 818 406 
Q 353 903 353 1747 
Q 353 2603 823 3093 
Q 1294 3584 2113 3584 
Q 2378 3584 2631 3529 
Q 2884 3475 3122 3366 
z
" transform="scale(0.015625)"/>
       <path id="DejaVuSans-74" d="M 1172 4494 
L 1172 3500 
L 2356 3500 
L 2356 3053 
L 1172 3053 
L 1172 1153 
Q 1172 725 1289 603 
Q 1406 481 1766 481 
L 2356 481 
L 2356 0 
L 1766 0 
Q 1100 0 847 248 
Q 594 497 594 1153 
L 594 3053 
L 172 3053 
L 172 3500 
L 594 3500 
L 594 4494 
L 1172 4494 
z
" transform="scale(0.015625)"/>
       <path id="DejaVuSans-6f" d="M 1959 3097 
Q 1497 3097 1228 2736 
Q 959 2375 959 1747 
Q 959 1119 1226 758 
Q 1494 397 1959 397 
Q 2419 397 2687 759 
Q 2956 1122 2956 1747 
Q 2956 2369 2687 2733 
Q 2419 3097 1959 3097 
z
M 1959 3584 
Q 2709 3584 3137 3096 
Q 3566 2609 3566 1747 
Q 3566 888 3137 398 
Q 2709 -91 1959 -91 
Q 1206 -91 779 398 
Q 353 888 353 1747 
Q 353 2609 779 3096 
Q 1206 3584 1959 3584 
z
" transform="scale(0.015625)"/>
      </defs>
      <use xlink:href="#DejaVuSans-4d"/>
      <use xlink:href="#DejaVuSans-65" x="86.279297"/>
      <use xlink:href="#DejaVuSans-61" x="147.802734"/>
      <use xlink:href="#DejaVuSans-6e" x="209.082031"/>
      <use xlink:href="#DejaVuSans-20" x="272.460938"/>
      <use xlink:href="#DejaVuSans-50" x="304.248047"/>
      <use xlink:href="#DejaVuSans-72" x="362.800781"/>
      <use xlink:href="#DejaVuSans-65" x="401.664062"/>
      <use xlink:href="#DejaVuSans-64" x="463.1875"/>
      <use xlink:href="#DejaVuSans-69" x="526.664062"/>
      <use xlink:href="#DejaVuSans-63" x="554.447266"/>
      <use xlink:href="#DejaVuSans-74" x="609.427734"/>
      <use xlink:href="#DejaVuSans-69" x="648.636719"/>
      <use xlink:href="#DejaVuSans-6f" x="676.419922"/>
      <use xlink:href="#DejaVuSans-6e" x="737.601562"/>
     </g>
    </g>
    <g id="line2d_19">
     <path d="M 66.6 69.250125 
L 76.6 69.250125 
L 86.6 69.250125 
" style="fill: none; stroke: #1f77b4; stroke-width: 1.5; stroke-linecap: square"/>
    </g>
    <g id="text_18">
     <!-- $y = x\sin x$ -->
     <g transform="translate(94.6 72.750125)scale(0.1 -0.1)">
      <defs>
       <path id="DejaVuSans-3d" d="M 678 2906 
L 4684 2906 
L 4684 2381 
L 678 2381 
L 678 2906 
z
M 678 1631 
L 4684 1631 
L 4684 1100 
L 678 1100 
L 678 1631 
z
" transform="scale(0.015625)"/>
       <path id="DejaVuSans-73" d="M 2834 3397 
L 2834 2853 
Q 2591 2978 2328 3040 
Q 2066 3103 1784 3103 
Q 1356 3103 1142 2972 
Q 928 2841 928 2578 
Q 928 2378 1081 2264 
Q 1234 2150 1697 2047 
L 1894 2003 
Q 2506 1872 2764 1633 
Q 3022 1394 3022 966 
Q 3022 478 2636 193 
Q 2250 -91 1575 -91 
Q 1294 -91 989 -36 
Q 684 19 347 128 
L 347 722 
Q 666 556 975 473 
Q 1284 391 1588 391 
Q 1994 391 2212 530 
Q 2431 669 2431 922 
Q 2431 1156 2273 1281 
Q 2116 1406 1581 1522 
L 1381 1569 
Q 847 1681 609 1914 
Q 372 2147 372 2553 
Q 372 3047 722 3315 
Q 1072 3584 1716 3584 
Q 2034 3584 2315 3537 
Q 2597 3491 2834 3397 
z
" transform="scale(0.015625)"/>
      </defs>
      <use xlink:href="#DejaVuSans-Oblique-79" transform="translate(0 0.015625)"/>
      <use xlink:href="#DejaVuSans-3d" transform="translate(78.662109 0.015625)"/>
      <use xlink:href="#DejaVuSans-Oblique-78" transform="translate(181.933594 0.015625)"/>
      <use xlink:href="#DejaVuSans-73" transform="translate(241.113281 0.015625)"/>
      <use xlink:href="#DejaVuSans-69" transform="translate(293.212891 0.015625)"/>
      <use xlink:href="#DejaVuSans-6e" transform="translate(320.996094 0.015625)"/>
      <use xlink:href="#DejaVuSans-Oblique-78" transform="translate(400.610676 0.015625)"/>
     </g>
    </g>
    <g id="patch_8">
     <path d="M 66.6 87.448563 
L 86.6 87.448563 
L 86.6 80.448563 
L 66.6 80.448563 
z
" style="fill: #ff7f0e; fill-opacity: 0.25; stroke: #ff7f0e; stroke-opacity: 0.25; stroke-linejoin: miter"/>
    </g>
    <g id="text_19">
     <!-- 95% Confidence Interval -->
     <g transform="translate(94.6 87.448563)scale(0.1 -0.1)">
      <defs>
       <path id="DejaVuSans-39" d="M 703 97 
L 703 672 
Q 941 559 1184 500 
Q 1428 441 1663 441 
Q 2288 441 2617 861 
Q 2947 1281 2994 2138 
Q 2813 1869 2534 1725 
Q 2256 1581 1919 1581 
Q 1219 1581 811 2004 
Q 403 2428 403 3163 
Q 403 3881 828 4315 
Q 1253 4750 1959 4750 
Q 2769 4750 3195 4129 
Q 3622 3509 3622 2328 
Q 3622 1225 3098 567 
Q 2575 -91 1691 -91 
Q 1453 -91 1209 -44 
Q 966 3 703 97 
z
M 1959 2075 
Q 2384 2075 2632 2365 
Q 2881 2656 2881 3163 
Q 2881 3666 2632 3958 
Q 2384 4250 1959 4250 
Q 1534 4250 1286 3958 
Q 1038 3666 1038 3163 
Q 1038 2656 1286 2365 
Q 1534 2075 1959 2075 
z
" transform="scale(0.015625)"/>
       <path id="DejaVuSans-25" d="M 4653 2053 
Q 4381 2053 4226 1822 
Q 4072 1591 4072 1178 
Q 4072 772 4226 539 
Q 4381 306 4653 306 
Q 4919 306 5073 539 
Q 5228 772 5228 1178 
Q 5228 1588 5073 1820 
Q 4919 2053 4653 2053 
z
M 4653 2450 
Q 5147 2450 5437 2106 
Q 5728 1763 5728 1178 
Q 5728 594 5436 251 
Q 5144 -91 4653 -91 
Q 4153 -91 3862 251 
Q 3572 594 3572 1178 
Q 3572 1766 3864 2108 
Q 4156 2450 4653 2450 
z
M 1428 4353 
Q 1159 4353 1004 4120 
Q 850 3888 850 3481 
Q 850 3069 1003 2837 
Q 1156 2606 1428 2606 
Q 1700 2606 1854 2837 
Q 2009 3069 2009 3481 
Q 2009 3884 1853 4118 
Q 1697 4353 1428 4353 
z
M 4250 4750 
L 4750 4750 
L 1831 -91 
L 1331 -91 
L 4250 4750 
z
M 1428 4750 
Q 1922 4750 2215 4408 
Q 2509 4066 2509 3481 
Q 2509 2891 2217 2550 
Q 1925 2209 1428 2209 
Q 931 2209 642 2551 
Q 353 2894 353 3481 
Q 353 4063 643 4406 
Q 934 4750 1428 4750 
z
" transform="scale(0.015625)"/>
       <path id="DejaVuSans-43" d="M 4122 4306 
L 4122 3641 
Q 3803 3938 3442 4084 
Q 3081 4231 2675 4231 
Q 1875 4231 1450 3742 
Q 1025 3253 1025 2328 
Q 1025 1406 1450 917 
Q 1875 428 2675 428 
Q 3081 428 3442 575 
Q 3803 722 4122 1019 
L 4122 359 
Q 3791 134 3420 21 
Q 3050 -91 2638 -91 
Q 1578 -91 968 557 
Q 359 1206 359 2328 
Q 359 3453 968 4101 
Q 1578 4750 2638 4750 
Q 3056 4750 3426 4639 
Q 3797 4528 4122 4306 
z
" transform="scale(0.015625)"/>
       <path id="DejaVuSans-66" d="M 2375 4863 
L 2375 4384 
L 1825 4384 
Q 1516 4384 1395 4259 
Q 1275 4134 1275 3809 
L 1275 3500 
L 2222 3500 
L 2222 3053 
L 1275 3053 
L 1275 0 
L 697 0 
L 697 3053 
L 147 3053 
L 147 3500 
L 697 3500 
L 697 3744 
Q 697 4328 969 4595 
Q 1241 4863 1831 4863 
L 2375 4863 
z
" transform="scale(0.015625)"/>
       <path id="DejaVuSans-49" d="M 628 4666 
L 1259 4666 
L 1259 0 
L 628 0 
L 628 4666 
z
" transform="scale(0.015625)"/>
       <path id="DejaVuSans-76" d="M 191 3500 
L 800 3500 
L 1894 563 
L 2988 3500 
L 3597 3500 
L 2284 0 
L 1503 0 
L 191 3500 
z
" transform="scale(0.015625)"/>
       <path id="DejaVuSans-6c" d="M 603 4863 
L 1178 4863 
L 1178 0 
L 603 0 
L 603 4863 
z
" transform="scale(0.015625)"/>
      </defs>
      <use xlink:href="#DejaVuSans-39"/>
      <use xlink:href="#DejaVuSans-35" x="63.623047"/>
      <use xlink:href="#DejaVuSans-25" x="127.246094"/>
      <use xlink:href="#DejaVuSans-20" x="222.265625"/>
      <use xlink:href="#DejaVuSans-43" x="254.052734"/>
      <use xlink:href="#DejaVuSans-6f" x="323.876953"/>
      <use xlink:href="#DejaVuSans-6e" x="385.058594"/>
      <use xlink:href="#DejaVuSans-66" x="448.4375"/>
      <use xlink:href="#DejaVuSans-69" x="483.642578"/>
      <use xlink:href="#DejaVuSans-64" x="511.425781"/>
      <use xlink:href="#DejaVuSans-65" x="574.902344"/>
      <use xlink:href="#DejaVuSans-6e" x="636.425781"/>
      <use xlink:href="#DejaVuSans-63" x="699.804688"/>
      <use xlink:href="#DejaVuSans-65" x="754.785156"/>
      <use xlink:href="#DejaVuSans-20" x="816.308594"/>
      <use xlink:href="#DejaVuSans-49" x="848.095703"/>
      <use xlink:href="#DejaVuSans-6e" x="877.587891"/>
      <use xlink:href="#DejaVuSans-74" x="940.966797"/>
      <use xlink:href="#DejaVuSans-65" x="980.175781"/>
      <use xlink:href="#DejaVuSans-72" x="1041.699219"/>
      <use xlink:href="#DejaVuSans-76" x="1082.8125"/>
      <use xlink:href="#DejaVuSans-61" x="1141.992188"/>
      <use xlink:href="#DejaVuSans-6c" x="1203.271484"/>
     </g>
    </g>
    <g id="LineCollection_2">
     <path d="M 76.6 103.626688 
L 76.6 93.626688 
" style="fill: none; stroke: #000000; stroke-width: 1.5"/>
    </g>
    <g id="line2d_20"/>
    <g id="line2d_21">
     <g>
      <use xlink:href="#m40984baf0e" x="76.6" y="98.626688" style="stroke: #000000"/>
     </g>
    </g>
    <g id="text_20">
     <!-- Observation -->
     <g transform="translate(94.6 102.126688)scale(0.1 -0.1)">
      <defs>
       <path id="DejaVuSans-4f" d="M 2522 4238 
Q 1834 4238 1429 3725 
Q 1025 3213 1025 2328 
Q 1025 1447 1429 934 
Q 1834 422 2522 422 
Q 3209 422 3611 934 
Q 4013 1447 4013 2328 
Q 4013 3213 3611 3725 
Q 3209 4238 2522 4238 
z
M 2522 4750 
Q 3503 4750 4090 4092 
Q 4678 3434 4678 2328 
Q 4678 1225 4090 567 
Q 3503 -91 2522 -91 
Q 1538 -91 948 565 
Q 359 1222 359 2328 
Q 359 3434 948 4092 
Q 1538 4750 2522 4750 
z
" transform="scale(0.015625)"/>
       <path id="DejaVuSans-62" d="M 3116 1747 
Q 3116 2381 2855 2742 
Q 2594 3103 2138 3103 
Q 1681 3103 1420 2742 
Q 1159 2381 1159 1747 
Q 1159 1113 1420 752 
Q 1681 391 2138 391 
Q 2594 391 2855 752 
Q 3116 1113 3116 1747 
z
M 1159 2969 
Q 1341 3281 1617 3432 
Q 1894 3584 2278 3584 
Q 2916 3584 3314 3078 
Q 3713 2572 3713 1747 
Q 3713 922 3314 415 
Q 2916 -91 2278 -91 
Q 1894 -91 1617 61 
Q 1341 213 1159 525 
L 1159 0 
L 581 0 
L 581 4863 
L 1159 4863 
L 1159 2969 
z
" transform="scale(0.015625)"/>
      </defs>
      <use xlink:href="#DejaVuSans-4f"/>
      <use xlink:href="#DejaVuSans-62" x="78.710938"/>
      <use xlink:href="#DejaVuSans-73" x="142.1875"/>
      <use xlink:href="#DejaVuSans-65" x="194.287109"/>
      <use xlink:href="#DejaVuSans-72" x="255.810547"/>
      <use xlink:href="#DejaVuSans-76" x="296.923828"/>
      <use xlink:href="#DejaVuSans-61" x="356.103516"/>
      <use xlink:href="#DejaVuSans-74" x="417.382812"/>
      <use xlink:href="#DejaVuSans-69" x="456.591797"/>
      <use xlink:href="#DejaVuSans-6f" x="484.375"/>
      <use xlink:href="#DejaVuSans-6e" x="545.556641"/>
     </g>
    </g>
   </g>
  </g>
 </g>
 <defs>
  <clipPath id="p9ba89c437b">
   <rect x="57.6" y="41.472" width="357.12" height="266.112"/>
  </clipPath>
 </defs>
</svg>
