<?xml version="1.0" encoding="utf-8" standalone="no"?>
<!DOCTYPE svg PUBLIC "-//W3C//DTD SVG 1.1//EN"
  "http://www.w3.org/Graphics/SVG/1.1/DTD/svg11.dtd">
<svg xmlns:xlink="http://www.w3.org/1999/xlink" width="460.8pt" height="345.6pt" viewBox="0 0 460.8 345.6" xmlns="http://www.w3.org/2000/svg" version="1.1">
 <metadata>
  <rdf:RDF xmlns:dc="http://purl.org/dc/elements/1.1/" xmlns:cc="http://creativecommons.org/ns#" xmlns:rdf="http://www.w3.org/1999/02/22-rdf-syntax-ns#">
   <cc:Work>
    <dc:type rdf:resource="http://purl.org/dc/dcmitype/StillImage"/>
    <dc:date>2023-05-31T11:48:55.158073</dc:date>
    <dc:format>image/svg+xml</dc:format>
    <dc:creator>
     <cc:Agent>
      <dc:title>Matplotlib v3.5.2, https://matplotlib.org/</dc:title>
     </cc:Agent>
    </dc:creator>
   </cc:Work>
  </rdf:RDF>
 </metadata>
 <defs>
  <style type="text/css">*{stroke-linejoin: round; stroke-linecap: butt}</style>
 </defs>
 <g id="figure_1">
  <g id="patch_1">
   <path d="M 0 345.6 
L 460.8 345.6 
L 460.8 0 
L 0 0 
z
" style="fill: #ffffff"/>
  </g>
  <g id="axes_1">
   <g id="patch_2">
    <path d="M 57.6 307.584 
L 414.72 307.584 
L 414.72 41.472 
L 57.6 41.472 
z
" style="fill: #ffffff"/>
   </g>
   <g id="PolyCollection_1">
    <defs>
     <path id="mf16b4ad7d6" d="M 73.832727 -261.30421 
L 73.832727 -50.112 
L 74.157707 -50.24085 
L 74.482686 -50.372121 
L 74.807666 -50.505852 
L 75.132645 -50.642079 
L 75.457625 -50.780841 
L 75.782604 -50.922176 
L 76.107584 -51.066123 
L 76.432563 -51.212723 
L 76.757543 -51.362013 
L 77.082523 -51.514034 
L 77.407502 -51.668826 
L 77.732482 -51.826431 
L 78.057461 -51.986887 
L 78.382441 -52.150238 
L 78.70742 -52.316524 
L 79.0324 -52.485787 
L 79.357379 -52.658069 
L 79.682359 -52.833412 
L 80.007338 -53.01186 
L 80.332318 -53.193455 
L 80.657297 -53.378239 
L 80.982277 -53.566257 
L 81.307256 -53.757552 
L 81.632236 -53.952167 
L 81.957215 -54.150147 
L 82.282195 -54.351536 
L 82.607174 -54.556378 
L 82.932154 -54.764718 
L 83.257133 -54.9766 
L 83.582113 -55.192069 
L 83.907093 -55.41117 
L 84.232072 -55.633947 
L 84.557052 -55.860447 
L 84.882031 -56.090713 
L 85.207011 -56.324792 
L 85.53199 -56.562728 
L 85.85697 -56.804567 
L 86.181949 -57.050353 
L 86.506929 -57.300132 
L 86.831908 -57.55395 
L 87.156888 -57.81185 
L 87.481867 -58.073878 
L 87.806847 -58.340079 
L 88.131826 -58.610498 
L 88.456806 -58.885179 
L 88.781785 -59.164166 
L 89.106765 -59.447503 
L 89.431744 -59.735235 
L 89.756724 -60.027406 
L 90.081704 -60.324057 
L 90.406683 -60.625233 
L 90.731663 -60.930976 
L 91.056642 -61.241329 
L 91.381622 -61.556333 
L 91.706601 -61.876031 
L 92.031581 -62.200462 
L 92.35656 -62.529669 
L 92.68154 -62.86369 
L 93.006519 -63.202565 
L 93.331499 -63.546334 
L 93.656478 -63.895035 
L 93.981458 -64.248705 
L 94.306437 -64.607382 
L 94.631417 -64.971101 
L 94.956396 -65.3399 
L 95.281376 -65.713812 
L 95.606355 -66.092872 
L 95.931335 -66.477113 
L 96.256314 -66.866567 
L 96.581294 -67.261266 
L 96.906274 -67.661241 
L 97.231253 -68.06652 
L 97.556233 -68.477133 
L 97.881212 -68.893108 
L 98.206192 -69.31447 
L 98.531171 -69.741246 
L 98.856151 -70.173459 
L 99.18113 -70.611132 
L 99.50611 -71.054287 
L 99.831089 -71.502946 
L 100.156069 -71.957126 
L 100.481048 -72.416847 
L 100.806028 -72.882124 
L 101.131007 -73.352972 
L 101.455987 -73.829407 
L 101.780966 -74.311439 
L 102.105946 -74.799079 
L 102.430925 -75.292337 
L 102.755905 -75.791221 
L 103.080885 -76.295735 
L 103.405864 -76.805886 
L 103.730844 -77.321674 
L 104.055823 -77.843101 
L 104.380803 -78.370166 
L 104.705782 -78.902866 
L 105.030762 -79.441197 
L 105.355741 -79.985153 
L 105.680721 -80.534724 
L 106.0057 -81.0899 
L 106.33068 -81.65067 
L 106.655659 -82.217019 
L 106.980639 -82.78893 
L 107.305618 -83.366385 
L 107.630598 -83.949364 
L 107.955577 -84.537843 
L 108.280557 -85.131797 
L 108.605536 -85.7312 
L 108.930516 -86.336022 
L 109.255495 -86.946232 
L 109.580475 -87.561794 
L 109.905455 -88.182673 
L 110.230434 -88.808831 
L 110.555414 -89.440225 
L 110.880393 -90.076813 
L 111.205373 -90.718547 
L 111.530352 -91.365381 
L 111.855332 -92.017262 
L 112.180311 -92.674137 
L 112.505291 -93.33595 
L 112.83027 -94.002643 
L 113.15525 -94.674153 
L 113.480229 -95.350416 
L 113.805209 -96.031367 
L 114.130188 -96.716936 
L 114.455168 -97.40705 
L 114.780147 -98.101636 
L 115.105127 -98.800615 
L 115.430106 -99.503907 
L 115.755086 -100.21143 
L 116.080066 -100.923097 
L 116.405045 -101.63882 
L 116.730025 -102.358507 
L 117.055004 -103.082064 
L 117.379984 -103.809394 
L 117.704963 -104.540398 
L 118.029943 -105.274971 
L 118.354922 -106.013009 
L 118.679902 -106.754402 
L 119.004881 -107.49904 
L 119.329861 -108.246807 
L 119.65484 -108.997586 
L 119.97982 -109.751257 
L 120.304799 -110.507697 
L 120.629779 -111.266779 
L 120.954758 -112.028374 
L 121.279738 -112.79235 
L 121.604717 -113.558572 
L 121.929697 -114.326901 
L 122.254676 -115.097197 
L 122.579656 -115.869315 
L 122.904636 -116.643109 
L 123.229615 -117.418428 
L 123.554595 -118.195119 
L 123.879574 -118.973026 
L 124.204554 -119.75199 
L 124.529533 -120.531849 
L 124.854513 -121.312437 
L 125.179492 -122.093587 
L 125.504472 -122.875127 
L 125.829451 -123.656883 
L 126.154431 -124.438678 
L 126.47941 -125.220331 
L 126.80439 -126.001658 
L 127.129369 -126.782474 
L 127.454349 -127.562588 
L 127.779328 -128.341808 
L 128.104308 -129.119938 
L 128.429287 -129.896779 
L 128.754267 -130.672128 
L 129.079247 -131.44578 
L 129.404226 -132.217527 
L 129.729206 -132.987155 
L 130.054185 -133.754451 
L 130.379165 -134.519195 
L 130.704144 -135.281166 
L 131.029124 -136.040138 
L 131.354103 -136.795881 
L 131.679083 -137.548165 
L 132.004062 -138.296752 
L 132.329042 -139.041402 
L 132.654021 -139.781873 
L 132.979001 -140.517916 
L 133.30398 -141.249281 
L 133.62896 -141.975711 
L 133.953939 -142.696949 
L 134.278919 -143.412728 
L 134.603898 -144.122782 
L 134.928878 -144.826838 
L 135.253857 -145.524617 
L 135.578837 -146.215838 
L 135.903817 -146.900214 
L 136.228796 -147.57745 
L 136.553776 -148.24725 
L 136.878755 -148.90931 
L 137.203735 -149.563319 
L 137.528714 -150.208963 
L 137.853694 -150.845918 
L 138.178673 -151.473856 
L 138.503653 -152.092442 
L 138.828632 -152.701333 
L 139.153612 -153.300177 
L 139.478591 -153.888617 
L 139.803571 -154.466286 
L 140.12855 -155.032809 
L 140.45353 -155.587803 
L 140.778509 -156.130874 
L 141.103489 -156.661622 
L 141.428468 -157.179632 
L 141.753448 -157.684485 
L 142.078428 -158.175748 
L 142.403407 -158.652978 
L 142.728387 -159.115724 
L 143.053366 -159.563523 
L 143.378346 -159.9959 
L 143.703325 -160.412374 
L 144.028305 -160.812449 
L 144.353284 -161.195625 
L 144.678264 -161.56139 
L 145.003243 -161.909225 
L 145.328223 -162.238606 
L 145.653202 -162.549002 
L 145.978182 -162.83988 
L 146.303161 -163.110706 
L 146.628141 -163.360947 
L 146.95312 -163.590077 
L 147.2781 -163.797574 
L 147.603079 -163.98293 
L 147.928059 -164.145653 
L 148.253038 -164.285273 
L 148.578018 -164.401342 
L 148.902998 -164.493447 
L 149.227977 -164.561209 
L 149.552957 -164.604295 
L 149.877936 -164.622415 
L 150.202916 -164.615338 
L 150.527895 -164.582889 
L 150.852875 -164.52496 
L 151.177854 -164.441508 
L 151.502834 -164.332565 
L 151.827813 -164.198236 
L 152.152793 -164.038704 
L 152.477772 -163.854228 
L 152.802752 -163.645141 
L 153.127731 -163.411854 
L 153.452711 -163.154846 
L 153.77769 -162.874665 
L 154.10267 -162.57192 
L 154.427649 -162.247276 
L 154.752629 -161.901448 
L 155.077609 -161.535196 
L 155.402588 -161.149313 
L 155.727568 -160.744621 
L 156.052547 -160.321964 
L 156.377527 -159.882203 
L 156.702506 -159.426203 
L 157.027486 -158.954835 
L 157.352465 -158.468966 
L 157.677445 -157.969453 
L 158.002424 -157.457143 
L 158.327404 -156.932868 
L 158.652383 -156.397438 
L 158.977363 -155.851643 
L 159.302342 -155.296252 
L 159.627322 -154.732005 
L 159.952301 -154.159619 
L 160.277281 -153.579784 
L 160.60226 -152.993161 
L 160.92724 -152.400386 
L 161.252219 -151.802066 
L 161.577199 -151.198783 
L 161.902179 -150.591092 
L 162.227158 -149.979521 
L 162.552138 -149.364577 
L 162.877117 -148.746737 
L 163.202097 -148.12646 
L 163.527076 -147.504179 
L 163.852056 -146.880306 
L 164.177035 -146.255234 
L 164.502015 -145.629334 
L 164.826994 -145.002959 
L 165.151974 -144.376442 
L 165.476953 -143.750102 
L 165.801933 -143.124237 
L 166.126912 -142.499132 
L 166.451892 -141.875056 
L 166.776871 -141.252264 
L 167.101851 -140.630996 
L 167.42683 -140.011478 
L 167.75181 -139.393927 
L 168.07679 -138.778543 
L 168.401769 -138.165518 
L 168.726749 -137.555031 
L 169.051728 -136.947251 
L 169.376708 -136.342336 
L 169.701687 -135.740435 
L 170.026667 -135.141687 
L 170.351646 -134.546222 
L 170.676626 -133.954161 
L 171.001605 -133.365618 
L 171.326585 -132.780696 
L 171.651564 -132.199492 
L 171.976544 -131.622095 
L 172.301523 -131.048587 
L 172.626503 -130.479042 
L 172.951482 -129.913527 
L 173.276462 -129.352103 
L 173.601441 -128.794824 
L 173.926421 -128.241738 
L 174.2514 -127.692886 
L 174.57638 -127.148304 
L 174.90136 -126.608021 
L 175.226339 -126.072061 
L 175.551319 -125.540443 
L 175.876298 -125.013178 
L 176.201278 -124.490275 
L 176.526257 -123.971736 
L 176.851237 -123.457557 
L 177.176216 -122.947731 
L 177.501196 -122.442245 
L 177.826175 -121.941081 
L 178.151155 -121.444218 
L 178.476134 -120.951628 
L 178.801114 -120.463281 
L 179.126093 -119.979141 
L 179.451073 -119.499168 
L 179.776052 -119.023318 
L 180.101032 -118.551544 
L 180.426011 -118.083794 
L 180.750991 -117.620012 
L 181.075971 -117.160139 
L 181.40095 -116.704113 
L 181.72593 -116.251867 
L 182.050909 -115.803331 
L 182.375889 -115.358433 
L 182.700868 -114.917098 
L 183.025848 -114.479246 
L 183.350827 -114.044796 
L 183.675807 -113.613665 
L 184.000786 -113.185765 
L 184.325766 -112.76101 
L 184.650745 -112.339307 
L 184.975725 -111.920565 
L 185.300704 -111.50469 
L 185.625684 -111.091587 
L 185.950663 -110.681159 
L 186.275643 -110.273308 
L 186.600622 -109.867937 
L 186.925602 -109.464948 
L 187.250581 -109.064243 
L 187.575561 -108.665724 
L 187.900541 -108.269292 
L 188.22552 -107.874854 
L 188.5505 -107.482312 
L 188.875479 -107.091575 
L 189.200459 -106.702551 
L 189.525438 -106.315151 
L 189.850418 -105.92929 
L 190.175397 -105.544887 
L 190.500377 -105.161861 
L 190.825356 -104.78014 
L 191.150336 -104.399654 
L 191.475315 -104.020337 
L 191.800295 -103.642133 
L 192.125274 -103.264986 
L 192.450254 -102.888852 
L 192.775233 -102.51369 
L 193.100213 -102.139468 
L 193.425192 -101.766161 
L 193.750172 -101.393753 
L 194.075152 -101.022235 
L 194.400131 -100.651607 
L 194.725111 -100.281878 
L 195.05009 -99.913067 
L 195.37507 -99.545199 
L 195.700049 -99.178313 
L 196.025029 -98.812455 
L 196.350008 -98.44768 
L 196.674988 -98.084054 
L 196.999967 -97.721651 
L 197.324947 -97.360556 
L 197.649926 -97.000863 
L 197.974906 -96.642673 
L 198.299885 -96.286099 
L 198.624865 -95.93126 
L 198.949844 -95.578283 
L 199.274824 -95.227305 
L 199.599803 -94.878467 
L 199.924783 -94.531921 
L 200.249762 -94.187821 
L 200.574742 -93.84633 
L 200.899722 -93.507615 
L 201.224701 -93.171847 
L 201.549681 -92.839202 
L 201.87466 -92.50986 
L 202.19964 -92.184004 
L 202.524619 -91.861818 
L 202.849599 -91.543489 
L 203.174578 -91.229205 
L 203.499558 -90.919155 
L 203.824537 -90.613527 
L 204.149517 -90.312511 
L 204.474496 -90.016294 
L 204.799476 -89.725062 
L 205.124455 -89.439001 
L 205.449435 -89.158292 
L 205.774414 -88.883115 
L 206.099394 -88.613647 
L 206.424373 -88.350061 
L 206.749353 -88.092526 
L 207.074333 -87.841209 
L 207.399312 -87.59627 
L 207.724292 -87.357866 
L 208.049271 -87.126148 
L 208.374251 -86.901263 
L 208.69923 -86.683351 
L 209.02421 -86.47255 
L 209.349189 -86.268988 
L 209.674169 -86.07279 
L 209.999148 -85.884073 
L 210.324128 -85.702951 
L 210.649107 -85.529529 
L 210.974087 -85.363907 
L 211.299066 -85.206177 
L 211.624046 -85.056426 
L 211.949025 -84.914735 
L 212.274005 -84.781176 
L 212.598984 -84.655817 
L 212.923964 -84.538718 
L 213.248943 -84.42993 
L 213.573923 -84.329501 
L 213.898903 -84.23747 
L 214.223882 -84.153868 
L 214.548862 -84.078721 
L 214.873841 -84.012046 
L 215.198821 -83.953855 
L 215.5238 -83.904149 
L 215.84878 -83.862925 
L 216.173759 -83.830171 
L 216.498739 -83.805868 
L 216.823718 -83.789988 
L 217.148698 -83.782498 
L 217.473677 -83.783353 
L 217.798657 -83.792503 
L 218.123636 -83.809889 
L 218.448616 -83.835444 
L 218.773595 -83.869091 
L 219.098575 -83.910746 
L 219.423554 -83.960315 
L 219.748534 -84.017695 
L 220.073514 -84.082775 
L 220.398493 -84.155433 
L 220.723473 -84.235538 
L 221.048452 -84.322948 
L 221.373432 -84.417513 
L 221.698411 -84.519072 
L 222.023391 -84.62745 
L 222.34837 -84.742467 
L 222.67335 -84.863926 
L 222.998329 -84.991623 
L 223.323309 -85.12534 
L 223.648288 -85.264847 
L 223.973268 -85.409905 
L 224.298247 -85.560259 
L 224.623227 -85.715644 
L 224.948206 -85.875782 
L 225.273186 -86.040383 
L 225.598165 -86.209143 
L 225.923145 -86.381748 
L 226.248124 -86.55787 
L 226.573104 -86.737169 
L 226.898084 -86.919295 
L 227.223063 -87.103885 
L 227.548043 -87.290565 
L 227.873022 -87.478953 
L 228.198002 -87.668656 
L 228.522981 -87.859273 
L 228.847961 -88.050397 
L 229.17294 -88.241612 
L 229.49792 -88.432501 
L 229.822899 -88.622642 
L 230.147879 -88.811611 
L 230.472858 -88.998985 
L 230.797838 -89.184344 
L 231.122817 -89.367273 
L 231.447797 -89.54736 
L 231.772776 -89.724205 
L 232.097756 -89.897417 
L 232.422735 -90.066618 
L 232.747715 -90.231446 
L 233.072695 -90.391555 
L 233.397674 -90.546618 
L 233.722654 -90.696329 
L 234.047633 -90.840404 
L 234.372613 -90.978582 
L 234.697592 -91.110626 
L 235.022572 -91.236327 
L 235.347551 -91.355499 
L 235.672531 -91.467983 
L 235.99751 -91.573647 
L 236.32249 -91.672384 
L 236.647469 -91.764113 
L 236.972449 -91.848778 
L 237.297428 -91.926346 
L 237.622408 -91.996808 
L 237.947387 -92.060174 
L 238.272367 -92.116477 
L 238.597346 -92.165768 
L 238.922326 -92.208113 
L 239.247305 -92.243597 
L 239.572285 -92.272317 
L 239.897265 -92.294384 
L 240.222244 -92.309919 
L 240.547224 -92.319054 
L 240.872203 -92.32193 
L 241.197183 -92.318695 
L 241.522162 -92.309502 
L 241.847142 -92.294511 
L 242.172121 -92.273885 
L 242.497101 -92.247792 
L 242.82208 -92.2164 
L 243.14706 -92.179882 
L 243.472039 -92.138409 
L 243.797019 -92.092155 
L 244.121998 -92.041295 
L 244.446978 -91.986001 
L 244.771957 -91.926447 
L 245.096937 -91.862805 
L 245.421916 -91.795247 
L 245.746896 -91.723944 
L 246.071876 -91.649064 
L 246.396855 -91.570775 
L 246.721835 -91.489245 
L 247.046814 -91.404637 
L 247.371794 -91.317116 
L 247.696773 -91.226843 
L 248.021753 -91.133979 
L 248.346732 -91.038683 
L 248.671712 -90.941113 
L 248.996691 -90.841425 
L 249.321671 -90.739775 
L 249.64665 -90.636315 
L 249.97163 -90.531199 
L 250.296609 -90.424578 
L 250.621589 -90.316602 
L 250.946568 -90.207421 
L 251.271548 -90.097184 
L 251.596527 -89.986037 
L 251.921507 -89.874129 
L 252.246486 -89.761604 
L 252.571466 -89.648609 
L 252.896446 -89.535288 
L 253.221425 -89.421785 
L 253.546405 -89.308245 
L 253.871384 -89.194811 
L 254.196364 -89.081625 
L 254.521343 -88.968829 
L 254.846323 -88.856567 
L 255.171302 -88.744979 
L 255.496282 -88.634208 
L 255.821261 -88.524393 
L 256.146241 -88.415677 
L 256.47122 -88.3082 
L 256.7962 -88.202103 
L 257.121179 -88.097524 
L 257.446159 -87.994606 
L 257.771138 -87.893487 
L 258.096118 -87.794306 
L 258.421097 -87.697205 
L 258.746077 -87.60232 
L 259.071057 -87.509792 
L 259.396036 -87.419759 
L 259.721016 -87.33236 
L 260.045995 -87.247732 
L 260.370975 -87.166014 
L 260.695954 -87.087343 
L 261.020934 -87.011856 
L 261.345913 -86.939691 
L 261.670893 -86.870983 
L 261.995872 -86.805869 
L 262.320852 -86.744485 
L 262.645831 -86.686965 
L 262.970811 -86.633445 
L 263.29579 -86.584059 
L 263.62077 -86.538939 
L 263.945749 -86.49822 
L 264.270729 -86.462034 
L 264.595708 -86.430512 
L 264.920688 -86.403785 
L 265.245667 -86.381984 
L 265.570647 -86.365238 
L 265.895627 -86.353676 
L 266.220606 -86.347425 
L 266.545586 -86.346613 
L 266.870565 -86.351365 
L 267.195545 -86.361806 
L 267.520524 -86.378059 
L 267.845504 -86.400249 
L 268.170483 -86.428496 
L 268.495463 -86.462921 
L 268.820442 -86.503643 
L 269.145422 -86.550781 
L 269.470401 -86.60445 
L 269.795381 -86.664766 
L 270.12036 -86.731843 
L 270.44534 -86.805794 
L 270.770319 -86.88673 
L 271.095299 -86.97476 
L 271.420278 -87.069992 
L 271.745258 -87.172533 
L 272.070238 -87.282487 
L 272.395217 -87.399957 
L 272.720197 -87.525045 
L 273.045176 -87.657849 
L 273.370156 -87.798469 
L 273.695135 -87.946999 
L 274.020115 -88.103533 
L 274.345094 -88.268163 
L 274.670074 -88.44098 
L 274.995053 -88.622071 
L 275.320033 -88.811522 
L 275.645012 -89.009417 
L 275.969992 -89.215838 
L 276.294971 -89.430863 
L 276.619951 -89.654571 
L 276.94493 -89.887036 
L 277.26991 -90.128331 
L 277.594889 -90.378527 
L 277.919869 -90.637691 
L 278.244848 -90.90589 
L 278.569828 -91.183185 
L 278.894808 -91.469639 
L 279.219787 -91.765309 
L 279.544767 -92.070252 
L 279.869746 -92.38452 
L 280.194726 -92.708164 
L 280.519705 -93.041232 
L 280.844685 -93.38377 
L 281.169664 -93.73582 
L 281.494644 -94.097422 
L 281.819623 -94.468614 
L 282.144603 -94.849431 
L 282.469582 -95.239903 
L 282.794562 -95.64006 
L 283.119541 -96.049929 
L 283.444521 -96.469532 
L 283.7695 -96.89889 
L 284.09448 -97.338021 
L 284.419459 -97.786939 
L 284.744439 -98.245656 
L 285.069419 -98.71418 
L 285.394398 -99.192519 
L 285.719378 -99.680674 
L 286.044357 -100.178645 
L 286.369337 -100.686429 
L 286.694316 -101.20402 
L 287.019296 -101.731408 
L 287.344275 -102.268582 
L 287.669255 -102.815525 
L 287.994234 -103.372219 
L 288.319214 -103.938642 
L 288.644193 -104.51477 
L 288.969173 -105.100575 
L 289.294152 -105.696025 
L 289.619132 -106.301086 
L 289.944111 -106.915722 
L 290.269091 -107.53989 
L 290.59407 -108.173547 
L 290.91905 -108.816647 
L 291.244029 -109.469139 
L 291.569009 -110.130969 
L 291.893989 -110.802082 
L 292.218968 -111.482416 
L 292.543948 -112.171909 
L 292.868927 -112.870495 
L 293.193907 -113.578104 
L 293.518886 -114.294664 
L 293.843866 -115.020097 
L 294.168845 -115.754325 
L 294.493825 -116.497265 
L 294.818804 -117.248832 
L 295.143784 -118.008936 
L 295.468763 -118.777485 
L 295.793743 -119.554384 
L 296.118722 -120.339533 
L 296.443702 -121.132831 
L 296.768681 -121.934173 
L 297.093661 -122.743449 
L 297.41864 -123.560549 
L 297.74362 -124.385357 
L 298.0686 -125.217755 
L 298.393579 -126.057622 
L 298.718559 -126.904834 
L 299.043538 -127.759262 
L 299.368518 -128.620776 
L 299.693497 -129.489241 
L 300.018477 -130.364521 
L 300.343456 -131.246474 
L 300.668436 -132.134958 
L 300.993415 -133.029825 
L 301.318395 -133.930927 
L 301.643374 -134.838109 
L 301.968354 -135.751217 
L 302.293333 -136.67009 
L 302.618313 -137.594567 
L 302.943292 -138.524483 
L 303.268272 -139.45967 
L 303.593251 -140.399956 
L 303.918231 -141.345167 
L 304.24321 -142.295125 
L 304.56819 -143.249652 
L 304.89317 -144.208563 
L 305.218149 -145.171673 
L 305.543129 -146.138793 
L 305.868108 -147.109731 
L 306.193088 -148.084292 
L 306.518067 -149.06228 
L 306.843047 -150.043492 
L 307.168026 -151.027728 
L 307.493006 -152.014779 
L 307.817985 -153.004439 
L 308.142965 -153.996495 
L 308.467944 -154.990734 
L 308.792924 -155.986938 
L 309.117903 -156.984888 
L 309.442883 -157.984362 
L 309.767862 -158.985135 
L 310.092842 -159.98698 
L 310.417821 -160.989667 
L 310.742801 -161.992963 
L 311.067781 -162.996633 
L 311.39276 -164.00044 
L 311.71774 -165.004143 
L 312.042719 -166.007499 
L 312.367699 -167.010264 
L 312.692678 -168.012189 
L 313.017658 -169.013025 
L 313.342637 -170.01252 
L 313.667617 -171.010417 
L 313.992596 -172.00646 
L 314.317576 -173.000388 
L 314.642555 -173.991941 
L 314.967535 -174.980851 
L 315.292514 -175.966854 
L 315.617494 -176.949678 
L 315.942473 -177.929053 
L 316.267453 -178.904703 
L 316.592432 -179.876352 
L 316.917412 -180.84372 
L 317.242391 -181.806525 
L 317.567371 -182.764482 
L 317.892351 -183.717306 
L 318.21733 -184.664705 
L 318.54231 -185.606388 
L 318.867289 -186.542059 
L 319.192269 -187.471422 
L 319.517248 -188.394174 
L 319.842228 -189.310012 
L 320.167207 -190.21863 
L 320.492187 -191.119718 
L 320.817166 -192.012962 
L 321.142146 -192.898048 
L 321.467125 -193.774654 
L 321.792105 -194.642457 
L 322.117084 -195.50113 
L 322.442064 -196.350343 
L 322.767043 -197.18976 
L 323.092023 -198.019041 
L 323.417002 -198.837843 
L 323.741982 -199.645817 
L 324.066962 -200.442608 
L 324.391941 -201.227859 
L 324.716921 -202.001205 
L 325.0419 -202.762274 
L 325.36688 -203.510692 
L 325.691859 -204.246075 
L 326.016839 -204.968033 
L 326.341818 -205.676169 
L 326.666798 -206.370078 
L 326.991777 -207.049349 
L 327.316757 -207.713561 
L 327.641736 -208.362283 
L 327.966716 -208.995077 
L 328.291695 -209.611495 
L 328.616675 -210.211078 
L 328.941654 -210.793357 
L 329.266634 -211.357854 
L 329.591613 -211.904077 
L 329.916593 -212.431526 
L 330.241572 -212.939687 
L 330.566552 -213.428036 
L 330.891532 -213.896037 
L 331.216511 -214.343144 
L 331.541491 -214.768799 
L 331.86647 -215.172434 
L 332.19145 -215.553473 
L 332.516429 -215.911331 
L 332.841409 -216.245416 
L 333.166388 -216.555132 
L 333.491368 -216.839882 
L 333.816347 -217.099066 
L 334.141327 -217.33209 
L 334.466306 -217.538368 
L 334.791286 -217.717325 
L 335.116265 -217.868401 
L 335.441245 -217.991062 
L 335.766224 -218.084799 
L 336.091204 -218.149139 
L 336.416183 -218.183649 
L 336.741163 -218.187946 
L 337.066143 -218.161701 
L 337.391122 -218.104648 
L 337.716102 -218.016588 
L 338.041081 -217.897401 
L 338.366061 -217.747043 
L 338.69104 -217.565558 
L 339.01602 -217.353078 
L 339.340999 -217.109824 
L 339.665979 -216.83611 
L 339.990958 -216.532339 
L 340.315938 -216.199003 
L 340.640917 -215.836679 
L 340.965897 -215.446023 
L 341.290876 -215.027762 
L 341.615856 -214.582694 
L 341.940835 -214.111671 
L 342.265815 -213.615598 
L 342.590794 -213.095421 
L 342.915774 -212.552118 
L 343.240753 -211.986693 
L 343.565733 -211.400166 
L 343.890713 -210.793566 
L 344.215692 -210.167925 
L 344.540672 -209.524271 
L 344.865651 -208.863622 
L 345.190631 -208.186983 
L 345.51561 -207.495339 
L 345.84059 -206.789656 
L 346.165569 -206.070876 
L 346.490549 -205.339912 
L 346.815528 -204.597652 
L 347.140508 -203.844956 
L 347.465487 -203.082652 
L 347.790467 -202.311541 
L 348.115446 -201.532393 
L 348.440426 -200.74595 
L 348.765405 -199.952924 
L 349.090385 -199.154 
L 349.415364 -198.349835 
L 349.740344 -197.541058 
L 350.065324 -196.728274 
L 350.390303 -195.912063 
L 350.715283 -195.092979 
L 351.040262 -194.271555 
L 351.365242 -193.448301 
L 351.690221 -192.623705 
L 352.015201 -191.798235 
L 352.34018 -190.972339 
L 352.66516 -190.146447 
L 352.990139 -189.320969 
L 353.315119 -188.496298 
L 353.640098 -187.67281 
L 353.965078 -186.850865 
L 354.290057 -186.030807 
L 354.615037 -185.212963 
L 354.940016 -184.397646 
L 355.264996 -183.585155 
L 355.589975 -182.775774 
L 355.914955 -181.969773 
L 356.239934 -181.167407 
L 356.564914 -180.368919 
L 356.889894 -179.574537 
L 357.214873 -178.784477 
L 357.539853 -177.998941 
L 357.864832 -177.218118 
L 358.189812 -176.442182 
L 358.514791 -175.671295 
L 358.839771 -174.905606 
L 359.16475 -174.145249 
L 359.48973 -173.390346 
L 359.814709 -172.641002 
L 360.139689 -171.89731 
L 360.464668 -171.159347 
L 360.789648 -170.427177 
L 361.114627 -169.700845 
L 361.439607 -168.980384 
L 361.764586 -168.265808 
L 362.089566 -167.557115 
L 362.414545 -166.854284 
L 362.739525 -166.157279 
L 363.064505 -165.466043 
L 363.389484 -164.780498 
L 363.714464 -164.100549 
L 364.039443 -163.426077 
L 364.364423 -162.756941 
L 364.689402 -162.09298 
L 365.014382 -161.434004 
L 365.339361 -160.779803 
L 365.664341 -160.130137 
L 365.98932 -159.484741 
L 366.3143 -158.843321 
L 366.639279 -158.205555 
L 366.964259 -157.571089 
L 367.289238 -156.939539 
L 367.614218 -156.310489 
L 367.939197 -155.68349 
L 368.264177 -155.05806 
L 368.589156 -154.433682 
L 368.914136 -153.809806 
L 369.239115 -153.185847 
L 369.564095 -152.56119 
L 369.889075 -151.935182 
L 370.214054 -151.307143 
L 370.539034 -150.676361 
L 370.864013 -150.0421 
L 371.188993 -149.403597 
L 371.513972 -148.760072 
L 371.838952 -148.110727 
L 372.163931 -147.454757 
L 372.488911 -146.79135 
L 372.81389 -146.119701 
L 373.13887 -145.439012 
L 373.463849 -144.748506 
L 373.788829 -144.047432 
L 374.113808 -143.335075 
L 374.438788 -142.610765 
L 374.763767 -141.873886 
L 375.088747 -141.12388 
L 375.413726 -140.360261 
L 375.738706 -139.582616 
L 376.063686 -138.790611 
L 376.388665 -137.983998 
L 376.713645 -137.162614 
L 377.038624 -136.326383 
L 377.363604 -135.475316 
L 377.688583 -134.609509 
L 378.013563 -133.729138 
L 378.338542 -132.834455 
L 378.663522 -131.925786 
L 378.988501 -131.003518 
L 379.313481 -130.068098 
L 379.63846 -129.120024 
L 379.96344 -128.159834 
L 380.288419 -127.188108 
L 380.613399 -126.205451 
L 380.938378 -125.212492 
L 381.263358 -124.209878 
L 381.588337 -123.198265 
L 381.913317 -122.178318 
L 382.238296 -121.1507 
L 382.563276 -120.116075 
L 382.888256 -119.075101 
L 383.213235 -118.028425 
L 383.538215 -116.976687 
L 383.863194 -115.920512 
L 384.188174 -114.860512 
L 384.513153 -113.797282 
L 384.838133 -112.731403 
L 385.163112 -111.663438 
L 385.488092 -110.593933 
L 385.813071 -109.523418 
L 386.138051 -108.452403 
L 386.46303 -107.381383 
L 386.78801 -106.310834 
L 387.112989 -105.241219 
L 387.437969 -104.172979 
L 387.762948 -103.106544 
L 388.087928 -102.042325 
L 388.412907 -100.980719 
L 388.737887 -99.922109 
L 389.062867 -98.866862 
L 389.387846 -97.815333 
L 389.712826 -96.767862 
L 390.037805 -95.724778 
L 390.362785 -94.686396 
L 390.687764 -93.653019 
L 391.012744 -92.624939 
L 391.337723 -91.602437 
L 391.662703 -90.585782 
L 391.987682 -89.575234 
L 392.312662 -88.571043 
L 392.637641 -87.573447 
L 392.962621 -86.582676 
L 393.2876 -85.598952 
L 393.61258 -84.622486 
L 393.937559 -83.653481 
L 394.262539 -82.692132 
L 394.587518 -81.738627 
L 394.912498 -80.793145 
L 395.237477 -79.855855 
L 395.562457 -78.926923 
L 395.887437 -78.006505 
L 396.212416 -77.09475 
L 396.537396 -76.191802 
L 396.862375 -75.297795 
L 397.187355 -74.41286 
L 397.512334 -73.537119 
L 397.837314 -72.67069 
L 398.162293 -71.813681 
L 398.487273 -70.966199 
L 398.487273 -181.982383 
L 398.487273 -181.982383 
L 398.162293 -181.486795 
L 397.837314 -180.99643 
L 397.512334 -180.511496 
L 397.187355 -180.032201 
L 396.862375 -179.558757 
L 396.537396 -179.091377 
L 396.212416 -178.630279 
L 395.887437 -178.175684 
L 395.562457 -177.727813 
L 395.237477 -177.286894 
L 394.912498 -176.853156 
L 394.587518 -176.426832 
L 394.262539 -176.008157 
L 393.937559 -175.597372 
L 393.61258 -175.194721 
L 393.2876 -174.800451 
L 392.962621 -174.414814 
L 392.637641 -174.038066 
L 392.312662 -173.670467 
L 391.987682 -173.312284 
L 391.662703 -172.963786 
L 391.337723 -172.625249 
L 391.012744 -172.296954 
L 390.687764 -171.979189 
L 390.362785 -171.672246 
L 390.037805 -171.376426 
L 389.712826 -171.092034 
L 389.387846 -170.819386 
L 389.062867 -170.558801 
L 388.737887 -170.31061 
L 388.412907 -170.075151 
L 388.087928 -169.852769 
L 387.762948 -169.643822 
L 387.437969 -169.448674 
L 387.112989 -169.267702 
L 386.78801 -169.101291 
L 386.46303 -168.949839 
L 386.138051 -168.813755 
L 385.813071 -168.693458 
L 385.488092 -168.589381 
L 385.163112 -168.501968 
L 384.838133 -168.431674 
L 384.513153 -168.378969 
L 384.188174 -168.344332 
L 383.863194 -168.328255 
L 383.538215 -168.33124 
L 383.213235 -168.353799 
L 382.888256 -168.396455 
L 382.563276 -168.459735 
L 382.238296 -168.544173 
L 381.913317 -168.650307 
L 381.588337 -168.778673 
L 381.263358 -168.929806 
L 380.938378 -169.104234 
L 380.613399 -169.30247 
L 380.288419 -169.525016 
L 379.96344 -169.772349 
L 379.63846 -170.044916 
L 379.313481 -170.343135 
L 378.988501 -170.667376 
L 378.663522 -171.017965 
L 378.338542 -171.395171 
L 378.013563 -171.799199 
L 377.688583 -172.230186 
L 377.363604 -172.68819 
L 377.038624 -173.173191 
L 376.713645 -173.685081 
L 376.388665 -174.223664 
L 376.063686 -174.78865 
L 375.738706 -175.37966 
L 375.413726 -175.996223 
L 375.088747 -176.637778 
L 374.763767 -177.303682 
L 374.438788 -177.993211 
L 374.113808 -178.705568 
L 373.788829 -179.43989 
L 373.463849 -180.195258 
L 373.13887 -180.970704 
L 372.81389 -181.765219 
L 372.488911 -182.577762 
L 372.163931 -183.407271 
L 371.838952 -184.252668 
L 371.513972 -185.112868 
L 371.188993 -185.986787 
L 370.864013 -186.873347 
L 370.539034 -187.771479 
L 370.214054 -188.680132 
L 369.889075 -189.598277 
L 369.564095 -190.524906 
L 369.239115 -191.459036 
L 368.914136 -192.399716 
L 368.589156 -193.346021 
L 368.264177 -194.297057 
L 367.939197 -195.251962 
L 367.614218 -196.209904 
L 367.289238 -197.170083 
L 366.964259 -198.131729 
L 366.639279 -199.094103 
L 366.3143 -200.056494 
L 365.98932 -201.018221 
L 365.664341 -201.97863 
L 365.339361 -202.937097 
L 365.014382 -203.89302 
L 364.689402 -204.845825 
L 364.364423 -205.794961 
L 364.039443 -206.7399 
L 363.714464 -207.680138 
L 363.389484 -208.615192 
L 363.064505 -209.5446 
L 362.739525 -210.467918 
L 362.414545 -211.384724 
L 362.089566 -212.294613 
L 361.764586 -213.197199 
L 361.439607 -214.092114 
L 361.114627 -214.979005 
L 360.789648 -215.857537 
L 360.464668 -216.72739 
L 360.139689 -217.58826 
L 359.814709 -218.43986 
L 359.48973 -219.281915 
L 359.16475 -220.114168 
L 358.839771 -220.936373 
L 358.514791 -221.748303 
L 358.189812 -222.549742 
L 357.864832 -223.340489 
L 357.539853 -224.120358 
L 357.214873 -224.889177 
L 356.889894 -225.646788 
L 356.564914 -226.393049 
L 356.239934 -227.127829 
L 355.914955 -227.851017 
L 355.589975 -228.562513 
L 355.264996 -229.262233 
L 354.940016 -229.950111 
L 354.615037 -230.626094 
L 354.290057 -231.290147 
L 353.965078 -231.942253 
L 353.640098 -232.582408 
L 353.315119 -233.210631 
L 352.990139 -233.826956 
L 352.66516 -234.431438 
L 352.34018 -235.024151 
L 352.015201 -235.605189 
L 351.690221 -236.174668 
L 351.365242 -236.732726 
L 351.040262 -237.279524 
L 350.715283 -237.815246 
L 350.390303 -238.340102 
L 350.065324 -238.854327 
L 349.740344 -239.358183 
L 349.415364 -239.851959 
L 349.090385 -240.335975 
L 348.765405 -240.810578 
L 348.440426 -241.276148 
L 348.115446 -241.733094 
L 347.790467 -242.18186 
L 347.465487 -242.622921 
L 347.140508 -243.056787 
L 346.815528 -243.484002 
L 346.490549 -243.905142 
L 346.165569 -244.32082 
L 345.84059 -244.731679 
L 345.51561 -245.138398 
L 345.190631 -245.541683 
L 344.865651 -245.942271 
L 344.540672 -246.340927 
L 344.215692 -246.738435 
L 343.890713 -247.135601 
L 343.565733 -247.533246 
L 343.240753 -247.932198 
L 342.915774 -248.333291 
L 342.590794 -248.737351 
L 342.265815 -249.145196 
L 341.940835 -249.557625 
L 341.615856 -249.975407 
L 341.290876 -250.399278 
L 340.965897 -250.829926 
L 340.640917 -251.267989 
L 340.315938 -251.714044 
L 339.990958 -252.1686 
L 339.665979 -252.632092 
L 339.340999 -253.104876 
L 339.01602 -253.587227 
L 338.69104 -254.079334 
L 338.366061 -254.581303 
L 338.041081 -255.093153 
L 337.716102 -255.614822 
L 337.391122 -256.146167 
L 337.066143 -256.686974 
L 336.741163 -257.236958 
L 336.416183 -257.795769 
L 336.091204 -258.363004 
L 335.766224 -258.938209 
L 335.441245 -259.520889 
L 335.116265 -260.110513 
L 334.791286 -260.70652 
L 334.466306 -261.308331 
L 334.141327 -261.915346 
L 333.816347 -262.526957 
L 333.491368 -263.14255 
L 333.166388 -263.761508 
L 332.841409 -264.383219 
L 332.516429 -265.007074 
L 332.19145 -265.632472 
L 331.86647 -266.258825 
L 331.541491 -266.885555 
L 331.216511 -267.512099 
L 330.891532 -268.137909 
L 330.566552 -268.762453 
L 330.241572 -269.385214 
L 329.916593 -270.005692 
L 329.591613 -270.623407 
L 329.266634 -271.237892 
L 328.941654 -271.848699 
L 328.616675 -272.455396 
L 328.291695 -273.057567 
L 327.966716 -273.654813 
L 327.641736 -274.24675 
L 327.316757 -274.833009 
L 326.991777 -275.413237 
L 326.666798 -275.987094 
L 326.341818 -276.554253 
L 326.016839 -277.114403 
L 325.691859 -277.667244 
L 325.36688 -278.212488 
L 325.0419 -278.74986 
L 324.716921 -279.279097 
L 324.391941 -279.799945 
L 324.066962 -280.312163 
L 323.741982 -280.815519 
L 323.417002 -281.309791 
L 323.092023 -281.794766 
L 322.767043 -282.270242 
L 322.442064 -282.736023 
L 322.117084 -283.191926 
L 321.792105 -283.637771 
L 321.467125 -284.073389 
L 321.142146 -284.498619 
L 320.817166 -284.913307 
L 320.492187 -285.317304 
L 320.167207 -285.710471 
L 319.842228 -286.092674 
L 319.517248 -286.463787 
L 319.192269 -286.823688 
L 318.867289 -287.172263 
L 318.54231 -287.509404 
L 318.21733 -287.835009 
L 317.892351 -288.148979 
L 317.567371 -288.451223 
L 317.242391 -288.741655 
L 316.917412 -289.020194 
L 316.592432 -289.286763 
L 316.267453 -289.541292 
L 315.942473 -289.783713 
L 315.617494 -290.013966 
L 315.292514 -290.231992 
L 314.967535 -290.437739 
L 314.642555 -290.631158 
L 314.317576 -290.812204 
L 313.992596 -290.980838 
L 313.667617 -291.137023 
L 313.342637 -291.280726 
L 313.017658 -291.411919 
L 312.692678 -291.530577 
L 312.367699 -291.636678 
L 312.042719 -291.730205 
L 311.71774 -291.811142 
L 311.39276 -291.879479 
L 311.067781 -291.935209 
L 310.742801 -291.978325 
L 310.417821 -292.008828 
L 310.092842 -292.026718 
L 309.767862 -292.032 
L 309.442883 -292.024681 
L 309.117903 -292.004771 
L 308.792924 -291.972284 
L 308.467944 -291.927234 
L 308.142965 -291.86964 
L 307.817985 -291.799523 
L 307.493006 -291.716906 
L 307.168026 -291.621814 
L 306.843047 -291.514275 
L 306.518067 -291.39432 
L 306.193088 -291.261981 
L 305.868108 -291.117293 
L 305.543129 -290.960291 
L 305.218149 -290.791016 
L 304.89317 -290.609507 
L 304.56819 -290.415808 
L 304.24321 -290.209963 
L 303.918231 -289.992018 
L 303.593251 -289.762021 
L 303.268272 -289.520023 
L 302.943292 -289.266074 
L 302.618313 -289.000228 
L 302.293333 -288.722539 
L 301.968354 -288.433065 
L 301.643374 -288.131861 
L 301.318395 -287.818989 
L 300.993415 -287.494507 
L 300.668436 -287.158478 
L 300.343456 -286.810965 
L 300.018477 -286.452033 
L 299.693497 -286.081746 
L 299.368518 -285.700172 
L 299.043538 -285.307379 
L 298.718559 -284.903436 
L 298.393579 -284.488412 
L 298.0686 -284.062379 
L 297.74362 -283.625409 
L 297.41864 -283.177575 
L 297.093661 -282.718952 
L 296.768681 -282.249613 
L 296.443702 -281.769635 
L 296.118722 -281.279094 
L 295.793743 -280.778068 
L 295.468763 -280.266634 
L 295.143784 -279.744873 
L 294.818804 -279.212863 
L 294.493825 -278.670685 
L 294.168845 -278.118421 
L 293.843866 -277.556151 
L 293.518886 -276.983959 
L 293.193907 -276.401927 
L 292.868927 -275.810138 
L 292.543948 -275.208679 
L 292.218968 -274.597632 
L 291.893989 -273.977084 
L 291.569009 -273.347121 
L 291.244029 -272.707829 
L 290.91905 -272.059295 
L 290.59407 -271.401606 
L 290.269091 -270.734851 
L 289.944111 -270.059119 
L 289.619132 -269.374498 
L 289.294152 -268.681077 
L 288.969173 -267.978948 
L 288.644193 -267.2682 
L 288.319214 -266.548924 
L 287.994234 -265.821211 
L 287.669255 -265.085155 
L 287.344275 -264.340846 
L 287.019296 -263.588378 
L 286.694316 -262.827843 
L 286.369337 -262.059336 
L 286.044357 -261.282951 
L 285.719378 -260.498782 
L 285.394398 -259.706924 
L 285.069419 -258.907473 
L 284.744439 -258.100524 
L 284.419459 -257.286175 
L 284.09448 -256.464522 
L 283.7695 -255.635662 
L 283.444521 -254.799694 
L 283.119541 -253.956715 
L 282.794562 -253.106824 
L 282.469582 -252.250122 
L 282.144603 -251.386707 
L 281.819623 -250.516679 
L 281.494644 -249.640141 
L 281.169664 -248.757193 
L 280.844685 -247.867937 
L 280.519705 -246.972475 
L 280.194726 -246.070911 
L 279.869746 -245.163349 
L 279.544767 -244.249891 
L 279.219787 -243.330644 
L 278.894808 -242.405711 
L 278.569828 -241.475201 
L 278.244848 -240.539217 
L 277.919869 -239.597869 
L 277.594889 -238.651263 
L 277.26991 -237.699507 
L 276.94493 -236.742712 
L 276.619951 -235.780986 
L 276.294971 -234.814439 
L 275.969992 -233.843184 
L 275.645012 -232.86733 
L 275.320033 -231.886991 
L 274.995053 -230.90228 
L 274.670074 -229.913309 
L 274.345094 -228.920194 
L 274.020115 -227.92305 
L 273.695135 -226.921992 
L 273.370156 -225.917136 
L 273.045176 -224.908601 
L 272.720197 -223.896503 
L 272.395217 -222.880963 
L 272.070238 -221.862098 
L 271.745258 -220.840029 
L 271.420278 -219.814877 
L 271.095299 -218.786764 
L 270.770319 -217.755813 
L 270.44534 -216.722145 
L 270.12036 -215.685886 
L 269.795381 -214.64716 
L 269.470401 -213.606093 
L 269.145422 -212.56281 
L 268.820442 -211.517439 
L 268.495463 -210.470108 
L 268.170483 -209.420945 
L 267.845504 -208.37008 
L 267.520524 -207.317643 
L 267.195545 -206.263764 
L 266.870565 -205.208576 
L 266.545586 -204.152211 
L 266.220606 -203.094802 
L 265.895627 -202.036483 
L 265.570647 -200.97739 
L 265.245667 -199.917658 
L 264.920688 -198.857423 
L 264.595708 -197.796823 
L 264.270729 -196.735996 
L 263.945749 -195.67508 
L 263.62077 -194.614215 
L 263.29579 -193.553541 
L 262.970811 -192.493201 
L 262.645831 -191.433335 
L 262.320852 -190.374086 
L 261.995872 -189.315599 
L 261.670893 -188.258017 
L 261.345913 -187.201485 
L 261.020934 -186.146151 
L 260.695954 -185.09216 
L 260.370975 -184.03966 
L 260.045995 -182.9888 
L 259.721016 -181.939728 
L 259.396036 -180.892597 
L 259.071057 -179.847555 
L 258.746077 -178.804756 
L 258.421097 -177.764351 
L 258.096118 -176.726496 
L 257.771138 -175.691344 
L 257.446159 -174.659051 
L 257.121179 -173.629774 
L 256.7962 -172.60367 
L 256.47122 -171.580898 
L 256.146241 -170.561617 
L 255.821261 -169.545988 
L 255.496282 -168.534173 
L 255.171302 -167.526334 
L 254.846323 -166.522636 
L 254.521343 -165.523245 
L 254.196364 -164.528325 
L 253.871384 -163.538046 
L 253.546405 -162.552577 
L 253.221425 -161.572087 
L 252.896446 -160.596749 
L 252.571466 -159.626737 
L 252.246486 -158.662225 
L 251.921507 -157.70339 
L 251.596527 -156.75041 
L 251.271548 -155.803466 
L 250.946568 -154.862739 
L 250.621589 -153.928413 
L 250.296609 -153.000674 
L 249.97163 -152.07971 
L 249.64665 -151.165709 
L 249.321671 -150.258865 
L 248.996691 -149.359372 
L 248.671712 -148.467425 
L 248.346732 -147.583225 
L 248.021753 -146.706972 
L 247.696773 -145.838869 
L 247.371794 -144.979124 
L 247.046814 -144.127946 
L 246.721835 -143.285545 
L 246.396855 -142.452136 
L 246.071876 -141.627936 
L 245.746896 -140.813163 
L 245.421916 -140.00804 
L 245.096937 -139.21279 
L 244.771957 -138.427641 
L 244.446978 -137.65282 
L 244.121998 -136.888559 
L 243.797019 -136.13509 
L 243.472039 -135.392646 
L 243.14706 -134.661463 
L 242.82208 -133.941776 
L 242.497101 -133.233822 
L 242.172121 -132.537835 
L 241.847142 -131.85405 
L 241.522162 -131.182702 
L 241.197183 -130.524019 
L 240.872203 -129.878229 
L 240.547224 -129.245556 
L 240.222244 -128.626216 
L 239.897265 -128.020421 
L 239.572285 -127.428374 
L 239.247305 -126.850269 
L 238.922326 -126.286289 
L 238.597346 -125.736605 
L 238.272367 -125.201376 
L 237.947387 -124.680744 
L 237.622408 -124.174836 
L 237.297428 -123.683759 
L 236.972449 -123.207604 
L 236.647469 -122.746436 
L 236.32249 -122.300303 
L 235.99751 -121.869225 
L 235.672531 -121.453202 
L 235.347551 -121.052207 
L 235.022572 -120.666187 
L 234.697592 -120.295064 
L 234.372613 -119.938734 
L 234.047633 -119.597067 
L 233.722654 -119.269909 
L 233.397674 -118.957081 
L 233.072695 -118.658381 
L 232.747715 -118.373585 
L 232.422735 -118.102449 
L 232.097756 -117.844709 
L 231.772776 -117.600085 
L 231.447797 -117.368282 
L 231.122817 -117.148993 
L 230.797838 -116.941899 
L 230.472858 -116.746672 
L 230.147879 -116.56298 
L 229.822899 -116.390483 
L 229.49792 -116.228842 
L 229.17294 -116.077715 
L 228.847961 -115.936762 
L 228.522981 -115.805646 
L 228.198002 -115.684033 
L 227.873022 -115.571597 
L 227.548043 -115.468017 
L 227.223063 -115.37298 
L 226.898084 -115.286182 
L 226.573104 -115.207329 
L 226.248124 -115.136137 
L 225.923145 -115.072332 
L 225.598165 -115.015652 
L 225.273186 -114.965845 
L 224.948206 -114.92267 
L 224.623227 -114.885901 
L 224.298247 -114.85532 
L 223.973268 -114.830722 
L 223.648288 -114.811914 
L 223.323309 -114.798713 
L 222.998329 -114.790947 
L 222.67335 -114.788457 
L 222.34837 -114.791093 
L 222.023391 -114.798716 
L 221.698411 -114.811197 
L 221.373432 -114.828416 
L 221.048452 -114.850266 
L 220.723473 -114.876644 
L 220.398493 -114.907461 
L 220.073514 -114.942634 
L 219.748534 -114.982089 
L 219.423554 -115.02576 
L 219.098575 -115.073591 
L 218.773595 -115.125531 
L 218.448616 -115.181538 
L 218.123636 -115.241577 
L 217.798657 -115.305619 
L 217.473677 -115.373643 
L 217.148698 -115.445634 
L 216.823718 -115.521585 
L 216.498739 -115.601492 
L 216.173759 -115.68536 
L 215.84878 -115.773199 
L 215.5238 -115.865025 
L 215.198821 -115.960858 
L 214.873841 -116.060725 
L 214.548862 -116.164659 
L 214.223882 -116.272696 
L 213.898903 -116.384879 
L 213.573923 -116.501257 
L 213.248943 -116.62188 
L 212.923964 -116.746806 
L 212.598984 -116.876098 
L 212.274005 -117.009821 
L 211.949025 -117.148048 
L 211.624046 -117.290852 
L 211.299066 -117.438315 
L 210.974087 -117.590521 
L 210.649107 -117.747557 
L 210.324128 -117.909516 
L 209.999148 -118.076495 
L 209.674169 -118.248593 
L 209.349189 -118.425915 
L 209.02421 -118.608567 
L 208.69923 -118.79666 
L 208.374251 -118.990308 
L 208.049271 -119.189629 
L 207.724292 -119.394741 
L 207.399312 -119.605768 
L 207.074333 -119.822834 
L 206.749353 -120.046067 
L 206.424373 -120.275595 
L 206.099394 -120.511549 
L 205.774414 -120.754061 
L 205.449435 -121.003264 
L 205.124455 -121.259292 
L 204.799476 -121.522278 
L 204.474496 -121.792356 
L 204.149517 -122.06966 
L 203.824537 -122.354321 
L 203.499558 -122.64647 
L 203.174578 -122.946235 
L 202.849599 -123.253744 
L 202.524619 -123.569118 
L 202.19964 -123.892478 
L 201.87466 -124.223939 
L 201.549681 -124.563612 
L 201.224701 -124.911603 
L 200.899722 -125.268011 
L 200.574742 -125.63293 
L 200.249762 -126.006446 
L 199.924783 -126.388637 
L 199.599803 -126.779576 
L 199.274824 -127.179323 
L 198.949844 -127.587932 
L 198.624865 -128.005446 
L 198.299885 -128.431898 
L 197.974906 -128.867312 
L 197.649926 -129.311698 
L 197.324947 -129.765059 
L 196.999967 -130.227383 
L 196.674988 -130.698648 
L 196.350008 -131.178819 
L 196.025029 -131.667851 
L 195.700049 -132.165683 
L 195.37507 -132.672246 
L 195.05009 -133.187457 
L 194.725111 -133.71122 
L 194.400131 -134.243428 
L 194.075152 -134.783963 
L 193.750172 -135.332694 
L 193.425192 -135.88948 
L 193.100213 -136.454166 
L 192.775233 -137.026591 
L 192.450254 -137.606579 
L 192.125274 -138.193947 
L 191.800295 -138.7885 
L 191.475315 -139.390038 
L 191.150336 -139.998347 
L 190.825356 -140.613208 
L 190.500377 -141.234395 
L 190.175397 -141.861672 
L 189.850418 -142.494798 
L 189.525438 -143.133525 
L 189.200459 -143.7776 
L 188.875479 -144.426764 
L 188.5505 -145.080753 
L 188.22552 -145.739298 
L 187.900541 -146.402128 
L 187.575561 -147.068967 
L 187.250581 -147.739535 
L 186.925602 -148.413552 
L 186.600622 -149.090733 
L 186.275643 -149.770792 
L 185.950663 -150.453443 
L 185.625684 -151.138396 
L 185.300704 -151.825362 
L 184.975725 -152.51405 
L 184.650745 -153.204171 
L 184.325766 -153.895434 
L 184.000786 -154.58755 
L 183.675807 -155.280228 
L 183.350827 -155.97318 
L 183.025848 -156.66612 
L 182.700868 -157.35876 
L 182.375889 -158.050817 
L 182.050909 -158.742008 
L 181.72593 -159.432052 
L 181.40095 -160.120671 
L 181.075971 -160.807589 
L 180.750991 -161.492532 
L 180.426011 -162.175231 
L 180.101032 -162.855417 
L 179.776052 -163.532827 
L 179.451073 -164.207198 
L 179.126093 -164.878275 
L 178.801114 -165.545802 
L 178.476134 -166.20953 
L 178.151155 -166.869213 
L 177.826175 -167.52461 
L 177.501196 -168.175483 
L 177.176216 -168.821598 
L 176.851237 -169.46273 
L 176.526257 -170.098653 
L 176.201278 -170.72915 
L 175.876298 -171.354007 
L 175.551319 -171.973018 
L 175.226339 -172.585981 
L 174.90136 -173.192699 
L 174.57638 -173.792982 
L 174.2514 -174.386646 
L 173.926421 -174.973514 
L 173.601441 -175.553415 
L 173.276462 -176.126183 
L 172.951482 -176.691663 
L 172.626503 -177.249704 
L 172.301523 -177.800164 
L 171.976544 -178.342908 
L 171.651564 -178.877809 
L 171.326585 -179.40475 
L 171.001605 -179.92362 
L 170.676626 -180.434318 
L 170.351646 -180.936754 
L 170.026667 -181.430844 
L 169.701687 -181.916518 
L 169.376708 -182.393713 
L 169.051728 -182.862377 
L 168.726749 -183.322472 
L 168.401769 -183.773968 
L 168.07679 -184.216849 
L 167.75181 -184.651111 
L 167.42683 -185.076764 
L 167.101851 -185.493828 
L 166.776871 -185.902342 
L 166.451892 -186.302357 
L 166.126912 -186.693938 
L 165.801933 -187.07717 
L 165.476953 -187.452151 
L 165.151974 -187.818998 
L 164.826994 -188.177847 
L 164.502015 -188.528851 
L 164.177035 -188.872184 
L 163.852056 -189.20804 
L 163.527076 -189.536637 
L 163.202097 -189.858211 
L 162.877117 -190.173026 
L 162.552138 -190.481366 
L 162.227158 -190.783544 
L 161.902179 -191.079896 
L 161.577199 -191.370787 
L 161.252219 -191.656609 
L 160.92724 -191.937781 
L 160.60226 -192.214754 
L 160.277281 -192.488006 
L 159.952301 -192.758046 
L 159.627322 -193.025413 
L 159.302342 -193.290677 
L 158.977363 -193.554435 
L 158.652383 -193.817316 
L 158.327404 -194.079975 
L 158.002424 -194.343094 
L 157.677445 -194.607379 
L 157.352465 -194.87356 
L 157.027486 -195.142383 
L 156.702506 -195.414611 
L 156.377527 -195.691019 
L 156.052547 -195.972385 
L 155.727568 -196.259492 
L 155.402588 -196.553114 
L 155.077609 -196.854017 
L 154.752629 -197.162946 
L 154.427649 -197.480622 
L 154.10267 -197.807733 
L 153.77769 -198.144927 
L 153.452711 -198.492806 
L 153.127731 -198.85192 
L 152.802752 -199.222758 
L 152.477772 -199.605748 
L 152.152793 -200.001248 
L 151.827813 -200.409545 
L 151.502834 -200.830855 
L 151.177854 -201.26532 
L 150.852875 -201.713007 
L 150.527895 -202.173915 
L 150.202916 -202.647972 
L 149.877936 -203.135041 
L 149.552957 -203.634925 
L 149.227977 -204.147369 
L 148.902998 -204.67207 
L 148.578018 -205.208678 
L 148.253038 -205.756806 
L 147.928059 -206.316029 
L 147.603079 -206.8859 
L 147.2781 -207.465945 
L 146.95312 -208.055675 
L 146.628141 -208.654587 
L 146.303161 -209.262168 
L 145.978182 -209.877904 
L 145.653202 -210.501276 
L 145.328223 -211.131768 
L 145.003243 -211.768868 
L 144.678264 -212.41207 
L 144.353284 -213.060877 
L 144.028305 -213.714799 
L 143.703325 -214.373359 
L 143.378346 -215.036091 
L 143.053366 -215.702539 
L 142.728387 -216.372264 
L 142.403407 -217.044836 
L 142.078428 -217.71984 
L 141.753448 -218.396874 
L 141.428468 -219.075549 
L 141.103489 -219.755489 
L 140.778509 -220.436331 
L 140.45353 -221.117723 
L 140.12855 -221.799329 
L 139.803571 -222.480822 
L 139.478591 -223.161886 
L 139.153612 -223.842219 
L 138.828632 -224.521528 
L 138.503653 -225.199532 
L 138.178673 -225.875958 
L 137.853694 -226.550545 
L 137.528714 -227.223041 
L 137.203735 -227.893202 
L 136.878755 -228.560795 
L 136.553776 -229.225593 
L 136.228796 -229.887379 
L 135.903817 -230.545944 
L 135.578837 -231.201086 
L 135.253857 -231.852611 
L 134.928878 -232.500331 
L 134.603898 -233.144066 
L 134.278919 -233.783642 
L 133.953939 -234.418893 
L 133.62896 -235.049658 
L 133.30398 -235.675783 
L 132.979001 -236.297117 
L 132.654021 -236.913519 
L 132.329042 -237.524852 
L 132.004062 -238.130982 
L 131.679083 -238.731784 
L 131.354103 -239.327137 
L 131.029124 -239.916923 
L 130.704144 -240.501031 
L 130.379165 -241.079355 
L 130.054185 -241.651792 
L 129.729206 -242.218246 
L 129.404226 -242.778622 
L 129.079247 -243.332833 
L 128.754267 -243.880794 
L 128.429287 -244.422424 
L 128.104308 -244.957649 
L 127.779328 -245.486396 
L 127.454349 -246.008596 
L 127.129369 -246.524187 
L 126.80439 -247.033107 
L 126.47941 -247.5353 
L 126.154431 -248.030714 
L 125.829451 -248.519298 
L 125.504472 -249.001008 
L 125.179492 -249.475801 
L 124.854513 -249.943638 
L 124.529533 -250.404485 
L 124.204554 -250.858308 
L 123.879574 -251.30508 
L 123.554595 -251.744774 
L 123.229615 -252.177369 
L 122.904636 -252.602845 
L 122.579656 -253.021185 
L 122.254676 -253.432378 
L 121.929697 -253.836411 
L 121.604717 -254.233279 
L 121.279738 -254.622977 
L 120.954758 -255.005502 
L 120.629779 -255.380857 
L 120.304799 -255.749044 
L 119.97982 -256.110071 
L 119.65484 -256.463946 
L 119.329861 -256.81068 
L 119.004881 -257.150289 
L 118.679902 -257.482789 
L 118.354922 -257.808199 
L 118.029943 -258.12654 
L 117.704963 -258.437835 
L 117.379984 -258.742112 
L 117.055004 -259.039398 
L 116.730025 -259.329724 
L 116.405045 -259.613121 
L 116.080066 -259.889626 
L 115.755086 -260.159274 
L 115.430106 -260.422105 
L 115.105127 -260.678158 
L 114.780147 -260.927477 
L 114.455168 -261.170105 
L 114.130188 -261.406089 
L 113.805209 -261.635478 
L 113.480229 -261.858319 
L 113.15525 -262.074665 
L 112.83027 -262.284569 
L 112.505291 -262.488085 
L 112.180311 -262.685268 
L 111.855332 -262.876177 
L 111.530352 -263.06087 
L 111.205373 -263.239407 
L 110.880393 -263.41185 
L 110.555414 -263.578261 
L 110.230434 -263.738705 
L 109.905455 -263.893246 
L 109.580475 -264.041952 
L 109.255495 -264.184888 
L 108.930516 -264.322124 
L 108.605536 -264.453729 
L 108.280557 -264.579774 
L 107.955577 -264.700329 
L 107.630598 -264.815466 
L 107.305618 -264.925259 
L 106.980639 -265.029781 
L 106.655659 -265.129106 
L 106.33068 -265.22331 
L 106.0057 -265.312467 
L 105.680721 -265.396655 
L 105.355741 -265.475949 
L 105.030762 -265.550428 
L 104.705782 -265.620167 
L 104.380803 -265.685247 
L 104.055823 -265.745745 
L 103.730844 -265.801739 
L 103.405864 -265.853309 
L 103.080885 -265.900534 
L 102.755905 -265.943494 
L 102.430925 -265.982268 
L 102.105946 -266.016935 
L 101.780966 -266.047576 
L 101.455987 -266.07427 
L 101.131007 -266.097097 
L 100.806028 -266.116137 
L 100.481048 -266.131469 
L 100.156069 -266.143174 
L 99.831089 -266.15133 
L 99.50611 -266.156018 
L 99.18113 -266.157315 
L 98.856151 -266.155301 
L 98.531171 -266.150054 
L 98.206192 -266.141653 
L 97.881212 -266.130176 
L 97.556233 -266.115699 
L 97.231253 -266.098301 
L 96.906274 -266.078057 
L 96.581294 -266.055045 
L 96.256314 -266.029339 
L 95.931335 -266.001015 
L 95.606355 -265.970148 
L 95.281376 -265.936812 
L 94.956396 -265.90108 
L 94.631417 -265.863025 
L 94.306437 -265.822721 
L 93.981458 -265.780237 
L 93.656478 -265.735645 
L 93.331499 -265.689016 
L 93.006519 -265.640419 
L 92.68154 -265.589923 
L 92.35656 -265.537596 
L 92.031581 -265.483504 
L 91.706601 -265.427716 
L 91.381622 -265.370295 
L 91.056642 -265.311307 
L 90.731663 -265.250816 
L 90.406683 -265.188886 
L 90.081704 -265.125577 
L 89.756724 -265.060953 
L 89.431744 -264.995073 
L 89.106765 -264.927996 
L 88.781785 -264.859782 
L 88.456806 -264.790488 
L 88.131826 -264.720172 
L 87.806847 -264.648888 
L 87.481867 -264.576692 
L 87.156888 -264.503638 
L 86.831908 -264.429779 
L 86.506929 -264.355167 
L 86.181949 -264.279853 
L 85.85697 -264.203887 
L 85.53199 -264.127318 
L 85.207011 -264.050195 
L 84.882031 -263.972564 
L 84.557052 -263.894473 
L 84.232072 -263.815965 
L 83.907093 -263.737085 
L 83.582113 -263.657877 
L 83.257133 -263.578383 
L 82.932154 -263.498644 
L 82.607174 -263.4187 
L 82.282195 -263.338591 
L 81.957215 -263.258356 
L 81.632236 -263.17803 
L 81.307256 -263.097652 
L 80.982277 -263.017256 
L 80.657297 -262.936876 
L 80.332318 -262.856548 
L 80.007338 -262.776302 
L 79.682359 -262.696172 
L 79.357379 -262.616186 
L 79.0324 -262.536377 
L 78.70742 -262.456772 
L 78.382441 -262.377399 
L 78.057461 -262.298285 
L 77.732482 -262.219458 
L 77.407502 -262.140942 
L 77.082523 -262.062761 
L 76.757543 -261.98494 
L 76.432563 -261.907501 
L 76.107584 -261.830466 
L 75.782604 -261.753856 
L 75.457625 -261.677692 
L 75.132645 -261.601993 
L 74.807666 -261.526777 
L 74.482686 -261.452064 
L 74.157707 -261.377869 
L 73.832727 -261.30421 
z
" style="stroke: #ff7f0e; stroke-opacity: 0.25"/>
    </defs>
    <g clip-path="url(#pe452348d78)">
     <use xlink:href="#mf16b4ad7d6" x="0" y="345.6" style="fill: #ff7f0e; fill-opacity: 0.25; stroke: #ff7f0e; stroke-opacity: 0.25"/>
    </g>
   </g>
   <g id="matplotlib.axis_1">
    <g id="xtick_1">
     <g id="line2d_1">
      <defs>
       <path id="mb7291262b6" d="M 0 0 
L 0 3.5 
" style="stroke: #000000; stroke-width: 0.8"/>
      </defs>
      <g>
       <use xlink:href="#mb7291262b6" x="73.832727" y="307.584" style="stroke: #000000; stroke-width: 0.8"/>
      </g>
     </g>
     <g id="text_1">
      <!-- 0 -->
      <g transform="translate(70.651477 322.182437)scale(0.1 -0.1)">
       <defs>
        <path id="DejaVuSans-30" d="M 2034 4250 
Q 1547 4250 1301 3770 
Q 1056 3291 1056 2328 
Q 1056 1369 1301 889 
Q 1547 409 2034 409 
Q 2525 409 2770 889 
Q 3016 1369 3016 2328 
Q 3016 3291 2770 3770 
Q 2525 4250 2034 4250 
z
M 2034 4750 
Q 2819 4750 3233 4129 
Q 3647 3509 3647 2328 
Q 3647 1150 3233 529 
Q 2819 -91 2034 -91 
Q 1250 -91 836 529 
Q 422 1150 422 2328 
Q 422 3509 836 4129 
Q 1250 4750 2034 4750 
z
" transform="scale(0.015625)"/>
       </defs>
       <use xlink:href="#DejaVuSans-30"/>
      </g>
     </g>
    </g>
    <g id="xtick_2">
     <g id="line2d_2">
      <g>
       <use xlink:href="#mb7291262b6" x="138.763636" y="307.584" style="stroke: #000000; stroke-width: 0.8"/>
      </g>
     </g>
     <g id="text_2">
      <!-- 2 -->
      <g transform="translate(135.582386 322.182437)scale(0.1 -0.1)">
       <defs>
        <path id="DejaVuSans-32" d="M 1228 531 
L 3431 531 
L 3431 0 
L 469 0 
L 469 531 
Q 828 903 1448 1529 
Q 2069 2156 2228 2338 
Q 2531 2678 2651 2914 
Q 2772 3150 2772 3378 
Q 2772 3750 2511 3984 
Q 2250 4219 1831 4219 
Q 1534 4219 1204 4116 
Q 875 4013 500 3803 
L 500 4441 
Q 881 4594 1212 4672 
Q 1544 4750 1819 4750 
Q 2544 4750 2975 4387 
Q 3406 4025 3406 3419 
Q 3406 3131 3298 2873 
Q 3191 2616 2906 2266 
Q 2828 2175 2409 1742 
Q 1991 1309 1228 531 
z
" transform="scale(0.015625)"/>
       </defs>
       <use xlink:href="#DejaVuSans-32"/>
      </g>
     </g>
    </g>
    <g id="xtick_3">
     <g id="line2d_3">
      <g>
       <use xlink:href="#mb7291262b6" x="203.694545" y="307.584" style="stroke: #000000; stroke-width: 0.8"/>
      </g>
     </g>
     <g id="text_3">
      <!-- 4 -->
      <g transform="translate(200.513295 322.182437)scale(0.1 -0.1)">
       <defs>
        <path id="DejaVuSans-34" d="M 2419 4116 
L 825 1625 
L 2419 1625 
L 2419 4116 
z
M 2253 4666 
L 3047 4666 
L 3047 1625 
L 3713 1625 
L 3713 1100 
L 3047 1100 
L 3047 0 
L 2419 0 
L 2419 1100 
L 313 1100 
L 313 1709 
L 2253 4666 
z
" transform="scale(0.015625)"/>
       </defs>
       <use xlink:href="#DejaVuSans-34"/>
      </g>
     </g>
    </g>
    <g id="xtick_4">
     <g id="line2d_4">
      <g>
       <use xlink:href="#mb7291262b6" x="268.625455" y="307.584" style="stroke: #000000; stroke-width: 0.8"/>
      </g>
     </g>
     <g id="text_4">
      <!-- 6 -->
      <g transform="translate(265.444205 322.182437)scale(0.1 -0.1)">
       <defs>
        <path id="DejaVuSans-36" d="M 2113 2584 
Q 1688 2584 1439 2293 
Q 1191 2003 1191 1497 
Q 1191 994 1439 701 
Q 1688 409 2113 409 
Q 2538 409 2786 701 
Q 3034 994 3034 1497 
Q 3034 2003 2786 2293 
Q 2538 2584 2113 2584 
z
M 3366 4563 
L 3366 3988 
Q 3128 4100 2886 4159 
Q 2644 4219 2406 4219 
Q 1781 4219 1451 3797 
Q 1122 3375 1075 2522 
Q 1259 2794 1537 2939 
Q 1816 3084 2150 3084 
Q 2853 3084 3261 2657 
Q 3669 2231 3669 1497 
Q 3669 778 3244 343 
Q 2819 -91 2113 -91 
Q 1303 -91 875 529 
Q 447 1150 447 2328 
Q 447 3434 972 4092 
Q 1497 4750 2381 4750 
Q 2619 4750 2861 4703 
Q 3103 4656 3366 4563 
z
" transform="scale(0.015625)"/>
       </defs>
       <use xlink:href="#DejaVuSans-36"/>
      </g>
     </g>
    </g>
    <g id="xtick_5">
     <g id="line2d_5">
      <g>
       <use xlink:href="#mb7291262b6" x="333.556364" y="307.584" style="stroke: #000000; stroke-width: 0.8"/>
      </g>
     </g>
     <g id="text_5">
      <!-- 8 -->
      <g transform="translate(330.375114 322.182437)scale(0.1 -0.1)">
       <defs>
        <path id="DejaVuSans-38" d="M 2034 2216 
Q 1584 2216 1326 1975 
Q 1069 1734 1069 1313 
Q 1069 891 1326 650 
Q 1584 409 2034 409 
Q 2484 409 2743 651 
Q 3003 894 3003 1313 
Q 3003 1734 2745 1975 
Q 2488 2216 2034 2216 
z
M 1403 2484 
Q 997 2584 770 2862 
Q 544 3141 544 3541 
Q 544 4100 942 4425 
Q 1341 4750 2034 4750 
Q 2731 4750 3128 4425 
Q 3525 4100 3525 3541 
Q 3525 3141 3298 2862 
Q 3072 2584 2669 2484 
Q 3125 2378 3379 2068 
Q 3634 1759 3634 1313 
Q 3634 634 3220 271 
Q 2806 -91 2034 -91 
Q 1263 -91 848 271 
Q 434 634 434 1313 
Q 434 1759 690 2068 
Q 947 2378 1403 2484 
z
M 1172 3481 
Q 1172 3119 1398 2916 
Q 1625 2713 2034 2713 
Q 2441 2713 2670 2916 
Q 2900 3119 2900 3481 
Q 2900 3844 2670 4047 
Q 2441 4250 2034 4250 
Q 1625 4250 1398 4047 
Q 1172 3844 1172 3481 
z
" transform="scale(0.015625)"/>
       </defs>
       <use xlink:href="#DejaVuSans-38"/>
      </g>
     </g>
    </g>
    <g id="xtick_6">
     <g id="line2d_6">
      <g>
       <use xlink:href="#mb7291262b6" x="398.487273" y="307.584" style="stroke: #000000; stroke-width: 0.8"/>
      </g>
     </g>
     <g id="text_6">
      <!-- 10 -->
      <g transform="translate(392.124773 322.182437)scale(0.1 -0.1)">
       <defs>
        <path id="DejaVuSans-31" d="M 794 531 
L 1825 531 
L 1825 4091 
L 703 3866 
L 703 4441 
L 1819 4666 
L 2450 4666 
L 2450 531 
L 3481 531 
L 3481 0 
L 794 0 
L 794 531 
z
" transform="scale(0.015625)"/>
       </defs>
       <use xlink:href="#DejaVuSans-31"/>
       <use xlink:href="#DejaVuSans-30" x="63.623047"/>
      </g>
     </g>
    </g>
    <g id="text_7">
     <!-- $x$ -->
     <g transform="translate(233.16 335.860562)scale(0.1 -0.1)">
      <defs>
       <path id="DejaVuSans-Oblique-78" d="M 3841 3500 
L 2234 1784 
L 3219 0 
L 2559 0 
L 1819 1388 
L 531 0 
L -166 0 
L 1556 1844 
L 641 3500 
L 1300 3500 
L 1972 2234 
L 3144 3500 
L 3841 3500 
z
" transform="scale(0.015625)"/>
      </defs>
      <use xlink:href="#DejaVuSans-Oblique-78" transform="translate(0 0.3125)"/>
     </g>
    </g>
   </g>
   <g id="matplotlib.axis_2">
    <g id="ytick_1">
     <g id="line2d_7">
      <defs>
       <path id="me6ea281a26" d="M 0 0 
L -3.5 0 
" style="stroke: #000000; stroke-width: 0.8"/>
      </defs>
      <g>
       <use xlink:href="#me6ea281a26" x="57.6" y="282.467833" style="stroke: #000000; stroke-width: 0.8"/>
      </g>
     </g>
     <g id="text_8">
      <!-- 7.5 -->
      <g transform="translate(26.317187 286.267052)scale(0.1 -0.1)">
       <defs>
        <path id="DejaVuSans-2212" d="M 678 2272 
L 4684 2272 
L 4684 1741 
L 678 1741 
L 678 2272 
z
" transform="scale(0.015625)"/>
        <path id="DejaVuSans-37" d="M 525 4666 
L 3525 4666 
L 3525 4397 
L 1831 0 
L 1172 0 
L 2766 4134 
L 525 4134 
L 525 4666 
z
" transform="scale(0.015625)"/>
        <path id="DejaVuSans-2e" d="M 684 794 
L 1344 794 
L 1344 0 
L 684 0 
L 684 794 
z
" transform="scale(0.015625)"/>
        <path id="DejaVuSans-35" d="M 691 4666 
L 3169 4666 
L 3169 4134 
L 1269 4134 
L 1269 2991 
Q 1406 3038 1543 3061 
Q 1681 3084 1819 3084 
Q 2600 3084 3056 2656 
Q 3513 2228 3513 1497 
Q 3513 744 3044 326 
Q 2575 -91 1722 -91 
Q 1428 -91 1123 -41 
Q 819 9 494 109 
L 494 744 
Q 775 591 1075 516 
Q 1375 441 1709 441 
Q 2250 441 2565 725 
Q 2881 1009 2881 1497 
Q 2881 1984 2565 2268 
Q 2250 2553 1709 2553 
Q 1456 2553 1204 2497 
Q 953 2441 691 2322 
L 691 4666 
z
" transform="scale(0.015625)"/>
       </defs>
       <use xlink:href="#DejaVuSans-2212"/>
       <use xlink:href="#DejaVuSans-37" x="83.789062"/>
       <use xlink:href="#DejaVuSans-2e" x="147.412109"/>
       <use xlink:href="#DejaVuSans-35" x="179.199219"/>
      </g>
     </g>
    </g>
    <g id="ytick_2">
     <g id="line2d_8">
      <g>
       <use xlink:href="#me6ea281a26" x="57.6" y="251.950685" style="stroke: #000000; stroke-width: 0.8"/>
      </g>
     </g>
     <g id="text_9">
      <!-- 5.0 -->
      <g transform="translate(26.317187 255.749904)scale(0.1 -0.1)">
       <use xlink:href="#DejaVuSans-2212"/>
       <use xlink:href="#DejaVuSans-35" x="83.789062"/>
       <use xlink:href="#DejaVuSans-2e" x="147.412109"/>
       <use xlink:href="#DejaVuSans-30" x="179.199219"/>
      </g>
     </g>
    </g>
    <g id="ytick_3">
     <g id="line2d_9">
      <g>
       <use xlink:href="#me6ea281a26" x="57.6" y="221.433536" style="stroke: #000000; stroke-width: 0.8"/>
      </g>
     </g>
     <g id="text_10">
      <!-- 2.5 -->
      <g transform="translate(26.317187 225.232755)scale(0.1 -0.1)">
       <use xlink:href="#DejaVuSans-2212"/>
       <use xlink:href="#DejaVuSans-32" x="83.789062"/>
       <use xlink:href="#DejaVuSans-2e" x="147.412109"/>
       <use xlink:href="#DejaVuSans-35" x="179.199219"/>
      </g>
     </g>
    </g>
    <g id="ytick_4">
     <g id="line2d_10">
      <g>
       <use xlink:href="#me6ea281a26" x="57.6" y="190.916388" style="stroke: #000000; stroke-width: 0.8"/>
      </g>
     </g>
     <g id="text_11">
      <!-- 0.0 -->
      <g transform="translate(34.696875 194.715607)scale(0.1 -0.1)">
       <use xlink:href="#DejaVuSans-30"/>
       <use xlink:href="#DejaVuSans-2e" x="63.623047"/>
       <use xlink:href="#DejaVuSans-30" x="95.410156"/>
      </g>
     </g>
    </g>
    <g id="ytick_5">
     <g id="line2d_11">
      <g>
       <use xlink:href="#me6ea281a26" x="57.6" y="160.39924" style="stroke: #000000; stroke-width: 0.8"/>
      </g>
     </g>
     <g id="text_12">
      <!-- 2.5 -->
      <g transform="translate(34.696875 164.198459)scale(0.1 -0.1)">
       <use xlink:href="#DejaVuSans-32"/>
       <use xlink:href="#DejaVuSans-2e" x="63.623047"/>
       <use xlink:href="#DejaVuSans-35" x="95.410156"/>
      </g>
     </g>
    </g>
    <g id="ytick_6">
     <g id="line2d_12">
      <g>
       <use xlink:href="#me6ea281a26" x="57.6" y="129.882091" style="stroke: #000000; stroke-width: 0.8"/>
      </g>
     </g>
     <g id="text_13">
      <!-- 5.0 -->
      <g transform="translate(34.696875 133.68131)scale(0.1 -0.1)">
       <use xlink:href="#DejaVuSans-35"/>
       <use xlink:href="#DejaVuSans-2e" x="63.623047"/>
       <use xlink:href="#DejaVuSans-30" x="95.410156"/>
      </g>
     </g>
    </g>
    <g id="ytick_7">
     <g id="line2d_13">
      <g>
       <use xlink:href="#me6ea281a26" x="57.6" y="99.364943" style="stroke: #000000; stroke-width: 0.8"/>
      </g>
     </g>
     <g id="text_14">
      <!-- 7.5 -->
      <g transform="translate(34.696875 103.164162)scale(0.1 -0.1)">
       <use xlink:href="#DejaVuSans-37"/>
       <use xlink:href="#DejaVuSans-2e" x="63.623047"/>
       <use xlink:href="#DejaVuSans-35" x="95.410156"/>
      </g>
     </g>
    </g>
    <g id="ytick_8">
     <g id="line2d_14">
      <g>
       <use xlink:href="#me6ea281a26" x="57.6" y="68.847795" style="stroke: #000000; stroke-width: 0.8"/>
      </g>
     </g>
     <g id="text_15">
      <!-- 10.0 -->
      <g transform="translate(28.334375 72.647013)scale(0.1 -0.1)">
       <use xlink:href="#DejaVuSans-31"/>
       <use xlink:href="#DejaVuSans-30" x="63.623047"/>
       <use xlink:href="#DejaVuSans-2e" x="127.246094"/>
       <use xlink:href="#DejaVuSans-30" x="159.033203"/>
      </g>
     </g>
    </g>
    <g id="text_16">
     <!-- $y$ -->
     <g transform="translate(20.217188 177.528)rotate(-90)scale(0.1 -0.1)">
      <defs>
       <path id="DejaVuSans-Oblique-79" d="M 1588 -325 
Q 1188 -997 936 -1164 
Q 684 -1331 294 -1331 
L -159 -1331 
L -63 -850 
L 269 -850 
Q 509 -850 678 -719 
Q 847 -588 1056 -206 
L 1234 128 
L 459 3500 
L 1069 3500 
L 1650 819 
L 3256 3500 
L 3859 3500 
L 1588 -325 
z
" transform="scale(0.015625)"/>
      </defs>
      <use xlink:href="#DejaVuSans-Oblique-79" transform="translate(0 0.3125)"/>
     </g>
    </g>
   </g>
   <g id="line2d_15">
    <path d="M 73.832727 189.891895 
L 77.732482 188.577056 
L 81.632236 187.034901 
L 85.53199 185.254977 
L 89.431744 183.234846 
L 93.656478 180.78466 
L 98.206192 177.871938 
L 103.405864 174.270403 
L 118.679902 163.481404 
L 122.254676 161.335213 
L 125.179492 159.815306 
L 127.779328 158.685898 
L 130.379165 157.800725 
L 132.654021 157.252304 
L 134.928878 156.936416 
L 137.203735 156.871739 
L 139.153612 157.028802 
L 141.103489 157.391445 
L 143.053366 157.966969 
L 145.003243 158.760953 
L 146.95312 159.777124 
L 148.902998 161.017242 
L 151.177854 162.746586 
L 153.452711 164.776174 
L 155.727568 167.097944 
L 158.327404 170.093579 
L 160.92724 173.430916 
L 163.852056 177.555827 
L 167.101851 182.537588 
L 171.001605 188.955381 
L 176.201278 197.990288 
L 186.275643 215.57795 
L 190.175397 221.896721 
L 193.425192 226.772179 
L 196.350008 230.78675 
L 198.949844 234.016893 
L 201.549681 236.898593 
L 203.824537 239.116076 
L 206.099394 241.037402 
L 208.374251 242.654215 
L 210.324128 243.793766 
L 212.274005 244.704501 
L 214.223882 245.386718 
L 216.173759 245.842234 
L 218.123636 246.074267 
L 220.073514 246.087296 
L 222.023391 245.886917 
L 223.973268 245.479686 
L 226.248124 244.752996 
L 228.522981 243.767541 
L 230.797838 242.536878 
L 233.397674 240.84815 
L 235.99751 238.878564 
L 238.922326 236.352799 
L 241.847142 233.525719 
L 245.096937 230.062202 
L 248.671712 225.895731 
L 252.246486 221.388086 
L 256.146241 216.111353 
L 260.370975 209.997163 
L 264.595708 203.486333 
L 269.145422 196.043205 
L 273.695135 188.165505 
L 278.569828 179.270807 
L 284.09448 168.698729 
L 291.893989 153.210417 
L 300.018477 137.191723 
L 304.24321 129.347456 
L 307.493006 123.734157 
L 310.417821 119.100752 
L 313.017658 115.387528 
L 315.292514 112.500577 
L 317.567371 109.992147 
L 319.517248 108.17102 
L 321.467125 106.675979 
L 323.092023 105.693096 
L 324.716921 104.959849 
L 326.341818 104.484789 
L 327.966716 104.275055 
L 329.591613 104.336258 
L 331.216511 104.672378 
L 332.841409 105.285682 
L 334.466306 106.176651 
L 336.091204 107.343929 
L 337.716102 108.784295 
L 339.340999 110.49265 
L 341.290876 112.88648 
L 343.240753 115.640554 
L 345.51561 119.283132 
L 347.790467 123.3533 
L 350.390303 128.473918 
L 353.315119 134.746536 
L 356.889894 142.989337 
L 361.764586 154.868496 
L 370.864013 177.142277 
L 374.763767 186.011216 
L 378.013563 192.835832 
L 380.938378 198.441637 
L 383.538215 202.946037 
L 385.813071 206.491562 
L 388.087928 209.652453 
L 390.362785 212.420679 
L 392.312662 214.479245 
L 394.262539 216.249855 
L 396.212416 217.737485 
L 398.162293 218.949762 
L 398.487273 219.125709 
L 398.487273 219.125709 
" clip-path="url(#pe452348d78)" style="fill: none; stroke: #ff7f0e; stroke-width: 1.5; stroke-linecap: square"/>
   </g>
   <g id="line2d_16">
    <path d="M 73.832727 190.916388 
L 77.082523 190.794279 
L 80.332318 190.430397 
L 83.582113 189.832041 
L 86.831908 189.011252 
L 90.406683 187.871423 
L 94.306437 186.377219 
L 98.531171 184.5136 
L 103.730844 181.966323 
L 120.629779 173.46792 
L 124.529533 171.855439 
L 128.104308 170.614262 
L 131.354103 169.723936 
L 134.278919 169.144851 
L 137.203735 168.799136 
L 139.803571 168.703673 
L 142.403407 168.820184 
L 145.003243 169.158903 
L 147.603079 169.728121 
L 150.202916 170.534072 
L 152.802752 171.580821 
L 155.402588 172.870189 
L 158.002424 174.401676 
L 160.60226 176.172424 
L 163.527076 178.443878 
L 166.451892 181.000342 
L 169.701687 184.156885 
L 172.951482 187.620987 
L 176.526257 191.74921 
L 180.750991 196.991506 
L 185.625684 203.412475 
L 193.425192 214.11573 
L 200.899722 224.254889 
L 205.449435 230.061412 
L 209.02421 234.298471 
L 212.274005 237.829985 
L 215.198821 240.698808 
L 217.798657 242.969306 
L 220.398493 244.949089 
L 222.67335 246.423337 
L 224.948206 247.640434 
L 227.223063 248.58605 
L 229.17294 249.170589 
L 231.122817 249.53869 
L 233.072695 249.683768 
L 235.022572 249.600084 
L 236.972449 249.282785 
L 238.922326 248.727939 
L 240.872203 247.93257 
L 242.82208 246.894683 
L 244.771957 245.613291 
L 246.721835 244.088437 
L 248.996691 242.003239 
L 251.271548 239.591728 
L 253.546405 236.859419 
L 256.146241 233.353669 
L 258.746077 229.453101 
L 261.670893 224.615134 
L 264.595708 219.329944 
L 267.845504 212.975818 
L 271.420278 205.464659 
L 275.320033 196.742435 
L 280.194726 185.244027 
L 287.344275 167.699582 
L 296.118722 146.261661 
L 300.668436 135.724002 
L 304.56819 127.253869 
L 307.817985 120.70766 
L 310.742801 115.288905 
L 313.342637 110.897656 
L 315.942473 106.94753 
L 318.21733 103.881917 
L 320.492187 101.205044 
L 322.442064 99.236086 
L 324.391941 97.580571 
L 326.341818 96.249682 
L 327.966716 95.395873 
L 329.591613 94.779696 
L 331.216511 94.405752 
L 332.841409 94.278034 
L 334.466306 94.399906 
L 336.091204 94.774088 
L 337.716102 95.402642 
L 339.340999 96.286958 
L 340.965897 97.427745 
L 342.590794 98.825021 
L 344.540672 100.839309 
L 346.490549 103.219408 
L 348.440426 105.961337 
L 350.390303 109.059645 
L 352.66516 113.115453 
L 354.940016 117.633373 
L 357.539853 123.341729 
L 360.139689 129.604208 
L 363.064505 137.271092 
L 365.98932 145.545208 
L 369.239115 155.37886 
L 373.13887 167.945846 
L 377.688583 183.447748 
L 383.538215 204.250809 
L 396.212416 249.576385 
L 398.487273 257.32428 
L 398.487273 257.32428 
" clip-path="url(#pe452348d78)" style="fill: none; stroke: #1f77b4; stroke-width: 1.5; stroke-linecap: square"/>
   </g>
   <g id="LineCollection_1">
    <path d="M 238.597346 246.001646 
L 238.597346 227.691356 
" clip-path="url(#pe452348d78)" style="fill: none; stroke: #000000; stroke-width: 1.5"/>
    <path d="M 339.665979 116.223764 
L 339.665979 97.913475 
" clip-path="url(#pe452348d78)" style="fill: none; stroke: #000000; stroke-width: 1.5"/>
    <path d="M 220.723473 255.956257 
L 220.723473 237.645968 
" clip-path="url(#pe452348d78)" style="fill: none; stroke: #000000; stroke-width: 1.5"/>
    <path d="M 193.425192 237.099321 
L 193.425192 218.789032 
" clip-path="url(#pe452348d78)" style="fill: none; stroke: #000000; stroke-width: 1.5"/>
    <path d="M 152.477772 171.334122 
L 152.477772 153.023833 
" clip-path="url(#pe452348d78)" style="fill: none; stroke: #000000; stroke-width: 1.5"/>
    <path d="M 375.738706 199.383285 
L 375.738706 181.072996 
" clip-path="url(#pe452348d78)" style="fill: none; stroke: #000000; stroke-width: 1.5"/>
   </g>
   <g id="line2d_17">
    <defs>
     <path id="mbade15148d" d="M 0 3.75 
C 0.994512 3.75 1.948425 3.354876 2.65165 2.65165 
C 3.354876 1.948425 3.75 0.994512 3.75 0 
C 3.75 -0.994512 3.354876 -1.948425 2.65165 -2.65165 
C 1.948425 -3.354876 0.994512 -3.75 0 -3.75 
C -0.994512 -3.75 -1.948425 -3.354876 -2.65165 -2.65165 
C -3.354876 -1.948425 -3.75 -0.994512 -3.75 0 
C -3.75 0.994512 -3.354876 1.948425 -2.65165 2.65165 
C -1.948425 3.354876 -0.994512 3.75 0 3.75 
z
" style="stroke: #000000"/>
    </defs>
    <g clip-path="url(#pe452348d78)">
     <use xlink:href="#mbade15148d" x="238.597346" y="236.846501" style="stroke: #000000"/>
     <use xlink:href="#mbade15148d" x="339.665979" y="107.06862" style="stroke: #000000"/>
     <use xlink:href="#mbade15148d" x="220.723473" y="246.801112" style="stroke: #000000"/>
     <use xlink:href="#mbade15148d" x="193.425192" y="227.944177" style="stroke: #000000"/>
     <use xlink:href="#mbade15148d" x="152.477772" y="162.178978" style="stroke: #000000"/>
     <use xlink:href="#mbade15148d" x="375.738706" y="190.228141" style="stroke: #000000"/>
    </g>
   </g>
   <g id="patch_3">
    <path d="M 57.6 307.584 
L 57.6 41.472 
" style="fill: none; stroke: #000000; stroke-width: 0.8; stroke-linejoin: miter; stroke-linecap: square"/>
   </g>
   <g id="patch_4">
    <path d="M 414.72 307.584 
L 414.72 41.472 
" style="fill: none; stroke: #000000; stroke-width: 0.8; stroke-linejoin: miter; stroke-linecap: square"/>
   </g>
   <g id="patch_5">
    <path d="M 57.6 307.584 
L 414.72 307.584 
" style="fill: none; stroke: #000000; stroke-width: 0.8; stroke-linejoin: miter; stroke-linecap: square"/>
   </g>
   <g id="patch_6">
    <path d="M 57.6 41.472 
L 414.72 41.472 
" style="fill: none; stroke: #000000; stroke-width: 0.8; stroke-linejoin: miter; stroke-linecap: square"/>
   </g>
   <g id="legend_1">
    <g id="patch_7">
     <path d="M 64.6 108.206375 
L 219.707813 108.206375 
Q 221.707813 108.206375 221.707813 106.206375 
L 221.707813 48.472 
Q 221.707813 46.472 219.707813 46.472 
L 64.6 46.472 
Q 62.6 46.472 62.6 48.472 
L 62.6 106.206375 
Q 62.6 108.206375 64.6 108.206375 
z
" style="fill: #ffffff; opacity: 0.8; stroke: #cccccc; stroke-linejoin: miter"/>
    </g>
    <g id="line2d_18">
     <path d="M 66.6 54.570438 
L 76.6 54.570438 
L 86.6 54.570438 
" style="fill: none; stroke: #ff7f0e; stroke-width: 1.5; stroke-linecap: square"/>
    </g>
    <g id="text_17">
     <!-- Mean Prediction -->
     <g transform="translate(94.6 58.070438)scale(0.1 -0.1)">
      <defs>
       <path id="DejaVuSans-4d" d="M 628 4666 
L 1569 4666 
L 2759 1491 
L 3956 4666 
L 4897 4666 
L 4897 0 
L 4281 0 
L 4281 4097 
L 3078 897 
L 2444 897 
L 1241 4097 
L 1241 0 
L 628 0 
L 628 4666 
z
" transform="scale(0.015625)"/>
       <path id="DejaVuSans-65" d="M 3597 1894 
L 3597 1613 
L 953 1613 
Q 991 1019 1311 708 
Q 1631 397 2203 397 
Q 2534 397 2845 478 
Q 3156 559 3463 722 
L 3463 178 
Q 3153 47 2828 -22 
Q 2503 -91 2169 -91 
Q 1331 -91 842 396 
Q 353 884 353 1716 
Q 353 2575 817 3079 
Q 1281 3584 2069 3584 
Q 2775 3584 3186 3129 
Q 3597 2675 3597 1894 
z
M 3022 2063 
Q 3016 2534 2758 2815 
Q 2500 3097 2075 3097 
Q 1594 3097 1305 2825 
Q 1016 2553 972 2059 
L 3022 2063 
z
" transform="scale(0.015625)"/>
       <path id="DejaVuSans-61" d="M 2194 1759 
Q 1497 1759 1228 1600 
Q 959 1441 959 1056 
Q 959 750 1161 570 
Q 1363 391 1709 391 
Q 2188 391 2477 730 
Q 2766 1069 2766 1631 
L 2766 1759 
L 2194 1759 
z
M 3341 1997 
L 3341 0 
L 2766 0 
L 2766 531 
Q 2569 213 2275 61 
Q 1981 -91 1556 -91 
Q 1019 -91 701 211 
Q 384 513 384 1019 
Q 384 1609 779 1909 
Q 1175 2209 1959 2209 
L 2766 2209 
L 2766 2266 
Q 2766 2663 2505 2880 
Q 2244 3097 1772 3097 
Q 1472 3097 1187 3025 
Q 903 2953 641 2809 
L 641 3341 
Q 956 3463 1253 3523 
Q 1550 3584 1831 3584 
Q 2591 3584 2966 3190 
Q 3341 2797 3341 1997 
z
" transform="scale(0.015625)"/>
       <path id="DejaVuSans-6e" d="M 3513 2113 
L 3513 0 
L 2938 0 
L 2938 2094 
Q 2938 2591 2744 2837 
Q 2550 3084 2163 3084 
Q 1697 3084 1428 2787 
Q 1159 2491 1159 1978 
L 1159 0 
L 581 0 
L 581 3500 
L 1159 3500 
L 1159 2956 
Q 1366 3272 1645 3428 
Q 1925 3584 2291 3584 
Q 2894 3584 3203 3211 
Q 3513 2838 3513 2113 
z
" transform="scale(0.015625)"/>
       <path id="DejaVuSans-20" transform="scale(0.015625)"/>
       <path id="DejaVuSans-50" d="M 1259 4147 
L 1259 2394 
L 2053 2394 
Q 2494 2394 2734 2622 
Q 2975 2850 2975 3272 
Q 2975 3691 2734 3919 
Q 2494 4147 2053 4147 
L 1259 4147 
z
M 628 4666 
L 2053 4666 
Q 2838 4666 3239 4311 
Q 3641 3956 3641 3272 
Q 3641 2581 3239 2228 
Q 2838 1875 2053 1875 
L 1259 1875 
L 1259 0 
L 628 0 
L 628 4666 
z
" transform="scale(0.015625)"/>
       <path id="DejaVuSans-72" d="M 2631 2963 
Q 2534 3019 2420 3045 
Q 2306 3072 2169 3072 
Q 1681 3072 1420 2755 
Q 1159 2438 1159 1844 
L 1159 0 
L 581 0 
L 581 3500 
L 1159 3500 
L 1159 2956 
Q 1341 3275 1631 3429 
Q 1922 3584 2338 3584 
Q 2397 3584 2469 3576 
Q 2541 3569 2628 3553 
L 2631 2963 
z
" transform="scale(0.015625)"/>
       <path id="DejaVuSans-64" d="M 2906 2969 
L 2906 4863 
L 3481 4863 
L 3481 0 
L 2906 0 
L 2906 525 
Q 2725 213 2448 61 
Q 2172 -91 1784 -91 
Q 1150 -91 751 415 
Q 353 922 353 1747 
Q 353 2572 751 3078 
Q 1150 3584 1784 3584 
Q 2172 3584 2448 3432 
Q 2725 3281 2906 2969 
z
M 947 1747 
Q 947 1113 1208 752 
Q 1469 391 1925 391 
Q 2381 391 2643 752 
Q 2906 1113 2906 1747 
Q 2906 2381 2643 2742 
Q 2381 3103 1925 3103 
Q 1469 3103 1208 2742 
Q 947 2381 947 1747 
z
" transform="scale(0.015625)"/>
       <path id="DejaVuSans-69" d="M 603 3500 
L 1178 3500 
L 1178 0 
L 603 0 
L 603 3500 
z
M 603 4863 
L 1178 4863 
L 1178 4134 
L 603 4134 
L 603 4863 
z
" transform="scale(0.015625)"/>
       <path id="DejaVuSans-63" d="M 3122 3366 
L 3122 2828 
Q 2878 2963 2633 3030 
Q 2388 3097 2138 3097 
Q 1578 3097 1268 2742 
Q 959 2388 959 1747 
Q 959 1106 1268 751 
Q 1578 397 2138 397 
Q 2388 397 2633 464 
Q 2878 531 3122 666 
L 3122 134 
Q 2881 22 2623 -34 
Q 2366 -91 2075 -91 
Q 1284 -91 818 406 
Q 353 903 353 1747 
Q 353 2603 823 3093 
Q 1294 3584 2113 3584 
Q 2378 3584 2631 3529 
Q 2884 3475 3122 3366 
z
" transform="scale(0.015625)"/>
       <path id="DejaVuSans-74" d="M 1172 4494 
L 1172 3500 
L 2356 3500 
L 2356 3053 
L 1172 3053 
L 1172 1153 
Q 1172 725 1289 603 
Q 1406 481 1766 481 
L 2356 481 
L 2356 0 
L 1766 0 
Q 1100 0 847 248 
Q 594 497 594 1153 
L 594 3053 
L 172 3053 
L 172 3500 
L 594 3500 
L 594 4494 
L 1172 4494 
z
" transform="scale(0.015625)"/>
       <path id="DejaVuSans-6f" d="M 1959 3097 
Q 1497 3097 1228 2736 
Q 959 2375 959 1747 
Q 959 1119 1226 758 
Q 1494 397 1959 397 
Q 2419 397 2687 759 
Q 2956 1122 2956 1747 
Q 2956 2369 2687 2733 
Q 2419 3097 1959 3097 
z
M 1959 3584 
Q 2709 3584 3137 3096 
Q 3566 2609 3566 1747 
Q 3566 888 3137 398 
Q 2709 -91 1959 -91 
Q 1206 -91 779 398 
Q 353 888 353 1747 
Q 353 2609 779 3096 
Q 1206 3584 1959 3584 
z
" transform="scale(0.015625)"/>
      </defs>
      <use xlink:href="#DejaVuSans-4d"/>
      <use xlink:href="#DejaVuSans-65" x="86.279297"/>
      <use xlink:href="#DejaVuSans-61" x="147.802734"/>
      <use xlink:href="#DejaVuSans-6e" x="209.082031"/>
      <use xlink:href="#DejaVuSans-20" x="272.460938"/>
      <use xlink:href="#DejaVuSans-50" x="304.248047"/>
      <use xlink:href="#DejaVuSans-72" x="362.800781"/>
      <use xlink:href="#DejaVuSans-65" x="401.664062"/>
      <use xlink:href="#DejaVuSans-64" x="463.1875"/>
      <use xlink:href="#DejaVuSans-69" x="526.664062"/>
      <use xlink:href="#DejaVuSans-63" x="554.447266"/>
      <use xlink:href="#DejaVuSans-74" x="609.427734"/>
      <use xlink:href="#DejaVuSans-69" x="648.636719"/>
      <use xlink:href="#DejaVuSans-6f" x="676.419922"/>
      <use xlink:href="#DejaVuSans-6e" x="737.601562"/>
     </g>
    </g>
    <g id="line2d_19">
     <path d="M 66.6 69.250125 
L 76.6 69.250125 
L 86.6 69.250125 
" style="fill: none; stroke: #1f77b4; stroke-width: 1.5; stroke-linecap: square"/>
    </g>
    <g id="text_18">
     <!-- $y = x\sin x$ -->
     <g transform="translate(94.6 72.750125)scale(0.1 -0.1)">
      <defs>
       <path id="DejaVuSans-3d" d="M 678 2906 
L 4684 2906 
L 4684 2381 
L 678 2381 
L 678 2906 
z
M 678 1631 
L 4684 1631 
L 4684 1100 
L 678 1100 
L 678 1631 
z
" transform="scale(0.015625)"/>
       <path id="DejaVuSans-73" d="M 2834 3397 
L 2834 2853 
Q 2591 2978 2328 3040 
Q 2066 3103 1784 3103 
Q 1356 3103 1142 2972 
Q 928 2841 928 2578 
Q 928 2378 1081 2264 
Q 1234 2150 1697 2047 
L 1894 2003 
Q 2506 1872 2764 1633 
Q 3022 1394 3022 966 
Q 3022 478 2636 193 
Q 2250 -91 1575 -91 
Q 1294 -91 989 -36 
Q 684 19 347 128 
L 347 722 
Q 666 556 975 473 
Q 1284 391 1588 391 
Q 1994 391 2212 530 
Q 2431 669 2431 922 
Q 2431 1156 2273 1281 
Q 2116 1406 1581 1522 
L 1381 1569 
Q 847 1681 609 1914 
Q 372 2147 372 2553 
Q 372 3047 722 3315 
Q 1072 3584 1716 3584 
Q 2034 3584 2315 3537 
Q 2597 3491 2834 3397 
z
" transform="scale(0.015625)"/>
      </defs>
      <use xlink:href="#DejaVuSans-Oblique-79" transform="translate(0 0.015625)"/>
      <use xlink:href="#DejaVuSans-3d" transform="translate(78.662109 0.015625)"/>
      <use xlink:href="#DejaVuSans-Oblique-78" transform="translate(181.933594 0.015625)"/>
      <use xlink:href="#DejaVuSans-73" transform="translate(241.113281 0.015625)"/>
      <use xlink:href="#DejaVuSans-69" transform="translate(293.212891 0.015625)"/>
      <use xlink:href="#DejaVuSans-6e" transform="translate(320.996094 0.015625)"/>
      <use xlink:href="#DejaVuSans-Oblique-78" transform="translate(400.610676 0.015625)"/>
     </g>
    </g>
    <g id="patch_8">
     <path d="M 66.6 87.448563 
L 86.6 87.448563 
L 86.6 80.448563 
L 66.6 80.448563 
z
" style="fill: #ff7f0e; fill-opacity: 0.25; stroke: #ff7f0e; stroke-opacity: 0.25; stroke-linejoin: miter"/>
    </g>
    <g id="text_19">
     <!-- 95% Confidence Interval -->
     <g transform="translate(94.6 87.448563)scale(0.1 -0.1)">
      <defs>
       <path id="DejaVuSans-39" d="M 703 97 
L 703 672 
Q 941 559 1184 500 
Q 1428 441 1663 441 
Q 2288 441 2617 861 
Q 2947 1281 2994 2138 
Q 2813 1869 2534 1725 
Q 2256 1581 1919 1581 
Q 1219 1581 811 2004 
Q 403 2428 403 3163 
Q 403 3881 828 4315 
Q 1253 4750 1959 4750 
Q 2769 4750 3195 4129 
Q 3622 3509 3622 2328 
Q 3622 1225 3098 567 
Q 2575 -91 1691 -91 
Q 1453 -91 1209 -44 
Q 966 3 703 97 
z
M 1959 2075 
Q 2384 2075 2632 2365 
Q 2881 2656 2881 3163 
Q 2881 3666 2632 3958 
Q 2384 4250 1959 4250 
Q 1534 4250 1286 3958 
Q 1038 3666 1038 3163 
Q 1038 2656 1286 2365 
Q 1534 2075 1959 2075 
z
" transform="scale(0.015625)"/>
       <path id="DejaVuSans-25" d="M 4653 2053 
Q 4381 2053 4226 1822 
Q 4072 1591 4072 1178 
Q 4072 772 4226 539 
Q 4381 306 4653 306 
Q 4919 306 5073 539 
Q 5228 772 5228 1178 
Q 5228 1588 5073 1820 
Q 4919 2053 4653 2053 
z
M 4653 2450 
Q 5147 2450 5437 2106 
Q 5728 1763 5728 1178 
Q 5728 594 5436 251 
Q 5144 -91 4653 -91 
Q 4153 -91 3862 251 
Q 3572 594 3572 1178 
Q 3572 1766 3864 2108 
Q 4156 2450 4653 2450 
z
M 1428 4353 
Q 1159 4353 1004 4120 
Q 850 3888 850 3481 
Q 850 3069 1003 2837 
Q 1156 2606 1428 2606 
Q 1700 2606 1854 2837 
Q 2009 3069 2009 3481 
Q 2009 3884 1853 4118 
Q 1697 4353 1428 4353 
z
M 4250 4750 
L 4750 4750 
L 1831 -91 
L 1331 -91 
L 4250 4750 
z
M 1428 4750 
Q 1922 4750 2215 4408 
Q 2509 4066 2509 3481 
Q 2509 2891 2217 2550 
Q 1925 2209 1428 2209 
Q 931 2209 642 2551 
Q 353 2894 353 3481 
Q 353 4063 643 4406 
Q 934 4750 1428 4750 
z
" transform="scale(0.015625)"/>
       <path id="DejaVuSans-43" d="M 4122 4306 
L 4122 3641 
Q 3803 3938 3442 4084 
Q 3081 4231 2675 4231 
Q 1875 4231 1450 3742 
Q 1025 3253 1025 2328 
Q 1025 1406 1450 917 
Q 1875 428 2675 428 
Q 3081 428 3442 575 
Q 3803 722 4122 1019 
L 4122 359 
Q 3791 134 3420 21 
Q 3050 -91 2638 -91 
Q 1578 -91 968 557 
Q 359 1206 359 2328 
Q 359 3453 968 4101 
Q 1578 4750 2638 4750 
Q 3056 4750 3426 4639 
Q 3797 4528 4122 4306 
z
" transform="scale(0.015625)"/>
       <path id="DejaVuSans-66" d="M 2375 4863 
L 2375 4384 
L 1825 4384 
Q 1516 4384 1395 4259 
Q 1275 4134 1275 3809 
L 1275 3500 
L 2222 3500 
L 2222 3053 
L 1275 3053 
L 1275 0 
L 697 0 
L 697 3053 
L 147 3053 
L 147 3500 
L 697 3500 
L 697 3744 
Q 697 4328 969 4595 
Q 1241 4863 1831 4863 
L 2375 4863 
z
" transform="scale(0.015625)"/>
       <path id="DejaVuSans-49" d="M 628 4666 
L 1259 4666 
L 1259 0 
L 628 0 
L 628 4666 
z
" transform="scale(0.015625)"/>
       <path id="DejaVuSans-76" d="M 191 3500 
L 800 3500 
L 1894 563 
L 2988 3500 
L 3597 3500 
L 2284 0 
L 1503 0 
L 191 3500 
z
" transform="scale(0.015625)"/>
       <path id="DejaVuSans-6c" d="M 603 4863 
L 1178 4863 
L 1178 0 
L 603 0 
L 603 4863 
z
" transform="scale(0.015625)"/>
      </defs>
      <use xlink:href="#DejaVuSans-39"/>
      <use xlink:href="#DejaVuSans-35" x="63.623047"/>
      <use xlink:href="#DejaVuSans-25" x="127.246094"/>
      <use xlink:href="#DejaVuSans-20" x="222.265625"/>
      <use xlink:href="#DejaVuSans-43" x="254.052734"/>
      <use xlink:href="#DejaVuSans-6f" x="323.876953"/>
      <use xlink:href="#DejaVuSans-6e" x="385.058594"/>
      <use xlink:href="#DejaVuSans-66" x="448.4375"/>
      <use xlink:href="#DejaVuSans-69" x="483.642578"/>
      <use xlink:href="#DejaVuSans-64" x="511.425781"/>
      <use xlink:href="#DejaVuSans-65" x="574.902344"/>
      <use xlink:href="#DejaVuSans-6e" x="636.425781"/>
      <use xlink:href="#DejaVuSans-63" x="699.804688"/>
      <use xlink:href="#DejaVuSans-65" x="754.785156"/>
      <use xlink:href="#DejaVuSans-20" x="816.308594"/>
      <use xlink:href="#DejaVuSans-49" x="848.095703"/>
      <use xlink:href="#DejaVuSans-6e" x="877.587891"/>
      <use xlink:href="#DejaVuSans-74" x="940.966797"/>
      <use xlink:href="#DejaVuSans-65" x="980.175781"/>
      <use xlink:href="#DejaVuSans-72" x="1041.699219"/>
      <use xlink:href="#DejaVuSans-76" x="1082.8125"/>
      <use xlink:href="#DejaVuSans-61" x="1141.992188"/>
      <use xlink:href="#DejaVuSans-6c" x="1203.271484"/>
     </g>
    </g>
    <g id="LineCollection_2">
     <path d="M 76.6 103.626688 
L 76.6 93.626688 
" style="fill: none; stroke: #000000; stroke-width: 1.5"/>
    </g>
    <g id="line2d_20"/>
    <g id="line2d_21">
     <g>
      <use xlink:href="#mbade15148d" x="76.6" y="98.626688" style="stroke: #000000"/>
     </g>
    </g>
    <g id="text_20">
     <!-- Observation -->
     <g transform="translate(94.6 102.126688)scale(0.1 -0.1)">
      <defs>
       <path id="DejaVuSans-4f" d="M 2522 4238 
Q 1834 4238 1429 3725 
Q 1025 3213 1025 2328 
Q 1025 1447 1429 934 
Q 1834 422 2522 422 
Q 3209 422 3611 934 
Q 4013 1447 4013 2328 
Q 4013 3213 3611 3725 
Q 3209 4238 2522 4238 
z
M 2522 4750 
Q 3503 4750 4090 4092 
Q 4678 3434 4678 2328 
Q 4678 1225 4090 567 
Q 3503 -91 2522 -91 
Q 1538 -91 948 565 
Q 359 1222 359 2328 
Q 359 3434 948 4092 
Q 1538 4750 2522 4750 
z
" transform="scale(0.015625)"/>
       <path id="DejaVuSans-62" d="M 3116 1747 
Q 3116 2381 2855 2742 
Q 2594 3103 2138 3103 
Q 1681 3103 1420 2742 
Q 1159 2381 1159 1747 
Q 1159 1113 1420 752 
Q 1681 391 2138 391 
Q 2594 391 2855 752 
Q 3116 1113 3116 1747 
z
M 1159 2969 
Q 1341 3281 1617 3432 
Q 1894 3584 2278 3584 
Q 2916 3584 3314 3078 
Q 3713 2572 3713 1747 
Q 3713 922 3314 415 
Q 2916 -91 2278 -91 
Q 1894 -91 1617 61 
Q 1341 213 1159 525 
L 1159 0 
L 581 0 
L 581 4863 
L 1159 4863 
L 1159 2969 
z
" transform="scale(0.015625)"/>
      </defs>
      <use xlink:href="#DejaVuSans-4f"/>
      <use xlink:href="#DejaVuSans-62" x="78.710938"/>
      <use xlink:href="#DejaVuSans-73" x="142.1875"/>
      <use xlink:href="#DejaVuSans-65" x="194.287109"/>
      <use xlink:href="#DejaVuSans-72" x="255.810547"/>
      <use xlink:href="#DejaVuSans-76" x="296.923828"/>
      <use xlink:href="#DejaVuSans-61" x="356.103516"/>
      <use xlink:href="#DejaVuSans-74" x="417.382812"/>
      <use xlink:href="#DejaVuSans-69" x="456.591797"/>
      <use xlink:href="#DejaVuSans-6f" x="484.375"/>
      <use xlink:href="#DejaVuSans-6e" x="545.556641"/>
     </g>
    </g>
   </g>
  </g>
 </g>
 <defs>
  <clipPath id="pe452348d78">
   <rect x="57.6" y="41.472" width="357.12" height="266.112"/>
  </clipPath>
 </defs>
</svg>
