<?xml version="1.0" encoding="utf-8" standalone="no"?>
<!DOCTYPE svg PUBLIC "-//W3C//DTD SVG 1.1//EN"
  "http://www.w3.org/Graphics/SVG/1.1/DTD/svg11.dtd">
<svg xmlns:xlink="http://www.w3.org/1999/xlink" width="460.8pt" height="345.6pt" viewBox="0 0 460.8 345.6" xmlns="http://www.w3.org/2000/svg" version="1.1">
 <metadata>
  <rdf:RDF xmlns:dc="http://purl.org/dc/elements/1.1/" xmlns:cc="http://creativecommons.org/ns#" xmlns:rdf="http://www.w3.org/1999/02/22-rdf-syntax-ns#">
   <cc:Work>
    <dc:type rdf:resource="http://purl.org/dc/dcmitype/StillImage"/>
    <dc:date>2023-10-29T15:17:31.206190</dc:date>
    <dc:format>image/svg+xml</dc:format>
    <dc:creator>
     <cc:Agent>
      <dc:title>Matplotlib v3.8.0, https://matplotlib.org/</dc:title>
     </cc:Agent>
    </dc:creator>
   </cc:Work>
  </rdf:RDF>
 </metadata>
 <defs>
  <style type="text/css">*{stroke-linejoin: round; stroke-linecap: butt}</style>
 </defs>
 <g id="figure_1">
  <g id="patch_1">
   <path d="M 0 345.6 
L 460.8 345.6 
L 460.8 0 
L 0 0 
z
" style="fill: #ffffff"/>
  </g>
  <g id="axes_1">
   <g id="patch_2">
    <path d="M 57.6 307.584 
L 414.72 307.584 
L 414.72 41.472 
L 57.6 41.472 
z
" style="fill: #ffffff"/>
   </g>
   <g id="PathCollection_1">
    <defs>
     <path id="C0_0_63d9b34e7f" d="M 0 3.535534 
C 0.937635 3.535534 1.836992 3.163008 2.5 2.5 
C 3.163008 1.836992 3.535534 0.937635 3.535534 -0 
C 3.535534 -0.937635 3.163008 -1.836992 2.5 -2.5 
C 1.836992 -3.163008 0.937635 -3.535534 0 -3.535534 
C -0.937635 -3.535534 -1.836992 -3.163008 -2.5 -2.5 
C -3.163008 -1.836992 -3.535534 -0.937635 -3.535534 0 
C -3.535534 0.937635 -3.163008 1.836992 -2.5 2.5 
C -1.836992 3.163008 -0.937635 3.535534 0 3.535534 
z
"/>
    </defs>
    <g clip-path="url(#p2dc65b9f5f)">
     <use xlink:href="#C0_0_63d9b34e7f" x="302.824339" y="78.927895" style="fill: #1f77b4; stroke: #1f77b4"/>
    </g>
    <g clip-path="url(#p2dc65b9f5f)">
     <use xlink:href="#C0_0_63d9b34e7f" x="195.871603" y="145.502715" style="fill: #ff7f0e; stroke: #ff7f0e"/>
    </g>
    <g clip-path="url(#p2dc65b9f5f)">
     <use xlink:href="#C0_0_63d9b34e7f" x="186.60481" y="213.089027" style="fill: #ff7f0e; stroke: #ff7f0e"/>
    </g>
    <g clip-path="url(#p2dc65b9f5f)">
     <use xlink:href="#C0_0_63d9b34e7f" x="124.595549" y="217.949333" style="fill: #1f77b4; stroke: #1f77b4"/>
    </g>
    <g clip-path="url(#p2dc65b9f5f)">
     <use xlink:href="#C0_0_63d9b34e7f" x="228.126665" y="124.283011" style="fill: #ff7f0e; stroke: #ff7f0e"/>
    </g>
    <g clip-path="url(#p2dc65b9f5f)">
     <use xlink:href="#C0_0_63d9b34e7f" x="362.286914" y="177.798959" style="fill: #1f77b4; stroke: #1f77b4"/>
    </g>
    <g clip-path="url(#p2dc65b9f5f)">
     <use xlink:href="#C0_0_63d9b34e7f" x="342.128357" y="99.549653" style="fill: #1f77b4; stroke: #1f77b4"/>
    </g>
    <g clip-path="url(#p2dc65b9f5f)">
     <use xlink:href="#C0_0_63d9b34e7f" x="293.968761" y="180.14335" style="fill: #ff7f0e; stroke: #ff7f0e"/>
    </g>
    <g clip-path="url(#p2dc65b9f5f)">
     <use xlink:href="#C0_0_63d9b34e7f" x="189.410709" y="221.311943" style="fill: #ff7f0e; stroke: #ff7f0e"/>
    </g>
    <g clip-path="url(#p2dc65b9f5f)">
     <use xlink:href="#C0_0_63d9b34e7f" x="352.59134" y="115.867474" style="fill: #1f77b4; stroke: #1f77b4"/>
    </g>
    <g clip-path="url(#p2dc65b9f5f)">
     <use xlink:href="#C0_0_63d9b34e7f" x="129.186141" y="151.845641" style="fill: #1f77b4; stroke: #1f77b4"/>
    </g>
    <g clip-path="url(#p2dc65b9f5f)">
     <use xlink:href="#C0_0_63d9b34e7f" x="219.601873" y="110.618652" style="fill: #ff7f0e; stroke: #ff7f0e"/>
    </g>
    <g clip-path="url(#p2dc65b9f5f)">
     <use xlink:href="#C0_0_63d9b34e7f" x="176.219399" y="175.043492" style="fill: #ff7f0e; stroke: #ff7f0e"/>
    </g>
    <g clip-path="url(#p2dc65b9f5f)">
     <use xlink:href="#C0_0_63d9b34e7f" x="248.62226" y="125.624639" style="fill: #ff7f0e; stroke: #ff7f0e"/>
    </g>
    <g clip-path="url(#p2dc65b9f5f)">
     <use xlink:href="#C0_0_63d9b34e7f" x="121.855749" y="161.16902" style="fill: #1f77b4; stroke: #1f77b4"/>
    </g>
    <g clip-path="url(#p2dc65b9f5f)">
     <use xlink:href="#C0_0_63d9b34e7f" x="303.849499" y="285.121549" style="fill: #1f77b4; stroke: #1f77b4"/>
    </g>
    <g clip-path="url(#p2dc65b9f5f)">
     <use xlink:href="#C0_0_63d9b34e7f" x="183.792801" y="173.073526" style="fill: #ff7f0e; stroke: #ff7f0e"/>
    </g>
    <g clip-path="url(#p2dc65b9f5f)">
     <use xlink:href="#C0_0_63d9b34e7f" x="244.049503" y="291.392095" style="fill: #1f77b4; stroke: #1f77b4"/>
    </g>
    <g clip-path="url(#p2dc65b9f5f)">
     <use xlink:href="#C0_0_63d9b34e7f" x="280.883756" y="144.304957" style="fill: #ff7f0e; stroke: #ff7f0e"/>
    </g>
    <g clip-path="url(#p2dc65b9f5f)">
     <use xlink:href="#C0_0_63d9b34e7f" x="180.248249" y="183.210921" style="fill: #ff7f0e; stroke: #ff7f0e"/>
    </g>
    <g clip-path="url(#p2dc65b9f5f)">
     <use xlink:href="#C0_0_63d9b34e7f" x="197.760813" y="278.707874" style="fill: #1f77b4; stroke: #1f77b4"/>
    </g>
    <g clip-path="url(#p2dc65b9f5f)">
     <use xlink:href="#C0_0_63d9b34e7f" x="236.145992" y="229.702762" style="fill: #ff7f0e; stroke: #ff7f0e"/>
    </g>
    <g clip-path="url(#p2dc65b9f5f)">
     <use xlink:href="#C0_0_63d9b34e7f" x="156.671803" y="91.243593" style="fill: #1f77b4; stroke: #1f77b4"/>
    </g>
    <g clip-path="url(#p2dc65b9f5f)">
     <use xlink:href="#C0_0_63d9b34e7f" x="125.196735" y="232.587422" style="fill: #1f77b4; stroke: #1f77b4"/>
    </g>
    <g clip-path="url(#p2dc65b9f5f)">
     <use xlink:href="#C0_0_63d9b34e7f" x="162.261685" y="266.530628" style="fill: #1f77b4; stroke: #1f77b4"/>
    </g>
    <g clip-path="url(#p2dc65b9f5f)">
     <use xlink:href="#C0_0_63d9b34e7f" x="260.292475" y="230.419367" style="fill: #ff7f0e; stroke: #ff7f0e"/>
    </g>
    <g clip-path="url(#p2dc65b9f5f)">
     <use xlink:href="#C0_0_63d9b34e7f" x="219.245888" y="225.470999" style="fill: #ff7f0e; stroke: #ff7f0e"/>
    </g>
    <g clip-path="url(#p2dc65b9f5f)">
     <use xlink:href="#C0_0_63d9b34e7f" x="296.561161" y="68.471109" style="fill: #1f77b4; stroke: #1f77b4"/>
    </g>
    <g clip-path="url(#p2dc65b9f5f)">
     <use xlink:href="#C0_0_63d9b34e7f" x="296.477487" y="149.043591" style="fill: #ff7f0e; stroke: #ff7f0e"/>
    </g>
    <g clip-path="url(#p2dc65b9f5f)">
     <use xlink:href="#C0_0_63d9b34e7f" x="289.863123" y="283.917086" style="fill: #1f77b4; stroke: #1f77b4"/>
    </g>
    <g clip-path="url(#p2dc65b9f5f)">
     <use xlink:href="#C0_0_63d9b34e7f" x="127.402916" y="123.333962" style="fill: #1f77b4; stroke: #1f77b4"/>
    </g>
    <g clip-path="url(#p2dc65b9f5f)">
     <use xlink:href="#C0_0_63d9b34e7f" x="250.559796" y="227.989554" style="fill: #ff7f0e; stroke: #ff7f0e"/>
    </g>
    <g clip-path="url(#p2dc65b9f5f)">
     <use xlink:href="#C0_0_63d9b34e7f" x="177.994202" y="271.532569" style="fill: #1f77b4; stroke: #1f77b4"/>
    </g>
    <g clip-path="url(#p2dc65b9f5f)">
     <use xlink:href="#C0_0_63d9b34e7f" x="190.494275" y="122.646584" style="fill: #ff7f0e; stroke: #ff7f0e"/>
    </g>
    <g clip-path="url(#p2dc65b9f5f)">
     <use xlink:href="#C0_0_63d9b34e7f" x="220.60691" y="229.249585" style="fill: #ff7f0e; stroke: #ff7f0e"/>
    </g>
    <g clip-path="url(#p2dc65b9f5f)">
     <use xlink:href="#C0_0_63d9b34e7f" x="228.209835" y="231.893633" style="fill: #ff7f0e; stroke: #ff7f0e"/>
    </g>
    <g clip-path="url(#p2dc65b9f5f)">
     <use xlink:href="#C0_0_63d9b34e7f" x="292.033335" y="206.473809" style="fill: #ff7f0e; stroke: #ff7f0e"/>
    </g>
    <g clip-path="url(#p2dc65b9f5f)">
     <use xlink:href="#C0_0_63d9b34e7f" x="294.96709" y="196.720536" style="fill: #ff7f0e; stroke: #ff7f0e"/>
    </g>
    <g clip-path="url(#p2dc65b9f5f)">
     <use xlink:href="#C0_0_63d9b34e7f" x="243.181453" y="105.679994" style="fill: #ff7f0e; stroke: #ff7f0e"/>
    </g>
    <g clip-path="url(#p2dc65b9f5f)">
     <use xlink:href="#C0_0_63d9b34e7f" x="242.779725" y="55.022798" style="fill: #1f77b4; stroke: #1f77b4"/>
    </g>
    <g clip-path="url(#p2dc65b9f5f)">
     <use xlink:href="#C0_0_63d9b34e7f" x="142.737198" y="102.641289" style="fill: #1f77b4; stroke: #1f77b4"/>
    </g>
    <g clip-path="url(#p2dc65b9f5f)">
     <use xlink:href="#C0_0_63d9b34e7f" x="239.507199" y="242.815618" style="fill: #ff7f0e; stroke: #ff7f0e"/>
    </g>
    <g clip-path="url(#p2dc65b9f5f)">
     <use xlink:href="#C0_0_63d9b34e7f" x="223.343545" y="290.602036" style="fill: #1f77b4; stroke: #1f77b4"/>
    </g>
    <g clip-path="url(#p2dc65b9f5f)">
     <use xlink:href="#C0_0_63d9b34e7f" x="265.19132" y="123.436909" style="fill: #ff7f0e; stroke: #ff7f0e"/>
    </g>
    <g clip-path="url(#p2dc65b9f5f)">
     <use xlink:href="#C0_0_63d9b34e7f" x="362.076197" y="159.775492" style="fill: #1f77b4; stroke: #1f77b4"/>
    </g>
    <g clip-path="url(#p2dc65b9f5f)">
     <use xlink:href="#C0_0_63d9b34e7f" x="178.317521" y="167.476021" style="fill: #ff7f0e; stroke: #ff7f0e"/>
    </g>
    <g clip-path="url(#p2dc65b9f5f)">
     <use xlink:href="#C0_0_63d9b34e7f" x="259.699909" y="53.568" style="fill: #1f77b4; stroke: #1f77b4"/>
    </g>
    <g clip-path="url(#p2dc65b9f5f)">
     <use xlink:href="#C0_0_63d9b34e7f" x="188.966286" y="207.48277" style="fill: #ff7f0e; stroke: #ff7f0e"/>
    </g>
    <g clip-path="url(#p2dc65b9f5f)">
     <use xlink:href="#C0_0_63d9b34e7f" x="223.647658" y="64.193635" style="fill: #1f77b4; stroke: #1f77b4"/>
    </g>
    <g clip-path="url(#p2dc65b9f5f)">
     <use xlink:href="#C0_0_63d9b34e7f" x="288.991347" y="146.905153" style="fill: #ff7f0e; stroke: #ff7f0e"/>
    </g>
    <g clip-path="url(#p2dc65b9f5f)">
     <use xlink:href="#C0_0_63d9b34e7f" x="180.30302" y="67.319018" style="fill: #1f77b4; stroke: #1f77b4"/>
    </g>
    <g clip-path="url(#p2dc65b9f5f)">
     <use xlink:href="#C0_0_63d9b34e7f" x="115.241142" y="188.102123" style="fill: #1f77b4; stroke: #1f77b4"/>
    </g>
    <g clip-path="url(#p2dc65b9f5f)">
     <use xlink:href="#C0_0_63d9b34e7f" x="297.741856" y="157.639306" style="fill: #ff7f0e; stroke: #ff7f0e"/>
    </g>
    <g clip-path="url(#p2dc65b9f5f)">
     <use xlink:href="#C0_0_63d9b34e7f" x="334.135849" y="246.755217" style="fill: #1f77b4; stroke: #1f77b4"/>
    </g>
    <g clip-path="url(#p2dc65b9f5f)">
     <use xlink:href="#C0_0_63d9b34e7f" x="320.555048" y="92.062955" style="fill: #1f77b4; stroke: #1f77b4"/>
    </g>
    <g clip-path="url(#p2dc65b9f5f)">
     <use xlink:href="#C0_0_63d9b34e7f" x="294.524108" y="179.797373" style="fill: #ff7f0e; stroke: #ff7f0e"/>
    </g>
    <g clip-path="url(#p2dc65b9f5f)">
     <use xlink:href="#C0_0_63d9b34e7f" x="149.477707" y="245.265506" style="fill: #1f77b4; stroke: #1f77b4"/>
    </g>
    <g clip-path="url(#p2dc65b9f5f)">
     <use xlink:href="#C0_0_63d9b34e7f" x="319.627868" y="269.672018" style="fill: #1f77b4; stroke: #1f77b4"/>
    </g>
    <g clip-path="url(#p2dc65b9f5f)">
     <use xlink:href="#C0_0_63d9b34e7f" x="178.637239" y="157.769647" style="fill: #ff7f0e; stroke: #ff7f0e"/>
    </g>
    <g clip-path="url(#p2dc65b9f5f)">
     <use xlink:href="#C0_0_63d9b34e7f" x="309.961317" y="262.41319" style="fill: #1f77b4; stroke: #1f77b4"/>
    </g>
    <g clip-path="url(#p2dc65b9f5f)">
     <use xlink:href="#C0_0_63d9b34e7f" x="201.332442" y="61.592917" style="fill: #1f77b4; stroke: #1f77b4"/>
    </g>
    <g clip-path="url(#p2dc65b9f5f)">
     <use xlink:href="#C0_0_63d9b34e7f" x="281.002044" y="214.89697" style="fill: #ff7f0e; stroke: #ff7f0e"/>
    </g>
    <g clip-path="url(#p2dc65b9f5f)">
     <use xlink:href="#C0_0_63d9b34e7f" x="162.666164" y="101.815924" style="fill: #1f77b4; stroke: #1f77b4"/>
    </g>
    <g clip-path="url(#p2dc65b9f5f)">
     <use xlink:href="#C0_0_63d9b34e7f" x="227.774257" y="56.523545" style="fill: #1f77b4; stroke: #1f77b4"/>
    </g>
    <g clip-path="url(#p2dc65b9f5f)">
     <use xlink:href="#C0_0_63d9b34e7f" x="124.96226" y="131.544459" style="fill: #1f77b4; stroke: #1f77b4"/>
    </g>
    <g clip-path="url(#p2dc65b9f5f)">
     <use xlink:href="#C0_0_63d9b34e7f" x="277.426008" y="64.947636" style="fill: #1f77b4; stroke: #1f77b4"/>
    </g>
    <g clip-path="url(#p2dc65b9f5f)">
     <use xlink:href="#C0_0_63d9b34e7f" x="281.413617" y="119.811497" style="fill: #ff7f0e; stroke: #ff7f0e"/>
    </g>
    <g clip-path="url(#p2dc65b9f5f)">
     <use xlink:href="#C0_0_63d9b34e7f" x="184.998513" y="146.505198" style="fill: #ff7f0e; stroke: #ff7f0e"/>
    </g>
    <g clip-path="url(#p2dc65b9f5f)">
     <use xlink:href="#C0_0_63d9b34e7f" x="225.204315" y="121.134229" style="fill: #ff7f0e; stroke: #ff7f0e"/>
    </g>
    <g clip-path="url(#p2dc65b9f5f)">
     <use xlink:href="#C0_0_63d9b34e7f" x="346.019805" y="128.611975" style="fill: #1f77b4; stroke: #1f77b4"/>
    </g>
    <g clip-path="url(#p2dc65b9f5f)">
     <use xlink:href="#C0_0_63d9b34e7f" x="276.695183" y="282.623797" style="fill: #1f77b4; stroke: #1f77b4"/>
    </g>
    <g clip-path="url(#p2dc65b9f5f)">
     <use xlink:href="#C0_0_63d9b34e7f" x="184.873986" y="288.948884" style="fill: #1f77b4; stroke: #1f77b4"/>
    </g>
    <g clip-path="url(#p2dc65b9f5f)">
     <use xlink:href="#C0_0_63d9b34e7f" x="118.443546" y="193.580847" style="fill: #1f77b4; stroke: #1f77b4"/>
    </g>
    <g clip-path="url(#p2dc65b9f5f)">
     <use xlink:href="#C0_0_63d9b34e7f" x="299.263261" y="156.864265" style="fill: #ff7f0e; stroke: #ff7f0e"/>
    </g>
    <g clip-path="url(#p2dc65b9f5f)">
     <use xlink:href="#C0_0_63d9b34e7f" x="307.561207" y="82.715766" style="fill: #1f77b4; stroke: #1f77b4"/>
    </g>
    <g clip-path="url(#p2dc65b9f5f)">
     <use xlink:href="#C0_0_63d9b34e7f" x="343.75041" y="206.359535" style="fill: #1f77b4; stroke: #1f77b4"/>
    </g>
    <g clip-path="url(#p2dc65b9f5f)">
     <use xlink:href="#C0_0_63d9b34e7f" x="246.396208" y="117.864952" style="fill: #ff7f0e; stroke: #ff7f0e"/>
    </g>
    <g clip-path="url(#p2dc65b9f5f)">
     <use xlink:href="#C0_0_63d9b34e7f" x="280.066572" y="227.605625" style="fill: #ff7f0e; stroke: #ff7f0e"/>
    </g>
    <g clip-path="url(#p2dc65b9f5f)">
     <use xlink:href="#C0_0_63d9b34e7f" x="290.251549" y="189.2492" style="fill: #ff7f0e; stroke: #ff7f0e"/>
    </g>
    <g clip-path="url(#p2dc65b9f5f)">
     <use xlink:href="#C0_0_63d9b34e7f" x="251.602226" y="289.002416" style="fill: #1f77b4; stroke: #1f77b4"/>
    </g>
    <g clip-path="url(#p2dc65b9f5f)">
     <use xlink:href="#C0_0_63d9b34e7f" x="341.714611" y="139.910798" style="fill: #1f77b4; stroke: #1f77b4"/>
    </g>
    <g clip-path="url(#p2dc65b9f5f)">
     <use xlink:href="#C0_0_63d9b34e7f" x="203.682917" y="123.469552" style="fill: #ff7f0e; stroke: #ff7f0e"/>
    </g>
    <g clip-path="url(#p2dc65b9f5f)">
     <use xlink:href="#C0_0_63d9b34e7f" x="286.454971" y="141.587637" style="fill: #ff7f0e; stroke: #ff7f0e"/>
    </g>
    <g clip-path="url(#p2dc65b9f5f)">
     <use xlink:href="#C0_0_63d9b34e7f" x="360.040364" y="189.680172" style="fill: #1f77b4; stroke: #1f77b4"/>
    </g>
    <g clip-path="url(#p2dc65b9f5f)">
     <use xlink:href="#C0_0_63d9b34e7f" x="202.649075" y="129.410031" style="fill: #ff7f0e; stroke: #ff7f0e"/>
    </g>
    <g clip-path="url(#p2dc65b9f5f)">
     <use xlink:href="#C0_0_63d9b34e7f" x="190.726603" y="206.787366" style="fill: #ff7f0e; stroke: #ff7f0e"/>
    </g>
    <g clip-path="url(#p2dc65b9f5f)">
     <use xlink:href="#C0_0_63d9b34e7f" x="216.12679" y="295.488" style="fill: #1f77b4; stroke: #1f77b4"/>
    </g>
    <g clip-path="url(#p2dc65b9f5f)">
     <use xlink:href="#C0_0_63d9b34e7f" x="184.452233" y="197.35162" style="fill: #ff7f0e; stroke: #ff7f0e"/>
    </g>
    <g clip-path="url(#p2dc65b9f5f)">
     <use xlink:href="#C0_0_63d9b34e7f" x="292.246416" y="214.887766" style="fill: #ff7f0e; stroke: #ff7f0e"/>
    </g>
    <g clip-path="url(#p2dc65b9f5f)">
     <use xlink:href="#C0_0_63d9b34e7f" x="110.033086" y="171.585285" style="fill: #1f77b4; stroke: #1f77b4"/>
    </g>
    <g clip-path="url(#p2dc65b9f5f)">
     <use xlink:href="#C0_0_63d9b34e7f" x="351.267574" y="225.693403" style="fill: #1f77b4; stroke: #1f77b4"/>
    </g>
    <g clip-path="url(#p2dc65b9f5f)">
     <use xlink:href="#C0_0_63d9b34e7f" x="157.473097" y="274.716583" style="fill: #1f77b4; stroke: #1f77b4"/>
    </g>
    <g clip-path="url(#p2dc65b9f5f)">
     <use xlink:href="#C0_0_63d9b34e7f" x="183.972434" y="159.522608" style="fill: #ff7f0e; stroke: #ff7f0e"/>
    </g>
    <g clip-path="url(#p2dc65b9f5f)">
     <use xlink:href="#C0_0_63d9b34e7f" x="350.069926" y="216.524345" style="fill: #1f77b4; stroke: #1f77b4"/>
    </g>
    <g clip-path="url(#p2dc65b9f5f)">
     <use xlink:href="#C0_0_63d9b34e7f" x="225.890244" y="214.263142" style="fill: #ff7f0e; stroke: #ff7f0e"/>
    </g>
    <g clip-path="url(#p2dc65b9f5f)">
     <use xlink:href="#C0_0_63d9b34e7f" x="274.381863" y="129.174624" style="fill: #ff7f0e; stroke: #ff7f0e"/>
    </g>
    <g clip-path="url(#p2dc65b9f5f)">
     <use xlink:href="#C0_0_63d9b34e7f" x="204.423181" y="227.032612" style="fill: #ff7f0e; stroke: #ff7f0e"/>
    </g>
    <g clip-path="url(#p2dc65b9f5f)">
     <use xlink:href="#C0_0_63d9b34e7f" x="179.347478" y="76.108954" style="fill: #1f77b4; stroke: #1f77b4"/>
    </g>
    <g clip-path="url(#p2dc65b9f5f)">
     <use xlink:href="#C0_0_63d9b34e7f" x="272.174074" y="221.906447" style="fill: #ff7f0e; stroke: #ff7f0e"/>
    </g>
    <g clip-path="url(#p2dc65b9f5f)">
     <use xlink:href="#C0_0_63d9b34e7f" x="218.836189" y="117.822334" style="fill: #ff7f0e; stroke: #ff7f0e"/>
    </g>
   </g>
   <g id="matplotlib.axis_1">
    <g id="xtick_1">
     <g id="line2d_1">
      <defs>
       <path id="me1ec4ce0f1" d="M 0 0 
L 0 3.5 
" style="stroke: #000000; stroke-width: 0.8"/>
      </defs>
      <g>
       <use xlink:href="#me1ec4ce0f1" x="59.636567" y="307.584" style="stroke: #000000; stroke-width: 0.8"/>
      </g>
     </g>
     <g id="text_1">
      <!-- −1.5 -->
      <g transform="translate(47.495161 322.182437) scale(0.1 -0.1)">
       <defs>
        <path id="DejaVuSans-2212" d="M 678 2272 
L 4684 2272 
L 4684 1741 
L 678 1741 
L 678 2272 
z
" transform="scale(0.015625)"/>
        <path id="DejaVuSans-31" d="M 794 531 
L 1825 531 
L 1825 4091 
L 703 3866 
L 703 4441 
L 1819 4666 
L 2450 4666 
L 2450 531 
L 3481 531 
L 3481 0 
L 794 0 
L 794 531 
z
" transform="scale(0.015625)"/>
        <path id="DejaVuSans-2e" d="M 684 794 
L 1344 794 
L 1344 0 
L 684 0 
L 684 794 
z
" transform="scale(0.015625)"/>
        <path id="DejaVuSans-35" d="M 691 4666 
L 3169 4666 
L 3169 4134 
L 1269 4134 
L 1269 2991 
Q 1406 3038 1543 3061 
Q 1681 3084 1819 3084 
Q 2600 3084 3056 2656 
Q 3513 2228 3513 1497 
Q 3513 744 3044 326 
Q 2575 -91 1722 -91 
Q 1428 -91 1123 -41 
Q 819 9 494 109 
L 494 744 
Q 775 591 1075 516 
Q 1375 441 1709 441 
Q 2250 441 2565 725 
Q 2881 1009 2881 1497 
Q 2881 1984 2565 2268 
Q 2250 2553 1709 2553 
Q 1456 2553 1204 2497 
Q 953 2441 691 2322 
L 691 4666 
z
" transform="scale(0.015625)"/>
       </defs>
       <use xlink:href="#DejaVuSans-2212"/>
       <use xlink:href="#DejaVuSans-31" x="83.789062"/>
       <use xlink:href="#DejaVuSans-2e" x="147.412109"/>
       <use xlink:href="#DejaVuSans-35" x="179.199219"/>
      </g>
     </g>
    </g>
    <g id="xtick_2">
     <g id="line2d_2">
      <g>
       <use xlink:href="#me1ec4ce0f1" x="118.684259" y="307.584" style="stroke: #000000; stroke-width: 0.8"/>
      </g>
     </g>
     <g id="text_2">
      <!-- −1.0 -->
      <g transform="translate(106.542853 322.182437) scale(0.1 -0.1)">
       <defs>
        <path id="DejaVuSans-30" d="M 2034 4250 
Q 1547 4250 1301 3770 
Q 1056 3291 1056 2328 
Q 1056 1369 1301 889 
Q 1547 409 2034 409 
Q 2525 409 2770 889 
Q 3016 1369 3016 2328 
Q 3016 3291 2770 3770 
Q 2525 4250 2034 4250 
z
M 2034 4750 
Q 2819 4750 3233 4129 
Q 3647 3509 3647 2328 
Q 3647 1150 3233 529 
Q 2819 -91 2034 -91 
Q 1250 -91 836 529 
Q 422 1150 422 2328 
Q 422 3509 836 4129 
Q 1250 4750 2034 4750 
z
" transform="scale(0.015625)"/>
       </defs>
       <use xlink:href="#DejaVuSans-2212"/>
       <use xlink:href="#DejaVuSans-31" x="83.789062"/>
       <use xlink:href="#DejaVuSans-2e" x="147.412109"/>
       <use xlink:href="#DejaVuSans-30" x="179.199219"/>
      </g>
     </g>
    </g>
    <g id="xtick_3">
     <g id="line2d_3">
      <g>
       <use xlink:href="#me1ec4ce0f1" x="177.731951" y="307.584" style="stroke: #000000; stroke-width: 0.8"/>
      </g>
     </g>
     <g id="text_3">
      <!-- −0.5 -->
      <g transform="translate(165.590545 322.182437) scale(0.1 -0.1)">
       <use xlink:href="#DejaVuSans-2212"/>
       <use xlink:href="#DejaVuSans-30" x="83.789062"/>
       <use xlink:href="#DejaVuSans-2e" x="147.412109"/>
       <use xlink:href="#DejaVuSans-35" x="179.199219"/>
      </g>
     </g>
    </g>
    <g id="xtick_4">
     <g id="line2d_4">
      <g>
       <use xlink:href="#me1ec4ce0f1" x="236.779643" y="307.584" style="stroke: #000000; stroke-width: 0.8"/>
      </g>
     </g>
     <g id="text_4">
      <!-- 0.0 -->
      <g transform="translate(228.828081 322.182437) scale(0.1 -0.1)">
       <use xlink:href="#DejaVuSans-30"/>
       <use xlink:href="#DejaVuSans-2e" x="63.623047"/>
       <use xlink:href="#DejaVuSans-30" x="95.410156"/>
      </g>
     </g>
    </g>
    <g id="xtick_5">
     <g id="line2d_5">
      <g>
       <use xlink:href="#me1ec4ce0f1" x="295.827335" y="307.584" style="stroke: #000000; stroke-width: 0.8"/>
      </g>
     </g>
     <g id="text_5">
      <!-- 0.5 -->
      <g transform="translate(287.875773 322.182437) scale(0.1 -0.1)">
       <use xlink:href="#DejaVuSans-30"/>
       <use xlink:href="#DejaVuSans-2e" x="63.623047"/>
       <use xlink:href="#DejaVuSans-35" x="95.410156"/>
      </g>
     </g>
    </g>
    <g id="xtick_6">
     <g id="line2d_6">
      <g>
       <use xlink:href="#me1ec4ce0f1" x="354.875027" y="307.584" style="stroke: #000000; stroke-width: 0.8"/>
      </g>
     </g>
     <g id="text_6">
      <!-- 1.0 -->
      <g transform="translate(346.923465 322.182437) scale(0.1 -0.1)">
       <use xlink:href="#DejaVuSans-31"/>
       <use xlink:href="#DejaVuSans-2e" x="63.623047"/>
       <use xlink:href="#DejaVuSans-30" x="95.410156"/>
      </g>
     </g>
    </g>
    <g id="xtick_7">
     <g id="line2d_7">
      <g>
       <use xlink:href="#me1ec4ce0f1" x="413.922719" y="307.584" style="stroke: #000000; stroke-width: 0.8"/>
      </g>
     </g>
     <g id="text_7">
      <!-- 1.5 -->
      <g transform="translate(405.971157 322.182437) scale(0.1 -0.1)">
       <use xlink:href="#DejaVuSans-31"/>
       <use xlink:href="#DejaVuSans-2e" x="63.623047"/>
       <use xlink:href="#DejaVuSans-35" x="95.410156"/>
      </g>
     </g>
    </g>
    <g id="text_8">
     <!-- $x_1$ -->
     <g transform="translate(230.81 335.860562) scale(0.1 -0.1)">
      <defs>
       <path id="DejaVuSans-Oblique-78" d="M 3841 3500 
L 2234 1784 
L 3219 0 
L 2559 0 
L 1819 1388 
L 531 0 
L -166 0 
L 1556 1844 
L 641 3500 
L 1300 3500 
L 1972 2234 
L 3144 3500 
L 3841 3500 
z
" transform="scale(0.015625)"/>
      </defs>
      <use xlink:href="#DejaVuSans-Oblique-78" transform="translate(0 0.3125)"/>
      <use xlink:href="#DejaVuSans-31" transform="translate(59.179688 -16.09375) scale(0.7)"/>
     </g>
    </g>
   </g>
   <g id="matplotlib.axis_2">
    <g id="ytick_1">
     <g id="line2d_8">
      <defs>
       <path id="m4cab60420c" d="M 0 0 
L -3.5 0 
" style="stroke: #000000; stroke-width: 0.8"/>
      </defs>
      <g>
       <use xlink:href="#m4cab60420c" x="57.6" y="291.826731" style="stroke: #000000; stroke-width: 0.8"/>
      </g>
     </g>
     <g id="text_9">
      <!-- −1.0 -->
      <g transform="translate(26.317187 295.62595) scale(0.1 -0.1)">
       <use xlink:href="#DejaVuSans-2212"/>
       <use xlink:href="#DejaVuSans-31" x="83.789062"/>
       <use xlink:href="#DejaVuSans-2e" x="147.412109"/>
       <use xlink:href="#DejaVuSans-30" x="179.199219"/>
      </g>
     </g>
    </g>
    <g id="ytick_2">
     <g id="line2d_9">
      <g>
       <use xlink:href="#m4cab60420c" x="57.6" y="232.779039" style="stroke: #000000; stroke-width: 0.8"/>
      </g>
     </g>
     <g id="text_10">
      <!-- −0.5 -->
      <g transform="translate(26.317187 236.578258) scale(0.1 -0.1)">
       <use xlink:href="#DejaVuSans-2212"/>
       <use xlink:href="#DejaVuSans-30" x="83.789062"/>
       <use xlink:href="#DejaVuSans-2e" x="147.412109"/>
       <use xlink:href="#DejaVuSans-35" x="179.199219"/>
      </g>
     </g>
    </g>
    <g id="ytick_3">
     <g id="line2d_10">
      <g>
       <use xlink:href="#m4cab60420c" x="57.6" y="173.731347" style="stroke: #000000; stroke-width: 0.8"/>
      </g>
     </g>
     <g id="text_11">
      <!-- 0.0 -->
      <g transform="translate(34.696875 177.530566) scale(0.1 -0.1)">
       <use xlink:href="#DejaVuSans-30"/>
       <use xlink:href="#DejaVuSans-2e" x="63.623047"/>
       <use xlink:href="#DejaVuSans-30" x="95.410156"/>
      </g>
     </g>
    </g>
    <g id="ytick_4">
     <g id="line2d_11">
      <g>
       <use xlink:href="#m4cab60420c" x="57.6" y="114.683655" style="stroke: #000000; stroke-width: 0.8"/>
      </g>
     </g>
     <g id="text_12">
      <!-- 0.5 -->
      <g transform="translate(34.696875 118.482874) scale(0.1 -0.1)">
       <use xlink:href="#DejaVuSans-30"/>
       <use xlink:href="#DejaVuSans-2e" x="63.623047"/>
       <use xlink:href="#DejaVuSans-35" x="95.410156"/>
      </g>
     </g>
    </g>
    <g id="ytick_5">
     <g id="line2d_12">
      <g>
       <use xlink:href="#m4cab60420c" x="57.6" y="55.635963" style="stroke: #000000; stroke-width: 0.8"/>
      </g>
     </g>
     <g id="text_13">
      <!-- 1.0 -->
      <g transform="translate(34.696875 59.435182) scale(0.1 -0.1)">
       <use xlink:href="#DejaVuSans-31"/>
       <use xlink:href="#DejaVuSans-2e" x="63.623047"/>
       <use xlink:href="#DejaVuSans-30" x="95.410156"/>
      </g>
     </g>
    </g>
    <g id="text_14">
     <!-- $x_2$ -->
     <g transform="translate(20.2375 179.878) rotate(-90) scale(0.1 -0.1)">
      <defs>
       <path id="DejaVuSans-32" d="M 1228 531 
L 3431 531 
L 3431 0 
L 469 0 
L 469 531 
Q 828 903 1448 1529 
Q 2069 2156 2228 2338 
Q 2531 2678 2651 2914 
Q 2772 3150 2772 3378 
Q 2772 3750 2511 3984 
Q 2250 4219 1831 4219 
Q 1534 4219 1204 4116 
Q 875 4013 500 3803 
L 500 4441 
Q 881 4594 1212 4672 
Q 1544 4750 1819 4750 
Q 2544 4750 2975 4387 
Q 3406 4025 3406 3419 
Q 3406 3131 3298 2873 
Q 3191 2616 2906 2266 
Q 2828 2175 2409 1742 
Q 1991 1309 1228 531 
z
" transform="scale(0.015625)"/>
      </defs>
      <use xlink:href="#DejaVuSans-Oblique-78" transform="translate(0 0.3125)"/>
      <use xlink:href="#DejaVuSans-32" transform="translate(59.179688 -16.09375) scale(0.7)"/>
     </g>
    </g>
   </g>
   <g id="patch_3">
    <path d="M 57.6 307.584 
L 57.6 41.472 
" style="fill: none; stroke: #000000; stroke-width: 0.8; stroke-linejoin: miter; stroke-linecap: square"/>
   </g>
   <g id="patch_4">
    <path d="M 414.72 307.584 
L 414.72 41.472 
" style="fill: none; stroke: #000000; stroke-width: 0.8; stroke-linejoin: miter; stroke-linecap: square"/>
   </g>
   <g id="patch_5">
    <path d="M 57.6 307.584 
L 414.72 307.584 
" style="fill: none; stroke: #000000; stroke-width: 0.8; stroke-linejoin: miter; stroke-linecap: square"/>
   </g>
   <g id="patch_6">
    <path d="M 57.6 41.472 
L 414.72 41.472 
" style="fill: none; stroke: #000000; stroke-width: 0.8; stroke-linejoin: miter; stroke-linecap: square"/>
   </g>
  </g>
 </g>
 <defs>
  <clipPath id="p2dc65b9f5f">
   <rect x="57.6" y="41.472" width="357.12" height="266.112"/>
  </clipPath>
 </defs>
</svg>
