<?xml version="1.0" encoding="utf-8" standalone="no"?>
<!DOCTYPE svg PUBLIC "-//W3C//DTD SVG 1.1//EN"
  "http://www.w3.org/Graphics/SVG/1.1/DTD/svg11.dtd">
<svg height="288pt" version="1.1" viewBox="0 0 432 288" width="432pt" xmlns="http://www.w3.org/2000/svg" xmlns:xlink="http://www.w3.org/1999/xlink">
 <metadata>
  <rdf:RDF xmlns:cc="http://creativecommons.org/ns#" xmlns:dc="http://purl.org/dc/elements/1.1/" xmlns:rdf="http://www.w3.org/1999/02/22-rdf-syntax-ns#">
   <cc:Work>
    <dc:type rdf:resource="http://purl.org/dc/dcmitype/StillImage"/>
    <dc:date>2022-05-18T20:20:50.448209</dc:date>
    <dc:format>image/svg+xml</dc:format>
    <dc:creator>
     <cc:Agent>
      <dc:title>Matplotlib v3.4.3, https://matplotlib.org/</dc:title>
     </cc:Agent>
    </dc:creator>
   </cc:Work>
  </rdf:RDF>
 </metadata>
 <defs>
  <style type="text/css">*{stroke-linecap:butt;stroke-linejoin:round;}</style>
 </defs>
 <g id="figure_1">
  <g id="patch_1">
   <path d="M 0 288 
L 432 288 
L 432 0 
L 0 0 
z
" style="fill:none;"/>
  </g>
  <g id="axes_1">
   <g id="patch_2">
    <path d="M 54 252 
L 388.8 252 
L 388.8 34.56 
L 54 34.56 
z
" style="fill:#ffffff;"/>
   </g>
   <g id="PathCollection_1">
    <defs>
     <path d="M 0 1.581139 
C 0.419323 1.581139 0.821528 1.41454 1.118034 1.118034 
C 1.41454 0.821528 1.581139 0.419323 1.581139 0 
C 1.581139 -0.419323 1.41454 -0.821528 1.118034 -1.118034 
C 0.821528 -1.41454 0.419323 -1.581139 0 -1.581139 
C -0.419323 -1.581139 -0.821528 -1.41454 -1.118034 -1.118034 
C -1.41454 -0.821528 -1.581139 -0.419323 -1.581139 0 
C -1.581139 0.419323 -1.41454 0.821528 -1.118034 1.118034 
C -0.821528 1.41454 -0.419323 1.581139 0 1.581139 
z
" id="m99f27b64ae" style="stroke:#4169e1;"/>
    </defs>
    <g clip-path="url(#p91fc21f479)">
     <use style="fill:#4169e1;stroke:#4169e1;" x="201.473467" xlink:href="#m99f27b64ae" y="176.48212"/>
     <use style="fill:#4169e1;stroke:#4169e1;" x="213.84606" xlink:href="#m99f27b64ae" y="181.874976"/>
     <use style="fill:#4169e1;stroke:#4169e1;" x="227.159158" xlink:href="#m99f27b64ae" y="184.006156"/>
     <use style="fill:#4169e1;stroke:#4169e1;" x="240.580692" xlink:href="#m99f27b64ae" y="182.742463"/>
     <use style="fill:#4169e1;stroke:#4169e1;" x="253.271816" xlink:href="#m99f27b64ae" y="178.162876"/>
     <use style="fill:#4169e1;stroke:#4169e1;" x="264.439335" xlink:href="#m99f27b64ae" y="170.553621"/>
     <use style="fill:#4169e1;stroke:#4169e1;" x="273.385279" xlink:href="#m99f27b64ae" y="160.390275"/>
     <use style="fill:#4169e1;stroke:#4169e1;" x="279.550525" xlink:href="#m99f27b64ae" y="148.308047"/>
     <use style="fill:#4169e1;stroke:#4169e1;" x="282.549748" xlink:href="#m99f27b64ae" y="135.062078"/>
     <use style="fill:#4169e1;stroke:#4169e1;" x="282.195494" xlink:href="#m99f27b64ae" y="121.480239"/>
     <use style="fill:#4169e1;stroke:#4169e1;" x="278.509905" xlink:href="#m99f27b64ae" y="108.411397"/>
     <use style="fill:#4169e1;stroke:#4169e1;" x="271.72333" xlink:href="#m99f27b64ae" y="96.672353"/>
     <use style="fill:#4169e1;stroke:#4169e1;" x="262.259931" xlink:href="#m99f27b64ae" y="86.996798"/>
     <use style="fill:#4169e1;stroke:#4169e1;" x="250.711169" xlink:href="#m99f27b64ae" y="79.989453"/>
     <use style="fill:#4169e1;stroke:#4169e1;" x="237.798842" xlink:href="#m99f27b64ae" y="76.088279"/>
     <use style="fill:#4169e1;stroke:#4169e1;" x="224.329971" xlink:href="#m99f27b64ae" y="75.537098"/>
     <use style="fill:#4169e1;stroke:#4169e1;" x="211.14636" xlink:href="#m99f27b64ae" y="78.37036"/>
     <use style="fill:#4169e1;stroke:#4169e1;" x="199.071984" xlink:href="#m99f27b64ae" y="84.410984"/>
     <use style="fill:#4169e1;stroke:#4169e1;" x="188.861493" xlink:href="#m99f27b64ae" y="93.281433"/>
     <use style="fill:#4169e1;stroke:#4169e1;" x="181.153042" xlink:href="#m99f27b64ae" y="104.427304"/>
     <use style="fill:#4169e1;stroke:#4169e1;" x="176.428409" xlink:href="#m99f27b64ae" y="117.151978"/>
     <use style="fill:#4169e1;stroke:#4169e1;" x="174.982883" xlink:href="#m99f27b64ae" y="130.660165"/>
     <use style="fill:#4169e1;stroke:#4169e1;" x="176.906811" xlink:href="#m99f27b64ae" y="144.107603"/>
     <use style="fill:#4169e1;stroke:#4169e1;" x="182.079946" xlink:href="#m99f27b64ae" y="156.653826"/>
     <use style="fill:#4169e1;stroke:#4169e1;" x="190.178968" xlink:href="#m99f27b64ae" y="167.514696"/>
     <use style="fill:#4169e1;stroke:#4169e1;" x="200.697688" xlink:href="#m99f27b64ae" y="176.011408"/>
     <use style="fill:#4169e1;stroke:#4169e1;" x="212.978685" xlink:href="#m99f27b64ae" y="181.612918"/>
     <use style="fill:#4169e1;stroke:#4169e1;" x="226.254398" xlink:href="#m99f27b64ae" y="183.969131"/>
     <use style="fill:#4169e1;stroke:#4169e1;" x="239.695094" xlink:href="#m99f27b64ae" y="182.932785"/>
     <use style="fill:#4169e1;stroke:#4169e1;" x="252.46073" xlink:href="#m99f27b64ae" y="178.56865"/>
     <use style="fill:#4169e1;stroke:#4169e1;" x="263.753453" xlink:href="#m99f27b64ae" y="171.149486"/>
     <use style="fill:#4169e1;stroke:#4169e1;" x="272.86747" xlink:href="#m99f27b64ae" y="161.13899"/>
     <use style="fill:#4169e1;stroke:#4169e1;" x="279.233152" xlink:href="#m99f27b64ae" y="149.162817"/>
     <use style="fill:#4169e1;stroke:#4169e1;" x="282.452646" xlink:href="#m99f27b64ae" y="135.96948"/>
     <use style="fill:#4169e1;stroke:#4169e1;" x="282.324732" xlink:href="#m99f27b64ae" y="122.38356"/>
     <use style="fill:#4169e1;stroke:#4169e1;" x="278.857406" xlink:href="#m99f27b64ae" y="109.254179"/>
     <use style="fill:#4169e1;stroke:#4169e1;" x="272.267376" xlink:href="#m99f27b64ae" y="97.401923"/>
     <use style="fill:#4169e1;stroke:#4169e1;" x="262.966518" xlink:href="#m99f27b64ae" y="87.567557"/>
     <use style="fill:#4169e1;stroke:#4169e1;" x="251.536135" xlink:href="#m99f27b64ae" y="80.36573"/>
     <use style="fill:#4169e1;stroke:#4169e1;" x="238.690627" xlink:href="#m99f27b64ae" y="76.246556"/>
     <use style="fill:#4169e1;stroke:#4169e1;" x="225.232839" xlink:href="#m99f27b64ae" y="75.467482"/>
    </g>
   </g>
   <g id="PathCollection_2">
    <defs>
     <path d="M 0 -1.581139 
L -1.581139 1.581139 
L 1.581139 1.581139 
z
" id="m26f9525141" style="stroke:#9467bd;"/>
    </defs>
    <g clip-path="url(#p91fc21f479)">
     <use style="fill:#9467bd;stroke:#9467bd;" x="201.473467" xlink:href="#m26f9525141" y="176.48212"/>
     <use style="fill:#9467bd;stroke:#9467bd;" x="207.32271" xlink:href="#m26f9525141" y="183.337287"/>
     <use style="fill:#9467bd;stroke:#9467bd;" x="214.028849" xlink:href="#m26f9525141" y="188.730142"/>
     <use style="fill:#9467bd;stroke:#9467bd;" x="221.409095" xlink:href="#m26f9525141" y="192.446463"/>
     <use style="fill:#9467bd;stroke:#9467bd;" x="229.253881" xlink:href="#m26f9525141" y="194.317722"/>
     <use style="fill:#9467bd;stroke:#9467bd;" x="237.332575" xlink:href="#m26f9525141" y="194.227785"/>
     <use style="fill:#9467bd;stroke:#9467bd;" x="245.400026" xlink:href="#m26f9525141" y="192.118174"/>
     <use style="fill:#9467bd;stroke:#9467bd;" x="253.203776" xlink:href="#m26f9525141" y="187.991701"/>
     <use style="fill:#9467bd;stroke:#9467bd;" x="260.491717" xlink:href="#m26f9525141" y="181.914289"/>
     <use style="fill:#9467bd;stroke:#9467bd;" x="267.019982" xlink:href="#m26f9525141" y="174.014893"/>
     <use style="fill:#9467bd;stroke:#9467bd;" x="272.560822" xlink:href="#m26f9525141" y="164.483431"/>
     <use style="fill:#9467bd;stroke:#9467bd;" x="276.910229" xlink:href="#m26f9525141" y="153.566758"/>
     <use style="fill:#9467bd;stroke:#9467bd;" x="279.895052" xlink:href="#m26f9525141" y="141.562734"/>
     <use style="fill:#9467bd;stroke:#9467bd;" x="281.379372" xlink:href="#m26f9525141" y="128.812504"/>
     <use style="fill:#9467bd;stroke:#9467bd;" x="281.269913" xlink:href="#m26f9525141" y="115.691194"/>
     <use style="fill:#9467bd;stroke:#9467bd;" x="279.520291" xlink:href="#m26f9525141" y="102.597248"/>
     <use style="fill:#9467bd;stroke:#9467bd;" x="276.133925" xlink:href="#m26f9525141" y="89.940709"/>
     <use style="fill:#9467bd;stroke:#9467bd;" x="271.165492" xlink:href="#m26f9525141" y="78.13076"/>
     <use style="fill:#9467bd;stroke:#9467bd;" x="264.720816" xlink:href="#m26f9525141" y="67.56292"/>
     <use style="fill:#9467bd;stroke:#9467bd;" x="256.955159" xlink:href="#m26f9525141" y="58.606249"/>
     <use style="fill:#9467bd;stroke:#9467bd;" x="248.069918" xlink:href="#m26f9525141" y="51.590993"/>
     <use style="fill:#9467bd;stroke:#9467bd;" x="238.307771" xlink:href="#m26f9525141" y="46.797046"/>
     <use style="fill:#9467bd;stroke:#9467bd;" x="227.94638" xlink:href="#m26f9525141" y="44.443636"/>
     <use style="fill:#9467bd;stroke:#9467bd;" x="217.290813" xlink:href="#m26f9525141" y="44.680574"/>
     <use style="fill:#9467bd;stroke:#9467bd;" x="206.664863" xlink:href="#m26f9525141" y="47.581404"/>
     <use style="fill:#9467bd;stroke:#9467bd;" x="196.401517" xlink:href="#m26f9525141" y="53.138721"/>
     <use style="fill:#9467bd;stroke:#9467bd;" x="186.832835" xlink:href="#m26f9525141" y="61.261875"/>
     <use style="fill:#9467bd;stroke:#9467bd;" x="178.279548" xlink:href="#m26f9525141" y="71.777199"/>
     <use style="fill:#9467bd;stroke:#9467bd;" x="171.040676" xlink:href="#m26f9525141" y="84.430845"/>
     <use style="fill:#9467bd;stroke:#9467bd;" x="165.38351" xlink:href="#m26f9525141" y="98.894209"/>
     <use style="fill:#9467bd;stroke:#9467bd;" x="161.534265" xlink:href="#m26f9525141" y="114.771865"/>
     <use style="fill:#9467bd;stroke:#9467bd;" x="159.669726" xlink:href="#m26f9525141" y="131.611832"/>
     <use style="fill:#9467bd;stroke:#9467bd;" x="159.910183" xlink:href="#m26f9525141" y="148.917933"/>
     <use style="fill:#9467bd;stroke:#9467bd;" x="162.313903" xlink:href="#m26f9525141" y="166.16392"/>
     <use style="fill:#9467bd;stroke:#9467bd;" x="166.873372" xlink:href="#m26f9525141" y="182.808977"/>
     <use style="fill:#9467bd;stroke:#9467bd;" x="173.513472" xlink:href="#m26f9525141" y="198.314168"/>
     <use style="fill:#9467bd;stroke:#9467bd;" x="182.091721" xlink:href="#m26f9525141" y="212.159333"/>
     <use style="fill:#9467bd;stroke:#9467bd;" x="192.400616" xlink:href="#m26f9525141" y="223.859935"/>
     <use style="fill:#9467bd;stroke:#9467bd;" x="204.172087" xlink:href="#m26f9525141" y="232.983314"/>
     <use style="fill:#9467bd;stroke:#9467bd;" x="217.083979" xlink:href="#m26f9525141" y="239.163825"/>
     <use style="fill:#9467bd;stroke:#9467bd;" x="230.768436" xlink:href="#m26f9525141" y="242.116364"/>
    </g>
   </g>
   <g id="matplotlib.axis_1">
    <g id="xtick_1">
     <g id="line2d_1">
      <defs>
       <path d="M 0 0 
L 0 3.5 
" id="m69438678ca" style="stroke:#000000;stroke-width:0.8;"/>
      </defs>
      <g>
       <use style="stroke:#000000;stroke-width:0.8;" x="66.185505" xlink:href="#m69438678ca" y="252"/>
      </g>
     </g>
     <g id="text_1">
      <!-- −3 -->
      <g transform="translate(58.814411 266.598437)scale(0.1 -0.1)">
       <defs>
        <path d="M 678 2272 
L 4684 2272 
L 4684 1741 
L 678 1741 
L 678 2272 
z
" id="DejaVuSans-2212" transform="scale(0.015625)"/>
        <path d="M 2597 2516 
Q 3050 2419 3304 2112 
Q 3559 1806 3559 1356 
Q 3559 666 3084 287 
Q 2609 -91 1734 -91 
Q 1441 -91 1130 -33 
Q 819 25 488 141 
L 488 750 
Q 750 597 1062 519 
Q 1375 441 1716 441 
Q 2309 441 2620 675 
Q 2931 909 2931 1356 
Q 2931 1769 2642 2001 
Q 2353 2234 1838 2234 
L 1294 2234 
L 1294 2753 
L 1863 2753 
Q 2328 2753 2575 2939 
Q 2822 3125 2822 3475 
Q 2822 3834 2567 4026 
Q 2313 4219 1838 4219 
Q 1578 4219 1281 4162 
Q 984 4106 628 3988 
L 628 4550 
Q 988 4650 1302 4700 
Q 1616 4750 1894 4750 
Q 2613 4750 3031 4423 
Q 3450 4097 3450 3541 
Q 3450 3153 3228 2886 
Q 3006 2619 2597 2516 
z
" id="DejaVuSans-33" transform="scale(0.015625)"/>
       </defs>
       <use xlink:href="#DejaVuSans-2212"/>
       <use x="83.789062" xlink:href="#DejaVuSans-33"/>
      </g>
     </g>
    </g>
    <g id="xtick_2">
     <g id="line2d_2">
      <g>
       <use style="stroke:#000000;stroke-width:0.8;" x="120.421714" xlink:href="#m69438678ca" y="252"/>
      </g>
     </g>
     <g id="text_2">
      <!-- −2 -->
      <g transform="translate(113.05062 266.598437)scale(0.1 -0.1)">
       <defs>
        <path d="M 1228 531 
L 3431 531 
L 3431 0 
L 469 0 
L 469 531 
Q 828 903 1448 1529 
Q 2069 2156 2228 2338 
Q 2531 2678 2651 2914 
Q 2772 3150 2772 3378 
Q 2772 3750 2511 3984 
Q 2250 4219 1831 4219 
Q 1534 4219 1204 4116 
Q 875 4013 500 3803 
L 500 4441 
Q 881 4594 1212 4672 
Q 1544 4750 1819 4750 
Q 2544 4750 2975 4387 
Q 3406 4025 3406 3419 
Q 3406 3131 3298 2873 
Q 3191 2616 2906 2266 
Q 2828 2175 2409 1742 
Q 1991 1309 1228 531 
z
" id="DejaVuSans-32" transform="scale(0.015625)"/>
       </defs>
       <use xlink:href="#DejaVuSans-2212"/>
       <use x="83.789062" xlink:href="#DejaVuSans-32"/>
      </g>
     </g>
    </g>
    <g id="xtick_3">
     <g id="line2d_3">
      <g>
       <use style="stroke:#000000;stroke-width:0.8;" x="174.657923" xlink:href="#m69438678ca" y="252"/>
      </g>
     </g>
     <g id="text_3">
      <!-- −1 -->
      <g transform="translate(167.286829 266.598437)scale(0.1 -0.1)">
       <defs>
        <path d="M 794 531 
L 1825 531 
L 1825 4091 
L 703 3866 
L 703 4441 
L 1819 4666 
L 2450 4666 
L 2450 531 
L 3481 531 
L 3481 0 
L 794 0 
L 794 531 
z
" id="DejaVuSans-31" transform="scale(0.015625)"/>
       </defs>
       <use xlink:href="#DejaVuSans-2212"/>
       <use x="83.789062" xlink:href="#DejaVuSans-31"/>
      </g>
     </g>
    </g>
    <g id="xtick_4">
     <g id="line2d_4">
      <g>
       <use style="stroke:#000000;stroke-width:0.8;" x="228.894132" xlink:href="#m69438678ca" y="252"/>
      </g>
     </g>
     <g id="text_4">
      <!-- 0 -->
      <g transform="translate(225.712882 266.598437)scale(0.1 -0.1)">
       <defs>
        <path d="M 2034 4250 
Q 1547 4250 1301 3770 
Q 1056 3291 1056 2328 
Q 1056 1369 1301 889 
Q 1547 409 2034 409 
Q 2525 409 2770 889 
Q 3016 1369 3016 2328 
Q 3016 3291 2770 3770 
Q 2525 4250 2034 4250 
z
M 2034 4750 
Q 2819 4750 3233 4129 
Q 3647 3509 3647 2328 
Q 3647 1150 3233 529 
Q 2819 -91 2034 -91 
Q 1250 -91 836 529 
Q 422 1150 422 2328 
Q 422 3509 836 4129 
Q 1250 4750 2034 4750 
z
" id="DejaVuSans-30" transform="scale(0.015625)"/>
       </defs>
       <use xlink:href="#DejaVuSans-30"/>
      </g>
     </g>
    </g>
    <g id="xtick_5">
     <g id="line2d_5">
      <g>
       <use style="stroke:#000000;stroke-width:0.8;" x="283.130341" xlink:href="#m69438678ca" y="252"/>
      </g>
     </g>
     <g id="text_5">
      <!-- 1 -->
      <g transform="translate(279.949091 266.598437)scale(0.1 -0.1)">
       <use xlink:href="#DejaVuSans-31"/>
      </g>
     </g>
    </g>
    <g id="xtick_6">
     <g id="line2d_6">
      <g>
       <use style="stroke:#000000;stroke-width:0.8;" x="337.36655" xlink:href="#m69438678ca" y="252"/>
      </g>
     </g>
     <g id="text_6">
      <!-- 2 -->
      <g transform="translate(334.1853 266.598437)scale(0.1 -0.1)">
       <use xlink:href="#DejaVuSans-32"/>
      </g>
     </g>
    </g>
    <g id="text_7">
     <!-- q -->
     <g transform="translate(218.225781 280.276563)scale(0.1 -0.1)">
      <defs>
       <path d="M 947 1747 
Q 947 1113 1208 752 
Q 1469 391 1925 391 
Q 2381 391 2643 752 
Q 2906 1113 2906 1747 
Q 2906 2381 2643 2742 
Q 2381 3103 1925 3103 
Q 1469 3103 1208 2742 
Q 947 2381 947 1747 
z
M 2906 525 
Q 2725 213 2448 61 
Q 2172 -91 1784 -91 
Q 1150 -91 751 415 
Q 353 922 353 1747 
Q 353 2572 751 3078 
Q 1150 3584 1784 3584 
Q 2172 3584 2448 3432 
Q 2725 3281 2906 2969 
L 2906 3500 
L 3481 3500 
L 3481 -1331 
L 2906 -1331 
L 2906 525 
z
" id="DejaVuSans-71" transform="scale(0.015625)"/>
      </defs>
      <use xlink:href="#DejaVuSans-71"/>
     </g>
    </g>
   </g>
   <g id="matplotlib.axis_2">
    <g id="ytick_1">
     <g id="line2d_7">
      <defs>
       <path d="M 0 0 
L -3.5 0 
" id="m78d2047fd6" style="stroke:#000000;stroke-width:0.8;"/>
      </defs>
      <g>
       <use style="stroke:#000000;stroke-width:0.8;" x="54" xlink:href="#m78d2047fd6" y="238.160592"/>
      </g>
     </g>
     <g id="text_8">
      <!-- −2.0 -->
      <g transform="translate(22.717187 241.95981)scale(0.1 -0.1)">
       <defs>
        <path d="M 684 794 
L 1344 794 
L 1344 0 
L 684 0 
L 684 794 
z
" id="DejaVuSans-2e" transform="scale(0.015625)"/>
       </defs>
       <use xlink:href="#DejaVuSans-2212"/>
       <use x="83.789062" xlink:href="#DejaVuSans-32"/>
       <use x="147.412109" xlink:href="#DejaVuSans-2e"/>
       <use x="179.199219" xlink:href="#DejaVuSans-30"/>
      </g>
     </g>
    </g>
    <g id="ytick_2">
     <g id="line2d_8">
      <g>
       <use style="stroke:#000000;stroke-width:0.8;" x="54" xlink:href="#m78d2047fd6" y="211.042487"/>
      </g>
     </g>
     <g id="text_9">
      <!-- −1.5 -->
      <g transform="translate(22.717187 214.841706)scale(0.1 -0.1)">
       <defs>
        <path d="M 691 4666 
L 3169 4666 
L 3169 4134 
L 1269 4134 
L 1269 2991 
Q 1406 3038 1543 3061 
Q 1681 3084 1819 3084 
Q 2600 3084 3056 2656 
Q 3513 2228 3513 1497 
Q 3513 744 3044 326 
Q 2575 -91 1722 -91 
Q 1428 -91 1123 -41 
Q 819 9 494 109 
L 494 744 
Q 775 591 1075 516 
Q 1375 441 1709 441 
Q 2250 441 2565 725 
Q 2881 1009 2881 1497 
Q 2881 1984 2565 2268 
Q 2250 2553 1709 2553 
Q 1456 2553 1204 2497 
Q 953 2441 691 2322 
L 691 4666 
z
" id="DejaVuSans-35" transform="scale(0.015625)"/>
       </defs>
       <use xlink:href="#DejaVuSans-2212"/>
       <use x="83.789062" xlink:href="#DejaVuSans-31"/>
       <use x="147.412109" xlink:href="#DejaVuSans-2e"/>
       <use x="179.199219" xlink:href="#DejaVuSans-35"/>
      </g>
     </g>
    </g>
    <g id="ytick_3">
     <g id="line2d_9">
      <g>
       <use style="stroke:#000000;stroke-width:0.8;" x="54" xlink:href="#m78d2047fd6" y="183.924383"/>
      </g>
     </g>
     <g id="text_10">
      <!-- −1.0 -->
      <g transform="translate(22.717187 187.723601)scale(0.1 -0.1)">
       <use xlink:href="#DejaVuSans-2212"/>
       <use x="83.789062" xlink:href="#DejaVuSans-31"/>
       <use x="147.412109" xlink:href="#DejaVuSans-2e"/>
       <use x="179.199219" xlink:href="#DejaVuSans-30"/>
      </g>
     </g>
    </g>
    <g id="ytick_4">
     <g id="line2d_10">
      <g>
       <use style="stroke:#000000;stroke-width:0.8;" x="54" xlink:href="#m78d2047fd6" y="156.806278"/>
      </g>
     </g>
     <g id="text_11">
      <!-- −0.5 -->
      <g transform="translate(22.717187 160.605497)scale(0.1 -0.1)">
       <use xlink:href="#DejaVuSans-2212"/>
       <use x="83.789062" xlink:href="#DejaVuSans-30"/>
       <use x="147.412109" xlink:href="#DejaVuSans-2e"/>
       <use x="179.199219" xlink:href="#DejaVuSans-35"/>
      </g>
     </g>
    </g>
    <g id="ytick_5">
     <g id="line2d_11">
      <g>
       <use style="stroke:#000000;stroke-width:0.8;" x="54" xlink:href="#m78d2047fd6" y="129.688173"/>
      </g>
     </g>
     <g id="text_12">
      <!-- 0.0 -->
      <g transform="translate(31.096875 133.487392)scale(0.1 -0.1)">
       <use xlink:href="#DejaVuSans-30"/>
       <use x="63.623047" xlink:href="#DejaVuSans-2e"/>
       <use x="95.410156" xlink:href="#DejaVuSans-30"/>
      </g>
     </g>
    </g>
    <g id="ytick_6">
     <g id="line2d_12">
      <g>
       <use style="stroke:#000000;stroke-width:0.8;" x="54" xlink:href="#m78d2047fd6" y="102.570069"/>
      </g>
     </g>
     <g id="text_13">
      <!-- 0.5 -->
      <g transform="translate(31.096875 106.369288)scale(0.1 -0.1)">
       <use xlink:href="#DejaVuSans-30"/>
       <use x="63.623047" xlink:href="#DejaVuSans-2e"/>
       <use x="95.410156" xlink:href="#DejaVuSans-35"/>
      </g>
     </g>
    </g>
    <g id="ytick_7">
     <g id="line2d_13">
      <g>
       <use style="stroke:#000000;stroke-width:0.8;" x="54" xlink:href="#m78d2047fd6" y="75.451964"/>
      </g>
     </g>
     <g id="text_14">
      <!-- 1.0 -->
      <g transform="translate(31.096875 79.251183)scale(0.1 -0.1)">
       <use xlink:href="#DejaVuSans-31"/>
       <use x="63.623047" xlink:href="#DejaVuSans-2e"/>
       <use x="95.410156" xlink:href="#DejaVuSans-30"/>
      </g>
     </g>
    </g>
    <g id="ytick_8">
     <g id="line2d_14">
      <g>
       <use style="stroke:#000000;stroke-width:0.8;" x="54" xlink:href="#m78d2047fd6" y="48.33386"/>
      </g>
     </g>
     <g id="text_15">
      <!-- 1.5 -->
      <g transform="translate(31.096875 52.133079)scale(0.1 -0.1)">
       <use xlink:href="#DejaVuSans-31"/>
       <use x="63.623047" xlink:href="#DejaVuSans-2e"/>
       <use x="95.410156" xlink:href="#DejaVuSans-35"/>
      </g>
     </g>
    </g>
    <g id="text_16">
     <!-- p -->
     <g transform="translate(16.6375 146.454219)rotate(-90)scale(0.1 -0.1)">
      <defs>
       <path d="M 1159 525 
L 1159 -1331 
L 581 -1331 
L 581 3500 
L 1159 3500 
L 1159 2969 
Q 1341 3281 1617 3432 
Q 1894 3584 2278 3584 
Q 2916 3584 3314 3078 
Q 3713 2572 3713 1747 
Q 3713 922 3314 415 
Q 2916 -91 2278 -91 
Q 1894 -91 1617 61 
Q 1341 213 1159 525 
z
M 3116 1747 
Q 3116 2381 2855 2742 
Q 2594 3103 2138 3103 
Q 1681 3103 1420 2742 
Q 1159 2381 1159 1747 
Q 1159 1113 1420 752 
Q 1681 391 2138 391 
Q 2594 391 2855 752 
Q 3116 1113 3116 1747 
z
" id="DejaVuSans-70" transform="scale(0.015625)"/>
      </defs>
      <use xlink:href="#DejaVuSans-70"/>
     </g>
    </g>
   </g>
   <g id="line2d_15">
    <path clip-path="url(#p91fc21f479)" d="M 228.894132 75.451964 
L 232.303056 75.559202 
L 235.6985 75.880489 
L 239.067036 76.414555 
L 242.395344 77.15929 
L 245.670263 78.111747 
L 248.87884 79.26816 
L 252.00839 80.623956 
L 255.046535 82.173774 
L 257.981263 83.911485 
L 260.800966 85.830218 
L 263.494496 87.922384 
L 266.051201 90.179711 
L 268.46097 92.593272 
L 270.714274 95.153523 
L 272.802203 97.850339 
L 274.716499 100.673057 
L 276.449594 103.610512 
L 277.994633 106.651091 
L 279.345507 109.782768 
L 280.496873 112.993161 
L 281.44418 116.269573 
L 282.18368 119.599048 
L 282.712449 122.968419 
L 283.028397 126.364364 
L 283.130274 129.773453 
L 283.017677 133.182204 
L 282.691051 136.577139 
L 282.151689 139.944831 
L 281.401722 143.271964 
L 280.444117 146.54538 
L 279.28266 149.752136 
L 277.921945 152.87955 
L 276.367352 155.915255 
L 274.625028 158.847246 
L 272.701864 161.663929 
L 270.605465 164.354166 
L 268.344121 166.907318 
L 265.926774 169.313289 
L 263.362983 171.562565 
L 260.662887 173.646251 
L 257.837163 175.556107 
L 254.896986 177.28458 
L 251.853982 178.824837 
L 248.720184 180.170785 
L 245.507986 181.317102 
L 242.230088 182.259255 
L 238.899455 182.993519 
L 235.529255 183.51699 
L 232.132818 183.827598 
L 228.723574 183.924114 
L 225.315004 183.806158 
L 221.920587 183.474194 
L 218.553747 182.929537 
L 215.227797 182.17434 
L 211.95589 181.211589 
L 208.750965 180.045091 
L 205.625694 178.67946 
L 202.592438 177.120096 
L 199.66319 175.373164 
L 196.849534 173.445574 
L 194.162596 171.344947 
L 191.613003 169.079591 
L 189.210836 166.658464 
L 186.965594 164.09114 
L 184.886157 161.387771 
L 182.980746 158.559048 
L 181.256898 155.616156 
L 179.721428 152.570734 
L 178.380409 149.434824 
L 177.239144 146.220827 
L 176.302146 142.941452 
L 175.57312 139.609668 
L 175.054949 136.23865 
L 174.749682 132.841729 
L 174.658526 129.432336 
L 174.781842 126.023956 
L 175.119143 122.630066 
L 175.669093 119.264086 
L 176.429519 115.939328 
L 177.397413 112.668939 
L 178.568949 109.465852 
L 179.939492 106.342732 
L 181.503624 103.311931 
L 183.255159 100.385434 
L 185.187171 97.574812 
L 187.29202 94.891181 
L 189.561382 92.345153 
L 191.986284 89.946796 
L 194.557135 87.705594 
L 197.26377 85.630409 
L 200.095486 83.729449 
L 203.041084 82.01023 
L 206.088917 80.479551 
L 209.226932 79.143464 
L 212.44272 78.007254 
L 215.723564 77.075414 
L 219.05649 76.351627 
L 222.428318 75.838757 
L 225.825716 75.538832 
L 228.894132 75.451964 
L 228.894132 75.451964 
" style="fill:none;stroke:#ff0000;stroke-linecap:square;stroke-width:0.5;"/>
   </g>
   <g id="patch_3">
    <path d="M 54 252 
L 54 34.56 
" style="fill:none;stroke:#000000;stroke-linecap:square;stroke-linejoin:miter;stroke-width:0.8;"/>
   </g>
   <g id="patch_4">
    <path d="M 388.8 252 
L 388.8 34.56 
" style="fill:none;stroke:#000000;stroke-linecap:square;stroke-linejoin:miter;stroke-width:0.8;"/>
   </g>
   <g id="patch_5">
    <path d="M 54 252 
L 388.8 252 
" style="fill:none;stroke:#000000;stroke-linecap:square;stroke-linejoin:miter;stroke-width:0.8;"/>
   </g>
   <g id="patch_6">
    <path d="M 54 34.56 
L 388.8 34.56 
" style="fill:none;stroke:#000000;stroke-linecap:square;stroke-linejoin:miter;stroke-width:0.8;"/>
   </g>
   <g id="legend_1">
    <g id="patch_7">
     <path d="M 305.9 86.594375 
L 381.8 86.594375 
Q 383.8 86.594375 383.8 84.594375 
L 383.8 41.56 
Q 383.8 39.56 381.8 39.56 
L 305.9 39.56 
Q 303.9 39.56 303.9 41.56 
L 303.9 84.594375 
Q 303.9 86.594375 305.9 86.594375 
z
" style="fill:#ffffff;opacity:0.8;stroke:#cccccc;stroke-linejoin:miter;"/>
    </g>
    <g id="line2d_16">
     <path d="M 307.9 47.658438 
L 327.9 47.658438 
" style="fill:none;stroke:#ff0000;stroke-linecap:square;stroke-width:0.5;"/>
    </g>
    <g id="line2d_17"/>
    <g id="text_17">
     <!-- Exact -->
     <g transform="translate(335.9 51.158438)scale(0.1 -0.1)">
      <defs>
       <path d="M 628 4666 
L 3578 4666 
L 3578 4134 
L 1259 4134 
L 1259 2753 
L 3481 2753 
L 3481 2222 
L 1259 2222 
L 1259 531 
L 3634 531 
L 3634 0 
L 628 0 
L 628 4666 
z
" id="DejaVuSans-45" transform="scale(0.015625)"/>
       <path d="M 3513 3500 
L 2247 1797 
L 3578 0 
L 2900 0 
L 1881 1375 
L 863 0 
L 184 0 
L 1544 1831 
L 300 3500 
L 978 3500 
L 1906 2253 
L 2834 3500 
L 3513 3500 
z
" id="DejaVuSans-78" transform="scale(0.015625)"/>
       <path d="M 2194 1759 
Q 1497 1759 1228 1600 
Q 959 1441 959 1056 
Q 959 750 1161 570 
Q 1363 391 1709 391 
Q 2188 391 2477 730 
Q 2766 1069 2766 1631 
L 2766 1759 
L 2194 1759 
z
M 3341 1997 
L 3341 0 
L 2766 0 
L 2766 531 
Q 2569 213 2275 61 
Q 1981 -91 1556 -91 
Q 1019 -91 701 211 
Q 384 513 384 1019 
Q 384 1609 779 1909 
Q 1175 2209 1959 2209 
L 2766 2209 
L 2766 2266 
Q 2766 2663 2505 2880 
Q 2244 3097 1772 3097 
Q 1472 3097 1187 3025 
Q 903 2953 641 2809 
L 641 3341 
Q 956 3463 1253 3523 
Q 1550 3584 1831 3584 
Q 2591 3584 2966 3190 
Q 3341 2797 3341 1997 
z
" id="DejaVuSans-61" transform="scale(0.015625)"/>
       <path d="M 3122 3366 
L 3122 2828 
Q 2878 2963 2633 3030 
Q 2388 3097 2138 3097 
Q 1578 3097 1268 2742 
Q 959 2388 959 1747 
Q 959 1106 1268 751 
Q 1578 397 2138 397 
Q 2388 397 2633 464 
Q 2878 531 3122 666 
L 3122 134 
Q 2881 22 2623 -34 
Q 2366 -91 2075 -91 
Q 1284 -91 818 406 
Q 353 903 353 1747 
Q 353 2603 823 3093 
Q 1294 3584 2113 3584 
Q 2378 3584 2631 3529 
Q 2884 3475 3122 3366 
z
" id="DejaVuSans-63" transform="scale(0.015625)"/>
       <path d="M 1172 4494 
L 1172 3500 
L 2356 3500 
L 2356 3053 
L 1172 3053 
L 1172 1153 
Q 1172 725 1289 603 
Q 1406 481 1766 481 
L 2356 481 
L 2356 0 
L 1766 0 
Q 1100 0 847 248 
Q 594 497 594 1153 
L 594 3053 
L 172 3053 
L 172 3500 
L 594 3500 
L 594 4494 
L 1172 4494 
z
" id="DejaVuSans-74" transform="scale(0.015625)"/>
      </defs>
      <use xlink:href="#DejaVuSans-45"/>
      <use x="63.183594" xlink:href="#DejaVuSans-78"/>
      <use x="122.363281" xlink:href="#DejaVuSans-61"/>
      <use x="183.642578" xlink:href="#DejaVuSans-63"/>
      <use x="238.623047" xlink:href="#DejaVuSans-74"/>
     </g>
    </g>
    <g id="PathCollection_3">
     <g>
      <use style="fill:#4169e1;stroke:#4169e1;" x="317.9" xlink:href="#m99f27b64ae" y="63.211563"/>
     </g>
    </g>
    <g id="text_18">
     <!-- Leapfrog -->
     <g transform="translate(335.9 65.836563)scale(0.1 -0.1)">
      <defs>
       <path d="M 628 4666 
L 1259 4666 
L 1259 531 
L 3531 531 
L 3531 0 
L 628 0 
L 628 4666 
z
" id="DejaVuSans-4c" transform="scale(0.015625)"/>
       <path d="M 3597 1894 
L 3597 1613 
L 953 1613 
Q 991 1019 1311 708 
Q 1631 397 2203 397 
Q 2534 397 2845 478 
Q 3156 559 3463 722 
L 3463 178 
Q 3153 47 2828 -22 
Q 2503 -91 2169 -91 
Q 1331 -91 842 396 
Q 353 884 353 1716 
Q 353 2575 817 3079 
Q 1281 3584 2069 3584 
Q 2775 3584 3186 3129 
Q 3597 2675 3597 1894 
z
M 3022 2063 
Q 3016 2534 2758 2815 
Q 2500 3097 2075 3097 
Q 1594 3097 1305 2825 
Q 1016 2553 972 2059 
L 3022 2063 
z
" id="DejaVuSans-65" transform="scale(0.015625)"/>
       <path d="M 2375 4863 
L 2375 4384 
L 1825 4384 
Q 1516 4384 1395 4259 
Q 1275 4134 1275 3809 
L 1275 3500 
L 2222 3500 
L 2222 3053 
L 1275 3053 
L 1275 0 
L 697 0 
L 697 3053 
L 147 3053 
L 147 3500 
L 697 3500 
L 697 3744 
Q 697 4328 969 4595 
Q 1241 4863 1831 4863 
L 2375 4863 
z
" id="DejaVuSans-66" transform="scale(0.015625)"/>
       <path d="M 2631 2963 
Q 2534 3019 2420 3045 
Q 2306 3072 2169 3072 
Q 1681 3072 1420 2755 
Q 1159 2438 1159 1844 
L 1159 0 
L 581 0 
L 581 3500 
L 1159 3500 
L 1159 2956 
Q 1341 3275 1631 3429 
Q 1922 3584 2338 3584 
Q 2397 3584 2469 3576 
Q 2541 3569 2628 3553 
L 2631 2963 
z
" id="DejaVuSans-72" transform="scale(0.015625)"/>
       <path d="M 1959 3097 
Q 1497 3097 1228 2736 
Q 959 2375 959 1747 
Q 959 1119 1226 758 
Q 1494 397 1959 397 
Q 2419 397 2687 759 
Q 2956 1122 2956 1747 
Q 2956 2369 2687 2733 
Q 2419 3097 1959 3097 
z
M 1959 3584 
Q 2709 3584 3137 3096 
Q 3566 2609 3566 1747 
Q 3566 888 3137 398 
Q 2709 -91 1959 -91 
Q 1206 -91 779 398 
Q 353 888 353 1747 
Q 353 2609 779 3096 
Q 1206 3584 1959 3584 
z
" id="DejaVuSans-6f" transform="scale(0.015625)"/>
       <path d="M 2906 1791 
Q 2906 2416 2648 2759 
Q 2391 3103 1925 3103 
Q 1463 3103 1205 2759 
Q 947 2416 947 1791 
Q 947 1169 1205 825 
Q 1463 481 1925 481 
Q 2391 481 2648 825 
Q 2906 1169 2906 1791 
z
M 3481 434 
Q 3481 -459 3084 -895 
Q 2688 -1331 1869 -1331 
Q 1566 -1331 1297 -1286 
Q 1028 -1241 775 -1147 
L 775 -588 
Q 1028 -725 1275 -790 
Q 1522 -856 1778 -856 
Q 2344 -856 2625 -561 
Q 2906 -266 2906 331 
L 2906 616 
Q 2728 306 2450 153 
Q 2172 0 1784 0 
Q 1141 0 747 490 
Q 353 981 353 1791 
Q 353 2603 747 3093 
Q 1141 3584 1784 3584 
Q 2172 3584 2450 3431 
Q 2728 3278 2906 2969 
L 2906 3500 
L 3481 3500 
L 3481 434 
z
" id="DejaVuSans-67" transform="scale(0.015625)"/>
      </defs>
      <use xlink:href="#DejaVuSans-4c"/>
      <use x="53.962891" xlink:href="#DejaVuSans-65"/>
      <use x="115.486328" xlink:href="#DejaVuSans-61"/>
      <use x="176.765625" xlink:href="#DejaVuSans-70"/>
      <use x="240.242188" xlink:href="#DejaVuSans-66"/>
      <use x="275.447266" xlink:href="#DejaVuSans-72"/>
      <use x="314.310547" xlink:href="#DejaVuSans-6f"/>
      <use x="375.492188" xlink:href="#DejaVuSans-67"/>
     </g>
    </g>
    <g id="PathCollection_4">
     <g>
      <use style="fill:#9467bd;stroke:#9467bd;" x="317.9" xlink:href="#m26f9525141" y="77.889688"/>
     </g>
    </g>
    <g id="text_19">
     <!-- Euler -->
     <g transform="translate(335.9 80.514688)scale(0.1 -0.1)">
      <defs>
       <path d="M 544 1381 
L 544 3500 
L 1119 3500 
L 1119 1403 
Q 1119 906 1312 657 
Q 1506 409 1894 409 
Q 2359 409 2629 706 
Q 2900 1003 2900 1516 
L 2900 3500 
L 3475 3500 
L 3475 0 
L 2900 0 
L 2900 538 
Q 2691 219 2414 64 
Q 2138 -91 1772 -91 
Q 1169 -91 856 284 
Q 544 659 544 1381 
z
M 1991 3584 
L 1991 3584 
z
" id="DejaVuSans-75" transform="scale(0.015625)"/>
       <path d="M 603 4863 
L 1178 4863 
L 1178 0 
L 603 0 
L 603 4863 
z
" id="DejaVuSans-6c" transform="scale(0.015625)"/>
      </defs>
      <use xlink:href="#DejaVuSans-45"/>
      <use x="63.183594" xlink:href="#DejaVuSans-75"/>
      <use x="126.5625" xlink:href="#DejaVuSans-6c"/>
      <use x="154.345703" xlink:href="#DejaVuSans-65"/>
      <use x="215.869141" xlink:href="#DejaVuSans-72"/>
     </g>
    </g>
   </g>
  </g>
 </g>
 <defs>
  <clipPath id="p91fc21f479">
   <rect height="217.44" width="334.8" x="54" y="34.56"/>
  </clipPath>
 </defs>
</svg>
