<?xml version="1.0" encoding="utf-8" standalone="no"?>
<!DOCTYPE svg PUBLIC "-//W3C//DTD SVG 1.1//EN"
  "http://www.w3.org/Graphics/SVG/1.1/DTD/svg11.dtd">
<svg height="288pt" version="1.1" viewBox="0 0 432 288" width="432pt" xmlns="http://www.w3.org/2000/svg" xmlns:xlink="http://www.w3.org/1999/xlink">
 <metadata>
  <rdf:RDF xmlns:cc="http://creativecommons.org/ns#" xmlns:dc="http://purl.org/dc/elements/1.1/" xmlns:rdf="http://www.w3.org/1999/02/22-rdf-syntax-ns#">
   <cc:Work>
    <dc:type rdf:resource="http://purl.org/dc/dcmitype/StillImage"/>
    <dc:date>2022-04-13T10:31:19.755545</dc:date>
    <dc:format>image/svg+xml</dc:format>
    <dc:creator>
     <cc:Agent>
      <dc:title>Matplotlib v3.4.3, https://matplotlib.org/</dc:title>
     </cc:Agent>
    </dc:creator>
   </cc:Work>
  </rdf:RDF>
 </metadata>
 <defs>
  <style type="text/css">*{stroke-linecap:butt;stroke-linejoin:round;}</style>
 </defs>
 <g id="figure_1">
  <g id="patch_1">
   <path d="M 0 288 
L 432 288 
L 432 0 
L 0 0 
z
" style="fill:none;"/>
  </g>
  <g id="axes_1">
   <g id="patch_2">
    <path d="M 54 252 
L 388.8 252 
L 388.8 34.56 
L 54 34.56 
z
" style="fill:#ffffff;"/>
   </g>
   <g id="PathCollection_1">
    <defs>
     <path d="M 0 1.581139 
C 0.419323 1.581139 0.821528 1.41454 1.118034 1.118034 
C 1.41454 0.821528 1.581139 0.419323 1.581139 0 
C 1.581139 -0.419323 1.41454 -0.821528 1.118034 -1.118034 
C 0.821528 -1.41454 0.419323 -1.581139 0 -1.581139 
C -0.419323 -1.581139 -0.821528 -1.41454 -1.118034 -1.118034 
C -1.41454 -0.821528 -1.581139 -0.419323 -1.581139 0 
C -1.581139 0.419323 -1.41454 0.821528 -1.118034 1.118034 
C -0.821528 1.41454 -0.419323 1.581139 0 1.581139 
z
" id="ma9043e3183" style="stroke:#0000ff;"/>
    </defs>
    <g clip-path="url(#p903f5cd5c8)">
     <use style="fill:#0000ff;stroke:#0000ff;" x="277.594276" xlink:href="#ma9043e3183" y="102.143633"/>
     <use style="fill:#0000ff;stroke:#0000ff;" x="267.592749" xlink:href="#ma9043e3183" y="88.697891"/>
     <use style="fill:#0000ff;stroke:#0000ff;" x="254.098326" xlink:href="#ma9043e3183" y="78.857665"/>
     <use style="fill:#0000ff;stroke:#0000ff;" x="238.325506" xlink:href="#ma9043e3183" y="73.508576"/>
     <use style="fill:#0000ff;stroke:#0000ff;" x="221.693842" xlink:href="#ma9043e3183" y="73.132043"/>
     <use style="fill:#0000ff;stroke:#0000ff;" x="205.700185" xlink:href="#ma9043e3183" y="77.761952"/>
     <use style="fill:#0000ff;stroke:#0000ff;" x="191.783964" xlink:href="#ma9043e3183" y="86.981613"/>
     <use style="fill:#0000ff;stroke:#0000ff;" x="181.197638" xlink:href="#ma9043e3183" y="99.961255"/>
     <use style="fill:#0000ff;stroke:#0000ff;" x="174.893976" xlink:href="#ma9043e3183" y="115.532711"/>
     <use style="fill:#0000ff;stroke:#0000ff;" x="173.440309" xlink:href="#ma9043e3183" y="132.29455"/>
     <use style="fill:#0000ff;stroke:#0000ff;" x="176.967466" xlink:href="#ma9043e3183" y="148.738207"/>
     <use style="fill:#0000ff;stroke:#0000ff;" x="185.158004" xlink:href="#ma9043e3183" y="163.383751"/>
     <use style="fill:#0000ff;stroke:#0000ff;" x="197.274773" xlink:href="#ma9043e3183" y="174.913085"/>
     <use style="fill:#0000ff;stroke:#0000ff;" x="212.227265" xlink:href="#ma9043e3183" y="182.288569"/>
     <use style="fill:#0000ff;stroke:#0000ff;" x="228.669755" xlink:href="#ma9043e3183" y="184.846408"/>
     <use style="fill:#0000ff;stroke:#0000ff;" x="245.122419" xlink:href="#ma9043e3183" y="182.356397"/>
     <use style="fill:#0000ff;stroke:#0000ff;" x="260.104518" xlink:href="#ma9043e3183" y="175.042637"/>
     <use style="fill:#0000ff;stroke:#0000ff;" x="272.267662" xlink:href="#ma9043e3183" y="163.563367"/>
     <use style="fill:#0000ff;stroke:#0000ff;" x="280.517169" xlink:href="#ma9043e3183" y="148.951721"/>
     <use style="fill:#0000ff;stroke:#0000ff;" x="284.110583" xlink:href="#ma9043e3183" y="132.522746"/>
     <use style="fill:#0000ff;stroke:#0000ff;" x="282.724496" xlink:href="#ma9043e3183" y="115.755052"/>
    </g>
   </g>
   <g id="PathCollection_2">
    <defs>
     <path d="M 0 1.581139 
C 0.419323 1.581139 0.821528 1.41454 1.118034 1.118034 
C 1.41454 0.821528 1.581139 0.419323 1.581139 0 
C 1.581139 -0.419323 1.41454 -0.821528 1.118034 -1.118034 
C 0.821528 -1.41454 0.419323 -1.581139 0 -1.581139 
C -0.419323 -1.581139 -0.821528 -1.41454 -1.118034 -1.118034 
C -1.41454 -0.821528 -1.581139 -0.419323 -1.581139 0 
C -1.581139 0.419323 -1.41454 0.821528 -1.118034 1.118034 
C -0.821528 1.41454 -0.419323 1.581139 0 1.581139 
z
" id="me67b8e69f1" style="stroke:#000000;"/>
    </defs>
    <g clip-path="url(#p903f5cd5c8)">
     <use style="stroke:#000000;" x="277.594276" xlink:href="#me67b8e69f1" y="102.143633"/>
     <use style="stroke:#000000;" x="273.601943" xlink:href="#me67b8e69f1" y="87.500191"/>
     <use style="stroke:#000000;" x="267.413094" xlink:href="#me67b8e69f1" y="74.054449"/>
     <use style="stroke:#000000;" x="259.207383" xlink:href="#me67b8e69f1" y="62.465361"/>
     <use style="stroke:#000000;" x="249.263309" xlink:href="#me67b8e69f1" y="53.337987"/>
     <use style="stroke:#000000;" x="237.950129" xlink:href="#me67b8e69f1" y="47.193834"/>
     <use style="stroke:#000000;" x="225.715326" xlink:href="#me67b8e69f1" y="44.443636"/>
     <use style="stroke:#000000;" x="213.067993" xlink:href="#me67b8e69f1" y="45.363879"/>
     <use style="stroke:#000000;" x="200.558697" xlink:href="#me67b8e69f1" y="50.078322"/>
     <use style="stroke:#000000;" x="188.756567" xlink:href="#me67b8e69f1" y="58.545553"/>
     <use style="stroke:#000000;" x="178.224522" xlink:href="#me67b8e69f1" y="70.553424"/>
     <use style="stroke:#000000;" x="169.493657" xlink:href="#me67b8e69f1" y="85.720908"/>
     <use style="stroke:#000000;" x="163.037915" xlink:href="#me67b8e69f1" y="103.507651"/>
     <use style="stroke:#000000;" x="159.250185" xlink:href="#me67b8e69f1" y="123.231117"/>
     <use style="stroke:#000000;" x="158.420974" xlink:href="#me67b8e69f1" y="144.090902"/>
     <use style="stroke:#000000;" x="160.720731" xlink:href="#me67b8e69f1" y="165.19945"/>
     <use style="stroke:#000000;" x="166.186771" xlink:href="#me67b8e69f1" y="185.618071"/>
     <use style="stroke:#000000;" x="174.715603" xlink:href="#me67b8e69f1" y="204.396881"/>
     <use style="stroke:#000000;" x="186.061257" xlink:href="#me67b8e69f1" y="220.61704"/>
     <use style="stroke:#000000;" x="199.839935" xlink:href="#me67b8e69f1" y="233.433504"/>
     <use style="stroke:#000000;" x="215.541083" xlink:href="#me67b8e69f1" y="242.116364"/>
    </g>
   </g>
   <g id="matplotlib.axis_1">
    <g id="xtick_1">
     <g id="line2d_1">
      <defs>
       <path d="M 0 0 
L 0 3.5 
" id="m485fad6c5b" style="stroke:#000000;stroke-width:0.8;"/>
      </defs>
      <g>
       <use style="stroke:#000000;stroke-width:0.8;" x="61.993923" xlink:href="#m485fad6c5b" y="252"/>
      </g>
     </g>
     <g id="text_1">
      <!-- −3 -->
      <g transform="translate(54.622829 266.598437)scale(0.1 -0.1)">
       <defs>
        <path d="M 678 2272 
L 4684 2272 
L 4684 1741 
L 678 1741 
L 678 2272 
z
" id="DejaVuSans-2212" transform="scale(0.015625)"/>
        <path d="M 2597 2516 
Q 3050 2419 3304 2112 
Q 3559 1806 3559 1356 
Q 3559 666 3084 287 
Q 2609 -91 1734 -91 
Q 1441 -91 1130 -33 
Q 819 25 488 141 
L 488 750 
Q 750 597 1062 519 
Q 1375 441 1716 441 
Q 2309 441 2620 675 
Q 2931 909 2931 1356 
Q 2931 1769 2642 2001 
Q 2353 2234 1838 2234 
L 1294 2234 
L 1294 2753 
L 1863 2753 
Q 2328 2753 2575 2939 
Q 2822 3125 2822 3475 
Q 2822 3834 2567 4026 
Q 2313 4219 1838 4219 
Q 1578 4219 1281 4162 
Q 984 4106 628 3988 
L 628 4550 
Q 988 4650 1302 4700 
Q 1616 4750 1894 4750 
Q 2613 4750 3031 4423 
Q 3450 4097 3450 3541 
Q 3450 3153 3228 2886 
Q 3006 2619 2597 2516 
z
" id="DejaVuSans-33" transform="scale(0.015625)"/>
       </defs>
       <use xlink:href="#DejaVuSans-2212"/>
       <use x="83.789062" xlink:href="#DejaVuSans-33"/>
      </g>
     </g>
    </g>
    <g id="xtick_2">
     <g id="line2d_2">
      <g>
       <use style="stroke:#000000;stroke-width:0.8;" x="117.590216" xlink:href="#m485fad6c5b" y="252"/>
      </g>
     </g>
     <g id="text_2">
      <!-- −2 -->
      <g transform="translate(110.219122 266.598437)scale(0.1 -0.1)">
       <defs>
        <path d="M 1228 531 
L 3431 531 
L 3431 0 
L 469 0 
L 469 531 
Q 828 903 1448 1529 
Q 2069 2156 2228 2338 
Q 2531 2678 2651 2914 
Q 2772 3150 2772 3378 
Q 2772 3750 2511 3984 
Q 2250 4219 1831 4219 
Q 1534 4219 1204 4116 
Q 875 4013 500 3803 
L 500 4441 
Q 881 4594 1212 4672 
Q 1544 4750 1819 4750 
Q 2544 4750 2975 4387 
Q 3406 4025 3406 3419 
Q 3406 3131 3298 2873 
Q 3191 2616 2906 2266 
Q 2828 2175 2409 1742 
Q 1991 1309 1228 531 
z
" id="DejaVuSans-32" transform="scale(0.015625)"/>
       </defs>
       <use xlink:href="#DejaVuSans-2212"/>
       <use x="83.789062" xlink:href="#DejaVuSans-32"/>
      </g>
     </g>
    </g>
    <g id="xtick_3">
     <g id="line2d_3">
      <g>
       <use style="stroke:#000000;stroke-width:0.8;" x="173.186509" xlink:href="#m485fad6c5b" y="252"/>
      </g>
     </g>
     <g id="text_3">
      <!-- −1 -->
      <g transform="translate(165.815415 266.598437)scale(0.1 -0.1)">
       <defs>
        <path d="M 794 531 
L 1825 531 
L 1825 4091 
L 703 3866 
L 703 4441 
L 1819 4666 
L 2450 4666 
L 2450 531 
L 3481 531 
L 3481 0 
L 794 0 
L 794 531 
z
" id="DejaVuSans-31" transform="scale(0.015625)"/>
       </defs>
       <use xlink:href="#DejaVuSans-2212"/>
       <use x="83.789062" xlink:href="#DejaVuSans-31"/>
      </g>
     </g>
    </g>
    <g id="xtick_4">
     <g id="line2d_4">
      <g>
       <use style="stroke:#000000;stroke-width:0.8;" x="228.782802" xlink:href="#m485fad6c5b" y="252"/>
      </g>
     </g>
     <g id="text_4">
      <!-- 0 -->
      <g transform="translate(225.601552 266.598437)scale(0.1 -0.1)">
       <defs>
        <path d="M 2034 4250 
Q 1547 4250 1301 3770 
Q 1056 3291 1056 2328 
Q 1056 1369 1301 889 
Q 1547 409 2034 409 
Q 2525 409 2770 889 
Q 3016 1369 3016 2328 
Q 3016 3291 2770 3770 
Q 2525 4250 2034 4250 
z
M 2034 4750 
Q 2819 4750 3233 4129 
Q 3647 3509 3647 2328 
Q 3647 1150 3233 529 
Q 2819 -91 2034 -91 
Q 1250 -91 836 529 
Q 422 1150 422 2328 
Q 422 3509 836 4129 
Q 1250 4750 2034 4750 
z
" id="DejaVuSans-30" transform="scale(0.015625)"/>
       </defs>
       <use xlink:href="#DejaVuSans-30"/>
      </g>
     </g>
    </g>
    <g id="xtick_5">
     <g id="line2d_5">
      <g>
       <use style="stroke:#000000;stroke-width:0.8;" x="284.379095" xlink:href="#m485fad6c5b" y="252"/>
      </g>
     </g>
     <g id="text_5">
      <!-- 1 -->
      <g transform="translate(281.197845 266.598437)scale(0.1 -0.1)">
       <use xlink:href="#DejaVuSans-31"/>
      </g>
     </g>
    </g>
    <g id="xtick_6">
     <g id="line2d_6">
      <g>
       <use style="stroke:#000000;stroke-width:0.8;" x="339.975387" xlink:href="#m485fad6c5b" y="252"/>
      </g>
     </g>
     <g id="text_6">
      <!-- 2 -->
      <g transform="translate(336.794137 266.598437)scale(0.1 -0.1)">
       <use xlink:href="#DejaVuSans-32"/>
      </g>
     </g>
    </g>
   </g>
   <g id="matplotlib.axis_2">
    <g id="ytick_1">
     <g id="line2d_7">
      <defs>
       <path d="M 0 0 
L -3.5 0 
" id="mc2e281cd83" style="stroke:#000000;stroke-width:0.8;"/>
      </defs>
      <g>
       <use style="stroke:#000000;stroke-width:0.8;" x="54" xlink:href="#mc2e281cd83" y="239.951773"/>
      </g>
     </g>
     <g id="text_7">
      <!-- −2.0 -->
      <g transform="translate(22.717187 243.750992)scale(0.1 -0.1)">
       <defs>
        <path d="M 684 794 
L 1344 794 
L 1344 0 
L 684 0 
L 684 794 
z
" id="DejaVuSans-2e" transform="scale(0.015625)"/>
       </defs>
       <use xlink:href="#DejaVuSans-2212"/>
       <use x="83.789062" xlink:href="#DejaVuSans-32"/>
       <use x="147.412109" xlink:href="#DejaVuSans-2e"/>
       <use x="179.199219" xlink:href="#DejaVuSans-30"/>
      </g>
     </g>
    </g>
    <g id="ytick_2">
     <g id="line2d_8">
      <g>
       <use style="stroke:#000000;stroke-width:0.8;" x="54" xlink:href="#mc2e281cd83" y="212.153627"/>
      </g>
     </g>
     <g id="text_8">
      <!-- −1.5 -->
      <g transform="translate(22.717187 215.952846)scale(0.1 -0.1)">
       <defs>
        <path d="M 691 4666 
L 3169 4666 
L 3169 4134 
L 1269 4134 
L 1269 2991 
Q 1406 3038 1543 3061 
Q 1681 3084 1819 3084 
Q 2600 3084 3056 2656 
Q 3513 2228 3513 1497 
Q 3513 744 3044 326 
Q 2575 -91 1722 -91 
Q 1428 -91 1123 -41 
Q 819 9 494 109 
L 494 744 
Q 775 591 1075 516 
Q 1375 441 1709 441 
Q 2250 441 2565 725 
Q 2881 1009 2881 1497 
Q 2881 1984 2565 2268 
Q 2250 2553 1709 2553 
Q 1456 2553 1204 2497 
Q 953 2441 691 2322 
L 691 4666 
z
" id="DejaVuSans-35" transform="scale(0.015625)"/>
       </defs>
       <use xlink:href="#DejaVuSans-2212"/>
       <use x="83.789062" xlink:href="#DejaVuSans-31"/>
       <use x="147.412109" xlink:href="#DejaVuSans-2e"/>
       <use x="179.199219" xlink:href="#DejaVuSans-35"/>
      </g>
     </g>
    </g>
    <g id="ytick_3">
     <g id="line2d_9">
      <g>
       <use style="stroke:#000000;stroke-width:0.8;" x="54" xlink:href="#mc2e281cd83" y="184.35548"/>
      </g>
     </g>
     <g id="text_9">
      <!-- −1.0 -->
      <g transform="translate(22.717187 188.154699)scale(0.1 -0.1)">
       <use xlink:href="#DejaVuSans-2212"/>
       <use x="83.789062" xlink:href="#DejaVuSans-31"/>
       <use x="147.412109" xlink:href="#DejaVuSans-2e"/>
       <use x="179.199219" xlink:href="#DejaVuSans-30"/>
      </g>
     </g>
    </g>
    <g id="ytick_4">
     <g id="line2d_10">
      <g>
       <use style="stroke:#000000;stroke-width:0.8;" x="54" xlink:href="#mc2e281cd83" y="156.557334"/>
      </g>
     </g>
     <g id="text_10">
      <!-- −0.5 -->
      <g transform="translate(22.717187 160.356553)scale(0.1 -0.1)">
       <use xlink:href="#DejaVuSans-2212"/>
       <use x="83.789062" xlink:href="#DejaVuSans-30"/>
       <use x="147.412109" xlink:href="#DejaVuSans-2e"/>
       <use x="179.199219" xlink:href="#DejaVuSans-35"/>
      </g>
     </g>
    </g>
    <g id="ytick_5">
     <g id="line2d_11">
      <g>
       <use style="stroke:#000000;stroke-width:0.8;" x="54" xlink:href="#mc2e281cd83" y="128.759188"/>
      </g>
     </g>
     <g id="text_11">
      <!-- 0.0 -->
      <g transform="translate(31.096875 132.558406)scale(0.1 -0.1)">
       <use xlink:href="#DejaVuSans-30"/>
       <use x="63.623047" xlink:href="#DejaVuSans-2e"/>
       <use x="95.410156" xlink:href="#DejaVuSans-30"/>
      </g>
     </g>
    </g>
    <g id="ytick_6">
     <g id="line2d_12">
      <g>
       <use style="stroke:#000000;stroke-width:0.8;" x="54" xlink:href="#mc2e281cd83" y="100.961041"/>
      </g>
     </g>
     <g id="text_12">
      <!-- 0.5 -->
      <g transform="translate(31.096875 104.76026)scale(0.1 -0.1)">
       <use xlink:href="#DejaVuSans-30"/>
       <use x="63.623047" xlink:href="#DejaVuSans-2e"/>
       <use x="95.410156" xlink:href="#DejaVuSans-35"/>
      </g>
     </g>
    </g>
    <g id="ytick_7">
     <g id="line2d_13">
      <g>
       <use style="stroke:#000000;stroke-width:0.8;" x="54" xlink:href="#mc2e281cd83" y="73.162895"/>
      </g>
     </g>
     <g id="text_13">
      <!-- 1.0 -->
      <g transform="translate(31.096875 76.962113)scale(0.1 -0.1)">
       <use xlink:href="#DejaVuSans-31"/>
       <use x="63.623047" xlink:href="#DejaVuSans-2e"/>
       <use x="95.410156" xlink:href="#DejaVuSans-30"/>
      </g>
     </g>
    </g>
    <g id="ytick_8">
     <g id="line2d_14">
      <g>
       <use style="stroke:#000000;stroke-width:0.8;" x="54" xlink:href="#mc2e281cd83" y="45.364748"/>
      </g>
     </g>
     <g id="text_14">
      <!-- 1.5 -->
      <g transform="translate(31.096875 49.163967)scale(0.1 -0.1)">
       <use xlink:href="#DejaVuSans-31"/>
       <use x="63.623047" xlink:href="#DejaVuSans-2e"/>
       <use x="95.410156" xlink:href="#DejaVuSans-35"/>
      </g>
     </g>
    </g>
   </g>
   <g id="line2d_15">
    <path clip-path="url(#p903f5cd5c8)" d="M 228.782802 73.162895 
L 232.277212 73.272821 
L 235.757803 73.602165 
L 239.210812 74.149625 
L 242.622585 74.913035 
L 245.979628 75.889376 
L 249.268668 77.074789 
L 252.476697 78.464584 
L 255.59103 80.053267 
L 258.599352 81.834555 
L 261.489765 83.801404 
L 264.250841 85.946036 
L 266.87166 88.25997 
L 269.341859 90.734056 
L 271.651669 93.35851 
L 273.791957 96.122955 
L 275.754259 99.016457 
L 277.530814 102.027576 
L 279.114598 105.144403 
L 280.499348 108.354614 
L 281.679587 111.645513 
L 282.650649 115.004088 
L 283.408694 118.417056 
L 283.950723 121.870922 
L 284.274594 125.352027 
L 284.379026 128.846605 
L 284.263605 132.340838 
L 283.928789 135.820907 
L 283.375901 139.273052 
L 282.607127 142.683619 
L 281.625508 146.039123 
L 280.434925 149.326295 
L 279.040087 152.532135 
L 277.446509 155.643967 
L 275.660494 158.649484 
L 273.689102 161.536801 
L 271.540132 164.294501 
L 269.22208 166.911679 
L 266.744113 169.377984 
L 264.11603 171.683665 
L 261.348223 173.819604 
L 258.451639 175.777353 
L 255.437731 177.549172 
L 252.318417 179.128053 
L 249.106033 180.507753 
L 245.813282 181.682817 
L 242.453184 182.648597 
L 239.039028 183.401274 
L 235.584315 183.937872 
L 232.102705 184.256269 
L 228.607966 184.355206 
L 225.113919 184.234291 
L 221.634381 183.894003 
L 218.18311 183.335687 
L 214.773756 182.561552 
L 211.419799 181.574658 
L 208.134503 180.378908 
L 204.93086 178.979031 
L 201.821539 177.380562 
L 198.818834 175.589823 
L 195.93462 173.613894 
L 193.180302 171.46059 
L 190.566772 169.138426 
L 188.104366 166.656584 
L 185.80282 164.024879 
L 183.671237 161.253717 
L 181.718044 158.354058 
L 179.950967 155.337368 
L 178.376992 152.215575 
L 177.002344 149.001026 
L 175.83246 145.706431 
L 174.871964 142.344819 
L 174.124656 138.929484 
L 173.593491 135.473931 
L 173.280569 131.991825 
L 173.187127 128.496935 
L 173.313536 125.003082 
L 173.659295 121.524083 
L 174.223036 118.073695 
L 175.002531 114.665562 
L 175.994698 111.313161 
L 177.195612 108.02975 
L 178.600524 104.828312 
L 180.20388 101.721507 
L 181.999339 98.721622 
L 183.9798 95.840518 
L 186.137432 93.08959 
L 188.463703 90.479714 
L 190.949414 88.021214 
L 193.584734 85.723809 
L 196.359244 83.596585 
L 199.261971 81.647954 
L 202.281436 79.885622 
L 205.4057 78.316558 
L 208.622407 76.946967 
L 211.918837 75.782264 
L 215.281954 74.827055 
L 218.698461 74.085118 
L 222.154845 73.559387 
L 225.637439 73.251941 
L 228.782802 73.162895 
L 228.782802 73.162895 
" style="fill:none;stroke:#ff0000;stroke-linecap:square;stroke-width:0.25;"/>
   </g>
   <g id="patch_3">
    <path d="M 54 252 
L 54 34.56 
" style="fill:none;stroke:#000000;stroke-linecap:square;stroke-linejoin:miter;stroke-width:0.8;"/>
   </g>
   <g id="patch_4">
    <path d="M 388.8 252 
L 388.8 34.56 
" style="fill:none;stroke:#000000;stroke-linecap:square;stroke-linejoin:miter;stroke-width:0.8;"/>
   </g>
   <g id="patch_5">
    <path d="M 54 252 
L 388.8 252 
" style="fill:none;stroke:#000000;stroke-linecap:square;stroke-linejoin:miter;stroke-width:0.8;"/>
   </g>
   <g id="patch_6">
    <path d="M 54 34.56 
L 388.8 34.56 
" style="fill:none;stroke:#000000;stroke-linecap:square;stroke-linejoin:miter;stroke-width:0.8;"/>
   </g>
   <g id="legend_1">
    <g id="patch_7">
     <path d="M 305.9 86.594375 
L 381.8 86.594375 
Q 383.8 86.594375 383.8 84.594375 
L 383.8 41.56 
Q 383.8 39.56 381.8 39.56 
L 305.9 39.56 
Q 303.9 39.56 303.9 41.56 
L 303.9 84.594375 
Q 303.9 86.594375 305.9 86.594375 
z
" style="fill:#ffffff;opacity:0.8;stroke:#cccccc;stroke-linejoin:miter;"/>
    </g>
    <g id="line2d_16">
     <path d="M 307.9 47.658438 
L 327.9 47.658438 
" style="fill:none;stroke:#ff0000;stroke-linecap:square;stroke-width:0.25;"/>
    </g>
    <g id="line2d_17"/>
    <g id="text_15">
     <!-- Exact -->
     <g transform="translate(335.9 51.158438)scale(0.1 -0.1)">
      <defs>
       <path d="M 628 4666 
L 3578 4666 
L 3578 4134 
L 1259 4134 
L 1259 2753 
L 3481 2753 
L 3481 2222 
L 1259 2222 
L 1259 531 
L 3634 531 
L 3634 0 
L 628 0 
L 628 4666 
z
" id="DejaVuSans-45" transform="scale(0.015625)"/>
       <path d="M 3513 3500 
L 2247 1797 
L 3578 0 
L 2900 0 
L 1881 1375 
L 863 0 
L 184 0 
L 1544 1831 
L 300 3500 
L 978 3500 
L 1906 2253 
L 2834 3500 
L 3513 3500 
z
" id="DejaVuSans-78" transform="scale(0.015625)"/>
       <path d="M 2194 1759 
Q 1497 1759 1228 1600 
Q 959 1441 959 1056 
Q 959 750 1161 570 
Q 1363 391 1709 391 
Q 2188 391 2477 730 
Q 2766 1069 2766 1631 
L 2766 1759 
L 2194 1759 
z
M 3341 1997 
L 3341 0 
L 2766 0 
L 2766 531 
Q 2569 213 2275 61 
Q 1981 -91 1556 -91 
Q 1019 -91 701 211 
Q 384 513 384 1019 
Q 384 1609 779 1909 
Q 1175 2209 1959 2209 
L 2766 2209 
L 2766 2266 
Q 2766 2663 2505 2880 
Q 2244 3097 1772 3097 
Q 1472 3097 1187 3025 
Q 903 2953 641 2809 
L 641 3341 
Q 956 3463 1253 3523 
Q 1550 3584 1831 3584 
Q 2591 3584 2966 3190 
Q 3341 2797 3341 1997 
z
" id="DejaVuSans-61" transform="scale(0.015625)"/>
       <path d="M 3122 3366 
L 3122 2828 
Q 2878 2963 2633 3030 
Q 2388 3097 2138 3097 
Q 1578 3097 1268 2742 
Q 959 2388 959 1747 
Q 959 1106 1268 751 
Q 1578 397 2138 397 
Q 2388 397 2633 464 
Q 2878 531 3122 666 
L 3122 134 
Q 2881 22 2623 -34 
Q 2366 -91 2075 -91 
Q 1284 -91 818 406 
Q 353 903 353 1747 
Q 353 2603 823 3093 
Q 1294 3584 2113 3584 
Q 2378 3584 2631 3529 
Q 2884 3475 3122 3366 
z
" id="DejaVuSans-63" transform="scale(0.015625)"/>
       <path d="M 1172 4494 
L 1172 3500 
L 2356 3500 
L 2356 3053 
L 1172 3053 
L 1172 1153 
Q 1172 725 1289 603 
Q 1406 481 1766 481 
L 2356 481 
L 2356 0 
L 1766 0 
Q 1100 0 847 248 
Q 594 497 594 1153 
L 594 3053 
L 172 3053 
L 172 3500 
L 594 3500 
L 594 4494 
L 1172 4494 
z
" id="DejaVuSans-74" transform="scale(0.015625)"/>
      </defs>
      <use xlink:href="#DejaVuSans-45"/>
      <use x="63.183594" xlink:href="#DejaVuSans-78"/>
      <use x="122.363281" xlink:href="#DejaVuSans-61"/>
      <use x="183.642578" xlink:href="#DejaVuSans-63"/>
      <use x="238.623047" xlink:href="#DejaVuSans-74"/>
     </g>
    </g>
    <g id="PathCollection_3">
     <g>
      <use style="fill:#0000ff;stroke:#0000ff;" x="317.9" xlink:href="#ma9043e3183" y="63.211563"/>
     </g>
    </g>
    <g id="text_16">
     <!-- Leapfrog -->
     <g transform="translate(335.9 65.836563)scale(0.1 -0.1)">
      <defs>
       <path d="M 628 4666 
L 1259 4666 
L 1259 531 
L 3531 531 
L 3531 0 
L 628 0 
L 628 4666 
z
" id="DejaVuSans-4c" transform="scale(0.015625)"/>
       <path d="M 3597 1894 
L 3597 1613 
L 953 1613 
Q 991 1019 1311 708 
Q 1631 397 2203 397 
Q 2534 397 2845 478 
Q 3156 559 3463 722 
L 3463 178 
Q 3153 47 2828 -22 
Q 2503 -91 2169 -91 
Q 1331 -91 842 396 
Q 353 884 353 1716 
Q 353 2575 817 3079 
Q 1281 3584 2069 3584 
Q 2775 3584 3186 3129 
Q 3597 2675 3597 1894 
z
M 3022 2063 
Q 3016 2534 2758 2815 
Q 2500 3097 2075 3097 
Q 1594 3097 1305 2825 
Q 1016 2553 972 2059 
L 3022 2063 
z
" id="DejaVuSans-65" transform="scale(0.015625)"/>
       <path d="M 1159 525 
L 1159 -1331 
L 581 -1331 
L 581 3500 
L 1159 3500 
L 1159 2969 
Q 1341 3281 1617 3432 
Q 1894 3584 2278 3584 
Q 2916 3584 3314 3078 
Q 3713 2572 3713 1747 
Q 3713 922 3314 415 
Q 2916 -91 2278 -91 
Q 1894 -91 1617 61 
Q 1341 213 1159 525 
z
M 3116 1747 
Q 3116 2381 2855 2742 
Q 2594 3103 2138 3103 
Q 1681 3103 1420 2742 
Q 1159 2381 1159 1747 
Q 1159 1113 1420 752 
Q 1681 391 2138 391 
Q 2594 391 2855 752 
Q 3116 1113 3116 1747 
z
" id="DejaVuSans-70" transform="scale(0.015625)"/>
       <path d="M 2375 4863 
L 2375 4384 
L 1825 4384 
Q 1516 4384 1395 4259 
Q 1275 4134 1275 3809 
L 1275 3500 
L 2222 3500 
L 2222 3053 
L 1275 3053 
L 1275 0 
L 697 0 
L 697 3053 
L 147 3053 
L 147 3500 
L 697 3500 
L 697 3744 
Q 697 4328 969 4595 
Q 1241 4863 1831 4863 
L 2375 4863 
z
" id="DejaVuSans-66" transform="scale(0.015625)"/>
       <path d="M 2631 2963 
Q 2534 3019 2420 3045 
Q 2306 3072 2169 3072 
Q 1681 3072 1420 2755 
Q 1159 2438 1159 1844 
L 1159 0 
L 581 0 
L 581 3500 
L 1159 3500 
L 1159 2956 
Q 1341 3275 1631 3429 
Q 1922 3584 2338 3584 
Q 2397 3584 2469 3576 
Q 2541 3569 2628 3553 
L 2631 2963 
z
" id="DejaVuSans-72" transform="scale(0.015625)"/>
       <path d="M 1959 3097 
Q 1497 3097 1228 2736 
Q 959 2375 959 1747 
Q 959 1119 1226 758 
Q 1494 397 1959 397 
Q 2419 397 2687 759 
Q 2956 1122 2956 1747 
Q 2956 2369 2687 2733 
Q 2419 3097 1959 3097 
z
M 1959 3584 
Q 2709 3584 3137 3096 
Q 3566 2609 3566 1747 
Q 3566 888 3137 398 
Q 2709 -91 1959 -91 
Q 1206 -91 779 398 
Q 353 888 353 1747 
Q 353 2609 779 3096 
Q 1206 3584 1959 3584 
z
" id="DejaVuSans-6f" transform="scale(0.015625)"/>
       <path d="M 2906 1791 
Q 2906 2416 2648 2759 
Q 2391 3103 1925 3103 
Q 1463 3103 1205 2759 
Q 947 2416 947 1791 
Q 947 1169 1205 825 
Q 1463 481 1925 481 
Q 2391 481 2648 825 
Q 2906 1169 2906 1791 
z
M 3481 434 
Q 3481 -459 3084 -895 
Q 2688 -1331 1869 -1331 
Q 1566 -1331 1297 -1286 
Q 1028 -1241 775 -1147 
L 775 -588 
Q 1028 -725 1275 -790 
Q 1522 -856 1778 -856 
Q 2344 -856 2625 -561 
Q 2906 -266 2906 331 
L 2906 616 
Q 2728 306 2450 153 
Q 2172 0 1784 0 
Q 1141 0 747 490 
Q 353 981 353 1791 
Q 353 2603 747 3093 
Q 1141 3584 1784 3584 
Q 2172 3584 2450 3431 
Q 2728 3278 2906 2969 
L 2906 3500 
L 3481 3500 
L 3481 434 
z
" id="DejaVuSans-67" transform="scale(0.015625)"/>
      </defs>
      <use xlink:href="#DejaVuSans-4c"/>
      <use x="53.962891" xlink:href="#DejaVuSans-65"/>
      <use x="115.486328" xlink:href="#DejaVuSans-61"/>
      <use x="176.765625" xlink:href="#DejaVuSans-70"/>
      <use x="240.242188" xlink:href="#DejaVuSans-66"/>
      <use x="275.447266" xlink:href="#DejaVuSans-72"/>
      <use x="314.310547" xlink:href="#DejaVuSans-6f"/>
      <use x="375.492188" xlink:href="#DejaVuSans-67"/>
     </g>
    </g>
    <g id="PathCollection_4">
     <g>
      <use style="stroke:#000000;" x="317.9" xlink:href="#me67b8e69f1" y="77.889688"/>
     </g>
    </g>
    <g id="text_17">
     <!-- Euler -->
     <g transform="translate(335.9 80.514688)scale(0.1 -0.1)">
      <defs>
       <path d="M 544 1381 
L 544 3500 
L 1119 3500 
L 1119 1403 
Q 1119 906 1312 657 
Q 1506 409 1894 409 
Q 2359 409 2629 706 
Q 2900 1003 2900 1516 
L 2900 3500 
L 3475 3500 
L 3475 0 
L 2900 0 
L 2900 538 
Q 2691 219 2414 64 
Q 2138 -91 1772 -91 
Q 1169 -91 856 284 
Q 544 659 544 1381 
z
M 1991 3584 
L 1991 3584 
z
" id="DejaVuSans-75" transform="scale(0.015625)"/>
       <path d="M 603 4863 
L 1178 4863 
L 1178 0 
L 603 0 
L 603 4863 
z
" id="DejaVuSans-6c" transform="scale(0.015625)"/>
      </defs>
      <use xlink:href="#DejaVuSans-45"/>
      <use x="63.183594" xlink:href="#DejaVuSans-75"/>
      <use x="126.5625" xlink:href="#DejaVuSans-6c"/>
      <use x="154.345703" xlink:href="#DejaVuSans-65"/>
      <use x="215.869141" xlink:href="#DejaVuSans-72"/>
     </g>
    </g>
   </g>
  </g>
 </g>
 <defs>
  <clipPath id="p903f5cd5c8">
   <rect height="217.44" width="334.8" x="54" y="34.56"/>
  </clipPath>
 </defs>
</svg>
