<?xml version="1.0" encoding="UTF-8" standalone="no"?>
<svg
   width="460.8pt"
   height="345.6pt"
   viewBox="0 0 460.8 345.6"
   version="1.1"
   id="svg151"
   sodipodi:docname="lorenz_seperation_s=16_rho=40_beta=4.svg"
   inkscape:version="1.3 (0e150ed, 2023-07-21)"
   xmlns:inkscape="http://www.inkscape.org/namespaces/inkscape"
   xmlns:sodipodi="http://sodipodi.sourceforge.net/DTD/sodipodi-0.dtd"
   xmlns:xlink="http://www.w3.org/1999/xlink"
   xmlns="http://www.w3.org/2000/svg"
   xmlns:svg="http://www.w3.org/2000/svg"
   xmlns:rdf="http://www.w3.org/1999/02/22-rdf-syntax-ns#"
   xmlns:cc="http://creativecommons.org/ns#"
   xmlns:dc="http://purl.org/dc/elements/1.1/">
  <sodipodi:namedview
     id="namedview151"
     pagecolor="#ffffff"
     bordercolor="#666666"
     borderopacity="1.0"
     inkscape:showpageshadow="2"
     inkscape:pageopacity="0.0"
     inkscape:pagecheckerboard="0"
     inkscape:deskcolor="#d1d1d1"
     inkscape:document-units="pt"
     inkscape:zoom="1.8164063"
     inkscape:cx="307.47526"
     inkscape:cy="230.39999"
     inkscape:window-width="1624"
     inkscape:window-height="1006"
     inkscape:window-x="54"
     inkscape:window-y="28"
     inkscape:window-maximized="0"
     inkscape:current-layer="figure_1" />
  <metadata
     id="metadata1">
    <rdf:RDF>
      <cc:Work>
        <dc:type
           rdf:resource="http://purl.org/dc/dcmitype/StillImage" />
        <dc:date>2024-01-03T16:20:20.042245</dc:date>
        <dc:format>image/svg+xml</dc:format>
        <dc:creator>
          <cc:Agent>
            <dc:title>Matplotlib v3.8.2, https://matplotlib.org/</dc:title>
          </cc:Agent>
        </dc:creator>
      </cc:Work>
    </rdf:RDF>
  </metadata>
  <defs
     id="defs1">
    <style
       type="text/css"
       id="style1">*{stroke-linejoin: round; stroke-linecap: butt}</style>
  </defs>
  <g
     id="figure_1">
    <g
       id="patch_1">
      <path
         d="M 0 345.6  L 460.8 345.6  L 460.8 0  L 0 0  z "
         style="fill: #ffffff"
         id="path1" />
    </g>
    <g
       id="axes_1">
      <g
         id="patch_2">
        <path
           d="M 57.6 307.584  L 414.72 307.584  L 414.72 41.472  L 57.6 41.472  z "
           style="fill: #ffffff"
           id="path2" />
      </g>
      <g
         id="matplotlib.axis_1">
        <g
           id="xtick_1">
          <g
             id="line2d_1">
            <defs
               id="defs2">
              <path
                 id="m09b8daac0b"
                 d="M 0 0  L 0 3.5  "
                 style="stroke: #000000; stroke-width: 0.8" />
            </defs>
            <g
               id="g2">
              <use
                 xlink:href="#m09b8daac0b"
                 x="73.832727"
                 y="307.584"
                 style="stroke: #000000; stroke-width: 0.8"
                 id="use2" />
            </g>
          </g>
          <g
             id="text_1">
            <!-- 0 -->
            <g
               transform="translate(70.651477 322.182437) scale(0.1 -0.1)"
               id="g3">
              <defs
                 id="defs3">
                <path
                   id="DejaVuSans-30"
                   d="M 2034 4250  Q 1547 4250 1301 3770  Q 1056 3291 1056 2328  Q 1056 1369 1301 889  Q 1547 409 2034 409  Q 2525 409 2770 889  Q 3016 1369 3016 2328  Q 3016 3291 2770 3770  Q 2525 4250 2034 4250  z M 2034 4750  Q 2819 4750 3233 4129  Q 3647 3509 3647 2328  Q 3647 1150 3233 529  Q 2819 -91 2034 -91  Q 1250 -91 836 529  Q 422 1150 422 2328  Q 422 3509 836 4129  Q 1250 4750 2034 4750  z "
                   transform="scale(0.015625)" />
              </defs>
              <use
                 xlink:href="#DejaVuSans-30"
                 id="use3" />
            </g>
          </g>
        </g>
        <g
           id="xtick_2">
          <g
             id="line2d_2">
            <g
               id="g4">
              <use
                 xlink:href="#m09b8daac0b"
                 x="114.420634"
                 y="307.584"
                 style="stroke: #000000; stroke-width: 0.8"
                 id="use4" />
            </g>
          </g>
          <g
             id="text_2">
            <!-- 5 -->
            <g
               transform="translate(111.239384 322.182437) scale(0.1 -0.1)"
               id="g5">
              <defs
                 id="defs4">
                <path
                   id="DejaVuSans-35"
                   d="M 691 4666  L 3169 4666  L 3169 4134  L 1269 4134  L 1269 2991  Q 1406 3038 1543 3061  Q 1681 3084 1819 3084  Q 2600 3084 3056 2656  Q 3513 2228 3513 1497  Q 3513 744 3044 326  Q 2575 -91 1722 -91  Q 1428 -91 1123 -41  Q 819 9 494 109  L 494 744  Q 775 591 1075 516  Q 1375 441 1709 441  Q 2250 441 2565 725  Q 2881 1009 2881 1497  Q 2881 1984 2565 2268  Q 2250 2553 1709 2553  Q 1456 2553 1204 2497  Q 953 2441 691 2322  L 691 4666  z "
                   transform="scale(0.015625)" />
              </defs>
              <use
                 xlink:href="#DejaVuSans-35"
                 id="use5" />
            </g>
          </g>
        </g>
        <g
           id="xtick_3">
          <g
             id="line2d_3">
            <g
               id="g6">
              <use
                 xlink:href="#m09b8daac0b"
                 x="155.008541"
                 y="307.584"
                 style="stroke: #000000; stroke-width: 0.8"
                 id="use6" />
            </g>
          </g>
          <g
             id="text_3">
            <!-- 10 -->
            <g
               transform="translate(148.646041 322.182437) scale(0.1 -0.1)"
               id="g8">
              <defs
                 id="defs6">
                <path
                   id="DejaVuSans-31"
                   d="M 794 531  L 1825 531  L 1825 4091  L 703 3866  L 703 4441  L 1819 4666  L 2450 4666  L 2450 531  L 3481 531  L 3481 0  L 794 0  L 794 531  z "
                   transform="scale(0.015625)" />
              </defs>
              <use
                 xlink:href="#DejaVuSans-31"
                 id="use7" />
              <use
                 xlink:href="#DejaVuSans-30"
                 x="63.623047"
                 id="use8" />
            </g>
          </g>
        </g>
        <g
           id="xtick_4">
          <g
             id="line2d_4">
            <g
               id="g9">
              <use
                 xlink:href="#m09b8daac0b"
                 x="195.596448"
                 y="307.584"
                 style="stroke: #000000; stroke-width: 0.8"
                 id="use9" />
            </g>
          </g>
          <g
             id="text_4">
            <!-- 15 -->
            <g
               transform="translate(189.233948 322.182437) scale(0.1 -0.1)"
               id="g11">
              <use
                 xlink:href="#DejaVuSans-31"
                 id="use10" />
              <use
                 xlink:href="#DejaVuSans-35"
                 x="63.623047"
                 id="use11" />
            </g>
          </g>
        </g>
        <g
           id="xtick_5">
          <g
             id="line2d_5">
            <g
               id="g12">
              <use
                 xlink:href="#m09b8daac0b"
                 x="236.184355"
                 y="307.584"
                 style="stroke: #000000; stroke-width: 0.8"
                 id="use12" />
            </g>
          </g>
          <g
             id="text_5">
            <!-- 20 -->
            <g
               transform="translate(229.821855 322.182437) scale(0.1 -0.1)"
               id="g14">
              <defs
                 id="defs12">
                <path
                   id="DejaVuSans-32"
                   d="M 1228 531  L 3431 531  L 3431 0  L 469 0  L 469 531  Q 828 903 1448 1529  Q 2069 2156 2228 2338  Q 2531 2678 2651 2914  Q 2772 3150 2772 3378  Q 2772 3750 2511 3984  Q 2250 4219 1831 4219  Q 1534 4219 1204 4116  Q 875 4013 500 3803  L 500 4441  Q 881 4594 1212 4672  Q 1544 4750 1819 4750  Q 2544 4750 2975 4387  Q 3406 4025 3406 3419  Q 3406 3131 3298 2873  Q 3191 2616 2906 2266  Q 2828 2175 2409 1742  Q 1991 1309 1228 531  z "
                   transform="scale(0.015625)" />
              </defs>
              <use
                 xlink:href="#DejaVuSans-32"
                 id="use13" />
              <use
                 xlink:href="#DejaVuSans-30"
                 x="63.623047"
                 id="use14" />
            </g>
          </g>
        </g>
        <g
           id="xtick_6">
          <g
             id="line2d_6">
            <g
               id="g15">
              <use
                 xlink:href="#m09b8daac0b"
                 x="276.772262"
                 y="307.584"
                 style="stroke: #000000; stroke-width: 0.8"
                 id="use15" />
            </g>
          </g>
          <g
             id="text_6">
            <!-- 25 -->
            <g
               transform="translate(270.409762 322.182437) scale(0.1 -0.1)"
               id="g17">
              <use
                 xlink:href="#DejaVuSans-32"
                 id="use16" />
              <use
                 xlink:href="#DejaVuSans-35"
                 x="63.623047"
                 id="use17" />
            </g>
          </g>
        </g>
        <g
           id="xtick_7">
          <g
             id="line2d_7">
            <g
               id="g18">
              <use
                 xlink:href="#m09b8daac0b"
                 x="317.360169"
                 y="307.584"
                 style="stroke: #000000; stroke-width: 0.8"
                 id="use18" />
            </g>
          </g>
          <g
             id="text_7">
            <!-- 30 -->
            <g
               transform="translate(310.997669 322.182437) scale(0.1 -0.1)"
               id="g20">
              <defs
                 id="defs18">
                <path
                   id="DejaVuSans-33"
                   d="M 2597 2516  Q 3050 2419 3304 2112  Q 3559 1806 3559 1356  Q 3559 666 3084 287  Q 2609 -91 1734 -91  Q 1441 -91 1130 -33  Q 819 25 488 141  L 488 750  Q 750 597 1062 519  Q 1375 441 1716 441  Q 2309 441 2620 675  Q 2931 909 2931 1356  Q 2931 1769 2642 2001  Q 2353 2234 1838 2234  L 1294 2234  L 1294 2753  L 1863 2753  Q 2328 2753 2575 2939  Q 2822 3125 2822 3475  Q 2822 3834 2567 4026  Q 2313 4219 1838 4219  Q 1578 4219 1281 4162  Q 984 4106 628 3988  L 628 4550  Q 988 4650 1302 4700  Q 1616 4750 1894 4750  Q 2613 4750 3031 4423  Q 3450 4097 3450 3541  Q 3450 3153 3228 2886  Q 3006 2619 2597 2516  z "
                   transform="scale(0.015625)" />
              </defs>
              <use
                 xlink:href="#DejaVuSans-33"
                 id="use19" />
              <use
                 xlink:href="#DejaVuSans-30"
                 x="63.623047"
                 id="use20" />
            </g>
          </g>
        </g>
        <g
           id="xtick_8">
          <g
             id="line2d_8">
            <g
               id="g21">
              <use
                 xlink:href="#m09b8daac0b"
                 x="357.948076"
                 y="307.584"
                 style="stroke: #000000; stroke-width: 0.8"
                 id="use21" />
            </g>
          </g>
          <g
             id="text_8">
            <!-- 35 -->
            <g
               transform="translate(351.585576 322.182437) scale(0.1 -0.1)"
               id="g23">
              <use
                 xlink:href="#DejaVuSans-33"
                 id="use22" />
              <use
                 xlink:href="#DejaVuSans-35"
                 x="63.623047"
                 id="use23" />
            </g>
          </g>
        </g>
        <g
           id="xtick_9">
          <g
             id="line2d_9">
            <g
               id="g24">
              <use
                 xlink:href="#m09b8daac0b"
                 x="398.535983"
                 y="307.584"
                 style="stroke: #000000; stroke-width: 0.8"
                 id="use24" />
            </g>
          </g>
          <g
             id="text_9">
            <!-- 40 -->
            <g
               transform="translate(392.173483 322.182437) scale(0.1 -0.1)"
               id="g26">
              <defs
                 id="defs24">
                <path
                   id="DejaVuSans-34"
                   d="M 2419 4116  L 825 1625  L 2419 1625  L 2419 4116  z M 2253 4666  L 3047 4666  L 3047 1625  L 3713 1625  L 3713 1100  L 3047 1100  L 3047 0  L 2419 0  L 2419 1100  L 313 1100  L 313 1709  L 2253 4666  z "
                   transform="scale(0.015625)" />
              </defs>
              <use
                 xlink:href="#DejaVuSans-34"
                 id="use25" />
              <use
                 xlink:href="#DejaVuSans-30"
                 x="63.623047"
                 id="use26" />
            </g>
          </g>
        </g>
        <g
           id="text_10">
          <!-- Time, $t$ -->
          <g
             transform="translate(218.61 335.860562) scale(0.1 -0.1)"
             id="g33">
            <defs
               id="defs26">
              <path
                 id="DejaVuSans-54"
                 d="M -19 4666  L 3928 4666  L 3928 4134  L 2272 4134  L 2272 0  L 1638 0  L 1638 4134  L -19 4134  L -19 4666  z "
                 transform="scale(0.015625)" />
              <path
                 id="DejaVuSans-69"
                 d="M 603 3500  L 1178 3500  L 1178 0  L 603 0  L 603 3500  z M 603 4863  L 1178 4863  L 1178 4134  L 603 4134  L 603 4863  z "
                 transform="scale(0.015625)" />
              <path
                 id="DejaVuSans-6d"
                 d="M 3328 2828  Q 3544 3216 3844 3400  Q 4144 3584 4550 3584  Q 5097 3584 5394 3201  Q 5691 2819 5691 2113  L 5691 0  L 5113 0  L 5113 2094  Q 5113 2597 4934 2840  Q 4756 3084 4391 3084  Q 3944 3084 3684 2787  Q 3425 2491 3425 1978  L 3425 0  L 2847 0  L 2847 2094  Q 2847 2600 2669 2842  Q 2491 3084 2119 3084  Q 1678 3084 1418 2786  Q 1159 2488 1159 1978  L 1159 0  L 581 0  L 581 3500  L 1159 3500  L 1159 2956  Q 1356 3278 1631 3431  Q 1906 3584 2284 3584  Q 2666 3584 2933 3390  Q 3200 3197 3328 2828  z "
                 transform="scale(0.015625)" />
              <path
                 id="DejaVuSans-65"
                 d="M 3597 1894  L 3597 1613  L 953 1613  Q 991 1019 1311 708  Q 1631 397 2203 397  Q 2534 397 2845 478  Q 3156 559 3463 722  L 3463 178  Q 3153 47 2828 -22  Q 2503 -91 2169 -91  Q 1331 -91 842 396  Q 353 884 353 1716  Q 353 2575 817 3079  Q 1281 3584 2069 3584  Q 2775 3584 3186 3129  Q 3597 2675 3597 1894  z M 3022 2063  Q 3016 2534 2758 2815  Q 2500 3097 2075 3097  Q 1594 3097 1305 2825  Q 1016 2553 972 2059  L 3022 2063  z "
                 transform="scale(0.015625)" />
              <path
                 id="DejaVuSans-2c"
                 d="M 750 794  L 1409 794  L 1409 256  L 897 -744  L 494 -744  L 750 256  L 750 794  z "
                 transform="scale(0.015625)" />
              <path
                 id="DejaVuSans-20"
                 transform="scale(0.015625)" />
              <path
                 id="DejaVuSans-Oblique-74"
                 d="M 2706 3500  L 2619 3053  L 1472 3053  L 1100 1153  Q 1081 1047 1072 975  Q 1063 903 1063 863  Q 1063 663 1183 572  Q 1303 481 1569 481  L 2150 481  L 2053 0  L 1503 0  Q 991 0 739 200  Q 488 400 488 806  Q 488 878 497 964  Q 506 1050 525 1153  L 897 3053  L 409 3053  L 500 3500  L 978 3500  L 1172 4494  L 1747 4494  L 1556 3500  L 2706 3500  z "
                 transform="scale(0.015625)" />
            </defs>
            <use
               xlink:href="#DejaVuSans-54"
               transform="translate(0 0.015625)"
               id="use27" />
            <use
               xlink:href="#DejaVuSans-69"
               transform="translate(61.083984 0.015625)"
               id="use28" />
            <use
               xlink:href="#DejaVuSans-6d"
               transform="translate(88.867188 0.015625)"
               id="use29" />
            <use
               xlink:href="#DejaVuSans-65"
               transform="translate(186.279297 0.015625)"
               id="use30" />
            <use
               xlink:href="#DejaVuSans-2c"
               transform="translate(247.802734 0.015625)"
               id="use31" />
            <use
               xlink:href="#DejaVuSans-20"
               transform="translate(279.589844 0.015625)"
               id="use32" />
            <use
               xlink:href="#DejaVuSans-Oblique-74"
               transform="translate(311.376953 0.015625)"
               id="use33" />
          </g>
        </g>
      </g>
      <g
         id="matplotlib.axis_2">
        <g
           id="ytick_1">
          <g
             id="line2d_10">
            <defs
               id="defs33">
              <path
                 id="m9fbc5acbf0"
                 d="M 0 0  L -3.5 0  "
                 style="stroke: #000000; stroke-width: 0.8" />
            </defs>
            <g
               id="g34">
              <use
                 xlink:href="#m9fbc5acbf0"
                 x="57.6"
                 y="281.133976"
                 style="stroke: #000000; stroke-width: 0.8"
                 id="use34" />
            </g>
          </g>
          <g
             id="text_11">
            <!-- $\mathdefault{10^{-10}}$ -->
            <g
               transform="translate(22.7 284.933195) scale(0.1 -0.1)"
               id="g39">
              <defs
                 id="defs34">
                <path
                   id="DejaVuSans-2212"
                   d="M 678 2272  L 4684 2272  L 4684 1741  L 678 1741  L 678 2272  z "
                   transform="scale(0.015625)" />
              </defs>
              <use
                 xlink:href="#DejaVuSans-31"
                 transform="translate(0 0.765625)"
                 id="use35" />
              <use
                 xlink:href="#DejaVuSans-30"
                 transform="translate(63.623047 0.765625)"
                 id="use36" />
              <use
                 xlink:href="#DejaVuSans-2212"
                 transform="translate(128.203125 39.046875) scale(0.7)"
                 id="use37" />
              <use
                 xlink:href="#DejaVuSans-31"
                 transform="translate(186.855469 39.046875) scale(0.7)"
                 id="use38" />
              <use
                 xlink:href="#DejaVuSans-30"
                 transform="translate(231.391602 39.046875) scale(0.7)"
                 id="use39" />
            </g>
          </g>
        </g>
        <g
           id="ytick_2">
          <g
             id="line2d_11">
            <g
               id="g40">
              <use
                 xlink:href="#m9fbc5acbf0"
                 x="57.6"
                 y="242.472321"
                 style="stroke: #000000; stroke-width: 0.8"
                 id="use40" />
            </g>
          </g>
          <g
             id="text_12">
            <!-- $\mathdefault{10^{-8}}$ -->
            <g
               transform="translate(27.1 246.271539) scale(0.1 -0.1)"
               id="g44">
              <defs
                 id="defs40">
                <path
                   id="DejaVuSans-38"
                   d="M 2034 2216  Q 1584 2216 1326 1975  Q 1069 1734 1069 1313  Q 1069 891 1326 650  Q 1584 409 2034 409  Q 2484 409 2743 651  Q 3003 894 3003 1313  Q 3003 1734 2745 1975  Q 2488 2216 2034 2216  z M 1403 2484  Q 997 2584 770 2862  Q 544 3141 544 3541  Q 544 4100 942 4425  Q 1341 4750 2034 4750  Q 2731 4750 3128 4425  Q 3525 4100 3525 3541  Q 3525 3141 3298 2862  Q 3072 2584 2669 2484  Q 3125 2378 3379 2068  Q 3634 1759 3634 1313  Q 3634 634 3220 271  Q 2806 -91 2034 -91  Q 1263 -91 848 271  Q 434 634 434 1313  Q 434 1759 690 2068  Q 947 2378 1403 2484  z M 1172 3481  Q 1172 3119 1398 2916  Q 1625 2713 2034 2713  Q 2441 2713 2670 2916  Q 2900 3119 2900 3481  Q 2900 3844 2670 4047  Q 2441 4250 2034 4250  Q 1625 4250 1398 4047  Q 1172 3844 1172 3481  z "
                   transform="scale(0.015625)" />
              </defs>
              <use
                 xlink:href="#DejaVuSans-31"
                 transform="translate(0 0.765625)"
                 id="use41" />
              <use
                 xlink:href="#DejaVuSans-30"
                 transform="translate(63.623047 0.765625)"
                 id="use42" />
              <use
                 xlink:href="#DejaVuSans-2212"
                 transform="translate(128.203125 39.046875) scale(0.7)"
                 id="use43" />
              <use
                 xlink:href="#DejaVuSans-38"
                 transform="translate(186.855469 39.046875) scale(0.7)"
                 id="use44" />
            </g>
          </g>
        </g>
        <g
           id="ytick_3">
          <g
             id="line2d_12">
            <g
               id="g45">
              <use
                 xlink:href="#m9fbc5acbf0"
                 x="57.6"
                 y="203.810665"
                 style="stroke: #000000; stroke-width: 0.8"
                 id="use45" />
            </g>
          </g>
          <g
             id="text_13">
            <!-- $\mathdefault{10^{-6}}$ -->
            <g
               transform="translate(27.1 207.609884) scale(0.1 -0.1)"
               id="g49">
              <defs
                 id="defs45">
                <path
                   id="DejaVuSans-36"
                   d="M 2113 2584  Q 1688 2584 1439 2293  Q 1191 2003 1191 1497  Q 1191 994 1439 701  Q 1688 409 2113 409  Q 2538 409 2786 701  Q 3034 994 3034 1497  Q 3034 2003 2786 2293  Q 2538 2584 2113 2584  z M 3366 4563  L 3366 3988  Q 3128 4100 2886 4159  Q 2644 4219 2406 4219  Q 1781 4219 1451 3797  Q 1122 3375 1075 2522  Q 1259 2794 1537 2939  Q 1816 3084 2150 3084  Q 2853 3084 3261 2657  Q 3669 2231 3669 1497  Q 3669 778 3244 343  Q 2819 -91 2113 -91  Q 1303 -91 875 529  Q 447 1150 447 2328  Q 447 3434 972 4092  Q 1497 4750 2381 4750  Q 2619 4750 2861 4703  Q 3103 4656 3366 4563  z "
                   transform="scale(0.015625)" />
              </defs>
              <use
                 xlink:href="#DejaVuSans-31"
                 transform="translate(0 0.765625)"
                 id="use46" />
              <use
                 xlink:href="#DejaVuSans-30"
                 transform="translate(63.623047 0.765625)"
                 id="use47" />
              <use
                 xlink:href="#DejaVuSans-2212"
                 transform="translate(128.203125 39.046875) scale(0.7)"
                 id="use48" />
              <use
                 xlink:href="#DejaVuSans-36"
                 transform="translate(186.855469 39.046875) scale(0.7)"
                 id="use49" />
            </g>
          </g>
        </g>
        <g
           id="ytick_4">
          <g
             id="line2d_13">
            <g
               id="g50">
              <use
                 xlink:href="#m9fbc5acbf0"
                 x="57.6"
                 y="165.14901"
                 style="stroke: #000000; stroke-width: 0.8"
                 id="use50" />
            </g>
          </g>
          <g
             id="text_14">
            <!-- $\mathdefault{10^{-4}}$ -->
            <g
               transform="translate(27.1 168.948228) scale(0.1 -0.1)"
               id="g54">
              <use
                 xlink:href="#DejaVuSans-31"
                 transform="translate(0 0.684375)"
                 id="use51" />
              <use
                 xlink:href="#DejaVuSans-30"
                 transform="translate(63.623047 0.684375)"
                 id="use52" />
              <use
                 xlink:href="#DejaVuSans-2212"
                 transform="translate(128.203125 38.965625) scale(0.7)"
                 id="use53" />
              <use
                 xlink:href="#DejaVuSans-34"
                 transform="translate(186.855469 38.965625) scale(0.7)"
                 id="use54" />
            </g>
          </g>
        </g>
        <g
           id="ytick_5">
          <g
             id="line2d_14">
            <g
               id="g55">
              <use
                 xlink:href="#m9fbc5acbf0"
                 x="57.6"
                 y="126.487354"
                 style="stroke: #000000; stroke-width: 0.8"
                 id="use55" />
            </g>
          </g>
          <g
             id="text_15">
            <!-- $\mathdefault{10^{-2}}$ -->
            <g
               transform="translate(27.1 130.286573) scale(0.1 -0.1)"
               id="g59">
              <use
                 xlink:href="#DejaVuSans-31"
                 transform="translate(0 0.765625)"
                 id="use56" />
              <use
                 xlink:href="#DejaVuSans-30"
                 transform="translate(63.623047 0.765625)"
                 id="use57" />
              <use
                 xlink:href="#DejaVuSans-2212"
                 transform="translate(128.203125 39.046875) scale(0.7)"
                 id="use58" />
              <use
                 xlink:href="#DejaVuSans-32"
                 transform="translate(186.855469 39.046875) scale(0.7)"
                 id="use59" />
            </g>
          </g>
        </g>
        <g
           id="ytick_6">
          <g
             id="line2d_15">
            <g
               id="g60">
              <use
                 xlink:href="#m9fbc5acbf0"
                 x="57.6"
                 y="87.825699"
                 style="stroke: #000000; stroke-width: 0.8"
                 id="use60" />
            </g>
          </g>
          <g
             id="text_16">
            <!-- $\mathdefault{10^{0}}$ -->
            <g
               transform="translate(33 91.624918) scale(0.1 -0.1)"
               id="g63">
              <use
                 xlink:href="#DejaVuSans-31"
                 transform="translate(0 0.765625)"
                 id="use61" />
              <use
                 xlink:href="#DejaVuSans-30"
                 transform="translate(63.623047 0.765625)"
                 id="use62" />
              <use
                 xlink:href="#DejaVuSans-30"
                 transform="translate(128.203125 39.046875) scale(0.7)"
                 id="use63" />
            </g>
          </g>
        </g>
        <g
           id="ytick_7">
          <g
             id="line2d_16">
            <g
               id="g64">
              <use
                 xlink:href="#m9fbc5acbf0"
                 x="57.6"
                 y="49.164043"
                 style="stroke: #000000; stroke-width: 0.8"
                 id="use64" />
            </g>
          </g>
          <g
             id="text_17">
            <!-- $\mathdefault{10^{2}}$ -->
            <g
               transform="translate(33 52.963262) scale(0.1 -0.1)"
               id="g67">
              <use
                 xlink:href="#DejaVuSans-31"
                 transform="translate(0 0.765625)"
                 id="use65" />
              <use
                 xlink:href="#DejaVuSans-30"
                 transform="translate(63.623047 0.765625)"
                 id="use66" />
              <use
                 xlink:href="#DejaVuSans-32"
                 transform="translate(128.203125 39.046875) scale(0.7)"
                 id="use67" />
            </g>
          </g>
        </g>
        <g
           id="text_18">
          <!-- Seperation -->
          <g
             transform="translate(16.620312 201.726438) rotate(-90) scale(0.1 -0.1)"
             id="g77">
            <defs
               id="defs67">
              <path
                 id="DejaVuSans-53"
                 d="M 3425 4513  L 3425 3897  Q 3066 4069 2747 4153  Q 2428 4238 2131 4238  Q 1616 4238 1336 4038  Q 1056 3838 1056 3469  Q 1056 3159 1242 3001  Q 1428 2844 1947 2747  L 2328 2669  Q 3034 2534 3370 2195  Q 3706 1856 3706 1288  Q 3706 609 3251 259  Q 2797 -91 1919 -91  Q 1588 -91 1214 -16  Q 841 59 441 206  L 441 856  Q 825 641 1194 531  Q 1563 422 1919 422  Q 2459 422 2753 634  Q 3047 847 3047 1241  Q 3047 1584 2836 1778  Q 2625 1972 2144 2069  L 1759 2144  Q 1053 2284 737 2584  Q 422 2884 422 3419  Q 422 4038 858 4394  Q 1294 4750 2059 4750  Q 2388 4750 2728 4690  Q 3069 4631 3425 4513  z "
                 transform="scale(0.015625)" />
              <path
                 id="DejaVuSans-70"
                 d="M 1159 525  L 1159 -1331  L 581 -1331  L 581 3500  L 1159 3500  L 1159 2969  Q 1341 3281 1617 3432  Q 1894 3584 2278 3584  Q 2916 3584 3314 3078  Q 3713 2572 3713 1747  Q 3713 922 3314 415  Q 2916 -91 2278 -91  Q 1894 -91 1617 61  Q 1341 213 1159 525  z M 3116 1747  Q 3116 2381 2855 2742  Q 2594 3103 2138 3103  Q 1681 3103 1420 2742  Q 1159 2381 1159 1747  Q 1159 1113 1420 752  Q 1681 391 2138 391  Q 2594 391 2855 752  Q 3116 1113 3116 1747  z "
                 transform="scale(0.015625)" />
              <path
                 id="DejaVuSans-72"
                 d="M 2631 2963  Q 2534 3019 2420 3045  Q 2306 3072 2169 3072  Q 1681 3072 1420 2755  Q 1159 2438 1159 1844  L 1159 0  L 581 0  L 581 3500  L 1159 3500  L 1159 2956  Q 1341 3275 1631 3429  Q 1922 3584 2338 3584  Q 2397 3584 2469 3576  Q 2541 3569 2628 3553  L 2631 2963  z "
                 transform="scale(0.015625)" />
              <path
                 id="DejaVuSans-61"
                 d="M 2194 1759  Q 1497 1759 1228 1600  Q 959 1441 959 1056  Q 959 750 1161 570  Q 1363 391 1709 391  Q 2188 391 2477 730  Q 2766 1069 2766 1631  L 2766 1759  L 2194 1759  z M 3341 1997  L 3341 0  L 2766 0  L 2766 531  Q 2569 213 2275 61  Q 1981 -91 1556 -91  Q 1019 -91 701 211  Q 384 513 384 1019  Q 384 1609 779 1909  Q 1175 2209 1959 2209  L 2766 2209  L 2766 2266  Q 2766 2663 2505 2880  Q 2244 3097 1772 3097  Q 1472 3097 1187 3025  Q 903 2953 641 2809  L 641 3341  Q 956 3463 1253 3523  Q 1550 3584 1831 3584  Q 2591 3584 2966 3190  Q 3341 2797 3341 1997  z "
                 transform="scale(0.015625)" />
              <path
                 id="DejaVuSans-74"
                 d="M 1172 4494  L 1172 3500  L 2356 3500  L 2356 3053  L 1172 3053  L 1172 1153  Q 1172 725 1289 603  Q 1406 481 1766 481  L 2356 481  L 2356 0  L 1766 0  Q 1100 0 847 248  Q 594 497 594 1153  L 594 3053  L 172 3053  L 172 3500  L 594 3500  L 594 4494  L 1172 4494  z "
                 transform="scale(0.015625)" />
              <path
                 id="DejaVuSans-6f"
                 d="M 1959 3097  Q 1497 3097 1228 2736  Q 959 2375 959 1747  Q 959 1119 1226 758  Q 1494 397 1959 397  Q 2419 397 2687 759  Q 2956 1122 2956 1747  Q 2956 2369 2687 2733  Q 2419 3097 1959 3097  z M 1959 3584  Q 2709 3584 3137 3096  Q 3566 2609 3566 1747  Q 3566 888 3137 398  Q 2709 -91 1959 -91  Q 1206 -91 779 398  Q 353 888 353 1747  Q 353 2609 779 3096  Q 1206 3584 1959 3584  z "
                 transform="scale(0.015625)" />
              <path
                 id="DejaVuSans-6e"
                 d="M 3513 2113  L 3513 0  L 2938 0  L 2938 2094  Q 2938 2591 2744 2837  Q 2550 3084 2163 3084  Q 1697 3084 1428 2787  Q 1159 2491 1159 1978  L 1159 0  L 581 0  L 581 3500  L 1159 3500  L 1159 2956  Q 1366 3272 1645 3428  Q 1925 3584 2291 3584  Q 2894 3584 3203 3211  Q 3513 2838 3513 2113  z "
                 transform="scale(0.015625)" />
            </defs>
            <use
               xlink:href="#DejaVuSans-53"
               id="use68" />
            <use
               xlink:href="#DejaVuSans-65"
               x="63.476562"
               id="use69" />
            <use
               xlink:href="#DejaVuSans-70"
               x="125"
               id="use70" />
            <use
               xlink:href="#DejaVuSans-65"
               x="188.476562"
               id="use71" />
            <use
               xlink:href="#DejaVuSans-72"
               x="250"
               id="use72" />
            <use
               xlink:href="#DejaVuSans-61"
               x="291.113281"
               id="use73" />
            <use
               xlink:href="#DejaVuSans-74"
               x="352.392578"
               id="use74" />
            <use
               xlink:href="#DejaVuSans-69"
               x="391.601562"
               id="use75" />
            <use
               xlink:href="#DejaVuSans-6f"
               x="419.384766"
               id="use76" />
            <use
               xlink:href="#DejaVuSans-6e"
               x="480.566406"
               id="use77" />
          </g>
        </g>
      </g>
      <g
         id="line2d_17">
        <path
           d="M 73.832727 281.133975  L 74.725751 284.418097  L 74.806934 284.448  L 74.888118 284.235687  L 75.050486 282.908399  L 75.862326 274.037795  L 75.94351 274.038515  L 76.105877 274.660593  L 76.349429 276.718781  L 77.242452 286.191247  L 77.486004 286.51651  L 77.81074 286.798456  L 78.054292 287.381688  L 78.460211 288.483067  L 78.541395 288.50694  L 78.703763 288.216586  L 79.272051 286.468585  L 79.434419 286.532475  L 79.67797 287.102246  L 80.002706 287.888181  L 80.165074 287.8238  L 80.48981 286.944834  L 80.895729 286.058223  L 81.058097 286.00428  L 81.220465 286.168611  L 81.545201 287.025026  L 81.951121 287.834867  L 82.113488 287.5112  L 82.600592 285.928498  L 82.76296 285.873566  L 82.925328 286.203899  L 83.331247 287.323483  L 83.493615 287.46643  L 83.655983 287.244019  L 84.305455 285.573829  L 84.549006 285.547501  L 84.873742 286.029463  L 85.279662 287.323705  L 85.604397 286.716584  L 85.929133 285.41643  L 86.010317 285.420299  L 86.253869 285.809137  L 86.335053 285.717629  L 86.416237 285.711545  L 86.822156 286.782361  L 87.228076 285.89227  L 87.633996 284.991387  L 87.958732 284.565848  L 88.121099 284.910867  L 88.527019 286.243894  L 88.770571 286.549399  L 89.420042 284.745774  L 89.58241 284.755045  L 89.825962 285.380787  L 90.150698 286.244431  L 90.313066 286.280033  L 90.475433 286.359661  L 90.637801 285.882776  L 91.043721 284.37731  L 91.530825 283.958337  L 91.612008 283.574783  L 91.693192 283.619856  L 91.85556 284.731638  L 92.099112 286.255328  L 92.342664 285.298203  L 92.423848 285.924298  L 92.829767 283.194501  L 92.992135 284.007918  L 93.073319 284.566029  L 93.235687 283.97966  L 93.398055 285.211315  L 93.641607 286.941336  L 94.12871 284.026799  L 94.372262 283.709418  L 94.53463 283.065437  L 94.778182 281.557405  L 94.859366 281.613924  L 95.184101 282.366221  L 95.427653 282.174447  L 95.508837 282.566555  L 95.590021 282.526762  L 95.752389 282.24658  L 95.914757 282.931231  L 96.077125 283.412432  L 96.239493 283.146892  L 96.564228 282.547484  L 96.726596 282.520106  L 96.888964 282.307714  L 96.970148 282.519531  L 97.294884 285.158518  L 97.376068 284.962319  L 97.619619 282.999411  L 97.944355 281.980513  L 98.106723 281.033468  L 98.350275 278.965819  L 98.431459 279.099639  L 98.756195 280.644439  L 98.918562 280.351271  L 99.08093 280.994058  L 99.324482 279.751749  L 99.48685 280.773038  L 99.568034 281.352247  L 99.649218 281.312407  L 99.811586 281.015071  L 100.136321 282.163203  L 100.217505 281.936346  L 100.461057 280.680604  L 100.542241 280.973023  L 100.866977 284.205968  L 100.948161 283.886449  L 101.191712 282.37027  L 101.435264 281.901982  L 101.678816 280.9403  L 101.841184 279.358843  L 101.922368 279.419472  L 102.084736 281.052809  L 102.247104 283.094619  L 102.328288 282.977874  L 102.490655 282.352203  L 102.571839 286.50994  L 102.653023 285.136412  L 102.977759 276.292648  L 103.058943 275.975562  L 103.708414 281.342508  L 103.789598 280.777061  L 103.951966 276.318525  L 104.03315 276.554386  L 104.520254 278.126344  L 105.575645 272.987354  L 105.656829 273.014652  L 105.819197 273.968398  L 106.225116 276.492888  L 106.387484 274.739559  L 106.631036 271.886517  L 106.955772 271.62825  L 107.11814 272.0811  L 107.524059 273.481345  L 107.929979 274.769881  L 108.092347 274.635604  L 108.335899 273.69925  L 109.066554 270.059861  L 109.228922 270.125809  L 109.39129 270.383492  L 109.634841 271.273322  L 109.716025 271.212029  L 110.203129 269.933329  L 110.365497 269.865864  L 110.527865 270.089892  L 110.933784 271.418023  L 111.339704 272.815144  L 111.502072 272.890063  L 111.66444 272.478499  L 112.070359 270.025803  L 112.395095 268.331037  L 112.638647 267.91732  L 112.719831 267.927754  L 113.125751 268.808001  L 113.369302 269.738593  L 113.612854 269.652508  L 113.856406 269.735026  L 114.018774 269.714306  L 114.34351 270.969538  L 114.668245 272.204254  L 114.830613 272.444667  L 114.911797 272.393709  L 115.074165 271.903958  L 115.480085 269.367529  L 115.967188 267.121931  L 116.129556 266.858362  L 116.21074 266.91275  L 116.454292 267.934337  L 116.697844 268.519323  L 116.860211 268.072221  L 117.103763 267.56368  L 117.266131 267.680288  L 117.672051 268.922688  L 118.159154 270.710194  L 118.321522 270.833852  L 118.48389 270.521213  L 118.808626 268.567102  L 119.214545 265.956613  L 119.539281 264.988162  L 119.701649 264.853805  L 119.782833 264.980979  L 120.188753 266.577521  L 120.351121 266.390253  L 120.594672 265.914427  L 120.75704 266.147996  L 121.244144 267.963658  L 121.650063 269.345103  L 121.812431 269.376185  L 121.974799 268.963702  L 122.299535 266.803445  L 122.705455 264.08872  L 122.949006 263.080305  L 123.192558 262.659619  L 123.354926 263.499945  L 123.598478 264.629884  L 123.679662 264.533532  L 124.004397 263.418073  L 124.166765 263.609558  L 124.735053 265.780666  L 125.140973 267.217389  L 125.30334 267.326507  L 125.465708 266.88369  L 125.790444 264.869021  L 126.521099 260.206172  L 126.683467 260.245274  L 126.927019 260.986415  L 127.089387 260.251736  L 127.251755 259.558065  L 127.495307 259.687963  L 127.820042 260.199482  L 128.38833 262.735113  L 128.794249 264.019848  L 128.956617 263.977336  L 129.118985 263.443317  L 129.443721 261.049452  L 130.012008 256.721029  L 130.25556 256.08854  L 130.336744 256.105743  L 130.580296 256.920121  L 130.823848 257.419099  L 131.0674 257.286797  L 131.310951 257.917434  L 132.52871 262.645701  L 132.691078 262.31187  L 132.93463 260.820961  L 133.908837 253.33458  L 133.990021 253.384307  L 134.314757 254.569005  L 134.558309 253.797002  L 134.80186 254.670331  L 135.370148 257.649927  L 136.019619 260.897698  L 136.344355 261.759563  L 136.506723 261.72608  L 136.669091 261.174569  L 136.912643 259.273959  L 137.562114 252.809613  L 137.805666 251.733478  L 137.968034 251.759408  L 138.617505 253.545432  L 139.023425 255.97367  L 139.75408 260.484804  L 140.403552 263.159886  L 140.647104 263.724923  L 140.809471 263.691574  L 140.971839 263.101053  L 141.215391 261.031189  L 142.189598 250.655189  L 142.351966 250.445016  L 142.676702 251.161446  L 143.001438 252.73903  L 143.569725 257.825959  L 144.056829 261.510891  L 144.381564 262.832081  L 144.543932 262.997586  L 144.7063 262.669776  L 144.949852 261.138719  L 145.51814 254.982234  L 146.005243 250.851185  L 146.167611 250.531456  L 146.248795 250.562028  L 146.817082 252.040524  L 147.141818 253.920965  L 148.116025 260.397634  L 148.684313 262.442449  L 148.927865 262.780951  L 149.090233 262.609284  L 149.2526 261.98413  L 149.496152 260.111199  L 149.983256 254.024903  L 151.525751 233.345148  L 151.688118 232.926608  L 151.850486 233.376663  L 152.256406 235.33597  L 152.662326 239.930463  L 153.311797 247.020795  L 153.717717 249.160625  L 153.961268 249.623338  L 154.123636 249.160749  L 154.448372 246.865094  L 154.854292 244.476483  L 155.01666 244.215243  L 155.179027 244.39759  L 155.503763 245.385909  L 155.584947 245.351884  L 155.747315 245.367616  L 155.990867 245.536142  L 156.396786 246.71929  L 157.533362 250.641432  L 157.614545 250.583693  L 157.776913 249.960899  L 158.101649 247.41258  L 158.426385 245.364657  L 158.588753 245.042077  L 158.832304 245.353243  L 158.913488 245.316835  L 159.319408 246.018936  L 160.050063 248.023349  L 161.349006 252.605989  L 161.43019 252.58278  L 161.673742 251.640473  L 162.160846 247.760055  L 162.404397 247.637208  L 162.485581 247.424335  L 162.566765 247.494477  L 163.540973 249.9443  L 164.028076 250.89115  L 164.271628 250.95098  L 164.51518 250.668812  L 164.839915 249.858598  L 165.489387 247.792278  L 165.570571 247.897213  L 165.732939 248.149186  L 165.814123 248.13005  L 165.97649 248.658651  L 166.057674 248.471849  L 166.138858 248.516182  L 166.463594 249.903004  L 166.707146 249.633424  L 166.78833 249.728054  L 167.275433 251.304798  L 167.437801 251.176864  L 167.681353 250.437697  L 168.006089 248.604094  L 168.493192 244.42602  L 170.035687 229.730233  L 170.116871 229.460903  L 170.198055 229.582544  L 170.522791 230.95373  L 170.685159 230.287795  L 171.253446 234.188903  L 171.821734 237.934386  L 172.146469 238.922293  L 172.390021 239.162388  L 172.552389 239.034113  L 172.795941 238.294178  L 173.120677 236.219706  L 173.770148 229.931647  L 174.094884 226.452298  L 174.581987 224.123445  L 174.663171 224.201667  L 174.744355 224.112334  L 174.987907 226.590105  L 175.069091 225.860752  L 175.393827 227.814333  L 175.962114 231.925082  L 176.205666 232.574925  L 176.368034 232.656642  L 176.611586 232.402888  L 176.855137 231.737917  L 177.261057 229.794866  L 178.15408 225.110671  L 178.235264 225.089526  L 178.316448 225.49337  L 178.478816 224.975394  L 178.803552 228.072454  L 179.047104 225.893709  L 179.128288 226.13787  L 179.534207 228.473625  L 179.858943 229.833259  L 180.021311 230.041602  L 180.183679 229.91228  L 180.42723 229.128419  L 180.751966 227.009764  L 181.23907 222.073377  L 182.294461 208.355787  L 182.862748 202.227284  L 183.1063 201.392466  L 183.268668 201.676997  L 183.674588 203.19341  L 183.999323 205.976222  L 184.729979 212.860109  L 185.298266 215.693693  L 185.78537 217.50705  L 185.947738 217.523138  L 186.110106 216.831087  L 186.840761 211.882517  L 187.003129 211.956926  L 187.165497 211.628677  L 187.246681 211.464891  L 187.814968 212.882942  L 188.626808 215.486037  L 188.789175 215.588457  L 188.951543 215.476225  L 189.195095 214.911422  L 189.519831 213.453034  L 190.575222 207.803866  L 190.818774 208.512635  L 190.981142 210.029413  L 191.224693 206.371686  L 191.792981 209.636681  L 192.280085 212.687596  L 192.523636 213.32505  L 192.686004 213.386859  L 192.848372 213.143381  L 193.091924 212.152731  L 193.41666 209.680805  L 193.984947 203.183832  L 195.040338 187.97554  L 197.313488 154.317717  L 197.394672 154.147281  L 197.475856 154.213784  L 197.638224 154.668805  L 197.96296 156.920336  L 198.368879 162.390669  L 199.099535 172.306479  L 199.424271 174.412449  L 199.586638 174.5391  L 199.749006 173.993053  L 200.398478 170.809039  L 200.560846 170.757022  L 200.804397 171.292476  L 201.129133 171.968327  L 201.291501 171.880928  L 201.535053 171.606629  L 201.697421 171.625447  L 201.940973 172.014426  L 202.428076 173.737062  L 202.752812 174.705279  L 202.91518 174.684512  L 203.077548 174.149519  L 203.889387 170.111368  L 204.051755 170.187013  L 204.295307 170.873382  L 204.457674 171.138505  L 204.620042 170.908505  L 204.863594 170.546926  L 205.025962 170.488069  L 205.18833 170.657919  L 205.675433 172.11309  L 206.243721 173.97486  L 206.324905 173.994114  L 206.487273 173.64847  L 206.812008 171.680717  L 207.217928 169.376743  L 207.380296 169.044641  L 207.542664 169.197198  L 208.029767 170.246033  L 208.192135 170.192861  L 208.354503 170.09173  L 208.598055 170.269619  L 208.841607 170.860709  L 209.73463 174.021342  L 209.815814 174.025916  L 209.978182 173.639723  L 210.221734 172.196396  L 210.708837 169.140505  L 210.952389 168.76959  L 211.033573 168.841908  L 211.277125 170.058851  L 211.439493 170.54175  L 211.683044 170.037652  L 211.926596 170.007878  L 212.088964 170.332312  L 212.4137 171.220868  L 213.306723 174.266522  L 213.387907 174.232819  L 213.550275 173.718505  L 213.875011 171.499046  L 214.28093 169.070404  L 214.443298 168.799938  L 214.524482 168.745444  L 214.68685 169.285003  L 214.930402 170.412322  L 215.09277 170.257505  L 215.255137 170.281101  L 215.417505 170.247116  L 215.498689 170.386037  L 215.823425 171.452396  L 216.96 175.235213  L 217.122368 174.882958  L 217.36592 173.319237  L 217.934207 169.703957  L 218.015391 169.605581  L 218.664863 170.574288  L 218.82723 170.641852  L 219.882622 173.937417  L 220.694461 176.647975  L 220.856829 176.354708  L 221.019197 175.547845  L 221.5063 171.872093  L 221.668668 171.236974  L 221.749852 171.328181  L 222.236956 174.006406  L 222.561691 174.421223  L 223.292347 176.14216  L 223.617082 176.561541  L 223.941818 176.652014  L 224.59129 176.413554  L 224.672474 176.30339  L 224.997209 177.475917  L 225.078393 177.434954  L 225.240761 177.817179  L 225.321945 177.554724  L 225.403129 177.620577  L 225.484313 177.837449  L 225.565497 177.777731  L 225.727865 177.844109  L 225.890233 177.350831  L 225.971416 177.409389  L 226.377336 178.853991  L 226.45852 178.515895  L 226.783256 177.93874  L 227.107992 176.608455  L 227.513911 173.899122  L 228.244567 167.214021  L 228.812854 162.320998  L 229.056406 161.238026  L 229.218774 161.242985  L 229.624693 162.094055  L 230.111797 164.739998  L 230.842452 168.899881  L 231.00482 169.023883  L 231.167188 168.808299  L 231.41074 167.850206  L 231.735476 165.455519  L 232.303763 159.161434  L 233.846258 140.321444  L 234.08981 139.777517  L 234.333362 140.641321  L 234.739281 142.691278  L 235.95704 152.67846  L 236.687696 155.549086  L 236.768879 155.616952  L 236.850063 155.524812  L 237.012431 154.791399  L 237.661903 150.241001  L 237.824271 149.91475  L 238.392558 151.79325  L 238.473742 151.813941  L 239.529133 154.097831  L 239.691501 153.996839  L 239.935053 153.487532  L 240.259789 152.183495  L 241.233996 147.488338  L 241.396364 147.473386  L 241.639915 148.256637  L 241.883467 148.84888  L 242.045835 148.841821  L 242.289387 149.866724  L 242.857674 152.732168  L 243.020042 152.850182  L 243.18241 152.611831  L 243.425962 151.685637  L 243.750698 149.517722  L 244.318985 143.780715  L 246.023848 124.309152  L 246.186216 124.193649  L 246.348584 124.599227  L 246.835687 126.828534  L 248.13463 136.943763  L 249.027653 140.277301  L 249.108837 140.280664  L 249.271205 139.735612  L 250.00186 135.237759  L 250.245412 135.528083  L 250.326596 135.475186  L 251.057252 137.398491  L 251.463171 138.446171  L 251.625539 138.548029  L 251.787907 138.408339  L 252.031459 137.68623  L 252.356195 135.856137  L 252.843298 131.742879  L 253.573953 125.390321  L 253.817505 124.527462  L 253.898689 124.488151  L 254.142241 124.987354  L 254.548161 126.491536  L 254.872896 128.494651  L 255.36 131.818063  L 255.603552 132.408272  L 255.76592 132.402008  L 255.928288 132.108135  L 256.171839 131.13147  L 256.496575 128.859721  L 257.064863 122.926624  L 258.282622 109.216273  L 258.526173 108.544681  L 258.688541 108.954702  L 259.256829 111.51719  L 260.231036 119.493569  L 260.799323 121.36582  L 261.448795 123.468408  L 261.773531 124.472775  L 261.854715 124.45927  L 262.017082 123.848746  L 262.423002 121.685888  L 262.666554 121.48893  L 262.828922 121.734464  L 263.234841 122.373418  L 263.640761 122.685361  L 263.803129 122.599992  L 264.046681 122.049563  L 264.371416 120.44867  L 264.85852 116.511958  L 266.238647 103.927107  L 266.401015 103.751015  L 266.482199 103.789254  L 266.644567 104.297764  L 267.456406 108.669041  L 267.94351 111.84993  L 268.187061 112.498549  L 268.349429 112.603365  L 268.511797 112.460401  L 268.755349 111.737145  L 269.080085 109.778444  L 269.648372 104.319866  L 270.460211 96.490306  L 270.703763 95.805781  L 270.784947 95.850718  L 271.272051 97.561014  L 271.515603 99.089119  L 272.327442 105.065511  L 272.570994 105.574281  L 272.733362 105.642907  L 272.895729 105.515235  L 273.139281 104.948811  L 273.464017 103.494983  L 274.438224 98.193369  L 274.600592 98.172604  L 274.925328 99.075119  L 275.655983 102.247743  L 275.980719 103.823717  L 276.143087 104.040175  L 276.305455 103.900487  L 276.549006 103.134271  L 276.873742 101.192048  L 277.360846 96.641973  L 278.172685 86.419122  L 280.364651 57.282841  L 280.527019 57.294884  L 280.851755 58.25264  L 281.17649 60.100808  L 281.58241 64.837396  L 282.231882 71.96694  L 282.637801 74.178768  L 282.800169 74.246561  L 282.962537 73.681276  L 283.693192 69.885255  L 283.85556 69.962902  L 284.342664 70.930636  L 284.423848 70.87205  L 284.748584 70.722199  L 284.910951 70.854279  L 285.235687 71.631448  L 285.803975 73.672409  L 286.209894 74.90466  L 286.291078 74.918304  L 286.453446 74.515862  L 286.778182 72.383273  L 287.184101 70.177357  L 287.346469 70.067182  L 287.590021 70.594792  L 287.833573 71.128714  L 288.077125 71.105562  L 288.320677 71.195695  L 288.564228 71.637852  L 289.132516 73.344954  L 290.025539 76.054919  L 290.187907 75.577411  L 290.918562 71.461811  L 290.999746 71.494195  L 291.48685 72.24805  L 291.89277 72.531157  L 293.516448 75.655817  L 293.841184 76.673093  L 294.084736 77.4526  L 294.16592 77.514185  L 294.328288 77.213873  L 294.896575 75.433664  L 295.140127 75.98539  L 295.464863 76.535456  L 295.708414 76.465571  L 296.03315 76.019007  L 296.357886 75.10365  L 296.763805 73.103746  L 298.062748 65.462314  L 298.225116 65.431268  L 298.387484 65.801043  L 298.793404 66.98237  L 299.036956 67.141729  L 299.280507 68.209019  L 299.767611 70.621207  L 299.929979 70.847996  L 300.092347 70.706222  L 300.335899 69.846311  L 300.660634 67.663232  L 301.39129 60.575251  L 301.959577 56.03803  L 302.203129 55.233579  L 302.365497 55.158881  L 302.527865 55.391384  L 302.933784 56.732722  L 303.25852 57.49037  L 303.339704 57.484152  L 303.502072 57.127203  L 304.070359 54.791143  L 304.151543 54.846095  L 304.313911 55.424782  L 304.638647 57.877058  L 305.206934 62.233295  L 305.450486 62.912763  L 305.612854 62.55945  L 306.262326 59.584065  L 306.424693 59.741648  L 306.992981 61.037748  L 307.155349 60.84587  L 307.642452 59.993993  L 307.80482 60.026829  L 308.048372 60.464426  L 309.103763 63.130223  L 309.266131 63.185103  L 309.428499 63.048624  L 309.672051 62.416645  L 309.996786 60.759609  L 311.133362 53.894621  L 311.376913 53.722094  L 311.620465 54.028545  L 312.107569 55.034679  L 312.351121 56.285336  L 312.75704 60.461544  L 313.325328 65.785055  L 313.812431 68.363327  L 313.974799 68.665342  L 314.055983 68.593908  L 314.218351 67.95293  L 314.786638 64.777151  L 314.949006 64.730063  L 315.192558 65.264883  L 315.43611 65.794732  L 315.598478 65.786854  L 315.923214 65.650588  L 316.166765 65.842431  L 316.735053 66.948049  L 317.546892 68.837778  L 318.11518 70.567098  L 318.196364 70.50678  L 318.358732 69.882067  L 318.764651 67.955344  L 318.927019 67.933333  L 319.57649 68.883527  L 319.98241 68.794867  L 320.225962 68.559702  L 320.469514 68.035281  L 320.794249 66.803874  L 321.362537 63.467753  L 322.174376 58.773601  L 322.417928 58.264451  L 322.580296 58.295195  L 322.823848 58.849183  L 323.148584 59.722975  L 323.310951 59.69064  L 323.635687 59.389541  L 323.798055 59.754185  L 324.52871 62.317413  L 324.691078 62.058799  L 324.93463 61.139408  L 326.071205 55.579242  L 326.233573 55.549768  L 326.477125 55.937904  L 327.532516 58.892094  L 328.263171 61.848988  L 328.425539 61.81504  L 328.587907 61.379356  L 328.912643 59.586951  L 329.48093 56.237599  L 329.724482 55.663822  L 329.88685 55.663369  L 330.130402 56.116157  L 330.617505 57.119548  L 331.104609 57.381668  L 331.348161 58.158771  L 332.241184 61.999773  L 332.403552 61.744448  L 332.647104 60.546065  L 333.377759 56.292516  L 333.540127 56.119851  L 333.702495 56.277781  L 334.02723 57.300713  L 334.43315 58.51608  L 334.595518 58.511585  L 334.757886 58.075552  L 335.407357 55.604077  L 335.569725 55.891232  L 335.813277 57.103221  L 336.462748 60.986168  L 336.625116 61.179615  L 336.787484 60.77607  L 337.51814 57.480129  L 337.680507 57.683503  L 338.005243 58.918673  L 338.329979 60.049383  L 338.492347 60.156177  L 338.654715 59.827735  L 339.060634 57.757891  L 339.304186 56.898135  L 339.466554 56.84127  L 339.628922 57.189363  L 339.953658 58.693363  L 340.846681 63.048997  L 341.496152 65.335254  L 341.65852 65.486365  L 341.820888 65.166623  L 342.06444 63.458059  L 343.038647 53.623323  L 343.119831 53.568  L 343.282199 53.890397  L 343.93167 56.296836  L 344.094038 56.174107  L 344.33759 55.385336  L 344.662326 54.232601  L 344.74351 54.171955  L 344.824693 54.26625  L 344.987061 54.965712  L 345.311797 58.032368  L 345.880085 63.569185  L 346.042452 63.841032  L 346.286004 63.429366  L 346.529556 63.053886  L 346.691924 63.108929  L 346.935476 63.651515  L 347.422579 65.058202  L 347.503763 65.055248  L 347.666131 64.721102  L 348.315603 62.591479  L 348.47797 62.640987  L 348.721522 63.222091  L 349.208626 64.53201  L 349.370994 64.343795  L 349.695729 63.081496  L 350.020465 62.137145  L 350.182833 62.108497  L 350.345201 62.370688  L 350.994672 64.16374  L 351.075856 64.109831  L 351.238224 63.678606  L 351.806512 61.576731  L 351.968879 61.531697  L 352.131247 61.792345  L 352.780719 63.584501  L 352.861903 63.524006  L 353.105455 62.741724  L 353.592558 61.055607  L 353.754926 61.026887  L 353.917294 61.310267  L 354.566765 63.232678  L 354.647949 63.202107  L 354.810317 62.811082  L 355.459789 60.362574  L 355.622156 60.401658  L 355.865708 61.013824  L 356.352812 62.543574  L 356.51518 62.484921  L 356.758732 61.629574  L 357.245835 59.810432  L 357.408203 59.788585  L 357.570571 60.089602  L 358.301226 62.289332  L 358.463594 61.996863  L 358.78833 60.402673  L 359.113066 59.095955  L 359.275433 58.964333  L 359.437801 59.182715  L 359.762537 60.339878  L 360.087273 61.383364  L 360.249641 61.418289  L 360.412008 60.99414  L 361.142664 58.246162  L 361.305032 58.44421  L 361.629767 59.649578  L 362.116871 61.368764  L 362.279239 61.36794  L 362.441607 60.886255  L 363.253446 57.064826  L 363.415814 57.284819  L 363.74055 58.584274  L 364.146469 60.151396  L 364.308837 60.323865  L 364.471205 60.062054  L 364.714757 58.843042  L 365.20186 56.144921  L 365.364228 56.017955  L 365.526596 56.360701  L 365.851332 57.968626  L 366.663171 62.158764  L 367.231459 64.331089  L 367.393827 64.5603  L 367.475011 64.477575  L 367.637378 63.749747  L 367.962114 60.483674  L 368.368034 56.703975  L 368.530402 56.254939  L 368.611586 56.268982  L 368.855137 56.827067  L 369.179873 57.349941  L 369.423425 57.671098  L 369.666977 58.610549  L 370.15408 62.31098  L 370.56 64.590401  L 370.722368 64.644273  L 370.884736 64.140915  L 371.290655 61.519275  L 371.777759 58.81935  L 372.021311 58.375889  L 372.183679 58.447781  L 372.42723 59.006177  L 372.995518 60.761078  L 373.076702 60.749074  L 373.23907 60.337097  L 373.726173 58.510659  L 373.807357 58.504775  L 373.969725 58.826743  L 374.538013 60.639036  L 374.700381 60.514677  L 374.943932 59.742092  L 375.51222 57.726152  L 375.674588 57.627134  L 375.836956 57.780049  L 376.242875 58.78786  L 376.567611 59.335036  L 376.729979 59.217686  L 376.973531 58.382273  L 377.623002 55.243967  L 377.78537 55.205216  L 377.947738 55.606321  L 378.353658 57.861104  L 378.678393 59.16611  L 378.840761 59.208538  L 379.327865 58.810041  L 379.490233 59.065044  L 379.814968 60.225111  L 381.357463 66.696142  L 381.601015 67.310989  L 381.682199 67.30448  L 381.844567 66.7235  L 382.169302 63.626442  L 382.494038 61.141712  L 382.656406 60.879368  L 382.818774 61.106773  L 383.468245 63.039379  L 384.280085 66.711481  L 384.361268 66.695185  L 384.523636 66.323331  L 384.767188 65.018083  L 385.335476 60.198456  L 385.903763 55.964855  L 386.228499 55.014302  L 386.390867 55.020548  L 386.634419 55.444298  L 387.040338 56.171254  L 387.446258 56.339461  L 387.608626 56.802029  L 387.933362 58.879185  L 388.664017 64.017366  L 388.826385 64.288429  L 388.988753 63.965567  L 389.232304 62.492859  L 389.800592 58.643613  L 390.044144 58.255463  L 390.206512 58.486852  L 390.774799 59.987155  L 390.937167 59.808706  L 391.424271 58.733758  L 391.586638 58.922899  L 391.83019 59.837179  L 392.560846 63.109798  L 392.723214 63.33603  L 392.885581 63.154558  L 393.129133 61.958122  L 394.022156 55.840321  L 394.184524 55.88062  L 394.428076 56.648265  L 395.239915 59.833115  L 395.402283 59.781742  L 395.564651 59.23344  L 395.889387 56.914654  L 396.214123 54.920012  L 396.37649 54.729235  L 396.538858 55.14691  L 396.863594 57.13283  L 397.513066 61.151664  L 397.837801 62.221135  L 397.918985 62.21348  L 398.081353 61.670111  L 398.487273 58.691488  L 398.487273 58.691488  "
           clip-path="url(#pbed9cf7af7)"
           style="fill: none; stroke: #1f77b4; stroke-width: 1.5; stroke-linecap: square"
           id="path77" />
      </g>
      <g
         id="line2d_18">
        <path
           d="M 293.007425 307.584  L 293.007425 41.472  "
           clip-path="url(#pbed9cf7af7)"
           style="fill: none; stroke-dasharray: 1.5,2.475; stroke-dashoffset: 0; stroke: #000000; stroke-width: 1.5"
           id="path78" />
      </g>
      <g
         id="line2d_19">
        <path
           d="M 106.303053 307.584  L 106.303053 41.472  "
           clip-path="url(#pbed9cf7af7)"
           style="fill: none; stroke-dasharray: 1.5,2.475; stroke-dashoffset: 0; stroke: #000000; stroke-width: 1.5"
           id="path79" />
      </g>
      <g
         id="line2d_20">
        <path
           d="M 106.303053 295.488  L 292.926249 80.803145  L 292.926249 80.803145  "
           clip-path="url(#pbed9cf7af7)"
           style="fill: none; stroke: #ff0000; stroke-width: 1.5; stroke-linecap: square"
           id="path80" />
      </g>
      <g
         id="patch_3">
        <path
           d="M 57.6 307.584  L 57.6 41.472  "
           style="fill: none; stroke: #000000; stroke-width: 0.8; stroke-linejoin: miter; stroke-linecap: square"
           id="path81" />
      </g>
      <g
         id="patch_4">
        <path
           d="M 414.72 307.584  L 414.72 41.472  "
           style="fill: none; stroke: #000000; stroke-width: 0.8; stroke-linejoin: miter; stroke-linecap: square"
           id="path82" />
      </g>
      <g
         id="patch_5">
        <path
           d="M 57.6 307.584  L 414.72 307.584  "
           style="fill: none; stroke: #000000; stroke-width: 0.8; stroke-linejoin: miter; stroke-linecap: square"
           id="path83" />
      </g>
      <g
         id="patch_6">
        <path
           d="M 57.6 41.472  L 414.72 41.472  "
           style="fill: none; stroke: #000000; stroke-width: 0.8; stroke-linejoin: miter; stroke-linecap: square"
           id="path84" />
      </g>
      <g
         id="text_19">
        <!-- $\sigma = 16$, $\rho = 40$, $\beta = 4$ -->
        <g
           transform="translate(166.44 35.472) scale(0.12 -0.12)"
           id="g101">
          <defs
             id="defs84">
            <path
               id="DejaVuSans-Oblique-3c3"
               d="M 2219 3044  Q 1744 3044 1422 2700  Q 1081 2341 969 1747  Q 844 1119 1044 756  Q 1241 397 1706 397  Q 2166 397 2503 759  Q 2844 1122 2966 1747  Q 3075 2319 2881 2700  Q 2700 3044 2219 3044  z M 2309 3503  L 4219 3500  L 4106 2925  L 3463 2925  Q 3706 2438 3575 1747  Q 3406 888 2884 400  Q 2359 -91 1609 -91  Q 856 -91 525 400  Q 194 888 363 1747  Q 528 2609 1050 3097  Q 1484 3503 2309 3503  z "
               transform="scale(0.015625)" />
            <path
               id="DejaVuSans-3d"
               d="M 678 2906  L 4684 2906  L 4684 2381  L 678 2381  L 678 2906  z M 678 1631  L 4684 1631  L 4684 1100  L 678 1100  L 678 1631  z "
               transform="scale(0.015625)" />
            <path
               id="DejaVuSans-Oblique-3c1"
               d="M 1203 2875  Q 1453 3194 1981 3475  Q 2188 3584 2756 3584  Q 3394 3584 3694 3078  Q 3994 2572 3834 1747  Q 3672 922 3175 415  Q 2678 -91 2041 -91  Q 1656 -91 1409 63  Q 1163 213 1044 525  L 681 -1331  L 103 -1331  L 697 1716  Q 838 2438 1203 2875  z M 3238 1747  Q 3359 2381 3169 2744  Q 2978 3103 2522 3103  Q 2066 3103 1734 2744  Q 1403 2381 1281 1747  Q 1156 1113 1347 750  Q 1538 391 1994 391  Q 2450 391 2781 750  Q 3113 1113 3238 1747  z "
               transform="scale(0.015625)" />
            <path
               id="DejaVuSans-2e"
               d="M 684 794  L 1344 794  L 1344 0  L 684 0  L 684 794  z "
               transform="scale(0.015625)" />
            <path
               id="DejaVuSans-39"
               d="M 703 97  L 703 672  Q 941 559 1184 500  Q 1428 441 1663 441  Q 2288 441 2617 861  Q 2947 1281 2994 2138  Q 2813 1869 2534 1725  Q 2256 1581 1919 1581  Q 1219 1581 811 2004  Q 403 2428 403 3163  Q 403 3881 828 4315  Q 1253 4750 1959 4750  Q 2769 4750 3195 4129  Q 3622 3509 3622 2328  Q 3622 1225 3098 567  Q 2575 -91 1691 -91  Q 1453 -91 1209 -44  Q 966 3 703 97  z M 1959 2075  Q 2384 2075 2632 2365  Q 2881 2656 2881 3163  Q 2881 3666 2632 3958  Q 2384 4250 1959 4250  Q 1534 4250 1286 3958  Q 1038 3666 1038 3163  Q 1038 2656 1286 2365  Q 1534 2075 1959 2075  z "
               transform="scale(0.015625)" />
            <path
               id="DejaVuSans-Oblique-3b2"
               d="M 872 216  L 572 -1331  L -6 -1331  L 928 3478  Q 1206 4903 2538 4903  Q 3888 4903 3659 3700  Q 3503 2844 2894 2531  Q 3713 2250 3553 1416  Q 3272 -69 1759 -66  Q 1097 -63 872 216  z M 1019 966  Q 1259 422 1875 425  Q 2775 425 2966 1406  Q 3138 2288 1675 2219  L 1778 2750  Q 2909 2731 3106 3750  Q 3241 4438 2509 4434  Q 1691 4434 1503 3459  L 1019 966  z "
               transform="scale(0.015625)" />
          </defs>
          <use
             xlink:href="#DejaVuSans-Oblique-3c3"
             transform="translate(0 0.390625)"
             id="use84" />
          <use
             xlink:href="#DejaVuSans-3d"
             transform="translate(82.861328 0.390625)"
             id="use85" />
          <use
             xlink:href="#DejaVuSans-31"
             transform="translate(186.132812 0.390625)"
             id="use86" />
          <use
             xlink:href="#DejaVuSans-36"
             transform="translate(249.755859 0.390625)"
             id="use87" />
          <use
             xlink:href="#DejaVuSans-2c"
             transform="translate(313.378906 0.390625)"
             id="use88" />
          <use
             xlink:href="#DejaVuSans-20"
             transform="translate(345.166016 0.390625)"
             id="use89" />
          <use
             xlink:href="#DejaVuSans-Oblique-3c1"
             transform="translate(376.953125 0.390625)"
             id="use90" />
          <use
             xlink:href="#DejaVuSans-3d"
             transform="translate(459.912109 0.390625)"
             id="use91" />
          <use
             xlink:href="#DejaVuSans-34"
             transform="translate(563.183594 0.390625)"
             id="use92" />
          <use
             xlink:href="#DejaVuSans-2c"
             transform="translate(685.21289,0.390625)"
             id="use97" />
          <use
             xlink:href="#DejaVuSans-20"
             transform="translate(879.5 0.390625)"
             id="use98" />
          <use
             xlink:href="#DejaVuSans-Oblique-3b2"
             transform="translate(773.78711,0.390625)"
             id="use99" />
          <use
             xlink:href="#DejaVuSans-3d"
             transform="translate(869.58789,0.390625)"
             id="use100" />
          <use
             xlink:href="#DejaVuSans-34"
             transform="translate(985.3594,0.390625)"
             id="use101" />
          <text
             xml:space="preserve"
             style="font-style:normal;font-weight:normal;font-size:100px;line-height:1.25;font-family:sans-serif;fill:#000000;fill-opacity:1;stroke:none;stroke-width:6.25"
             x="625.90314"
             y="0.31397882"
             id="text151"
             transform="scale(1,-1)"><tspan
               sodipodi:role="line"
               id="tspan151"
               style="font-size:100px;stroke-width:6.25"
               x="625.90314"
               y="0.31397882">0</tspan></text>
        </g>
      </g>
      <g
         id="legend_1">
        <g
           id="patch_7">
          <path
             d="M 64.6 90.047938  L 197.41875 90.047938  Q 199.41875 90.047938 199.41875 88.047938  L 199.41875 48.472  Q 199.41875 46.472 197.41875 46.472  L 64.6 46.472  Q 62.6 46.472 62.6 48.472  L 62.6 88.047938  Q 62.6 90.047938 64.6 90.047938  z "
             style="fill: #ffffff; opacity: 0.8; stroke: #cccccc; stroke-linejoin: miter"
             id="path101" />
        </g>
        <g
           id="line2d_21">
          <path
             d="M 66.6 61.209188  L 76.6 61.209188  L 86.6 61.209188  "
             style="fill: none; stroke: #1f77b4; stroke-width: 1.5; stroke-linecap: square"
             id="path102" />
        </g>
        <g
           id="text_20">
          <!-- Seperation between -->
          <g
             transform="translate(94.6 58.070438) scale(0.1 -0.1)"
             id="g119">
            <defs
               id="defs102">
              <path
                 id="DejaVuSans-62"
                 d="M 3116 1747  Q 3116 2381 2855 2742  Q 2594 3103 2138 3103  Q 1681 3103 1420 2742  Q 1159 2381 1159 1747  Q 1159 1113 1420 752  Q 1681 391 2138 391  Q 2594 391 2855 752  Q 3116 1113 3116 1747  z M 1159 2969  Q 1341 3281 1617 3432  Q 1894 3584 2278 3584  Q 2916 3584 3314 3078  Q 3713 2572 3713 1747  Q 3713 922 3314 415  Q 2916 -91 2278 -91  Q 1894 -91 1617 61  Q 1341 213 1159 525  L 1159 0  L 581 0  L 581 4863  L 1159 4863  L 1159 2969  z "
                 transform="scale(0.015625)" />
              <path
                 id="DejaVuSans-77"
                 d="M 269 3500  L 844 3500  L 1563 769  L 2278 3500  L 2956 3500  L 3675 769  L 4391 3500  L 4966 3500  L 4050 0  L 3372 0  L 2619 2869  L 1863 0  L 1184 0  L 269 3500  z "
                 transform="scale(0.015625)" />
            </defs>
            <use
               xlink:href="#DejaVuSans-53"
               id="use102" />
            <use
               xlink:href="#DejaVuSans-65"
               x="63.476562"
               id="use103" />
            <use
               xlink:href="#DejaVuSans-70"
               x="125"
               id="use104" />
            <use
               xlink:href="#DejaVuSans-65"
               x="188.476562"
               id="use105" />
            <use
               xlink:href="#DejaVuSans-72"
               x="250"
               id="use106" />
            <use
               xlink:href="#DejaVuSans-61"
               x="291.113281"
               id="use107" />
            <use
               xlink:href="#DejaVuSans-74"
               x="352.392578"
               id="use108" />
            <use
               xlink:href="#DejaVuSans-69"
               x="391.601562"
               id="use109" />
            <use
               xlink:href="#DejaVuSans-6f"
               x="419.384766"
               id="use110" />
            <use
               xlink:href="#DejaVuSans-6e"
               x="480.566406"
               id="use111" />
            <use
               xlink:href="#DejaVuSans-20"
               x="543.945312"
               id="use112" />
            <use
               xlink:href="#DejaVuSans-62"
               x="575.732422"
               id="use113" />
            <use
               xlink:href="#DejaVuSans-65"
               x="639.208984"
               id="use114" />
            <use
               xlink:href="#DejaVuSans-74"
               x="700.732422"
               id="use115" />
            <use
               xlink:href="#DejaVuSans-77"
               x="739.941406"
               id="use116" />
            <use
               xlink:href="#DejaVuSans-65"
               x="821.728516"
               id="use117" />
            <use
               xlink:href="#DejaVuSans-65"
               x="883.251953"
               id="use118" />
            <use
               xlink:href="#DejaVuSans-6e"
               x="944.775391"
               id="use119" />
          </g>
          <!-- two trajectories -->
          <g
             transform="translate(94.6 69.26825) scale(0.1 -0.1)"
             id="g135">
            <defs
               id="defs119">
              <path
                 id="DejaVuSans-6a"
                 d="M 603 3500  L 1178 3500  L 1178 -63  Q 1178 -731 923 -1031  Q 669 -1331 103 -1331  L -116 -1331  L -116 -844  L 38 -844  Q 366 -844 484 -692  Q 603 -541 603 -63  L 603 3500  z M 603 4863  L 1178 4863  L 1178 4134  L 603 4134  L 603 4863  z "
                 transform="scale(0.015625)" />
              <path
                 id="DejaVuSans-63"
                 d="M 3122 3366  L 3122 2828  Q 2878 2963 2633 3030  Q 2388 3097 2138 3097  Q 1578 3097 1268 2742  Q 959 2388 959 1747  Q 959 1106 1268 751  Q 1578 397 2138 397  Q 2388 397 2633 464  Q 2878 531 3122 666  L 3122 134  Q 2881 22 2623 -34  Q 2366 -91 2075 -91  Q 1284 -91 818 406  Q 353 903 353 1747  Q 353 2603 823 3093  Q 1294 3584 2113 3584  Q 2378 3584 2631 3529  Q 2884 3475 3122 3366  z "
                 transform="scale(0.015625)" />
              <path
                 id="DejaVuSans-73"
                 d="M 2834 3397  L 2834 2853  Q 2591 2978 2328 3040  Q 2066 3103 1784 3103  Q 1356 3103 1142 2972  Q 928 2841 928 2578  Q 928 2378 1081 2264  Q 1234 2150 1697 2047  L 1894 2003  Q 2506 1872 2764 1633  Q 3022 1394 3022 966  Q 3022 478 2636 193  Q 2250 -91 1575 -91  Q 1294 -91 989 -36  Q 684 19 347 128  L 347 722  Q 666 556 975 473  Q 1284 391 1588 391  Q 1994 391 2212 530  Q 2431 669 2431 922  Q 2431 1156 2273 1281  Q 2116 1406 1581 1522  L 1381 1569  Q 847 1681 609 1914  Q 372 2147 372 2553  Q 372 3047 722 3315  Q 1072 3584 1716 3584  Q 2034 3584 2315 3537  Q 2597 3491 2834 3397  z "
                 transform="scale(0.015625)" />
            </defs>
            <use
               xlink:href="#DejaVuSans-74"
               id="use120" />
            <use
               xlink:href="#DejaVuSans-77"
               x="39.208984"
               id="use121" />
            <use
               xlink:href="#DejaVuSans-6f"
               x="120.996094"
               id="use122" />
            <use
               xlink:href="#DejaVuSans-20"
               x="182.177734"
               id="use123" />
            <use
               xlink:href="#DejaVuSans-74"
               x="213.964844"
               id="use124" />
            <use
               xlink:href="#DejaVuSans-72"
               x="253.173828"
               id="use125" />
            <use
               xlink:href="#DejaVuSans-61"
               x="294.287109"
               id="use126" />
            <use
               xlink:href="#DejaVuSans-6a"
               x="355.566406"
               id="use127" />
            <use
               xlink:href="#DejaVuSans-65"
               x="383.349609"
               id="use128" />
            <use
               xlink:href="#DejaVuSans-63"
               x="444.873047"
               id="use129" />
            <use
               xlink:href="#DejaVuSans-74"
               x="499.853516"
               id="use130" />
            <use
               xlink:href="#DejaVuSans-6f"
               x="539.0625"
               id="use131" />
            <use
               xlink:href="#DejaVuSans-72"
               x="600.244141"
               id="use132" />
            <use
               xlink:href="#DejaVuSans-69"
               x="641.357422"
               id="use133" />
            <use
               xlink:href="#DejaVuSans-65"
               x="669.140625"
               id="use134" />
            <use
               xlink:href="#DejaVuSans-73"
               x="730.664062"
               id="use135" />
          </g>
        </g>
        <g
           id="line2d_22">
          <path
             d="M 66.6 80.447938  L 76.6 80.447938  L 86.6 80.447938  "
             style="fill: none; stroke: #ff0000; stroke-width: 1.5; stroke-linecap: square"
             id="path135" />
        </g>
        <g
           id="text_21">
          <!-- $\exp(1.11 t -29.18)$ -->
          <g
             transform="translate(94.6 83.947938) scale(0.1 -0.1)"
             id="g151">
            <defs
               id="defs135">
              <path
                 id="DejaVuSans-78"
                 d="M 3513 3500  L 2247 1797  L 3578 0  L 2900 0  L 1881 1375  L 863 0  L 184 0  L 1544 1831  L 300 3500  L 978 3500  L 1906 2253  L 2834 3500  L 3513 3500  z "
                 transform="scale(0.015625)" />
              <path
                 id="DejaVuSans-28"
                 d="M 1984 4856  Q 1566 4138 1362 3434  Q 1159 2731 1159 2009  Q 1159 1288 1364 580  Q 1569 -128 1984 -844  L 1484 -844  Q 1016 -109 783 600  Q 550 1309 550 2009  Q 550 2706 781 3412  Q 1013 4119 1484 4856  L 1984 4856  z "
                 transform="scale(0.015625)" />
              <path
                 id="DejaVuSans-29"
                 d="M 513 4856  L 1013 4856  Q 1481 4119 1714 3412  Q 1947 2706 1947 2009  Q 1947 1309 1714 600  Q 1481 -109 1013 -844  L 513 -844  Q 928 -128 1133 580  Q 1338 1288 1338 2009  Q 1338 2731 1133 3434  Q 928 4138 513 4856  z "
                 transform="scale(0.015625)" />
            </defs>
            <use
               xlink:href="#DejaVuSans-65"
               transform="translate(0 0.125)"
               id="use136" />
            <use
               xlink:href="#DejaVuSans-78"
               transform="translate(61.523438 0.125)"
               id="use137" />
            <use
               xlink:href="#DejaVuSans-70"
               transform="translate(120.703125 0.125)"
               id="use138" />
            <use
               xlink:href="#DejaVuSans-28"
               transform="translate(184.179688 0.125)"
               id="use139" />
            <use
               xlink:href="#DejaVuSans-31"
               transform="translate(223.193359 0.125)"
               id="use140" />
            <use
               xlink:href="#DejaVuSans-2e"
               transform="translate(286.816406 0.125)"
               id="use141" />
            <use
               xlink:href="#DejaVuSans-31"
               transform="translate(318.603516 0.125)"
               id="use142" />
            <use
               xlink:href="#DejaVuSans-31"
               transform="translate(382.226562 0.125)"
               id="use143" />
            <use
               xlink:href="#DejaVuSans-Oblique-74"
               transform="translate(445.849609 0.125)"
               id="use144" />
            <use
               xlink:href="#DejaVuSans-2212"
               transform="translate(504.541016 0.125)"
               id="use145" />
            <use
               xlink:href="#DejaVuSans-32"
               transform="translate(607.8125 0.125)"
               id="use146" />
            <use
               xlink:href="#DejaVuSans-39"
               transform="translate(669.685547 0.125)"
               id="use147" />
            <use
               xlink:href="#DejaVuSans-2e"
               transform="translate(733.308594 0.125)"
               id="use148" />
            <use
               xlink:href="#DejaVuSans-31"
               transform="translate(765.095703 0.125)"
               id="use149" />
            <use
               xlink:href="#DejaVuSans-38"
               transform="translate(828.71875 0.125)"
               id="use150" />
            <use
               xlink:href="#DejaVuSans-29"
               transform="translate(892.341797 0.125)"
               id="use151" />
          </g>
        </g>
      </g>
    </g>
  </g>
  <defs
     id="defs151">
    <clipPath
       id="pbed9cf7af7">
      <rect
         x="57.6"
         y="41.472"
         width="357.12"
         height="266.112"
         id="rect151" />
    </clipPath>
  </defs>
</svg>
