<?xml version="1.0" encoding="utf-8" standalone="no"?>
<!DOCTYPE svg PUBLIC "-//W3C//DTD SVG 1.1//EN"
  "http://www.w3.org/Graphics/SVG/1.1/DTD/svg11.dtd">
<svg xmlns:xlink="http://www.w3.org/1999/xlink" width="460.8pt" height="345.6pt" viewBox="0 0 460.8 345.6" xmlns="http://www.w3.org/2000/svg" version="1.1">
 <metadata>
  <rdf:RDF xmlns:dc="http://purl.org/dc/elements/1.1/" xmlns:cc="http://creativecommons.org/ns#" xmlns:rdf="http://www.w3.org/1999/02/22-rdf-syntax-ns#">
   <cc:Work>
    <dc:type rdf:resource="http://purl.org/dc/dcmitype/StillImage"/>
    <dc:date>2024-01-03T16:15:21.105218</dc:date>
    <dc:format>image/svg+xml</dc:format>
    <dc:creator>
     <cc:Agent>
      <dc:title>Matplotlib v3.8.2, https://matplotlib.org/</dc:title>
     </cc:Agent>
    </dc:creator>
   </cc:Work>
  </rdf:RDF>
 </metadata>
 <defs>
  <style type="text/css">*{stroke-linejoin: round; stroke-linecap: butt}</style>
 </defs>
 <g id="figure_1">
  <g id="patch_1">
   <path d="M 0 345.6 
L 460.8 345.6 
L 460.8 0 
L 0 0 
z
" style="fill: #ffffff"/>
  </g>
  <g id="axes_1">
   <g id="patch_2">
    <path d="M 57.6 307.584 
L 414.72 307.584 
L 414.72 41.472 
L 57.6 41.472 
z
" style="fill: #ffffff"/>
   </g>
   <g id="matplotlib.axis_1">
    <g id="xtick_1">
     <g id="line2d_1">
      <defs>
       <path id="m5d38184e5e" d="M 0 0 
L 0 3.5 
" style="stroke: #000000; stroke-width: 0.8"/>
      </defs>
      <g>
       <use xlink:href="#m5d38184e5e" x="73.832727" y="307.584" style="stroke: #000000; stroke-width: 0.8"/>
      </g>
     </g>
     <g id="text_1">
      <!-- 0 -->
      <g transform="translate(70.651477 322.182437) scale(0.1 -0.1)">
       <defs>
        <path id="DejaVuSans-30" d="M 2034 4250 
Q 1547 4250 1301 3770 
Q 1056 3291 1056 2328 
Q 1056 1369 1301 889 
Q 1547 409 2034 409 
Q 2525 409 2770 889 
Q 3016 1369 3016 2328 
Q 3016 3291 2770 3770 
Q 2525 4250 2034 4250 
z
M 2034 4750 
Q 2819 4750 3233 4129 
Q 3647 3509 3647 2328 
Q 3647 1150 3233 529 
Q 2819 -91 2034 -91 
Q 1250 -91 836 529 
Q 422 1150 422 2328 
Q 422 3509 836 4129 
Q 1250 4750 2034 4750 
z
" transform="scale(0.015625)"/>
       </defs>
       <use xlink:href="#DejaVuSans-30"/>
      </g>
     </g>
    </g>
    <g id="xtick_2">
     <g id="line2d_2">
      <g>
       <use xlink:href="#m5d38184e5e" x="114.420634" y="307.584" style="stroke: #000000; stroke-width: 0.8"/>
      </g>
     </g>
     <g id="text_2">
      <!-- 5 -->
      <g transform="translate(111.239384 322.182437) scale(0.1 -0.1)">
       <defs>
        <path id="DejaVuSans-35" d="M 691 4666 
L 3169 4666 
L 3169 4134 
L 1269 4134 
L 1269 2991 
Q 1406 3038 1543 3061 
Q 1681 3084 1819 3084 
Q 2600 3084 3056 2656 
Q 3513 2228 3513 1497 
Q 3513 744 3044 326 
Q 2575 -91 1722 -91 
Q 1428 -91 1123 -41 
Q 819 9 494 109 
L 494 744 
Q 775 591 1075 516 
Q 1375 441 1709 441 
Q 2250 441 2565 725 
Q 2881 1009 2881 1497 
Q 2881 1984 2565 2268 
Q 2250 2553 1709 2553 
Q 1456 2553 1204 2497 
Q 953 2441 691 2322 
L 691 4666 
z
" transform="scale(0.015625)"/>
       </defs>
       <use xlink:href="#DejaVuSans-35"/>
      </g>
     </g>
    </g>
    <g id="xtick_3">
     <g id="line2d_3">
      <g>
       <use xlink:href="#m5d38184e5e" x="155.008541" y="307.584" style="stroke: #000000; stroke-width: 0.8"/>
      </g>
     </g>
     <g id="text_3">
      <!-- 10 -->
      <g transform="translate(148.646041 322.182437) scale(0.1 -0.1)">
       <defs>
        <path id="DejaVuSans-31" d="M 794 531 
L 1825 531 
L 1825 4091 
L 703 3866 
L 703 4441 
L 1819 4666 
L 2450 4666 
L 2450 531 
L 3481 531 
L 3481 0 
L 794 0 
L 794 531 
z
" transform="scale(0.015625)"/>
       </defs>
       <use xlink:href="#DejaVuSans-31"/>
       <use xlink:href="#DejaVuSans-30" x="63.623047"/>
      </g>
     </g>
    </g>
    <g id="xtick_4">
     <g id="line2d_4">
      <g>
       <use xlink:href="#m5d38184e5e" x="195.596448" y="307.584" style="stroke: #000000; stroke-width: 0.8"/>
      </g>
     </g>
     <g id="text_4">
      <!-- 15 -->
      <g transform="translate(189.233948 322.182437) scale(0.1 -0.1)">
       <use xlink:href="#DejaVuSans-31"/>
       <use xlink:href="#DejaVuSans-35" x="63.623047"/>
      </g>
     </g>
    </g>
    <g id="xtick_5">
     <g id="line2d_5">
      <g>
       <use xlink:href="#m5d38184e5e" x="236.184355" y="307.584" style="stroke: #000000; stroke-width: 0.8"/>
      </g>
     </g>
     <g id="text_5">
      <!-- 20 -->
      <g transform="translate(229.821855 322.182437) scale(0.1 -0.1)">
       <defs>
        <path id="DejaVuSans-32" d="M 1228 531 
L 3431 531 
L 3431 0 
L 469 0 
L 469 531 
Q 828 903 1448 1529 
Q 2069 2156 2228 2338 
Q 2531 2678 2651 2914 
Q 2772 3150 2772 3378 
Q 2772 3750 2511 3984 
Q 2250 4219 1831 4219 
Q 1534 4219 1204 4116 
Q 875 4013 500 3803 
L 500 4441 
Q 881 4594 1212 4672 
Q 1544 4750 1819 4750 
Q 2544 4750 2975 4387 
Q 3406 4025 3406 3419 
Q 3406 3131 3298 2873 
Q 3191 2616 2906 2266 
Q 2828 2175 2409 1742 
Q 1991 1309 1228 531 
z
" transform="scale(0.015625)"/>
       </defs>
       <use xlink:href="#DejaVuSans-32"/>
       <use xlink:href="#DejaVuSans-30" x="63.623047"/>
      </g>
     </g>
    </g>
    <g id="xtick_6">
     <g id="line2d_6">
      <g>
       <use xlink:href="#m5d38184e5e" x="276.772262" y="307.584" style="stroke: #000000; stroke-width: 0.8"/>
      </g>
     </g>
     <g id="text_6">
      <!-- 25 -->
      <g transform="translate(270.409762 322.182437) scale(0.1 -0.1)">
       <use xlink:href="#DejaVuSans-32"/>
       <use xlink:href="#DejaVuSans-35" x="63.623047"/>
      </g>
     </g>
    </g>
    <g id="xtick_7">
     <g id="line2d_7">
      <g>
       <use xlink:href="#m5d38184e5e" x="317.360169" y="307.584" style="stroke: #000000; stroke-width: 0.8"/>
      </g>
     </g>
     <g id="text_7">
      <!-- 30 -->
      <g transform="translate(310.997669 322.182437) scale(0.1 -0.1)">
       <defs>
        <path id="DejaVuSans-33" d="M 2597 2516 
Q 3050 2419 3304 2112 
Q 3559 1806 3559 1356 
Q 3559 666 3084 287 
Q 2609 -91 1734 -91 
Q 1441 -91 1130 -33 
Q 819 25 488 141 
L 488 750 
Q 750 597 1062 519 
Q 1375 441 1716 441 
Q 2309 441 2620 675 
Q 2931 909 2931 1356 
Q 2931 1769 2642 2001 
Q 2353 2234 1838 2234 
L 1294 2234 
L 1294 2753 
L 1863 2753 
Q 2328 2753 2575 2939 
Q 2822 3125 2822 3475 
Q 2822 3834 2567 4026 
Q 2313 4219 1838 4219 
Q 1578 4219 1281 4162 
Q 984 4106 628 3988 
L 628 4550 
Q 988 4650 1302 4700 
Q 1616 4750 1894 4750 
Q 2613 4750 3031 4423 
Q 3450 4097 3450 3541 
Q 3450 3153 3228 2886 
Q 3006 2619 2597 2516 
z
" transform="scale(0.015625)"/>
       </defs>
       <use xlink:href="#DejaVuSans-33"/>
       <use xlink:href="#DejaVuSans-30" x="63.623047"/>
      </g>
     </g>
    </g>
    <g id="xtick_8">
     <g id="line2d_8">
      <g>
       <use xlink:href="#m5d38184e5e" x="357.948076" y="307.584" style="stroke: #000000; stroke-width: 0.8"/>
      </g>
     </g>
     <g id="text_8">
      <!-- 35 -->
      <g transform="translate(351.585576 322.182437) scale(0.1 -0.1)">
       <use xlink:href="#DejaVuSans-33"/>
       <use xlink:href="#DejaVuSans-35" x="63.623047"/>
      </g>
     </g>
    </g>
    <g id="xtick_9">
     <g id="line2d_9">
      <g>
       <use xlink:href="#m5d38184e5e" x="398.535983" y="307.584" style="stroke: #000000; stroke-width: 0.8"/>
      </g>
     </g>
     <g id="text_9">
      <!-- 40 -->
      <g transform="translate(392.173483 322.182437) scale(0.1 -0.1)">
       <defs>
        <path id="DejaVuSans-34" d="M 2419 4116 
L 825 1625 
L 2419 1625 
L 2419 4116 
z
M 2253 4666 
L 3047 4666 
L 3047 1625 
L 3713 1625 
L 3713 1100 
L 3047 1100 
L 3047 0 
L 2419 0 
L 2419 1100 
L 313 1100 
L 313 1709 
L 2253 4666 
z
" transform="scale(0.015625)"/>
       </defs>
       <use xlink:href="#DejaVuSans-34"/>
       <use xlink:href="#DejaVuSans-30" x="63.623047"/>
      </g>
     </g>
    </g>
    <g id="text_10">
     <!-- Time, $t$ -->
     <g transform="translate(218.61 335.860562) scale(0.1 -0.1)">
      <defs>
       <path id="DejaVuSans-54" d="M -19 4666 
L 3928 4666 
L 3928 4134 
L 2272 4134 
L 2272 0 
L 1638 0 
L 1638 4134 
L -19 4134 
L -19 4666 
z
" transform="scale(0.015625)"/>
       <path id="DejaVuSans-69" d="M 603 3500 
L 1178 3500 
L 1178 0 
L 603 0 
L 603 3500 
z
M 603 4863 
L 1178 4863 
L 1178 4134 
L 603 4134 
L 603 4863 
z
" transform="scale(0.015625)"/>
       <path id="DejaVuSans-6d" d="M 3328 2828 
Q 3544 3216 3844 3400 
Q 4144 3584 4550 3584 
Q 5097 3584 5394 3201 
Q 5691 2819 5691 2113 
L 5691 0 
L 5113 0 
L 5113 2094 
Q 5113 2597 4934 2840 
Q 4756 3084 4391 3084 
Q 3944 3084 3684 2787 
Q 3425 2491 3425 1978 
L 3425 0 
L 2847 0 
L 2847 2094 
Q 2847 2600 2669 2842 
Q 2491 3084 2119 3084 
Q 1678 3084 1418 2786 
Q 1159 2488 1159 1978 
L 1159 0 
L 581 0 
L 581 3500 
L 1159 3500 
L 1159 2956 
Q 1356 3278 1631 3431 
Q 1906 3584 2284 3584 
Q 2666 3584 2933 3390 
Q 3200 3197 3328 2828 
z
" transform="scale(0.015625)"/>
       <path id="DejaVuSans-65" d="M 3597 1894 
L 3597 1613 
L 953 1613 
Q 991 1019 1311 708 
Q 1631 397 2203 397 
Q 2534 397 2845 478 
Q 3156 559 3463 722 
L 3463 178 
Q 3153 47 2828 -22 
Q 2503 -91 2169 -91 
Q 1331 -91 842 396 
Q 353 884 353 1716 
Q 353 2575 817 3079 
Q 1281 3584 2069 3584 
Q 2775 3584 3186 3129 
Q 3597 2675 3597 1894 
z
M 3022 2063 
Q 3016 2534 2758 2815 
Q 2500 3097 2075 3097 
Q 1594 3097 1305 2825 
Q 1016 2553 972 2059 
L 3022 2063 
z
" transform="scale(0.015625)"/>
       <path id="DejaVuSans-2c" d="M 750 794 
L 1409 794 
L 1409 256 
L 897 -744 
L 494 -744 
L 750 256 
L 750 794 
z
" transform="scale(0.015625)"/>
       <path id="DejaVuSans-20" transform="scale(0.015625)"/>
       <path id="DejaVuSans-Oblique-74" d="M 2706 3500 
L 2619 3053 
L 1472 3053 
L 1100 1153 
Q 1081 1047 1072 975 
Q 1063 903 1063 863 
Q 1063 663 1183 572 
Q 1303 481 1569 481 
L 2150 481 
L 2053 0 
L 1503 0 
Q 991 0 739 200 
Q 488 400 488 806 
Q 488 878 497 964 
Q 506 1050 525 1153 
L 897 3053 
L 409 3053 
L 500 3500 
L 978 3500 
L 1172 4494 
L 1747 4494 
L 1556 3500 
L 2706 3500 
z
" transform="scale(0.015625)"/>
      </defs>
      <use xlink:href="#DejaVuSans-54" transform="translate(0 0.015625)"/>
      <use xlink:href="#DejaVuSans-69" transform="translate(61.083984 0.015625)"/>
      <use xlink:href="#DejaVuSans-6d" transform="translate(88.867188 0.015625)"/>
      <use xlink:href="#DejaVuSans-65" transform="translate(186.279297 0.015625)"/>
      <use xlink:href="#DejaVuSans-2c" transform="translate(247.802734 0.015625)"/>
      <use xlink:href="#DejaVuSans-20" transform="translate(279.589844 0.015625)"/>
      <use xlink:href="#DejaVuSans-Oblique-74" transform="translate(311.376953 0.015625)"/>
     </g>
    </g>
   </g>
   <g id="matplotlib.axis_2">
    <g id="ytick_1">
     <g id="line2d_10">
      <defs>
       <path id="m3fd7c3583d" d="M 0 0 
L -3.5 0 
" style="stroke: #000000; stroke-width: 0.8"/>
      </defs>
      <g>
       <use xlink:href="#m3fd7c3583d" x="57.6" y="269.522213" style="stroke: #000000; stroke-width: 0.8"/>
      </g>
     </g>
     <g id="text_11">
      <!-- $\mathdefault{10^{-9}}$ -->
      <g transform="translate(27.1 273.321431) scale(0.1 -0.1)">
       <defs>
        <path id="DejaVuSans-2212" d="M 678 2272 
L 4684 2272 
L 4684 1741 
L 678 1741 
L 678 2272 
z
" transform="scale(0.015625)"/>
        <path id="DejaVuSans-39" d="M 703 97 
L 703 672 
Q 941 559 1184 500 
Q 1428 441 1663 441 
Q 2288 441 2617 861 
Q 2947 1281 2994 2138 
Q 2813 1869 2534 1725 
Q 2256 1581 1919 1581 
Q 1219 1581 811 2004 
Q 403 2428 403 3163 
Q 403 3881 828 4315 
Q 1253 4750 1959 4750 
Q 2769 4750 3195 4129 
Q 3622 3509 3622 2328 
Q 3622 1225 3098 567 
Q 2575 -91 1691 -91 
Q 1453 -91 1209 -44 
Q 966 3 703 97 
z
M 1959 2075 
Q 2384 2075 2632 2365 
Q 2881 2656 2881 3163 
Q 2881 3666 2632 3958 
Q 2384 4250 1959 4250 
Q 1534 4250 1286 3958 
Q 1038 3666 1038 3163 
Q 1038 2656 1286 2365 
Q 1534 2075 1959 2075 
z
" transform="scale(0.015625)"/>
       </defs>
       <use xlink:href="#DejaVuSans-31" transform="translate(0 0.765625)"/>
       <use xlink:href="#DejaVuSans-30" transform="translate(63.623047 0.765625)"/>
       <use xlink:href="#DejaVuSans-2212" transform="translate(128.203125 39.046875) scale(0.7)"/>
       <use xlink:href="#DejaVuSans-39" transform="translate(186.855469 39.046875) scale(0.7)"/>
      </g>
     </g>
    </g>
    <g id="ytick_2">
     <g id="line2d_11">
      <g>
       <use xlink:href="#m3fd7c3583d" x="57.6" y="230.099796" style="stroke: #000000; stroke-width: 0.8"/>
      </g>
     </g>
     <g id="text_12">
      <!-- $\mathdefault{10^{-7}}$ -->
      <g transform="translate(27.1 233.899014) scale(0.1 -0.1)">
       <defs>
        <path id="DejaVuSans-37" d="M 525 4666 
L 3525 4666 
L 3525 4397 
L 1831 0 
L 1172 0 
L 2766 4134 
L 525 4134 
L 525 4666 
z
" transform="scale(0.015625)"/>
       </defs>
       <use xlink:href="#DejaVuSans-31" transform="translate(0 0.684375)"/>
       <use xlink:href="#DejaVuSans-30" transform="translate(63.623047 0.684375)"/>
       <use xlink:href="#DejaVuSans-2212" transform="translate(128.203125 38.965625) scale(0.7)"/>
       <use xlink:href="#DejaVuSans-37" transform="translate(186.855469 38.965625) scale(0.7)"/>
      </g>
     </g>
    </g>
    <g id="ytick_3">
     <g id="line2d_12">
      <g>
       <use xlink:href="#m3fd7c3583d" x="57.6" y="190.677379" style="stroke: #000000; stroke-width: 0.8"/>
      </g>
     </g>
     <g id="text_13">
      <!-- $\mathdefault{10^{-5}}$ -->
      <g transform="translate(27.1 194.476597) scale(0.1 -0.1)">
       <use xlink:href="#DejaVuSans-31" transform="translate(0 0.684375)"/>
       <use xlink:href="#DejaVuSans-30" transform="translate(63.623047 0.684375)"/>
       <use xlink:href="#DejaVuSans-2212" transform="translate(128.203125 38.965625) scale(0.7)"/>
       <use xlink:href="#DejaVuSans-35" transform="translate(186.855469 38.965625) scale(0.7)"/>
      </g>
     </g>
    </g>
    <g id="ytick_4">
     <g id="line2d_13">
      <g>
       <use xlink:href="#m3fd7c3583d" x="57.6" y="151.254962" style="stroke: #000000; stroke-width: 0.8"/>
      </g>
     </g>
     <g id="text_14">
      <!-- $\mathdefault{10^{-3}}$ -->
      <g transform="translate(27.1 155.05418) scale(0.1 -0.1)">
       <use xlink:href="#DejaVuSans-31" transform="translate(0 0.765625)"/>
       <use xlink:href="#DejaVuSans-30" transform="translate(63.623047 0.765625)"/>
       <use xlink:href="#DejaVuSans-2212" transform="translate(128.203125 39.046875) scale(0.7)"/>
       <use xlink:href="#DejaVuSans-33" transform="translate(186.855469 39.046875) scale(0.7)"/>
      </g>
     </g>
    </g>
    <g id="ytick_5">
     <g id="line2d_14">
      <g>
       <use xlink:href="#m3fd7c3583d" x="57.6" y="111.832545" style="stroke: #000000; stroke-width: 0.8"/>
      </g>
     </g>
     <g id="text_15">
      <!-- $\mathdefault{10^{-1}}$ -->
      <g transform="translate(27.1 115.631763) scale(0.1 -0.1)">
       <use xlink:href="#DejaVuSans-31" transform="translate(0 0.684375)"/>
       <use xlink:href="#DejaVuSans-30" transform="translate(63.623047 0.684375)"/>
       <use xlink:href="#DejaVuSans-2212" transform="translate(128.203125 38.965625) scale(0.7)"/>
       <use xlink:href="#DejaVuSans-31" transform="translate(186.855469 38.965625) scale(0.7)"/>
      </g>
     </g>
    </g>
    <g id="ytick_6">
     <g id="line2d_15">
      <g>
       <use xlink:href="#m3fd7c3583d" x="57.6" y="72.410128" style="stroke: #000000; stroke-width: 0.8"/>
      </g>
     </g>
     <g id="text_16">
      <!-- $\mathdefault{10^{1}}$ -->
      <g transform="translate(33 76.209347) scale(0.1 -0.1)">
       <use xlink:href="#DejaVuSans-31" transform="translate(0 0.684375)"/>
       <use xlink:href="#DejaVuSans-30" transform="translate(63.623047 0.684375)"/>
       <use xlink:href="#DejaVuSans-31" transform="translate(128.203125 38.965625) scale(0.7)"/>
      </g>
     </g>
    </g>
    <g id="text_17">
     <!-- Seperation -->
     <g transform="translate(21.020312 201.726438) rotate(-90) scale(0.1 -0.1)">
      <defs>
       <path id="DejaVuSans-53" d="M 3425 4513 
L 3425 3897 
Q 3066 4069 2747 4153 
Q 2428 4238 2131 4238 
Q 1616 4238 1336 4038 
Q 1056 3838 1056 3469 
Q 1056 3159 1242 3001 
Q 1428 2844 1947 2747 
L 2328 2669 
Q 3034 2534 3370 2195 
Q 3706 1856 3706 1288 
Q 3706 609 3251 259 
Q 2797 -91 1919 -91 
Q 1588 -91 1214 -16 
Q 841 59 441 206 
L 441 856 
Q 825 641 1194 531 
Q 1563 422 1919 422 
Q 2459 422 2753 634 
Q 3047 847 3047 1241 
Q 3047 1584 2836 1778 
Q 2625 1972 2144 2069 
L 1759 2144 
Q 1053 2284 737 2584 
Q 422 2884 422 3419 
Q 422 4038 858 4394 
Q 1294 4750 2059 4750 
Q 2388 4750 2728 4690 
Q 3069 4631 3425 4513 
z
" transform="scale(0.015625)"/>
       <path id="DejaVuSans-70" d="M 1159 525 
L 1159 -1331 
L 581 -1331 
L 581 3500 
L 1159 3500 
L 1159 2969 
Q 1341 3281 1617 3432 
Q 1894 3584 2278 3584 
Q 2916 3584 3314 3078 
Q 3713 2572 3713 1747 
Q 3713 922 3314 415 
Q 2916 -91 2278 -91 
Q 1894 -91 1617 61 
Q 1341 213 1159 525 
z
M 3116 1747 
Q 3116 2381 2855 2742 
Q 2594 3103 2138 3103 
Q 1681 3103 1420 2742 
Q 1159 2381 1159 1747 
Q 1159 1113 1420 752 
Q 1681 391 2138 391 
Q 2594 391 2855 752 
Q 3116 1113 3116 1747 
z
" transform="scale(0.015625)"/>
       <path id="DejaVuSans-72" d="M 2631 2963 
Q 2534 3019 2420 3045 
Q 2306 3072 2169 3072 
Q 1681 3072 1420 2755 
Q 1159 2438 1159 1844 
L 1159 0 
L 581 0 
L 581 3500 
L 1159 3500 
L 1159 2956 
Q 1341 3275 1631 3429 
Q 1922 3584 2338 3584 
Q 2397 3584 2469 3576 
Q 2541 3569 2628 3553 
L 2631 2963 
z
" transform="scale(0.015625)"/>
       <path id="DejaVuSans-61" d="M 2194 1759 
Q 1497 1759 1228 1600 
Q 959 1441 959 1056 
Q 959 750 1161 570 
Q 1363 391 1709 391 
Q 2188 391 2477 730 
Q 2766 1069 2766 1631 
L 2766 1759 
L 2194 1759 
z
M 3341 1997 
L 3341 0 
L 2766 0 
L 2766 531 
Q 2569 213 2275 61 
Q 1981 -91 1556 -91 
Q 1019 -91 701 211 
Q 384 513 384 1019 
Q 384 1609 779 1909 
Q 1175 2209 1959 2209 
L 2766 2209 
L 2766 2266 
Q 2766 2663 2505 2880 
Q 2244 3097 1772 3097 
Q 1472 3097 1187 3025 
Q 903 2953 641 2809 
L 641 3341 
Q 956 3463 1253 3523 
Q 1550 3584 1831 3584 
Q 2591 3584 2966 3190 
Q 3341 2797 3341 1997 
z
" transform="scale(0.015625)"/>
       <path id="DejaVuSans-74" d="M 1172 4494 
L 1172 3500 
L 2356 3500 
L 2356 3053 
L 1172 3053 
L 1172 1153 
Q 1172 725 1289 603 
Q 1406 481 1766 481 
L 2356 481 
L 2356 0 
L 1766 0 
Q 1100 0 847 248 
Q 594 497 594 1153 
L 594 3053 
L 172 3053 
L 172 3500 
L 594 3500 
L 594 4494 
L 1172 4494 
z
" transform="scale(0.015625)"/>
       <path id="DejaVuSans-6f" d="M 1959 3097 
Q 1497 3097 1228 2736 
Q 959 2375 959 1747 
Q 959 1119 1226 758 
Q 1494 397 1959 397 
Q 2419 397 2687 759 
Q 2956 1122 2956 1747 
Q 2956 2369 2687 2733 
Q 2419 3097 1959 3097 
z
M 1959 3584 
Q 2709 3584 3137 3096 
Q 3566 2609 3566 1747 
Q 3566 888 3137 398 
Q 2709 -91 1959 -91 
Q 1206 -91 779 398 
Q 353 888 353 1747 
Q 353 2609 779 3096 
Q 1206 3584 1959 3584 
z
" transform="scale(0.015625)"/>
       <path id="DejaVuSans-6e" d="M 3513 2113 
L 3513 0 
L 2938 0 
L 2938 2094 
Q 2938 2591 2744 2837 
Q 2550 3084 2163 3084 
Q 1697 3084 1428 2787 
Q 1159 2491 1159 1978 
L 1159 0 
L 581 0 
L 581 3500 
L 1159 3500 
L 1159 2956 
Q 1366 3272 1645 3428 
Q 1925 3584 2291 3584 
Q 2894 3584 3203 3211 
Q 3513 2838 3513 2113 
z
" transform="scale(0.015625)"/>
      </defs>
      <use xlink:href="#DejaVuSans-53"/>
      <use xlink:href="#DejaVuSans-65" x="63.476562"/>
      <use xlink:href="#DejaVuSans-70" x="125"/>
      <use xlink:href="#DejaVuSans-65" x="188.476562"/>
      <use xlink:href="#DejaVuSans-72" x="250"/>
      <use xlink:href="#DejaVuSans-61" x="291.113281"/>
      <use xlink:href="#DejaVuSans-74" x="352.392578"/>
      <use xlink:href="#DejaVuSans-69" x="391.601562"/>
      <use xlink:href="#DejaVuSans-6f" x="419.384766"/>
      <use xlink:href="#DejaVuSans-6e" x="480.566406"/>
     </g>
    </g>
   </g>
   <g id="line2d_16">
    <path d="M 73.832727 289.23342 
L 74.644567 292.358502 
L 74.725751 292.415427 
L 74.806934 292.314446 
L 74.969302 290.966095 
L 75.699958 281.593678 
L 75.94351 282.139674 
L 76.187061 284.620565 
L 76.836533 293.182749 
L 77.080085 293.787294 
L 77.323636 294.220156 
L 77.891924 295.488 
L 78.054292 295.176216 
L 78.703763 293.148236 
L 78.866131 293.148697 
L 79.109683 293.59376 
L 79.515603 294.664001 
L 79.596786 294.631328 
L 79.840338 293.910301 
L 80.246258 292.763664 
L 80.408626 292.84915 
L 81.058097 294.345245 
L 81.139281 294.25705 
L 81.464017 293.022437 
L 81.788753 292.063231 
L 82.032304 291.936621 
L 82.275856 292.211707 
L 82.438224 292.624325 
L 82.76296 293.551765 
L 83.087696 292.442251 
L 83.412431 291.578808 
L 83.574799 291.679952 
L 84.305455 293.333655 
L 84.549006 292.390479 
L 84.873742 291.141595 
L 85.198478 290.739353 
L 85.523214 290.866276 
L 85.929133 292.465928 
L 86.659789 290.342518 
L 87.065708 291.108664 
L 87.390444 292.325644 
L 87.471628 292.298817 
L 87.71518 291.267636 
L 88.121099 289.841391 
L 88.527019 289.061424 
L 88.689387 289.564595 
L 89.014123 290.879615 
L 89.17649 290.783864 
L 89.257674 290.977659 
L 89.420042 290.20245 
L 89.663594 289.002378 
L 89.744778 288.954024 
L 89.98833 289.119119 
L 90.069514 289.088194 
L 90.231882 289.566526 
L 90.556617 290.781831 
L 90.800169 290.11199 
L 91.612008 287.465121 
L 91.774376 287.787265 
L 92.26148 289.0268 
L 92.423848 288.699582 
L 92.6674 288.270222 
L 92.829767 288.041638 
L 92.992135 287.661637 
L 93.073319 287.741428 
L 93.560423 288.888908 
L 93.803975 288.662693 
L 94.047526 288.872131 
L 94.209894 288.26668 
L 94.53463 286.931551 
L 95.021734 286.846535 
L 95.346469 287.454972 
L 95.590021 288.273413 
L 95.914757 287.343647 
L 96.158309 286.468276 
L 96.483044 286.763701 
L 96.645412 287.545584 
L 96.888964 288.885711 
L 97.863171 285.00638 
L 98.269091 285.027738 
L 98.675011 285.710488 
L 98.918562 286.281168 
L 99.08093 286.020386 
L 99.405666 285.118675 
L 99.568034 285.188041 
L 99.730402 285.407302 
L 100.055137 287.194879 
L 100.136321 287.144266 
L 100.379873 286.167912 
L 100.623425 285.199733 
L 101.110529 282.914273 
L 101.272896 282.767331 
L 101.516448 282.460065 
L 101.597632 282.653071 
L 101.678816 282.567974 
L 101.76 282.580725 
L 101.922368 283.381026 
L 102.16592 284.303674 
L 102.247104 284.241817 
L 102.653023 282.424456 
L 102.815391 282.43119 
L 102.977759 283.099683 
L 103.221311 284.640422 
L 103.302495 284.141402 
L 103.383679 284.18315 
L 103.546047 284.1695 
L 103.708414 283.750212 
L 104.763805 278.988259 
L 104.844989 279.131635 
L 105.250909 281.460381 
L 105.332093 281.36592 
L 105.738013 278.354119 
L 105.900381 278.228473 
L 105.981564 278.346349 
L 106.793404 281.062224 
L 106.955772 280.727012 
L 107.199323 279.606481 
L 107.848795 275.46515 
L 108.011163 275.559568 
L 108.254715 275.669737 
L 108.417082 277.182801 
L 108.741818 273.765642 
L 108.823002 273.839594 
L 108.904186 274.352952 
L 108.98537 274.289646 
L 109.066554 274.314203 
L 109.310106 274.916882 
L 109.39129 274.865755 
L 109.553658 274.404654 
L 110.121945 276.389386 
L 110.203129 276.411691 
L 110.365497 276.014238 
L 110.690233 273.822771 
L 111.014968 271.614108 
L 111.339704 270.198054 
L 111.420888 270.27363 
L 111.583256 269.917709 
L 111.66444 270.172224 
L 111.989175 272.147495 
L 112.070359 272.070676 
L 112.395095 270.947887 
L 112.476279 271.022469 
L 112.638647 271.612319 
L 112.963383 272.844392 
L 113.288118 273.992055 
L 113.369302 274.098632 
L 113.450486 274.03307 
L 113.612854 273.685618 
L 113.856406 271.962866 
L 114.505877 267.227665 
L 114.830613 266.377623 
L 114.992981 267.51792 
L 115.236533 268.748702 
L 115.561268 266.904503 
L 115.723636 267.143598 
L 116.697844 270.882837 
L 116.779027 270.845831 
L 117.022579 270.091873 
L 117.590867 265.137094 
L 117.915603 262.935675 
L 118.159154 262.655963 
L 118.240338 262.785988 
L 118.402706 262.406598 
L 118.565074 263.682404 
L 118.808626 264.558863 
L 118.970994 264.788875 
L 119.052178 264.466481 
L 119.214545 265.089114 
L 119.864017 268.733807 
L 120.107569 269.157288 
L 120.269937 268.849729 
L 120.513488 267.418423 
L 120.919408 263.192388 
L 121.244144 260.190665 
L 121.568879 258.185459 
L 121.650063 257.908842 
L 121.731247 257.967621 
L 122.055983 259.472762 
L 122.299535 258.687229 
L 122.624271 260.19449 
L 123.598478 265.125301 
L 123.760846 265.151706 
L 123.923214 264.740593 
L 124.166765 263.119871 
L 124.653869 257.356565 
L 125.30334 249.838653 
L 125.546892 248.833919 
L 125.628076 248.834184 
L 125.790444 249.281841 
L 125.952812 248.81846 
L 126.196364 249.954218 
L 126.602283 253.320003 
L 127.251755 258.613142 
L 127.901226 261.708194 
L 128.38833 263.525917 
L 128.550698 263.551223 
L 128.631882 263.415426 
L 128.794249 262.145847 
L 129.362537 256.040713 
L 129.606089 255.36857 
L 130.093192 257.065638 
L 130.499112 259.854823 
L 130.986216 262.861249 
L 131.148584 263.060243 
L 131.310951 262.68254 
L 131.554503 261.099316 
L 132.041607 255.725455 
L 132.93463 245.551063 
L 133.178182 244.631855 
L 133.259366 244.687769 
L 133.746469 246.353733 
L 133.990021 247.897367 
L 134.80186 254.103769 
L 135.126596 254.946399 
L 135.288964 255.031744 
L 135.451332 254.87965 
L 135.694884 254.128028 
L 136.019619 252.150004 
L 136.912643 245.729918 
L 137.075011 245.612791 
L 137.318562 246.731376 
L 137.48093 247.182308 
L 137.562114 247.1148 
L 137.724482 247.858136 
L 138.455137 252.443359 
L 138.617505 252.479528 
L 138.779873 252.198268 
L 139.023425 251.291872 
L 139.429345 248.641902 
L 140.647104 239.094802 
L 140.728288 239.031663 
L 140.890655 239.432564 
L 141.458943 241.568176 
L 142.189598 246.142387 
L 142.351966 246.28303 
L 142.514334 246.052037 
L 142.757886 245.083681 
L 143.082622 242.711602 
L 143.650909 236.327749 
L 144.787484 222.397846 
L 144.949852 221.747197 
L 145.031036 221.740685 
L 145.193404 222.145134 
L 145.51814 223.557738 
L 145.842875 226.538309 
L 146.492347 232.773819 
L 146.898266 234.422512 
L 147.710106 237.09644 
L 147.953658 237.639492 
L 148.116025 237.138318 
L 148.603129 234.696447 
L 148.765497 234.784791 
L 149.333784 235.638515 
L 149.65852 235.716284 
L 149.820888 235.567225 
L 150.06444 234.936026 
L 150.389175 233.20366 
L 150.876279 229.035088 
L 151.850486 219.968265 
L 152.094038 219.362138 
L 152.418774 220.806635 
L 152.499958 220.573115 
L 152.581142 220.305007 
L 152.74351 221.060779 
L 153.149429 224.16716 
L 153.555349 226.734092 
L 153.798901 227.234088 
L 153.961268 227.157095 
L 154.123636 226.757349 
L 154.367188 225.529886 
L 154.773108 221.934521 
L 155.666131 210.804033 
L 156.072051 206.886807 
L 156.234419 206.33986 
L 156.315603 206.334668 
L 156.47797 206.716875 
L 156.965074 209.513639 
L 157.858097 217.263817 
L 158.182833 218.098978 
L 159.15704 219.803097 
L 159.56296 220.789128 
L 159.806512 220.010228 
L 159.968879 219.323534 
L 160.050063 219.365268 
L 160.455983 220.397826 
L 160.618351 220.402113 
L 160.861903 220.241562 
L 161.186638 219.37289 
L 161.511374 217.657284 
L 161.998478 213.460773 
L 163.459789 199.312884 
L 163.622156 199.308346 
L 163.70334 199.524102 
L 165.083467 208.861793 
L 165.245835 208.749138 
L 165.489387 208.001674 
L 165.814123 206.031002 
L 166.301226 201.430704 
L 167.113066 193.53513 
L 167.356617 192.84857 
L 167.518985 193.161718 
L 168.087273 195.682248 
L 168.817928 200.932819 
L 169.06148 201.26017 
L 169.223848 201.087682 
L 169.4674 200.329023 
L 169.792135 198.411924 
L 170.441607 192.594582 
L 170.92871 189.224839 
L 171.091078 189.01639 
L 171.253446 189.43103 
L 171.902918 192.342168 
L 172.471205 196.162608 
L 172.633573 196.427988 
L 172.795941 196.314192 
L 173.039493 195.536967 
L 173.364228 193.484014 
L 173.851332 188.64743 
L 174.906723 177.302764 
L 175.069091 176.798347 
L 175.231459 177.08939 
L 175.718562 179.039525 
L 176.205666 183.558727 
L 176.611586 186.339949 
L 176.855137 186.964938 
L 177.098689 187.073301 
L 177.342241 186.769794 
L 177.666977 185.797804 
L 178.316448 183.554013 
L 178.478816 183.577105 
L 178.722368 184.247259 
L 179.047104 185.033534 
L 179.290655 185.690929 
L 179.858943 187.741494 
L 180.021311 187.548195 
L 180.264863 186.651399 
L 180.589598 184.541555 
L 181.076702 179.700807 
L 181.807357 169.905983 
L 183.1063 148.794648 
L 183.674588 140.896496 
L 183.91814 139.828104 
L 184.080507 140.127596 
L 184.242875 140.879105 
L 184.567611 144.115204 
L 185.78537 159.620665 
L 186.028922 160.355939 
L 186.19129 159.913238 
L 186.921945 156.388069 
L 187.165497 156.639484 
L 187.327865 156.596612 
L 187.6526 156.772112 
L 187.977336 156.647652 
L 188.05852 156.51458 
L 188.302072 156.994716 
L 188.789175 158.664801 
L 189.113911 159.692551 
L 189.276279 159.762013 
L 189.519831 158.59369 
L 190.169302 154.949791 
L 190.33167 155.362118 
L 190.656406 156.188946 
L 191.14351 155.858503 
L 191.468245 156.404701 
L 191.955349 157.898445 
L 192.523636 159.859357 
L 192.60482 159.885269 
L 192.767188 159.539353 
L 193.01074 157.854312 
L 193.41666 155.32626 
L 193.579027 155.248186 
L 193.822579 155.586603 
L 193.984947 155.613362 
L 194.228499 155.916729 
L 194.472051 156.237836 
L 194.87797 157.006374 
L 195.933362 159.503249 
L 196.339281 160.816202 
L 196.420465 160.749951 
L 196.664017 159.546243 
L 196.988753 157.928939 
L 197.151121 157.771801 
L 197.475856 158.419213 
L 197.719408 158.701149 
L 197.96296 158.718028 
L 198.206512 158.573078 
L 198.450063 158.158424 
L 198.774799 156.99454 
L 199.261903 154.060916 
L 199.911374 149.940669 
L 200.073742 149.489278 
L 200.23611 149.542793 
L 200.317294 149.679154 
L 200.479662 150.116193 
L 200.560846 149.983087 
L 200.64203 150.058798 
L 201.778605 154.573225 
L 201.940973 154.329947 
L 202.184524 153.254417 
L 202.590444 149.874911 
L 203.239915 142.00084 
L 204.132939 131.38825 
L 204.37649 130.594513 
L 204.457674 130.665805 
L 204.944778 132.49293 
L 205.350698 136.197765 
L 205.918985 141.083413 
L 206.324905 142.593743 
L 206.812008 143.465863 
L 207.299112 144.226624 
L 207.705032 145.601906 
L 207.786216 145.853995 
L 207.8674 145.776552 
L 207.948584 145.664179 
L 208.273319 144.604178 
L 208.354503 144.637774 
L 208.841607 145.518852 
L 209.085159 145.392057 
L 209.32871 144.893696 
L 209.653446 143.425876 
L 210.059366 140.131494 
L 210.708837 132.427228 
L 211.683044 117.71731 
L 212.657252 103.042095 
L 212.900803 101.501896 
L 213.225539 101.691583 
L 213.469091 103.377566 
L 213.956195 109.865331 
L 214.605666 118.051368 
L 214.930402 119.95178 
L 215.011586 120.021175 
L 215.173953 119.579998 
L 215.985793 115.124437 
L 216.066977 115.20824 
L 216.391712 116.969088 
L 216.472896 116.810197 
L 216.635264 116.633026 
L 216.96 116.505758 
L 217.528288 118.319507 
L 218.258943 120.715974 
L 218.421311 120.32287 
L 218.746047 118.058955 
L 219.151966 115.37276 
L 219.314334 115.057651 
L 219.395518 115.100903 
L 219.720254 116.803733 
L 219.882622 116.760517 
L 220.044989 116.78204 
L 220.126173 116.752377 
L 220.207357 116.842797 
L 220.532093 117.934192 
L 221.749852 122.173972 
L 221.831036 122.134797 
L 222.074588 120.976351 
L 222.561691 117.062017 
L 222.642875 117.011168 
L 222.805243 117.299785 
L 222.967611 116.863436 
L 224.428922 120.568242 
L 224.753658 120.950056 
L 225.159577 121.135658 
L 225.240761 121.012413 
L 225.484313 121.940767 
L 225.565497 121.858099 
L 225.646681 121.743033 
L 225.727865 122.013791 
L 225.809049 123.150072 
L 225.890233 122.824145 
L 226.0526 124.531449 
L 226.133784 124.320639 
L 226.214968 123.56085 
L 226.296152 124.545769 
L 226.45852 120.860057 
L 226.539704 121.188423 
L 226.702072 123.811181 
L 226.783256 124.037704 
L 226.945624 125.733122 
L 227.107992 124.712704 
L 227.189175 124.707563 
L 227.351543 124.873212 
L 227.919831 122.501755 
L 228.325751 119.277598 
L 228.975222 112.109197 
L 229.462326 106.366213 
L 229.787061 103.589845 
L 230.030613 103.034534 
L 230.192981 103.193277 
L 230.517717 105.087282 
L 230.923636 107.861327 
L 231.41074 111.573602 
L 231.654292 112.171061 
L 231.81666 112.158884 
L 231.979027 111.865376 
L 232.222579 110.92534 
L 232.628499 108.115378 
L 233.602706 100.374229 
L 233.765074 100.252529 
L 233.846258 100.346636 
L 234.658097 104.335221 
L 235.145201 107.436682 
L 235.307569 107.659066 
L 235.469937 107.502523 
L 235.713488 106.673221 
L 236.038224 104.563063 
L 236.525328 99.678689 
L 237.580719 88.581186 
L 237.743087 88.200982 
L 237.905455 88.567061 
L 238.392558 90.553192 
L 239.447949 98.026176 
L 239.691501 98.207444 
L 239.853869 98.085022 
L 240.097421 97.563389 
L 240.50334 95.967186 
L 240.990444 94.212646 
L 241.152812 94.243146 
L 241.396364 94.901395 
L 241.802283 95.929852 
L 242.045835 96.800012 
L 242.451755 98.509504 
L 242.614123 98.534467 
L 242.77649 98.168824 
L 243.101226 96.569502 
L 243.507146 93.174063 
L 244.156617 85.340053 
L 245.130825 70.455938 
L 246.186216 54.478546 
L 246.348584 53.570833 
L 246.429767 53.568 
L 246.592135 54.622628 
L 247.485159 65.597244 
L 247.647526 65.746625 
L 247.809894 65.378828 
L 248.215814 63.585977 
L 249.271205 58.435929 
L 249.433573 58.293988 
L 249.595941 58.487846 
L 249.839493 59.358312 
L 250.326596 62.501549 
L 250.8137 65.092795 
L 250.976068 65.342968 
L 251.138436 65.218348 
L 251.381987 64.422551 
L 251.869091 61.55563 
L 252.437378 58.339348 
L 252.68093 57.846776 
L 252.843298 58.00918 
L 253.08685 58.99226 
L 253.49277 62.024906 
L 254.061057 66.070283 
L 254.304609 66.535333 
L 254.466977 66.276479 
L 254.710529 65.206284 
L 255.278816 61.123247 
L 255.847104 57.6264 
L 256.009471 57.314466 
L 256.090655 57.335864 
L 256.253023 57.760634 
L 256.496575 59.260331 
L 257.146047 65.688085 
L 257.470782 68.034082 
L 257.63315 68.417944 
L 257.714334 68.38404 
L 257.876702 67.916265 
L 258.201438 65.859963 
L 259.419197 56.674065 
L 259.500381 56.63172 
L 259.662748 57.016468 
L 259.9063 58.744363 
L 260.393404 64.598083 
L 261.042875 71.898936 
L 261.205243 72.207774 
L 261.367611 71.706144 
L 261.692347 69.235606 
L 263.153658 55.884828 
L 263.234841 55.915089 
L 263.397209 56.529981 
L 263.721945 59.600268 
L 264.371416 68.68985 
L 264.939704 76.230673 
L 265.345624 79.00656 
L 265.913911 81.434402 
L 266.076279 81.697986 
L 266.157463 81.629169 
L 266.319831 80.776075 
L 266.725751 75.952375 
L 267.13167 72.201605 
L 267.294038 72.062392 
L 267.456406 72.330318 
L 267.781142 73.613989 
L 268.105877 75.961035 
L 268.755349 80.968588 
L 268.917717 81.291323 
L 268.998901 81.223398 
L 269.161268 80.605708 
L 269.486004 77.862656 
L 270.541395 67.071293 
L 270.703763 66.644492 
L 270.866131 66.773069 
L 271.434419 68.425939 
L 271.759154 70.43377 
L 272.408626 74.746281 
L 272.652178 75.323404 
L 272.814545 75.331206 
L 272.976913 74.983754 
L 273.220465 73.698669 
L 273.626385 69.681595 
L 274.925328 54.503762 
L 275.006512 54.468766 
L 275.168879 55.273491 
L 275.493615 59.779216 
L 276.143087 69.609148 
L 276.305455 70.497084 
L 276.386638 70.528627 
L 276.549006 70.029009 
L 276.954926 67.331823 
L 278.335053 56.526841 
L 278.416237 56.504815 
L 278.578605 56.932036 
L 278.822156 58.678604 
L 279.30926 64.536742 
L 280.039915 73.247785 
L 280.202283 73.509429 
L 280.364651 72.917237 
L 280.689387 70.197899 
L 281.98833 57.786474 
L 282.150698 57.483663 
L 282.313066 57.607317 
L 282.556617 58.374286 
L 282.962537 59.567773 
L 283.124905 59.386481 
L 283.449641 58.57143 
L 283.530825 58.5978 
L 283.693192 59.088688 
L 284.017928 61.576458 
L 284.586216 65.695629 
L 285.235687 68.594256 
L 285.398055 68.67972 
L 285.560423 67.964153 
L 286.047526 64.631857 
L 286.209894 64.519229 
L 287.021734 65.721007 
L 287.752389 66.827059 
L 287.914757 66.618555 
L 288.158309 65.735789 
L 288.564228 62.902927 
L 289.376068 56.774407 
L 289.538436 56.586408 
L 289.700803 57.052441 
L 289.944355 58.909918 
L 291.243298 71.536901 
L 291.405666 71.799496 
L 291.568034 71.628427 
L 291.811586 70.672704 
L 292.217505 67.642445 
L 293.435264 57.160828 
L 293.597632 56.900516 
L 293.76 57.011299 
L 294.084736 57.955876 
L 294.328288 58.44977 
L 294.653023 58.616082 
L 294.815391 59.255576 
L 295.140127 62.040178 
L 295.62723 66.15778 
L 296.195518 68.694032 
L 296.682622 70.293396 
L 296.844989 69.839115 
L 297.413277 66.970752 
L 297.575645 67.174258 
L 297.981564 67.883088 
L 298.71222 68.155634 
L 298.874588 68.02349 
L 299.11814 67.463494 
L 299.442875 65.950909 
L 299.929979 62.335143 
L 300.660634 56.873393 
L 300.904186 56.373757 
L 301.066554 56.753888 
L 301.310106 58.481613 
L 301.716025 63.573081 
L 302.609049 75.320002 
L 302.690233 75.369847 
L 302.8526 74.778219 
L 303.25852 71.477058 
L 303.907992 66.449445 
L 304.151543 65.709024 
L 304.313911 65.781811 
L 304.882199 66.94077 
L 305.044567 67.1119 
L 305.288118 68.03899 
L 305.856406 70.876054 
L 306.018774 70.99194 
L 306.181142 70.674302 
L 306.424693 69.427022 
L 306.830613 65.829456 
L 307.561268 59.141437 
L 307.80482 58.16556 
L 307.967188 58.034755 
L 308.129556 58.260463 
L 308.697844 59.738605 
L 308.779027 59.706259 
L 309.022579 59.104509 
L 309.266131 58.678398 
L 309.428499 59.017886 
L 309.672051 60.595462 
L 310.48389 66.930259 
L 310.727442 67.473685 
L 310.88981 66.943967 
L 311.620465 62.48683 
L 311.782833 62.670084 
L 312.188753 63.595509 
L 312.351121 63.552648 
L 312.675856 63.397689 
L 312.838224 63.620631 
L 313.16296 64.717054 
L 313.731247 66.802881 
L 313.974799 67.086106 
L 314.137167 66.904258 
L 314.380719 65.912683 
L 314.705455 63.254488 
L 315.517294 55.528959 
L 315.679662 55.329388 
L 315.84203 56.077406 
L 316.166765 60.040574 
L 317.140973 73.418272 
L 317.30334 74.105134 
L 317.384524 74.134734 
L 317.546892 73.677796 
L 317.871628 71.343518 
L 319.008203 61.447399 
L 319.170571 61.187602 
L 319.332939 61.366385 
L 319.820042 62.444568 
L 320.225962 62.386562 
L 320.38833 62.931289 
L 321.200169 66.765621 
L 321.362537 66.643162 
L 321.606089 65.697913 
L 321.930825 63.165248 
L 322.66148 57.138909 
L 322.823848 56.834451 
L 322.986216 57.129701 
L 323.229767 58.50331 
L 323.960423 63.031346 
L 325.34055 71.514333 
L 325.908837 73.584694 
L 326.071205 73.796164 
L 326.152389 73.731587 
L 326.314757 73.108578 
L 326.558309 70.809963 
L 327.532516 59.124995 
L 327.694884 59.059991 
L 328.100803 60.045554 
L 328.344355 60.951457 
L 328.587907 62.978922 
L 329.562114 73.052357 
L 329.643298 73.078851 
L 329.805666 72.52057 
L 330.617505 67.872434 
L 330.779873 67.955974 
L 331.348161 68.945169 
L 331.672896 68.812364 
L 331.835264 69.070196 
L 332.16 70.29082 
L 332.647104 72.240631 
L 332.809471 72.356366 
L 332.971839 71.945411 
L 333.215391 70.364467 
L 333.864863 65.694922 
L 334.02723 65.393305 
L 334.189598 65.527098 
L 334.676702 66.537036 
L 335.001438 66.445297 
L 335.163805 66.701481 
L 335.488541 68.020974 
L 336.056829 70.485887 
L 336.219197 70.627361 
L 336.381564 70.26694 
L 336.625116 68.70197 
L 337.355772 62.739587 
L 337.51814 62.345395 
L 337.680507 62.42561 
L 338.248795 63.510305 
L 338.573531 63.334007 
L 338.735899 63.599387 
L 338.97945 64.670236 
L 339.628922 67.977559 
L 339.872474 68.309902 
L 340.034841 67.987296 
L 340.278393 66.50924 
L 341.2526 58.338849 
L 341.414968 58.298475 
L 341.577336 58.708596 
L 342.145624 61.482685 
L 342.632727 63.212641 
L 342.795095 63.274911 
L 342.957463 62.779489 
L 343.201015 60.868338 
L 343.688118 56.555468 
L 343.850486 56.39717 
L 344.012854 57.047418 
L 344.418774 60.563133 
L 344.905877 64.047148 
L 344.987061 64.176492 
L 345.068245 64.092826 
L 345.311797 62.95362 
L 345.555349 62.163057 
L 345.636533 62.186349 
L 345.880085 62.862782 
L 346.123636 63.443348 
L 346.286004 63.412496 
L 346.61074 62.743135 
L 347.01666 62.081842 
L 347.260211 62.022401 
L 347.666131 62.0077 
L 347.909683 61.62135 
L 348.234419 60.451343 
L 348.721522 58.756838 
L 348.88389 58.733997 
L 349.046258 59.069197 
L 349.370994 60.588367 
L 349.776913 62.287432 
L 350.101649 62.685078 
L 350.507569 63.077121 
L 350.994672 63.623316 
L 351.15704 63.531039 
L 351.400592 62.911397 
L 351.725328 61.141039 
L 352.374799 57.325134 
L 352.537167 57.270269 
L 352.699535 57.807881 
L 353.024271 60.261373 
L 353.592558 64.466572 
L 354.24203 67.25708 
L 354.647949 68.172808 
L 354.891501 68.298311 
L 355.053869 68.188075 
L 355.297421 67.71743 
L 355.70334 66.242503 
L 356.190444 64.518195 
L 356.352812 64.393634 
L 356.51518 64.650318 
L 357.002283 65.813454 
L 357.245835 66.273639 
L 357.814123 68.564295 
L 357.97649 68.439323 
L 358.220042 67.667865 
L 358.625962 65.317181 
L 359.843721 56.949638 
L 359.924905 56.937604 
L 360.087273 57.347928 
L 360.330825 58.997861 
L 360.899112 65.172931 
L 361.386216 69.585586 
L 361.548584 70.038878 
L 361.629767 70.01765 
L 361.792135 69.54079 
L 362.116871 67.37223 
L 362.92871 59.350192 
L 363.33463 56.380991 
L 363.496998 56.046055 
L 363.578182 56.143887 
L 363.74055 56.904483 
L 364.065285 60.295559 
L 364.714757 70.502198 
L 365.283044 78.676311 
L 365.364228 78.897016 
L 365.445412 78.78788 
L 365.688964 77.13061 
L 366.338436 69.650274 
L 367.150275 60.809456 
L 367.393827 59.798774 
L 367.556195 59.784011 
L 367.799746 60.382783 
L 368.043298 60.856157 
L 368.368034 61.181042 
L 368.611586 62.472042 
L 369.342241 67.614702 
L 369.666977 68.241122 
L 369.829345 68.259303 
L 370.072896 67.953135 
L 370.397632 66.950358 
L 371.128288 64.161654 
L 371.290655 64.110889 
L 371.453023 64.454695 
L 371.858943 65.45228 
L 372.102495 65.852409 
L 372.346047 67.027231 
L 372.670782 68.369504 
L 372.83315 68.387763 
L 372.995518 68.035499 
L 373.320254 66.570161 
L 373.807357 63.03508 
L 374.538013 57.485863 
L 374.781564 56.894778 
L 374.862748 56.966584 
L 375.025116 57.561798 
L 375.349852 60.244039 
L 376.324059 69.998863 
L 376.486427 70.263824 
L 376.648795 69.902651 
L 376.892347 68.496948 
L 377.37945 64.053028 
L 378.19129 56.594404 
L 378.434841 56.014561 
L 378.597209 56.510684 
L 378.840761 58.555257 
L 379.327865 65.401518 
L 380.302072 79.884792 
L 380.383256 79.844562 
L 380.545624 78.961967 
L 380.951543 74.683685 
L 382.006934 63.074691 
L 382.250486 62.296754 
L 382.33167 62.315981 
L 382.575222 62.899869 
L 383.14351 64.707778 
L 384.117717 71.085738 
L 384.361268 71.338671 
L 384.523636 71.209747 
L 384.767188 70.531607 
L 385.091924 68.706928 
L 386.147315 61.476942 
L 386.309683 61.444686 
L 386.553235 62.047494 
L 386.87797 62.732514 
L 387.040338 63.047304 
L 387.28389 64.38907 
L 387.770994 67.39489 
L 387.933362 67.595037 
L 388.095729 67.40581 
L 388.339281 66.58286 
L 388.745201 64.058924 
L 389.800592 56.323482 
L 389.881776 56.253678 
L 390.044144 56.62015 
L 390.287696 58.432425 
L 390.774799 65.025804 
L 391.505455 75.258349 
L 391.667822 75.773033 
L 391.749006 75.668846 
L 391.992558 74.417377 
L 393.291501 65.555127 
L 393.372685 65.547269 
L 393.535053 65.89018 
L 393.940973 66.873154 
L 394.10334 67.127983 
L 394.346892 68.12112 
L 394.91518 71.0245 
L 395.077548 71.094646 
L 395.239915 70.752529 
L 395.483467 69.542064 
L 395.889387 66.052332 
L 396.863594 57.05703 
L 397.025962 56.643884 
L 397.107146 56.643491 
L 397.269514 57.030085 
L 397.594249 58.93002 
L 398.243721 63.904491 
L 398.487273 66.375041 
L 398.487273 66.375041 
" clip-path="url(#pefc4ca08a7)" style="fill: none; stroke: #1f77b4; stroke-width: 1.5; stroke-linecap: square"/>
   </g>
   <g id="line2d_17">
    <path d="M 252.419518 307.584 
L 252.419518 41.472 
" clip-path="url(#pefc4ca08a7)" style="fill: none; stroke-dasharray: 1.5,2.475; stroke-dashoffset: 0; stroke: #000000; stroke-width: 1.5"/>
   </g>
   <g id="line2d_18">
    <path d="M 106.303053 307.584 
L 106.303053 41.472 
" clip-path="url(#pefc4ca08a7)" style="fill: none; stroke-dasharray: 1.5,2.475; stroke-dashoffset: 0; stroke: #000000; stroke-width: 1.5"/>
   </g>
   <g id="line2d_19">
    <path d="M 106.303053 288.390072 
L 252.338342 70.330605 
L 252.338342 70.330605 
" clip-path="url(#pefc4ca08a7)" style="fill: none; stroke: #ff0000; stroke-width: 1.5; stroke-linecap: square"/>
   </g>
   <g id="patch_3">
    <path d="M 57.6 307.584 
L 57.6 41.472 
" style="fill: none; stroke: #000000; stroke-width: 0.8; stroke-linejoin: miter; stroke-linecap: square"/>
   </g>
   <g id="patch_4">
    <path d="M 414.72 307.584 
L 414.72 41.472 
" style="fill: none; stroke: #000000; stroke-width: 0.8; stroke-linejoin: miter; stroke-linecap: square"/>
   </g>
   <g id="patch_5">
    <path d="M 57.6 307.584 
L 414.72 307.584 
" style="fill: none; stroke: #000000; stroke-width: 0.8; stroke-linejoin: miter; stroke-linecap: square"/>
   </g>
   <g id="patch_6">
    <path d="M 57.6 41.472 
L 414.72 41.472 
" style="fill: none; stroke: #000000; stroke-width: 0.8; stroke-linejoin: miter; stroke-linecap: square"/>
   </g>
   <g id="text_18">
    <!-- $\sigma = 16$, $\rho = 45.92$, $\beta = 4$ -->
    <g transform="translate(166.44 35.472) scale(0.12 -0.12)">
     <defs>
      <path id="DejaVuSans-Oblique-3c3" d="M 2219 3044 
Q 1744 3044 1422 2700 
Q 1081 2341 969 1747 
Q 844 1119 1044 756 
Q 1241 397 1706 397 
Q 2166 397 2503 759 
Q 2844 1122 2966 1747 
Q 3075 2319 2881 2700 
Q 2700 3044 2219 3044 
z
M 2309 3503 
L 4219 3500 
L 4106 2925 
L 3463 2925 
Q 3706 2438 3575 1747 
Q 3406 888 2884 400 
Q 2359 -91 1609 -91 
Q 856 -91 525 400 
Q 194 888 363 1747 
Q 528 2609 1050 3097 
Q 1484 3503 2309 3503 
z
" transform="scale(0.015625)"/>
      <path id="DejaVuSans-3d" d="M 678 2906 
L 4684 2906 
L 4684 2381 
L 678 2381 
L 678 2906 
z
M 678 1631 
L 4684 1631 
L 4684 1100 
L 678 1100 
L 678 1631 
z
" transform="scale(0.015625)"/>
      <path id="DejaVuSans-36" d="M 2113 2584 
Q 1688 2584 1439 2293 
Q 1191 2003 1191 1497 
Q 1191 994 1439 701 
Q 1688 409 2113 409 
Q 2538 409 2786 701 
Q 3034 994 3034 1497 
Q 3034 2003 2786 2293 
Q 2538 2584 2113 2584 
z
M 3366 4563 
L 3366 3988 
Q 3128 4100 2886 4159 
Q 2644 4219 2406 4219 
Q 1781 4219 1451 3797 
Q 1122 3375 1075 2522 
Q 1259 2794 1537 2939 
Q 1816 3084 2150 3084 
Q 2853 3084 3261 2657 
Q 3669 2231 3669 1497 
Q 3669 778 3244 343 
Q 2819 -91 2113 -91 
Q 1303 -91 875 529 
Q 447 1150 447 2328 
Q 447 3434 972 4092 
Q 1497 4750 2381 4750 
Q 2619 4750 2861 4703 
Q 3103 4656 3366 4563 
z
" transform="scale(0.015625)"/>
      <path id="DejaVuSans-Oblique-3c1" d="M 1203 2875 
Q 1453 3194 1981 3475 
Q 2188 3584 2756 3584 
Q 3394 3584 3694 3078 
Q 3994 2572 3834 1747 
Q 3672 922 3175 415 
Q 2678 -91 2041 -91 
Q 1656 -91 1409 63 
Q 1163 213 1044 525 
L 681 -1331 
L 103 -1331 
L 697 1716 
Q 838 2438 1203 2875 
z
M 3238 1747 
Q 3359 2381 3169 2744 
Q 2978 3103 2522 3103 
Q 2066 3103 1734 2744 
Q 1403 2381 1281 1747 
Q 1156 1113 1347 750 
Q 1538 391 1994 391 
Q 2450 391 2781 750 
Q 3113 1113 3238 1747 
z
" transform="scale(0.015625)"/>
      <path id="DejaVuSans-2e" d="M 684 794 
L 1344 794 
L 1344 0 
L 684 0 
L 684 794 
z
" transform="scale(0.015625)"/>
      <path id="DejaVuSans-Oblique-3b2" d="M 872 216 
L 572 -1331 
L -6 -1331 
L 928 3478 
Q 1206 4903 2538 4903 
Q 3888 4903 3659 3700 
Q 3503 2844 2894 2531 
Q 3713 2250 3553 1416 
Q 3272 -69 1759 -66 
Q 1097 -63 872 216 
z
M 1019 966 
Q 1259 422 1875 425 
Q 2775 425 2966 1406 
Q 3138 2288 1675 2219 
L 1778 2750 
Q 2909 2731 3106 3750 
Q 3241 4438 2509 4434 
Q 1691 4434 1503 3459 
L 1019 966 
z
" transform="scale(0.015625)"/>
     </defs>
     <use xlink:href="#DejaVuSans-Oblique-3c3" transform="translate(0 0.390625)"/>
     <use xlink:href="#DejaVuSans-3d" transform="translate(82.861328 0.390625)"/>
     <use xlink:href="#DejaVuSans-31" transform="translate(186.132812 0.390625)"/>
     <use xlink:href="#DejaVuSans-36" transform="translate(249.755859 0.390625)"/>
     <use xlink:href="#DejaVuSans-2c" transform="translate(313.378906 0.390625)"/>
     <use xlink:href="#DejaVuSans-20" transform="translate(345.166016 0.390625)"/>
     <use xlink:href="#DejaVuSans-Oblique-3c1" transform="translate(376.953125 0.390625)"/>
     <use xlink:href="#DejaVuSans-3d" transform="translate(459.912109 0.390625)"/>
     <use xlink:href="#DejaVuSans-34" transform="translate(563.183594 0.390625)"/>
     <use xlink:href="#DejaVuSans-35" transform="translate(626.806641 0.390625)"/>
     <use xlink:href="#DejaVuSans-2e" transform="translate(690.429688 0.390625)"/>
     <use xlink:href="#DejaVuSans-39" transform="translate(722.216797 0.390625)"/>
     <use xlink:href="#DejaVuSans-32" transform="translate(784.089844 0.390625)"/>
     <use xlink:href="#DejaVuSans-2c" transform="translate(847.712891 0.390625)"/>
     <use xlink:href="#DejaVuSans-20" transform="translate(879.5 0.390625)"/>
     <use xlink:href="#DejaVuSans-Oblique-3b2" transform="translate(911.287109 0.390625)"/>
     <use xlink:href="#DejaVuSans-3d" transform="translate(994.587891 0.390625)"/>
     <use xlink:href="#DejaVuSans-34" transform="translate(1097.859375 0.390625)"/>
    </g>
   </g>
   <g id="legend_1">
    <g id="patch_7">
     <path d="M 274.90125 302.584 
L 407.72 302.584 
Q 409.72 302.584 409.72 300.584 
L 409.72 261.008062 
Q 409.72 259.008062 407.72 259.008062 
L 274.90125 259.008062 
Q 272.90125 259.008062 272.90125 261.008062 
L 272.90125 300.584 
Q 272.90125 302.584 274.90125 302.584 
z
" style="fill: #ffffff; opacity: 0.8; stroke: #cccccc; stroke-linejoin: miter"/>
    </g>
    <g id="line2d_20">
     <path d="M 276.90125 273.74525 
L 286.90125 273.74525 
L 296.90125 273.74525 
" style="fill: none; stroke: #1f77b4; stroke-width: 1.5; stroke-linecap: square"/>
    </g>
    <g id="text_19">
     <!-- Seperation between -->
     <g transform="translate(304.90125 270.6065) scale(0.1 -0.1)">
      <defs>
       <path id="DejaVuSans-62" d="M 3116 1747 
Q 3116 2381 2855 2742 
Q 2594 3103 2138 3103 
Q 1681 3103 1420 2742 
Q 1159 2381 1159 1747 
Q 1159 1113 1420 752 
Q 1681 391 2138 391 
Q 2594 391 2855 752 
Q 3116 1113 3116 1747 
z
M 1159 2969 
Q 1341 3281 1617 3432 
Q 1894 3584 2278 3584 
Q 2916 3584 3314 3078 
Q 3713 2572 3713 1747 
Q 3713 922 3314 415 
Q 2916 -91 2278 -91 
Q 1894 -91 1617 61 
Q 1341 213 1159 525 
L 1159 0 
L 581 0 
L 581 4863 
L 1159 4863 
L 1159 2969 
z
" transform="scale(0.015625)"/>
       <path id="DejaVuSans-77" d="M 269 3500 
L 844 3500 
L 1563 769 
L 2278 3500 
L 2956 3500 
L 3675 769 
L 4391 3500 
L 4966 3500 
L 4050 0 
L 3372 0 
L 2619 2869 
L 1863 0 
L 1184 0 
L 269 3500 
z
" transform="scale(0.015625)"/>
      </defs>
      <use xlink:href="#DejaVuSans-53"/>
      <use xlink:href="#DejaVuSans-65" x="63.476562"/>
      <use xlink:href="#DejaVuSans-70" x="125"/>
      <use xlink:href="#DejaVuSans-65" x="188.476562"/>
      <use xlink:href="#DejaVuSans-72" x="250"/>
      <use xlink:href="#DejaVuSans-61" x="291.113281"/>
      <use xlink:href="#DejaVuSans-74" x="352.392578"/>
      <use xlink:href="#DejaVuSans-69" x="391.601562"/>
      <use xlink:href="#DejaVuSans-6f" x="419.384766"/>
      <use xlink:href="#DejaVuSans-6e" x="480.566406"/>
      <use xlink:href="#DejaVuSans-20" x="543.945312"/>
      <use xlink:href="#DejaVuSans-62" x="575.732422"/>
      <use xlink:href="#DejaVuSans-65" x="639.208984"/>
      <use xlink:href="#DejaVuSans-74" x="700.732422"/>
      <use xlink:href="#DejaVuSans-77" x="739.941406"/>
      <use xlink:href="#DejaVuSans-65" x="821.728516"/>
      <use xlink:href="#DejaVuSans-65" x="883.251953"/>
      <use xlink:href="#DejaVuSans-6e" x="944.775391"/>
     </g>
     <!-- two trajectories -->
     <g transform="translate(304.90125 281.804312) scale(0.1 -0.1)">
      <defs>
       <path id="DejaVuSans-6a" d="M 603 3500 
L 1178 3500 
L 1178 -63 
Q 1178 -731 923 -1031 
Q 669 -1331 103 -1331 
L -116 -1331 
L -116 -844 
L 38 -844 
Q 366 -844 484 -692 
Q 603 -541 603 -63 
L 603 3500 
z
M 603 4863 
L 1178 4863 
L 1178 4134 
L 603 4134 
L 603 4863 
z
" transform="scale(0.015625)"/>
       <path id="DejaVuSans-63" d="M 3122 3366 
L 3122 2828 
Q 2878 2963 2633 3030 
Q 2388 3097 2138 3097 
Q 1578 3097 1268 2742 
Q 959 2388 959 1747 
Q 959 1106 1268 751 
Q 1578 397 2138 397 
Q 2388 397 2633 464 
Q 2878 531 3122 666 
L 3122 134 
Q 2881 22 2623 -34 
Q 2366 -91 2075 -91 
Q 1284 -91 818 406 
Q 353 903 353 1747 
Q 353 2603 823 3093 
Q 1294 3584 2113 3584 
Q 2378 3584 2631 3529 
Q 2884 3475 3122 3366 
z
" transform="scale(0.015625)"/>
       <path id="DejaVuSans-73" d="M 2834 3397 
L 2834 2853 
Q 2591 2978 2328 3040 
Q 2066 3103 1784 3103 
Q 1356 3103 1142 2972 
Q 928 2841 928 2578 
Q 928 2378 1081 2264 
Q 1234 2150 1697 2047 
L 1894 2003 
Q 2506 1872 2764 1633 
Q 3022 1394 3022 966 
Q 3022 478 2636 193 
Q 2250 -91 1575 -91 
Q 1294 -91 989 -36 
Q 684 19 347 128 
L 347 722 
Q 666 556 975 473 
Q 1284 391 1588 391 
Q 1994 391 2212 530 
Q 2431 669 2431 922 
Q 2431 1156 2273 1281 
Q 2116 1406 1581 1522 
L 1381 1569 
Q 847 1681 609 1914 
Q 372 2147 372 2553 
Q 372 3047 722 3315 
Q 1072 3584 1716 3584 
Q 2034 3584 2315 3537 
Q 2597 3491 2834 3397 
z
" transform="scale(0.015625)"/>
      </defs>
      <use xlink:href="#DejaVuSans-74"/>
      <use xlink:href="#DejaVuSans-77" x="39.208984"/>
      <use xlink:href="#DejaVuSans-6f" x="120.996094"/>
      <use xlink:href="#DejaVuSans-20" x="182.177734"/>
      <use xlink:href="#DejaVuSans-74" x="213.964844"/>
      <use xlink:href="#DejaVuSans-72" x="253.173828"/>
      <use xlink:href="#DejaVuSans-61" x="294.287109"/>
      <use xlink:href="#DejaVuSans-6a" x="355.566406"/>
      <use xlink:href="#DejaVuSans-65" x="383.349609"/>
      <use xlink:href="#DejaVuSans-63" x="444.873047"/>
      <use xlink:href="#DejaVuSans-74" x="499.853516"/>
      <use xlink:href="#DejaVuSans-6f" x="539.0625"/>
      <use xlink:href="#DejaVuSans-72" x="600.244141"/>
      <use xlink:href="#DejaVuSans-69" x="641.357422"/>
      <use xlink:href="#DejaVuSans-65" x="669.140625"/>
      <use xlink:href="#DejaVuSans-73" x="730.664062"/>
     </g>
    </g>
    <g id="line2d_21">
     <path d="M 276.90125 292.984 
L 286.90125 292.984 
L 296.90125 292.984 
" style="fill: none; stroke: #ff0000; stroke-width: 1.5; stroke-linecap: square"/>
    </g>
    <g id="text_20">
     <!-- $\exp(1.42 t -28.6)$ -->
     <g transform="translate(304.90125 296.484) scale(0.1 -0.1)">
      <defs>
       <path id="DejaVuSans-78" d="M 3513 3500 
L 2247 1797 
L 3578 0 
L 2900 0 
L 1881 1375 
L 863 0 
L 184 0 
L 1544 1831 
L 300 3500 
L 978 3500 
L 1906 2253 
L 2834 3500 
L 3513 3500 
z
" transform="scale(0.015625)"/>
       <path id="DejaVuSans-28" d="M 1984 4856 
Q 1566 4138 1362 3434 
Q 1159 2731 1159 2009 
Q 1159 1288 1364 580 
Q 1569 -128 1984 -844 
L 1484 -844 
Q 1016 -109 783 600 
Q 550 1309 550 2009 
Q 550 2706 781 3412 
Q 1013 4119 1484 4856 
L 1984 4856 
z
" transform="scale(0.015625)"/>
       <path id="DejaVuSans-38" d="M 2034 2216 
Q 1584 2216 1326 1975 
Q 1069 1734 1069 1313 
Q 1069 891 1326 650 
Q 1584 409 2034 409 
Q 2484 409 2743 651 
Q 3003 894 3003 1313 
Q 3003 1734 2745 1975 
Q 2488 2216 2034 2216 
z
M 1403 2484 
Q 997 2584 770 2862 
Q 544 3141 544 3541 
Q 544 4100 942 4425 
Q 1341 4750 2034 4750 
Q 2731 4750 3128 4425 
Q 3525 4100 3525 3541 
Q 3525 3141 3298 2862 
Q 3072 2584 2669 2484 
Q 3125 2378 3379 2068 
Q 3634 1759 3634 1313 
Q 3634 634 3220 271 
Q 2806 -91 2034 -91 
Q 1263 -91 848 271 
Q 434 634 434 1313 
Q 434 1759 690 2068 
Q 947 2378 1403 2484 
z
M 1172 3481 
Q 1172 3119 1398 2916 
Q 1625 2713 2034 2713 
Q 2441 2713 2670 2916 
Q 2900 3119 2900 3481 
Q 2900 3844 2670 4047 
Q 2441 4250 2034 4250 
Q 1625 4250 1398 4047 
Q 1172 3844 1172 3481 
z
" transform="scale(0.015625)"/>
       <path id="DejaVuSans-29" d="M 513 4856 
L 1013 4856 
Q 1481 4119 1714 3412 
Q 1947 2706 1947 2009 
Q 1947 1309 1714 600 
Q 1481 -109 1013 -844 
L 513 -844 
Q 928 -128 1133 580 
Q 1338 1288 1338 2009 
Q 1338 2731 1133 3434 
Q 928 4138 513 4856 
z
" transform="scale(0.015625)"/>
      </defs>
      <use xlink:href="#DejaVuSans-65" transform="translate(0 0.125)"/>
      <use xlink:href="#DejaVuSans-78" transform="translate(61.523438 0.125)"/>
      <use xlink:href="#DejaVuSans-70" transform="translate(120.703125 0.125)"/>
      <use xlink:href="#DejaVuSans-28" transform="translate(184.179688 0.125)"/>
      <use xlink:href="#DejaVuSans-31" transform="translate(223.193359 0.125)"/>
      <use xlink:href="#DejaVuSans-2e" transform="translate(286.816406 0.125)"/>
      <use xlink:href="#DejaVuSans-34" transform="translate(318.603516 0.125)"/>
      <use xlink:href="#DejaVuSans-32" transform="translate(382.226562 0.125)"/>
      <use xlink:href="#DejaVuSans-Oblique-74" transform="translate(445.849609 0.125)"/>
      <use xlink:href="#DejaVuSans-2212" transform="translate(504.541016 0.125)"/>
      <use xlink:href="#DejaVuSans-32" transform="translate(607.8125 0.125)"/>
      <use xlink:href="#DejaVuSans-38" transform="translate(671.435547 0.125)"/>
      <use xlink:href="#DejaVuSans-2e" transform="translate(735.058594 0.125)"/>
      <use xlink:href="#DejaVuSans-36" transform="translate(766.845703 0.125)"/>
      <use xlink:href="#DejaVuSans-29" transform="translate(830.46875 0.125)"/>
     </g>
    </g>
   </g>
  </g>
 </g>
 <defs>
  <clipPath id="pefc4ca08a7">
   <rect x="57.6" y="41.472" width="357.12" height="266.112"/>
  </clipPath>
 </defs>
</svg>
