<?xml version="1.0" encoding="utf-8" standalone="no"?>
<!DOCTYPE svg PUBLIC "-//W3C//DTD SVG 1.1//EN"
  "http://www.w3.org/Graphics/SVG/1.1/DTD/svg11.dtd">
<svg xmlns:xlink="http://www.w3.org/1999/xlink" width="460.8pt" height="345.6pt" viewBox="0 0 460.8 345.6" xmlns="http://www.w3.org/2000/svg" version="1.1">
 <metadata>
  <rdf:RDF xmlns:dc="http://purl.org/dc/elements/1.1/" xmlns:cc="http://creativecommons.org/ns#" xmlns:rdf="http://www.w3.org/1999/02/22-rdf-syntax-ns#">
   <cc:Work>
    <dc:type rdf:resource="http://purl.org/dc/dcmitype/StillImage"/>
    <dc:date>2024-01-03T16:15:54.087489</dc:date>
    <dc:format>image/svg+xml</dc:format>
    <dc:creator>
     <cc:Agent>
      <dc:title>Matplotlib v3.8.2, https://matplotlib.org/</dc:title>
     </cc:Agent>
    </dc:creator>
   </cc:Work>
  </rdf:RDF>
 </metadata>
 <defs>
  <style type="text/css">*{stroke-linejoin: round; stroke-linecap: butt}</style>
 </defs>
 <g id="figure_1">
  <g id="patch_1">
   <path d="M 0 345.6 
L 460.8 345.6 
L 460.8 0 
L 0 0 
z
" style="fill: #ffffff"/>
  </g>
  <g id="axes_1">
   <g id="patch_2">
    <path d="M 57.6 307.584 
L 414.72 307.584 
L 414.72 41.472 
L 57.6 41.472 
z
" style="fill: #ffffff"/>
   </g>
   <g id="matplotlib.axis_1">
    <g id="xtick_1">
     <g id="line2d_1">
      <defs>
       <path id="mc26d2be659" d="M 0 0 
L 0 3.5 
" style="stroke: #000000; stroke-width: 0.8"/>
      </defs>
      <g>
       <use xlink:href="#mc26d2be659" x="73.832727" y="307.584" style="stroke: #000000; stroke-width: 0.8"/>
      </g>
     </g>
     <g id="text_1">
      <!-- 0 -->
      <g transform="translate(70.651477 322.182437) scale(0.1 -0.1)">
       <defs>
        <path id="DejaVuSans-30" d="M 2034 4250 
Q 1547 4250 1301 3770 
Q 1056 3291 1056 2328 
Q 1056 1369 1301 889 
Q 1547 409 2034 409 
Q 2525 409 2770 889 
Q 3016 1369 3016 2328 
Q 3016 3291 2770 3770 
Q 2525 4250 2034 4250 
z
M 2034 4750 
Q 2819 4750 3233 4129 
Q 3647 3509 3647 2328 
Q 3647 1150 3233 529 
Q 2819 -91 2034 -91 
Q 1250 -91 836 529 
Q 422 1150 422 2328 
Q 422 3509 836 4129 
Q 1250 4750 2034 4750 
z
" transform="scale(0.015625)"/>
       </defs>
       <use xlink:href="#DejaVuSans-30"/>
      </g>
     </g>
    </g>
    <g id="xtick_2">
     <g id="line2d_2">
      <g>
       <use xlink:href="#mc26d2be659" x="114.41556" y="307.584" style="stroke: #000000; stroke-width: 0.8"/>
      </g>
     </g>
     <g id="text_2">
      <!-- 10 -->
      <g transform="translate(108.05306 322.182437) scale(0.1 -0.1)">
       <defs>
        <path id="DejaVuSans-31" d="M 794 531 
L 1825 531 
L 1825 4091 
L 703 3866 
L 703 4441 
L 1819 4666 
L 2450 4666 
L 2450 531 
L 3481 531 
L 3481 0 
L 794 0 
L 794 531 
z
" transform="scale(0.015625)"/>
       </defs>
       <use xlink:href="#DejaVuSans-31"/>
       <use xlink:href="#DejaVuSans-30" x="63.623047"/>
      </g>
     </g>
    </g>
    <g id="xtick_3">
     <g id="line2d_3">
      <g>
       <use xlink:href="#mc26d2be659" x="154.998393" y="307.584" style="stroke: #000000; stroke-width: 0.8"/>
      </g>
     </g>
     <g id="text_3">
      <!-- 20 -->
      <g transform="translate(148.635893 322.182437) scale(0.1 -0.1)">
       <defs>
        <path id="DejaVuSans-32" d="M 1228 531 
L 3431 531 
L 3431 0 
L 469 0 
L 469 531 
Q 828 903 1448 1529 
Q 2069 2156 2228 2338 
Q 2531 2678 2651 2914 
Q 2772 3150 2772 3378 
Q 2772 3750 2511 3984 
Q 2250 4219 1831 4219 
Q 1534 4219 1204 4116 
Q 875 4013 500 3803 
L 500 4441 
Q 881 4594 1212 4672 
Q 1544 4750 1819 4750 
Q 2544 4750 2975 4387 
Q 3406 4025 3406 3419 
Q 3406 3131 3298 2873 
Q 3191 2616 2906 2266 
Q 2828 2175 2409 1742 
Q 1991 1309 1228 531 
z
" transform="scale(0.015625)"/>
       </defs>
       <use xlink:href="#DejaVuSans-32"/>
       <use xlink:href="#DejaVuSans-30" x="63.623047"/>
      </g>
     </g>
    </g>
    <g id="xtick_4">
     <g id="line2d_4">
      <g>
       <use xlink:href="#mc26d2be659" x="195.581226" y="307.584" style="stroke: #000000; stroke-width: 0.8"/>
      </g>
     </g>
     <g id="text_4">
      <!-- 30 -->
      <g transform="translate(189.218726 322.182437) scale(0.1 -0.1)">
       <defs>
        <path id="DejaVuSans-33" d="M 2597 2516 
Q 3050 2419 3304 2112 
Q 3559 1806 3559 1356 
Q 3559 666 3084 287 
Q 2609 -91 1734 -91 
Q 1441 -91 1130 -33 
Q 819 25 488 141 
L 488 750 
Q 750 597 1062 519 
Q 1375 441 1716 441 
Q 2309 441 2620 675 
Q 2931 909 2931 1356 
Q 2931 1769 2642 2001 
Q 2353 2234 1838 2234 
L 1294 2234 
L 1294 2753 
L 1863 2753 
Q 2328 2753 2575 2939 
Q 2822 3125 2822 3475 
Q 2822 3834 2567 4026 
Q 2313 4219 1838 4219 
Q 1578 4219 1281 4162 
Q 984 4106 628 3988 
L 628 4550 
Q 988 4650 1302 4700 
Q 1616 4750 1894 4750 
Q 2613 4750 3031 4423 
Q 3450 4097 3450 3541 
Q 3450 3153 3228 2886 
Q 3006 2619 2597 2516 
z
" transform="scale(0.015625)"/>
       </defs>
       <use xlink:href="#DejaVuSans-33"/>
       <use xlink:href="#DejaVuSans-30" x="63.623047"/>
      </g>
     </g>
    </g>
    <g id="xtick_5">
     <g id="line2d_5">
      <g>
       <use xlink:href="#mc26d2be659" x="236.164059" y="307.584" style="stroke: #000000; stroke-width: 0.8"/>
      </g>
     </g>
     <g id="text_5">
      <!-- 40 -->
      <g transform="translate(229.801559 322.182437) scale(0.1 -0.1)">
       <defs>
        <path id="DejaVuSans-34" d="M 2419 4116 
L 825 1625 
L 2419 1625 
L 2419 4116 
z
M 2253 4666 
L 3047 4666 
L 3047 1625 
L 3713 1625 
L 3713 1100 
L 3047 1100 
L 3047 0 
L 2419 0 
L 2419 1100 
L 313 1100 
L 313 1709 
L 2253 4666 
z
" transform="scale(0.015625)"/>
       </defs>
       <use xlink:href="#DejaVuSans-34"/>
       <use xlink:href="#DejaVuSans-30" x="63.623047"/>
      </g>
     </g>
    </g>
    <g id="xtick_6">
     <g id="line2d_6">
      <g>
       <use xlink:href="#mc26d2be659" x="276.746892" y="307.584" style="stroke: #000000; stroke-width: 0.8"/>
      </g>
     </g>
     <g id="text_6">
      <!-- 50 -->
      <g transform="translate(270.384392 322.182437) scale(0.1 -0.1)">
       <defs>
        <path id="DejaVuSans-35" d="M 691 4666 
L 3169 4666 
L 3169 4134 
L 1269 4134 
L 1269 2991 
Q 1406 3038 1543 3061 
Q 1681 3084 1819 3084 
Q 2600 3084 3056 2656 
Q 3513 2228 3513 1497 
Q 3513 744 3044 326 
Q 2575 -91 1722 -91 
Q 1428 -91 1123 -41 
Q 819 9 494 109 
L 494 744 
Q 775 591 1075 516 
Q 1375 441 1709 441 
Q 2250 441 2565 725 
Q 2881 1009 2881 1497 
Q 2881 1984 2565 2268 
Q 2250 2553 1709 2553 
Q 1456 2553 1204 2497 
Q 953 2441 691 2322 
L 691 4666 
z
" transform="scale(0.015625)"/>
       </defs>
       <use xlink:href="#DejaVuSans-35"/>
       <use xlink:href="#DejaVuSans-30" x="63.623047"/>
      </g>
     </g>
    </g>
    <g id="xtick_7">
     <g id="line2d_7">
      <g>
       <use xlink:href="#mc26d2be659" x="317.329724" y="307.584" style="stroke: #000000; stroke-width: 0.8"/>
      </g>
     </g>
     <g id="text_7">
      <!-- 60 -->
      <g transform="translate(310.967224 322.182437) scale(0.1 -0.1)">
       <defs>
        <path id="DejaVuSans-36" d="M 2113 2584 
Q 1688 2584 1439 2293 
Q 1191 2003 1191 1497 
Q 1191 994 1439 701 
Q 1688 409 2113 409 
Q 2538 409 2786 701 
Q 3034 994 3034 1497 
Q 3034 2003 2786 2293 
Q 2538 2584 2113 2584 
z
M 3366 4563 
L 3366 3988 
Q 3128 4100 2886 4159 
Q 2644 4219 2406 4219 
Q 1781 4219 1451 3797 
Q 1122 3375 1075 2522 
Q 1259 2794 1537 2939 
Q 1816 3084 2150 3084 
Q 2853 3084 3261 2657 
Q 3669 2231 3669 1497 
Q 3669 778 3244 343 
Q 2819 -91 2113 -91 
Q 1303 -91 875 529 
Q 447 1150 447 2328 
Q 447 3434 972 4092 
Q 1497 4750 2381 4750 
Q 2619 4750 2861 4703 
Q 3103 4656 3366 4563 
z
" transform="scale(0.015625)"/>
       </defs>
       <use xlink:href="#DejaVuSans-36"/>
       <use xlink:href="#DejaVuSans-30" x="63.623047"/>
      </g>
     </g>
    </g>
    <g id="xtick_8">
     <g id="line2d_8">
      <g>
       <use xlink:href="#mc26d2be659" x="357.912557" y="307.584" style="stroke: #000000; stroke-width: 0.8"/>
      </g>
     </g>
     <g id="text_8">
      <!-- 70 -->
      <g transform="translate(351.550057 322.182437) scale(0.1 -0.1)">
       <defs>
        <path id="DejaVuSans-37" d="M 525 4666 
L 3525 4666 
L 3525 4397 
L 1831 0 
L 1172 0 
L 2766 4134 
L 525 4134 
L 525 4666 
z
" transform="scale(0.015625)"/>
       </defs>
       <use xlink:href="#DejaVuSans-37"/>
       <use xlink:href="#DejaVuSans-30" x="63.623047"/>
      </g>
     </g>
    </g>
    <g id="xtick_9">
     <g id="line2d_9">
      <g>
       <use xlink:href="#mc26d2be659" x="398.49539" y="307.584" style="stroke: #000000; stroke-width: 0.8"/>
      </g>
     </g>
     <g id="text_9">
      <!-- 80 -->
      <g transform="translate(392.13289 322.182437) scale(0.1 -0.1)">
       <defs>
        <path id="DejaVuSans-38" d="M 2034 2216 
Q 1584 2216 1326 1975 
Q 1069 1734 1069 1313 
Q 1069 891 1326 650 
Q 1584 409 2034 409 
Q 2484 409 2743 651 
Q 3003 894 3003 1313 
Q 3003 1734 2745 1975 
Q 2488 2216 2034 2216 
z
M 1403 2484 
Q 997 2584 770 2862 
Q 544 3141 544 3541 
Q 544 4100 942 4425 
Q 1341 4750 2034 4750 
Q 2731 4750 3128 4425 
Q 3525 4100 3525 3541 
Q 3525 3141 3298 2862 
Q 3072 2584 2669 2484 
Q 3125 2378 3379 2068 
Q 3634 1759 3634 1313 
Q 3634 634 3220 271 
Q 2806 -91 2034 -91 
Q 1263 -91 848 271 
Q 434 634 434 1313 
Q 434 1759 690 2068 
Q 947 2378 1403 2484 
z
M 1172 3481 
Q 1172 3119 1398 2916 
Q 1625 2713 2034 2713 
Q 2441 2713 2670 2916 
Q 2900 3119 2900 3481 
Q 2900 3844 2670 4047 
Q 2441 4250 2034 4250 
Q 1625 4250 1398 4047 
Q 1172 3844 1172 3481 
z
" transform="scale(0.015625)"/>
       </defs>
       <use xlink:href="#DejaVuSans-38"/>
       <use xlink:href="#DejaVuSans-30" x="63.623047"/>
      </g>
     </g>
    </g>
    <g id="text_10">
     <!-- Time, $t$ -->
     <g transform="translate(218.61 335.860562) scale(0.1 -0.1)">
      <defs>
       <path id="DejaVuSans-54" d="M -19 4666 
L 3928 4666 
L 3928 4134 
L 2272 4134 
L 2272 0 
L 1638 0 
L 1638 4134 
L -19 4134 
L -19 4666 
z
" transform="scale(0.015625)"/>
       <path id="DejaVuSans-69" d="M 603 3500 
L 1178 3500 
L 1178 0 
L 603 0 
L 603 3500 
z
M 603 4863 
L 1178 4863 
L 1178 4134 
L 603 4134 
L 603 4863 
z
" transform="scale(0.015625)"/>
       <path id="DejaVuSans-6d" d="M 3328 2828 
Q 3544 3216 3844 3400 
Q 4144 3584 4550 3584 
Q 5097 3584 5394 3201 
Q 5691 2819 5691 2113 
L 5691 0 
L 5113 0 
L 5113 2094 
Q 5113 2597 4934 2840 
Q 4756 3084 4391 3084 
Q 3944 3084 3684 2787 
Q 3425 2491 3425 1978 
L 3425 0 
L 2847 0 
L 2847 2094 
Q 2847 2600 2669 2842 
Q 2491 3084 2119 3084 
Q 1678 3084 1418 2786 
Q 1159 2488 1159 1978 
L 1159 0 
L 581 0 
L 581 3500 
L 1159 3500 
L 1159 2956 
Q 1356 3278 1631 3431 
Q 1906 3584 2284 3584 
Q 2666 3584 2933 3390 
Q 3200 3197 3328 2828 
z
" transform="scale(0.015625)"/>
       <path id="DejaVuSans-65" d="M 3597 1894 
L 3597 1613 
L 953 1613 
Q 991 1019 1311 708 
Q 1631 397 2203 397 
Q 2534 397 2845 478 
Q 3156 559 3463 722 
L 3463 178 
Q 3153 47 2828 -22 
Q 2503 -91 2169 -91 
Q 1331 -91 842 396 
Q 353 884 353 1716 
Q 353 2575 817 3079 
Q 1281 3584 2069 3584 
Q 2775 3584 3186 3129 
Q 3597 2675 3597 1894 
z
M 3022 2063 
Q 3016 2534 2758 2815 
Q 2500 3097 2075 3097 
Q 1594 3097 1305 2825 
Q 1016 2553 972 2059 
L 3022 2063 
z
" transform="scale(0.015625)"/>
       <path id="DejaVuSans-2c" d="M 750 794 
L 1409 794 
L 1409 256 
L 897 -744 
L 494 -744 
L 750 256 
L 750 794 
z
" transform="scale(0.015625)"/>
       <path id="DejaVuSans-20" transform="scale(0.015625)"/>
       <path id="DejaVuSans-Oblique-74" d="M 2706 3500 
L 2619 3053 
L 1472 3053 
L 1100 1153 
Q 1081 1047 1072 975 
Q 1063 903 1063 863 
Q 1063 663 1183 572 
Q 1303 481 1569 481 
L 2150 481 
L 2053 0 
L 1503 0 
Q 991 0 739 200 
Q 488 400 488 806 
Q 488 878 497 964 
Q 506 1050 525 1153 
L 897 3053 
L 409 3053 
L 500 3500 
L 978 3500 
L 1172 4494 
L 1747 4494 
L 1556 3500 
L 2706 3500 
z
" transform="scale(0.015625)"/>
      </defs>
      <use xlink:href="#DejaVuSans-54" transform="translate(0 0.015625)"/>
      <use xlink:href="#DejaVuSans-69" transform="translate(61.083984 0.015625)"/>
      <use xlink:href="#DejaVuSans-6d" transform="translate(88.867188 0.015625)"/>
      <use xlink:href="#DejaVuSans-65" transform="translate(186.279297 0.015625)"/>
      <use xlink:href="#DejaVuSans-2c" transform="translate(247.802734 0.015625)"/>
      <use xlink:href="#DejaVuSans-20" transform="translate(279.589844 0.015625)"/>
      <use xlink:href="#DejaVuSans-Oblique-74" transform="translate(311.376953 0.015625)"/>
     </g>
    </g>
   </g>
   <g id="matplotlib.axis_2">
    <g id="ytick_1">
     <g id="line2d_10">
      <defs>
       <path id="mdcb9b1161a" d="M 0 0 
L -3.5 0 
" style="stroke: #000000; stroke-width: 0.8"/>
      </defs>
      <g>
       <use xlink:href="#mdcb9b1161a" x="57.6" y="269.496659" style="stroke: #000000; stroke-width: 0.8"/>
      </g>
     </g>
     <g id="text_11">
      <!-- $\mathdefault{10^{-9}}$ -->
      <g transform="translate(27.1 273.295878) scale(0.1 -0.1)">
       <defs>
        <path id="DejaVuSans-2212" d="M 678 2272 
L 4684 2272 
L 4684 1741 
L 678 1741 
L 678 2272 
z
" transform="scale(0.015625)"/>
        <path id="DejaVuSans-39" d="M 703 97 
L 703 672 
Q 941 559 1184 500 
Q 1428 441 1663 441 
Q 2288 441 2617 861 
Q 2947 1281 2994 2138 
Q 2813 1869 2534 1725 
Q 2256 1581 1919 1581 
Q 1219 1581 811 2004 
Q 403 2428 403 3163 
Q 403 3881 828 4315 
Q 1253 4750 1959 4750 
Q 2769 4750 3195 4129 
Q 3622 3509 3622 2328 
Q 3622 1225 3098 567 
Q 2575 -91 1691 -91 
Q 1453 -91 1209 -44 
Q 966 3 703 97 
z
M 1959 2075 
Q 2384 2075 2632 2365 
Q 2881 2656 2881 3163 
Q 2881 3666 2632 3958 
Q 2384 4250 1959 4250 
Q 1534 4250 1286 3958 
Q 1038 3666 1038 3163 
Q 1038 2656 1286 2365 
Q 1534 2075 1959 2075 
z
" transform="scale(0.015625)"/>
       </defs>
       <use xlink:href="#DejaVuSans-31" transform="translate(0 0.765625)"/>
       <use xlink:href="#DejaVuSans-30" transform="translate(63.623047 0.765625)"/>
       <use xlink:href="#DejaVuSans-2212" transform="translate(128.203125 39.046875) scale(0.7)"/>
       <use xlink:href="#DejaVuSans-39" transform="translate(186.855469 39.046875) scale(0.7)"/>
      </g>
     </g>
    </g>
    <g id="ytick_2">
     <g id="line2d_11">
      <g>
       <use xlink:href="#mdcb9b1161a" x="57.6" y="229.152627" style="stroke: #000000; stroke-width: 0.8"/>
      </g>
     </g>
     <g id="text_12">
      <!-- $\mathdefault{10^{-7}}$ -->
      <g transform="translate(27.1 232.951846) scale(0.1 -0.1)">
       <use xlink:href="#DejaVuSans-31" transform="translate(0 0.684375)"/>
       <use xlink:href="#DejaVuSans-30" transform="translate(63.623047 0.684375)"/>
       <use xlink:href="#DejaVuSans-2212" transform="translate(128.203125 38.965625) scale(0.7)"/>
       <use xlink:href="#DejaVuSans-37" transform="translate(186.855469 38.965625) scale(0.7)"/>
      </g>
     </g>
    </g>
    <g id="ytick_3">
     <g id="line2d_12">
      <g>
       <use xlink:href="#mdcb9b1161a" x="57.6" y="188.808596" style="stroke: #000000; stroke-width: 0.8"/>
      </g>
     </g>
     <g id="text_13">
      <!-- $\mathdefault{10^{-5}}$ -->
      <g transform="translate(27.1 192.607815) scale(0.1 -0.1)">
       <use xlink:href="#DejaVuSans-31" transform="translate(0 0.684375)"/>
       <use xlink:href="#DejaVuSans-30" transform="translate(63.623047 0.684375)"/>
       <use xlink:href="#DejaVuSans-2212" transform="translate(128.203125 38.965625) scale(0.7)"/>
       <use xlink:href="#DejaVuSans-35" transform="translate(186.855469 38.965625) scale(0.7)"/>
      </g>
     </g>
    </g>
    <g id="ytick_4">
     <g id="line2d_13">
      <g>
       <use xlink:href="#mdcb9b1161a" x="57.6" y="148.464565" style="stroke: #000000; stroke-width: 0.8"/>
      </g>
     </g>
     <g id="text_14">
      <!-- $\mathdefault{10^{-3}}$ -->
      <g transform="translate(27.1 152.263784) scale(0.1 -0.1)">
       <use xlink:href="#DejaVuSans-31" transform="translate(0 0.765625)"/>
       <use xlink:href="#DejaVuSans-30" transform="translate(63.623047 0.765625)"/>
       <use xlink:href="#DejaVuSans-2212" transform="translate(128.203125 39.046875) scale(0.7)"/>
       <use xlink:href="#DejaVuSans-33" transform="translate(186.855469 39.046875) scale(0.7)"/>
      </g>
     </g>
    </g>
    <g id="ytick_5">
     <g id="line2d_14">
      <g>
       <use xlink:href="#mdcb9b1161a" x="57.6" y="108.120534" style="stroke: #000000; stroke-width: 0.8"/>
      </g>
     </g>
     <g id="text_15">
      <!-- $\mathdefault{10^{-1}}$ -->
      <g transform="translate(27.1 111.919752) scale(0.1 -0.1)">
       <use xlink:href="#DejaVuSans-31" transform="translate(0 0.684375)"/>
       <use xlink:href="#DejaVuSans-30" transform="translate(63.623047 0.684375)"/>
       <use xlink:href="#DejaVuSans-2212" transform="translate(128.203125 38.965625) scale(0.7)"/>
       <use xlink:href="#DejaVuSans-31" transform="translate(186.855469 38.965625) scale(0.7)"/>
      </g>
     </g>
    </g>
    <g id="ytick_6">
     <g id="line2d_15">
      <g>
       <use xlink:href="#mdcb9b1161a" x="57.6" y="67.776502" style="stroke: #000000; stroke-width: 0.8"/>
      </g>
     </g>
     <g id="text_16">
      <!-- $\mathdefault{10^{1}}$ -->
      <g transform="translate(33 71.575721) scale(0.1 -0.1)">
       <use xlink:href="#DejaVuSans-31" transform="translate(0 0.684375)"/>
       <use xlink:href="#DejaVuSans-30" transform="translate(63.623047 0.684375)"/>
       <use xlink:href="#DejaVuSans-31" transform="translate(128.203125 38.965625) scale(0.7)"/>
      </g>
     </g>
    </g>
    <g id="text_17">
     <!-- Seperation -->
     <g transform="translate(21.020312 201.726438) rotate(-90) scale(0.1 -0.1)">
      <defs>
       <path id="DejaVuSans-53" d="M 3425 4513 
L 3425 3897 
Q 3066 4069 2747 4153 
Q 2428 4238 2131 4238 
Q 1616 4238 1336 4038 
Q 1056 3838 1056 3469 
Q 1056 3159 1242 3001 
Q 1428 2844 1947 2747 
L 2328 2669 
Q 3034 2534 3370 2195 
Q 3706 1856 3706 1288 
Q 3706 609 3251 259 
Q 2797 -91 1919 -91 
Q 1588 -91 1214 -16 
Q 841 59 441 206 
L 441 856 
Q 825 641 1194 531 
Q 1563 422 1919 422 
Q 2459 422 2753 634 
Q 3047 847 3047 1241 
Q 3047 1584 2836 1778 
Q 2625 1972 2144 2069 
L 1759 2144 
Q 1053 2284 737 2584 
Q 422 2884 422 3419 
Q 422 4038 858 4394 
Q 1294 4750 2059 4750 
Q 2388 4750 2728 4690 
Q 3069 4631 3425 4513 
z
" transform="scale(0.015625)"/>
       <path id="DejaVuSans-70" d="M 1159 525 
L 1159 -1331 
L 581 -1331 
L 581 3500 
L 1159 3500 
L 1159 2969 
Q 1341 3281 1617 3432 
Q 1894 3584 2278 3584 
Q 2916 3584 3314 3078 
Q 3713 2572 3713 1747 
Q 3713 922 3314 415 
Q 2916 -91 2278 -91 
Q 1894 -91 1617 61 
Q 1341 213 1159 525 
z
M 3116 1747 
Q 3116 2381 2855 2742 
Q 2594 3103 2138 3103 
Q 1681 3103 1420 2742 
Q 1159 2381 1159 1747 
Q 1159 1113 1420 752 
Q 1681 391 2138 391 
Q 2594 391 2855 752 
Q 3116 1113 3116 1747 
z
" transform="scale(0.015625)"/>
       <path id="DejaVuSans-72" d="M 2631 2963 
Q 2534 3019 2420 3045 
Q 2306 3072 2169 3072 
Q 1681 3072 1420 2755 
Q 1159 2438 1159 1844 
L 1159 0 
L 581 0 
L 581 3500 
L 1159 3500 
L 1159 2956 
Q 1341 3275 1631 3429 
Q 1922 3584 2338 3584 
Q 2397 3584 2469 3576 
Q 2541 3569 2628 3553 
L 2631 2963 
z
" transform="scale(0.015625)"/>
       <path id="DejaVuSans-61" d="M 2194 1759 
Q 1497 1759 1228 1600 
Q 959 1441 959 1056 
Q 959 750 1161 570 
Q 1363 391 1709 391 
Q 2188 391 2477 730 
Q 2766 1069 2766 1631 
L 2766 1759 
L 2194 1759 
z
M 3341 1997 
L 3341 0 
L 2766 0 
L 2766 531 
Q 2569 213 2275 61 
Q 1981 -91 1556 -91 
Q 1019 -91 701 211 
Q 384 513 384 1019 
Q 384 1609 779 1909 
Q 1175 2209 1959 2209 
L 2766 2209 
L 2766 2266 
Q 2766 2663 2505 2880 
Q 2244 3097 1772 3097 
Q 1472 3097 1187 3025 
Q 903 2953 641 2809 
L 641 3341 
Q 956 3463 1253 3523 
Q 1550 3584 1831 3584 
Q 2591 3584 2966 3190 
Q 3341 2797 3341 1997 
z
" transform="scale(0.015625)"/>
       <path id="DejaVuSans-74" d="M 1172 4494 
L 1172 3500 
L 2356 3500 
L 2356 3053 
L 1172 3053 
L 1172 1153 
Q 1172 725 1289 603 
Q 1406 481 1766 481 
L 2356 481 
L 2356 0 
L 1766 0 
Q 1100 0 847 248 
Q 594 497 594 1153 
L 594 3053 
L 172 3053 
L 172 3500 
L 594 3500 
L 594 4494 
L 1172 4494 
z
" transform="scale(0.015625)"/>
       <path id="DejaVuSans-6f" d="M 1959 3097 
Q 1497 3097 1228 2736 
Q 959 2375 959 1747 
Q 959 1119 1226 758 
Q 1494 397 1959 397 
Q 2419 397 2687 759 
Q 2956 1122 2956 1747 
Q 2956 2369 2687 2733 
Q 2419 3097 1959 3097 
z
M 1959 3584 
Q 2709 3584 3137 3096 
Q 3566 2609 3566 1747 
Q 3566 888 3137 398 
Q 2709 -91 1959 -91 
Q 1206 -91 779 398 
Q 353 888 353 1747 
Q 353 2609 779 3096 
Q 1206 3584 1959 3584 
z
" transform="scale(0.015625)"/>
       <path id="DejaVuSans-6e" d="M 3513 2113 
L 3513 0 
L 2938 0 
L 2938 2094 
Q 2938 2591 2744 2837 
Q 2550 3084 2163 3084 
Q 1697 3084 1428 2787 
Q 1159 2491 1159 1978 
L 1159 0 
L 581 0 
L 581 3500 
L 1159 3500 
L 1159 2956 
Q 1366 3272 1645 3428 
Q 1925 3584 2291 3584 
Q 2894 3584 3203 3211 
Q 3513 2838 3513 2113 
z
" transform="scale(0.015625)"/>
      </defs>
      <use xlink:href="#DejaVuSans-53"/>
      <use xlink:href="#DejaVuSans-65" x="63.476562"/>
      <use xlink:href="#DejaVuSans-70" x="125"/>
      <use xlink:href="#DejaVuSans-65" x="188.476562"/>
      <use xlink:href="#DejaVuSans-72" x="250"/>
      <use xlink:href="#DejaVuSans-61" x="291.113281"/>
      <use xlink:href="#DejaVuSans-74" x="352.392578"/>
      <use xlink:href="#DejaVuSans-69" x="391.601562"/>
      <use xlink:href="#DejaVuSans-6f" x="419.384766"/>
      <use xlink:href="#DejaVuSans-6e" x="480.566406"/>
     </g>
    </g>
   </g>
   <g id="line2d_16">
    <path d="M 73.832727 289.668674 
L 74.482118 292.763976 
L 74.563291 292.518928 
L 74.725639 290.343071 
L 75.212682 282.930183 
L 75.415616 283.574791 
L 75.659137 286.587439 
L 76.186767 293.886698 
L 76.308528 294.036691 
L 76.470875 293.774507 
L 76.714397 293.439301 
L 76.836157 293.548517 
L 77.039092 294.222369 
L 77.363787 295.200972 
L 77.485548 294.930267 
L 77.85083 293.703294 
L 77.97259 293.848581 
L 78.175525 294.628095 
L 78.459633 295.488 
L 78.581394 295.276653 
L 78.865502 293.879879 
L 79.190197 292.648519 
L 79.352545 292.582442 
L 79.474305 292.786139 
L 79.920761 294.324095 
L 80.001935 294.17414 
L 80.407804 292.867367 
L 80.488977 292.96323 
L 80.732499 293.780954 
L 80.97602 294.864536 
L 81.016607 294.852567 
L 81.219542 294.200933 
L 81.868932 291.609474 
L 82.031279 291.801049 
L 82.234214 292.483438 
L 82.518322 293.235452 
L 82.558909 293.217534 
L 82.761843 292.593349 
L 83.005365 292.103468 
L 83.127125 292.338988 
L 83.411234 293.594291 
L 83.573581 294.206402 
L 83.614168 294.133205 
L 84.182385 291.049876 
L 84.385319 290.378554 
L 84.547667 290.60459 
L 84.750601 291.008528 
L 84.912949 291.447364 
L 85.034709 291.64535 
L 85.197057 291.936803 
L 85.562339 291.257983 
L 85.602926 291.300119 
L 85.846447 291.716455 
L 86.130555 293.485493 
L 86.211729 293.171824 
L 86.455251 291.559244 
L 86.779946 289.408977 
L 86.942293 288.394537 
L 87.023467 288.595452 
L 87.348162 289.671526 
L 87.469923 290.297203 
L 87.51051 290.147107 
L 87.672857 289.49674 
L 87.875792 290.290056 
L 87.916379 290.135972 
L 87.997552 289.898228 
L 88.038139 289.980759 
L 88.281661 291.172501 
L 88.322248 291.115155 
L 88.484595 290.507092 
L 88.525182 290.570701 
L 88.68753 291.60328 
L 88.80929 292.199107 
L 88.849877 292.066305 
L 89.215159 289.846446 
L 89.621028 287.664301 
L 89.661615 287.833308 
L 90.148658 292.535443 
L 90.189245 291.808088 
L 90.473353 286.258227 
L 90.554527 286.620462 
L 90.595113 286.954214 
L 90.6357 286.794287 
L 90.716874 286.601619 
L 90.757461 286.676746 
L 90.919809 288.015586 
L 91.041569 288.658794 
L 91.082156 288.487308 
L 91.122743 288.666182 
L 91.447438 289.737453 
L 91.528612 289.458377 
L 92.218589 285.155622 
L 92.34035 284.760166 
L 92.380937 284.816024 
L 92.543284 285.852512 
L 92.746219 287.340495 
L 92.827393 287.026524 
L 93.111501 284.471109 
L 93.152088 284.527837 
L 93.273848 284.279604 
L 93.314435 284.31211 
L 93.436196 284.874377 
L 93.760891 286.442168 
L 94.004412 287.398414 
L 94.044999 287.386065 
L 94.247934 286.636082 
L 94.491455 284.814654 
L 94.856737 282.319857 
L 94.937911 282.280855 
L 95.100258 282.975251 
L 95.303193 284.19262 
L 95.384367 283.968619 
L 95.709062 282.1571 
L 95.830822 281.978087 
L 95.871409 282.015532 
L 96.033757 282.642238 
L 96.64256 285.075133 
L 96.764321 284.811251 
L 96.967255 283.414751 
L 97.413711 280.05895 
L 97.494885 280.111941 
L 97.738406 280.926768 
L 97.860167 281.808593 
L 97.900754 281.784347 
L 98.063102 280.388693 
L 98.184862 279.731963 
L 98.225449 279.751477 
L 98.428384 279.576869 
L 98.46897 279.646957 
L 98.753079 280.722128 
L 99.240121 282.811572 
L 99.321295 282.708996 
L 99.483643 281.802166 
L 100.051859 277.899918 
L 100.214207 277.978856 
L 100.417141 278.943317 
L 100.498315 278.590734 
L 100.701249 277.606923 
L 100.741836 277.652771 
L 100.82301 277.595397 
L 100.985358 277.504365 
L 101.147705 277.899132 
L 101.391227 278.907276 
L 101.837682 280.834533 
L 101.918856 280.72552 
L 102.081204 279.813203 
L 102.690007 275.70925 
L 102.811768 275.797752 
L 102.933529 276.024024 
L 103.298811 277.495692 
L 103.379984 277.4597 
L 103.623506 277.15798 
L 103.704679 277.338726 
L 103.907614 278.361929 
L 104.313483 280.554298 
L 104.394657 280.666338 
L 104.435243 280.645567 
L 104.557004 280.210863 
L 105.287568 275.212922 
L 105.368742 275.322303 
L 105.734024 276.649718 
L 105.815198 276.534664 
L 106.018132 276.253103 
L 106.139893 276.310454 
L 106.302241 276.819846 
L 106.748696 279.146764 
L 106.992218 279.865123 
L 107.073391 279.708663 
L 107.276326 278.341182 
L 107.844542 274.183086 
L 108.088064 274.366864 
L 108.453346 275.975091 
L 108.615693 275.735592 
L 108.696867 275.560701 
L 108.737454 275.612657 
L 108.859215 275.957163 
L 109.224497 278.409831 
L 109.549192 279.809202 
L 109.630366 279.785768 
L 109.752126 279.383785 
L 109.995648 277.12373 
L 110.36093 274.22628 
L 110.563864 274.099178 
L 110.604451 274.231065 
L 110.726212 275.178519 
L 110.766799 274.956119 
L 111.01032 272.262373 
L 111.050907 272.481151 
L 111.172667 272.572378 
L 111.294428 272.729247 
L 111.700297 274.341937 
L 112.268514 277.02795 
L 112.349687 276.936049 
L 112.512035 276.043092 
L 113.161425 271.114315 
L 113.242599 271.206188 
L 113.48612 271.927392 
L 113.526707 271.908289 
L 113.729642 271.834926 
L 113.891989 271.938287 
L 114.054337 272.436664 
L 114.379032 274.037864 
L 114.906662 276.544677 
L 114.987835 276.468784 
L 115.150183 275.563259 
L 115.84016 270.238098 
L 115.961921 270.670722 
L 116.205442 271.405743 
L 116.408377 271.623335 
L 116.48955 271.691949 
L 116.814245 272.979233 
L 117.625983 276.893555 
L 117.707157 276.706151 
L 117.869505 275.516719 
L 118.437721 270.456429 
L 118.600069 270.428714 
L 118.762416 270.97231 
L 119.005938 271.877125 
L 119.046524 271.86435 
L 119.290046 272.466873 
L 119.695915 274.755574 
L 120.304718 277.83476 
L 120.385892 277.814074 
L 120.507653 277.325617 
L 120.751174 274.638072 
L 121.075869 271.403037 
L 121.157043 271.127354 
L 121.19763 271.245769 
L 121.31939 271.484559 
L 121.441151 271.3095 
L 122.090541 274.174942 
L 122.902279 279.038218 
L 123.267561 280.423796 
L 123.348735 280.110426 
L 124.079299 273.572514 
L 124.119886 273.676302 
L 124.32282 276.704641 
L 124.363407 275.894491 
L 124.403994 275.393199 
L 124.485168 275.623803 
L 124.566342 275.651369 
L 124.606929 275.594752 
L 124.647515 275.647101 
L 124.931624 277.247361 
L 125.540427 280.243849 
L 125.986883 281.455738 
L 126.068057 281.595448 
L 126.270991 282.273707 
L 126.352165 282.344834 
L 126.433339 283.027277 
L 126.473926 283.803189 
L 126.514512 282.679025 
L 126.555099 282.923965 
L 126.67686 286.098556 
L 126.717447 285.790042 
L 126.920381 283.098504 
L 127.001555 282.566595 
L 127.163903 279.32169 
L 127.20449 279.527257 
L 127.488598 280.86675 
L 128.137988 285.11766 
L 128.259749 284.885811 
L 128.462683 283.658334 
L 128.787378 279.859666 
L 130.045572 262.905703 
L 130.126746 263.024027 
L 130.492028 264.823354 
L 130.776136 267.624041 
L 131.344353 273.422887 
L 131.669048 274.636357 
L 131.831395 274.709783 
L 131.953156 274.474086 
L 132.15609 273.441719 
L 132.480786 270.28215 
L 133.130176 263.864952 
L 133.170763 263.793061 
L 133.21135 263.817201 
L 133.373697 264.506436 
L 133.941914 268.714569 
L 134.347783 272.273474 
L 134.51013 272.517662 
L 134.631891 272.318521 
L 134.834825 271.37566 
L 135.15952 268.438751 
L 135.808911 259.597138 
L 136.21478 255.554256 
L 136.33654 255.326757 
L 136.458301 255.710476 
L 136.945344 258.629618 
L 137.594734 264.264007 
L 137.757081 264.434628 
L 137.878842 264.21033 
L 138.081777 263.156867 
L 138.406472 259.783342 
L 139.015275 250.299072 
L 139.542905 243.421266 
L 139.664665 243.045957 
L 139.705252 243.107918 
L 139.98936 244.297703 
L 140.151708 245.432801 
L 140.51699 249.862485 
L 140.922859 253.8536 
L 141.206967 254.932514 
L 141.409902 255.151912 
L 141.572249 255.02614 
L 141.815771 254.367408 
L 142.302813 252.824885 
L 142.424574 253.011293 
L 142.586922 253.633594 
L 142.789856 254.349888 
L 142.911617 254.578062 
L 143.114551 255.442752 
L 143.479833 257.161286 
L 143.561007 257.137202 
L 143.723355 256.64765 
L 144.007463 254.714467 
L 144.413332 249.970875 
L 145.062722 239.263926 
L 146.077394 222.982285 
L 146.158568 222.860557 
L 146.199155 222.891734 
L 146.483263 224.051856 
L 146.970306 230.182182 
L 147.457349 236.133293 
L 147.984978 239.626412 
L 148.228499 240.439553 
L 148.309673 240.262456 
L 148.472021 238.80105 
L 148.99965 234.337311 
L 149.080824 234.396037 
L 149.730214 237.031823 
L 150.257844 239.306471 
L 150.420192 239.442398 
L 150.541952 239.303516 
L 150.744887 238.606662 
L 151.069582 236.426128 
L 151.637798 232.467393 
L 151.718972 232.383619 
L 151.759559 232.445855 
L 151.962493 233.375398 
L 152.490123 236.178083 
L 152.895992 238.69614 
L 152.977166 238.702526 
L 153.098926 238.398766 
L 153.301861 237.18309 
L 153.626556 233.722617 
L 154.194773 224.758458 
L 155.331205 205.908803 
L 155.452966 205.616204 
L 155.493553 205.66106 
L 155.615314 206.178817 
L 155.940009 208.593413 
L 157.076442 220.968224 
L 157.522898 223.028184 
L 157.604071 222.838592 
L 157.766419 221.46585 
L 158.212875 217.225095 
L 158.294049 217.295731 
L 158.415809 217.570521 
L 158.456396 217.544017 
L 158.496983 217.435126 
L 158.53757 217.541716 
L 159.674003 221.490588 
L 159.71459 221.458609 
L 159.876937 221.091694 
L 160.120459 219.862729 
L 161.01337 214.081 
L 161.053957 214.195881 
L 161.297479 216.079891 
L 161.338065 215.861851 
L 161.459826 214.736241 
L 161.500413 214.886625 
L 161.825108 217.668262 
L 162.19039 220.174425 
L 162.312151 220.272447 
L 162.433912 219.99285 
L 162.636846 218.774273 
L 162.961541 215.173447 
L 163.570344 205.224658 
L 164.463256 190.603717 
L 164.585017 190.01732 
L 164.625604 190.039191 
L 164.869125 190.505257 
L 165.153233 192.827117 
L 166.249079 204.458772 
L 166.736122 206.785007 
L 166.817296 206.635513 
L 166.979643 205.325702 
L 167.466686 200.536317 
L 167.588447 200.67488 
L 167.750794 201.174828 
L 168.319011 203.762 
L 168.72488 205.478287 
L 168.84664 205.541563 
L 168.968401 205.336592 
L 169.171336 204.395536 
L 169.496031 201.454326 
L 170.348355 192.316104 
L 170.388942 192.326173 
L 170.510703 192.07648 
L 170.55129 192.223624 
L 170.794811 194.156404 
L 170.835398 194.059885 
L 170.916572 193.764579 
L 170.957159 193.842608 
L 171.281854 196.832248 
L 171.647136 199.521422 
L 171.809483 199.7793 
L 171.931244 199.601186 
L 172.134179 198.609956 
L 172.418287 195.798577 
L 172.90533 188.337615 
L 173.879415 172.813818 
L 174.001176 172.359946 
L 174.041762 172.402997 
L 174.20411 173.025724 
L 174.569392 175.954645 
L 175.421717 185.318553 
L 176.395802 189.839096 
L 176.476976 189.463775 
L 176.923432 186.311812 
L 177.004606 186.064958 
L 177.045192 186.184404 
L 177.85693 188.037136 
L 177.978691 187.921453 
L 178.141039 187.423405 
L 178.425147 185.46654 
L 178.871603 180.396584 
L 179.56158 172.503394 
L 179.723927 172.113099 
L 179.764514 172.175377 
L 179.805101 172.55128 
L 179.886275 172.268779 
L 179.967449 171.852389 
L 180.008036 172.009839 
L 180.332731 174.450225 
L 180.373318 174.506656 
L 181.144469 180.051568 
L 181.225642 179.993048 
L 181.38799 179.410036 
L 181.631511 177.348066 
L 182.03738 171.465068 
L 182.849118 155.729974 
L 184.188485 129.427487 
L 184.310246 129.076259 
L 184.350833 129.155738 
L 184.513181 130.000579 
L 184.756702 132.71877 
L 185.284331 142.46715 
L 185.730787 148.414657 
L 185.933722 149.208055 
L 186.014895 148.991572 
L 186.21783 147.333506 
L 186.623699 144.223606 
L 186.74546 144.083015 
L 186.786046 144.135099 
L 186.948394 144.876886 
L 187.191915 145.598719 
L 187.354263 145.503952 
L 187.476024 145.564855 
L 187.638371 145.989143 
L 188.247175 149.167181 
L 188.531283 150.161963 
L 188.612457 150.024283 
L 188.774804 148.970625 
L 189.302434 144.781137 
L 189.383607 144.686066 
L 189.424194 144.729451 
L 189.586542 145.538587 
L 189.830063 146.2611 
L 190.154758 146.43564 
L 190.357693 147.228051 
L 191.291191 151.34254 
L 191.412952 150.87693 
L 191.656473 148.572018 
L 191.981169 146.241499 
L 192.062342 146.301049 
L 192.549385 147.24908 
L 192.792906 147.58944 
L 193.198775 148.933436 
L 193.888752 152.069559 
L 194.132274 152.925295 
L 194.213448 152.764355 
L 194.416382 151.182835 
L 194.741077 148.97531 
L 194.822251 148.969078 
L 194.984599 149.352938 
L 195.309294 150.179852 
L 195.674576 150.642281 
L 195.999271 150.938159 
L 196.202205 150.865076 
L 196.608074 150.339392 
L 196.892182 150.100558 
L 196.973356 150.31931 
L 197.338638 151.804342 
L 197.500986 151.575335 
L 197.541573 151.594859 
L 197.785094 151.609951 
L 198.028615 152.195679 
L 198.190963 152.937394 
L 198.272137 153.30618 
L 198.312724 153.290096 
L 198.799766 150.647865 
L 199.327396 145.358375 
L 199.895612 140.27591 
L 200.017373 139.855957 
L 200.05796 139.891319 
L 200.220308 140.523119 
L 200.301481 141.140785 
L 200.342068 141.065969 
L 200.463829 140.568983 
L 200.747937 142.557433 
L 201.23498 146.308363 
L 201.437914 146.763712 
L 201.559675 146.489979 
L 201.762609 145.137747 
L 202.127891 140.677556 
L 202.899042 130.582437 
L 203.101977 129.743735 
L 203.183151 130.159673 
L 203.386085 131.616475 
L 203.426672 131.41241 
L 203.548433 130.752984 
L 204.684866 138.397505 
L 204.806626 138.151623 
L 204.968974 137.174803 
L 205.253082 133.736311 
L 205.943059 121.436295 
L 206.389515 114.900116 
L 206.551863 113.845977 
L 206.59245 113.878497 
L 206.795384 115.700062 
L 206.835971 115.610631 
L 206.957732 114.721178 
L 206.998318 115.109144 
L 207.323014 118.655205 
L 207.931817 125.031567 
L 208.459447 128.298781 
L 208.581207 128.618183 
L 208.621794 128.558643 
L 208.824729 127.99224 
L 209.433532 117.929074 
L 209.474119 116.146016 
L 209.514706 116.861768 
L 209.595879 125.621395 
L 209.71764 109.315002 
L 209.758227 109.430501 
L 209.839401 109.239409 
L 209.879988 109.12669 
L 209.920575 109.262346 
L 210.24527 113.001324 
L 210.975834 118.131367 
L 211.341116 119.365204 
L 211.54405 119.663843 
L 211.584637 119.626552 
L 211.909332 119.001895 
L 211.949919 118.044238 
L 212.031093 118.746014 
L 212.112267 119.642183 
L 212.152854 119.121995 
L 212.274614 117.074589 
L 212.315201 117.845238 
L 212.396375 117.146923 
L 212.436962 117.506149 
L 212.558723 120.919998 
L 212.599309 120.797965 
L 212.680483 126.938199 
L 212.842831 111.375529 
L 213.289287 124.297896 
L 213.532808 127.55846 
L 213.573395 127.702476 
L 213.613982 127.648662 
L 213.89809 126.322216 
L 214.263372 122.658791 
L 214.831588 114.338006 
L 215.602739 103.194324 
L 215.765087 102.754572 
L 215.846261 102.77933 
L 215.968021 103.231685 
L 217.063868 113.030413 
L 217.307389 113.487498 
L 217.42915 113.375275 
L 217.632084 112.652003 
L 217.916192 110.509846 
L 218.687343 103.793822 
L 218.809104 103.866296 
L 218.890278 104.446374 
L 218.930865 104.24249 
L 219.012038 103.794275 
L 219.052625 103.921828 
L 219.37732 106.65065 
L 219.417907 106.652915 
L 220.026711 110.891796 
L 220.067298 110.874435 
L 220.189058 110.597415 
L 220.391993 109.442614 
L 220.716688 105.984941 
L 221.284904 96.868398 
L 222.299577 80.045724 
L 222.421337 79.555216 
L 222.461924 79.593057 
L 222.664859 80.446163 
L 222.989554 83.309353 
L 223.841878 93.173322 
L 224.572442 96.977918 
L 224.613029 96.992981 
L 224.775377 96.150856 
L 224.937724 94.415648 
L 225.221833 92.004286 
L 225.26242 91.940409 
L 225.303007 91.966724 
L 226.398853 95.006176 
L 226.520613 94.890101 
L 226.723548 94.21354 
L 227.007656 92.322411 
L 227.941154 85.276333 
L 228.022328 85.404332 
L 228.306436 86.960689 
L 228.38761 86.711999 
L 228.428197 86.663841 
L 228.468784 86.775803 
L 228.874653 89.951953 
L 229.158761 91.54723 
L 229.280522 91.601211 
L 229.402283 91.278482 
L 229.605217 89.963362 
L 229.929912 86.176116 
L 230.619889 74.748779 
L 231.188106 66.696452 
L 231.350453 66.113418 
L 231.431627 66.212383 
L 231.634562 67.207487 
L 231.999844 69.82559 
L 232.770995 77.620646 
L 233.136277 78.930449 
L 233.420385 79.302813 
L 233.663906 79.251883 
L 233.866841 79.260773 
L 234.069775 79.614493 
L 234.435057 81.103473 
L 234.516231 80.947412 
L 234.637992 80.837337 
L 234.759752 81.198208 
L 235.125034 82.475342 
L 235.246795 82.375033 
L 235.449729 81.685434 
L 235.733838 79.744204 
L 236.139707 75.067017 
L 236.829684 63.910694 
L 237.479074 54.289312 
L 237.600835 53.803742 
L 237.641422 53.834996 
L 237.763182 54.547746 
L 238.006704 58.414278 
L 238.859028 73.531911 
L 238.940202 73.418191 
L 239.10255 72.40102 
L 239.467832 68.317037 
L 240.604265 54.500692 
L 240.685438 54.713597 
L 240.847786 56.195087 
L 241.213068 62.770033 
L 241.781284 76.909349 
L 242.511849 95.575986 
L 242.593022 95.879101 
L 242.633609 95.833248 
L 242.75537 95.05755 
L 243.039478 90.96559 
L 244.013564 75.557591 
L 244.05415 75.442692 
L 244.094737 75.464568 
L 244.541193 77.567745 
L 244.987649 83.503561 
L 245.474692 88.885171 
L 245.880561 91.241533 
L 245.961734 91.334531 
L 246.002321 91.284837 
L 246.124082 90.662406 
L 246.367603 87.787467 
L 246.773472 82.948549 
L 246.854646 82.729804 
L 246.93582 82.766151 
L 247.098167 82.841446 
L 247.382276 84.556318 
L 247.788144 87.446282 
L 248.396948 91.81431 
L 248.88399 93.787351 
L 249.330446 94.758321 
L 249.736315 95.544103 
L 249.979837 97.059539 
L 250.223358 95.272308 
L 250.263945 95.488995 
L 250.385705 96.365057 
L 250.426292 96.203478 
L 250.507466 96.355931 
L 250.58864 96.502673 
L 250.629227 96.471772 
L 250.710401 96.589923 
L 250.872748 96.650167 
L 251.035096 96.416634 
L 251.278617 95.361354 
L 251.603312 92.320178 
L 252.130942 84.683787 
L 253.267375 67.305342 
L 253.348549 67.110844 
L 253.389135 67.132582 
L 253.551483 67.665731 
L 253.835591 69.405303 
L 254.1197 72.576854 
L 254.647329 78.384034 
L 255.053198 80.325645 
L 256.06787 84.096986 
L 256.149044 83.956571 
L 256.473739 82.238116 
L 256.554913 82.333328 
L 257.163716 83.240385 
L 257.326064 83.008214 
L 257.528998 82.211989 
L 257.813107 79.939643 
L 258.259562 74.201632 
L 259.477169 57.031557 
L 259.59893 56.802345 
L 259.639517 56.831684 
L 259.801864 57.36343 
L 260.24832 59.130044 
L 260.370081 58.831706 
L 260.654189 57.722303 
L 260.694776 57.731904 
L 260.816537 58.17461 
L 261.060058 60.433762 
L 261.506514 64.203758 
L 261.912383 65.692464 
L 262.521186 67.555148 
L 262.845881 68.819502 
L 262.967642 68.39619 
L 263.211163 67.403097 
L 263.292337 67.479053 
L 263.77938 68.52876 
L 263.819967 68.506698 
L 264.022901 68.198868 
L 264.266422 67.262992 
L 264.591118 64.838947 
L 265.60579 55.988266 
L 265.686964 56.042352 
L 265.808724 56.540416 
L 266.052246 58.903892 
L 266.90457 68.604578 
L 266.985744 68.514136 
L 267.148092 67.680291 
L 267.513374 64.037454 
L 268.284525 56.011377 
L 268.446872 55.664292 
L 268.568633 56.006294 
L 268.771567 57.697567 
L 269.218023 64.223576 
L 269.705066 70.400735 
L 269.78624 70.560698 
L 269.826827 70.518817 
L 269.948587 69.972723 
L 270.232695 67.151919 
L 271.206781 56.345785 
L 271.369128 56.056074 
L 271.490889 56.28563 
L 271.774997 57.726177 
L 272.180866 60.693725 
L 273.073778 69.358999 
L 273.154952 69.190243 
L 273.317299 68.053577 
L 274.210211 59.837651 
L 274.331971 60.08869 
L 274.73784 61.497055 
L 274.778427 61.4791 
L 275.103122 60.891252 
L 275.184296 61.011612 
L 275.346644 61.785271 
L 276.036621 66.035304 
L 276.117795 66.038871 
L 276.239555 65.693981 
L 276.44249 64.072714 
L 277.173054 56.812472 
L 277.254228 56.793151 
L 277.375988 57.147987 
L 277.700683 59.311355 
L 277.944205 60.267585 
L 278.025379 60.153794 
L 278.431248 58.612778 
L 278.512421 58.755965 
L 278.674769 59.656532 
L 279.567681 65.863259 
L 279.811202 66.384659 
L 279.932963 66.252223 
L 280.09531 65.481317 
L 280.338831 62.969433 
L 281.109982 53.568 
L 281.191156 53.682457 
L 281.312917 54.667217 
L 281.597025 59.913206 
L 282.246415 72.127575 
L 282.327589 72.276476 
L 282.368176 72.203872 
L 282.530524 71.31278 
L 282.976979 67.112116 
L 283.666957 60.885299 
L 283.910478 60.273162 
L 284.032239 60.428365 
L 284.27576 61.398756 
L 284.478694 62.003695 
L 284.519281 61.992851 
L 284.681629 61.622815 
L 284.80339 61.428752 
L 284.843976 61.453523 
L 284.965737 61.822142 
L 285.493367 64.492737 
L 285.533954 64.469083 
L 285.655714 64.141381 
L 285.899236 62.588711 
L 286.508039 58.307899 
L 286.670387 58.076141 
L 286.792147 58.195727 
L 287.360364 59.12088 
L 287.563298 59.154885 
L 287.725646 59.603878 
L 288.009754 61.426546 
L 288.375036 63.512829 
L 288.45621 63.54642 
L 288.496797 63.482829 
L 288.659144 62.74482 
L 289.308534 58.820672 
L 289.430295 58.834017 
L 289.592643 59.218459 
L 289.998512 60.313132 
L 290.120272 60.128907 
L 290.323207 59.135883 
L 290.647902 57.768253 
L 290.729076 57.819616 
L 290.850836 58.272212 
L 291.175531 60.931246 
L 291.45964 62.508221 
L 291.540814 62.460159 
L 291.703161 61.781212 
L 292.068443 60.313667 
L 292.190204 60.406075 
L 292.393138 61.177234 
L 293.488984 66.99703 
L 293.570158 66.856751 
L 293.732506 65.613661 
L 294.260135 60.15926 
L 294.341309 60.171951 
L 294.544243 60.85381 
L 294.828352 61.496673 
L 295.031286 62.070364 
L 295.315394 63.915204 
L 295.721263 66.458484 
L 295.843024 66.553308 
L 295.964785 66.184091 
L 296.167719 64.61612 
L 296.979457 57.110643 
L 297.101218 57.069221 
L 297.263565 57.526161 
L 297.710021 59.043049 
L 297.994129 59.078977 
L 298.156477 59.715219 
L 298.440585 62.166995 
L 298.887041 65.741291 
L 299.008802 65.967002 
L 299.049388 65.923186 
L 299.171149 65.401084 
L 299.41467 62.945493 
L 299.861126 58.731962 
L 299.982887 58.486801 
L 300.023474 58.499657 
L 300.145235 58.803898 
L 300.46993 60.636619 
L 300.754038 61.737158 
L 300.835212 61.678729 
L 300.997559 60.861452 
L 301.444015 58.17302 
L 301.525189 58.300636 
L 301.728123 59.488459 
L 302.215166 62.593544 
L 302.336927 62.774212 
L 302.377514 62.752219 
L 302.499274 62.408831 
L 302.702209 60.886357 
L 303.270425 55.991471 
L 303.351599 56.085613 
L 303.513947 57.030342 
L 304.082163 61.500693 
L 304.325684 61.635255 
L 304.488032 62.231242 
L 305.259183 66.434165 
L 305.29977 66.394815 
L 305.42153 65.927734 
L 305.665052 63.607621 
L 306.111508 59.365698 
L 306.233268 59.105669 
L 306.273855 59.120198 
L 306.395616 59.420457 
L 306.882659 61.428047 
L 306.923245 61.399479 
L 307.045006 61.028853 
L 307.450875 59.425275 
L 307.572636 59.735492 
L 307.816157 61.370388 
L 308.3032 64.528496 
L 308.465547 64.852798 
L 308.506134 64.835095 
L 308.627895 64.48097 
L 308.830829 62.796646 
L 309.48022 56.172333 
L 309.561393 56.180508 
L 309.683154 56.660997 
L 310.007849 59.461516 
L 310.251371 60.729284 
L 310.332544 60.640031 
L 310.657239 59.692812 
L 310.697826 59.717874 
L 310.819587 60.11647 
L 311.509564 63.856446 
L 311.550151 63.815253 
L 311.671912 63.399661 
L 311.915433 61.375241 
L 312.402476 57.338151 
L 312.48365 57.234984 
L 312.524236 57.257613 
L 312.645997 57.61792 
L 313.214214 60.620148 
L 313.295387 60.498545 
L 313.701256 59.18366 
L 313.741843 59.227388 
L 313.904191 59.861878 
L 314.391233 63.673379 
L 314.95945 67.092502 
L 315.162384 67.528187 
L 315.243558 67.383655 
L 315.405906 66.252875 
L 315.730601 61.333548 
L 316.095883 56.788263 
L 316.217644 56.43446 
L 316.25823 56.45763 
L 316.379991 56.865109 
L 316.826447 58.737539 
L 316.948208 58.476793 
L 317.272903 57.34266 
L 317.31349 57.360791 
L 317.43525 57.751678 
L 317.638185 59.592553 
L 318.206401 65.523761 
L 318.246988 65.560244 
L 318.287575 65.513537 
L 318.449923 64.660761 
L 318.855792 62.269424 
L 318.936965 62.219457 
L 318.977552 62.259064 
L 319.1399 62.759671 
L 319.545769 64.208883 
L 319.667529 63.92974 
L 320.113985 62.338863 
L 320.154572 62.356556 
L 320.276333 62.638472 
L 320.560441 64.137113 
L 320.885136 65.535397 
L 320.96631 65.515058 
L 321.088071 65.048166 
L 321.737461 60.97321 
L 321.778048 61.002562 
L 321.940395 61.498918 
L 322.346264 63.094909 
L 322.386851 63.070304 
L 322.508612 62.719381 
L 322.955068 61.044975 
L 323.076828 61.26169 
L 323.32035 62.539353 
L 323.766805 64.883214 
L 323.847979 64.937365 
L 323.888566 64.884669 
L 324.010327 64.366819 
L 324.294435 61.650171 
L 324.61913 59.338843 
L 324.700304 59.257385 
L 324.740891 59.288473 
L 324.903238 59.820104 
L 325.390281 61.801652 
L 325.512042 61.465006 
L 325.999084 59.166428 
L 326.039671 59.204342 
L 326.161432 59.60517 
L 326.486127 61.914824 
L 327.013757 65.233987 
L 327.257278 65.808238 
L 327.338452 65.663737 
L 327.500799 64.633751 
L 327.825495 60.201876 
L 328.190777 55.935818 
L 328.312537 55.644053 
L 328.353124 55.693053 
L 328.474885 56.217447 
L 328.79958 59.271306 
L 329.083688 61.288651 
L 329.124275 61.330213 
L 329.164862 61.288273 
L 329.32721 60.473345 
L 329.570731 59.38217 
L 329.651905 59.464743 
L 329.814252 60.229921 
L 330.179534 61.982351 
L 330.260708 61.948581 
L 330.423056 61.393146 
L 331.031859 58.605782 
L 331.15362 58.780968 
L 331.397141 59.794791 
L 331.681249 60.781121 
L 331.80301 60.718138 
L 332.005944 60.024798 
L 332.290053 59.28061 
L 332.411813 59.420996 
L 332.614748 60.249225 
L 333.061204 62.103608 
L 333.142377 62.032669 
L 333.304725 61.337289 
L 333.872941 58.122244 
L 333.954115 58.185533 
L 334.116463 58.763918 
L 334.603505 61.078898 
L 334.644092 61.065938 
L 334.765853 60.740115 
L 335.212309 59.047537 
L 335.334069 59.257528 
L 335.537004 60.313168 
L 336.064634 63.302582 
L 336.145807 63.315093 
L 336.267568 62.906267 
L 336.511089 60.760365 
L 336.916958 57.412064 
L 336.998132 57.303477 
L 337.038719 57.336667 
L 337.16048 57.746885 
L 337.485175 60.156625 
L 337.80987 61.834171 
L 337.891044 61.726648 
L 338.053391 60.782407 
L 338.418673 58.509137 
L 338.499847 58.506546 
L 338.621608 58.922051 
L 338.98689 61.549909 
L 339.311585 63.197357 
L 339.433346 63.316495 
L 339.555106 63.017781 
L 339.758041 61.457216 
L 340.326257 56.215896 
L 340.407431 56.249411 
L 340.529192 56.773691 
L 340.853887 59.83302 
L 341.097408 61.300655 
L 341.178582 61.252053 
L 341.503277 60.391435 
L 341.584451 60.499101 
L 341.746798 61.226715 
L 342.315015 64.23394 
L 342.396189 64.151388 
L 342.558536 63.369195 
L 343.2891 58.224899 
L 343.329687 58.27281 
L 343.492035 58.847995 
L 344.222599 62.499378 
L 344.263186 62.453558 
L 344.384946 61.962277 
L 344.628468 59.5848 
L 344.99375 56.542511 
L 345.074923 56.528705 
L 345.196684 56.999781 
L 345.480792 59.587809 
L 345.886661 62.691766 
L 345.967835 62.647462 
L 346.130183 61.732948 
L 346.454878 59.782145 
L 346.536052 59.790472 
L 346.657812 60.187485 
L 347.104268 62.153652 
L 347.144855 62.13404 
L 347.266616 61.815093 
L 347.834832 59.3825 
L 347.875419 59.413955 
L 348.037767 59.884536 
L 348.64657 62.559242 
L 348.687157 62.53732 
L 348.808917 62.169303 
L 349.052439 60.231322 
L 349.458308 57.165105 
L 349.539482 57.098919 
L 349.580068 57.152325 
L 349.742416 57.859441 
L 350.270046 61.233318 
L 350.310632 61.215107 
L 350.47298 60.702473 
L 350.757088 59.907736 
L 350.838262 60.002535 
L 351.00061 60.692078 
L 352.015282 66.40604 
L 352.096456 66.279059 
L 352.258803 65.20008 
L 352.664672 59.604883 
L 352.94878 57.261866 
L 353.029954 57.189928 
L 353.070541 57.248082 
L 353.232889 57.937402 
L 353.598171 59.488548 
L 353.679344 59.416506 
L 353.882279 58.609559 
L 354.1258 57.87783 
L 354.206974 58.006655 
L 354.369322 58.971875 
L 355.099886 65.058832 
L 355.140473 64.986973 
L 355.30282 64.015781 
L 355.789863 60.564705 
L 355.871037 60.549655 
L 355.911623 60.60693 
L 356.073971 61.189253 
L 356.439253 62.669053 
L 356.520427 62.612938 
L 356.682774 61.976976 
L 357.00747 60.677126 
L 357.088643 60.701846 
L 357.250991 61.217583 
L 358.022142 65.170454 
L 358.062729 65.125817 
L 358.184489 64.623814 
L 358.428011 62.200694 
L 358.793293 58.836236 
L 358.915053 58.570855 
L 358.95564 58.587749 
L 359.077401 58.92992 
L 359.605031 61.096552 
L 359.726791 60.768019 
L 360.173247 58.674427 
L 360.213834 58.694215 
L 360.335595 59.066608 
L 360.619703 61.191329 
L 361.228506 65.68883 
L 361.472028 66.538412 
L 361.553201 66.478186 
L 361.674962 65.871671 
L 361.918483 62.85766 
L 362.324352 58.061845 
L 362.446113 57.762212 
L 362.4867 57.795007 
L 362.649047 58.381993 
L 362.933156 59.386267 
L 363.054916 59.3033 
L 363.298438 58.962681 
L 363.339025 59.003584 
L 363.460785 59.374003 
L 363.66372 60.881611 
L 364.272523 65.951005 
L 364.353697 65.935552 
L 364.475458 65.398045 
L 364.800153 62.181746 
L 365.124848 59.861546 
L 365.246609 59.722041 
L 365.287195 59.76386 
L 365.449543 60.290042 
L 365.895999 62.196174 
L 365.936586 62.180223 
L 366.058346 61.81763 
L 366.504802 59.840461 
L 366.626563 60.143952 
L 366.910671 61.941999 
L 367.235366 63.486945 
L 367.31654 63.510461 
L 367.357127 63.447165 
L 367.519474 62.668785 
L 368.168865 57.970496 
L 368.209452 57.976093 
L 368.331212 58.282574 
L 368.615321 60.054642 
L 369.021189 62.243823 
L 369.102363 62.250901 
L 369.224124 61.799309 
L 369.508232 59.164682 
L 369.79234 57.418522 
L 369.873514 57.442335 
L 369.995275 57.907815 
L 370.360557 60.913686 
L 370.888186 64.569106 
L 371.050534 64.908103 
L 371.131708 64.68858 
L 371.294055 63.307889 
L 371.781098 58.559995 
L 371.862272 58.568371 
L 372.024619 59.152354 
L 372.308728 60.050057 
L 372.430488 59.958479 
L 372.67401 59.744315 
L 372.79577 60.016702 
L 372.998705 61.165777 
L 373.526334 64.598989 
L 373.607508 64.60362 
L 373.729269 64.179041 
L 373.97279 62.155857 
L 374.419246 58.666994 
L 374.581594 58.418994 
L 374.703354 58.622887 
L 374.987463 59.870039 
L 375.271571 60.854456 
L 375.352745 60.842954 
L 375.474505 60.46652 
L 375.758613 58.324263 
L 376.002135 57.046039 
L 376.083309 57.073024 
L 376.205069 57.582266 
L 376.489178 60.232213 
L 376.813873 62.730233 
L 376.895046 62.758793 
L 377.016807 62.318 
L 377.422676 60.566704 
L 377.544437 60.762388 
L 377.787958 62.024903 
L 378.193827 63.901303 
L 378.275001 63.848165 
L 378.396761 63.346988 
L 379.005565 59.387425 
L 379.046152 59.408961 
L 379.167912 59.73376 
L 379.533194 61.885424 
L 379.776716 62.774277 
L 379.85789 62.733079 
L 379.97965 62.240075 
L 380.547867 58.529416 
L 380.62904 58.622959 
L 380.791388 59.376056 
L 381.440778 63.122017 
L 381.521952 63.159983 
L 381.562539 63.103098 
L 381.6843 62.583507 
L 381.927821 60.193895 
L 382.33369 56.648141 
L 382.414864 56.602633 
L 382.536624 57.016361 
L 382.820733 59.425862 
L 383.186015 62.165592 
L 383.267188 62.213398 
L 383.388949 61.731813 
L 383.835405 59.285353 
L 383.957166 59.59501 
L 384.484795 62.086788 
L 384.565969 61.993767 
L 384.728316 61.274689 
L 385.215359 58.573259 
L 385.296533 58.589438 
L 385.418294 58.921009 
L 385.742989 60.886614 
L 386.027097 62.082668 
L 386.108271 62.030719 
L 386.270618 61.273504 
L 386.798248 58.118537 
L 386.879422 58.223272 
L 387.041769 58.962352 
L 387.69116 62.732888 
L 387.772333 62.576513 
L 387.934681 61.530587 
L 388.421724 57.877977 
L 388.502897 57.907338 
L 388.624658 58.332937 
L 388.98994 61.056764 
L 389.63933 65.296294 
L 390.491655 69.748436 
L 390.572829 69.672134 
L 390.69459 68.773699 
L 391.262806 62.290734 
L 391.303393 62.342923 
L 391.506327 63.044509 
L 391.790436 64.856899 
L 392.439826 69.939338 
L 392.521 69.802663 
L 392.683347 68.881502 
L 393.251564 63.355904 
L 393.616846 61.056368 
L 393.779193 60.801105 
L 393.81978 60.816341 
L 393.941541 61.040027 
L 394.225649 62.262788 
L 394.428584 62.803498 
L 394.509757 62.681421 
L 394.834452 61.610402 
L 394.915626 61.705721 
L 395.077974 62.432375 
L 395.443256 64.089931 
L 395.52443 64.050992 
L 395.686777 63.47986 
L 396.498515 59.515431 
L 396.660863 59.632273 
L 397.066732 60.068758 
L 397.229079 59.685348 
L 397.756709 57.554755 
L 397.797296 57.590771 
L 397.919056 58.001263 
L 398.162578 59.879062 
L 398.487273 62.237243 
L 398.487273 62.237243 
" clip-path="url(#p205da930b4)" style="fill: none; stroke: #1f77b4; stroke-width: 1.5; stroke-linecap: square"/>
   </g>
   <g id="line2d_17">
    <path d="M 236.164059 307.584 
L 236.164059 41.472 
" clip-path="url(#p205da930b4)" style="fill: none; stroke-dasharray: 1.5,2.475; stroke-dashoffset: 0; stroke: #000000; stroke-width: 1.5"/>
   </g>
   <g id="line2d_18">
    <path d="M 126.59041 307.584 
L 126.59041 41.472 
" clip-path="url(#p205da930b4)" style="fill: none; stroke-dasharray: 1.5,2.475; stroke-dashoffset: 0; stroke: #000000; stroke-width: 1.5"/>
   </g>
   <g id="line2d_19">
    <path d="M 126.59041 277.478368 
L 236.123476 69.739429 
L 236.123476 69.739429 
" clip-path="url(#p205da930b4)" style="fill: none; stroke: #ff0000; stroke-width: 1.5; stroke-linecap: square"/>
   </g>
   <g id="patch_3">
    <path d="M 57.6 307.584 
L 57.6 41.472 
" style="fill: none; stroke: #000000; stroke-width: 0.8; stroke-linejoin: miter; stroke-linecap: square"/>
   </g>
   <g id="patch_4">
    <path d="M 414.72 307.584 
L 414.72 41.472 
" style="fill: none; stroke: #000000; stroke-width: 0.8; stroke-linejoin: miter; stroke-linecap: square"/>
   </g>
   <g id="patch_5">
    <path d="M 57.6 307.584 
L 414.72 307.584 
" style="fill: none; stroke: #000000; stroke-width: 0.8; stroke-linejoin: miter; stroke-linecap: square"/>
   </g>
   <g id="patch_6">
    <path d="M 57.6 41.472 
L 414.72 41.472 
" style="fill: none; stroke: #000000; stroke-width: 0.8; stroke-linejoin: miter; stroke-linecap: square"/>
   </g>
   <g id="text_18">
    <!-- $\sigma=10$, $\rho=28$, $\beta=8/3$ -->
    <g transform="translate(170.04 35.472) scale(0.12 -0.12)">
     <defs>
      <path id="DejaVuSans-Oblique-3c3" d="M 2219 3044 
Q 1744 3044 1422 2700 
Q 1081 2341 969 1747 
Q 844 1119 1044 756 
Q 1241 397 1706 397 
Q 2166 397 2503 759 
Q 2844 1122 2966 1747 
Q 3075 2319 2881 2700 
Q 2700 3044 2219 3044 
z
M 2309 3503 
L 4219 3500 
L 4106 2925 
L 3463 2925 
Q 3706 2438 3575 1747 
Q 3406 888 2884 400 
Q 2359 -91 1609 -91 
Q 856 -91 525 400 
Q 194 888 363 1747 
Q 528 2609 1050 3097 
Q 1484 3503 2309 3503 
z
" transform="scale(0.015625)"/>
      <path id="DejaVuSans-3d" d="M 678 2906 
L 4684 2906 
L 4684 2381 
L 678 2381 
L 678 2906 
z
M 678 1631 
L 4684 1631 
L 4684 1100 
L 678 1100 
L 678 1631 
z
" transform="scale(0.015625)"/>
      <path id="DejaVuSans-Oblique-3c1" d="M 1203 2875 
Q 1453 3194 1981 3475 
Q 2188 3584 2756 3584 
Q 3394 3584 3694 3078 
Q 3994 2572 3834 1747 
Q 3672 922 3175 415 
Q 2678 -91 2041 -91 
Q 1656 -91 1409 63 
Q 1163 213 1044 525 
L 681 -1331 
L 103 -1331 
L 697 1716 
Q 838 2438 1203 2875 
z
M 3238 1747 
Q 3359 2381 3169 2744 
Q 2978 3103 2522 3103 
Q 2066 3103 1734 2744 
Q 1403 2381 1281 1747 
Q 1156 1113 1347 750 
Q 1538 391 1994 391 
Q 2450 391 2781 750 
Q 3113 1113 3238 1747 
z
" transform="scale(0.015625)"/>
      <path id="DejaVuSans-Oblique-3b2" d="M 872 216 
L 572 -1331 
L -6 -1331 
L 928 3478 
Q 1206 4903 2538 4903 
Q 3888 4903 3659 3700 
Q 3503 2844 2894 2531 
Q 3713 2250 3553 1416 
Q 3272 -69 1759 -66 
Q 1097 -63 872 216 
z
M 1019 966 
Q 1259 422 1875 425 
Q 2775 425 2966 1406 
Q 3138 2288 1675 2219 
L 1778 2750 
Q 2909 2731 3106 3750 
Q 3241 4438 2509 4434 
Q 1691 4434 1503 3459 
L 1019 966 
z
" transform="scale(0.015625)"/>
      <path id="DejaVuSans-2f" d="M 1625 4666 
L 2156 4666 
L 531 -594 
L 0 -594 
L 1625 4666 
z
" transform="scale(0.015625)"/>
     </defs>
     <use xlink:href="#DejaVuSans-Oblique-3c3" transform="translate(0 0.390625)"/>
     <use xlink:href="#DejaVuSans-3d" transform="translate(82.861328 0.390625)"/>
     <use xlink:href="#DejaVuSans-31" transform="translate(186.132812 0.390625)"/>
     <use xlink:href="#DejaVuSans-30" transform="translate(249.755859 0.390625)"/>
     <use xlink:href="#DejaVuSans-2c" transform="translate(313.378906 0.390625)"/>
     <use xlink:href="#DejaVuSans-20" transform="translate(345.166016 0.390625)"/>
     <use xlink:href="#DejaVuSans-Oblique-3c1" transform="translate(376.953125 0.390625)"/>
     <use xlink:href="#DejaVuSans-3d" transform="translate(459.912109 0.390625)"/>
     <use xlink:href="#DejaVuSans-32" transform="translate(563.183594 0.390625)"/>
     <use xlink:href="#DejaVuSans-38" transform="translate(626.806641 0.390625)"/>
     <use xlink:href="#DejaVuSans-2c" transform="translate(690.429688 0.390625)"/>
     <use xlink:href="#DejaVuSans-20" transform="translate(722.216797 0.390625)"/>
     <use xlink:href="#DejaVuSans-Oblique-3b2" transform="translate(754.003906 0.390625)"/>
     <use xlink:href="#DejaVuSans-3d" transform="translate(837.304688 0.390625)"/>
     <use xlink:href="#DejaVuSans-38" transform="translate(940.576172 0.390625)"/>
     <use xlink:href="#DejaVuSans-2f" transform="translate(1004.199219 0.390625)"/>
     <use xlink:href="#DejaVuSans-33" transform="translate(1037.890625 0.390625)"/>
    </g>
   </g>
   <g id="legend_1">
    <g id="patch_7">
     <path d="M 274.90125 302.584 
L 407.72 302.584 
Q 409.72 302.584 409.72 300.584 
L 409.72 261.008062 
Q 409.72 259.008062 407.72 259.008062 
L 274.90125 259.008062 
Q 272.90125 259.008062 272.90125 261.008062 
L 272.90125 300.584 
Q 272.90125 302.584 274.90125 302.584 
z
" style="fill: #ffffff; opacity: 0.8; stroke: #cccccc; stroke-linejoin: miter"/>
    </g>
    <g id="line2d_20">
     <path d="M 276.90125 273.74525 
L 286.90125 273.74525 
L 296.90125 273.74525 
" style="fill: none; stroke: #1f77b4; stroke-width: 1.5; stroke-linecap: square"/>
    </g>
    <g id="text_19">
     <!-- Seperation between -->
     <g transform="translate(304.90125 270.6065) scale(0.1 -0.1)">
      <defs>
       <path id="DejaVuSans-62" d="M 3116 1747 
Q 3116 2381 2855 2742 
Q 2594 3103 2138 3103 
Q 1681 3103 1420 2742 
Q 1159 2381 1159 1747 
Q 1159 1113 1420 752 
Q 1681 391 2138 391 
Q 2594 391 2855 752 
Q 3116 1113 3116 1747 
z
M 1159 2969 
Q 1341 3281 1617 3432 
Q 1894 3584 2278 3584 
Q 2916 3584 3314 3078 
Q 3713 2572 3713 1747 
Q 3713 922 3314 415 
Q 2916 -91 2278 -91 
Q 1894 -91 1617 61 
Q 1341 213 1159 525 
L 1159 0 
L 581 0 
L 581 4863 
L 1159 4863 
L 1159 2969 
z
" transform="scale(0.015625)"/>
       <path id="DejaVuSans-77" d="M 269 3500 
L 844 3500 
L 1563 769 
L 2278 3500 
L 2956 3500 
L 3675 769 
L 4391 3500 
L 4966 3500 
L 4050 0 
L 3372 0 
L 2619 2869 
L 1863 0 
L 1184 0 
L 269 3500 
z
" transform="scale(0.015625)"/>
      </defs>
      <use xlink:href="#DejaVuSans-53"/>
      <use xlink:href="#DejaVuSans-65" x="63.476562"/>
      <use xlink:href="#DejaVuSans-70" x="125"/>
      <use xlink:href="#DejaVuSans-65" x="188.476562"/>
      <use xlink:href="#DejaVuSans-72" x="250"/>
      <use xlink:href="#DejaVuSans-61" x="291.113281"/>
      <use xlink:href="#DejaVuSans-74" x="352.392578"/>
      <use xlink:href="#DejaVuSans-69" x="391.601562"/>
      <use xlink:href="#DejaVuSans-6f" x="419.384766"/>
      <use xlink:href="#DejaVuSans-6e" x="480.566406"/>
      <use xlink:href="#DejaVuSans-20" x="543.945312"/>
      <use xlink:href="#DejaVuSans-62" x="575.732422"/>
      <use xlink:href="#DejaVuSans-65" x="639.208984"/>
      <use xlink:href="#DejaVuSans-74" x="700.732422"/>
      <use xlink:href="#DejaVuSans-77" x="739.941406"/>
      <use xlink:href="#DejaVuSans-65" x="821.728516"/>
      <use xlink:href="#DejaVuSans-65" x="883.251953"/>
      <use xlink:href="#DejaVuSans-6e" x="944.775391"/>
     </g>
     <!-- two trajectories -->
     <g transform="translate(304.90125 281.804312) scale(0.1 -0.1)">
      <defs>
       <path id="DejaVuSans-6a" d="M 603 3500 
L 1178 3500 
L 1178 -63 
Q 1178 -731 923 -1031 
Q 669 -1331 103 -1331 
L -116 -1331 
L -116 -844 
L 38 -844 
Q 366 -844 484 -692 
Q 603 -541 603 -63 
L 603 3500 
z
M 603 4863 
L 1178 4863 
L 1178 4134 
L 603 4134 
L 603 4863 
z
" transform="scale(0.015625)"/>
       <path id="DejaVuSans-63" d="M 3122 3366 
L 3122 2828 
Q 2878 2963 2633 3030 
Q 2388 3097 2138 3097 
Q 1578 3097 1268 2742 
Q 959 2388 959 1747 
Q 959 1106 1268 751 
Q 1578 397 2138 397 
Q 2388 397 2633 464 
Q 2878 531 3122 666 
L 3122 134 
Q 2881 22 2623 -34 
Q 2366 -91 2075 -91 
Q 1284 -91 818 406 
Q 353 903 353 1747 
Q 353 2603 823 3093 
Q 1294 3584 2113 3584 
Q 2378 3584 2631 3529 
Q 2884 3475 3122 3366 
z
" transform="scale(0.015625)"/>
       <path id="DejaVuSans-73" d="M 2834 3397 
L 2834 2853 
Q 2591 2978 2328 3040 
Q 2066 3103 1784 3103 
Q 1356 3103 1142 2972 
Q 928 2841 928 2578 
Q 928 2378 1081 2264 
Q 1234 2150 1697 2047 
L 1894 2003 
Q 2506 1872 2764 1633 
Q 3022 1394 3022 966 
Q 3022 478 2636 193 
Q 2250 -91 1575 -91 
Q 1294 -91 989 -36 
Q 684 19 347 128 
L 347 722 
Q 666 556 975 473 
Q 1284 391 1588 391 
Q 1994 391 2212 530 
Q 2431 669 2431 922 
Q 2431 1156 2273 1281 
Q 2116 1406 1581 1522 
L 1381 1569 
Q 847 1681 609 1914 
Q 372 2147 372 2553 
Q 372 3047 722 3315 
Q 1072 3584 1716 3584 
Q 2034 3584 2315 3537 
Q 2597 3491 2834 3397 
z
" transform="scale(0.015625)"/>
      </defs>
      <use xlink:href="#DejaVuSans-74"/>
      <use xlink:href="#DejaVuSans-77" x="39.208984"/>
      <use xlink:href="#DejaVuSans-6f" x="120.996094"/>
      <use xlink:href="#DejaVuSans-20" x="182.177734"/>
      <use xlink:href="#DejaVuSans-74" x="213.964844"/>
      <use xlink:href="#DejaVuSans-72" x="253.173828"/>
      <use xlink:href="#DejaVuSans-61" x="294.287109"/>
      <use xlink:href="#DejaVuSans-6a" x="355.566406"/>
      <use xlink:href="#DejaVuSans-65" x="383.349609"/>
      <use xlink:href="#DejaVuSans-63" x="444.873047"/>
      <use xlink:href="#DejaVuSans-74" x="499.853516"/>
      <use xlink:href="#DejaVuSans-6f" x="539.0625"/>
      <use xlink:href="#DejaVuSans-72" x="600.244141"/>
      <use xlink:href="#DejaVuSans-69" x="641.357422"/>
      <use xlink:href="#DejaVuSans-65" x="669.140625"/>
      <use xlink:href="#DejaVuSans-73" x="730.664062"/>
     </g>
    </g>
    <g id="line2d_21">
     <path d="M 276.90125 292.984 
L 286.90125 292.984 
L 296.90125 292.984 
" style="fill: none; stroke: #ff0000; stroke-width: 1.5; stroke-linecap: square"/>
    </g>
    <g id="text_20">
     <!-- $\exp(0.88 t -33.1)$ -->
     <g transform="translate(304.90125 296.484) scale(0.1 -0.1)">
      <defs>
       <path id="DejaVuSans-78" d="M 3513 3500 
L 2247 1797 
L 3578 0 
L 2900 0 
L 1881 1375 
L 863 0 
L 184 0 
L 1544 1831 
L 300 3500 
L 978 3500 
L 1906 2253 
L 2834 3500 
L 3513 3500 
z
" transform="scale(0.015625)"/>
       <path id="DejaVuSans-28" d="M 1984 4856 
Q 1566 4138 1362 3434 
Q 1159 2731 1159 2009 
Q 1159 1288 1364 580 
Q 1569 -128 1984 -844 
L 1484 -844 
Q 1016 -109 783 600 
Q 550 1309 550 2009 
Q 550 2706 781 3412 
Q 1013 4119 1484 4856 
L 1984 4856 
z
" transform="scale(0.015625)"/>
       <path id="DejaVuSans-2e" d="M 684 794 
L 1344 794 
L 1344 0 
L 684 0 
L 684 794 
z
" transform="scale(0.015625)"/>
       <path id="DejaVuSans-29" d="M 513 4856 
L 1013 4856 
Q 1481 4119 1714 3412 
Q 1947 2706 1947 2009 
Q 1947 1309 1714 600 
Q 1481 -109 1013 -844 
L 513 -844 
Q 928 -128 1133 580 
Q 1338 1288 1338 2009 
Q 1338 2731 1133 3434 
Q 928 4138 513 4856 
z
" transform="scale(0.015625)"/>
      </defs>
      <use xlink:href="#DejaVuSans-65" transform="translate(0 0.125)"/>
      <use xlink:href="#DejaVuSans-78" transform="translate(61.523438 0.125)"/>
      <use xlink:href="#DejaVuSans-70" transform="translate(120.703125 0.125)"/>
      <use xlink:href="#DejaVuSans-28" transform="translate(184.179688 0.125)"/>
      <use xlink:href="#DejaVuSans-30" transform="translate(223.193359 0.125)"/>
      <use xlink:href="#DejaVuSans-2e" transform="translate(286.816406 0.125)"/>
      <use xlink:href="#DejaVuSans-38" transform="translate(315.978516 0.125)"/>
      <use xlink:href="#DejaVuSans-38" transform="translate(379.601562 0.125)"/>
      <use xlink:href="#DejaVuSans-Oblique-74" transform="translate(443.224609 0.125)"/>
      <use xlink:href="#DejaVuSans-2212" transform="translate(501.916016 0.125)"/>
      <use xlink:href="#DejaVuSans-33" transform="translate(605.1875 0.125)"/>
      <use xlink:href="#DejaVuSans-33" transform="translate(668.810547 0.125)"/>
      <use xlink:href="#DejaVuSans-2e" transform="translate(732.433594 0.125)"/>
      <use xlink:href="#DejaVuSans-31" transform="translate(764.220703 0.125)"/>
      <use xlink:href="#DejaVuSans-29" transform="translate(827.84375 0.125)"/>
     </g>
    </g>
   </g>
  </g>
 </g>
 <defs>
  <clipPath id="p205da930b4">
   <rect x="57.6" y="41.472" width="357.12" height="266.112"/>
  </clipPath>
 </defs>
</svg>
