<?xml version="1.0" encoding="utf-8" standalone="no"?>
<!DOCTYPE svg PUBLIC "-//W3C//DTD SVG 1.1//EN"
  "http://www.w3.org/Graphics/SVG/1.1/DTD/svg11.dtd">
<svg height="288pt" version="1.1" viewBox="0 0 432 288" width="432pt" xmlns="http://www.w3.org/2000/svg" xmlns:xlink="http://www.w3.org/1999/xlink">
 <metadata>
  <rdf:RDF xmlns:cc="http://creativecommons.org/ns#" xmlns:dc="http://purl.org/dc/elements/1.1/" xmlns:rdf="http://www.w3.org/1999/02/22-rdf-syntax-ns#">
   <cc:Work>
    <dc:type rdf:resource="http://purl.org/dc/dcmitype/StillImage"/>
    <dc:date>2022-06-05T21:10:38.598814</dc:date>
    <dc:format>image/svg+xml</dc:format>
    <dc:creator>
     <cc:Agent>
      <dc:title>Matplotlib v3.4.3, https://matplotlib.org/</dc:title>
     </cc:Agent>
    </dc:creator>
   </cc:Work>
  </rdf:RDF>
 </metadata>
 <defs>
  <style type="text/css">*{stroke-linecap:butt;stroke-linejoin:round;}</style>
 </defs>
 <g id="figure_1">
  <g id="patch_1">
   <path d="M 0 288 
L 432 288 
L 432 0 
L 0 0 
z
" style="fill:none;"/>
  </g>
  <g id="axes_1">
   <g id="patch_2">
    <path d="M 54 252 
L 388.8 252 
L 388.8 34.56 
L 54 34.56 
z
" style="fill:#ffffff;"/>
   </g>
   <g id="patch_3">
    <path clip-path="url(#p91343e3238)" d="M 103.407616 252 
L 107.590662 252 
L 107.590662 251.748201 
L 103.407616 251.748201 
z
" style="fill:#1f77b4;"/>
   </g>
   <g id="patch_4">
    <path clip-path="url(#p91343e3238)" d="M 107.590662 252 
L 111.773707 252 
L 111.773707 251.244603 
L 107.590662 251.244603 
z
" style="fill:#1f77b4;"/>
   </g>
   <g id="patch_5">
    <path clip-path="url(#p91343e3238)" d="M 111.773707 252 
L 115.956752 252 
L 115.956752 249.985608 
L 111.773707 249.985608 
z
" style="fill:#1f77b4;"/>
   </g>
   <g id="patch_6">
    <path clip-path="url(#p91343e3238)" d="M 115.956752 252 
L 120.139798 252 
L 120.139798 251.748201 
L 115.956752 251.748201 
z
" style="fill:#1f77b4;"/>
   </g>
   <g id="patch_7">
    <path clip-path="url(#p91343e3238)" d="M 120.139798 252 
L 124.322843 252 
L 124.322843 250.237407 
L 120.139798 250.237407 
z
" style="fill:#1f77b4;"/>
   </g>
   <g id="patch_8">
    <path clip-path="url(#p91343e3238)" d="M 124.322843 252 
L 128.505889 252 
L 128.505889 249.230212 
L 124.322843 249.230212 
z
" style="fill:#1f77b4;"/>
   </g>
   <g id="patch_9">
    <path clip-path="url(#p91343e3238)" d="M 128.505889 252 
L 132.688934 252 
L 132.688934 249.230212 
L 128.505889 249.230212 
z
" style="fill:#1f77b4;"/>
   </g>
   <g id="patch_10">
    <path clip-path="url(#p91343e3238)" d="M 132.688934 252 
L 136.871979 252 
L 136.871979 245.201429 
L 132.688934 245.201429 
z
" style="fill:#1f77b4;"/>
   </g>
   <g id="patch_11">
    <path clip-path="url(#p91343e3238)" d="M 136.871979 252 
L 141.055025 252 
L 141.055025 241.676243 
L 136.871979 241.676243 
z
" style="fill:#1f77b4;"/>
   </g>
   <g id="patch_12">
    <path clip-path="url(#p91343e3238)" d="M 141.055025 252 
L 145.23807 252 
L 145.23807 233.870476 
L 141.055025 233.870476 
z
" style="fill:#1f77b4;"/>
   </g>
   <g id="patch_13">
    <path clip-path="url(#p91343e3238)" d="M 145.23807 252 
L 149.421115 252 
L 149.421115 230.848889 
L 145.23807 230.848889 
z
" style="fill:#1f77b4;"/>
   </g>
   <g id="patch_14">
    <path clip-path="url(#p91343e3238)" d="M 149.421115 252 
L 153.604161 252 
L 153.604161 223.798519 
L 149.421115 223.798519 
z
" style="fill:#1f77b4;"/>
   </g>
   <g id="patch_15">
    <path clip-path="url(#p91343e3238)" d="M 153.604161 252 
L 157.787206 252 
L 157.787206 210.956773 
L 153.604161 210.956773 
z
" style="fill:#1f77b4;"/>
   </g>
   <g id="patch_16">
    <path clip-path="url(#p91343e3238)" d="M 157.787206 252 
L 161.970252 252 
L 161.970252 201.136614 
L 157.787206 201.136614 
z
" style="fill:#1f77b4;"/>
   </g>
   <g id="patch_17">
    <path clip-path="url(#p91343e3238)" d="M 161.970252 252 
L 166.153297 252 
L 166.153297 199.122223 
L 161.970252 199.122223 
z
" style="fill:#1f77b4;"/>
   </g>
   <g id="patch_18">
    <path clip-path="url(#p91343e3238)" d="M 166.153297 252 
L 170.336342 252 
L 170.336342 189.805662 
L 166.153297 189.805662 
z
" style="fill:#1f77b4;"/>
   </g>
   <g id="patch_19">
    <path clip-path="url(#p91343e3238)" d="M 170.336342 252 
L 174.519388 252 
L 174.519388 175.453122 
L 170.336342 175.453122 
z
" style="fill:#1f77b4;"/>
   </g>
   <g id="patch_20">
    <path clip-path="url(#p91343e3238)" d="M 174.519388 252 
L 178.702433 252 
L 178.702433 162.611376 
L 174.519388 162.611376 
z
" style="fill:#1f77b4;"/>
   </g>
   <g id="patch_21">
    <path clip-path="url(#p91343e3238)" d="M 178.702433 252 
L 182.885478 252 
L 182.885478 157.575398 
L 178.702433 157.575398 
z
" style="fill:#1f77b4;"/>
   </g>
   <g id="patch_22">
    <path clip-path="url(#p91343e3238)" d="M 182.885478 252 
L 187.068524 252 
L 187.068524 152.035821 
L 182.885478 152.035821 
z
" style="fill:#1f77b4;"/>
   </g>
   <g id="patch_23">
    <path clip-path="url(#p91343e3238)" d="M 187.068524 252 
L 191.251569 252 
L 191.251569 150.273228 
L 187.068524 150.273228 
z
" style="fill:#1f77b4;"/>
   </g>
   <g id="patch_24">
    <path clip-path="url(#p91343e3238)" d="M 191.251569 252 
L 195.434615 252 
L 195.434615 153.043017 
L 191.251569 153.043017 
z
" style="fill:#1f77b4;"/>
   </g>
   <g id="patch_25">
    <path clip-path="url(#p91343e3238)" d="M 195.434615 252 
L 199.61766 252 
L 199.61766 158.582593 
L 195.434615 158.582593 
z
" style="fill:#1f77b4;"/>
   </g>
   <g id="patch_26">
    <path clip-path="url(#p91343e3238)" d="M 199.61766 252 
L 203.800705 252 
L 203.800705 159.086191 
L 199.61766 159.086191 
z
" style="fill:#1f77b4;"/>
   </g>
   <g id="patch_27">
    <path clip-path="url(#p91343e3238)" d="M 203.800705 252 
L 207.983751 252 
L 207.983751 162.611376 
L 203.800705 162.611376 
z
" style="fill:#1f77b4;"/>
   </g>
   <g id="patch_28">
    <path clip-path="url(#p91343e3238)" d="M 207.983751 252 
L 212.166796 252 
L 212.166796 168.150953 
L 207.983751 168.150953 
z
" style="fill:#1f77b4;"/>
   </g>
   <g id="patch_29">
    <path clip-path="url(#p91343e3238)" d="M 212.166796 252 
L 216.349841 252 
L 216.349841 184.517884 
L 212.166796 184.517884 
z
" style="fill:#1f77b4;"/>
   </g>
   <g id="patch_30">
    <path clip-path="url(#p91343e3238)" d="M 216.349841 252 
L 220.532887 252 
L 220.532887 193.330847 
L 216.349841 193.330847 
z
" style="fill:#1f77b4;"/>
   </g>
   <g id="patch_31">
    <path clip-path="url(#p91343e3238)" d="M 220.532887 252 
L 224.715932 252 
L 224.715932 209.949577 
L 220.532887 209.949577 
z
" style="fill:#1f77b4;"/>
   </g>
   <g id="patch_32">
    <path clip-path="url(#p91343e3238)" d="M 224.715932 252 
L 228.898978 252 
L 228.898978 218.007143 
L 224.715932 218.007143 
z
" style="fill:#1f77b4;"/>
   </g>
   <g id="patch_33">
    <path clip-path="url(#p91343e3238)" d="M 228.898978 252 
L 233.082023 252 
L 233.082023 227.071905 
L 228.898978 227.071905 
z
" style="fill:#1f77b4;"/>
   </g>
   <g id="patch_34">
    <path clip-path="url(#p91343e3238)" d="M 233.082023 252 
L 237.265068 252 
L 237.265068 238.402857 
L 233.082023 238.402857 
z
" style="fill:#1f77b4;"/>
   </g>
   <g id="patch_35">
    <path clip-path="url(#p91343e3238)" d="M 237.265068 252 
L 241.448114 252 
L 241.448114 239.913651 
L 237.265068 239.913651 
z
" style="fill:#1f77b4;"/>
   </g>
   <g id="patch_36">
    <path clip-path="url(#p91343e3238)" d="M 241.448114 252 
L 245.631159 252 
L 245.631159 242.935238 
L 241.448114 242.935238 
z
" style="fill:#1f77b4;"/>
   </g>
   <g id="patch_37">
    <path clip-path="url(#p91343e3238)" d="M 245.631159 252 
L 249.814204 252 
L 249.814204 246.208624 
L 245.631159 246.208624 
z
" style="fill:#1f77b4;"/>
   </g>
   <g id="patch_38">
    <path clip-path="url(#p91343e3238)" d="M 249.814204 252 
L 253.99725 252 
L 253.99725 249.230212 
L 249.814204 249.230212 
z
" style="fill:#1f77b4;"/>
   </g>
   <g id="patch_39">
    <path clip-path="url(#p91343e3238)" d="M 253.99725 252 
L 258.180295 252 
L 258.180295 249.230212 
L 253.99725 249.230212 
z
" style="fill:#1f77b4;"/>
   </g>
   <g id="patch_40">
    <path clip-path="url(#p91343e3238)" d="M 258.180295 252 
L 262.363341 252 
L 262.363341 251.244603 
L 258.180295 251.244603 
z
" style="fill:#1f77b4;"/>
   </g>
   <g id="patch_41">
    <path clip-path="url(#p91343e3238)" d="M 262.363341 252 
L 266.546386 252 
L 266.546386 250.741005 
L 262.363341 250.741005 
z
" style="fill:#1f77b4;"/>
   </g>
   <g id="patch_42">
    <path clip-path="url(#p91343e3238)" d="M 266.546386 252 
L 270.729431 252 
L 270.729431 250.992804 
L 266.546386 250.992804 
z
" style="fill:#1f77b4;"/>
   </g>
   <g id="patch_43">
    <path clip-path="url(#p91343e3238)" d="M 270.729431 252 
L 274.912477 252 
L 274.912477 251.244603 
L 270.729431 251.244603 
z
" style="fill:#1f77b4;"/>
   </g>
   <g id="patch_44">
    <path clip-path="url(#p91343e3238)" d="M 274.912477 252 
L 279.095522 252 
L 279.095522 249.482011 
L 274.912477 249.482011 
z
" style="fill:#1f77b4;"/>
   </g>
   <g id="patch_45">
    <path clip-path="url(#p91343e3238)" d="M 279.095522 252 
L 283.278568 252 
L 283.278568 247.21582 
L 279.095522 247.21582 
z
" style="fill:#1f77b4;"/>
   </g>
   <g id="patch_46">
    <path clip-path="url(#p91343e3238)" d="M 283.278568 252 
L 287.461613 252 
L 287.461613 238.402857 
L 283.278568 238.402857 
z
" style="fill:#1f77b4;"/>
   </g>
   <g id="patch_47">
    <path clip-path="url(#p91343e3238)" d="M 287.461613 252 
L 291.644658 252 
L 291.644658 230.093492 
L 287.461613 230.093492 
z
" style="fill:#1f77b4;"/>
   </g>
   <g id="patch_48">
    <path clip-path="url(#p91343e3238)" d="M 291.644658 252 
L 295.827704 252 
L 295.827704 210.704974 
L 291.644658 210.704974 
z
" style="fill:#1f77b4;"/>
   </g>
   <g id="patch_49">
    <path clip-path="url(#p91343e3238)" d="M 295.827704 252 
L 300.010749 252 
L 300.010749 185.776879 
L 295.827704 185.776879 
z
" style="fill:#1f77b4;"/>
   </g>
   <g id="patch_50">
    <path clip-path="url(#p91343e3238)" d="M 300.010749 252 
L 304.193794 252 
L 304.193794 158.078995 
L 300.010749 158.078995 
z
" style="fill:#1f77b4;"/>
   </g>
   <g id="patch_51">
    <path clip-path="url(#p91343e3238)" d="M 304.193794 252 
L 308.37684 252 
L 308.37684 134.661694 
L 304.193794 134.661694 
z
" style="fill:#1f77b4;"/>
   </g>
   <g id="patch_52">
    <path clip-path="url(#p91343e3238)" d="M 308.37684 252 
L 312.559885 252 
L 312.559885 119.301959 
L 308.37684 119.301959 
z
" style="fill:#1f77b4;"/>
   </g>
   <g id="patch_53">
    <path clip-path="url(#p91343e3238)" d="M 312.559885 252 
L 316.742931 252 
L 316.742931 109.733599 
L 312.559885 109.733599 
z
" style="fill:#1f77b4;"/>
   </g>
   <g id="patch_54">
    <path clip-path="url(#p91343e3238)" d="M 316.742931 252 
L 320.925976 252 
L 320.925976 129.625715 
L 316.742931 129.625715 
z
" style="fill:#1f77b4;"/>
   </g>
   <g id="patch_55">
    <path clip-path="url(#p91343e3238)" d="M 320.925976 252 
L 325.109021 252 
L 325.109021 152.539419 
L 320.925976 152.539419 
z
" style="fill:#1f77b4;"/>
   </g>
   <g id="patch_56">
    <path clip-path="url(#p91343e3238)" d="M 325.109021 252 
L 329.292067 252 
L 329.292067 181.748096 
L 325.109021 181.748096 
z
" style="fill:#1f77b4;"/>
   </g>
   <g id="patch_57">
    <path clip-path="url(#p91343e3238)" d="M 329.292067 252 
L 333.475112 252 
L 333.475112 210.201376 
L 329.292067 210.201376 
z
" style="fill:#1f77b4;"/>
   </g>
   <g id="patch_58">
    <path clip-path="url(#p91343e3238)" d="M 333.475112 252 
L 337.658157 252 
L 337.658157 225.057513 
L 333.475112 225.057513 
z
" style="fill:#1f77b4;"/>
   </g>
   <g id="patch_59">
    <path clip-path="url(#p91343e3238)" d="M 337.658157 252 
L 341.841203 252 
L 341.841203 239.410053 
L 337.658157 239.410053 
z
" style="fill:#1f77b4;"/>
   </g>
   <g id="patch_60">
    <path clip-path="url(#p91343e3238)" d="M 341.841203 252 
L 346.024248 252 
L 346.024248 245.956825 
L 341.841203 245.956825 
z
" style="fill:#1f77b4;"/>
   </g>
   <g id="patch_61">
    <path clip-path="url(#p91343e3238)" d="M 346.024248 252 
L 350.207294 252 
L 350.207294 249.985608 
L 346.024248 249.985608 
z
" style="fill:#1f77b4;"/>
   </g>
   <g id="patch_62">
    <path clip-path="url(#p91343e3238)" d="M 350.207294 252 
L 354.390339 252 
L 354.390339 251.748201 
L 350.207294 251.748201 
z
" style="fill:#1f77b4;"/>
   </g>
   <g id="matplotlib.axis_1">
    <g id="xtick_1">
     <g id="line2d_1">
      <defs>
       <path d="M 0 0 
L 0 3.5 
" id="mf67819f19d" style="stroke:#000000;stroke-width:0.8;"/>
      </defs>
      <g>
       <use style="stroke:#000000;stroke-width:0.8;" x="69.218182" xlink:href="#mf67819f19d" y="252"/>
      </g>
     </g>
     <g id="text_1">
      <!-- −15 -->
      <g transform="translate(58.665838 266.598437)scale(0.1 -0.1)">
       <defs>
        <path d="M 678 2272 
L 4684 2272 
L 4684 1741 
L 678 1741 
L 678 2272 
z
" id="DejaVuSans-2212" transform="scale(0.015625)"/>
        <path d="M 794 531 
L 1825 531 
L 1825 4091 
L 703 3866 
L 703 4441 
L 1819 4666 
L 2450 4666 
L 2450 531 
L 3481 531 
L 3481 0 
L 794 0 
L 794 531 
z
" id="DejaVuSans-31" transform="scale(0.015625)"/>
        <path d="M 691 4666 
L 3169 4666 
L 3169 4134 
L 1269 4134 
L 1269 2991 
Q 1406 3038 1543 3061 
Q 1681 3084 1819 3084 
Q 2600 3084 3056 2656 
Q 3513 2228 3513 1497 
Q 3513 744 3044 326 
Q 2575 -91 1722 -91 
Q 1428 -91 1123 -41 
Q 819 9 494 109 
L 494 744 
Q 775 591 1075 516 
Q 1375 441 1709 441 
Q 2250 441 2565 725 
Q 2881 1009 2881 1497 
Q 2881 1984 2565 2268 
Q 2250 2553 1709 2553 
Q 1456 2553 1204 2497 
Q 953 2441 691 2322 
L 691 4666 
z
" id="DejaVuSans-35" transform="scale(0.015625)"/>
       </defs>
       <use xlink:href="#DejaVuSans-2212"/>
       <use x="83.789062" xlink:href="#DejaVuSans-31"/>
       <use x="147.412109" xlink:href="#DejaVuSans-35"/>
      </g>
     </g>
    </g>
    <g id="xtick_2">
     <g id="line2d_2">
      <g>
       <use style="stroke:#000000;stroke-width:0.8;" x="130.090909" xlink:href="#mf67819f19d" y="252"/>
      </g>
     </g>
     <g id="text_2">
      <!-- −10 -->
      <g transform="translate(119.538565 266.598437)scale(0.1 -0.1)">
       <defs>
        <path d="M 2034 4250 
Q 1547 4250 1301 3770 
Q 1056 3291 1056 2328 
Q 1056 1369 1301 889 
Q 1547 409 2034 409 
Q 2525 409 2770 889 
Q 3016 1369 3016 2328 
Q 3016 3291 2770 3770 
Q 2525 4250 2034 4250 
z
M 2034 4750 
Q 2819 4750 3233 4129 
Q 3647 3509 3647 2328 
Q 3647 1150 3233 529 
Q 2819 -91 2034 -91 
Q 1250 -91 836 529 
Q 422 1150 422 2328 
Q 422 3509 836 4129 
Q 1250 4750 2034 4750 
z
" id="DejaVuSans-30" transform="scale(0.015625)"/>
       </defs>
       <use xlink:href="#DejaVuSans-2212"/>
       <use x="83.789062" xlink:href="#DejaVuSans-31"/>
       <use x="147.412109" xlink:href="#DejaVuSans-30"/>
      </g>
     </g>
    </g>
    <g id="xtick_3">
     <g id="line2d_3">
      <g>
       <use style="stroke:#000000;stroke-width:0.8;" x="190.963636" xlink:href="#mf67819f19d" y="252"/>
      </g>
     </g>
     <g id="text_3">
      <!-- −5 -->
      <g transform="translate(183.592543 266.598437)scale(0.1 -0.1)">
       <use xlink:href="#DejaVuSans-2212"/>
       <use x="83.789062" xlink:href="#DejaVuSans-35"/>
      </g>
     </g>
    </g>
    <g id="xtick_4">
     <g id="line2d_4">
      <g>
       <use style="stroke:#000000;stroke-width:0.8;" x="251.836364" xlink:href="#mf67819f19d" y="252"/>
      </g>
     </g>
     <g id="text_4">
      <!-- 0 -->
      <g transform="translate(248.655114 266.598437)scale(0.1 -0.1)">
       <use xlink:href="#DejaVuSans-30"/>
      </g>
     </g>
    </g>
    <g id="xtick_5">
     <g id="line2d_5">
      <g>
       <use style="stroke:#000000;stroke-width:0.8;" x="312.709091" xlink:href="#mf67819f19d" y="252"/>
      </g>
     </g>
     <g id="text_5">
      <!-- 5 -->
      <g transform="translate(309.527841 266.598437)scale(0.1 -0.1)">
       <use xlink:href="#DejaVuSans-35"/>
      </g>
     </g>
    </g>
    <g id="xtick_6">
     <g id="line2d_6">
      <g>
       <use style="stroke:#000000;stroke-width:0.8;" x="373.581818" xlink:href="#mf67819f19d" y="252"/>
      </g>
     </g>
     <g id="text_6">
      <!-- 10 -->
      <g transform="translate(367.219318 266.598437)scale(0.1 -0.1)">
       <use xlink:href="#DejaVuSans-31"/>
       <use x="63.623047" xlink:href="#DejaVuSans-30"/>
      </g>
     </g>
    </g>
   </g>
   <g id="matplotlib.axis_2">
    <g id="ytick_1">
     <g id="line2d_7">
      <defs>
       <path d="M 0 0 
L -3.5 0 
" id="m2e925784f1" style="stroke:#000000;stroke-width:0.8;"/>
      </defs>
      <g>
       <use style="stroke:#000000;stroke-width:0.8;" x="54" xlink:href="#m2e925784f1" y="252"/>
      </g>
     </g>
     <g id="text_7">
      <!-- 0.00 -->
      <g transform="translate(24.734375 255.799219)scale(0.1 -0.1)">
       <defs>
        <path d="M 684 794 
L 1344 794 
L 1344 0 
L 684 0 
L 684 794 
z
" id="DejaVuSans-2e" transform="scale(0.015625)"/>
       </defs>
       <use xlink:href="#DejaVuSans-30"/>
       <use x="63.623047" xlink:href="#DejaVuSans-2e"/>
       <use x="95.410156" xlink:href="#DejaVuSans-30"/>
       <use x="159.033203" xlink:href="#DejaVuSans-30"/>
      </g>
     </g>
    </g>
    <g id="ytick_2">
     <g id="line2d_8">
      <g>
       <use style="stroke:#000000;stroke-width:0.8;" x="54" xlink:href="#m2e925784f1" y="208.74227"/>
      </g>
     </g>
     <g id="text_8">
      <!-- 0.05 -->
      <g transform="translate(24.734375 212.541489)scale(0.1 -0.1)">
       <use xlink:href="#DejaVuSans-30"/>
       <use x="63.623047" xlink:href="#DejaVuSans-2e"/>
       <use x="95.410156" xlink:href="#DejaVuSans-30"/>
       <use x="159.033203" xlink:href="#DejaVuSans-35"/>
      </g>
     </g>
    </g>
    <g id="ytick_3">
     <g id="line2d_9">
      <g>
       <use style="stroke:#000000;stroke-width:0.8;" x="54" xlink:href="#m2e925784f1" y="165.484541"/>
      </g>
     </g>
     <g id="text_9">
      <!-- 0.10 -->
      <g transform="translate(24.734375 169.28376)scale(0.1 -0.1)">
       <use xlink:href="#DejaVuSans-30"/>
       <use x="63.623047" xlink:href="#DejaVuSans-2e"/>
       <use x="95.410156" xlink:href="#DejaVuSans-31"/>
       <use x="159.033203" xlink:href="#DejaVuSans-30"/>
      </g>
     </g>
    </g>
    <g id="ytick_4">
     <g id="line2d_10">
      <g>
       <use style="stroke:#000000;stroke-width:0.8;" x="54" xlink:href="#m2e925784f1" y="122.226811"/>
      </g>
     </g>
     <g id="text_10">
      <!-- 0.15 -->
      <g transform="translate(24.734375 126.02603)scale(0.1 -0.1)">
       <use xlink:href="#DejaVuSans-30"/>
       <use x="63.623047" xlink:href="#DejaVuSans-2e"/>
       <use x="95.410156" xlink:href="#DejaVuSans-31"/>
       <use x="159.033203" xlink:href="#DejaVuSans-35"/>
      </g>
     </g>
    </g>
    <g id="ytick_5">
     <g id="line2d_11">
      <g>
       <use style="stroke:#000000;stroke-width:0.8;" x="54" xlink:href="#m2e925784f1" y="78.969082"/>
      </g>
     </g>
     <g id="text_11">
      <!-- 0.20 -->
      <g transform="translate(24.734375 82.7683)scale(0.1 -0.1)">
       <defs>
        <path d="M 1228 531 
L 3431 531 
L 3431 0 
L 469 0 
L 469 531 
Q 828 903 1448 1529 
Q 2069 2156 2228 2338 
Q 2531 2678 2651 2914 
Q 2772 3150 2772 3378 
Q 2772 3750 2511 3984 
Q 2250 4219 1831 4219 
Q 1534 4219 1204 4116 
Q 875 4013 500 3803 
L 500 4441 
Q 881 4594 1212 4672 
Q 1544 4750 1819 4750 
Q 2544 4750 2975 4387 
Q 3406 4025 3406 3419 
Q 3406 3131 3298 2873 
Q 3191 2616 2906 2266 
Q 2828 2175 2409 1742 
Q 1991 1309 1228 531 
z
" id="DejaVuSans-32" transform="scale(0.015625)"/>
       </defs>
       <use xlink:href="#DejaVuSans-30"/>
       <use x="63.623047" xlink:href="#DejaVuSans-2e"/>
       <use x="95.410156" xlink:href="#DejaVuSans-32"/>
       <use x="159.033203" xlink:href="#DejaVuSans-30"/>
      </g>
     </g>
    </g>
    <g id="ytick_6">
     <g id="line2d_12">
      <g>
       <use style="stroke:#000000;stroke-width:0.8;" x="54" xlink:href="#m2e925784f1" y="35.711352"/>
      </g>
     </g>
     <g id="text_12">
      <!-- 0.25 -->
      <g transform="translate(24.734375 39.510571)scale(0.1 -0.1)">
       <use xlink:href="#DejaVuSans-30"/>
       <use x="63.623047" xlink:href="#DejaVuSans-2e"/>
       <use x="95.410156" xlink:href="#DejaVuSans-32"/>
       <use x="159.033203" xlink:href="#DejaVuSans-35"/>
      </g>
     </g>
    </g>
   </g>
   <g id="line2d_13">
    <path clip-path="url(#p91343e3238)" d="M 69.218182 251.999743 
L 103.6457 251.888694 
L 111.871744 251.646908 
L 117.355774 251.284521 
L 121.925799 250.760177 
L 125.581818 250.123474 
L 128.93317 249.310023 
L 131.979853 248.328991 
L 134.721867 247.208128 
L 137.159214 245.991812 
L 139.59656 244.541865 
L 142.033907 242.834307 
L 144.471253 240.848103 
L 146.9086 238.566767 
L 149.345946 235.980068 
L 151.783292 233.085748 
L 154.525307 229.471507 
L 157.57199 225.044104 
L 160.923342 219.751153 
L 165.493366 212.058112 
L 172.500737 200.217411 
L 175.54742 195.507777 
L 177.984767 192.112389 
L 180.117445 189.49035 
L 181.945455 187.54646 
L 183.773464 185.91564 
L 185.296806 184.815034 
L 186.820147 183.962922 
L 188.343489 183.369155 
L 189.86683 183.040648 
L 191.390172 182.981241 
L 192.913514 183.191633 
L 194.436855 183.669358 
L 195.960197 184.408842 
L 197.483538 185.401505 
L 199.00688 186.635931 
L 200.834889 188.416437 
L 202.662899 190.496073 
L 204.795577 193.256465 
L 207.232924 196.780982 
L 210.279607 201.605873 
L 214.849631 209.335384 
L 221.552334 220.642864 
L 224.903686 225.870586 
L 227.950369 230.223697 
L 230.692383 233.763577 
L 233.434398 236.920476 
L 235.871744 239.399597 
L 238.309091 241.576115 
L 240.746437 243.462645 
L 243.183784 245.077452 
L 245.62113 246.442759 
L 248.363145 247.711202 
L 251.10516 248.731502 
L 254.151843 249.617629 
L 257.503194 250.343161 
L 261.159214 250.891285 
L 264.815233 251.215596 
L 268.166585 251.290357 
L 270.603931 251.148456 
L 272.736609 250.809818 
L 274.564619 250.280394 
L 276.087961 249.60101 
L 277.306634 248.851843 
L 278.525307 247.872746 
L 279.74398 246.61256 
L 280.962654 245.012931 
L 282.181327 243.008744 
L 283.4 240.529081 
L 284.618673 237.498781 
L 285.837346 233.840683 
L 287.05602 229.478584 
L 288.274693 224.340897 
L 289.493366 218.364968 
L 291.016708 209.643486 
L 292.540049 199.484567 
L 294.063391 187.897244 
L 295.8914 172.232424 
L 298.024079 151.944896 
L 305.640786 77.030239 
L 307.164128 65.313935 
L 308.382801 57.582384 
L 309.296806 52.887874 
L 310.210811 49.226098 
L 311.124816 46.657594 
L 311.734152 45.574584 
L 312.343489 45.00503 
L 312.648157 44.914286 
L 312.952826 44.953204 
L 313.257494 45.121713 
L 313.86683 45.845993 
L 314.476167 47.081699 
L 315.085504 48.819602 
L 315.999509 52.338847 
L 316.913514 56.899873 
L 318.132187 64.470968 
L 319.35086 73.545362 
L 320.874201 86.620182 
L 323.00688 107.190852 
L 329.709582 173.884954 
L 331.537592 189.370212 
L 333.365602 202.905144 
L 334.888943 212.60548 
L 336.412285 220.880243 
L 337.935627 227.798787 
L 339.1543 232.430385 
L 340.372973 236.333363 
L 341.591646 239.582972 
L 342.810319 242.25666 
L 344.028993 244.430861 
L 345.247666 246.17852 
L 346.466339 247.567297 
L 347.685012 248.658416 
L 349.208354 249.685606 
L 350.731695 250.421942 
L 352.559705 251.023729 
L 354.692383 251.458144 
L 357.434398 251.757025 
L 361.395086 251.930251 
L 369.316462 251.995816 
L 373.581818 251.999228 
L 373.581818 251.999228 
" style="fill:none;stroke:#ff0000;stroke-linecap:square;stroke-width:1.5;"/>
   </g>
   <g id="patch_63">
    <path d="M 54 252 
L 54 34.56 
" style="fill:none;stroke:#000000;stroke-linecap:square;stroke-linejoin:miter;stroke-width:0.8;"/>
   </g>
   <g id="patch_64">
    <path d="M 388.8 252 
L 388.8 34.56 
" style="fill:none;stroke:#000000;stroke-linecap:square;stroke-linejoin:miter;stroke-width:0.8;"/>
   </g>
   <g id="patch_65">
    <path d="M 54 252 
L 388.8 252 
" style="fill:none;stroke:#000000;stroke-linecap:square;stroke-linejoin:miter;stroke-width:0.8;"/>
   </g>
   <g id="patch_66">
    <path d="M 54 34.56 
L 388.8 34.56 
" style="fill:none;stroke:#000000;stroke-linecap:square;stroke-linejoin:miter;stroke-width:0.8;"/>
   </g>
   <g id="legend_1">
    <g id="patch_67">
     <path d="M 61 71.91625 
L 156.80625 71.91625 
Q 158.80625 71.91625 158.80625 69.91625 
L 158.80625 41.56 
Q 158.80625 39.56 156.80625 39.56 
L 61 39.56 
Q 59 39.56 59 41.56 
L 59 69.91625 
Q 59 71.91625 61 71.91625 
z
" style="fill:#ffffff;opacity:0.8;stroke:#cccccc;stroke-linejoin:miter;"/>
    </g>
    <g id="line2d_14">
     <path d="M 63 47.658437 
L 83 47.658437 
" style="fill:none;stroke:#ff0000;stroke-linecap:square;stroke-width:1.5;"/>
    </g>
    <g id="line2d_15"/>
    <g id="text_13">
     <!-- Target -->
     <g transform="translate(91 51.158437)scale(0.1 -0.1)">
      <defs>
       <path d="M -19 4666 
L 3928 4666 
L 3928 4134 
L 2272 4134 
L 2272 0 
L 1638 0 
L 1638 4134 
L -19 4134 
L -19 4666 
z
" id="DejaVuSans-54" transform="scale(0.015625)"/>
       <path d="M 2194 1759 
Q 1497 1759 1228 1600 
Q 959 1441 959 1056 
Q 959 750 1161 570 
Q 1363 391 1709 391 
Q 2188 391 2477 730 
Q 2766 1069 2766 1631 
L 2766 1759 
L 2194 1759 
z
M 3341 1997 
L 3341 0 
L 2766 0 
L 2766 531 
Q 2569 213 2275 61 
Q 1981 -91 1556 -91 
Q 1019 -91 701 211 
Q 384 513 384 1019 
Q 384 1609 779 1909 
Q 1175 2209 1959 2209 
L 2766 2209 
L 2766 2266 
Q 2766 2663 2505 2880 
Q 2244 3097 1772 3097 
Q 1472 3097 1187 3025 
Q 903 2953 641 2809 
L 641 3341 
Q 956 3463 1253 3523 
Q 1550 3584 1831 3584 
Q 2591 3584 2966 3190 
Q 3341 2797 3341 1997 
z
" id="DejaVuSans-61" transform="scale(0.015625)"/>
       <path d="M 2631 2963 
Q 2534 3019 2420 3045 
Q 2306 3072 2169 3072 
Q 1681 3072 1420 2755 
Q 1159 2438 1159 1844 
L 1159 0 
L 581 0 
L 581 3500 
L 1159 3500 
L 1159 2956 
Q 1341 3275 1631 3429 
Q 1922 3584 2338 3584 
Q 2397 3584 2469 3576 
Q 2541 3569 2628 3553 
L 2631 2963 
z
" id="DejaVuSans-72" transform="scale(0.015625)"/>
       <path d="M 2906 1791 
Q 2906 2416 2648 2759 
Q 2391 3103 1925 3103 
Q 1463 3103 1205 2759 
Q 947 2416 947 1791 
Q 947 1169 1205 825 
Q 1463 481 1925 481 
Q 2391 481 2648 825 
Q 2906 1169 2906 1791 
z
M 3481 434 
Q 3481 -459 3084 -895 
Q 2688 -1331 1869 -1331 
Q 1566 -1331 1297 -1286 
Q 1028 -1241 775 -1147 
L 775 -588 
Q 1028 -725 1275 -790 
Q 1522 -856 1778 -856 
Q 2344 -856 2625 -561 
Q 2906 -266 2906 331 
L 2906 616 
Q 2728 306 2450 153 
Q 2172 0 1784 0 
Q 1141 0 747 490 
Q 353 981 353 1791 
Q 353 2603 747 3093 
Q 1141 3584 1784 3584 
Q 2172 3584 2450 3431 
Q 2728 3278 2906 2969 
L 2906 3500 
L 3481 3500 
L 3481 434 
z
" id="DejaVuSans-67" transform="scale(0.015625)"/>
       <path d="M 3597 1894 
L 3597 1613 
L 953 1613 
Q 991 1019 1311 708 
Q 1631 397 2203 397 
Q 2534 397 2845 478 
Q 3156 559 3463 722 
L 3463 178 
Q 3153 47 2828 -22 
Q 2503 -91 2169 -91 
Q 1331 -91 842 396 
Q 353 884 353 1716 
Q 353 2575 817 3079 
Q 1281 3584 2069 3584 
Q 2775 3584 3186 3129 
Q 3597 2675 3597 1894 
z
M 3022 2063 
Q 3016 2534 2758 2815 
Q 2500 3097 2075 3097 
Q 1594 3097 1305 2825 
Q 1016 2553 972 2059 
L 3022 2063 
z
" id="DejaVuSans-65" transform="scale(0.015625)"/>
       <path d="M 1172 4494 
L 1172 3500 
L 2356 3500 
L 2356 3053 
L 1172 3053 
L 1172 1153 
Q 1172 725 1289 603 
Q 1406 481 1766 481 
L 2356 481 
L 2356 0 
L 1766 0 
Q 1100 0 847 248 
Q 594 497 594 1153 
L 594 3053 
L 172 3053 
L 172 3500 
L 594 3500 
L 594 4494 
L 1172 4494 
z
" id="DejaVuSans-74" transform="scale(0.015625)"/>
      </defs>
      <use xlink:href="#DejaVuSans-54"/>
      <use x="44.583984" xlink:href="#DejaVuSans-61"/>
      <use x="105.863281" xlink:href="#DejaVuSans-72"/>
      <use x="145.226562" xlink:href="#DejaVuSans-67"/>
      <use x="208.703125" xlink:href="#DejaVuSans-65"/>
      <use x="270.226562" xlink:href="#DejaVuSans-74"/>
     </g>
    </g>
    <g id="patch_68">
     <path d="M 63 65.836562 
L 83 65.836562 
L 83 58.836562 
L 63 58.836562 
z
" style="fill:#1f77b4;"/>
    </g>
    <g id="text_14">
     <!-- HMC Sample -->
     <g transform="translate(91 65.836562)scale(0.1 -0.1)">
      <defs>
       <path d="M 628 4666 
L 1259 4666 
L 1259 2753 
L 3553 2753 
L 3553 4666 
L 4184 4666 
L 4184 0 
L 3553 0 
L 3553 2222 
L 1259 2222 
L 1259 0 
L 628 0 
L 628 4666 
z
" id="DejaVuSans-48" transform="scale(0.015625)"/>
       <path d="M 628 4666 
L 1569 4666 
L 2759 1491 
L 3956 4666 
L 4897 4666 
L 4897 0 
L 4281 0 
L 4281 4097 
L 3078 897 
L 2444 897 
L 1241 4097 
L 1241 0 
L 628 0 
L 628 4666 
z
" id="DejaVuSans-4d" transform="scale(0.015625)"/>
       <path d="M 4122 4306 
L 4122 3641 
Q 3803 3938 3442 4084 
Q 3081 4231 2675 4231 
Q 1875 4231 1450 3742 
Q 1025 3253 1025 2328 
Q 1025 1406 1450 917 
Q 1875 428 2675 428 
Q 3081 428 3442 575 
Q 3803 722 4122 1019 
L 4122 359 
Q 3791 134 3420 21 
Q 3050 -91 2638 -91 
Q 1578 -91 968 557 
Q 359 1206 359 2328 
Q 359 3453 968 4101 
Q 1578 4750 2638 4750 
Q 3056 4750 3426 4639 
Q 3797 4528 4122 4306 
z
" id="DejaVuSans-43" transform="scale(0.015625)"/>
       <path id="DejaVuSans-20" transform="scale(0.015625)"/>
       <path d="M 3425 4513 
L 3425 3897 
Q 3066 4069 2747 4153 
Q 2428 4238 2131 4238 
Q 1616 4238 1336 4038 
Q 1056 3838 1056 3469 
Q 1056 3159 1242 3001 
Q 1428 2844 1947 2747 
L 2328 2669 
Q 3034 2534 3370 2195 
Q 3706 1856 3706 1288 
Q 3706 609 3251 259 
Q 2797 -91 1919 -91 
Q 1588 -91 1214 -16 
Q 841 59 441 206 
L 441 856 
Q 825 641 1194 531 
Q 1563 422 1919 422 
Q 2459 422 2753 634 
Q 3047 847 3047 1241 
Q 3047 1584 2836 1778 
Q 2625 1972 2144 2069 
L 1759 2144 
Q 1053 2284 737 2584 
Q 422 2884 422 3419 
Q 422 4038 858 4394 
Q 1294 4750 2059 4750 
Q 2388 4750 2728 4690 
Q 3069 4631 3425 4513 
z
" id="DejaVuSans-53" transform="scale(0.015625)"/>
       <path d="M 3328 2828 
Q 3544 3216 3844 3400 
Q 4144 3584 4550 3584 
Q 5097 3584 5394 3201 
Q 5691 2819 5691 2113 
L 5691 0 
L 5113 0 
L 5113 2094 
Q 5113 2597 4934 2840 
Q 4756 3084 4391 3084 
Q 3944 3084 3684 2787 
Q 3425 2491 3425 1978 
L 3425 0 
L 2847 0 
L 2847 2094 
Q 2847 2600 2669 2842 
Q 2491 3084 2119 3084 
Q 1678 3084 1418 2786 
Q 1159 2488 1159 1978 
L 1159 0 
L 581 0 
L 581 3500 
L 1159 3500 
L 1159 2956 
Q 1356 3278 1631 3431 
Q 1906 3584 2284 3584 
Q 2666 3584 2933 3390 
Q 3200 3197 3328 2828 
z
" id="DejaVuSans-6d" transform="scale(0.015625)"/>
       <path d="M 1159 525 
L 1159 -1331 
L 581 -1331 
L 581 3500 
L 1159 3500 
L 1159 2969 
Q 1341 3281 1617 3432 
Q 1894 3584 2278 3584 
Q 2916 3584 3314 3078 
Q 3713 2572 3713 1747 
Q 3713 922 3314 415 
Q 2916 -91 2278 -91 
Q 1894 -91 1617 61 
Q 1341 213 1159 525 
z
M 3116 1747 
Q 3116 2381 2855 2742 
Q 2594 3103 2138 3103 
Q 1681 3103 1420 2742 
Q 1159 2381 1159 1747 
Q 1159 1113 1420 752 
Q 1681 391 2138 391 
Q 2594 391 2855 752 
Q 3116 1113 3116 1747 
z
" id="DejaVuSans-70" transform="scale(0.015625)"/>
       <path d="M 603 4863 
L 1178 4863 
L 1178 0 
L 603 0 
L 603 4863 
z
" id="DejaVuSans-6c" transform="scale(0.015625)"/>
      </defs>
      <use xlink:href="#DejaVuSans-48"/>
      <use x="75.195312" xlink:href="#DejaVuSans-4d"/>
      <use x="161.474609" xlink:href="#DejaVuSans-43"/>
      <use x="231.298828" xlink:href="#DejaVuSans-20"/>
      <use x="263.085938" xlink:href="#DejaVuSans-53"/>
      <use x="326.5625" xlink:href="#DejaVuSans-61"/>
      <use x="387.841797" xlink:href="#DejaVuSans-6d"/>
      <use x="485.253906" xlink:href="#DejaVuSans-70"/>
      <use x="548.730469" xlink:href="#DejaVuSans-6c"/>
      <use x="576.513672" xlink:href="#DejaVuSans-65"/>
     </g>
    </g>
   </g>
  </g>
 </g>
 <defs>
  <clipPath id="p91343e3238">
   <rect height="217.44" width="334.8" x="54" y="34.56"/>
  </clipPath>
 </defs>
</svg>
