<svg width="1032" height="596" xmlns="http://www.w3.org/2000/svg" xmlns:xlink="http://www.w3.org/1999/xlink" xml:space="preserve" overflow="hidden"><defs><clipPath id="clip0"><rect x="1287" y="788" width="1032" height="596"/></clipPath></defs><g clip-path="url(#clip0)" transform="translate(-1287 -788)"><text fill="#000000" fill-opacity="1" font-family="Cambria Math,Cambria Math_MSFontService,sans-serif" font-style="normal" font-variant="normal" font-weight="400" font-stretch="normal" font-size="110" text-anchor="start" direction="ltr" writing-mode="lr-tb" unicode-bidi="normal" text-decoration="none" transform="translate(1327.36 892)">𝑊<tspan fill="#000000" fill-opacity="1" font-family="Cambria Math,Cambria Math_MSFontService,sans-serif" font-style="normal" font-variant="normal" font-weight="400" font-stretch="normal" font-size="110" text-anchor="start" direction="ltr" writing-mode="lr-tb" unicode-bidi="normal" text-decoration="none" x="0.0228271" y="449">𝐶</tspan><tspan fill="#000000" fill-opacity="1" font-family="Cambria Math,Cambria Math_MSFontService,sans-serif" font-style="normal" font-variant="normal" font-weight="400" font-stretch="normal" font-size="110" text-anchor="start" direction="ltr" writing-mode="lr-tb" unicode-bidi="normal" text-decoration="none" x="442.341" y="256">𝐷</tspan><tspan fill="#000000" fill-opacity="1" font-family="Cambria Math,Cambria Math_MSFontService,sans-serif" font-style="normal" font-variant="normal" font-weight="400" font-stretch="normal" font-size="110" text-anchor="start" direction="ltr" writing-mode="lr-tb" unicode-bidi="normal" text-decoration="none" x="885.335" y="256">𝑌</tspan></text><path d="M1452.3 852.034 1724.48 1078.24 1717.89 1086.17 1445.7 859.965ZM1733.69 1059.09 1756.87 1111.87 1700.74 1098.74Z" fill="#000000" fill-rule="nonzero" fill-opacity="1"/><path d="M2.21008-4.65859 300.194 136.708 295.774 146.025-2.21008 4.65859ZM304.376 115.863 339.912 161.257 282.275 162.449Z" fill="#000000" fill-rule="nonzero" fill-opacity="1" transform="matrix(1 0 0 -1 1411 1304.26)"/><path d="M0.048977-5.15602 298.353-2.32243 298.255 7.9896-0.048977 5.15602ZM293.393-22.9955 344.708 3.27438 292.903 28.5647Z" fill="#000000" fill-rule="nonzero" fill-opacity="1" transform="matrix(1 0 0 -1 1855 1115.27)"/><path d="M0.812123-5.09189 744.079 113.454 742.455 123.638-0.812123 5.09189ZM742.235 92.2744 789.093 125.855 734.113 143.193Z" fill="#000000" fill-rule="nonzero" fill-opacity="1" transform="matrix(1 0 0 -1 1411 1303.86)"/><path d="M1450.37 851.028 2156.49 1045.21 2153.75 1055.15 1447.63 860.972ZM2156.98 1023.95 2199.86 1062.48 2143.31 1073.67Z" fill="#000000" fill-rule="nonzero" fill-opacity="1"/></g></svg>