<svg width="2355" height="1219" xmlns="http://www.w3.org/2000/svg" xmlns:xlink="http://www.w3.org/1999/xlink" xml:space="preserve" overflow="hidden"><defs><clipPath id="clip0"><path d="M1216.11 1315.27 1257.34 1343.56 1274.06 1319.3 1232.84 1291.03Z" fill-rule="nonzero" clip-rule="nonzero"/></clipPath><clipPath id="clip1"><path d="M1209.75 1316.45 1258.52 1349.91 1280.43 1318.12 1231.66 1284.68Z" fill-rule="nonzero" clip-rule="nonzero"/></clipPath><clipPath id="clip2"><path d="M1224.92 1348.64 1270.15 1379.68 1301.26 1334.54 1256.02 1303.52Z" fill-rule="nonzero" clip-rule="nonzero"/></clipPath><clipPath id="clip3"><path d="M1233.55 1351.8 1264.11 1372.76 1292.61 1331.39 1262.06 1310.44Z" fill-rule="nonzero" clip-rule="nonzero"/></clipPath><clipPath id="clip4"><path d="M1521.76 958.684 1476.53 989.72 1507.62 1034.84 1552.87 1003.82Z" fill-rule="nonzero" clip-rule="nonzero"/></clipPath><clipPath id="clip5"><path d="M1515.72 965.601 1485.16 986.565 1513.66 1027.92 1544.22 1006.98Z" fill-rule="nonzero" clip-rule="nonzero"/></clipPath><clipPath id="clip6"><path d="M1476.53 1348.64 1521.76 1379.68 1552.87 1334.54 1507.62 1303.52Z" fill-rule="nonzero" clip-rule="nonzero"/></clipPath><clipPath id="clip7"><path d="M1485.16 1351.8 1515.72 1372.76 1544.22 1331.39 1513.66 1310.44Z" fill-rule="nonzero" clip-rule="nonzero"/></clipPath><clipPath id="clip8"><path d="M2744.99 1211.53 2790.27 1242.65 2821.42 1197.4 2776.12 1166.3Z" fill-rule="nonzero" clip-rule="nonzero"/></clipPath><clipPath id="clip9"><path d="M2753.63 1214.7 2784.23 1235.71 2812.76 1194.23 2782.17 1173.23Z" fill-rule="nonzero" clip-rule="nonzero"/></clipPath></defs><g transform="translate(-967 -687)"><g><g><g><g><path d="M4.26058 0 4.26058-32.6585 8.57465-32.6585 8.57465 0Z" fill="#769DA5" fill-rule="nonzero" fill-opacity="1" transform="matrix(1.00242 0 0 1 1079.43 1616.66)"/><path d="M3.01271 0 3.01271-23.6739 6.61371-23.6739 6.61371-20.3046C8.36072-22.9073 10.8743-24.2087 14.1544-24.2087 15.5805-24.2087 16.8819-23.9413 18.0763-23.4243 19.2707-22.9251 20.1798-22.2477 20.7681-21.4099 21.3564-20.572 21.7842-19.5916 22.016-18.4506 22.1586-17.7019 22.2477-16.4006 22.2477-14.5466L22.2477 0 18.2189 0 18.2189-14.404C18.2189-16.0262 18.0763-17.2563 17.7554-18.0585 17.4523-18.8607 16.8997-19.5202 16.0975-20.0016 15.2953-20.4829 14.3683-20.7146 13.2987-20.7146 11.5874-20.7146 10.1256-20.1798 8.8777-19.0924 7.62983-18.005 7.02372-15.9549 7.02372-12.9244L7.02372 0Z" fill="#769DA5" fill-rule="nonzero" fill-opacity="1" transform="matrix(1.00242 0 0 1 1092.14 1616.66)"/><path d="M3.01271 9.07379 3.01271-23.6739 6.66719-23.6739 6.66719-20.5898C7.52287-21.7842 8.50334-22.6934 9.59077-23.2995 10.6604-23.9056 11.9795-24.2087 13.5305-24.2087 15.5449-24.2087 17.3276-23.6739 18.8785-22.6399 20.4294-21.606 21.5881-20.1263 22.3725-18.2367 23.1569-16.3471 23.5491-14.2614 23.5491-12.0152 23.5491-9.59077 23.1212-7.41591 22.2477-5.4728 21.3742-3.52969 20.1263-2.05007 18.4685-1.01612 16.8106 0.0178267 15.0636 0.534803 13.2274 0.534803 11.8904 0.534803 10.696 0.249574 9.64425-0.320881 8.57465-0.873507 7.70114-1.58658 7.02372-2.46008L7.02372 9.07379ZM6.63153-11.6943C6.63153-8.64595 7.25547-6.39979 8.48551-4.95583 9.71555-3.49403 11.213-2.76314 12.9778-2.76314 14.7605-2.76314 16.2758-3.51186 17.5415-5.02713 18.825-6.52458 19.4489-8.8777 19.4489-12.033 19.4489-15.0457 18.825-17.3097 17.595-18.8072 16.3471-20.3046 14.8675-21.0533 13.1561-21.0533 11.4447-21.0533 9.92947-20.2511 8.6103-18.6646 7.29112-17.0602 6.63153-14.7427 6.63153-11.6943Z" fill="#769DA5" fill-rule="nonzero" fill-opacity="1" transform="matrix(1.00242 0 0 1 1117.58 1616.66)"/><path d="M18.5219 0 18.5219-3.47621C16.6858-0.802201 14.1722 0.534803 11.0169 0.534803 9.6086 0.534803 8.30724 0.267401 7.09503-0.267401 5.88281-0.802201 4.99148-1.47962 4.4032-2.28182 3.81492-3.10185 3.4049-4.08231 3.17315-5.25888 2.99489-6.04325 2.92358-7.29112 2.92358-9.00249L2.92358-23.6739 6.93459-23.6739 6.93459-10.5356C6.93459-8.44986 7.00589-7.04155 7.16633-6.31065 7.41591-5.25888 7.96854-4.42102 8.77074-3.81492 9.59077-3.20881 10.6069-2.92358 11.8013-2.92358 13.0135-2.92358 14.1366-3.22663 15.1884-3.85057 16.258-4.45667 17.0067-5.29453 17.4345-6.36413 17.8802-7.41591 18.0941-8.96683 18.0941-10.9813L18.0941-23.6739 22.1051-23.6739 22.1051 0Z" fill="#769DA5" fill-rule="nonzero" fill-opacity="1" transform="matrix(1.00242 0 0 1 1143.02 1616.66)"/><path d="M11.7656-3.58317 12.3361-0.0356534C11.213 0.196094 10.1969 0.320881 9.30554 0.320881 7.86158 0.320881 6.73849 0.0891333 5.91847-0.374361 5.11627-0.837856 4.56364-1.44396 4.24276-2.19269 3.90405-2.94141 3.74361-4.52799 3.74361-6.93459L3.74361-20.5364 0.802201-20.5364 0.802201-23.6739 3.74361-23.6739 3.74361-29.521 7.73679-31.9276 7.73679-23.6739 11.7656-23.6739 11.7656-20.5364 7.73679-20.5364 7.73679-6.70284C7.73679-5.56193 7.8081-4.83104 7.95071-4.49233 8.09333-4.17145 8.30724-3.92188 8.62813-3.72578 8.94901-3.52969 9.4125-3.42273 10.0008-3.42273 10.4464-3.42273 11.0347-3.47621 11.7656-3.58317Z" fill="#769DA5" fill-rule="nonzero" fill-opacity="1" transform="matrix(1.00242 0 0 1 1168.46 1616.66)"/><path d="M27.257-23.6382 22.2121 0 18.6289 0 19.3598-3.47621 19.2707-3.47621C18.7894-2.97706 18.2902-2.47791 17.7732-1.99659 17.2384-1.51527 16.6858-1.08743 16.0797-0.695243 15.4914-0.320881 14.8675-0.0178267 14.2079 0.21392 13.5483 0.445667 12.8531 0.552629 12.1222 0.552629 11.6408 0.552629 11.1773 0.499148 10.7138 0.374361 10.2325 0.249574 9.80469 0.0534803 9.39468-0.178267 8.98466-0.410014 8.6103-0.713068 8.28942-1.0696 7.96854-1.42614 7.70114-1.81833 7.50504-2.28182L5.09844 9.09162 1.08743 9.09162 8.03985-23.6382 12.0509-23.6382 9.05597-9.53729C8.94901-9.05597 8.85987-8.57465 8.78856-8.09333 8.71726-7.59417 8.69943-7.11286 8.69943-6.61371 8.69943-5.31236 9.02031-4.36754 9.66208-3.77926 10.3038-3.20881 11.2665-2.92358 12.5143-2.92358 13.5839-2.92358 14.5644-3.11967 15.4379-3.51186 16.2936-3.90405 17.0602-4.43885 17.7197-5.09844 18.3793-5.75803 18.932-6.52458 19.3955-7.39808 19.8411-8.27159 20.162-9.19858 20.3581-10.1791L23.246-23.6382Z" fill="#769DA5" fill-rule="nonzero" fill-opacity="1" transform="matrix(1.00242 0 0 1 1368.25 1669.14)"/><path d="M32.1772-23.1747C30.3411-22.5686 28.4871-22.1229 26.6509-21.8555 26.7757-21.2316 26.8648-20.6077 26.9183-19.9659 26.9718-19.3242 27.0075-18.6824 27.0075-18.0406 27.0075-16.5432 26.8827-15.0457 26.6509-13.5661 26.4192-12.0687 26.0448-10.6247 25.5278-9.25206 25.0287-7.86158 24.3869-6.57805 23.6204-5.38367 22.8538-4.18928 21.9269-3.15533 20.8394-2.28182 19.7698-1.39049 18.5398-0.713068 17.1493-0.196094 15.7766 0.303054 14.2257 0.552629 12.5143 0.552629 11.1773 0.552629 9.98296 0.374361 8.89553-0.0178267 7.8081-0.392188 6.88111-0.944814 6.09674-1.67571 5.31236-2.42443 4.70625-3.31577 4.29624-4.36754 3.86839-5.41932 3.65447-6.63153 3.65447-8.00419 3.65447-9.1451 3.76144-10.3038 3.99318-11.4804 4.2071-12.657 4.54581-13.7979 4.97365-14.9031 5.41932-16.0262 5.95412-17.078 6.61371-18.0763 7.25547-19.0746 8.00419-19.9481 8.8777-20.7146 9.92947-21.6773 11.0526-22.426 12.2648-22.9251 13.4592-23.4243 14.707-23.7808 15.9727-24.0126 17.2563-24.2443 18.5576-24.3869 19.8946-24.4582 21.2138-24.5295 22.5508-24.6009 23.87-24.69 25.207-24.7791 26.5261-24.9396 27.8275-25.1535 29.1288-25.3674 30.3767-25.7418 31.5889-26.2944ZM22.8895-17.8089C22.8895-18.3972 22.8538-18.9854 22.8004-19.5737 22.7469-20.162 22.6221-20.7325 22.4616-21.3029 21.4455-21.2316 20.4472-21.1781 19.4311-21.1425 18.415-21.1068 17.4167-21.0177 16.4006-20.8929 15.4736-20.7859 14.6357-20.5364 13.8692-20.1442 13.0848-19.752 12.3896-19.235 11.7478-18.6289 11.1239-18.0228 10.5712-17.3276 10.0899-16.561 9.6086-15.7945 9.19858-14.9744 8.8777-14.1188 8.53899-13.2809 8.28942-12.4074 8.12898-11.5161 7.96854-10.6247 7.8794-9.76904 7.8794-8.93118 7.8794-8.09333 8.00419-7.29112 8.21811-6.5424 8.43203-5.79368 8.75291-5.13409 9.19858-4.56364 9.62642-3.99318 10.1791-3.56534 10.8565-3.22663 11.5339-2.90575 12.3361-2.74531 13.2631-2.74531 14.4753-2.74531 15.5627-2.97706 16.5075-3.45838 17.4702-3.92188 18.2902-4.56364 19.0033-5.34801 19.7163-6.13239 20.3224-7.04155 20.8216-8.0755 21.3207-9.10945 21.7308-10.1791 22.0338-11.3021 22.3369-12.4074 22.5508-13.5305 22.6756-14.6536 22.8182-15.7766 22.8895-16.8284 22.8895-17.8089Z" fill="#769DA5" fill-rule="nonzero" fill-opacity="1" transform="matrix(1.00242 0 0 1 1365.78 1304.05)"/><path d="M11.8369 0 11.8369-28.808 1.0696-28.808 1.0696-32.6585 26.954-32.6585 26.954-28.808 16.151-28.808 16.151 0Z" fill="#769DA5" fill-rule="nonzero" fill-opacity="1" transform="matrix(1.00242 0 0 1 1315.8 886.477)"/><path d="M18.4506-2.92358C16.971-1.65788 15.5271-0.76655 14.1544-0.249574 12.7817 0.267401 11.32 0.534803 9.73338 0.534803 7.13068 0.534803 5.13409-0.10696 3.74361-1.37266 2.35313-2.63835 1.64006-4.26058 1.64006-6.23935 1.64006-7.39808 1.90746-8.44986 2.44226-9.4125 2.95924-10.3751 3.65447-11.1417 4.51016-11.73 5.36584-12.3004 6.32848-12.7461 7.39808-13.0313 8.18246-13.2452 9.37685-13.4413 10.9634-13.6374 14.2079-14.0296 16.5788-14.4753 18.1119-15.0101 18.1298-15.5627 18.1476-15.9192 18.1476-16.0619 18.1476-17.7019 17.7554-18.8607 17.0067-19.5202 15.9727-20.4294 14.4575-20.8751 12.443-20.8751 10.5534-20.8751 9.16292-20.5542 8.25377-19.8946 7.36243-19.235 6.68502-18.0585 6.25717-16.3827L2.3353-16.9175C2.69183-18.5933 3.28011-19.9481 4.10014-20.982 4.92017-22.016 6.09674-22.8004 7.64766-23.3708 9.19858-23.9234 10.9813-24.2087 13.0135-24.2087 15.0279-24.2087 16.668-23.9591 17.9337-23.4956 19.1994-23.0143 20.1263-22.4082 20.7146-21.6951 21.3207-20.9642 21.7308-20.055 21.9625-18.9676 22.1051-18.2902 22.1764-17.0423 22.1764-15.2597L22.1764-9.91165C22.1764-6.18587 22.2656-3.83274 22.426-2.83445 22.6043-1.85398 22.943-0.909163 23.4421 0L19.2528 0C18.8428-0.837856 18.5754-1.8005 18.4506-2.92358ZM18.1119-11.8726C16.6501-11.2843 14.4753-10.7852 11.5695-10.3573 9.91165-10.1256 8.75291-9.85817 8.05767-9.55511 7.38026-9.26989 6.86328-8.82422 6.48892-8.25377 6.11456-7.68331 5.91847-7.04155 5.91847-6.34631 5.91847-5.2767 6.32848-4.38537 7.14851-3.6723 7.95071-2.95924 9.12727-2.6027 10.696-2.6027 12.2469-2.6027 13.6196-2.94141 14.814-3.61882 16.0262-4.29624 16.8997-5.22322 17.4702-6.39979 17.898-7.30895 18.1119-8.64595 18.1119-10.4108Z" fill="#769DA5" fill-rule="nonzero" fill-opacity="1" transform="matrix(1.00242 0 0 1 1339.69 886.477)"/><path d="M2.95924 0 2.95924-23.6739 6.57805-23.6739 6.57805-20.0729C7.48722-21.7486 8.3429-22.8538 9.12727-23.3886 9.91165-23.9234 10.7673-24.2087 11.6943-24.2087 13.0491-24.2087 14.4218-23.763 15.8301-22.9073L14.4396-19.1815C13.4592-19.7698 12.4787-20.055 11.4982-20.055 10.6247-20.055 9.84034-19.7876 9.12727-19.2707 8.43203-18.7359 7.93288-18.005 7.64766-17.078 7.20199-15.6518 6.97024-14.0831 6.97024-12.3896L6.97024 0Z" fill="#769DA5" fill-rule="nonzero" fill-opacity="1" transform="matrix(1.00242 0 0 1 1366.15 886.477)"/><path d="M2.28182 1.96094 6.16804 2.53139C6.32848 3.74361 6.79197 4.61712 7.52287 5.16974 8.52117 5.91847 9.89382 6.275 11.6052 6.275 13.4592 6.275 14.9031 5.91847 15.9014 5.16974 16.9175 4.42102 17.6128 3.38708 17.9693 2.05007 18.1654 1.23004 18.2724-0.481322 18.2545-3.10185 16.5075-1.03395 14.3148 0 11.6943 0 8.44986 0 5.91847-1.17656 4.1358-3.52969 2.35313-5.86499 1.46179-8.68161 1.46179-11.9617 1.46179-14.2257 1.8718-16.3114 2.69183-18.2189 3.51186-20.1263 4.70625-21.606 6.25717-22.6399 7.8081-23.6739 9.62642-24.2087 11.73-24.2087 14.5109-24.2087 16.8106-23.0678 18.6289-20.8216L18.6289-23.6739 22.319-23.6739 22.319-3.20881C22.319 0.481322 21.9447 3.08402 21.196 4.61712 20.4472 6.16804 19.2707 7.38026 17.6306 8.27159 16.0084 9.16292 14.0118 9.6086 11.623 9.6086 8.80639 9.6086 6.52458 8.96683 4.79538 7.70114 3.04837 6.43544 2.21051 4.51016 2.28182 1.96094ZM5.59758-12.2648C5.59758-9.16292 6.20369-6.88111 7.45156-5.45497 8.68161-4.02883 10.2147-3.31577 12.0865-3.31577 13.9227-3.31577 15.4736-4.02883 16.7214-5.45497 17.9693-6.86328 18.5754-9.09162 18.5754-12.1222 18.5754-15.0101 17.9337-17.2028 16.6501-18.6824 15.3666-20.1442 13.8157-20.8751 12.0152-20.8751 10.2325-20.8751 8.71726-20.162 7.46939-18.7002 6.22152-17.2563 5.59758-15.117 5.59758-12.2648Z" fill="#769DA5" fill-rule="nonzero" fill-opacity="1" transform="matrix(1.00242 0 0 1 1382.39 886.477)"/><path d="M19.2172-7.62983 23.353-7.11286C22.6934-4.68842 21.4812-2.81662 19.7163-1.46179 17.9515-0.124787 15.6875 0.534803 12.9422 0.534803 9.48381 0.534803 6.73849-0.534803 4.70625-2.65618 2.67401-4.79538 1.67571-7.79027 1.67571-11.623 1.67571-15.6162 2.69183-18.7002 4.7419-20.8929 6.79197-23.1034 9.44815-24.2087 12.7283-24.2087 15.8836-24.2087 18.4685-23.1212 20.4829-20.9642 22.4795-18.8072 23.4956-15.7766 23.4956-11.8726 23.4956-11.6408 23.4778-11.2843 23.4599-10.803L5.81151-10.803C5.95412-8.20028 6.70284-6.22152 8.02202-4.83104 9.34119-3.45838 10.9991-2.76314 12.9778-2.76314 14.4396-2.76314 15.6875-3.15533 16.7393-3.92188 17.7732-4.68842 18.5933-5.91847 19.2172-7.62983ZM6.04325-14.1009 19.2528-14.1009C19.0746-16.0975 18.5754-17.595 17.7376-18.5754 16.4541-20.1263 14.7962-20.8929 12.7639-20.8929 10.9278-20.8929 9.37685-20.2868 8.12898-19.0567 6.86328-17.8267 6.16804-16.1688 6.04325-14.1009Z" fill="#769DA5" fill-rule="nonzero" fill-opacity="1" transform="matrix(1.00242 0 0 1 1408.85 886.477)"/><path d="M11.7656-3.58317 12.3361-0.0356534C11.213 0.196094 10.1969 0.320881 9.30554 0.320881 7.86158 0.320881 6.73849 0.0891333 5.91847-0.374361 5.11627-0.837856 4.56364-1.44396 4.24276-2.19269 3.90405-2.94141 3.74361-4.52799 3.74361-6.93459L3.74361-20.5364 0.802201-20.5364 0.802201-23.6739 3.74361-23.6739 3.74361-29.521 7.73679-31.9276 7.73679-23.6739 11.7656-23.6739 11.7656-20.5364 7.73679-20.5364 7.73679-6.70284C7.73679-5.56193 7.8081-4.83104 7.95071-4.49233 8.09333-4.17145 8.30724-3.92188 8.62813-3.72578 8.94901-3.52969 9.4125-3.42273 10.0008-3.42273 10.4464-3.42273 11.0347-3.47621 11.7656-3.58317Z" fill="#769DA5" fill-rule="nonzero" fill-opacity="1" transform="matrix(1.00242 0 0 1 1435.31 886.477)"/><path d="M2.92358 0 2.92358-32.6585 6.93459-32.6585 6.93459 0Z" fill="#769DA5" fill-rule="nonzero" fill-opacity="1" transform="matrix(1.00242 0 0 1 1592.84 1304.05)"/><path d="M1.51527-11.8369C1.51527-16.2223 2.72748-19.4668 5.16974-21.5703 7.20199-23.3173 9.6799-24.2087 12.6213-24.2087 15.8658-24.2087 18.5219-23.1391 20.5898-20.9999 22.6577-18.8607 23.6917-15.9192 23.6917-12.1578 23.6917-9.12727 23.2282-6.72067 22.319-4.97365 21.4099-3.22663 20.0729-1.8718 18.3259-0.909163 16.5788 0.0534803 14.6714 0.534803 12.6213 0.534803 9.30554 0.534803 6.61371-0.534803 4.58146-2.65618 2.53139-4.77756 1.51527-7.84375 1.51527-11.8369ZM5.63324-11.8369C5.63324-8.80639 6.29283-6.52458 7.62983-5.02713 8.94901-3.51186 10.6069-2.76314 12.6213-2.76314 14.6001-2.76314 16.258-3.52969 17.5771-5.02713 18.8963-6.5424 19.5737-8.85987 19.5737-11.9617 19.5737-14.8853 18.8963-17.1136 17.5771-18.6111 16.2401-20.1263 14.5822-20.8751 12.6213-20.8751 10.6069-20.8751 8.94901-20.1263 7.62983-18.6289 6.31065-17.1315 5.63324-14.8675 5.63324-11.8369Z" fill="#769DA5" fill-rule="nonzero" fill-opacity="1" transform="matrix(1.00242 0 0 1 1603 1304.05)"/><path d="M1.40831-7.05938 5.36584-7.68331C5.59758-6.09674 6.22152-4.88452 7.23764-4.02883 8.25377-3.19098 9.66208-2.76314 11.4982-2.76314 13.3344-2.76314 14.707-3.1375 15.5984-3.88622 16.4897-4.63494 16.9354-5.52628 16.9354-6.52458 16.9354-7.43374 16.5432-8.1468 15.7588-8.66378 15.2062-9.02031 13.8335-9.48381 11.6587-10.0186 8.71726-10.7673 6.66719-11.4091 5.54411-11.9617 4.4032-12.4965 3.54752-13.2452 2.95924-14.2079 2.37095-15.1705 2.0679-16.2223 2.0679-17.381 2.0679-18.4328 2.31747-19.4133 2.79879-20.3046 3.28011-21.2138 3.9397-21.9625 4.77756-22.5508 5.40149-23.0143 6.23935-23.4065 7.32678-23.7273 8.39638-24.0482 9.55511-24.2087 10.7852-24.2087 12.6391-24.2087 14.2792-23.9234 15.6697-23.3886 17.078-22.8538 18.1119-22.1408 18.7894-21.2316 19.4489-20.3224 19.9124-19.0924 20.162-17.5593L16.2401-17.0245C16.0619-18.2367 15.5449-19.1994 14.6892-19.8768 13.8335-20.5542 12.6391-20.8929 11.0704-20.8929 9.23424-20.8929 7.91506-20.5898 7.13068-19.9837 6.34631-19.3776 5.95412-18.6646 5.95412-17.8445 5.95412-17.3276 6.11456-16.8641 6.43544-16.4362 6.77415-16.0084 7.2733-15.6518 7.98636-15.3666 8.37855-15.224 9.55511-14.8853 11.5161-14.3505 14.3505-13.5839 16.3293-12.9778 17.4523-12.4965 18.5754-12.0152 19.4668-11.3021 20.1085-10.3751 20.7503-9.46598 21.0533-8.32507 21.0533-6.95242 21.0533-5.61541 20.6612-4.34972 19.8946-3.17315 19.1102-1.99659 17.9871-1.08743 16.5075-0.427841 15.0457 0.21392 13.37 0.534803 11.5161 0.534803 8.44986 0.534803 6.09674-0.10696 4.49233-1.39049 2.88792-2.65618 1.85398-4.54581 1.40831-7.05938Z" fill="#769DA5" fill-rule="nonzero" fill-opacity="1" transform="matrix(1.00242 0 0 1 1628.45 1304.05)"/><path d="M1.40831-7.05938 5.36584-7.68331C5.59758-6.09674 6.22152-4.88452 7.23764-4.02883 8.25377-3.19098 9.66208-2.76314 11.4982-2.76314 13.3344-2.76314 14.707-3.1375 15.5984-3.88622 16.4897-4.63494 16.9354-5.52628 16.9354-6.52458 16.9354-7.43374 16.5432-8.1468 15.7588-8.66378 15.2062-9.02031 13.8335-9.48381 11.6587-10.0186 8.71726-10.7673 6.66719-11.4091 5.54411-11.9617 4.4032-12.4965 3.54752-13.2452 2.95924-14.2079 2.37095-15.1705 2.0679-16.2223 2.0679-17.381 2.0679-18.4328 2.31747-19.4133 2.79879-20.3046 3.28011-21.2138 3.9397-21.9625 4.77756-22.5508 5.40149-23.0143 6.23935-23.4065 7.32678-23.7273 8.39638-24.0482 9.55511-24.2087 10.7852-24.2087 12.6391-24.2087 14.2792-23.9234 15.6697-23.3886 17.078-22.8538 18.1119-22.1408 18.7894-21.2316 19.4489-20.3224 19.9124-19.0924 20.162-17.5593L16.2401-17.0245C16.0619-18.2367 15.5449-19.1994 14.6892-19.8768 13.8335-20.5542 12.6391-20.8929 11.0704-20.8929 9.23424-20.8929 7.91506-20.5898 7.13068-19.9837 6.34631-19.3776 5.95412-18.6646 5.95412-17.8445 5.95412-17.3276 6.11456-16.8641 6.43544-16.4362 6.77415-16.0084 7.2733-15.6518 7.98636-15.3666 8.37855-15.224 9.55511-14.8853 11.5161-14.3505 14.3505-13.5839 16.3293-12.9778 17.4523-12.4965 18.5754-12.0152 19.4668-11.3021 20.1085-10.3751 20.7503-9.46598 21.0533-8.32507 21.0533-6.95242 21.0533-5.61541 20.6612-4.34972 19.8946-3.17315 19.1102-1.99659 17.9871-1.08743 16.5075-0.427841 15.0457 0.21392 13.37 0.534803 11.5161 0.534803 8.44986 0.534803 6.09674-0.10696 4.49233-1.39049 2.88792-2.65618 1.85398-4.54581 1.40831-7.05938Z" fill="#769DA5" fill-rule="nonzero" fill-opacity="1" transform="matrix(1.00242 0 0 1 1651.32 1304.05)"/><path d="M2.21051-15.9014C2.21051-21.3207 3.65447-25.5813 6.57805-28.6475 9.48381-31.7137 13.2452-33.2468 17.8445-33.2468 20.8572-33.2468 23.5847-32.5337 26.0092-31.0898 28.4336-29.6458 30.2697-27.6314 31.5354-25.0644 32.8011-22.4795 33.4429-19.5559 33.4429-16.2936 33.4429-12.9778 32.7833-10.0186 31.4463-7.39808 30.1093-4.77756 28.2019-2.79879 25.7596-1.46179 23.3173-0.10696 20.6612 0.552629 17.8267 0.552629 14.7605 0.552629 11.9974-0.178267 9.59077-1.67571 7.16633-3.15533 5.33019-5.18757 4.08231-7.75462 2.83445-10.3217 2.21051-13.0491 2.21051-15.9014ZM6.66719-15.8479C6.66719-11.9082 7.71896-8.80639 9.84034-6.5424 11.9617-4.27841 14.6179-3.1375 17.8089-3.1375 21.0533-3.1375 23.7273-4.27841 25.8309-6.57805 27.9345-8.85987 28.9862-12.1043 28.9862-16.3114 28.9862-18.9676 28.5406-21.2851 27.6492-23.2817 26.7401-25.2604 25.4209-26.7935 23.6917-27.881 21.9625-28.9862 20.0194-29.521 17.8624-29.521 14.814-29.521 12.1756-28.4692 9.96513-26.3657 7.77244-24.2621 6.66719-20.7681 6.66719-15.8479Z" fill="#769DA5" fill-rule="nonzero" fill-opacity="1" transform="matrix(1.00242 0 0 1 1816.46 1251.57)"/><path d="M18.5219 0 18.5219-3.47621C16.6858-0.802201 14.1722 0.534803 11.0169 0.534803 9.6086 0.534803 8.30724 0.267401 7.09503-0.267401 5.88281-0.802201 4.99148-1.47962 4.4032-2.28182 3.81492-3.10185 3.4049-4.08231 3.17315-5.25888 2.99489-6.04325 2.92358-7.29112 2.92358-9.00249L2.92358-23.6739 6.93459-23.6739 6.93459-10.5356C6.93459-8.44986 7.00589-7.04155 7.16633-6.31065 7.41591-5.25888 7.96854-4.42102 8.77074-3.81492 9.59077-3.20881 10.6069-2.92358 11.8013-2.92358 13.0135-2.92358 14.1366-3.22663 15.1884-3.85057 16.258-4.45667 17.0067-5.29453 17.4345-6.36413 17.8802-7.41591 18.0941-8.96683 18.0941-10.9813L18.0941-23.6739 22.1051-23.6739 22.1051 0Z" fill="#769DA5" fill-rule="nonzero" fill-opacity="1" transform="matrix(1.00242 0 0 1 1852.04 1251.57)"/><path d="M11.7656-3.58317 12.3361-0.0356534C11.213 0.196094 10.1969 0.320881 9.30554 0.320881 7.86158 0.320881 6.73849 0.0891333 5.91847-0.374361 5.11627-0.837856 4.56364-1.44396 4.24276-2.19269 3.90405-2.94141 3.74361-4.52799 3.74361-6.93459L3.74361-20.5364 0.802201-20.5364 0.802201-23.6739 3.74361-23.6739 3.74361-29.521 7.73679-31.9276 7.73679-23.6739 11.7656-23.6739 11.7656-20.5364 7.73679-20.5364 7.73679-6.70284C7.73679-5.56193 7.8081-4.83104 7.95071-4.49233 8.09333-4.17145 8.30724-3.92188 8.62813-3.72578 8.94901-3.52969 9.4125-3.42273 10.0008-3.42273 10.4464-3.42273 11.0347-3.47621 11.7656-3.58317Z" fill="#769DA5" fill-rule="nonzero" fill-opacity="1" transform="matrix(1.00242 0 0 1 1877.49 1251.57)"/><path d="M3.01271 9.07379 3.01271-23.6739 6.66719-23.6739 6.66719-20.5898C7.52287-21.7842 8.50334-22.6934 9.59077-23.2995 10.6604-23.9056 11.9795-24.2087 13.5305-24.2087 15.5449-24.2087 17.3276-23.6739 18.8785-22.6399 20.4294-21.606 21.5881-20.1263 22.3725-18.2367 23.1569-16.3471 23.5491-14.2614 23.5491-12.0152 23.5491-9.59077 23.1212-7.41591 22.2477-5.4728 21.3742-3.52969 20.1263-2.05007 18.4685-1.01612 16.8106 0.0178267 15.0636 0.534803 13.2274 0.534803 11.8904 0.534803 10.696 0.249574 9.64425-0.320881 8.57465-0.873507 7.70114-1.58658 7.02372-2.46008L7.02372 9.07379ZM6.63153-11.6943C6.63153-8.64595 7.25547-6.39979 8.48551-4.95583 9.71555-3.49403 11.213-2.76314 12.9778-2.76314 14.7605-2.76314 16.2758-3.51186 17.5415-5.02713 18.825-6.52458 19.4489-8.8777 19.4489-12.033 19.4489-15.0457 18.825-17.3097 17.595-18.8072 16.3471-20.3046 14.8675-21.0533 13.1561-21.0533 11.4447-21.0533 9.92947-20.2511 8.6103-18.6646 7.29112-17.0602 6.63153-14.7427 6.63153-11.6943Z" fill="#769DA5" fill-rule="nonzero" fill-opacity="1" transform="matrix(1.00242 0 0 1 1890.2 1251.57)"/><path d="M18.5219 0 18.5219-3.47621C16.6858-0.802201 14.1722 0.534803 11.0169 0.534803 9.6086 0.534803 8.30724 0.267401 7.09503-0.267401 5.88281-0.802201 4.99148-1.47962 4.4032-2.28182 3.81492-3.10185 3.4049-4.08231 3.17315-5.25888 2.99489-6.04325 2.92358-7.29112 2.92358-9.00249L2.92358-23.6739 6.93459-23.6739 6.93459-10.5356C6.93459-8.44986 7.00589-7.04155 7.16633-6.31065 7.41591-5.25888 7.96854-4.42102 8.77074-3.81492 9.59077-3.20881 10.6069-2.92358 11.8013-2.92358 13.0135-2.92358 14.1366-3.22663 15.1884-3.85057 16.258-4.45667 17.0067-5.29453 17.4345-6.36413 17.8802-7.41591 18.0941-8.96683 18.0941-10.9813L18.0941-23.6739 22.1051-23.6739 22.1051 0Z" fill="#769DA5" fill-rule="nonzero" fill-opacity="1" transform="matrix(1.00242 0 0 1 1915.64 1251.57)"/><path d="M11.7656-3.58317 12.3361-0.0356534C11.213 0.196094 10.1969 0.320881 9.30554 0.320881 7.86158 0.320881 6.73849 0.0891333 5.91847-0.374361 5.11627-0.837856 4.56364-1.44396 4.24276-2.19269 3.90405-2.94141 3.74361-4.52799 3.74361-6.93459L3.74361-20.5364 0.802201-20.5364 0.802201-23.6739 3.74361-23.6739 3.74361-29.521 7.73679-31.9276 7.73679-23.6739 11.7656-23.6739 11.7656-20.5364 7.73679-20.5364 7.73679-6.70284C7.73679-5.56193 7.8081-4.83104 7.95071-4.49233 8.09333-4.17145 8.30724-3.92188 8.62813-3.72578 8.94901-3.52969 9.4125-3.42273 10.0008-3.42273 10.4464-3.42273 11.0347-3.47621 11.7656-3.58317Z" fill="#769DA5" fill-rule="nonzero" fill-opacity="1" transform="matrix(1.00242 0 0 1 1941.08 1251.57)"/><path d="M18.3793-3.08402 18.3793 0 1.10526 0C1.08743-0.76655 1.21222-1.51527 1.47962-2.22834 1.92528-3.4049 2.62053-4.56364 3.60099-5.70455 4.56364-6.84546 5.95412-8.16463 7.79027-9.66208 10.6247-11.9974 12.55-13.8335 13.5483-15.1884 14.5466-16.561 15.0457-17.8445 15.0457-19.0567 15.0457-20.3224 14.6001-21.392 13.6909-22.2656 12.7817-23.1391 11.5874-23.5847 10.1256-23.5847 8.57465-23.5847 7.3446-23.1212 6.41761-22.1942 5.49063-21.2673 5.02713-19.9837 5.0093-18.3437L1.71136-18.6824C1.94311-21.1425 2.78097-23.0143 4.26058-24.2978 5.7402-25.5991 7.71896-26.2409 10.1969-26.2409 12.7104-26.2409 14.6892-25.5457 16.151-24.1552 17.6128-22.7647 18.3437-21.0355 18.3437-18.9854 18.3437-17.9337 18.1298-16.9175 17.7019-15.9014 17.2741-14.8853 16.561-13.8335 15.5805-12.7104 14.5822-11.5874 12.9244-10.0543 10.6247-8.11115 8.69943-6.48892 7.46939-5.40149 6.91676-4.81321 6.36413-4.24276 5.91847-3.6723 5.56193-3.08402Z" fill="#8F9EA0" fill-rule="nonzero" fill-opacity="1" transform="matrix(1.00242 0 0 1 1258.51 1518.36)"/><g><g clip-path="url(#clip0)"><g clip-path="url(#clip1)"><path d="M7.8794-16.8997 10.4108-15.1527 0.623936-0.909163C-0.0178267-1.337-0.570455-1.85398-0.998296-2.47791-1.71136-3.51186-2.28182-4.7419-2.67401-6.18587-3.06619-7.62983-3.35142-9.53729-3.54752-11.8904-3.85057-15.5449-4.29624-18.1832-4.84886-19.7698-5.40149-21.3742-6.18587-22.5151-7.18416-23.1925-8.23594-23.9056-9.37685-24.1552-10.6069-23.8878-11.8369-23.6382-12.8709-22.9073-13.6909-21.7129-14.5644-20.4294-14.8853-19.1459-14.6536-17.8624-14.4218-16.5788-13.6196-15.4558-12.2826-14.5288L-14.4218-11.9974C-16.3293-13.5839-17.381-15.331-17.6128-17.2741-17.8445-19.2172-17.2563-21.2138-15.8479-23.2638-14.4218-25.3317-12.7283-26.5796-10.7495-26.9896-8.77074-27.4175-6.95242-27.0431-5.25888-25.8666-4.38537-25.2783-3.6723-24.5117-3.06619-23.6026-2.47791-22.6756-2.01442-21.4812-1.65788-20.0372-1.30135-18.5754-0.962644-16.3471-0.659587-13.3522-0.427841-10.8565-0.21392-9.21641-0.0534803-8.43203 0.10696-7.64766 0.338708-6.95242 0.606106-6.32848Z" fill="#8F9EA0" fill-rule="nonzero" fill-opacity="1" transform="matrix(1.00242 0 0 1 1249.78 1332.83)"/></g></g></g><path d="M159.727 844.273 410.727 844.273" stroke="#A1B2B4" stroke-width="4.56364" stroke-linecap="square" stroke-linejoin="miter" stroke-miterlimit="3.25" stroke-opacity="1" fill="none" fill-rule="nonzero" transform="matrix(1.00242 0 0 1 970.187 690)"/><path d="M159.727 844.273 410.727 479.182" stroke="#A1B2B4" stroke-width="4.56364" stroke-linecap="square" stroke-linejoin="miter" stroke-miterlimit="3.25" stroke-opacity="1" fill="none" fill-rule="nonzero" transform="matrix(1.00242 0 0 1 970.187 690)"/><path d="M410.727 114.091 661.727 479.182" stroke="#A1B2B4" stroke-width="4.56364" stroke-linecap="square" stroke-linejoin="miter" stroke-miterlimit="3.25" stroke-opacity="1" fill="none" fill-rule="nonzero" transform="matrix(1.00242 0 0 1 970.187 690)"/><path d="M661.727 479.182 912.727 479.182" stroke="#A1B2B4" stroke-width="4.56364" stroke-linecap="square" stroke-linejoin="miter" stroke-miterlimit="3.25" stroke-opacity="1" fill="none" fill-rule="nonzero" transform="matrix(1.00242 0 0 1 970.187 690)"/><path d="M410.727 844.273 661.727 479.182" stroke="#A1B2B4" stroke-width="4.56364" stroke-linecap="square" stroke-linejoin="miter" stroke-miterlimit="3.25" stroke-opacity="1" fill="none" fill-rule="nonzero" transform="matrix(1.00242 0 0 1 970.187 690)"/><path d="M410.727 479.182 661.727 479.182" stroke="#A1B2B4" stroke-width="4.56364" stroke-linecap="square" stroke-linejoin="miter" stroke-miterlimit="3.25" stroke-opacity="1" fill="none" fill-rule="nonzero" transform="matrix(1.00242 0 0 1 970.187 690)"/><path d="M268.203 831.135 307.635 844.273 268.203 857.411 281.341 844.273Z" fill="#A1B2B4" fill-rule="evenodd" fill-opacity="1" transform="matrix(1.00242 0 0 1 970.187 690)"/><g><g clip-path="url(#clip2)"><g clip-path="url(#clip3)"><path d="M270.199 660.39 303.357 635.344 291.859 675.293 288.472 657.003Z" fill="#A1B2B4" fill-rule="evenodd" fill-opacity="1" transform="matrix(1.00242 0 0 1 970.187 690)"/></g></g></g><g><g clip-path="url(#clip4)"><g clip-path="url(#clip5)"><path d="M542.859 283.07 554.357 323.02 521.199 297.973 539.472 301.36Z" fill="#A1B2B4" fill-rule="evenodd" fill-opacity="1" transform="matrix(1.00242 0 0 1 970.187 690)"/></g></g></g><path d="M770.203 466.044 809.635 479.182 770.203 492.32 783.341 479.182Z" fill="#A1B2B4" fill-rule="evenodd" fill-opacity="1" transform="matrix(1.00242 0 0 1 970.187 690)"/><g><g clip-path="url(#clip6)"><g clip-path="url(#clip7)"><path d="M521.199 660.39 554.357 635.344 542.859 675.293 539.472 657.003Z" fill="#A1B2B4" fill-rule="evenodd" fill-opacity="1" transform="matrix(1.00242 0 0 1 970.187 690)"/></g></g></g><path d="M519.203 466.044 558.635 479.182 519.203 492.32 532.341 479.182Z" fill="#A1B2B4" fill-rule="evenodd" fill-opacity="1" transform="matrix(1.00242 0 0 1 970.187 690)"/><path d="M168.855 844.273C168.855 846.697 167.892 849.015 166.181 850.726 164.469 852.437 162.152 853.4 159.727 853.4 157.303 853.4 154.985 852.437 153.274 850.726 151.563 849.015 150.6 846.697 150.6 844.273 150.6 841.848 151.563 839.531 153.274 837.82 154.985 836.108 157.303 835.146 159.727 835.146 162.152 835.146 164.469 836.108 166.181 837.82 167.892 839.531 168.855 841.848 168.855 844.273Z" stroke="#A1B2B4" stroke-width="4.56364" stroke-linecap="square" stroke-linejoin="miter" stroke-miterlimit="3.25" stroke-opacity="1" fill="#A1B2B4" fill-rule="evenodd" fill-opacity="1" transform="matrix(1.00242 0 0 1 970.187 690)"/><path d="M367.088 764.694C357.55 764.694 348.423 768.474 341.667 775.212 334.928 781.968 331.149 791.096 331.149 800.633L331.149 887.913C331.149 897.45 334.928 906.577 341.667 913.333 348.423 920.072 357.55 923.851 367.088 923.851L454.367 923.851C463.904 923.851 473.032 920.072 479.788 913.333 486.526 906.577 490.306 897.45 490.306 887.913L490.306 800.633C490.306 791.096 486.526 781.968 479.788 775.212 473.032 768.474 463.904 764.694 454.367 764.694Z" fill="#F8FBFA" fill-rule="evenodd" fill-opacity="1" transform="matrix(1.00242 0 0 1 970.187 690)"/><g><path d="M367.088 764.694C357.55 764.694 348.423 768.474 341.667 775.212 334.928 781.968 331.149 791.096 331.149 800.633L331.149 887.913C331.149 897.45 334.928 906.577 341.667 913.333 348.423 920.072 357.55 923.851 367.088 923.851L454.367 923.851C463.904 923.851 473.032 920.072 479.788 913.333 486.526 906.577 490.306 897.45 490.306 887.913L490.306 800.633C490.306 791.096 486.526 781.968 479.788 775.212 473.032 768.474 463.904 764.694 454.367 764.694Z" stroke="#3F9883" stroke-width="4.92873" stroke-linecap="square" stroke-linejoin="miter" stroke-miterlimit="3.25" stroke-opacity="1" fill="none" fill-rule="nonzero" transform="matrix(1.00242 0 0 1 970.187 690)"/></g><path d="M402.331 870.139 380.761 870.139 380.761 814.306 402.331 814.306 402.331 818.781 395.771 818.781 395.771 866.164 402.331 866.164ZM389.817 818.781 384.665 818.781 384.665 866.2 389.781 866.2Z" fill="#00765A" fill-rule="evenodd" fill-opacity="1" transform="matrix(1.00242 0 0 1 970.187 690)"/><path d="M418.749 866.164 425.31 866.164 425.31 818.781 418.749 818.781 418.749 814.306 440.32 814.306 440.32 870.139 418.749 870.139ZM431.299 866.2 436.416 866.2 436.416 818.781 431.264 818.781Z" fill="#00765A" fill-rule="evenodd" fill-opacity="1" transform="matrix(1.00242 0 0 1 970.187 690)"/><path d="M367.088 399.603C357.55 399.603 348.423 403.383 341.667 410.121 334.928 416.878 331.149 426.005 331.149 435.542L331.149 522.822C331.149 532.359 334.928 541.486 341.667 548.242 348.423 554.981 357.55 558.76 367.088 558.76L454.367 558.76C463.904 558.76 473.032 554.981 479.788 548.242 486.526 541.486 490.306 532.359 490.306 522.822L490.306 435.542C490.306 426.005 486.526 416.878 479.788 410.121 473.032 403.383 463.904 399.603 454.367 399.603Z" fill="#F8FBFA" fill-rule="evenodd" fill-opacity="1" transform="matrix(1.00242 0 0 1 970.187 690)"/><g><path d="M367.088 399.603C357.55 399.603 348.423 403.383 341.667 410.121 334.928 416.878 331.149 426.005 331.149 435.542L331.149 522.822C331.149 532.359 334.928 541.486 341.667 548.242 348.423 554.981 357.55 558.76 367.088 558.76L454.367 558.76C463.904 558.76 473.032 554.981 479.788 548.242 486.526 541.486 490.306 532.359 490.306 522.822L490.306 435.542C490.306 426.005 486.526 416.878 479.788 410.121 473.032 403.383 463.904 399.603 454.367 399.603Z" stroke="#3F9883" stroke-width="4.92873" stroke-linecap="square" stroke-linejoin="miter" stroke-miterlimit="3.25" stroke-opacity="1" fill="none" fill-rule="nonzero" transform="matrix(1.00242 0 0 1 970.187 690)"/></g><path d="M402.331 505.048 380.761 505.048 380.761 449.215 402.331 449.215 402.331 453.69 395.771 453.69 395.771 501.073 402.331 501.073ZM389.817 453.69 384.665 453.69 384.665 501.109 389.781 501.109Z" fill="#00765A" fill-rule="evenodd" fill-opacity="1" transform="matrix(1.00242 0 0 1 970.187 690)"/><path d="M418.749 501.073 425.31 501.073 425.31 453.69 418.749 453.69 418.749 449.215 440.32 449.215 440.32 505.048 418.749 505.048ZM431.299 501.109 436.416 501.109 436.416 453.69 431.264 453.69Z" fill="#00765A" fill-rule="evenodd" fill-opacity="1" transform="matrix(1.00242 0 0 1 970.187 690)"/><path d="M419.855 114.091C419.855 116.515 418.892 118.833 417.181 120.544 415.469 122.256 413.152 123.218 410.727 123.218 408.303 123.218 405.985 122.256 404.274 120.544 402.563 118.833 401.6 116.515 401.6 114.091 401.6 111.666 402.563 109.349 404.274 107.638 405.985 105.926 408.303 104.964 410.727 104.964 413.152 104.964 415.469 105.926 417.181 107.638 418.892 109.349 419.855 111.666 419.855 114.091Z" stroke="#A1B2B4" stroke-width="4.56364" stroke-linecap="square" stroke-linejoin="miter" stroke-miterlimit="3.25" stroke-opacity="1" fill="#A1B2B4" fill-rule="evenodd" fill-opacity="1" transform="matrix(1.00242 0 0 1 970.187 690)"/><path d="M618.088 399.603C608.55 399.603 599.423 403.383 592.667 410.121 585.928 416.878 582.149 426.005 582.149 435.542L582.149 522.822C582.149 532.359 585.928 541.486 592.667 548.242 599.423 554.981 608.55 558.76 618.088 558.76L705.367 558.76C714.904 558.76 724.032 554.981 730.788 548.242 737.526 541.486 741.306 532.359 741.306 522.822L741.306 435.542C741.306 426.005 737.526 416.878 730.788 410.121 724.032 403.383 714.904 399.603 705.367 399.603Z" fill="#F8FBFA" fill-rule="evenodd" fill-opacity="1" transform="matrix(1.00242 0 0 1 970.187 690)"/><g><path d="M618.088 399.603C608.55 399.603 599.423 403.383 592.667 410.121 585.928 416.878 582.149 426.005 582.149 435.542L582.149 522.822C582.149 532.359 585.928 541.486 592.667 548.242 599.423 554.981 608.55 558.76 618.088 558.76L705.367 558.76C714.904 558.76 724.032 554.981 730.788 548.242 737.526 541.486 741.306 532.359 741.306 522.822L741.306 435.542C741.306 426.005 737.526 416.878 730.788 410.121 724.032 403.383 714.904 399.603 705.367 399.603Z" stroke="#3F9883" stroke-width="4.92873" stroke-linecap="square" stroke-linejoin="miter" stroke-miterlimit="3.25" stroke-opacity="1" fill="none" fill-rule="nonzero" transform="matrix(1.00242 0 0 1 970.187 690)"/></g><path d="M649.712 490.448 644.025 490.448 644.025 483.211 650.568 483.211 651.637 474.725 645.559 474.725 645.559 467.488 652.564 467.488 654.169 454.795 660.64 454.795 659.125 467.488 667.129 467.488 668.751 454.795 675.204 454.795 673.671 467.488 679.75 467.488 679.75 474.725 672.744 474.725 671.728 483.211 678.199 483.211 678.199 490.448 670.89 490.448 669.125 504.852 662.583 504.852 664.277 490.448 656.344 490.448 654.561 504.852 648.019 504.852ZM665.114 483.211 666.184 474.725 658.18 474.725 657.182 483.211Z" fill="#00765A" fill-rule="evenodd" fill-opacity="1" transform="matrix(1.00242 0 0 1 970.187 690)"/><path d="M921.855 479.182C921.855 481.606 920.892 483.924 919.181 485.635 917.469 487.346 915.152 488.309 912.727 488.309 910.303 488.309 907.985 487.346 906.274 485.635 904.563 483.924 903.6 481.606 903.6 479.182 903.6 476.757 904.563 474.44 906.274 472.729 907.985 471.017 910.303 470.055 912.727 470.055 915.152 470.055 917.469 471.017 919.181 472.729 920.892 474.44 921.855 476.757 921.855 479.182Z" stroke="#A1B2B4" stroke-width="4.56364" stroke-linecap="square" stroke-linejoin="miter" stroke-miterlimit="3.25" stroke-opacity="1" fill="#A1B2B4" fill-rule="evenodd" fill-opacity="1" transform="matrix(1.00242 0 0 1 970.187 690)"/></g></g></g><g><g><g><path d="M4.27143 0 4.27143-32.7416 8.59646-32.7416 8.59646 0Z" fill="#769DA5" fill-rule="nonzero" fill-opacity="1" transform="matrix(1.00115 0 0 1 2347.38 1480.23)"/><path d="M3.02038 0 3.02038-23.7341 6.63054-23.7341 6.63054-20.3563C8.382-22.9656 10.902-24.2703 14.1904-24.2703 15.6202-24.2703 16.9249-24.0022 18.1223-23.4839 19.3197-22.9835 20.2312-22.3043 20.821-21.4644 21.4107-20.6244 21.8397-19.6414 22.072-18.4976 22.215-17.747 22.3043-16.4423 22.3043-14.5836L22.3043 0 18.2653 0 18.2653-14.4406C18.2653-16.067 18.1223-17.3002 17.8006-18.1044 17.4968-18.9086 16.9427-19.5699 16.1385-20.0525 15.3342-20.535 14.4049-20.7673 13.3326-20.7673 11.6168-20.7673 10.1513-20.2312 8.90029-19.141 7.64925-18.0508 7.04159-15.9955 7.04159-12.9572L7.04159 0Z" fill="#769DA5" fill-rule="nonzero" fill-opacity="1" transform="matrix(1.00115 0 0 1 2360.11 1480.23)"/><path d="M3.02038 9.09688 3.02038-23.7341 6.68416-23.7341 6.68416-20.6422C7.54202-21.8397 8.52498-22.7511 9.61517-23.3588 10.6875-23.9664 12.01-24.2703 13.5649-24.2703 15.5844-24.2703 17.3717-23.7341 18.9265-22.6975 20.4814-21.6609 21.6431-20.1776 22.4294-18.2831 23.2158-16.3887 23.609-14.2977 23.609-12.0458 23.609-9.61517 23.1801-7.43478 22.3043-5.48673 21.4286-3.53867 20.1776-2.05529 18.5155-1.01871 16.8534 0.0178721 15.1019 0.536164 13.2611 0.536164 11.9207 0.536164 10.7232 0.250209 9.66879-0.321697 8.59646-0.87573 7.72073-1.59061 7.04159-2.46634L7.04159 9.09688ZM6.64841-11.7241C6.64841-8.66795 7.27393-6.41607 8.5071-4.96844 9.74028-3.50293 11.2415-2.77017 13.0109-2.77017 14.7981-2.77017 16.3172-3.5208 17.5861-5.03992 18.8729-6.54118 19.4984-8.90029 19.4984-12.0636 19.4984-15.084 18.8729-17.3538 17.6397-18.855 16.3887-20.3563 14.9053-21.1069 13.1896-21.1069 11.4739-21.1069 9.95474-20.3027 8.63221-18.7121 7.30968-17.1036 6.64841-14.7802 6.64841-11.7241Z" fill="#769DA5" fill-rule="nonzero" fill-opacity="1" transform="matrix(1.00115 0 0 1 2385.58 1480.23)"/><path d="M18.5691 0 18.5691-3.48505C16.7283-0.804242 14.2083 0.536164 11.0449 0.536164 9.63305 0.536164 8.32838 0.268081 7.11309-0.268081 5.89778-0.804242 5.00418-1.48338 4.4144-2.28762 3.82463-3.10974 3.41357-4.0927 3.18123-5.27226 3.00251-6.05863 2.93102-7.30968 2.93102-9.02539L2.93102-23.7341 6.95223-23.7341 6.95223-10.5624C6.95223-8.47136 7.02372-7.05947 7.18457-6.32671 7.43478-5.27226 7.98882-4.43227 8.79306-3.82463 9.61517-3.21697 10.6339-2.93102 11.8313-2.93102 13.0466-2.93102 14.1725-3.23484 15.227-3.86037 16.2993-4.46802 17.05-5.308 17.4789-6.38033 17.9257-7.43478 18.1402-8.98965 18.1402-11.0092L18.1402-23.7341 22.1614-23.7341 22.1614 0Z" fill="#769DA5" fill-rule="nonzero" fill-opacity="1" transform="matrix(1.00115 0 0 1 2411.06 1480.23)"/><path d="M11.7956-3.59228 12.3675-0.0357441C11.2415 0.196593 10.2228 0.321697 9.32922 0.321697 7.88158 0.321697 6.75564 0.0893601 5.93353-0.375313 5.12928-0.839988 4.57525-1.44764 4.25355-2.19827 3.91398-2.94889 3.75313-4.53951 3.75313-6.95223L3.75313-20.5886 0.804242-20.5886 0.804242-23.7341 3.75313-23.7341 3.75313-29.5961 7.75648-32.0089 7.75648-23.7341 11.7956-23.7341 11.7956-20.5886 7.75648-20.5886 7.75648-6.7199C7.75648-5.57609 7.82797-4.84333 7.97094-4.50376 8.11392-4.18206 8.32838-3.93186 8.65008-3.73526 8.97178-3.53867 9.43645-3.43144 10.0262-3.43144 10.473-3.43144 11.0628-3.48505 11.7956-3.59228Z" fill="#769DA5" fill-rule="nonzero" fill-opacity="1" transform="matrix(1.00115 0 0 1 2436.53 1480.23)"/><path d="M27.3264-23.6984 22.2686 0 18.6763 0 19.4091-3.48505 19.3197-3.48505C18.8372-2.98464 18.3367-2.48422 17.8185-2.00167 17.2823-1.51912 16.7283-1.0902 16.1206-0.697012 15.5308-0.321697 14.9053-0.0178721 14.244 0.214465 13.5828 0.446801 12.8858 0.554035 12.153 0.554035 11.6705 0.554035 11.2058 0.500418 10.7411 0.375313 10.2586 0.250209 9.82964 0.0536164 9.41858-0.178721 9.00752-0.411058 8.63221-0.714883 8.31051-1.07232 7.98882-1.42977 7.72073-1.82295 7.52414-2.28762L5.11141 9.11476 1.0902 9.11476 8.0603-23.6984 12.0815-23.6984 9.07901-9.56156C8.97178-9.07901 8.88242-8.59646 8.81093-8.11392 8.73944-7.6135 8.72157-7.13096 8.72157-6.63054 8.72157-5.32587 9.04326-4.37866 9.68666-3.78888 10.3301-3.21697 11.2951-2.93102 12.5462-2.93102 13.6185-2.93102 14.6015-3.12761 15.4772-3.5208 16.3351-3.91398 17.1036-4.45014 17.7648-5.11141 18.4261-5.77268 18.9801-6.54118 19.4448-7.41691 19.8916-8.29264 20.2133-9.22199 20.4099-10.205L23.3052-23.6984Z" fill="#769DA5" fill-rule="nonzero" fill-opacity="1" transform="matrix(1.00115 0 0 1 2636.57 1532.84)"/><path d="M11.8671 0 11.8671-28.8813 1.07232-28.8813 1.07232-32.7416 27.0226-32.7416 27.0226-28.8813 16.1921-28.8813 16.1921 0Z" fill="#769DA5" fill-rule="nonzero" fill-opacity="1" transform="matrix(1.00115 0 0 1 2584.05 1114.21)"/><path d="M18.4976-2.93102C17.0142-1.6621 15.5666-0.7685 14.1904-0.250209 12.8143 0.268081 11.3488 0.536164 9.75815 0.536164 7.14883 0.536164 5.14716-0.107232 3.75313-1.37615 2.35911-2.64507 1.64423-4.27143 1.64423-6.25523 1.64423-7.41691 1.91231-8.47136 2.44847-9.43645 2.96677-10.4015 3.66377-11.17 4.52163-11.7598 5.37949-12.3317 6.34459-12.7785 7.41691-13.0645 8.20328-13.2789 9.40071-13.4755 10.9913-13.6721 14.244-14.0653 16.621-14.5121 18.158-15.0483 18.1759-15.6023 18.1938-15.9598 18.1938-16.1027 18.1938-17.747 17.8006-18.9086 17.05-19.5699 16.0134-20.4814 14.4942-20.9282 12.4747-20.9282 10.5803-20.9282 9.18624-20.6065 8.27477-19.9452 7.38116-19.284 6.70203-18.1044 6.2731-16.4244L2.34124-16.9606C2.69868-18.6406 3.28846-19.9988 4.11058-21.0354 4.93269-22.072 6.11225-22.8584 7.66712-23.4303 9.22199-23.9843 11.0092-24.2703 13.0466-24.2703 15.0662-24.2703 16.7104-24.0201 17.9793-23.5554 19.2482-23.0728 20.1776-22.4652 20.7673-21.7503 21.375-21.0176 21.7861-20.1061 22.0184-19.0159 22.1614-18.3367 22.2329-17.0857 22.2329-15.2985L22.2329-9.93687C22.2329-6.20161 22.3222-3.8425 22.4831-2.84166 22.6618-1.8587 23.0014-0.911477 23.5018 0L19.3018 0C18.8908-0.839988 18.6227-1.80508 18.4976-2.93102ZM18.158-11.9028C16.6925-11.313 14.5121-10.8126 11.599-10.3837 9.93687-10.1513 8.77519-9.88325 8.07818-9.57943 7.39904-9.29348 6.88075-8.84667 6.50543-8.27477 6.13012-7.70286 5.93353-7.05947 5.93353-6.36246 5.93353-5.29013 6.34459-4.39653 7.1667-3.68165 7.97094-2.96677 9.1505-2.60932 10.7232-2.60932 12.2781-2.60932 13.6543-2.94889 14.8517-3.62803 16.067-4.30717 16.9427-5.23652 17.5146-6.41607 17.9436-7.32755 18.158-8.66795 18.158-10.4373Z" fill="#769DA5" fill-rule="nonzero" fill-opacity="1" transform="matrix(1.00115 0 0 1 2607.97 1114.21)"/><path d="M2.96677 0 2.96677-23.7341 6.59479-23.7341 6.59479-20.124C7.50627-21.8039 8.36413-22.912 9.1505-23.4482 9.93687-23.9843 10.7947-24.2703 11.7241-24.2703 13.0824-24.2703 14.4585-23.8235 15.8704-22.9656L14.4764-19.2303C13.4934-19.8201 12.5104-20.1061 11.5275-20.1061 10.6518-20.1061 9.86538-19.838 9.1505-19.3197 8.45349-18.7835 7.95307-18.0508 7.66712-17.1214 7.22032-15.6917 6.98798-14.1189 6.98798-12.4211L6.98798 0Z" fill="#769DA5" fill-rule="nonzero" fill-opacity="1" transform="matrix(1.00115 0 0 1 2634.46 1114.21)"/><path d="M2.28762 1.96593 6.18373 2.53784C6.34459 3.75313 6.80926 4.62887 7.54202 5.1829 8.54285 5.93353 9.919 6.29097 11.6347 6.29097 13.4934 6.29097 14.941 5.93353 15.9419 5.1829 16.9606 4.43227 17.6576 3.3957 18.015 2.05529 18.2116 1.23317 18.3189-0.482547 18.301-3.10974 16.5495-1.03658 14.3513 0 11.7241 0 8.47136 0 5.93353-1.17955 4.14632-3.53867 2.35911-5.87991 1.46551-8.7037 1.46551-11.9922 1.46551-14.2619 1.87657-16.3529 2.69868-18.2653 3.5208-20.1776 4.71823-21.6609 6.2731-22.6975 7.82797-23.7341 9.65092-24.2703 11.7598-24.2703 14.5479-24.2703 16.8534-23.1265 18.6763-20.8746L18.6763-23.7341 22.3758-23.7341 22.3758-3.21697C22.3758 0.482547 22.0005 3.09187 21.2499 4.62887 20.4993 6.18373 19.3197 7.39904 17.6755 8.29264 16.0491 9.18624 14.0474 9.63305 11.6526 9.63305 8.8288 9.63305 6.54118 8.98965 4.80759 7.72073 3.05612 6.45182 2.21614 4.52163 2.28762 1.96593ZM5.61183-12.296C5.61183-9.18624 6.21948-6.89862 7.47052-5.46885 8.7037-4.03909 10.2407-3.3242 12.1173-3.3242 13.9581-3.3242 15.513-4.03909 16.764-5.46885 18.015-6.88075 18.6227-9.11476 18.6227-12.153 18.6227-15.0483 17.9793-17.2465 16.6925-18.7299 15.4057-20.1954 13.8509-20.9282 12.0458-20.9282 10.2586-20.9282 8.73944-20.2133 7.4884-18.7478 6.23735-17.3002 5.61183-15.1555 5.61183-12.296Z" fill="#769DA5" fill-rule="nonzero" fill-opacity="1" transform="matrix(1.00115 0 0 1 2650.73 1114.21)"/><path d="M19.2661-7.64925 23.4124-7.13096C22.7511-4.70036 21.5358-2.82379 19.7665-1.46551 17.9972-0.125105 15.7274 0.536164 12.9751 0.536164 9.50794 0.536164 6.75564-0.536164 4.71823-2.66294 2.68081-4.80759 1.67998-7.81009 1.67998-11.6526 1.67998-15.6559 2.69868-18.7478 4.75397-20.9461 6.80926-23.1622 9.47219-24.2703 12.7607-24.2703 15.924-24.2703 18.5155-23.1801 20.535-21.0176 22.5367-18.855 23.5554-15.8168 23.5554-11.9028 23.5554-11.6705 23.5375-11.313 23.5196-10.8305L5.8263-10.8305C5.96927-8.22115 6.7199-6.23735 8.04243-4.84333 9.36496-3.46718 11.0271-2.77017 13.0109-2.77017 14.4764-2.77017 15.7274-3.16336 16.7819-3.93186 17.8185-4.70036 18.6406-5.93353 19.2661-7.64925ZM6.05863-14.1368 19.3018-14.1368C19.1231-16.1385 18.6227-17.6397 17.7827-18.6227 16.4959-20.1776 14.8338-20.9461 12.7964-20.9461 10.9556-20.9461 9.40071-20.3384 8.14966-19.1052 6.88075-17.8721 6.18373-16.21 6.05863-14.1368Z" fill="#769DA5" fill-rule="nonzero" fill-opacity="1" transform="matrix(1.00115 0 0 1 2677.22 1114.21)"/><path d="M11.7956-3.59228 12.3675-0.0357441C11.2415 0.196593 10.2228 0.321697 9.32922 0.321697 7.88158 0.321697 6.75564 0.0893601 5.93353-0.375313 5.12928-0.839988 4.57525-1.44764 4.25355-2.19827 3.91398-2.94889 3.75313-4.53951 3.75313-6.95223L3.75313-20.5886 0.804242-20.5886 0.804242-23.7341 3.75313-23.7341 3.75313-29.5961 7.75648-32.0089 7.75648-23.7341 11.7956-23.7341 11.7956-20.5886 7.75648-20.5886 7.75648-6.7199C7.75648-5.57609 7.82797-4.84333 7.97094-4.50376 8.11392-4.18206 8.32838-3.93186 8.65008-3.73526 8.97178-3.53867 9.43645-3.43144 10.0262-3.43144 10.473-3.43144 11.0628-3.48505 11.7956-3.59228Z" fill="#769DA5" fill-rule="nonzero" fill-opacity="1" transform="matrix(1.00115 0 0 1 2703.71 1114.21)"/><path d="M2.93102 0 2.93102-32.7416 6.95223-32.7416 6.95223 0Z" fill="#769DA5" fill-rule="nonzero" fill-opacity="1" transform="matrix(1.00115 0 0 1 2861.45 1166.82)"/><path d="M1.51912-11.8671C1.51912-16.2636 2.73443-19.5163 5.1829-21.6252 7.22032-23.3767 9.70453-24.2703 12.6534-24.2703 15.9061-24.2703 18.5691-23.1979 20.6422-21.0533 22.7154-18.9086 23.752-15.9598 23.752-12.1887 23.752-9.1505 23.2873-6.73777 22.3758-4.98631 21.4644-3.23484 20.124-1.87657 18.3725-0.911477 16.621 0.0536164 14.7087 0.536164 12.6534 0.536164 9.32922 0.536164 6.63054-0.536164 4.59312-2.66294 2.53784-4.78971 1.51912-7.86371 1.51912-11.8671ZM5.64757-11.8671C5.64757-8.8288 6.30884-6.54118 7.64925-5.03992 8.97178-3.5208 10.6339-2.77017 12.6534-2.77017 14.6372-2.77017 16.2993-3.53867 17.6219-5.03992 18.9444-6.55905 19.6235-8.88242 19.6235-11.9922 19.6235-14.9232 18.9444-17.1572 17.6219-18.6584 16.2815-20.1776 14.6194-20.9282 12.6534-20.9282 10.6339-20.9282 8.97178-20.1776 7.64925-18.6763 6.32671-17.1751 5.64757-14.9053 5.64757-11.8671Z" fill="#769DA5" fill-rule="nonzero" fill-opacity="1" transform="matrix(1.00115 0 0 1 2871.62 1166.82)"/><path d="M1.41189-7.07734 5.37949-7.70286C5.61183-6.11225 6.23735-4.89694 7.25606-4.03909 8.27477-3.1991 9.68666-2.77017 11.5275-2.77017 13.3683-2.77017 14.7445-3.14548 15.6381-3.89611 16.5317-4.64674 16.9785-5.54034 16.9785-6.54118 16.9785-7.45265 16.5853-8.16753 15.7989-8.68583 15.2449-9.04326 13.8687-9.50794 11.6883-10.0441 8.73944-10.7947 6.68416-11.4381 5.55821-11.9922 4.4144-12.5283 3.55654-13.2789 2.96677-14.244 2.37698-15.2091 2.07316-16.2636 2.07316-17.4253 2.07316-18.4797 2.32337-19.4627 2.80591-20.3563 3.28846-21.2678 3.94973-22.0184 4.78971-22.6082 5.41524-23.0728 6.25523-23.466 7.34542-23.7877 8.41775-24.1094 9.57943-24.2703 10.8126-24.2703 12.6713-24.2703 14.3155-23.9843 15.7095-23.4482 17.1214-22.912 18.158-22.1971 18.8372-21.2856 19.4984-20.3742 19.9631-19.141 20.2133-17.604L16.2815-17.0678C16.1027-18.2831 15.5844-19.2482 14.7266-19.9274 13.8687-20.6065 12.6713-20.9461 11.0986-20.9461 9.25773-20.9461 7.9352-20.6422 7.14883-20.0346 6.36246-19.4269 5.96927-18.7121 5.96927-17.8899 5.96927-17.3717 6.13012-16.907 6.45182-16.478 6.79139-16.0491 7.2918-15.6917 8.00669-15.4057 8.39987-15.2627 9.57943-14.9232 11.5454-14.387 14.387-13.6185 16.3708-13.0109 17.4968-12.5283 18.6227-12.0458 19.5163-11.3309 20.1597-10.4015 20.8031-9.49007 21.1069-8.34626 21.1069-6.97011 21.1069-5.6297 20.7137-4.36079 19.9452-3.18123 19.1589-2.00167 18.0329-1.0902 16.5495-0.42893 15.084 0.214465 13.4041 0.536164 11.5454 0.536164 8.47136 0.536164 6.11225-0.107232 4.50376-1.39402 2.89527-2.66294 1.8587-4.55738 1.41189-7.07734Z" fill="#769DA5" fill-rule="nonzero" fill-opacity="1" transform="matrix(1.00115 0 0 1 2897.1 1166.82)"/><path d="M1.41189-7.07734 5.37949-7.70286C5.61183-6.11225 6.23735-4.89694 7.25606-4.03909 8.27477-3.1991 9.68666-2.77017 11.5275-2.77017 13.3683-2.77017 14.7445-3.14548 15.6381-3.89611 16.5317-4.64674 16.9785-5.54034 16.9785-6.54118 16.9785-7.45265 16.5853-8.16753 15.7989-8.68583 15.2449-9.04326 13.8687-9.50794 11.6883-10.0441 8.73944-10.7947 6.68416-11.4381 5.55821-11.9922 4.4144-12.5283 3.55654-13.2789 2.96677-14.244 2.37698-15.2091 2.07316-16.2636 2.07316-17.4253 2.07316-18.4797 2.32337-19.4627 2.80591-20.3563 3.28846-21.2678 3.94973-22.0184 4.78971-22.6082 5.41524-23.0728 6.25523-23.466 7.34542-23.7877 8.41775-24.1094 9.57943-24.2703 10.8126-24.2703 12.6713-24.2703 14.3155-23.9843 15.7095-23.4482 17.1214-22.912 18.158-22.1971 18.8372-21.2856 19.4984-20.3742 19.9631-19.141 20.2133-17.604L16.2815-17.0678C16.1027-18.2831 15.5844-19.2482 14.7266-19.9274 13.8687-20.6065 12.6713-20.9461 11.0986-20.9461 9.25773-20.9461 7.9352-20.6422 7.14883-20.0346 6.36246-19.4269 5.96927-18.7121 5.96927-17.8899 5.96927-17.3717 6.13012-16.907 6.45182-16.478 6.79139-16.0491 7.2918-15.6917 8.00669-15.4057 8.39987-15.2627 9.57943-14.9232 11.5454-14.387 14.387-13.6185 16.3708-13.0109 17.4968-12.5283 18.6227-12.0458 19.5163-11.3309 20.1597-10.4015 20.8031-9.49007 21.1069-8.34626 21.1069-6.97011 21.1069-5.6297 20.7137-4.36079 19.9452-3.18123 19.1589-2.00167 18.0329-1.0902 16.5495-0.42893 15.084 0.214465 13.4041 0.536164 11.5454 0.536164 8.47136 0.536164 6.11225-0.107232 4.50376-1.39402 2.89527-2.66294 1.8587-4.55738 1.41189-7.07734Z" fill="#769DA5" fill-rule="nonzero" fill-opacity="1" transform="matrix(1.00115 0 0 1 2920 1166.82)"/><path d="M2.21614-15.9419C2.21614-21.375 3.66377-25.6464 6.59479-28.7204 9.50794-31.7944 13.2789-33.3314 17.8899-33.3314 20.9103-33.3314 23.6447-32.6165 26.0754-31.1689 28.506-29.7213 30.3468-27.7017 31.6157-25.1281 32.8846-22.5367 33.528-19.6057 33.528-16.3351 33.528-13.0109 32.8667-10.0441 31.5263-7.41691 30.1859-4.78971 28.2736-2.80591 25.8251-1.46551 23.3767-0.107232 20.7137 0.554035 17.8721 0.554035 14.7981 0.554035 12.0279-0.178721 9.61517-1.67998 7.18457-3.16336 5.34375-5.20077 4.0927-7.77435 2.84166-10.3479 2.21614-13.0824 2.21614-15.9419ZM6.68416-15.8883C6.68416-11.9385 7.73861-8.8288 9.86538-6.55905 11.9922-4.2893 14.6551-3.14548 17.8542-3.14548 21.1069-3.14548 23.7877-4.2893 25.8966-6.59479 28.0055-8.88242 29.06-12.1351 29.06-16.3529 29.06-19.0159 28.6132-21.3392 27.7196-23.3409 26.8081-25.3247 25.4856-26.8617 23.752-27.9519 22.0184-29.06 20.0703-29.5961 17.9078-29.5961 14.8517-29.5961 12.2066-28.5417 9.99049-26.4328 7.79222-24.3239 6.68416-20.821 6.68416-15.8883Z" fill="#769DA5" fill-rule="nonzero" fill-opacity="1" transform="matrix(1.00115 0 0 1 3085.35 1114.21)"/><path d="M18.5691 0 18.5691-3.48505C16.7283-0.804242 14.2083 0.536164 11.0449 0.536164 9.63305 0.536164 8.32838 0.268081 7.11309-0.268081 5.89778-0.804242 5.00418-1.48338 4.4144-2.28762 3.82463-3.10974 3.41357-4.0927 3.18123-5.27226 3.00251-6.05863 2.93102-7.30968 2.93102-9.02539L2.93102-23.7341 6.95223-23.7341 6.95223-10.5624C6.95223-8.47136 7.02372-7.05947 7.18457-6.32671 7.43478-5.27226 7.98882-4.43227 8.79306-3.82463 9.61517-3.21697 10.6339-2.93102 11.8313-2.93102 13.0466-2.93102 14.1725-3.23484 15.227-3.86037 16.2993-4.46802 17.05-5.308 17.4789-6.38033 17.9257-7.43478 18.1402-8.98965 18.1402-11.0092L18.1402-23.7341 22.1614-23.7341 22.1614 0Z" fill="#769DA5" fill-rule="nonzero" fill-opacity="1" transform="matrix(1.00115 0 0 1 3120.98 1114.21)"/><path d="M11.7956-3.59228 12.3675-0.0357441C11.2415 0.196593 10.2228 0.321697 9.32922 0.321697 7.88158 0.321697 6.75564 0.0893601 5.93353-0.375313 5.12928-0.839988 4.57525-1.44764 4.25355-2.19827 3.91398-2.94889 3.75313-4.53951 3.75313-6.95223L3.75313-20.5886 0.804242-20.5886 0.804242-23.7341 3.75313-23.7341 3.75313-29.5961 7.75648-32.0089 7.75648-23.7341 11.7956-23.7341 11.7956-20.5886 7.75648-20.5886 7.75648-6.7199C7.75648-5.57609 7.82797-4.84333 7.97094-4.50376 8.11392-4.18206 8.32838-3.93186 8.65008-3.73526 8.97178-3.53867 9.43645-3.43144 10.0262-3.43144 10.473-3.43144 11.0628-3.48505 11.7956-3.59228Z" fill="#769DA5" fill-rule="nonzero" fill-opacity="1" transform="matrix(1.00115 0 0 1 3146.45 1114.21)"/><path d="M3.02038 9.09688 3.02038-23.7341 6.68416-23.7341 6.68416-20.6422C7.54202-21.8397 8.52498-22.7511 9.61517-23.3588 10.6875-23.9664 12.01-24.2703 13.5649-24.2703 15.5844-24.2703 17.3717-23.7341 18.9265-22.6975 20.4814-21.6609 21.6431-20.1776 22.4294-18.2831 23.2158-16.3887 23.609-14.2977 23.609-12.0458 23.609-9.61517 23.1801-7.43478 22.3043-5.48673 21.4286-3.53867 20.1776-2.05529 18.5155-1.01871 16.8534 0.0178721 15.1019 0.536164 13.2611 0.536164 11.9207 0.536164 10.7232 0.250209 9.66879-0.321697 8.59646-0.87573 7.72073-1.59061 7.04159-2.46634L7.04159 9.09688ZM6.64841-11.7241C6.64841-8.66795 7.27393-6.41607 8.5071-4.96844 9.74028-3.50293 11.2415-2.77017 13.0109-2.77017 14.7981-2.77017 16.3172-3.5208 17.5861-5.03992 18.8729-6.54118 19.4984-8.90029 19.4984-12.0636 19.4984-15.084 18.8729-17.3538 17.6397-18.855 16.3887-20.3563 14.9053-21.1069 13.1896-21.1069 11.4739-21.1069 9.95474-20.3027 8.63221-18.7121 7.30968-17.1036 6.64841-14.7802 6.64841-11.7241Z" fill="#769DA5" fill-rule="nonzero" fill-opacity="1" transform="matrix(1.00115 0 0 1 3159.18 1114.21)"/><path d="M18.5691 0 18.5691-3.48505C16.7283-0.804242 14.2083 0.536164 11.0449 0.536164 9.63305 0.536164 8.32838 0.268081 7.11309-0.268081 5.89778-0.804242 5.00418-1.48338 4.4144-2.28762 3.82463-3.10974 3.41357-4.0927 3.18123-5.27226 3.00251-6.05863 2.93102-7.30968 2.93102-9.02539L2.93102-23.7341 6.95223-23.7341 6.95223-10.5624C6.95223-8.47136 7.02372-7.05947 7.18457-6.32671 7.43478-5.27226 7.98882-4.43227 8.79306-3.82463 9.61517-3.21697 10.6339-2.93102 11.8313-2.93102 13.0466-2.93102 14.1725-3.23484 15.227-3.86037 16.2993-4.46802 17.05-5.308 17.4789-6.38033 17.9257-7.43478 18.1402-8.98965 18.1402-11.0092L18.1402-23.7341 22.1614-23.7341 22.1614 0Z" fill="#769DA5" fill-rule="nonzero" fill-opacity="1" transform="matrix(1.00115 0 0 1 3184.65 1114.21)"/><path d="M11.7956-3.59228 12.3675-0.0357441C11.2415 0.196593 10.2228 0.321697 9.32922 0.321697 7.88158 0.321697 6.75564 0.0893601 5.93353-0.375313 5.12928-0.839988 4.57525-1.44764 4.25355-2.19827 3.91398-2.94889 3.75313-4.53951 3.75313-6.95223L3.75313-20.5886 0.804242-20.5886 0.804242-23.7341 3.75313-23.7341 3.75313-29.5961 7.75648-32.0089 7.75648-23.7341 11.7956-23.7341 11.7956-20.5886 7.75648-20.5886 7.75648-6.7199C7.75648-5.57609 7.82797-4.84333 7.97094-4.50376 8.11392-4.18206 8.32838-3.93186 8.65008-3.73526 8.97178-3.53867 9.43645-3.43144 10.0262-3.43144 10.473-3.43144 11.0628-3.48505 11.7956-3.59228Z" fill="#769DA5" fill-rule="nonzero" fill-opacity="1" transform="matrix(1.00115 0 0 1 3210.13 1114.21)"/><path d="M18.4261-3.09187 18.4261 0 1.10807 0C1.0902-0.7685 1.2153-1.51912 1.48338-2.23401 1.93018-3.41357 2.6272-4.57525 3.61016-5.71906 4.57525-6.86287 5.96927-8.18541 7.81009-9.68666 10.6518-12.0279 12.5819-13.8687 13.5828-15.227 14.5836-16.6032 15.084-17.8899 15.084-19.1052 15.084-20.3742 14.6372-21.4465 13.7257-22.3222 12.8143-23.1979 11.6168-23.6447 10.1513-23.6447 8.59646-23.6447 7.36329-23.1801 6.43394-22.2507 5.5046-21.3214 5.03992-20.0346 5.02205-18.3904L1.71572-18.7299C1.94805-21.1963 2.78804-23.0728 4.27143-24.3596 5.7548-25.6643 7.73861-26.3077 10.2228-26.3077 12.7428-26.3077 14.7266-25.6107 16.1921-24.2167 17.6576-22.8226 18.3904-21.089 18.3904-19.0338 18.3904-17.9793 18.1759-16.9606 17.747-15.9419 17.318-14.9232 16.6032-13.8687 15.6202-12.7428 14.6194-11.6168 12.9572-10.0798 10.6518-8.13179 8.72157-6.50543 7.4884-5.41524 6.93436-4.82546 6.38033-4.25355 5.93353-3.68165 5.57609-3.09187Z" fill="#8F9EA0" fill-rule="nonzero" fill-opacity="1" transform="matrix(1.00115 0 0 1 2526.69 1381.68)"/><path d="M160.134 480.401 411.772 480.401" stroke="#A1B2B4" stroke-width="4.57525" stroke-linecap="square" stroke-linejoin="miter" stroke-miterlimit="3.25" stroke-opacity="1" fill="none" fill-rule="nonzero" transform="matrix(1.00115 0 0 1 2238 917.233)"/><path d="M411.772 114.381 663.411 114.381" stroke="#A1B2B4" stroke-width="4.57525" stroke-linecap="square" stroke-linejoin="miter" stroke-miterlimit="3.25" stroke-opacity="1" fill="none" fill-rule="nonzero" transform="matrix(1.00115 0 0 1 2238 917.233)"/><path d="M663.411 114.381 915.05 114.381" stroke="#A1B2B4" stroke-width="4.57525" stroke-linecap="square" stroke-linejoin="miter" stroke-miterlimit="3.25" stroke-opacity="1" fill="none" fill-rule="nonzero" transform="matrix(1.00115 0 0 1 2238 917.233)"/><path d="M411.772 480.401 663.411 114.381" stroke="#A1B2B4" stroke-width="4.57525" stroke-linecap="square" stroke-linejoin="miter" stroke-miterlimit="3.25" stroke-opacity="1" fill="none" fill-rule="nonzero" transform="matrix(1.00115 0 0 1 2238 917.233)"/><path d="M268.885 467.229 308.418 480.401 268.885 493.573 282.057 480.401Z" fill="#A1B2B4" fill-rule="evenodd" fill-opacity="1" transform="matrix(1.00115 0 0 1 2238 917.233)"/><path d="M520.524 101.21 560.057 114.381 520.524 127.553 533.696 114.381Z" fill="#A1B2B4" fill-rule="evenodd" fill-opacity="1" transform="matrix(1.00115 0 0 1 2238 917.233)"/><path d="M772.163 101.21 811.696 114.381 772.163 127.553 785.334 114.381Z" fill="#A1B2B4" fill-rule="evenodd" fill-opacity="1" transform="matrix(1.00115 0 0 1 2238 917.233)"/><g><g clip-path="url(#clip8)"><g clip-path="url(#clip9)"><path d="M522.526 296.051 555.768 270.941 544.24 310.992 540.845 292.655Z" fill="#A1B2B4" fill-rule="evenodd" fill-opacity="1" transform="matrix(1.00115 0 0 1 2238 917.233)"/></g></g></g><path d="M169.284 480.401C169.284 482.832 168.319 485.155 166.603 486.871 164.888 488.587 162.564 489.552 160.134 489.552 157.703 489.552 155.38 488.587 153.664 486.871 151.948 485.155 150.983 482.832 150.983 480.401 150.983 477.971 151.948 475.647 153.664 473.932 155.38 472.216 157.703 471.251 160.134 471.251 162.564 471.251 164.888 472.216 166.603 473.932 168.319 475.647 169.284 477.971 169.284 480.401Z" stroke="#A1B2B4" stroke-width="4.57525" stroke-linecap="square" stroke-linejoin="miter" stroke-miterlimit="3.25" stroke-opacity="1" fill="#A1B2B4" fill-rule="evenodd" fill-opacity="1" transform="matrix(1.00115 0 0 1 2238 917.233)"/><path d="M368.022 400.62C358.46 400.62 349.31 404.409 342.536 411.165 335.78 417.938 331.992 427.089 331.992 436.65L331.992 524.152C331.992 533.714 335.78 542.864 342.536 549.638 349.31 556.393 358.46 560.182 368.022 560.182L455.523 560.182C465.085 560.182 474.235 556.393 481.009 549.638 487.764 542.864 491.553 533.714 491.553 524.152L491.553 436.65C491.553 427.089 487.764 417.938 481.009 411.165 474.235 404.409 465.085 400.62 455.523 400.62Z" fill="#F8FBFA" fill-rule="evenodd" fill-opacity="1" transform="matrix(1.00115 0 0 1 2238 917.233)"/><g><path d="M368.022 400.62C358.46 400.62 349.31 404.409 342.536 411.165 335.78 417.938 331.992 427.089 331.992 436.65L331.992 524.152C331.992 533.714 335.78 542.864 342.536 549.638 349.31 556.393 358.46 560.182 368.022 560.182L455.523 560.182C465.085 560.182 474.235 556.393 481.009 549.638 487.764 542.864 491.553 533.714 491.553 524.152L491.553 436.65C491.553 427.089 487.764 417.938 481.009 411.165 474.235 404.409 465.085 400.62 455.523 400.62Z" stroke="#3F9883" stroke-width="4.94127" stroke-linecap="square" stroke-linejoin="miter" stroke-miterlimit="3.25" stroke-opacity="1" fill="none" fill-rule="nonzero" transform="matrix(1.00115 0 0 1 2238 917.233)"/></g><path d="M403.355 506.334 381.73 506.334 381.73 450.358 403.355 450.358 403.355 454.844 396.778 454.844 396.778 502.348 403.355 502.348ZM390.809 454.844 385.643 454.844 385.643 502.384 390.773 502.384Z" fill="#00765A" fill-rule="evenodd" fill-opacity="1" transform="matrix(1.00115 0 0 1 2238 917.233)"/><path d="M419.815 502.348 426.392 502.348 426.392 454.844 419.815 454.844 419.815 450.358 441.44 450.358 441.44 506.334 419.815 506.334ZM432.397 502.384 437.526 502.384 437.526 454.844 432.361 454.844Z" fill="#00765A" fill-rule="evenodd" fill-opacity="1" transform="matrix(1.00115 0 0 1 2238 917.233)"/><path d="M420.923 114.381C420.923 116.812 419.958 119.135 418.242 120.851 416.526 122.567 414.203 123.532 411.772 123.532 409.342 123.532 407.018 122.567 405.303 120.851 403.587 119.135 402.622 116.812 402.622 114.381 402.622 111.951 403.587 109.627 405.303 107.912 407.018 106.196 409.342 105.231 411.772 105.231 414.203 105.231 416.526 106.196 418.242 107.912 419.958 109.627 420.923 111.951 420.923 114.381Z" stroke="#A1B2B4" stroke-width="4.57525" stroke-linecap="square" stroke-linejoin="miter" stroke-miterlimit="3.25" stroke-opacity="1" fill="#A1B2B4" fill-rule="evenodd" fill-opacity="1" transform="matrix(1.00115 0 0 1 2238 917.233)"/><path d="M619.66 34.6003C610.099 34.6003 600.948 38.3892 594.175 45.1449 587.419 51.9184 583.63 61.0689 583.63 70.6304L583.63 158.132C583.63 167.694 587.419 176.844 594.175 183.618 600.948 190.373 610.099 194.162 619.66 194.162L707.162 194.162C716.724 194.162 725.874 190.373 732.648 183.618 739.403 176.844 743.192 167.694 743.192 158.132L743.192 70.6304C743.192 61.0689 739.403 51.9184 732.648 45.1449 725.874 38.3892 716.724 34.6003 707.162 34.6003Z" fill="#F8FBFA" fill-rule="evenodd" fill-opacity="1" transform="matrix(1.00115 0 0 1 2238 917.233)"/><g><path d="M619.66 34.6003C610.099 34.6003 600.948 38.3892 594.175 45.1449 587.419 51.9184 583.63 61.0689 583.63 70.6304L583.63 158.132C583.63 167.694 587.419 176.844 594.175 183.618 600.948 190.373 610.099 194.162 619.66 194.162L707.162 194.162C716.724 194.162 725.874 190.373 732.648 183.618 739.403 176.844 743.192 167.694 743.192 158.132L743.192 70.6304C743.192 61.0689 739.403 51.9184 732.648 45.1449 725.874 38.3892 716.724 34.6003 707.162 34.6003Z" stroke="#3F9883" stroke-width="4.94127" stroke-linecap="square" stroke-linejoin="miter" stroke-miterlimit="3.25" stroke-opacity="1" fill="none" fill-rule="nonzero" transform="matrix(1.00115 0 0 1 2238 917.233)"/></g><path d="M651.365 125.676 645.664 125.676 645.664 118.42 652.223 118.42 653.296 109.913 647.201 109.913 647.201 102.657 654.225 102.657 655.833 89.9323 662.321 89.9323 660.802 102.657 668.826 102.657 670.453 89.9323 676.922 89.9323 675.385 102.657 681.48 102.657 681.48 109.913 674.456 109.913 673.437 118.42 679.925 118.42 679.925 125.676 672.597 125.676 670.828 140.117 664.269 140.117 665.967 125.676 658.014 125.676 656.227 140.117 649.668 140.117ZM666.807 118.42 667.879 109.913 659.855 109.913 658.854 118.42Z" fill="#00765A" fill-rule="evenodd" fill-opacity="1" transform="matrix(1.00115 0 0 1 2238 917.233)"/><path d="M924.2 114.381C924.2 116.812 923.235 119.135 921.52 120.851 919.804 122.567 917.481 123.532 915.05 123.532 912.619 123.532 910.296 122.567 908.58 120.851 906.865 119.135 905.899 116.812 905.899 114.381 905.899 111.951 906.865 109.627 908.58 107.912 910.296 106.196 912.619 105.231 915.05 105.231 917.481 105.231 919.804 106.196 921.52 107.912 923.235 109.627 924.2 111.951 924.2 114.381Z" stroke="#A1B2B4" stroke-width="4.57525" stroke-linecap="square" stroke-linejoin="miter" stroke-miterlimit="3.25" stroke-opacity="1" fill="#A1B2B4" fill-rule="evenodd" fill-opacity="1" transform="matrix(1.00115 0 0 1 2238 917.233)"/></g></g></g><text fill="#000000" fill-opacity="1" font-family="Aptos,Aptos_MSFontService,sans-serif" font-style="normal" font-variant="normal" font-weight="400" font-stretch="normal" font-size="83" text-anchor="start" direction="ltr" writing-mode="lr-tb" unicode-bidi="normal" text-decoration="none" transform="matrix(1 0 0 1 1463.5 1831)">(a)</text><text fill="#000000" fill-opacity="1" font-family="Aptos,Aptos_MSFontService,sans-serif" font-style="normal" font-variant="normal" font-weight="400" font-stretch="normal" font-size="83" text-anchor="start" direction="ltr" writing-mode="lr-tb" unicode-bidi="normal" text-decoration="none" transform="matrix(1 0 0 1 2730.42 1831)">(b)</text><path d="M2368.62 1346.68 2381.4 1346.68 2381.4 1436.91 2368.62 1436.91 2368.62 1434.58 2376.43 1434.58 2376.43 1349.01 2368.62 1349.01ZM2319.97 1346.68 2332.76 1346.68 2332.76 1349.01 2324.94 1349.01 2324.94 1434.58 2332.76 1434.58 2332.76 1436.91 2319.97 1436.91Z" fill="#7F7F7F" fill-rule="evenodd" fill-opacity="1"/><text fill="#7F7F7F" fill-opacity="1" font-family="Cambria Math,Cambria Math_MSFontService,sans-serif" font-style="normal" font-variant="normal" font-weight="400" font-stretch="normal" font-size="55" text-anchor="start" direction="ltr" writing-mode="lr-tb" unicode-bidi="normal" text-decoration="none" transform="matrix(1 0 0 1 2334.78 1372)"></text><text fill="#7F7F7F" fill-opacity="1" font-family="Cambria Math,Cambria Math_MSFontService,sans-serif" font-style="normal" font-variant="normal" font-weight="400" font-stretch="normal" font-size="55" text-anchor="start" direction="ltr" writing-mode="lr-tb" unicode-bidi="normal" text-decoration="none" transform="matrix(1 0 0 1 2333.97 1437)"></text><path d="M1098.34 1481.21 1111.13 1481.21 1111.13 1571.44 1098.34 1571.44 1098.34 1569.11 1106.16 1569.11 1106.16 1483.54 1098.34 1483.54ZM1049.7 1481.21 1062.48 1481.21 1062.48 1483.54 1054.66 1483.54 1054.66 1569.11 1062.48 1569.11 1062.48 1571.44 1049.7 1571.44Z" fill="#7F7F7F" fill-rule="evenodd" fill-opacity="1"/><text fill="#7F7F7F" fill-opacity="1" font-family="Cambria Math,Cambria Math_MSFontService,sans-serif" font-style="normal" font-variant="normal" font-weight="400" font-stretch="normal" font-size="55" text-anchor="start" direction="ltr" writing-mode="lr-tb" unicode-bidi="normal" text-decoration="none" transform="matrix(1 0 0 1 1064.5 1507)"></text><text fill="#7F7F7F" fill-opacity="1" font-family="Cambria Math,Cambria Math_MSFontService,sans-serif" font-style="normal" font-variant="normal" font-weight="400" font-stretch="normal" font-size="55" text-anchor="start" direction="ltr" writing-mode="lr-tb" unicode-bidi="normal" text-decoration="none" transform="matrix(1 0 0 1 1063.7 1571)"></text></g></g></svg>