<svg width="1334" height="279" xmlns="http://www.w3.org/2000/svg" xmlns:xlink="http://www.w3.org/1999/xlink" xml:space="preserve" overflow="hidden"><g transform="translate(-1338 -1141)"><g><g><g><g><path d="M4.20883 0 4.20883-32.2618 8.47048-32.2618 8.47048 0Z" fill="#769DA5" fill-rule="nonzero" fill-opacity="1" transform="matrix(1.0115 0 0 1 1453.18 1338.09)"/><path d="M2.97611 0 2.97611-23.3863 6.53336-23.3863 6.53336-20.058C8.25916-22.629 10.7422-23.9146 13.9825-23.9146 15.3913-23.9146 16.6768-23.6504 17.8567-23.1397 19.0366-22.6466 19.9347-21.9775 20.5158-21.1498 21.097-20.3221 21.5196-19.3535 21.7485-18.2265 21.8894-17.4869 21.9775-16.2013 21.9775-14.3699L21.9775 0 17.9976 0 17.9976-14.229C17.9976-15.8315 17.8567-17.0466 17.5397-17.8391 17.2403-18.6315 16.6944-19.2831 15.902-19.7586 15.1095-20.2341 14.1938-20.463 13.1372-20.463 11.4466-20.463 10.0026-19.9347 8.76985-18.8605 7.53714-17.7862 6.93839-15.7611 6.93839-12.7674L6.93839 0Z" fill="#769DA5" fill-rule="nonzero" fill-opacity="1" transform="matrix(1.0115 0 0 1 1465.85 1338.09)"/><path d="M2.97611 8.96356 2.97611-23.3863 6.5862-23.3863 6.5862-20.3397C7.43148-21.5196 8.40004-22.4177 9.47426-23.0165 10.5309-23.6152 11.834-23.9146 13.3661-23.9146 15.356-23.9146 17.1171-23.3863 18.6491-22.3649 20.1812-21.3435 21.3259-19.8819 22.1007-18.0152 22.8756-16.1485 23.263-14.0881 23.263-11.8692 23.263-9.47426 22.8404-7.32582 21.9775-5.40632 21.1146-3.48681 19.8819-2.02517 18.2441-1.00378 16.6064 0.0176101 14.8806 0.528307 13.0667 0.528307 11.746 0.528307 10.5661 0.246542 9.52709-0.316983 8.47048-0.862896 7.60758-1.5673 6.93839-2.4302L6.93839 8.96356ZM6.55097-11.5523C6.55097-8.54092 7.16733-6.32204 8.38243-4.89562 9.59753-3.45159 11.0768-2.72957 12.8202-2.72957 14.5812-2.72957 16.0781-3.4692 17.3284-4.96606 18.5963-6.44531 19.2127-8.76985 19.2127-11.8868 19.2127-14.863 18.5963-17.0995 17.3812-18.5787 16.1485-20.058 14.6869-20.7976 12.9963-20.7976 11.3057-20.7976 9.80885-20.0051 8.5057-18.4378 7.20255-16.8529 6.55097-14.5636 6.55097-11.5523Z" fill="#769DA5" fill-rule="nonzero" fill-opacity="1" transform="matrix(1.0115 0 0 1 1491.21 1338.09)"/><path d="M18.2969 0 18.2969-3.43398C16.4831-0.792455 14.0001 0.528307 10.8831 0.528307 9.49187 0.528307 8.20632 0.264152 7.00884-0.264152 5.81135-0.792455 4.93084-1.46164 4.34971-2.2541 3.76857-3.06417 3.36354-4.03272 3.1346-5.19499 2.9585-5.96984 2.88806-7.20255 2.88806-8.89312L2.88806-23.3863 6.85034-23.3863 6.85034-10.4076C6.85034-8.34721 6.92079-6.95601 7.07928-6.23399 7.32582-5.19499 7.87174-4.36732 8.66419-3.76857 9.47426-3.16983 10.478-2.88806 11.6579-2.88806 12.8554-2.88806 13.9648-3.18743 15.0038-3.80379 16.0605-4.40253 16.8001-5.23021 17.2227-6.28682 17.663-7.32582 17.8743-8.8579 17.8743-10.8478L17.8743-23.3863 21.8366-23.3863 21.8366 0Z" fill="#769DA5" fill-rule="nonzero" fill-opacity="1" transform="matrix(1.0115 0 0 1 1516.58 1338.09)"/><path d="M11.6227-3.53964 12.1862-0.0352203C11.0768 0.193712 10.073 0.316983 9.19249 0.316983 7.76607 0.316983 6.65663 0.0880505 5.84657-0.369813 5.05411-0.827678 4.5082-1.42642 4.19122-2.16605 3.85662-2.90567 3.69813-4.47298 3.69813-6.85034L3.69813-20.2869 0.792455-20.2869 0.792455-23.3863 3.69813-23.3863 3.69813-29.1624 7.6428-31.5398 7.6428-23.3863 11.6227-23.3863 11.6227-20.2869 7.6428-20.2869 7.6428-6.62141C7.6428-5.49436 7.71325-4.77235 7.85413-4.43776 7.99501-4.12077 8.20632-3.87423 8.52331-3.68052 8.84029-3.48681 9.29816-3.38115 9.87929-3.38115 10.3195-3.38115 10.9007-3.43398 11.6227-3.53964Z" fill="#769DA5" fill-rule="nonzero" fill-opacity="1" transform="matrix(1.0115 0 0 1 1541.94 1338.09)"/><path d="M16.8001 0 12.8378 0 12.8378-25.2529C11.8868-24.3372 10.6365-23.4215 9.08683-22.5234 7.53714-21.6076 6.14594-20.9209 4.91323-20.463L4.91323-24.302C7.13211-25.341 9.06923-26.6089 10.7246-28.0882 12.3799-29.5674 13.5598-31.0115 14.2466-32.4027L16.8001-32.4027Z" fill="#769DA5" fill-rule="nonzero" fill-opacity="1" transform="matrix(1.0115 0 0 1 1742.02 1389.93)"/><path d="M22.6995-3.80379 22.6995 0 1.37359 0C1.33837-0.95095 1.49686-1.86667 1.83145-2.74718 2.37737-4.20883 3.24027-5.63525 4.43776-7.04406 5.63525-8.45287 7.36104-10.073 9.61514-11.9397 13.1196-14.8101 15.4969-17.0818 16.7296-18.7724 17.9623-20.4454 18.5787-22.0303 18.5787-23.5272 18.5787-25.0945 18.0152-26.4328 16.8881-27.507 15.7787-28.5813 14.2994-29.1272 12.5032-29.1272 10.6013-29.1272 9.06923-28.546 7.92456-27.4014 6.7799-26.2567 6.19877-24.6718 6.18116-22.6466L2.11322-23.0693C2.39498-26.0982 3.43398-28.4228 5.26543-30.0077 7.07928-31.6102 9.52709-32.4027 12.5913-32.4027 15.6906-32.4027 18.1385-31.5398 19.9347-29.8316 21.7485-28.1058 22.6466-25.975 22.6466-23.4391 22.6466-22.1536 22.3825-20.8856 21.8542-19.6353 21.3259-18.385 20.4454-17.0818 19.2303-15.6906 17.9976-14.317 15.9724-12.4152 13.1196-10.0202 10.7422-8.03023 9.21011-6.67425 8.54092-5.95223 7.87174-5.24782 7.30821-4.52581 6.86796-3.80379Z" fill="#769DA5" fill-rule="nonzero" fill-opacity="1" transform="matrix(1.0115 0 0 1 1992.82 1389.93)"/><path d="M1.9019-8.52331 5.84657-9.05161C6.30443-6.79751 7.07928-5.17738 8.17111-4.19122 9.26294-3.20505 10.6013-2.71196 12.1686-2.71196 14.0353-2.71196 15.6026-3.34593 16.8881-4.64908 18.1737-5.93462 18.8252-7.53714 18.8252-9.43904 18.8252-11.2705 18.2265-12.7674 17.0466-13.9472 15.8491-15.1271 14.3347-15.7082 12.5032-15.7082 11.7636-15.7082 10.8302-15.5674 9.70319-15.2856L10.1434-18.7548C10.4076-18.7196 10.6189-18.702 10.7774-18.702 12.468-18.702 14.0001-19.1598 15.3384-20.0403 16.6944-20.9209 17.3636-22.2768 17.3636-24.1083 17.3636-25.5523 16.8705-26.7674 15.8844-27.7184 14.8982-28.6693 13.6479-29.1448 12.0806-29.1448 10.5485-29.1448 9.26294-28.6693 8.24155-27.6831 7.20255-26.7146 6.55097-25.2706 6.2516-23.3334L2.28932-24.0378C2.7824-26.697 3.87423-28.7574 5.60003-30.219 7.30821-31.6807 9.43904-32.4027 11.9925-32.4027 13.7535-32.4027 15.3737-32.0329 16.8705-31.2756 18.3498-30.5184 19.4768-29.4794 20.2693-28.1762 21.0441-26.8731 21.4492-25.4819 21.4492-24.0202 21.4492-22.629 21.0617-21.3435 20.3221-20.2164 19.5649-19.0718 18.4554-18.1561 16.9938-17.4693 18.8957-17.029 20.3925-16.1309 21.4492-14.7397 22.5058-13.3485 23.0341-11.6227 23.0341-9.52709 23.0341-6.70946 21.9951-4.3321 19.9347-2.35976 17.8919-0.405034 15.2856 0.563525 12.151 0.563525 9.31577 0.563525 6.97362-0.264152 5.08933-1.95473 3.22266-3.6453 2.14844-5.82896 1.9019-8.52331Z" fill="#769DA5" fill-rule="nonzero" fill-opacity="1" transform="matrix(1.0115 0 0 1 2243.62 1389.93)"/><path d="M2.18366-15.7082C2.18366-21.0617 3.61008-25.2706 6.49814-28.2995 9.3686-31.3284 13.0843-32.8429 17.6278-32.8429 20.6039-32.8429 23.2982-32.1385 25.6932-30.7121 28.0882-29.2857 29.902-27.2957 31.1523-24.7599 32.4027-22.2064 33.0366-19.3183 33.0366-16.0957 33.0366-12.8202 32.3851-9.8969 31.0643-7.30821 29.7435-4.71952 27.8592-2.76479 25.4467-1.44403 23.0341-0.105661 20.4102 0.545916 17.6101 0.545916 14.5812 0.545916 11.8516-0.176101 9.47426-1.65536 7.07928-3.11699 5.26543-5.12455 4.03272-7.66041 2.80001-10.1963 2.18366-12.8906 2.18366-15.7082ZM6.5862-15.6554C6.5862-11.7636 7.62519-8.69941 9.7208-6.46292 11.8164-4.22643 14.4403-3.09939 17.5925-3.09939 20.7976-3.09939 23.4391-4.22643 25.5171-6.49814 27.5951-8.75224 28.6341-11.9573 28.6341-16.1133 28.6341-18.7372 28.1938-21.0265 27.3133-22.9988 26.4152-24.9536 25.1121-26.468 23.4039-27.5423 21.6957-28.6341 19.7762-29.1624 17.6454-29.1624 14.634-29.1624 12.0277-28.1234 9.84407-26.0454 7.67802-23.9674 6.5862-20.5158 6.5862-15.6554Z" fill="#769DA5" fill-rule="nonzero" fill-opacity="1" transform="matrix(1.0115 0 0 1 2438.66 1338.09)"/><path d="M18.2969 0 18.2969-3.43398C16.4831-0.792455 14.0001 0.528307 10.8831 0.528307 9.49187 0.528307 8.20632 0.264152 7.00884-0.264152 5.81135-0.792455 4.93084-1.46164 4.34971-2.2541 3.76857-3.06417 3.36354-4.03272 3.1346-5.19499 2.9585-5.96984 2.88806-7.20255 2.88806-8.89312L2.88806-23.3863 6.85034-23.3863 6.85034-10.4076C6.85034-8.34721 6.92079-6.95601 7.07928-6.23399 7.32582-5.19499 7.87174-4.36732 8.66419-3.76857 9.47426-3.16983 10.478-2.88806 11.6579-2.88806 12.8554-2.88806 13.9648-3.18743 15.0038-3.80379 16.0605-4.40253 16.8001-5.23021 17.2227-6.28682 17.663-7.32582 17.8743-8.8579 17.8743-10.8478L17.8743-23.3863 21.8366-23.3863 21.8366 0Z" fill="#769DA5" fill-rule="nonzero" fill-opacity="1" transform="matrix(1.0115 0 0 1 2474.13 1338.09)"/><path d="M11.6227-3.53964 12.1862-0.0352203C11.0768 0.193712 10.073 0.316983 9.19249 0.316983 7.76607 0.316983 6.65663 0.0880505 5.84657-0.369813 5.05411-0.827678 4.5082-1.42642 4.19122-2.16605 3.85662-2.90567 3.69813-4.47298 3.69813-6.85034L3.69813-20.2869 0.792455-20.2869 0.792455-23.3863 3.69813-23.3863 3.69813-29.1624 7.6428-31.5398 7.6428-23.3863 11.6227-23.3863 11.6227-20.2869 7.6428-20.2869 7.6428-6.62141C7.6428-5.49436 7.71325-4.77235 7.85413-4.43776 7.99501-4.12077 8.20632-3.87423 8.52331-3.68052 8.84029-3.48681 9.29816-3.38115 9.87929-3.38115 10.3195-3.38115 10.9007-3.43398 11.6227-3.53964Z" fill="#769DA5" fill-rule="nonzero" fill-opacity="1" transform="matrix(1.0115 0 0 1 2499.49 1338.09)"/><path d="M2.97611 8.96356 2.97611-23.3863 6.5862-23.3863 6.5862-20.3397C7.43148-21.5196 8.40004-22.4177 9.47426-23.0165 10.5309-23.6152 11.834-23.9146 13.3661-23.9146 15.356-23.9146 17.1171-23.3863 18.6491-22.3649 20.1812-21.3435 21.3259-19.8819 22.1007-18.0152 22.8756-16.1485 23.263-14.0881 23.263-11.8692 23.263-9.47426 22.8404-7.32582 21.9775-5.40632 21.1146-3.48681 19.8819-2.02517 18.2441-1.00378 16.6064 0.0176101 14.8806 0.528307 13.0667 0.528307 11.746 0.528307 10.5661 0.246542 9.52709-0.316983 8.47048-0.862896 7.60758-1.5673 6.93839-2.4302L6.93839 8.96356ZM6.55097-11.5523C6.55097-8.54092 7.16733-6.32204 8.38243-4.89562 9.59753-3.45159 11.0768-2.72957 12.8202-2.72957 14.5812-2.72957 16.0781-3.4692 17.3284-4.96606 18.5963-6.44531 19.2127-8.76985 19.2127-11.8868 19.2127-14.863 18.5963-17.0995 17.3812-18.5787 16.1485-20.058 14.6869-20.7976 12.9963-20.7976 11.3057-20.7976 9.80885-20.0051 8.5057-18.4378 7.20255-16.8529 6.55097-14.5636 6.55097-11.5523Z" fill="#769DA5" fill-rule="nonzero" fill-opacity="1" transform="matrix(1.0115 0 0 1 2512.16 1338.09)"/><path d="M18.2969 0 18.2969-3.43398C16.4831-0.792455 14.0001 0.528307 10.8831 0.528307 9.49187 0.528307 8.20632 0.264152 7.00884-0.264152 5.81135-0.792455 4.93084-1.46164 4.34971-2.2541 3.76857-3.06417 3.36354-4.03272 3.1346-5.19499 2.9585-5.96984 2.88806-7.20255 2.88806-8.89312L2.88806-23.3863 6.85034-23.3863 6.85034-10.4076C6.85034-8.34721 6.92079-6.95601 7.07928-6.23399 7.32582-5.19499 7.87174-4.36732 8.66419-3.76857 9.47426-3.16983 10.478-2.88806 11.6579-2.88806 12.8554-2.88806 13.9648-3.18743 15.0038-3.80379 16.0605-4.40253 16.8001-5.23021 17.2227-6.28682 17.663-7.32582 17.8743-8.8579 17.8743-10.8478L17.8743-23.3863 21.8366-23.3863 21.8366 0Z" fill="#769DA5" fill-rule="nonzero" fill-opacity="1" transform="matrix(1.0115 0 0 1 2537.52 1338.09)"/><path d="M11.6227-3.53964 12.1862-0.0352203C11.0768 0.193712 10.073 0.316983 9.19249 0.316983 7.76607 0.316983 6.65663 0.0880505 5.84657-0.369813 5.05411-0.827678 4.5082-1.42642 4.19122-2.16605 3.85662-2.90567 3.69813-4.47298 3.69813-6.85034L3.69813-20.2869 0.792455-20.2869 0.792455-23.3863 3.69813-23.3863 3.69813-29.1624 7.6428-31.5398 7.6428-23.3863 11.6227-23.3863 11.6227-20.2869 7.6428-20.2869 7.6428-6.62141C7.6428-5.49436 7.71325-4.77235 7.85413-4.43776 7.99501-4.12077 8.20632-3.87423 8.52331-3.68052 8.84029-3.48681 9.29816-3.38115 9.87929-3.38115 10.3195-3.38115 10.9007-3.43398 11.6227-3.53964Z" fill="#769DA5" fill-rule="nonzero" fill-opacity="1" transform="matrix(1.0115 0 0 1 2562.88 1338.09)"/><path d="M24.6894 0 20.3925 0C20.1284-0.422643 19.7938-0.968559 19.3888-1.65536 18.9837-2.34215 18.5259-3.08178 18.0328-3.85662 17.5397-4.64908 17.029-5.44153 16.4831-6.23399 15.9372-7.04406 15.3737-7.78368 14.8277-8.47048 14.2818-9.15728 13.7359-9.73841 13.19-10.2139 12.6441-10.6894 12.151-11.0063 11.6931-11.1296 11.2529-11.2529 10.8302-11.3409 10.39-11.3585 9.94973-11.3762 9.49187-11.3938 9.05161-11.3938L9.05161 0 1.37359 0 1.37359-25.8165 13.3661-25.8165C14.0177-25.8165 14.6869-25.7989 15.3384-25.7636 15.99-25.746 16.6416-25.658 17.2932-25.5171 18.1208-25.341 18.8605-25.0416 19.512-24.619 20.1636-24.2139 20.7271-23.7033 21.1674-23.1045 21.6076-22.5234 21.9599-21.8542 22.2064-21.1146 22.4353-20.3749 22.5586-19.5825 22.5586-18.7548 22.5586-17.663 22.3649-16.712 21.9951-15.8844 21.6076-15.0743 21.0793-14.3875 20.4278-13.824 19.7762-13.2604 19.0013-12.8202 18.1385-12.4856 17.2579-12.151 16.3246-11.9221 15.3208-11.7988L15.3208-11.7284C15.8491-11.4994 16.3422-11.2001 16.8001-10.8655 17.2579-10.5309 17.6806-10.1434 18.0856-9.73841 18.4906-9.33337 18.8605-8.89312 19.2127-8.41765 19.5473-7.95978 19.8819-7.50192 20.1812-7.02645ZM19.0366-18.6668C19.0366-19.4592 18.8781-20.1108 18.5611-20.6391 18.2265-21.1674 17.8039-21.59 17.2756-21.907 16.7472-22.2416 16.1485-22.4705 15.4969-22.5938 14.8454-22.7347 14.1762-22.8051 13.507-22.8051L9.05161-22.8051 9.05161-14.4579 12.6793-14.4579C13.4013-14.4579 14.1409-14.5108 14.8982-14.5988 15.6554-14.6869 16.3422-14.8806 16.9586-15.1799 17.5749-15.4793 18.068-15.9196 18.4554-16.4655 18.8429-17.0114 19.0366-17.751 19.0366-18.6668ZM5.35348-2.53586 5.35348-22.7699 3.25788-22.7699 3.25788-2.53586Z" fill="#8F9EA0" fill-rule="nonzero" fill-opacity="1" transform="matrix(1.0115 0 0 1 1629.35 1240.99)"/><path d="M18.1561-3.04655 18.1561 0 1.09183 0C1.07422-0.757237 1.19749-1.49686 1.46164-2.20127 1.9019-3.36354 2.58869-4.5082 3.55725-5.63525 4.5082-6.7623 5.88179-8.06544 7.69563-9.5447 10.4956-11.8516 12.3975-13.6655 13.3837-15.0038 14.3699-16.3598 14.863-17.6278 14.863-18.8252 14.863-20.0756 14.4227-21.1322 13.5246-21.9951 12.6265-22.858 11.4466-23.2982 10.0026-23.2982 8.47048-23.2982 7.25538-22.8404 6.33965-21.9246 5.42392-21.0089 4.96606-19.741 4.94845-18.1208L1.69057-18.4554C1.9195-20.8856 2.74718-22.7347 4.20883-24.0026 5.67046-25.2882 7.62519-25.9221 10.073-25.9221 12.556-25.9221 14.5108-25.2353 15.9548-23.8617 17.3988-22.4882 18.1208-20.78 18.1208-18.7548 18.1208-17.7158 17.9095-16.712 17.4869-15.7082 17.0642-14.7045 16.3598-13.6655 15.3913-12.556 14.4051-11.4466 12.7674-9.93212 10.4956-8.01262 8.59375-6.41009 7.37865-5.33587 6.83274-4.75474 6.28682-4.19122 5.84657-3.62769 5.49436-3.04655Z" fill="#8F9EA0" fill-rule="nonzero" fill-opacity="1" transform="matrix(1.0115 0 0 1 1872.35 1240.99)"/><path d="M1.49686-12.7321C1.49686-15.7787 1.81385-18.2441 2.44781-20.0932 3.06417-21.9599 3.9975-23.4039 5.24782-24.4077 6.48053-25.4114 8.03023-25.9221 9.91451-25.9221 11.3057-25.9221 12.5208-25.6404 13.5598-25.0768 14.5988-24.5309 15.4617-23.7209 16.1485-22.6643 16.8353-21.6253 17.3636-20.3397 17.751-18.8252 18.1385-17.3284 18.3322-15.2856 18.3322-12.7321 18.3322-9.70319 18.0152-7.25538 17.3988-5.3887 16.7825-3.53964 15.8491-2.09561 14.6164-1.07422 13.3661-0.0704406 11.7988 0.440253 9.91451 0.440253 7.43148 0.440253 5.47676-0.457861 4.05034-2.23649 2.34215-4.38492 1.49686-7.88934 1.49686-12.7321ZM4.75474-12.7321C4.75474-8.48809 5.24782-5.67046 6.2516-4.26165 7.23777-2.87045 8.45287-2.16605 9.91451-2.16605 11.3762-2.16605 12.5913-2.87045 13.595-4.27927 14.5812-5.68808 15.0743-8.5057 15.0743-12.7321 15.0743-16.9762 14.5812-19.8114 13.595-21.2026 12.5913-22.5938 11.3585-23.2982 9.87929-23.2982 8.41765-23.2982 7.25538-22.6819 6.39248-21.4492 5.30065-19.8819 4.75474-16.9762 4.75474-12.7321Z" fill="#8F9EA0" fill-rule="nonzero" fill-opacity="1" transform="matrix(1.0115 0 0 1 1892.64 1240.99)"/><path d="M18.1561-3.04655 18.1561 0 1.09183 0C1.07422-0.757237 1.19749-1.49686 1.46164-2.20127 1.9019-3.36354 2.58869-4.5082 3.55725-5.63525 4.5082-6.7623 5.88179-8.06544 7.69563-9.5447 10.4956-11.8516 12.3975-13.6655 13.3837-15.0038 14.3699-16.3598 14.863-17.6278 14.863-18.8252 14.863-20.0756 14.4227-21.1322 13.5246-21.9951 12.6265-22.858 11.4466-23.2982 10.0026-23.2982 8.47048-23.2982 7.25538-22.8404 6.33965-21.9246 5.42392-21.0089 4.96606-19.741 4.94845-18.1208L1.69057-18.4554C1.9195-20.8856 2.74718-22.7347 4.20883-24.0026 5.67046-25.2882 7.62519-25.9221 10.073-25.9221 12.556-25.9221 14.5108-25.2353 15.9548-23.8617 17.3988-22.4882 18.1208-20.78 18.1208-18.7548 18.1208-17.7158 17.9095-16.712 17.4869-15.7082 17.0642-14.7045 16.3598-13.6655 15.3913-12.556 14.4051-11.4466 12.7674-9.93212 10.4956-8.01262 8.59375-6.41009 7.37865-5.33587 6.83274-4.75474 6.28682-4.19122 5.84657-3.62769 5.49436-3.04655Z" fill="#8F9EA0" fill-rule="nonzero" fill-opacity="1" transform="matrix(1.0115 0 0 1 2123.15 1240.99)"/><path d="M1.49686-12.7321C1.49686-15.7787 1.81385-18.2441 2.44781-20.0932 3.06417-21.9599 3.9975-23.4039 5.24782-24.4077 6.48053-25.4114 8.03023-25.9221 9.91451-25.9221 11.3057-25.9221 12.5208-25.6404 13.5598-25.0768 14.5988-24.5309 15.4617-23.7209 16.1485-22.6643 16.8353-21.6253 17.3636-20.3397 17.751-18.8252 18.1385-17.3284 18.3322-15.2856 18.3322-12.7321 18.3322-9.70319 18.0152-7.25538 17.3988-5.3887 16.7825-3.53964 15.8491-2.09561 14.6164-1.07422 13.3661-0.0704406 11.7988 0.440253 9.91451 0.440253 7.43148 0.440253 5.47676-0.457861 4.05034-2.23649 2.34215-4.38492 1.49686-7.88934 1.49686-12.7321ZM4.75474-12.7321C4.75474-8.48809 5.24782-5.67046 6.2516-4.26165 7.23777-2.87045 8.45287-2.16605 9.91451-2.16605 11.3762-2.16605 12.5913-2.87045 13.595-4.27927 14.5812-5.68808 15.0743-8.5057 15.0743-12.7321 15.0743-16.9762 14.5812-19.8114 13.595-21.2026 12.5913-22.5938 11.3585-23.2982 9.87929-23.2982 8.41765-23.2982 7.25538-22.6819 6.39248-21.4492 5.30065-19.8819 4.75474-16.9762 4.75474-12.7321Z" fill="#8F9EA0" fill-rule="nonzero" fill-opacity="1" transform="matrix(1.0115 0 0 1 2143.44 1240.99)"/><path d="M18.1561-3.04655 18.1561 0 1.09183 0C1.07422-0.757237 1.19749-1.49686 1.46164-2.20127 1.9019-3.36354 2.58869-4.5082 3.55725-5.63525 4.5082-6.7623 5.88179-8.06544 7.69563-9.5447 10.4956-11.8516 12.3975-13.6655 13.3837-15.0038 14.3699-16.3598 14.863-17.6278 14.863-18.8252 14.863-20.0756 14.4227-21.1322 13.5246-21.9951 12.6265-22.858 11.4466-23.2982 10.0026-23.2982 8.47048-23.2982 7.25538-22.8404 6.33965-21.9246 5.42392-21.0089 4.96606-19.741 4.94845-18.1208L1.69057-18.4554C1.9195-20.8856 2.74718-22.7347 4.20883-24.0026 5.67046-25.2882 7.62519-25.9221 10.073-25.9221 12.556-25.9221 14.5108-25.2353 15.9548-23.8617 17.3988-22.4882 18.1208-20.78 18.1208-18.7548 18.1208-17.7158 17.9095-16.712 17.4869-15.7082 17.0642-14.7045 16.3598-13.6655 15.3913-12.556 14.4051-11.4466 12.7674-9.93212 10.4956-8.01262 8.59375-6.41009 7.37865-5.33587 6.83274-4.75474 6.28682-4.19122 5.84657-3.62769 5.49436-3.04655Z" fill="#8F9EA0" fill-rule="nonzero" fill-opacity="1" transform="matrix(1.0115 0 0 1 2384.1 1240.99)"/><path d="M157.787 112.705 405.738 112.705" stroke="#A1B2B4" stroke-width="4.5082" stroke-linecap="square" stroke-linejoin="miter" stroke-miterlimit="3.25" stroke-opacity="1" fill="none" fill-rule="nonzero" transform="matrix(1.0115 0 0 1 1344.29 1144)"/><path d="M405.738 112.705 653.689 112.705" stroke="#A1B2B4" stroke-width="4.5082" stroke-linecap="square" stroke-linejoin="miter" stroke-miterlimit="3.25" stroke-opacity="1" fill="none" fill-rule="nonzero" transform="matrix(1.0115 0 0 1 1344.29 1144)"/><path d="M653.689 112.705 901.639 112.705" stroke="#A1B2B4" stroke-width="4.5082" stroke-linecap="square" stroke-linejoin="miter" stroke-miterlimit="3.25" stroke-opacity="1" fill="none" fill-rule="nonzero" transform="matrix(1.0115 0 0 1 1344.29 1144)"/><path d="M901.639 112.705 1149.59 112.705" stroke="#A1B2B4" stroke-width="4.5082" stroke-linecap="square" stroke-linejoin="miter" stroke-miterlimit="3.25" stroke-opacity="1" fill="none" fill-rule="nonzero" transform="matrix(1.0115 0 0 1 1344.29 1144)"/><path d="M264.945 99.7262 303.898 112.705 264.945 125.684 277.923 112.705Z" fill="#A1B2B4" fill-rule="evenodd" fill-opacity="1" transform="matrix(1.0115 0 0 1 1344.29 1144)"/><path d="M512.895 99.7262 551.849 112.705 512.895 125.684 525.874 112.705Z" fill="#A1B2B4" fill-rule="evenodd" fill-opacity="1" transform="matrix(1.0115 0 0 1 1344.29 1144)"/><path d="M760.846 99.7262 799.8 112.705 760.846 125.684 773.825 112.705Z" fill="#A1B2B4" fill-rule="evenodd" fill-opacity="1" transform="matrix(1.0115 0 0 1 1344.29 1144)"/><path d="M1008.8 99.7262 1047.75 112.705 1008.8 125.684 1021.78 112.705Z" fill="#A1B2B4" fill-rule="evenodd" fill-opacity="1" transform="matrix(1.0115 0 0 1 1344.29 1144)"/><path d="M166.803 112.705C166.803 115.1 165.852 117.389 164.162 119.08 162.471 120.77 160.182 121.721 157.787 121.721 155.392 121.721 153.103 120.77 151.412 119.08 149.721 117.389 148.77 115.1 148.77 112.705 148.77 110.31 149.721 108.021 151.412 106.33 153.103 104.639 155.392 103.689 157.787 103.689 160.182 103.689 162.471 104.639 164.162 106.33 165.852 108.021 166.803 110.31 166.803 112.705Z" stroke="#A1B2B4" stroke-width="4.5082" stroke-linecap="square" stroke-linejoin="miter" stroke-miterlimit="3.25" stroke-opacity="1" fill="#A1B2B4" fill-rule="evenodd" fill-opacity="1" transform="matrix(1.0115 0 0 1 1344.29 1144)"/><path d="M362.628 34.0932C353.207 34.0932 344.19 37.8266 337.516 44.4832 330.859 51.1575 327.126 60.1739 327.126 69.5953L327.126 155.815C327.126 165.236 330.859 174.252 337.516 180.927 344.19 187.583 353.207 191.317 362.628 191.317L448.847 191.317C458.269 191.317 467.285 187.583 473.959 180.927 480.616 174.252 484.349 165.236 484.349 155.815L484.349 69.5953C484.349 60.1739 480.616 51.1575 473.959 44.4832 467.285 37.8266 458.269 34.0932 448.847 34.0932Z" fill="#FDF9F9" fill-rule="evenodd" fill-opacity="1" transform="matrix(1.0115 0 0 1 1344.29 1144)"/><g><path d="M362.628 34.0932C353.207 34.0932 344.19 37.8266 337.516 44.4832 330.859 51.1575 327.126 60.1739 327.126 69.5953L327.126 155.815C327.126 165.236 330.859 174.252 337.516 180.927 344.19 187.583 353.207 191.317 362.628 191.317L448.847 191.317C458.269 191.317 467.285 187.583 473.959 180.927 480.616 174.252 484.349 165.236 484.349 155.815L484.349 69.5953C484.349 60.1739 480.616 51.1575 473.959 44.4832 467.285 37.8266 458.269 34.0932 448.847 34.0932Z" stroke="#D05159" stroke-width="4.86885" stroke-linecap="square" stroke-linejoin="miter" stroke-miterlimit="3.25" stroke-opacity="1" fill="none" fill-rule="nonzero" transform="matrix(1.0115 0 0 1 1344.29 1144)"/></g><path d="M388.621 134.806 371.504 92.013" stroke="#A6A6A6" stroke-width="5.79625" stroke-linecap="round" stroke-linejoin="round" stroke-miterlimit="3.25" stroke-opacity="1" fill="none" fill-rule="nonzero" transform="matrix(1.0115 0 0 1 1344.29 1144)"/><path d="M388.621 134.806 405.738 92.013" stroke="#A6A6A6" stroke-width="5.79625" stroke-linecap="round" stroke-linejoin="round" stroke-miterlimit="3.25" stroke-opacity="1" fill="none" fill-rule="nonzero" transform="matrix(1.0115 0 0 1 1344.29 1144)"/><path d="M388.621 134.806 439.972 92.013" stroke="#A6A6A6" stroke-width="5.79625" stroke-linecap="round" stroke-linejoin="round" stroke-miterlimit="3.25" stroke-opacity="1" fill="none" fill-rule="nonzero" transform="matrix(1.0115 0 0 1 1344.29 1144)"/><path d="M422.855 134.806 371.504 92.013" stroke="#A6A6A6" stroke-width="5.79625" stroke-linecap="round" stroke-linejoin="round" stroke-miterlimit="3.25" stroke-opacity="1" fill="none" fill-rule="nonzero" transform="matrix(1.0115 0 0 1 1344.29 1144)"/><path d="M422.855 134.806 405.738 92.013" stroke="#A6A6A6" stroke-width="5.79625" stroke-linecap="round" stroke-linejoin="round" stroke-miterlimit="3.25" stroke-opacity="1" fill="none" fill-rule="nonzero" transform="matrix(1.0115 0 0 1 1344.29 1144)"/><path d="M422.855 134.806 439.972 92.013" stroke="#A6A6A6" stroke-width="5.79625" stroke-linecap="round" stroke-linejoin="round" stroke-miterlimit="3.25" stroke-opacity="1" fill="none" fill-rule="nonzero" transform="matrix(1.0115 0 0 1 1344.29 1144)"/><path d="M450.115 93.1224C450.115 95.4822 449.182 97.7363 447.527 99.4093 445.854 101.065 443.6 101.998 441.24 101.998 438.88 101.998 436.626 101.065 434.953 99.4093 433.298 97.7363 432.364 95.4822 432.364 93.1224 432.364 90.7627 433.298 88.5086 434.953 86.8532 436.626 85.1803 438.88 84.2469 441.24 84.2469 443.6 84.2469 445.854 85.1803 447.527 86.8532 449.182 88.5086 450.115 90.7627 450.115 93.1224ZM414.613 93.1224C414.613 95.4822 413.68 97.7363 412.025 99.4093 410.352 101.065 408.097 101.998 405.738 101.998 403.378 101.998 401.124 101.065 399.451 99.4093 397.796 97.7363 396.862 95.4822 396.862 93.1224 396.862 90.7627 397.796 88.5086 399.451 86.8532 401.124 85.1803 403.378 84.2469 405.738 84.2469 408.097 84.2469 410.352 85.1803 412.025 86.8532 413.68 88.5086 414.613 90.7627 414.613 93.1224ZM379.111 93.1224C379.111 95.4822 378.178 97.7363 376.522 99.4093 374.85 101.065 372.595 101.998 370.236 101.998 367.876 101.998 365.622 101.065 363.949 99.4093 362.293 97.7363 361.36 95.4822 361.36 93.1224 361.36 90.7627 362.293 88.5086 363.949 86.8532 365.622 85.1803 367.876 84.2469 370.236 84.2469 372.595 84.2469 374.85 85.1803 376.522 86.8532 378.178 88.5086 379.111 90.7627 379.111 93.1224ZM429.828 133.696C429.828 136.056 428.895 138.31 427.24 139.983 425.567 141.638 423.313 142.572 420.953 142.572 418.593 142.572 416.339 141.638 414.666 139.983 413.011 138.31 412.077 136.056 412.077 133.696 412.077 131.336 413.011 129.082 414.666 127.427 416.339 125.754 418.593 124.821 420.953 124.821 423.313 124.821 425.567 125.754 427.24 127.427 428.895 129.082 429.828 131.336 429.828 133.696ZM399.398 133.696C399.398 136.056 398.465 138.31 396.809 139.983 395.136 141.638 392.882 142.572 390.523 142.572 388.163 142.572 385.909 141.638 384.236 139.983 382.58 138.31 381.647 136.056 381.647 133.696 381.647 131.336 382.58 129.082 384.236 127.427 385.909 125.754 388.163 124.821 390.523 124.821 392.882 124.821 395.136 125.754 396.809 127.427 398.465 129.082 399.398 131.336 399.398 133.696Z" fill="#C01722" fill-rule="evenodd" fill-opacity="1" transform="matrix(1.0115 0 0 1 1344.29 1144)"/><path d="M610.579 34.0932C601.157 34.0932 592.141 37.8266 585.467 44.4832 578.81 51.1575 575.077 60.1739 575.077 69.5953L575.077 155.815C575.077 165.236 578.81 174.252 585.467 180.927 592.141 187.583 601.157 191.317 610.579 191.317L696.798 191.317C706.22 191.317 715.236 187.583 721.91 180.927 728.567 174.252 732.3 165.236 732.3 155.815L732.3 69.5953C732.3 60.1739 728.567 51.1575 721.91 44.4832 715.236 37.8266 706.22 34.0932 696.798 34.0932Z" fill="#F8FBFA" fill-rule="evenodd" fill-opacity="1" transform="matrix(1.0115 0 0 1 1344.29 1144)"/><g><path d="M610.579 34.0932C601.157 34.0932 592.141 37.8266 585.467 44.4832 578.81 51.1575 575.077 60.1739 575.077 69.5953L575.077 155.815C575.077 165.236 578.81 174.252 585.467 180.927 592.141 187.583 601.157 191.317 610.579 191.317L696.798 191.317C706.22 191.317 715.236 187.583 721.91 180.927 728.567 174.252 732.3 165.236 732.3 155.815L732.3 69.5953C732.3 60.1739 728.567 51.1575 721.91 44.4832 715.236 37.8266 706.22 34.0932 696.798 34.0932Z" stroke="#3F9883" stroke-width="4.86885" stroke-linecap="square" stroke-linejoin="miter" stroke-miterlimit="3.25" stroke-opacity="1" fill="none" fill-rule="nonzero" transform="matrix(1.0115 0 0 1 1344.29 1144)"/></g><g><path d="M606.405 141.938 608.29 141.744 610.174 141.533 612.076 141.286 613.96 140.987 615.862 140.652 617.746 140.247 619.648 139.807 621.532 139.279 623.417 138.662 625.319 137.975 627.203 137.183 629.105 136.285 630.989 135.264 632.873 134.119 634.775 132.833 636.66 131.407 638.561 129.84 640.446 128.114 642.348 126.23 644.232 124.222 646.116 122.091 648.018 119.837 649.902 117.512 651.804 115.118 655.573 110.292 657.475 107.897 659.359 105.573 661.261 103.319 663.145 101.188 665.029 99.1803 666.931 97.296 668.816 95.5703 670.718 94.0029 672.602 92.5765 674.504 91.291 676.388 90.1463 678.272 89.1249 680.174 88.2268 682.058 87.4344 683.96 86.7476 685.845 86.1312 687.729 85.6029 689.631 85.1627 691.515 84.7576 693.417 84.423 695.301 84.1237 697.203 83.8771 699.087 83.6658 700.972 83.4721" stroke="#049B80" stroke-width="5.86066" stroke-linecap="square" stroke-linejoin="miter" stroke-miterlimit="3.25" stroke-opacity="1" fill="none" fill-rule="nonzero" transform="matrix(1.0115 0 0 1 1344.29 1144)"/></g><path d="M594.571 112.705 712.806 112.705" stroke="#000000" stroke-width="0.901639" stroke-linecap="square" stroke-linejoin="miter" stroke-miterlimit="3.25" stroke-opacity="0.3" fill="none" fill-rule="nonzero" transform="matrix(1.0115 0 0 1 1344.29 1144)"/><path d="M653.689 149.246 653.689 76.1639" stroke="#000000" stroke-width="0.901639" stroke-linecap="square" stroke-linejoin="miter" stroke-miterlimit="3.25" stroke-opacity="0.3" fill="none" fill-rule="nonzero" transform="matrix(1.0115 0 0 1 1344.29 1144)"/><path d="M858.53 34.0932C849.108 34.0932 840.092 37.8266 833.418 44.4832 826.761 51.1575 823.028 60.1739 823.028 69.5953L823.028 155.815C823.028 165.236 826.761 174.252 833.418 180.927 840.092 187.583 849.108 191.317 858.53 191.317L944.749 191.317C954.17 191.317 963.187 187.583 969.861 180.927 976.518 174.252 980.251 165.236 980.251 155.815L980.251 69.5953C980.251 60.1739 976.518 51.1575 969.861 44.4832 963.187 37.8266 954.17 34.0932 944.749 34.0932Z" fill="#FDF9F9" fill-rule="evenodd" fill-opacity="1" transform="matrix(1.0115 0 0 1 1344.29 1144)"/><g><path d="M858.53 34.0932C849.108 34.0932 840.092 37.8266 833.418 44.4832 826.761 51.1575 823.028 60.1739 823.028 69.5953L823.028 155.815C823.028 165.236 826.761 174.252 833.418 180.927 840.092 187.583 849.108 191.317 858.53 191.317L944.749 191.317C954.17 191.317 963.187 187.583 969.861 180.927 976.518 174.252 980.251 165.236 980.251 155.815L980.251 69.5953C980.251 60.1739 976.518 51.1575 969.861 44.4832 963.187 37.8266 954.17 34.0932 944.749 34.0932Z" stroke="#D05159" stroke-width="4.86885" stroke-linecap="square" stroke-linejoin="miter" stroke-miterlimit="3.25" stroke-opacity="1" fill="none" fill-rule="nonzero" transform="matrix(1.0115 0 0 1 1344.29 1144)"/></g><path d="M884.522 134.806 867.405 92.013" stroke="#A6A6A6" stroke-width="5.79625" stroke-linecap="round" stroke-linejoin="round" stroke-miterlimit="3.25" stroke-opacity="1" fill="none" fill-rule="nonzero" transform="matrix(1.0115 0 0 1 1344.29 1144)"/><path d="M884.522 134.806 901.639 92.013" stroke="#A6A6A6" stroke-width="5.79625" stroke-linecap="round" stroke-linejoin="round" stroke-miterlimit="3.25" stroke-opacity="1" fill="none" fill-rule="nonzero" transform="matrix(1.0115 0 0 1 1344.29 1144)"/><path d="M884.522 134.806 935.873 92.013" stroke="#A6A6A6" stroke-width="5.79625" stroke-linecap="round" stroke-linejoin="round" stroke-miterlimit="3.25" stroke-opacity="1" fill="none" fill-rule="nonzero" transform="matrix(1.0115 0 0 1 1344.29 1144)"/><path d="M918.756 134.806 867.405 92.013" stroke="#A6A6A6" stroke-width="5.79625" stroke-linecap="round" stroke-linejoin="round" stroke-miterlimit="3.25" stroke-opacity="1" fill="none" fill-rule="nonzero" transform="matrix(1.0115 0 0 1 1344.29 1144)"/><path d="M918.756 134.806 901.639 92.013" stroke="#A6A6A6" stroke-width="5.79625" stroke-linecap="round" stroke-linejoin="round" stroke-miterlimit="3.25" stroke-opacity="1" fill="none" fill-rule="nonzero" transform="matrix(1.0115 0 0 1 1344.29 1144)"/><path d="M918.756 134.806 935.873 92.013" stroke="#A6A6A6" stroke-width="5.79625" stroke-linecap="round" stroke-linejoin="round" stroke-miterlimit="3.25" stroke-opacity="1" fill="none" fill-rule="nonzero" transform="matrix(1.0115 0 0 1 1344.29 1144)"/><path d="M946.017 93.1224C946.017 95.4822 945.084 97.7363 943.428 99.4093 941.755 101.065 939.501 101.998 937.141 101.998 934.782 101.998 932.528 101.065 930.855 99.4093 929.199 97.7363 928.266 95.4822 928.266 93.1224 928.266 90.7627 929.199 88.5086 930.855 86.8532 932.528 85.1803 934.782 84.2469 937.141 84.2469 939.501 84.2469 941.755 85.1803 943.428 86.8532 945.084 88.5086 946.017 90.7627 946.017 93.1224ZM910.515 93.1224C910.515 95.4822 909.582 97.7363 907.926 99.4093 906.253 101.065 903.999 101.998 901.639 101.998 899.28 101.998 897.026 101.065 895.353 99.4093 893.697 97.7363 892.764 95.4822 892.764 93.1224 892.764 90.7627 893.697 88.5086 895.353 86.8532 897.026 85.1803 899.28 84.2469 901.639 84.2469 903.999 84.2469 906.253 85.1803 907.926 86.8532 909.582 88.5086 910.515 90.7627 910.515 93.1224ZM875.013 93.1224C875.013 95.4822 874.079 97.7363 872.424 99.4093 870.751 101.065 868.497 101.998 866.137 101.998 863.778 101.998 861.523 101.065 859.851 99.4093 858.195 97.7363 857.262 95.4822 857.262 93.1224 857.262 90.7627 858.195 88.5086 859.851 86.8532 861.523 85.1803 863.778 84.2469 866.137 84.2469 868.497 84.2469 870.751 85.1803 872.424 86.8532 874.079 88.5086 875.013 90.7627 875.013 93.1224ZM925.73 133.696C925.73 136.056 924.797 138.31 923.141 139.983 921.468 141.638 919.214 142.572 916.855 142.572 914.495 142.572 912.241 141.638 910.568 139.983 908.912 138.31 907.979 136.056 907.979 133.696 907.979 131.336 908.912 129.082 910.568 127.427 912.241 125.754 914.495 124.821 916.855 124.821 919.214 124.821 921.468 125.754 923.141 127.427 924.797 129.082 925.73 131.336 925.73 133.696ZM895.3 133.696C895.3 136.056 894.366 138.31 892.711 139.983 891.038 141.638 888.784 142.572 886.424 142.572 884.064 142.572 881.81 141.638 880.137 139.983 878.482 138.31 877.549 136.056 877.549 133.696 877.549 131.336 878.482 129.082 880.137 127.427 881.81 125.754 884.064 124.821 886.424 124.821 888.784 124.821 891.038 125.754 892.711 127.427 894.366 129.082 895.3 131.336 895.3 133.696Z" fill="#C01722" fill-rule="evenodd" fill-opacity="1" transform="matrix(1.0115 0 0 1 1344.29 1144)"/><path d="M1158.61 112.705C1158.61 115.1 1157.66 117.389 1155.97 119.08 1154.27 120.77 1151.99 121.721 1149.59 121.721 1147.2 121.721 1144.91 120.77 1143.22 119.08 1141.52 117.389 1140.57 115.1 1140.57 112.705 1140.57 110.31 1141.52 108.021 1143.22 106.33 1144.91 104.639 1147.2 103.689 1149.59 103.689 1151.99 103.689 1154.27 104.639 1155.97 106.33 1157.66 108.021 1158.61 110.31 1158.61 112.705Z" stroke="#A1B2B4" stroke-width="4.5082" stroke-linecap="square" stroke-linejoin="miter" stroke-miterlimit="3.25" stroke-opacity="1" fill="#A1B2B4" fill-rule="evenodd" fill-opacity="1" transform="matrix(1.0115 0 0 1 1344.29 1144)"/></g></g></g><path d="M2580.97 1211.81 2593.75 1211.81 2593.75 1302.04 2580.97 1302.04 2580.97 1299.71 2588.78 1299.71 2588.78 1214.14 2580.97 1214.14ZM2532.32 1211.81 2545.1 1211.81 2545.1 1214.14 2537.29 1214.14 2537.29 1299.71 2545.1 1299.71 2545.1 1302.04 2532.32 1302.04Z" fill="#7F7F7F" fill-rule="evenodd" fill-opacity="1"/><text fill="#7F7F7F" fill-opacity="1" font-family="Cambria Math,Cambria Math_MSFontService,sans-serif" font-style="normal" font-variant="normal" font-weight="400" font-stretch="normal" font-size="55" text-anchor="start" direction="ltr" writing-mode="lr-tb" unicode-bidi="normal" text-decoration="none" transform="matrix(1 0 0 1 2547.12 1237)">𝜇</text><text fill="#7F7F7F" fill-opacity="1" font-family="Cambria Math,Cambria Math_MSFontService,sans-serif" font-style="normal" font-variant="normal" font-weight="400" font-stretch="normal" font-size="55" text-anchor="start" direction="ltr" writing-mode="lr-tb" unicode-bidi="normal" text-decoration="none" transform="matrix(1 0 0 1 2546.32 1302)">𝜎</text><text fill="#7F7F7F" fill-opacity="1" font-family="Cambria Math,Cambria Math_MSFontService,sans-serif" font-style="normal" font-variant="normal" font-weight="400" font-stretch="normal" font-size="55" text-anchor="start" direction="ltr" writing-mode="lr-tb" unicode-bidi="normal" text-decoration="none" transform="matrix(1 0 0 1 1449.5 1271)">𝑥</text></g></g></svg>