<svg width="684" height="357" xmlns="http://www.w3.org/2000/svg" xmlns:xlink="http://www.w3.org/1999/xlink" xml:space="preserve" overflow="hidden"><defs><clipPath id="clip0"><rect x="0" y="0" width="684" height="357"/></clipPath><clipPath id="clip1"><rect x="0" y="0" width="683" height="357"/></clipPath><clipPath id="clip2"><rect x="0" y="0" width="683" height="357"/></clipPath><clipPath id="clip3"><rect x="0" y="0" width="683" height="357"/></clipPath><clipPath id="clip4"><rect x="0" y="0" width="683" height="357"/></clipPath></defs><g clip-path="url(#clip0)"><g clip-path="url(#clip1)"><g clip-path="url(#clip2)"><g clip-path="url(#clip3)"><g clip-path="url(#clip4)"><text fill="#5A80D1" fill-opacity="1" font-family="Cambria Math,Cambria Math_MSFontService,sans-serif" font-style="normal" font-variant="normal" font-weight="400" font-stretch="normal" font-size="36" text-anchor="start" direction="ltr" writing-mode="lr-tb" unicode-bidi="normal" text-decoration="none" transform="matrix(0.404621 0 0 0.404762 41.2555 87)">Minimize</text><path d="M3.32152-17.134 11.8067-5.61173 11.8067-4.75114 2.64584 7.68148 14.986 7.68148C15.5313 7.68148 15.9485 7.48945 16.2378 7.10534 16.527 6.72128 16.7759 5.86304 16.9846 4.53066L18.0372 4.53066 17.6745 9.74408 0.184924 9.74408 0.184924 9.03996 10.1495-4.46665 0.476534-17.39 0.476534-18.0657 17.6532-18.0657 17.6532-13.8551 16.7143-13.8551C16.6053-14.8651 16.3848-15.664 16.0528-16.252 15.7209-16.84 15.2183-17.134 14.545-17.134Z" fill="#5A80D1" fill-rule="nonzero" fill-opacity="1" transform="matrix(1 0 0 1.00035 104.781 87.0238)"/><text fill="#5A80D1" fill-opacity="1" font-family="Cambria Math,Cambria Math_MSFontService,sans-serif" font-style="normal" font-variant="normal" font-weight="400" font-stretch="normal" font-size="36" text-anchor="start" direction="ltr" writing-mode="lr-tb" unicode-bidi="normal" text-decoration="none" transform="matrix(0.404621 0 0 0.404762 126.517 87)">âˆ†ğ‘¦<tspan fill="#5A80D1" fill-opacity="1" font-family="Cambria Math,Cambria Math_MSFontService,sans-serif" font-style="normal" font-variant="normal" font-weight="400" font-stretch="normal" font-size="26" text-anchor="start" direction="ltr" writing-mode="lr-tb" unicode-bidi="normal" text-decoration="none" x="40.66" y="7.41176">ğ‘–</tspan><tspan fill="#5A80D1" fill-opacity="1" font-family="Cambria Math,Cambria Math_MSFontService,sans-serif" font-style="normal" font-variant="normal" font-weight="400" font-stretch="normal" font-size="26" text-anchor="start" direction="ltr" writing-mode="lr-tb" unicode-bidi="normal" text-decoration="none" x="52.3" y="-14.8235">2</tspan><tspan fill="#5A80D1" fill-opacity="1" font-family="Cambria Math,Cambria Math_MSFontService,sans-serif" font-style="normal" font-variant="normal" font-weight="400" font-stretch="normal" font-size="26" text-anchor="start" direction="ltr" writing-mode="lr-tb" unicode-bidi="normal" text-decoration="none" x="-34.94" y="46.9412">ğ‘–</tspan><tspan fill="#5A80D1" fill-opacity="1" font-family="Cambria Math,Cambria Math_MSFontService,sans-serif" font-style="normal" font-variant="normal" font-weight="400" font-stretch="normal" font-size="36" text-anchor="start" direction="ltr" writing-mode="lr-tb" unicode-bidi="normal" text-decoration="none" x="283.833" y="91.4118">ğ‘¦</tspan><tspan fill="#5A80D1" fill-opacity="1" font-family="Cambria Math,Cambria Math_MSFontService,sans-serif" font-style="normal" font-variant="normal" font-weight="400" font-stretch="normal" font-size="36" text-anchor="start" direction="ltr" writing-mode="lr-tb" unicode-bidi="normal" text-decoration="none" x="314.703" y="91.4118">=</tspan><tspan fill="#5A80D1" fill-opacity="1" font-family="Cambria Math,Cambria Math_MSFontService,sans-serif" font-style="normal" font-variant="normal" font-weight="400" font-stretch="normal" font-size="36" text-anchor="start" direction="ltr" writing-mode="lr-tb" unicode-bidi="normal" text-decoration="none" x="351.703" y="91.4118">ğ‘ğ‘¥</tspan><tspan fill="#5A80D1" fill-opacity="1" font-family="Cambria Math,Cambria Math_MSFontService,sans-serif" font-style="normal" font-variant="normal" font-weight="400" font-stretch="normal" font-size="36" text-anchor="start" direction="ltr" writing-mode="lr-tb" unicode-bidi="normal" text-decoration="none" x="400.043" y="91.4118">+</tspan><tspan fill="#5A80D1" fill-opacity="1" font-family="Cambria Math,Cambria Math_MSFontService,sans-serif" font-style="normal" font-variant="normal" font-weight="400" font-stretch="normal" font-size="36" text-anchor="start" direction="ltr" writing-mode="lr-tb" unicode-bidi="normal" text-decoration="none" x="435.043" y="91.4118">ğ‘</tspan><tspan fill="#000000" fill-opacity="1" font-family="Cambria Math,Cambria Math_MSFontService,sans-serif" font-style="normal" font-variant="normal" font-weight="400" font-stretch="normal" font-size="56" text-anchor="start" direction="ltr" writing-mode="lr-tb" unicode-bidi="normal" text-decoration="none" x="-293.188" y="-74.1176">ğ‘¦</tspan><tspan fill="#000000" fill-opacity="1" font-family="Cambria Math,Cambria Math_MSFontService,sans-serif" font-style="normal" font-variant="normal" font-weight="400" font-stretch="normal" font-size="56" text-anchor="start" direction="ltr" writing-mode="lr-tb" unicode-bidi="normal" text-decoration="none" x="407.856" y="573.176">ğ‘¥</tspan><tspan fill="#000000" fill-opacity="1" font-family="Cambria Math,Cambria Math_MSFontService,sans-serif" font-style="normal" font-variant="normal" font-weight="400" font-stretch="normal" font-size="56" text-anchor="start" direction="ltr" writing-mode="lr-tb" unicode-bidi="normal" text-decoration="none" x="579.486" y="-76.5882">ğ‘¦</tspan><tspan fill="#000000" fill-opacity="1" font-family="Cambria Math,Cambria Math_MSFontService,sans-serif" font-style="normal" font-variant="normal" font-weight="400" font-stretch="normal" font-size="56" text-anchor="start" direction="ltr" writing-mode="lr-tb" unicode-bidi="normal" text-decoration="none" x="1280.53" y="570.706">ğ‘¥</tspan><tspan fill="#5A80D1" fill-opacity="1" font-family="Cambria Math,Cambria Math_MSFontService,sans-serif" font-style="normal" font-variant="normal" font-weight="400" font-stretch="normal" font-size="36" text-anchor="start" direction="ltr" writing-mode="lr-tb" unicode-bidi="normal" text-decoration="none" x="106.058" y="303.882">âˆ†</tspan>ğ‘¦<tspan fill="#5A80D1" fill-opacity="1" font-family="Cambria Math,Cambria Math_MSFontService,sans-serif" font-style="normal" font-variant="normal" font-weight="400" font-stretch="normal" font-size="26" text-anchor="start" direction="ltr" writing-mode="lr-tb" unicode-bidi="normal" text-decoration="none" x="146.718" y="311.294">ğ‘–</tspan></text><path d="M204.131 230.432C206.589 230.432 208.582 230.764 208.582 231.173L208.582 257.002C208.582 257.411 210.575 257.743 213.033 257.743 210.575 257.743 208.582 258.076 208.582 258.485L208.582 284.314C208.582 284.723 206.589 285.055 204.131 285.055" stroke="#5A80D1" stroke-width="1.21386" stroke-linecap="butt" stroke-linejoin="miter" stroke-miterlimit="8" stroke-opacity="1" fill="none" fill-rule="evenodd" transform="matrix(1 0 0 1.00035 -49.3637 -50.1905)"/><text fill="#5A80D1" fill-opacity="1" font-family="Cambria Math,Cambria Math_MSFontService,sans-serif" font-style="normal" font-variant="normal" font-weight="400" font-stretch="normal" font-size="36" text-anchor="start" direction="ltr" writing-mode="lr-tb" unicode-bidi="normal" text-decoration="none" transform="matrix(0.404621 0 0 0.404762 400.805 96)">Minimize</text><path d="M3.32152-17.134 11.8067-5.61173 11.8067-4.75114 2.64584 7.68148 14.986 7.68148C15.5313 7.68148 15.9485 7.48945 16.2378 7.10534 16.527 6.72128 16.7759 5.86304 16.9846 4.53066L18.0372 4.53066 17.6745 9.74408 0.184924 9.74408 0.184924 9.03996 10.1495-4.46665 0.476534-17.39 0.476534-18.0657 17.6532-18.0657 17.6532-13.8551 16.7143-13.8551C16.6053-14.8651 16.3848-15.664 16.0528-16.252 15.7209-16.84 15.2183-17.134 14.545-17.134Z" fill="#5A80D1" fill-rule="nonzero" fill-opacity="1" transform="matrix(1 0 0 1.00035 464.331 95.5238)"/><text fill="#5A80D1" fill-opacity="1" font-family="Cambria Math,Cambria Math_MSFontService,sans-serif" font-style="normal" font-variant="normal" font-weight="400" font-stretch="normal" font-size="36" text-anchor="start" direction="ltr" writing-mode="lr-tb" unicode-bidi="normal" text-decoration="none" transform="matrix(0.404621 0 0 0.404762 486.067 96)">âˆ†ğ‘‘<tspan fill="#5A80D1" fill-opacity="1" font-family="Cambria Math,Cambria Math_MSFontService,sans-serif" font-style="normal" font-variant="normal" font-weight="400" font-stretch="normal" font-size="26" text-anchor="start" direction="ltr" writing-mode="lr-tb" unicode-bidi="normal" text-decoration="none" x="42.25" y="4.94118">ğ‘–</tspan><tspan fill="#5A80D1" fill-opacity="1" font-family="Cambria Math,Cambria Math_MSFontService,sans-serif" font-style="normal" font-variant="normal" font-weight="400" font-stretch="normal" font-size="26" text-anchor="start" direction="ltr" writing-mode="lr-tb" unicode-bidi="normal" text-decoration="none" x="53.89" y="-17.2941">2</tspan><tspan fill="#5A80D1" fill-opacity="1" font-family="Cambria Math,Cambria Math_MSFontService,sans-serif" font-style="normal" font-variant="normal" font-weight="400" font-stretch="normal" font-size="26" text-anchor="start" direction="ltr" writing-mode="lr-tb" unicode-bidi="normal" text-decoration="none" x="-34.9399" y="44.4706">ğ‘–</tspan><tspan fill="#5A80D1" fill-opacity="1" font-family="Cambria Math,Cambria Math_MSFontService,sans-serif" font-style="normal" font-variant="normal" font-weight="400" font-stretch="normal" font-size="36" text-anchor="start" direction="ltr" writing-mode="lr-tb" unicode-bidi="normal" text-decoration="none" x="61.7831" y="286.588">âˆ†</tspan><tspan fill="#5A80D1" fill-opacity="1" font-family="Cambria Math,Cambria Math_MSFontService,sans-serif" font-style="normal" font-variant="normal" font-weight="400" font-stretch="normal" font-size="36" text-anchor="start" direction="ltr" writing-mode="lr-tb" unicode-bidi="normal" text-decoration="none" x="82.7831" y="286.588">ğ‘‘</tspan><tspan fill="#5A80D1" fill-opacity="1" font-family="Cambria Math,Cambria Math_MSFontService,sans-serif" font-style="normal" font-variant="normal" font-weight="400" font-stretch="normal" font-size="26" text-anchor="start" direction="ltr" writing-mode="lr-tb" unicode-bidi="normal" text-decoration="none" x="104.033" y="294">ğ‘–</tspan></text><path d="M534.399 260.727C536.293 258.812 538.081 257.515 538.401 257.83L549.439 268.727C549.758 269.042 551.547 267.744 553.44 265.83 551.547 267.744 550.276 269.552 550.596 269.868L561.63 280.764C561.95 281.079 560.675 282.887 558.785 284.801" stroke="#5A80D1" stroke-width="1.21386" stroke-linecap="butt" stroke-linejoin="miter" stroke-miterlimit="8" stroke-opacity="1" fill="none" fill-rule="evenodd" transform="matrix(1 0 0 1.00035 -49.3637 -50.1905)"/><text fill="#5A80D1" fill-opacity="1" font-family="Cambria Math,Cambria Math_MSFontService,sans-serif" font-style="normal" font-variant="normal" font-weight="400" font-stretch="normal" font-size="36" text-anchor="start" direction="ltr" writing-mode="lr-tb" unicode-bidi="normal" text-decoration="none" transform="matrix(0.404621 0 0 0.404762 597.123 107)">ğ‘¦<tspan fill="#5A80D1" fill-opacity="1" font-family="Cambria Math,Cambria Math_MSFontService,sans-serif" font-style="normal" font-variant="normal" font-weight="400" font-stretch="normal" font-size="36" text-anchor="start" direction="ltr" writing-mode="lr-tb" unicode-bidi="normal" text-decoration="none" x="30.8699" y="0">=</tspan><tspan fill="#5A80D1" fill-opacity="1" font-family="Cambria Math,Cambria Math_MSFontService,sans-serif" font-style="normal" font-variant="normal" font-weight="400" font-stretch="normal" font-size="36" text-anchor="start" direction="ltr" writing-mode="lr-tb" unicode-bidi="normal" text-decoration="none" x="67.87" y="0">ğ‘ğ‘¥</tspan><tspan fill="#5A80D1" fill-opacity="1" font-family="Cambria Math,Cambria Math_MSFontService,sans-serif" font-style="normal" font-variant="normal" font-weight="400" font-stretch="normal" font-size="36" text-anchor="start" direction="ltr" writing-mode="lr-tb" unicode-bidi="normal" text-decoration="none" x="116.21" y="0">+</tspan><tspan fill="#5A80D1" fill-opacity="1" font-family="Cambria Math,Cambria Math_MSFontService,sans-serif" font-style="normal" font-variant="normal" font-weight="400" font-stretch="normal" font-size="36" text-anchor="start" direction="ltr" writing-mode="lr-tb" unicode-bidi="normal" text-decoration="none" x="151.21" y="0">ğ‘</tspan><tspan fill="#000000" fill-opacity="1" font-family="Calibri,Calibri_MSFontService,sans-serif" font-style="normal" font-variant="normal" font-weight="400" font-stretch="normal" font-size="48" text-anchor="start" direction="ltr" writing-mode="lr-tb" unicode-bidi="normal" text-decoration="none" x="-1262.09" y="-172.941">Ordinary Linear Regression </tspan><tspan fill="#000000" fill-opacity="1" font-family="Calibri,Calibri_MSFontService,sans-serif" font-style="normal" font-variant="normal" font-weight="400" font-stretch="normal" font-size="48" text-anchor="start" direction="ltr" writing-mode="lr-tb" unicode-bidi="normal" text-decoration="none" x="-412.58" y="-165.529">Orthogonal Linear Regression </tspan><tspan fill="#000000" fill-opacity="1" font-family="Calibri,Calibri_MSFontService,sans-serif" font-style="normal" font-variant="normal" font-weight="400" font-stretch="normal" font-size="36" text-anchor="start" direction="ltr" writing-mode="lr-tb" unicode-bidi="normal" text-decoration="none" x="-1277.55" y="585.529">Assumption: Only </tspan><tspan fill="#000000" fill-opacity="1" font-family="Cambria Math,Cambria Math_MSFontService,sans-serif" font-style="oblique" font-variant="normal" font-weight="400" font-stretch="normal" font-size="36" text-anchor="start" direction="ltr" writing-mode="lr-tb" unicode-bidi="normal" text-decoration="none" x="-995.46" y="585.529">  y</tspan><tspan fill="#000000" fill-opacity="1" font-family="Calibri,Calibri_MSFontService,sans-serif" font-style="normal" font-variant="normal" font-weight="400" font-stretch="normal" font-size="36" text-anchor="start" direction="ltr" writing-mode="lr-tb" unicode-bidi="normal" text-decoration="none" x="-965.708" y="585.529">has error</tspan><tspan fill="#000000" fill-opacity="1" font-family="Calibri,Calibri_MSFontService,sans-serif" font-style="normal" font-variant="normal" font-weight="400" font-stretch="normal" font-size="36" text-anchor="start" direction="ltr" writing-mode="lr-tb" unicode-bidi="normal" text-decoration="none" x="-430.576" y="583.059">Assumption: Both </tspan><tspan fill="#000000" fill-opacity="1" font-family="Cambria Math,Cambria Math_MSFontService,sans-serif" font-style="oblique" font-variant="normal" font-weight="400" font-stretch="normal" font-size="36" text-anchor="start" direction="ltr" writing-mode="lr-tb" unicode-bidi="normal" text-decoration="none" x="-151.236" y="583.059">x</tspan><tspan fill="#000000" fill-opacity="1" font-family="Calibri,Calibri_MSFontService,sans-serif" font-style="normal" font-variant="normal" font-weight="400" font-stretch="normal" font-size="36" text-anchor="start" direction="ltr" writing-mode="lr-tb" unicode-bidi="normal" text-decoration="none" x="-125.486" y="583.059">and </tspan><tspan fill="#000000" fill-opacity="1" font-family="Cambria Math,Cambria Math_MSFontService,sans-serif" font-style="oblique" font-variant="normal" font-weight="400" font-stretch="normal" font-size="36" text-anchor="start" direction="ltr" writing-mode="lr-tb" unicode-bidi="normal" text-decoration="none" x="-61.9856" y="583.059">y</tspan><tspan fill="#000000" fill-opacity="1" font-family="Calibri,Calibri_MSFontService,sans-serif" font-style="normal" font-variant="normal" font-weight="400" font-stretch="normal" font-size="36" text-anchor="start" direction="ltr" writing-mode="lr-tb" unicode-bidi="normal" text-decoration="none" x="-32.2357" y="583.059">have error</tspan></text><path d="M0.606931-1.59992e-07 0.606992 234.439-0.606871 234.439-0.606931 1.59992e-07ZM4.04629 233.631 6.37197e-05 241.723-4.04615 233.631Z" fill="#000000" fill-rule="nonzero" fill-opacity="1" transform="matrix(1 0 0 -1.00035 16.7918 314.057)"/><path d="M66.5601 362.54 312.266 362.54 312.266 363.754 66.5601 363.754ZM311.457 359.101 319.549 363.147 311.457 367.193Z" fill="#000000" fill-rule="nonzero" fill-opacity="1" transform="matrix(1 0 0 1.00035 -49.3637 -50.1905)"/><path d="M0 0 206.752 161.534" stroke="#000000" stroke-width="0.606931" stroke-linecap="butt" stroke-linejoin="miter" stroke-miterlimit="8" stroke-opacity="1" fill="none" fill-rule="evenodd" transform="matrix(1 0 0 -1.00035 33.9882 270.471)"/><path d="M188.958 289.304C188.958 286.846 190.951 284.853 193.409 284.853 195.867 284.853 197.86 286.846 197.86 289.304 197.86 291.762 195.867 293.755 193.409 293.755 190.951 293.755 188.958 291.762 188.958 289.304Z" stroke="#405C99" stroke-width="0.809242" stroke-linecap="butt" stroke-linejoin="miter" stroke-miterlimit="8" stroke-opacity="1" fill="#000000" fill-rule="evenodd" fill-opacity="1" transform="matrix(1 0 0 1.00035 -49.3637 -50.1905)"/><path d="M104.797 222.137C104.797 219.679 106.79 217.686 109.248 217.686 111.706 217.686 113.698 219.679 113.698 222.137 113.698 224.595 111.706 226.588 109.248 226.588 106.79 226.588 104.797 224.595 104.797 222.137Z" stroke="#405C99" stroke-width="0.809242" stroke-linecap="butt" stroke-linejoin="miter" stroke-miterlimit="8" stroke-opacity="1" fill="#000000" fill-rule="evenodd" fill-opacity="1" transform="matrix(1 0 0 1.00035 -49.3637 -50.1905)"/><path d="M248.437 148.496C248.437 146.038 250.43 144.045 252.888 144.045 255.346 144.045 257.339 146.038 257.339 148.496 257.339 150.954 255.346 152.947 252.888 152.947 250.43 152.947 248.437 150.954 248.437 148.496Z" stroke="#405C99" stroke-width="0.809242" stroke-linecap="butt" stroke-linejoin="miter" stroke-miterlimit="8" stroke-opacity="1" fill="#000000" fill-rule="evenodd" fill-opacity="1" transform="matrix(1 0 0 1.00035 -49.3637 -50.1905)"/><path d="M0 0 6.37197e-05 48.7568" stroke="#000000" stroke-width="0.809242" stroke-linecap="butt" stroke-linejoin="miter" stroke-miterlimit="8" stroke-dasharray="6.47393 2.42773" stroke-opacity="1" fill="none" fill-rule="evenodd" transform="matrix(1 0 0 -1.00035 144.045 234.964)"/><path d="M109.248 226.588 109.248 302.228" stroke="#000000" stroke-width="0.809242" stroke-linecap="butt" stroke-linejoin="miter" stroke-miterlimit="8" stroke-dasharray="6.47393 2.42773" stroke-opacity="1" fill="none" fill-rule="evenodd" transform="matrix(1 0 0 1.00035 -49.3637 -50.1905)"/><path d="M253.293 148.496 253.293 185.338" stroke="#000000" stroke-width="0.809242" stroke-linecap="butt" stroke-linejoin="miter" stroke-miterlimit="8" stroke-dasharray="6.47393 2.42773" stroke-opacity="1" fill="none" fill-rule="evenodd" transform="matrix(1 0 0 1.00035 -49.3637 -50.1905)"/><path d="M0.606931-1.59992e-07 0.606992 234.439-0.606871 234.439-0.606931 1.59992e-07ZM4.04629 233.631 6.37197e-05 241.723-4.04615 233.631Z" fill="#000000" fill-rule="nonzero" fill-opacity="1" transform="matrix(1 0 0 -1.00035 369.621 314.057)"/><path d="M418.985 362.54 664.691 362.54 664.691 363.754 418.985 363.754ZM663.882 359.101 671.974 363.147 663.882 367.193Z" fill="#000000" fill-rule="nonzero" fill-opacity="1" transform="matrix(1 0 0 1.00035 -49.3637 -50.1905)"/><path d="M0 0 183.363 207.165" stroke="#000000" stroke-width="0.606931" stroke-linecap="butt" stroke-linejoin="miter" stroke-miterlimit="8" stroke-opacity="1" fill="none" fill-rule="evenodd" transform="matrix(1 0 0 -1.00035 410.286 290.618)"/><path d="M541.787 289.304C541.787 286.846 543.778 284.853 546.238 284.853 548.698 284.853 550.689 286.846 550.689 289.304 550.689 291.762 548.698 293.755 546.238 293.755 543.778 293.755 541.787 291.762 541.787 289.304Z" stroke="#405C99" stroke-width="0.809242" stroke-linecap="butt" stroke-linejoin="miter" stroke-miterlimit="8" stroke-opacity="1" fill="#000000" fill-rule="evenodd" fill-opacity="1" transform="matrix(1 0 0 1.00035 -49.3637 -50.1905)"/><path d="M457.626 222.137C457.626 219.679 459.617 217.686 462.077 217.686 464.537 217.686 466.528 219.679 466.528 222.137 466.528 224.595 464.537 226.588 462.077 226.588 459.617 226.588 457.626 224.595 457.626 222.137Z" stroke="#405C99" stroke-width="0.809242" stroke-linecap="butt" stroke-linejoin="miter" stroke-miterlimit="8" stroke-opacity="1" fill="#000000" fill-rule="evenodd" fill-opacity="1" transform="matrix(1 0 0 1.00035 -49.3637 -50.1905)"/><path d="M601.267 148.496C601.267 146.038 603.257 144.045 605.717 144.045 608.177 144.045 610.168 146.038 610.168 148.496 610.168 150.954 608.177 152.947 605.717 152.947 603.257 152.947 601.267 150.954 601.267 148.496Z" stroke="#405C99" stroke-width="0.809242" stroke-linecap="butt" stroke-linejoin="miter" stroke-miterlimit="8" stroke-opacity="1" fill="#000000" fill-rule="evenodd" fill-opacity="1" transform="matrix(1 0 0 1.00035 -49.3637 -50.1905)"/><path d="M465.314 224.969 512.736 275.278" stroke="#000000" stroke-width="0.809242" stroke-linecap="butt" stroke-linejoin="miter" stroke-miterlimit="8" stroke-dasharray="6.47393 2.42773" stroke-opacity="1" fill="none" fill-rule="evenodd" transform="matrix(1 0 0 1.00035 -49.3637 -50.1905)"/><path d="M543.029 285.049 523.579 267.05" stroke="#000000" stroke-width="0.809242" stroke-linecap="butt" stroke-linejoin="miter" stroke-miterlimit="8" stroke-dasharray="6.47393 2.42773" stroke-opacity="1" fill="none" fill-rule="evenodd" transform="matrix(1 0 0 1.00035 -49.3637 -50.1905)"/><path d="M602.48 145.664 621.862 164.187" stroke="#000000" stroke-width="0.809242" stroke-linecap="butt" stroke-linejoin="miter" stroke-miterlimit="8" stroke-dasharray="6.47393 2.42773" stroke-opacity="1" fill="none" fill-rule="evenodd" transform="matrix(1 0 0 1.00035 -49.3637 -50.1905)"/><text fill="#5A80D1" fill-opacity="1" font-family="Cambria Math,Cambria Math_MSFontService,sans-serif" font-style="normal" font-variant="normal" font-weight="400" font-stretch="normal" font-size="36" text-anchor="start" direction="ltr" writing-mode="lr-tb" unicode-bidi="normal" text-decoration="none" transform="matrix(0.404621 0 0 0.404762 41.786 119)">to obtain <tspan fill="#5A80D1" fill-opacity="1" font-family="Cambria Math,Cambria Math_MSFontService,sans-serif" font-style="normal" font-variant="normal" font-weight="400" font-stretch="normal" font-size="36" text-anchor="start" direction="ltr" writing-mode="lr-tb" unicode-bidi="normal" text-decoration="none" x="145.43" y="0">ğ‘</tspan><tspan fill="#5A80D1" fill-opacity="1" font-family="Cambria Math,Cambria Math_MSFontService,sans-serif" font-style="normal" font-variant="normal" font-weight="400" font-stretch="normal" font-size="36" text-anchor="start" direction="ltr" writing-mode="lr-tb" unicode-bidi="normal" text-decoration="none" x="166.31" y="0"> </tspan>and ğ‘<tspan fill="#5A80D1" fill-opacity="1" font-family="Cambria Math,Cambria Math_MSFontService,sans-serif" font-style="normal" font-variant="normal" font-weight="400" font-stretch="normal" font-size="36" text-anchor="start" direction="ltr" writing-mode="lr-tb" unicode-bidi="normal" text-decoration="none" x="260.1" y="0">.</tspan><tspan fill="#5A80D1" fill-opacity="1" font-family="Cambria Math,Cambria Math_MSFontService,sans-serif" font-style="normal" font-variant="normal" font-weight="400" font-stretch="normal" font-size="36" text-anchor="start" direction="ltr" writing-mode="lr-tb" unicode-bidi="normal" text-decoration="none" x="889.383" y="22.2353">to obtain </tspan><tspan fill="#5A80D1" fill-opacity="1" font-family="Cambria Math,Cambria Math_MSFontService,sans-serif" font-style="normal" font-variant="normal" font-weight="400" font-stretch="normal" font-size="36" text-anchor="start" direction="ltr" writing-mode="lr-tb" unicode-bidi="normal" text-decoration="none" x="1034.81" y="22.2353">ğ‘</tspan><tspan fill="#5A80D1" fill-opacity="1" font-family="Cambria Math,Cambria Math_MSFontService,sans-serif" font-style="normal" font-variant="normal" font-weight="400" font-stretch="normal" font-size="36" text-anchor="start" direction="ltr" writing-mode="lr-tb" unicode-bidi="normal" text-decoration="none" x="1055.69" y="22.2353"> </tspan>and ğ‘<tspan fill="#5A80D1" fill-opacity="1" font-family="Cambria Math,Cambria Math_MSFontService,sans-serif" font-style="normal" font-variant="normal" font-weight="400" font-stretch="normal" font-size="36" text-anchor="start" direction="ltr" writing-mode="lr-tb" unicode-bidi="normal" text-decoration="none" x="1149.48" y="22.2353">.</tspan></text></g></g></g></g></g></svg>
