<?xml version="1.0" encoding="UTF-8" standalone="no"?>
<!DOCTYPE svg PUBLIC "-//W3C//DTD SVG 1.1//EN"
 "http://www.w3.org/Graphics/SVG/1.1/DTD/svg11.dtd">
<!-- Generated by graphviz version 2.49.2 (20211016.1639)
 -->
<!-- Pages: 1 -->
<svg width="354pt" height="266pt"
 viewBox="0.00 0.00 353.96 266.08" xmlns="http://www.w3.org/2000/svg" xmlns:xlink="http://www.w3.org/1999/xlink">
<g id="graph0" class="graph" transform="scale(1 1) rotate(0) translate(4 262.08)">
<polygon fill="white" stroke="transparent" points="-4,4 -4,-262.08 349.96,-262.08 349.96,4 -4,4"/>
<g id="clust1" class="cluster">
<title>cluster3</title>
<path fill="none" stroke="black" d="M20,-136.13C20,-136.13 96,-136.13 96,-136.13 102,-136.13 108,-142.13 108,-148.13 108,-148.13 108,-238.08 108,-238.08 108,-244.08 102,-250.08 96,-250.08 96,-250.08 20,-250.08 20,-250.08 14,-250.08 8,-244.08 8,-238.08 8,-238.08 8,-148.13 8,-148.13 8,-142.13 14,-136.13 20,-136.13"/>
<text text-anchor="middle" x="96.5" y="-143.93" font-family="Times,serif" font-size="14.00">3</text>
</g>
<g id="clust2" class="cluster">
<title>cluster5,760</title>
<path fill="none" stroke="black" d="M121,-8C121,-8 233,-8 233,-8 239,-8 245,-14 245,-20 245,-20 245,-116.13 245,-116.13 245,-122.13 239,-128.13 233,-128.13 233,-128.13 121,-128.13 121,-128.13 115,-128.13 109,-122.13 109,-116.13 109,-116.13 109,-20 109,-20 109,-14 115,-8 121,-8"/>
<text text-anchor="middle" x="221" y="-15.8" font-family="Times,serif" font-size="14.00">5,760</text>
</g>
<!-- beta -->
<g id="node1" class="node">
<title>beta</title>
<ellipse fill="none" stroke="black" cx="58" cy="-204.61" rx="41.94" ry="37.45"/>
<text text-anchor="middle" x="58" y="-215.91" font-family="Times,serif" font-size="14.00">beta</text>
<text text-anchor="middle" x="58" y="-200.91" font-family="Times,serif" font-size="14.00">~</text>
<text text-anchor="middle" x="58" y="-185.91" font-family="Times,serif" font-size="14.00">Normal</text>
</g>
<!-- Likelihood -->
<g id="node4" class="node">
<title>Likelihood</title>
<polygon fill="none" stroke="black" points="236.9,-62.74 236.9,-96.39 201.81,-120.19 152.19,-120.19 117.1,-96.39 117.1,-62.74 152.19,-38.94 201.81,-38.94 236.9,-62.74"/>
<text text-anchor="middle" x="177" y="-90.86" font-family="Times,serif" font-size="14.00">Likelihood</text>
<text text-anchor="middle" x="177" y="-75.86" font-family="Times,serif" font-size="14.00">~</text>
<text text-anchor="middle" x="177" y="-60.86" font-family="Times,serif" font-size="14.00">Potential</text>
</g>
<!-- beta&#45;&gt;Likelihood -->
<g id="edge3" class="edge">
<title>beta&#45;&gt;Likelihood</title>
<path fill="none" stroke="black" d="M79.39,-172.12C88,-160.33 98.41,-147.13 109,-136.13 115.29,-129.6 122.33,-123.1 129.43,-116.97"/>
<polygon fill="black" stroke="black" points="131.73,-119.61 137.12,-110.49 127.22,-114.26 131.73,-119.61"/>
</g>
<!-- sigma -->
<g id="node2" class="node">
<title>sigma</title>
<ellipse fill="none" stroke="black" cx="177" cy="-204.61" rx="59.29" ry="37.45"/>
<text text-anchor="middle" x="177" y="-215.91" font-family="Times,serif" font-size="14.00">sigma</text>
<text text-anchor="middle" x="177" y="-200.91" font-family="Times,serif" font-size="14.00">~</text>
<text text-anchor="middle" x="177" y="-185.91" font-family="Times,serif" font-size="14.00">Exponential</text>
</g>
<!-- sigma&#45;&gt;Likelihood -->
<g id="edge1" class="edge">
<title>sigma&#45;&gt;Likelihood</title>
<path fill="none" stroke="black" d="M177,-167.02C177,-155.51 177,-142.6 177,-130.33"/>
<polygon fill="black" stroke="black" points="180.5,-130.23 177,-120.23 173.5,-130.23 180.5,-130.23"/>
</g>
<!-- intercept -->
<g id="node3" class="node">
<title>intercept</title>
<ellipse fill="none" stroke="black" cx="300" cy="-204.61" rx="45.92" ry="37.45"/>
<text text-anchor="middle" x="300" y="-215.91" font-family="Times,serif" font-size="14.00">intercept</text>
<text text-anchor="middle" x="300" y="-200.91" font-family="Times,serif" font-size="14.00">~</text>
<text text-anchor="middle" x="300" y="-185.91" font-family="Times,serif" font-size="14.00">Normal</text>
</g>
<!-- intercept&#45;&gt;Likelihood -->
<g id="edge2" class="edge">
<title>intercept&#45;&gt;Likelihood</title>
<path fill="none" stroke="black" d="M276.6,-172.25C267.27,-160.47 256.11,-147.25 245,-136.13 238.51,-129.63 231.31,-123.12 224.1,-116.95"/>
<polygon fill="black" stroke="black" points="226.21,-114.16 216.3,-110.42 221.71,-119.52 226.21,-114.16"/>
</g>
</g>
</svg>
