<?xml version="1.0" encoding="utf-8" standalone="no"?>
<!DOCTYPE svg PUBLIC "-//W3C//DTD SVG 1.1//EN"
  "http://www.w3.org/Graphics/SVG/1.1/DTD/svg11.dtd">
<svg height="288pt" version="1.1" viewBox="0 0 432 288" width="432pt" xmlns="http://www.w3.org/2000/svg" xmlns:xlink="http://www.w3.org/1999/xlink">
 <metadata>
  <rdf:RDF xmlns:cc="http://creativecommons.org/ns#" xmlns:dc="http://purl.org/dc/elements/1.1/" xmlns:rdf="http://www.w3.org/1999/02/22-rdf-syntax-ns#">
   <cc:Work>
    <dc:type rdf:resource="http://purl.org/dc/dcmitype/StillImage"/>
    <dc:date>2022-04-26T16:27:08.590564</dc:date>
    <dc:format>image/svg+xml</dc:format>
    <dc:creator>
     <cc:Agent>
      <dc:title>Matplotlib v3.4.3, https://matplotlib.org/</dc:title>
     </cc:Agent>
    </dc:creator>
   </cc:Work>
  </rdf:RDF>
 </metadata>
 <defs>
  <style type="text/css">*{stroke-linecap:butt;stroke-linejoin:round;}</style>
 </defs>
 <g id="figure_1">
  <g id="patch_1">
   <path d="M 0 288 
L 432 288 
L 432 0 
L 0 0 
z
" style="fill:#ffffff;"/>
  </g>
  <g id="axes_1">
   <g id="patch_2">
    <path d="M 54 252 
L 388.8 252 
L 388.8 34.56 
L 54 34.56 
z
" style="fill:#eaeaf2;"/>
   </g>
   <g id="matplotlib.axis_1">
    <g id="xtick_1">
     <g id="line2d_1">
      <path clip-path="url(#p8ad3b2de65)" d="M 74.119317 252 
L 74.119317 34.56 
" style="fill:none;stroke:#ffffff;stroke-linecap:round;"/>
     </g>
     <g id="text_1">
      <!-- −20 -->
      <g style="fill:#262626;" transform="translate(61.058192 272.523031)scale(0.154 -0.154)">
       <defs>
        <path d="M 3381 1997 
L 356 1997 
L 356 2522 
L 3381 2522 
L 3381 1997 
z
" id="ArialMT-2212" transform="scale(0.015625)"/>
        <path d="M 3222 541 
L 3222 0 
L 194 0 
Q 188 203 259 391 
Q 375 700 629 1000 
Q 884 1300 1366 1694 
Q 2113 2306 2375 2664 
Q 2638 3022 2638 3341 
Q 2638 3675 2398 3904 
Q 2159 4134 1775 4134 
Q 1369 4134 1125 3890 
Q 881 3647 878 3216 
L 300 3275 
Q 359 3922 746 4261 
Q 1134 4600 1788 4600 
Q 2447 4600 2831 4234 
Q 3216 3869 3216 3328 
Q 3216 3053 3103 2787 
Q 2991 2522 2730 2228 
Q 2469 1934 1863 1422 
Q 1356 997 1212 845 
Q 1069 694 975 541 
L 3222 541 
z
" id="ArialMT-32" transform="scale(0.015625)"/>
        <path d="M 266 2259 
Q 266 3072 433 3567 
Q 600 4063 929 4331 
Q 1259 4600 1759 4600 
Q 2128 4600 2406 4451 
Q 2684 4303 2865 4023 
Q 3047 3744 3150 3342 
Q 3253 2941 3253 2259 
Q 3253 1453 3087 958 
Q 2922 463 2592 192 
Q 2263 -78 1759 -78 
Q 1097 -78 719 397 
Q 266 969 266 2259 
z
M 844 2259 
Q 844 1131 1108 757 
Q 1372 384 1759 384 
Q 2147 384 2411 759 
Q 2675 1134 2675 2259 
Q 2675 3391 2411 3762 
Q 2147 4134 1753 4134 
Q 1366 4134 1134 3806 
Q 844 3388 844 2259 
z
" id="ArialMT-30" transform="scale(0.015625)"/>
       </defs>
       <use xlink:href="#ArialMT-2212"/>
       <use x="58.398438" xlink:href="#ArialMT-32"/>
       <use x="114.013672" xlink:href="#ArialMT-30"/>
      </g>
     </g>
    </g>
    <g id="xtick_2">
     <g id="line2d_2">
      <path clip-path="url(#p8ad3b2de65)" d="M 146.299778 252 
L 146.299778 34.56 
" style="fill:none;stroke:#ffffff;stroke-linecap:round;"/>
     </g>
     <g id="text_2">
      <!-- −10 -->
      <g style="fill:#262626;" transform="translate(133.238653 272.523031)scale(0.154 -0.154)">
       <defs>
        <path d="M 2384 0 
L 1822 0 
L 1822 3584 
Q 1619 3391 1289 3197 
Q 959 3003 697 2906 
L 697 3450 
Q 1169 3672 1522 3987 
Q 1875 4303 2022 4600 
L 2384 4600 
L 2384 0 
z
" id="ArialMT-31" transform="scale(0.015625)"/>
       </defs>
       <use xlink:href="#ArialMT-2212"/>
       <use x="58.398438" xlink:href="#ArialMT-31"/>
       <use x="114.013672" xlink:href="#ArialMT-30"/>
      </g>
     </g>
    </g>
    <g id="xtick_3">
     <g id="line2d_3">
      <path clip-path="url(#p8ad3b2de65)" d="M 218.480239 252 
L 218.480239 34.56 
" style="fill:none;stroke:#ffffff;stroke-linecap:round;"/>
     </g>
     <g id="text_3">
      <!-- 0 -->
      <g style="fill:#262626;" transform="translate(214.198317 272.523031)scale(0.154 -0.154)">
       <use xlink:href="#ArialMT-30"/>
      </g>
     </g>
    </g>
    <g id="xtick_4">
     <g id="line2d_4">
      <path clip-path="url(#p8ad3b2de65)" d="M 290.660699 252 
L 290.660699 34.56 
" style="fill:none;stroke:#ffffff;stroke-linecap:round;"/>
     </g>
     <g id="text_4">
      <!-- 10 -->
      <g style="fill:#262626;" transform="translate(282.096856 272.523031)scale(0.154 -0.154)">
       <use xlink:href="#ArialMT-31"/>
       <use x="55.615234" xlink:href="#ArialMT-30"/>
      </g>
     </g>
    </g>
    <g id="xtick_5">
     <g id="line2d_5">
      <path clip-path="url(#p8ad3b2de65)" d="M 362.84116 252 
L 362.84116 34.56 
" style="fill:none;stroke:#ffffff;stroke-linecap:round;"/>
     </g>
     <g id="text_5">
      <!-- 20 -->
      <g style="fill:#262626;" transform="translate(354.277316 272.523031)scale(0.154 -0.154)">
       <use xlink:href="#ArialMT-32"/>
       <use x="55.615234" xlink:href="#ArialMT-30"/>
      </g>
     </g>
    </g>
   </g>
   <g id="matplotlib.axis_2">
    <g id="ytick_1">
     <g id="line2d_6">
      <path clip-path="url(#p8ad3b2de65)" d="M 54 252 
L 388.8 252 
" style="fill:none;stroke:#ffffff;stroke-linecap:round;"/>
     </g>
     <g id="text_6">
      <!-- 0.0 -->
      <g style="fill:#262626;" transform="translate(23.094 257.511516)scale(0.154 -0.154)">
       <defs>
        <path d="M 581 0 
L 581 641 
L 1222 641 
L 1222 0 
L 581 0 
z
" id="ArialMT-2e" transform="scale(0.015625)"/>
       </defs>
       <use xlink:href="#ArialMT-30"/>
       <use x="55.615234" xlink:href="#ArialMT-2e"/>
       <use x="83.398438" xlink:href="#ArialMT-30"/>
      </g>
     </g>
    </g>
    <g id="ytick_2">
     <g id="line2d_7">
      <path clip-path="url(#p8ad3b2de65)" d="M 54 208.512 
L 388.8 208.512 
" style="fill:none;stroke:#ffffff;stroke-linecap:round;"/>
     </g>
     <g id="text_7">
      <!-- 0.2 -->
      <g style="fill:#262626;" transform="translate(23.094 214.023516)scale(0.154 -0.154)">
       <use xlink:href="#ArialMT-30"/>
       <use x="55.615234" xlink:href="#ArialMT-2e"/>
       <use x="83.398438" xlink:href="#ArialMT-32"/>
      </g>
     </g>
    </g>
    <g id="ytick_3">
     <g id="line2d_8">
      <path clip-path="url(#p8ad3b2de65)" d="M 54 165.024 
L 388.8 165.024 
" style="fill:none;stroke:#ffffff;stroke-linecap:round;"/>
     </g>
     <g id="text_8">
      <!-- 0.4 -->
      <g style="fill:#262626;" transform="translate(23.094 170.535516)scale(0.154 -0.154)">
       <defs>
        <path d="M 2069 0 
L 2069 1097 
L 81 1097 
L 81 1613 
L 2172 4581 
L 2631 4581 
L 2631 1613 
L 3250 1613 
L 3250 1097 
L 2631 1097 
L 2631 0 
L 2069 0 
z
M 2069 1613 
L 2069 3678 
L 634 1613 
L 2069 1613 
z
" id="ArialMT-34" transform="scale(0.015625)"/>
       </defs>
       <use xlink:href="#ArialMT-30"/>
       <use x="55.615234" xlink:href="#ArialMT-2e"/>
       <use x="83.398438" xlink:href="#ArialMT-34"/>
      </g>
     </g>
    </g>
    <g id="ytick_4">
     <g id="line2d_9">
      <path clip-path="url(#p8ad3b2de65)" d="M 54 121.536 
L 388.8 121.536 
" style="fill:none;stroke:#ffffff;stroke-linecap:round;"/>
     </g>
     <g id="text_9">
      <!-- 0.6 -->
      <g style="fill:#262626;" transform="translate(23.094 127.047516)scale(0.154 -0.154)">
       <defs>
        <path d="M 3184 3459 
L 2625 3416 
Q 2550 3747 2413 3897 
Q 2184 4138 1850 4138 
Q 1581 4138 1378 3988 
Q 1113 3794 959 3422 
Q 806 3050 800 2363 
Q 1003 2672 1297 2822 
Q 1591 2972 1913 2972 
Q 2475 2972 2870 2558 
Q 3266 2144 3266 1488 
Q 3266 1056 3080 686 
Q 2894 316 2569 119 
Q 2244 -78 1831 -78 
Q 1128 -78 684 439 
Q 241 956 241 2144 
Q 241 3472 731 4075 
Q 1159 4600 1884 4600 
Q 2425 4600 2770 4297 
Q 3116 3994 3184 3459 
z
M 888 1484 
Q 888 1194 1011 928 
Q 1134 663 1356 523 
Q 1578 384 1822 384 
Q 2178 384 2434 671 
Q 2691 959 2691 1453 
Q 2691 1928 2437 2201 
Q 2184 2475 1800 2475 
Q 1419 2475 1153 2201 
Q 888 1928 888 1484 
z
" id="ArialMT-36" transform="scale(0.015625)"/>
       </defs>
       <use xlink:href="#ArialMT-30"/>
       <use x="55.615234" xlink:href="#ArialMT-2e"/>
       <use x="83.398438" xlink:href="#ArialMT-36"/>
      </g>
     </g>
    </g>
    <g id="ytick_5">
     <g id="line2d_10">
      <path clip-path="url(#p8ad3b2de65)" d="M 54 78.048 
L 388.8 78.048 
" style="fill:none;stroke:#ffffff;stroke-linecap:round;"/>
     </g>
     <g id="text_10">
      <!-- 0.8 -->
      <g style="fill:#262626;" transform="translate(23.094 83.559516)scale(0.154 -0.154)">
       <defs>
        <path d="M 1131 2484 
Q 781 2613 612 2850 
Q 444 3088 444 3419 
Q 444 3919 803 4259 
Q 1163 4600 1759 4600 
Q 2359 4600 2725 4251 
Q 3091 3903 3091 3403 
Q 3091 3084 2923 2848 
Q 2756 2613 2416 2484 
Q 2838 2347 3058 2040 
Q 3278 1734 3278 1309 
Q 3278 722 2862 322 
Q 2447 -78 1769 -78 
Q 1091 -78 675 323 
Q 259 725 259 1325 
Q 259 1772 486 2073 
Q 713 2375 1131 2484 
z
M 1019 3438 
Q 1019 3113 1228 2906 
Q 1438 2700 1772 2700 
Q 2097 2700 2305 2904 
Q 2513 3109 2513 3406 
Q 2513 3716 2298 3927 
Q 2084 4138 1766 4138 
Q 1444 4138 1231 3931 
Q 1019 3725 1019 3438 
z
M 838 1322 
Q 838 1081 952 856 
Q 1066 631 1291 507 
Q 1516 384 1775 384 
Q 2178 384 2440 643 
Q 2703 903 2703 1303 
Q 2703 1709 2433 1975 
Q 2163 2241 1756 2241 
Q 1359 2241 1098 1978 
Q 838 1716 838 1322 
z
" id="ArialMT-38" transform="scale(0.015625)"/>
       </defs>
       <use xlink:href="#ArialMT-30"/>
       <use x="55.615234" xlink:href="#ArialMT-2e"/>
       <use x="83.398438" xlink:href="#ArialMT-38"/>
      </g>
     </g>
    </g>
    <g id="ytick_6">
     <g id="line2d_11">
      <path clip-path="url(#p8ad3b2de65)" d="M 54 34.56 
L 388.8 34.56 
" style="fill:none;stroke:#ffffff;stroke-linecap:round;"/>
     </g>
     <g id="text_11">
      <!-- 1.0 -->
      <g style="fill:#262626;" transform="translate(23.094 40.071516)scale(0.154 -0.154)">
       <use xlink:href="#ArialMT-31"/>
       <use x="55.615234" xlink:href="#ArialMT-2e"/>
       <use x="83.398438" xlink:href="#ArialMT-30"/>
      </g>
     </g>
    </g>
    <g id="text_12">
     <!-- Proportion -->
     <g style="fill:#262626;" transform="translate(15.755 182.032875)rotate(-90)scale(0.168 -0.168)">
      <defs>
       <path d="M 494 0 
L 494 4581 
L 2222 4581 
Q 2678 4581 2919 4538 
Q 3256 4481 3484 4323 
Q 3713 4166 3852 3881 
Q 3991 3597 3991 3256 
Q 3991 2672 3619 2267 
Q 3247 1863 2275 1863 
L 1100 1863 
L 1100 0 
L 494 0 
z
M 1100 2403 
L 2284 2403 
Q 2872 2403 3119 2622 
Q 3366 2841 3366 3238 
Q 3366 3525 3220 3729 
Q 3075 3934 2838 4000 
Q 2684 4041 2272 4041 
L 1100 4041 
L 1100 2403 
z
" id="ArialMT-50" transform="scale(0.015625)"/>
       <path d="M 416 0 
L 416 3319 
L 922 3319 
L 922 2816 
Q 1116 3169 1280 3281 
Q 1444 3394 1641 3394 
Q 1925 3394 2219 3213 
L 2025 2691 
Q 1819 2813 1613 2813 
Q 1428 2813 1281 2702 
Q 1134 2591 1072 2394 
Q 978 2094 978 1738 
L 978 0 
L 416 0 
z
" id="ArialMT-72" transform="scale(0.015625)"/>
       <path d="M 213 1659 
Q 213 2581 725 3025 
Q 1153 3394 1769 3394 
Q 2453 3394 2887 2945 
Q 3322 2497 3322 1706 
Q 3322 1066 3130 698 
Q 2938 331 2570 128 
Q 2203 -75 1769 -75 
Q 1072 -75 642 372 
Q 213 819 213 1659 
z
M 791 1659 
Q 791 1022 1069 705 
Q 1347 388 1769 388 
Q 2188 388 2466 706 
Q 2744 1025 2744 1678 
Q 2744 2294 2464 2611 
Q 2184 2928 1769 2928 
Q 1347 2928 1069 2612 
Q 791 2297 791 1659 
z
" id="ArialMT-6f" transform="scale(0.015625)"/>
       <path d="M 422 -1272 
L 422 3319 
L 934 3319 
L 934 2888 
Q 1116 3141 1344 3267 
Q 1572 3394 1897 3394 
Q 2322 3394 2647 3175 
Q 2972 2956 3137 2557 
Q 3303 2159 3303 1684 
Q 3303 1175 3120 767 
Q 2938 359 2589 142 
Q 2241 -75 1856 -75 
Q 1575 -75 1351 44 
Q 1128 163 984 344 
L 984 -1272 
L 422 -1272 
z
M 931 1641 
Q 931 1000 1190 694 
Q 1450 388 1819 388 
Q 2194 388 2461 705 
Q 2728 1022 2728 1688 
Q 2728 2322 2467 2637 
Q 2206 2953 1844 2953 
Q 1484 2953 1207 2617 
Q 931 2281 931 1641 
z
" id="ArialMT-70" transform="scale(0.015625)"/>
       <path d="M 1650 503 
L 1731 6 
Q 1494 -44 1306 -44 
Q 1000 -44 831 53 
Q 663 150 594 308 
Q 525 466 525 972 
L 525 2881 
L 113 2881 
L 113 3319 
L 525 3319 
L 525 4141 
L 1084 4478 
L 1084 3319 
L 1650 3319 
L 1650 2881 
L 1084 2881 
L 1084 941 
Q 1084 700 1114 631 
Q 1144 563 1211 522 
Q 1278 481 1403 481 
Q 1497 481 1650 503 
z
" id="ArialMT-74" transform="scale(0.015625)"/>
       <path d="M 425 3934 
L 425 4581 
L 988 4581 
L 988 3934 
L 425 3934 
z
M 425 0 
L 425 3319 
L 988 3319 
L 988 0 
L 425 0 
z
" id="ArialMT-69" transform="scale(0.015625)"/>
       <path d="M 422 0 
L 422 3319 
L 928 3319 
L 928 2847 
Q 1294 3394 1984 3394 
Q 2284 3394 2536 3286 
Q 2788 3178 2913 3003 
Q 3038 2828 3088 2588 
Q 3119 2431 3119 2041 
L 3119 0 
L 2556 0 
L 2556 2019 
Q 2556 2363 2490 2533 
Q 2425 2703 2258 2804 
Q 2091 2906 1866 2906 
Q 1506 2906 1245 2678 
Q 984 2450 984 1813 
L 984 0 
L 422 0 
z
" id="ArialMT-6e" transform="scale(0.015625)"/>
      </defs>
      <use xlink:href="#ArialMT-50"/>
      <use x="66.699219" xlink:href="#ArialMT-72"/>
      <use x="100" xlink:href="#ArialMT-6f"/>
      <use x="155.615234" xlink:href="#ArialMT-70"/>
      <use x="211.230469" xlink:href="#ArialMT-6f"/>
      <use x="266.845703" xlink:href="#ArialMT-72"/>
      <use x="300.146484" xlink:href="#ArialMT-74"/>
      <use x="327.929688" xlink:href="#ArialMT-69"/>
      <use x="350.146484" xlink:href="#ArialMT-6f"/>
      <use x="405.761719" xlink:href="#ArialMT-6e"/>
     </g>
    </g>
   </g>
   <g id="line2d_12">
    <path clip-path="url(#p8ad3b2de65)" d="M 80.63295 252 
L 80.63295 251.999565 
L 135.795172 251.888671 
L 135.893912 251.886496 
L 143.025666 251.775602 
L 143.091267 251.772993 
L 147.870332 251.662098 
L 147.974255 251.659054 
L 151.045912 251.54816 
L 151.150979 251.543811 
L 153.668899 251.432916 
L 153.778222 251.426393 
L 155.609886 251.315499 
L 155.717153 251.308976 
L 157.334927 251.198081 
L 157.440564 251.190688 
L 158.829687 251.079794 
L 158.92803 251.069357 
L 160.307507 250.958462 
L 160.413063 250.94759 
L 161.652592 250.836696 
L 161.763234 250.822345 
L 162.866777 250.711451 
L 162.975098 250.699709 
L 163.812065 250.588814 
L 163.916554 250.574028 
L 164.859203 250.463134 
L 164.969834 250.450523 
L 165.734001 250.339628 
L 165.842647 250.324842 
L 166.584163 250.213948 
L 166.690803 250.195248 
L 167.378292 250.084354 
L 167.487876 250.063479 
L 168.115297 249.952585 
L 168.22505 249.929536 
L 168.823166 249.818642 
L 168.931003 249.796898 
L 169.511162 249.686004 
L 169.621515 249.658171 
L 170.153476 249.547277 
L 170.263991 249.522489 
L 170.797898 249.411594 
L 170.906697 249.388546 
L 171.395939 249.277651 
L 171.506568 249.249384 
L 172.006708 249.13849 
L 172.117515 249.104569 
L 172.531506 248.993675 
L 172.642443 248.963233 
L 173.031538 248.852339 
L 173.142472 248.818418 
L 173.531017 248.707524 
L 173.640441 248.679256 
L 174.000667 248.568362 
L 174.111058 248.529223 
L 174.47968 248.418328 
L 174.590649 248.381364 
L 174.923811 248.270469 
L 175.033649 248.240897 
L 175.381045 248.130003 
L 175.490514 248.094778 
L 175.824124 247.983883 
L 175.935086 247.948223 
L 176.232957 247.837329 
L 176.339406 247.796885 
L 176.663274 247.68599 
L 176.769871 247.647721 
L 177.047388 247.536827 
L 177.158231 247.493339 
L 177.435438 247.382444 
L 177.54597 247.340696 
L 177.787458 247.229801 
L 177.896106 247.188923 
L 178.161258 247.078028 
L 178.270516 247.031496 
L 178.508881 246.920602 
L 178.619571 246.87233 
L 178.845841 246.761436 
L 178.955211 246.709685 
L 179.188231 246.59879 
L 179.297749 246.555737 
L 179.5386 246.444843 
L 179.647818 246.388743 
L 179.845405 246.277849 
L 179.955422 246.225228 
L 180.170961 246.114334 
L 180.281493 246.063453 
L 180.494974 245.952559 
L 180.605639 245.896894 
L 180.813797 245.786 
L 180.924902 245.725116 
L 181.127981 245.614222 
L 181.239075 245.552469 
L 181.457826 245.441575 
L 181.567132 245.373299 
L 181.748044 245.262404 
L 181.858564 245.18804 
L 182.06207 245.077145 
L 182.172849 245.011044 
L 182.374602 244.900149 
L 182.485305 244.824915 
L 182.667372 244.71402 
L 182.777754 244.638786 
L 182.944813 244.527892 
L 183.054495 244.454397 
L 183.209527 244.343503 
L 183.318457 244.271313 
L 183.500413 244.160418 
L 183.610724 244.079531 
L 183.779306 243.968636 
L 183.889918 243.882965 
L 184.039131 243.77207 
L 184.148388 243.703794 
L 184.303332 243.5929 
L 184.414211 243.510708 
L 184.555303 243.399813 
L 184.665711 243.31936 
L 184.821758 243.208466 
L 184.931333 243.118011 
L 185.095452 243.007116 
L 185.205854 242.92014 
L 185.355621 242.809246 
L 185.466443 242.719661 
L 185.591648 242.608766 
L 185.702509 242.530923 
L 185.83072 242.420028 
L 185.941561 242.313483 
L 186.077487 242.202588 
L 186.188492 242.098217 
L 186.312639 241.987323 
L 186.421987 241.891214 
L 186.537571 241.78032 
L 186.648586 241.681167 
L 186.782025 241.570273 
L 186.892973 241.478078 
L 187.006081 241.367184 
L 187.117104 241.271076 
L 187.231089 241.160181 
L 187.341834 241.064508 
L 187.484698 240.953613 
L 187.595728 240.843154 
L 187.710668 240.732259 
L 187.821475 240.610493 
L 187.933884 240.499598 
L 188.043151 240.394792 
L 188.156901 240.283898 
L 188.267458 240.160392 
L 188.377313 240.049498 
L 188.488311 239.93295 
L 188.59217 239.822055 
L 188.703077 239.704638 
L 188.812109 239.593743 
L 188.921932 239.481109 
L 189.021457 239.370215 
L 189.131234 239.255842 
L 189.240417 239.144947 
L 189.350721 239.034488 
L 189.464348 238.923593 
L 189.575341 238.813134 
L 189.677011 238.702239 
L 189.788032 238.57482 
L 189.886224 238.463925 
L 189.996663 238.337375 
L 190.092633 238.226481 
L 190.203631 238.089928 
L 190.296586 237.979034 
L 190.407621 237.848135 
L 190.507608 237.737241 
L 190.618516 237.601558 
L 190.70474 237.490664 
L 190.815794 237.345849 
L 190.904981 237.234954 
L 191.016061 237.100576 
L 191.105957 236.989682 
L 191.216469 236.85052 
L 191.304935 236.739626 
L 191.415798 236.587853 
L 191.507848 236.476958 
L 191.61853 236.332578 
L 191.707898 236.221684 
L 191.818703 236.088176 
L 191.902932 235.977281 
L 192.013951 235.834206 
L 192.096486 235.723311 
L 192.207266 235.571538 
L 192.28948 235.460644 
L 192.400558 235.298434 
L 192.483683 235.187539 
L 192.594324 235.032722 
L 192.669511 234.921828 
L 192.780345 234.766575 
L 192.852122 234.655681 
L 192.962387 234.492601 
L 193.034509 234.381707 
L 193.14513 234.212103 
L 193.219523 234.101209 
L 193.330599 233.924648 
L 193.404047 233.813753 
L 193.514985 233.657196 
L 193.589815 233.546302 
L 193.700688 233.371915 
L 193.772179 233.261021 
L 193.883266 233.087939 
L 193.955337 232.977044 
L 194.066379 232.801788 
L 194.134945 232.690893 
L 194.245787 232.50259 
L 194.313589 232.391696 
L 194.424604 232.197739 
L 194.503644 232.086845 
L 194.614263 231.889844 
L 194.67592 231.77895 
L 194.786909 231.593691 
L 194.849479 231.482796 
L 194.96016 231.296233 
L 195.024935 231.185339 
L 195.135893 230.995296 
L 195.202752 230.884402 
L 195.313788 230.693924 
L 195.382799 230.58303 
L 195.493724 230.382115 
L 195.54656 230.271221 
L 195.657457 230.077699 
L 195.714339 229.966805 
L 195.825157 229.753279 
L 195.884333 229.642384 
L 195.995379 229.430163 
L 196.049537 229.319268 
L 196.160619 229.11618 
L 196.218358 229.005285 
L 196.329253 228.792194 
L 196.388238 228.6813 
L 196.499312 228.466904 
L 196.558948 228.356009 
L 196.669703 228.155964 
L 196.724779 228.04507 
L 196.835776 227.823716 
L 196.886813 227.712822 
L 196.997906 227.491033 
L 197.052363 227.380139 
L 197.163181 227.170092 
L 197.21833 227.059197 
L 197.329397 226.827841 
L 197.387249 226.716947 
L 197.498033 226.48559 
L 197.547256 226.374696 
L 197.657998 226.148124 
L 197.707813 226.037229 
L 197.818683 225.795001 
L 197.868857 225.684107 
L 197.979762 225.433181 
L 198.034089 225.322286 
L 198.145108 225.089191 
L 198.201475 224.978296 
L 198.31221 224.733894 
L 198.364541 224.622999 
L 198.475582 224.380336 
L 198.529783 224.269442 
L 198.640665 224.04026 
L 198.694027 223.929366 
L 198.80495 223.674091 
L 198.853175 223.563197 
L 198.964104 223.284004 
L 199.014228 223.173109 
L 199.125118 222.903919 
L 199.175026 222.793024 
L 199.285901 222.540794 
L 199.330005 222.4299 
L 199.440915 222.17593 
L 199.48758 222.065035 
L 199.598537 221.798019 
L 199.643665 221.687124 
L 199.754658 221.417064 
L 199.803326 221.30617 
L 199.914369 221.025237 
L 199.957678 220.914343 
L 200.068297 220.629496 
L 200.116018 220.518602 
L 200.227064 220.246802 
L 200.269464 220.135908 
L 200.380463 219.846712 
L 200.42255 219.735818 
L 200.533498 219.460974 
L 200.578011 219.350079 
L 200.689035 219.055231 
L 200.732241 218.944336 
L 200.84321 218.649923 
L 200.892107 218.539028 
L 201.002974 218.246354 
L 201.044801 218.13546 
L 201.155873 217.825825 
L 201.197138 217.714931 
L 201.308173 217.420082 
L 201.34612 217.309188 
L 201.457117 217.017383 
L 201.498798 216.906489 
L 201.609724 216.587722 
L 201.6475 216.476827 
L 201.758407 216.169367 
L 201.796189 216.058473 
L 201.907261 215.752317 
L 201.945197 215.641423 
L 202.056286 215.316567 
L 202.095065 215.205673 
L 202.206015 214.87299 
L 202.243214 214.762095 
L 202.354196 214.411147 
L 202.391857 214.300253 
L 202.502907 213.968439 
L 202.539697 213.857545 
L 202.650798 213.523122 
L 202.686922 213.412228 
L 202.797999 213.07737 
L 202.836145 212.966476 
L 202.946931 212.64249 
L 202.983907 212.531596 
L 203.094714 212.188041 
L 203.128798 212.077146 
L 203.239836 211.740549 
L 203.274836 211.629655 
L 203.385933 211.256963 
L 203.422326 211.146068 
L 203.53317 210.790771 
L 203.566362 210.679877 
L 203.67741 210.308924 
L 203.709942 210.19803 
L 203.820993 209.832731 
L 203.854315 209.721836 
L 203.96516 209.358276 
L 203.998921 209.247382 
L 204.1099 208.89426 
L 204.142661 208.783365 
L 204.253391 208.414587 
L 204.28802 208.303692 
L 204.399119 207.923172 
L 204.432354 207.812278 
L 204.542991 207.444804 
L 204.573905 207.33391 
L 204.68494 206.963392 
L 204.715657 206.852498 
L 204.826737 206.486329 
L 204.862208 206.375435 
L 204.973272 206.017963 
L 205.005557 205.907069 
L 205.116579 205.517416 
L 205.149482 205.406522 
L 205.260539 205.018609 
L 205.292818 204.907715 
L 205.403885 204.500667 
L 205.43698 204.389772 
L 205.54791 204.006643 
L 205.579902 203.895749 
L 205.691011 203.491745 
L 205.724298 203.380851 
L 205.83521 202.95032 
L 205.866816 202.839425 
L 205.977803 202.418896 
L 206.007615 202.308002 
L 206.11861 201.89878 
L 206.146785 201.787885 
L 206.257853 201.354745 
L 206.286338 201.243851 
L 206.397425 200.822887 
L 206.425883 200.711992 
L 206.53697 200.284505 
L 206.56524 200.173611 
L 206.675954 199.749168 
L 206.705638 199.638274 
L 206.816683 199.199045 
L 206.843016 199.08815 
L 206.954044 198.665012 
L 206.981372 198.554118 
L 207.092459 198.101843 
L 207.12054 197.990948 
L 207.231641 197.557373 
L 207.258275 197.446478 
L 207.369325 196.983331 
L 207.396089 196.872437 
L 207.507152 196.419727 
L 207.536141 196.308832 
L 207.647172 195.872213 
L 207.673282 195.761318 
L 207.784038 195.293388 
L 207.809135 195.182493 
L 207.920187 194.729348 
L 207.943913 194.618454 
L 208.05493 194.155741 
L 208.081467 194.044847 
L 208.192496 193.578221 
L 208.219119 193.467326 
L 208.330229 193.016791 
L 208.355796 192.905896 
L 208.466823 192.426659 
L 208.494369 192.315764 
L 208.605454 191.86001 
L 208.631863 191.749116 
L 208.742891 191.265964 
L 208.771361 191.155069 
L 208.88245 190.643216 
L 208.911007 190.532321 
L 209.022024 190.075262 
L 209.046574 189.964368 
L 209.157671 189.48774 
L 209.183955 189.376845 
L 209.295023 188.858903 
L 209.319889 188.748009 
L 209.430995 188.228327 
L 209.456822 188.117433 
L 209.567906 187.606449 
L 209.592912 187.495554 
L 209.703994 186.98631 
L 209.730158 186.875415 
L 209.841253 186.372694 
L 209.864477 186.2618 
L 209.975528 185.751685 
L 210.000174 185.640791 
L 210.111179 185.129807 
L 210.133826 185.018913 
L 210.244764 184.521845 
L 210.268957 184.41095 
L 210.379964 183.858653 
L 210.404207 183.747758 
L 210.515009 183.218509 
L 210.537042 183.107615 
L 210.648141 182.598805 
L 210.67094 182.487911 
L 210.781989 181.943441 
L 210.806752 181.832547 
L 210.917841 181.309386 
L 210.939056 181.198492 
L 211.050145 180.671417 
L 211.07399 180.560523 
L 211.185098 180.04519 
L 211.209408 179.934296 
L 211.320432 179.410265 
L 211.343189 179.299371 
L 211.454204 178.772296 
L 211.477868 178.661402 
L 211.588966 178.116932 
L 211.610658 178.006038 
L 211.72176 177.427647 
L 211.743795 177.316753 
L 211.854784 176.757062 
L 211.87542 176.646168 
L 211.98651 176.087782 
L 212.009972 175.976888 
L 212.120951 175.434592 
L 212.14274 175.323698 
L 212.25341 174.772705 
L 212.27603 174.661811 
L 212.387102 174.104729 
L 212.407789 173.993835 
L 212.518872 173.405442 
L 212.53918 173.294548 
L 212.650202 172.74138 
L 212.67426 172.630486 
L 212.784994 172.083407 
L 212.807469 171.972513 
L 212.91834 171.40282 
L 212.941206 171.291925 
L 213.052079 170.735279 
L 213.073992 170.624385 
L 213.185085 170.063824 
L 213.206908 169.95293 
L 213.317748 169.378453 
L 213.340016 169.267559 
L 213.451054 168.690473 
L 213.471412 168.579579 
L 213.582472 168.035109 
L 213.6033 167.924215 
L 213.714388 167.37844 
L 213.738159 167.267546 
L 213.849238 166.683067 
L 213.871147 166.572173 
L 213.982248 165.986824 
L 214.00414 165.87593 
L 214.115163 165.29667 
L 214.137766 165.185775 
L 214.248853 164.603036 
L 214.269092 164.492142 
L 214.380004 163.921144 
L 214.399612 163.81025 
L 214.510484 163.24969 
L 214.531921 163.138795 
L 214.642717 162.556491 
L 214.6643 162.445596 
L 214.775375 161.875904 
L 214.795202 161.765009 
L 214.906041 161.169659 
L 214.928677 161.058764 
L 215.039594 160.476025 
L 215.063036 160.365131 
L 215.174145 159.764561 
L 215.193161 159.653667 
L 215.304251 159.080495 
L 215.325041 158.969601 
L 215.436045 158.406866 
L 215.459459 158.295972 
L 215.570526 157.701056 
L 215.591277 157.590161 
L 215.702369 157.01438 
L 215.723047 156.903486 
L 215.833985 156.292914 
L 215.854581 156.18202 
L 215.965645 155.584495 
L 215.985133 155.4736 
L 216.096106 154.87738 
L 216.116432 154.766485 
L 216.227462 154.176788 
L 216.247773 154.065894 
L 216.358867 153.471848 
L 216.37947 153.360953 
L 216.490578 152.741249 
L 216.512927 152.630355 
L 216.623889 152.035874 
L 216.645859 151.92498 
L 216.756934 151.320061 
L 216.776597 151.209167 
L 216.887654 150.622079 
L 216.908122 150.511185 
L 217.0191 149.921487 
L 217.039599 149.810593 
L 217.150312 149.213938 
L 217.17149 149.103043 
L 217.282526 148.512476 
L 217.30438 148.401582 
L 217.415422 147.801012 
L 217.436264 147.690118 
L 217.547314 147.088679 
L 217.569505 146.977785 
L 217.680591 146.373736 
L 217.699289 146.262842 
L 217.810314 145.660533 
L 217.833749 145.549639 
L 217.944834 144.931674 
L 217.966792 144.82078 
L 218.077859 144.247173 
L 218.098542 144.136279 
L 218.209555 143.522228 
L 218.22938 143.411334 
L 218.340278 142.805981 
L 218.360752 142.695086 
L 218.471747 142.098866 
L 218.492172 141.987972 
L 218.603182 141.368268 
L 218.623411 141.257373 
L 218.734417 140.636364 
L 218.755021 140.52547 
L 218.866106 139.899678 
L 218.887264 139.788783 
L 218.998201 139.230832 
L 219.020254 139.119938 
L 219.131308 138.521543 
L 219.15164 138.410649 
L 219.262618 137.797903 
L 219.283954 137.687008 
L 219.394901 137.094702 
L 219.413983 136.983807 
L 219.524928 136.374975 
L 219.5457 136.264081 
L 219.656667 135.666991 
L 219.679428 135.556096 
L 219.79023 134.958136 
L 219.810735 134.847242 
L 219.921805 134.264938 
L 219.94396 134.154043 
L 220.054847 133.53173 
L 220.075441 133.420836 
L 220.186377 132.813743 
L 220.207772 132.702849 
L 220.31873 132.113151 
L 220.337535 132.002257 
L 220.448539 131.422127 
L 220.469702 131.311233 
L 220.580762 130.726754 
L 220.603837 130.61586 
L 220.714763 130.051385 
L 220.736321 129.940491 
L 220.847256 129.343401 
L 220.866109 129.232506 
L 220.977101 128.65542 
L 220.999522 128.544526 
L 221.110419 127.959178 
L 221.132635 127.848283 
L 221.243704 127.273807 
L 221.263222 127.162912 
L 221.374213 126.567562 
L 221.394091 126.456667 
L 221.505166 125.892193 
L 221.526382 125.781299 
L 221.637381 125.204213 
L 221.660589 125.093318 
L 221.771639 124.516233 
L 221.793969 124.405338 
L 221.905058 123.823469 
L 221.92599 123.712574 
L 222.037065 123.117659 
L 222.060645 123.006764 
L 222.171723 122.447508 
L 222.19122 122.336614 
L 222.302296 121.759528 
L 222.324035 121.648634 
L 222.434936 121.080246 
L 222.453989 120.969351 
L 222.564998 120.394005 
L 222.584211 120.283111 
L 222.695226 119.719941 
L 222.716607 119.609047 
L 222.827657 119.040224 
L 222.84966 118.929329 
L 222.960771 118.379641 
L 222.983942 118.268747 
L 223.095012 117.692965 
L 223.118316 117.582071 
L 223.229147 117.002811 
L 223.255337 116.891916 
L 223.366392 116.316135 
L 223.387693 116.205241 
L 223.498763 115.673818 
L 223.522554 115.562923 
L 223.633505 115.007581 
L 223.657485 114.896687 
L 223.768589 114.36048 
L 223.790239 114.249586 
L 223.901242 113.686416 
L 223.923907 113.575522 
L 224.034938 113.032791 
L 224.058797 112.921897 
L 224.169904 112.389604 
L 224.192922 112.278709 
L 224.303935 111.752505 
L 224.32573 111.64161 
L 224.436811 111.088443 
L 224.461353 110.977548 
L 224.572381 110.469174 
L 224.59567 110.358279 
L 224.706758 109.796414 
L 224.729961 109.68552 
L 224.841051 109.145834 
L 224.862559 109.03494 
L 224.973635 108.500907 
L 224.998659 108.390012 
L 225.10964 107.887726 
L 225.13578 107.776832 
L 225.246878 107.231927 
L 225.271168 107.121033 
L 225.382258 106.613528 
L 225.405445 106.502633 
L 225.516478 105.993389 
L 225.538101 105.882494 
L 225.648939 105.358464 
L 225.674046 105.24757 
L 225.785094 104.731367 
L 225.811165 104.620473 
L 225.922173 104.128623 
L 225.945652 104.017729 
L 226.056625 103.484131 
L 226.081837 103.373237 
L 226.192279 102.859644 
L 226.219109 102.748749 
L 226.330049 102.252116 
L 226.354697 102.141222 
L 226.465729 101.615017 
L 226.489165 101.504123 
L 226.600229 100.991834 
L 226.624104 100.88094 
L 226.735134 100.406485 
L 226.760657 100.295591 
L 226.871732 99.791565 
L 226.897727 99.680671 
L 227.008802 99.173166 
L 227.03431 99.062271 
L 227.14513 98.576945 
L 227.170575 98.466051 
L 227.281664 97.988553 
L 227.306952 97.877658 
L 227.417736 97.393637 
L 227.442065 97.282742 
L 227.553174 96.806114 
L 227.577459 96.69522 
L 227.688547 96.225984 
L 227.715216 96.11509 
L 227.826287 95.60628 
L 227.855724 95.495386 
L 227.966791 95.044415 
L 227.993732 94.933521 
L 228.104792 94.457327 
L 228.128896 94.346433 
L 228.239903 93.873283 
L 228.266786 93.762389 
L 228.377894 93.325334 
L 228.404868 93.21444 
L 228.515813 92.75999 
L 228.543104 92.649096 
L 228.654186 92.200735 
L 228.679806 92.08984 
L 228.790909 91.609298 
L 228.817921 91.498404 
L 228.929029 91.052217 
L 228.954968 90.941322 
L 229.06605 90.492526 
L 229.092089 90.381632 
L 229.203058 89.915005 
L 229.231901 89.804111 
L 229.342821 89.377929 
L 229.370651 89.267034 
L 229.481686 88.838677 
L 229.512753 88.727783 
L 229.623482 88.298991 
L 229.653403 88.188097 
L 229.764466 87.738866 
L 229.793194 87.627972 
L 229.904295 87.189612 
L 229.93355 87.078718 
L 230.044564 86.662973 
L 230.072573 86.552078 
L 230.183673 86.12981 
L 230.212735 86.018916 
L 230.323639 85.608824 
L 230.355506 85.497929 
L 230.466601 85.091316 
L 230.497875 84.980422 
L 230.608671 84.587725 
L 230.63906 84.476831 
L 230.749974 84.051518 
L 230.776951 83.940624 
L 230.88796 83.525748 
L 230.919715 83.414854 
L 231.03079 83.01433 
L 231.062704 82.903435 
L 231.173694 82.512478 
L 231.202542 82.401584 
L 231.313589 82.003668 
L 231.344016 81.892774 
L 231.454884 81.491815 
L 231.486801 81.38092 
L 231.597828 80.970828 
L 231.63033 80.859934 
L 231.741314 80.469412 
L 231.772524 80.358517 
L 231.883326 79.950165 
L 231.919163 79.839271 
L 232.030142 79.452662 
L 232.063851 79.341768 
L 232.174473 78.968206 
L 232.212029 78.857312 
L 232.323116 78.458092 
L 232.353799 78.347197 
L 232.464887 77.995814 
L 232.500604 77.88492 
L 232.611709 77.537016 
L 232.648104 77.426122 
L 232.759191 77.074739 
L 232.793224 76.963844 
L 232.904306 76.607677 
L 232.93915 76.496783 
L 233.050143 76.14453 
L 233.083009 76.033636 
L 233.193724 75.679644 
L 233.233187 75.568749 
L 233.344184 75.214322 
L 233.378182 75.103428 
L 233.489178 74.750305 
L 233.52562 74.639411 
L 233.636711 74.299769 
L 233.667811 74.188875 
L 233.778797 73.830969 
L 233.814726 73.720074 
L 233.925421 73.359124 
L 233.961704 73.248229 
L 234.072783 72.912067 
L 234.113132 72.801173 
L 234.224152 72.465445 
L 234.262779 72.354551 
L 234.373808 72.023607 
L 234.41299 71.912713 
L 234.523944 71.59699 
L 234.563183 71.486096 
L 234.674218 71.17994 
L 234.717514 71.069046 
L 234.828565 70.737232 
L 234.864933 70.626338 
L 234.975298 70.288436 
L 235.014516 70.177542 
L 235.125404 69.857905 
L 235.166644 69.747011 
L 235.277653 69.446508 
L 235.315444 69.335614 
L 235.426453 69.013803 
L 235.474629 68.902908 
L 235.585663 68.613278 
L 235.625155 68.502384 
L 235.736129 68.214059 
L 235.775771 68.103164 
L 235.886862 67.793095 
L 235.931266 67.6822 
L 236.042292 67.378654 
L 236.080969 67.26776 
L 236.191775 66.970737 
L 236.233187 66.859842 
L 236.344234 66.569777 
L 236.390044 66.458883 
L 236.500887 66.175341 
L 236.54223 66.064447 
L 236.653328 65.783949 
L 236.69988 65.673055 
L 236.810669 65.402124 
L 236.855666 65.29123 
L 236.966517 65.005079 
L 237.015978 64.894185 
L 237.126595 64.614557 
L 237.176721 64.503662 
L 237.287647 64.240995 
L 237.329788 64.1301 
L 237.440847 63.877 
L 237.492731 63.766106 
L 237.603646 63.506917 
L 237.650337 63.396023 
L 237.761336 63.122918 
L 237.810958 63.012024 
L 237.921697 62.788931 
L 237.970772 62.678036 
L 238.081809 62.407106 
L 238.131805 62.296212 
L 238.242886 62.051374 
L 238.294522 61.94048 
L 238.405523 61.68477 
L 238.4536 61.573876 
L 238.564513 61.331213 
L 238.612993 61.220318 
L 238.723957 60.987223 
L 238.776619 60.876328 
L 238.8877 60.642798 
L 238.94352 60.531903 
L 239.054598 60.306636 
L 239.111977 60.195741 
L 239.222877 59.975692 
L 239.281533 59.864797 
L 239.392494 59.662143 
L 239.445073 59.551249 
L 239.555951 59.335983 
L 239.606772 59.225089 
L 239.717569 59.006779 
L 239.77289 58.895885 
L 239.883858 58.670617 
L 239.93532 58.559723 
L 240.046316 58.346196 
L 240.104363 58.235302 
L 240.215311 58.013513 
L 240.285381 57.902619 
L 240.396455 57.683874 
L 240.450286 57.57298 
L 240.561209 57.355105 
L 240.624463 57.244211 
L 240.735517 57.040687 
L 240.797237 56.929792 
L 240.908282 56.713222 
L 240.960339 56.602328 
L 241.071277 56.413155 
L 241.135384 56.30226 
L 241.246252 56.103955 
L 241.311085 55.993061 
L 241.422066 55.793886 
L 241.4868 55.682991 
L 241.597855 55.494253 
L 241.663555 55.383359 
L 241.774623 55.211581 
L 241.838736 55.100687 
L 241.949764 54.91021 
L 242.024863 54.799315 
L 242.135846 54.610577 
L 242.205219 54.499683 
L 242.316056 54.317903 
L 242.381564 54.207009 
L 242.492284 54.032187 
L 242.561167 53.921292 
L 242.671977 53.757778 
L 242.739527 53.646883 
L 242.850218 53.45858 
L 242.919608 53.347686 
L 243.030607 53.167645 
L 243.10611 53.056751 
L 243.217081 52.891062 
L 243.297737 52.780167 
L 243.408826 52.627959 
L 243.482406 52.517065 
L 243.593405 52.33398 
L 243.674744 52.223086 
L 243.785705 52.052178 
L 243.860828 51.941284 
L 243.971126 51.779508 
L 244.044635 51.668614 
L 244.155415 51.515101 
L 244.238976 51.404207 
L 244.349647 51.249825 
L 244.440257 51.13893 
L 244.55095 50.988027 
L 244.627086 50.877132 
L 244.738191 50.726664 
L 244.830159 50.61577 
L 244.941039 50.459648 
L 245.030118 50.348753 
L 245.141151 50.206113 
L 245.223753 50.095218 
L 245.334859 49.940401 
L 245.41536 49.829507 
L 245.526139 49.689475 
L 245.616647 49.578581 
L 245.726941 49.433331 
L 245.820316 49.322436 
L 245.930573 49.178056 
L 246.01397 49.067162 
L 246.124911 48.926261 
L 246.226068 48.815366 
L 246.337081 48.692295 
L 246.432081 48.581401 
L 246.542971 48.45833 
L 246.634123 48.347436 
L 246.7452 48.213058 
L 246.844644 48.102163 
L 246.95573 47.975178 
L 247.042146 47.864284 
L 247.153145 47.735124 
L 247.253705 47.62423 
L 247.36448 47.498985 
L 247.453534 47.38809 
L 247.563886 47.272412 
L 247.656046 47.161518 
L 247.766946 47.052363 
L 247.881819 46.941468 
L 247.990984 46.827095 
L 248.097959 46.716201 
L 248.208404 46.598783 
L 248.324521 46.487889 
L 248.435128 46.378299 
L 248.549099 46.267404 
L 248.660152 46.154336 
L 248.770737 46.043441 
L 248.881248 45.929503 
L 249.006947 45.818608 
L 249.117519 45.711628 
L 249.245335 45.600733 
L 249.356268 45.490709 
L 249.479722 45.379814 
L 249.59054 45.28849 
L 249.711577 45.177595 
L 249.822415 45.092794 
L 249.950674 44.981899 
L 250.061124 44.892314 
L 250.207568 44.78142 
L 250.31852 44.68792 
L 250.445225 44.577026 
L 250.556176 44.477438 
L 250.685082 44.366544 
L 250.794851 44.27261 
L 250.934177 44.161716 
L 251.044394 44.078653 
L 251.20181 43.967759 
L 251.312446 43.879478 
L 251.456002 43.768584 
L 251.567032 43.683348 
L 251.710102 43.572453 
L 251.82075 43.484607 
L 251.970707 43.373713 
L 252.081755 43.285867 
L 252.230113 43.174973 
L 252.340824 43.09365 
L 252.509612 42.982756 
L 252.616726 42.902738 
L 252.77967 42.791844 
L 252.890138 42.71226 
L 253.06958 42.601366 
L 253.180172 42.522653 
L 253.350976 42.411758 
L 253.461807 42.33261 
L 253.627888 42.221716 
L 253.738502 42.15344 
L 253.913444 42.042545 
L 254.024416 41.975574 
L 254.20513 41.864679 
L 254.315788 41.790315 
L 254.509348 41.67942 
L 254.619263 41.602447 
L 254.798201 41.491552 
L 254.90859 41.431539 
L 255.094167 41.320644 
L 255.205126 41.264545 
L 255.398835 41.153651 
L 255.509599 41.091898 
L 255.734987 40.981003 
L 255.845466 40.924034 
L 256.069045 40.81314 
L 256.17876 40.753996 
L 256.376645 40.643101 
L 256.487116 40.583088 
L 256.699544 40.472194 
L 256.809467 40.426531 
L 257.038465 40.315637 
L 257.148521 40.26606 
L 257.373505 40.155166 
L 257.484081 40.111243 
L 257.718255 40.000349 
L 257.826499 39.946859 
L 258.087266 39.835964 
L 258.197715 39.787692 
L 258.455503 39.676798 
L 258.566234 39.639398 
L 258.832647 39.528504 
L 258.942841 39.483276 
L 259.203258 39.372382 
L 259.312501 39.326285 
L 259.567129 39.21539 
L 259.677058 39.170598 
L 259.988691 39.059703 
L 260.096808 39.017955 
L 260.350608 38.90706 
L 260.458062 38.871835 
L 260.754774 38.760941 
L 260.865761 38.725716 
L 261.218023 38.614821 
L 261.328986 38.571333 
L 261.640691 38.460439 
L 261.74701 38.423909 
L 262.092242 38.313014 
L 262.2029 38.276484 
L 262.591847 38.16559 
L 262.701404 38.132539 
L 263.105567 38.021645 
L 263.216558 37.989029 
L 263.565589 37.878134 
L 263.676422 37.852911 
L 264.067866 37.742017 
L 264.178208 37.715054 
L 264.630493 37.60416 
L 264.741028 37.577632 
L 265.225499 37.466738 
L 265.335519 37.437166 
L 265.796541 37.326272 
L 265.905406 37.300179 
L 266.414547 37.189284 
L 266.523516 37.157103 
L 267.015489 37.046209 
L 267.125553 37.02403 
L 267.669014 36.913136 
L 267.77833 36.893131 
L 268.40059 36.782237 
L 268.511495 36.757449 
L 269.131048 36.646554 
L 269.235634 36.629159 
L 269.913253 36.518265 
L 270.024148 36.49826 
L 270.742594 36.387366 
L 270.853234 36.369101 
L 271.555286 36.258206 
L 271.666057 36.244725 
L 272.438297 36.133831 
L 272.54691 36.121654 
L 273.392703 36.01076 
L 273.49796 35.995974 
L 274.490265 35.885079 
L 274.599714 35.871598 
L 275.635426 35.760704 
L 275.745359 35.746788 
L 276.927311 35.635893 
L 277.031799 35.625021 
L 278.32175 35.514127 
L 278.431339 35.505429 
L 280.083735 35.394535 
L 280.184986 35.386272 
L 281.909174 35.275378 
L 282.016705 35.268854 
L 283.896426 35.15796 
L 283.971932 35.153611 
L 286.489494 35.042717 
L 286.582879 35.036628 
L 289.349852 34.925734 
L 289.453226 34.92269 
L 293.485041 34.811796 
L 293.553454 34.809621 
L 300.666641 34.698727 
L 300.765065 34.697422 
L 320.87568 34.586528 
L 320.87568 34.586093 
L 373.581818 34.560435 
L 373.581818 34.56 
" style="fill:none;stroke:#4c72b0;stroke-linecap:round;stroke-width:1.5;"/>
   </g>
   <g id="line2d_13">
    <path clip-path="url(#p8ad3b2de65)" d="M 69.218182 252 
L 69.218182 251.78256 
L 108.961926 251.78256 
L 108.961926 251.56512 
L 110.517404 251.56512 
L 110.517404 251.34768 
L 118.150917 251.34768 
L 118.150917 251.13024 
L 118.607362 251.13024 
L 118.607362 250.9128 
L 120.198794 250.9128 
L 120.198794 250.69536 
L 128.648462 250.69536 
L 128.648462 250.47792 
L 131.798524 250.47792 
L 131.798524 250.26048 
L 131.925274 250.26048 
L 131.925274 250.04304 
L 132.569244 250.04304 
L 132.569244 249.8256 
L 134.070696 249.8256 
L 134.070696 249.60816 
L 134.279585 249.60816 
L 134.279585 249.39072 
L 134.52411 249.39072 
L 134.52411 249.17328 
L 136.137735 249.17328 
L 136.137735 248.95584 
L 139.553565 248.95584 
L 139.553565 248.7384 
L 140.905304 248.7384 
L 140.905304 248.52096 
L 141.713717 248.52096 
L 141.713717 248.30352 
L 142.744685 248.30352 
L 142.744685 248.08608 
L 142.892384 248.08608 
L 142.892384 247.86864 
L 145.063934 247.86864 
L 145.150721 247.43376 
L 146.831401 247.43376 
L 146.831401 247.21632 
L 148.927762 247.21632 
L 148.927762 246.99888 
L 149.456986 246.99888 
L 149.456986 246.78144 
L 149.726406 246.78144 
L 149.726406 246.564 
L 150.017222 246.564 
L 150.017222 246.34656 
L 150.136204 246.34656 
L 150.208647 245.91168 
L 150.266025 245.91168 
L 150.266025 245.69424 
L 151.600819 245.69424 
L 151.600819 245.4768 
L 152.044694 245.4768 
L 152.044694 245.25936 
L 152.235804 245.25936 
L 152.235804 245.04192 
L 152.393294 245.04192 
L 152.393294 244.82448 
L 152.505606 244.82448 
L 152.505606 244.60704 
L 152.893993 244.60704 
L 152.956956 244.17216 
L 153.094156 244.17216 
L 153.094156 243.95472 
L 153.55736 243.95472 
L 153.55736 243.73728 
L 155.379136 243.73728 
L 155.379136 243.51984 
L 155.789601 243.51984 
L 155.789601 243.3024 
L 155.97749 243.3024 
L 155.97749 243.08496 
L 156.502471 243.08496 
L 156.502471 242.86752 
L 156.731446 242.86752 
L 156.731446 242.65008 
L 157.362657 242.65008 
L 157.362657 242.43264 
L 158.350495 242.43264 
L 158.350495 242.2152 
L 158.862179 242.2152 
L 158.882047 241.56288 
L 159.401673 241.56288 
L 159.401673 241.34544 
L 160.808641 241.34544 
L 160.808641 241.128 
L 160.990395 241.128 
L 160.990395 240.91056 
L 161.386409 240.91056 
L 161.42557 240.47568 
L 161.60847 240.47568 
L 161.60847 240.25824 
L 161.93052 240.25824 
L 161.93052 240.0408 
L 162.594679 240.0408 
L 162.594679 239.82336 
L 162.966337 239.82336 
L 162.966337 239.60592 
L 163.109537 239.60592 
L 163.109537 239.38848 
L 163.493372 239.38848 
L 163.493372 239.17104 
L 163.709736 239.17104 
L 163.806386 238.73616 
L 164.427889 238.73616 
L 164.511119 238.30128 
L 164.872256 238.30128 
L 164.872256 238.08384 
L 165.009198 238.08384 
L 165.098854 237.64896 
L 165.25785 237.64896 
L 165.25785 237.43152 
L 165.409522 237.43152 
L 165.49608 236.99664 
L 165.809956 236.99664 
L 165.823459 236.56176 
L 165.95168 236.56176 
L 165.95168 236.34432 
L 166.231546 236.34432 
L 166.231546 236.12688 
L 166.516681 236.12688 
L 166.516681 235.90944 
L 166.644118 235.90944 
L 166.644118 235.692 
L 167.00976 235.692 
L 167.00976 235.47456 
L 167.159711 235.47456 
L 167.159711 235.25712 
L 167.354637 235.25712 
L 167.422387 234.82224 
L 167.473477 234.82224 
L 167.473477 234.6048 
L 168.043131 234.6048 
L 168.043131 234.38736 
L 168.583331 234.38736 
L 168.670671 233.73504 
L 168.737755 233.73504 
L 168.7548 233.30016 
L 169.016607 233.30016 
L 169.016607 233.08272 
L 169.316717 233.08272 
L 169.316717 232.86528 
L 169.629515 232.86528 
L 169.663169 232.4304 
L 169.908124 232.4304 
L 169.908124 232.21296 
L 170.286665 232.21296 
L 170.286665 231.99552 
L 170.651736 231.99552 
L 170.654822 231.56064 
L 170.818597 231.56064 
L 170.818597 231.3432 
L 170.954785 231.3432 
L 171.021831 230.90832 
L 171.383842 230.90832 
L 171.383842 230.69088 
L 171.626582 230.69088 
L 171.626582 230.47344 
L 171.788173 230.47344 
L 171.855915 230.03856 
L 171.96835 230.03856 
L 171.96835 229.82112 
L 172.095414 229.82112 
L 172.095414 229.60368 
L 172.643113 229.60368 
L 172.727084 229.1688 
L 172.88367 229.1688 
L 172.88367 228.95136 
L 173.341178 228.95136 
L 173.341178 228.73392 
L 173.627152 228.73392 
L 173.627152 228.51648 
L 174.011828 228.51648 
L 174.051643 227.64672 
L 174.27586 227.64672 
L 174.380526 227.21184 
L 174.771436 227.21184 
L 174.837139 226.77696 
L 175.082965 226.77696 
L 175.082965 226.55952 
L 175.241042 226.55952 
L 175.241042 226.34208 
L 175.722368 226.34208 
L 175.722368 226.12464 
L 176.219957 226.12464 
L 176.219957 225.9072 
L 176.632734 225.9072 
L 176.719941 225.47232 
L 176.791603 225.47232 
L 176.862041 225.03744 
L 177.095688 225.03744 
L 177.095688 224.82 
L 177.207784 224.82 
L 177.31059 224.38512 
L 177.419682 224.38512 
L 177.45112 223.95024 
L 177.730975 223.95024 
L 177.730975 223.7328 
L 178.203603 223.7328 
L 178.203603 223.51536 
L 178.455594 223.51536 
L 178.455594 223.29792 
L 178.668538 223.29792 
L 178.716656 222.86304 
L 178.844853 222.86304 
L 178.871719 222.42816 
L 178.971397 222.42816 
L 179.031086 221.99328 
L 179.205489 221.99328 
L 179.205489 221.77584 
L 179.354747 221.77584 
L 179.447988 221.12352 
L 179.692619 221.12352 
L 179.692619 220.90608 
L 180.087533 220.90608 
L 180.111382 220.4712 
L 180.200553 220.4712 
L 180.200553 220.25376 
L 180.516701 220.25376 
L 180.516701 220.03632 
L 180.938346 220.03632 
L 180.938346 219.81888 
L 181.214371 219.81888 
L 181.312669 219.384 
L 181.649187 219.384 
L 181.729256 218.73168 
L 182.060113 218.73168 
L 182.060113 218.51424 
L 182.225171 218.51424 
L 182.225171 218.2968 
L 182.523535 218.2968 
L 182.60346 217.86192 
L 182.674972 217.86192 
L 182.674972 217.64448 
L 182.955884 217.64448 
L 183.033592 216.55728 
L 183.092639 216.55728 
L 183.092639 216.33984 
L 183.607854 216.33984 
L 183.607854 216.1224 
L 183.993884 216.1224 
L 183.993884 215.90496 
L 184.254205 215.90496 
L 184.28834 215.47008 
L 184.377994 215.47008 
L 184.377994 215.25264 
L 184.583691 215.25264 
L 184.673678 214.81776 
L 185.054602 214.81776 
L 185.054602 214.60032 
L 185.217201 214.60032 
L 185.296606 213.948 
L 185.580888 213.948 
L 185.580888 213.73056 
L 185.718646 213.73056 
L 185.821982 213.29568 
L 185.861111 213.29568 
L 185.861111 213.07824 
L 186.121234 213.07824 
L 186.146235 212.64336 
L 186.2361 212.64336 
L 186.2361 212.42592 
L 186.403267 212.42592 
L 186.415314 211.99104 
L 186.69595 211.99104 
L 186.69595 211.7736 
L 186.899292 211.7736 
L 186.899292 211.55616 
L 187.052749 211.55616 
L 187.052749 211.33872 
L 187.287708 211.33872 
L 187.340529 210.90384 
L 187.521677 210.90384 
L 187.542024 210.25152 
L 187.767481 210.25152 
L 187.767481 210.03408 
L 187.962471 210.03408 
L 187.962471 209.81664 
L 188.785229 209.81664 
L 188.785229 209.5992 
L 188.927873 209.5992 
L 189.038523 209.16432 
L 189.068814 209.16432 
L 189.174217 208.72944 
L 189.356564 208.72944 
L 189.436613 208.07712 
L 189.736997 208.07712 
L 189.785374 207.20736 
L 189.853323 207.20736 
L 189.853323 206.98992 
L 190.099438 206.98992 
L 190.099438 206.77248 
L 190.425398 206.77248 
L 190.425398 206.55504 
L 190.867427 206.55504 
L 190.91368 206.12016 
L 191.163464 206.12016 
L 191.232154 205.46784 
L 191.305394 205.46784 
L 191.305394 205.2504 
L 191.520772 205.2504 
L 191.627419 204.59808 
L 191.980067 204.59808 
L 191.980067 204.38064 
L 192.208035 204.38064 
L 192.271281 203.94576 
L 192.323832 203.94576 
L 192.418755 203.51088 
L 192.438282 203.51088 
L 192.438282 203.29344 
L 192.597797 203.29344 
L 192.597797 203.076 
L 192.754038 203.076 
L 192.754038 202.85856 
L 193.00796 202.85856 
L 193.094914 202.20624 
L 193.191397 202.20624 
L 193.284755 201.55392 
L 193.414504 201.55392 
L 193.414504 201.33648 
L 193.626757 201.33648 
L 193.660561 200.68416 
L 193.838991 200.68416 
L 193.838991 200.46672 
L 194.09979 200.46672 
L 194.09979 200.24928 
L 194.353318 200.24928 
L 194.353318 200.03184 
L 194.728842 200.03184 
L 194.806262 199.59696 
L 194.876712 199.59696 
L 194.987183 198.94464 
L 195.127329 198.94464 
L 195.127329 198.7272 
L 195.582307 198.7272 
L 195.68968 198.29232 
L 196.074157 198.29232 
L 196.145715 197.85744 
L 196.467955 197.85744 
L 196.467955 197.64 
L 196.829302 197.64 
L 196.829302 197.42256 
L 196.959192 197.42256 
L 197.069484 196.98768 
L 197.258142 196.98768 
L 197.366452 196.5528 
L 197.454029 196.5528 
L 197.519726 196.11792 
L 197.638551 196.11792 
L 197.704668 195.68304 
L 197.881055 195.68304 
L 197.881055 195.4656 
L 198.066269 195.4656 
L 198.133256 194.81328 
L 198.855128 194.81328 
L 198.935533 193.94352 
L 199.027577 193.94352 
L 199.035337 193.50864 
L 199.164472 193.50864 
L 199.231297 193.07376 
L 199.323466 193.07376 
L 199.428715 192.63888 
L 199.488808 192.63888 
L 199.560183 192.204 
L 199.640547 192.204 
L 199.670279 191.76912 
L 199.888921 191.76912 
L 199.888921 191.55168 
L 200.003566 191.55168 
L 200.003566 191.33424 
L 200.156892 191.33424 
L 200.156892 191.1168 
L 200.351478 191.1168 
L 200.462555 189.81216 
L 200.478126 189.81216 
L 200.478126 189.59472 
L 200.808979 189.59472 
L 200.808979 189.37728 
L 201.06168 189.37728 
L 201.06168 189.15984 
L 201.181936 189.15984 
L 201.242401 188.72496 
L 201.376899 188.72496 
L 201.466384 187.8552 
L 201.543034 187.8552 
L 201.631267 186.98544 
L 201.716681 186.98544 
L 201.805785 186.55056 
L 202.042259 186.55056 
L 202.129858 185.89824 
L 202.264626 185.89824 
L 202.342252 185.46336 
L 202.854458 185.46336 
L 202.854458 185.24592 
L 203.143321 185.24592 
L 203.159605 184.81104 
L 203.372471 184.81104 
L 203.421886 184.37616 
L 203.62763 184.37616 
L 203.714548 183.72384 
L 203.783634 183.72384 
L 203.842901 182.85408 
L 203.927068 182.85408 
L 203.93576 182.4192 
L 204.045466 182.4192 
L 204.098125 181.332 
L 204.508611 181.332 
L 204.58103 180.89712 
L 204.709107 180.89712 
L 204.709107 180.67968 
L 204.998524 180.67968 
L 204.998524 180.46224 
L 205.20315 180.46224 
L 205.299234 180.02736 
L 205.329963 180.02736 
L 205.40978 178.72272 
L 205.496937 178.72272 
L 205.515677 178.28784 
L 205.898832 178.28784 
L 205.898832 178.0704 
L 206.093318 178.0704 
L 206.195566 177.41808 
L 206.220227 177.41808 
L 206.307535 176.76576 
L 206.48402 176.76576 
L 206.513132 176.33088 
L 206.645916 176.33088 
L 206.645916 176.11344 
L 206.786849 176.11344 
L 206.89551 175.67856 
L 206.904318 175.67856 
L 206.950284 175.02624 
L 207.228892 175.02624 
L 207.228892 174.8088 
L 207.407184 174.8088 
L 207.503467 173.7216 
L 207.522867 173.7216 
L 207.575612 173.28672 
L 207.688473 173.28672 
L 207.77096 172.85184 
L 207.827867 172.85184 
L 207.915223 172.41696 
L 207.971106 172.41696 
L 208.078371 171.5472 
L 208.08893 171.5472 
L 208.128726 171.11232 
L 208.249296 171.11232 
L 208.283247 170.67744 
L 208.385731 170.67744 
L 208.385731 170.46 
L 208.571142 170.46 
L 208.596964 170.02512 
L 208.811748 170.02512 
L 208.909991 168.93792 
L 208.954271 168.93792 
L 209.037373 168.50304 
L 209.207005 168.50304 
L 209.233227 167.85072 
L 209.550811 167.85072 
L 209.550811 167.63328 
L 209.827781 167.63328 
L 209.928328 166.98096 
L 209.950613 166.98096 
L 209.962142 166.32864 
L 210.220159 166.32864 
L 210.306561 165.45888 
L 210.380232 165.45888 
L 210.460139 164.37168 
L 210.504361 164.37168 
L 210.595633 163.9368 
L 210.646963 163.9368 
L 210.646963 163.71936 
L 210.819025 163.71936 
L 210.843972 163.28448 
L 210.941534 163.28448 
L 210.941534 163.06704 
L 211.074064 163.06704 
L 211.149557 162.63216 
L 211.348835 162.63216 
L 211.348835 162.41472 
L 211.87888 162.41472 
L 211.87888 162.19728 
L 212.173609 162.19728 
L 212.266295 161.54496 
L 212.475558 161.54496 
L 212.514816 160.6752 
L 212.706528 160.6752 
L 212.776981 160.24032 
L 212.878221 160.24032 
L 212.878221 160.02288 
L 213.042616 160.02288 
L 213.042616 159.80544 
L 213.179118 159.80544 
L 213.283634 159.15312 
L 213.298773 159.15312 
L 213.305322 158.71824 
L 213.678398 158.71824 
L 213.737148 158.28336 
L 213.852857 158.28336 
L 213.958819 157.84848 
L 214.030144 157.84848 
L 214.101351 157.19616 
L 214.142038 157.19616 
L 214.199548 156.54384 
L 214.569722 156.54384 
L 214.617969 156.10896 
L 214.697714 156.10896 
L 214.740152 155.67408 
L 214.855683 155.67408 
L 214.898681 155.2392 
L 215.049899 155.2392 
L 215.156386 154.58688 
L 215.168339 154.58688 
L 215.23726 153.93456 
L 215.624961 153.93456 
L 215.667617 153.49968 
L 215.992707 153.49968 
L 216.066737 152.84736 
L 216.122327 152.84736 
L 216.122327 152.62992 
L 216.235049 152.62992 
L 216.328702 151.76016 
L 216.515033 151.76016 
L 216.60796 151.32528 
L 216.657631 151.32528 
L 216.730176 150.67296 
L 216.927973 150.67296 
L 216.966916 150.23808 
L 217.103208 150.23808 
L 217.103208 150.02064 
L 217.285228 150.02064 
L 217.361259 149.58576 
L 217.431254 149.58576 
L 217.442335 149.15088 
L 217.6563 149.15088 
L 217.763357 148.06368 
L 217.772243 148.06368 
L 217.865472 147.19392 
L 217.976431 147.19392 
L 217.976431 146.97648 
L 218.139362 146.97648 
L 218.150233 146.5416 
L 218.414381 146.5416 
L 218.498885 145.88928 
L 218.572537 145.88928 
L 218.626476 145.4544 
L 218.717303 145.4544 
L 218.795049 145.01952 
L 218.866337 145.01952 
L 218.927337 144.58464 
L 219.053311 144.58464 
L 219.053311 144.3672 
L 219.171065 144.3672 
L 219.171065 144.14976 
L 219.311656 144.14976 
L 219.419677 143.71488 
L 219.440042 143.71488 
L 219.482415 143.28 
L 219.741328 143.28 
L 219.792428 142.62768 
L 219.87617 142.62768 
L 219.87617 142.41024 
L 219.989353 142.41024 
L 219.998823 141.97536 
L 220.417149 141.97536 
L 220.454616 141.32304 
L 220.624612 141.32304 
L 220.624612 141.1056 
L 220.809756 141.1056 
L 220.897851 140.67072 
L 221.004358 140.67072 
L 221.004358 140.45328 
L 221.134069 140.45328 
L 221.134069 140.23584 
L 221.430248 140.23584 
L 221.430248 140.0184 
L 221.565409 140.0184 
L 221.670206 139.14864 
L 221.710326 139.14864 
L 221.721299 138.71376 
L 222.104021 138.71376 
L 222.104021 138.49632 
L 222.417013 138.49632 
L 222.507237 137.844 
L 222.876754 137.844 
L 222.876754 137.62656 
L 223.070662 137.62656 
L 223.070662 137.40912 
L 223.186187 137.40912 
L 223.186187 137.19168 
L 223.433583 137.19168 
L 223.531237 136.7568 
L 223.760028 136.7568 
L 223.863866 136.10448 
L 223.940495 136.10448 
L 224.018529 135.45216 
L 224.06057 135.45216 
L 224.06057 135.23472 
L 224.442113 135.23472 
L 224.442113 135.01728 
L 224.599805 135.01728 
L 224.707419 134.36496 
L 224.743712 134.36496 
L 224.782231 133.93008 
L 224.889662 133.93008 
L 224.963838 133.4952 
L 225.106441 133.4952 
L 225.190374 132.84288 
L 225.344123 132.84288 
L 225.419019 132.19056 
L 225.487369 132.19056 
L 225.562411 131.75568 
L 225.601222 131.75568 
L 225.601222 131.53824 
L 225.804493 131.53824 
L 225.872292 130.66848 
L 225.917789 130.66848 
L 226.007031 130.2336 
L 226.046988 130.2336 
L 226.114553 129.79872 
L 226.262552 129.79872 
L 226.364379 129.1464 
L 226.393458 129.1464 
L 226.487645 128.71152 
L 226.550369 128.71152 
L 226.550369 128.49408 
L 226.773417 128.49408 
L 226.773417 128.27664 
L 226.890171 128.27664 
L 226.891769 127.84176 
L 227.013758 127.84176 
L 227.056259 127.40688 
L 227.357487 127.40688 
L 227.357487 127.18944 
L 227.53421 127.18944 
L 227.620715 126.75456 
L 227.780092 126.75456 
L 227.815558 126.31968 
L 227.947877 126.31968 
L 227.947877 126.10224 
L 228.165021 126.10224 
L 228.253655 125.44992 
L 228.353613 125.44992 
L 228.353613 125.23248 
L 228.705281 125.23248 
L 228.705281 125.01504 
L 228.881088 125.01504 
L 228.956942 124.14528 
L 229.085802 124.14528 
L 229.095472 123.7104 
L 229.241142 123.7104 
L 229.340705 123.27552 
L 229.471864 123.27552 
L 229.575084 122.6232 
L 229.612207 122.6232 
L 229.722503 121.97088 
L 229.892854 121.97088 
L 229.894784 121.536 
L 230.023593 121.536 
L 230.114359 121.10112 
L 230.17922 121.10112 
L 230.17922 120.88368 
L 230.307527 120.88368 
L 230.418134 119.79648 
L 230.445511 119.79648 
L 230.550961 119.14416 
L 230.616987 119.14416 
L 230.626717 118.70928 
L 230.802128 118.70928 
L 230.802128 118.49184 
L 230.918626 118.49184 
L 230.957662 118.05696 
L 231.434898 118.05696 
L 231.536735 117.40464 
L 231.78385 117.40464 
L 231.78385 117.1872 
L 232.061683 117.1872 
L 232.084501 116.75232 
L 232.23848 116.75232 
L 232.302378 116.1 
L 232.654568 116.1 
L 232.745775 115.66512 
L 232.793238 115.66512 
L 232.826769 115.0128 
L 233.081078 115.0128 
L 233.166317 114.57792 
L 233.208723 114.57792 
L 233.242083 113.9256 
L 233.537672 113.9256 
L 233.59511 113.05584 
L 234.139121 113.05584 
L 234.238157 112.40352 
L 234.322389 112.40352 
L 234.374836 111.7512 
L 234.434325 111.7512 
L 234.434325 111.53376 
L 234.684109 111.53376 
L 234.684109 111.31632 
L 234.901408 111.31632 
L 234.901408 111.09888 
L 235.143204 111.09888 
L 235.224369 110.44656 
L 235.353082 110.44656 
L 235.411886 109.79424 
L 235.557271 109.79424 
L 235.620986 109.35936 
L 235.747594 109.35936 
L 235.747594 109.14192 
L 235.938735 109.14192 
L 235.986324 108.4896 
L 236.093176 108.4896 
L 236.10869 108.05472 
L 236.340337 108.05472 
L 236.340337 107.83728 
L 236.452808 107.83728 
L 236.452808 107.61984 
L 236.565278 107.61984 
L 236.651021 107.18496 
L 237.075674 107.18496 
L 237.158036 106.75008 
L 237.33521 106.75008 
L 237.33521 106.53264 
L 237.528026 106.53264 
L 237.630825 105.88032 
L 237.641902 105.88032 
L 237.743569 105.44544 
L 237.800724 105.44544 
L 237.802128 105.01056 
L 238.007885 105.01056 
L 238.101343 104.57568 
L 238.120359 104.57568 
L 238.120359 104.35824 
L 238.342279 104.35824 
L 238.410302 103.92336 
L 238.488276 103.92336 
L 238.488276 103.70592 
L 238.77025 103.70592 
L 238.77025 103.48848 
L 239.018796 103.48848 
L 239.124049 103.0536 
L 239.1682 103.0536 
L 239.1682 102.83616 
L 239.68994 102.83616 
L 239.781213 102.40128 
L 239.827069 102.40128 
L 239.827069 102.18384 
L 239.988932 102.18384 
L 240.046842 101.74896 
L 240.46458 101.74896 
L 240.550365 101.31408 
L 240.788339 101.31408 
L 240.831096 100.8792 
L 240.915186 100.8792 
L 240.915186 100.66176 
L 241.069483 100.66176 
L 241.069483 100.44432 
L 241.218465 100.44432 
L 241.218465 100.22688 
L 241.420399 100.22688 
L 241.420399 100.00944 
L 241.564347 100.00944 
L 241.594647 99.57456 
L 241.758531 99.57456 
L 241.863166 98.92224 
L 241.953172 98.92224 
L 242.050917 98.26992 
L 242.149382 98.26992 
L 242.192812 97.83504 
L 242.323962 97.83504 
L 242.323962 97.6176 
L 242.440826 97.6176 
L 242.440826 97.40016 
L 242.559027 97.40016 
L 242.662083 96.74784 
L 242.797417 96.74784 
L 242.875956 96.31296 
L 242.92261 96.31296 
L 243.03227 95.66064 
L 243.045335 95.66064 
L 243.045335 95.4432 
L 243.273637 95.4432 
L 243.364562 95.00832 
L 243.474619 95.00832 
L 243.474619 94.79088 
L 243.682892 94.79088 
L 243.682892 94.57344 
L 243.854252 94.57344 
L 243.854252 94.356 
L 244.348536 94.356 
L 244.431733 93.92112 
L 244.505213 93.92112 
L 244.510963 93.48624 
L 244.630718 93.48624 
L 244.630718 93.2688 
L 244.873269 93.2688 
L 244.873269 93.05136 
L 245.220736 93.05136 
L 245.220736 92.83392 
L 245.332774 92.83392 
L 245.332774 92.61648 
L 245.465954 92.61648 
L 245.465954 92.39904 
L 245.670727 92.39904 
L 245.670727 92.1816 
L 245.831093 92.1816 
L 245.903929 91.52928 
L 245.990261 91.52928 
L 245.990261 91.31184 
L 246.108346 91.31184 
L 246.138223 90.65952 
L 246.304118 90.65952 
L 246.304118 90.44208 
L 246.710334 90.44208 
L 246.796374 89.78976 
L 246.871501 89.78976 
L 246.871501 89.57232 
L 247.013217 89.57232 
L 247.043686 89.13744 
L 247.232769 89.13744 
L 247.296143 88.70256 
L 247.503094 88.70256 
L 247.544964 88.26768 
L 247.631417 88.26768 
L 247.733568 87.18048 
L 247.899428 87.18048 
L 247.972295 86.52816 
L 248.118154 86.52816 
L 248.177778 86.09328 
L 248.260197 86.09328 
L 248.280822 85.44096 
L 248.544941 85.44096 
L 248.652255 84.13632 
L 248.792845 84.13632 
L 248.792845 83.91888 
L 248.946969 83.91888 
L 248.990813 83.484 
L 249.129163 83.484 
L 249.129163 83.26656 
L 249.525421 83.26656 
L 249.525421 83.04912 
L 249.661722 83.04912 
L 249.756921 82.17936 
L 249.805498 82.17936 
L 249.805498 81.96192 
L 250.127863 81.96192 
L 250.127863 81.74448 
L 250.357344 81.74448 
L 250.402719 81.3096 
L 250.535728 81.3096 
L 250.535728 81.09216 
L 250.67168 81.09216 
L 250.67168 80.87472 
L 251.044101 80.87472 
L 251.044101 80.65728 
L 251.164945 80.65728 
L 251.265616 80.2224 
L 251.288862 80.2224 
L 251.288862 80.00496 
L 251.632209 80.00496 
L 251.73175 79.57008 
L 251.763669 79.57008 
L 251.790797 79.1352 
L 251.946929 79.1352 
L 251.946929 78.91776 
L 252.176411 78.91776 
L 252.176411 78.70032 
L 252.4916 78.70032 
L 252.576709 78.26544 
L 253.072521 78.26544 
L 253.178933 77.17824 
L 253.553913 77.17824 
L 253.553913 76.9608 
L 253.69047 76.9608 
L 253.724565 76.52592 
L 254.012832 76.52592 
L 254.012832 76.30848 
L 254.226556 76.30848 
L 254.226556 76.09104 
L 254.451167 76.09104 
L 254.486473 75.65616 
L 254.616383 75.65616 
L 254.616383 75.43872 
L 254.799962 75.43872 
L 254.865319 74.7864 
L 255.16645 74.7864 
L 255.212395 74.35152 
L 255.386373 74.35152 
L 255.386373 74.13408 
L 255.686488 74.13408 
L 255.785768 73.48176 
L 255.913857 73.48176 
L 255.963988 73.04688 
L 256.230862 73.04688 
L 256.271697 72.39456 
L 256.367874 72.39456 
L 256.433934 71.95968 
L 256.496175 71.95968 
L 256.560258 71.30736 
L 256.620896 71.30736 
L 256.668253 70.87248 
L 256.738373 70.87248 
L 256.785862 70.4376 
L 256.899397 70.4376 
L 256.899397 70.22016 
L 257.116729 70.22016 
L 257.135956 69.78528 
L 257.350119 69.78528 
L 257.350119 69.56784 
L 257.511095 69.56784 
L 257.511095 69.3504 
L 257.6488 69.3504 
L 257.728827 68.69808 
L 257.768837 68.69808 
L 257.768837 68.48064 
L 258.112312 68.48064 
L 258.216098 68.04576 
L 258.513676 68.04576 
L 258.537927 67.61088 
L 258.755094 67.61088 
L 258.826601 66.95856 
L 258.880318 66.95856 
L 258.880318 66.74112 
L 259.00501 66.74112 
L 259.00501 66.52368 
L 259.147821 66.52368 
L 259.180284 66.0888 
L 259.447687 66.0888 
L 259.452279 65.65392 
L 259.592164 65.65392 
L 259.592164 65.43648 
L 259.733859 65.43648 
L 259.797007 65.0016 
L 259.88921 65.0016 
L 259.90423 64.34928 
L 260.807874 64.34928 
L 260.893105 63.69696 
L 261.107014 63.69696 
L 261.211581 63.04464 
L 261.422256 63.04464 
L 261.529661 62.17488 
L 261.604439 62.17488 
L 261.604439 61.95744 
L 262.119573 61.95744 
L 262.119573 61.74 
L 262.574042 61.74 
L 262.651641 60.87024 
L 262.87312 60.87024 
L 262.87312 60.6528 
L 263.111351 60.6528 
L 263.217507 60.21792 
L 263.257758 60.21792 
L 263.257758 60.00048 
L 263.472725 60.00048 
L 263.472725 59.78304 
L 263.772911 59.78304 
L 263.772911 59.5656 
L 263.965064 59.5656 
L 263.965064 59.34816 
L 264.43662 59.34816 
L 264.53677 58.69584 
L 264.569794 58.69584 
L 264.569794 58.4784 
L 264.727438 58.4784 
L 264.749015 58.04352 
L 264.841089 58.04352 
L 264.841089 57.82608 
L 264.953316 57.82608 
L 264.953316 57.60864 
L 265.341193 57.60864 
L 265.341193 57.3912 
L 265.474608 57.3912 
L 265.474608 57.17376 
L 265.607685 57.17376 
L 265.689618 56.73888 
L 265.851694 56.73888 
L 265.934384 56.304 
L 266.019639 56.304 
L 266.064697 55.86912 
L 266.228701 55.86912 
L 266.278687 55.43424 
L 266.444066 55.43424 
L 266.510636 54.78192 
L 266.66184 54.78192 
L 266.66184 54.56448 
L 266.913734 54.56448 
L 266.913734 54.34704 
L 267.039865 54.34704 
L 267.039865 54.1296 
L 267.215905 54.1296 
L 267.233476 53.69472 
L 267.667209 53.69472 
L 267.667209 53.47728 
L 268.28376 53.47728 
L 268.28376 53.25984 
L 268.654752 53.25984 
L 268.689998 52.60752 
L 269.734193 52.60752 
L 269.734193 52.39008 
L 269.860786 52.39008 
L 269.860786 52.17264 
L 269.985735 52.17264 
L 269.986846 51.73776 
L 271.1636 51.73776 
L 271.246465 51.30288 
L 271.430977 51.30288 
L 271.430977 51.08544 
L 271.8976 51.08544 
L 271.8976 50.868 
L 272.391747 50.868 
L 272.391747 50.65056 
L 273.108093 50.65056 
L 273.108093 50.43312 
L 273.630879 50.43312 
L 273.630879 50.21568 
L 274.24998 50.21568 
L 274.24998 49.99824 
L 274.62897 49.99824 
L 274.62897 49.7808 
L 275.058415 49.7808 
L 275.058415 49.56336 
L 275.251183 49.56336 
L 275.251183 49.34592 
L 275.743295 49.34592 
L 275.743295 49.12848 
L 276.467427 49.12848 
L 276.501946 48.6936 
L 276.685807 48.6936 
L 276.685807 48.47616 
L 277.132114 48.47616 
L 277.132114 48.25872 
L 277.338788 48.25872 
L 277.40935 47.82384 
L 277.485919 47.82384 
L 277.485919 47.6064 
L 278.079655 47.6064 
L 278.168479 47.17152 
L 278.868891 47.17152 
L 278.868891 46.95408 
L 279.199337 46.95408 
L 279.258296 46.5192 
L 279.55069 46.5192 
L 279.55069 46.30176 
L 280.149626 46.30176 
L 280.149626 46.08432 
L 281.201179 46.08432 
L 281.201179 45.86688 
L 281.34353 45.86688 
L 281.41096 45.21456 
L 282.136606 45.21456 
L 282.136606 44.99712 
L 282.415344 44.99712 
L 282.511961 44.56224 
L 282.561847 44.56224 
L 282.561847 44.3448 
L 283.014946 44.3448 
L 283.014946 44.12736 
L 283.363093 44.12736 
L 283.363093 43.90992 
L 285.72179 43.90992 
L 285.72179 43.69248 
L 286.019249 43.69248 
L 286.019249 43.47504 
L 286.528676 43.47504 
L 286.528676 43.2576 
L 286.806122 43.2576 
L 286.806122 43.04016 
L 287.415501 43.04016 
L 287.415501 42.82272 
L 287.702077 42.82272 
L 287.798385 42.38784 
L 287.823242 42.38784 
L 287.823242 42.1704 
L 288.596374 42.1704 
L 288.698796 41.73552 
L 288.839019 41.73552 
L 288.839019 41.51808 
L 289.168476 41.51808 
L 289.168476 41.30064 
L 289.515497 41.30064 
L 289.515497 41.0832 
L 289.915936 41.0832 
L 289.915936 40.86576 
L 290.135351 40.86576 
L 290.135351 40.64832 
L 290.348542 40.64832 
L 290.348542 40.43088 
L 291.874818 40.43088 
L 291.874818 40.21344 
L 292.368158 40.21344 
L 292.472518 39.77856 
L 293.346601 39.77856 
L 293.346601 39.56112 
L 293.50662 39.56112 
L 293.50662 39.34368 
L 293.644934 39.34368 
L 293.644934 39.12624 
L 293.787697 39.12624 
L 293.787697 38.9088 
L 294.561155 38.9088 
L 294.561155 38.69136 
L 294.79727 38.69136 
L 294.79727 38.47392 
L 296.071772 38.47392 
L 296.071772 38.25648 
L 296.332818 38.25648 
L 296.332818 38.03904 
L 300.45011 38.03904 
L 300.45011 37.8216 
L 300.692126 37.8216 
L 300.692126 37.60416 
L 302.015478 37.60416 
L 302.015478 37.38672 
L 302.648128 37.38672 
L 302.648128 37.16928 
L 302.827201 37.16928 
L 302.88708 36.7344 
L 303.862492 36.7344 
L 303.931659 36.29952 
L 308.123598 36.29952 
L 308.123598 36.08208 
L 311.195522 36.08208 
L 311.195522 35.86464 
L 312.033594 35.86464 
L 312.033594 35.6472 
L 312.838965 35.6472 
L 312.838965 35.42976 
L 319.221606 35.42976 
L 319.221606 35.21232 
L 323.462156 35.21232 
L 323.462156 34.99488 
L 325.413137 34.99488 
L 325.413137 34.77744 
L 332.632469 34.77744 
L 332.632469 34.56 
L 332.632469 34.56 
" style="fill:none;stroke:#dd8452;stroke-linecap:round;stroke-width:1.5;"/>
   </g>
   <g id="patch_3">
    <path d="M 54 252 
L 54 34.56 
" style="fill:none;stroke:#ffffff;stroke-linecap:square;stroke-linejoin:miter;stroke-width:1.25;"/>
   </g>
   <g id="patch_4">
    <path d="M 388.8 252 
L 388.8 34.56 
" style="fill:none;stroke:#ffffff;stroke-linecap:square;stroke-linejoin:miter;stroke-width:1.25;"/>
   </g>
   <g id="patch_5">
    <path d="M 54 252 
L 388.8 252 
" style="fill:none;stroke:#ffffff;stroke-linecap:square;stroke-linejoin:miter;stroke-width:1.25;"/>
   </g>
   <g id="patch_6">
    <path d="M 54 34.56 
L 388.8 34.56 
" style="fill:none;stroke:#ffffff;stroke-linecap:square;stroke-linejoin:miter;stroke-width:1.25;"/>
   </g>
   <g id="legend_1">
    <g id="patch_7">
     <path d="M 64.78 90.63525 
L 210.764781 90.63525 
Q 213.844781 90.63525 213.844781 87.55525 
L 213.844781 45.34 
Q 213.844781 42.26 210.764781 42.26 
L 64.78 42.26 
Q 61.7 42.26 61.7 45.34 
L 61.7 87.55525 
Q 61.7 90.63525 64.78 90.63525 
z
" style="fill:#eaeaf2;opacity:0.8;stroke:#cccccc;stroke-linejoin:miter;"/>
    </g>
    <g id="line2d_14">
     <path d="M 67.86 54.240719 
L 98.66 54.240719 
" style="fill:none;stroke:#4c72b0;stroke-linecap:round;stroke-width:1.5;"/>
    </g>
    <g id="line2d_15"/>
    <g id="text_13">
     <!-- Prior Samples -->
     <g style="fill:#262626;" transform="translate(110.98 59.630719)scale(0.154 -0.154)">
      <defs>
       <path id="ArialMT-20" transform="scale(0.015625)"/>
       <path d="M 288 1472 
L 859 1522 
Q 900 1178 1048 958 
Q 1197 738 1509 602 
Q 1822 466 2213 466 
Q 2559 466 2825 569 
Q 3091 672 3220 851 
Q 3350 1031 3350 1244 
Q 3350 1459 3225 1620 
Q 3100 1781 2813 1891 
Q 2628 1963 1997 2114 
Q 1366 2266 1113 2400 
Q 784 2572 623 2826 
Q 463 3081 463 3397 
Q 463 3744 659 4045 
Q 856 4347 1234 4503 
Q 1613 4659 2075 4659 
Q 2584 4659 2973 4495 
Q 3363 4331 3572 4012 
Q 3781 3694 3797 3291 
L 3216 3247 
Q 3169 3681 2898 3903 
Q 2628 4125 2100 4125 
Q 1550 4125 1298 3923 
Q 1047 3722 1047 3438 
Q 1047 3191 1225 3031 
Q 1400 2872 2139 2705 
Q 2878 2538 3153 2413 
Q 3553 2228 3743 1945 
Q 3934 1663 3934 1294 
Q 3934 928 3725 604 
Q 3516 281 3123 101 
Q 2731 -78 2241 -78 
Q 1619 -78 1198 103 
Q 778 284 539 648 
Q 300 1013 288 1472 
z
" id="ArialMT-53" transform="scale(0.015625)"/>
       <path d="M 2588 409 
Q 2275 144 1986 34 
Q 1697 -75 1366 -75 
Q 819 -75 525 192 
Q 231 459 231 875 
Q 231 1119 342 1320 
Q 453 1522 633 1644 
Q 813 1766 1038 1828 
Q 1203 1872 1538 1913 
Q 2219 1994 2541 2106 
Q 2544 2222 2544 2253 
Q 2544 2597 2384 2738 
Q 2169 2928 1744 2928 
Q 1347 2928 1158 2789 
Q 969 2650 878 2297 
L 328 2372 
Q 403 2725 575 2942 
Q 747 3159 1072 3276 
Q 1397 3394 1825 3394 
Q 2250 3394 2515 3294 
Q 2781 3194 2906 3042 
Q 3031 2891 3081 2659 
Q 3109 2516 3109 2141 
L 3109 1391 
Q 3109 606 3145 398 
Q 3181 191 3288 0 
L 2700 0 
Q 2613 175 2588 409 
z
M 2541 1666 
Q 2234 1541 1622 1453 
Q 1275 1403 1131 1340 
Q 988 1278 909 1158 
Q 831 1038 831 891 
Q 831 666 1001 516 
Q 1172 366 1500 366 
Q 1825 366 2078 508 
Q 2331 650 2450 897 
Q 2541 1088 2541 1459 
L 2541 1666 
z
" id="ArialMT-61" transform="scale(0.015625)"/>
       <path d="M 422 0 
L 422 3319 
L 925 3319 
L 925 2853 
Q 1081 3097 1340 3245 
Q 1600 3394 1931 3394 
Q 2300 3394 2536 3241 
Q 2772 3088 2869 2813 
Q 3263 3394 3894 3394 
Q 4388 3394 4653 3120 
Q 4919 2847 4919 2278 
L 4919 0 
L 4359 0 
L 4359 2091 
Q 4359 2428 4304 2576 
Q 4250 2725 4106 2815 
Q 3963 2906 3769 2906 
Q 3419 2906 3187 2673 
Q 2956 2441 2956 1928 
L 2956 0 
L 2394 0 
L 2394 2156 
Q 2394 2531 2256 2718 
Q 2119 2906 1806 2906 
Q 1569 2906 1367 2781 
Q 1166 2656 1075 2415 
Q 984 2175 984 1722 
L 984 0 
L 422 0 
z
" id="ArialMT-6d" transform="scale(0.015625)"/>
       <path d="M 409 0 
L 409 4581 
L 972 4581 
L 972 0 
L 409 0 
z
" id="ArialMT-6c" transform="scale(0.015625)"/>
       <path d="M 2694 1069 
L 3275 997 
Q 3138 488 2766 206 
Q 2394 -75 1816 -75 
Q 1088 -75 661 373 
Q 234 822 234 1631 
Q 234 2469 665 2931 
Q 1097 3394 1784 3394 
Q 2450 3394 2872 2941 
Q 3294 2488 3294 1666 
Q 3294 1616 3291 1516 
L 816 1516 
Q 847 969 1125 678 
Q 1403 388 1819 388 
Q 2128 388 2347 550 
Q 2566 713 2694 1069 
z
M 847 1978 
L 2700 1978 
Q 2663 2397 2488 2606 
Q 2219 2931 1791 2931 
Q 1403 2931 1139 2672 
Q 875 2413 847 1978 
z
" id="ArialMT-65" transform="scale(0.015625)"/>
       <path d="M 197 991 
L 753 1078 
Q 800 744 1014 566 
Q 1228 388 1613 388 
Q 2000 388 2187 545 
Q 2375 703 2375 916 
Q 2375 1106 2209 1216 
Q 2094 1291 1634 1406 
Q 1016 1563 777 1677 
Q 538 1791 414 1992 
Q 291 2194 291 2438 
Q 291 2659 392 2848 
Q 494 3038 669 3163 
Q 800 3259 1026 3326 
Q 1253 3394 1513 3394 
Q 1903 3394 2198 3281 
Q 2494 3169 2634 2976 
Q 2775 2784 2828 2463 
L 2278 2388 
Q 2241 2644 2061 2787 
Q 1881 2931 1553 2931 
Q 1166 2931 1000 2803 
Q 834 2675 834 2503 
Q 834 2394 903 2306 
Q 972 2216 1119 2156 
Q 1203 2125 1616 2013 
Q 2213 1853 2448 1751 
Q 2684 1650 2818 1456 
Q 2953 1263 2953 975 
Q 2953 694 2789 445 
Q 2625 197 2315 61 
Q 2006 -75 1616 -75 
Q 969 -75 630 194 
Q 291 463 197 991 
z
" id="ArialMT-73" transform="scale(0.015625)"/>
      </defs>
      <use xlink:href="#ArialMT-50"/>
      <use x="66.699219" xlink:href="#ArialMT-72"/>
      <use x="100" xlink:href="#ArialMT-69"/>
      <use x="122.216797" xlink:href="#ArialMT-6f"/>
      <use x="177.832031" xlink:href="#ArialMT-72"/>
      <use x="211.132812" xlink:href="#ArialMT-20"/>
      <use x="238.916016" xlink:href="#ArialMT-53"/>
      <use x="305.615234" xlink:href="#ArialMT-61"/>
      <use x="361.230469" xlink:href="#ArialMT-6d"/>
      <use x="444.53125" xlink:href="#ArialMT-70"/>
      <use x="500.146484" xlink:href="#ArialMT-6c"/>
      <use x="522.363281" xlink:href="#ArialMT-65"/>
      <use x="577.978516" xlink:href="#ArialMT-73"/>
     </g>
    </g>
    <g id="line2d_16">
     <path d="M 67.86 76.0245 
L 98.66 76.0245 
" style="fill:none;stroke:#dd8452;stroke-linecap:round;stroke-width:1.5;"/>
    </g>
    <g id="line2d_17"/>
    <g id="text_14">
     <!-- Data -->
     <g style="fill:#262626;" transform="translate(110.98 81.4145)scale(0.154 -0.154)">
      <defs>
       <path d="M 494 0 
L 494 4581 
L 2072 4581 
Q 2606 4581 2888 4516 
Q 3281 4425 3559 4188 
Q 3922 3881 4101 3404 
Q 4281 2928 4281 2316 
Q 4281 1794 4159 1391 
Q 4038 988 3847 723 
Q 3656 459 3429 307 
Q 3203 156 2883 78 
Q 2563 0 2147 0 
L 494 0 
z
M 1100 541 
L 2078 541 
Q 2531 541 2789 625 
Q 3047 709 3200 863 
Q 3416 1078 3536 1442 
Q 3656 1806 3656 2325 
Q 3656 3044 3420 3430 
Q 3184 3816 2847 3947 
Q 2603 4041 2063 4041 
L 1100 4041 
L 1100 541 
z
" id="ArialMT-44" transform="scale(0.015625)"/>
      </defs>
      <use xlink:href="#ArialMT-44"/>
      <use x="72.216797" xlink:href="#ArialMT-61"/>
      <use x="127.832031" xlink:href="#ArialMT-74"/>
      <use x="155.615234" xlink:href="#ArialMT-61"/>
     </g>
    </g>
   </g>
  </g>
 </g>
 <defs>
  <clipPath id="p8ad3b2de65">
   <rect height="217.44" width="334.8" x="54" y="34.56"/>
  </clipPath>
 </defs>
</svg>
