<svg width="452" height="264" xmlns="http://www.w3.org/2000/svg" xmlns:xlink="http://www.w3.org/1999/xlink" xml:space="preserve" overflow="hidden"><defs><clipPath id="clip0"><rect x="0" y="0" width="452" height="264"/></clipPath><clipPath id="clip1"><rect x="0" y="0" width="451" height="264"/></clipPath></defs><g clip-path="url(#clip0)"><g clip-path="url(#clip1)"><path d="M0.490929-1.7502e-07 0.490978 138.681-0.49088 138.681-0.490929 1.7502e-07ZM3.27292 138.026 5.1541e-05 144.572-3.27281 138.026Z" fill="#000000" fill-rule="nonzero" fill-opacity="1" transform="matrix(1 0 0 -1.00079 99.9858 168.105)"/><path d="M0.367702-0.325277 69.7057 78.0567 68.9703 78.7074-0.367702 0.325277ZM71.3555 75.7232 73.2413 82.7945 66.4528 80.0604Z" fill="#000000" fill-rule="nonzero" fill-opacity="1" transform="matrix(-1 0 0 1.00079 100.242 167.211)"/><path d="M148.424 207.172 299.843 207.172 299.843 208.154 148.424 208.154ZM299.188 204.39 305.733 207.663 299.188 210.936Z" fill="#000000" fill-rule="nonzero" fill-opacity="1" transform="matrix(1 0 0 1.00079 -47.7837 -39.9603)"/><path d="M0 0 114.638 29.9333" stroke="#000000" stroke-width="0.327286" stroke-linecap="butt" stroke-linejoin="miter" stroke-miterlimit="8" stroke-opacity="1" fill="none" fill-rule="evenodd" transform="matrix(1 0 0 -1.00079 37.8015 72.3737)"/><path d="M85.5853 112.095 179.207 261.125" stroke="#000000" stroke-width="0.327286" stroke-linecap="butt" stroke-linejoin="miter" stroke-miterlimit="8" stroke-opacity="1" fill="none" fill-rule="evenodd" transform="matrix(1 0 0 1.00079 -47.7837 -39.9603)"/><path d="M200.135 82.967 306.494 225.628" stroke="#000000" stroke-width="0.327286" stroke-linecap="butt" stroke-linejoin="miter" stroke-miterlimit="8" stroke-opacity="1" fill="none" fill-rule="evenodd" transform="matrix(1 0 0 1.00079 -47.7837 -39.9603)"/><path d="M0 0 127.376 35.6653" stroke="#000000" stroke-width="0.327286" stroke-linecap="butt" stroke-linejoin="miter" stroke-miterlimit="8" stroke-opacity="1" fill="none" fill-rule="evenodd" transform="matrix(1 0 0 -1.00079 131.405 221.574)"/><path d="M227.136 100.64C227.136 98.7425 228.675 97.2039 230.573 97.2039 232.471 97.2039 234.009 98.7425 234.009 100.64 234.009 102.538 232.471 104.077 230.573 104.077 228.675 104.077 227.136 102.538 227.136 100.64Z" stroke="#405C99" stroke-width="0.654572" stroke-linecap="butt" stroke-linejoin="miter" stroke-miterlimit="8" stroke-opacity="1" fill="#000000" fill-rule="evenodd" fill-opacity="1" transform="matrix(1 0 0 1.00079 -47.7837 -39.9603)"/><path d="M0 0 27.0674 24.4562" stroke="#000000" stroke-width="0.490929" stroke-linecap="butt" stroke-linejoin="miter" stroke-miterlimit="8" stroke-dasharray="3.92743 1.47279" stroke-opacity="1" fill="none" fill-rule="evenodd" transform="matrix(-1 0 0 1.00079 179.255 62.8883)"/><text fill="#5A80D1" fill-opacity="1" font-family="Cambria Math,Cambria Math_MSFontService,sans-serif" font-style="normal" font-variant="normal" font-weight="400" font-stretch="normal" font-size="36" text-anchor="start" direction="ltr" writing-mode="lr-tb" unicode-bidi="normal" text-decoration="none" transform="matrix(0.327286 0 0 0.327543 174.864 107)">âˆ†ğ‘‘<tspan fill="#5A80D1" fill-opacity="1" font-family="Cambria Math,Cambria Math_MSFontService,sans-serif" font-style="normal" font-variant="normal" font-weight="400" font-stretch="normal" font-size="26" text-anchor="start" direction="ltr" writing-mode="lr-tb" unicode-bidi="normal" text-decoration="none" x="42.25" y="9.15909">ğ‘–</tspan></text><path d="M239.273 107.81C240.662 109.316 241.584 110.725 241.332 110.956L226.043 125.046C225.792 125.278 226.714 126.686 228.103 128.193 226.714 126.686 225.385 125.653 225.134 125.884L209.845 139.974C209.594 140.206 208.265 139.172 206.877 137.666" stroke="#5A80D1" stroke-width="0.981858" stroke-linecap="butt" stroke-linejoin="miter" stroke-miterlimit="8" stroke-opacity="1" fill="none" fill-rule="evenodd" transform="matrix(1 0 0 1.00079 -47.7837 -39.9603)"/><path d="M323.217 254.487 319.948 254.405 316.701 254.164 313.506 253.777 310.387 253.253 307.37 252.602 304.481 251.835 301.745 250.964 299.186 249.997 296.832 248.944 294.706 247.818 292.833 246.626 291.24 245.378 289.951 244.083 288.992 242.748 288.394 241.381 288.19 240.018 287.99 238.676 288.002 238.717 287.419 237.386 287.436 237.416 286.495 236.106 286.512 236.126 285.24 234.847 285.255 234.861 283.675 233.624 283.688 233.633 281.829 232.449 281.84 232.455 279.724 231.334 279.734 231.339 277.389 230.291 277.398 230.295 274.848 229.331 274.856 229.334 272.128 228.465 272.136 228.467 269.254 227.702 269.261 227.704 266.252 227.055 266.259 227.057 263.148 226.534 263.155 226.535 259.967 226.148 259.976 226.149 256.743 225.936 256.765 225.61 260.002 225.822 263.198 226.21 266.317 226.734 269.334 227.385 272.223 228.151 274.96 229.023 277.518 229.99 279.873 231.042 281.999 232.169 283.871 233.361 285.464 234.609 286.754 235.904 287.712 237.239 288.311 238.606 288.514 239.969 288.714 241.311 288.702 241.27 289.285 242.601 289.268 242.571 290.209 243.881 290.192 243.861 291.465 245.14 291.45 245.126 293.029 246.363 293.016 246.354 294.876 247.538 294.865 247.532 296.98 248.653 296.97 248.648 299.316 249.696 299.307 249.692 301.856 250.656 301.848 250.653 304.577 251.523 304.569 251.52 307.45 252.285 307.443 252.283 310.452 252.932 310.445 252.93 313.557 253.453 313.549 253.452 316.737 253.839 316.73 253.838 319.969 254.078 319.961 254.078 323.226 254.16ZM257.343 227.757 253.483 225.664 257.474 223.832Z" fill="#5A80D1" fill-rule="nonzero" fill-opacity="1" transform="matrix(1 0 0 1.00079 -47.7837 -39.9603)"/><text fill="#000000" fill-opacity="1" font-family="Cambria Math,Cambria Math_MSFontService,sans-serif" font-style="normal" font-variant="normal" font-weight="400" font-stretch="normal" font-size="56" text-anchor="start" direction="ltr" writing-mode="lr-tb" unicode-bidi="normal" text-decoration="none" transform="matrix(0.327286 0 0 0.327543 4.79114 256)">ğ‘¥<tspan fill="#000000" fill-opacity="1" font-family="Cambria Math,Cambria Math_MSFontService,sans-serif" font-style="normal" font-variant="normal" font-weight="400" font-stretch="normal" font-size="40" text-anchor="start" direction="ltr" writing-mode="lr-tb" unicode-bidi="normal" text-decoration="none" x="27.91" y="12.2121">1</tspan><tspan fill="#000000" fill-opacity="1" font-family="Cambria Math,Cambria Math_MSFontService,sans-serif" font-style="normal" font-variant="normal" font-weight="400" font-stretch="normal" font-size="56" text-anchor="start" direction="ltr" writing-mode="lr-tb" unicode-bidi="normal" text-decoration="none" x="265.596" y="-729.674">ğ‘¦</tspan><tspan fill="#000000" fill-opacity="1" font-family="Cambria Math,Cambria Math_MSFontService,sans-serif" font-style="normal" font-variant="normal" font-weight="400" font-stretch="normal" font-size="56" text-anchor="start" direction="ltr" writing-mode="lr-tb" unicode-bidi="normal" text-decoration="none" x="781.971" y="-253.402">ğ‘¥</tspan><tspan fill="#000000" fill-opacity="1" font-family="Cambria Math,Cambria Math_MSFontService,sans-serif" font-style="normal" font-variant="normal" font-weight="400" font-stretch="normal" font-size="40" text-anchor="start" direction="ltr" writing-mode="lr-tb" unicode-bidi="normal" text-decoration="none" x="811.171" y="-241.189">2</tspan><tspan fill="#000000" fill-opacity="1" font-family="Cambria Math,Cambria Math_MSFontService,sans-serif" font-style="normal" font-variant="normal" font-weight="400" font-stretch="normal" font-size="40" text-anchor="start" direction="ltr" writing-mode="lr-tb" unicode-bidi="normal" text-decoration="none" x="850.416" y="-112.962">ğ‘¦</tspan><tspan fill="#000000" fill-opacity="1" font-family="Cambria Math,Cambria Math_MSFontService,sans-serif" font-style="normal" font-variant="normal" font-weight="400" font-stretch="normal" font-size="40" text-anchor="start" direction="ltr" writing-mode="lr-tb" unicode-bidi="normal" text-decoration="none" x="884.706" y="-112.962">=</tspan><tspan fill="#000000" fill-opacity="1" font-family="Cambria Math,Cambria Math_MSFontService,sans-serif" font-style="normal" font-variant="normal" font-weight="400" font-stretch="normal" font-size="40" text-anchor="start" direction="ltr" writing-mode="lr-tb" unicode-bidi="normal" text-decoration="none" x="920.256" y="-112.962"> </tspan><tspan fill="#000000" fill-opacity="1" font-family="Cambria Math,Cambria Math_MSFontService,sans-serif" font-style="normal" font-variant="normal" font-weight="400" font-stretch="normal" font-size="40" text-anchor="start" direction="ltr" writing-mode="lr-tb" unicode-bidi="normal" text-decoration="none" x="934.566" y="-112.962">ğ›½</tspan><tspan fill="#000000" fill-opacity="1" font-family="Cambria Math,Cambria Math_MSFontService,sans-serif" font-style="normal" font-variant="normal" font-weight="400" font-stretch="normal" font-size="30" text-anchor="start" direction="ltr" writing-mode="lr-tb" unicode-bidi="normal" text-decoration="none" x="956.276" y="-103.803">0</tspan><tspan fill="#000000" fill-opacity="1" font-family="Cambria Math,Cambria Math_MSFontService,sans-serif" font-style="normal" font-variant="normal" font-weight="400" font-stretch="normal" font-size="40" text-anchor="start" direction="ltr" writing-mode="lr-tb" unicode-bidi="normal" text-decoration="none" x="983.826" y="-112.962">+</tspan><tspan fill="#000000" fill-opacity="1" font-family="Cambria Math,Cambria Math_MSFontService,sans-serif" font-style="normal" font-variant="normal" font-weight="400" font-stretch="normal" font-size="40" text-anchor="start" direction="ltr" writing-mode="lr-tb" unicode-bidi="normal" text-decoration="none" x="1022.72" y="-112.962">ğ›½</tspan><tspan fill="#000000" fill-opacity="1" font-family="Cambria Math,Cambria Math_MSFontService,sans-serif" font-style="normal" font-variant="normal" font-weight="400" font-stretch="normal" font-size="30" text-anchor="start" direction="ltr" writing-mode="lr-tb" unicode-bidi="normal" text-decoration="none" x="1043.5" y="-103.803">1</tspan><tspan fill="#000000" fill-opacity="1" font-family="Cambria Math,Cambria Math_MSFontService,sans-serif" font-style="normal" font-variant="normal" font-weight="400" font-stretch="normal" font-size="40" text-anchor="start" direction="ltr" writing-mode="lr-tb" unicode-bidi="normal" text-decoration="none" x="1062.16" y="-112.962">ğ‘¥</tspan><tspan fill="#000000" fill-opacity="1" font-family="Cambria Math,Cambria Math_MSFontService,sans-serif" font-style="normal" font-variant="normal" font-weight="400" font-stretch="normal" font-size="30" text-anchor="start" direction="ltr" writing-mode="lr-tb" unicode-bidi="normal" text-decoration="none" x="1082.09" y="-103.803">1</tspan><tspan fill="#000000" fill-opacity="1" font-family="Cambria Math,Cambria Math_MSFontService,sans-serif" font-style="normal" font-variant="normal" font-weight="400" font-stretch="normal" font-size="40" text-anchor="start" direction="ltr" writing-mode="lr-tb" unicode-bidi="normal" text-decoration="none" x="1109.64" y="-112.962">+</tspan><tspan fill="#000000" fill-opacity="1" font-family="Cambria Math,Cambria Math_MSFontService,sans-serif" font-style="normal" font-variant="normal" font-weight="400" font-stretch="normal" font-size="40" text-anchor="start" direction="ltr" writing-mode="lr-tb" unicode-bidi="normal" text-decoration="none" x="1148.53" y="-112.962">ğ›½</tspan><tspan fill="#000000" fill-opacity="1" font-family="Cambria Math,Cambria Math_MSFontService,sans-serif" font-style="normal" font-variant="normal" font-weight="400" font-stretch="normal" font-size="30" text-anchor="start" direction="ltr" writing-mode="lr-tb" unicode-bidi="normal" text-decoration="none" x="1170.24" y="-103.803">2</tspan><tspan fill="#000000" fill-opacity="1" font-family="Cambria Math,Cambria Math_MSFontService,sans-serif" font-style="normal" font-variant="normal" font-weight="400" font-stretch="normal" font-size="40" text-anchor="start" direction="ltr" writing-mode="lr-tb" unicode-bidi="normal" text-decoration="none" x="1188.9" y="-112.962">ğ‘¥</tspan><tspan fill="#000000" fill-opacity="1" font-family="Cambria Math,Cambria Math_MSFontService,sans-serif" font-style="normal" font-variant="normal" font-weight="400" font-stretch="normal" font-size="30" text-anchor="start" direction="ltr" writing-mode="lr-tb" unicode-bidi="normal" text-decoration="none" x="1209.76" y="-103.803">2</tspan><tspan fill="#5A80D1" fill-opacity="1" font-family="Cambria Math,Cambria Math_MSFontService,sans-serif" font-style="normal" font-variant="normal" font-weight="400" font-stretch="normal" font-size="36" text-anchor="start" direction="ltr" writing-mode="lr-tb" unicode-bidi="normal" text-decoration="none" x="673.959" y="-522.068">Minimize</tspan></text><path d="M2.68668-13.8592 9.55011-4.53916 9.55011-3.84306 2.14014 6.21333 12.1217 6.21333C12.5628 6.21333 12.9003 6.058 13.1343 5.7473 13.3682 5.43664 13.5696 4.74244 13.7383 3.66472L14.5898 3.66472 14.2964 7.8817 0.14958 7.8817 0.14958 7.31216 8.20964-3.61294 0.385454-14.0663 0.385454-14.6128 14.2791-14.6128 14.2791-11.207 13.5197-11.207C13.4315-12.0239 13.2531-12.6702 12.9847-13.1458 12.7162-13.6213 12.3096-13.8592 11.765-13.8592Z" fill="#5A80D1" fill-rule="nonzero" fill-opacity="1" transform="matrix(1 0 0 1.00079 276.752 85.4888)"/><text fill="#5A80D1" fill-opacity="1" font-family="Cambria Math,Cambria Math_MSFontService,sans-serif" font-style="normal" font-variant="normal" font-weight="400" font-stretch="normal" font-size="36" text-anchor="start" direction="ltr" writing-mode="lr-tb" unicode-bidi="normal" text-decoration="none" transform="matrix(0.327286 0 0 0.327543 294.335 85)">âˆ†ğ‘‘<tspan fill="#5A80D1" fill-opacity="1" font-family="Cambria Math,Cambria Math_MSFontService,sans-serif" font-style="normal" font-variant="normal" font-weight="400" font-stretch="normal" font-size="26" text-anchor="start" direction="ltr" writing-mode="lr-tb" unicode-bidi="normal" text-decoration="none" x="42.25" y="9.15909">ğ‘–</tspan><tspan fill="#5A80D1" fill-opacity="1" font-family="Cambria Math,Cambria Math_MSFontService,sans-serif" font-style="normal" font-variant="normal" font-weight="400" font-stretch="normal" font-size="26" text-anchor="start" direction="ltr" writing-mode="lr-tb" unicode-bidi="normal" text-decoration="none" x="53.8899" y="-15.2652">2</tspan><tspan fill="#5A80D1" fill-opacity="1" font-family="Cambria Math,Cambria Math_MSFontService,sans-serif" font-style="normal" font-variant="normal" font-weight="400" font-stretch="normal" font-size="26" text-anchor="start" direction="ltr" writing-mode="lr-tb" unicode-bidi="normal" text-decoration="none" x="-34.9401" y="48.8485">ğ‘–</tspan><tspan fill="#5A80D1" fill-opacity="1" font-family="Cambria Math,Cambria Math_MSFontService,sans-serif" font-style="normal" font-variant="normal" font-weight="400" font-stretch="normal" font-size="36" text-anchor="start" direction="ltr" writing-mode="lr-tb" unicode-bidi="normal" text-decoration="none" x="106.995" y="6.10606">to obtain </tspan><tspan fill="#5A80D1" fill-opacity="1" font-family="Cambria Math,Cambria Math_MSFontService,sans-serif" font-style="normal" font-variant="normal" font-weight="400" font-stretch="normal" font-size="36" text-anchor="start" direction="ltr" writing-mode="lr-tb" unicode-bidi="normal" text-decoration="none" x="252.425" y="6.10606">ğ›½</tspan><tspan fill="#5A80D1" fill-opacity="1" font-family="Cambria Math,Cambria Math_MSFontService,sans-serif" font-style="normal" font-variant="normal" font-weight="400" font-stretch="normal" font-size="26" text-anchor="start" direction="ltr" writing-mode="lr-tb" unicode-bidi="normal" text-decoration="none" x="271.885" y="12.2121">0</tspan><tspan fill="#5A80D1" fill-opacity="1" font-family="Cambria Math,Cambria Math_MSFontService,sans-serif" font-style="normal" font-variant="normal" font-weight="400" font-stretch="normal" font-size="36" text-anchor="start" direction="ltr" writing-mode="lr-tb" unicode-bidi="normal" text-decoration="none" x="288.625" y="6.10606">,</tspan><tspan fill="#5A80D1" fill-opacity="1" font-family="Cambria Math,Cambria Math_MSFontService,sans-serif" font-style="normal" font-variant="normal" font-weight="400" font-stretch="normal" font-size="36" text-anchor="start" direction="ltr" writing-mode="lr-tb" unicode-bidi="normal" text-decoration="none" x="302.125" y="6.10606">ğ›½</tspan><tspan fill="#5A80D1" fill-opacity="1" font-family="Cambria Math,Cambria Math_MSFontService,sans-serif" font-style="normal" font-variant="normal" font-weight="400" font-stretch="normal" font-size="26" text-anchor="start" direction="ltr" writing-mode="lr-tb" unicode-bidi="normal" text-decoration="none" x="320.755" y="12.2121">1</tspan><tspan fill="#5A80D1" fill-opacity="1" font-family="Cambria Math,Cambria Math_MSFontService,sans-serif" font-style="normal" font-variant="normal" font-weight="400" font-stretch="normal" font-size="36" text-anchor="start" direction="ltr" writing-mode="lr-tb" unicode-bidi="normal" text-decoration="none" x="337.495" y="6.10606">,</tspan><tspan fill="#5A80D1" fill-opacity="1" font-family="Cambria Math,Cambria Math_MSFontService,sans-serif" font-style="normal" font-variant="normal" font-weight="400" font-stretch="normal" font-size="36" text-anchor="start" direction="ltr" writing-mode="lr-tb" unicode-bidi="normal" text-decoration="none" x="350.995" y="6.10606">and</tspan><tspan fill="#5A80D1" fill-opacity="1" font-family="Cambria Math,Cambria Math_MSFontService,sans-serif" font-style="normal" font-variant="normal" font-weight="400" font-stretch="normal" font-size="36" text-anchor="start" direction="ltr" writing-mode="lr-tb" unicode-bidi="normal" text-decoration="none" x="408.995" y="6.10606"> ğ›½</tspan><tspan fill="#5A80D1" fill-opacity="1" font-family="Cambria Math,Cambria Math_MSFontService,sans-serif" font-style="normal" font-variant="normal" font-weight="400" font-stretch="normal" font-size="26" text-anchor="start" direction="ltr" writing-mode="lr-tb" unicode-bidi="normal" text-decoration="none" x="435.955" y="12.2121">2</tspan><tspan fill="#5A80D1" fill-opacity="1" font-family="Cambria Math,Cambria Math_MSFontService,sans-serif" font-style="normal" font-variant="normal" font-weight="400" font-stretch="normal" font-size="36" text-anchor="start" direction="ltr" writing-mode="lr-tb" unicode-bidi="normal" text-decoration="none" x="452.695" y="6.10606">.</tspan><tspan fill="#000000" fill-opacity="1" font-family="Calibri,Calibri_MSFontService,sans-serif" font-style="normal" font-variant="normal" font-weight="400" font-stretch="normal" font-size="36" text-anchor="start" direction="ltr" writing-mode="lr-tb" unicode-bidi="normal" text-decoration="none" x="-43.2658" y="-73.2727">Orthogonal regression</tspan></text></g></g></svg>