<?xml version="1.0" encoding="utf-8" standalone="no"?>
<!DOCTYPE svg PUBLIC "-//W3C//DTD SVG 1.1//EN"
  "http://www.w3.org/Graphics/SVG/1.1/DTD/svg11.dtd">
<svg height="288pt" version="1.1" viewBox="0 0 432 288" width="432pt" xmlns="http://www.w3.org/2000/svg" xmlns:xlink="http://www.w3.org/1999/xlink">
 <metadata>
  <rdf:RDF xmlns:cc="http://creativecommons.org/ns#" xmlns:dc="http://purl.org/dc/elements/1.1/" xmlns:rdf="http://www.w3.org/1999/02/22-rdf-syntax-ns#">
   <cc:Work>
    <dc:type rdf:resource="http://purl.org/dc/dcmitype/StillImage"/>
    <dc:date>2022-04-26T21:36:57.933931</dc:date>
    <dc:format>image/svg+xml</dc:format>
    <dc:creator>
     <cc:Agent>
      <dc:title>Matplotlib v3.4.3, https://matplotlib.org/</dc:title>
     </cc:Agent>
    </dc:creator>
   </cc:Work>
  </rdf:RDF>
 </metadata>
 <defs>
  <style type="text/css">*{stroke-linecap:butt;stroke-linejoin:round;}</style>
 </defs>
 <g id="figure_1">
  <g id="patch_1">
   <path d="M 0 288 
L 432 288 
L 432 0 
L 0 0 
z
" style="fill:#ffffff;"/>
  </g>
  <g id="axes_1">
   <g id="patch_2">
    <path d="M 54 252 
L 388.8 252 
L 388.8 34.56 
L 54 34.56 
z
" style="fill:#eaeaf2;"/>
   </g>
   <g id="matplotlib.axis_1">
    <g id="xtick_1">
     <g id="line2d_1">
      <path clip-path="url(#p34ce7bc3bd)" d="M 99.654545 252 
L 99.654545 34.56 
" style="fill:none;stroke:#ffffff;stroke-linecap:round;"/>
     </g>
     <g id="text_1">
      <!-- −40 -->
      <g style="fill:#262626;" transform="translate(86.59342 272.523031)scale(0.154 -0.154)">
       <defs>
        <path d="M 3381 1997 
L 356 1997 
L 356 2522 
L 3381 2522 
L 3381 1997 
z
" id="ArialMT-2212" transform="scale(0.015625)"/>
        <path d="M 2069 0 
L 2069 1097 
L 81 1097 
L 81 1613 
L 2172 4581 
L 2631 4581 
L 2631 1613 
L 3250 1613 
L 3250 1097 
L 2631 1097 
L 2631 0 
L 2069 0 
z
M 2069 1613 
L 2069 3678 
L 634 1613 
L 2069 1613 
z
" id="ArialMT-34" transform="scale(0.015625)"/>
        <path d="M 266 2259 
Q 266 3072 433 3567 
Q 600 4063 929 4331 
Q 1259 4600 1759 4600 
Q 2128 4600 2406 4451 
Q 2684 4303 2865 4023 
Q 3047 3744 3150 3342 
Q 3253 2941 3253 2259 
Q 3253 1453 3087 958 
Q 2922 463 2592 192 
Q 2263 -78 1759 -78 
Q 1097 -78 719 397 
Q 266 969 266 2259 
z
M 844 2259 
Q 844 1131 1108 757 
Q 1372 384 1759 384 
Q 2147 384 2411 759 
Q 2675 1134 2675 2259 
Q 2675 3391 2411 3762 
Q 2147 4134 1753 4134 
Q 1366 4134 1134 3806 
Q 844 3388 844 2259 
z
" id="ArialMT-30" transform="scale(0.015625)"/>
       </defs>
       <use xlink:href="#ArialMT-2212"/>
       <use x="58.398438" xlink:href="#ArialMT-34"/>
       <use x="114.013672" xlink:href="#ArialMT-30"/>
      </g>
     </g>
    </g>
    <g id="xtick_2">
     <g id="line2d_2">
      <path clip-path="url(#p34ce7bc3bd)" d="M 160.527273 252 
L 160.527273 34.56 
" style="fill:none;stroke:#ffffff;stroke-linecap:round;"/>
     </g>
     <g id="text_2">
      <!-- −20 -->
      <g style="fill:#262626;" transform="translate(147.466148 272.523031)scale(0.154 -0.154)">
       <defs>
        <path d="M 3222 541 
L 3222 0 
L 194 0 
Q 188 203 259 391 
Q 375 700 629 1000 
Q 884 1300 1366 1694 
Q 2113 2306 2375 2664 
Q 2638 3022 2638 3341 
Q 2638 3675 2398 3904 
Q 2159 4134 1775 4134 
Q 1369 4134 1125 3890 
Q 881 3647 878 3216 
L 300 3275 
Q 359 3922 746 4261 
Q 1134 4600 1788 4600 
Q 2447 4600 2831 4234 
Q 3216 3869 3216 3328 
Q 3216 3053 3103 2787 
Q 2991 2522 2730 2228 
Q 2469 1934 1863 1422 
Q 1356 997 1212 845 
Q 1069 694 975 541 
L 3222 541 
z
" id="ArialMT-32" transform="scale(0.015625)"/>
       </defs>
       <use xlink:href="#ArialMT-2212"/>
       <use x="58.398438" xlink:href="#ArialMT-32"/>
       <use x="114.013672" xlink:href="#ArialMT-30"/>
      </g>
     </g>
    </g>
    <g id="xtick_3">
     <g id="line2d_3">
      <path clip-path="url(#p34ce7bc3bd)" d="M 221.4 252 
L 221.4 34.56 
" style="fill:none;stroke:#ffffff;stroke-linecap:round;"/>
     </g>
     <g id="text_3">
      <!-- 0 -->
      <g style="fill:#262626;" transform="translate(217.118078 272.523031)scale(0.154 -0.154)">
       <use xlink:href="#ArialMT-30"/>
      </g>
     </g>
    </g>
    <g id="xtick_4">
     <g id="line2d_4">
      <path clip-path="url(#p34ce7bc3bd)" d="M 282.272727 252 
L 282.272727 34.56 
" style="fill:none;stroke:#ffffff;stroke-linecap:round;"/>
     </g>
     <g id="text_4">
      <!-- 20 -->
      <g style="fill:#262626;" transform="translate(273.708884 272.523031)scale(0.154 -0.154)">
       <use xlink:href="#ArialMT-32"/>
       <use x="55.615234" xlink:href="#ArialMT-30"/>
      </g>
     </g>
    </g>
    <g id="xtick_5">
     <g id="line2d_5">
      <path clip-path="url(#p34ce7bc3bd)" d="M 343.145455 252 
L 343.145455 34.56 
" style="fill:none;stroke:#ffffff;stroke-linecap:round;"/>
     </g>
     <g id="text_5">
      <!-- 40 -->
      <g style="fill:#262626;" transform="translate(334.581611 272.523031)scale(0.154 -0.154)">
       <use xlink:href="#ArialMT-34"/>
       <use x="55.615234" xlink:href="#ArialMT-30"/>
      </g>
     </g>
    </g>
   </g>
   <g id="matplotlib.axis_2">
    <g id="ytick_1">
     <g id="line2d_6">
      <path clip-path="url(#p34ce7bc3bd)" d="M 54 252 
L 388.8 252 
" style="fill:none;stroke:#ffffff;stroke-linecap:round;"/>
     </g>
     <g id="text_6">
      <!-- 0.0 -->
      <g style="fill:#262626;" transform="translate(23.094 257.511516)scale(0.154 -0.154)">
       <defs>
        <path d="M 581 0 
L 581 641 
L 1222 641 
L 1222 0 
L 581 0 
z
" id="ArialMT-2e" transform="scale(0.015625)"/>
       </defs>
       <use xlink:href="#ArialMT-30"/>
       <use x="55.615234" xlink:href="#ArialMT-2e"/>
       <use x="83.398438" xlink:href="#ArialMT-30"/>
      </g>
     </g>
    </g>
    <g id="ytick_2">
     <g id="line2d_7">
      <path clip-path="url(#p34ce7bc3bd)" d="M 54 208.512 
L 388.8 208.512 
" style="fill:none;stroke:#ffffff;stroke-linecap:round;"/>
     </g>
     <g id="text_7">
      <!-- 0.2 -->
      <g style="fill:#262626;" transform="translate(23.094 214.023516)scale(0.154 -0.154)">
       <use xlink:href="#ArialMT-30"/>
       <use x="55.615234" xlink:href="#ArialMT-2e"/>
       <use x="83.398438" xlink:href="#ArialMT-32"/>
      </g>
     </g>
    </g>
    <g id="ytick_3">
     <g id="line2d_8">
      <path clip-path="url(#p34ce7bc3bd)" d="M 54 165.024 
L 388.8 165.024 
" style="fill:none;stroke:#ffffff;stroke-linecap:round;"/>
     </g>
     <g id="text_8">
      <!-- 0.4 -->
      <g style="fill:#262626;" transform="translate(23.094 170.535516)scale(0.154 -0.154)">
       <use xlink:href="#ArialMT-30"/>
       <use x="55.615234" xlink:href="#ArialMT-2e"/>
       <use x="83.398438" xlink:href="#ArialMT-34"/>
      </g>
     </g>
    </g>
    <g id="ytick_4">
     <g id="line2d_9">
      <path clip-path="url(#p34ce7bc3bd)" d="M 54 121.536 
L 388.8 121.536 
" style="fill:none;stroke:#ffffff;stroke-linecap:round;"/>
     </g>
     <g id="text_9">
      <!-- 0.6 -->
      <g style="fill:#262626;" transform="translate(23.094 127.047516)scale(0.154 -0.154)">
       <defs>
        <path d="M 3184 3459 
L 2625 3416 
Q 2550 3747 2413 3897 
Q 2184 4138 1850 4138 
Q 1581 4138 1378 3988 
Q 1113 3794 959 3422 
Q 806 3050 800 2363 
Q 1003 2672 1297 2822 
Q 1591 2972 1913 2972 
Q 2475 2972 2870 2558 
Q 3266 2144 3266 1488 
Q 3266 1056 3080 686 
Q 2894 316 2569 119 
Q 2244 -78 1831 -78 
Q 1128 -78 684 439 
Q 241 956 241 2144 
Q 241 3472 731 4075 
Q 1159 4600 1884 4600 
Q 2425 4600 2770 4297 
Q 3116 3994 3184 3459 
z
M 888 1484 
Q 888 1194 1011 928 
Q 1134 663 1356 523 
Q 1578 384 1822 384 
Q 2178 384 2434 671 
Q 2691 959 2691 1453 
Q 2691 1928 2437 2201 
Q 2184 2475 1800 2475 
Q 1419 2475 1153 2201 
Q 888 1928 888 1484 
z
" id="ArialMT-36" transform="scale(0.015625)"/>
       </defs>
       <use xlink:href="#ArialMT-30"/>
       <use x="55.615234" xlink:href="#ArialMT-2e"/>
       <use x="83.398438" xlink:href="#ArialMT-36"/>
      </g>
     </g>
    </g>
    <g id="ytick_5">
     <g id="line2d_10">
      <path clip-path="url(#p34ce7bc3bd)" d="M 54 78.048 
L 388.8 78.048 
" style="fill:none;stroke:#ffffff;stroke-linecap:round;"/>
     </g>
     <g id="text_10">
      <!-- 0.8 -->
      <g style="fill:#262626;" transform="translate(23.094 83.559516)scale(0.154 -0.154)">
       <defs>
        <path d="M 1131 2484 
Q 781 2613 612 2850 
Q 444 3088 444 3419 
Q 444 3919 803 4259 
Q 1163 4600 1759 4600 
Q 2359 4600 2725 4251 
Q 3091 3903 3091 3403 
Q 3091 3084 2923 2848 
Q 2756 2613 2416 2484 
Q 2838 2347 3058 2040 
Q 3278 1734 3278 1309 
Q 3278 722 2862 322 
Q 2447 -78 1769 -78 
Q 1091 -78 675 323 
Q 259 725 259 1325 
Q 259 1772 486 2073 
Q 713 2375 1131 2484 
z
M 1019 3438 
Q 1019 3113 1228 2906 
Q 1438 2700 1772 2700 
Q 2097 2700 2305 2904 
Q 2513 3109 2513 3406 
Q 2513 3716 2298 3927 
Q 2084 4138 1766 4138 
Q 1444 4138 1231 3931 
Q 1019 3725 1019 3438 
z
M 838 1322 
Q 838 1081 952 856 
Q 1066 631 1291 507 
Q 1516 384 1775 384 
Q 2178 384 2440 643 
Q 2703 903 2703 1303 
Q 2703 1709 2433 1975 
Q 2163 2241 1756 2241 
Q 1359 2241 1098 1978 
Q 838 1716 838 1322 
z
" id="ArialMT-38" transform="scale(0.015625)"/>
       </defs>
       <use xlink:href="#ArialMT-30"/>
       <use x="55.615234" xlink:href="#ArialMT-2e"/>
       <use x="83.398438" xlink:href="#ArialMT-38"/>
      </g>
     </g>
    </g>
    <g id="ytick_6">
     <g id="line2d_11">
      <path clip-path="url(#p34ce7bc3bd)" d="M 54 34.56 
L 388.8 34.56 
" style="fill:none;stroke:#ffffff;stroke-linecap:round;"/>
     </g>
     <g id="text_11">
      <!-- 1.0 -->
      <g style="fill:#262626;" transform="translate(23.094 40.071516)scale(0.154 -0.154)">
       <defs>
        <path d="M 2384 0 
L 1822 0 
L 1822 3584 
Q 1619 3391 1289 3197 
Q 959 3003 697 2906 
L 697 3450 
Q 1169 3672 1522 3987 
Q 1875 4303 2022 4600 
L 2384 4600 
L 2384 0 
z
" id="ArialMT-31" transform="scale(0.015625)"/>
       </defs>
       <use xlink:href="#ArialMT-31"/>
       <use x="55.615234" xlink:href="#ArialMT-2e"/>
       <use x="83.398438" xlink:href="#ArialMT-30"/>
      </g>
     </g>
    </g>
    <g id="text_12">
     <!-- Proportion -->
     <g style="fill:#262626;" transform="translate(15.755 182.032875)rotate(-90)scale(0.168 -0.168)">
      <defs>
       <path d="M 494 0 
L 494 4581 
L 2222 4581 
Q 2678 4581 2919 4538 
Q 3256 4481 3484 4323 
Q 3713 4166 3852 3881 
Q 3991 3597 3991 3256 
Q 3991 2672 3619 2267 
Q 3247 1863 2275 1863 
L 1100 1863 
L 1100 0 
L 494 0 
z
M 1100 2403 
L 2284 2403 
Q 2872 2403 3119 2622 
Q 3366 2841 3366 3238 
Q 3366 3525 3220 3729 
Q 3075 3934 2838 4000 
Q 2684 4041 2272 4041 
L 1100 4041 
L 1100 2403 
z
" id="ArialMT-50" transform="scale(0.015625)"/>
       <path d="M 416 0 
L 416 3319 
L 922 3319 
L 922 2816 
Q 1116 3169 1280 3281 
Q 1444 3394 1641 3394 
Q 1925 3394 2219 3213 
L 2025 2691 
Q 1819 2813 1613 2813 
Q 1428 2813 1281 2702 
Q 1134 2591 1072 2394 
Q 978 2094 978 1738 
L 978 0 
L 416 0 
z
" id="ArialMT-72" transform="scale(0.015625)"/>
       <path d="M 213 1659 
Q 213 2581 725 3025 
Q 1153 3394 1769 3394 
Q 2453 3394 2887 2945 
Q 3322 2497 3322 1706 
Q 3322 1066 3130 698 
Q 2938 331 2570 128 
Q 2203 -75 1769 -75 
Q 1072 -75 642 372 
Q 213 819 213 1659 
z
M 791 1659 
Q 791 1022 1069 705 
Q 1347 388 1769 388 
Q 2188 388 2466 706 
Q 2744 1025 2744 1678 
Q 2744 2294 2464 2611 
Q 2184 2928 1769 2928 
Q 1347 2928 1069 2612 
Q 791 2297 791 1659 
z
" id="ArialMT-6f" transform="scale(0.015625)"/>
       <path d="M 422 -1272 
L 422 3319 
L 934 3319 
L 934 2888 
Q 1116 3141 1344 3267 
Q 1572 3394 1897 3394 
Q 2322 3394 2647 3175 
Q 2972 2956 3137 2557 
Q 3303 2159 3303 1684 
Q 3303 1175 3120 767 
Q 2938 359 2589 142 
Q 2241 -75 1856 -75 
Q 1575 -75 1351 44 
Q 1128 163 984 344 
L 984 -1272 
L 422 -1272 
z
M 931 1641 
Q 931 1000 1190 694 
Q 1450 388 1819 388 
Q 2194 388 2461 705 
Q 2728 1022 2728 1688 
Q 2728 2322 2467 2637 
Q 2206 2953 1844 2953 
Q 1484 2953 1207 2617 
Q 931 2281 931 1641 
z
" id="ArialMT-70" transform="scale(0.015625)"/>
       <path d="M 1650 503 
L 1731 6 
Q 1494 -44 1306 -44 
Q 1000 -44 831 53 
Q 663 150 594 308 
Q 525 466 525 972 
L 525 2881 
L 113 2881 
L 113 3319 
L 525 3319 
L 525 4141 
L 1084 4478 
L 1084 3319 
L 1650 3319 
L 1650 2881 
L 1084 2881 
L 1084 941 
Q 1084 700 1114 631 
Q 1144 563 1211 522 
Q 1278 481 1403 481 
Q 1497 481 1650 503 
z
" id="ArialMT-74" transform="scale(0.015625)"/>
       <path d="M 425 3934 
L 425 4581 
L 988 4581 
L 988 3934 
L 425 3934 
z
M 425 0 
L 425 3319 
L 988 3319 
L 988 0 
L 425 0 
z
" id="ArialMT-69" transform="scale(0.015625)"/>
       <path d="M 422 0 
L 422 3319 
L 928 3319 
L 928 2847 
Q 1294 3394 1984 3394 
Q 2284 3394 2536 3286 
Q 2788 3178 2913 3003 
Q 3038 2828 3088 2588 
Q 3119 2431 3119 2041 
L 3119 0 
L 2556 0 
L 2556 2019 
Q 2556 2363 2490 2533 
Q 2425 2703 2258 2804 
Q 2091 2906 1866 2906 
Q 1506 2906 1245 2678 
Q 984 2450 984 1813 
L 984 0 
L 422 0 
z
" id="ArialMT-6e" transform="scale(0.015625)"/>
      </defs>
      <use xlink:href="#ArialMT-50"/>
      <use x="66.699219" xlink:href="#ArialMT-72"/>
      <use x="100" xlink:href="#ArialMT-6f"/>
      <use x="155.615234" xlink:href="#ArialMT-70"/>
      <use x="211.230469" xlink:href="#ArialMT-6f"/>
      <use x="266.845703" xlink:href="#ArialMT-72"/>
      <use x="300.146484" xlink:href="#ArialMT-74"/>
      <use x="327.929688" xlink:href="#ArialMT-69"/>
      <use x="350.146484" xlink:href="#ArialMT-6f"/>
      <use x="405.761719" xlink:href="#ArialMT-6e"/>
     </g>
    </g>
   </g>
   <g id="line2d_12">
    <path clip-path="url(#p34ce7bc3bd)" d="M 163.273879 252 
L 163.273879 251.999565 
L 186.534155 251.888671 
L 186.606901 251.885192 
L 189.593029 251.774297 
L 189.692307 251.769514 
L 191.699496 251.658619 
L 191.808037 251.652966 
L 193.023614 251.542071 
L 193.133865 251.531634 
L 194.173648 251.42074 
L 194.281714 251.40204 
L 195.040046 251.291146 
L 195.150965 251.270706 
L 195.83477 251.159812 
L 195.944263 251.140677 
L 196.506379 251.029783 
L 196.615456 251.005429 
L 197.174469 250.894535 
L 197.280694 250.871921 
L 197.735652 250.761027 
L 197.845828 250.737543 
L 198.235067 250.626649 
L 198.345416 250.589684 
L 198.739938 250.47879 
L 198.850768 250.444434 
L 199.175889 250.33354 
L 199.28641 250.293531 
L 199.600191 250.182636 
L 199.708863 250.137409 
L 200.000182 250.026515 
L 200.109718 249.976938 
L 200.352668 249.866044 
L 200.461083 249.818207 
L 200.70994 249.707313 
L 200.819999 249.64556 
L 201.050648 249.534665 
L 201.16086 249.48074 
L 201.382722 249.369846 
L 201.493492 249.309832 
L 201.703794 249.198938 
L 201.813973 249.132836 
L 201.983357 249.021942 
L 202.094126 248.951056 
L 202.253489 248.840162 
L 202.363573 248.761449 
L 202.536767 248.650554 
L 202.647397 248.565318 
L 202.791379 248.454423 
L 202.902245 248.373536 
L 203.04521 248.262641 
L 203.155456 248.178275 
L 203.311792 248.06738 
L 203.422091 247.97649 
L 203.554097 247.865596 
L 203.664325 247.776011 
L 203.790909 247.665116 
L 203.901928 247.563354 
L 204.019746 247.45246 
L 204.130719 247.350263 
L 204.233802 247.239369 
L 204.344651 247.136737 
L 204.449993 247.025843 
L 204.561051 246.903641 
L 204.664199 246.792747 
L 204.774933 246.657934 
L 204.886856 246.54704 
L 204.99768 246.423969 
L 205.082656 246.313074 
L 205.193735 246.179131 
L 205.287191 246.068237 
L 205.397301 245.935598 
L 205.487367 245.824704 
L 205.598375 245.684673 
L 205.678569 245.573778 
L 205.789031 245.439835 
L 205.86749 245.328941 
L 205.978264 245.163686 
L 206.060901 245.052792 
L 206.171701 244.905368 
L 206.241643 244.794473 
L 206.352583 244.628349 
L 206.423083 244.517455 
L 206.533939 244.333066 
L 206.608519 244.222171 
L 206.719581 244.04561 
L 206.787585 243.934716 
L 206.898596 243.739454 
L 206.96816 243.62856 
L 207.079258 243.431994 
L 207.14086 243.3211 
L 207.251807 243.121055 
L 207.321603 243.010161 
L 207.432547 242.807072 
L 207.490686 242.696177 
L 207.601552 242.486565 
L 207.653286 242.375671 
L 207.763876 242.137356 
L 207.818283 242.026462 
L 207.929362 241.782929 
L 207.983956 241.672035 
L 208.094839 241.445462 
L 208.144596 241.334568 
L 208.25564 241.096254 
L 208.313698 240.985359 
L 208.424759 240.733564 
L 208.467604 240.622669 
L 208.578474 240.360872 
L 208.626476 240.249977 
L 208.736888 239.969045 
L 208.782372 239.85815 
L 208.893331 239.583306 
L 208.939375 239.472412 
L 209.050044 239.191479 
L 209.097578 239.080585 
L 209.208206 238.822701 
L 209.251282 238.711807 
L 209.362264 238.40913 
L 209.405563 238.298236 
L 209.516582 237.97599 
L 209.556851 237.865095 
L 209.667857 237.55807 
L 209.700252 237.447176 
L 209.811086 237.125799 
L 209.84763 237.014905 
L 209.958634 236.675699 
L 209.995543 236.564804 
L 210.106583 236.236035 
L 210.14206 236.12514 
L 210.253146 235.790283 
L 210.287117 235.679388 
L 210.398061 235.318873 
L 210.43212 235.207979 
L 210.543147 234.835286 
L 210.57491 234.724392 
L 210.685921 234.320388 
L 210.718273 234.209494 
L 210.829318 233.802012 
L 210.863606 233.691117 
L 210.974688 233.2832 
L 211.005817 233.172305 
L 211.116922 232.75743 
L 211.145394 232.646535 
L 211.256451 232.197739 
L 211.28978 232.086845 
L 211.400821 231.623263 
L 211.428498 231.512368 
L 211.539389 231.067486 
L 211.566218 230.956592 
L 211.677318 230.508665 
L 211.703533 230.397771 
L 211.814638 229.904617 
L 211.838993 229.793723 
L 211.949914 229.279694 
L 211.976748 229.1688 
L 212.087763 228.667383 
L 212.111778 228.556489 
L 212.222867 228.055942 
L 212.247726 227.945048 
L 212.358685 227.412755 
L 212.381958 227.30186 
L 212.492805 226.77696 
L 212.517064 226.666066 
L 212.627934 226.099417 
L 212.649826 225.988523 
L 212.76087 225.407088 
L 212.783001 225.296194 
L 212.894019 224.740852 
L 212.916336 224.629957 
L 213.027402 224.071572 
L 213.051646 223.960677 
L 213.162694 223.329666 
L 213.183415 223.218772 
L 213.294503 222.617768 
L 213.31296 222.506873 
L 213.423978 221.874558 
L 213.443587 221.763663 
L 213.554634 221.126999 
L 213.572827 221.016105 
L 213.683833 220.359436 
L 213.702996 220.248541 
L 213.813918 219.571868 
L 213.832468 219.460974 
L 213.943575 218.774298 
L 213.961251 218.663404 
L 214.072349 217.968031 
L 214.089863 217.857136 
L 214.200847 217.146977 
L 214.218849 217.036083 
L 214.329767 216.305919 
L 214.346002 216.195025 
L 214.457078 215.422678 
L 214.475104 215.311784 
L 214.586171 214.505516 
L 214.601913 214.394622 
L 214.713024 213.607924 
L 214.729171 213.497029 
L 214.84027 212.709462 
L 214.85627 212.598567 
L 214.967371 211.787951 
L 214.982807 211.677057 
L 215.093904 210.815994 
L 215.107901 210.7051 
L 215.218987 209.829252 
L 215.233379 209.718357 
L 215.344459 208.865557 
L 215.358105 208.754663 
L 215.469214 207.870987 
L 215.483281 207.760092 
L 215.594391 206.866849 
L 215.607702 206.755955 
L 215.718747 205.901415 
L 215.731247 205.790521 
L 215.842355 204.885101 
L 215.854131 204.774206 
L 215.965219 203.847912 
L 215.978502 203.737018 
L 216.089583 202.762886 
L 216.102522 202.651992 
L 216.213623 201.660031 
L 216.225101 201.549136 
L 216.33619 200.547608 
L 216.347636 200.436713 
L 216.458627 199.428661 
L 216.469719 199.317767 
L 216.580694 198.257964 
L 216.59295 198.14707 
L 216.703904 197.092921 
L 216.71522 196.982027 
L 216.8263 195.930487 
L 216.836883 195.819592 
L 216.947981 194.72413 
L 216.957457 194.613235 
L 217.068493 193.513859 
L 217.080219 193.402964 
L 217.191329 192.297064 
L 217.201142 192.18617 
L 217.312252 191.086793 
L 217.321582 190.975899 
L 217.432668 189.864346 
L 217.442878 189.753451 
L 217.553951 188.554487 
L 217.563578 188.443593 
L 217.674687 187.255066 
L 217.684937 187.144171 
L 217.796036 185.941293 
L 217.805983 185.830399 
L 217.917093 184.62839 
L 217.928 184.517496 
L 218.039082 183.244602 
L 218.048638 183.133708 
L 218.159738 181.878644 
L 218.169675 181.76775 
L 218.280757 180.515295 
L 218.291568 180.404401 
L 218.402596 179.160209 
L 218.412822 179.049315 
L 218.523848 177.753372 
L 218.532641 177.642478 
L 218.643712 176.310006 
L 218.651897 176.199111 
L 218.762995 174.89969 
L 218.773314 174.788796 
L 218.884391 173.426751 
L 218.892849 173.315857 
L 219.00394 172.020349 
L 219.013735 171.909455 
L 219.12482 170.560892 
L 219.134319 170.449998 
L 219.245423 169.105349 
L 219.253613 168.994454 
L 219.364701 167.688075 
L 219.374011 167.57718 
L 219.485121 166.217311 
L 219.494585 166.106416 
L 219.60568 164.718714 
L 219.615336 164.60782 
L 219.72643 163.246645 
L 219.735465 163.135751 
L 219.846562 161.758921 
L 219.855695 161.648027 
L 219.96678 160.282068 
L 219.974789 160.171174 
L 220.0859 158.761293 
L 220.095196 158.650399 
L 220.206299 157.28531 
L 220.215491 157.174416 
L 220.326559 155.754533 
L 220.335505 155.643638 
L 220.446526 154.225495 
L 220.455079 154.1146 
L 220.566012 152.679496 
L 220.575594 152.568602 
L 220.686646 151.151328 
L 220.695184 151.040434 
L 220.806266 149.64186 
L 220.814357 149.530965 
L 220.9254 148.128912 
L 220.933939 148.018018 
L 221.045029 146.610311 
L 221.053452 146.499417 
L 221.164557 145.058224 
L 221.172858 144.94733 
L 221.283963 143.547451 
L 221.292259 143.436557 
L 221.40337 142.010585 
L 221.411557 141.899691 
L 221.522662 140.437189 
L 221.530182 140.326295 
L 221.641199 138.940767 
L 221.650227 138.829873 
L 221.761305 137.410425 
L 221.770001 137.29953 
L 221.881082 135.848336 
L 221.890795 135.737441 
L 222.001901 134.342346 
L 222.010958 134.231452 
L 222.122017 132.78765 
L 222.130244 132.676756 
L 222.241294 131.280356 
L 222.250977 131.169462 
L 222.362074 129.79959 
L 222.371059 129.688695 
L 222.482137 128.287077 
L 222.491438 128.176183 
L 222.602461 126.813269 
L 222.61091 126.702374 
L 222.721984 125.320326 
L 222.730702 125.209431 
L 222.841792 123.85652 
L 222.850461 123.745625 
L 222.961563 122.380972 
L 222.969285 122.270077 
L 223.080344 120.911947 
L 223.089314 120.801053 
L 223.200414 119.435095 
L 223.209331 119.3242 
L 223.320421 117.997816 
L 223.330594 117.886922 
L 223.441677 116.546187 
L 223.450225 116.435292 
L 223.561322 115.143699 
L 223.570971 115.032804 
L 223.682074 113.726425 
L 223.692387 113.615531 
L 223.803397 112.339593 
L 223.813113 112.228698 
L 223.924195 110.950151 
L 223.935129 110.839257 
L 224.046234 109.567233 
L 224.055847 109.456338 
L 224.166957 108.186054 
L 224.176888 108.075159 
L 224.287955 106.859235 
L 224.298094 106.74834 
L 224.40912 105.521544 
L 224.418995 105.41065 
L 224.530058 104.206902 
L 224.541399 104.096007 
L 224.652502 102.85399 
L 224.663811 102.743096 
L 224.774842 101.526301 
L 224.784678 101.415407 
L 224.895722 100.241231 
L 224.904939 100.130337 
L 225.01591 98.973121 
L 225.026126 98.862227 
L 225.137202 97.727625 
L 225.14832 97.61673 
L 225.259332 96.468647 
L 225.269908 96.357753 
L 225.380848 95.227065 
L 225.392382 95.11617 
L 225.50341 93.988526 
L 225.515174 93.877632 
L 225.626175 92.817829 
L 225.637089 92.706935 
L 225.748169 91.606254 
L 225.759599 91.495359 
L 225.870603 90.420336 
L 225.882452 90.309442 
L 225.993533 89.255727 
L 226.005378 89.144833 
L 226.116418 88.137651 
L 226.130157 88.026756 
L 226.241235 86.968259 
L 226.253052 86.857364 
L 226.36403 85.873231 
L 226.375816 85.762336 
L 226.486915 84.82343 
L 226.500454 84.712536 
L 226.611544 83.704484 
L 226.623762 83.59359 
L 226.734859 82.651205 
L 226.748224 82.54031 
L 226.859331 81.587923 
L 226.872459 81.477029 
L 226.983518 80.546386 
L 226.996333 80.435491 
L 227.107417 79.499629 
L 227.121254 79.388735 
L 227.2322 78.496361 
L 227.245343 78.385467 
L 227.356421 77.552672 
L 227.372212 77.441777 
L 227.483282 76.598545 
L 227.497954 76.487651 
L 227.60905 75.649637 
L 227.624419 75.538742 
L 227.735487 74.703338 
L 227.750876 74.592444 
L 227.861964 73.749211 
L 227.876911 73.638317 
L 227.987966 72.822047 
L 228.003057 72.711153 
L 228.114122 71.941415 
L 228.130915 71.830521 
L 228.241969 71.101227 
L 228.256623 70.990332 
L 228.367527 70.205809 
L 228.384813 70.094915 
L 228.495807 69.360837 
L 228.511953 69.249943 
L 228.622791 68.545872 
L 228.639704 68.434978 
L 228.750774 67.732646 
L 228.767896 67.621752 
L 228.87897 66.9042 
L 228.897706 66.793306 
L 229.008736 66.119242 
L 229.024863 66.008347 
L 229.135827 65.360376 
L 229.154608 65.249482 
L 229.265711 64.597596 
L 229.287311 64.486702 
L 229.398417 63.85917 
L 229.420524 63.748276 
L 229.531605 63.116395 
L 229.553218 63.005501 
L 229.664214 62.412759 
L 229.685539 62.301865 
L 229.79659 61.708689 
L 229.817983 61.597794 
L 229.928935 61.016795 
L 229.951003 60.9059 
L 230.062098 60.372737 
L 230.085604 60.261843 
L 230.196673 59.74738 
L 230.223411 59.636485 
L 230.334297 59.101148 
L 230.359032 58.990254 
L 230.46993 58.450133 
L 230.495812 58.339238 
L 230.606902 57.838257 
L 230.631547 57.727362 
L 230.742578 57.221162 
L 230.766666 57.110268 
L 230.877635 56.611895 
L 230.904876 56.501001 
L 231.015959 56.037419 
L 231.043215 55.926524 
L 231.154323 55.473379 
L 231.181351 55.362485 
L 231.292345 54.927605 
L 231.32175 54.81671 
L 231.432799 54.390528 
L 231.460399 54.279634 
L 231.57147 53.859974 
L 231.602827 53.74908 
L 231.713935 53.305937 
L 231.743327 53.195043 
L 231.854303 52.814958 
L 231.888047 52.704063 
L 231.999068 52.301799 
L 232.033717 52.190905 
L 232.144823 51.79212 
L 232.175397 51.681226 
L 232.286462 51.320275 
L 232.322007 51.209381 
L 232.432965 50.853649 
L 232.467646 50.742755 
L 232.578605 50.39833 
L 232.615646 50.287435 
L 232.726747 49.929964 
L 232.760327 49.819069 
L 232.871345 49.483342 
L 232.911382 49.372448 
L 233.022034 49.028458 
L 233.059925 48.917563 
L 233.170744 48.624889 
L 233.212472 48.513995 
L 233.323539 48.203055 
L 233.363907 48.092161 
L 233.475015 47.778178 
L 233.515786 47.667283 
L 233.626731 47.365476 
L 233.67117 47.254582 
L 233.782148 46.986261 
L 233.827718 46.875367 
L 233.938747 46.59139 
L 233.987349 46.480496 
L 234.098144 46.224351 
L 234.141176 46.113457 
L 234.252125 45.858617 
L 234.303578 45.747723 
L 234.414615 45.499406 
L 234.467125 45.388512 
L 234.578054 45.16107 
L 234.639932 45.050175 
L 234.750804 44.827082 
L 234.812501 44.716188 
L 234.923185 44.480048 
L 234.978966 44.369153 
L 235.089837 44.154757 
L 235.154316 44.043863 
L 235.265292 43.839035 
L 235.326824 43.72814 
L 235.437334 43.525051 
L 235.502527 43.414157 
L 235.613577 43.208024 
L 235.676525 43.097129 
L 235.787263 42.914915 
L 235.854792 42.80402 
L 235.965889 42.632243 
L 236.033723 42.521348 
L 236.144488 42.346961 
L 236.21087 42.236067 
L 236.321494 42.071247 
L 236.397821 41.960353 
L 236.508848 41.794229 
L 236.59064 41.683334 
L 236.701655 41.508513 
L 236.781674 41.397618 
L 236.891883 41.255847 
L 236.973213 41.144953 
L 237.08431 41.008836 
L 237.177919 40.897941 
L 237.28886 40.764433 
L 237.37143 40.653539 
L 237.482458 40.519596 
L 237.581322 40.408701 
L 237.691835 40.278237 
L 237.790199 40.167343 
L 237.901093 40.045141 
L 238.001972 39.934247 
L 238.11209 39.825092 
L 238.217397 39.714198 
L 238.328007 39.620699 
L 238.432967 39.509804 
L 238.543919 39.396735 
L 238.655334 39.285841 
L 238.766241 39.176686 
L 238.897735 39.065792 
L 239.00878 38.959246 
L 239.126827 38.848352 
L 239.237713 38.750069 
L 239.387864 38.639174 
L 239.498759 38.544371 
L 239.634996 38.433476 
L 239.745971 38.346065 
L 239.899481 38.235171 
L 240.009864 38.156892 
L 240.177311 38.045998 
L 240.288268 37.968589 
L 240.448294 37.857695 
L 240.558848 37.786375 
L 240.74366 37.67548 
L 240.853288 37.606334 
L 241.061453 37.49544 
L 241.172043 37.428468 
L 241.374012 37.317574 
L 241.484207 37.249298 
L 241.69849 37.138404 
L 241.809275 37.073172 
L 242.044869 36.962277 
L 242.155819 36.906178 
L 242.409347 36.795283 
L 242.519551 36.745272 
L 242.788225 36.634378 
L 242.897722 36.595673 
L 243.165346 36.484779 
L 243.276456 36.44564 
L 243.566933 36.334745 
L 243.677112 36.292562 
L 244.013943 36.181668 
L 244.123511 36.143398 
L 244.488729 36.032504 
L 244.599344 35.995974 
L 245.01777 35.885079 
L 245.123855 35.855508 
L 245.555983 35.744613 
L 245.666081 35.717651 
L 246.195279 35.606756 
L 246.302993 35.57501 
L 246.926702 35.464116 
L 247.035919 35.44759 
L 247.744936 35.336696 
L 247.852384 35.3193 
L 248.640878 35.208406 
L 248.75105 35.19362 
L 249.681566 35.082726 
L 249.786123 35.069244 
L 250.947674 34.95835 
L 251.05738 34.947913 
L 252.654379 34.837019 
L 252.753714 34.826581 
L 255.471547 34.715687 
L 255.530714 34.712643 
L 262.414607 34.601748 
L 262.441473 34.600879 
L 286.801745 34.560435 
L 286.801745 34.56 
" style="fill:none;stroke:#4c72b0;stroke-linecap:round;stroke-width:1.5;"/>
   </g>
   <g id="line2d_13">
    <path clip-path="url(#p34ce7bc3bd)" d="M 53.882673 251.850401 
L 67.651965 251.739507 
L 67.73867 251.737767 
L 76.738935 251.626873 
L 76.815616 251.625133 
L 82.527015 251.514239 
L 82.63811 251.512934 
L 87.728932 251.40204 
L 87.82196 251.398996 
L 91.921856 251.288101 
L 92.015434 251.284622 
L 95.804007 251.173728 
L 95.902903 251.170249 
L 99.179838 251.059355 
L 99.284554 251.054136 
L 102.094758 250.943242 
L 102.203747 250.939328 
L 104.594212 250.828433 
L 104.692213 250.823215 
L 106.621119 250.71232 
L 106.729743 250.703623 
L 108.905166 250.592728 
L 109.003841 250.586205 
L 110.917346 250.475311 
L 111.027453 250.470092 
L 112.841467 250.359198 
L 112.945191 250.350935 
L 114.713252 250.240041 
L 114.82425 250.229169 
L 116.506444 250.118274 
L 116.61215 250.109142 
L 117.936398 249.998247 
L 118.045725 249.98868 
L 119.426296 249.877786 
L 119.534303 249.867783 
L 120.812161 249.756889 
L 120.916391 249.749061 
L 122.163166 249.638167 
L 122.255081 249.628164 
L 123.434298 249.51727 
L 123.541635 249.506398 
L 124.616182 249.395504 
L 124.723119 249.384632 
L 125.771557 249.273737 
L 125.881997 249.261561 
L 126.983018 249.150666 
L 127.090399 249.134576 
L 127.956651 249.023681 
L 128.066542 249.010635 
L 128.978846 248.89974 
L 129.085288 248.888868 
L 129.996885 248.777974 
L 130.105413 248.759709 
L 130.996678 248.648815 
L 131.105464 248.633159 
L 131.950457 248.522265 
L 132.054882 248.504435 
L 132.805346 248.39354 
L 132.909834 248.380059 
L 133.611412 248.269164 
L 133.721986 248.2509 
L 134.366717 248.140005 
L 134.473059 248.125219 
L 135.167656 248.014325 
L 135.278208 247.998234 
L 135.933646 247.88734 
L 136.044103 247.871249 
L 136.735882 247.760355 
L 136.846667 247.737306 
L 137.451363 247.626412 
L 137.562065 247.605538 
L 138.173957 247.494643 
L 138.284404 247.476378 
L 138.924238 247.365484 
L 139.025859 247.34461 
L 139.631971 247.233715 
L 139.741178 247.21632 
L 140.264459 247.105426 
L 140.374052 247.083682 
L 140.882508 246.972787 
L 140.991803 246.948434 
L 141.513861 246.83754 
L 141.621801 246.811447 
L 142.150975 246.700552 
L 142.259878 246.671415 
L 142.7674 246.560521 
L 142.877807 246.536168 
L 143.404253 246.425273 
L 143.511272 246.39918 
L 144.008816 246.288286 
L 144.113454 246.260019 
L 144.609639 246.149124 
L 144.715363 246.124771 
L 145.17647 246.013877 
L 145.286706 245.98561 
L 145.713314 245.874715 
L 145.822217 245.847318 
L 146.33094 245.736423 
L 146.441017 245.708156 
L 146.833496 245.597262 
L 146.943636 245.562036 
L 147.360708 245.451142 
L 147.468179 245.417656 
L 147.875835 245.306762 
L 147.986813 245.271537 
L 148.430714 245.160642 
L 148.539569 245.129331 
L 148.938279 245.018436 
L 149.048803 244.984951 
L 149.40956 244.874056 
L 149.520125 244.838396 
L 149.897084 244.727502 
L 150.006572 244.69706 
L 150.39528 244.586166 
L 150.503942 244.548766 
L 150.903326 244.437872 
L 151.012453 244.405256 
L 151.392178 244.294361 
L 151.50325 244.263485 
L 151.828417 244.15259 
L 151.938703 244.120409 
L 152.305514 244.009515 
L 152.413812 243.980813 
L 152.766483 243.869918 
L 152.874765 243.825126 
L 153.194139 243.714231 
L 153.305004 243.678571 
L 153.615221 243.567677 
L 153.725851 243.525493 
L 154.072569 243.414599 
L 154.178861 243.379374 
L 154.483897 243.268479 
L 154.590198 243.233254 
L 154.886642 243.12236 
L 154.996706 243.08496 
L 155.327276 242.974066 
L 155.436112 242.94145 
L 155.773944 242.830555 
L 155.885019 242.788807 
L 156.21808 242.677912 
L 156.327402 242.636164 
L 156.658564 242.525269 
L 156.76601 242.479607 
L 157.071896 242.368713 
L 157.182346 242.328704 
L 157.455313 242.217809 
L 157.565212 242.167798 
L 157.844321 242.056904 
L 157.954857 242.01559 
L 158.237462 241.904696 
L 158.347943 241.862077 
L 158.614919 241.751183 
L 158.725935 241.702911 
L 159.001251 241.592017 
L 159.111935 241.542876 
L 159.361636 241.431981 
L 159.47246 241.394147 
L 159.696803 241.283252 
L 159.807353 241.23498 
L 160.111874 241.124086 
L 160.222273 241.083207 
L 160.469101 240.972313 
L 160.578832 240.927085 
L 160.831371 240.816191 
L 160.942168 240.770094 
L 161.198043 240.659199 
L 161.308424 240.601795 
L 161.533322 240.490901 
L 161.643466 240.434366 
L 161.892603 240.323472 
L 162.003614 240.274765 
L 162.250317 240.163871 
L 162.361389 240.107337 
L 162.575664 239.996442 
L 162.686719 239.936429 
L 162.912292 239.825534 
L 163.023348 239.774653 
L 163.252999 239.663759 
L 163.3617 239.615052 
L 163.584957 239.504158 
L 163.694545 239.445014 
L 163.908744 239.33412 
L 164.018685 239.276281 
L 164.218081 239.165387 
L 164.328967 239.111461 
L 164.568637 239.000567 
L 164.67653 238.935335 
L 164.88196 238.824441 
L 164.992433 238.773125 
L 165.175082 238.66223 
L 165.285825 238.600477 
L 165.501505 238.489583 
L 165.612354 238.421307 
L 165.838873 238.310412 
L 165.948886 238.242571 
L 166.151423 238.131677 
L 166.261974 238.071228 
L 166.458532 237.960334 
L 166.569273 237.898146 
L 166.755139 237.787252 
L 166.866099 237.722455 
L 167.07485 237.61156 
L 167.185954 237.5385 
L 167.387408 237.427606 
L 167.497556 237.364114 
L 167.692663 237.253219 
L 167.803364 237.187117 
L 167.984367 237.076223 
L 168.094794 237.005772 
L 168.276315 236.894878 
L 168.386656 236.833995 
L 168.576793 236.7231 
L 168.687747 236.657868 
L 168.862678 236.546974 
L 168.97329 236.482177 
L 169.153962 236.371283 
L 169.264962 236.303876 
L 169.449779 236.192982 
L 169.56004 236.123401 
L 169.719992 236.012507 
L 169.82921 235.942926 
L 170.007279 235.832031 
L 170.116462 235.762016 
L 170.278428 235.651121 
L 170.389377 235.579801 
L 170.554839 235.468907 
L 170.665943 235.396282 
L 170.819112 235.285387 
L 170.929518 235.221025 
L 171.076636 235.110131 
L 171.187026 235.023155 
L 171.353398 234.91226 
L 171.463771 234.838765 
L 171.618392 234.727871 
L 171.729373 234.643939 
L 171.885644 234.533045 
L 171.996316 234.445634 
L 172.152363 234.33474 
L 172.262575 234.254722 
L 172.435648 234.143827 
L 172.546421 234.073377 
L 172.715211 233.962482 
L 172.825827 233.877681 
L 172.97598 233.766786 
L 173.086994 233.691552 
L 173.232669 233.580658 
L 173.343299 233.493247 
L 173.508777 233.382352 
L 173.619817 233.299725 
L 173.767702 233.188831 
L 173.878094 233.098811 
L 174.041319 232.987916 
L 174.152345 232.908333 
L 174.302247 232.797439 
L 174.41269 232.722204 
L 174.575806 232.61131 
L 174.685836 232.528683 
L 174.841297 232.417788 
L 174.951765 232.327333 
L 175.092493 232.216439 
L 175.203465 232.129028 
L 175.343155 232.018134 
L 175.454071 231.919416 
L 175.596438 231.808522 
L 175.707365 231.719806 
L 175.853214 231.608912 
L 175.963208 231.518892 
L 176.101132 231.407997 
L 176.212077 231.316237 
L 176.344466 231.205343 
L 176.4542 231.113148 
L 176.599702 231.002254 
L 176.710341 230.914843 
L 176.838739 230.803949 
L 176.949032 230.713059 
L 177.089685 230.602164 
L 177.20079 230.500837 
L 177.320052 230.389943 
L 177.43082 230.292095 
L 177.568525 230.181201 
L 177.678658 230.07596 
L 177.797554 229.965065 
L 177.90768 229.862868 
L 178.042205 229.751974 
L 178.152758 229.656735 
L 178.28629 229.545841 
L 178.396626 229.446253 
L 178.515326 229.335359 
L 178.626316 229.230553 
L 178.741968 229.119659 
L 178.852564 229.018332 
L 178.975696 228.907437 
L 179.086462 228.804371 
L 179.208374 228.693476 
L 179.319269 228.58867 
L 179.44093 228.477776 
L 179.550802 228.379058 
L 179.667414 228.268164 
L 179.778421 228.159878 
L 179.899155 228.048984 
L 180.010192 227.93722 
L 180.121369 227.826325 
L 180.232467 227.71978 
L 180.351158 227.608885 
L 180.462137 227.481031 
L 180.588087 227.370136 
L 180.698096 227.26533 
L 180.805252 227.154436 
L 180.915856 227.059632 
L 181.028179 226.948738 
L 181.13913 226.843497 
L 181.239032 226.732602 
L 181.349855 226.608227 
L 181.464311 226.497332 
L 181.57497 226.387308 
L 181.692015 226.276413 
L 181.802958 226.171607 
L 181.910683 226.060713 
L 182.02171 225.940686 
L 182.122717 225.829791 
L 182.233641 225.70933 
L 182.334466 225.598435 
L 182.445454 225.477539 
L 182.551876 225.366644 
L 182.662982 225.267492 
L 182.775001 225.156597 
L 182.885572 225.032221 
L 182.977386 224.921327 
L 183.088407 224.797386 
L 183.189748 224.686492 
L 183.300826 224.569944 
L 183.406764 224.45905 
L 183.51665 224.341632 
L 183.615748 224.230738 
L 183.726379 224.108971 
L 183.814763 223.998077 
L 183.92564 223.861959 
L 184.034451 223.751065 
L 184.145547 223.627994 
L 184.236498 223.5171 
L 184.347566 223.381417 
L 184.445677 223.270523 
L 184.556784 223.140059 
L 184.652118 223.029164 
L 184.763145 222.901309 
L 184.864709 222.790415 
L 184.975129 222.667779 
L 185.073468 222.556884 
L 185.184295 222.429465 
L 185.282422 222.31857 
L 185.39302 222.174625 
L 185.477209 222.063731 
L 185.587943 221.935006 
L 185.686818 221.824112 
L 185.797759 221.708434 
L 185.894403 221.597539 
L 186.005348 221.466205 
L 186.090414 221.355311 
L 186.201493 221.220933 
L 186.288074 221.110039 
L 186.398589 220.977835 
L 186.499635 220.866941 
L 186.610058 220.736912 
L 186.705258 220.626017 
L 186.815729 220.492074 
L 186.898454 220.38118 
L 187.009349 220.239844 
L 187.099195 220.128949 
L 187.210131 219.988918 
L 187.30621 219.878024 
L 187.417272 219.736688 
L 187.507363 219.625793 
L 187.617986 219.476629 
L 187.712839 219.365735 
L 187.823651 219.209613 
L 187.902029 219.098719 
L 188.013047 218.954339 
L 188.097147 218.843444 
L 188.208006 218.694715 
L 188.285753 218.583821 
L 188.396709 218.437266 
L 188.494525 218.326372 
L 188.605542 218.179817 
L 188.688783 218.068923 
L 188.799618 217.89845 
L 188.874472 217.787556 
L 188.98558 217.639261 
L 189.070406 217.528367 
L 189.181268 217.385726 
L 189.25797 217.274832 
L 189.368792 217.122624 
L 189.450883 217.01173 
L 189.560612 216.868219 
L 189.652439 216.757325 
L 189.762619 216.612075 
L 189.84125 216.50118 
L 189.952161 216.342449 
L 190.028229 216.231555 
L 190.13904 216.084131 
L 190.220971 215.973236 
L 190.33174 215.820593 
L 190.414973 215.709699 
L 190.525838 215.550098 
L 190.598689 215.439204 
L 190.70963 215.283951 
L 190.791913 215.173057 
L 190.902885 215.002149 
L 190.974105 214.891255 
L 191.085193 214.74383 
L 191.164859 214.632936 
L 191.275861 214.458549 
L 191.359979 214.347655 
L 191.471005 214.199796 
L 191.547721 214.088901 
L 191.658163 213.925821 
L 191.732495 213.814927 
L 191.843553 213.652716 
L 191.9232 213.541822 
L 192.034025 213.375698 
L 192.101995 213.264804 
L 192.213094 213.098244 
L 192.28779 212.98735 
L 192.398897 212.80731 
L 192.469249 212.696415 
L 192.580354 212.53377 
L 192.652856 212.422876 
L 192.763582 212.229789 
L 192.83533 212.118895 
L 192.946155 211.949726 
L 193.025766 211.838832 
L 193.136585 211.668794 
L 193.218803 211.5579 
L 193.329451 211.377424 
L 193.405727 211.26653 
L 193.516403 211.097362 
L 193.582382 210.986467 
L 193.693338 210.802078 
L 193.760811 210.691184 
L 193.87146 210.52419 
L 193.939775 210.413295 
L 194.050731 210.230211 
L 194.121635 210.119316 
L 194.232653 209.934058 
L 194.307547 209.823163 
L 194.418335 209.652255 
L 194.49085 209.541361 
L 194.601594 209.360451 
L 194.671649 209.249556 
L 194.782223 209.067777 
L 194.845586 208.956882 
L 194.95658 208.770319 
L 195.024585 208.659424 
L 195.135584 208.472426 
L 195.20921 208.361532 
L 195.320267 208.16714 
L 195.38042 208.056246 
L 195.491523 207.865768 
L 195.549112 207.754874 
L 195.660194 207.560483 
L 195.72827 207.449588 
L 195.838995 207.253022 
L 195.898318 207.142128 
L 196.008988 206.970785 
L 196.077504 206.859891 
L 196.188515 206.665934 
L 196.256434 206.55504 
L 196.36738 206.364128 
L 196.430649 206.253233 
L 196.54171 206.055798 
L 196.607434 205.944903 
L 196.718281 205.747033 
L 196.774227 205.636139 
L 196.884846 205.445661 
L 196.941903 205.334767 
L 197.052955 205.136027 
L 197.11604 205.025132 
L 197.22714 204.830741 
L 197.288653 204.719846 
L 197.399458 204.533283 
L 197.464422 204.422388 
L 197.575511 204.211472 
L 197.632987 204.100577 
L 197.744022 203.882268 
L 197.805433 203.771373 
L 197.916291 203.576112 
L 197.981981 203.465218 
L 198.093035 203.252996 
L 198.154919 203.142102 
L 198.265938 202.927706 
L 198.32492 202.816812 
L 198.43601 202.602416 
L 198.494092 202.491521 
L 198.605046 202.289737 
L 198.667636 202.178843 
L 198.778636 201.984451 
L 198.83515 201.873557 
L 198.946102 201.672207 
L 199.003802 201.561313 
L 199.114828 201.366487 
L 199.174784 201.255592 
L 199.285749 201.038587 
L 199.340026 200.927693 
L 199.450921 200.692858 
L 199.515634 200.581963 
L 199.626078 200.393225 
L 199.688272 200.282331 
L 199.799267 200.042712 
L 199.853548 199.931818 
L 199.96452 199.713943 
L 200.011467 199.603048 
L 200.122264 199.382999 
L 200.17495 199.272105 
L 200.285502 199.051186 
L 200.340641 198.940291 
L 200.451276 198.716763 
L 200.505085 198.605868 
L 200.615837 198.382775 
L 200.672298 198.271881 
L 200.78338 198.071401 
L 200.838409 197.960507 
L 200.949253 197.725671 
L 201.012591 197.614777 
L 201.123497 197.398207 
L 201.176693 197.287312 
L 201.287487 197.057261 
L 201.338583 196.946366 
L 201.449641 196.725882 
L 201.50352 196.614988 
L 201.614621 196.383632 
L 201.660534 196.272737 
L 201.771234 196.046165 
L 201.828562 195.93527 
L 201.939492 195.708263 
L 201.995157 195.597369 
L 202.106221 195.364273 
L 202.157809 195.253379 
L 202.268348 195.025067 
L 202.320077 194.914172 
L 202.431102 194.664116 
L 202.482911 194.553222 
L 202.593862 194.326214 
L 202.645655 194.21532 
L 202.756711 193.990487 
L 202.809122 193.879593 
L 202.920231 193.640844 
L 202.97773 193.529949 
L 203.088798 193.268586 
L 203.141899 193.157692 
L 203.252932 192.917203 
L 203.306997 192.806309 
L 203.417739 192.578867 
L 203.471017 192.467972 
L 203.581923 192.239225 
L 203.637065 192.128331 
L 203.748125 191.888277 
L 203.795019 191.777383 
L 203.905582 191.548201 
L 203.956113 191.437307 
L 204.067056 191.20769 
L 204.121483 191.096796 
L 204.232492 190.848044 
L 204.282459 190.73715 
L 204.393422 190.475787 
L 204.44331 190.364892 
L 204.554288 190.117446 
L 204.603591 190.006551 
L 204.714534 189.769977 
L 204.761777 189.659082 
L 204.872776 189.404243 
L 204.921872 189.293348 
L 205.032794 189.042857 
L 205.079674 188.931963 
L 205.190506 188.680167 
L 205.242919 188.569273 
L 205.353941 188.311389 
L 205.3998 188.200495 
L 205.510426 187.938697 
L 205.557615 187.827803 
L 205.668654 187.556437 
L 205.714764 187.445543 
L 205.825833 187.168524 
L 205.871283 187.05763 
L 205.9823 186.808009 
L 206.034508 186.697115 
L 206.145513 186.427054 
L 206.188693 186.31616 
L 206.299673 186.047839 
L 206.343141 185.936944 
L 206.45415 185.678191 
L 206.50307 185.567296 
L 206.61378 185.309412 
L 206.663819 185.198518 
L 206.774823 184.931067 
L 206.82553 184.820172 
L 206.936568 184.565333 
L 206.981313 184.454438 
L 207.09198 184.189162 
L 207.140099 184.078267 
L 207.250775 183.814295 
L 207.297692 183.703401 
L 207.408798 183.418119 
L 207.4581 183.307225 
L 207.569098 183.041513 
L 207.622254 182.930619 
L 207.733298 182.640119 
L 207.776817 182.529225 
L 207.887292 182.236985 
L 207.931083 182.126091 
L 208.042155 181.864293 
L 208.087938 181.753399 
L 208.19899 181.482034 
L 208.24326 181.371139 
L 208.354337 181.067158 
L 208.39784 180.956264 
L 208.508804 180.694031 
L 208.552573 180.583137 
L 208.663626 180.283504 
L 208.703587 180.17261 
L 208.814552 179.893852 
L 208.857991 179.782957 
L 208.969094 179.498111 
L 209.010444 179.387217 
L 209.121335 179.112372 
L 209.168502 179.001478 
L 209.279573 178.72359 
L 209.322363 178.612695 
L 209.433342 178.318282 
L 209.479588 178.207387 
L 209.590544 177.932108 
L 209.628902 177.821214 
L 209.739992 177.516798 
L 209.779961 177.405903 
L 209.89104 177.133234 
L 209.937861 177.022339 
L 210.048961 176.72923 
L 210.091346 176.618336 
L 210.202332 176.325661 
L 210.243714 176.214767 
L 210.354524 175.93079 
L 210.396679 175.819896 
L 210.507557 175.527222 
L 210.544832 175.416327 
L 210.655839 175.105388 
L 210.695462 174.994494 
L 210.806562 174.717475 
L 210.849651 174.606581 
L 210.960538 174.317386 
L 211.002636 174.206491 
L 211.11356 173.913382 
L 211.161344 173.802488 
L 211.272313 173.48459 
L 211.312189 173.373696 
L 211.423148 173.073194 
L 211.468911 172.9623 
L 211.579688 172.681802 
L 211.624654 172.570908 
L 211.735685 172.233006 
L 211.781068 172.122111 
L 211.891987 171.822479 
L 211.932361 171.711585 
L 212.043177 171.394122 
L 212.083313 171.283228 
L 212.194041 170.980116 
L 212.23846 170.869222 
L 212.349435 170.575243 
L 212.385775 170.464349 
L 212.496835 170.165586 
L 212.536888 170.054692 
L 212.647558 169.749406 
L 212.689168 169.638512 
L 212.800125 169.324093 
L 212.840554 169.213199 
L 212.951576 168.88443 
L 212.993009 168.773535 
L 213.104084 168.470859 
L 213.136694 168.359964 
L 213.247479 168.049895 
L 213.286602 167.939001 
L 213.39755 167.621973 
L 213.439722 167.511079 
L 213.55053 167.183179 
L 213.589582 167.072285 
L 213.700552 166.755257 
L 213.734676 166.644363 
L 213.845772 166.325161 
L 213.885299 166.214267 
L 213.99639 165.918548 
L 214.036449 165.807654 
L 214.147287 165.492801 
L 214.185865 165.381906 
L 214.296878 165.064879 
L 214.336341 164.953984 
L 214.447363 164.659571 
L 214.485466 164.548676 
L 214.596537 164.225995 
L 214.636703 164.115101 
L 214.747705 163.785027 
L 214.786296 163.674132 
L 214.897356 163.35841 
L 214.935976 163.247515 
L 215.04686 162.919616 
L 215.087367 162.808721 
L 215.198455 162.46908 
L 215.240338 162.358186 
L 215.351424 162.037679 
L 215.388977 161.926785 
L 215.499489 161.601494 
L 215.544674 161.4906 
L 215.655625 161.151828 
L 215.69362 161.040934 
L 215.804729 160.706511 
L 215.843217 160.595617 
L 215.953964 160.280764 
L 215.993291 160.169869 
L 216.104176 159.846319 
L 216.143404 159.735424 
L 216.254186 159.413613 
L 216.294172 159.302719 
L 216.405244 158.950466 
L 216.446246 158.839572 
L 216.557333 158.513412 
L 216.592425 158.402517 
L 216.703478 158.078532 
L 216.738773 157.967637 
L 216.849807 157.639738 
L 216.889455 157.528843 
L 217.000346 157.209641 
L 217.038745 157.098747 
L 217.149737 156.781719 
L 217.18663 156.670825 
L 217.297659 156.359451 
L 217.335227 156.248556 
L 217.446305 155.938922 
L 217.48126 155.828028 
L 217.592098 155.500563 
L 217.629472 155.389668 
L 217.740579 155.046983 
L 217.778782 154.936089 
L 217.889722 154.599492 
L 217.9258 154.488597 
L 218.03666 154.165481 
L 218.073282 154.054587 
L 218.184337 153.715815 
L 218.22438 153.604921 
L 218.335464 153.269628 
L 218.37382 153.158734 
L 218.484901 152.806481 
L 218.517789 152.695587 
L 218.628889 152.391171 
L 218.66628 152.280276 
L 218.777327 151.924545 
L 218.810729 151.81365 
L 218.921595 151.493144 
L 218.953011 151.382249 
L 219.063929 151.043913 
L 219.095232 150.933018 
L 219.206183 150.571633 
L 219.241914 150.460739 
L 219.352836 150.101963 
L 219.388759 149.991068 
L 219.499806 149.643599 
L 219.530863 149.532705 
L 219.641956 149.165231 
L 219.676523 149.054337 
L 219.787601 148.683819 
L 219.822665 148.572924 
L 219.933655 148.191535 
L 219.967722 148.08064 
L 220.078305 147.723604 
L 220.111632 147.612709 
L 220.222618 147.229145 
L 220.252977 147.118251 
L 220.364056 146.749473 
L 220.39783 146.638578 
L 220.508852 146.264147 
L 220.543375 146.153252 
L 220.654328 145.78143 
L 220.690652 145.670535 
L 220.801544 145.295234 
L 220.839172 145.18434 
L 220.950273 144.80382 
L 220.983897 144.692925 
L 221.094899 144.332844 
L 221.124932 144.22195 
L 221.235999 143.884483 
L 221.271245 143.773589 
L 221.382301 143.410899 
L 221.417386 143.300004 
L 221.52841 142.928617 
L 221.562841 142.817723 
L 221.673794 142.46373 
L 221.709012 142.352836 
L 221.81983 142.016674 
L 221.854532 141.905779 
L 221.965508 141.551787 
L 221.996832 141.440892 
L 222.107843 141.080812 
L 222.144649 140.969917 
L 222.255683 140.609837 
L 222.290315 140.498942 
L 222.400757 140.154952 
L 222.434514 140.044058 
L 222.54556 139.69398 
L 222.579536 139.583085 
L 222.690479 139.232572 
L 222.725434 139.121677 
L 222.836365 138.776383 
L 222.874613 138.665488 
L 222.985276 138.324977 
L 223.021163 138.214083 
L 223.132227 137.86183 
L 223.165779 137.750936 
L 223.276769 137.419122 
L 223.314036 137.308228 
L 223.425142 136.935101 
L 223.4629 136.824206 
L 223.574008 136.475433 
L 223.608855 136.364538 
L 223.719574 136.027506 
L 223.757347 135.916612 
L 223.868405 135.54305 
L 223.905283 135.432156 
L 224.016376 135.100342 
L 224.054459 134.989448 
L 224.165561 134.631107 
L 224.204712 134.520212 
L 224.315815 134.163611 
L 224.351443 134.052716 
L 224.462534 133.704812 
L 224.496356 133.593918 
L 224.607222 133.249058 
L 224.641478 133.138164 
L 224.752374 132.801566 
L 224.788228 132.690672 
L 224.899227 132.344073 
L 224.932527 132.233178 
L 225.043371 131.877881 
L 225.081245 131.766987 
L 225.19234 131.433434 
L 225.227742 131.32254 
L 225.338636 130.969852 
L 225.37985 130.858957 
L 225.490612 130.527144 
L 225.527506 130.41625 
L 225.638269 130.07226 
L 225.675897 129.961365 
L 225.786984 129.624333 
L 225.823212 129.513439 
L 225.934244 129.185104 
L 225.970686 129.07421 
L 226.081641 128.737178 
L 226.11588 128.626284 
L 226.226857 128.276205 
L 226.266859 128.165311 
L 226.37788 127.824365 
L 226.41725 127.71347 
L 226.528297 127.385571 
L 226.570663 127.274676 
L 226.681571 126.928077 
L 226.716607 126.817183 
L 226.827711 126.470583 
L 226.866696 126.359689 
L 226.977448 126.026136 
L 227.019935 125.915242 
L 227.130921 125.599084 
L 227.169719 125.488189 
L 227.280712 125.154202 
L 227.32122 125.043307 
L 227.432215 124.727149 
L 227.469644 124.616255 
L 227.580709 124.287051 
L 227.620187 124.176156 
L 227.731112 123.835645 
L 227.765897 123.724751 
L 227.87681 123.399461 
L 227.915152 123.288566 
L 228.026042 122.958927 
L 228.064065 122.848033 
L 228.175128 122.527092 
L 228.212052 122.416197 
L 228.323077 122.090907 
L 228.362623 121.980012 
L 228.473643 121.635588 
L 228.515143 121.524693 
L 228.625941 121.200273 
L 228.663162 121.089378 
L 228.774222 120.7767 
L 228.814384 120.665805 
L 228.925426 120.343994 
L 228.96467 120.2331 
L 229.075773 119.918246 
L 229.113386 119.807352 
L 229.224402 119.482497 
L 229.266369 119.371602 
L 229.377451 119.054575 
L 229.414447 118.94368 
L 229.525431 118.630132 
L 229.564234 118.519237 
L 229.675029 118.20308 
L 229.717281 118.092185 
L 229.828287 117.7495 
L 229.871185 117.638605 
L 229.982025 117.322883 
L 230.021856 117.211988 
L 230.132937 116.911051 
L 230.172727 116.800157 
L 230.283757 116.497915 
L 230.325487 116.387021 
L 230.436587 116.090433 
L 230.475709 115.979538 
L 230.586389 115.687734 
L 230.621884 115.576839 
L 230.732944 115.2472 
L 230.774191 115.136306 
L 230.885203 114.854069 
L 230.92557 114.743174 
L 231.036647 114.428756 
L 231.077831 114.317862 
L 231.188894 114.004748 
L 231.233446 113.893854 
L 231.343989 113.599005 
L 231.383691 113.488111 
L 231.494516 113.179346 
L 231.538956 113.068452 
L 231.649856 112.777517 
L 231.692773 112.666622 
L 231.80385 112.369164 
L 231.843092 112.25827 
L 231.954034 111.965161 
L 231.994774 111.854267 
L 232.105732 111.535934 
L 232.144468 111.42504 
L 232.255344 111.126712 
L 232.299336 111.015818 
L 232.410222 110.687049 
L 232.453757 110.576154 
L 232.564615 110.272173 
L 232.601703 110.161279 
L 232.712671 109.871214 
L 232.753922 109.760319 
L 232.864802 109.447641 
L 232.906081 109.336746 
L 233.01692 109.029721 
L 233.052915 108.918827 
L 233.16393 108.628762 
L 233.210542 108.517867 
L 233.321504 108.207363 
L 233.366604 108.096468 
L 233.477707 107.817276 
L 233.520162 107.706381 
L 233.631182 107.397181 
L 233.673218 107.286287 
L 233.784189 106.996657 
L 233.823377 106.885763 
L 233.93429 106.581781 
L 233.98079 106.470887 
L 234.091219 106.173429 
L 234.133507 106.062535 
L 234.244519 105.7716 
L 234.29153 105.660706 
L 234.402371 105.391515 
L 234.451936 105.28062 
L 234.563027 105.001428 
L 234.609328 104.890533 
L 234.720238 104.633954 
L 234.764672 104.52306 
L 234.8757 104.239518 
L 234.921257 104.128623 
L 235.032173 103.862477 
L 235.081555 103.751582 
L 235.192562 103.483696 
L 235.233381 103.372802 
L 235.344418 103.10709 
L 235.38877 102.996196 
L 235.499857 102.723526 
L 235.544739 102.612632 
L 235.655403 102.353443 
L 235.708639 102.242549 
L 235.819635 101.96727 
L 235.861286 101.856375 
L 235.971874 101.605884 
L 236.016162 101.49499 
L 236.126844 101.24189 
L 236.172254 101.130996 
L 236.283343 100.863979 
L 236.329625 100.753085 
L 236.440666 100.476066 
L 236.482692 100.365172 
L 236.59367 100.095981 
L 236.64134 99.985087 
L 236.752449 99.71981 
L 236.802403 99.608916 
L 236.913384 99.323634 
L 236.962435 99.21274 
L 237.073243 98.950507 
L 237.115158 98.839613 
L 237.226149 98.606952 
L 237.274037 98.496058 
L 237.385113 98.25122 
L 237.432202 98.140326 
L 237.543279 97.876788 
L 237.591365 97.765894 
L 237.702453 97.519752 
L 237.749554 97.408858 
L 237.86056 97.140102 
L 237.9095 97.029207 
L 238.0202 96.772628 
L 238.071479 96.661734 
L 238.182508 96.407764 
L 238.232709 96.296869 
L 238.34382 96.045944 
L 238.392488 95.935049 
L 238.503337 95.699344 
L 238.550306 95.58845 
L 238.661381 95.33361 
L 238.712644 95.222716 
L 238.823655 94.954395 
L 238.871695 94.8435 
L 238.982423 94.6091 
L 239.033073 94.498206 
L 239.144162 94.248585 
L 239.194304 94.13769 
L 239.305379 93.904595 
L 239.354125 93.7937 
L 239.464923 93.551907 
L 239.516355 93.441012 
L 239.627397 93.200089 
L 239.680006 93.089195 
L 239.790748 92.847401 
L 239.84644 92.736507 
L 239.957466 92.482972 
L 240.014911 92.372077 
L 240.125722 92.131154 
L 240.181429 92.02026 
L 240.292525 91.781945 
L 240.344882 91.671051 
L 240.455732 91.433606 
L 240.503725 91.322712 
L 240.614746 91.098314 
L 240.665083 90.98742 
L 240.775891 90.756498 
L 240.833429 90.645604 
L 240.9444 90.42512 
L 241.001475 90.314225 
L 241.11252 90.085913 
L 241.159635 89.975019 
L 241.270448 89.731051 
L 241.320383 89.620157 
L 241.431134 89.38967 
L 241.481494 89.278776 
L 241.592468 89.060466 
L 241.647348 88.949572 
L 241.758187 88.724304 
L 241.812097 88.61341 
L 241.922695 88.37727 
L 241.976897 88.266375 
L 242.086917 88.062417 
L 242.146952 87.951522 
L 242.257603 87.730603 
L 242.315511 87.619709 
L 242.426286 87.388788 
L 242.481911 87.277893 
L 242.592319 87.07089 
L 242.647713 86.959996 
L 242.758532 86.719072 
L 242.818224 86.608178 
L 242.929157 86.394217 
L 242.985341 86.283323 
L 243.095995 86.085887 
L 243.150206 85.974993 
L 243.261121 85.745811 
L 243.315044 85.634916 
L 243.425718 85.431393 
L 243.485177 85.320498 
L 243.596211 85.0961 
L 243.658349 84.985206 
L 243.768923 84.767331 
L 243.830366 84.656436 
L 243.941351 84.44291 
L 243.99816 84.332016 
L 244.10911 84.118055 
L 244.171093 84.007161 
L 244.282148 83.80929 
L 244.340474 83.698396 
L 244.45144 83.488784 
L 244.510169 83.377889 
L 244.620208 83.185672 
L 244.678002 83.074778 
L 244.78903 82.863426 
L 244.855785 82.752532 
L 244.96665 82.562489 
L 245.024902 82.451595 
L 245.135895 82.250245 
L 245.193274 82.139351 
L 245.304361 81.941046 
L 245.368675 81.830151 
L 245.479336 81.629672 
L 245.54443 81.518777 
L 245.655003 81.323081 
L 245.723969 81.212187 
L 245.834942 81.016056 
L 245.896842 80.905162 
L 246.00791 80.71164 
L 246.071779 80.600746 
L 246.182757 80.40505 
L 246.246351 80.294155 
L 246.357261 80.118029 
L 246.422737 80.007134 
L 246.533569 79.821006 
L 246.603714 79.710111 
L 246.71373 79.520504 
L 246.779343 79.409609 
L 246.889866 79.223481 
L 246.959095 79.112586 
L 247.069947 78.938634 
L 247.136641 78.82774 
L 247.247336 78.621172 
L 247.306657 78.510277 
L 247.41759 78.331107 
L 247.488021 78.220212 
L 247.598958 78.037563 
L 247.670707 77.926668 
L 247.781726 77.733147 
L 247.847661 77.622252 
L 247.958657 77.438298 
L 248.030405 77.327404 
L 248.14133 77.142145 
L 248.209425 77.031251 
L 248.32053 76.863387 
L 248.392156 76.752492 
L 248.503149 76.588543 
L 248.563898 76.477648 
L 248.674937 76.31022 
L 248.743661 76.199325 
L 248.854242 76.011022 
L 248.9241 75.900128 
L 249.03514 75.709215 
L 249.113061 75.598321 
L 249.22383 75.427413 
L 249.298124 75.316519 
L 249.40899 75.13126 
L 249.480502 75.020365 
L 249.59155 74.849892 
L 249.66363 74.738998 
L 249.774403 74.572004 
L 249.837916 74.46111 
L 249.947385 74.276721 
L 250.017646 74.165826 
L 250.128748 73.98883 
L 250.200888 73.877936 
L 250.311816 73.71877 
L 250.384567 73.607875 
L 250.494859 73.443491 
L 250.573857 73.332596 
L 250.684949 73.142988 
L 250.755827 73.032094 
L 250.866852 72.872928 
L 250.945059 72.762034 
L 251.055903 72.595475 
L 251.122913 72.48458 
L 251.233844 72.330198 
L 251.308437 72.219303 
L 251.419473 72.052744 
L 251.495926 71.94185 
L 251.607035 71.776596 
L 251.677815 71.665701 
L 251.788216 71.494793 
L 251.868432 71.383899 
L 251.978974 71.224733 
L 252.064199 71.113838 
L 252.175162 70.959021 
L 252.250182 70.848127 
L 252.36057 70.68983 
L 252.441649 70.578936 
L 252.55274 70.414986 
L 252.636265 70.304092 
L 252.747234 70.141447 
L 252.823081 70.030552 
L 252.934056 69.883998 
L 253.023657 69.773103 
L 253.134646 69.600891 
L 253.220526 69.489996 
L 253.3308 69.337788 
L 253.410474 69.226894 
L 253.52117 69.0786 
L 253.614055 68.967706 
L 253.724954 68.834197 
L 253.807688 68.723303 
L 253.918748 68.573704 
L 253.999694 68.46281 
L 254.110214 68.306253 
L 254.193112 68.195359 
L 254.303813 68.047934 
L 254.370866 67.93704 
L 254.481749 67.797009 
L 254.562758 67.686114 
L 254.673728 67.550432 
L 254.758663 67.439537 
L 254.86954 67.297766 
L 254.956641 67.186872 
L 255.067315 67.042057 
L 255.165519 66.931163 
L 255.276588 66.792871 
L 255.369632 66.681976 
L 255.480362 66.544554 
L 255.578478 66.43366 
L 255.689386 66.300587 
L 255.797134 66.189692 
L 255.908194 66.062707 
L 255.98264 65.951813 
L 256.093546 65.81787 
L 256.194498 65.706975 
L 256.305365 65.57999 
L 256.394279 65.469096 
L 256.50519 65.337327 
L 256.596886 65.226433 
L 256.707837 65.088576 
L 256.797633 64.977682 
L 256.908431 64.846783 
L 257.009786 64.735888 
L 257.120894 64.598031 
L 257.214749 64.487137 
L 257.32534 64.348845 
L 257.418806 64.237951 
L 257.528964 64.115315 
L 257.631938 64.00442 
L 257.742885 63.881784 
L 257.83916 63.77089 
L 257.949265 63.651732 
L 258.045807 63.540838 
L 258.15676 63.422986 
L 258.258978 63.312091 
L 258.369616 63.183802 
L 258.461585 63.072907 
L 258.57269 62.943748 
L 258.666258 62.832853 
L 258.776249 62.725873 
L 258.872976 62.614979 
L 258.984048 62.496691 
L 259.086525 62.385797 
L 259.197625 62.262291 
L 259.290094 62.151396 
L 259.401053 62.031804 
L 259.512864 61.92091 
L 259.623743 61.809581 
L 259.733394 61.698686 
L 259.843915 61.578225 
L 259.951449 61.46733 
L 260.062323 61.364699 
L 260.156773 61.253804 
L 260.267881 61.146824 
L 260.372813 61.035929 
L 260.483692 60.930688 
L 260.58438 60.819794 
L 260.694462 60.709769 
L 260.795314 60.598875 
L 260.905714 60.475369 
L 261.022221 60.364475 
L 261.132817 60.25358 
L 261.248636 60.142686 
L 261.359409 60.03527 
L 261.474043 59.924376 
L 261.584975 59.806089 
L 261.686874 59.695194 
L 261.797801 59.58343 
L 261.911816 59.472536 
L 262.022338 59.362511 
L 262.149562 59.251617 
L 262.260552 59.146376 
L 262.378055 59.035481 
L 262.488954 58.93111 
L 262.600766 58.820216 
L 262.711509 58.707147 
L 262.833114 58.596252 
L 262.943373 58.492751 
L 263.050996 58.381857 
L 263.161885 58.288792 
L 263.285854 58.177898 
L 263.396479 58.074831 
L 263.522304 57.963937 
L 263.633398 57.855217 
L 263.748904 57.744323 
L 263.859898 57.650823 
L 263.980998 57.539929 
L 264.09203 57.438602 
L 264.210464 57.327708 
L 264.321215 57.22812 
L 264.44712 57.117226 
L 264.558078 57.014594 
L 264.681306 56.9037 
L 264.792067 56.804547 
L 264.922636 56.693652 
L 265.033673 56.601458 
L 265.168991 56.490564 
L 265.279456 56.397934 
L 265.430461 56.28704 
L 265.541375 56.198324 
L 265.67504 56.08743 
L 265.785901 55.994365 
L 265.921617 55.883471 
L 266.031402 55.804758 
L 266.167523 55.693863 
L 266.27814 55.601669 
L 266.410634 55.490774 
L 266.521482 55.39771 
L 266.649741 55.286816 
L 266.760769 55.187228 
L 266.896284 55.076334 
L 267.006739 54.986748 
L 267.142863 54.875854 
L 267.253617 54.789748 
L 267.40155 54.678853 
L 267.512418 54.585354 
L 267.65114 54.47446 
L 267.761868 54.380091 
L 267.893673 54.269196 
L 268.004606 54.173088 
L 268.150229 54.062194 
L 268.260193 53.973043 
L 268.406556 53.862149 
L 268.51626 53.776043 
L 268.655189 53.665148 
L 268.766123 53.58774 
L 268.915265 53.476845 
L 269.026155 53.380302 
L 269.17566 53.269407 
L 269.28558 53.188085 
L 269.435685 53.07719 
L 269.545869 52.990649 
L 269.689486 52.879755 
L 269.800531 52.802346 
L 269.940765 52.691452 
L 270.051709 52.616218 
L 270.189914 52.505323 
L 270.299787 52.430089 
L 270.456781 52.319195 
L 270.565724 52.241786 
L 270.722485 52.130892 
L 270.833344 52.053483 
L 270.992715 51.942588 
L 271.103128 51.872573 
L 271.26048 51.761678 
L 271.370905 51.686009 
L 271.539241 51.575115 
L 271.650155 51.500316 
L 271.798995 51.389421 
L 271.909607 51.32245 
L 272.094793 51.211555 
L 272.205699 51.145888 
L 272.359457 51.034994 
L 272.470332 50.961934 
L 272.653613 50.85104 
L 272.764201 50.784503 
L 272.931762 50.673609 
L 273.042726 50.601853 
L 273.210212 50.490959 
L 273.321026 50.420508 
L 273.499313 50.309614 
L 273.610136 50.241773 
L 273.796283 50.130878 
L 273.906417 50.059993 
L 274.093089 49.949099 
L 274.203986 49.882997 
L 274.404942 49.772102 
L 274.515731 49.704261 
L 274.69751 49.593367 
L 274.808067 49.525525 
L 275.002231 49.414631 
L 275.112462 49.347225 
L 275.29968 49.23633 
L 275.410699 49.173708 
L 275.606504 49.062813 
L 275.715411 48.999756 
L 275.921285 48.888861 
L 276.032182 48.829717 
L 276.222904 48.718823 
L 276.332938 48.662289 
L 276.52937 48.551394 
L 276.639357 48.478769 
L 276.857368 48.367875 
L 276.967885 48.298729 
L 277.161624 48.187835 
L 277.27256 48.124777 
L 277.466239 48.013883 
L 277.5773 47.957348 
L 277.805602 47.846454 
L 277.916339 47.784266 
L 278.120406 47.673372 
L 278.231039 47.614663 
L 278.431221 47.503768 
L 278.540906 47.447669 
L 278.758138 47.336774 
L 278.868891 47.278066 
L 279.086204 47.167171 
L 279.197138 47.108028 
L 279.415069 46.997133 
L 279.524565 46.939294 
L 279.770198 46.8284 
L 279.880357 46.772735 
L 280.119385 46.661841 
L 280.230356 46.605306 
L 280.462368 46.494412 
L 280.573381 46.438312 
L 280.82061 46.327418 
L 280.931025 46.270449 
L 281.182557 46.159554 
L 281.292255 46.113457 
L 281.506565 46.002563 
L 281.617301 45.947333 
L 281.847102 45.836438 
L 281.95821 45.785992 
L 282.207575 45.675098 
L 282.318182 45.618998 
L 282.573605 45.508104 
L 282.683361 45.462442 
L 282.91421 45.351547 
L 283.024341 45.30545 
L 283.301093 45.194556 
L 283.409281 45.149763 
L 283.651451 45.038868 
L 283.762125 44.991901 
L 284.004682 44.881007 
L 284.115672 44.840998 
L 284.370696 44.730104 
L 284.481201 44.686616 
L 284.726938 44.575721 
L 284.837223 44.533103 
L 285.117505 44.422209 
L 285.228249 44.375242 
L 285.512782 44.264347 
L 285.623113 44.214771 
L 285.904708 44.103876 
L 286.015132 44.060823 
L 286.265779 43.949929 
L 286.376458 43.90818 
L 286.662911 43.797286 
L 286.771754 43.759886 
L 287.059558 43.648992 
L 287.170587 43.615506 
L 287.460903 43.504612 
L 287.571916 43.463298 
L 287.898386 43.352404 
L 288.00874 43.31109 
L 288.306971 43.200196 
L 288.41747 43.157143 
L 288.739873 43.046248 
L 288.84781 43.007979 
L 289.167607 42.897084 
L 289.276566 42.85751 
L 289.655716 42.746616 
L 289.766322 42.698779 
L 290.124785 42.587885 
L 290.23554 42.547441 
L 290.579406 42.436547 
L 290.690338 42.398712 
L 291.037335 42.287818 
L 291.147843 42.245199 
L 291.500153 42.134305 
L 291.610956 42.096905 
L 291.98425 41.986011 
L 292.094294 41.952525 
L 292.528813 41.841631 
L 292.638608 41.808145 
L 293.0497 41.697251 
L 293.157728 41.667244 
L 293.535219 41.556349 
L 293.64511 41.521994 
L 294.038918 41.4111 
L 294.144992 41.382832 
L 294.550509 41.271938 
L 294.661593 41.238887 
L 295.044098 41.127993 
L 295.155137 41.097986 
L 295.590987 40.987092 
L 295.700877 40.959259 
L 296.158541 40.848365 
L 296.268319 40.825751 
L 296.738826 40.714857 
L 296.849883 40.683545 
L 297.336623 40.572651 
L 297.445574 40.545688 
L 297.912598 40.434794 
L 298.022193 40.407831 
L 298.516425 40.296937 
L 298.622183 40.269105 
L 299.108631 40.15821 
L 299.219566 40.131248 
L 299.726651 40.020353 
L 299.835995 39.993826 
L 300.345015 39.882931 
L 300.454503 39.863362 
L 300.931329 39.752467 
L 301.041986 39.727244 
L 301.598838 39.61635 
L 301.709591 39.593736 
L 302.214951 39.482842 
L 302.32605 39.462402 
L 302.924651 39.351508 
L 303.03285 39.332373 
L 303.643972 39.221479 
L 303.754922 39.204518 
L 304.383231 39.093624 
L 304.493078 39.07014 
L 305.172454 38.959246 
L 305.283309 38.941416 
L 305.929743 38.830522 
L 306.040205 38.811822 
L 306.729612 38.700927 
L 306.83861 38.683532 
L 307.542246 38.572638 
L 307.640713 38.553938 
L 308.33978 38.443044 
L 308.450648 38.424779 
L 309.203736 38.313884 
L 309.312704 38.294315 
L 310.114026 38.18342 
L 310.219548 38.168634 
L 311.072363 38.05774 
L 311.177539 38.044259 
L 311.966428 37.933364 
L 312.076161 37.916404 
L 312.844905 37.805509 
L 312.952524 37.788984 
L 313.839368 37.67809 
L 313.948726 37.665478 
L 314.911088 37.554584 
L 315.01545 37.541102 
L 315.831801 37.430208 
L 315.942125 37.412378 
L 316.888071 37.301484 
L 316.993624 37.285393 
L 318.042348 37.174499 
L 318.146156 37.160148 
L 319.235075 37.049253 
L 319.340089 37.043165 
L 320.443825 36.93227 
L 320.544772 36.918354 
L 321.747443 36.80746 
L 321.854833 36.793979 
L 322.992886 36.683084 
L 323.090258 36.672647 
L 324.364193 36.561753 
L 324.47307 36.55262 
L 325.938273 36.441726 
L 326.04885 36.433898 
L 327.454675 36.323004 
L 327.560781 36.311697 
L 329.233551 36.200802 
L 329.339155 36.19167 
L 331.067264 36.080775 
L 331.170362 36.071643 
L 333.03868 35.960748 
L 333.143121 35.952921 
L 335.095964 35.842026 
L 335.199139 35.833329 
L 337.542941 35.722434 
L 337.649973 35.716346 
L 340.230505 35.605452 
L 340.330286 35.600668 
L 343.070591 35.489773 
L 343.149124 35.48586 
L 346.292615 35.374965 
L 346.391994 35.369747 
L 349.95223 35.258852 
L 350.061925 35.254938 
L 353.832513 35.144044 
L 353.916663 35.141435 
L 359.116941 35.03054 
L 359.214964 35.027061 
L 366.36 34.916167 
L 366.42926 34.914427 
L 375.817596 34.803533 
L 375.905754 34.801358 
L 388.814206 34.700901 
L 388.814206 34.700466 
" style="fill:none;stroke:#dd8452;stroke-linecap:round;stroke-width:1.5;"/>
   </g>
   <g id="line2d_14">
    <path clip-path="url(#p34ce7bc3bd)" d="M 161.415273 252 
L 161.415273 251.78256 
L 170.888244 251.78256 
L 170.888244 251.56512 
L 177.565006 251.56512 
L 177.565006 251.34768 
L 178.103143 251.34768 
L 178.103143 251.13024 
L 180.500159 251.13024 
L 180.500159 250.9128 
L 180.774665 250.9128 
L 180.774665 250.69536 
L 181.495142 250.69536 
L 181.495142 250.47792 
L 181.874003 250.47792 
L 181.874003 250.26048 
L 182.97273 250.26048 
L 183.004982 249.8256 
L 183.431773 249.8256 
L 183.43645 249.39072 
L 184.91302 249.39072 
L 184.91302 249.17328 
L 185.124532 249.17328 
L 185.124532 248.95584 
L 185.27051 248.95584 
L 185.27051 248.7384 
L 185.500754 248.7384 
L 185.500754 248.52096 
L 186.053241 248.52096 
L 186.053241 248.30352 
L 186.844754 248.30352 
L 186.844754 248.08608 
L 187.119715 248.08608 
L 187.119715 247.86864 
L 187.320076 247.86864 
L 187.320076 247.6512 
L 187.740897 247.6512 
L 187.746443 247.21632 
L 188.50961 247.21632 
L 188.50961 246.99888 
L 188.714888 246.99888 
L 188.714888 246.78144 
L 188.87147 246.78144 
L 188.92424 246.34656 
L 189.162946 246.34656 
L 189.163361 245.91168 
L 189.486068 245.91168 
L 189.534974 245.4768 
L 190.78745 245.4768 
L 190.872596 245.04192 
L 190.998727 245.04192 
L 190.998727 244.82448 
L 191.415888 244.82448 
L 191.415888 244.60704 
L 192.157154 244.60704 
L 192.168879 244.17216 
L 192.365661 244.17216 
L 192.365661 243.95472 
L 192.962736 243.95472 
L 192.962736 243.73728 
L 193.182467 243.73728 
L 193.2532 243.3024 
L 193.43383 243.3024 
L 193.512228 242.86752 
L 193.63496 242.86752 
L 193.63496 242.65008 
L 193.881738 242.65008 
L 193.949069 241.78032 
L 194.492166 241.78032 
L 194.492166 241.56288 
L 194.814491 241.56288 
L 194.814491 241.34544 
L 194.985226 241.34544 
L 194.985226 241.128 
L 195.161446 241.128 
L 195.161446 240.91056 
L 195.332344 240.91056 
L 195.35595 240.25824 
L 195.534715 240.25824 
L 195.587857 239.82336 
L 195.707883 239.82336 
L 195.707883 239.60592 
L 195.848035 239.60592 
L 195.848035 239.38848 
L 195.995159 239.38848 
L 195.995159 239.17104 
L 196.243906 239.17104 
L 196.243906 238.9536 
L 196.478774 238.9536 
L 196.478774 238.73616 
L 196.630333 238.73616 
L 196.723335 238.30128 
L 196.926636 238.30128 
L 196.960763 237.8664 
L 197.17659 237.8664 
L 197.17659 237.64896 
L 197.356164 237.64896 
L 197.424591 237.21408 
L 197.539912 237.21408 
L 197.548315 236.7792 
L 197.696139 236.7792 
L 197.696139 236.56176 
L 198.004271 236.56176 
L 198.004271 236.34432 
L 198.161908 236.34432 
L 198.161908 236.12688 
L 198.450485 236.12688 
L 198.450485 235.90944 
L 198.621825 235.90944 
L 198.720056 235.25712 
L 198.743818 235.25712 
L 198.788198 234.6048 
L 198.899677 234.6048 
L 198.899677 234.38736 
L 199.102848 234.38736 
L 199.179077 233.95248 
L 199.386785 233.95248 
L 199.495342 233.08272 
L 199.513784 233.08272 
L 199.569853 232.64784 
L 199.63544 232.64784 
L 199.738682 232.21296 
L 199.832199 232.21296 
L 199.863343 231.77808 
L 200.138732 231.77808 
L 200.159328 231.12576 
L 200.310828 231.12576 
L 200.375508 230.69088 
L 200.457742 230.69088 
L 200.563682 230.256 
L 200.615059 230.256 
L 200.615059 230.03856 
L 200.768533 230.03856 
L 200.768533 229.82112 
L 200.903664 229.82112 
L 200.956374 229.38624 
L 201.172621 229.38624 
L 201.172621 229.1688 
L 201.302519 229.1688 
L 201.302519 228.95136 
L 201.442654 228.95136 
L 201.523659 228.29904 
L 201.563094 228.29904 
L 201.582734 227.86416 
L 201.722529 227.86416 
L 201.722529 227.64672 
L 201.967646 227.64672 
L 201.967646 227.42928 
L 202.176621 227.42928 
L 202.176621 227.21184 
L 202.316793 227.21184 
L 202.385638 226.77696 
L 202.564141 226.77696 
L 202.577286 226.34208 
L 202.71468 226.34208 
L 202.820087 225.47232 
L 202.858537 225.47232 
L 202.858537 225.25488 
L 203.015167 225.25488 
L 203.062397 224.60256 
L 203.261483 224.60256 
L 203.307 224.16768 
L 203.380025 224.16768 
L 203.482466 223.08048 
L 203.688381 223.08048 
L 203.751121 222.6456 
L 203.865542 222.6456 
L 203.934971 221.99328 
L 204.001348 221.99328 
L 204.046525 221.34096 
L 204.15439 221.34096 
L 204.191959 220.68864 
L 204.390923 220.68864 
L 204.431341 220.03632 
L 204.552118 220.03632 
L 204.582872 219.60144 
L 204.738038 219.60144 
L 204.835654 218.73168 
L 204.88191 218.73168 
L 204.926365 218.07936 
L 204.995328 218.07936 
L 204.995328 217.86192 
L 205.20839 217.86192 
L 205.296703 217.2096 
L 205.504876 217.2096 
L 205.526026 216.77472 
L 205.743495 216.77472 
L 205.766372 216.33984 
L 205.886974 216.33984 
L 205.971663 215.68752 
L 206.085182 215.68752 
L 206.154278 214.81776 
L 206.221162 214.81776 
L 206.221162 214.60032 
L 206.352344 214.60032 
L 206.450776 213.51312 
L 206.496033 213.51312 
L 206.603285 212.64336 
L 206.640918 212.64336 
L 206.7231 212.20848 
L 206.765937 212.20848 
L 206.852639 211.33872 
L 206.938311 211.33872 
L 207.008039 210.90384 
L 207.050124 210.90384 
L 207.1462 209.81664 
L 207.193064 209.81664 
L 207.193064 209.5992 
L 207.401563 209.5992 
L 207.502062 208.512 
L 207.518796 208.512 
L 207.518796 208.29456 
L 207.852423 208.29456 
L 207.926299 207.20736 
L 207.990171 207.20736 
L 208.050919 206.55504 
L 208.121222 206.55504 
L 208.168894 206.12016 
L 208.574397 206.12016 
L 208.676994 204.81552 
L 208.702368 204.81552 
L 208.765412 203.94576 
L 209.082187 203.94576 
L 209.154261 203.076 
L 209.219668 203.076 
L 209.323543 202.42368 
L 209.416801 202.42368 
L 209.527872 201.9888 
L 209.683774 201.9888 
L 209.710722 201.33648 
L 209.830216 201.33648 
L 209.939104 199.37952 
L 209.94162 199.37952 
L 209.96664 198.94464 
L 210.064767 198.94464 
L 210.144313 197.85744 
L 210.279704 197.85744 
L 210.311583 196.98768 
L 210.41617 196.98768 
L 210.441226 196.5528 
L 210.603015 196.5528 
L 210.64504 196.11792 
L 210.82413 196.11792 
L 210.876067 195.68304 
L 210.942296 195.68304 
L 211.038633 195.03072 
L 211.138206 195.03072 
L 211.176578 194.59584 
L 211.365653 194.59584 
L 211.378826 194.16096 
L 211.488074 194.16096 
L 211.59309 192.63888 
L 211.635571 192.63888 
L 211.707131 192.204 
L 211.826815 192.204 
L 211.931907 191.55168 
L 212.007795 191.55168 
L 212.097482 190.68192 
L 212.132744 190.68192 
L 212.193418 190.0296 
L 212.248605 190.0296 
L 212.293321 189.59472 
L 212.364375 189.59472 
L 212.364375 189.37728 
L 212.505791 189.37728 
L 212.505791 189.15984 
L 212.686078 189.15984 
L 212.756106 188.72496 
L 212.89078 188.72496 
L 212.992983 188.07264 
L 213.044783 188.07264 
L 213.106871 187.42032 
L 213.201221 187.42032 
L 213.201221 187.20288 
L 213.405015 187.20288 
L 213.507862 186.55056 
L 213.558146 186.55056 
L 213.641464 185.89824 
L 213.66948 185.89824 
L 213.757461 185.24592 
L 213.932646 185.24592 
L 214.037104 183.94128 
L 214.061193 183.94128 
L 214.142115 183.07152 
L 214.195137 183.07152 
L 214.281553 182.20176 
L 214.341189 182.20176 
L 214.376412 181.332 
L 214.459958 181.332 
L 214.567495 180.46224 
L 214.694166 180.46224 
L 214.795409 179.1576 
L 214.8257 179.1576 
L 214.911905 178.28784 
L 215.003377 178.28784 
L 215.003377 178.0704 
L 215.211069 178.0704 
L 215.319331 177.41808 
L 215.335157 177.41808 
L 215.445688 176.54832 
L 215.458755 176.54832 
L 215.465901 176.11344 
L 215.585018 176.11344 
L 215.690604 175.46112 
L 215.828287 175.46112 
L 215.921805 174.8088 
L 215.95001 174.8088 
L 216.023064 173.7216 
L 216.140246 173.7216 
L 216.234934 172.6344 
L 216.337121 172.6344 
L 216.402842 171.32976 
L 216.457279 171.32976 
L 216.5372 170.67744 
L 216.605887 170.67744 
L 216.640412 170.24256 
L 216.758588 170.24256 
L 216.86378 168.93792 
L 216.87501 168.93792 
L 216.87501 168.72048 
L 217.054061 168.72048 
L 217.162016 167.41584 
L 217.175408 167.41584 
L 217.220478 166.32864 
L 217.28701 166.32864 
L 217.379442 165.45888 
L 217.402505 165.45888 
L 217.511016 164.15424 
L 217.598096 164.15424 
L 217.695452 163.28448 
L 217.751881 163.28448 
L 217.859205 162.63216 
L 217.8696 162.63216 
L 217.975887 162.19728 
L 217.980928 162.19728 
L 218.019571 161.54496 
L 218.094194 161.54496 
L 218.16758 160.6752 
L 218.239202 160.6752 
L 218.324311 159.588 
L 218.373783 159.588 
L 218.467205 159.15312 
L 218.57798 159.15312 
L 218.659489 158.06592 
L 218.68913 158.06592 
L 218.773599 157.63104 
L 218.833614 157.63104 
L 218.938835 156.54384 
L 218.986389 156.54384 
L 219.065432 155.45664 
L 219.143175 155.45664 
L 219.254272 154.80432 
L 219.261968 154.80432 
L 219.345072 154.152 
L 219.381663 154.152 
L 219.454751 153.0648 
L 219.510634 153.0648 
L 219.571147 152.62992 
L 219.624091 152.62992 
L 219.720714 151.54272 
L 219.744819 151.54272 
L 219.744819 151.32528 
L 219.888643 151.32528 
L 219.888643 151.10784 
L 220.016072 151.10784 
L 220.087083 150.45552 
L 220.140932 150.45552 
L 220.169392 150.02064 
L 220.310055 150.02064 
L 220.383266 149.36832 
L 220.440524 149.36832 
L 220.440524 149.15088 
L 220.559403 149.15088 
L 220.645419 148.06368 
L 220.704892 148.06368 
L 220.772741 146.97648 
L 220.849355 146.97648 
L 220.875073 146.32416 
L 221.011563 146.32416 
L 221.011563 146.10672 
L 221.454337 146.10672 
L 221.454337 145.88928 
L 221.570318 145.88928 
L 221.625159 145.01952 
L 221.68752 145.01952 
L 221.7481 144.3672 
L 221.929036 144.3672 
L 221.970698 143.71488 
L 222.107727 143.71488 
L 222.217602 142.1928 
L 222.24666 142.1928 
L 222.318501 141.75792 
L 222.376768 141.75792 
L 222.430386 140.67072 
L 222.538408 140.67072 
L 222.641112 140.0184 
L 222.665051 140.0184 
L 222.68799 139.58352 
L 222.794162 139.58352 
L 222.899551 138.27888 
L 222.927391 138.27888 
L 223.027943 137.62656 
L 223.038968 137.62656 
L 223.103952 136.7568 
L 223.151652 136.7568 
L 223.236847 135.23472 
L 223.264162 135.23472 
L 223.369377 134.5824 
L 223.393998 134.5824 
L 223.489384 133.93008 
L 223.50576 133.93008 
L 223.588031 132.84288 
L 223.635801 132.84288 
L 223.736851 131.53824 
L 223.774206 131.53824 
L 223.850812 130.66848 
L 223.887029 130.66848 
L 223.956507 130.2336 
L 224.000974 130.2336 
L 224.084702 129.36384 
L 224.149584 129.36384 
L 224.250307 128.92896 
L 224.30696 128.92896 
L 224.408442 128.0592 
L 224.506782 128.0592 
L 224.538996 127.18944 
L 224.723721 127.18944 
L 224.774958 126.75456 
L 224.84532 126.75456 
L 224.924775 126.31968 
L 224.997279 126.31968 
L 225.085555 125.44992 
L 225.261335 125.44992 
L 225.334782 124.36272 
L 225.409316 124.36272 
L 225.490502 123.27552 
L 225.527963 123.27552 
L 225.627823 122.6232 
L 225.669801 122.6232 
L 225.777882 121.75344 
L 225.81305 121.75344 
L 225.899312 120.88368 
L 225.935124 120.88368 
L 225.999487 120.23136 
L 226.065155 120.23136 
L 226.102502 119.79648 
L 226.193869 119.79648 
L 226.239635 119.3616 
L 226.391766 119.3616 
L 226.446197 118.92672 
L 226.539404 118.92672 
L 226.553891 118.05696 
L 226.71345 118.05696 
L 226.788323 116.75232 
L 226.860455 116.75232 
L 226.950598 116.1 
L 226.975223 116.1 
L 227.015361 115.66512 
L 227.100965 115.66512 
L 227.19598 114.57792 
L 227.227337 114.57792 
L 227.238286 114.14304 
L 227.354685 114.14304 
L 227.464539 112.40352 
L 227.515494 112.40352 
L 227.621191 111.7512 
L 227.829733 111.7512 
L 227.899264 110.664 
L 227.967658 110.664 
L 228.02599 110.01168 
L 228.10816 110.01168 
L 228.177936 108.92448 
L 228.255168 108.92448 
L 228.320489 108.05472 
L 228.375047 108.05472 
L 228.482699 107.61984 
L 228.537663 107.61984 
L 228.647952 106.75008 
L 228.697164 106.75008 
L 228.786628 106.09776 
L 228.865863 106.09776 
L 228.968183 105.01056 
L 229.032545 105.01056 
L 229.102227 104.1408 
L 229.185843 104.1408 
L 229.29397 103.48848 
L 229.304938 103.48848 
L 229.39519 102.83616 
L 229.478348 102.83616 
L 229.584434 101.9664 
L 229.600704 101.9664 
L 229.699506 100.8792 
L 229.761788 100.8792 
L 229.843412 100.22688 
L 229.968608 100.22688 
L 230.077654 99.57456 
L 230.1768 99.57456 
L 230.250129 98.48736 
L 230.317101 98.48736 
L 230.36696 97.18272 
L 230.510001 97.18272 
L 230.567178 96.31296 
L 230.630551 96.31296 
L 230.630551 96.09552 
L 230.782566 96.09552 
L 230.853399 95.66064 
L 230.99023 95.66064 
L 231.091133 94.79088 
L 231.158924 94.79088 
L 231.196584 94.356 
L 231.316716 94.356 
L 231.392811 93.70368 
L 231.481199 93.70368 
L 231.585128 92.61648 
L 231.599919 92.61648 
L 231.599919 92.39904 
L 231.776788 92.39904 
L 231.836464 91.52928 
L 232.022412 91.52928 
L 232.117316 90.44208 
L 232.162294 90.44208 
L 232.252949 89.35488 
L 232.300048 89.35488 
L 232.407871 88.70256 
L 232.417806 88.70256 
L 232.521651 87.8328 
L 232.595326 87.8328 
L 232.664392 86.7456 
L 232.719491 86.7456 
L 232.823766 85.87584 
L 232.874287 85.87584 
L 232.893624 85.44096 
L 233.080813 85.44096 
L 233.166037 84.78864 
L 233.238237 84.78864 
L 233.31197 83.70144 
L 233.362299 83.70144 
L 233.449114 82.83168 
L 233.489596 82.83168 
L 233.564101 81.96192 
L 233.63778 81.96192 
L 233.664746 81.3096 
L 233.769384 81.3096 
L 233.769384 81.09216 
L 233.908361 81.09216 
L 233.991595 80.65728 
L 234.076918 80.65728 
L 234.162461 80.2224 
L 234.190522 80.2224 
L 234.190522 80.00496 
L 234.454174 80.00496 
L 234.548369 78.91776 
L 234.611286 78.91776 
L 234.615212 78.48288 
L 234.724773 78.48288 
L 234.768394 78.048 
L 234.864308 78.048 
L 234.968544 76.9608 
L 235.032612 76.9608 
L 235.131274 76.30848 
L 235.322526 76.30848 
L 235.400474 75.8736 
L 235.446064 75.8736 
L 235.446064 75.65616 
L 235.601303 75.65616 
L 235.661446 75.22128 
L 235.747893 75.22128 
L 235.842647 74.56896 
L 235.866414 74.56896 
L 235.866414 74.35152 
L 236.024439 74.35152 
L 236.10785 73.91664 
L 236.150068 73.91664 
L 236.251278 73.04688 
L 236.348147 73.04688 
L 236.456519 72.39456 
L 236.46136 72.39456 
L 236.559664 71.74224 
L 236.595016 71.74224 
L 236.683264 71.30736 
L 236.764157 71.30736 
L 236.869746 70.65504 
L 236.875407 70.65504 
L 236.875407 70.4376 
L 237.107871 70.4376 
L 237.164147 69.78528 
L 237.223189 69.78528 
L 237.275085 69.3504 
L 237.336956 69.3504 
L 237.408877 68.69808 
L 237.481639 68.69808 
L 237.55854 68.04576 
L 237.641279 68.04576 
L 237.691673 67.39344 
L 237.887238 67.39344 
L 237.905635 66.74112 
L 238.001677 66.74112 
L 238.100347 65.65392 
L 238.178827 65.65392 
L 238.278982 65.0016 
L 238.290962 65.0016 
L 238.396251 63.9144 
L 238.539772 63.9144 
L 238.60034 63.47952 
L 238.74666 63.47952 
L 238.826551 62.8272 
L 238.907143 62.8272 
L 238.951361 62.17488 
L 239.15689 62.17488 
L 239.256757 61.74 
L 239.374725 61.74 
L 239.380759 61.30512 
L 239.535882 61.30512 
L 239.577131 60.6528 
L 239.667998 60.6528 
L 239.667998 60.43536 
L 239.802688 60.43536 
L 239.802688 60.21792 
L 239.958137 60.21792 
L 240.069151 59.5656 
L 240.102595 59.5656 
L 240.147026 58.91328 
L 240.365364 58.91328 
L 240.389717 58.4784 
L 240.495386 58.4784 
L 240.560604 58.04352 
L 240.636169 58.04352 
L 240.711996 57.60864 
L 240.789783 57.60864 
L 240.831045 56.95632 
L 241.017498 56.95632 
L 241.121604 56.304 
L 241.25416 56.304 
L 241.334609 55.86912 
L 241.889225 55.86912 
L 241.889225 55.65168 
L 242.028129 55.65168 
L 242.126996 55.2168 
L 242.181222 55.2168 
L 242.211767 54.78192 
L 242.34372 54.78192 
L 242.39005 54.34704 
L 242.520982 54.34704 
L 242.582417 53.69472 
L 242.72235 53.69472 
L 242.779879 53.25984 
L 242.882085 53.25984 
L 242.882085 53.0424 
L 243.223151 53.0424 
L 243.230951 52.60752 
L 243.3787 52.60752 
L 243.3787 52.39008 
L 243.492994 52.39008 
L 243.492994 52.17264 
L 243.660283 52.17264 
L 243.749868 51.73776 
L 243.802451 51.73776 
L 243.802451 51.52032 
L 243.942897 51.52032 
L 244.018457 51.08544 
L 244.363466 51.08544 
L 244.448529 50.65056 
L 244.576969 50.65056 
L 244.611077 50.21568 
L 244.918056 50.21568 
L 244.965488 49.56336 
L 245.082146 49.56336 
L 245.131156 49.12848 
L 245.290895 49.12848 
L 245.290895 48.91104 
L 245.471063 48.91104 
L 245.555808 48.47616 
L 246.003251 48.47616 
L 246.038106 48.04128 
L 246.118541 48.04128 
L 246.227437 47.38896 
L 246.349006 47.38896 
L 246.349006 47.17152 
L 246.566296 47.17152 
L 246.649913 46.5192 
L 246.85056 46.5192 
L 246.85056 46.30176 
L 247.110579 46.30176 
L 247.110579 46.08432 
L 247.855763 46.08432 
L 247.855763 45.86688 
L 248.000583 45.86688 
L 248.010927 45.432 
L 248.168987 45.432 
L 248.168987 45.21456 
L 248.823234 45.21456 
L 248.900426 44.3448 
L 248.95961 44.3448 
L 248.95961 44.12736 
L 249.252859 44.12736 
L 249.252859 43.90992 
L 249.583233 43.90992 
L 249.621807 43.47504 
L 249.962082 43.47504 
L 249.996299 43.04016 
L 250.0945 43.04016 
L 250.176486 42.60528 
L 250.278319 42.60528 
L 250.278319 42.38784 
L 250.406581 42.38784 
L 250.423907 41.95296 
L 250.718644 41.95296 
L 250.718644 41.73552 
L 251.146698 41.73552 
L 251.146698 41.51808 
L 251.624357 41.51808 
L 251.70179 41.0832 
L 251.781474 41.0832 
L 251.781474 40.86576 
L 252.123116 40.86576 
L 252.123116 40.64832 
L 252.358714 40.64832 
L 252.358714 40.43088 
L 252.546484 40.43088 
L 252.546484 40.21344 
L 252.700516 40.21344 
L 252.700516 39.996 
L 253.532824 39.996 
L 253.532824 39.77856 
L 253.697466 39.77856 
L 253.697466 39.56112 
L 254.410023 39.56112 
L 254.410023 39.34368 
L 254.817647 39.34368 
L 254.912707 38.9088 
L 255.058995 38.9088 
L 255.058995 38.69136 
L 255.467535 38.69136 
L 255.467535 38.47392 
L 255.859627 38.47392 
L 255.859627 38.25648 
L 256.036851 38.25648 
L 256.036851 38.03904 
L 256.50506 38.03904 
L 256.50506 37.8216 
L 256.827225 37.8216 
L 256.827225 37.60416 
L 260.470291 37.60416 
L 260.470291 37.38672 
L 260.74571 37.38672 
L 260.74571 37.16928 
L 261.104394 37.16928 
L 261.184789 36.7344 
L 261.338547 36.7344 
L 261.338547 36.51696 
L 261.79263 36.51696 
L 261.79263 36.29952 
L 265.114686 36.29952 
L 265.114686 36.08208 
L 265.519303 36.08208 
L 265.603523 35.6472 
L 266.597963 35.6472 
L 266.597963 35.42976 
L 267.03183 35.42976 
L 267.03183 35.21232 
L 268.784368 35.21232 
L 268.880452 34.77744 
L 296.898697 34.77744 
L 296.898697 34.56 
L 296.898697 34.56 
" style="fill:none;stroke:#55a868;stroke-linecap:round;stroke-width:1.5;"/>
   </g>
   <g id="patch_3">
    <path d="M 54 252 
L 54 34.56 
" style="fill:none;stroke:#ffffff;stroke-linecap:square;stroke-linejoin:miter;stroke-width:1.25;"/>
   </g>
   <g id="patch_4">
    <path d="M 388.8 252 
L 388.8 34.56 
" style="fill:none;stroke:#ffffff;stroke-linecap:square;stroke-linejoin:miter;stroke-width:1.25;"/>
   </g>
   <g id="patch_5">
    <path d="M 54 252 
L 388.8 252 
" style="fill:none;stroke:#ffffff;stroke-linecap:square;stroke-linejoin:miter;stroke-width:1.25;"/>
   </g>
   <g id="patch_6">
    <path d="M 54 34.56 
L 388.8 34.56 
" style="fill:none;stroke:#ffffff;stroke-linecap:square;stroke-linejoin:miter;stroke-width:1.25;"/>
   </g>
   <g id="legend_1">
    <g id="patch_7">
     <path d="M 64.78 112.231344 
L 187.672 112.231344 
Q 190.752 112.231344 190.752 109.151344 
L 190.752 45.34 
Q 190.752 42.26 187.672 42.26 
L 64.78 42.26 
Q 61.7 42.26 61.7 45.34 
L 61.7 109.151344 
Q 61.7 112.231344 64.78 112.231344 
z
" style="fill:#eaeaf2;opacity:0.8;stroke:#cccccc;stroke-linejoin:miter;"/>
    </g>
    <g id="line2d_15">
     <path d="M 67.86 54.053031 
L 98.66 54.053031 
" style="fill:none;stroke:#4c72b0;stroke-linecap:round;stroke-width:1.5;"/>
    </g>
    <g id="line2d_16"/>
    <g id="text_13">
     <!-- Prior $s=1$ -->
     <g style="fill:#262626;" transform="translate(110.98 59.443031)scale(0.154 -0.154)">
      <defs>
       <path id="ArialMT-20" transform="scale(0.015625)"/>
       <path d="M 3200 3397 
L 3091 2853 
Q 2863 2978 2609 3040 
Q 2356 3103 2088 3103 
Q 1634 3103 1373 2948 
Q 1113 2794 1113 2528 
Q 1113 2219 1719 2053 
Q 1766 2041 1788 2034 
L 1972 1978 
Q 2547 1819 2739 1644 
Q 2931 1469 2931 1166 
Q 2931 609 2489 259 
Q 2047 -91 1331 -91 
Q 1053 -91 747 -37 
Q 441 16 72 128 
L 184 722 
Q 500 559 806 475 
Q 1113 391 1394 391 
Q 1816 391 2080 572 
Q 2344 753 2344 1031 
Q 2344 1331 1650 1516 
L 1591 1531 
L 1394 1581 
Q 956 1697 753 1886 
Q 550 2075 550 2369 
Q 550 2928 970 3256 
Q 1391 3584 2113 3584 
Q 2397 3584 2667 3537 
Q 2938 3491 3200 3397 
z
" id="DejaVuSans-Oblique-73" transform="scale(0.015625)"/>
       <path d="M 678 2906 
L 4684 2906 
L 4684 2381 
L 678 2381 
L 678 2906 
z
M 678 1631 
L 4684 1631 
L 4684 1100 
L 678 1100 
L 678 1631 
z
" id="DejaVuSans-3d" transform="scale(0.015625)"/>
       <path d="M 794 531 
L 1825 531 
L 1825 4091 
L 703 3866 
L 703 4441 
L 1819 4666 
L 2450 4666 
L 2450 531 
L 3481 531 
L 3481 0 
L 794 0 
L 794 531 
z
" id="DejaVuSans-31" transform="scale(0.015625)"/>
      </defs>
      <use transform="translate(0 0.09375)" xlink:href="#ArialMT-50"/>
      <use transform="translate(66.699219 0.09375)" xlink:href="#ArialMT-72"/>
      <use transform="translate(100 0.09375)" xlink:href="#ArialMT-69"/>
      <use transform="translate(122.216797 0.09375)" xlink:href="#ArialMT-6f"/>
      <use transform="translate(177.832031 0.09375)" xlink:href="#ArialMT-72"/>
      <use transform="translate(211.132812 0.09375)" xlink:href="#ArialMT-20"/>
      <use transform="translate(238.916016 0.09375)" xlink:href="#DejaVuSans-Oblique-73"/>
      <use transform="translate(310.498047 0.09375)" xlink:href="#DejaVuSans-3d"/>
      <use transform="translate(413.769531 0.09375)" xlink:href="#DejaVuSans-31"/>
     </g>
    </g>
    <g id="line2d_17">
     <path d="M 67.86 75.836812 
L 98.66 75.836812 
" style="fill:none;stroke:#dd8452;stroke-linecap:round;stroke-width:1.5;"/>
    </g>
    <g id="line2d_18"/>
    <g id="text_14">
     <!-- Prior $s=5$ -->
     <g style="fill:#262626;" transform="translate(110.98 81.226812)scale(0.154 -0.154)">
      <defs>
       <path d="M 691 4666 
L 3169 4666 
L 3169 4134 
L 1269 4134 
L 1269 2991 
Q 1406 3038 1543 3061 
Q 1681 3084 1819 3084 
Q 2600 3084 3056 2656 
Q 3513 2228 3513 1497 
Q 3513 744 3044 326 
Q 2575 -91 1722 -91 
Q 1428 -91 1123 -41 
Q 819 9 494 109 
L 494 744 
Q 775 591 1075 516 
Q 1375 441 1709 441 
Q 2250 441 2565 725 
Q 2881 1009 2881 1497 
Q 2881 1984 2565 2268 
Q 2250 2553 1709 2553 
Q 1456 2553 1204 2497 
Q 953 2441 691 2322 
L 691 4666 
z
" id="DejaVuSans-35" transform="scale(0.015625)"/>
      </defs>
      <use transform="translate(0 0.09375)" xlink:href="#ArialMT-50"/>
      <use transform="translate(66.699219 0.09375)" xlink:href="#ArialMT-72"/>
      <use transform="translate(100 0.09375)" xlink:href="#ArialMT-69"/>
      <use transform="translate(122.216797 0.09375)" xlink:href="#ArialMT-6f"/>
      <use transform="translate(177.832031 0.09375)" xlink:href="#ArialMT-72"/>
      <use transform="translate(211.132812 0.09375)" xlink:href="#ArialMT-20"/>
      <use transform="translate(238.916016 0.09375)" xlink:href="#DejaVuSans-Oblique-73"/>
      <use transform="translate(310.498047 0.09375)" xlink:href="#DejaVuSans-3d"/>
      <use transform="translate(413.769531 0.09375)" xlink:href="#DejaVuSans-35"/>
     </g>
    </g>
    <g id="line2d_19">
     <path d="M 67.86 97.620594 
L 98.66 97.620594 
" style="fill:none;stroke:#55a868;stroke-linecap:round;stroke-width:1.5;"/>
    </g>
    <g id="line2d_20"/>
    <g id="text_15">
     <!-- Data -->
     <g style="fill:#262626;" transform="translate(110.98 103.010594)scale(0.154 -0.154)">
      <defs>
       <path d="M 494 0 
L 494 4581 
L 2072 4581 
Q 2606 4581 2888 4516 
Q 3281 4425 3559 4188 
Q 3922 3881 4101 3404 
Q 4281 2928 4281 2316 
Q 4281 1794 4159 1391 
Q 4038 988 3847 723 
Q 3656 459 3429 307 
Q 3203 156 2883 78 
Q 2563 0 2147 0 
L 494 0 
z
M 1100 541 
L 2078 541 
Q 2531 541 2789 625 
Q 3047 709 3200 863 
Q 3416 1078 3536 1442 
Q 3656 1806 3656 2325 
Q 3656 3044 3420 3430 
Q 3184 3816 2847 3947 
Q 2603 4041 2063 4041 
L 1100 4041 
L 1100 541 
z
" id="ArialMT-44" transform="scale(0.015625)"/>
       <path d="M 2588 409 
Q 2275 144 1986 34 
Q 1697 -75 1366 -75 
Q 819 -75 525 192 
Q 231 459 231 875 
Q 231 1119 342 1320 
Q 453 1522 633 1644 
Q 813 1766 1038 1828 
Q 1203 1872 1538 1913 
Q 2219 1994 2541 2106 
Q 2544 2222 2544 2253 
Q 2544 2597 2384 2738 
Q 2169 2928 1744 2928 
Q 1347 2928 1158 2789 
Q 969 2650 878 2297 
L 328 2372 
Q 403 2725 575 2942 
Q 747 3159 1072 3276 
Q 1397 3394 1825 3394 
Q 2250 3394 2515 3294 
Q 2781 3194 2906 3042 
Q 3031 2891 3081 2659 
Q 3109 2516 3109 2141 
L 3109 1391 
Q 3109 606 3145 398 
Q 3181 191 3288 0 
L 2700 0 
Q 2613 175 2588 409 
z
M 2541 1666 
Q 2234 1541 1622 1453 
Q 1275 1403 1131 1340 
Q 988 1278 909 1158 
Q 831 1038 831 891 
Q 831 666 1001 516 
Q 1172 366 1500 366 
Q 1825 366 2078 508 
Q 2331 650 2450 897 
Q 2541 1088 2541 1459 
L 2541 1666 
z
" id="ArialMT-61" transform="scale(0.015625)"/>
      </defs>
      <use xlink:href="#ArialMT-44"/>
      <use x="72.216797" xlink:href="#ArialMT-61"/>
      <use x="127.832031" xlink:href="#ArialMT-74"/>
      <use x="155.615234" xlink:href="#ArialMT-61"/>
     </g>
    </g>
   </g>
  </g>
 </g>
 <defs>
  <clipPath id="p34ce7bc3bd">
   <rect height="217.44" width="334.8" x="54" y="34.56"/>
  </clipPath>
 </defs>
</svg>
