<?xml version="1.0" encoding="utf-8" standalone="no"?>
<!DOCTYPE svg PUBLIC "-//W3C//DTD SVG 1.1//EN"
  "http://www.w3.org/Graphics/SVG/1.1/DTD/svg11.dtd">
<svg xmlns:xlink="http://www.w3.org/1999/xlink" width="576pt" height="576pt" viewBox="0 0 576 576" xmlns="http://www.w3.org/2000/svg" version="1.1">
 <metadata>
  <rdf:RDF xmlns:dc="http://purl.org/dc/elements/1.1/" xmlns:cc="http://creativecommons.org/ns#" xmlns:rdf="http://www.w3.org/1999/02/22-rdf-syntax-ns#">
   <cc:Work>
    <dc:type rdf:resource="http://purl.org/dc/dcmitype/StillImage"/>
    <dc:date>2022-12-28T13:36:33.714601</dc:date>
    <dc:format>image/svg+xml</dc:format>
    <dc:creator>
     <cc:Agent>
      <dc:title>Matplotlib v3.5.2, https://matplotlib.org/</dc:title>
     </cc:Agent>
    </dc:creator>
   </cc:Work>
  </rdf:RDF>
 </metadata>
 <defs>
  <style type="text/css">*{stroke-linejoin: round; stroke-linecap: butt}</style>
 </defs>
 <g id="figure_1">
  <g id="patch_1">
   <path d="M 0 576 
L 576 576 
L 576 0 
L 0 0 
z
" style="fill: #ffffff"/>
  </g>
  <g id="axes_1">
   <g id="patch_2">
    <path d="M 69.192 235.908 
L 557.856 235.908 
L 557.856 18.144 
L 69.192 18.144 
z
" style="fill: #eaeaf2"/>
   </g>
   <g id="matplotlib.axis_1">
    <g id="xtick_1">
     <g id="text_1">
      <!-- 0.0 -->
      <g style="fill: #262626" transform="translate(80.701 256.431031)scale(0.154 -0.154)">
       <defs>
        <path id="ArialMT-30" d="M 266 2259 
Q 266 3072 433 3567 
Q 600 4063 929 4331 
Q 1259 4600 1759 4600 
Q 2128 4600 2406 4451 
Q 2684 4303 2865 4023 
Q 3047 3744 3150 3342 
Q 3253 2941 3253 2259 
Q 3253 1453 3087 958 
Q 2922 463 2592 192 
Q 2263 -78 1759 -78 
Q 1097 -78 719 397 
Q 266 969 266 2259 
z
M 844 2259 
Q 844 1131 1108 757 
Q 1372 384 1759 384 
Q 2147 384 2411 759 
Q 2675 1134 2675 2259 
Q 2675 3391 2411 3762 
Q 2147 4134 1753 4134 
Q 1366 4134 1134 3806 
Q 844 3388 844 2259 
z
" transform="scale(0.015625)"/>
        <path id="ArialMT-2e" d="M 581 0 
L 581 641 
L 1222 641 
L 1222 0 
L 581 0 
z
" transform="scale(0.015625)"/>
       </defs>
       <use xlink:href="#ArialMT-30"/>
       <use xlink:href="#ArialMT-2e" x="55.615234"/>
       <use xlink:href="#ArialMT-30" x="83.398438"/>
      </g>
     </g>
    </g>
    <g id="xtick_2">
     <g id="text_2">
      <!-- 0.2 -->
      <g style="fill: #262626" transform="translate(125.125 256.431031)scale(0.154 -0.154)">
       <defs>
        <path id="ArialMT-32" d="M 3222 541 
L 3222 0 
L 194 0 
Q 188 203 259 391 
Q 375 700 629 1000 
Q 884 1300 1366 1694 
Q 2113 2306 2375 2664 
Q 2638 3022 2638 3341 
Q 2638 3675 2398 3904 
Q 2159 4134 1775 4134 
Q 1369 4134 1125 3890 
Q 881 3647 878 3216 
L 300 3275 
Q 359 3922 746 4261 
Q 1134 4600 1788 4600 
Q 2447 4600 2831 4234 
Q 3216 3869 3216 3328 
Q 3216 3053 3103 2787 
Q 2991 2522 2730 2228 
Q 2469 1934 1863 1422 
Q 1356 997 1212 845 
Q 1069 694 975 541 
L 3222 541 
z
" transform="scale(0.015625)"/>
       </defs>
       <use xlink:href="#ArialMT-30"/>
       <use xlink:href="#ArialMT-2e" x="55.615234"/>
       <use xlink:href="#ArialMT-32" x="83.398438"/>
      </g>
     </g>
    </g>
    <g id="xtick_3">
     <g id="text_3">
      <!-- 0.4 -->
      <g style="fill: #262626" transform="translate(169.549 256.431031)scale(0.154 -0.154)">
       <defs>
        <path id="ArialMT-34" d="M 2069 0 
L 2069 1097 
L 81 1097 
L 81 1613 
L 2172 4581 
L 2631 4581 
L 2631 1613 
L 3250 1613 
L 3250 1097 
L 2631 1097 
L 2631 0 
L 2069 0 
z
M 2069 1613 
L 2069 3678 
L 634 1613 
L 2069 1613 
z
" transform="scale(0.015625)"/>
       </defs>
       <use xlink:href="#ArialMT-30"/>
       <use xlink:href="#ArialMT-2e" x="55.615234"/>
       <use xlink:href="#ArialMT-34" x="83.398438"/>
      </g>
     </g>
    </g>
    <g id="xtick_4">
     <g id="text_4">
      <!-- 0.6 -->
      <g style="fill: #262626" transform="translate(213.973 256.431031)scale(0.154 -0.154)">
       <defs>
        <path id="ArialMT-36" d="M 3184 3459 
L 2625 3416 
Q 2550 3747 2413 3897 
Q 2184 4138 1850 4138 
Q 1581 4138 1378 3988 
Q 1113 3794 959 3422 
Q 806 3050 800 2363 
Q 1003 2672 1297 2822 
Q 1591 2972 1913 2972 
Q 2475 2972 2870 2558 
Q 3266 2144 3266 1488 
Q 3266 1056 3080 686 
Q 2894 316 2569 119 
Q 2244 -78 1831 -78 
Q 1128 -78 684 439 
Q 241 956 241 2144 
Q 241 3472 731 4075 
Q 1159 4600 1884 4600 
Q 2425 4600 2770 4297 
Q 3116 3994 3184 3459 
z
M 888 1484 
Q 888 1194 1011 928 
Q 1134 663 1356 523 
Q 1578 384 1822 384 
Q 2178 384 2434 671 
Q 2691 959 2691 1453 
Q 2691 1928 2437 2201 
Q 2184 2475 1800 2475 
Q 1419 2475 1153 2201 
Q 888 1928 888 1484 
z
" transform="scale(0.015625)"/>
       </defs>
       <use xlink:href="#ArialMT-30"/>
       <use xlink:href="#ArialMT-2e" x="55.615234"/>
       <use xlink:href="#ArialMT-36" x="83.398438"/>
      </g>
     </g>
    </g>
    <g id="xtick_5">
     <g id="text_5">
      <!-- 0.8 -->
      <g style="fill: #262626" transform="translate(258.397 256.431031)scale(0.154 -0.154)">
       <defs>
        <path id="ArialMT-38" d="M 1131 2484 
Q 781 2613 612 2850 
Q 444 3088 444 3419 
Q 444 3919 803 4259 
Q 1163 4600 1759 4600 
Q 2359 4600 2725 4251 
Q 3091 3903 3091 3403 
Q 3091 3084 2923 2848 
Q 2756 2613 2416 2484 
Q 2838 2347 3058 2040 
Q 3278 1734 3278 1309 
Q 3278 722 2862 322 
Q 2447 -78 1769 -78 
Q 1091 -78 675 323 
Q 259 725 259 1325 
Q 259 1772 486 2073 
Q 713 2375 1131 2484 
z
M 1019 3438 
Q 1019 3113 1228 2906 
Q 1438 2700 1772 2700 
Q 2097 2700 2305 2904 
Q 2513 3109 2513 3406 
Q 2513 3716 2298 3927 
Q 2084 4138 1766 4138 
Q 1444 4138 1231 3931 
Q 1019 3725 1019 3438 
z
M 838 1322 
Q 838 1081 952 856 
Q 1066 631 1291 507 
Q 1516 384 1775 384 
Q 2178 384 2440 643 
Q 2703 903 2703 1303 
Q 2703 1709 2433 1975 
Q 2163 2241 1756 2241 
Q 1359 2241 1098 1978 
Q 838 1716 838 1322 
z
" transform="scale(0.015625)"/>
       </defs>
       <use xlink:href="#ArialMT-30"/>
       <use xlink:href="#ArialMT-2e" x="55.615234"/>
       <use xlink:href="#ArialMT-38" x="83.398438"/>
      </g>
     </g>
    </g>
    <g id="xtick_6">
     <g id="text_6">
      <!-- 1.0 -->
      <g style="fill: #262626" transform="translate(302.821 256.431031)scale(0.154 -0.154)">
       <defs>
        <path id="ArialMT-31" d="M 2384 0 
L 1822 0 
L 1822 3584 
Q 1619 3391 1289 3197 
Q 959 3003 697 2906 
L 697 3450 
Q 1169 3672 1522 3987 
Q 1875 4303 2022 4600 
L 2384 4600 
L 2384 0 
z
" transform="scale(0.015625)"/>
       </defs>
       <use xlink:href="#ArialMT-31"/>
       <use xlink:href="#ArialMT-2e" x="55.615234"/>
       <use xlink:href="#ArialMT-30" x="83.398438"/>
      </g>
     </g>
    </g>
    <g id="xtick_7">
     <g id="text_7">
      <!-- 1.2 -->
      <g style="fill: #262626" transform="translate(347.245 256.431031)scale(0.154 -0.154)">
       <use xlink:href="#ArialMT-31"/>
       <use xlink:href="#ArialMT-2e" x="55.615234"/>
       <use xlink:href="#ArialMT-32" x="83.398438"/>
      </g>
     </g>
    </g>
    <g id="xtick_8">
     <g id="text_8">
      <!-- 1.4 -->
      <g style="fill: #262626" transform="translate(391.669 256.431031)scale(0.154 -0.154)">
       <use xlink:href="#ArialMT-31"/>
       <use xlink:href="#ArialMT-2e" x="55.615234"/>
       <use xlink:href="#ArialMT-34" x="83.398438"/>
      </g>
     </g>
    </g>
    <g id="xtick_9">
     <g id="text_9">
      <!-- 1.6 -->
      <g style="fill: #262626" transform="translate(436.093 256.431031)scale(0.154 -0.154)">
       <use xlink:href="#ArialMT-31"/>
       <use xlink:href="#ArialMT-2e" x="55.615234"/>
       <use xlink:href="#ArialMT-36" x="83.398438"/>
      </g>
     </g>
    </g>
    <g id="xtick_10">
     <g id="text_10">
      <!-- 1.8 -->
      <g style="fill: #262626" transform="translate(480.517 256.431031)scale(0.154 -0.154)">
       <use xlink:href="#ArialMT-31"/>
       <use xlink:href="#ArialMT-2e" x="55.615234"/>
       <use xlink:href="#ArialMT-38" x="83.398438"/>
      </g>
     </g>
    </g>
    <g id="xtick_11">
     <g id="text_11">
      <!-- 2.0 -->
      <g style="fill: #262626" transform="translate(524.941 256.431031)scale(0.154 -0.154)">
       <use xlink:href="#ArialMT-32"/>
       <use xlink:href="#ArialMT-2e" x="55.615234"/>
       <use xlink:href="#ArialMT-30" x="83.398438"/>
      </g>
     </g>
    </g>
    <g id="text_12">
     <!-- noise -->
     <g style="fill: #262626" transform="translate(293.444063 275.516906)scale(0.168 -0.168)">
      <defs>
       <path id="ArialMT-6e" d="M 422 0 
L 422 3319 
L 928 3319 
L 928 2847 
Q 1294 3394 1984 3394 
Q 2284 3394 2536 3286 
Q 2788 3178 2913 3003 
Q 3038 2828 3088 2588 
Q 3119 2431 3119 2041 
L 3119 0 
L 2556 0 
L 2556 2019 
Q 2556 2363 2490 2533 
Q 2425 2703 2258 2804 
Q 2091 2906 1866 2906 
Q 1506 2906 1245 2678 
Q 984 2450 984 1813 
L 984 0 
L 422 0 
z
" transform="scale(0.015625)"/>
       <path id="ArialMT-6f" d="M 213 1659 
Q 213 2581 725 3025 
Q 1153 3394 1769 3394 
Q 2453 3394 2887 2945 
Q 3322 2497 3322 1706 
Q 3322 1066 3130 698 
Q 2938 331 2570 128 
Q 2203 -75 1769 -75 
Q 1072 -75 642 372 
Q 213 819 213 1659 
z
M 791 1659 
Q 791 1022 1069 705 
Q 1347 388 1769 388 
Q 2188 388 2466 706 
Q 2744 1025 2744 1678 
Q 2744 2294 2464 2611 
Q 2184 2928 1769 2928 
Q 1347 2928 1069 2612 
Q 791 2297 791 1659 
z
" transform="scale(0.015625)"/>
       <path id="ArialMT-69" d="M 425 3934 
L 425 4581 
L 988 4581 
L 988 3934 
L 425 3934 
z
M 425 0 
L 425 3319 
L 988 3319 
L 988 0 
L 425 0 
z
" transform="scale(0.015625)"/>
       <path id="ArialMT-73" d="M 197 991 
L 753 1078 
Q 800 744 1014 566 
Q 1228 388 1613 388 
Q 2000 388 2187 545 
Q 2375 703 2375 916 
Q 2375 1106 2209 1216 
Q 2094 1291 1634 1406 
Q 1016 1563 777 1677 
Q 538 1791 414 1992 
Q 291 2194 291 2438 
Q 291 2659 392 2848 
Q 494 3038 669 3163 
Q 800 3259 1026 3326 
Q 1253 3394 1513 3394 
Q 1903 3394 2198 3281 
Q 2494 3169 2634 2976 
Q 2775 2784 2828 2463 
L 2278 2388 
Q 2241 2644 2061 2787 
Q 1881 2931 1553 2931 
Q 1166 2931 1000 2803 
Q 834 2675 834 2503 
Q 834 2394 903 2306 
Q 972 2216 1119 2156 
Q 1203 2125 1616 2013 
Q 2213 1853 2448 1751 
Q 2684 1650 2818 1456 
Q 2953 1263 2953 975 
Q 2953 694 2789 445 
Q 2625 197 2315 61 
Q 2006 -75 1616 -75 
Q 969 -75 630 194 
Q 291 463 197 991 
z
" transform="scale(0.015625)"/>
       <path id="ArialMT-65" d="M 2694 1069 
L 3275 997 
Q 3138 488 2766 206 
Q 2394 -75 1816 -75 
Q 1088 -75 661 373 
Q 234 822 234 1631 
Q 234 2469 665 2931 
Q 1097 3394 1784 3394 
Q 2450 3394 2872 2941 
Q 3294 2488 3294 1666 
Q 3294 1616 3291 1516 
L 816 1516 
Q 847 969 1125 678 
Q 1403 388 1819 388 
Q 2128 388 2347 550 
Q 2566 713 2694 1069 
z
M 847 1978 
L 2700 1978 
Q 2663 2397 2488 2606 
Q 2219 2931 1791 2931 
Q 1403 2931 1139 2672 
Q 875 2413 847 1978 
z
" transform="scale(0.015625)"/>
      </defs>
      <use xlink:href="#ArialMT-6e"/>
      <use xlink:href="#ArialMT-6f" x="55.615234"/>
      <use xlink:href="#ArialMT-69" x="111.230469"/>
      <use xlink:href="#ArialMT-73" x="133.447266"/>
      <use xlink:href="#ArialMT-65" x="183.447266"/>
     </g>
    </g>
   </g>
   <g id="matplotlib.axis_2">
    <g id="ytick_1">
     <g id="line2d_1">
      <path d="M 69.192 228.218806 
L 557.856 228.218806 
" clip-path="url(#pc27356d860)" style="fill: none; stroke: #ffffff; stroke-linecap: round"/>
     </g>
     <g id="text_13">
      <!-- 0.5 -->
      <g style="fill: #262626" transform="translate(38.286 233.730322)scale(0.154 -0.154)">
       <defs>
        <path id="ArialMT-35" d="M 266 1200 
L 856 1250 
Q 922 819 1161 601 
Q 1400 384 1738 384 
Q 2144 384 2425 690 
Q 2706 997 2706 1503 
Q 2706 1984 2436 2262 
Q 2166 2541 1728 2541 
Q 1456 2541 1237 2417 
Q 1019 2294 894 2097 
L 366 2166 
L 809 4519 
L 3088 4519 
L 3088 3981 
L 1259 3981 
L 1013 2750 
Q 1425 3038 1878 3038 
Q 2478 3038 2890 2622 
Q 3303 2206 3303 1553 
Q 3303 931 2941 478 
Q 2500 -78 1738 -78 
Q 1113 -78 717 272 
Q 322 622 266 1200 
z
" transform="scale(0.015625)"/>
       </defs>
       <use xlink:href="#ArialMT-30"/>
       <use xlink:href="#ArialMT-2e" x="55.615234"/>
       <use xlink:href="#ArialMT-35" x="83.398438"/>
      </g>
     </g>
    </g>
    <g id="ytick_2">
     <g id="line2d_2">
      <path d="M 69.192 178.24051 
L 557.856 178.24051 
" clip-path="url(#pc27356d860)" style="fill: none; stroke: #ffffff; stroke-linecap: round"/>
     </g>
     <g id="text_14">
      <!-- 1.0 -->
      <g style="fill: #262626" transform="translate(38.286 183.752026)scale(0.154 -0.154)">
       <use xlink:href="#ArialMT-31"/>
       <use xlink:href="#ArialMT-2e" x="55.615234"/>
       <use xlink:href="#ArialMT-30" x="83.398438"/>
      </g>
     </g>
    </g>
    <g id="ytick_3">
     <g id="line2d_3">
      <path d="M 69.192 128.262214 
L 557.856 128.262214 
" clip-path="url(#pc27356d860)" style="fill: none; stroke: #ffffff; stroke-linecap: round"/>
     </g>
     <g id="text_15">
      <!-- 1.5 -->
      <g style="fill: #262626" transform="translate(38.286 133.77373)scale(0.154 -0.154)">
       <use xlink:href="#ArialMT-31"/>
       <use xlink:href="#ArialMT-2e" x="55.615234"/>
       <use xlink:href="#ArialMT-35" x="83.398438"/>
      </g>
     </g>
    </g>
    <g id="ytick_4">
     <g id="line2d_4">
      <path d="M 69.192 78.283918 
L 557.856 78.283918 
" clip-path="url(#pc27356d860)" style="fill: none; stroke: #ffffff; stroke-linecap: round"/>
     </g>
     <g id="text_16">
      <!-- 2.0 -->
      <g style="fill: #262626" transform="translate(38.286 83.795434)scale(0.154 -0.154)">
       <use xlink:href="#ArialMT-32"/>
       <use xlink:href="#ArialMT-2e" x="55.615234"/>
       <use xlink:href="#ArialMT-30" x="83.398438"/>
      </g>
     </g>
    </g>
    <g id="ytick_5">
     <g id="line2d_5">
      <path d="M 69.192 28.305622 
L 557.856 28.305622 
" clip-path="url(#pc27356d860)" style="fill: none; stroke: #ffffff; stroke-linecap: round"/>
     </g>
     <g id="text_17">
      <!-- 2.5 -->
      <g style="fill: #262626" transform="translate(38.286 33.817138)scale(0.154 -0.154)">
       <use xlink:href="#ArialMT-32"/>
       <use xlink:href="#ArialMT-2e" x="55.615234"/>
       <use xlink:href="#ArialMT-35" x="83.398438"/>
      </g>
     </g>
    </g>
    <g id="text_18">
     <!-- RMSE -->
     <g style="fill: #262626" transform="translate(30.947 151.295437)rotate(-90)scale(0.168 -0.168)">
      <defs>
       <path id="ArialMT-52" d="M 503 0 
L 503 4581 
L 2534 4581 
Q 3147 4581 3465 4457 
Q 3784 4334 3975 4021 
Q 4166 3709 4166 3331 
Q 4166 2844 3850 2509 
Q 3534 2175 2875 2084 
Q 3116 1969 3241 1856 
Q 3506 1613 3744 1247 
L 4541 0 
L 3778 0 
L 3172 953 
Q 2906 1366 2734 1584 
Q 2563 1803 2427 1890 
Q 2291 1978 2150 2013 
Q 2047 2034 1813 2034 
L 1109 2034 
L 1109 0 
L 503 0 
z
M 1109 2559 
L 2413 2559 
Q 2828 2559 3062 2645 
Q 3297 2731 3419 2920 
Q 3541 3109 3541 3331 
Q 3541 3656 3305 3865 
Q 3069 4075 2559 4075 
L 1109 4075 
L 1109 2559 
z
" transform="scale(0.015625)"/>
       <path id="ArialMT-4d" d="M 475 0 
L 475 4581 
L 1388 4581 
L 2472 1338 
Q 2622 884 2691 659 
Q 2769 909 2934 1394 
L 4031 4581 
L 4847 4581 
L 4847 0 
L 4263 0 
L 4263 3834 
L 2931 0 
L 2384 0 
L 1059 3900 
L 1059 0 
L 475 0 
z
" transform="scale(0.015625)"/>
       <path id="ArialMT-53" d="M 288 1472 
L 859 1522 
Q 900 1178 1048 958 
Q 1197 738 1509 602 
Q 1822 466 2213 466 
Q 2559 466 2825 569 
Q 3091 672 3220 851 
Q 3350 1031 3350 1244 
Q 3350 1459 3225 1620 
Q 3100 1781 2813 1891 
Q 2628 1963 1997 2114 
Q 1366 2266 1113 2400 
Q 784 2572 623 2826 
Q 463 3081 463 3397 
Q 463 3744 659 4045 
Q 856 4347 1234 4503 
Q 1613 4659 2075 4659 
Q 2584 4659 2973 4495 
Q 3363 4331 3572 4012 
Q 3781 3694 3797 3291 
L 3216 3247 
Q 3169 3681 2898 3903 
Q 2628 4125 2100 4125 
Q 1550 4125 1298 3923 
Q 1047 3722 1047 3438 
Q 1047 3191 1225 3031 
Q 1400 2872 2139 2705 
Q 2878 2538 3153 2413 
Q 3553 2228 3743 1945 
Q 3934 1663 3934 1294 
Q 3934 928 3725 604 
Q 3516 281 3123 101 
Q 2731 -78 2241 -78 
Q 1619 -78 1198 103 
Q 778 284 539 648 
Q 300 1013 288 1472 
z
" transform="scale(0.015625)"/>
       <path id="ArialMT-45" d="M 506 0 
L 506 4581 
L 3819 4581 
L 3819 4041 
L 1113 4041 
L 1113 2638 
L 3647 2638 
L 3647 2100 
L 1113 2100 
L 1113 541 
L 3925 541 
L 3925 0 
L 506 0 
z
" transform="scale(0.015625)"/>
      </defs>
      <use xlink:href="#ArialMT-52"/>
      <use xlink:href="#ArialMT-4d" x="72.216797"/>
      <use xlink:href="#ArialMT-53" x="155.517578"/>
      <use xlink:href="#ArialMT-45" x="222.216797"/>
     </g>
    </g>
   </g>
   <g id="line2d_6">
    <path d="M 91.404 221.172198 
L 135.828 201.828596 
L 180.252 161.735403 
L 224.676 131.95195 
L 269.1 97.67284 
L 313.524 88.663152 
L 357.948 68.917039 
L 402.372 57.576664 
L 446.796 64.778171 
L 491.22 53.600608 
L 535.644 45.01213 
" clip-path="url(#pc27356d860)" style="fill: none; stroke: #4c72b0; stroke-width: 2.7; stroke-linecap: round"/>
   </g>
   <g id="line2d_7">
    <path d="M 91.404 226.009636 
L 91.404 213.108817 
" clip-path="url(#pc27356d860)" style="fill: none; stroke: #4c72b0; stroke-width: 1.5; stroke-linecap: round"/>
   </g>
   <g id="line2d_8">
    <path d="M 135.828 207.274835 
L 135.828 195.379534 
" clip-path="url(#pc27356d860)" style="fill: none; stroke: #4c72b0; stroke-width: 1.5; stroke-linecap: round"/>
   </g>
   <g id="line2d_9">
    <path d="M 180.252 166.603649 
L 180.252 156.867157 
" clip-path="url(#pc27356d860)" style="fill: none; stroke: #4c72b0; stroke-width: 1.5; stroke-linecap: round"/>
   </g>
   <g id="line2d_10">
    <path d="M 224.676 140.839683 
L 224.676 121.9927 
" clip-path="url(#pc27356d860)" style="fill: none; stroke: #4c72b0; stroke-width: 1.5; stroke-linecap: round"/>
   </g>
   <g id="line2d_11">
    <path d="M 269.1 105.446916 
L 269.1 89.333792 
" clip-path="url(#pc27356d860)" style="fill: none; stroke: #4c72b0; stroke-width: 1.5; stroke-linecap: round"/>
   </g>
   <g id="line2d_12">
    <path d="M 313.524 101.995308 
L 313.524 76.782949 
" clip-path="url(#pc27356d860)" style="fill: none; stroke: #4c72b0; stroke-width: 1.5; stroke-linecap: round"/>
   </g>
   <g id="line2d_13">
    <path d="M 357.948 80.434035 
L 357.948 54.32397 
" clip-path="url(#pc27356d860)" style="fill: none; stroke: #4c72b0; stroke-width: 1.5; stroke-linecap: round"/>
   </g>
   <g id="line2d_14">
    <path d="M 402.372 71.435871 
L 402.372 38.95883 
" clip-path="url(#pc27356d860)" style="fill: none; stroke: #4c72b0; stroke-width: 1.5; stroke-linecap: round"/>
   </g>
   <g id="line2d_15">
    <path d="M 446.796 72.657559 
L 446.796 55.318873 
" clip-path="url(#pc27356d860)" style="fill: none; stroke: #4c72b0; stroke-width: 1.5; stroke-linecap: round"/>
   </g>
   <g id="line2d_16">
    <path d="M 491.22 67.778231 
L 491.22 38.527979 
" clip-path="url(#pc27356d860)" style="fill: none; stroke: #4c72b0; stroke-width: 1.5; stroke-linecap: round"/>
   </g>
   <g id="line2d_17">
    <path d="M 535.644 56.500141 
L 535.644 28.042364 
" clip-path="url(#pc27356d860)" style="fill: none; stroke: #4c72b0; stroke-width: 1.5; stroke-linecap: round"/>
   </g>
   <g id="PathCollection_1">
    <defs>
     <path id="m24968f06d7" d="M 0 3.383948 
C 0.897434 3.383948 1.758231 3.027394 2.392813 2.392813 
C 3.027394 1.758231 3.383948 0.897434 3.383948 0 
C 3.383948 -0.897434 3.027394 -1.758231 2.392813 -2.392813 
C 1.758231 -3.027394 0.897434 -3.383948 0 -3.383948 
C -0.897434 -3.383948 -1.758231 -3.027394 -2.392813 -2.392813 
C -3.027394 -1.758231 -3.383948 -0.897434 -3.383948 0 
C -3.383948 0.897434 -3.027394 1.758231 -2.392813 2.392813 
C -1.758231 3.027394 -0.897434 3.383948 0 3.383948 
z
" style="stroke: #4c72b0; stroke-width: 2.025"/>
    </defs>
    <g clip-path="url(#pc27356d860)">
     <use xlink:href="#m24968f06d7" x="91.404" y="221.172198" style="fill: #4c72b0; stroke: #4c72b0; stroke-width: 2.025"/>
     <use xlink:href="#m24968f06d7" x="135.828" y="201.828596" style="fill: #4c72b0; stroke: #4c72b0; stroke-width: 2.025"/>
     <use xlink:href="#m24968f06d7" x="180.252" y="161.735403" style="fill: #4c72b0; stroke: #4c72b0; stroke-width: 2.025"/>
     <use xlink:href="#m24968f06d7" x="224.676" y="131.95195" style="fill: #4c72b0; stroke: #4c72b0; stroke-width: 2.025"/>
     <use xlink:href="#m24968f06d7" x="269.1" y="97.67284" style="fill: #4c72b0; stroke: #4c72b0; stroke-width: 2.025"/>
     <use xlink:href="#m24968f06d7" x="313.524" y="88.663152" style="fill: #4c72b0; stroke: #4c72b0; stroke-width: 2.025"/>
     <use xlink:href="#m24968f06d7" x="357.948" y="68.917039" style="fill: #4c72b0; stroke: #4c72b0; stroke-width: 2.025"/>
     <use xlink:href="#m24968f06d7" x="402.372" y="57.576664" style="fill: #4c72b0; stroke: #4c72b0; stroke-width: 2.025"/>
     <use xlink:href="#m24968f06d7" x="446.796" y="64.778171" style="fill: #4c72b0; stroke: #4c72b0; stroke-width: 2.025"/>
     <use xlink:href="#m24968f06d7" x="491.22" y="53.600608" style="fill: #4c72b0; stroke: #4c72b0; stroke-width: 2.025"/>
     <use xlink:href="#m24968f06d7" x="535.644" y="45.01213" style="fill: #4c72b0; stroke: #4c72b0; stroke-width: 2.025"/>
    </g>
   </g>
   <g id="line2d_18">
    <path d="M 91.404 121.3431 
L 135.828 119.318765 
L 180.252 109.447948 
L 224.676 102.356225 
L 269.1 86.649796 
L 313.524 80.301961 
L 357.948 77.422738 
L 402.372 68.784915 
L 446.796 66.501433 
L 491.22 62.411978 
L 535.644 63.288883 
" clip-path="url(#pc27356d860)" style="fill: none; stroke: #dd8452; stroke-width: 2.7; stroke-linecap: round"/>
   </g>
   <g id="line2d_19">
    <path d="M 91.404 136.499002 
L 91.404 103.502429 
" clip-path="url(#pc27356d860)" style="fill: none; stroke: #dd8452; stroke-width: 1.5; stroke-linecap: round"/>
   </g>
   <g id="line2d_20">
    <path d="M 135.828 133.576345 
L 135.828 101.226315 
" clip-path="url(#pc27356d860)" style="fill: none; stroke: #dd8452; stroke-width: 1.5; stroke-linecap: round"/>
   </g>
   <g id="line2d_21">
    <path d="M 180.252 123.678354 
L 180.252 91.755099 
" clip-path="url(#pc27356d860)" style="fill: none; stroke: #dd8452; stroke-width: 1.5; stroke-linecap: round"/>
   </g>
   <g id="line2d_22">
    <path d="M 224.676 116.906305 
L 224.676 82.509626 
" clip-path="url(#pc27356d860)" style="fill: none; stroke: #dd8452; stroke-width: 1.5; stroke-linecap: round"/>
   </g>
   <g id="line2d_23">
    <path d="M 269.1 97.496799 
L 269.1 69.953749 
" clip-path="url(#pc27356d860)" style="fill: none; stroke: #dd8452; stroke-width: 1.5; stroke-linecap: round"/>
   </g>
   <g id="line2d_24">
    <path d="M 313.524 93.688596 
L 313.524 61.247048 
" clip-path="url(#pc27356d860)" style="fill: none; stroke: #dd8452; stroke-width: 1.5; stroke-linecap: round"/>
   </g>
   <g id="line2d_25">
    <path d="M 357.948 90.34438 
L 357.948 59.727233 
" clip-path="url(#pc27356d860)" style="fill: none; stroke: #dd8452; stroke-width: 1.5; stroke-linecap: round"/>
   </g>
   <g id="line2d_26">
    <path d="M 402.372 83.228681 
L 402.372 52.030043 
" clip-path="url(#pc27356d860)" style="fill: none; stroke: #dd8452; stroke-width: 1.5; stroke-linecap: round"/>
   </g>
   <g id="line2d_27">
    <path d="M 446.796 79.514621 
L 446.796 52.196129 
" clip-path="url(#pc27356d860)" style="fill: none; stroke: #dd8452; stroke-width: 1.5; stroke-linecap: round"/>
   </g>
   <g id="line2d_28">
    <path d="M 491.22 77.119436 
L 491.22 45.160894 
" clip-path="url(#pc27356d860)" style="fill: none; stroke: #dd8452; stroke-width: 1.5; stroke-linecap: round"/>
   </g>
   <g id="line2d_29">
    <path d="M 535.644 71.417018 
L 535.644 52.019819 
" clip-path="url(#pc27356d860)" style="fill: none; stroke: #dd8452; stroke-width: 1.5; stroke-linecap: round"/>
   </g>
   <g id="PathCollection_2">
    <defs>
     <path id="m3c10ce037a" d="M 0 3.383948 
C 0.897434 3.383948 1.758231 3.027394 2.392813 2.392813 
C 3.027394 1.758231 3.383948 0.897434 3.383948 0 
C 3.383948 -0.897434 3.027394 -1.758231 2.392813 -2.392813 
C 1.758231 -3.027394 0.897434 -3.383948 0 -3.383948 
C -0.897434 -3.383948 -1.758231 -3.027394 -2.392813 -2.392813 
C -3.027394 -1.758231 -3.383948 -0.897434 -3.383948 0 
C -3.383948 0.897434 -3.027394 1.758231 -2.392813 2.392813 
C -1.758231 3.027394 -0.897434 3.383948 0 3.383948 
z
" style="stroke: #dd8452; stroke-width: 2.025"/>
    </defs>
    <g clip-path="url(#pc27356d860)">
     <use xlink:href="#m3c10ce037a" x="91.404" y="121.3431" style="fill: #dd8452; stroke: #dd8452; stroke-width: 2.025"/>
     <use xlink:href="#m3c10ce037a" x="135.828" y="119.318765" style="fill: #dd8452; stroke: #dd8452; stroke-width: 2.025"/>
     <use xlink:href="#m3c10ce037a" x="180.252" y="109.447948" style="fill: #dd8452; stroke: #dd8452; stroke-width: 2.025"/>
     <use xlink:href="#m3c10ce037a" x="224.676" y="102.356225" style="fill: #dd8452; stroke: #dd8452; stroke-width: 2.025"/>
     <use xlink:href="#m3c10ce037a" x="269.1" y="86.649796" style="fill: #dd8452; stroke: #dd8452; stroke-width: 2.025"/>
     <use xlink:href="#m3c10ce037a" x="313.524" y="80.301961" style="fill: #dd8452; stroke: #dd8452; stroke-width: 2.025"/>
     <use xlink:href="#m3c10ce037a" x="357.948" y="77.422738" style="fill: #dd8452; stroke: #dd8452; stroke-width: 2.025"/>
     <use xlink:href="#m3c10ce037a" x="402.372" y="68.784915" style="fill: #dd8452; stroke: #dd8452; stroke-width: 2.025"/>
     <use xlink:href="#m3c10ce037a" x="446.796" y="66.501433" style="fill: #dd8452; stroke: #dd8452; stroke-width: 2.025"/>
     <use xlink:href="#m3c10ce037a" x="491.22" y="62.411978" style="fill: #dd8452; stroke: #dd8452; stroke-width: 2.025"/>
     <use xlink:href="#m3c10ce037a" x="535.644" y="63.288883" style="fill: #dd8452; stroke: #dd8452; stroke-width: 2.025"/>
    </g>
   </g>
   <g id="patch_3">
    <path d="M 69.192 235.908 
L 69.192 18.144 
" style="fill: none; stroke: #ffffff; stroke-width: 1.25; stroke-linejoin: miter; stroke-linecap: square"/>
   </g>
   <g id="patch_4">
    <path d="M 557.856 235.908 
L 557.856 18.144 
" style="fill: none; stroke: #ffffff; stroke-width: 1.25; stroke-linejoin: miter; stroke-linecap: square"/>
   </g>
   <g id="patch_5">
    <path d="M 69.192 235.908 
L 557.856 235.908 
" style="fill: none; stroke: #ffffff; stroke-width: 1.25; stroke-linejoin: miter; stroke-linecap: square"/>
   </g>
   <g id="patch_6">
    <path d="M 69.192 18.144 
L 557.856 18.144 
" style="fill: none; stroke: #ffffff; stroke-width: 1.25; stroke-linejoin: miter; stroke-linecap: square"/>
   </g>
   <g id="legend_1">
    <g id="patch_7">
     <path d="M 79.972 97.095687 
L 159.221844 97.095687 
Q 162.301844 97.095687 162.301844 94.015688 
L 162.301844 28.924 
Q 162.301844 25.844 159.221844 25.844 
L 79.972 25.844 
Q 76.892 25.844 76.892 28.924 
L 76.892 94.015688 
Q 76.892 97.095687 79.972 97.095687 
z
" style="fill: #eaeaf2; opacity: 0.8; stroke: #cccccc; stroke-linejoin: miter"/>
    </g>
    <g id="text_19">
     <!-- model -->
     <g style="fill: #262626" transform="translate(96.720047 44.029125)scale(0.168 -0.168)">
      <defs>
       <path id="ArialMT-6d" d="M 422 0 
L 422 3319 
L 925 3319 
L 925 2853 
Q 1081 3097 1340 3245 
Q 1600 3394 1931 3394 
Q 2300 3394 2536 3241 
Q 2772 3088 2869 2813 
Q 3263 3394 3894 3394 
Q 4388 3394 4653 3120 
Q 4919 2847 4919 2278 
L 4919 0 
L 4359 0 
L 4359 2091 
Q 4359 2428 4304 2576 
Q 4250 2725 4106 2815 
Q 3963 2906 3769 2906 
Q 3419 2906 3187 2673 
Q 2956 2441 2956 1928 
L 2956 0 
L 2394 0 
L 2394 2156 
Q 2394 2531 2256 2718 
Q 2119 2906 1806 2906 
Q 1569 2906 1367 2781 
Q 1166 2656 1075 2415 
Q 984 2175 984 1722 
L 984 0 
L 422 0 
z
" transform="scale(0.015625)"/>
       <path id="ArialMT-64" d="M 2575 0 
L 2575 419 
Q 2259 -75 1647 -75 
Q 1250 -75 917 144 
Q 584 363 401 755 
Q 219 1147 219 1656 
Q 219 2153 384 2558 
Q 550 2963 881 3178 
Q 1213 3394 1622 3394 
Q 1922 3394 2156 3267 
Q 2391 3141 2538 2938 
L 2538 4581 
L 3097 4581 
L 3097 0 
L 2575 0 
z
M 797 1656 
Q 797 1019 1065 703 
Q 1334 388 1700 388 
Q 2069 388 2326 689 
Q 2584 991 2584 1609 
Q 2584 2291 2321 2609 
Q 2059 2928 1675 2928 
Q 1300 2928 1048 2622 
Q 797 2316 797 1656 
z
" transform="scale(0.015625)"/>
       <path id="ArialMT-6c" d="M 409 0 
L 409 4581 
L 972 4581 
L 972 0 
L 409 0 
z
" transform="scale(0.015625)"/>
      </defs>
      <use xlink:href="#ArialMT-6d"/>
      <use xlink:href="#ArialMT-6f" x="83.300781"/>
      <use xlink:href="#ArialMT-64" x="138.916016"/>
      <use xlink:href="#ArialMT-65" x="194.53125"/>
      <use xlink:href="#ArialMT-6c" x="250.146484"/>
     </g>
    </g>
    <g id="PathCollection_3">
     <g>
      <use xlink:href="#m24968f06d7" x="98.452" y="62.048656" style="fill: #4c72b0; stroke: #4c72b0; stroke-width: 2.025"/>
     </g>
    </g>
    <g id="text_20">
     <!-- nnet -->
     <g style="fill: #262626" transform="translate(126.172 66.091156)scale(0.154 -0.154)">
      <defs>
       <path id="ArialMT-74" d="M 1650 503 
L 1731 6 
Q 1494 -44 1306 -44 
Q 1000 -44 831 53 
Q 663 150 594 308 
Q 525 466 525 972 
L 525 2881 
L 113 2881 
L 113 3319 
L 525 3319 
L 525 4141 
L 1084 4478 
L 1084 3319 
L 1650 3319 
L 1650 2881 
L 1084 2881 
L 1084 941 
Q 1084 700 1114 631 
Q 1144 563 1211 522 
Q 1278 481 1403 481 
Q 1497 481 1650 503 
z
" transform="scale(0.015625)"/>
      </defs>
      <use xlink:href="#ArialMT-6e"/>
      <use xlink:href="#ArialMT-6e" x="55.615234"/>
      <use xlink:href="#ArialMT-65" x="111.230469"/>
      <use xlink:href="#ArialMT-74" x="166.845703"/>
     </g>
    </g>
    <g id="PathCollection_4">
     <g>
      <use xlink:href="#m3c10ce037a" x="98.452" y="83.832438" style="fill: #dd8452; stroke: #dd8452; stroke-width: 2.025"/>
     </g>
    </g>
    <g id="text_21">
     <!-- ols -->
     <g style="fill: #262626" transform="translate(126.172 87.874938)scale(0.154 -0.154)">
      <use xlink:href="#ArialMT-6f"/>
      <use xlink:href="#ArialMT-6c" x="55.615234"/>
      <use xlink:href="#ArialMT-73" x="77.832031"/>
     </g>
    </g>
   </g>
  </g>
  <g id="axes_2">
   <g id="patch_8">
    <path d="M 69.192 514.836 
L 557.856 514.836 
L 557.856 297.072 
L 69.192 297.072 
z
" style="fill: #eaeaf2"/>
   </g>
   <g id="matplotlib.axis_3">
    <g id="xtick_12">
     <g id="text_22">
      <!-- 0.0 -->
      <g style="fill: #262626" transform="translate(80.701 535.359031)scale(0.154 -0.154)">
       <use xlink:href="#ArialMT-30"/>
       <use xlink:href="#ArialMT-2e" x="55.615234"/>
       <use xlink:href="#ArialMT-30" x="83.398438"/>
      </g>
     </g>
    </g>
    <g id="xtick_13">
     <g id="text_23">
      <!-- 0.2 -->
      <g style="fill: #262626" transform="translate(125.125 535.359031)scale(0.154 -0.154)">
       <use xlink:href="#ArialMT-30"/>
       <use xlink:href="#ArialMT-2e" x="55.615234"/>
       <use xlink:href="#ArialMT-32" x="83.398438"/>
      </g>
     </g>
    </g>
    <g id="xtick_14">
     <g id="text_24">
      <!-- 0.4 -->
      <g style="fill: #262626" transform="translate(169.549 535.359031)scale(0.154 -0.154)">
       <use xlink:href="#ArialMT-30"/>
       <use xlink:href="#ArialMT-2e" x="55.615234"/>
       <use xlink:href="#ArialMT-34" x="83.398438"/>
      </g>
     </g>
    </g>
    <g id="xtick_15">
     <g id="text_25">
      <!-- 0.6 -->
      <g style="fill: #262626" transform="translate(213.973 535.359031)scale(0.154 -0.154)">
       <use xlink:href="#ArialMT-30"/>
       <use xlink:href="#ArialMT-2e" x="55.615234"/>
       <use xlink:href="#ArialMT-36" x="83.398438"/>
      </g>
     </g>
    </g>
    <g id="xtick_16">
     <g id="text_26">
      <!-- 0.8 -->
      <g style="fill: #262626" transform="translate(258.397 535.359031)scale(0.154 -0.154)">
       <use xlink:href="#ArialMT-30"/>
       <use xlink:href="#ArialMT-2e" x="55.615234"/>
       <use xlink:href="#ArialMT-38" x="83.398438"/>
      </g>
     </g>
    </g>
    <g id="xtick_17">
     <g id="text_27">
      <!-- 1.0 -->
      <g style="fill: #262626" transform="translate(302.821 535.359031)scale(0.154 -0.154)">
       <use xlink:href="#ArialMT-31"/>
       <use xlink:href="#ArialMT-2e" x="55.615234"/>
       <use xlink:href="#ArialMT-30" x="83.398438"/>
      </g>
     </g>
    </g>
    <g id="xtick_18">
     <g id="text_28">
      <!-- 1.2 -->
      <g style="fill: #262626" transform="translate(347.245 535.359031)scale(0.154 -0.154)">
       <use xlink:href="#ArialMT-31"/>
       <use xlink:href="#ArialMT-2e" x="55.615234"/>
       <use xlink:href="#ArialMT-32" x="83.398438"/>
      </g>
     </g>
    </g>
    <g id="xtick_19">
     <g id="text_29">
      <!-- 1.4 -->
      <g style="fill: #262626" transform="translate(391.669 535.359031)scale(0.154 -0.154)">
       <use xlink:href="#ArialMT-31"/>
       <use xlink:href="#ArialMT-2e" x="55.615234"/>
       <use xlink:href="#ArialMT-34" x="83.398438"/>
      </g>
     </g>
    </g>
    <g id="xtick_20">
     <g id="text_30">
      <!-- 1.6 -->
      <g style="fill: #262626" transform="translate(436.093 535.359031)scale(0.154 -0.154)">
       <use xlink:href="#ArialMT-31"/>
       <use xlink:href="#ArialMT-2e" x="55.615234"/>
       <use xlink:href="#ArialMT-36" x="83.398438"/>
      </g>
     </g>
    </g>
    <g id="xtick_21">
     <g id="text_31">
      <!-- 1.8 -->
      <g style="fill: #262626" transform="translate(480.517 535.359031)scale(0.154 -0.154)">
       <use xlink:href="#ArialMT-31"/>
       <use xlink:href="#ArialMT-2e" x="55.615234"/>
       <use xlink:href="#ArialMT-38" x="83.398438"/>
      </g>
     </g>
    </g>
    <g id="xtick_22">
     <g id="text_32">
      <!-- 2.0 -->
      <g style="fill: #262626" transform="translate(524.941 535.359031)scale(0.154 -0.154)">
       <use xlink:href="#ArialMT-32"/>
       <use xlink:href="#ArialMT-2e" x="55.615234"/>
       <use xlink:href="#ArialMT-30" x="83.398438"/>
      </g>
     </g>
    </g>
    <g id="text_33">
     <!-- noise -->
     <g style="fill: #262626" transform="translate(293.444063 554.444906)scale(0.168 -0.168)">
      <use xlink:href="#ArialMT-6e"/>
      <use xlink:href="#ArialMT-6f" x="55.615234"/>
      <use xlink:href="#ArialMT-69" x="111.230469"/>
      <use xlink:href="#ArialMT-73" x="133.447266"/>
      <use xlink:href="#ArialMT-65" x="183.447266"/>
     </g>
    </g>
   </g>
   <g id="matplotlib.axis_4">
    <g id="ytick_6">
     <g id="line2d_30">
      <path d="M 69.192 485.040662 
L 557.856 485.040662 
" clip-path="url(#pb793a502f4)" style="fill: none; stroke: #ffffff; stroke-linecap: round"/>
     </g>
     <g id="text_34">
      <!-- 0.0 -->
      <g style="fill: #262626" transform="translate(38.286 490.552177)scale(0.154 -0.154)">
       <use xlink:href="#ArialMT-30"/>
       <use xlink:href="#ArialMT-2e" x="55.615234"/>
       <use xlink:href="#ArialMT-30" x="83.398438"/>
      </g>
     </g>
    </g>
    <g id="ytick_7">
     <g id="line2d_31">
      <path d="M 69.192 447.425036 
L 557.856 447.425036 
" clip-path="url(#pb793a502f4)" style="fill: none; stroke: #ffffff; stroke-linecap: round"/>
     </g>
     <g id="text_35">
      <!-- 0.2 -->
      <g style="fill: #262626" transform="translate(38.286 452.936551)scale(0.154 -0.154)">
       <use xlink:href="#ArialMT-30"/>
       <use xlink:href="#ArialMT-2e" x="55.615234"/>
       <use xlink:href="#ArialMT-32" x="83.398438"/>
      </g>
     </g>
    </g>
    <g id="ytick_8">
     <g id="line2d_32">
      <path d="M 69.192 409.809409 
L 557.856 409.809409 
" clip-path="url(#pb793a502f4)" style="fill: none; stroke: #ffffff; stroke-linecap: round"/>
     </g>
     <g id="text_36">
      <!-- 0.4 -->
      <g style="fill: #262626" transform="translate(38.286 415.320925)scale(0.154 -0.154)">
       <use xlink:href="#ArialMT-30"/>
       <use xlink:href="#ArialMT-2e" x="55.615234"/>
       <use xlink:href="#ArialMT-34" x="83.398438"/>
      </g>
     </g>
    </g>
    <g id="ytick_9">
     <g id="line2d_33">
      <path d="M 69.192 372.193783 
L 557.856 372.193783 
" clip-path="url(#pb793a502f4)" style="fill: none; stroke: #ffffff; stroke-linecap: round"/>
     </g>
     <g id="text_37">
      <!-- 0.6 -->
      <g style="fill: #262626" transform="translate(38.286 377.705299)scale(0.154 -0.154)">
       <use xlink:href="#ArialMT-30"/>
       <use xlink:href="#ArialMT-2e" x="55.615234"/>
       <use xlink:href="#ArialMT-36" x="83.398438"/>
      </g>
     </g>
    </g>
    <g id="ytick_10">
     <g id="line2d_34">
      <path d="M 69.192 334.578157 
L 557.856 334.578157 
" clip-path="url(#pb793a502f4)" style="fill: none; stroke: #ffffff; stroke-linecap: round"/>
     </g>
     <g id="text_38">
      <!-- 0.8 -->
      <g style="fill: #262626" transform="translate(38.286 340.089673)scale(0.154 -0.154)">
       <use xlink:href="#ArialMT-30"/>
       <use xlink:href="#ArialMT-2e" x="55.615234"/>
       <use xlink:href="#ArialMT-38" x="83.398438"/>
      </g>
     </g>
    </g>
    <g id="text_39">
     <!-- $\mathrm{R^2}$ -->
     <g style="fill: #262626" transform="translate(30.947 415.866)rotate(-90)scale(0.168 -0.168)">
      <defs>
       <path id="DejaVuSans-52" d="M 2841 2188 
Q 3044 2119 3236 1894 
Q 3428 1669 3622 1275 
L 4263 0 
L 3584 0 
L 2988 1197 
Q 2756 1666 2539 1819 
Q 2322 1972 1947 1972 
L 1259 1972 
L 1259 0 
L 628 0 
L 628 4666 
L 2053 4666 
Q 2853 4666 3247 4331 
Q 3641 3997 3641 3322 
Q 3641 2881 3436 2590 
Q 3231 2300 2841 2188 
z
M 1259 4147 
L 1259 2491 
L 2053 2491 
Q 2509 2491 2742 2702 
Q 2975 2913 2975 3322 
Q 2975 3731 2742 3939 
Q 2509 4147 2053 4147 
L 1259 4147 
z
" transform="scale(0.015625)"/>
       <path id="DejaVuSans-32" d="M 1228 531 
L 3431 531 
L 3431 0 
L 469 0 
L 469 531 
Q 828 903 1448 1529 
Q 2069 2156 2228 2338 
Q 2531 2678 2651 2914 
Q 2772 3150 2772 3378 
Q 2772 3750 2511 3984 
Q 2250 4219 1831 4219 
Q 1534 4219 1204 4116 
Q 875 4013 500 3803 
L 500 4441 
Q 881 4594 1212 4672 
Q 1544 4750 1819 4750 
Q 2544 4750 2975 4387 
Q 3406 4025 3406 3419 
Q 3406 3131 3298 2873 
Q 3191 2616 2906 2266 
Q 2828 2175 2409 1742 
Q 1991 1309 1228 531 
z
" transform="scale(0.015625)"/>
      </defs>
      <use xlink:href="#DejaVuSans-52" transform="translate(0 0.765625)"/>
      <use xlink:href="#DejaVuSans-32" transform="translate(70.439453 39.046875)scale(0.7)"/>
     </g>
    </g>
   </g>
   <g id="line2d_35">
    <path d="M 91.404 308.825283 
L 135.828 318.183597 
L 180.252 346.630946 
L 224.676 376.033375 
L 269.1 416.693372 
L 313.524 428.334478 
L 357.948 456.983826 
L 402.372 474.021451 
L 446.796 464.163945 
L 491.22 481.202922 
L 535.644 495.265676 
" clip-path="url(#pb793a502f4)" style="fill: none; stroke: #4c72b0; stroke-width: 2.7; stroke-linecap: round"/>
   </g>
   <g id="line2d_36">
    <path d="M 91.404 310.544739 
L 91.404 306.970364 
" clip-path="url(#pb793a502f4)" style="fill: none; stroke: #4c72b0; stroke-width: 1.5; stroke-linecap: round"/>
   </g>
   <g id="line2d_37">
    <path d="M 135.828 319.531695 
L 135.828 316.648516 
" clip-path="url(#pb793a502f4)" style="fill: none; stroke: #4c72b0; stroke-width: 1.5; stroke-linecap: round"/>
   </g>
   <g id="line2d_38">
    <path d="M 180.252 350.199398 
L 180.252 342.974014 
" clip-path="url(#pb793a502f4)" style="fill: none; stroke: #4c72b0; stroke-width: 1.5; stroke-linecap: round"/>
   </g>
   <g id="line2d_39">
    <path d="M 224.676 391.202116 
L 224.676 364.365992 
" clip-path="url(#pb793a502f4)" style="fill: none; stroke: #4c72b0; stroke-width: 1.5; stroke-linecap: round"/>
   </g>
   <g id="line2d_40">
    <path d="M 269.1 430.663587 
L 269.1 404.452247 
" clip-path="url(#pb793a502f4)" style="fill: none; stroke: #4c72b0; stroke-width: 1.5; stroke-linecap: round"/>
   </g>
   <g id="line2d_41">
    <path d="M 313.524 439.859023 
L 313.524 415.408414 
" clip-path="url(#pb793a502f4)" style="fill: none; stroke: #4c72b0; stroke-width: 1.5; stroke-linecap: round"/>
   </g>
   <g id="line2d_42">
    <path d="M 357.948 470.227704 
L 357.948 443.996988 
" clip-path="url(#pb793a502f4)" style="fill: none; stroke: #4c72b0; stroke-width: 1.5; stroke-linecap: round"/>
   </g>
   <g id="line2d_43">
    <path d="M 402.372 483.008771 
L 402.372 465.874423 
" clip-path="url(#pb793a502f4)" style="fill: none; stroke: #4c72b0; stroke-width: 1.5; stroke-linecap: round"/>
   </g>
   <g id="line2d_44">
    <path d="M 446.796 478.988092 
L 446.796 448.125563 
" clip-path="url(#pb793a502f4)" style="fill: none; stroke: #4c72b0; stroke-width: 1.5; stroke-linecap: round"/>
   </g>
   <g id="line2d_45">
    <path d="M 491.22 496.862947 
L 491.22 465.396079 
" clip-path="url(#pb793a502f4)" style="fill: none; stroke: #4c72b0; stroke-width: 1.5; stroke-linecap: round"/>
   </g>
   <g id="line2d_46">
    <path d="M 535.644 504.937636 
L 535.644 485.691819 
" clip-path="url(#pb793a502f4)" style="fill: none; stroke: #4c72b0; stroke-width: 1.5; stroke-linecap: round"/>
   </g>
   <g id="PathCollection_5">
    <g clip-path="url(#pb793a502f4)">
     <use xlink:href="#m24968f06d7" x="91.404" y="308.825283" style="fill: #4c72b0; stroke: #4c72b0; stroke-width: 2.025"/>
     <use xlink:href="#m24968f06d7" x="135.828" y="318.183597" style="fill: #4c72b0; stroke: #4c72b0; stroke-width: 2.025"/>
     <use xlink:href="#m24968f06d7" x="180.252" y="346.630946" style="fill: #4c72b0; stroke: #4c72b0; stroke-width: 2.025"/>
     <use xlink:href="#m24968f06d7" x="224.676" y="376.033375" style="fill: #4c72b0; stroke: #4c72b0; stroke-width: 2.025"/>
     <use xlink:href="#m24968f06d7" x="269.1" y="416.693372" style="fill: #4c72b0; stroke: #4c72b0; stroke-width: 2.025"/>
     <use xlink:href="#m24968f06d7" x="313.524" y="428.334478" style="fill: #4c72b0; stroke: #4c72b0; stroke-width: 2.025"/>
     <use xlink:href="#m24968f06d7" x="357.948" y="456.983826" style="fill: #4c72b0; stroke: #4c72b0; stroke-width: 2.025"/>
     <use xlink:href="#m24968f06d7" x="402.372" y="474.021451" style="fill: #4c72b0; stroke: #4c72b0; stroke-width: 2.025"/>
     <use xlink:href="#m24968f06d7" x="446.796" y="464.163945" style="fill: #4c72b0; stroke: #4c72b0; stroke-width: 2.025"/>
     <use xlink:href="#m24968f06d7" x="491.22" y="481.202922" style="fill: #4c72b0; stroke: #4c72b0; stroke-width: 2.025"/>
     <use xlink:href="#m24968f06d7" x="535.644" y="495.265676" style="fill: #4c72b0; stroke: #4c72b0; stroke-width: 2.025"/>
    </g>
   </g>
   <g id="line2d_47">
    <path d="M 91.404 386.761419 
L 135.828 388.805167 
L 180.252 400.652889 
L 224.676 409.714817 
L 269.1 430.881353 
L 313.524 439.093344 
L 357.948 443.522832 
L 402.372 456.307896 
L 446.796 459.975227 
L 491.22 466.173314 
L 535.644 465.598141 
" clip-path="url(#pb793a502f4)" style="fill: none; stroke: #dd8452; stroke-width: 2.7; stroke-linecap: round"/>
   </g>
   <g id="line2d_48">
    <path d="M 91.404 399.985291 
L 91.404 373.741813 
" clip-path="url(#pb793a502f4)" style="fill: none; stroke: #dd8452; stroke-width: 1.5; stroke-linecap: round"/>
   </g>
   <g id="line2d_49">
    <path d="M 135.828 399.333315 
L 135.828 378.277019 
" clip-path="url(#pb793a502f4)" style="fill: none; stroke: #dd8452; stroke-width: 1.5; stroke-linecap: round"/>
   </g>
   <g id="line2d_50">
    <path d="M 180.252 411.182858 
L 180.252 390.293174 
" clip-path="url(#pb793a502f4)" style="fill: none; stroke: #dd8452; stroke-width: 1.5; stroke-linecap: round"/>
   </g>
   <g id="line2d_51">
    <path d="M 224.676 423.805706 
L 224.676 396.471959 
" clip-path="url(#pb793a502f4)" style="fill: none; stroke: #dd8452; stroke-width: 1.5; stroke-linecap: round"/>
   </g>
   <g id="line2d_52">
    <path d="M 269.1 443.075494 
L 269.1 419.91308 
" clip-path="url(#pb793a502f4)" style="fill: none; stroke: #dd8452; stroke-width: 1.5; stroke-linecap: round"/>
   </g>
   <g id="line2d_53">
    <path d="M 313.524 446.154566 
L 313.524 432.851519 
" clip-path="url(#pb793a502f4)" style="fill: none; stroke: #dd8452; stroke-width: 1.5; stroke-linecap: round"/>
   </g>
   <g id="line2d_54">
    <path d="M 357.948 451.455679 
L 357.948 435.856918 
" clip-path="url(#pb793a502f4)" style="fill: none; stroke: #dd8452; stroke-width: 1.5; stroke-linecap: round"/>
   </g>
   <g id="line2d_55">
    <path d="M 402.372 460.730494 
L 402.372 451.72397 
" clip-path="url(#pb793a502f4)" style="fill: none; stroke: #dd8452; stroke-width: 1.5; stroke-linecap: round"/>
   </g>
   <g id="line2d_56">
    <path d="M 446.796 464.437029 
L 446.796 455.931852 
" clip-path="url(#pb793a502f4)" style="fill: none; stroke: #dd8452; stroke-width: 1.5; stroke-linecap: round"/>
   </g>
   <g id="line2d_57">
    <path d="M 491.22 471.649356 
L 491.22 459.736336 
" clip-path="url(#pb793a502f4)" style="fill: none; stroke: #dd8452; stroke-width: 1.5; stroke-linecap: round"/>
   </g>
   <g id="line2d_58">
    <path d="M 535.644 472.866421 
L 535.644 458.332089 
" clip-path="url(#pb793a502f4)" style="fill: none; stroke: #dd8452; stroke-width: 1.5; stroke-linecap: round"/>
   </g>
   <g id="PathCollection_6">
    <g clip-path="url(#pb793a502f4)">
     <use xlink:href="#m3c10ce037a" x="91.404" y="386.761419" style="fill: #dd8452; stroke: #dd8452; stroke-width: 2.025"/>
     <use xlink:href="#m3c10ce037a" x="135.828" y="388.805167" style="fill: #dd8452; stroke: #dd8452; stroke-width: 2.025"/>
     <use xlink:href="#m3c10ce037a" x="180.252" y="400.652889" style="fill: #dd8452; stroke: #dd8452; stroke-width: 2.025"/>
     <use xlink:href="#m3c10ce037a" x="224.676" y="409.714817" style="fill: #dd8452; stroke: #dd8452; stroke-width: 2.025"/>
     <use xlink:href="#m3c10ce037a" x="269.1" y="430.881353" style="fill: #dd8452; stroke: #dd8452; stroke-width: 2.025"/>
     <use xlink:href="#m3c10ce037a" x="313.524" y="439.093344" style="fill: #dd8452; stroke: #dd8452; stroke-width: 2.025"/>
     <use xlink:href="#m3c10ce037a" x="357.948" y="443.522832" style="fill: #dd8452; stroke: #dd8452; stroke-width: 2.025"/>
     <use xlink:href="#m3c10ce037a" x="402.372" y="456.307896" style="fill: #dd8452; stroke: #dd8452; stroke-width: 2.025"/>
     <use xlink:href="#m3c10ce037a" x="446.796" y="459.975227" style="fill: #dd8452; stroke: #dd8452; stroke-width: 2.025"/>
     <use xlink:href="#m3c10ce037a" x="491.22" y="466.173314" style="fill: #dd8452; stroke: #dd8452; stroke-width: 2.025"/>
     <use xlink:href="#m3c10ce037a" x="535.644" y="465.598141" style="fill: #dd8452; stroke: #dd8452; stroke-width: 2.025"/>
    </g>
   </g>
   <g id="patch_9">
    <path d="M 69.192 514.836 
L 69.192 297.072 
" style="fill: none; stroke: #ffffff; stroke-width: 1.25; stroke-linejoin: miter; stroke-linecap: square"/>
   </g>
   <g id="patch_10">
    <path d="M 557.856 514.836 
L 557.856 297.072 
" style="fill: none; stroke: #ffffff; stroke-width: 1.25; stroke-linejoin: miter; stroke-linecap: square"/>
   </g>
   <g id="patch_11">
    <path d="M 69.192 514.836 
L 557.856 514.836 
" style="fill: none; stroke: #ffffff; stroke-width: 1.25; stroke-linejoin: miter; stroke-linecap: square"/>
   </g>
   <g id="patch_12">
    <path d="M 69.192 297.072 
L 557.856 297.072 
" style="fill: none; stroke: #ffffff; stroke-width: 1.25; stroke-linejoin: miter; stroke-linecap: square"/>
   </g>
   <g id="legend_2">
    <g id="patch_13">
     <path d="M 467.826156 376.023687 
L 547.076 376.023687 
Q 550.156 376.023687 550.156 372.943687 
L 550.156 307.852 
Q 550.156 304.772 547.076 304.772 
L 467.826156 304.772 
Q 464.746156 304.772 464.746156 307.852 
L 464.746156 372.943687 
Q 464.746156 376.023687 467.826156 376.023687 
z
" style="fill: #eaeaf2; opacity: 0.8; stroke: #cccccc; stroke-linejoin: miter"/>
    </g>
    <g id="text_40">
     <!-- model -->
     <g style="fill: #262626" transform="translate(484.574203 322.957125)scale(0.168 -0.168)">
      <use xlink:href="#ArialMT-6d"/>
      <use xlink:href="#ArialMT-6f" x="83.300781"/>
      <use xlink:href="#ArialMT-64" x="138.916016"/>
      <use xlink:href="#ArialMT-65" x="194.53125"/>
      <use xlink:href="#ArialMT-6c" x="250.146484"/>
     </g>
    </g>
    <g id="PathCollection_7">
     <g>
      <use xlink:href="#m24968f06d7" x="486.306156" y="340.976656" style="fill: #4c72b0; stroke: #4c72b0; stroke-width: 2.025"/>
     </g>
    </g>
    <g id="text_41">
     <!-- nnet -->
     <g style="fill: #262626" transform="translate(514.026156 345.019156)scale(0.154 -0.154)">
      <use xlink:href="#ArialMT-6e"/>
      <use xlink:href="#ArialMT-6e" x="55.615234"/>
      <use xlink:href="#ArialMT-65" x="111.230469"/>
      <use xlink:href="#ArialMT-74" x="166.845703"/>
     </g>
    </g>
    <g id="PathCollection_8">
     <g>
      <use xlink:href="#m3c10ce037a" x="486.306156" y="362.760437" style="fill: #dd8452; stroke: #dd8452; stroke-width: 2.025"/>
     </g>
    </g>
    <g id="text_42">
     <!-- ols -->
     <g style="fill: #262626" transform="translate(514.026156 366.802937)scale(0.154 -0.154)">
      <use xlink:href="#ArialMT-6f"/>
      <use xlink:href="#ArialMT-6c" x="55.615234"/>
      <use xlink:href="#ArialMT-73" x="77.832031"/>
     </g>
    </g>
   </g>
  </g>
 </g>
 <defs>
  <clipPath id="pc27356d860">
   <rect x="69.192" y="18.144" width="488.664" height="217.764"/>
  </clipPath>
  <clipPath id="pb793a502f4">
   <rect x="69.192" y="297.072" width="488.664" height="217.764"/>
  </clipPath>
 </defs>
</svg>
