<?xml version="1.0" encoding="utf-8" standalone="no"?>
<!DOCTYPE svg PUBLIC "-//W3C//DTD SVG 1.1//EN"
  "http://www.w3.org/Graphics/SVG/1.1/DTD/svg11.dtd">
<svg xmlns:xlink="http://www.w3.org/1999/xlink" width="460.8pt" height="345.6pt" viewBox="0 0 460.8 345.6" xmlns="http://www.w3.org/2000/svg" version="1.1">
 <metadata>
  <rdf:RDF xmlns:dc="http://purl.org/dc/elements/1.1/" xmlns:cc="http://creativecommons.org/ns#" xmlns:rdf="http://www.w3.org/1999/02/22-rdf-syntax-ns#">
   <cc:Work>
    <dc:type rdf:resource="http://purl.org/dc/dcmitype/StillImage"/>
    <dc:date>2024-02-23T10:32:53.169958</dc:date>
    <dc:format>image/svg+xml</dc:format>
    <dc:creator>
     <cc:Agent>
      <dc:title>Matplotlib v3.8.2, https://matplotlib.org/</dc:title>
     </cc:Agent>
    </dc:creator>
   </cc:Work>
  </rdf:RDF>
 </metadata>
 <defs>
  <style type="text/css">*{stroke-linejoin: round; stroke-linecap: butt}</style>
 </defs>
 <g id="figure_1">
  <g id="patch_1">
   <path d="M 0 345.6 
L 460.8 345.6 
L 460.8 0 
L 0 0 
z
" style="fill: #ffffff"/>
  </g>
  <g id="axes_1">
   <g id="patch_2">
    <path d="M 18.189215 291.18 
L 450 291.18 
L 450 10.8 
L 18.189215 10.8 
z
" style="fill: #ffffff"/>
   </g>
   <g id="PolyCollection_1">
    <defs>
     <path id="mbef8d4c75e" d="M 37.816978 -67.164545 
L 37.816978 -67.987918 
L 38.585188 -67.988636 
L 39.353398 -67.989591 
L 40.121608 -67.992102 
L 40.889818 -67.996442 
L 41.658028 -68.001841 
L 42.426237 -68.006514 
L 43.194447 -68.015817 
L 43.962657 -68.025261 
L 44.730867 -68.040257 
L 45.499077 -68.058547 
L 46.267287 -68.08064 
L 47.035497 -68.109787 
L 47.803707 -68.141529 
L 48.571917 -68.18123 
L 49.340127 -68.222089 
L 50.108336 -68.271424 
L 50.876546 -68.326579 
L 51.644756 -68.390359 
L 52.412966 -68.460587 
L 53.181176 -68.537198 
L 53.949386 -68.617249 
L 54.717596 -68.702577 
L 55.485806 -68.795487 
L 56.254016 -68.896105 
L 57.022226 -68.996261 
L 57.790435 -69.099709 
L 58.558645 -69.205724 
L 59.326855 -69.316326 
L 60.095065 -69.431427 
L 60.863275 -69.545509 
L 61.631485 -69.657406 
L 62.399695 -69.774236 
L 63.167905 -69.885639 
L 63.936115 -69.998312 
L 64.704325 -70.106945 
L 65.472534 -70.213417 
L 66.240744 -70.317486 
L 67.008954 -70.421784 
L 67.777164 -70.526953 
L 68.545374 -70.63108 
L 69.313584 -70.734592 
L 70.081794 -70.833034 
L 70.850004 -70.931816 
L 71.618214 -71.033655 
L 72.386424 -71.133662 
L 73.154633 -71.234637 
L 73.922843 -71.339942 
L 74.691053 -71.445256 
L 75.459263 -71.55609 
L 76.227473 -71.673593 
L 76.995683 -71.801758 
L 77.763893 -71.925851 
L 78.532103 -72.055016 
L 79.300313 -72.195007 
L 80.068523 -72.33614 
L 80.836732 -72.482811 
L 81.604942 -72.637648 
L 82.373152 -72.801068 
L 83.141362 -72.970727 
L 83.909572 -73.143633 
L 84.677782 -73.321601 
L 85.445992 -73.506948 
L 86.214202 -73.702637 
L 86.982412 -73.898504 
L 87.750622 -74.098589 
L 88.518831 -74.308092 
L 89.287041 -74.514141 
L 90.055251 -74.722985 
L 90.823461 -74.939845 
L 91.591671 -75.160821 
L 92.359881 -75.388765 
L 93.128091 -75.621216 
L 93.896301 -75.853062 
L 94.664511 -76.094649 
L 95.432721 -76.333902 
L 96.20093 -76.580715 
L 96.96914 -76.83691 
L 97.73735 -77.109548 
L 98.50556 -77.382265 
L 99.27377 -77.664987 
L 100.04198 -77.958294 
L 100.81019 -78.256155 
L 101.5784 -78.574411 
L 102.34661 -78.906451 
L 103.11482 -79.267901 
L 103.883029 -79.629881 
L 104.651239 -80.03039 
L 105.419449 -80.460087 
L 106.187659 -80.894147 
L 106.955869 -81.361152 
L 107.724079 -81.850664 
L 108.492289 -82.365823 
L 109.260499 -82.912956 
L 110.028709 -83.474533 
L 110.796919 -84.072796 
L 111.565128 -84.701973 
L 112.333338 -85.346739 
L 113.101548 -86.02042 
L 113.869758 -86.722972 
L 114.637968 -87.457069 
L 115.406178 -88.217124 
L 116.174388 -88.99685 
L 116.942598 -89.797383 
L 117.710808 -90.634132 
L 118.479018 -91.509212 
L 119.247227 -92.388617 
L 120.015437 -93.291303 
L 120.783647 -94.203635 
L 121.551857 -95.1287 
L 122.320067 -96.093815 
L 123.088277 -97.085738 
L 123.856487 -98.094946 
L 124.624697 -99.101831 
L 125.392907 -100.138168 
L 126.161117 -101.203667 
L 126.929326 -102.269047 
L 127.697536 -103.355382 
L 128.465746 -104.463496 
L 129.233956 -105.571613 
L 130.002166 -106.722848 
L 130.770376 -107.864912 
L 131.538586 -109.022002 
L 132.306796 -110.191763 
L 133.075006 -111.368953 
L 133.843216 -112.562998 
L 134.611425 -113.771262 
L 135.379635 -115.001163 
L 136.147845 -116.239984 
L 136.916055 -117.472567 
L 137.684265 -118.72129 
L 138.452475 -119.989517 
L 139.220685 -121.254974 
L 139.988895 -122.514189 
L 140.757105 -123.802085 
L 141.525315 -125.074691 
L 142.293524 -126.374831 
L 143.061734 -127.689234 
L 143.829944 -128.975454 
L 144.598154 -130.254107 
L 145.366364 -131.544481 
L 146.134574 -132.828157 
L 146.902784 -134.106552 
L 147.670994 -135.382229 
L 148.439204 -136.638433 
L 149.207414 -137.897887 
L 149.975623 -139.167438 
L 150.743833 -140.4127 
L 151.512043 -141.664311 
L 152.280253 -142.894947 
L 153.048463 -144.10852 
L 153.816673 -145.326823 
L 154.584883 -146.564325 
L 155.353093 -147.768531 
L 156.121303 -148.963125 
L 156.889513 -150.183723 
L 157.657723 -151.38687 
L 158.425932 -152.60332 
L 159.194142 -153.850674 
L 159.962352 -155.090453 
L 160.730562 -156.353768 
L 161.498772 -157.636614 
L 162.266982 -158.9472 
L 163.035192 -160.269817 
L 163.803402 -161.658319 
L 164.571612 -163.071753 
L 165.339822 -164.520972 
L 166.108031 -166.00743 
L 166.876241 -167.532498 
L 167.644451 -169.102971 
L 168.412661 -170.729158 
L 169.180871 -172.426158 
L 169.949081 -174.121667 
L 170.717291 -175.873425 
L 171.485501 -177.689005 
L 172.253711 -179.545212 
L 173.021921 -181.449473 
L 173.79013 -183.38621 
L 174.55834 -185.351915 
L 175.32655 -187.378534 
L 176.09476 -189.402348 
L 176.86297 -191.461758 
L 177.63118 -193.547663 
L 178.39939 -195.666032 
L 179.1676 -197.784583 
L 179.93581 -199.911352 
L 180.70402 -202.047612 
L 181.472229 -204.180294 
L 182.240439 -206.316675 
L 183.008649 -208.446205 
L 183.776859 -210.556148 
L 184.545069 -212.700466 
L 185.313279 -214.787546 
L 186.081489 -216.880647 
L 186.849699 -218.984128 
L 187.617909 -221.015626 
L 188.386119 -223.018898 
L 189.154328 -224.985591 
L 189.922538 -226.964385 
L 190.690748 -228.894134 
L 191.458958 -230.77414 
L 192.227168 -232.673111 
L 192.995378 -234.525893 
L 193.763588 -236.336853 
L 194.531798 -238.13402 
L 195.300008 -239.875612 
L 196.068218 -241.611605 
L 196.836427 -243.332813 
L 197.604637 -245.021008 
L 198.372847 -246.698855 
L 199.141057 -248.361518 
L 199.909267 -249.997767 
L 200.677477 -251.60145 
L 201.445687 -253.221161 
L 202.213897 -254.833845 
L 202.982107 -256.454683 
L 203.750317 -258.047113 
L 204.518526 -259.651684 
L 205.286736 -261.267895 
L 206.054946 -262.897614 
L 206.823156 -264.584735 
L 207.591366 -266.218362 
L 208.359576 -267.892607 
L 209.127786 -269.624333 
L 209.895996 -271.366584 
L 210.664206 -273.103665 
L 211.432416 -274.872579 
L 212.200625 -276.639191 
L 212.968835 -278.437311 
L 213.737045 -280.26372 
L 214.505255 -282.088082 
L 215.273465 -283.896269 
L 216.041675 -285.705802 
L 216.809885 -287.492192 
L 217.578095 -289.302609 
L 218.346305 -291.102768 
L 219.114515 -292.860821 
L 219.882724 -294.556673 
L 220.650934 -296.285228 
L 221.419144 -297.992054 
L 222.187354 -299.605416 
L 222.955564 -301.186292 
L 223.723774 -302.708026 
L 224.491984 -304.176093 
L 225.260194 -305.600437 
L 226.028404 -306.961167 
L 226.796614 -308.26245 
L 227.564823 -309.467652 
L 228.333033 -310.61984 
L 229.101243 -311.689176 
L 229.869453 -312.687802 
L 230.637663 -313.652655 
L 231.405873 -314.533307 
L 232.174083 -315.348127 
L 232.942293 -316.124788 
L 233.710503 -316.818983 
L 234.478713 -317.459027 
L 235.246922 -318.078048 
L 236.015132 -318.625078 
L 236.783342 -319.141293 
L 237.551552 -319.582672 
L 238.319762 -319.992839 
L 239.087972 -320.396746 
L 239.856182 -320.734729 
L 240.624392 -321.028637 
L 241.392602 -321.327939 
L 242.160812 -321.557412 
L 242.929021 -321.751973 
L 243.697231 -321.910868 
L 244.465441 -321.992385 
L 245.233651 -322.052201 
L 246.001861 -322.055455 
L 246.770071 -322.020494 
L 247.538281 -321.930794 
L 248.306491 -321.751542 
L 249.074701 -321.539943 
L 249.842911 -321.223271 
L 250.61112 -320.885882 
L 251.37933 -320.443859 
L 252.14754 -319.948705 
L 252.91575 -319.387005 
L 253.68396 -318.751592 
L 254.45217 -318.063447 
L 255.22038 -317.276941 
L 255.98859 -316.416831 
L 256.7568 -315.529873 
L 257.52501 -314.538697 
L 258.293219 -313.518716 
L 259.061429 -312.458582 
L 259.829639 -311.324861 
L 260.597849 -310.158029 
L 261.366059 -308.961272 
L 262.134269 -307.713524 
L 262.902479 -306.437965 
L 263.670689 -305.129543 
L 264.438899 -303.811251 
L 265.207109 -302.483071 
L 265.975318 -301.158989 
L 266.743528 -299.819551 
L 267.511738 -298.440947 
L 268.279948 -297.066914 
L 269.048158 -295.681496 
L 269.816368 -294.268599 
L 270.584578 -292.8262 
L 271.352788 -291.350527 
L 272.120998 -289.816504 
L 272.889208 -288.301352 
L 273.657417 -286.725787 
L 274.425627 -285.122431 
L 275.193837 -283.4929 
L 275.962047 -281.813548 
L 276.730257 -280.069879 
L 277.498467 -278.291657 
L 278.266677 -276.433394 
L 279.034887 -274.540137 
L 279.803097 -272.590017 
L 280.571307 -270.590418 
L 281.339516 -268.55736 
L 282.107726 -266.464001 
L 282.875936 -264.323238 
L 283.644146 -262.116798 
L 284.412356 -259.883541 
L 285.180566 -257.628416 
L 285.948776 -255.308676 
L 286.716986 -252.940912 
L 287.485196 -250.588947 
L 288.253406 -248.227413 
L 289.021615 -245.840324 
L 289.789825 -243.417242 
L 290.558035 -240.996913 
L 291.326245 -238.563818 
L 292.094455 -236.141821 
L 292.862665 -233.743315 
L 293.630875 -231.330164 
L 294.399085 -228.9148 
L 295.167295 -226.528341 
L 295.935505 -224.117126 
L 296.703714 -221.72824 
L 297.471924 -219.360164 
L 298.240134 -216.975779 
L 299.008344 -214.602992 
L 299.776554 -212.255065 
L 300.544764 -209.914781 
L 301.312974 -207.591362 
L 302.081184 -205.276065 
L 302.849394 -202.987203 
L 303.617604 -200.691754 
L 304.385813 -198.387341 
L 305.154023 -196.122811 
L 305.922233 -193.845156 
L 306.690443 -191.564538 
L 307.458653 -189.318935 
L 308.226863 -187.087599 
L 308.995073 -184.848577 
L 309.763283 -182.666174 
L 310.531493 -180.460377 
L 311.299703 -178.282513 
L 312.067912 -176.117949 
L 312.836122 -173.961992 
L 313.604332 -171.857242 
L 314.372542 -169.744579 
L 315.140752 -167.68506 
L 315.908962 -165.64217 
L 316.677172 -163.642784 
L 317.445382 -161.635612 
L 318.213592 -159.69661 
L 318.981802 -157.800308 
L 319.750011 -155.925333 
L 320.518221 -154.094683 
L 321.286431 -152.315075 
L 322.054641 -150.565724 
L 322.822851 -148.868094 
L 323.591061 -147.204099 
L 324.359271 -145.584219 
L 325.127481 -144.026122 
L 325.895691 -142.497505 
L 326.663901 -141.000773 
L 327.43211 -139.543668 
L 328.20032 -138.124804 
L 328.96853 -136.733326 
L 329.73674 -135.350329 
L 330.50495 -133.998097 
L 331.27316 -132.653076 
L 332.04137 -131.311244 
L 332.80958 -130.022923 
L 333.57779 -128.707988 
L 334.346 -127.412235 
L 335.114209 -126.1357 
L 335.882419 -124.857474 
L 336.650629 -123.556581 
L 337.418839 -122.272128 
L 338.187049 -120.980185 
L 338.955259 -119.68831 
L 339.723469 -118.373692 
L 340.491679 -117.056961 
L 341.259889 -115.755111 
L 342.028099 -114.457877 
L 342.796308 -113.16054 
L 343.564518 -111.870071 
L 344.332728 -110.570361 
L 345.100938 -109.294499 
L 345.869148 -108.036093 
L 346.637358 -106.787801 
L 347.405568 -105.564073 
L 348.173778 -104.345637 
L 348.941988 -103.167747 
L 349.710198 -101.998527 
L 350.478407 -100.855219 
L 351.246617 -99.734293 
L 352.014827 -98.651238 
L 352.783037 -97.57909 
L 353.551247 -96.533868 
L 354.319457 -95.519707 
L 355.087667 -94.539113 
L 355.855877 -93.576612 
L 356.624087 -92.646333 
L 357.392297 -91.721701 
L 358.160506 -90.823616 
L 358.928716 -89.959701 
L 359.696926 -89.113768 
L 360.465136 -88.284012 
L 361.233346 -87.477866 
L 362.001556 -86.704014 
L 362.769766 -85.933494 
L 363.537976 -85.187133 
L 364.306186 -84.46867 
L 365.074396 -83.761168 
L 365.842605 -83.077806 
L 366.610815 -82.413557 
L 367.379025 -81.766646 
L 368.147235 -81.149497 
L 368.915445 -80.551534 
L 369.683655 -79.972593 
L 370.451865 -79.420126 
L 371.220075 -78.897252 
L 371.988285 -78.388024 
L 372.756495 -77.895605 
L 373.524704 -77.42014 
L 374.292914 -76.970996 
L 375.061124 -76.537254 
L 375.829334 -76.127227 
L 376.597544 -75.728432 
L 377.365754 -75.343664 
L 378.133964 -74.978875 
L 378.902174 -74.624184 
L 379.670384 -74.288924 
L 380.438594 -73.964357 
L 381.206803 -73.657803 
L 381.975013 -73.359094 
L 382.743223 -73.0751 
L 383.511433 -72.807874 
L 384.279643 -72.540914 
L 385.047853 -72.296052 
L 385.816063 -72.062308 
L 386.584273 -71.839866 
L 387.352483 -71.617857 
L 388.120693 -71.418709 
L 388.888902 -71.22701 
L 389.657112 -71.052672 
L 390.425322 -70.890254 
L 391.193532 -70.739828 
L 391.961742 -70.601392 
L 392.729952 -70.474861 
L 393.498162 -70.360055 
L 394.266372 -70.25669 
L 395.034582 -70.166594 
L 395.802792 -70.08438 
L 396.571001 -70.016642 
L 397.339211 -69.955097 
L 398.107421 -69.904585 
L 398.875631 -69.859984 
L 399.643841 -69.824857 
L 400.412051 -69.786204 
L 401.180261 -69.762734 
L 401.948471 -69.742486 
L 402.716681 -69.722404 
L 403.484891 -69.704319 
L 404.2531 -69.687307 
L 405.02131 -69.67271 
L 405.78952 -69.654833 
L 406.55773 -69.637934 
L 407.32594 -69.616477 
L 408.09415 -69.592688 
L 408.86236 -69.56833 
L 409.63057 -69.540394 
L 410.39878 -69.506541 
L 411.16699 -69.46942 
L 411.935199 -69.429005 
L 412.703409 -69.385373 
L 413.471619 -69.341485 
L 414.239829 -69.294934 
L 415.008039 -69.245598 
L 415.776249 -69.196751 
L 416.544459 -69.141822 
L 417.312669 -69.084032 
L 418.080879 -69.033725 
L 418.849089 -68.978826 
L 419.617298 -68.927014 
L 420.385508 -68.878842 
L 421.153718 -68.829943 
L 421.921928 -68.783001 
L 422.690138 -68.741219 
L 423.458348 -68.700083 
L 424.226558 -68.662125 
L 424.994768 -68.627611 
L 425.762978 -68.59675 
L 426.531188 -68.572494 
L 427.299397 -68.547875 
L 428.067607 -68.530096 
L 428.835817 -68.519241 
L 429.604027 -68.510491 
L 430.372237 -68.506104 
L 430.372237 -67.164545 
L 430.372237 -67.164545 
L 429.604027 -67.164545 
L 428.835817 -67.164545 
L 428.067607 -67.164545 
L 427.299397 -67.164545 
L 426.531188 -67.164545 
L 425.762978 -67.164545 
L 424.994768 -67.164545 
L 424.226558 -67.164545 
L 423.458348 -67.164545 
L 422.690138 -67.164545 
L 421.921928 -67.164545 
L 421.153718 -67.164545 
L 420.385508 -67.164545 
L 419.617298 -67.164545 
L 418.849089 -67.164545 
L 418.080879 -67.164545 
L 417.312669 -67.164545 
L 416.544459 -67.164545 
L 415.776249 -67.164545 
L 415.008039 -67.164545 
L 414.239829 -67.164545 
L 413.471619 -67.164545 
L 412.703409 -67.164545 
L 411.935199 -67.164545 
L 411.16699 -67.164545 
L 410.39878 -67.164545 
L 409.63057 -67.164545 
L 408.86236 -67.164545 
L 408.09415 -67.164545 
L 407.32594 -67.164545 
L 406.55773 -67.164545 
L 405.78952 -67.164545 
L 405.02131 -67.164545 
L 404.2531 -67.164545 
L 403.484891 -67.164545 
L 402.716681 -67.164545 
L 401.948471 -67.164545 
L 401.180261 -67.164545 
L 400.412051 -67.164545 
L 399.643841 -67.164545 
L 398.875631 -67.164545 
L 398.107421 -67.164545 
L 397.339211 -67.164545 
L 396.571001 -67.164545 
L 395.802792 -67.164545 
L 395.034582 -67.164545 
L 394.266372 -67.164545 
L 393.498162 -67.164545 
L 392.729952 -67.164545 
L 391.961742 -67.164545 
L 391.193532 -67.164545 
L 390.425322 -67.164545 
L 389.657112 -67.164545 
L 388.888902 -67.164545 
L 388.120693 -67.164545 
L 387.352483 -67.164545 
L 386.584273 -67.164545 
L 385.816063 -67.164545 
L 385.047853 -67.164545 
L 384.279643 -67.164545 
L 383.511433 -67.164545 
L 382.743223 -67.164545 
L 381.975013 -67.164545 
L 381.206803 -67.164545 
L 380.438594 -67.164545 
L 379.670384 -67.164545 
L 378.902174 -67.164545 
L 378.133964 -67.164545 
L 377.365754 -67.164545 
L 376.597544 -67.164545 
L 375.829334 -67.164545 
L 375.061124 -67.164545 
L 374.292914 -67.164545 
L 373.524704 -67.164545 
L 372.756495 -67.164545 
L 371.988285 -67.164545 
L 371.220075 -67.164545 
L 370.451865 -67.164545 
L 369.683655 -67.164545 
L 368.915445 -67.164545 
L 368.147235 -67.164545 
L 367.379025 -67.164545 
L 366.610815 -67.164545 
L 365.842605 -67.164545 
L 365.074396 -67.164545 
L 364.306186 -67.164545 
L 363.537976 -67.164545 
L 362.769766 -67.164545 
L 362.001556 -67.164545 
L 361.233346 -67.164545 
L 360.465136 -67.164545 
L 359.696926 -67.164545 
L 358.928716 -67.164545 
L 358.160506 -67.164545 
L 357.392297 -67.164545 
L 356.624087 -67.164545 
L 355.855877 -67.164545 
L 355.087667 -67.164545 
L 354.319457 -67.164545 
L 353.551247 -67.164545 
L 352.783037 -67.164545 
L 352.014827 -67.164545 
L 351.246617 -67.164545 
L 350.478407 -67.164545 
L 349.710198 -67.164545 
L 348.941988 -67.164545 
L 348.173778 -67.164545 
L 347.405568 -67.164545 
L 346.637358 -67.164545 
L 345.869148 -67.164545 
L 345.100938 -67.164545 
L 344.332728 -67.164545 
L 343.564518 -67.164545 
L 342.796308 -67.164545 
L 342.028099 -67.164545 
L 341.259889 -67.164545 
L 340.491679 -67.164545 
L 339.723469 -67.164545 
L 338.955259 -67.164545 
L 338.187049 -67.164545 
L 337.418839 -67.164545 
L 336.650629 -67.164545 
L 335.882419 -67.164545 
L 335.114209 -67.164545 
L 334.346 -67.164545 
L 333.57779 -67.164545 
L 332.80958 -67.164545 
L 332.04137 -67.164545 
L 331.27316 -67.164545 
L 330.50495 -67.164545 
L 329.73674 -67.164545 
L 328.96853 -67.164545 
L 328.20032 -67.164545 
L 327.43211 -67.164545 
L 326.663901 -67.164545 
L 325.895691 -67.164545 
L 325.127481 -67.164545 
L 324.359271 -67.164545 
L 323.591061 -67.164545 
L 322.822851 -67.164545 
L 322.054641 -67.164545 
L 321.286431 -67.164545 
L 320.518221 -67.164545 
L 319.750011 -67.164545 
L 318.981802 -67.164545 
L 318.213592 -67.164545 
L 317.445382 -67.164545 
L 316.677172 -67.164545 
L 315.908962 -67.164545 
L 315.140752 -67.164545 
L 314.372542 -67.164545 
L 313.604332 -67.164545 
L 312.836122 -67.164545 
L 312.067912 -67.164545 
L 311.299703 -67.164545 
L 310.531493 -67.164545 
L 309.763283 -67.164545 
L 308.995073 -67.164545 
L 308.226863 -67.164545 
L 307.458653 -67.164545 
L 306.690443 -67.164545 
L 305.922233 -67.164545 
L 305.154023 -67.164545 
L 304.385813 -67.164545 
L 303.617604 -67.164545 
L 302.849394 -67.164545 
L 302.081184 -67.164545 
L 301.312974 -67.164545 
L 300.544764 -67.164545 
L 299.776554 -67.164545 
L 299.008344 -67.164545 
L 298.240134 -67.164545 
L 297.471924 -67.164545 
L 296.703714 -67.164545 
L 295.935505 -67.164545 
L 295.167295 -67.164545 
L 294.399085 -67.164545 
L 293.630875 -67.164545 
L 292.862665 -67.164545 
L 292.094455 -67.164545 
L 291.326245 -67.164545 
L 290.558035 -67.164545 
L 289.789825 -67.164545 
L 289.021615 -67.164545 
L 288.253406 -67.164545 
L 287.485196 -67.164545 
L 286.716986 -67.164545 
L 285.948776 -67.164545 
L 285.180566 -67.164545 
L 284.412356 -67.164545 
L 283.644146 -67.164545 
L 282.875936 -67.164545 
L 282.107726 -67.164545 
L 281.339516 -67.164545 
L 280.571307 -67.164545 
L 279.803097 -67.164545 
L 279.034887 -67.164545 
L 278.266677 -67.164545 
L 277.498467 -67.164545 
L 276.730257 -67.164545 
L 275.962047 -67.164545 
L 275.193837 -67.164545 
L 274.425627 -67.164545 
L 273.657417 -67.164545 
L 272.889208 -67.164545 
L 272.120998 -67.164545 
L 271.352788 -67.164545 
L 270.584578 -67.164545 
L 269.816368 -67.164545 
L 269.048158 -67.164545 
L 268.279948 -67.164545 
L 267.511738 -67.164545 
L 266.743528 -67.164545 
L 265.975318 -67.164545 
L 265.207109 -67.164545 
L 264.438899 -67.164545 
L 263.670689 -67.164545 
L 262.902479 -67.164545 
L 262.134269 -67.164545 
L 261.366059 -67.164545 
L 260.597849 -67.164545 
L 259.829639 -67.164545 
L 259.061429 -67.164545 
L 258.293219 -67.164545 
L 257.52501 -67.164545 
L 256.7568 -67.164545 
L 255.98859 -67.164545 
L 255.22038 -67.164545 
L 254.45217 -67.164545 
L 253.68396 -67.164545 
L 252.91575 -67.164545 
L 252.14754 -67.164545 
L 251.37933 -67.164545 
L 250.61112 -67.164545 
L 249.842911 -67.164545 
L 249.074701 -67.164545 
L 248.306491 -67.164545 
L 247.538281 -67.164545 
L 246.770071 -67.164545 
L 246.001861 -67.164545 
L 245.233651 -67.164545 
L 244.465441 -67.164545 
L 243.697231 -67.164545 
L 242.929021 -67.164545 
L 242.160812 -67.164545 
L 241.392602 -67.164545 
L 240.624392 -67.164545 
L 239.856182 -67.164545 
L 239.087972 -67.164545 
L 238.319762 -67.164545 
L 237.551552 -67.164545 
L 236.783342 -67.164545 
L 236.015132 -67.164545 
L 235.246922 -67.164545 
L 234.478713 -67.164545 
L 233.710503 -67.164545 
L 232.942293 -67.164545 
L 232.174083 -67.164545 
L 231.405873 -67.164545 
L 230.637663 -67.164545 
L 229.869453 -67.164545 
L 229.101243 -67.164545 
L 228.333033 -67.164545 
L 227.564823 -67.164545 
L 226.796614 -67.164545 
L 226.028404 -67.164545 
L 225.260194 -67.164545 
L 224.491984 -67.164545 
L 223.723774 -67.164545 
L 222.955564 -67.164545 
L 222.187354 -67.164545 
L 221.419144 -67.164545 
L 220.650934 -67.164545 
L 219.882724 -67.164545 
L 219.114515 -67.164545 
L 218.346305 -67.164545 
L 217.578095 -67.164545 
L 216.809885 -67.164545 
L 216.041675 -67.164545 
L 215.273465 -67.164545 
L 214.505255 -67.164545 
L 213.737045 -67.164545 
L 212.968835 -67.164545 
L 212.200625 -67.164545 
L 211.432416 -67.164545 
L 210.664206 -67.164545 
L 209.895996 -67.164545 
L 209.127786 -67.164545 
L 208.359576 -67.164545 
L 207.591366 -67.164545 
L 206.823156 -67.164545 
L 206.054946 -67.164545 
L 205.286736 -67.164545 
L 204.518526 -67.164545 
L 203.750317 -67.164545 
L 202.982107 -67.164545 
L 202.213897 -67.164545 
L 201.445687 -67.164545 
L 200.677477 -67.164545 
L 199.909267 -67.164545 
L 199.141057 -67.164545 
L 198.372847 -67.164545 
L 197.604637 -67.164545 
L 196.836427 -67.164545 
L 196.068218 -67.164545 
L 195.300008 -67.164545 
L 194.531798 -67.164545 
L 193.763588 -67.164545 
L 192.995378 -67.164545 
L 192.227168 -67.164545 
L 191.458958 -67.164545 
L 190.690748 -67.164545 
L 189.922538 -67.164545 
L 189.154328 -67.164545 
L 188.386119 -67.164545 
L 187.617909 -67.164545 
L 186.849699 -67.164545 
L 186.081489 -67.164545 
L 185.313279 -67.164545 
L 184.545069 -67.164545 
L 183.776859 -67.164545 
L 183.008649 -67.164545 
L 182.240439 -67.164545 
L 181.472229 -67.164545 
L 180.70402 -67.164545 
L 179.93581 -67.164545 
L 179.1676 -67.164545 
L 178.39939 -67.164545 
L 177.63118 -67.164545 
L 176.86297 -67.164545 
L 176.09476 -67.164545 
L 175.32655 -67.164545 
L 174.55834 -67.164545 
L 173.79013 -67.164545 
L 173.021921 -67.164545 
L 172.253711 -67.164545 
L 171.485501 -67.164545 
L 170.717291 -67.164545 
L 169.949081 -67.164545 
L 169.180871 -67.164545 
L 168.412661 -67.164545 
L 167.644451 -67.164545 
L 166.876241 -67.164545 
L 166.108031 -67.164545 
L 165.339822 -67.164545 
L 164.571612 -67.164545 
L 163.803402 -67.164545 
L 163.035192 -67.164545 
L 162.266982 -67.164545 
L 161.498772 -67.164545 
L 160.730562 -67.164545 
L 159.962352 -67.164545 
L 159.194142 -67.164545 
L 158.425932 -67.164545 
L 157.657723 -67.164545 
L 156.889513 -67.164545 
L 156.121303 -67.164545 
L 155.353093 -67.164545 
L 154.584883 -67.164545 
L 153.816673 -67.164545 
L 153.048463 -67.164545 
L 152.280253 -67.164545 
L 151.512043 -67.164545 
L 150.743833 -67.164545 
L 149.975623 -67.164545 
L 149.207414 -67.164545 
L 148.439204 -67.164545 
L 147.670994 -67.164545 
L 146.902784 -67.164545 
L 146.134574 -67.164545 
L 145.366364 -67.164545 
L 144.598154 -67.164545 
L 143.829944 -67.164545 
L 143.061734 -67.164545 
L 142.293524 -67.164545 
L 141.525315 -67.164545 
L 140.757105 -67.164545 
L 139.988895 -67.164545 
L 139.220685 -67.164545 
L 138.452475 -67.164545 
L 137.684265 -67.164545 
L 136.916055 -67.164545 
L 136.147845 -67.164545 
L 135.379635 -67.164545 
L 134.611425 -67.164545 
L 133.843216 -67.164545 
L 133.075006 -67.164545 
L 132.306796 -67.164545 
L 131.538586 -67.164545 
L 130.770376 -67.164545 
L 130.002166 -67.164545 
L 129.233956 -67.164545 
L 128.465746 -67.164545 
L 127.697536 -67.164545 
L 126.929326 -67.164545 
L 126.161117 -67.164545 
L 125.392907 -67.164545 
L 124.624697 -67.164545 
L 123.856487 -67.164545 
L 123.088277 -67.164545 
L 122.320067 -67.164545 
L 121.551857 -67.164545 
L 120.783647 -67.164545 
L 120.015437 -67.164545 
L 119.247227 -67.164545 
L 118.479018 -67.164545 
L 117.710808 -67.164545 
L 116.942598 -67.164545 
L 116.174388 -67.164545 
L 115.406178 -67.164545 
L 114.637968 -67.164545 
L 113.869758 -67.164545 
L 113.101548 -67.164545 
L 112.333338 -67.164545 
L 111.565128 -67.164545 
L 110.796919 -67.164545 
L 110.028709 -67.164545 
L 109.260499 -67.164545 
L 108.492289 -67.164545 
L 107.724079 -67.164545 
L 106.955869 -67.164545 
L 106.187659 -67.164545 
L 105.419449 -67.164545 
L 104.651239 -67.164545 
L 103.883029 -67.164545 
L 103.11482 -67.164545 
L 102.34661 -67.164545 
L 101.5784 -67.164545 
L 100.81019 -67.164545 
L 100.04198 -67.164545 
L 99.27377 -67.164545 
L 98.50556 -67.164545 
L 97.73735 -67.164545 
L 96.96914 -67.164545 
L 96.20093 -67.164545 
L 95.432721 -67.164545 
L 94.664511 -67.164545 
L 93.896301 -67.164545 
L 93.128091 -67.164545 
L 92.359881 -67.164545 
L 91.591671 -67.164545 
L 90.823461 -67.164545 
L 90.055251 -67.164545 
L 89.287041 -67.164545 
L 88.518831 -67.164545 
L 87.750622 -67.164545 
L 86.982412 -67.164545 
L 86.214202 -67.164545 
L 85.445992 -67.164545 
L 84.677782 -67.164545 
L 83.909572 -67.164545 
L 83.141362 -67.164545 
L 82.373152 -67.164545 
L 81.604942 -67.164545 
L 80.836732 -67.164545 
L 80.068523 -67.164545 
L 79.300313 -67.164545 
L 78.532103 -67.164545 
L 77.763893 -67.164545 
L 76.995683 -67.164545 
L 76.227473 -67.164545 
L 75.459263 -67.164545 
L 74.691053 -67.164545 
L 73.922843 -67.164545 
L 73.154633 -67.164545 
L 72.386424 -67.164545 
L 71.618214 -67.164545 
L 70.850004 -67.164545 
L 70.081794 -67.164545 
L 69.313584 -67.164545 
L 68.545374 -67.164545 
L 67.777164 -67.164545 
L 67.008954 -67.164545 
L 66.240744 -67.164545 
L 65.472534 -67.164545 
L 64.704325 -67.164545 
L 63.936115 -67.164545 
L 63.167905 -67.164545 
L 62.399695 -67.164545 
L 61.631485 -67.164545 
L 60.863275 -67.164545 
L 60.095065 -67.164545 
L 59.326855 -67.164545 
L 58.558645 -67.164545 
L 57.790435 -67.164545 
L 57.022226 -67.164545 
L 56.254016 -67.164545 
L 55.485806 -67.164545 
L 54.717596 -67.164545 
L 53.949386 -67.164545 
L 53.181176 -67.164545 
L 52.412966 -67.164545 
L 51.644756 -67.164545 
L 50.876546 -67.164545 
L 50.108336 -67.164545 
L 49.340127 -67.164545 
L 48.571917 -67.164545 
L 47.803707 -67.164545 
L 47.035497 -67.164545 
L 46.267287 -67.164545 
L 45.499077 -67.164545 
L 44.730867 -67.164545 
L 43.962657 -67.164545 
L 43.194447 -67.164545 
L 42.426237 -67.164545 
L 41.658028 -67.164545 
L 40.889818 -67.164545 
L 40.121608 -67.164545 
L 39.353398 -67.164545 
L 38.585188 -67.164545 
L 37.816978 -67.164545 
z
" style="stroke: #1f77b4; stroke-opacity: 0"/>
    </defs>
    <g clip-path="url(#pbea763d090)">
     <use xlink:href="#mbef8d4c75e" x="0" y="345.6" style="fill: #1f77b4; fill-opacity: 0; stroke: #1f77b4; stroke-opacity: 0"/>
    </g>
   </g>
   <g id="matplotlib.axis_1">
    <g id="xtick_1">
     <g id="line2d_1">
      <defs>
       <path id="m2aefeafd46" d="M 0 0 
L 0 3 
" style="stroke: #808080"/>
      </defs>
      <g>
       <use xlink:href="#m2aefeafd46" x="40.486846" y="291.18" style="fill: #808080; stroke: #808080"/>
      </g>
     </g>
     <g id="text_1">
      <!-- −0.004 -->
      <g transform="translate(14.581377 308.317813) scale(0.14 -0.14)">
       <defs>
        <path id="DejaVuSans-2212" d="M 678 2272 
L 4684 2272 
L 4684 1741 
L 678 1741 
L 678 2272 
z
" transform="scale(0.015625)"/>
        <path id="DejaVuSans-30" d="M 2034 4250 
Q 1547 4250 1301 3770 
Q 1056 3291 1056 2328 
Q 1056 1369 1301 889 
Q 1547 409 2034 409 
Q 2525 409 2770 889 
Q 3016 1369 3016 2328 
Q 3016 3291 2770 3770 
Q 2525 4250 2034 4250 
z
M 2034 4750 
Q 2819 4750 3233 4129 
Q 3647 3509 3647 2328 
Q 3647 1150 3233 529 
Q 2819 -91 2034 -91 
Q 1250 -91 836 529 
Q 422 1150 422 2328 
Q 422 3509 836 4129 
Q 1250 4750 2034 4750 
z
" transform="scale(0.015625)"/>
        <path id="DejaVuSans-2e" d="M 684 794 
L 1344 794 
L 1344 0 
L 684 0 
L 684 794 
z
" transform="scale(0.015625)"/>
        <path id="DejaVuSans-34" d="M 2419 4116 
L 825 1625 
L 2419 1625 
L 2419 4116 
z
M 2253 4666 
L 3047 4666 
L 3047 1625 
L 3713 1625 
L 3713 1100 
L 3047 1100 
L 3047 0 
L 2419 0 
L 2419 1100 
L 313 1100 
L 313 1709 
L 2253 4666 
z
" transform="scale(0.015625)"/>
       </defs>
       <use xlink:href="#DejaVuSans-2212"/>
       <use xlink:href="#DejaVuSans-30" x="83.789062"/>
       <use xlink:href="#DejaVuSans-2e" x="147.412109"/>
       <use xlink:href="#DejaVuSans-30" x="179.199219"/>
       <use xlink:href="#DejaVuSans-30" x="242.822266"/>
       <use xlink:href="#DejaVuSans-34" x="306.445312"/>
      </g>
     </g>
    </g>
    <g id="xtick_2">
     <g id="line2d_2">
      <g>
       <use xlink:href="#m2aefeafd46" x="127.144846" y="291.18" style="fill: #808080; stroke: #808080"/>
      </g>
     </g>
     <g id="text_2">
      <!-- −0.002 -->
      <g transform="translate(101.239377 308.317813) scale(0.14 -0.14)">
       <defs>
        <path id="DejaVuSans-32" d="M 1228 531 
L 3431 531 
L 3431 0 
L 469 0 
L 469 531 
Q 828 903 1448 1529 
Q 2069 2156 2228 2338 
Q 2531 2678 2651 2914 
Q 2772 3150 2772 3378 
Q 2772 3750 2511 3984 
Q 2250 4219 1831 4219 
Q 1534 4219 1204 4116 
Q 875 4013 500 3803 
L 500 4441 
Q 881 4594 1212 4672 
Q 1544 4750 1819 4750 
Q 2544 4750 2975 4387 
Q 3406 4025 3406 3419 
Q 3406 3131 3298 2873 
Q 3191 2616 2906 2266 
Q 2828 2175 2409 1742 
Q 1991 1309 1228 531 
z
" transform="scale(0.015625)"/>
       </defs>
       <use xlink:href="#DejaVuSans-2212"/>
       <use xlink:href="#DejaVuSans-30" x="83.789062"/>
       <use xlink:href="#DejaVuSans-2e" x="147.412109"/>
       <use xlink:href="#DejaVuSans-30" x="179.199219"/>
       <use xlink:href="#DejaVuSans-30" x="242.822266"/>
       <use xlink:href="#DejaVuSans-32" x="306.445312"/>
      </g>
     </g>
    </g>
    <g id="xtick_3">
     <g id="line2d_3">
      <g>
       <use xlink:href="#m2aefeafd46" x="213.802847" y="291.18" style="fill: #808080; stroke: #808080"/>
      </g>
     </g>
     <g id="text_3">
      <!-- 0.000 -->
      <g transform="translate(193.763159 308.317813) scale(0.14 -0.14)">
       <use xlink:href="#DejaVuSans-30"/>
       <use xlink:href="#DejaVuSans-2e" x="63.623047"/>
       <use xlink:href="#DejaVuSans-30" x="95.410156"/>
       <use xlink:href="#DejaVuSans-30" x="159.033203"/>
       <use xlink:href="#DejaVuSans-30" x="222.65625"/>
      </g>
     </g>
    </g>
    <g id="xtick_4">
     <g id="line2d_4">
      <g>
       <use xlink:href="#m2aefeafd46" x="300.460847" y="291.18" style="fill: #808080; stroke: #808080"/>
      </g>
     </g>
     <g id="text_4">
      <!-- 0.002 -->
      <g transform="translate(280.42116 308.317813) scale(0.14 -0.14)">
       <use xlink:href="#DejaVuSans-30"/>
       <use xlink:href="#DejaVuSans-2e" x="63.623047"/>
       <use xlink:href="#DejaVuSans-30" x="95.410156"/>
       <use xlink:href="#DejaVuSans-30" x="159.033203"/>
       <use xlink:href="#DejaVuSans-32" x="222.65625"/>
      </g>
     </g>
    </g>
    <g id="xtick_5">
     <g id="line2d_5">
      <g>
       <use xlink:href="#m2aefeafd46" x="387.118847" y="291.18" style="fill: #808080; stroke: #808080"/>
      </g>
     </g>
     <g id="text_5">
      <!-- 0.004 -->
      <g transform="translate(367.07916 308.317813) scale(0.14 -0.14)">
       <use xlink:href="#DejaVuSans-30"/>
       <use xlink:href="#DejaVuSans-2e" x="63.623047"/>
       <use xlink:href="#DejaVuSans-30" x="95.410156"/>
       <use xlink:href="#DejaVuSans-30" x="159.033203"/>
       <use xlink:href="#DejaVuSans-34" x="222.65625"/>
      </g>
     </g>
    </g>
    <g id="text_6">
     <!-- $\Delta=p_1 - p_2$ -->
     <g transform="translate(185.854608 328.87) scale(0.18 -0.18)">
      <defs>
       <path id="DejaVuSans-394" d="M 2188 4044 
L 906 525 
L 3472 525 
L 2188 4044 
z
M 50 0 
L 1831 4666 
L 2547 4666 
L 4325 0 
L 50 0 
z
" transform="scale(0.015625)"/>
       <path id="DejaVuSans-3d" d="M 678 2906 
L 4684 2906 
L 4684 2381 
L 678 2381 
L 678 2906 
z
M 678 1631 
L 4684 1631 
L 4684 1100 
L 678 1100 
L 678 1631 
z
" transform="scale(0.015625)"/>
       <path id="DejaVuSans-Oblique-70" d="M 3175 2156 
Q 3175 2616 2975 2859 
Q 2775 3103 2400 3103 
Q 2144 3103 1911 2972 
Q 1678 2841 1497 2591 
Q 1319 2344 1212 1994 
Q 1106 1644 1106 1300 
Q 1106 863 1306 627 
Q 1506 391 1875 391 
Q 2147 391 2380 519 
Q 2613 647 2778 891 
Q 2956 1147 3065 1494 
Q 3175 1841 3175 2156 
z
M 1394 2969 
Q 1625 3272 1939 3428 
Q 2253 3584 2638 3584 
Q 3175 3584 3472 3232 
Q 3769 2881 3769 2247 
Q 3769 1728 3584 1258 
Q 3400 788 3053 416 
Q 2822 169 2531 39 
Q 2241 -91 1919 -91 
Q 1547 -91 1294 64 
Q 1041 219 916 525 
L 556 -1331 
L -19 -1331 
L 922 3500 
L 1497 3500 
L 1394 2969 
z
" transform="scale(0.015625)"/>
       <path id="DejaVuSans-31" d="M 794 531 
L 1825 531 
L 1825 4091 
L 703 3866 
L 703 4441 
L 1819 4666 
L 2450 4666 
L 2450 531 
L 3481 531 
L 3481 0 
L 794 0 
L 794 531 
z
" transform="scale(0.015625)"/>
      </defs>
      <use xlink:href="#DejaVuSans-394" transform="translate(0 0.09375)"/>
      <use xlink:href="#DejaVuSans-3d" transform="translate(87.890625 0.09375)"/>
      <use xlink:href="#DejaVuSans-Oblique-70" transform="translate(191.162109 0.09375)"/>
      <use xlink:href="#DejaVuSans-31" transform="translate(254.638672 -16.3125) scale(0.7)"/>
      <use xlink:href="#DejaVuSans-2212" transform="translate(321.391602 0.09375)"/>
      <use xlink:href="#DejaVuSans-Oblique-70" transform="translate(424.663086 0.09375)"/>
      <use xlink:href="#DejaVuSans-32" transform="translate(488.139648 -16.3125) scale(0.7)"/>
     </g>
    </g>
   </g>
   <g id="matplotlib.axis_2"/>
   <g id="line2d_6">
    <path d="M 37.816978 277.612082 
L 46.267287 277.51936 
L 51.644756 277.209641 
L 56.254016 276.703895 
L 64.704325 275.493055 
L 80.068523 273.26386 
L 84.677782 272.278399 
L 90.055251 270.877015 
L 95.432721 269.266098 
L 99.27377 267.935013 
L 102.34661 266.693549 
L 105.419449 265.139913 
L 107.724079 263.749336 
L 110.028709 262.125467 
L 112.333338 260.253261 
L 114.637968 258.142931 
L 117.710808 254.965868 
L 121.551857 250.4713 
L 124.624697 246.498169 
L 128.465746 241.136504 
L 132.306796 235.408237 
L 136.147845 229.360016 
L 141.525315 220.525309 
L 149.975623 206.432562 
L 156.889513 195.416277 
L 160.730562 189.246232 
L 163.803402 183.941681 
L 166.876241 178.067502 
L 169.180871 173.173842 
L 171.485501 167.910995 
L 174.55834 160.248085 
L 179.1676 147.815417 
L 188.386119 122.581102 
L 192.995378 111.074107 
L 196.836427 102.267187 
L 201.445687 92.378839 
L 208.359576 77.707393 
L 213.737045 65.33628 
L 219.114515 52.739179 
L 222.955564 44.413708 
L 225.260194 39.999563 
L 227.564823 36.132348 
L 229.101243 33.910824 
L 231.405873 31.066693 
L 233.710503 28.781017 
L 236.015132 26.974922 
L 237.551552 26.017328 
L 239.856182 24.865271 
L 242.160812 24.042588 
L 243.697231 23.689132 
L 246.001861 23.544545 
L 247.538281 23.669206 
L 249.074701 24.060057 
L 250.61112 24.714118 
L 252.14754 25.651295 
L 253.68396 26.848408 
L 255.22038 28.323059 
L 257.52501 31.061303 
L 259.829639 34.275139 
L 262.134269 37.886476 
L 265.975318 44.441011 
L 269.816368 51.331401 
L 272.889208 57.298648 
L 275.962047 63.786452 
L 278.266677 69.166606 
L 280.571307 75.009582 
L 282.875936 81.276762 
L 285.948776 90.291324 
L 294.399085 116.6852 
L 302.849394 142.612797 
L 309.763283 162.933826 
L 314.372542 175.855421 
L 318.213592 185.90339 
L 321.286431 193.284925 
L 324.359271 200.015781 
L 327.43211 206.056332 
L 331.27316 212.946924 
L 335.114209 219.4643 
L 343.564518 233.729929 
L 347.405568 240.035927 
L 350.478407 244.744781 
L 353.551247 249.066132 
L 356.624087 252.953667 
L 359.696926 256.486232 
L 362.769766 259.666506 
L 365.842605 262.522194 
L 368.915445 265.048466 
L 371.220075 266.702748 
L 374.292914 268.629004 
L 377.365754 270.256336 
L 380.438594 271.635643 
L 384.279643 273.059086 
L 388.120693 274.181291 
L 391.193532 274.860172 
L 394.266372 275.34331 
L 398.107421 275.695415 
L 402.716681 275.877596 
L 412.703409 276.214627 
L 429.604027 277.089509 
L 430.372237 277.093896 
L 430.372237 277.093896 
" clip-path="url(#pbea763d090)" style="fill: none; stroke: #1f77b4; stroke-width: 1.5; stroke-linecap: square"/>
   </g>
   <g id="line2d_7">
    <path d="M 135.102966 273.082745 
L 345.568684 273.082745 
" clip-path="url(#pbea763d090)" style="fill: none; stroke: #000000; stroke-width: 3"/>
   </g>
   <g id="line2d_8">
    <path d="M 213.802847 277.161 
L 213.802847 80.895 
" clip-path="url(#pbea763d090)" style="fill: none; stroke: #ff7f0e; stroke-opacity: 0.65; stroke-width: 1.5; stroke-linecap: square"/>
   </g>
   <g id="patch_3">
    <path d="M 18.189215 291.18 
L 450 291.18 
" style="fill: none; stroke: #808080; stroke-width: 0.8; stroke-linejoin: miter; stroke-linecap: square"/>
   </g>
   <g id="text_7">
    <!-- -0.0018  -->
    <g transform="translate(72.438123 259.700973) scale(0.15 -0.15)">
     <defs>
      <path id="DejaVuSans-2d" d="M 313 2009 
L 1997 2009 
L 1997 1497 
L 313 1497 
L 313 2009 
z
" transform="scale(0.015625)"/>
      <path id="DejaVuSans-38" d="M 2034 2216 
Q 1584 2216 1326 1975 
Q 1069 1734 1069 1313 
Q 1069 891 1326 650 
Q 1584 409 2034 409 
Q 2484 409 2743 651 
Q 3003 894 3003 1313 
Q 3003 1734 2745 1975 
Q 2488 2216 2034 2216 
z
M 1403 2484 
Q 997 2584 770 2862 
Q 544 3141 544 3541 
Q 544 4100 942 4425 
Q 1341 4750 2034 4750 
Q 2731 4750 3128 4425 
Q 3525 4100 3525 3541 
Q 3525 3141 3298 2862 
Q 3072 2584 2669 2484 
Q 3125 2378 3379 2068 
Q 3634 1759 3634 1313 
Q 3634 634 3220 271 
Q 2806 -91 2034 -91 
Q 1263 -91 848 271 
Q 434 634 434 1313 
Q 434 1759 690 2068 
Q 947 2378 1403 2484 
z
M 1172 3481 
Q 1172 3119 1398 2916 
Q 1625 2713 2034 2713 
Q 2441 2713 2670 2916 
Q 2900 3119 2900 3481 
Q 2900 3844 2670 4047 
Q 2441 4250 2034 4250 
Q 1625 4250 1398 4047 
Q 1172 3844 1172 3481 
z
" transform="scale(0.015625)"/>
      <path id="DejaVuSans-20" transform="scale(0.015625)"/>
     </defs>
     <use xlink:href="#DejaVuSans-2d"/>
     <use xlink:href="#DejaVuSans-30" x="36.083984"/>
     <use xlink:href="#DejaVuSans-2e" x="99.707031"/>
     <use xlink:href="#DejaVuSans-30" x="131.494141"/>
     <use xlink:href="#DejaVuSans-30" x="195.117188"/>
     <use xlink:href="#DejaVuSans-31" x="258.740234"/>
     <use xlink:href="#DejaVuSans-38" x="322.363281"/>
     <use xlink:href="#DejaVuSans-20" x="385.986328"/>
    </g>
   </g>
   <g id="text_8">
    <!--  0.003 -->
    <g transform="translate(345.568684 259.700973) scale(0.15 -0.15)">
     <defs>
      <path id="DejaVuSans-33" d="M 2597 2516 
Q 3050 2419 3304 2112 
Q 3559 1806 3559 1356 
Q 3559 666 3084 287 
Q 2609 -91 1734 -91 
Q 1441 -91 1130 -33 
Q 819 25 488 141 
L 488 750 
Q 750 597 1062 519 
Q 1375 441 1716 441 
Q 2309 441 2620 675 
Q 2931 909 2931 1356 
Q 2931 1769 2642 2001 
Q 2353 2234 1838 2234 
L 1294 2234 
L 1294 2753 
L 1863 2753 
Q 2328 2753 2575 2939 
Q 2822 3125 2822 3475 
Q 2822 3834 2567 4026 
Q 2313 4219 1838 4219 
Q 1578 4219 1281 4162 
Q 984 4106 628 3988 
L 628 4550 
Q 988 4650 1302 4700 
Q 1616 4750 1894 4750 
Q 2613 4750 3031 4423 
Q 3450 4097 3450 3541 
Q 3450 3153 3228 2886 
Q 3006 2619 2597 2516 
z
" transform="scale(0.015625)"/>
     </defs>
     <use xlink:href="#DejaVuSans-20"/>
     <use xlink:href="#DejaVuSans-30" x="31.787109"/>
     <use xlink:href="#DejaVuSans-2e" x="95.410156"/>
     <use xlink:href="#DejaVuSans-30" x="127.197266"/>
     <use xlink:href="#DejaVuSans-30" x="190.820312"/>
     <use xlink:href="#DejaVuSans-33" x="254.443359"/>
    </g>
   </g>
   <g id="text_9">
    <!-- 95% HDI -->
    <g transform="translate(207.654575 198.144818) scale(0.15 -0.15)">
     <defs>
      <path id="DejaVuSans-39" d="M 703 97 
L 703 672 
Q 941 559 1184 500 
Q 1428 441 1663 441 
Q 2288 441 2617 861 
Q 2947 1281 2994 2138 
Q 2813 1869 2534 1725 
Q 2256 1581 1919 1581 
Q 1219 1581 811 2004 
Q 403 2428 403 3163 
Q 403 3881 828 4315 
Q 1253 4750 1959 4750 
Q 2769 4750 3195 4129 
Q 3622 3509 3622 2328 
Q 3622 1225 3098 567 
Q 2575 -91 1691 -91 
Q 1453 -91 1209 -44 
Q 966 3 703 97 
z
M 1959 2075 
Q 2384 2075 2632 2365 
Q 2881 2656 2881 3163 
Q 2881 3666 2632 3958 
Q 2384 4250 1959 4250 
Q 1534 4250 1286 3958 
Q 1038 3666 1038 3163 
Q 1038 2656 1286 2365 
Q 1534 2075 1959 2075 
z
" transform="scale(0.015625)"/>
      <path id="DejaVuSans-35" d="M 691 4666 
L 3169 4666 
L 3169 4134 
L 1269 4134 
L 1269 2991 
Q 1406 3038 1543 3061 
Q 1681 3084 1819 3084 
Q 2600 3084 3056 2656 
Q 3513 2228 3513 1497 
Q 3513 744 3044 326 
Q 2575 -91 1722 -91 
Q 1428 -91 1123 -41 
Q 819 9 494 109 
L 494 744 
Q 775 591 1075 516 
Q 1375 441 1709 441 
Q 2250 441 2565 725 
Q 2881 1009 2881 1497 
Q 2881 1984 2565 2268 
Q 2250 2553 1709 2553 
Q 1456 2553 1204 2497 
Q 953 2441 691 2322 
L 691 4666 
z
" transform="scale(0.015625)"/>
      <path id="DejaVuSans-25" d="M 4653 2053 
Q 4381 2053 4226 1822 
Q 4072 1591 4072 1178 
Q 4072 772 4226 539 
Q 4381 306 4653 306 
Q 4919 306 5073 539 
Q 5228 772 5228 1178 
Q 5228 1588 5073 1820 
Q 4919 2053 4653 2053 
z
M 4653 2450 
Q 5147 2450 5437 2106 
Q 5728 1763 5728 1178 
Q 5728 594 5436 251 
Q 5144 -91 4653 -91 
Q 4153 -91 3862 251 
Q 3572 594 3572 1178 
Q 3572 1766 3864 2108 
Q 4156 2450 4653 2450 
z
M 1428 4353 
Q 1159 4353 1004 4120 
Q 850 3888 850 3481 
Q 850 3069 1003 2837 
Q 1156 2606 1428 2606 
Q 1700 2606 1854 2837 
Q 2009 3069 2009 3481 
Q 2009 3884 1853 4118 
Q 1697 4353 1428 4353 
z
M 4250 4750 
L 4750 4750 
L 1831 -91 
L 1331 -91 
L 4250 4750 
z
M 1428 4750 
Q 1922 4750 2215 4408 
Q 2509 4066 2509 3481 
Q 2509 2891 2217 2550 
Q 1925 2209 1428 2209 
Q 931 2209 642 2551 
Q 353 2894 353 3481 
Q 353 4063 643 4406 
Q 934 4750 1428 4750 
z
" transform="scale(0.015625)"/>
      <path id="DejaVuSans-48" d="M 628 4666 
L 1259 4666 
L 1259 2753 
L 3553 2753 
L 3553 4666 
L 4184 4666 
L 4184 0 
L 3553 0 
L 3553 2222 
L 1259 2222 
L 1259 0 
L 628 0 
L 628 4666 
z
" transform="scale(0.015625)"/>
      <path id="DejaVuSans-44" d="M 1259 4147 
L 1259 519 
L 2022 519 
Q 2988 519 3436 956 
Q 3884 1394 3884 2338 
Q 3884 3275 3436 3711 
Q 2988 4147 2022 4147 
L 1259 4147 
z
M 628 4666 
L 1925 4666 
Q 3281 4666 3915 4102 
Q 4550 3538 4550 2338 
Q 4550 1131 3912 565 
Q 3275 0 1925 0 
L 628 0 
L 628 4666 
z
" transform="scale(0.015625)"/>
      <path id="DejaVuSans-49" d="M 628 4666 
L 1259 4666 
L 1259 0 
L 628 0 
L 628 4666 
z
" transform="scale(0.015625)"/>
     </defs>
     <use xlink:href="#DejaVuSans-39"/>
     <use xlink:href="#DejaVuSans-35" x="63.623047"/>
     <use xlink:href="#DejaVuSans-25" x="127.246094"/>
     <use xlink:href="#DejaVuSans-20" x="222.265625"/>
     <use xlink:href="#DejaVuSans-48" x="254.052734"/>
     <use xlink:href="#DejaVuSans-44" x="329.248047"/>
     <use xlink:href="#DejaVuSans-49" x="406.25"/>
    </g>
   </g>
   <g id="text_10">
    <!-- mean=0.0006 -->
    <g transform="translate(186.068619 64.327091) scale(0.15 -0.15)">
     <defs>
      <path id="DejaVuSans-6d" d="M 3328 2828 
Q 3544 3216 3844 3400 
Q 4144 3584 4550 3584 
Q 5097 3584 5394 3201 
Q 5691 2819 5691 2113 
L 5691 0 
L 5113 0 
L 5113 2094 
Q 5113 2597 4934 2840 
Q 4756 3084 4391 3084 
Q 3944 3084 3684 2787 
Q 3425 2491 3425 1978 
L 3425 0 
L 2847 0 
L 2847 2094 
Q 2847 2600 2669 2842 
Q 2491 3084 2119 3084 
Q 1678 3084 1418 2786 
Q 1159 2488 1159 1978 
L 1159 0 
L 581 0 
L 581 3500 
L 1159 3500 
L 1159 2956 
Q 1356 3278 1631 3431 
Q 1906 3584 2284 3584 
Q 2666 3584 2933 3390 
Q 3200 3197 3328 2828 
z
" transform="scale(0.015625)"/>
      <path id="DejaVuSans-65" d="M 3597 1894 
L 3597 1613 
L 953 1613 
Q 991 1019 1311 708 
Q 1631 397 2203 397 
Q 2534 397 2845 478 
Q 3156 559 3463 722 
L 3463 178 
Q 3153 47 2828 -22 
Q 2503 -91 2169 -91 
Q 1331 -91 842 396 
Q 353 884 353 1716 
Q 353 2575 817 3079 
Q 1281 3584 2069 3584 
Q 2775 3584 3186 3129 
Q 3597 2675 3597 1894 
z
M 3022 2063 
Q 3016 2534 2758 2815 
Q 2500 3097 2075 3097 
Q 1594 3097 1305 2825 
Q 1016 2553 972 2059 
L 3022 2063 
z
" transform="scale(0.015625)"/>
      <path id="DejaVuSans-61" d="M 2194 1759 
Q 1497 1759 1228 1600 
Q 959 1441 959 1056 
Q 959 750 1161 570 
Q 1363 391 1709 391 
Q 2188 391 2477 730 
Q 2766 1069 2766 1631 
L 2766 1759 
L 2194 1759 
z
M 3341 1997 
L 3341 0 
L 2766 0 
L 2766 531 
Q 2569 213 2275 61 
Q 1981 -91 1556 -91 
Q 1019 -91 701 211 
Q 384 513 384 1019 
Q 384 1609 779 1909 
Q 1175 2209 1959 2209 
L 2766 2209 
L 2766 2266 
Q 2766 2663 2505 2880 
Q 2244 3097 1772 3097 
Q 1472 3097 1187 3025 
Q 903 2953 641 2809 
L 641 3341 
Q 956 3463 1253 3523 
Q 1550 3584 1831 3584 
Q 2591 3584 2966 3190 
Q 3341 2797 3341 1997 
z
" transform="scale(0.015625)"/>
      <path id="DejaVuSans-6e" d="M 3513 2113 
L 3513 0 
L 2938 0 
L 2938 2094 
Q 2938 2591 2744 2837 
Q 2550 3084 2163 3084 
Q 1697 3084 1428 2787 
Q 1159 2491 1159 1978 
L 1159 0 
L 581 0 
L 581 3500 
L 1159 3500 
L 1159 2956 
Q 1366 3272 1645 3428 
Q 1925 3584 2291 3584 
Q 2894 3584 3203 3211 
Q 3513 2838 3513 2113 
z
" transform="scale(0.015625)"/>
      <path id="DejaVuSans-36" d="M 2113 2584 
Q 1688 2584 1439 2293 
Q 1191 2003 1191 1497 
Q 1191 994 1439 701 
Q 1688 409 2113 409 
Q 2538 409 2786 701 
Q 3034 994 3034 1497 
Q 3034 2003 2786 2293 
Q 2538 2584 2113 2584 
z
M 3366 4563 
L 3366 3988 
Q 3128 4100 2886 4159 
Q 2644 4219 2406 4219 
Q 1781 4219 1451 3797 
Q 1122 3375 1075 2522 
Q 1259 2794 1537 2939 
Q 1816 3084 2150 3084 
Q 2853 3084 3261 2657 
Q 3669 2231 3669 1497 
Q 3669 778 3244 343 
Q 2819 -91 2113 -91 
Q 1303 -91 875 529 
Q 447 1150 447 2328 
Q 447 3434 972 4092 
Q 1497 4750 2381 4750 
Q 2619 4750 2861 4703 
Q 3103 4656 3366 4563 
z
" transform="scale(0.015625)"/>
     </defs>
     <use xlink:href="#DejaVuSans-6d"/>
     <use xlink:href="#DejaVuSans-65" x="97.412109"/>
     <use xlink:href="#DejaVuSans-61" x="158.935547"/>
     <use xlink:href="#DejaVuSans-6e" x="220.214844"/>
     <use xlink:href="#DejaVuSans-3d" x="283.59375"/>
     <use xlink:href="#DejaVuSans-30" x="367.382812"/>
     <use xlink:href="#DejaVuSans-2e" x="431.005859"/>
     <use xlink:href="#DejaVuSans-30" x="462.792969"/>
     <use xlink:href="#DejaVuSans-30" x="526.416016"/>
     <use xlink:href="#DejaVuSans-30" x="590.039062"/>
     <use xlink:href="#DejaVuSans-36" x="653.662109"/>
    </g>
   </g>
   <g id="text_11">
    <!-- 30.6% &lt;0&lt; 69.3% -->
    <g style="fill: #ff7f0e" transform="translate(164.817837 117.854182) scale(0.15 -0.15)">
     <defs>
      <path id="DejaVuSans-Bold-33" d="M 2981 2516 
Q 3453 2394 3698 2092 
Q 3944 1791 3944 1325 
Q 3944 631 3412 270 
Q 2881 -91 1863 -91 
Q 1503 -91 1142 -33 
Q 781 25 428 141 
L 428 1069 
Q 766 900 1098 814 
Q 1431 728 1753 728 
Q 2231 728 2486 893 
Q 2741 1059 2741 1369 
Q 2741 1688 2480 1852 
Q 2219 2016 1709 2016 
L 1228 2016 
L 1228 2791 
L 1734 2791 
Q 2188 2791 2409 2933 
Q 2631 3075 2631 3366 
Q 2631 3634 2415 3781 
Q 2200 3928 1806 3928 
Q 1516 3928 1219 3862 
Q 922 3797 628 3669 
L 628 4550 
Q 984 4650 1334 4700 
Q 1684 4750 2022 4750 
Q 2931 4750 3382 4451 
Q 3834 4153 3834 3553 
Q 3834 3144 3618 2883 
Q 3403 2622 2981 2516 
z
" transform="scale(0.015625)"/>
      <path id="DejaVuSans-Bold-30" d="M 2944 2338 
Q 2944 3213 2780 3570 
Q 2616 3928 2228 3928 
Q 1841 3928 1675 3570 
Q 1509 3213 1509 2338 
Q 1509 1453 1675 1090 
Q 1841 728 2228 728 
Q 2613 728 2778 1090 
Q 2944 1453 2944 2338 
z
M 4147 2328 
Q 4147 1169 3647 539 
Q 3147 -91 2228 -91 
Q 1306 -91 806 539 
Q 306 1169 306 2328 
Q 306 3491 806 4120 
Q 1306 4750 2228 4750 
Q 3147 4750 3647 4120 
Q 4147 3491 4147 2328 
z
" transform="scale(0.015625)"/>
      <path id="DejaVuSans-Bold-2e" d="M 653 1209 
L 1778 1209 
L 1778 0 
L 653 0 
L 653 1209 
z
" transform="scale(0.015625)"/>
      <path id="DejaVuSans-Bold-36" d="M 2316 2303 
Q 2000 2303 1842 2098 
Q 1684 1894 1684 1484 
Q 1684 1075 1842 870 
Q 2000 666 2316 666 
Q 2634 666 2792 870 
Q 2950 1075 2950 1484 
Q 2950 1894 2792 2098 
Q 2634 2303 2316 2303 
z
M 3803 4544 
L 3803 3681 
Q 3506 3822 3243 3889 
Q 2981 3956 2731 3956 
Q 2194 3956 1894 3657 
Q 1594 3359 1544 2772 
Q 1750 2925 1990 3001 
Q 2231 3078 2516 3078 
Q 3231 3078 3670 2659 
Q 4109 2241 4109 1563 
Q 4109 813 3618 361 
Q 3128 -91 2303 -91 
Q 1394 -91 895 523 
Q 397 1138 397 2266 
Q 397 3422 980 4083 
Q 1563 4744 2578 4744 
Q 2900 4744 3203 4694 
Q 3506 4644 3803 4544 
z
" transform="scale(0.015625)"/>
      <path id="DejaVuSans-Bold-25" d="M 4959 1925 
Q 4738 1925 4616 1733 
Q 4494 1541 4494 1184 
Q 4494 825 4614 633 
Q 4734 441 4959 441 
Q 5184 441 5303 633 
Q 5422 825 5422 1184 
Q 5422 1541 5301 1733 
Q 5181 1925 4959 1925 
z
M 4959 2450 
Q 5541 2450 5875 2112 
Q 6209 1775 6209 1184 
Q 6209 594 5875 251 
Q 5541 -91 4959 -91 
Q 4378 -91 4042 251 
Q 3706 594 3706 1184 
Q 3706 1772 4042 2111 
Q 4378 2450 4959 2450 
z
M 2094 -91 
L 1403 -91 
L 4319 4750 
L 5013 4750 
L 2094 -91 
z
M 1453 4750 
Q 2034 4750 2367 4411 
Q 2700 4072 2700 3481 
Q 2700 2891 2367 2550 
Q 2034 2209 1453 2209 
Q 872 2209 539 2550 
Q 206 2891 206 3481 
Q 206 4072 539 4411 
Q 872 4750 1453 4750 
z
M 1453 4225 
Q 1228 4225 1106 4031 
Q 984 3838 984 3481 
Q 984 3122 1106 2926 
Q 1228 2731 1453 2731 
Q 1678 2731 1798 2926 
Q 1919 3122 1919 3481 
Q 1919 3838 1797 4031 
Q 1675 4225 1453 4225 
z
" transform="scale(0.015625)"/>
      <path id="DejaVuSans-Bold-20" transform="scale(0.015625)"/>
      <path id="DejaVuSans-Bold-3c" d="M 4684 3041 
L 1672 2003 
L 4684 972 
L 4684 191 
L 678 1638 
L 678 2375 
L 4684 3822 
L 4684 3041 
z
" transform="scale(0.015625)"/>
      <path id="DejaVuSans-Bold-39" d="M 641 103 
L 641 966 
Q 928 831 1190 764 
Q 1453 697 1709 697 
Q 2247 697 2547 995 
Q 2847 1294 2900 1881 
Q 2688 1725 2447 1647 
Q 2206 1569 1925 1569 
Q 1209 1569 770 1986 
Q 331 2403 331 3084 
Q 331 3838 820 4291 
Q 1309 4744 2131 4744 
Q 3044 4744 3544 4128 
Q 4044 3513 4044 2388 
Q 4044 1231 3459 570 
Q 2875 -91 1856 -91 
Q 1528 -91 1228 -42 
Q 928 6 641 103 
z
M 2125 2350 
Q 2441 2350 2600 2554 
Q 2759 2759 2759 3169 
Q 2759 3575 2600 3781 
Q 2441 3988 2125 3988 
Q 1809 3988 1650 3781 
Q 1491 3575 1491 3169 
Q 1491 2759 1650 2554 
Q 1809 2350 2125 2350 
z
" transform="scale(0.015625)"/>
     </defs>
     <use xlink:href="#DejaVuSans-Bold-33"/>
     <use xlink:href="#DejaVuSans-Bold-30" x="69.580078"/>
     <use xlink:href="#DejaVuSans-Bold-2e" x="139.160156"/>
     <use xlink:href="#DejaVuSans-Bold-36" x="177.148438"/>
     <use xlink:href="#DejaVuSans-Bold-25" x="246.728516"/>
     <use xlink:href="#DejaVuSans-Bold-20" x="346.923828"/>
     <use xlink:href="#DejaVuSans-Bold-3c" x="381.738281"/>
     <use xlink:href="#DejaVuSans-Bold-30" x="465.527344"/>
     <use xlink:href="#DejaVuSans-Bold-3c" x="535.107422"/>
     <use xlink:href="#DejaVuSans-Bold-20" x="618.896484"/>
     <use xlink:href="#DejaVuSans-Bold-36" x="653.710938"/>
     <use xlink:href="#DejaVuSans-Bold-39" x="723.291016"/>
     <use xlink:href="#DejaVuSans-Bold-2e" x="792.871094"/>
     <use xlink:href="#DejaVuSans-Bold-33" x="830.859375"/>
     <use xlink:href="#DejaVuSans-Bold-25" x="900.439453"/>
    </g>
   </g>
  </g>
 </g>
 <defs>
  <clipPath id="pbea763d090">
   <rect x="18.189215" y="10.8" width="431.810785" height="280.38"/>
  </clipPath>
 </defs>
</svg>
