<?xml version="1.0" encoding="utf-8" standalone="no"?>
<!DOCTYPE svg PUBLIC "-//W3C//DTD SVG 1.1//EN"
  "http://www.w3.org/Graphics/SVG/1.1/DTD/svg11.dtd">
<svg xmlns:xlink="http://www.w3.org/1999/xlink" width="460.8pt" height="345.6pt" viewBox="0 0 460.8 345.6" xmlns="http://www.w3.org/2000/svg" version="1.1">
 <metadata>
  <rdf:RDF xmlns:dc="http://purl.org/dc/elements/1.1/" xmlns:cc="http://creativecommons.org/ns#" xmlns:rdf="http://www.w3.org/1999/02/22-rdf-syntax-ns#">
   <cc:Work>
    <dc:type rdf:resource="http://purl.org/dc/dcmitype/StillImage"/>
    <dc:date>2024-01-28T18:11:49.556384</dc:date>
    <dc:format>image/svg+xml</dc:format>
    <dc:creator>
     <cc:Agent>
      <dc:title>Matplotlib v3.8.2, https://matplotlib.org/</dc:title>
     </cc:Agent>
    </dc:creator>
   </cc:Work>
  </rdf:RDF>
 </metadata>
 <defs>
  <style type="text/css">*{stroke-linejoin: round; stroke-linecap: butt}</style>
 </defs>
 <g id="figure_1">
  <g id="patch_1">
   <path d="M 0 345.6 
L 460.8 345.6 
L 460.8 0 
L 0 0 
z
" style="fill: #ffffff"/>
  </g>
  <g id="axes_1">
   <g id="PathCollection_1">
    <defs>
     <path id="m6d30d7f17d" d="M 0 3 
C 0.795609 3 1.55874 2.683901 2.12132 2.12132 
C 2.683901 1.55874 3 0.795609 3 0 
C 3 -0.795609 2.683901 -1.55874 2.12132 -2.12132 
C 1.55874 -2.683901 0.795609 -3 0 -3 
C -0.795609 -3 -1.55874 -2.683901 -2.12132 -2.12132 
C -2.683901 -1.55874 -3 -0.795609 -3 0 
C -3 0.795609 -2.683901 1.55874 -2.12132 2.12132 
C -1.55874 2.683901 -0.795609 3 0 3 
z
" style="stroke: #808080"/>
    </defs>
    <g clip-path="url(#p60fee7c613)">
     <use xlink:href="#m6d30d7f17d" x="357.12" y="174.528" style="fill: #808080; stroke: #808080"/>
    </g>
   </g>
   <g id="patch_2">
    <path d="M 357.12 174.528 
L 346.767763 179.47907 
L 346.392682 176.478421 
L 260.427016 187.22413 
L 260.276984 186.02387 
L 346.24265 175.278162 
L 345.867569 172.277514 
z
" clip-path="url(#p60fee7c613)" style="fill: #1f77b4; stroke: #000000; stroke-width: 0.05; stroke-linejoin: miter"/>
   </g>
   <g id="PathCollection_2">
    <g clip-path="url(#p60fee7c613)">
     <use xlink:href="#m6d30d7f17d" x="236.16" y="53.568" style="fill: #808080; stroke: #808080"/>
    </g>
   </g>
   <g id="patch_3">
    <path d="M 236.16 53.568 
L 241.677686 63.629662 
L 238.702463 64.170611 
L 260.947045 186.51581 
L 259.756955 186.73219 
L 237.512374 64.386991 
L 234.537151 64.927941 
z
" clip-path="url(#p60fee7c613)" style="fill: #1f77b4; stroke: #000000; stroke-width: 0.05; stroke-linejoin: miter"/>
   </g>
   <g id="PathCollection_3">
    <g clip-path="url(#p60fee7c613)">
     <use xlink:href="#m6d30d7f17d" x="115.2" y="174.528" style="fill: #808080; stroke: #808080"/>
    </g>
   </g>
   <g id="patch_4">
    <path d="M 115.2 174.528 
L 126.350151 171.815801 
L 126.099022 174.829355 
L 260.402226 186.021289 
L 260.301774 187.226711 
L 125.99857 176.034777 
L 125.74744 179.048332 
z
" clip-path="url(#p60fee7c613)" style="fill: #1f77b4; stroke: #000000; stroke-width: 0.05; stroke-linejoin: miter"/>
   </g>
   <g id="PathCollection_4">
    <g clip-path="url(#p60fee7c613)">
     <use xlink:href="#m6d30d7f17d" x="236.16" y="295.488" style="fill: #808080; stroke: #808080"/>
    </g>
   </g>
   <g id="patch_5">
    <path d="M 236.16 295.488 
L 234.979204 284.07364 
L 237.931194 284.729638 
L 259.761602 186.4928 
L 260.942398 186.7552 
L 239.11199 284.992037 
L 242.063979 285.648034 
z
" clip-path="url(#p60fee7c613)" style="fill: #1f77b4; stroke: #000000; stroke-width: 0.05; stroke-linejoin: miter"/>
   </g>
   <g id="PathCollection_5">
    <defs>
     <path id="m7d98144f7d" d="M 0 3 
C 0.795609 3 1.55874 2.683901 2.12132 2.12132 
C 2.683901 1.55874 3 0.795609 3 0 
C 3 -0.795609 2.683901 -1.55874 2.12132 -2.12132 
C 1.55874 -2.683901 0.795609 -3 0 -3 
C -0.795609 -3 -1.55874 -2.683901 -2.12132 -2.12132 
C -2.683901 -1.55874 -3 -0.795609 -3 0 
C -3 0.795609 -2.683901 1.55874 -2.12132 2.12132 
C -1.55874 2.683901 -0.795609 3 0 3 
z
" style="stroke: #1a1a1a"/>
    </defs>
    <g clip-path="url(#p60fee7c613)">
     <use xlink:href="#m7d98144f7d" x="260.352" y="186.624" style="fill: #1a1a1a; stroke: #1a1a1a"/>
    </g>
   </g>
   <g id="line2d_1">
    <path d="M 357.12 174.528 
L 357.00279 169.204296 
L 356.651385 163.89091 
L 356.066468 158.598138 
L 355.249172 153.336238 
L 354.20108 148.115408 
L 352.924224 142.945766 
L 351.421079 137.83733 
L 349.694557 132.800001 
L 347.748005 127.843541 
L 345.585195 122.977556 
L 343.210318 118.211476 
L 340.627978 113.554537 
L 337.843178 109.015765 
L 334.861316 104.603956 
L 331.68817 100.32766 
L 328.32989 96.195165 
L 324.792984 92.214479 
L 321.084308 88.393317 
L 317.211047 84.739085 
L 313.18071 81.258863 
L 309.001106 77.959398 
L 304.680335 74.847083 
L 300.226772 71.92795 
L 295.649048 69.207656 
L 290.956033 66.691474 
L 286.156823 64.384279 
L 281.26072 62.290543 
L 276.27721 60.414324 
L 271.215954 58.759258 
L 266.086759 57.328552 
L 260.899566 56.124979 
L 255.664427 55.150871 
L 250.391489 54.408117 
L 245.09097 53.898156 
L 239.773143 53.621975 
L 234.448314 53.580112 
L 229.126801 53.772645 
L 223.81892 54.199203 
L 218.534955 54.858959 
L 213.285148 55.750634 
L 208.079672 56.8725 
L 202.928616 58.222382 
L 197.841962 59.797666 
L 192.829569 61.595297 
L 187.901151 63.611792 
L 183.066259 65.843244 
L 178.334262 68.285327 
L 173.714332 70.933308 
L 169.215422 73.782057 
L 164.84625 76.826052 
L 160.615285 80.059393 
L 156.530726 83.475815 
L 152.600489 87.068696 
L 148.832191 90.831074 
L 145.233134 94.755657 
L 141.810294 98.834839 
L 138.570304 103.060715 
L 135.519443 107.425095 
L 132.663624 111.91952 
L 130.008381 116.535281 
L 127.558861 121.263432 
L 125.31981 126.09481 
L 123.295568 131.020051 
L 121.490058 136.029611 
L 119.906778 141.113782 
L 118.548798 146.262709 
L 117.418748 151.466414 
L 116.51882 156.714813 
L 115.850757 161.997734 
L 115.415853 167.304938 
L 115.214952 172.626141 
L 115.248444 177.95103 
L 115.516262 183.269285 
L 116.017888 188.570599 
L 116.75235 193.844698 
L 117.718225 199.081362 
L 118.913641 204.270441 
L 120.33628 209.40188 
L 121.983386 214.465732 
L 123.851767 219.452185 
L 125.937802 224.351575 
L 128.237448 229.154406 
L 130.746248 233.851372 
L 133.45934 238.433368 
L 136.371467 242.891516 
L 139.476984 247.217174 
L 142.769874 251.401961 
L 146.243753 255.437766 
L 149.891891 259.316767 
L 153.707217 263.031447 
L 157.682337 266.574608 
L 161.809547 269.939381 
L 166.080848 273.119247 
L 170.487963 276.108043 
L 175.02235 278.899976 
L 179.675223 281.489636 
L 184.437563 283.872004 
L 189.300142 286.042462 
L 194.253535 287.996805 
L 199.288143 289.731245 
L 204.394209 291.242421 
L 209.561837 292.527404 
L 214.781012 293.583703 
L 220.04162 294.409272 
L 225.333466 295.002511 
L 230.646293 295.362269 
L 235.969806 295.48785 
L 241.293688 295.379011 
L 246.60762 295.035962 
L 251.901305 294.459367 
L 257.164484 293.650346 
L 262.386955 292.610465 
L 267.558599 291.341739 
L 272.669391 289.846628 
L 277.709429 288.128029 
L 282.668944 286.189272 
L 287.538324 284.034116 
L 292.308132 281.666736 
L 296.969126 279.091721 
L 301.512271 276.314062 
L 305.928763 273.33914 
L 310.210043 270.172722 
L 314.347813 266.820944 
L 318.334055 263.290302 
L 322.161044 259.587638 
L 325.821362 255.720128 
L 329.307917 251.695268 
L 332.61395 247.520857 
L 335.733055 243.204986 
L 338.659187 238.756018 
L 341.386675 234.182576 
L 343.910233 229.493524 
L 346.224971 224.697948 
L 348.326403 219.805142 
L 350.210456 214.82459 
L 351.873478 209.765942 
L 353.312248 204.639003 
L 354.523975 199.453708 
L 355.506313 194.220108 
L 356.257357 188.948344 
L 356.775653 183.648634 
L 357.060194 178.331247 
L 357.12 174.528 
L 357.12 174.528 
" clip-path="url(#p60fee7c613)" style="fill: none; stroke: #808080; stroke-linecap: square"/>
   </g>
   <g id="text_1">
    <!-- $\overrightarrow{A_{1}}$ -->
    <g transform="translate(363.4656 180.792375) scale(0.12 -0.12)">
     <defs>
      <path id="DejaVuSans-2192" d="M 5050 2147 
L 5050 1866 
L 3822 638 
L 3447 1013 
L 4175 1741 
L 366 1741 
L 366 2272 
L 4175 2272 
L 3447 3000 
L 3822 3375 
L 5050 2147 
z
" transform="scale(0.015625)"/>
      <path id="DejaVuSans-Oblique-41" d="M 2356 4666 
L 3072 4666 
L 3938 0 
L 3278 0 
L 3084 1197 
L 984 1197 
L 325 0 
L -341 0 
L 2356 4666 
z
M 2584 4044 
L 1275 1722 
L 2988 1722 
L 2584 4044 
z
" transform="scale(0.015625)"/>
      <path id="DejaVuSans-31" d="M 794 531 
L 1825 531 
L 1825 4091 
L 703 3866 
L 703 4441 
L 1819 4666 
L 2450 4666 
L 2450 531 
L 3481 531 
L 3481 0 
L 794 0 
L 794 531 
z
" transform="scale(0.015625)"/>
     </defs>
     <use xlink:href="#DejaVuSans-2192" transform="translate(30.200928 76.265625)"/>
     <use xlink:href="#DejaVuSans-Oblique-41" transform="translate(0 0.828125)"/>
     <use xlink:href="#DejaVuSans-31" transform="translate(68.408203 -15.578125) scale(0.7)"/>
    </g>
   </g>
   <g id="text_2">
    <!-- $x_1$ -->
    <g style="fill: #1a1a1a; opacity: 0.8" transform="translate(310.91328 176.3424) scale(0.1 -0.1)">
     <defs>
      <path id="DejaVuSans-Oblique-78" d="M 3841 3500 
L 2234 1784 
L 3219 0 
L 2559 0 
L 1819 1388 
L 531 0 
L -166 0 
L 1556 1844 
L 641 3500 
L 1300 3500 
L 1972 2234 
L 3144 3500 
L 3841 3500 
z
" transform="scale(0.015625)"/>
     </defs>
     <use xlink:href="#DejaVuSans-Oblique-78" transform="translate(0 0.3125)"/>
     <use xlink:href="#DejaVuSans-31" transform="translate(59.179688 -16.09375) scale(0.7)"/>
    </g>
   </g>
   <g id="text_3">
    <!-- $\overrightarrow{A_{2}}$ -->
    <g transform="translate(229.2 46.526775) scale(0.12 -0.12)">
     <defs>
      <path id="DejaVuSans-32" d="M 1228 531 
L 3431 531 
L 3431 0 
L 469 0 
L 469 531 
Q 828 903 1448 1529 
Q 2069 2156 2228 2338 
Q 2531 2678 2651 2914 
Q 2772 3150 2772 3378 
Q 2772 3750 2511 3984 
Q 2250 4219 1831 4219 
Q 1534 4219 1204 4116 
Q 875 4013 500 3803 
L 500 4441 
Q 881 4594 1212 4672 
Q 1544 4750 1819 4750 
Q 2544 4750 2975 4387 
Q 3406 4025 3406 3419 
Q 3406 3131 3298 2873 
Q 3191 2616 2906 2266 
Q 2828 2175 2409 1742 
Q 1991 1309 1228 531 
z
" transform="scale(0.015625)"/>
     </defs>
     <use xlink:href="#DejaVuSans-2192" transform="translate(30.200928 76.265625)"/>
     <use xlink:href="#DejaVuSans-Oblique-41" transform="translate(0 0.828125)"/>
     <use xlink:href="#DejaVuSans-32" transform="translate(68.408203 -15.578125) scale(0.7)"/>
    </g>
   </g>
   <g id="text_4">
    <!-- $x_2$ -->
    <g style="fill: #1a1a1a; opacity: 0.8" transform="translate(250.43328 115.8624) scale(0.1 -0.1)">
     <use xlink:href="#DejaVuSans-Oblique-78" transform="translate(0 0.3125)"/>
     <use xlink:href="#DejaVuSans-32" transform="translate(59.179688 -16.09375) scale(0.7)"/>
    </g>
   </g>
   <g id="text_5">
    <!-- $\overrightarrow{A_{3}}$ -->
    <g transform="translate(94.9344 180.852375) scale(0.12 -0.12)">
     <defs>
      <path id="DejaVuSans-33" d="M 2597 2516 
Q 3050 2419 3304 2112 
Q 3559 1806 3559 1356 
Q 3559 666 3084 287 
Q 2609 -91 1734 -91 
Q 1441 -91 1130 -33 
Q 819 25 488 141 
L 488 750 
Q 750 597 1062 519 
Q 1375 441 1716 441 
Q 2309 441 2620 675 
Q 2931 909 2931 1356 
Q 2931 1769 2642 2001 
Q 2353 2234 1838 2234 
L 1294 2234 
L 1294 2753 
L 1863 2753 
Q 2328 2753 2575 2939 
Q 2822 3125 2822 3475 
Q 2822 3834 2567 4026 
Q 2313 4219 1838 4219 
Q 1578 4219 1281 4162 
Q 984 4106 628 3988 
L 628 4550 
Q 988 4650 1302 4700 
Q 1616 4750 1894 4750 
Q 2613 4750 3031 4423 
Q 3450 4097 3450 3541 
Q 3450 3153 3228 2886 
Q 3006 2619 2597 2516 
z
" transform="scale(0.015625)"/>
     </defs>
     <use xlink:href="#DejaVuSans-2192" transform="translate(30.200928 76.265625)"/>
     <use xlink:href="#DejaVuSans-Oblique-41" transform="translate(0 0.828125)"/>
     <use xlink:href="#DejaVuSans-33" transform="translate(68.408203 -15.578125) scale(0.7)"/>
    </g>
   </g>
   <g id="text_6">
    <!-- $x_3$ -->
    <g style="fill: #1a1a1a; opacity: 0.8" transform="translate(189.95328 176.3424) scale(0.1 -0.1)">
     <use xlink:href="#DejaVuSans-Oblique-78" transform="translate(0 0.3125)"/>
     <use xlink:href="#DejaVuSans-33" transform="translate(59.179688 -16.09375) scale(0.7)"/>
    </g>
   </g>
   <g id="text_7">
    <!-- $\overrightarrow{A_{4}}$ -->
    <g transform="translate(229.2 315.057975) scale(0.12 -0.12)">
     <defs>
      <path id="DejaVuSans-34" d="M 2419 4116 
L 825 1625 
L 2419 1625 
L 2419 4116 
z
M 2253 4666 
L 3047 4666 
L 3047 1625 
L 3713 1625 
L 3713 1100 
L 3047 1100 
L 3047 0 
L 2419 0 
L 2419 1100 
L 313 1100 
L 313 1709 
L 2253 4666 
z
" transform="scale(0.015625)"/>
     </defs>
     <use xlink:href="#DejaVuSans-2192" transform="translate(30.200928 76.265625)"/>
     <use xlink:href="#DejaVuSans-Oblique-41" transform="translate(0 0.828125)"/>
     <use xlink:href="#DejaVuSans-34" transform="translate(68.408203 -15.578125) scale(0.7)"/>
    </g>
   </g>
   <g id="text_8">
    <!-- $x_4$ -->
    <g style="fill: #1a1a1a; opacity: 0.8" transform="translate(250.43328 236.8224) scale(0.1 -0.1)">
     <use xlink:href="#DejaVuSans-Oblique-78" transform="translate(0 0.3125)"/>
     <use xlink:href="#DejaVuSans-34" transform="translate(59.179688 -16.09375) scale(0.7)"/>
    </g>
   </g>
   <g id="text_9">
    <!-- $\overrightarrow{v}$ -->
    <g transform="translate(262.7712 204.768) scale(0.1 -0.1)">
     <defs>
      <path id="DejaVuSans-Oblique-76" d="M 459 3500 
L 1069 3500 
L 1581 525 
L 3256 3500 
L 3866 3500 
L 1875 0 
L 1100 0 
L 459 3500 
z
" transform="scale(0.015625)"/>
     </defs>
     <use xlink:href="#DejaVuSans-2192" transform="translate(-4.923828 57.265625)"/>
     <use xlink:href="#DejaVuSans-Oblique-76" transform="translate(0 0.046875)"/>
    </g>
   </g>
  </g>
 </g>
 <defs>
  <clipPath id="p60fee7c613">
   <rect x="103.104" y="41.472" width="266.112" height="266.112"/>
  </clipPath>
 </defs>
</svg>
