<svg width="866" height="811" xmlns="http://www.w3.org/2000/svg" xmlns:xlink="http://www.w3.org/1999/xlink" xml:space="preserve" overflow="hidden"><g transform="translate(-1576 -1324)"><g><rect x="1892" y="1896" width="234" height="234" stroke="#000000" stroke-width="10.3125" stroke-linecap="butt" stroke-linejoin="miter" stroke-miterlimit="8" stroke-opacity="1" fill="none"/><text fill="#000000" fill-opacity="1" font-family="Cambria Math,Cambria Math_MSFontService,sans-serif" font-style="normal" font-variant="normal" font-weight="400" font-stretch="normal" font-size="110" text-anchor="start" direction="ltr" writing-mode="lr-tb" unicode-bidi="normal" text-decoration="none" transform="matrix(1 0 0 1 1970.79 2054)">𝑍</text><path d="M1690.02 1561.16 1970.21 1862.89 1965.17 1867.57 1684.98 1565.84ZM1981.36 1846.28 1995.76 1895.46 1947.77 1877.46Z" fill="#000000" fill-rule="nonzero" fill-opacity="1"/><path d="M2.51893-2.3391 282.706 299.389 277.668 304.067-2.51893 2.3391ZM293.861 282.776 308.256 331.955 260.275 313.964Z" fill="#000000" fill-rule="nonzero" fill-opacity="1" transform="matrix(-1 0 0 1 2304.76 1563.5)"/><rect x="1584" y="1330" width="234" height="233" stroke="#000000" stroke-width="10.3125" stroke-linecap="butt" stroke-linejoin="miter" stroke-miterlimit="8" stroke-opacity="1" fill="none"/><text fill="#000000" fill-opacity="1" font-family="Cambria Math,Cambria Math_MSFontService,sans-serif" font-style="normal" font-variant="normal" font-weight="400" font-stretch="normal" font-size="110" text-anchor="start" direction="ltr" writing-mode="lr-tb" unicode-bidi="normal" text-decoration="none" transform="matrix(1 0 0 1 1663.95 1487)">𝑋</text><rect x="2201" y="1330" width="233" height="233" stroke="#000000" stroke-width="10.3125" stroke-linecap="butt" stroke-linejoin="miter" stroke-miterlimit="8" stroke-opacity="1" fill="none"/><text fill="#000000" fill-opacity="1" font-family="Cambria Math,Cambria Math_MSFontService,sans-serif" font-style="normal" font-variant="normal" font-weight="400" font-stretch="normal" font-size="110" text-anchor="start" direction="ltr" writing-mode="lr-tb" unicode-bidi="normal" text-decoration="none" transform="matrix(1 0 0 1 2278.47 1487)">𝑌</text><path d="M1818.5 1444.06 2160.07 1444.06 2160.07 1450.94 1818.5 1450.94ZM2155.49 1424.58 2201.32 1447.5 2155.49 1470.42Z" fill="#000000" fill-rule="nonzero" fill-opacity="1"/></g></g></svg>