<?xml version="1.0" encoding="UTF-8" standalone="no"?>
<svg
   width="370"
   height="238.67737948084053"
   tabindex="0"
   version="1.1"
   id="svg28"
   sodipodi:docname="rk_apprximate.svg"
   inkscape:version="1.3.2 (091e20e, 2023-11-25)"
   xmlns:inkscape="http://www.inkscape.org/namespaces/inkscape"
   xmlns:sodipodi="http://sodipodi.sourceforge.net/DTD/sodipodi-0.dtd"
   xmlns="http://www.w3.org/2000/svg"
   xmlns:svg="http://www.w3.org/2000/svg">
  <defs
     id="defs28" />
  <sodipodi:namedview
     id="namedview28"
     pagecolor="#ffffff"
     bordercolor="#000000"
     borderopacity="0.25"
     inkscape:showpageshadow="2"
     inkscape:pageopacity="0.0"
     inkscape:pagecheckerboard="0"
     inkscape:deskcolor="#d1d1d1"
     inkscape:zoom="1.3983495"
     inkscape:cx="202.02389"
     inkscape:cy="119.42651"
     inkscape:window-width="1400"
     inkscape:window-height="837"
     inkscape:window-x="142"
     inkscape:window-y="70"
     inkscape:window-maximized="0"
     inkscape:current-layer="svg28" />
  <g
     transform="translate(40,30)"
     id="g28">
    <g
       transform="translate(4.744693628536368,4.966009087645148) scale(0.9757962761440022)"
       id="g2">
      <path
         class="line-34c83d34-fa78-4af2-a0a4-916614a056e4"
         vector-effect="non-scaling-stroke"
         fill="none"
         opacity="1"
         stroke="rgb(93,129,180)"
         stroke-width="2"
         d="M0,107.152L0.086,107.318L0.172,107.483L0.344,107.814L0.687,108.474L1.374,109.793L2.748,112.421L5.496,117.626L11.454,128.611L17.018,138.369L22.472,147.329L28.389,156.227L33.911,163.637L34.004,163.755L34.098,163.872L34.285,164.105L34.659,164.569L35.407,165.482L36.903,167.254L39.895,170.571L39.986,170.668L40.078,170.765L40.262,170.957L40.629,171.338L41.363,172.086L42.832,173.523L42.924,173.611L43.016,173.697L43.199,173.87L43.566,174.213L44.301,174.882L45.77,176.162L45.855,176.234L45.941,176.306L46.112,176.448L46.455,176.731L47.14,177.282L48.51,178.331L48.595,178.394L48.681,178.457L48.852,178.582L49.195,178.828L49.88,179.307L51.25,180.21L51.343,180.269L51.435,180.327L51.621,180.442L51.992,180.669L52.735,181.106L52.828,181.159L52.921,181.212L53.107,181.316L53.478,181.521L54.221,181.914L54.314,181.961L54.407,182.009L54.592,182.102L54.964,182.285L55.706,182.633L57.192,183.262L57.279,183.296L57.365,183.33L57.539,183.396L57.886,183.526L58.579,183.769L58.666,183.798L58.752,183.827L58.926,183.883L59.272,183.993L59.966,184.196L60.053,184.22L60.139,184.244L60.313,184.291L60.659,184.38L60.746,184.402L60.833,184.423L61.006,184.465L61.353,184.544L61.439,184.564L61.526,184.582L61.699,184.619L62.046,184.689L62.74,184.813L62.825,184.827L62.91,184.84L63.08,184.867L63.419,184.915L63.504,184.927L63.589,184.938L63.759,184.959L64.099,184.998L64.184,185.008L64.269,185.016L64.439,185.033L64.524,185.041L64.609,185.048L64.779,185.062L64.864,185.069L64.949,185.075L65.119,185.087L65.204,185.093L65.289,185.098L65.459,185.107L65.544,185.111L65.629,185.115L65.714,185.119L65.799,185.122L65.884,185.125L65.969,185.128L66.054,185.13L66.139,185.133L66.224,185.134L66.309,185.136L66.394,185.137L66.479,185.138L66.563,185.139L66.648,185.139L66.733,185.139L66.818,185.139L66.903,185.138L66.988,185.137L67.073,185.136L67.158,185.135L67.243,185.133L67.328,185.131L67.413,185.128L67.498,185.126L67.583,185.123L67.668,185.119L67.753,185.116L67.838,185.112L67.923,185.108L68.008,185.103L68.178,185.093L68.27,185.087L68.362,185.081L68.547,185.068L68.639,185.06L68.731,185.053L68.916,185.036L69.008,185.028L69.1,185.019L69.284,184.999L69.653,184.957L69.745,184.945L69.838,184.933L70.022,184.909L70.391,184.855L70.483,184.84L70.575,184.826L70.76,184.795L71.128,184.73L71.221,184.713L71.313,184.695L71.497,184.659L71.866,184.582L71.958,184.562L72.05,184.542L72.235,184.5L72.604,184.413L72.696,184.39L72.788,184.367L72.972,184.319L73.341,184.22L74.079,184.005L74.165,183.979L74.251,183.952L74.423,183.897L74.767,183.785L75.455,183.544L75.541,183.513L75.627,183.481L75.799,183.417L76.143,183.285L76.832,183.006L76.918,182.97L77.004,182.933L77.176,182.859L77.52,182.708L78.208,182.39L79.585,181.698L79.678,181.648L79.771,181.598L79.958,181.497L80.331,181.291L81.077,180.862L82.569,179.937L82.662,179.877L82.755,179.816L82.942,179.693L83.315,179.442L84.061,178.925L85.553,177.827L85.644,177.757L85.736,177.686L85.919,177.544L86.285,177.256L87.018,176.665L88.482,175.423L91.412,172.699L91.497,172.615L91.583,172.531L91.753,172.362L92.095,172.02L92.778,171.323L94.144,169.881L96.876,166.804L102.802,159.291L108.334,151.331L114.328,141.808L120.213,131.696L125.703,121.724L131.655,110.49L137.212,99.76L142.661,89.165L148.571,77.755L154.087,67.344L160.065,56.49L165.934,46.436L171.408,37.738L177.344,29.188L182.885,22.154L182.97,22.054L183.055,21.954L183.225,21.755L183.564,21.36L184.244,20.582L185.602,19.072L188.318,16.245L188.41,16.154L188.502,16.063L188.686,15.882L189.055,15.524L189.791,14.822L191.265,13.477L191.357,13.396L191.449,13.315L191.634,13.154L192.002,12.835L192.739,12.213L194.212,11.031L194.298,10.965L194.384,10.899L194.556,10.768L194.9,10.508L195.587,10.003L196.962,9.049L197.048,8.992L197.134,8.935L197.306,8.822L197.65,8.599L198.337,8.168L199.712,7.362L199.805,7.31L199.898,7.259L200.085,7.157L200.457,6.957L201.203,6.574L201.296,6.528L201.389,6.482L201.575,6.391L201.948,6.213L202.693,5.875L202.786,5.835L202.88,5.794L203.066,5.715L203.438,5.56L204.184,5.267L204.277,5.232L204.37,5.197L204.556,5.129L204.929,4.997L205.674,4.749L205.761,4.722L205.848,4.695L206.022,4.641L206.37,4.539L207.066,4.348L207.153,4.326L207.24,4.304L207.414,4.261L207.762,4.178L208.458,4.027L208.545,4.01L208.632,3.993L208.806,3.96L209.154,3.897L209.241,3.882L209.328,3.868L209.502,3.84L209.85,3.787L209.937,3.775L210.024,3.763L210.198,3.739L210.285,3.728L210.372,3.718L210.546,3.697L210.633,3.687L210.72,3.678L210.894,3.659L211.241,3.627L211.327,3.62L211.412,3.613L211.583,3.6L211.668,3.594L211.753,3.588L211.924,3.578L212.009,3.573L212.094,3.569L212.18,3.565L212.265,3.561L212.35,3.557L212.435,3.554L212.521,3.551L212.606,3.548L212.691,3.546L212.777,3.544L212.862,3.542L212.947,3.541L213.032,3.54L213.118,3.539L213.203,3.539L213.288,3.538L213.374,3.538L213.459,3.539L213.544,3.54L213.629,3.541L213.715,3.542L213.8,3.543L213.885,3.545L213.971,3.548L214.056,3.55L214.141,3.553L214.226,3.556L214.312,3.56L214.397,3.563L214.482,3.567L214.653,3.576L214.738,3.581L214.823,3.586L214.994,3.598L215.079,3.604L215.164,3.611L215.335,3.624L215.42,3.632L215.506,3.639L215.676,3.656L215.761,3.664L215.847,3.673L216.017,3.692L216.103,3.702L216.188,3.712L216.358,3.733L216.7,3.779L216.792,3.792L216.885,3.806L217.07,3.834L217.44,3.895L217.532,3.911L217.625,3.927L217.81,3.961L218.18,4.034L218.272,4.052L218.365,4.072L218.55,4.111L218.92,4.195L219.66,4.379L219.752,4.404L219.845,4.429L220.03,4.48L220.4,4.586L221.14,4.815L221.232,4.846L221.325,4.876L221.51,4.939L221.88,5.067L222.62,5.342L222.706,5.375L222.793,5.409L222.965,5.477L223.311,5.618L224.001,5.914L225.383,6.563L225.469,6.606L225.555,6.65L225.728,6.737L226.073,6.917L226.764,7.289L228.146,8.092L228.239,8.149L228.333,8.206L228.52,8.322L228.894,8.558L229.642,9.047L231.139,10.09L231.233,10.158L231.327,10.226L231.514,10.364L231.888,10.644L232.636,11.219L234.133,12.434L234.225,12.511L234.317,12.589L234.501,12.745L234.868,13.061L235.603,13.709L237.073,15.064L240.012,18.008L240.098,18.098L240.183,18.189L240.355,18.371L240.698,18.738L241.383,19.485L242.754,21.027L245.496,24.299L251.442,32.21L256.993,40.508L262.436,49.382L268.34,59.696L273.85,69.823L273.946,70.003L274.042,70.183L274.234,70.544L274.618,71.267L275.387,72.717L276.925,75.633L277.021,75.816L277.117,76L277.309,76.366L277.694,77.1L278.462,78.571L278.558,78.755L278.655,78.939L278.847,79.308L279.231,80.046L279.327,80.231L279.423,80.415L279.616,80.785L279.712,80.97L279.808,81.155L279.904,81.34L280,81.525"
         id="path1" />
      <path
         class="line-dfd3fd77-4ab8-4dc5-b03c-53acff3166ad"
         vector-effect="non-scaling-stroke"
         fill="none"
         opacity="1"
         stroke="rgb(224,155,36)"
         stroke-width="2"
         d="M0,69.823L0.086,70.182L0.172,70.541L0.344,71.257L0.687,72.681L1.374,75.499L2.748,81.015L5.496,91.57L11.454,112.329L17.018,129.178L22.472,143.424L22.565,143.647L22.657,143.869L22.842,144.311L23.212,145.188L23.951,146.913L25.43,150.246L28.389,156.452L28.475,156.624L28.561,156.795L28.734,157.136L29.079,157.813L29.769,159.141L31.15,161.702L31.236,161.857L31.322,162.013L31.495,162.322L31.84,162.934L32.53,164.134L33.911,166.441L34.004,166.593L34.098,166.744L34.285,167.045L34.659,167.639L35.407,168.801L36.903,171.017L36.996,171.151L37.09,171.284L37.277,171.549L37.651,172.072L38.399,173.092L39.895,175.026L39.986,175.14L40.078,175.254L40.262,175.48L40.629,175.925L41.363,176.791L42.832,178.426L42.924,178.524L43.016,178.621L43.199,178.814L43.566,179.195L44.301,179.931L45.77,181.31L45.855,181.387L45.941,181.463L46.112,181.614L46.455,181.91L47.14,182.484L48.51,183.55L48.595,183.613L48.681,183.676L48.852,183.8L49.195,184.043L49.88,184.511L51.25,185.368L51.343,185.422L51.435,185.476L51.621,185.582L51.992,185.789L52.735,186.181L52.828,186.228L52.921,186.274L53.107,186.366L53.478,186.543L54.221,186.876L54.314,186.916L54.407,186.955L54.592,187.032L54.964,187.18L55.706,187.455L55.799,187.487L55.892,187.519L56.078,187.582L56.449,187.701L57.192,187.92L57.279,187.943L57.365,187.966L57.539,188.012L57.886,188.098L57.972,188.118L58.059,188.139L58.232,188.178L58.579,188.252L58.666,188.269L58.752,188.286L58.926,188.32L59.272,188.382L59.359,188.396L59.446,188.41L59.619,188.438L59.966,188.488L60.053,188.499L60.139,188.51L60.313,188.532L60.399,188.542L60.486,188.552L60.659,188.57L60.746,188.579L60.833,188.587L61.006,188.602L61.093,188.61L61.179,188.616L61.353,188.629L61.439,188.635L61.526,188.64L61.613,188.645L61.699,188.65L61.786,188.654L61.873,188.658L61.959,188.662L62.046,188.665L62.133,188.668L62.22,188.67L62.306,188.672L62.393,188.674L62.48,188.675L62.566,188.676L62.653,188.677L62.74,188.677L62.825,188.677L62.91,188.677L62.995,188.676L63.08,188.675L63.164,188.674L63.249,188.672L63.334,188.67L63.419,188.668L63.504,188.665L63.589,188.662L63.674,188.658L63.759,188.655L63.844,188.65L63.929,188.646L64.099,188.636L64.184,188.631L64.269,188.625L64.439,188.612L64.524,188.605L64.609,188.598L64.779,188.583L64.864,188.575L64.949,188.566L65.119,188.549L65.459,188.509L65.544,188.498L65.629,188.487L65.799,188.464L66.139,188.413L66.224,188.4L66.309,188.386L66.479,188.357L66.818,188.297L66.903,188.28L66.988,188.264L67.158,188.23L67.498,188.159L68.178,188.001L68.27,187.978L68.362,187.955L68.547,187.907L68.916,187.807L69.653,187.589L69.745,187.56L69.838,187.53L70.022,187.471L70.391,187.347L71.128,187.082L71.221,187.047L71.313,187.012L71.497,186.941L71.866,186.794L72.604,186.483L74.079,185.794L74.165,185.751L74.251,185.708L74.423,185.621L74.767,185.442L75.455,185.072L76.832,184.274L76.918,184.222L77.004,184.169L77.176,184.063L77.52,183.848L78.208,183.403L79.585,182.46L79.678,182.394L79.771,182.327L79.958,182.192L80.331,181.919L81.077,181.358L82.569,180.176L85.553,177.578L85.644,177.494L85.736,177.409L85.919,177.238L86.285,176.894L87.018,176.193L88.482,174.737L91.412,171.625L96.876,165.147L102.802,157.23L108.334,149.113L114.328,139.648L120.213,129.804L125.703,120.238L131.655,109.571L137.212,99.445L142.661,89.465L148.571,78.697L154.087,68.812L160.065,58.398L165.934,48.603L171.408,39.959L177.344,31.242L182.885,23.832L188.318,17.353L188.41,17.25L188.502,17.148L188.686,16.944L189.055,16.539L189.791,15.742L191.265,14.198L194.212,11.317L194.298,11.237L194.384,11.157L194.556,10.999L194.9,10.686L195.587,10.071L196.962,8.889L197.048,8.818L197.134,8.746L197.306,8.604L197.65,8.323L198.337,7.774L199.712,6.726L199.805,6.658L199.898,6.59L200.085,6.454L200.457,6.187L201.203,5.669L202.693,4.696L202.786,4.638L202.88,4.58L203.066,4.466L203.438,4.241L204.184,3.808L205.674,3.007L205.761,2.963L205.848,2.92L206.022,2.833L206.37,2.664L207.066,2.341L207.153,2.302L207.24,2.263L207.414,2.187L207.762,2.037L208.458,1.754L208.545,1.72L208.632,1.687L208.806,1.62L209.154,1.491L209.85,1.249L209.937,1.22L210.024,1.192L210.198,1.136L210.546,1.028L211.241,0.827L211.327,0.804L211.412,0.781L211.583,0.737L211.924,0.651L212.009,0.631L212.094,0.61L212.265,0.571L212.606,0.496L212.691,0.478L212.777,0.46L212.947,0.426L213.288,0.361L213.374,0.346L213.459,0.331L213.629,0.302L213.971,0.248L214.056,0.235L214.141,0.222L214.312,0.199L214.397,0.187L214.482,0.176L214.653,0.155L214.738,0.145L214.823,0.135L214.994,0.117L215.079,0.108L215.164,0.1L215.335,0.084L215.42,0.077L215.506,0.069L215.676,0.056L215.761,0.05L215.847,0.045L216.017,0.034L216.103,0.03L216.188,0.025L216.273,0.021L216.358,0.018L216.444,0.014L216.529,0.011L216.614,0.009L216.7,0.006L216.792,0.004L216.885,0.003L216.977,0.001L217.07,0.001L217.162,0L217.255,0L217.347,0L217.44,0.001L217.532,0.002L217.625,0.004L217.717,0.006L217.81,0.008L217.902,0.011L217.995,0.014L218.087,0.018L218.18,0.022L218.272,0.026L218.365,0.031L218.457,0.036L218.55,0.042L218.642,0.048L218.735,0.055L218.92,0.069L219.012,0.076L219.105,0.085L219.29,0.102L219.382,0.112L219.475,0.121L219.66,0.142L219.752,0.153L219.845,0.165L220.03,0.189L220.4,0.243L220.492,0.257L220.585,0.272L220.77,0.303L221.14,0.37L221.232,0.388L221.325,0.406L221.51,0.444L221.88,0.525L222.62,0.707L222.706,0.73L222.793,0.754L222.965,0.802L223.311,0.902L224.001,1.122L224.088,1.151L224.174,1.181L224.347,1.241L224.692,1.366L225.383,1.635L225.469,1.671L225.555,1.707L225.728,1.779L226.073,1.93L226.764,2.249L228.146,2.964L228.239,3.016L228.333,3.069L228.52,3.176L228.894,3.395L229.642,3.856L231.139,4.871L231.233,4.939L231.327,5.007L231.514,5.145L231.888,5.426L232.636,6.012L234.133,7.281L234.225,7.363L234.317,7.445L234.501,7.612L234.868,7.95L235.603,8.652L237.073,10.15L237.165,10.248L237.256,10.347L237.44,10.545L237.808,10.948L238.542,11.777L240.012,13.535L240.098,13.642L240.183,13.749L240.355,13.964L240.698,14.401L241.383,15.295L242.754,17.171L245.496,21.282L245.589,21.43L245.682,21.578L245.868,21.877L246.239,22.48L246.982,23.714L248.469,26.291L251.442,31.889L251.529,32.061L251.616,32.234L251.789,32.581L252.136,33.282L252.83,34.708L254.218,37.661L256.993,43.974L262.436,57.972L268.34,75.683L273.85,94.686L273.946,95.04L274.042,95.394L274.234,96.104L274.618,97.534L275.387,100.431L276.925,106.373L277.021,106.751L277.117,107.129L277.309,107.889L277.694,109.418L278.462,112.513L278.558,112.903L278.655,113.295L278.847,114.079L279.231,115.658L279.327,116.055L279.423,116.453L279.616,117.25L279.712,117.65L279.808,118.051L279.904,118.452L280,118.855"
         id="path2" />
    </g>
    <g
       transform="translate(0,188.67737948084053)"
       fill="rgb(68, 68, 68)"
       font-size="10"
       font-family="sans-serif"
       text-anchor="middle"
       id="g15">
      <path
         class="domain"
         stroke="currentColor"
         d="M0,0H280"
         id="path3" />
      <g
         class="tick"
         opacity="1"
         transform="translate(4.744693628536365,0)"
         id="g3">
        <line
           stroke="currentColor"
           y2="5"
           id="line3" />
        <text
           fill="currentColor"
           y="8"
           dy="0.71em"
           id="text3">−1.0</text>
      </g>
      <g
         class="tick"
         opacity="1"
         transform="translate(32.06698936056842,0)"
         id="g4">
        <line
           stroke="currentColor"
           y2="5"
           id="line4" />
        <text
           fill="currentColor"
           y="8"
           dy="0.71em"
           id="text4">−0.8</text>
      </g>
      <g
         class="tick"
         opacity="1"
         transform="translate(59.389285092600495,0)"
         id="g5">
        <line
           stroke="currentColor"
           y2="5"
           id="line5" />
        <text
           fill="currentColor"
           y="8"
           dy="0.71em"
           id="text5">−0.6</text>
      </g>
      <g
         class="tick"
         opacity="1"
         transform="translate(86.71158082463253,0)"
         id="g6">
        <line
           stroke="currentColor"
           y2="5"
           id="line6" />
        <text
           fill="currentColor"
           y="8"
           dy="0.71em"
           id="text6">−0.4</text>
      </g>
      <g
         class="tick"
         opacity="1"
         transform="translate(114.03387655666461,0)"
         id="g7">
        <line
           stroke="currentColor"
           y2="5"
           id="line7" />
        <text
           fill="currentColor"
           y="8"
           dy="0.71em"
           id="text7">−0.2</text>
      </g>
      <g
         class="tick"
         opacity="1"
         transform="translate(141.35617228869665,0)"
         id="g8">
        <line
           stroke="currentColor"
           y2="5"
           id="line8" />
        <text
           fill="currentColor"
           y="8"
           dy="0.71em"
           id="text8">0.0</text>
      </g>
      <g
         class="tick"
         opacity="1"
         transform="translate(168.6784680207287,0)"
         id="g9">
        <line
           stroke="currentColor"
           y2="5"
           id="line9" />
        <text
           fill="currentColor"
           y="8"
           dy="0.71em"
           id="text9">0.2</text>
      </g>
      <g
         class="tick"
         opacity="1"
         transform="translate(196.00076375276078,0)"
         id="g10">
        <line
           stroke="currentColor"
           y2="5"
           id="line10" />
        <text
           fill="currentColor"
           y="8"
           dy="0.71em"
           id="text10">0.4</text>
      </g>
      <g
         class="tick"
         opacity="1"
         transform="translate(223.32305948479285,0)"
         id="g11">
        <line
           stroke="currentColor"
           y2="5"
           id="line11" />
        <text
           fill="currentColor"
           y="8"
           dy="0.71em"
           id="text11">0.6</text>
      </g>
      <text
         x="290"
         y="10"
         font-size="10"
         fill="rgb(68, 68, 68)"
         text-anchor="start"
         id="text12" />
      <g
         class="tick"
         opacity="1"
         transform="translate(250.6453552168249,0)"
         id="g13">
        <line
           stroke="currentColor"
           y2="5"
           id="line12" />
        <text
           fill="currentColor"
           y="8"
           dy="0.71em"
           id="text13">0.8</text>
      </g>
      <g
         class="tick"
         opacity="1"
         transform="translate(277.96765094885694,0)"
         id="g14">
        <line
           stroke="currentColor"
           y2="5"
           id="line13" />
        <text
           fill="currentColor"
           y="8"
           dy="0.71em"
           id="text14">1.0</text>
      </g>
    </g>
    <g
       fill="rgb(68, 68, 68)"
       font-size="10"
       font-family="sans-serif"
       text-anchor="end"
       id="g27">
      <path
         class="domain"
         stroke="currentColor"
         d="M0,188.67737948084053V0"
         id="path15" />
      <g
         class="tick"
         opacity="1"
         transform="translate(0,185.62400437308665)"
         id="g16">
        <line
           stroke="currentColor"
           x2="-5"
           id="line15" />
        <text
           fill="currentColor"
           x="-8"
           dy="0.32em"
           id="text15">−1.0</text>
      </g>
      <g
         class="tick"
         opacity="1"
         transform="translate(0,167.90347465860344)"
         id="g17">
        <line
           stroke="currentColor"
           x2="-5"
           id="line16" />
        <text
           fill="currentColor"
           x="-8"
           dy="0.32em"
           id="text16">−0.8</text>
      </g>
      <g
         class="tick"
         opacity="1"
         transform="translate(0,150.1829449441202)"
         id="g18">
        <line
           stroke="currentColor"
           x2="-5"
           id="line17" />
        <text
           fill="currentColor"
           x="-8"
           dy="0.32em"
           id="text17">−0.6</text>
      </g>
      <g
         class="tick"
         opacity="1"
         transform="translate(0,132.46241522963697)"
         id="g19">
        <line
           stroke="currentColor"
           x2="-5"
           id="line18" />
        <text
           fill="currentColor"
           x="-8"
           dy="0.32em"
           id="text18">−0.4</text>
      </g>
      <g
         class="tick"
         opacity="1"
         transform="translate(0,114.74188551515375)"
         id="g20">
        <line
           stroke="currentColor"
           x2="-5"
           id="line19" />
        <text
           fill="currentColor"
           x="-8"
           dy="0.32em"
           id="text19">−0.2</text>
      </g>
      <g
         class="tick"
         opacity="1"
         transform="translate(0,97.02135580067052)"
         id="g21">
        <line
           stroke="currentColor"
           x2="-5"
           id="line20" />
        <text
           fill="currentColor"
           x="-8"
           dy="0.32em"
           id="text20">0.0</text>
      </g>
      <text
         x="0"
         y="-15"
         font-size="10"
         fill="rgb(68, 68, 68)"
         text-anchor="start"
         id="text21" />
      <g
         class="tick"
         opacity="1"
         transform="translate(0,79.30082608618731)"
         id="g22">
        <line
           stroke="currentColor"
           x2="-5"
           id="line21" />
        <text
           fill="currentColor"
           x="-8"
           dy="0.32em"
           id="text22">0.2</text>
      </g>
      <g
         class="tick"
         opacity="1"
         transform="translate(0,61.58029637170409)"
         id="g23">
        <line
           stroke="currentColor"
           x2="-5"
           id="line22" />
        <text
           fill="currentColor"
           x="-8"
           dy="0.32em"
           id="text23">0.4</text>
      </g>
      <g
         class="tick"
         opacity="1"
         transform="translate(0,43.85976665722086)"
         id="g24">
        <line
           stroke="currentColor"
           x2="-5"
           id="line23" />
        <text
           fill="currentColor"
           x="-8"
           dy="0.32em"
           id="text24">0.6</text>
      </g>
      <g
         class="tick"
         opacity="1"
         transform="translate(0,26.13923694273763)"
         id="g25">
        <line
           stroke="currentColor"
           x2="-5"
           id="line24" />
        <text
           fill="currentColor"
           x="-8"
           dy="0.32em"
           id="text25">0.8</text>
      </g>
      <g
         class="tick"
         opacity="1"
         transform="translate(0,8.418707228254423)"
         id="g26">
        <line
           stroke="currentColor"
           x2="-5"
           id="line25" />
        <text
           fill="currentColor"
           x="-8"
           dy="0.32em"
           id="text26">1.0</text>
      </g>
    </g>
  </g>
  <text
     xml:space="preserve"
     style="font-size:17.3333px;fill:#0044aa;stroke-width:1.492;stroke-dasharray:6, 6"
     x="302.39212"
     y="77.87355"
     id="text28"><tspan
       sodipodi:role="line"
       id="tspan28"
       x="302.39212"
       y="77.87355"
       style="font-style:normal;font-variant:normal;font-weight:normal;font-stretch:normal;font-size:13.3333px;font-family:Sans;-inkscape-font-specification:'Sans, Normal';font-variant-ligatures:normal;font-variant-caps:normal;font-variant-numeric:normal;font-variant-east-asian:normal;fill:#0044aa">sin(3x)</tspan></text>
  <text
     xml:space="preserve"
     style="font-size:17.3333px;fill:#d38d5f;stroke-width:1.492;stroke-dasharray:6, 6"
     x="264.55933"
     y="167.58232"
     id="text28-0"><tspan
       sodipodi:role="line"
       id="tspan28-3"
       x="264.55933"
       y="167.58232"
       style="font-style:normal;font-variant:normal;font-weight:normal;font-stretch:normal;font-size:13.3333px;font-family:Sans;-inkscape-font-specification:'Sans, Normal';font-variant-ligatures:normal;font-variant-caps:normal;font-variant-numeric:normal;font-variant-east-asian:normal;fill:#d38d5f">Approximation</tspan></text>
</svg>
