<svg width="370" height="238.67737948084053" tabindex="0" xmlns="http://www.w3.org/2000/svg" xmlns:xlink="http://www.w3.org/1999/xlink"><g transform="translate(40,30)"><g><path class="line-711e0dab-2d6f-411b-b4d0-969ea12116fb" vector-effect="non-scaling-stroke" fill="none" opacity="1" stroke="rgb(93,129,180)" stroke-width="2" d="M0,11.727L0.086,11.605L0.172,11.483L0.344,11.242L0.687,10.769L1.374,9.857L2.748,8.165L2.834,8.065L2.92,7.966L3.092,7.769L3.435,7.384L4.122,6.647L5.496,5.297L5.589,5.212L5.682,5.127L5.868,4.96L6.241,4.635L6.986,4.02L7.079,3.946L7.172,3.874L7.358,3.73L7.73,3.452L8.475,2.93L8.568,2.868L8.661,2.806L8.848,2.686L9.22,2.453L9.965,2.021L10.058,1.97L10.151,1.92L10.337,1.821L10.71,1.633L11.454,1.288L11.541,1.25L11.628,1.214L11.802,1.141L12.15,1.004L12.237,0.971L12.324,0.939L12.497,0.876L12.845,0.757L12.932,0.729L13.019,0.701L13.193,0.647L13.541,0.546L13.628,0.522L13.714,0.498L13.888,0.453L14.236,0.37L14.323,0.35L14.41,0.331L14.584,0.295L14.671,0.278L14.758,0.261L14.932,0.229L15.018,0.213L15.105,0.199L15.279,0.171L15.366,0.158L15.453,0.145L15.627,0.122L15.714,0.111L15.801,0.1L15.888,0.09L15.975,0.081L16.062,0.072L16.149,0.064L16.322,0.049L16.409,0.042L16.496,0.036L16.583,0.03L16.67,0.025L16.757,0.02L16.844,0.016L16.931,0.012L17.018,0.009L17.103,0.006L17.188,0.004L17.273,0.002L17.359,0.001L17.444,0L17.529,0L17.614,0L17.7,0.001L17.785,0.002L17.87,0.004L17.955,0.006L18.04,0.009L18.126,0.012L18.211,0.016L18.296,0.02L18.381,0.024L18.467,0.029L18.552,0.035L18.637,0.041L18.722,0.047L18.808,0.054L18.893,0.062L19.063,0.078L19.148,0.087L19.234,0.096L19.404,0.116L19.489,0.126L19.575,0.138L19.745,0.161L19.83,0.174L19.915,0.187L20.086,0.214L20.427,0.274L20.512,0.29L20.597,0.306L20.768,0.341L21.109,0.415L21.194,0.435L21.279,0.455L21.449,0.497L21.79,0.585L22.472,0.782L22.565,0.811L22.657,0.841L22.842,0.901L23.212,1.028L23.951,1.304L24.044,1.341L24.136,1.378L24.321,1.454L24.691,1.612L25.43,1.95L25.523,1.994L25.615,2.039L25.8,2.13L26.17,2.317L26.91,2.714L28.389,3.592L28.475,3.647L28.561,3.702L28.734,3.813L29.079,4.039L29.769,4.51L31.15,5.519L31.236,5.585L31.322,5.651L31.495,5.785L31.84,6.057L32.53,6.616L33.911,7.796L34.004,7.879L34.098,7.962L34.285,8.129L34.659,8.469L35.407,9.165L36.903,10.624L39.895,13.791L39.986,13.893L40.078,13.995L40.262,14.201L40.629,14.616L41.363,15.459L42.832,17.196L45.77,20.861L51.25,28.287L57.192,37.012L62.74,45.59L68.178,54.232L74.079,63.687L79.585,72.431L85.553,81.665L91.412,90.34L96.876,97.967L102.802,105.627L108.334,112.116L114.328,118.345L114.42,118.434L114.512,118.522L114.696,118.699L115.064,119.049L115.799,119.739L117.27,121.077L120.213,123.585L120.299,123.655L120.384,123.724L120.556,123.863L120.899,124.137L121.585,124.677L122.958,125.718L123.043,125.782L123.129,125.845L123.301,125.971L123.644,126.22L124.33,126.709L125.703,127.648L125.796,127.71L125.889,127.771L126.075,127.894L126.447,128.136L127.191,128.608L128.679,129.507L128.772,129.561L128.865,129.615L129.051,129.722L129.423,129.933L130.167,130.345L131.655,131.121L131.742,131.164L131.829,131.207L132.002,131.293L132.35,131.462L133.044,131.789L134.434,132.404L134.52,132.441L134.607,132.477L134.781,132.549L135.128,132.691L135.823,132.965L137.212,133.472L137.297,133.501L137.383,133.531L137.553,133.588L137.893,133.701L138.574,133.917L138.659,133.943L138.745,133.969L138.915,134.02L139.255,134.12L139.936,134.31L140.022,134.333L140.107,134.355L140.277,134.4L140.617,134.487L141.298,134.651L141.384,134.671L141.469,134.691L141.639,134.729L141.98,134.803L142.661,134.942L142.753,134.96L142.845,134.977L143.03,135.012L143.399,135.078L143.492,135.094L143.584,135.11L143.769,135.14L144.138,135.199L144.231,135.213L144.323,135.227L144.508,135.254L144.877,135.305L145.616,135.397L145.708,135.407L145.801,135.417L145.985,135.437L146.355,135.473L146.447,135.482L146.539,135.49L146.724,135.506L147.093,135.535L147.186,135.542L147.278,135.548L147.463,135.56L147.555,135.566L147.648,135.572L147.832,135.582L147.925,135.587L148.017,135.591L148.202,135.6L148.294,135.604L148.386,135.608L148.571,135.614L148.657,135.617L148.743,135.62L148.83,135.622L148.916,135.625L149.002,135.627L149.088,135.629L149.174,135.63L149.261,135.632L149.347,135.633L149.433,135.634L149.519,135.635L149.605,135.636L149.691,135.636L149.778,135.636L149.864,135.636L149.95,135.636L150.036,135.636L150.122,135.636L150.209,135.635L150.295,135.634L150.381,135.633L150.467,135.632L150.553,135.63L150.639,135.628L150.726,135.627L150.812,135.625L150.898,135.622L150.984,135.62L151.07,135.617L151.157,135.614L151.329,135.608L151.415,135.605L151.501,135.601L151.674,135.593L151.76,135.589L151.846,135.585L152.018,135.575L152.105,135.57L152.191,135.565L152.363,135.554L152.708,135.53L152.794,135.524L152.88,135.517L153.053,135.503L153.397,135.473L153.484,135.465L153.57,135.457L153.742,135.44L154.087,135.404L154.18,135.393L154.274,135.383L154.46,135.361L154.834,135.315L154.927,135.303L155.021,135.291L155.208,135.265L155.581,135.212L155.675,135.198L155.768,135.184L155.955,135.156L156.329,135.095L157.076,134.965L157.169,134.948L157.263,134.93L157.449,134.894L157.823,134.821L158.57,134.663L160.065,134.307L160.156,134.284L160.248,134.26L160.432,134.212L160.798,134.113L161.532,133.907L162.999,133.457L163.091,133.428L163.183,133.398L163.366,133.337L163.733,133.214L164.466,132.959L165.934,132.415L166.019,132.381L166.105,132.348L166.276,132.281L166.618,132.145L167.302,131.865L168.671,131.277L171.408,129.99L171.5,129.944L171.593,129.898L171.779,129.805L172.15,129.617L172.892,129.233L174.376,128.437L177.344,126.733L182.885,123.202L188.318,119.385L194.212,114.977L199.712,110.752L205.674,106.22L211.241,102.202L211.327,102.143L211.412,102.085L211.583,101.967L211.924,101.733L212.606,101.27L213.971,100.363L216.7,98.639L216.792,98.582L216.885,98.526L217.07,98.415L217.44,98.194L218.18,97.759L219.66,96.924L219.752,96.873L219.845,96.823L220.03,96.722L220.4,96.524L221.14,96.136L222.62,95.4L222.706,95.359L222.793,95.318L222.965,95.237L223.311,95.076L224.001,94.764L225.383,94.179L225.469,94.144L225.555,94.109L225.728,94.041L226.073,93.906L226.764,93.648L228.146,93.176L228.239,93.146L228.333,93.117L228.52,93.059L228.894,92.946L229.642,92.734L229.736,92.709L229.83,92.684L230.017,92.636L230.391,92.542L231.139,92.369L231.233,92.349L231.327,92.329L231.514,92.29L231.888,92.217L231.981,92.199L232.075,92.182L232.262,92.148L232.636,92.085L232.73,92.07L232.823,92.055L233.011,92.027L233.385,91.975L233.478,91.962L233.572,91.95L233.759,91.928L234.133,91.886L234.225,91.877L234.317,91.868L234.501,91.851L234.593,91.843L234.684,91.836L234.868,91.822L234.96,91.815L235.052,91.809L235.144,91.803L235.236,91.797L235.327,91.792L235.419,91.788L235.511,91.783L235.603,91.779L235.695,91.775L235.787,91.772L235.879,91.769L235.97,91.766L236.062,91.764L236.154,91.762L236.246,91.761L236.338,91.759L236.43,91.758L236.522,91.758L236.613,91.758L236.705,91.758L236.797,91.759L236.889,91.76L236.981,91.761L237.073,91.763L237.165,91.765L237.256,91.768L237.348,91.771L237.44,91.774L237.532,91.777L237.624,91.781L237.716,91.786L237.808,91.791L237.899,91.796L237.991,91.801L238.175,91.814L238.267,91.82L238.359,91.827L238.542,91.843L238.634,91.851L238.726,91.86L238.91,91.878L239.002,91.888L239.093,91.898L239.277,91.92L239.369,91.931L239.461,91.943L239.645,91.968L240.012,92.023L240.098,92.036L240.183,92.05L240.355,92.079L240.698,92.142L240.783,92.159L240.869,92.176L241.04,92.211L241.383,92.285L241.469,92.304L241.554,92.324L241.726,92.365L242.068,92.451L242.754,92.642L242.84,92.668L242.925,92.694L243.097,92.747L243.439,92.857L244.125,93.098L244.211,93.13L244.296,93.162L244.468,93.228L244.81,93.364L245.496,93.657L245.589,93.698L245.682,93.74L245.868,93.826L246.239,94.004L246.982,94.383L247.075,94.433L247.168,94.483L247.354,94.585L247.726,94.795L248.469,95.239L248.562,95.297L248.655,95.356L248.841,95.475L249.212,95.718L249.956,96.232L251.442,97.364L251.529,97.435L251.616,97.506L251.789,97.649L252.136,97.943L252.83,98.553L254.218,99.874L254.304,99.961L254.391,100.048L254.565,100.225L254.912,100.585L255.606,101.33L256.993,102.927L257.078,103.029L257.163,103.132L257.333,103.34L257.674,103.762L258.354,104.632L259.714,106.482L259.799,106.602L259.885,106.723L260.055,106.967L260.395,107.461L261.075,108.479L262.436,110.627L262.528,110.779L262.62,110.931L262.805,111.237L263.174,111.858L263.912,113.136L265.388,115.835L265.48,116.01L265.572,116.186L265.757,116.54L266.126,117.257L266.864,118.729L268.34,121.825L268.426,122.012L268.512,122.199L268.684,122.576L269.029,123.34L269.717,124.9L271.095,128.161L273.85,135.259L273.946,135.521L274.042,135.784L274.234,136.312L274.618,137.381L275.387,139.567L276.925,144.131L277.021,144.425L277.117,144.72L277.309,145.313L277.694,146.511L278.462,148.958L278.558,149.269L278.655,149.581L278.847,150.207L279.231,151.473L279.327,151.792L279.423,152.113L279.616,152.756L279.712,153.08L279.808,153.404L279.904,153.73L280,154.057"/><path class="line-323bb208-bf9a-49a3-bc00-97e31b7bcf5b" vector-effect="non-scaling-stroke" fill="none" opacity="1" stroke="rgb(224,155,36)" stroke-width="2" d="M0,188.677L0.086,188.215L0.172,187.754L0.344,186.835L0.687,185.006L1.374,181.391L2.748,174.322L5.496,160.827L11.454,134.393L17.018,113.008L22.472,94.921L22.565,94.638L22.657,94.355L22.842,93.793L23.212,92.677L23.951,90.481L25.43,86.233L28.389,78.294L28.475,78.074L28.561,77.854L28.734,77.416L29.079,76.547L29.769,74.838L31.15,71.536L33.911,65.38L34.004,65.182L34.098,64.984L34.285,64.591L34.659,63.813L35.407,62.288L36.903,59.362L36.996,59.184L37.09,59.007L37.277,58.656L37.651,57.96L38.399,56.598L39.895,53.994L39.986,53.84L40.078,53.685L40.262,53.379L40.629,52.773L41.363,51.589L42.832,49.33L42.924,49.193L43.016,49.057L43.199,48.787L43.566,48.254L44.301,47.214L45.77,45.237L45.855,45.126L45.941,45.016L46.112,44.796L46.455,44.362L47.14,43.517L48.51,41.912L48.595,41.816L48.681,41.72L48.852,41.529L49.195,41.153L49.88,40.421L51.25,39.041L51.343,38.952L51.435,38.863L51.621,38.686L51.992,38.338L52.735,37.667L54.221,36.417L54.314,36.343L54.407,36.269L54.592,36.123L54.964,35.837L55.706,35.287L57.192,34.275L57.279,34.22L57.365,34.165L57.539,34.056L57.886,33.842L58.579,33.434L58.666,33.385L58.752,33.336L58.926,33.239L59.272,33.05L59.966,32.69L60.053,32.647L60.139,32.604L60.313,32.519L60.659,32.354L61.353,32.041L62.74,31.484L62.825,31.452L62.91,31.422L63.08,31.361L63.419,31.243L64.099,31.024L64.184,30.999L64.269,30.973L64.439,30.923L64.779,30.827L65.459,30.649L65.544,30.629L65.629,30.608L65.799,30.568L66.139,30.492L66.224,30.474L66.309,30.456L66.479,30.422L66.818,30.356L66.903,30.34L66.988,30.325L67.158,30.295L67.498,30.239L67.583,30.226L67.668,30.213L67.838,30.188L68.178,30.142L68.27,30.13L68.362,30.119L68.547,30.097L68.639,30.087L68.731,30.077L68.916,30.058L69.008,30.049L69.1,30.041L69.284,30.024L69.377,30.017L69.469,30.01L69.653,29.997L69.745,29.99L69.838,29.985L69.93,29.979L70.022,29.974L70.114,29.969L70.206,29.965L70.299,29.961L70.391,29.957L70.483,29.954L70.575,29.951L70.667,29.948L70.76,29.946L70.852,29.944L70.944,29.942L71.036,29.941L71.128,29.939L71.221,29.939L71.313,29.938L71.405,29.938L71.497,29.939L71.589,29.939L71.682,29.94L71.774,29.941L71.866,29.943L71.958,29.945L72.05,29.947L72.143,29.95L72.235,29.953L72.327,29.956L72.419,29.959L72.604,29.968L72.696,29.972L72.788,29.977L72.972,29.988L73.065,29.993L73.157,29.999L73.341,30.013L73.433,30.02L73.526,30.027L73.71,30.043L74.079,30.078L74.165,30.087L74.251,30.096L74.423,30.115L74.767,30.157L74.853,30.168L74.939,30.18L75.111,30.203L75.455,30.253L75.541,30.266L75.627,30.28L75.799,30.308L76.143,30.366L76.832,30.496L76.918,30.513L77.004,30.53L77.176,30.566L77.52,30.641L78.208,30.803L78.294,30.824L78.38,30.846L78.552,30.89L78.896,30.98L79.585,31.173L79.678,31.2L79.771,31.228L79.958,31.284L80.331,31.399L81.077,31.643L82.569,32.182L82.662,32.218L82.755,32.254L82.942,32.327L83.315,32.476L84.061,32.787L85.553,33.455L85.644,33.498L85.736,33.541L85.919,33.628L86.285,33.805L87.018,34.17L88.482,34.942L91.412,36.645L91.497,36.698L91.583,36.751L91.753,36.857L92.095,37.071L92.778,37.508L94.144,38.411L96.876,40.335L102.802,44.978L108.334,49.795L114.328,55.411L120.213,61.207L125.703,66.766L131.655,72.855L137.212,78.511L142.661,83.956L148.571,89.672L154.087,94.762L160.065,99.948L165.934,104.645L171.408,108.631L177.344,112.478L182.885,115.593L182.97,115.637L183.055,115.681L183.225,115.768L183.564,115.941L184.244,116.283L185.602,116.944L188.318,118.176L188.41,118.216L188.502,118.255L188.686,118.334L189.055,118.49L189.791,118.795L191.265,119.377L191.357,119.412L191.449,119.447L191.634,119.517L192.002,119.655L192.739,119.924L194.212,120.435L194.298,120.463L194.384,120.492L194.556,120.548L194.9,120.66L195.587,120.878L196.962,121.29L197.048,121.315L197.134,121.34L197.306,121.388L197.65,121.485L198.337,121.671L199.712,122.019L199.805,122.042L199.898,122.064L200.085,122.108L200.457,122.195L201.203,122.361L201.296,122.381L201.389,122.401L201.575,122.441L201.948,122.518L202.693,122.666L202.786,122.683L202.88,122.701L203.066,122.736L203.438,122.804L204.184,122.933L205.674,123.163L205.761,123.175L205.848,123.187L206.022,123.211L206.37,123.257L207.066,123.344L207.153,123.354L207.24,123.364L207.414,123.384L207.762,123.422L208.458,123.493L208.545,123.501L208.632,123.509L208.806,123.525L209.154,123.555L209.241,123.562L209.328,123.569L209.502,123.583L209.85,123.609L209.937,123.615L210.024,123.621L210.198,123.633L210.546,123.655L210.633,123.661L210.72,123.666L210.894,123.675L211.241,123.694L211.327,123.698L211.412,123.702L211.583,123.709L211.668,123.713L211.753,123.717L211.924,123.723L212.009,123.727L212.094,123.73L212.265,123.735L212.35,123.738L212.435,123.741L212.606,123.745L212.691,123.748L212.777,123.75L212.862,123.752L212.947,123.754L213.032,123.755L213.118,123.757L213.203,123.759L213.288,123.76L213.374,123.761L213.459,123.762L213.544,123.763L213.629,123.764L213.715,123.765L213.8,123.766L213.885,123.766L213.971,123.767L214.056,123.767L214.141,123.767L214.226,123.768L214.312,123.768L214.397,123.767L214.482,123.767L214.568,123.767L214.653,123.766L214.738,123.766L214.823,123.765L214.909,123.764L214.994,123.763L215.079,123.762L215.164,123.761L215.25,123.76L215.335,123.758L215.42,123.757L215.506,123.755L215.676,123.751L215.761,123.749L215.847,123.747L216.017,123.743L216.103,123.74L216.188,123.737L216.358,123.732L216.7,123.719L216.792,123.716L216.885,123.712L217.07,123.704L217.44,123.686L217.532,123.681L217.625,123.676L217.81,123.666L218.18,123.644L218.272,123.638L218.365,123.632L218.55,123.62L218.92,123.593L219.66,123.534L219.752,123.526L219.845,123.517L220.03,123.501L220.4,123.466L221.14,123.389L221.232,123.379L221.325,123.369L221.51,123.348L221.88,123.304L222.62,123.211L222.706,123.2L222.793,123.188L222.965,123.165L223.311,123.116L224.001,123.015L225.383,122.79L225.469,122.775L225.555,122.76L225.728,122.729L226.073,122.667L226.764,122.537L228.146,122.256L228.239,122.236L228.333,122.215L228.52,122.175L228.894,122.092L229.642,121.92L231.139,121.554L231.233,121.53L231.327,121.506L231.514,121.457L231.888,121.359L232.636,121.157L234.133,120.729L234.225,120.702L234.317,120.675L234.501,120.62L234.868,120.509L235.603,120.281L237.073,119.806L240.012,118.775L240.098,118.744L240.183,118.712L240.355,118.649L240.698,118.52L241.383,118.26L242.754,117.723L245.496,116.59L251.442,113.879L256.993,111.087L262.436,108.164L268.34,104.86L273.85,101.729L273.946,101.675L274.042,101.62L274.234,101.511L274.618,101.293L275.387,100.858L276.925,99.991L277.021,99.937L277.117,99.884L277.309,99.776L277.694,99.56L278.462,99.131L278.558,99.077L278.655,99.024L278.847,98.917L279.231,98.704L279.327,98.65L279.423,98.597L279.616,98.491L279.712,98.438L279.808,98.385L279.904,98.332L280,98.279"/><path class="line-179c5889-85dc-4b52-b6c7-10050891032f" vector-effect="non-scaling-stroke" fill="none" opacity="1" stroke="rgb(142,176,49)" stroke-width="2" d="M0,66.735L0.086,67.122L0.172,67.507L0.344,68.273L0.687,69.791L1.374,72.763L2.748,78.465L2.834,78.811L2.92,79.155L3.092,79.841L3.435,81.196L4.122,83.848L5.496,88.921L5.589,89.254L5.682,89.585L5.868,90.244L6.241,91.544L6.986,94.079L8.475,98.891L8.568,99.18L8.661,99.468L8.848,100.041L9.22,101.17L9.965,103.366L11.454,107.515L11.541,107.747L11.628,107.978L11.802,108.437L12.15,109.342L12.845,111.102L14.236,114.42L14.323,114.618L14.41,114.816L14.584,115.208L14.932,115.98L15.627,117.476L17.018,120.279L17.103,120.443L17.188,120.605L17.359,120.928L17.7,121.562L18.381,122.787L19.745,125.065L19.83,125.2L19.915,125.334L20.086,125.6L20.427,126.12L21.109,127.12L22.472,128.958L22.565,129.075L22.657,129.191L22.842,129.42L23.212,129.867L23.951,130.715L24.044,130.817L24.136,130.918L24.321,131.116L24.691,131.503L25.43,132.233L25.523,132.32L25.615,132.406L25.8,132.576L26.17,132.905L26.91,133.521L27.002,133.594L27.095,133.666L27.279,133.807L27.649,134.081L28.389,134.586L28.475,134.641L28.561,134.696L28.734,134.803L29.079,135.009L29.165,135.059L29.252,135.108L29.424,135.204L29.769,135.387L29.855,135.431L29.942,135.474L30.114,135.559L30.459,135.719L31.15,136.008L31.236,136.041L31.322,136.073L31.495,136.135L31.84,136.253L31.926,136.28L32.012,136.307L32.185,136.359L32.53,136.455L32.616,136.477L32.703,136.499L32.875,136.54L32.961,136.56L33.048,136.579L33.22,136.615L33.307,136.632L33.393,136.649L33.565,136.68L33.652,136.695L33.738,136.709L33.911,136.735L34.004,136.748L34.098,136.76L34.191,136.772L34.285,136.782L34.378,136.793L34.472,136.802L34.565,136.811L34.659,136.818L34.752,136.826L34.846,136.832L34.939,136.838L35.033,136.843L35.126,136.847L35.22,136.851L35.313,136.854L35.407,136.856L35.5,136.858L35.594,136.858L35.687,136.858L35.781,136.858L35.874,136.856L35.968,136.854L36.061,136.852L36.155,136.848L36.248,136.844L36.342,136.839L36.435,136.834L36.529,136.828L36.622,136.821L36.716,136.813L36.903,136.796L36.996,136.786L37.09,136.776L37.277,136.754L37.37,136.741L37.464,136.728L37.651,136.7L37.744,136.685L37.838,136.67L38.025,136.637L38.399,136.562L38.492,136.542L38.586,136.521L38.773,136.478L39.147,136.383L39.24,136.357L39.334,136.331L39.521,136.278L39.895,136.163L39.986,136.133L40.078,136.102L40.262,136.04L40.629,135.908L41.363,135.616L41.455,135.577L41.547,135.537L41.731,135.456L42.098,135.287L42.832,134.923L42.924,134.875L43.016,134.826L43.199,134.728L43.566,134.524L44.301,134.091L45.77,133.127L45.855,133.067L45.941,133.006L46.112,132.884L46.455,132.634L47.14,132.114L48.51,130.998L48.595,130.924L48.681,130.851L48.852,130.703L49.195,130.402L49.88,129.782L51.25,128.473L51.343,128.382L51.435,128.289L51.621,128.103L51.992,127.727L52.735,126.955L54.221,125.338L57.192,121.837L62.74,114.492L68.178,106.513L74.079,97.294L79.585,88.435L85.553,78.829L91.412,69.651L96.876,61.521L102.802,53.368L108.334,46.542L108.428,46.433L108.521,46.325L108.709,46.11L109.083,45.683L109.833,44.841L111.331,43.207L114.328,40.153L114.42,40.064L114.512,39.975L114.696,39.798L115.064,39.448L115.799,38.761L117.27,37.442L117.362,37.362L117.454,37.282L117.638,37.123L118.006,36.81L118.742,36.197L120.213,35.029L120.299,34.963L120.384,34.898L120.556,34.768L120.899,34.51L121.585,34.009L122.958,33.058L123.043,33.001L123.129,32.944L123.301,32.831L123.644,32.609L124.33,32.177L125.703,31.366L125.796,31.314L125.889,31.262L126.075,31.159L126.447,30.957L127.191,30.568L127.284,30.521L127.377,30.474L127.563,30.382L127.935,30.201L128.679,29.855L128.772,29.814L128.865,29.772L129.051,29.69L129.423,29.531L130.167,29.228L131.655,28.688L131.742,28.659L131.829,28.631L132.002,28.575L132.35,28.466L133.044,28.263L133.131,28.239L133.218,28.215L133.392,28.168L133.739,28.079L134.434,27.914L134.52,27.894L134.607,27.876L134.781,27.839L135.128,27.768L135.215,27.751L135.302,27.735L135.476,27.703L135.823,27.642L135.91,27.627L135.997,27.613L136.17,27.586L136.518,27.535L136.604,27.523L136.691,27.511L136.865,27.489L137.212,27.447L137.297,27.438L137.383,27.429L137.553,27.412L137.638,27.403L137.723,27.395L137.893,27.38L137.978,27.373L138.064,27.367L138.234,27.354L138.319,27.348L138.404,27.342L138.574,27.332L138.659,27.327L138.745,27.323L138.83,27.319L138.915,27.315L139,27.311L139.085,27.308L139.17,27.305L139.255,27.302L139.341,27.3L139.426,27.298L139.511,27.296L139.596,27.294L139.681,27.293L139.766,27.292L139.851,27.292L139.936,27.291L140.022,27.291L140.107,27.291L140.192,27.292L140.277,27.293L140.362,27.294L140.447,27.295L140.532,27.297L140.617,27.299L140.703,27.301L140.788,27.304L140.873,27.306L140.958,27.31L141.043,27.313L141.128,27.317L141.298,27.325L141.384,27.33L141.469,27.334L141.639,27.345L141.724,27.351L141.809,27.357L141.98,27.37L142.065,27.377L142.15,27.384L142.32,27.399L142.661,27.433L142.753,27.444L142.845,27.454L143.03,27.476L143.399,27.523L143.492,27.536L143.584,27.549L143.769,27.577L144.138,27.635L144.231,27.651L144.323,27.667L144.508,27.7L144.877,27.769L145.616,27.925L145.708,27.946L145.801,27.967L145.985,28.011L146.355,28.102L147.093,28.301L147.186,28.328L147.278,28.355L147.463,28.409L147.832,28.522L148.571,28.765L148.657,28.794L148.743,28.824L148.916,28.885L149.261,29.01L149.95,29.274L151.329,29.859L151.415,29.898L151.501,29.937L151.674,30.016L152.018,30.179L152.708,30.517L154.087,31.248L154.18,31.3L154.274,31.353L154.46,31.459L154.834,31.675L155.581,32.122L157.076,33.08L157.169,33.143L157.263,33.206L157.449,33.333L157.823,33.591L158.57,34.121L160.065,35.243L160.156,35.315L160.248,35.387L160.432,35.531L160.798,35.824L161.532,36.423L162.999,37.678L165.934,40.408L166.019,40.492L166.105,40.576L166.276,40.745L166.618,41.086L167.302,41.779L168.671,43.209L171.408,46.244L177.344,53.559L182.885,61.178L188.318,69.237L194.212,78.455L199.712,87.298L205.674,96.9L211.241,105.627L216.7,113.7L222.62,121.605L222.706,121.712L222.793,121.819L222.965,122.031L223.311,122.453L224.001,123.284L225.383,124.891L225.469,124.989L225.555,125.087L225.728,125.281L226.073,125.666L226.764,126.42L228.146,127.867L228.239,127.962L228.333,128.057L228.52,128.244L228.894,128.615L229.642,129.336L231.139,130.695L231.233,130.777L231.327,130.857L231.514,131.017L231.888,131.332L232.636,131.939L234.133,133.059L234.225,133.123L234.317,133.187L234.501,133.314L234.868,133.561L235.603,134.032L235.695,134.088L235.787,134.144L235.97,134.255L236.338,134.469L237.073,134.873L237.165,134.921L237.256,134.969L237.44,135.062L237.808,135.242L237.899,135.286L237.991,135.329L238.175,135.413L238.542,135.575L238.634,135.615L238.726,135.653L238.91,135.729L239.277,135.872L240.012,136.132L240.098,136.16L240.183,136.187L240.355,136.24L240.698,136.34L240.783,136.364L240.869,136.387L241.04,136.431L241.383,136.514L241.469,136.533L241.554,136.552L241.726,136.588L241.811,136.605L241.897,136.622L242.068,136.654L242.154,136.668L242.24,136.683L242.411,136.71L242.497,136.723L242.583,136.735L242.754,136.757L242.84,136.768L242.925,136.778L243.011,136.787L243.097,136.796L243.182,136.804L243.268,136.812L243.354,136.819L243.439,136.825L243.525,136.831L243.611,136.837L243.697,136.841L243.782,136.846L243.868,136.849L243.954,136.852L244.039,136.855L244.125,136.856L244.211,136.858L244.296,136.858L244.382,136.858L244.468,136.858L244.553,136.857L244.639,136.855L244.725,136.853L244.81,136.85L244.896,136.846L244.982,136.842L245.067,136.838L245.153,136.832L245.239,136.826L245.325,136.82L245.41,136.813L245.496,136.805L245.589,136.796L245.682,136.786L245.775,136.776L245.868,136.764L245.96,136.752L246.053,136.74L246.239,136.712L246.332,136.697L246.425,136.682L246.611,136.648L246.982,136.572L247.075,136.552L247.168,136.53L247.354,136.485L247.726,136.385L247.819,136.358L247.912,136.33L248.097,136.273L248.469,136.148L248.562,136.115L248.655,136.081L248.841,136.011L249.212,135.862L249.305,135.823L249.398,135.782L249.584,135.7L249.956,135.525L250.048,135.479L250.141,135.432L250.327,135.337L250.699,135.136L251.442,134.694L251.529,134.639L251.616,134.583L251.789,134.469L252.136,134.233L252.83,133.724L252.917,133.657L253.003,133.589L253.177,133.451L253.524,133.167L254.218,132.56L254.304,132.48L254.391,132.4L254.565,132.238L254.912,131.903L255.606,131.194L256.993,129.621L257.078,129.518L257.163,129.414L257.333,129.203L257.674,128.772L258.354,127.87L259.714,125.906L259.799,125.776L259.885,125.645L260.055,125.381L260.395,124.842L261.075,123.723L262.436,121.313L262.528,121.141L262.62,120.968L262.805,120.619L263.174,119.908L263.912,118.434L265.388,115.272L265.48,115.065L265.572,114.856L265.757,114.436L266.126,113.582L266.864,111.818L268.34,108.062L268.426,107.834L268.512,107.604L268.684,107.142L269.029,106.205L269.717,104.278L271.095,100.217L271.181,99.953L271.267,99.689L271.439,99.157L271.783,98.079L272.472,95.87L273.85,91.23L273.946,90.895L274.042,90.559L274.234,89.882L274.618,88.51L275.387,85.696L276.925,79.776L277.021,79.393L277.117,79.008L277.309,78.234L277.694,76.668L278.462,73.459L278.558,73.051L278.655,72.641L278.847,71.817L279.231,70.149L279.327,69.728L279.423,69.305L279.616,68.455L279.712,68.028L279.808,67.598L279.904,67.168L280,66.735"/><path class="line-b8edbaec-6ad7-40b5-837d-7e39343440f7" vector-effect="non-scaling-stroke" fill="none" opacity="1" stroke="rgb(235,98,53)" stroke-width="2" d="M0,98.279L0.086,98.326L0.172,98.373L0.344,98.468L0.687,98.658L1.374,99.04L2.748,99.808L5.496,101.358L11.454,104.744L17.018,107.863L22.472,110.807L28.389,113.798L33.911,116.334L34.004,116.375L34.098,116.415L34.285,116.496L34.659,116.656L35.407,116.972L36.903,117.586L39.895,118.741L39.986,118.775L40.078,118.809L40.262,118.876L40.629,119.009L41.363,119.27L42.832,119.774L42.924,119.805L43.016,119.835L43.199,119.896L43.566,120.016L44.301,120.251L45.77,120.701L45.855,120.726L45.941,120.751L46.112,120.801L46.455,120.901L47.14,121.094L48.51,121.463L48.595,121.486L48.681,121.508L48.852,121.552L49.195,121.638L49.88,121.807L51.25,122.124L51.343,122.145L51.435,122.165L51.621,122.205L51.992,122.285L52.735,122.438L52.828,122.456L52.921,122.475L53.107,122.511L53.478,122.583L54.221,122.72L54.314,122.736L54.407,122.753L54.592,122.785L54.964,122.849L55.706,122.969L57.192,123.186L57.279,123.198L57.365,123.209L57.539,123.232L57.886,123.276L58.579,123.358L58.666,123.368L58.752,123.377L58.926,123.396L59.272,123.433L59.966,123.5L60.053,123.508L60.139,123.516L60.313,123.531L60.659,123.56L60.746,123.567L60.833,123.574L61.006,123.587L61.353,123.613L61.439,123.619L61.526,123.625L61.699,123.636L62.046,123.658L62.133,123.663L62.22,123.668L62.393,123.677L62.74,123.695L62.825,123.699L62.91,123.703L63.08,123.71L63.164,123.714L63.249,123.717L63.419,123.724L63.504,123.727L63.589,123.73L63.759,123.736L63.844,123.738L63.929,123.741L64.099,123.746L64.184,123.748L64.269,123.75L64.354,123.752L64.439,123.754L64.524,123.756L64.609,123.757L64.779,123.76L64.864,123.761L64.949,123.762L65.034,123.764L65.119,123.764L65.204,123.765L65.289,123.766L65.374,123.766L65.459,123.767L65.544,123.767L65.629,123.767L65.714,123.768L65.799,123.768L65.884,123.767L65.969,123.767L66.054,123.767L66.139,123.766L66.224,123.766L66.309,123.765L66.394,123.764L66.479,123.763L66.563,123.762L66.648,123.761L66.733,123.76L66.818,123.758L66.903,123.757L66.988,123.755L67.158,123.751L67.243,123.749L67.328,123.747L67.498,123.743L67.583,123.74L67.668,123.737L67.838,123.732L68.178,123.719L68.27,123.716L68.362,123.712L68.547,123.704L68.916,123.686L69.008,123.681L69.1,123.676L69.284,123.665L69.653,123.643L69.745,123.637L69.838,123.631L70.022,123.618L70.391,123.591L71.128,123.531L71.221,123.522L71.313,123.514L71.497,123.497L71.866,123.461L72.604,123.382L72.696,123.372L72.788,123.361L72.972,123.339L73.341,123.294L74.079,123.197L74.165,123.185L74.251,123.173L74.423,123.149L74.767,123.099L75.455,122.992L75.541,122.978L75.627,122.964L75.799,122.936L76.143,122.877L76.832,122.755L76.918,122.739L77.004,122.723L77.176,122.691L77.52,122.624L78.208,122.486L79.585,122.185L79.678,122.164L79.771,122.142L79.958,122.098L80.331,122.009L81.077,121.823L82.569,121.424L82.662,121.397L82.755,121.371L82.942,121.318L83.315,121.21L84.061,120.987L85.553,120.513L85.644,120.482L85.736,120.452L85.919,120.391L86.285,120.266L87.018,120.011L88.482,119.473L91.412,118.292L91.497,118.256L91.583,118.219L91.753,118.145L92.095,117.997L92.778,117.693L94.144,117.064L96.876,115.716L102.802,112.389L108.334,108.808L114.328,104.445L120.213,99.716L125.703,94.951L131.655,89.458L137.212,84.081L142.661,78.64L148.571,72.623L154.087,66.98L160.065,60.929L165.934,55.159L171.408,50.029L177.344,44.857L182.885,40.51L182.97,40.447L183.055,40.385L183.225,40.261L183.564,40.015L184.244,39.529L185.602,38.584L188.318,36.813L188.41,36.755L188.502,36.698L188.686,36.585L189.055,36.36L189.791,35.921L191.265,35.081L191.357,35.03L191.449,34.979L191.634,34.879L192.002,34.681L192.739,34.295L194.212,33.566L194.298,33.525L194.384,33.485L194.556,33.404L194.9,33.246L195.587,32.939L196.962,32.365L197.048,32.331L197.134,32.297L197.306,32.23L197.65,32.099L198.337,31.847L199.712,31.386L199.805,31.357L199.898,31.328L200.085,31.271L200.457,31.161L201.203,30.954L201.296,30.929L201.389,30.905L201.575,30.857L201.948,30.765L202.693,30.594L202.786,30.574L202.88,30.555L203.066,30.516L203.438,30.443L203.532,30.425L203.625,30.408L203.811,30.374L204.184,30.31L204.277,30.295L204.37,30.28L204.556,30.251L204.929,30.197L205.022,30.185L205.115,30.172L205.302,30.148L205.674,30.104L205.761,30.095L205.848,30.086L206.022,30.068L206.109,30.06L206.196,30.051L206.37,30.036L206.457,30.029L206.544,30.022L206.718,30.008L206.805,30.002L206.892,29.996L207.066,29.985L207.153,29.98L207.24,29.975L207.327,29.971L207.414,29.967L207.501,29.963L207.588,29.959L207.675,29.956L207.762,29.953L207.849,29.95L207.936,29.948L208.023,29.945L208.11,29.944L208.197,29.942L208.284,29.941L208.371,29.94L208.458,29.939L208.545,29.938L208.632,29.938L208.719,29.938L208.806,29.939L208.893,29.94L208.98,29.941L209.067,29.942L209.154,29.944L209.241,29.946L209.328,29.948L209.415,29.95L209.502,29.953L209.589,29.956L209.676,29.96L209.85,29.968L209.937,29.972L210.024,29.977L210.198,29.987L210.285,29.992L210.372,29.998L210.546,30.011L210.633,30.018L210.72,30.025L210.894,30.04L211.241,30.074L211.327,30.083L211.412,30.092L211.583,30.112L211.924,30.155L212.009,30.167L212.094,30.178L212.265,30.203L212.606,30.256L212.691,30.27L212.777,30.284L212.947,30.313L213.288,30.376L213.971,30.516L214.056,30.535L214.141,30.555L214.312,30.594L214.653,30.677L215.335,30.858L215.42,30.882L215.506,30.907L215.676,30.957L216.017,31.06L216.7,31.284L216.792,31.316L216.885,31.348L217.07,31.414L217.44,31.55L218.18,31.843L218.272,31.881L218.365,31.92L218.55,31.999L218.92,32.161L219.66,32.506L219.752,32.55L219.845,32.596L220.03,32.688L220.4,32.877L221.14,33.275L222.62,34.156L222.706,34.21L222.793,34.266L222.965,34.377L223.311,34.605L224.001,35.079L225.383,36.104L225.469,36.171L225.555,36.239L225.728,36.376L226.073,36.655L226.764,37.232L228.146,38.467L228.239,38.554L228.333,38.642L228.52,38.82L228.894,39.181L229.642,39.928L231.139,41.52L231.233,41.624L231.327,41.728L231.514,41.939L231.888,42.366L232.636,43.247L234.133,45.111L234.225,45.23L234.317,45.35L234.501,45.591L234.868,46.078L235.603,47.08L237.073,49.188L240.012,53.837L240.098,53.981L240.183,54.126L240.355,54.418L240.698,55.006L241.383,56.208L242.754,58.713L245.496,64.133L245.589,64.326L245.682,64.52L245.868,64.91L246.239,65.698L246.982,67.306L248.469,70.65L251.442,77.862L251.529,78.084L251.616,78.305L251.789,78.751L252.136,79.649L252.83,81.476L254.218,85.25L256.993,93.294L262.436,111.07L268.34,133.548L273.85,157.738L273.946,158.189L274.042,158.64L274.234,159.547L274.618,161.373L275.387,165.073L276.925,172.671L277.021,173.155L277.117,173.639L277.309,174.612L277.694,176.57L278.462,180.538L278.558,181.038L278.655,181.54L278.847,182.547L279.231,184.573L279.327,185.082L279.423,185.593L279.616,186.617L279.712,187.13L279.808,187.645L279.904,188.161L280,188.677"/><path class="line-7dd68e6e-cfd1-4cde-be68-adacb024aefd" vector-effect="non-scaling-stroke" fill="none" opacity="1" stroke="rgb(134,120,178)" stroke-width="2" d="M0,154.057L0.086,153.765L0.172,153.473L0.344,152.894L0.687,151.745L1.374,149.488L2.748,145.136L5.496,137.062L5.589,136.802L5.682,136.544L5.868,136.03L6.241,135.014L6.986,133.025L8.475,129.218L8.568,128.988L8.661,128.758L8.848,128.302L9.22,127.4L9.965,125.636L11.454,122.272L11.541,122.083L11.628,121.894L11.802,121.518L12.15,120.775L12.845,119.323L14.236,116.553L14.323,116.386L14.41,116.22L14.584,115.889L14.932,115.235L15.627,113.959L17.018,111.535L17.103,111.392L17.188,111.249L17.359,110.966L17.7,110.407L18.381,109.319L19.745,107.257L19.83,107.133L19.915,107.01L20.086,106.765L20.427,106.283L21.109,105.346L22.472,103.58L22.565,103.465L22.657,103.352L22.842,103.126L23.212,102.682L23.951,101.824L25.43,100.23L25.523,100.135L25.615,100.042L25.8,99.856L26.17,99.491L26.91,98.791L28.389,97.502L28.475,97.432L28.561,97.361L28.734,97.223L29.079,96.951L29.769,96.43L29.855,96.368L29.942,96.305L30.114,96.182L30.459,95.941L31.15,95.481L31.236,95.425L31.322,95.371L31.495,95.262L31.84,95.051L32.53,94.649L33.911,93.931L34.004,93.887L34.098,93.843L34.285,93.756L34.659,93.588L35.407,93.277L35.5,93.24L35.594,93.204L35.781,93.133L36.155,92.997L36.903,92.747L36.996,92.718L37.09,92.689L37.277,92.633L37.651,92.527L37.744,92.501L37.838,92.476L38.025,92.427L38.399,92.335L38.492,92.313L38.586,92.292L38.773,92.25L39.147,92.172L39.24,92.154L39.334,92.136L39.521,92.102L39.895,92.038L39.986,92.023L40.078,92.009L40.262,91.981L40.354,91.968L40.445,91.956L40.629,91.932L40.721,91.92L40.813,91.909L40.996,91.888L41.088,91.878L41.18,91.869L41.363,91.851L41.455,91.843L41.547,91.835L41.731,91.82L41.822,91.814L41.914,91.807L42.098,91.796L42.19,91.791L42.281,91.786L42.373,91.782L42.465,91.778L42.557,91.774L42.649,91.771L42.74,91.768L42.832,91.765L42.924,91.763L43.016,91.761L43.107,91.76L43.199,91.759L43.291,91.758L43.383,91.758L43.475,91.758L43.566,91.758L43.658,91.759L43.75,91.76L43.842,91.762L43.934,91.764L44.025,91.766L44.117,91.769L44.209,91.772L44.301,91.775L44.393,91.779L44.484,91.783L44.576,91.787L44.668,91.792L44.76,91.797L44.852,91.803L45.035,91.815L45.127,91.821L45.219,91.828L45.402,91.843L45.494,91.851L45.586,91.859L45.77,91.877L45.855,91.885L45.941,91.894L46.112,91.913L46.455,91.954L46.54,91.965L46.626,91.976L46.797,91.999L47.14,92.05L47.225,92.063L47.311,92.076L47.482,92.104L47.825,92.164L48.51,92.295L48.595,92.313L48.681,92.331L48.852,92.367L49.195,92.444L49.88,92.609L49.965,92.631L50.051,92.653L50.222,92.698L50.565,92.791L51.25,92.989L51.343,93.017L51.435,93.045L51.621,93.102L51.992,93.221L52.735,93.47L54.221,94.021L54.314,94.057L54.407,94.094L54.592,94.168L54.964,94.32L55.706,94.636L57.192,95.311L57.279,95.352L57.365,95.393L57.539,95.477L57.886,95.646L58.579,95.992L59.966,96.72L62.74,98.3L62.825,98.351L62.91,98.402L63.08,98.505L63.419,98.711L64.099,99.13L65.459,99.992L68.178,101.803L74.079,106.036L79.585,110.212L85.553,114.798L91.412,119.188L96.876,123.041L102.802,126.82L102.889,126.872L102.975,126.923L103.148,127.025L103.494,127.228L104.185,127.629L105.568,128.406L108.334,129.861L108.428,129.908L108.521,129.955L108.709,130.048L109.083,130.231L109.833,130.591L111.331,131.278L111.425,131.319L111.518,131.361L111.706,131.443L112.08,131.604L112.829,131.92L114.328,132.515L114.42,132.55L114.512,132.585L114.696,132.654L115.064,132.79L115.799,133.053L117.27,133.544L117.362,133.573L117.454,133.602L117.638,133.659L118.006,133.771L118.742,133.985L120.213,134.377L120.299,134.399L120.384,134.42L120.556,134.461L120.899,134.543L121.585,134.697L121.671,134.715L121.757,134.734L121.928,134.77L122.271,134.84L122.958,134.971L123.043,134.987L123.129,135.002L123.301,135.032L123.644,135.091L123.73,135.105L123.816,135.119L123.987,135.146L124.33,135.199L124.416,135.212L124.502,135.224L124.673,135.249L125.016,135.296L125.703,135.38L125.796,135.391L125.889,135.401L126.075,135.421L126.447,135.459L126.54,135.467L126.633,135.476L126.819,135.492L127.191,135.523L127.284,135.53L127.377,135.537L127.563,135.55L127.656,135.556L127.749,135.562L127.935,135.573L128.028,135.578L128.121,135.583L128.307,135.592L128.4,135.597L128.493,135.601L128.679,135.608L128.772,135.612L128.865,135.615L128.958,135.618L129.051,135.621L129.144,135.623L129.237,135.626L129.33,135.628L129.423,135.63L129.516,135.631L129.609,135.633L129.702,135.634L129.795,135.635L129.888,135.636L129.981,135.636L130.074,135.636L130.167,135.636L130.26,135.636L130.353,135.636L130.446,135.635L130.539,135.634L130.632,135.633L130.725,135.632L130.818,135.63L130.911,135.629L131.004,135.627L131.097,135.624L131.19,135.622L131.283,135.619L131.376,135.616L131.469,135.613L131.655,135.606L131.742,135.602L131.829,135.599L132.002,135.591L132.089,135.586L132.176,135.582L132.35,135.572L132.436,135.567L132.523,135.561L132.697,135.55L133.044,135.524L133.131,135.518L133.218,135.511L133.392,135.496L133.739,135.464L133.826,135.456L133.913,135.447L134.086,135.429L134.434,135.391L134.52,135.381L134.607,135.371L134.781,135.349L135.128,135.304L135.215,135.293L135.302,135.281L135.476,135.256L135.823,135.205L135.91,135.192L135.997,135.178L136.17,135.15L136.518,135.092L137.212,134.966L137.297,134.95L137.383,134.933L137.553,134.9L137.893,134.83L138.574,134.681L138.659,134.661L138.745,134.641L138.915,134.601L139.255,134.519L139.936,134.344L140.022,134.321L140.107,134.298L140.277,134.252L140.617,134.156L141.298,133.956L142.661,133.516L142.753,133.484L142.845,133.452L143.03,133.388L143.399,133.256L144.138,132.98L145.616,132.383L145.708,132.344L145.801,132.304L145.985,132.225L146.355,132.062L147.093,131.725L148.571,131.007L148.657,130.963L148.743,130.919L148.916,130.83L149.261,130.65L149.95,130.281L151.329,129.502L154.087,127.788L154.18,127.726L154.274,127.664L154.46,127.539L154.834,127.287L155.581,126.771L157.076,125.694L160.065,123.358L160.156,123.283L160.248,123.207L160.432,123.055L160.798,122.749L161.532,122.125L162.999,120.836L165.934,118.091L171.408,112.402L177.344,105.447L182.885,98.289L188.318,90.729L194.212,82.022L199.712,73.536L205.674,64.082L211.241,55.161L216.7,46.474L222.62,37.297L228.146,29.147L234.133,20.986L240.012,13.895L240.098,13.799L240.183,13.704L240.355,13.515L240.698,13.139L241.383,12.399L242.754,10.971L242.84,10.884L242.925,10.797L243.097,10.624L243.439,10.282L244.125,9.612L245.496,8.328L245.589,8.244L245.682,8.16L245.868,7.993L246.239,7.664L246.982,7.023L248.469,5.813L248.562,5.741L248.655,5.669L248.841,5.526L249.212,5.246L249.956,4.704L251.442,3.699L251.529,3.644L251.616,3.589L251.789,3.481L252.136,3.268L252.83,2.86L252.917,2.811L253.003,2.762L253.177,2.666L253.524,2.478L254.218,2.121L254.304,2.078L254.391,2.036L254.565,1.952L254.912,1.79L255.606,1.485L255.692,1.449L255.779,1.413L255.952,1.343L256.299,1.207L256.993,0.956L257.078,0.928L257.163,0.899L257.333,0.844L257.674,0.738L257.759,0.713L257.844,0.688L258.014,0.639L258.354,0.547L258.439,0.525L258.524,0.503L258.694,0.461L259.034,0.383L259.119,0.365L259.204,0.347L259.374,0.312L259.714,0.248L259.799,0.233L259.885,0.219L260.055,0.191L260.14,0.178L260.225,0.166L260.395,0.142L260.48,0.13L260.565,0.12L260.735,0.099L260.82,0.09L260.905,0.081L261.075,0.064L261.16,0.057L261.245,0.05L261.33,0.043L261.415,0.037L261.5,0.031L261.585,0.026L261.67,0.021L261.755,0.017L261.84,0.013L261.925,0.01L262.01,0.007L262.095,0.005L262.18,0.003L262.265,0.001L262.35,0.001L262.436,0L262.528,0L262.62,0.001L262.712,0.002L262.805,0.004L262.897,0.006L262.989,0.009L263.081,0.012L263.174,0.016L263.266,0.021L263.358,0.026L263.45,0.032L263.543,0.038L263.635,0.045L263.727,0.053L263.912,0.07L264.004,0.079L264.096,0.089L264.281,0.11L264.373,0.122L264.465,0.134L264.65,0.16L264.742,0.174L264.834,0.189L265.019,0.22L265.388,0.289L265.48,0.308L265.572,0.327L265.757,0.368L266.126,0.457L266.218,0.481L266.31,0.505L266.495,0.556L266.864,0.664L266.956,0.693L267.048,0.722L267.233,0.783L267.602,0.912L268.34,1.2L268.426,1.236L268.512,1.273L268.684,1.349L269.029,1.507L269.717,1.85L269.803,1.896L269.89,1.942L270.062,2.036L270.406,2.231L271.095,2.649L271.181,2.704L271.267,2.76L271.439,2.873L271.783,3.106L272.472,3.602L273.85,4.713L273.946,4.796L274.042,4.881L274.234,5.052L274.618,5.403L275.387,6.146L275.483,6.242L275.579,6.339L275.772,6.536L276.156,6.94L276.925,7.788L277.021,7.898L277.117,8.008L277.309,8.232L277.694,8.689L278.462,9.646L278.558,9.769L278.655,9.894L278.847,10.145L279.231,10.658L279.327,10.789L279.423,10.92L279.616,11.185L279.712,11.319L279.808,11.454L279.904,11.59L280,11.727"/></g><g transform="translate(0,188.67737948084053)" fill="rgb(68, 68, 68)" font-size="10" font-family="sans-serif" text-anchor="middle"><path class="domain" stroke="currentColor" d="M0,0H280"/><g class="tick" opacity="1" transform="translate(0,0)"><line stroke="currentColor" y2="5"/><text fill="currentColor" y="8" dy="0.71em">−1.0</text></g><g class="tick" opacity="1" transform="translate(27.999999999999993,0)"><line stroke="currentColor" y2="5"/><text fill="currentColor" y="8" dy="0.71em">−0.8</text></g><g class="tick" opacity="1" transform="translate(56,0)"><line stroke="currentColor" y2="5"/><text fill="currentColor" y="8" dy="0.71em">−0.6</text></g><g class="tick" opacity="1" transform="translate(84,0)"><line stroke="currentColor" y2="5"/><text fill="currentColor" y="8" dy="0.71em">−0.4</text></g><g class="tick" opacity="1" transform="translate(112,0)"><line stroke="currentColor" y2="5"/><text fill="currentColor" y="8" dy="0.71em">−0.2</text></g><g class="tick" opacity="1" transform="translate(140,0)"><line stroke="currentColor" y2="5"/><text fill="currentColor" y="8" dy="0.71em">0.0</text></g><g class="tick" opacity="1" transform="translate(168,0)"><line stroke="currentColor" y2="5"/><text fill="currentColor" y="8" dy="0.71em">0.2</text></g><g class="tick" opacity="1" transform="translate(196,0)"><line stroke="currentColor" y2="5"/><text fill="currentColor" y="8" dy="0.71em">0.4</text></g><g class="tick" opacity="1" transform="translate(224,0)"><line stroke="currentColor" y2="5"/><text fill="currentColor" y="8" dy="0.71em">0.6</text></g><g class="tick" opacity="1" transform="translate(252,0)"><line stroke="currentColor" y2="5"/><text fill="currentColor" y="8" dy="0.71em">0.8</text></g><g class="tick" opacity="1" transform="translate(280,0)"><line stroke="currentColor" y2="5"/><text fill="currentColor" y="8" dy="0.71em">1.0</text></g><text x="290" y="10" font-size="10" fill="rgb(68, 68, 68)" text-anchor="start">x</text></g><g fill="rgb(68, 68, 68)" font-size="10" font-family="sans-serif" text-anchor="end"><path class="domain" stroke="currentColor" d="M0,188.67737948084053V0"/><g class="tick" opacity="1" transform="translate(0,183.9410946447684)"><line stroke="currentColor" x2="-5"/><text fill="currentColor" x="-8" dy="0.32em">−1.5</text></g><g class="tick" opacity="1" transform="translate(0,159.89888347579722)"><line stroke="currentColor" x2="-5"/><text fill="currentColor" x="-8" dy="0.32em">−1.0</text></g><g class="tick" opacity="1" transform="translate(0,135.856672306826)"><line stroke="currentColor" x2="-5"/><text fill="currentColor" x="-8" dy="0.32em">−0.5</text></g><g class="tick" opacity="1" transform="translate(0,111.81446113785479)"><line stroke="currentColor" x2="-5"/><text fill="currentColor" x="-8" dy="0.32em">0.0</text></g><g class="tick" opacity="1" transform="translate(0,87.77224996888357)"><line stroke="currentColor" x2="-5"/><text fill="currentColor" x="-8" dy="0.32em">0.5</text></g><g class="tick" opacity="1" transform="translate(0,63.730038799912364)"><line stroke="currentColor" x2="-5"/><text fill="currentColor" x="-8" dy="0.32em">1.0</text></g><g class="tick" opacity="1" transform="translate(0,39.68782763094116)"><line stroke="currentColor" x2="-5"/><text fill="currentColor" x="-8" dy="0.32em">1.5</text></g><g class="tick" opacity="1" transform="translate(0,15.645616461969958)"><line stroke="currentColor" x2="-5"/><text fill="currentColor" x="-8" dy="0.32em">2.0</text></g><text x="0" y="-15" font-size="10" fill="rgb(68, 68, 68)" text-anchor="start"/></g></g></svg>