<svg width="370" height="238.67737948084053" tabindex="0" xmlns="http://www.w3.org/2000/svg" xmlns:xlink="http://www.w3.org/1999/xlink"><g transform="translate(40,30)"><g><path class="line-bcdf8c62-27c9-43fa-b016-14837018b9d6" vector-effect="non-scaling-stroke" fill="none" opacity="1" stroke="rgb(93,129,180)" stroke-width="2" d="M0,20.854L0.086,21.105L0.172,21.357L0.344,21.857L0.687,22.854L1.374,24.828L2.748,28.694L5.496,36.111L11.454,50.81L17.018,62.93L22.472,73.421L28.389,83.363L33.911,91.402L39.895,98.88L45.77,105.087L45.855,105.17L45.941,105.253L46.112,105.417L46.455,105.743L47.14,106.385L48.51,107.629L51.25,109.961L51.343,110.037L51.435,110.112L51.621,110.262L51.992,110.559L52.735,111.141L54.221,112.265L57.192,114.347L57.279,114.405L57.365,114.462L57.539,114.576L57.886,114.803L58.579,115.247L59.966,116.103L62.74,117.686L62.825,117.732L62.91,117.778L63.08,117.869L63.419,118.049L64.099,118.403L65.459,119.081L65.544,119.123L65.629,119.164L65.799,119.245L66.139,119.407L66.818,119.724L68.178,120.33L68.27,120.37L68.362,120.41L68.547,120.488L68.916,120.644L69.653,120.949L71.128,121.529L71.221,121.564L71.313,121.599L71.497,121.668L71.866,121.804L72.604,122.071L74.079,122.576L74.165,122.605L74.251,122.633L74.423,122.689L74.767,122.8L75.455,123.016L76.832,123.426L76.918,123.451L77.004,123.475L77.176,123.524L77.52,123.621L78.208,123.808L79.585,124.162L79.678,124.185L79.771,124.208L79.958,124.253L80.331,124.343L81.077,124.516L82.569,124.839L82.662,124.859L82.755,124.878L82.942,124.916L83.315,124.99L84.061,125.134L85.553,125.402L85.644,125.418L85.736,125.433L85.919,125.464L86.285,125.524L87.018,125.639L88.482,125.852L88.574,125.864L88.665,125.877L88.848,125.901L89.215,125.949L89.947,126.041L91.412,126.209L91.497,126.218L91.583,126.227L91.753,126.245L92.095,126.28L92.778,126.346L92.863,126.354L92.949,126.362L93.119,126.377L93.461,126.408L94.144,126.466L94.229,126.473L94.315,126.479L94.485,126.493L94.827,126.519L95.51,126.569L95.595,126.575L95.681,126.58L95.851,126.592L96.193,126.614L96.876,126.656L96.969,126.661L97.061,126.666L97.246,126.677L97.617,126.697L97.709,126.701L97.802,126.706L97.987,126.715L98.358,126.733L98.45,126.737L98.543,126.742L98.728,126.75L99.098,126.766L99.839,126.794L99.932,126.797L100.024,126.8L100.21,126.807L100.58,126.818L100.673,126.821L100.765,126.824L100.95,126.829L101.321,126.839L101.413,126.841L101.506,126.843L101.691,126.848L101.784,126.85L101.876,126.852L102.062,126.856L102.154,126.857L102.247,126.859L102.432,126.863L102.802,126.869L102.889,126.87L102.975,126.871L103.148,126.874L103.235,126.875L103.321,126.876L103.494,126.878L103.58,126.879L103.667,126.88L103.753,126.881L103.84,126.882L103.926,126.882L104.012,126.883L104.185,126.884L104.272,126.885L104.358,126.885L104.445,126.886L104.531,126.886L104.617,126.887L104.704,126.887L104.79,126.887L104.877,126.888L104.963,126.888L105.05,126.888L105.136,126.888L105.222,126.888L105.309,126.888L105.395,126.888L105.482,126.888L105.568,126.888L105.655,126.888L105.741,126.888L105.828,126.888L105.914,126.888L106,126.887L106.087,126.887L106.173,126.887L106.26,126.886L106.346,126.886L106.433,126.885L106.519,126.885L106.605,126.884L106.692,126.884L106.778,126.883L106.951,126.882L107.038,126.881L107.124,126.88L107.297,126.879L107.383,126.878L107.47,126.877L107.643,126.875L107.729,126.874L107.815,126.873L107.988,126.87L108.334,126.865L108.428,126.864L108.521,126.862L108.709,126.859L109.083,126.852L109.177,126.85L109.271,126.849L109.458,126.845L109.833,126.837L109.926,126.835L110.02,126.832L110.207,126.828L110.582,126.819L111.331,126.798L111.425,126.796L111.518,126.793L111.706,126.787L112.08,126.776L112.829,126.751L114.328,126.695L114.42,126.691L114.512,126.687L114.696,126.68L115.064,126.664L115.799,126.632L117.27,126.563L120.213,126.408L120.299,126.403L120.384,126.398L120.556,126.388L120.899,126.369L121.585,126.329L122.958,126.246L125.703,126.073L131.655,125.676L137.212,125.303L142.661,124.96L142.753,124.954L142.845,124.949L143.03,124.938L143.399,124.916L144.138,124.873L145.616,124.79L145.708,124.785L145.801,124.78L145.985,124.77L146.355,124.75L147.093,124.711L148.571,124.636L148.657,124.631L148.743,124.627L148.916,124.619L149.261,124.602L149.95,124.569L151.329,124.507L151.415,124.504L151.501,124.5L151.674,124.492L152.018,124.478L152.708,124.449L154.087,124.396L154.18,124.392L154.274,124.389L154.46,124.382L154.834,124.369L155.581,124.343L155.675,124.34L155.768,124.337L155.955,124.33L156.329,124.318L157.076,124.295L157.169,124.293L157.263,124.29L157.449,124.284L157.823,124.274L158.57,124.254L158.664,124.251L158.757,124.249L158.944,124.244L159.318,124.235L160.065,124.218L160.156,124.216L160.248,124.214L160.432,124.21L160.798,124.203L161.532,124.189L161.624,124.187L161.715,124.185L161.899,124.182L162.266,124.176L162.999,124.165L163.091,124.164L163.183,124.163L163.366,124.16L163.733,124.156L163.825,124.154L163.916,124.153L164.1,124.151L164.466,124.148L164.558,124.147L164.65,124.146L164.833,124.144L164.925,124.143L165.017,124.143L165.2,124.141L165.292,124.14L165.383,124.14L165.567,124.138L165.934,124.136L166.019,124.136L166.105,124.135L166.276,124.134L166.361,124.134L166.447,124.133L166.618,124.133L166.703,124.132L166.789,124.132L166.875,124.132L166.96,124.132L167.046,124.131L167.131,124.131L167.217,124.131L167.302,124.131L167.388,124.131L167.473,124.13L167.559,124.13L167.644,124.13L167.73,124.13L167.815,124.13L167.901,124.13L167.986,124.13L168.072,124.13L168.157,124.13L168.243,124.13L168.329,124.13L168.414,124.13L168.5,124.13L168.585,124.13L168.671,124.131L168.756,124.131L168.842,124.131L168.927,124.131L169.013,124.131L169.098,124.132L169.184,124.132L169.355,124.133L169.44,124.133L169.526,124.133L169.697,124.134L169.783,124.134L169.868,124.135L170.039,124.136L170.125,124.136L170.21,124.137L170.381,124.138L170.467,124.139L170.552,124.139L170.723,124.14L170.809,124.141L170.894,124.142L171.066,124.143L171.408,124.146L171.5,124.147L171.593,124.148L171.779,124.15L172.15,124.154L172.242,124.155L172.335,124.156L172.521,124.159L172.892,124.164L172.985,124.165L173.077,124.166L173.263,124.169L173.634,124.174L174.376,124.187L174.469,124.189L174.561,124.19L174.747,124.194L175.118,124.201L175.86,124.216L175.953,124.218L176.045,124.22L176.231,124.225L176.602,124.233L177.344,124.252L177.431,124.254L177.517,124.256L177.69,124.261L178.037,124.27L178.729,124.29L180.115,124.333L180.201,124.336L180.288,124.338L180.461,124.344L180.807,124.356L181.5,124.381L182.885,124.433L182.97,124.436L183.055,124.44L183.225,124.447L183.564,124.46L184.244,124.489L185.602,124.549L188.318,124.68L188.41,124.685L188.502,124.69L188.686,124.699L189.055,124.719L189.791,124.758L191.265,124.839L194.212,125.012L199.712,125.364L205.674,125.766L211.241,126.134L211.327,126.139L211.412,126.145L211.583,126.156L211.924,126.177L212.606,126.22L213.971,126.302L214.056,126.308L214.141,126.313L214.312,126.323L214.653,126.343L215.335,126.382L216.7,126.458L216.792,126.463L216.885,126.468L217.07,126.478L217.44,126.498L218.18,126.536L219.66,126.607L219.752,126.612L219.845,126.616L220.03,126.624L220.4,126.641L221.14,126.673L222.62,126.731L222.706,126.734L222.793,126.737L222.965,126.743L223.311,126.755L224.001,126.778L224.088,126.781L224.174,126.784L224.347,126.789L224.692,126.799L225.383,126.818L225.469,126.82L225.555,126.822L225.728,126.826L226.073,126.835L226.16,126.837L226.246,126.839L226.419,126.842L226.764,126.849L226.85,126.851L226.937,126.853L227.109,126.856L227.455,126.862L227.541,126.863L227.627,126.865L227.8,126.867L228.146,126.872L228.239,126.873L228.333,126.874L228.52,126.877L228.613,126.878L228.707,126.879L228.894,126.88L228.988,126.881L229.081,126.882L229.175,126.883L229.268,126.883L229.362,126.884L229.455,126.885L229.549,126.885L229.642,126.886L229.736,126.886L229.83,126.887L229.923,126.887L230.017,126.887L230.11,126.888L230.204,126.888L230.297,126.888L230.391,126.888L230.484,126.888L230.578,126.888L230.672,126.888L230.765,126.888L230.859,126.888L230.952,126.888L231.046,126.888L231.139,126.888L231.233,126.887L231.327,126.887L231.42,126.887L231.514,126.886L231.607,126.886L231.701,126.885L231.794,126.884L231.888,126.884L231.981,126.883L232.075,126.882L232.262,126.881L232.356,126.88L232.449,126.879L232.636,126.877L232.73,126.875L232.823,126.874L233.011,126.872L233.104,126.87L233.198,126.869L233.385,126.866L233.478,126.864L233.572,126.863L233.759,126.859L234.133,126.852L234.225,126.849L234.317,126.847L234.501,126.843L234.868,126.834L234.96,126.831L235.052,126.829L235.236,126.824L235.603,126.813L235.695,126.81L235.787,126.807L235.97,126.8L236.338,126.787L237.073,126.758L237.165,126.755L237.256,126.751L237.44,126.742L237.808,126.725L238.542,126.688L238.634,126.683L238.726,126.678L238.91,126.668L239.277,126.647L240.012,126.601L240.098,126.595L240.183,126.59L240.355,126.578L240.698,126.554L241.383,126.503L241.469,126.496L241.554,126.49L241.726,126.476L242.068,126.448L242.754,126.389L242.84,126.381L242.925,126.373L243.097,126.358L243.439,126.325L244.125,126.257L245.496,126.108L245.589,126.097L245.682,126.086L245.868,126.064L246.239,126.019L246.982,125.924L248.469,125.716L248.562,125.703L248.655,125.689L248.841,125.661L249.212,125.604L249.956,125.484L251.442,125.227L251.529,125.211L251.616,125.195L251.789,125.163L252.136,125.097L252.83,124.962L254.218,124.672L254.304,124.654L254.391,124.635L254.565,124.596L254.912,124.518L255.606,124.358L256.993,124.017L257.078,123.995L257.163,123.973L257.333,123.929L257.674,123.839L258.354,123.655L259.714,123.267L259.799,123.242L259.885,123.216L260.055,123.165L260.395,123.062L261.075,122.85L262.436,122.404L262.528,122.373L262.62,122.341L262.805,122.278L263.174,122.149L263.912,121.886L265.388,121.33L265.48,121.294L265.572,121.258L265.757,121.186L266.126,121.038L266.864,120.737L268.34,120.103L268.426,120.065L268.512,120.026L268.684,119.949L269.029,119.793L269.717,119.475L271.095,118.81L273.85,117.364L273.946,117.31L274.042,117.257L274.234,117.149L274.618,116.932L275.387,116.487L276.925,115.558L277.021,115.498L277.117,115.438L277.309,115.318L277.694,115.074L278.462,114.576L278.558,114.512L278.655,114.449L278.847,114.321L279.231,114.064L279.327,113.999L279.423,113.933L279.616,113.802L279.712,113.737L279.808,113.67L279.904,113.604L280,113.538"/><path class="line-798b338a-2bd0-4b86-ab0c-b1ae6905aaa3" vector-effect="non-scaling-stroke" fill="none" opacity="1" stroke="rgb(224,155,36)" stroke-width="2" d="M12.269,188.677L12.845,185.731L14.236,178.839L17.018,165.911L17.103,165.532L17.188,165.155L17.359,164.403L17.7,162.912L18.381,159.978L19.745,154.303L22.472,143.703L22.565,143.361L22.657,143.02L22.842,142.341L23.212,140.997L23.951,138.36L25.43,133.292L28.389,123.955L28.475,123.699L28.561,123.443L28.734,122.933L29.079,121.925L29.769,119.95L31.15,116.16L31.236,115.931L31.322,115.702L31.495,115.246L31.84,114.345L32.53,112.581L33.911,109.207L34.004,108.985L34.098,108.765L34.285,108.327L34.659,107.462L35.407,105.775L36.903,102.569L36.996,102.377L37.09,102.184L37.277,101.803L37.651,101.05L38.399,99.585L39.895,96.814L39.986,96.65L40.078,96.488L40.262,96.165L40.629,95.53L41.363,94.295L42.832,91.969L42.924,91.83L43.016,91.691L43.199,91.417L43.566,90.876L44.301,89.83L45.77,87.873L45.855,87.764L45.941,87.656L46.112,87.442L46.455,87.02L47.14,86.205L48.51,84.685L48.595,84.595L48.681,84.505L48.852,84.327L49.195,83.979L49.88,83.308L51.25,82.069L51.343,81.99L51.435,81.911L51.621,81.756L51.992,81.454L52.735,80.877L52.828,80.807L52.921,80.738L53.107,80.603L53.478,80.338L54.221,79.836L54.314,79.776L54.407,79.716L54.592,79.599L54.964,79.371L55.706,78.941L55.799,78.89L55.892,78.839L56.078,78.74L56.449,78.547L57.192,78.187L57.279,78.147L57.365,78.107L57.539,78.03L57.886,77.881L58.579,77.604L58.666,77.571L58.752,77.539L58.926,77.476L59.272,77.355L59.966,77.134L60.053,77.108L60.139,77.083L60.313,77.034L60.659,76.94L60.746,76.918L60.833,76.896L61.006,76.853L61.353,76.773L61.439,76.754L61.526,76.735L61.699,76.699L62.046,76.632L62.133,76.616L62.22,76.601L62.393,76.571L62.74,76.516L62.825,76.504L62.91,76.492L63.08,76.469L63.164,76.458L63.249,76.448L63.419,76.427L63.504,76.418L63.589,76.409L63.759,76.392L63.844,76.384L63.929,76.376L64.099,76.362L64.184,76.356L64.269,76.349L64.354,76.344L64.439,76.338L64.524,76.333L64.609,76.328L64.694,76.324L64.779,76.32L64.864,76.316L64.949,76.313L65.034,76.31L65.119,76.307L65.204,76.305L65.289,76.303L65.374,76.301L65.459,76.3L65.544,76.299L65.629,76.299L65.714,76.298L65.799,76.298L65.884,76.299L65.969,76.3L66.054,76.301L66.139,76.302L66.224,76.304L66.309,76.306L66.394,76.309L66.479,76.312L66.563,76.315L66.648,76.318L66.733,76.322L66.818,76.326L66.903,76.331L66.988,76.336L67.158,76.346L67.243,76.352L67.328,76.358L67.498,76.372L67.583,76.379L67.668,76.386L67.838,76.402L68.178,76.437L68.27,76.448L68.362,76.459L68.547,76.482L68.916,76.532L69.008,76.545L69.1,76.559L69.284,76.588L69.653,76.649L69.745,76.666L69.838,76.682L70.022,76.716L70.391,76.789L71.128,76.952L71.221,76.973L71.313,76.996L71.497,77.041L71.866,77.135L72.604,77.34L72.696,77.367L72.788,77.394L72.972,77.45L73.341,77.565L74.079,77.809L74.165,77.839L74.251,77.869L74.423,77.93L74.767,78.055L75.455,78.317L76.832,78.888L76.918,78.926L77.004,78.964L77.176,79.04L77.52,79.196L78.208,79.519L79.585,80.206L79.678,80.255L79.771,80.304L79.958,80.402L80.331,80.601L81.077,81.011L82.569,81.875L85.553,83.759L85.644,83.82L85.736,83.881L85.919,84.003L86.285,84.251L87.018,84.753L88.482,85.788L91.412,87.965L96.876,92.329L102.802,97.342L108.334,102.118L114.328,107.23L120.213,112.037L125.703,116.218L131.655,120.313L137.212,123.648L137.297,123.695L137.383,123.742L137.553,123.835L137.893,124.021L138.574,124.386L139.936,125.091L140.022,125.134L140.107,125.177L140.277,125.262L140.617,125.431L141.298,125.763L142.661,126.401L142.753,126.443L142.845,126.484L143.03,126.568L143.399,126.732L144.138,127.053L145.616,127.665L145.708,127.702L145.801,127.739L145.985,127.812L146.355,127.955L147.093,128.235L148.571,128.763L148.657,128.793L148.743,128.822L148.916,128.88L149.261,128.995L149.95,129.218L151.329,129.635L151.415,129.66L151.501,129.684L151.674,129.733L152.018,129.829L152.708,130.015L154.087,130.357L154.18,130.379L154.274,130.4L154.46,130.443L154.834,130.527L155.581,130.686L155.675,130.705L155.768,130.724L155.955,130.761L156.329,130.834L157.076,130.971L157.169,130.987L157.263,131.003L157.449,131.035L157.823,131.097L158.57,131.212L158.664,131.225L158.757,131.239L158.944,131.265L159.318,131.316L160.065,131.409L160.156,131.42L160.248,131.43L160.432,131.451L160.798,131.49L160.89,131.5L160.982,131.509L161.165,131.527L161.532,131.561L161.624,131.569L161.715,131.577L161.899,131.592L162.266,131.621L162.357,131.628L162.449,131.635L162.632,131.647L162.999,131.671L163.091,131.677L163.183,131.682L163.366,131.692L163.458,131.697L163.549,131.702L163.733,131.711L163.825,131.715L163.916,131.719L164.1,131.727L164.191,131.731L164.283,131.734L164.466,131.741L164.558,131.744L164.65,131.746L164.742,131.749L164.833,131.752L164.925,131.754L165.017,131.756L165.2,131.76L165.292,131.762L165.383,131.763L165.475,131.765L165.567,131.766L165.659,131.767L165.75,131.768L165.842,131.769L165.934,131.77L166.019,131.77L166.105,131.77L166.19,131.771L166.276,131.771L166.361,131.771L166.447,131.77L166.532,131.77L166.618,131.77L166.703,131.769L166.789,131.768L166.875,131.767L166.96,131.766L167.046,131.765L167.131,131.764L167.217,131.762L167.302,131.761L167.388,131.759L167.473,131.757L167.559,131.755L167.644,131.753L167.73,131.751L167.815,131.749L167.986,131.744L168.072,131.741L168.157,131.738L168.329,131.732L168.671,131.718L168.756,131.714L168.842,131.71L169.013,131.702L169.355,131.684L169.44,131.679L169.526,131.674L169.697,131.664L170.039,131.642L170.125,131.636L170.21,131.63L170.381,131.618L170.723,131.591L171.408,131.533L171.5,131.524L171.593,131.516L171.779,131.498L172.15,131.46L172.892,131.379L172.985,131.368L173.077,131.357L173.263,131.334L173.634,131.288L174.376,131.188L174.469,131.175L174.561,131.161L174.747,131.134L175.118,131.079L175.86,130.961L177.344,130.701L177.431,130.684L177.517,130.668L177.69,130.635L178.037,130.568L178.729,130.427L180.115,130.126L180.201,130.107L180.288,130.087L180.461,130.047L180.807,129.966L181.5,129.799L182.885,129.446L182.97,129.424L183.055,129.401L183.225,129.356L183.564,129.264L184.244,129.077L185.602,128.686L188.318,127.844L194.212,125.791L199.712,123.694L205.674,121.368L211.241,119.3L211.327,119.27L211.412,119.24L211.583,119.18L211.924,119.061L212.606,118.827L213.971,118.373L214.056,118.345L214.141,118.317L214.312,118.262L214.653,118.153L215.335,117.939L216.7,117.529L216.792,117.502L216.885,117.476L217.07,117.423L217.44,117.318L218.18,117.115L219.66,116.735L219.752,116.712L219.845,116.69L220.03,116.646L220.4,116.559L221.14,116.393L222.62,116.093L222.706,116.077L222.793,116.061L222.965,116.03L223.311,115.969L224.001,115.854L224.088,115.841L224.174,115.828L224.347,115.801L224.692,115.751L225.383,115.659L225.469,115.648L225.555,115.637L225.728,115.617L226.073,115.578L226.16,115.569L226.246,115.56L226.419,115.542L226.764,115.509L226.85,115.502L226.937,115.494L227.109,115.48L227.196,115.473L227.282,115.466L227.455,115.453L227.541,115.447L227.627,115.441L227.8,115.429L227.886,115.424L227.973,115.419L228.146,115.409L228.239,115.404L228.333,115.4L228.426,115.395L228.52,115.391L228.613,115.387L228.707,115.383L228.894,115.377L228.988,115.374L229.081,115.371L229.175,115.369L229.268,115.367L229.362,115.365L229.455,115.363L229.549,115.362L229.642,115.361L229.736,115.36L229.83,115.359L229.923,115.359L230.017,115.359L230.11,115.359L230.204,115.359L230.297,115.36L230.391,115.361L230.484,115.362L230.578,115.364L230.672,115.365L230.765,115.367L230.859,115.37L230.952,115.372L231.046,115.375L231.139,115.378L231.233,115.382L231.327,115.385L231.42,115.389L231.514,115.394L231.607,115.398L231.701,115.403L231.888,115.413L231.981,115.419L232.075,115.425L232.262,115.438L232.636,115.467L232.73,115.475L232.823,115.483L233.011,115.5L233.385,115.539L233.478,115.549L233.572,115.56L233.759,115.582L234.133,115.63L234.225,115.643L234.317,115.656L234.501,115.682L234.868,115.74L234.96,115.755L235.052,115.77L235.236,115.802L235.603,115.869L235.695,115.886L235.787,115.904L235.97,115.941L236.338,116.018L237.073,116.188L237.165,116.211L237.256,116.234L237.44,116.281L237.808,116.38L238.542,116.594L238.634,116.622L238.726,116.651L238.91,116.709L239.277,116.83L240.012,117.09L240.098,117.122L240.183,117.154L240.355,117.219L240.698,117.354L241.383,117.638L241.469,117.675L241.554,117.713L241.726,117.789L242.068,117.945L242.754,118.273L242.84,118.316L242.925,118.359L243.097,118.446L243.439,118.625L244.125,118.999L245.496,119.819L245.589,119.878L245.682,119.938L245.868,120.058L246.239,120.305L246.982,120.82L248.469,121.942L248.562,122.016L248.655,122.091L248.841,122.242L249.212,122.55L249.956,123.19L251.442,124.57L251.529,124.655L251.616,124.74L251.789,124.912L252.136,125.261L252.83,125.982L254.218,127.518L254.304,127.619L254.391,127.719L254.565,127.922L254.912,128.335L255.606,129.183L256.993,130.982L257.078,131.097L257.163,131.212L257.333,131.444L257.674,131.914L258.354,132.879L259.714,134.913L259.799,135.045L259.885,135.177L260.055,135.444L260.395,135.983L261.075,137.089L262.436,139.412L262.528,139.575L262.62,139.738L262.805,140.068L263.174,140.735L263.912,142.103L265.388,144.977L268.34,151.303L268.426,151.499L268.512,151.697L268.684,152.093L269.029,152.893L269.717,154.529L271.095,157.935L273.85,165.315L273.946,165.586L274.042,165.859L274.234,166.406L274.618,167.514L275.387,169.775L276.925,174.488L277.021,174.791L277.117,175.095L277.309,175.706L277.694,176.942L278.462,179.462L278.558,179.782L278.655,180.103L278.847,180.747L279.231,182.05L279.327,182.378L279.423,182.707L279.616,183.369L279.712,183.701L279.808,184.035L279.904,184.37L280,184.705"/><path class="line-e01bb703-054a-458a-9972-18d98327f809" vector-effect="non-scaling-stroke" fill="none" opacity="1" stroke="rgb(142,176,49)" stroke-width="2" d="M0,0L0.086,0.608L0.172,1.215L0.344,2.424L0.687,4.821L1.374,9.54L2.748,18.676L5.496,35.767L5.589,36.32L5.682,36.87L5.868,37.966L6.241,40.136L6.986,44.396L8.475,52.592L11.454,67.732L11.541,68.15L11.628,68.566L11.802,69.394L12.15,71.034L12.845,74.249L14.236,80.427L17.018,91.801L17.103,92.129L17.188,92.456L17.359,93.107L17.7,94.395L18.381,96.915L19.745,101.736L19.83,102.028L19.915,102.318L20.086,102.897L20.427,104.039L21.109,106.273L22.472,110.532L22.565,110.811L22.657,111.089L22.842,111.641L23.212,112.73L23.951,114.849L25.43,118.859L25.523,119.099L25.615,119.339L25.8,119.814L26.17,120.751L26.91,122.571L28.389,125.996L28.475,126.187L28.561,126.377L28.734,126.754L29.079,127.498L29.769,128.941L31.15,131.65L31.236,131.812L31.322,131.973L31.495,132.292L31.84,132.92L32.53,134.133L33.911,136.395L34.004,136.541L34.098,136.685L34.285,136.971L34.659,137.532L35.407,138.607L35.5,138.737L35.594,138.866L35.781,139.122L36.155,139.622L36.903,140.578L36.996,140.693L37.09,140.807L37.277,141.034L37.651,141.475L38.399,142.316L39.895,143.832L39.986,143.918L40.078,144.003L40.262,144.171L40.629,144.497L41.363,145.112L41.455,145.185L41.547,145.258L41.731,145.401L42.098,145.677L42.832,146.193L42.924,146.254L43.016,146.315L43.199,146.433L43.566,146.662L44.301,147.084L44.393,147.134L44.484,147.182L44.668,147.278L45.035,147.461L45.77,147.792L45.855,147.828L45.941,147.864L46.112,147.932L46.455,148.063L46.54,148.094L46.626,148.124L46.797,148.184L47.14,148.296L47.225,148.322L47.311,148.348L47.482,148.398L47.825,148.492L47.91,148.514L47.996,148.536L48.167,148.577L48.51,148.653L48.595,148.671L48.681,148.688L48.852,148.72L48.938,148.736L49.023,148.751L49.195,148.779L49.28,148.792L49.366,148.805L49.537,148.829L49.623,148.84L49.708,148.851L49.88,148.871L49.965,148.88L50.051,148.888L50.137,148.896L50.222,148.904L50.308,148.911L50.393,148.917L50.479,148.923L50.565,148.929L50.65,148.934L50.736,148.938L50.822,148.942L50.907,148.946L50.993,148.949L51.078,148.951L51.164,148.953L51.25,148.955L51.343,148.956L51.435,148.956L51.528,148.956L51.621,148.955L51.714,148.954L51.807,148.952L51.9,148.949L51.992,148.946L52.085,148.943L52.178,148.939L52.271,148.934L52.364,148.928L52.457,148.923L52.55,148.916L52.735,148.902L52.828,148.893L52.921,148.885L53.107,148.866L53.2,148.855L53.292,148.844L53.478,148.821L53.571,148.809L53.664,148.795L53.849,148.768L54.221,148.706L54.314,148.689L54.407,148.672L54.592,148.635L54.964,148.557L55.057,148.536L55.149,148.514L55.335,148.47L55.706,148.375L55.799,148.35L55.892,148.324L56.078,148.272L56.449,148.161L57.192,147.916L57.279,147.885L57.365,147.854L57.539,147.791L57.886,147.659L58.579,147.377L58.666,147.34L58.752,147.303L58.926,147.227L59.272,147.071L59.966,146.74L60.053,146.696L60.139,146.653L60.313,146.565L60.659,146.385L61.353,146.007L62.74,145.186L62.825,145.133L62.91,145.08L63.08,144.972L63.419,144.753L64.099,144.3L65.459,143.339L68.178,141.211L68.27,141.134L68.362,141.057L68.547,140.903L68.916,140.59L69.653,139.952L71.128,138.627L74.079,135.804L79.585,130.047L85.553,123.354L91.412,116.621L96.876,110.436L102.802,104.059L108.334,98.605L108.428,98.518L108.521,98.431L108.709,98.257L109.083,97.912L109.833,97.231L111.331,95.907L114.328,93.416L114.42,93.343L114.512,93.27L114.696,93.125L115.064,92.839L115.799,92.275L117.27,91.191L117.362,91.125L117.454,91.06L117.638,90.929L118.006,90.671L118.742,90.166L120.213,89.201L120.299,89.146L120.384,89.092L120.556,88.984L120.899,88.772L121.585,88.356L122.958,87.568L123.043,87.52L123.129,87.473L123.301,87.379L123.644,87.194L124.33,86.835L125.703,86.161L125.796,86.117L125.889,86.074L126.075,85.988L126.447,85.819L127.191,85.495L127.284,85.456L127.377,85.417L127.563,85.34L127.935,85.189L128.679,84.9L128.772,84.865L128.865,84.831L129.051,84.763L129.423,84.629L130.167,84.376L131.655,83.924L131.742,83.9L131.829,83.876L132.002,83.829L132.35,83.738L133.044,83.568L133.131,83.548L133.218,83.528L133.392,83.489L133.739,83.414L134.434,83.276L134.52,83.259L134.607,83.244L134.781,83.213L135.128,83.154L135.215,83.139L135.302,83.126L135.476,83.099L135.823,83.048L135.91,83.036L135.997,83.024L136.17,83.001L136.518,82.958L136.604,82.948L136.691,82.938L136.865,82.919L137.212,82.884L137.297,82.877L137.383,82.869L137.553,82.854L137.638,82.848L137.723,82.841L137.893,82.828L137.978,82.822L138.064,82.817L138.234,82.806L138.319,82.801L138.404,82.796L138.574,82.788L138.659,82.784L138.745,82.78L138.83,82.776L138.915,82.773L139,82.77L139.085,82.767L139.17,82.765L139.255,82.763L139.341,82.761L139.426,82.759L139.511,82.757L139.596,82.756L139.681,82.755L139.766,82.754L139.851,82.754L139.936,82.753L140.022,82.753L140.107,82.754L140.192,82.754L140.277,82.755L140.362,82.756L140.447,82.757L140.532,82.758L140.617,82.76L140.703,82.762L140.788,82.764L140.873,82.766L140.958,82.769L141.043,82.772L141.128,82.775L141.298,82.782L141.384,82.786L141.469,82.79L141.639,82.799L141.724,82.804L141.809,82.809L141.98,82.819L142.065,82.825L142.15,82.831L142.32,82.844L142.661,82.873L142.753,82.881L142.845,82.89L143.03,82.908L143.399,82.948L143.492,82.959L143.584,82.97L143.769,82.993L144.138,83.042L144.231,83.055L144.323,83.069L144.508,83.096L144.877,83.154L145.616,83.285L145.708,83.302L145.801,83.32L145.985,83.357L146.355,83.434L147.093,83.6L147.186,83.622L147.278,83.645L147.463,83.691L147.832,83.785L148.571,83.988L148.657,84.013L148.743,84.038L148.916,84.089L149.261,84.194L149.95,84.415L151.329,84.903L151.415,84.936L151.501,84.968L151.674,85.035L152.018,85.17L152.708,85.453L154.087,86.062L154.18,86.106L154.274,86.149L154.46,86.238L154.834,86.417L155.581,86.79L157.076,87.586L157.169,87.638L157.263,87.69L157.449,87.796L157.823,88.009L158.57,88.449L160.065,89.378L160.156,89.437L160.248,89.496L160.432,89.616L160.798,89.857L161.532,90.352L162.999,91.385L165.934,93.625L166.019,93.693L166.105,93.762L166.276,93.9L166.618,94.178L167.302,94.744L168.671,95.908L171.408,98.365L177.344,104.211L182.885,110.171L188.318,116.311L194.212,123.085L199.712,129.277L205.674,135.558L205.761,135.645L205.848,135.732L206.022,135.904L206.37,136.247L207.066,136.925L208.458,138.245L211.241,140.724L211.327,140.796L211.412,140.868L211.583,141.011L211.924,141.295L212.606,141.851L213.971,142.915L214.056,142.979L214.141,143.043L214.312,143.17L214.653,143.421L215.335,143.909L216.7,144.83L216.792,144.89L216.885,144.949L217.07,145.067L217.44,145.297L218.18,145.74L218.272,145.794L218.365,145.847L218.55,145.952L218.92,146.158L219.66,146.551L219.752,146.598L219.845,146.645L220.03,146.737L220.4,146.917L221.14,147.256L221.232,147.296L221.325,147.336L221.51,147.415L221.88,147.567L222.62,147.849L222.706,147.88L222.793,147.91L222.965,147.97L223.311,148.085L223.397,148.113L223.483,148.14L223.656,148.193L224.001,148.294L224.088,148.319L224.174,148.342L224.347,148.389L224.692,148.476L224.778,148.497L224.865,148.518L225.037,148.557L225.383,148.63L225.469,148.648L225.555,148.664L225.728,148.697L225.814,148.712L225.901,148.727L226.073,148.756L226.16,148.769L226.246,148.782L226.419,148.807L226.505,148.819L226.591,148.83L226.764,148.851L226.85,148.861L226.937,148.87L227.023,148.879L227.109,148.888L227.196,148.896L227.282,148.903L227.455,148.916L227.541,148.922L227.627,148.928L227.714,148.933L227.8,148.937L227.886,148.942L227.973,148.945L228.059,148.948L228.146,148.951L228.239,148.953L228.333,148.955L228.426,148.956L228.52,148.956L228.613,148.956L228.707,148.955L228.8,148.954L228.894,148.952L228.988,148.949L229.081,148.946L229.175,148.942L229.268,148.938L229.362,148.933L229.455,148.928L229.549,148.921L229.642,148.915L229.736,148.907L229.83,148.899L229.923,148.891L230.017,148.882L230.11,148.872L230.204,148.861L230.391,148.838L230.484,148.826L230.578,148.813L230.765,148.785L230.859,148.77L230.952,148.755L231.139,148.722L231.233,148.704L231.327,148.686L231.514,148.648L231.888,148.564L231.981,148.541L232.075,148.518L232.262,148.469L232.636,148.364L232.73,148.336L232.823,148.307L233.011,148.248L233.385,148.121L234.133,147.833L234.225,147.795L234.317,147.756L234.501,147.675L234.868,147.507L235.603,147.136L235.695,147.086L235.787,147.036L235.97,146.933L236.338,146.72L237.073,146.257L237.165,146.195L237.256,146.134L237.44,146.007L237.808,145.746L238.542,145.187L240.012,143.92L240.098,143.839L240.183,143.759L240.355,143.595L240.698,143.258L241.383,142.551L242.754,140.997L242.84,140.893L242.925,140.789L243.097,140.578L243.439,140.148L244.125,139.249L245.496,137.302L245.589,137.163L245.682,137.022L245.868,136.739L246.239,136.16L246.982,134.957L248.469,132.359L248.562,132.188L248.655,132.016L248.841,131.669L249.212,130.962L249.956,129.499L251.442,126.37L251.529,126.178L251.616,125.986L251.789,125.599L252.136,124.813L252.83,123.195L254.218,119.768L254.304,119.546L254.391,119.322L254.565,118.871L254.912,117.958L255.606,116.082L256.993,112.128L257.078,111.877L257.163,111.625L257.333,111.117L257.674,110.09L258.354,107.984L259.714,103.568L259.799,103.283L259.885,102.997L260.055,102.421L260.395,101.255L261.075,98.871L262.436,93.887L262.528,93.538L262.62,93.188L262.805,92.484L263.174,91.059L263.912,88.143L265.388,82.041L268.34,68.718L268.426,68.306L268.512,67.893L268.684,67.064L269.029,65.388L269.717,61.973L271.095,54.88L273.85,39.612L273.946,39.053L274.042,38.491L274.234,37.364L274.618,35.086L275.387,30.442L276.925,20.792L277.021,20.173L277.117,19.551L277.309,18.303L277.694,15.783L278.462,10.649L278.558,9.998L278.655,9.346L278.847,8.035L279.231,5.389L279.327,4.722L279.423,4.054L279.616,2.71L279.712,2.036L279.808,1.359L279.904,0.681L280,0"/><path class="line-5124b11d-4db0-4422-98d7-afc4f973aece" vector-effect="non-scaling-stroke" fill="none" opacity="1" stroke="rgb(235,98,53)" stroke-width="2" d="M0,184.705L0.086,184.405L0.172,184.106L0.344,183.51L0.687,182.329L1.374,180.007L2.748,175.524L5.496,167.182L5.589,166.914L5.682,166.646L5.868,166.114L6.241,165.06L6.986,162.996L8.475,159.037L11.454,151.773L11.541,151.574L11.628,151.376L11.802,150.981L12.15,150.199L12.845,148.669L14.236,145.74L14.323,145.563L14.41,145.386L14.584,145.035L14.932,144.34L15.627,142.981L17.018,140.387L17.103,140.234L17.188,140.081L17.359,139.776L17.7,139.175L18.381,138L19.745,135.761L19.83,135.626L19.915,135.491L20.086,135.224L20.427,134.696L21.109,133.666L22.472,131.711L22.565,131.583L22.657,131.457L22.842,131.204L23.212,130.708L23.951,129.743L25.43,127.928L25.523,127.82L25.615,127.712L25.8,127.498L26.17,127.076L26.91,126.261L28.389,124.736L28.475,124.651L28.561,124.567L28.734,124.4L29.079,124.071L29.769,123.435L31.15,122.25L31.236,122.179L31.322,122.109L31.495,121.971L31.84,121.698L32.53,121.174L33.911,120.205L34.004,120.143L34.098,120.081L34.285,119.96L34.659,119.722L35.407,119.268L35.5,119.214L35.594,119.16L35.781,119.052L36.155,118.844L36.903,118.447L36.996,118.399L37.09,118.352L37.277,118.258L37.651,118.077L38.399,117.734L39.895,117.125L39.986,117.091L40.078,117.057L40.262,116.99L40.629,116.862L41.363,116.623L41.455,116.595L41.547,116.567L41.731,116.512L42.098,116.406L42.832,116.212L42.924,116.189L43.016,116.167L43.199,116.123L43.566,116.039L43.658,116.019L43.75,115.999L43.934,115.96L44.301,115.887L44.393,115.869L44.484,115.852L44.668,115.819L45.035,115.755L45.127,115.74L45.219,115.726L45.402,115.697L45.77,115.644L45.855,115.632L45.941,115.62L46.112,115.598L46.455,115.557L46.54,115.547L46.626,115.538L46.797,115.519L47.14,115.486L47.225,115.479L47.311,115.471L47.482,115.457L47.568,115.45L47.653,115.444L47.825,115.432L47.91,115.426L47.996,115.42L48.167,115.41L48.253,115.405L48.338,115.401L48.51,115.392L48.595,115.389L48.681,115.385L48.767,115.382L48.852,115.379L48.938,115.376L49.023,115.373L49.109,115.371L49.195,115.368L49.28,115.366L49.366,115.365L49.452,115.363L49.537,115.362L49.623,115.361L49.708,115.36L49.794,115.359L49.88,115.359L49.965,115.359L50.051,115.359L50.137,115.359L50.222,115.359L50.308,115.36L50.393,115.361L50.479,115.362L50.565,115.363L50.65,115.365L50.736,115.367L50.822,115.369L50.907,115.371L50.993,115.373L51.078,115.376L51.25,115.382L51.343,115.385L51.435,115.389L51.621,115.397L51.714,115.402L51.807,115.407L51.992,115.417L52.085,115.422L52.178,115.428L52.364,115.44L52.735,115.467L52.828,115.474L52.921,115.482L53.107,115.498L53.478,115.532L53.571,115.541L53.664,115.55L53.849,115.57L54.221,115.611L54.314,115.622L54.407,115.633L54.592,115.656L54.964,115.704L55.706,115.809L55.799,115.823L55.892,115.838L56.078,115.867L56.449,115.928L57.192,116.058L57.279,116.074L57.365,116.09L57.539,116.123L57.886,116.191L58.579,116.333L59.966,116.644L60.053,116.665L60.139,116.686L60.313,116.728L60.659,116.814L61.353,116.991L62.74,117.368L62.825,117.392L62.91,117.417L63.08,117.465L63.419,117.564L64.099,117.766L65.459,118.189L68.178,119.097L74.079,121.273L79.585,123.419L85.553,125.705L91.412,127.756L91.497,127.784L91.583,127.812L91.753,127.867L92.095,127.977L92.778,128.193L94.144,128.61L94.229,128.636L94.315,128.661L94.485,128.712L94.827,128.812L95.51,129.008L96.876,129.383L96.969,129.408L97.061,129.432L97.246,129.481L97.617,129.577L98.358,129.764L99.839,130.116L99.932,130.137L100.024,130.158L100.21,130.199L100.58,130.281L101.321,130.438L102.802,130.728L102.889,130.744L102.975,130.76L103.148,130.791L103.494,130.852L104.185,130.969L104.272,130.983L104.358,130.997L104.531,131.024L104.877,131.078L105.568,131.18L105.655,131.192L105.741,131.204L105.914,131.228L106.26,131.274L106.951,131.36L107.038,131.37L107.124,131.381L107.297,131.4L107.643,131.439L108.334,131.509L108.428,131.518L108.521,131.526L108.709,131.543L109.083,131.576L109.177,131.583L109.271,131.591L109.458,131.606L109.833,131.633L109.926,131.64L110.02,131.646L110.207,131.658L110.301,131.664L110.394,131.67L110.582,131.681L110.675,131.686L110.769,131.691L110.956,131.701L111.331,131.718L111.425,131.722L111.518,131.726L111.706,131.733L111.799,131.737L111.893,131.74L112.08,131.746L112.174,131.749L112.268,131.751L112.361,131.754L112.455,131.756L112.549,131.758L112.642,131.76L112.736,131.762L112.829,131.763L112.923,131.765L113.017,131.766L113.11,131.767L113.204,131.768L113.298,131.769L113.391,131.77L113.485,131.77L113.579,131.77L113.672,131.771L113.766,131.771L113.86,131.771L113.953,131.77L114.047,131.77L114.141,131.769L114.234,131.768L114.328,131.767L114.42,131.766L114.512,131.765L114.604,131.764L114.696,131.762L114.788,131.76L114.88,131.758L115.064,131.754L115.156,131.752L115.247,131.749L115.431,131.744L115.523,131.741L115.615,131.738L115.799,131.731L115.891,131.727L115.983,131.724L116.167,131.716L116.259,131.711L116.351,131.707L116.535,131.698L116.627,131.693L116.719,131.688L116.903,131.677L117.27,131.654L117.362,131.648L117.454,131.641L117.638,131.628L118.006,131.6L118.098,131.592L118.19,131.585L118.374,131.569L118.742,131.536L118.833,131.527L118.925,131.518L119.109,131.5L119.477,131.461L120.213,131.376L120.299,131.365L120.384,131.354L120.556,131.332L120.899,131.287L121.585,131.189L121.671,131.176L121.757,131.163L121.928,131.136L122.271,131.081L122.958,130.965L123.043,130.949L123.129,130.934L123.301,130.903L123.644,130.839L124.33,130.704L125.703,130.406L125.796,130.384L125.889,130.363L126.075,130.319L126.447,130.229L127.191,130.041L128.679,129.632L128.772,129.605L128.865,129.578L129.051,129.524L129.423,129.412L130.167,129.18L131.655,128.685L131.742,128.655L131.829,128.625L132.002,128.563L132.35,128.439L133.044,128.184L134.434,127.645L137.212,126.458L137.297,126.42L137.383,126.381L137.553,126.303L137.893,126.145L138.574,125.824L139.936,125.155L142.661,123.718L142.753,123.667L142.845,123.616L143.03,123.513L143.399,123.306L144.138,122.885L145.616,122.014L148.571,120.167L154.087,116.371L160.065,111.817L165.934,107.01L171.408,102.34L177.344,97.216L182.885,92.526L188.318,88.173L194.212,83.915L194.298,83.858L194.384,83.801L194.556,83.687L194.9,83.46L195.587,83.015L196.962,82.157L197.048,82.105L197.134,82.053L197.306,81.95L197.65,81.745L198.337,81.344L199.712,80.578L199.805,80.528L199.898,80.479L200.085,80.38L200.457,80.185L201.203,79.807L202.693,79.099L202.786,79.057L202.88,79.016L203.066,78.933L203.438,78.771L204.184,78.461L205.674,77.896L205.761,77.865L205.848,77.835L206.022,77.775L206.37,77.658L207.066,77.438L207.153,77.412L207.24,77.386L207.414,77.335L207.762,77.236L208.458,77.052L208.545,77.03L208.632,77.009L208.806,76.967L209.154,76.887L209.241,76.868L209.328,76.849L209.502,76.812L209.85,76.741L209.937,76.724L210.024,76.708L210.198,76.676L210.546,76.615L210.633,76.601L210.72,76.587L210.894,76.56L211.241,76.51L211.327,76.498L211.412,76.487L211.583,76.465L211.668,76.455L211.753,76.445L211.924,76.426L212.009,76.417L212.094,76.409L212.265,76.392L212.35,76.384L212.435,76.377L212.606,76.363L212.691,76.357L212.777,76.351L212.862,76.345L212.947,76.34L213.032,76.334L213.118,76.33L213.288,76.321L213.374,76.317L213.459,76.314L213.544,76.311L213.629,76.308L213.715,76.306L213.8,76.304L213.885,76.302L213.971,76.301L214.056,76.299L214.141,76.299L214.226,76.298L214.312,76.298L214.397,76.299L214.482,76.299L214.568,76.3L214.653,76.302L214.738,76.303L214.823,76.305L214.909,76.308L214.994,76.311L215.079,76.314L215.164,76.317L215.25,76.321L215.335,76.325L215.42,76.33L215.506,76.335L215.591,76.34L215.676,76.346L215.761,76.352L215.847,76.358L216.017,76.372L216.103,76.379L216.188,76.387L216.358,76.404L216.7,76.441L216.792,76.453L216.885,76.464L217.07,76.489L217.162,76.502L217.255,76.516L217.44,76.544L217.532,76.559L217.625,76.574L217.81,76.606L218.18,76.675L218.272,76.694L218.365,76.713L218.55,76.752L218.92,76.836L219.66,77.026L219.752,77.052L219.845,77.079L220.03,77.133L220.4,77.247L221.14,77.5L221.232,77.533L221.325,77.568L221.51,77.638L221.88,77.784L222.62,78.101L222.706,78.14L222.793,78.18L222.965,78.26L223.311,78.427L224.001,78.782L224.088,78.828L224.174,78.875L224.347,78.971L224.692,79.167L225.383,79.583L225.469,79.637L225.555,79.692L225.728,79.803L226.073,80.03L226.764,80.509L228.146,81.565L228.239,81.641L228.333,81.718L228.52,81.874L228.894,82.192L229.642,82.86L231.139,84.319L231.233,84.415L231.327,84.513L231.514,84.709L231.888,85.111L232.636,85.946L234.133,87.749L234.225,87.866L234.317,87.983L234.501,88.22L234.868,88.701L235.603,89.696L237.073,91.824L237.165,91.964L237.256,92.103L237.44,92.385L237.808,92.958L238.542,94.139L240.012,96.648L240.098,96.8L240.183,96.953L240.355,97.261L240.698,97.885L241.383,99.167L242.754,101.865L242.84,102.04L242.925,102.215L243.097,102.568L243.439,103.283L244.125,104.747L245.496,107.817L245.589,108.032L245.682,108.248L245.868,108.683L246.239,109.563L246.982,111.367L248.469,115.151L251.442,123.453L251.529,123.71L251.616,123.968L251.789,124.487L252.136,125.536L252.83,127.675L254.218,132.127L256.993,141.74L257.078,142.05L257.163,142.361L257.333,142.985L257.674,144.245L258.354,146.81L259.714,152.123L262.436,163.501L262.528,163.904L262.62,164.309L262.805,165.123L263.174,166.764L263.912,170.106L265.388,177.025L267.71,188.677"/><path class="line-82c67c27-db72-4f0b-ba82-50c9b2c92690" vector-effect="non-scaling-stroke" fill="none" opacity="1" stroke="rgb(134,120,178)" stroke-width="2" d="M0,113.538L0.086,113.597L0.172,113.656L0.344,113.774L0.687,114.008L1.374,114.468L2.748,115.354L5.496,116.997L5.589,117.05L5.682,117.102L5.868,117.207L6.241,117.414L6.986,117.819L8.475,118.594L8.568,118.641L8.661,118.688L8.848,118.781L9.22,118.965L9.965,119.325L11.454,120.012L11.541,120.05L11.628,120.089L11.802,120.166L12.15,120.318L12.845,120.615L14.236,121.183L14.323,121.217L14.41,121.251L14.584,121.319L14.932,121.454L15.627,121.716L17.018,122.216L17.103,122.246L17.188,122.275L17.359,122.334L17.7,122.45L18.381,122.676L19.745,123.105L19.83,123.131L19.915,123.156L20.086,123.208L20.427,123.309L21.109,123.505L22.472,123.878L22.565,123.902L22.657,123.926L22.842,123.974L23.212,124.069L23.951,124.252L25.43,124.595L25.523,124.616L25.615,124.636L25.8,124.676L26.17,124.756L26.91,124.909L28.389,125.196L28.475,125.212L28.561,125.227L28.734,125.259L29.079,125.32L29.769,125.439L31.15,125.659L31.236,125.672L31.322,125.685L31.495,125.711L31.84,125.761L32.53,125.858L33.911,126.037L34.004,126.048L34.098,126.06L34.285,126.082L34.659,126.125L35.407,126.208L35.5,126.218L35.594,126.228L35.781,126.248L36.155,126.286L36.903,126.358L36.996,126.366L37.09,126.375L37.277,126.392L37.651,126.424L38.399,126.486L38.492,126.493L38.586,126.501L38.773,126.515L39.147,126.543L39.895,126.595L39.986,126.601L40.078,126.607L40.262,126.618L40.629,126.641L41.363,126.683L41.455,126.688L41.547,126.693L41.731,126.702L42.098,126.721L42.832,126.754L42.924,126.758L43.016,126.762L43.199,126.77L43.566,126.784L43.658,126.787L43.75,126.791L43.934,126.797L44.301,126.809L44.393,126.812L44.484,126.815L44.668,126.821L45.035,126.831L45.127,126.834L45.219,126.836L45.402,126.841L45.77,126.849L45.855,126.851L45.941,126.853L46.112,126.857L46.198,126.858L46.283,126.86L46.455,126.863L46.54,126.865L46.626,126.866L46.797,126.869L47.14,126.874L47.225,126.875L47.311,126.876L47.482,126.878L47.568,126.879L47.653,126.88L47.825,126.881L47.91,126.882L47.996,126.883L48.081,126.884L48.167,126.884L48.253,126.885L48.338,126.885L48.424,126.886L48.51,126.886L48.595,126.887L48.681,126.887L48.767,126.887L48.852,126.888L48.938,126.888L49.023,126.888L49.109,126.888L49.195,126.888L49.28,126.888L49.366,126.888L49.452,126.888L49.537,126.888L49.623,126.888L49.708,126.888L49.794,126.888L49.88,126.888L49.965,126.888L50.051,126.887L50.137,126.887L50.222,126.887L50.308,126.886L50.393,126.886L50.565,126.885L50.65,126.884L50.736,126.883L50.907,126.882L50.993,126.881L51.078,126.881L51.25,126.879L51.343,126.878L51.435,126.877L51.621,126.875L51.714,126.874L51.807,126.873L51.992,126.87L52.085,126.869L52.178,126.868L52.364,126.865L52.735,126.859L52.828,126.857L52.921,126.855L53.107,126.852L53.478,126.844L54.221,126.828L54.314,126.825L54.407,126.823L54.592,126.818L54.964,126.809L55.706,126.787L55.799,126.784L55.892,126.781L56.078,126.776L56.449,126.764L57.192,126.738L57.279,126.735L57.365,126.731L57.539,126.725L57.886,126.712L58.579,126.684L59.966,126.625L60.053,126.621L60.139,126.617L60.313,126.609L60.659,126.592L61.353,126.559L62.74,126.488L62.825,126.484L62.91,126.479L63.08,126.47L63.419,126.452L64.099,126.414L65.459,126.336L68.178,126.171L74.079,125.783L79.585,125.411L85.553,125.027L85.644,125.021L85.736,125.015L85.919,125.004L86.285,124.982L87.018,124.938L88.482,124.853L91.412,124.694L91.497,124.69L91.583,124.685L91.753,124.677L92.095,124.659L92.778,124.626L94.144,124.56L94.229,124.557L94.315,124.553L94.485,124.545L94.827,124.529L95.51,124.499L96.876,124.443L96.969,124.439L97.061,124.435L97.246,124.428L97.617,124.413L98.358,124.386L99.839,124.334L99.932,124.331L100.024,124.328L100.21,124.322L100.58,124.31L101.321,124.288L102.802,124.248L102.889,124.246L102.975,124.243L103.148,124.239L103.494,124.231L104.185,124.215L104.272,124.213L104.358,124.212L104.531,124.208L104.877,124.201L105.568,124.188L105.655,124.186L105.741,124.185L105.914,124.182L106.26,124.176L106.346,124.175L106.433,124.173L106.605,124.171L106.951,124.166L107.038,124.165L107.124,124.163L107.297,124.161L107.643,124.157L107.729,124.156L107.815,124.155L107.988,124.153L108.334,124.149L108.428,124.148L108.521,124.147L108.709,124.145L108.802,124.144L108.896,124.144L109.083,124.142L109.177,124.141L109.271,124.14L109.458,124.139L109.833,124.137L109.926,124.136L110.02,124.136L110.207,124.135L110.301,124.134L110.394,124.134L110.582,124.133L110.675,124.132L110.769,124.132L110.863,124.132L110.956,124.132L111.05,124.131L111.144,124.131L111.237,124.131L111.331,124.131L111.425,124.13L111.518,124.13L111.612,124.13L111.706,124.13L111.799,124.13L111.893,124.13L111.987,124.13L112.08,124.13L112.174,124.13L112.268,124.13L112.361,124.13L112.455,124.13L112.549,124.13L112.642,124.131L112.736,124.131L112.829,124.131L112.923,124.131L113.017,124.131L113.11,124.132L113.204,124.132L113.298,124.132L113.391,124.133L113.579,124.134L113.672,124.134L113.766,124.134L113.953,124.135L114.047,124.136L114.141,124.136L114.328,124.138L114.42,124.138L114.512,124.139L114.696,124.14L115.064,124.143L115.156,124.144L115.247,124.145L115.431,124.147L115.799,124.15L115.891,124.151L115.983,124.152L116.167,124.154L116.535,124.159L117.27,124.169L117.362,124.17L117.454,124.172L117.638,124.175L118.006,124.181L118.742,124.194L118.833,124.195L118.925,124.197L119.109,124.201L119.477,124.208L120.213,124.224L120.299,124.226L120.384,124.228L120.556,124.232L120.899,124.24L121.585,124.258L122.958,124.296L123.043,124.299L123.129,124.302L123.301,124.307L123.644,124.318L124.33,124.34L125.703,124.388L125.796,124.391L125.889,124.395L126.075,124.402L126.447,124.416L127.191,124.445L128.679,124.508L131.655,124.647L131.742,124.651L131.829,124.656L132.002,124.664L132.35,124.682L133.044,124.718L134.434,124.793L137.212,124.952L142.661,125.294L148.571,125.691L154.087,126.06L154.18,126.066L154.274,126.072L154.46,126.084L154.834,126.108L155.581,126.155L157.076,126.248L157.169,126.254L157.263,126.26L157.449,126.271L157.823,126.294L158.57,126.338L160.065,126.423L160.156,126.428L160.248,126.433L160.432,126.443L160.798,126.463L161.532,126.502L162.999,126.576L163.091,126.581L163.183,126.585L163.366,126.594L163.733,126.611L164.466,126.644L165.934,126.705L166.019,126.708L166.105,126.712L166.276,126.718L166.618,126.731L167.302,126.755L167.388,126.758L167.473,126.761L167.644,126.767L167.986,126.778L168.671,126.798L168.756,126.801L168.842,126.803L169.013,126.808L169.355,126.817L169.44,126.819L169.526,126.821L169.697,126.826L170.039,126.834L170.125,126.836L170.21,126.838L170.381,126.841L170.723,126.849L170.809,126.85L170.894,126.852L171.066,126.855L171.408,126.861L171.5,126.863L171.593,126.864L171.779,126.867L171.871,126.868L171.964,126.87L172.15,126.872L172.242,126.873L172.335,126.874L172.521,126.877L172.613,126.878L172.706,126.879L172.892,126.88L172.985,126.881L173.077,126.882L173.17,126.883L173.263,126.883L173.356,126.884L173.448,126.885L173.541,126.885L173.634,126.886L173.727,126.886L173.819,126.887L173.912,126.887L174.005,126.887L174.098,126.888L174.19,126.888L174.283,126.888L174.376,126.888L174.469,126.888L174.561,126.888L174.654,126.888L174.747,126.888L174.84,126.888L174.932,126.888L175.025,126.888L175.118,126.888L175.211,126.887L175.303,126.887L175.396,126.887L175.489,126.886L175.582,126.886L175.674,126.885L175.767,126.885L175.86,126.884L175.953,126.883L176.045,126.883L176.231,126.881L176.324,126.88L176.416,126.879L176.602,126.877L176.695,126.876L176.787,126.875L176.973,126.872L177.344,126.866L177.431,126.865L177.517,126.864L177.69,126.86L178.037,126.854L178.123,126.852L178.21,126.85L178.383,126.846L178.729,126.837L178.816,126.835L178.903,126.833L179.076,126.828L179.422,126.818L180.115,126.795L180.201,126.792L180.288,126.789L180.461,126.783L180.807,126.769L181.5,126.74L181.587,126.736L181.673,126.732L181.846,126.724L182.193,126.706L182.885,126.669L182.97,126.665L183.055,126.66L183.225,126.65L183.564,126.629L184.244,126.585L184.328,126.58L184.413,126.574L184.583,126.562L184.923,126.538L185.602,126.486L185.686,126.479L185.771,126.472L185.941,126.459L186.281,126.43L186.96,126.37L188.318,126.237L188.41,126.228L188.502,126.218L188.686,126.198L189.055,126.158L189.791,126.073L191.265,125.886L191.357,125.874L191.449,125.861L191.634,125.836L192.002,125.784L192.739,125.676L194.212,125.442L194.298,125.427L194.384,125.413L194.556,125.383L194.9,125.324L195.587,125.2L196.962,124.935L197.048,124.918L197.134,124.9L197.306,124.865L197.65,124.794L198.337,124.646L199.712,124.332L199.805,124.31L199.898,124.288L200.085,124.243L200.457,124.151L201.203,123.963L202.693,123.561L202.786,123.535L202.88,123.509L203.066,123.456L203.438,123.348L204.184,123.126L205.674,122.657L205.761,122.629L205.848,122.6L206.022,122.543L206.37,122.426L207.066,122.187L208.458,121.685L208.545,121.652L208.632,121.619L208.806,121.554L209.154,121.421L209.85,121.149L211.241,120.578L211.327,120.542L211.412,120.506L211.583,120.433L211.924,120.286L212.606,119.985L213.971,119.355L216.7,117.987L216.792,117.937L216.885,117.888L217.07,117.789L217.44,117.589L218.18,117.18L219.66,116.326L222.62,114.472L222.706,114.415L222.793,114.357L222.965,114.242L223.311,114.01L224.001,113.537L225.383,112.555L228.146,110.449L228.239,110.374L228.333,110.299L228.52,110.148L228.894,109.844L229.642,109.224L231.139,107.939L234.133,105.181L234.225,105.092L234.317,105.004L234.501,104.825L234.868,104.465L235.603,103.732L237.073,102.218L240.012,98.987L245.496,92.199L251.442,83.627L256.993,74.379L262.436,64.042L268.34,51.285L273.85,37.817L273.946,37.568L274.042,37.318L274.234,36.818L274.618,35.811L275.387,33.773L276.925,29.599L277.021,29.334L277.117,29.068L277.309,28.535L277.694,27.463L278.462,25.294L278.558,25.02L278.655,24.746L278.847,24.196L279.231,23.091L279.327,22.813L279.423,22.535L279.616,21.977L279.712,21.697L279.808,21.416L279.904,21.135L280,20.854"/></g><g transform="translate(0,188.67737948084053)" fill="rgb(68, 68, 68)" font-size="10" font-family="sans-serif" text-anchor="middle"><path class="domain" stroke="currentColor" d="M0,0H280"/><g class="tick" opacity="1" transform="translate(0,0)"><line stroke="currentColor" y2="5"/><text fill="currentColor" y="8" dy="0.71em">−1.0</text></g><g class="tick" opacity="1" transform="translate(27.999999999999993,0)"><line stroke="currentColor" y2="5"/><text fill="currentColor" y="8" dy="0.71em">−0.8</text></g><g class="tick" opacity="1" transform="translate(56,0)"><line stroke="currentColor" y2="5"/><text fill="currentColor" y="8" dy="0.71em">−0.6</text></g><g class="tick" opacity="1" transform="translate(84,0)"><line stroke="currentColor" y2="5"/><text fill="currentColor" y="8" dy="0.71em">−0.4</text></g><g class="tick" opacity="1" transform="translate(112,0)"><line stroke="currentColor" y2="5"/><text fill="currentColor" y="8" dy="0.71em">−0.2</text></g><g class="tick" opacity="1" transform="translate(140,0)"><line stroke="currentColor" y2="5"/><text fill="currentColor" y="8" dy="0.71em">0.0</text></g><g class="tick" opacity="1" transform="translate(168,0)"><line stroke="currentColor" y2="5"/><text fill="currentColor" y="8" dy="0.71em">0.2</text></g><g class="tick" opacity="1" transform="translate(196,0)"><line stroke="currentColor" y2="5"/><text fill="currentColor" y="8" dy="0.71em">0.4</text></g><g class="tick" opacity="1" transform="translate(224,0)"><line stroke="currentColor" y2="5"/><text fill="currentColor" y="8" dy="0.71em">0.6</text></g><g class="tick" opacity="1" transform="translate(252,0)"><line stroke="currentColor" y2="5"/><text fill="currentColor" y="8" dy="0.71em">0.8</text></g><g class="tick" opacity="1" transform="translate(280,0)"><line stroke="currentColor" y2="5"/><text fill="currentColor" y="8" dy="0.71em">1.0</text></g><text x="290" y="10" font-size="10" fill="rgb(68, 68, 68)" text-anchor="start"/></g><g fill="rgb(68, 68, 68)" font-size="10" font-family="sans-serif" text-anchor="end"><path class="domain" stroke="currentColor" d="M0,188.67737948084053V0"/><g class="tick" opacity="1" transform="translate(0,167.4927563603617)"><line stroke="currentColor" x2="-5"/><text fill="currentColor" x="-8" dy="0.32em">−1.0</text></g><g class="tick" opacity="1" transform="translate(0,146.30789667433925)"><line stroke="currentColor" x2="-5"/><text fill="currentColor" x="-8" dy="0.32em">−0.5</text></g><g class="tick" opacity="1" transform="translate(0,125.12303698831676)"><line stroke="currentColor" x2="-5"/><text fill="currentColor" x="-8" dy="0.32em">0.0</text></g><g class="tick" opacity="1" transform="translate(0,103.93817730229425)"><line stroke="currentColor" x2="-5"/><text fill="currentColor" x="-8" dy="0.32em">0.5</text></g><g class="tick" opacity="1" transform="translate(0,82.75331761627177)"><line stroke="currentColor" x2="-5"/><text fill="currentColor" x="-8" dy="0.32em">1.0</text></g><g class="tick" opacity="1" transform="translate(0,61.56845793024927)"><line stroke="currentColor" x2="-5"/><text fill="currentColor" x="-8" dy="0.32em">1.5</text></g><g class="tick" opacity="1" transform="translate(0,40.38359824422678)"><line stroke="currentColor" x2="-5"/><text fill="currentColor" x="-8" dy="0.32em">2.0</text></g><g class="tick" opacity="1" transform="translate(0,19.198738558204298)"><line stroke="currentColor" x2="-5"/><text fill="currentColor" x="-8" dy="0.32em">2.5</text></g><text x="0" y="-15" font-size="10" fill="rgb(68, 68, 68)" text-anchor="start"/></g></g></svg>