<?xml version="1.0" encoding="utf-8" standalone="no"?>
<!DOCTYPE svg PUBLIC "-//W3C//DTD SVG 1.1//EN"
  "http://www.w3.org/Graphics/SVG/1.1/DTD/svg11.dtd">
<svg xmlns:xlink="http://www.w3.org/1999/xlink" width="460.8pt" height="345.6pt" viewBox="0 0 460.8 345.6" xmlns="http://www.w3.org/2000/svg" version="1.1">
 <metadata>
  <rdf:RDF xmlns:dc="http://purl.org/dc/elements/1.1/" xmlns:cc="http://creativecommons.org/ns#" xmlns:rdf="http://www.w3.org/1999/02/22-rdf-syntax-ns#">
   <cc:Work>
    <dc:type rdf:resource="http://purl.org/dc/dcmitype/StillImage"/>
    <dc:date>2022-11-30T18:13:47.675389</dc:date>
    <dc:format>image/svg+xml</dc:format>
    <dc:creator>
     <cc:Agent>
      <dc:title>Matplotlib v3.6.2, https://matplotlib.org/</dc:title>
     </cc:Agent>
    </dc:creator>
   </cc:Work>
  </rdf:RDF>
 </metadata>
 <defs>
  <style type="text/css">*{stroke-linejoin: round; stroke-linecap: butt}</style>
 </defs>
 <g id="figure_1">
  <g id="patch_1">
   <path d="M 0 345.6 
L 460.8 345.6 
L 460.8 0 
L 0 0 
z
" style="fill: #ffffff"/>
  </g>
  <g id="axes_1">
   <g id="patch_2">
    <path d="M 57.6 307.584 
L 414.72 307.584 
L 414.72 41.472 
L 57.6 41.472 
z
" style="fill: #ffffff"/>
   </g>
   <g id="matplotlib.axis_1">
    <g id="xtick_1">
     <g id="line2d_1">
      <path d="M 63.404179 307.584 
L 63.404179 41.472 
" clip-path="url(#p7185901a3c)" style="fill: none; stroke: #808080; stroke-opacity: 0.5; stroke-width: 0.5; stroke-linecap: square"/>
     </g>
     <g id="line2d_2">
      <defs>
       <path id="m03767fb363" d="M 0 0 
L 0 3.5 
" style="stroke: #000000; stroke-width: 0.8"/>
      </defs>
      <g>
       <use xlink:href="#m03767fb363" x="63.404179" y="307.584" style="stroke: #000000; stroke-width: 0.8"/>
      </g>
     </g>
     <g id="text_1">
      <!-- −4 -->
      <g transform="translate(56.033085 322.182437) scale(0.1 -0.1)">
       <defs>
        <path id="DejaVuSans-2212" d="M 678 2272 
L 4684 2272 
L 4684 1741 
L 678 1741 
L 678 2272 
z
" transform="scale(0.015625)"/>
        <path id="DejaVuSans-34" d="M 2419 4116 
L 825 1625 
L 2419 1625 
L 2419 4116 
z
M 2253 4666 
L 3047 4666 
L 3047 1625 
L 3713 1625 
L 3713 1100 
L 3047 1100 
L 3047 0 
L 2419 0 
L 2419 1100 
L 313 1100 
L 313 1709 
L 2253 4666 
z
" transform="scale(0.015625)"/>
       </defs>
       <use xlink:href="#DejaVuSans-2212"/>
       <use xlink:href="#DejaVuSans-34" x="83.789062"/>
      </g>
     </g>
    </g>
    <g id="xtick_2">
     <g id="line2d_3">
      <path d="M 118.317748 307.584 
L 118.317748 41.472 
" clip-path="url(#p7185901a3c)" style="fill: none; stroke: #808080; stroke-opacity: 0.5; stroke-width: 0.5; stroke-linecap: square"/>
     </g>
     <g id="line2d_4">
      <g>
       <use xlink:href="#m03767fb363" x="118.317748" y="307.584" style="stroke: #000000; stroke-width: 0.8"/>
      </g>
     </g>
     <g id="text_2">
      <!-- −2 -->
      <g transform="translate(110.946654 322.182437) scale(0.1 -0.1)">
       <defs>
        <path id="DejaVuSans-32" d="M 1228 531 
L 3431 531 
L 3431 0 
L 469 0 
L 469 531 
Q 828 903 1448 1529 
Q 2069 2156 2228 2338 
Q 2531 2678 2651 2914 
Q 2772 3150 2772 3378 
Q 2772 3750 2511 3984 
Q 2250 4219 1831 4219 
Q 1534 4219 1204 4116 
Q 875 4013 500 3803 
L 500 4441 
Q 881 4594 1212 4672 
Q 1544 4750 1819 4750 
Q 2544 4750 2975 4387 
Q 3406 4025 3406 3419 
Q 3406 3131 3298 2873 
Q 3191 2616 2906 2266 
Q 2828 2175 2409 1742 
Q 1991 1309 1228 531 
z
" transform="scale(0.015625)"/>
       </defs>
       <use xlink:href="#DejaVuSans-2212"/>
       <use xlink:href="#DejaVuSans-32" x="83.789062"/>
      </g>
     </g>
    </g>
    <g id="xtick_3">
     <g id="line2d_5">
      <path d="M 173.231316 307.584 
L 173.231316 41.472 
" clip-path="url(#p7185901a3c)" style="fill: none; stroke: #808080; stroke-opacity: 0.5; stroke-width: 0.5; stroke-linecap: square"/>
     </g>
     <g id="line2d_6">
      <g>
       <use xlink:href="#m03767fb363" x="173.231316" y="307.584" style="stroke: #000000; stroke-width: 0.8"/>
      </g>
     </g>
     <g id="text_3">
      <!-- 0 -->
      <g transform="translate(170.050066 322.182437) scale(0.1 -0.1)">
       <defs>
        <path id="DejaVuSans-30" d="M 2034 4250 
Q 1547 4250 1301 3770 
Q 1056 3291 1056 2328 
Q 1056 1369 1301 889 
Q 1547 409 2034 409 
Q 2525 409 2770 889 
Q 3016 1369 3016 2328 
Q 3016 3291 2770 3770 
Q 2525 4250 2034 4250 
z
M 2034 4750 
Q 2819 4750 3233 4129 
Q 3647 3509 3647 2328 
Q 3647 1150 3233 529 
Q 2819 -91 2034 -91 
Q 1250 -91 836 529 
Q 422 1150 422 2328 
Q 422 3509 836 4129 
Q 1250 4750 2034 4750 
z
" transform="scale(0.015625)"/>
       </defs>
       <use xlink:href="#DejaVuSans-30"/>
      </g>
     </g>
    </g>
    <g id="xtick_4">
     <g id="line2d_7">
      <path d="M 228.144885 307.584 
L 228.144885 41.472 
" clip-path="url(#p7185901a3c)" style="fill: none; stroke: #808080; stroke-opacity: 0.5; stroke-width: 0.5; stroke-linecap: square"/>
     </g>
     <g id="line2d_8">
      <g>
       <use xlink:href="#m03767fb363" x="228.144885" y="307.584" style="stroke: #000000; stroke-width: 0.8"/>
      </g>
     </g>
     <g id="text_4">
      <!-- 2 -->
      <g transform="translate(224.963635 322.182437) scale(0.1 -0.1)">
       <use xlink:href="#DejaVuSans-32"/>
      </g>
     </g>
    </g>
    <g id="xtick_5">
     <g id="line2d_9">
      <path d="M 283.058453 307.584 
L 283.058453 41.472 
" clip-path="url(#p7185901a3c)" style="fill: none; stroke: #808080; stroke-opacity: 0.5; stroke-width: 0.5; stroke-linecap: square"/>
     </g>
     <g id="line2d_10">
      <g>
       <use xlink:href="#m03767fb363" x="283.058453" y="307.584" style="stroke: #000000; stroke-width: 0.8"/>
      </g>
     </g>
     <g id="text_5">
      <!-- 4 -->
      <g transform="translate(279.877203 322.182437) scale(0.1 -0.1)">
       <use xlink:href="#DejaVuSans-34"/>
      </g>
     </g>
    </g>
    <g id="xtick_6">
     <g id="line2d_11">
      <path d="M 337.972022 307.584 
L 337.972022 41.472 
" clip-path="url(#p7185901a3c)" style="fill: none; stroke: #808080; stroke-opacity: 0.5; stroke-width: 0.5; stroke-linecap: square"/>
     </g>
     <g id="line2d_12">
      <g>
       <use xlink:href="#m03767fb363" x="337.972022" y="307.584" style="stroke: #000000; stroke-width: 0.8"/>
      </g>
     </g>
     <g id="text_6">
      <!-- 6 -->
      <g transform="translate(334.790772 322.182437) scale(0.1 -0.1)">
       <defs>
        <path id="DejaVuSans-36" d="M 2113 2584 
Q 1688 2584 1439 2293 
Q 1191 2003 1191 1497 
Q 1191 994 1439 701 
Q 1688 409 2113 409 
Q 2538 409 2786 701 
Q 3034 994 3034 1497 
Q 3034 2003 2786 2293 
Q 2538 2584 2113 2584 
z
M 3366 4563 
L 3366 3988 
Q 3128 4100 2886 4159 
Q 2644 4219 2406 4219 
Q 1781 4219 1451 3797 
Q 1122 3375 1075 2522 
Q 1259 2794 1537 2939 
Q 1816 3084 2150 3084 
Q 2853 3084 3261 2657 
Q 3669 2231 3669 1497 
Q 3669 778 3244 343 
Q 2819 -91 2113 -91 
Q 1303 -91 875 529 
Q 447 1150 447 2328 
Q 447 3434 972 4092 
Q 1497 4750 2381 4750 
Q 2619 4750 2861 4703 
Q 3103 4656 3366 4563 
z
" transform="scale(0.015625)"/>
       </defs>
       <use xlink:href="#DejaVuSans-36"/>
      </g>
     </g>
    </g>
    <g id="xtick_7">
     <g id="line2d_13">
      <path d="M 392.88559 307.584 
L 392.88559 41.472 
" clip-path="url(#p7185901a3c)" style="fill: none; stroke: #808080; stroke-opacity: 0.5; stroke-width: 0.5; stroke-linecap: square"/>
     </g>
     <g id="line2d_14">
      <g>
       <use xlink:href="#m03767fb363" x="392.88559" y="307.584" style="stroke: #000000; stroke-width: 0.8"/>
      </g>
     </g>
     <g id="text_7">
      <!-- 8 -->
      <g transform="translate(389.70434 322.182437) scale(0.1 -0.1)">
       <defs>
        <path id="DejaVuSans-38" d="M 2034 2216 
Q 1584 2216 1326 1975 
Q 1069 1734 1069 1313 
Q 1069 891 1326 650 
Q 1584 409 2034 409 
Q 2484 409 2743 651 
Q 3003 894 3003 1313 
Q 3003 1734 2745 1975 
Q 2488 2216 2034 2216 
z
M 1403 2484 
Q 997 2584 770 2862 
Q 544 3141 544 3541 
Q 544 4100 942 4425 
Q 1341 4750 2034 4750 
Q 2731 4750 3128 4425 
Q 3525 4100 3525 3541 
Q 3525 3141 3298 2862 
Q 3072 2584 2669 2484 
Q 3125 2378 3379 2068 
Q 3634 1759 3634 1313 
Q 3634 634 3220 271 
Q 2806 -91 2034 -91 
Q 1263 -91 848 271 
Q 434 634 434 1313 
Q 434 1759 690 2068 
Q 947 2378 1403 2484 
z
M 1172 3481 
Q 1172 3119 1398 2916 
Q 1625 2713 2034 2713 
Q 2441 2713 2670 2916 
Q 2900 3119 2900 3481 
Q 2900 3844 2670 4047 
Q 2441 4250 2034 4250 
Q 1625 4250 1398 4047 
Q 1172 3844 1172 3481 
z
" transform="scale(0.015625)"/>
       </defs>
       <use xlink:href="#DejaVuSans-38"/>
      </g>
     </g>
    </g>
    <g id="text_8">
     <!-- $x$ -->
     <g transform="translate(233.16 335.860562) scale(0.1 -0.1)">
      <defs>
       <path id="DejaVuSans-Oblique-78" d="M 3841 3500 
L 2234 1784 
L 3219 0 
L 2559 0 
L 1819 1388 
L 531 0 
L -166 0 
L 1556 1844 
L 641 3500 
L 1300 3500 
L 1972 2234 
L 3144 3500 
L 3841 3500 
z
" transform="scale(0.015625)"/>
      </defs>
      <use xlink:href="#DejaVuSans-Oblique-78" transform="translate(0 0.3125)"/>
     </g>
    </g>
   </g>
   <g id="matplotlib.axis_2">
    <g id="ytick_1">
     <g id="line2d_15">
      <path d="M 57.6 296.577338 
L 414.72 296.577338 
" clip-path="url(#p7185901a3c)" style="fill: none; stroke: #808080; stroke-opacity: 0.5; stroke-width: 0.5; stroke-linecap: square"/>
     </g>
     <g id="line2d_16">
      <defs>
       <path id="mc18d5dd38c" d="M 0 0 
L -3.5 0 
" style="stroke: #000000; stroke-width: 0.8"/>
      </defs>
      <g>
       <use xlink:href="#mc18d5dd38c" x="57.6" y="296.577338" style="stroke: #000000; stroke-width: 0.8"/>
      </g>
     </g>
     <g id="text_9">
      <!-- −7.5 -->
      <g transform="translate(26.317187 300.376557) scale(0.1 -0.1)">
       <defs>
        <path id="DejaVuSans-37" d="M 525 4666 
L 3525 4666 
L 3525 4397 
L 1831 0 
L 1172 0 
L 2766 4134 
L 525 4134 
L 525 4666 
z
" transform="scale(0.015625)"/>
        <path id="DejaVuSans-2e" d="M 684 794 
L 1344 794 
L 1344 0 
L 684 0 
L 684 794 
z
" transform="scale(0.015625)"/>
        <path id="DejaVuSans-35" d="M 691 4666 
L 3169 4666 
L 3169 4134 
L 1269 4134 
L 1269 2991 
Q 1406 3038 1543 3061 
Q 1681 3084 1819 3084 
Q 2600 3084 3056 2656 
Q 3513 2228 3513 1497 
Q 3513 744 3044 326 
Q 2575 -91 1722 -91 
Q 1428 -91 1123 -41 
Q 819 9 494 109 
L 494 744 
Q 775 591 1075 516 
Q 1375 441 1709 441 
Q 2250 441 2565 725 
Q 2881 1009 2881 1497 
Q 2881 1984 2565 2268 
Q 2250 2553 1709 2553 
Q 1456 2553 1204 2497 
Q 953 2441 691 2322 
L 691 4666 
z
" transform="scale(0.015625)"/>
       </defs>
       <use xlink:href="#DejaVuSans-2212"/>
       <use xlink:href="#DejaVuSans-37" x="83.789062"/>
       <use xlink:href="#DejaVuSans-2e" x="147.412109"/>
       <use xlink:href="#DejaVuSans-35" x="179.199219"/>
      </g>
     </g>
    </g>
    <g id="ytick_2">
     <g id="line2d_17">
      <path d="M 57.6 261.727956 
L 414.72 261.727956 
" clip-path="url(#p7185901a3c)" style="fill: none; stroke: #808080; stroke-opacity: 0.5; stroke-width: 0.5; stroke-linecap: square"/>
     </g>
     <g id="line2d_18">
      <g>
       <use xlink:href="#mc18d5dd38c" x="57.6" y="261.727956" style="stroke: #000000; stroke-width: 0.8"/>
      </g>
     </g>
     <g id="text_10">
      <!-- −5.0 -->
      <g transform="translate(26.317187 265.527174) scale(0.1 -0.1)">
       <use xlink:href="#DejaVuSans-2212"/>
       <use xlink:href="#DejaVuSans-35" x="83.789062"/>
       <use xlink:href="#DejaVuSans-2e" x="147.412109"/>
       <use xlink:href="#DejaVuSans-30" x="179.199219"/>
      </g>
     </g>
    </g>
    <g id="ytick_3">
     <g id="line2d_19">
      <path d="M 57.6 226.878574 
L 414.72 226.878574 
" clip-path="url(#p7185901a3c)" style="fill: none; stroke: #808080; stroke-opacity: 0.5; stroke-width: 0.5; stroke-linecap: square"/>
     </g>
     <g id="line2d_20">
      <g>
       <use xlink:href="#mc18d5dd38c" x="57.6" y="226.878574" style="stroke: #000000; stroke-width: 0.8"/>
      </g>
     </g>
     <g id="text_11">
      <!-- −2.5 -->
      <g transform="translate(26.317187 230.677792) scale(0.1 -0.1)">
       <use xlink:href="#DejaVuSans-2212"/>
       <use xlink:href="#DejaVuSans-32" x="83.789062"/>
       <use xlink:href="#DejaVuSans-2e" x="147.412109"/>
       <use xlink:href="#DejaVuSans-35" x="179.199219"/>
      </g>
     </g>
    </g>
    <g id="ytick_4">
     <g id="line2d_21">
      <path d="M 57.6 192.029192 
L 414.72 192.029192 
" clip-path="url(#p7185901a3c)" style="fill: none; stroke: #808080; stroke-opacity: 0.5; stroke-width: 0.5; stroke-linecap: square"/>
     </g>
     <g id="line2d_22">
      <g>
       <use xlink:href="#mc18d5dd38c" x="57.6" y="192.029192" style="stroke: #000000; stroke-width: 0.8"/>
      </g>
     </g>
     <g id="text_12">
      <!-- 0.0 -->
      <g transform="translate(34.696875 195.82841) scale(0.1 -0.1)">
       <use xlink:href="#DejaVuSans-30"/>
       <use xlink:href="#DejaVuSans-2e" x="63.623047"/>
       <use xlink:href="#DejaVuSans-30" x="95.410156"/>
      </g>
     </g>
    </g>
    <g id="ytick_5">
     <g id="line2d_23">
      <path d="M 57.6 157.17981 
L 414.72 157.17981 
" clip-path="url(#p7185901a3c)" style="fill: none; stroke: #808080; stroke-opacity: 0.5; stroke-width: 0.5; stroke-linecap: square"/>
     </g>
     <g id="line2d_24">
      <g>
       <use xlink:href="#mc18d5dd38c" x="57.6" y="157.17981" style="stroke: #000000; stroke-width: 0.8"/>
      </g>
     </g>
     <g id="text_13">
      <!-- 2.5 -->
      <g transform="translate(34.696875 160.979028) scale(0.1 -0.1)">
       <use xlink:href="#DejaVuSans-32"/>
       <use xlink:href="#DejaVuSans-2e" x="63.623047"/>
       <use xlink:href="#DejaVuSans-35" x="95.410156"/>
      </g>
     </g>
    </g>
    <g id="ytick_6">
     <g id="line2d_25">
      <path d="M 57.6 122.330427 
L 414.72 122.330427 
" clip-path="url(#p7185901a3c)" style="fill: none; stroke: #808080; stroke-opacity: 0.5; stroke-width: 0.5; stroke-linecap: square"/>
     </g>
     <g id="line2d_26">
      <g>
       <use xlink:href="#mc18d5dd38c" x="57.6" y="122.330427" style="stroke: #000000; stroke-width: 0.8"/>
      </g>
     </g>
     <g id="text_14">
      <!-- 5.0 -->
      <g transform="translate(34.696875 126.129646) scale(0.1 -0.1)">
       <use xlink:href="#DejaVuSans-35"/>
       <use xlink:href="#DejaVuSans-2e" x="63.623047"/>
       <use xlink:href="#DejaVuSans-30" x="95.410156"/>
      </g>
     </g>
    </g>
    <g id="ytick_7">
     <g id="line2d_27">
      <path d="M 57.6 87.481045 
L 414.72 87.481045 
" clip-path="url(#p7185901a3c)" style="fill: none; stroke: #808080; stroke-opacity: 0.5; stroke-width: 0.5; stroke-linecap: square"/>
     </g>
     <g id="line2d_28">
      <g>
       <use xlink:href="#mc18d5dd38c" x="57.6" y="87.481045" style="stroke: #000000; stroke-width: 0.8"/>
      </g>
     </g>
     <g id="text_15">
      <!-- 7.5 -->
      <g transform="translate(34.696875 91.280264) scale(0.1 -0.1)">
       <use xlink:href="#DejaVuSans-37"/>
       <use xlink:href="#DejaVuSans-2e" x="63.623047"/>
       <use xlink:href="#DejaVuSans-35" x="95.410156"/>
      </g>
     </g>
    </g>
    <g id="ytick_8">
     <g id="line2d_29">
      <path d="M 57.6 52.631663 
L 414.72 52.631663 
" clip-path="url(#p7185901a3c)" style="fill: none; stroke: #808080; stroke-opacity: 0.5; stroke-width: 0.5; stroke-linecap: square"/>
     </g>
     <g id="line2d_30">
      <g>
       <use xlink:href="#mc18d5dd38c" x="57.6" y="52.631663" style="stroke: #000000; stroke-width: 0.8"/>
      </g>
     </g>
     <g id="text_16">
      <!-- 10.0 -->
      <g transform="translate(28.334375 56.430882) scale(0.1 -0.1)">
       <defs>
        <path id="DejaVuSans-31" d="M 794 531 
L 1825 531 
L 1825 4091 
L 703 3866 
L 703 4441 
L 1819 4666 
L 2450 4666 
L 2450 531 
L 3481 531 
L 3481 0 
L 794 0 
L 794 531 
z
" transform="scale(0.015625)"/>
       </defs>
       <use xlink:href="#DejaVuSans-31"/>
       <use xlink:href="#DejaVuSans-30" x="63.623047"/>
       <use xlink:href="#DejaVuSans-2e" x="127.246094"/>
       <use xlink:href="#DejaVuSans-30" x="159.033203"/>
      </g>
     </g>
    </g>
   </g>
   <g id="line2d_31">
    <path d="M 88.554532 182.516427 
L 90.028187 184.980386 
L 91.501841 186.977279 
L 92.975495 188.556191 
L 94.449149 189.766204 
L 95.922803 190.656401 
L 97.396457 191.275867 
L 98.870112 191.673683 
L 100.638497 191.927595 
L 102.996343 192.026191 
L 120.680193 192.029192 
L 382.990636 192.029192 
L 382.990636 192.029192 
" clip-path="url(#p7185901a3c)" style="fill: none; stroke: #1f77b4; stroke-width: 1.5; stroke-linecap: square"/>
   </g>
   <g id="line2d_32">
    <defs>
     <path id="m3b11015ab9" d="M 0 3.5 
C 0.928211 3.5 1.81853 3.131218 2.474874 2.474874 
C 3.131218 1.81853 3.5 0.928211 3.5 0 
C 3.5 -0.928211 3.131218 -1.81853 2.474874 -2.474874 
C 1.81853 -3.131218 0.928211 -3.5 0 -3.5 
C -0.928211 -3.5 -1.81853 -3.131218 -2.474874 -2.474874 
C -3.131218 -1.81853 -3.5 -0.928211 -3.5 0 
C -3.5 0.928211 -3.131218 1.81853 -2.474874 2.474874 
C -1.81853 3.131218 -0.928211 3.5 0 3.5 
z
" style="stroke: #1f77b4"/>
    </defs>
    <g clip-path="url(#p7185901a3c)">
     <use xlink:href="#m3b11015ab9" x="73.832727" y="134.952606" style="fill: #1f77b4; stroke: #1f77b4"/>
    </g>
   </g>
   <g id="line2d_33">
    <path d="M 88.554532 162.49997 
L 89.438725 162.640055 
L 90.322917 163.043855 
L 91.20711 163.686688 
L 92.386033 164.872965 
L 93.564957 166.381801 
L 95.038611 168.632313 
L 97.101727 172.258592 
L 102.996343 183.04376 
L 104.469997 185.22942 
L 105.943652 187.034665 
L 107.417306 188.488274 
L 108.89096 189.628338 
L 110.364614 190.492946 
L 111.838268 191.12019 
L 113.606653 191.613193 
L 115.669769 191.913496 
L 118.322347 192.025541 
L 134.532543 192.029192 
L 382.990636 192.029192 
L 382.990636 192.029192 
" clip-path="url(#p7185901a3c)" style="fill: none; stroke: #ff7f0e; stroke-width: 1.5; stroke-linecap: square"/>
   </g>
   <g id="line2d_34">
    <defs>
     <path id="m1c7da1eeee" d="M 0 3.5 
C 0.928211 3.5 1.81853 3.131218 2.474874 2.474874 
C 3.131218 1.81853 3.5 0.928211 3.5 0 
C 3.5 -0.928211 3.131218 -1.81853 2.474874 -2.474874 
C 1.81853 -3.131218 0.928211 -3.5 0 -3.5 
C -0.928211 -3.5 -1.81853 -3.131218 -2.474874 -2.474874 
C -3.131218 -1.81853 -3.5 -0.928211 -3.5 0 
C -3.5 0.928211 -3.131218 1.81853 -2.474874 2.474874 
C -1.81853 3.131218 -0.928211 3.5 0 3.5 
z
" style="stroke: #ff7f0e"/>
    </defs>
    <g clip-path="url(#p7185901a3c)">
     <use xlink:href="#m1c7da1eeee" x="88.554532" y="147.735359" style="fill: #ff7f0e; stroke: #ff7f0e"/>
    </g>
   </g>
   <g id="line2d_35">
    <path d="M 88.554532 186.70374 
L 90.322917 184.696309 
L 92.680764 181.618685 
L 97.396457 175.354591 
L 99.164842 173.403388 
L 100.638497 172.106367 
L 101.81742 171.343436 
L 102.996343 170.870393 
L 103.880536 170.731239 
L 104.764728 170.793573 
L 105.648921 171.049541 
L 106.827844 171.661328 
L 108.006767 172.543566 
L 109.480422 173.962388 
L 111.248807 176.019663 
L 113.901384 179.534315 
L 117.732885 184.639162 
L 119.50127 186.655619 
L 120.974924 188.043701 
L 122.448578 189.169442 
L 124.216963 190.21273 
L 125.985348 190.965297 
L 127.753733 191.474625 
L 129.816849 191.824759 
L 132.174696 191.995371 
L 136.595658 192.029192 
L 382.990636 192.029192 
L 382.990636 192.029192 
" clip-path="url(#p7185901a3c)" style="fill: none; stroke: #2ca02c; stroke-width: 1.5; stroke-linecap: square"/>
   </g>
   <g id="line2d_36">
    <defs>
     <path id="mc691a6bf9b" d="M 0 3.5 
C 0.928211 3.5 1.81853 3.131218 2.474874 2.474874 
C 3.131218 1.81853 3.5 0.928211 3.5 0 
C 3.5 -0.928211 3.131218 -1.81853 2.474874 -2.474874 
C 1.81853 -3.131218 0.928211 -3.5 0 -3.5 
C -0.928211 -3.5 -1.81853 -3.131218 -2.474874 -2.474874 
C -3.131218 -1.81853 -3.5 -0.928211 -3.5 0 
C -3.5 0.928211 -3.131218 1.81853 -2.474874 2.474874 
C -1.81853 3.131218 -0.928211 3.5 0 3.5 
z
" style="stroke: #2ca02c"/>
    </defs>
    <g clip-path="url(#p7185901a3c)">
     <use xlink:href="#mc691a6bf9b" x="104.051169" y="160.076483" style="fill: #2ca02c; stroke: #2ca02c"/>
    </g>
   </g>
   <g id="line2d_37">
    <path d="M 88.554532 192.029192 
L 93.270226 191.927809 
L 95.922803 191.642446 
L 97.985919 191.218128 
L 100.049035 190.560945 
L 101.81742 189.773693 
L 103.585805 188.745854 
L 105.35419 187.453905 
L 107.712037 185.421487 
L 113.311923 180.430094 
L 115.080308 179.173357 
L 116.553962 178.365744 
L 118.027616 177.835416 
L 119.206539 177.648222 
L 120.385463 177.699237 
L 121.564386 177.979635 
L 123.03804 178.609584 
L 124.511694 179.498059 
L 126.280079 180.827068 
L 128.932657 183.15772 
L 133.64835 187.379264 
L 135.416735 188.684484 
L 137.18512 189.725875 
L 138.953505 190.52499 
L 141.016621 191.193878 
L 143.079737 191.627605 
L 145.437583 191.900683 
L 148.679623 192.022956 
L 162.237241 192.029192 
L 382.990636 192.029192 
L 382.990636 192.029192 
" clip-path="url(#p7185901a3c)" style="fill: none; stroke: #d62728; stroke-width: 1.5; stroke-linecap: square"/>
   </g>
   <g id="line2d_38">
    <defs>
     <path id="m8e5e87f769" d="M 0 3.5 
C 0.928211 3.5 1.81853 3.131218 2.474874 2.474874 
C 3.131218 1.81853 3.5 0.928211 3.5 0 
C 3.5 -0.928211 3.131218 -1.81853 2.474874 -2.474874 
C 1.81853 -3.131218 0.928211 -3.5 0 -3.5 
C -0.928211 -3.5 -1.81853 -3.131218 -2.474874 -2.474874 
C -3.131218 -1.81853 -3.5 -0.928211 -3.5 0 
C -3.5 0.928211 -3.131218 1.81853 -2.474874 2.474874 
C -1.81853 3.131218 -0.928211 3.5 0 3.5 
z
" style="stroke: #d62728"/>
    </defs>
    <g clip-path="url(#p7185901a3c)">
     <use xlink:href="#m8e5e87f769" x="119.547806" y="170.442207" style="fill: #d62728; stroke: #d62728"/>
    </g>
   </g>
   <g id="line2d_39">
    <path d="M 88.554532 192.029192 
L 109.480422 191.930109 
L 112.42773 191.665297 
L 115.080308 191.19857 
L 117.438154 190.543849 
L 119.50127 189.745842 
L 121.859117 188.563379 
L 125.985348 186.156433 
L 128.932657 184.539299 
L 130.995773 183.63336 
L 132.764158 183.090319 
L 134.237812 182.849496 
L 135.711466 182.838076 
L 137.18512 183.058591 
L 138.953505 183.581722 
L 141.016621 184.470583 
L 143.669198 185.903527 
L 150.153277 189.547951 
L 152.216393 190.394532 
L 154.574239 191.096522 
L 156.932086 191.56177 
L 159.584663 191.862822 
L 163.121433 192.013836 
L 171.963358 192.029192 
L 382.990636 192.029192 
L 382.990636 192.029192 
" clip-path="url(#p7185901a3c)" style="fill: none; stroke: #9467bd; stroke-width: 1.5; stroke-linecap: square"/>
   </g>
   <g id="line2d_40">
    <defs>
     <path id="m90c2b42376" d="M 0 3.5 
C 0.928211 3.5 1.81853 3.131218 2.474874 2.474874 
C 3.131218 1.81853 3.5 0.928211 3.5 0 
C 3.5 -0.928211 3.131218 -1.81853 2.474874 -2.474874 
C 1.81853 -3.131218 0.928211 -3.5 0 -3.5 
C -0.928211 -3.5 -1.81853 -3.131218 -2.474874 -2.474874 
C -3.131218 -1.81853 -3.5 -0.928211 -3.5 0 
C -3.5 0.928211 -3.131218 1.81853 -2.474874 2.474874 
C -1.81853 3.131218 -0.928211 3.5 0 3.5 
z
" style="stroke: #9467bd"/>
    </defs>
    <g clip-path="url(#p7185901a3c)">
     <use xlink:href="#m90c2b42376" x="135.044443" y="178.204926" style="fill: #9467bd; stroke: #9467bd"/>
    </g>
   </g>
   <g id="line2d_41">
    <path d="M 88.554532 192.029192 
L 125.985348 191.918963 
L 129.522118 191.619192 
L 132.469427 191.137764 
L 135.122004 190.468375 
L 137.774582 189.560955 
L 146.027045 186.547528 
L 148.090161 186.091257 
L 149.858546 185.896237 
L 151.626931 185.922444 
L 153.395316 186.162883 
L 155.458432 186.660288 
L 158.111009 187.542487 
L 167.247665 190.82435 
L 169.900243 191.378561 
L 172.847551 191.75835 
L 176.384321 191.972754 
L 181.689476 192.029192 
L 382.990636 192.029192 
L 382.990636 192.029192 
" clip-path="url(#p7185901a3c)" style="fill: none; stroke: #8c564b; stroke-width: 1.5; stroke-linecap: square"/>
   </g>
   <g id="line2d_42">
    <defs>
     <path id="mce40cae6ec" d="M 0 3.5 
C 0.928211 3.5 1.81853 3.131218 2.474874 2.474874 
C 3.131218 1.81853 3.5 0.928211 3.5 0 
C 3.5 -0.928211 3.131218 -1.81853 2.474874 -2.474874 
C 1.81853 -3.131218 0.928211 -3.5 0 -3.5 
C -0.928211 -3.5 -1.81853 -3.131218 -2.474874 -2.474874 
C -3.131218 -1.81853 -3.5 -0.928211 -3.5 0 
C -3.5 0.928211 -3.131218 1.81853 -2.474874 2.474874 
C -1.81853 3.131218 -0.928211 3.5 0 3.5 
z
" style="stroke: #8c564b"/>
    </defs>
    <g clip-path="url(#p7185901a3c)">
     <use xlink:href="#mce40cae6ec" x="150.54108" y="182.803506" style="fill: #8c564b; stroke: #8c564b"/>
    </g>
   </g>
   <g id="line2d_43">
    <path d="M 88.554532 192.029192 
L 141.900813 191.91899 
L 145.437583 191.645355 
L 148.384892 191.217451 
L 151.037469 190.630744 
L 154.279508 189.667394 
L 160.763587 187.673465 
L 163.121433 187.184579 
L 165.184549 186.962154 
L 166.952934 186.965493 
L 169.01605 187.194547 
L 171.373897 187.68902 
L 174.615936 188.6315 
L 181.689476 190.794635 
L 184.342054 191.330666 
L 187.289362 191.713109 
L 190.826132 191.947514 
L 195.836556 192.028609 
L 294.276655 192.029192 
L 382.990636 192.029192 
L 382.990636 192.029192 
" clip-path="url(#p7185901a3c)" style="fill: none; stroke: #e377c2; stroke-width: 1.5; stroke-linecap: square"/>
   </g>
   <g id="line2d_44">
    <defs>
     <path id="m8e63023c93" d="M 0 3.5 
C 0.928211 3.5 1.81853 3.131218 2.474874 2.474874 
C 3.131218 1.81853 3.5 0.928211 3.5 0 
C 3.5 -0.928211 3.131218 -1.81853 2.474874 -2.474874 
C 1.81853 -3.131218 0.928211 -3.5 0 -3.5 
C -0.928211 -3.5 -1.81853 -3.131218 -2.474874 -2.474874 
C -3.131218 -1.81853 -3.5 -0.928211 -3.5 0 
C -3.5 0.928211 -3.131218 1.81853 -2.474874 2.474874 
C -1.81853 3.131218 -0.928211 3.5 0 3.5 
z
" style="stroke: #e377c2"/>
    </defs>
    <g clip-path="url(#p7185901a3c)">
     <use xlink:href="#m8e63023c93" x="166.037718" y="184.394881" style="fill: #e377c2; stroke: #e377c2"/>
    </g>
   </g>
   <g id="line2d_45">
    <path d="M 88.554532 192.029192 
L 156.637355 191.92912 
L 159.879394 191.669506 
L 162.826703 191.210143 
L 165.47928 190.556835 
L 168.131858 189.641203 
L 172.847551 187.68471 
L 176.08959 186.457877 
L 178.447437 185.806637 
L 180.215822 185.522633 
L 181.984207 185.462462 
L 183.752592 185.641888 
L 185.815708 186.103065 
L 188.173554 186.87674 
L 191.710324 188.310648 
L 196.131287 190.08351 
L 198.489134 190.807168 
L 201.141711 191.37723 
L 204.089019 191.763773 
L 207.625789 191.977169 
L 212.930944 192.029192 
L 382.990636 192.029192 
L 382.990636 192.029192 
" clip-path="url(#p7185901a3c)" style="fill: none; stroke: #7f7f7f; stroke-width: 1.5; stroke-linecap: square"/>
   </g>
   <g id="line2d_46">
    <defs>
     <path id="m4676ecc4c3" d="M 0 3.5 
C 0.928211 3.5 1.81853 3.131218 2.474874 2.474874 
C 3.131218 1.81853 3.5 0.928211 3.5 0 
C 3.5 -0.928211 3.131218 -1.81853 2.474874 -2.474874 
C 1.81853 -3.131218 0.928211 -3.5 0 -3.5 
C -0.928211 -3.5 -1.81853 -3.131218 -2.474874 -2.474874 
C -3.131218 -1.81853 -3.5 -0.928211 -3.5 0 
C -3.5 0.928211 -3.131218 1.81853 -2.474874 2.474874 
C -1.81853 3.131218 -0.928211 3.5 0 3.5 
z
" style="stroke: #7f7f7f"/>
    </defs>
    <g clip-path="url(#p7185901a3c)">
     <use xlink:href="#m4676ecc4c3" x="181.534355" y="182.166812" style="fill: #7f7f7f; stroke: #7f7f7f"/>
    </g>
   </g>
   <g id="line2d_47">
    <path d="M 88.554532 192.029192 
L 171.373897 191.929536 
L 174.321205 191.656413 
L 176.679052 191.238878 
L 179.036899 190.588539 
L 181.100014 189.78797 
L 183.16313 188.746446 
L 186.110439 186.976262 
L 190.531401 184.302096 
L 192.594517 183.294638 
L 194.362902 182.662926 
L 195.836556 182.349834 
L 197.31021 182.270897 
L 198.783864 182.442959 
L 200.257519 182.834944 
L 202.025904 183.542431 
L 204.089019 184.612235 
L 207.331059 186.585754 
L 211.162559 188.891625 
L 213.225675 189.903637 
L 215.288791 190.67445 
L 217.646638 191.296189 
L 220.004484 191.690894 
L 222.951793 191.943592 
L 226.783294 192.027938 
L 274.234958 192.029192 
L 382.990636 192.029192 
L 382.990636 192.029192 
" clip-path="url(#p7185901a3c)" style="fill: none; stroke: #bcbd22; stroke-width: 1.5; stroke-linecap: square"/>
   </g>
   <g id="line2d_48">
    <defs>
     <path id="mc19b524978" d="M 0 3.5 
C 0.928211 3.5 1.81853 3.131218 2.474874 2.474874 
C 3.131218 1.81853 3.5 0.928211 3.5 0 
C 3.5 -0.928211 3.131218 -1.81853 2.474874 -2.474874 
C 1.81853 -3.131218 0.928211 -3.5 0 -3.5 
C -0.928211 -3.5 -1.81853 -3.131218 -2.474874 -2.474874 
C -3.131218 -1.81853 -3.5 -0.928211 -3.5 0 
C -3.5 0.928211 -3.131218 1.81853 -2.474874 2.474874 
C -1.81853 3.131218 -0.928211 3.5 0 3.5 
z
" style="stroke: #bcbd22"/>
    </defs>
    <g clip-path="url(#p7185901a3c)">
     <use xlink:href="#mc19b524978" x="197.030992" y="177.384683" style="fill: #bcbd22; stroke: #bcbd22"/>
    </g>
   </g>
   <g id="line2d_49">
    <path d="M 88.554532 192.029192 
L 186.405169 191.928741 
L 189.057747 191.659034 
L 191.415594 191.190543 
L 193.478709 190.547923 
L 195.247094 189.787796 
L 197.015479 188.804016 
L 199.078595 187.364971 
L 202.025904 184.983033 
L 205.857404 181.911728 
L 207.92052 180.550165 
L 209.394174 179.803003 
L 210.867829 179.300408 
L 212.046752 179.10807 
L 213.225675 179.128165 
L 214.404599 179.357166 
L 215.878253 179.898949 
L 217.351907 180.67792 
L 219.120292 181.855271 
L 221.772869 183.937234 
L 226.783294 187.959912 
L 228.846409 189.28234 
L 230.614794 190.160525 
L 232.67791 190.921055 
L 234.741026 191.440875 
L 237.098873 191.798961 
L 240.046181 191.992724 
L 245.056605 192.029192 
L 382.990636 192.029192 
L 382.990636 192.029192 
" clip-path="url(#p7185901a3c)" style="fill: none; stroke: #17becf; stroke-width: 1.5; stroke-linecap: square"/>
   </g>
   <g id="line2d_50">
    <defs>
     <path id="m36220d14c3" d="M 0 3.5 
C 0.928211 3.5 1.81853 3.131218 2.474874 2.474874 
C 3.131218 1.81853 3.5 0.928211 3.5 0 
C 3.5 -0.928211 3.131218 -1.81853 2.474874 -2.474874 
C 1.81853 -3.131218 0.928211 -3.5 0 -3.5 
C -0.928211 -3.5 -1.81853 -3.131218 -2.474874 -2.474874 
C -3.131218 -1.81853 -3.5 -0.928211 -3.5 0 
C -3.5 0.928211 -3.131218 1.81853 -2.474874 2.474874 
C -1.81853 3.131218 -0.928211 3.5 0 3.5 
z
" style="stroke: #17becf"/>
    </defs>
    <g clip-path="url(#p7185901a3c)">
     <use xlink:href="#m36220d14c3" x="212.527629" y="172.619909" style="fill: #17becf; stroke: #17becf"/>
    </g>
   </g>
   <g id="line2d_51">
    <path d="M 88.554532 192.029192 
L 202.025904 191.925078 
L 204.678481 191.655527 
L 207.036328 191.192394 
L 209.099444 190.560672 
L 211.162559 189.67145 
L 212.930944 188.671164 
L 214.99406 187.236865 
L 218.825561 184.214903 
L 221.772869 182.016156 
L 223.835985 180.771222 
L 225.309639 180.115017 
L 226.783294 179.707551 
L 227.962217 179.59301 
L 229.14114 179.686119 
L 230.614794 180.070442 
L 232.088449 180.707556 
L 233.856834 181.738015 
L 236.21468 183.42667 
L 243.28822 188.77795 
L 245.056605 189.75583 
L 247.119721 190.622085 
L 249.182837 191.234481 
L 251.540684 191.679985 
L 254.193261 191.935387 
L 257.730031 192.027408 
L 291.918808 192.029192 
L 382.990636 192.029192 
L 382.990636 192.029192 
" clip-path="url(#p7185901a3c)" style="fill: none; stroke: #1f77b4; stroke-width: 1.5; stroke-linecap: square"/>
   </g>
   <g id="line2d_52">
    <g clip-path="url(#p7185901a3c)">
     <use xlink:href="#m3b11015ab9" x="228.024266" y="173.374471" style="fill: #1f77b4; stroke: #1f77b4"/>
    </g>
   </g>
   <g id="line2d_53">
    <path d="M 88.554532 192.029192 
L 218.53083 191.9217 
L 221.772869 191.636566 
L 224.425447 191.192382 
L 226.783294 190.589774 
L 229.14114 189.753672 
L 232.088449 188.443954 
L 237.688334 185.90901 
L 240.046181 185.128429 
L 241.814566 184.760295 
L 243.582951 184.633371 
L 245.056605 184.736745 
L 246.82499 185.08376 
L 248.888106 185.733526 
L 251.540684 186.835602 
L 259.498416 190.347035 
L 261.856263 191.021539 
L 264.50884 191.531547 
L 267.456149 191.854499 
L 270.992919 192.007499 
L 278.65592 192.029192 
L 382.990636 192.029192 
L 382.990636 192.029192 
" clip-path="url(#p7185901a3c)" style="fill: none; stroke: #ff7f0e; stroke-width: 1.5; stroke-linecap: square"/>
   </g>
   <g id="line2d_54">
    <g clip-path="url(#p7185901a3c)">
     <use xlink:href="#m1c7da1eeee" x="243.520903" y="180.935195" style="fill: #ff7f0e; stroke: #ff7f0e"/>
    </g>
   </g>
   <g id="line2d_55">
    <path d="M 88.554532 192.029192 
L 236.509411 192.138756 
L 240.930374 192.41474 
L 244.761875 192.868776 
L 251.540684 193.991575 
L 255.666915 194.531934 
L 258.614224 194.696229 
L 261.266801 194.620664 
L 264.50884 194.285157 
L 269.224534 193.533745 
L 275.11915 192.621465 
L 278.950651 192.27184 
L 283.666345 192.074993 
L 291.034615 192.029192 
L 382.990636 192.029192 
L 382.990636 192.029192 
" clip-path="url(#p7185901a3c)" style="fill: none; stroke: #2ca02c; stroke-width: 1.5; stroke-linecap: square"/>
   </g>
   <g id="line2d_56">
    <g clip-path="url(#p7185901a3c)">
     <use xlink:href="#mc691a6bf9b" x="259.01754" y="196.033764" style="fill: #2ca02c; stroke: #2ca02c"/>
    </g>
   </g>
   <g id="line2d_57">
    <path d="M 88.554532 192.029192 
L 248.003914 192.135772 
L 250.36176 192.407894 
L 252.424876 192.864252 
L 254.193261 193.467155 
L 255.961646 194.306939 
L 257.730031 195.422856 
L 259.498416 196.85363 
L 261.266801 198.586245 
L 264.21411 201.847317 
L 267.75088 205.705056 
L 269.519265 207.336446 
L 270.992919 208.429507 
L 272.171842 209.080503 
L 273.350765 209.495075 
L 274.529689 209.638335 
L 275.708612 209.487488 
L 276.887535 209.066247 
L 278.066459 208.409502 
L 279.540113 207.310543 
L 281.308498 205.673971 
L 283.666345 203.145886 
L 288.676769 197.657861 
L 290.445154 196.071599 
L 292.213539 194.808424 
L 293.981924 193.840318 
L 295.750309 193.128031 
L 297.813425 192.567991 
L 299.87654 192.240396 
L 302.529118 192.060444 
L 307.244811 192.029192 
L 382.990636 192.029192 
L 382.990636 192.029192 
" clip-path="url(#p7185901a3c)" style="fill: none; stroke: #d62728; stroke-width: 1.5; stroke-linecap: square"/>
   </g>
   <g id="line2d_58">
    <g clip-path="url(#p7185901a3c)">
     <use xlink:href="#m8e5e87f769" x="274.514177" y="218.442947" style="fill: #d62728; stroke: #d62728"/>
    </g>
   </g>
   <g id="line2d_59">
    <path d="M 88.554532 192.029192 
L 262.445725 192.120513 
L 264.50884 192.404517 
L 266.277225 192.896424 
L 267.75088 193.539004 
L 269.224534 194.439516 
L 270.698188 195.641483 
L 272.171842 197.188428 
L 273.645496 199.123874 
L 275.11915 201.489337 
L 276.887535 204.842653 
L 279.540113 210.470085 
L 283.076883 217.904057 
L 284.845268 221.083702 
L 286.318922 223.239533 
L 287.497845 224.546926 
L 288.382038 225.24019 
L 289.26623 225.655878 
L 290.150423 225.765824 
L 291.034615 225.556307 
L 291.918808 225.049916 
L 292.803 224.274855 
L 293.981924 222.872254 
L 295.160847 221.109007 
L 296.634501 218.499634 
L 298.697617 214.323903 
L 304.297503 202.582402 
L 305.771157 200.041033 
L 307.244811 197.933496 
L 308.718466 196.232328 
L 310.19212 194.894004 
L 311.665774 193.875003 
L 313.139428 193.131801 
L 314.613082 192.620875 
L 316.381467 192.253088 
L 318.444583 192.067197 
L 321.981353 192.029192 
L 382.990636 192.029192 
L 382.990636 192.029192 
" clip-path="url(#p7185901a3c)" style="fill: none; stroke: #9467bd; stroke-width: 1.5; stroke-linecap: square"/>
   </g>
   <g id="line2d_60">
    <g clip-path="url(#p7185901a3c)">
     <use xlink:href="#m90c2b42376" x="290.010814" y="242.640274" style="fill: #9467bd; stroke: #9467bd"/>
    </g>
   </g>
   <g id="line2d_61">
    <path d="M 88.554532 192.029192 
L 277.771728 192.127678 
L 279.540113 192.390896 
L 281.013767 192.811468 
L 282.487421 193.473326 
L 283.961075 194.431176 
L 285.139999 195.447333 
L 286.318922 196.715947 
L 287.497845 198.265028 
L 288.676769 200.122585 
L 290.150423 202.920967 
L 291.624077 206.252028 
L 293.687193 211.543385 
L 298.992348 225.559168 
L 300.466002 228.802123 
L 301.644925 230.980209 
L 302.823849 232.697238 
L 303.708041 233.631893 
L 304.592234 234.224488 
L 305.181696 234.412011 
L 305.771157 234.421561 
L 306.360619 234.25231 
L 307.244811 233.685051 
L 308.129004 232.773244 
L 309.013196 231.552338 
L 310.19212 229.504915 
L 311.665774 226.389529 
L 313.434159 222.052079 
L 316.676198 213.303212 
L 319.328776 206.402112 
L 321.097161 202.441956 
L 322.570815 199.730195 
L 324.044469 197.535556 
L 325.518123 195.803332 
L 326.991777 194.478817 
L 328.465431 193.507304 
L 329.939086 192.834087 
L 331.41274 192.404458 
L 333.181125 192.133414 
L 335.538971 192.031726 
L 355.285937 192.029192 
L 382.990636 192.029192 
L 382.990636 192.029192 
" clip-path="url(#p7185901a3c)" style="fill: none; stroke: #8c564b; stroke-width: 1.5; stroke-linecap: square"/>
   </g>
   <g id="line2d_62">
    <g clip-path="url(#p7185901a3c)">
     <use xlink:href="#mce40cae6ec" x="305.507451" y="255.645143" style="fill: #8c564b; stroke: #8c564b"/>
    </g>
   </g>
   <g id="line2d_63">
    <path d="M 88.554532 192.029192 
L 293.392462 192.125188 
L 295.160847 192.368271 
L 296.929232 192.851229 
L 298.402886 193.496357 
L 299.87654 194.41293 
L 301.350195 195.648615 
L 302.823849 197.251077 
L 304.297503 199.267984 
L 305.771157 201.746818 
L 307.244811 204.683721 
L 309.307927 209.322221 
L 314.318351 220.890124 
L 316.086736 224.28604 
L 317.26566 226.144973 
L 318.444583 227.59448 
L 319.328776 228.368881 
L 320.212968 228.840908 
L 320.80243 228.972354 
L 321.391891 228.947401 
L 322.276084 228.623557 
L 323.160276 227.98325 
L 324.044469 227.057368 
L 325.223392 225.432017 
L 326.402316 223.427103 
L 327.87597 220.498741 
L 329.939086 215.86714 
L 335.244241 203.68185 
L 336.717895 200.884341 
L 338.191549 198.561358 
L 339.665203 196.68493 
L 341.138857 195.207392 
L 342.612511 194.081078 
L 344.086166 193.258321 
L 345.55982 192.691456 
L 347.328205 192.281881 
L 349.391321 192.073127 
L 352.63336 192.029192 
L 382.990636 192.029192 
L 382.990636 192.029192 
" clip-path="url(#p7185901a3c)" style="fill: none; stroke: #e377c2; stroke-width: 1.5; stroke-linecap: square"/>
   </g>
   <g id="line2d_64">
    <g clip-path="url(#p7185901a3c)">
     <use xlink:href="#m8e63023c93" x="321.004088" y="247.457923" style="fill: #e377c2; stroke: #e377c2"/>
    </g>
   </g>
   <g id="line2d_65">
    <path d="M 88.554532 192.029192 
L 309.897389 192.136731 
L 312.255236 192.419742 
L 314.318351 192.898662 
L 316.086736 193.534283 
L 317.855121 194.422225 
L 319.328776 195.385352 
L 320.80243 196.5774 
L 322.570815 198.324846 
L 324.928661 201.033407 
L 329.939086 206.939785 
L 331.707471 208.655649 
L 333.181125 209.788221 
L 334.360048 210.446951 
L 335.538971 210.84522 
L 336.423164 210.950441 
L 337.307356 210.87625 
L 338.48628 210.515044 
L 339.665203 209.888443 
L 341.138857 208.789096 
L 342.612511 207.406873 
L 344.675627 205.135948 
L 351.749167 196.990554 
L 353.517552 195.499627 
L 355.285937 194.341969 
L 357.054322 193.47548 
L 358.822707 192.857983 
L 360.885823 192.395999 
L 363.24367 192.126794 
L 366.190978 192.032004 
L 382.990636 192.029192 
L 382.990636 192.029192 
" clip-path="url(#p7185901a3c)" style="fill: none; stroke: #7f7f7f; stroke-width: 1.5; stroke-linecap: square"/>
   </g>
   <g id="line2d_66">
    <g clip-path="url(#p7185901a3c)">
     <use xlink:href="#m4676ecc4c3" x="336.500725" y="220.412129" style="fill: #7f7f7f; stroke: #7f7f7f"/>
    </g>
   </g>
   <g id="line2d_67">
    <path d="M 88.554532 192.029192 
L 326.991777 191.932302 
L 330.233816 191.674325 
L 333.181125 191.214256 
L 335.833702 190.557259 
L 338.191549 189.746346 
L 342.02305 188.142087 
L 346.149281 186.475114 
L 348.507128 185.764354 
L 350.570244 185.39225 
L 352.338629 185.31555 
L 354.107014 185.484774 
L 356.17013 185.943034 
L 358.527976 186.723356 
L 362.064746 188.182402 
L 366.78044 190.107362 
L 369.138287 190.829503 
L 371.790864 191.395138 
L 374.738172 191.775533 
L 378.274942 191.981862 
L 382.990636 192.029192 
L 382.990636 192.029192 
" clip-path="url(#p7185901a3c)" style="fill: none; stroke: #bcbd22; stroke-width: 1.5; stroke-linecap: square"/>
   </g>
   <g id="line2d_68">
    <g clip-path="url(#p7185901a3c)">
     <use xlink:href="#mc19b524978" x="351.997362" y="181.951479" style="fill: #bcbd22; stroke: #bcbd22"/>
    </g>
   </g>
   <g id="line2d_69">
    <path d="M 88.554532 192.029192 
L 339.959934 191.930704 
L 342.02305 191.628493 
L 343.496704 191.214493 
L 344.970358 190.5836 
L 346.444012 189.69013 
L 347.917666 188.488395 
L 349.391321 186.932708 
L 350.864975 184.977383 
L 352.338629 182.577111 
L 353.812283 179.741968 
L 355.875399 175.279928 
L 360.885823 164.212015 
L 362.359477 161.477286 
L 363.833131 159.225874 
L 365.012055 157.864838 
L 365.896247 157.146833 
L 366.78044 156.721242 
L 367.664632 156.617599 
L 368.548825 156.848967 
L 369.433017 157.390928 
L 370.31721 158.213876 
L 371.496133 159.697062 
L 372.675057 161.556977 
L 374.148711 164.304736 
L 376.211827 168.695337 
L 381.811712 181.011803 
L 382.990636 183.174692 
L 382.990636 183.174692 
" clip-path="url(#p7185901a3c)" style="fill: none; stroke: #17becf; stroke-width: 1.5; stroke-linecap: square"/>
   </g>
   <g id="line2d_70">
    <g clip-path="url(#p7185901a3c)">
     <use xlink:href="#m36220d14c3" x="367.493999" y="138.902194" style="fill: #17becf; stroke: #17becf"/>
    </g>
   </g>
   <g id="line2d_71">
    <path d="M 88.554532 192.029192 
L 354.696476 191.944684 
L 356.17013 191.71694 
L 357.643784 191.255528 
L 358.822707 190.662704 
L 360.001631 189.825267 
L 361.180554 188.700965 
L 362.359477 187.247549 
L 363.538401 185.422766 
L 364.717324 183.184366 
L 365.896247 180.490097 
L 367.075171 177.297707 
L 368.548825 172.562548 
L 370.31721 165.992093 
L 373.559249 152.783204 
L 376.211827 142.401223 
L 377.685481 137.376502 
L 378.864404 133.952759 
L 380.043327 131.196142 
L 380.92752 129.64273 
L 381.811712 128.58935 
L 382.401174 128.191298 
L 382.990636 128.055094 
L 382.990636 128.055094 
" clip-path="url(#p7185901a3c)" style="fill: none; stroke: #1f77b4; stroke-width: 1.5; stroke-linecap: square"/>
   </g>
   <g id="line2d_72">
    <g clip-path="url(#p7185901a3c)">
     <use xlink:href="#m3b11015ab9" x="382.990636" y="96.068045" style="fill: #1f77b4; stroke: #1f77b4"/>
    </g>
   </g>
   <g id="line2d_73">
    <path d="M 88.554532 192.029192 
L 370.022479 191.928951 
L 371.496133 191.631689 
L 372.675057 191.16677 
L 373.85398 190.43393 
L 375.032903 189.372206 
L 376.211827 187.920635 
L 377.39075 186.018252 
L 378.569673 183.604093 
L 379.748597 180.617195 
L 380.92752 176.996594 
L 382.106443 172.681326 
L 382.990636 168.952326 
L 382.990636 168.952326 
" clip-path="url(#p7185901a3c)" style="fill: none; stroke: #ff7f0e; stroke-width: 1.5; stroke-linecap: square"/>
   </g>
   <g id="line2d_74">
    <g clip-path="url(#p7185901a3c)">
     <use xlink:href="#m1c7da1eeee" x="398.487273" y="53.568" style="fill: #ff7f0e; stroke: #ff7f0e"/>
    </g>
   </g>
   <g id="line2d_75"/>
   <g id="line2d_76">
    <path d="M 88.554532 147.661754 
L 97.985919 155.167641 
L 104.469997 160.053375 
L 110.069883 164.001669 
L 115.375038 167.475332 
L 120.385463 170.494513 
L 125.101156 173.085169 
L 129.816849 175.416162 
L 134.237812 177.351581 
L 138.658774 179.033374 
L 142.785006 180.373335 
L 146.911238 181.494524 
L 151.037469 182.399897 
L 155.163701 183.088145 
L 159.289933 183.546012 
L 163.121433 183.751486 
L 166.952934 183.732888 
L 170.784435 183.487679 
L 174.910667 182.989536 
L 179.036899 182.27197 
L 183.752592 181.214495 
L 189.057747 179.787509 
L 197.31021 177.301576 
L 204.678481 175.144229 
L 208.804713 174.168066 
L 212.341483 173.56428 
L 215.583522 173.253356 
L 218.53083 173.189654 
L 221.478139 173.343632 
L 224.425447 173.724141 
L 227.372755 174.340035 
L 230.320064 175.199865 
L 233.267372 176.309805 
L 236.21468 177.674893 
L 239.161989 179.300165 
L 242.109297 181.190653 
L 245.056605 183.351237 
L 248.003914 185.783546 
L 250.951222 188.486138 
L 254.193261 191.769302 
L 257.4353 195.375536 
L 260.67734 199.301676 
L 264.50884 204.315749 
L 268.929803 210.502577 
L 274.529689 218.764298 
L 284.255806 233.205943 
L 287.792576 238.003923 
L 290.739885 241.63743 
L 293.392462 244.550156 
L 295.750309 246.811829 
L 297.813425 248.509114 
L 299.87654 249.91878 
L 301.644925 250.880256 
L 303.413311 251.598225 
L 305.181696 252.057826 
L 306.65535 252.233578 
L 308.129004 252.21927 
L 309.602658 252.016891 
L 311.371043 251.528606 
L 313.139428 250.775856 
L 314.907813 249.762106 
L 316.676198 248.490826 
L 318.444583 246.965482 
L 320.507699 244.869432 
L 322.570815 242.438681 
L 324.928661 239.268773 
L 327.286508 235.705926 
L 329.939086 231.260684 
L 332.591663 226.388644 
L 335.538971 220.520106 
L 338.781011 213.570156 
L 342.317781 205.470862 
L 346.444012 195.444594 
L 351.159706 183.382795 
L 357.054322 167.670791 
L 365.601517 144.18233 
L 382.990636 96.123729 
L 382.990636 96.123729 
" clip-path="url(#p7185901a3c)" style="fill: none; stroke: #000000; stroke-width: 2; stroke-linecap: square"/>
   </g>
   <g id="line2d_77">
    <path d="M 88.554532 120.880762 
L 100.466513 179.959243 
L 123.646967 176.526794 
L 125.474909 147.163361 
L 131.06485 209.717432 
L 142.706391 179.103901 
L 145.428025 172.341957 
L 150.802676 211.343667 
L 151.598375 152.382371 
L 153.264554 177.010418 
L 159.892339 166.186596 
L 159.997425 181.734351 
L 161.046823 182.127828 
L 161.08191 146.176596 
L 163.466675 243.79745 
L 164.90804 191.506929 
L 165.879019 182.63456 
L 166.64643 195.731647 
L 166.903454 178.0918 
L 167.207058 203.090884 
L 168.21566 180.301867 
L 180.977187 174.573143 
L 184.161282 187.099854 
L 187.239294 231.787958 
L 187.984715 112.358359 
L 193.768019 210.29094 
L 200.507663 219.885638 
L 202.694879 192.922041 
L 204.276855 155.972491 
L 205.338262 175.345243 
L 206.347996 199.201682 
L 209.714841 141.7454 
L 211.442744 133.830439 
L 211.934861 182.188879 
L 214.973247 118.847066 
L 217.140175 171.821261 
L 217.149332 202.323477 
L 217.612162 188.479295 
L 218.530668 108.033796 
L 220.079079 202.948072 
L 222.676627 197.203729 
L 224.134735 162.06722 
L 226.352191 161.958873 
L 232.069794 157.255727 
L 232.750426 211.853193 
L 236.207087 183.839945 
L 241.01782 197.757481 
L 241.160564 192.515913 
L 241.855634 160.417778 
L 245.206455 208.182074 
L 245.646049 161.058104 
L 246.02011 195.632833 
L 246.943202 139.075299 
L 258.704118 168.844806 
L 260.573587 200.009845 
L 261.571304 217.793855 
L 267.380359 191.026779 
L 269.361494 156.615581 
L 269.444316 202.370533 
L 271.723339 239.212827 
L 272.786622 192.643224 
L 274.942461 206.130864 
L 276.516265 216.161553 
L 277.573 183.926984 
L 278.965238 221.024054 
L 278.985914 207.124408 
L 282.153144 256.27375 
L 282.385189 266.281275 
L 284.183586 238.282221 
L 285.081877 215.567909 
L 286.634577 222.677158 
L 289.94202 238.604214 
L 297.204298 253.387862 
L 299.122076 250.597988 
L 299.736335 262.743334 
L 300.5998 263.897737 
L 301.092708 291.57455 
L 302.859788 282.637978 
L 304.993079 295.488 
L 310.629263 278.753554 
L 314.536883 248.945527 
L 315.613757 288.235175 
L 318.222991 227.210823 
L 319.333323 234.574834 
L 319.711697 264.893587 
L 319.876198 276.148764 
L 323.564685 245.288197 
L 327.208244 239.269846 
L 327.728736 241.918883 
L 333.416855 174.454724 
L 335.989504 197.720057 
L 339.694594 206.22359 
L 340.051811 234.113778 
L 340.997841 248.922735 
L 349.648606 167.837661 
L 358.375508 137.111738 
L 369.04167 140.192087 
L 369.140904 93.296735 
L 373.639416 96.040412 
L 382.990636 117.828237 
" clip-path="url(#p7185901a3c)" style="fill: none; stroke: #808080; stroke-opacity: 0.66; stroke-width: 0.75; stroke-linecap: square"/>
    <defs>
     <path id="m2cb5dcfbda" d="M 0 1.5 
C 0.397805 1.5 0.77937 1.341951 1.06066 1.06066 
C 1.341951 0.77937 1.5 0.397805 1.5 0 
C 1.5 -0.397805 1.341951 -0.77937 1.06066 -1.06066 
C 0.77937 -1.341951 0.397805 -1.5 0 -1.5 
C -0.397805 -1.5 -0.77937 -1.341951 -1.06066 -1.06066 
C -1.341951 -0.77937 -1.5 -0.397805 -1.5 0 
C -1.5 0.397805 -1.341951 0.77937 -1.06066 1.06066 
C -0.77937 1.341951 -0.397805 1.5 0 1.5 
z
" style="stroke: #808080; stroke-opacity: 0.66"/>
    </defs>
    <g clip-path="url(#p7185901a3c)">
     <use xlink:href="#m2cb5dcfbda" x="88.554532" y="120.880762" style="fill: #808080; fill-opacity: 0.66; stroke: #808080; stroke-opacity: 0.66"/>
     <use xlink:href="#m2cb5dcfbda" x="100.466513" y="179.959243" style="fill: #808080; fill-opacity: 0.66; stroke: #808080; stroke-opacity: 0.66"/>
     <use xlink:href="#m2cb5dcfbda" x="123.646967" y="176.526794" style="fill: #808080; fill-opacity: 0.66; stroke: #808080; stroke-opacity: 0.66"/>
     <use xlink:href="#m2cb5dcfbda" x="125.474909" y="147.163361" style="fill: #808080; fill-opacity: 0.66; stroke: #808080; stroke-opacity: 0.66"/>
     <use xlink:href="#m2cb5dcfbda" x="131.06485" y="209.717432" style="fill: #808080; fill-opacity: 0.66; stroke: #808080; stroke-opacity: 0.66"/>
     <use xlink:href="#m2cb5dcfbda" x="142.706391" y="179.103901" style="fill: #808080; fill-opacity: 0.66; stroke: #808080; stroke-opacity: 0.66"/>
     <use xlink:href="#m2cb5dcfbda" x="145.428025" y="172.341957" style="fill: #808080; fill-opacity: 0.66; stroke: #808080; stroke-opacity: 0.66"/>
     <use xlink:href="#m2cb5dcfbda" x="150.802676" y="211.343667" style="fill: #808080; fill-opacity: 0.66; stroke: #808080; stroke-opacity: 0.66"/>
     <use xlink:href="#m2cb5dcfbda" x="151.598375" y="152.382371" style="fill: #808080; fill-opacity: 0.66; stroke: #808080; stroke-opacity: 0.66"/>
     <use xlink:href="#m2cb5dcfbda" x="153.264554" y="177.010418" style="fill: #808080; fill-opacity: 0.66; stroke: #808080; stroke-opacity: 0.66"/>
     <use xlink:href="#m2cb5dcfbda" x="159.892339" y="166.186596" style="fill: #808080; fill-opacity: 0.66; stroke: #808080; stroke-opacity: 0.66"/>
     <use xlink:href="#m2cb5dcfbda" x="159.997425" y="181.734351" style="fill: #808080; fill-opacity: 0.66; stroke: #808080; stroke-opacity: 0.66"/>
     <use xlink:href="#m2cb5dcfbda" x="161.046823" y="182.127828" style="fill: #808080; fill-opacity: 0.66; stroke: #808080; stroke-opacity: 0.66"/>
     <use xlink:href="#m2cb5dcfbda" x="161.08191" y="146.176596" style="fill: #808080; fill-opacity: 0.66; stroke: #808080; stroke-opacity: 0.66"/>
     <use xlink:href="#m2cb5dcfbda" x="163.466675" y="243.79745" style="fill: #808080; fill-opacity: 0.66; stroke: #808080; stroke-opacity: 0.66"/>
     <use xlink:href="#m2cb5dcfbda" x="164.90804" y="191.506929" style="fill: #808080; fill-opacity: 0.66; stroke: #808080; stroke-opacity: 0.66"/>
     <use xlink:href="#m2cb5dcfbda" x="165.879019" y="182.63456" style="fill: #808080; fill-opacity: 0.66; stroke: #808080; stroke-opacity: 0.66"/>
     <use xlink:href="#m2cb5dcfbda" x="166.64643" y="195.731647" style="fill: #808080; fill-opacity: 0.66; stroke: #808080; stroke-opacity: 0.66"/>
     <use xlink:href="#m2cb5dcfbda" x="166.903454" y="178.0918" style="fill: #808080; fill-opacity: 0.66; stroke: #808080; stroke-opacity: 0.66"/>
     <use xlink:href="#m2cb5dcfbda" x="167.207058" y="203.090884" style="fill: #808080; fill-opacity: 0.66; stroke: #808080; stroke-opacity: 0.66"/>
     <use xlink:href="#m2cb5dcfbda" x="168.21566" y="180.301867" style="fill: #808080; fill-opacity: 0.66; stroke: #808080; stroke-opacity: 0.66"/>
     <use xlink:href="#m2cb5dcfbda" x="180.977187" y="174.573143" style="fill: #808080; fill-opacity: 0.66; stroke: #808080; stroke-opacity: 0.66"/>
     <use xlink:href="#m2cb5dcfbda" x="184.161282" y="187.099854" style="fill: #808080; fill-opacity: 0.66; stroke: #808080; stroke-opacity: 0.66"/>
     <use xlink:href="#m2cb5dcfbda" x="187.239294" y="231.787958" style="fill: #808080; fill-opacity: 0.66; stroke: #808080; stroke-opacity: 0.66"/>
     <use xlink:href="#m2cb5dcfbda" x="187.984715" y="112.358359" style="fill: #808080; fill-opacity: 0.66; stroke: #808080; stroke-opacity: 0.66"/>
     <use xlink:href="#m2cb5dcfbda" x="193.768019" y="210.29094" style="fill: #808080; fill-opacity: 0.66; stroke: #808080; stroke-opacity: 0.66"/>
     <use xlink:href="#m2cb5dcfbda" x="200.507663" y="219.885638" style="fill: #808080; fill-opacity: 0.66; stroke: #808080; stroke-opacity: 0.66"/>
     <use xlink:href="#m2cb5dcfbda" x="202.694879" y="192.922041" style="fill: #808080; fill-opacity: 0.66; stroke: #808080; stroke-opacity: 0.66"/>
     <use xlink:href="#m2cb5dcfbda" x="204.276855" y="155.972491" style="fill: #808080; fill-opacity: 0.66; stroke: #808080; stroke-opacity: 0.66"/>
     <use xlink:href="#m2cb5dcfbda" x="205.338262" y="175.345243" style="fill: #808080; fill-opacity: 0.66; stroke: #808080; stroke-opacity: 0.66"/>
     <use xlink:href="#m2cb5dcfbda" x="206.347996" y="199.201682" style="fill: #808080; fill-opacity: 0.66; stroke: #808080; stroke-opacity: 0.66"/>
     <use xlink:href="#m2cb5dcfbda" x="209.714841" y="141.7454" style="fill: #808080; fill-opacity: 0.66; stroke: #808080; stroke-opacity: 0.66"/>
     <use xlink:href="#m2cb5dcfbda" x="211.442744" y="133.830439" style="fill: #808080; fill-opacity: 0.66; stroke: #808080; stroke-opacity: 0.66"/>
     <use xlink:href="#m2cb5dcfbda" x="211.934861" y="182.188879" style="fill: #808080; fill-opacity: 0.66; stroke: #808080; stroke-opacity: 0.66"/>
     <use xlink:href="#m2cb5dcfbda" x="214.973247" y="118.847066" style="fill: #808080; fill-opacity: 0.66; stroke: #808080; stroke-opacity: 0.66"/>
     <use xlink:href="#m2cb5dcfbda" x="217.140175" y="171.821261" style="fill: #808080; fill-opacity: 0.66; stroke: #808080; stroke-opacity: 0.66"/>
     <use xlink:href="#m2cb5dcfbda" x="217.149332" y="202.323477" style="fill: #808080; fill-opacity: 0.66; stroke: #808080; stroke-opacity: 0.66"/>
     <use xlink:href="#m2cb5dcfbda" x="217.612162" y="188.479295" style="fill: #808080; fill-opacity: 0.66; stroke: #808080; stroke-opacity: 0.66"/>
     <use xlink:href="#m2cb5dcfbda" x="218.530668" y="108.033796" style="fill: #808080; fill-opacity: 0.66; stroke: #808080; stroke-opacity: 0.66"/>
     <use xlink:href="#m2cb5dcfbda" x="220.079079" y="202.948072" style="fill: #808080; fill-opacity: 0.66; stroke: #808080; stroke-opacity: 0.66"/>
     <use xlink:href="#m2cb5dcfbda" x="222.676627" y="197.203729" style="fill: #808080; fill-opacity: 0.66; stroke: #808080; stroke-opacity: 0.66"/>
     <use xlink:href="#m2cb5dcfbda" x="224.134735" y="162.06722" style="fill: #808080; fill-opacity: 0.66; stroke: #808080; stroke-opacity: 0.66"/>
     <use xlink:href="#m2cb5dcfbda" x="226.352191" y="161.958873" style="fill: #808080; fill-opacity: 0.66; stroke: #808080; stroke-opacity: 0.66"/>
     <use xlink:href="#m2cb5dcfbda" x="232.069794" y="157.255727" style="fill: #808080; fill-opacity: 0.66; stroke: #808080; stroke-opacity: 0.66"/>
     <use xlink:href="#m2cb5dcfbda" x="232.750426" y="211.853193" style="fill: #808080; fill-opacity: 0.66; stroke: #808080; stroke-opacity: 0.66"/>
     <use xlink:href="#m2cb5dcfbda" x="236.207087" y="183.839945" style="fill: #808080; fill-opacity: 0.66; stroke: #808080; stroke-opacity: 0.66"/>
     <use xlink:href="#m2cb5dcfbda" x="241.01782" y="197.757481" style="fill: #808080; fill-opacity: 0.66; stroke: #808080; stroke-opacity: 0.66"/>
     <use xlink:href="#m2cb5dcfbda" x="241.160564" y="192.515913" style="fill: #808080; fill-opacity: 0.66; stroke: #808080; stroke-opacity: 0.66"/>
     <use xlink:href="#m2cb5dcfbda" x="241.855634" y="160.417778" style="fill: #808080; fill-opacity: 0.66; stroke: #808080; stroke-opacity: 0.66"/>
     <use xlink:href="#m2cb5dcfbda" x="245.206455" y="208.182074" style="fill: #808080; fill-opacity: 0.66; stroke: #808080; stroke-opacity: 0.66"/>
     <use xlink:href="#m2cb5dcfbda" x="245.646049" y="161.058104" style="fill: #808080; fill-opacity: 0.66; stroke: #808080; stroke-opacity: 0.66"/>
     <use xlink:href="#m2cb5dcfbda" x="246.02011" y="195.632833" style="fill: #808080; fill-opacity: 0.66; stroke: #808080; stroke-opacity: 0.66"/>
     <use xlink:href="#m2cb5dcfbda" x="246.943202" y="139.075299" style="fill: #808080; fill-opacity: 0.66; stroke: #808080; stroke-opacity: 0.66"/>
     <use xlink:href="#m2cb5dcfbda" x="258.704118" y="168.844806" style="fill: #808080; fill-opacity: 0.66; stroke: #808080; stroke-opacity: 0.66"/>
     <use xlink:href="#m2cb5dcfbda" x="260.573587" y="200.009845" style="fill: #808080; fill-opacity: 0.66; stroke: #808080; stroke-opacity: 0.66"/>
     <use xlink:href="#m2cb5dcfbda" x="261.571304" y="217.793855" style="fill: #808080; fill-opacity: 0.66; stroke: #808080; stroke-opacity: 0.66"/>
     <use xlink:href="#m2cb5dcfbda" x="267.380359" y="191.026779" style="fill: #808080; fill-opacity: 0.66; stroke: #808080; stroke-opacity: 0.66"/>
     <use xlink:href="#m2cb5dcfbda" x="269.361494" y="156.615581" style="fill: #808080; fill-opacity: 0.66; stroke: #808080; stroke-opacity: 0.66"/>
     <use xlink:href="#m2cb5dcfbda" x="269.444316" y="202.370533" style="fill: #808080; fill-opacity: 0.66; stroke: #808080; stroke-opacity: 0.66"/>
     <use xlink:href="#m2cb5dcfbda" x="271.723339" y="239.212827" style="fill: #808080; fill-opacity: 0.66; stroke: #808080; stroke-opacity: 0.66"/>
     <use xlink:href="#m2cb5dcfbda" x="272.786622" y="192.643224" style="fill: #808080; fill-opacity: 0.66; stroke: #808080; stroke-opacity: 0.66"/>
     <use xlink:href="#m2cb5dcfbda" x="274.942461" y="206.130864" style="fill: #808080; fill-opacity: 0.66; stroke: #808080; stroke-opacity: 0.66"/>
     <use xlink:href="#m2cb5dcfbda" x="276.516265" y="216.161553" style="fill: #808080; fill-opacity: 0.66; stroke: #808080; stroke-opacity: 0.66"/>
     <use xlink:href="#m2cb5dcfbda" x="277.573" y="183.926984" style="fill: #808080; fill-opacity: 0.66; stroke: #808080; stroke-opacity: 0.66"/>
     <use xlink:href="#m2cb5dcfbda" x="278.965238" y="221.024054" style="fill: #808080; fill-opacity: 0.66; stroke: #808080; stroke-opacity: 0.66"/>
     <use xlink:href="#m2cb5dcfbda" x="278.985914" y="207.124408" style="fill: #808080; fill-opacity: 0.66; stroke: #808080; stroke-opacity: 0.66"/>
     <use xlink:href="#m2cb5dcfbda" x="282.153144" y="256.27375" style="fill: #808080; fill-opacity: 0.66; stroke: #808080; stroke-opacity: 0.66"/>
     <use xlink:href="#m2cb5dcfbda" x="282.385189" y="266.281275" style="fill: #808080; fill-opacity: 0.66; stroke: #808080; stroke-opacity: 0.66"/>
     <use xlink:href="#m2cb5dcfbda" x="284.183586" y="238.282221" style="fill: #808080; fill-opacity: 0.66; stroke: #808080; stroke-opacity: 0.66"/>
     <use xlink:href="#m2cb5dcfbda" x="285.081877" y="215.567909" style="fill: #808080; fill-opacity: 0.66; stroke: #808080; stroke-opacity: 0.66"/>
     <use xlink:href="#m2cb5dcfbda" x="286.634577" y="222.677158" style="fill: #808080; fill-opacity: 0.66; stroke: #808080; stroke-opacity: 0.66"/>
     <use xlink:href="#m2cb5dcfbda" x="289.94202" y="238.604214" style="fill: #808080; fill-opacity: 0.66; stroke: #808080; stroke-opacity: 0.66"/>
     <use xlink:href="#m2cb5dcfbda" x="297.204298" y="253.387862" style="fill: #808080; fill-opacity: 0.66; stroke: #808080; stroke-opacity: 0.66"/>
     <use xlink:href="#m2cb5dcfbda" x="299.122076" y="250.597988" style="fill: #808080; fill-opacity: 0.66; stroke: #808080; stroke-opacity: 0.66"/>
     <use xlink:href="#m2cb5dcfbda" x="299.736335" y="262.743334" style="fill: #808080; fill-opacity: 0.66; stroke: #808080; stroke-opacity: 0.66"/>
     <use xlink:href="#m2cb5dcfbda" x="300.5998" y="263.897737" style="fill: #808080; fill-opacity: 0.66; stroke: #808080; stroke-opacity: 0.66"/>
     <use xlink:href="#m2cb5dcfbda" x="301.092708" y="291.57455" style="fill: #808080; fill-opacity: 0.66; stroke: #808080; stroke-opacity: 0.66"/>
     <use xlink:href="#m2cb5dcfbda" x="302.859788" y="282.637978" style="fill: #808080; fill-opacity: 0.66; stroke: #808080; stroke-opacity: 0.66"/>
     <use xlink:href="#m2cb5dcfbda" x="304.993079" y="295.488" style="fill: #808080; fill-opacity: 0.66; stroke: #808080; stroke-opacity: 0.66"/>
     <use xlink:href="#m2cb5dcfbda" x="310.629263" y="278.753554" style="fill: #808080; fill-opacity: 0.66; stroke: #808080; stroke-opacity: 0.66"/>
     <use xlink:href="#m2cb5dcfbda" x="314.536883" y="248.945527" style="fill: #808080; fill-opacity: 0.66; stroke: #808080; stroke-opacity: 0.66"/>
     <use xlink:href="#m2cb5dcfbda" x="315.613757" y="288.235175" style="fill: #808080; fill-opacity: 0.66; stroke: #808080; stroke-opacity: 0.66"/>
     <use xlink:href="#m2cb5dcfbda" x="318.222991" y="227.210823" style="fill: #808080; fill-opacity: 0.66; stroke: #808080; stroke-opacity: 0.66"/>
     <use xlink:href="#m2cb5dcfbda" x="319.333323" y="234.574834" style="fill: #808080; fill-opacity: 0.66; stroke: #808080; stroke-opacity: 0.66"/>
     <use xlink:href="#m2cb5dcfbda" x="319.711697" y="264.893587" style="fill: #808080; fill-opacity: 0.66; stroke: #808080; stroke-opacity: 0.66"/>
     <use xlink:href="#m2cb5dcfbda" x="319.876198" y="276.148764" style="fill: #808080; fill-opacity: 0.66; stroke: #808080; stroke-opacity: 0.66"/>
     <use xlink:href="#m2cb5dcfbda" x="323.564685" y="245.288197" style="fill: #808080; fill-opacity: 0.66; stroke: #808080; stroke-opacity: 0.66"/>
     <use xlink:href="#m2cb5dcfbda" x="327.208244" y="239.269846" style="fill: #808080; fill-opacity: 0.66; stroke: #808080; stroke-opacity: 0.66"/>
     <use xlink:href="#m2cb5dcfbda" x="327.728736" y="241.918883" style="fill: #808080; fill-opacity: 0.66; stroke: #808080; stroke-opacity: 0.66"/>
     <use xlink:href="#m2cb5dcfbda" x="333.416855" y="174.454724" style="fill: #808080; fill-opacity: 0.66; stroke: #808080; stroke-opacity: 0.66"/>
     <use xlink:href="#m2cb5dcfbda" x="335.989504" y="197.720057" style="fill: #808080; fill-opacity: 0.66; stroke: #808080; stroke-opacity: 0.66"/>
     <use xlink:href="#m2cb5dcfbda" x="339.694594" y="206.22359" style="fill: #808080; fill-opacity: 0.66; stroke: #808080; stroke-opacity: 0.66"/>
     <use xlink:href="#m2cb5dcfbda" x="340.051811" y="234.113778" style="fill: #808080; fill-opacity: 0.66; stroke: #808080; stroke-opacity: 0.66"/>
     <use xlink:href="#m2cb5dcfbda" x="340.997841" y="248.922735" style="fill: #808080; fill-opacity: 0.66; stroke: #808080; stroke-opacity: 0.66"/>
     <use xlink:href="#m2cb5dcfbda" x="349.648606" y="167.837661" style="fill: #808080; fill-opacity: 0.66; stroke: #808080; stroke-opacity: 0.66"/>
     <use xlink:href="#m2cb5dcfbda" x="358.375508" y="137.111738" style="fill: #808080; fill-opacity: 0.66; stroke: #808080; stroke-opacity: 0.66"/>
     <use xlink:href="#m2cb5dcfbda" x="369.04167" y="140.192087" style="fill: #808080; fill-opacity: 0.66; stroke: #808080; stroke-opacity: 0.66"/>
     <use xlink:href="#m2cb5dcfbda" x="369.140904" y="93.296735" style="fill: #808080; fill-opacity: 0.66; stroke: #808080; stroke-opacity: 0.66"/>
     <use xlink:href="#m2cb5dcfbda" x="373.639416" y="96.040412" style="fill: #808080; fill-opacity: 0.66; stroke: #808080; stroke-opacity: 0.66"/>
     <use xlink:href="#m2cb5dcfbda" x="382.990636" y="117.828237" style="fill: #808080; fill-opacity: 0.66; stroke: #808080; stroke-opacity: 0.66"/>
    </g>
   </g>
   <g id="patch_3">
    <path d="M 57.6 307.584 
L 57.6 41.472 
" style="fill: none; stroke: #000000; stroke-width: 0.8; stroke-linejoin: miter; stroke-linecap: square"/>
   </g>
   <g id="patch_4">
    <path d="M 414.72 307.584 
L 414.72 41.472 
" style="fill: none; stroke: #000000; stroke-width: 0.8; stroke-linejoin: miter; stroke-linecap: square"/>
   </g>
   <g id="patch_5">
    <path d="M 57.6 307.584 
L 414.72 307.584 
" style="fill: none; stroke: #000000; stroke-width: 0.8; stroke-linejoin: miter; stroke-linecap: square"/>
   </g>
   <g id="patch_6">
    <path d="M 57.6 41.472 
L 414.72 41.472 
" style="fill: none; stroke: #000000; stroke-width: 0.8; stroke-linejoin: miter; stroke-linecap: square"/>
   </g>
   <g id="legend_1">
    <g id="patch_7">
     <path d="M 64.6 78.82825 
L 142.246875 78.82825 
Q 144.246875 78.82825 144.246875 76.82825 
L 144.246875 48.472 
Q 144.246875 46.472 142.246875 46.472 
L 64.6 46.472 
Q 62.6 46.472 62.6 48.472 
L 62.6 76.82825 
Q 62.6 78.82825 64.6 78.82825 
z
" style="fill: #ffffff; opacity: 0.8; stroke: #cccccc; stroke-linejoin: miter"/>
    </g>
    <g id="line2d_78">
     <path d="M 66.6 54.570437 
L 76.6 54.570437 
L 86.6 54.570437 
" style="fill: none; stroke: #000000; stroke-width: 2; stroke-linecap: square"/>
    </g>
    <g id="text_17">
     <!-- Spline Fit -->
     <g transform="translate(94.6 58.070437) scale(0.1 -0.1)">
      <defs>
       <path id="DejaVuSans-53" d="M 3425 4513 
L 3425 3897 
Q 3066 4069 2747 4153 
Q 2428 4238 2131 4238 
Q 1616 4238 1336 4038 
Q 1056 3838 1056 3469 
Q 1056 3159 1242 3001 
Q 1428 2844 1947 2747 
L 2328 2669 
Q 3034 2534 3370 2195 
Q 3706 1856 3706 1288 
Q 3706 609 3251 259 
Q 2797 -91 1919 -91 
Q 1588 -91 1214 -16 
Q 841 59 441 206 
L 441 856 
Q 825 641 1194 531 
Q 1563 422 1919 422 
Q 2459 422 2753 634 
Q 3047 847 3047 1241 
Q 3047 1584 2836 1778 
Q 2625 1972 2144 2069 
L 1759 2144 
Q 1053 2284 737 2584 
Q 422 2884 422 3419 
Q 422 4038 858 4394 
Q 1294 4750 2059 4750 
Q 2388 4750 2728 4690 
Q 3069 4631 3425 4513 
z
" transform="scale(0.015625)"/>
       <path id="DejaVuSans-70" d="M 1159 525 
L 1159 -1331 
L 581 -1331 
L 581 3500 
L 1159 3500 
L 1159 2969 
Q 1341 3281 1617 3432 
Q 1894 3584 2278 3584 
Q 2916 3584 3314 3078 
Q 3713 2572 3713 1747 
Q 3713 922 3314 415 
Q 2916 -91 2278 -91 
Q 1894 -91 1617 61 
Q 1341 213 1159 525 
z
M 3116 1747 
Q 3116 2381 2855 2742 
Q 2594 3103 2138 3103 
Q 1681 3103 1420 2742 
Q 1159 2381 1159 1747 
Q 1159 1113 1420 752 
Q 1681 391 2138 391 
Q 2594 391 2855 752 
Q 3116 1113 3116 1747 
z
" transform="scale(0.015625)"/>
       <path id="DejaVuSans-6c" d="M 603 4863 
L 1178 4863 
L 1178 0 
L 603 0 
L 603 4863 
z
" transform="scale(0.015625)"/>
       <path id="DejaVuSans-69" d="M 603 3500 
L 1178 3500 
L 1178 0 
L 603 0 
L 603 3500 
z
M 603 4863 
L 1178 4863 
L 1178 4134 
L 603 4134 
L 603 4863 
z
" transform="scale(0.015625)"/>
       <path id="DejaVuSans-6e" d="M 3513 2113 
L 3513 0 
L 2938 0 
L 2938 2094 
Q 2938 2591 2744 2837 
Q 2550 3084 2163 3084 
Q 1697 3084 1428 2787 
Q 1159 2491 1159 1978 
L 1159 0 
L 581 0 
L 581 3500 
L 1159 3500 
L 1159 2956 
Q 1366 3272 1645 3428 
Q 1925 3584 2291 3584 
Q 2894 3584 3203 3211 
Q 3513 2838 3513 2113 
z
" transform="scale(0.015625)"/>
       <path id="DejaVuSans-65" d="M 3597 1894 
L 3597 1613 
L 953 1613 
Q 991 1019 1311 708 
Q 1631 397 2203 397 
Q 2534 397 2845 478 
Q 3156 559 3463 722 
L 3463 178 
Q 3153 47 2828 -22 
Q 2503 -91 2169 -91 
Q 1331 -91 842 396 
Q 353 884 353 1716 
Q 353 2575 817 3079 
Q 1281 3584 2069 3584 
Q 2775 3584 3186 3129 
Q 3597 2675 3597 1894 
z
M 3022 2063 
Q 3016 2534 2758 2815 
Q 2500 3097 2075 3097 
Q 1594 3097 1305 2825 
Q 1016 2553 972 2059 
L 3022 2063 
z
" transform="scale(0.015625)"/>
       <path id="DejaVuSans-20" transform="scale(0.015625)"/>
       <path id="DejaVuSans-46" d="M 628 4666 
L 3309 4666 
L 3309 4134 
L 1259 4134 
L 1259 2759 
L 3109 2759 
L 3109 2228 
L 1259 2228 
L 1259 0 
L 628 0 
L 628 4666 
z
" transform="scale(0.015625)"/>
       <path id="DejaVuSans-74" d="M 1172 4494 
L 1172 3500 
L 2356 3500 
L 2356 3053 
L 1172 3053 
L 1172 1153 
Q 1172 725 1289 603 
Q 1406 481 1766 481 
L 2356 481 
L 2356 0 
L 1766 0 
Q 1100 0 847 248 
Q 594 497 594 1153 
L 594 3053 
L 172 3053 
L 172 3500 
L 594 3500 
L 594 4494 
L 1172 4494 
z
" transform="scale(0.015625)"/>
      </defs>
      <use xlink:href="#DejaVuSans-53"/>
      <use xlink:href="#DejaVuSans-70" x="63.476562"/>
      <use xlink:href="#DejaVuSans-6c" x="126.953125"/>
      <use xlink:href="#DejaVuSans-69" x="154.736328"/>
      <use xlink:href="#DejaVuSans-6e" x="182.519531"/>
      <use xlink:href="#DejaVuSans-65" x="245.898438"/>
      <use xlink:href="#DejaVuSans-20" x="307.421875"/>
      <use xlink:href="#DejaVuSans-46" x="339.208984"/>
      <use xlink:href="#DejaVuSans-69" x="389.478516"/>
      <use xlink:href="#DejaVuSans-74" x="417.261719"/>
     </g>
    </g>
    <g id="line2d_79">
     <path d="M 66.6 69.248562 
L 76.6 69.248562 
L 86.6 69.248562 
" style="fill: none; stroke: #808080; stroke-opacity: 0.66; stroke-width: 0.75; stroke-linecap: square"/>
     <g>
      <use xlink:href="#m2cb5dcfbda" x="76.6" y="69.248562" style="fill: #808080; fill-opacity: 0.66; stroke: #808080; stroke-opacity: 0.66"/>
     </g>
    </g>
    <g id="text_18">
     <!-- Data -->
     <g transform="translate(94.6 72.748562) scale(0.1 -0.1)">
      <defs>
       <path id="DejaVuSans-44" d="M 1259 4147 
L 1259 519 
L 2022 519 
Q 2988 519 3436 956 
Q 3884 1394 3884 2338 
Q 3884 3275 3436 3711 
Q 2988 4147 2022 4147 
L 1259 4147 
z
M 628 4666 
L 1925 4666 
Q 3281 4666 3915 4102 
Q 4550 3538 4550 2338 
Q 4550 1131 3912 565 
Q 3275 0 1925 0 
L 628 0 
L 628 4666 
z
" transform="scale(0.015625)"/>
       <path id="DejaVuSans-61" d="M 2194 1759 
Q 1497 1759 1228 1600 
Q 959 1441 959 1056 
Q 959 750 1161 570 
Q 1363 391 1709 391 
Q 2188 391 2477 730 
Q 2766 1069 2766 1631 
L 2766 1759 
L 2194 1759 
z
M 3341 1997 
L 3341 0 
L 2766 0 
L 2766 531 
Q 2569 213 2275 61 
Q 1981 -91 1556 -91 
Q 1019 -91 701 211 
Q 384 513 384 1019 
Q 384 1609 779 1909 
Q 1175 2209 1959 2209 
L 2766 2209 
L 2766 2266 
Q 2766 2663 2505 2880 
Q 2244 3097 1772 3097 
Q 1472 3097 1187 3025 
Q 903 2953 641 2809 
L 641 3341 
Q 956 3463 1253 3523 
Q 1550 3584 1831 3584 
Q 2591 3584 2966 3190 
Q 3341 2797 3341 1997 
z
" transform="scale(0.015625)"/>
      </defs>
      <use xlink:href="#DejaVuSans-44"/>
      <use xlink:href="#DejaVuSans-61" x="77.001953"/>
      <use xlink:href="#DejaVuSans-74" x="138.28125"/>
      <use xlink:href="#DejaVuSans-61" x="177.490234"/>
     </g>
    </g>
   </g>
  </g>
 </g>
 <defs>
  <clipPath id="p7185901a3c">
   <rect x="57.6" y="41.472" width="357.12" height="266.112"/>
  </clipPath>
 </defs>
</svg>
