<?xml version="1.0" encoding="utf-8" standalone="no"?>
<!DOCTYPE svg PUBLIC "-//W3C//DTD SVG 1.1//EN"
  "http://www.w3.org/Graphics/SVG/1.1/DTD/svg11.dtd">
<svg xmlns:xlink="http://www.w3.org/1999/xlink" width="720pt" height="288pt" viewBox="0 0 720 288" xmlns="http://www.w3.org/2000/svg" version="1.1">
 <metadata>
  <rdf:RDF xmlns:dc="http://purl.org/dc/elements/1.1/" xmlns:cc="http://creativecommons.org/ns#" xmlns:rdf="http://www.w3.org/1999/02/22-rdf-syntax-ns#">
   <cc:Work>
    <dc:type rdf:resource="http://purl.org/dc/dcmitype/StillImage"/>
    <dc:date>2022-11-29T09:41:17.957390</dc:date>
    <dc:format>image/svg+xml</dc:format>
    <dc:creator>
     <cc:Agent>
      <dc:title>Matplotlib v3.6.2, https://matplotlib.org/</dc:title>
     </cc:Agent>
    </dc:creator>
   </cc:Work>
  </rdf:RDF>
 </metadata>
 <defs>
  <style type="text/css">*{stroke-linejoin: round; stroke-linecap: butt}</style>
 </defs>
 <g id="figure_1">
  <g id="patch_1">
   <path d="M 0 288 
L 720 288 
L 720 0 
L 0 0 
z
" style="fill: #ffffff"/>
  </g>
  <g id="axes_1">
   <g id="patch_2">
    <path d="M 33.64 260.12 
L 346.68 260.12 
L 346.68 14.76 
L 33.64 14.76 
z
" style="fill: #ffffff"/>
   </g>
   <g id="matplotlib.axis_1">
    <g id="xtick_1">
     <g id="line2d_1">
      <defs>
       <path id="m72a723abd6" d="M 0 0 
L 0 3.5 
" style="stroke: #000000; stroke-width: 0.8"/>
      </defs>
      <g>
       <use xlink:href="#m72a723abd6" x="76.636181" y="260.12" style="stroke: #000000; stroke-width: 0.8"/>
      </g>
     </g>
     <g id="text_1">
      <!-- −2 -->
      <g transform="translate(69.265087 274.718437) scale(0.1 -0.1)">
       <defs>
        <path id="DejaVuSans-2212" d="M 678 2272 
L 4684 2272 
L 4684 1741 
L 678 1741 
L 678 2272 
z
" transform="scale(0.015625)"/>
        <path id="DejaVuSans-32" d="M 1228 531 
L 3431 531 
L 3431 0 
L 469 0 
L 469 531 
Q 828 903 1448 1529 
Q 2069 2156 2228 2338 
Q 2531 2678 2651 2914 
Q 2772 3150 2772 3378 
Q 2772 3750 2511 3984 
Q 2250 4219 1831 4219 
Q 1534 4219 1204 4116 
Q 875 4013 500 3803 
L 500 4441 
Q 881 4594 1212 4672 
Q 1544 4750 1819 4750 
Q 2544 4750 2975 4387 
Q 3406 4025 3406 3419 
Q 3406 3131 3298 2873 
Q 3191 2616 2906 2266 
Q 2828 2175 2409 1742 
Q 1991 1309 1228 531 
z
" transform="scale(0.015625)"/>
       </defs>
       <use xlink:href="#DejaVuSans-2212"/>
       <use xlink:href="#DejaVuSans-32" x="83.789062"/>
      </g>
     </g>
    </g>
    <g id="xtick_2">
     <g id="line2d_2">
      <g>
       <use xlink:href="#m72a723abd6" x="129.711884" y="260.12" style="stroke: #000000; stroke-width: 0.8"/>
      </g>
     </g>
     <g id="text_2">
      <!-- 0 -->
      <g transform="translate(126.530634 274.718437) scale(0.1 -0.1)">
       <defs>
        <path id="DejaVuSans-30" d="M 2034 4250 
Q 1547 4250 1301 3770 
Q 1056 3291 1056 2328 
Q 1056 1369 1301 889 
Q 1547 409 2034 409 
Q 2525 409 2770 889 
Q 3016 1369 3016 2328 
Q 3016 3291 2770 3770 
Q 2525 4250 2034 4250 
z
M 2034 4750 
Q 2819 4750 3233 4129 
Q 3647 3509 3647 2328 
Q 3647 1150 3233 529 
Q 2819 -91 2034 -91 
Q 1250 -91 836 529 
Q 422 1150 422 2328 
Q 422 3509 836 4129 
Q 1250 4750 2034 4750 
z
" transform="scale(0.015625)"/>
       </defs>
       <use xlink:href="#DejaVuSans-30"/>
      </g>
     </g>
    </g>
    <g id="xtick_3">
     <g id="line2d_3">
      <g>
       <use xlink:href="#m72a723abd6" x="182.787587" y="260.12" style="stroke: #000000; stroke-width: 0.8"/>
      </g>
     </g>
     <g id="text_3">
      <!-- 2 -->
      <g transform="translate(179.606337 274.718437) scale(0.1 -0.1)">
       <use xlink:href="#DejaVuSans-32"/>
      </g>
     </g>
    </g>
    <g id="xtick_4">
     <g id="line2d_4">
      <g>
       <use xlink:href="#m72a723abd6" x="235.86329" y="260.12" style="stroke: #000000; stroke-width: 0.8"/>
      </g>
     </g>
     <g id="text_4">
      <!-- 4 -->
      <g transform="translate(232.68204 274.718437) scale(0.1 -0.1)">
       <defs>
        <path id="DejaVuSans-34" d="M 2419 4116 
L 825 1625 
L 2419 1625 
L 2419 4116 
z
M 2253 4666 
L 3047 4666 
L 3047 1625 
L 3713 1625 
L 3713 1100 
L 3047 1100 
L 3047 0 
L 2419 0 
L 2419 1100 
L 313 1100 
L 313 1709 
L 2253 4666 
z
" transform="scale(0.015625)"/>
       </defs>
       <use xlink:href="#DejaVuSans-34"/>
      </g>
     </g>
    </g>
    <g id="xtick_5">
     <g id="line2d_5">
      <g>
       <use xlink:href="#m72a723abd6" x="288.938993" y="260.12" style="stroke: #000000; stroke-width: 0.8"/>
      </g>
     </g>
     <g id="text_5">
      <!-- 6 -->
      <g transform="translate(285.757743 274.718437) scale(0.1 -0.1)">
       <defs>
        <path id="DejaVuSans-36" d="M 2113 2584 
Q 1688 2584 1439 2293 
Q 1191 2003 1191 1497 
Q 1191 994 1439 701 
Q 1688 409 2113 409 
Q 2538 409 2786 701 
Q 3034 994 3034 1497 
Q 3034 2003 2786 2293 
Q 2538 2584 2113 2584 
z
M 3366 4563 
L 3366 3988 
Q 3128 4100 2886 4159 
Q 2644 4219 2406 4219 
Q 1781 4219 1451 3797 
Q 1122 3375 1075 2522 
Q 1259 2794 1537 2939 
Q 1816 3084 2150 3084 
Q 2853 3084 3261 2657 
Q 3669 2231 3669 1497 
Q 3669 778 3244 343 
Q 2819 -91 2113 -91 
Q 1303 -91 875 529 
Q 447 1150 447 2328 
Q 447 3434 972 4092 
Q 1497 4750 2381 4750 
Q 2619 4750 2861 4703 
Q 3103 4656 3366 4563 
z
" transform="scale(0.015625)"/>
       </defs>
       <use xlink:href="#DejaVuSans-36"/>
      </g>
     </g>
    </g>
    <g id="xtick_6">
     <g id="line2d_6">
      <g>
       <use xlink:href="#m72a723abd6" x="342.014696" y="260.12" style="stroke: #000000; stroke-width: 0.8"/>
      </g>
     </g>
     <g id="text_6">
      <!-- 8 -->
      <g transform="translate(338.833446 274.718437) scale(0.1 -0.1)">
       <defs>
        <path id="DejaVuSans-38" d="M 2034 2216 
Q 1584 2216 1326 1975 
Q 1069 1734 1069 1313 
Q 1069 891 1326 650 
Q 1584 409 2034 409 
Q 2484 409 2743 651 
Q 3003 894 3003 1313 
Q 3003 1734 2745 1975 
Q 2488 2216 2034 2216 
z
M 1403 2484 
Q 997 2584 770 2862 
Q 544 3141 544 3541 
Q 544 4100 942 4425 
Q 1341 4750 2034 4750 
Q 2731 4750 3128 4425 
Q 3525 4100 3525 3541 
Q 3525 3141 3298 2862 
Q 3072 2584 2669 2484 
Q 3125 2378 3379 2068 
Q 3634 1759 3634 1313 
Q 3634 634 3220 271 
Q 2806 -91 2034 -91 
Q 1263 -91 848 271 
Q 434 634 434 1313 
Q 434 1759 690 2068 
Q 947 2378 1403 2484 
z
M 1172 3481 
Q 1172 3119 1398 2916 
Q 1625 2713 2034 2713 
Q 2441 2713 2670 2916 
Q 2900 3119 2900 3481 
Q 2900 3844 2670 4047 
Q 2441 4250 2034 4250 
Q 1625 4250 1398 4047 
Q 1172 3844 1172 3481 
z
" transform="scale(0.015625)"/>
       </defs>
       <use xlink:href="#DejaVuSans-38"/>
      </g>
     </g>
    </g>
   </g>
   <g id="matplotlib.axis_2">
    <g id="ytick_1">
     <g id="line2d_7">
      <defs>
       <path id="m18647a5756" d="M 0 0 
L -3.5 0 
" style="stroke: #000000; stroke-width: 0.8"/>
      </defs>
      <g>
       <use xlink:href="#m18647a5756" x="33.64" y="248.967273" style="stroke: #000000; stroke-width: 0.8"/>
      </g>
     </g>
     <g id="text_7">
      <!-- 0.0 -->
      <g transform="translate(10.736875 252.766491) scale(0.1 -0.1)">
       <defs>
        <path id="DejaVuSans-2e" d="M 684 794 
L 1344 794 
L 1344 0 
L 684 0 
L 684 794 
z
" transform="scale(0.015625)"/>
       </defs>
       <use xlink:href="#DejaVuSans-30"/>
       <use xlink:href="#DejaVuSans-2e" x="63.623047"/>
       <use xlink:href="#DejaVuSans-30" x="95.410156"/>
      </g>
     </g>
    </g>
    <g id="ytick_2">
     <g id="line2d_8">
      <g>
       <use xlink:href="#m18647a5756" x="33.64" y="215.509091" style="stroke: #000000; stroke-width: 0.8"/>
      </g>
     </g>
     <g id="text_8">
      <!-- 0.1 -->
      <g transform="translate(10.736875 219.30831) scale(0.1 -0.1)">
       <defs>
        <path id="DejaVuSans-31" d="M 794 531 
L 1825 531 
L 1825 4091 
L 703 3866 
L 703 4441 
L 1819 4666 
L 2450 4666 
L 2450 531 
L 3481 531 
L 3481 0 
L 794 0 
L 794 531 
z
" transform="scale(0.015625)"/>
       </defs>
       <use xlink:href="#DejaVuSans-30"/>
       <use xlink:href="#DejaVuSans-2e" x="63.623047"/>
       <use xlink:href="#DejaVuSans-31" x="95.410156"/>
      </g>
     </g>
    </g>
    <g id="ytick_3">
     <g id="line2d_9">
      <g>
       <use xlink:href="#m18647a5756" x="33.64" y="182.050909" style="stroke: #000000; stroke-width: 0.8"/>
      </g>
     </g>
     <g id="text_9">
      <!-- 0.2 -->
      <g transform="translate(10.736875 185.850128) scale(0.1 -0.1)">
       <use xlink:href="#DejaVuSans-30"/>
       <use xlink:href="#DejaVuSans-2e" x="63.623047"/>
       <use xlink:href="#DejaVuSans-32" x="95.410156"/>
      </g>
     </g>
    </g>
    <g id="ytick_4">
     <g id="line2d_10">
      <g>
       <use xlink:href="#m18647a5756" x="33.64" y="148.592727" style="stroke: #000000; stroke-width: 0.8"/>
      </g>
     </g>
     <g id="text_10">
      <!-- 0.3 -->
      <g transform="translate(10.736875 152.391946) scale(0.1 -0.1)">
       <defs>
        <path id="DejaVuSans-33" d="M 2597 2516 
Q 3050 2419 3304 2112 
Q 3559 1806 3559 1356 
Q 3559 666 3084 287 
Q 2609 -91 1734 -91 
Q 1441 -91 1130 -33 
Q 819 25 488 141 
L 488 750 
Q 750 597 1062 519 
Q 1375 441 1716 441 
Q 2309 441 2620 675 
Q 2931 909 2931 1356 
Q 2931 1769 2642 2001 
Q 2353 2234 1838 2234 
L 1294 2234 
L 1294 2753 
L 1863 2753 
Q 2328 2753 2575 2939 
Q 2822 3125 2822 3475 
Q 2822 3834 2567 4026 
Q 2313 4219 1838 4219 
Q 1578 4219 1281 4162 
Q 984 4106 628 3988 
L 628 4550 
Q 988 4650 1302 4700 
Q 1616 4750 1894 4750 
Q 2613 4750 3031 4423 
Q 3450 4097 3450 3541 
Q 3450 3153 3228 2886 
Q 3006 2619 2597 2516 
z
" transform="scale(0.015625)"/>
       </defs>
       <use xlink:href="#DejaVuSans-30"/>
       <use xlink:href="#DejaVuSans-2e" x="63.623047"/>
       <use xlink:href="#DejaVuSans-33" x="95.410156"/>
      </g>
     </g>
    </g>
    <g id="ytick_5">
     <g id="line2d_11">
      <g>
       <use xlink:href="#m18647a5756" x="33.64" y="115.134545" style="stroke: #000000; stroke-width: 0.8"/>
      </g>
     </g>
     <g id="text_11">
      <!-- 0.4 -->
      <g transform="translate(10.736875 118.933764) scale(0.1 -0.1)">
       <use xlink:href="#DejaVuSans-30"/>
       <use xlink:href="#DejaVuSans-2e" x="63.623047"/>
       <use xlink:href="#DejaVuSans-34" x="95.410156"/>
      </g>
     </g>
    </g>
    <g id="ytick_6">
     <g id="line2d_12">
      <g>
       <use xlink:href="#m18647a5756" x="33.64" y="81.676364" style="stroke: #000000; stroke-width: 0.8"/>
      </g>
     </g>
     <g id="text_12">
      <!-- 0.5 -->
      <g transform="translate(10.736875 85.475582) scale(0.1 -0.1)">
       <defs>
        <path id="DejaVuSans-35" d="M 691 4666 
L 3169 4666 
L 3169 4134 
L 1269 4134 
L 1269 2991 
Q 1406 3038 1543 3061 
Q 1681 3084 1819 3084 
Q 2600 3084 3056 2656 
Q 3513 2228 3513 1497 
Q 3513 744 3044 326 
Q 2575 -91 1722 -91 
Q 1428 -91 1123 -41 
Q 819 9 494 109 
L 494 744 
Q 775 591 1075 516 
Q 1375 441 1709 441 
Q 2250 441 2565 725 
Q 2881 1009 2881 1497 
Q 2881 1984 2565 2268 
Q 2250 2553 1709 2553 
Q 1456 2553 1204 2497 
Q 953 2441 691 2322 
L 691 4666 
z
" transform="scale(0.015625)"/>
       </defs>
       <use xlink:href="#DejaVuSans-30"/>
       <use xlink:href="#DejaVuSans-2e" x="63.623047"/>
       <use xlink:href="#DejaVuSans-35" x="95.410156"/>
      </g>
     </g>
    </g>
    <g id="ytick_7">
     <g id="line2d_13">
      <g>
       <use xlink:href="#m18647a5756" x="33.64" y="48.218182" style="stroke: #000000; stroke-width: 0.8"/>
      </g>
     </g>
     <g id="text_13">
      <!-- 0.6 -->
      <g transform="translate(10.736875 52.017401) scale(0.1 -0.1)">
       <use xlink:href="#DejaVuSans-30"/>
       <use xlink:href="#DejaVuSans-2e" x="63.623047"/>
       <use xlink:href="#DejaVuSans-36" x="95.410156"/>
      </g>
     </g>
    </g>
    <g id="ytick_8">
     <g id="line2d_14">
      <g>
       <use xlink:href="#m18647a5756" x="33.64" y="14.76" style="stroke: #000000; stroke-width: 0.8"/>
      </g>
     </g>
     <g id="text_14">
      <!-- 0.7 -->
      <g transform="translate(10.736875 18.559219) scale(0.1 -0.1)">
       <defs>
        <path id="DejaVuSans-37" d="M 525 4666 
L 3525 4666 
L 3525 4397 
L 1831 0 
L 1172 0 
L 2766 4134 
L 525 4134 
L 525 4666 
z
" transform="scale(0.015625)"/>
       </defs>
       <use xlink:href="#DejaVuSans-30"/>
       <use xlink:href="#DejaVuSans-2e" x="63.623047"/>
       <use xlink:href="#DejaVuSans-37" x="95.410156"/>
      </g>
     </g>
    </g>
   </g>
   <g id="line2d_15">
    <path d="M 47.869091 193.203636 
L 49.293424 207.647311 
L 50.432891 217.217134 
L 51.572358 225.182 
L 52.711825 231.689223 
L 53.851291 236.88612 
L 54.990758 240.920004 
L 55.845358 243.27081 
L 56.699958 245.112434 
L 57.554558 246.507026 
L 58.409158 247.516733 
L 59.263758 248.203704 
L 60.118358 248.630087 
L 61.257825 248.900658 
L 62.682159 248.967198 
L 332.450909 248.967273 
L 332.450909 248.967273 
" clip-path="url(#p9bcca7813e)" style="fill: none; stroke: #1f77b4; stroke-width: 1.5; stroke-linecap: square"/>
   </g>
   <g id="line2d_16">
    <path d="M 47.869091 25.912727 
L 48.153958 26.032602 
L 48.438824 26.387624 
L 49.008558 27.775485 
L 49.578291 30.021068 
L 50.148024 33.06913 
L 51.002624 39.025025 
L 51.857224 46.475754 
L 52.996691 58.413106 
L 54.421025 75.932493 
L 56.415091 103.761863 
L 61.542692 177.47649 
L 62.967025 194.532604 
L 64.391359 208.734622 
L 65.530825 218.128564 
L 66.670292 225.933057 
L 67.809759 232.295414 
L 68.949226 237.362952 
L 70.088692 241.282983 
L 70.943292 243.558575 
L 71.797892 245.333709 
L 72.652492 246.670532 
L 73.507093 247.631194 
L 74.361693 248.277842 
L 75.216293 248.672625 
L 76.355759 248.914631 
L 78.06496 248.967273 
L 332.450909 248.967273 
L 332.450909 248.967273 
" clip-path="url(#p9bcca7813e)" style="fill: none; stroke: #ff7f0e; stroke-width: 1.5; stroke-linecap: square"/>
   </g>
   <g id="line2d_17">
    <path d="M 47.869091 193.203636 
L 49.293424 175.926129 
L 51.287491 148.29801 
L 56.699958 70.704071 
L 58.124292 53.933564 
L 59.263758 42.771949 
L 60.118358 36.006058 
L 60.972958 30.823317 
L 61.542692 28.339757 
L 62.112425 26.697927 
L 62.397292 26.209924 
L 62.682159 25.953069 
L 62.967025 25.934097 
L 63.251892 26.153823 
L 63.536759 26.605788 
L 64.106492 28.178813 
L 64.676225 30.59793 
L 65.530825 35.692182 
L 66.385425 42.379397 
L 67.524892 53.451377 
L 68.949226 70.13437 
L 70.658426 93.184337 
L 74.076826 143.484198 
L 76.355759 175.340762 
L 77.780093 192.699757 
L 79.204426 207.234573 
L 80.343893 216.870772 
L 81.48336 224.896198 
L 82.622826 231.458168 
L 83.762293 236.703995 
L 84.90176 240.780995 
L 85.75636 243.160321 
L 86.61096 245.027195 
L 87.46556 246.443765 
L 88.32016 247.47218 
L 89.17476 248.174588 
L 90.02936 248.613137 
L 91.168827 248.89484 
L 92.59316 248.967119 
L 298.83664 248.967273 
L 332.450909 248.967273 
L 332.450909 248.967273 
" clip-path="url(#p9bcca7813e)" style="fill: none; stroke: #2ca02c; stroke-width: 1.5; stroke-linecap: square"/>
   </g>
   <g id="line2d_18">
    <path d="M 47.869091 248.967273 
L 49.578291 248.884408 
L 50.717758 248.58364 
L 51.572358 248.124432 
L 52.426958 247.395914 
L 53.281558 246.335937 
L 54.136158 244.882354 
L 54.990758 242.973014 
L 55.845358 240.545771 
L 56.699958 237.538476 
L 57.839425 232.519028 
L 58.978892 226.210575 
L 60.118358 218.465801 
L 61.257825 209.137393 
L 62.397292 198.078034 
L 63.821625 181.656703 
L 65.530825 158.820038 
L 68.664359 112.795717 
L 71.228159 76.524166 
L 72.652492 58.925874 
L 73.791959 46.905772 
L 74.931426 37.194249 
L 75.786026 31.69147 
L 76.355759 28.974561 
L 76.925493 27.083391 
L 77.495226 26.073203 
L 77.780093 25.91574 
L 78.06496 25.997864 
L 78.349826 26.316217 
L 78.91956 27.63401 
L 79.489293 29.813887 
L 80.059026 32.800603 
L 80.913626 38.672658 
L 81.768226 46.04936 
L 82.907693 57.903274 
L 84.332027 75.342895 
L 86.326093 103.106386 
L 91.453694 176.896934 
L 92.878027 194.036745 
L 94.302361 208.329144 
L 95.441827 217.788851 
L 96.581294 225.653292 
L 97.720761 232.069783 
L 98.860228 237.185639 
L 99.999694 241.148174 
L 100.854294 243.451828 
L 101.708894 245.251752 
L 102.563494 246.610095 
L 103.418094 247.589005 
L 104.272695 248.250631 
L 105.127295 248.657121 
L 106.266761 248.909647 
L 107.975961 248.967273 
L 332.450909 248.967273 
L 332.450909 248.967273 
" clip-path="url(#p9bcca7813e)" style="fill: none; stroke: #d62728; stroke-width: 1.5; stroke-linecap: square"/>
   </g>
   <g id="line2d_19">
    <path d="M 47.869091 248.967273 
L 64.676225 248.86571 
L 65.815692 248.533112 
L 66.670292 248.039855 
L 67.524892 247.268566 
L 68.379492 246.157095 
L 69.234092 244.643295 
L 70.088692 242.665017 
L 70.943292 240.160112 
L 71.797892 237.066433 
L 72.937359 231.918237 
L 74.076826 225.46553 
L 75.216293 217.560995 
L 76.355759 208.057318 
L 77.495226 196.807185 
L 78.91956 180.151171 
L 80.62876 157.124446 
L 84.04716 106.831815 
L 86.326093 74.950996 
L 87.750427 57.56503 
L 88.889894 45.767125 
L 90.02936 36.324319 
L 90.88396 31.053607 
L 91.453694 28.505947 
L 92.023427 26.795655 
L 92.59316 25.977976 
L 92.878027 25.921088 
L 93.162894 26.103513 
L 93.44776 26.519267 
L 94.017494 28.023143 
L 94.587227 30.377471 
L 95.441827 35.382719 
L 96.296427 41.990742 
L 97.435894 52.972397 
L 98.860228 69.567017 
L 100.569428 92.546916 
L 103.987828 142.824396 
L 106.266761 174.753267 
L 107.691095 192.192888 
L 109.115428 206.819095 
L 110.254895 216.5219 
L 111.394362 224.608117 
L 112.533828 231.225061 
L 113.673295 236.520049 
L 114.812762 240.640394 
L 115.667362 243.048413 
L 116.521962 244.940709 
L 117.376562 246.379429 
L 118.231162 247.426724 
L 119.085762 248.144741 
L 119.940362 248.595628 
L 121.079829 248.888693 
L 122.504162 248.966998 
L 237.87517 248.967273 
L 332.450909 248.967273 
L 332.450909 248.967273 
" clip-path="url(#p9bcca7813e)" style="fill: none; stroke: #9467bd; stroke-width: 1.5; stroke-linecap: square"/>
   </g>
   <g id="line2d_20">
    <path d="M 47.869091 248.967273 
L 79.489293 248.890779 
L 80.62876 248.601527 
L 81.48336 248.154771 
L 82.33796 247.441977 
L 83.19256 246.400995 
L 84.04716 244.969677 
L 84.90176 243.085874 
L 85.75636 240.687439 
L 86.61096 237.712222 
L 87.750427 232.740633 
L 88.889894 226.485854 
L 90.02936 218.80057 
L 91.168827 209.537467 
L 92.308294 198.549228 
L 93.732627 182.216853 
L 95.441827 159.453355 
L 98.290494 117.685943 
L 100.854294 80.923918 
L 102.563494 59.44155 
L 103.702961 47.339387 
L 104.842428 37.528358 
L 105.697028 31.939501 
L 106.266761 29.159755 
L 106.836495 27.201386 
L 107.406228 26.119638 
L 107.691095 25.92476 
L 107.975961 25.969016 
L 108.260828 26.250527 
L 108.830561 27.497909 
L 109.400295 29.611735 
L 109.970028 32.536762 
L 110.824628 38.32446 
L 111.679228 45.626618 
L 112.818695 57.396404 
L 114.243028 74.755399 
L 116.237095 102.451807 
L 121.649562 179.961791 
L 123.073896 196.646857 
L 124.498229 210.460535 
L 125.637696 219.572154 
L 126.777163 227.119521 
L 127.916629 233.249952 
L 129.056096 238.110761 
L 130.195563 241.849263 
L 131.050163 244.005245 
L 131.904763 245.674942 
L 132.759363 246.920504 
L 133.613963 247.804077 
L 134.468563 248.387812 
L 135.323163 248.733856 
L 136.46263 248.932924 
L 138.456697 248.967273 
L 332.450909 248.967273 
L 332.450909 248.967273 
" clip-path="url(#p9bcca7813e)" style="fill: none; stroke: #8c564b; stroke-width: 1.5; stroke-linecap: square"/>
   </g>
   <g id="line2d_21">
    <path d="M 47.869091 248.967273 
L 94.587227 248.87302 
L 95.726694 248.552549 
L 96.581294 248.072204 
L 97.435894 247.317098 
L 98.290494 246.225081 
L 99.145094 244.734005 
L 99.999694 242.781723 
L 100.854294 240.306084 
L 101.708894 237.244942 
L 102.848361 232.145218 
L 103.987828 225.746797 
L 105.127295 217.902365 
L 106.266761 208.464605 
L 107.406228 197.286203 
L 108.830561 180.717737 
L 110.539762 157.761423 
L 113.673295 111.687655 
L 116.237095 75.539195 
L 117.661429 58.07289 
L 118.800895 46.191087 
L 119.940362 36.646939 
L 120.794962 31.288771 
L 121.364696 28.677356 
L 121.934429 26.898948 
L 122.504162 26.008791 
L 122.789029 25.914067 
L 123.073896 26.059019 
L 123.358762 26.438392 
L 123.928496 27.872773 
L 124.498229 30.161969 
L 125.352829 35.077695 
L 126.207429 41.60601 
L 127.346896 52.496651 
L 128.771229 69.002037 
L 130.48043 91.910835 
L 133.613963 137.965456 
L 136.177763 174.163669 
L 137.602097 191.683056 
L 139.02643 206.40087 
L 140.165897 216.170509 
L 141.305364 224.317746 
L 142.44483 230.989895 
L 143.584297 236.334273 
L 144.723764 240.498192 
L 145.578364 242.935076 
L 146.432964 244.852966 
L 147.287564 246.31401 
L 148.142164 247.380356 
L 148.996764 248.114154 
L 149.851364 248.577551 
L 150.990831 248.882208 
L 152.415164 248.966825 
L 223.346969 248.967273 
L 332.450909 248.967273 
L 332.450909 248.967273 
" clip-path="url(#p9bcca7813e)" style="fill: none; stroke: #e377c2; stroke-width: 1.5; stroke-linecap: square"/>
   </g>
   <g id="line2d_22">
    <path d="M 47.869091 248.967273 
L 109.400295 248.896815 
L 110.539762 248.618849 
L 111.394362 248.184374 
L 112.248962 247.487131 
L 113.103562 246.464971 
L 113.958162 245.055746 
L 114.812762 243.197308 
L 115.667362 240.827508 
L 116.521962 237.884197 
L 117.661429 232.960239 
L 118.800895 226.758905 
L 119.940362 219.132881 
L 121.079829 209.934852 
L 122.219296 199.017504 
L 123.643629 182.774548 
L 125.352829 160.085249 
L 128.201496 118.354277 
L 131.050163 77.713628 
L 132.759363 56.725235 
L 133.89883 45.068689 
L 135.038296 35.796318 
L 135.892897 30.672513 
L 136.46263 28.231877 
L 137.032363 26.635878 
L 137.31723 26.171881 
L 137.602097 25.93976 
L 137.886963 25.946085 
L 138.17183 26.190582 
L 138.456697 26.666591 
L 139.02643 28.285525 
L 139.596163 30.747642 
L 140.450763 35.900944 
L 141.305364 42.640667 
L 142.44483 53.77248 
L 143.869164 70.513911 
L 145.578364 93.610016 
L 152.415164 189.788761 
L 153.839498 204.843714 
L 154.978964 214.860378 
L 156.118431 223.233319 
L 157.257898 230.10985 
L 158.397365 235.637287 
L 159.536831 239.962944 
L 160.391431 242.507139 
L 161.246031 244.520346 
L 162.100632 246.064713 
L 162.955232 247.20239 
L 163.809832 247.995524 
L 164.664432 248.506264 
L 165.519032 248.796759 
L 166.658498 248.948899 
L 169.792032 248.967273 
L 332.450909 248.967273 
L 332.450909 248.967273 
" clip-path="url(#p9bcca7813e)" style="fill: none; stroke: #7f7f7f; stroke-width: 1.5; stroke-linecap: square"/>
   </g>
   <g id="line2d_23">
    <path d="M 47.869091 248.967273 
L 124.498229 248.87997 
L 125.637696 248.571398 
L 126.492296 248.103792 
L 127.346896 247.364696 
L 128.201496 246.29196 
L 129.056096 244.823437 
L 129.910696 242.896978 
L 130.765296 240.450435 
L 131.619896 237.421658 
L 132.759363 232.370176 
L 133.89883 226.025812 
L 135.038296 218.241251 
L 136.177763 208.869179 
L 137.31723 197.76228 
L 138.741563 181.281919 
L 140.450763 158.39705 
L 143.584297 112.352319 
L 146.148097 76.129488 
L 147.572431 58.583704 
L 148.711897 46.618692 
L 149.851364 36.97389 
L 150.705964 31.528783 
L 151.275698 28.853956 
L 151.845431 27.007776 
L 152.415164 26.045486 
L 152.700031 25.913062 
L 152.984898 26.02037 
L 153.269764 26.363188 
L 153.839498 27.727732 
L 154.409231 29.951451 
L 154.978964 32.979102 
L 155.833564 38.907108 
L 156.688165 46.333219 
L 157.827631 58.242834 
L 159.251965 75.735728 
L 161.246031 103.543273 
L 166.373632 177.283551 
L 167.797965 194.36765 
L 169.222299 208.599764 
L 170.361765 218.015602 
L 171.501232 225.840052 
L 172.640699 232.220429 
L 173.780166 237.304046 
L 174.919632 241.23822 
L 175.774232 243.523147 
L 176.628832 245.306525 
L 177.483433 246.650503 
L 178.338033 247.617228 
L 179.192633 248.26885 
L 180.047233 248.667516 
L 181.186699 248.913003 
L 182.8959 248.967273 
L 332.450909 248.967273 
L 332.450909 248.967273 
" clip-path="url(#p9bcca7813e)" style="fill: none; stroke: #bcbd22; stroke-width: 1.5; stroke-linecap: square"/>
   </g>
   <g id="line2d_24">
    <path d="M 47.869091 248.967273 
L 139.596163 248.860633 
L 140.73563 248.519823 
L 141.59023 248.017862 
L 142.44483 247.235689 
L 143.29943 246.111153 
L 144.15403 244.582108 
L 145.00863 242.586404 
L 145.863231 240.061892 
L 146.717831 236.946425 
L 147.857297 231.765788 
L 148.996764 225.276761 
L 150.136231 217.332031 
L 151.275698 207.784283 
L 152.415164 196.486201 
L 153.839498 179.772151 
L 155.548698 156.699058 
L 159.251965 102.233818 
L 161.246031 74.560039 
L 162.670365 57.228111 
L 163.809832 45.48652 
L 164.949298 36.111659 
L 165.803898 30.899537 
L 166.373632 28.394572 
L 166.943365 26.729883 
L 167.228232 26.229906 
L 167.513099 25.960714 
L 167.797965 25.929097 
L 168.082832 26.136408 
L 168.367699 26.576322 
L 168.937432 28.126336 
L 169.507165 30.523895 
L 170.361765 35.588536 
L 171.216365 42.249411 
L 172.355832 53.291359 
L 173.780166 69.94499 
L 175.489366 92.971716 
L 178.907766 143.264346 
L 181.186699 175.145166 
L 182.611033 192.531132 
L 184.035366 207.096385 
L 185.174833 216.75476 
L 186.3143 224.800425 
L 187.453766 231.380694 
L 188.593233 236.642883 
L 189.7327 240.734305 
L 190.5873 243.123177 
L 191.4419 244.998505 
L 192.2965 246.42244 
L 193.1511 247.457129 
L 194.0057 248.16472 
L 194.8603 248.607363 
L 195.999767 248.892828 
L 197.4241 248.967084 
L 332.450909 248.967273 
L 332.450909 248.967273 
" clip-path="url(#p9bcca7813e)" style="fill: none; stroke: #17becf; stroke-width: 1.5; stroke-linecap: square"/>
   </g>
   <g id="line2d_25">
    <path d="M 47.869091 248.967273 
L 154.409231 248.88657 
L 155.548698 248.589666 
L 156.403298 248.134628 
L 157.257898 247.41137 
L 158.112498 246.357744 
L 158.967098 244.911601 
L 159.821698 243.010793 
L 160.676298 240.593172 
L 161.530898 237.596588 
L 162.670365 232.593119 
L 163.809832 226.302583 
L 164.949298 218.577665 
L 166.088765 209.27105 
L 167.228232 198.235423 
L 168.652565 181.843691 
L 170.361765 159.0313 
L 173.495299 113.0175 
L 176.059099 76.721847 
L 177.483433 59.097444 
L 178.622899 47.049912 
L 179.762366 37.305144 
L 180.616966 31.773615 
L 181.186699 29.035722 
L 181.756433 27.122114 
L 182.326166 26.088034 
L 182.611033 25.918081 
L 182.8959 25.987593 
L 183.180766 26.293684 
L 183.7505 27.588045 
L 184.320233 29.745943 
L 184.889966 32.712134 
L 185.744566 38.556128 
L 186.599166 45.908039 
L 187.738633 57.733987 
L 189.162967 75.146828 
L 191.157033 102.888092 
L 196.284634 176.703259 
L 197.708967 193.870791 
L 199.133301 208.193382 
L 200.272767 217.675061 
L 201.412234 225.559536 
L 202.551701 231.994123 
L 203.691168 237.126136 
L 204.830634 241.10289 
L 205.685234 243.415936 
L 206.539834 245.224162 
L 207.394434 246.589716 
L 208.249034 247.574747 
L 209.103635 248.241404 
L 209.958235 248.651834 
L 211.097701 248.907918 
L 212.806901 248.967273 
L 332.450909 248.967273 
L 332.450909 248.967273 
" clip-path="url(#p9bcca7813e)" style="fill: none; stroke: #1f77b4; stroke-width: 1.5; stroke-linecap: square"/>
   </g>
   <g id="line2d_26">
    <path d="M 47.869091 248.967273 
L 169.507165 248.868187 
L 170.646632 248.539657 
L 171.501232 248.050724 
L 172.355832 247.284847 
L 173.210432 246.179881 
L 174.065032 244.673674 
L 174.919632 242.704081 
L 175.774232 240.208951 
L 176.628832 237.126136 
L 177.768299 231.994123 
L 178.907766 225.559536 
L 180.047233 217.675061 
L 181.186699 208.193382 
L 182.326166 196.967185 
L 183.7505 180.340289 
L 185.4597 157.33692 
L 188.8781 107.05175 
L 191.157033 75.146828 
L 192.581367 57.733987 
L 193.720834 45.908039 
L 194.8603 36.431376 
L 195.7149 31.131455 
L 196.284634 28.562504 
L 196.854367 26.829469 
L 197.4241 25.987593 
L 197.708967 25.918081 
L 197.993834 26.088034 
L 198.278701 26.49168 
L 198.848434 27.97243 
L 199.418167 30.305085 
L 200.272767 35.28055 
L 201.127367 41.862061 
L 202.266834 52.813454 
L 203.691168 69.378425 
L 205.400368 92.334738 
L 208.533901 138.408507 
L 211.097701 174.556966 
L 212.522035 192.023272 
L 213.946368 206.679993 
L 215.085835 216.40505 
L 216.225302 224.511581 
L 217.364768 231.146902 
L 218.504235 236.458327 
L 219.643702 240.593172 
L 220.498302 243.010793 
L 221.352902 244.911601 
L 222.207502 246.357744 
L 223.062102 247.41137 
L 223.916702 248.134628 
L 224.771302 248.589666 
L 225.910769 248.88657 
L 227.335102 248.966947 
L 324.474642 248.967273 
L 332.450909 248.967273 
L 332.450909 248.967273 
" clip-path="url(#p9bcca7813e)" style="fill: none; stroke: #ff7f0e; stroke-width: 1.5; stroke-linecap: square"/>
   </g>
   <g id="line2d_27">
    <path d="M 47.869091 248.967273 
L 184.320233 248.892828 
L 185.4597 248.607363 
L 186.3143 248.16472 
L 187.1689 247.457129 
L 188.0235 246.42244 
L 188.8781 244.998505 
L 189.7327 243.123177 
L 190.5873 240.734305 
L 191.4419 237.769743 
L 192.581367 232.814057 
L 193.720834 226.577118 
L 194.8603 218.911613 
L 195.999767 209.670227 
L 197.139234 198.705644 
L 198.563567 182.403026 
L 200.272767 159.664146 
L 203.121434 117.908689 
L 205.685234 81.126349 
L 207.394434 59.614084 
L 208.533901 47.48472 
L 209.673368 37.640676 
L 210.527968 32.02324 
L 211.097701 29.222625 
L 211.667435 27.241933 
L 212.237168 26.136408 
L 212.522035 25.929097 
L 212.806901 25.960714 
L 213.091768 26.229906 
L 213.661502 27.45374 
L 214.231235 29.545473 
L 214.800968 32.44986 
L 215.655568 38.209324 
L 216.510168 45.48652 
L 217.649635 57.228111 
L 219.073969 74.560039 
L 221.068035 102.233818 
L 226.480502 179.772151 
L 227.904836 196.486201 
L 229.329169 210.329559 
L 230.468636 219.462743 
L 231.608103 227.029736 
L 232.747569 233.177854 
L 233.887036 238.054412 
L 235.026503 241.806725 
L 235.881103 243.971793 
L 236.735703 245.649486 
L 237.590303 246.901953 
L 238.444903 247.791342 
L 239.299503 248.379801 
L 240.154103 248.729479 
L 241.29357 248.931697 
L 243.287637 248.967273 
L 332.450909 248.967273 
L 332.450909 248.967273 
" clip-path="url(#p9bcca7813e)" style="fill: none; stroke: #2ca02c; stroke-width: 1.5; stroke-linecap: square"/>
   </g>
   <g id="line2d_28">
    <path d="M 47.869091 248.967273 
L 199.418167 248.875376 
L 200.557634 248.558897 
L 201.412234 248.082818 
L 202.266834 247.333067 
L 203.121434 246.247496 
L 203.976034 244.763957 
L 204.830634 242.820302 
L 205.685234 240.354381 
L 206.539834 237.304046 
L 207.679301 232.220429 
L 208.818768 225.840052 
L 209.958235 218.015602 
L 211.097701 208.599764 
L 212.237168 197.445222 
L 213.661502 180.906063 
L 215.370702 157.97345 
L 218.504235 111.909151 
L 221.068035 75.735728 
L 222.492369 58.242834 
L 223.631835 46.333219 
L 224.771302 36.755443 
L 225.625902 31.368238 
L 226.195636 28.735647 
L 226.765369 26.93461 
L 227.335102 26.02037 
L 227.619969 25.913062 
L 227.904836 26.045486 
L 228.189702 26.412692 
L 228.759436 27.823833 
L 229.329169 30.091241 
L 229.898903 33.159675 
L 230.753503 39.143402 
L 231.608103 46.618692 
L 232.747569 58.583704 
L 234.171903 76.129488 
L 236.16597 103.98055 
L 241.29357 177.669181 
L 242.717903 194.697225 
L 244.142237 208.869179 
L 245.281704 218.241251 
L 246.42117 226.025812 
L 247.560637 232.370176 
L 248.700104 237.421658 
L 249.83957 241.327573 
L 250.694171 243.593849 
L 251.548771 245.360758 
L 252.403371 246.690446 
L 253.257971 247.645063 
L 254.112571 248.286757 
L 254.967171 248.677676 
L 256.106638 248.916226 
L 257.815838 248.967273 
L 332.450909 248.967273 
L 332.450909 248.967273 
" clip-path="url(#p9bcca7813e)" style="fill: none; stroke: #d62728; stroke-width: 1.5; stroke-linecap: square"/>
   </g>
   <g id="line2d_29">
    <path d="M 47.869091 248.967273 
L 214.231235 248.898755 
L 215.370702 248.624499 
L 216.225302 248.194079 
L 217.079902 247.501981 
L 217.934502 246.486058 
L 218.789102 245.084159 
L 219.643702 243.234138 
L 220.498302 240.873844 
L 221.352902 237.941131 
L 222.492369 233.032998 
L 223.631835 226.849428 
L 224.771302 219.243107 
L 225.910769 210.066719 
L 227.050236 199.172949 
L 228.474569 182.959896 
L 230.183769 160.29556 
L 233.032436 118.577116 
L 235.881103 77.912653 
L 237.590303 56.892525 
L 238.72977 45.207555 
L 239.869237 35.900944 
L 240.723837 30.747642 
L 241.29357 28.285525 
L 241.863303 26.666591 
L 242.14817 26.190582 
L 242.433037 25.946085 
L 242.717903 25.93976 
L 243.00277 26.171881 
L 243.287637 26.635878 
L 243.85737 28.231877 
L 244.427103 30.672513 
L 245.281704 35.796318 
L 246.136304 42.509816 
L 247.27577 53.611751 
L 248.700104 70.324011 
L 250.409304 93.397104 
L 254.112571 147.862344 
L 256.106638 175.536123 
L 257.530971 192.86805 
L 258.955304 207.372456 
L 260.094771 216.986504 
L 261.234238 224.991718 
L 262.373705 231.535414 
L 263.513171 236.764905 
L 264.652638 240.827508 
L 265.507238 243.197308 
L 266.361838 245.055746 
L 267.216438 246.464971 
L 268.071038 247.487131 
L 268.925638 248.184374 
L 269.780238 248.618849 
L 270.919705 248.896815 
L 272.344039 248.96715 
L 332.450909 248.967273 
L 332.450909 248.967273 
" clip-path="url(#p9bcca7813e)" style="fill: none; stroke: #9467bd; stroke-width: 1.5; stroke-linecap: square"/>
   </g>
   <g id="line2d_30">
    <path d="M 47.869091 248.967273 
L 229.329169 248.882208 
L 230.468636 248.577551 
L 231.323236 248.114154 
L 232.177836 247.380356 
L 233.032436 246.31401 
L 233.887036 244.852966 
L 234.741636 242.935076 
L 235.596236 240.498192 
L 236.450836 237.480166 
L 237.590303 232.444714 
L 238.72977 226.118318 
L 239.869237 218.353664 
L 241.008703 209.003436 
L 242.14817 197.92032 
L 243.572503 181.469445 
L 245.281704 158.608621 
L 248.415237 112.57399 
L 250.979037 76.326713 
L 252.403371 58.754627 
L 253.542837 46.762032 
L 254.682304 37.083831 
L 255.536904 31.609859 
L 256.106638 28.913972 
L 256.676371 27.045278 
L 257.246104 26.059019 
L 257.530971 25.914067 
L 257.815838 26.008791 
L 258.100704 26.339385 
L 258.670438 27.680573 
L 259.240171 29.88239 
L 259.809904 32.889593 
L 260.664505 38.789652 
L 261.519105 46.191087 
L 262.658571 58.07289 
L 264.082905 75.539195 
L 266.076972 103.32478 
L 271.204572 177.090366 
L 272.628905 194.202364 
L 274.053239 208.464605 
L 275.192705 217.902365 
L 276.332172 225.746797 
L 277.471639 232.145218 
L 278.611106 237.244942 
L 279.750572 241.193284 
L 280.605172 243.487565 
L 281.459772 245.279206 
L 282.314373 246.630357 
L 283.168973 247.603165 
L 284.023573 248.259779 
L 284.878173 248.662348 
L 286.017639 248.911341 
L 287.72684 248.967273 
L 332.450909 248.967273 
L 332.450909 248.967273 
" clip-path="url(#p9bcca7813e)" style="fill: none; stroke: #8c564b; stroke-width: 1.5; stroke-linecap: square"/>
   </g>
   <g id="line2d_31">
    <path d="M 47.869091 248.967273 
L 244.427103 248.863192 
L 245.56657 248.526501 
L 246.42117 248.028902 
L 247.27577 247.25218 
L 248.13037 246.134186 
L 248.98497 244.612773 
L 249.83957 242.625792 
L 250.694171 240.111093 
L 251.548771 237.006529 
L 252.688237 231.842126 
L 253.827704 225.371271 
L 254.967171 217.446652 
L 256.106638 207.920952 
L 257.246104 196.646857 
L 258.670438 179.961791 
L 260.379638 156.911825 
L 263.798038 106.611964 
L 266.076972 74.755399 
L 267.501305 57.396404 
L 268.640772 45.626618 
L 269.780238 36.217746 
L 270.634838 30.976301 
L 271.204572 28.449969 
L 271.774305 26.76246 
L 272.059172 26.250527 
L 272.344039 25.969016 
L 272.628905 25.92476 
L 272.913772 26.119638 
L 273.198639 26.547482 
L 273.768372 28.074446 
L 274.338105 30.450408 
L 275.192705 35.485381 
L 276.047305 42.119859 
L 277.186772 53.131698 
L 278.611106 69.755872 
L 280.320306 92.759242 
L 283.738706 143.044412 
L 286.017639 174.949333 
L 287.441973 192.362175 
L 288.866306 206.957893 
L 290.005773 216.63847 
L 291.14524 224.704398 
L 292.284707 231.302992 
L 293.424173 236.581567 
L 294.56364 240.687439 
L 295.41824 243.085874 
L 296.27284 244.969677 
L 297.12744 246.400995 
L 297.98204 247.441977 
L 298.83664 248.154771 
L 299.69124 248.601527 
L 300.830707 248.890779 
L 302.25504 248.967044 
L 332.450909 248.967273 
L 332.450909 248.967273 
" clip-path="url(#p9bcca7813e)" style="fill: none; stroke: #e377c2; stroke-width: 1.5; stroke-linecap: square"/>
   </g>
   <g id="line2d_32">
    <path d="M 47.869091 248.967273 
L 259.240171 248.888693 
L 260.379638 248.595628 
L 261.234238 248.144741 
L 262.088838 247.426724 
L 262.943438 246.379429 
L 263.798038 244.940709 
L 264.652638 243.048413 
L 265.507238 240.640394 
L 266.361838 237.654504 
L 267.501305 232.666987 
L 268.640772 226.394343 
L 269.780238 218.689254 
L 270.919705 209.404408 
L 272.059172 198.392488 
L 273.483505 182.030408 
L 275.192705 159.242406 
L 278.041372 117.46323 
L 280.605172 80.721691 
L 282.314373 59.269337 
L 283.453839 47.194451 
L 284.593306 37.416514 
L 285.447906 31.856292 
L 286.017639 29.097453 
L 286.587373 27.161446 
L 287.157106 26.103513 
L 287.441973 25.921088 
L 287.72684 25.977976 
L 288.011706 26.271787 
L 288.58144 27.542677 
L 289.151173 29.678558 
L 289.720906 32.624187 
L 290.575506 38.440061 
L 291.430106 45.767125 
L 292.569573 57.56503 
L 293.993907 74.950996 
L 295.987973 102.669899 
L 301.40044 180.151171 
L 302.824774 196.807185 
L 304.249107 210.591213 
L 305.388574 219.681294 
L 306.528041 227.209061 
L 307.667508 233.32183 
L 308.806974 238.166915 
L 309.946441 241.891632 
L 310.801041 244.038547 
L 311.655641 245.700268 
L 312.510241 246.938943 
L 313.364841 247.816721 
L 314.219441 248.39575 
L 315.074041 248.738178 
L 316.213508 248.934122 
L 318.492442 248.967273 
L 332.450909 248.967273 
L 332.450909 248.967273 
" clip-path="url(#p9bcca7813e)" style="fill: none; stroke: #7f7f7f; stroke-width: 1.5; stroke-linecap: square"/>
   </g>
   <g id="line2d_33">
    <path d="M 47.869091 248.967273 
L 274.338105 248.870624 
L 275.477572 248.546136 
L 276.332172 248.061506 
L 277.186772 247.301024 
L 278.041372 246.202542 
L 278.895972 244.703911 
L 279.750572 242.742982 
L 280.605172 240.257608 
L 281.459772 237.185639 
L 282.599239 232.069783 
L 283.738706 225.653292 
L 284.878173 217.788851 
L 286.017639 208.329144 
L 287.157106 197.126858 
L 288.58144 180.529145 
L 290.29064 157.549246 
L 293.70904 107.271765 
L 295.987973 75.342895 
L 297.412307 57.903274 
L 298.551774 46.04936 
L 299.69124 36.538916 
L 300.54584 31.209843 
L 301.115574 28.619641 
L 301.685307 26.863901 
L 302.25504 25.997864 
L 302.539907 25.91574 
L 302.824774 26.073203 
L 303.109641 26.464721 
L 303.679374 27.922306 
L 304.249107 30.233251 
L 305.103707 35.178875 
L 305.958307 41.733817 
L 307.097774 52.654872 
L 308.522108 69.190098 
L 310.231308 92.122711 
L 313.364841 138.187011 
L 315.928641 174.360433 
L 317.352975 191.853327 
L 318.777308 206.540584 
L 319.916775 216.287919 
L 321.056242 224.414791 
L 322.195708 231.068513 
L 323.335175 236.396402 
L 324.474642 240.545771 
L 325.329242 242.973014 
L 326.183842 244.882354 
L 327.038442 246.335937 
L 327.893042 247.395914 
L 328.747642 248.124432 
L 329.602242 248.58364 
L 330.741709 248.884408 
L 332.166042 248.966889 
L 332.450909 248.967273 
L 332.450909 248.967273 
" clip-path="url(#p9bcca7813e)" style="fill: none; stroke: #bcbd22; stroke-width: 1.5; stroke-linecap: square"/>
   </g>
   <g id="line2d_34">
    <path d="M 47.869091 248.967273 
L 289.151173 248.89484 
L 290.29064 248.613137 
L 291.14524 248.174588 
L 291.99984 247.47218 
L 292.85444 246.443765 
L 293.70904 245.027195 
L 294.56364 243.160321 
L 295.41824 240.780995 
L 296.27284 237.827068 
L 297.412307 232.887259 
L 298.551774 226.668135 
L 299.69124 219.022384 
L 300.830707 209.802689 
L 301.970174 198.861735 
L 303.394507 182.588924 
L 305.103707 159.874778 
L 307.952374 118.131467 
L 310.801041 77.514825 
L 312.510241 56.55828 
L 313.649708 44.930236 
L 314.789175 35.692182 
L 315.643775 30.59793 
L 316.213508 28.178813 
L 316.783241 26.605788 
L 317.068108 26.153823 
L 317.352975 25.934097 
L 317.637841 25.953069 
L 317.922708 26.209924 
L 318.207575 26.697927 
L 318.777308 28.339757 
L 319.347042 30.823317 
L 320.201642 36.006058 
L 321.056242 42.771949 
L 322.195708 53.933564 
L 323.620042 70.704071 
L 325.329242 93.823072 
L 331.881176 186.607374 
L 332.450909 193.203636 
L 332.450909 193.203636 
" clip-path="url(#p9bcca7813e)" style="fill: none; stroke: #17becf; stroke-width: 1.5; stroke-linecap: square"/>
   </g>
   <g id="line2d_35">
    <path d="M 47.869091 248.967273 
L 304.249107 248.877692 
L 305.388574 248.56518 
L 306.243174 248.093347 
L 307.097774 247.348933 
L 307.952374 246.269789 
L 308.806974 244.793768 
L 309.661574 242.85872 
L 310.516174 240.402498 
L 311.370774 237.362952 
L 312.510241 232.295414 
L 313.649708 225.933057 
L 314.789175 218.128564 
L 315.928641 208.734622 
L 317.068108 197.603914 
L 318.492442 181.094125 
L 320.201642 158.185326 
L 323.335175 112.130706 
L 325.898975 75.932493 
L 327.323309 58.413106 
L 328.462776 46.475754 
L 329.602242 36.864426 
L 330.456842 31.448242 
L 331.026576 28.794514 
L 331.596309 26.970887 
L 332.166042 26.032602 
L 332.450909 25.912727 
L 332.450909 25.912727 
" clip-path="url(#p9bcca7813e)" style="fill: none; stroke: #1f77b4; stroke-width: 1.5; stroke-linecap: square"/>
   </g>
   <g id="line2d_36">
    <path d="M 47.869091 248.967273 
L 319.347042 248.858032 
L 320.201642 248.630087 
L 321.056242 248.203704 
L 321.910842 247.516733 
L 322.765442 246.507026 
L 323.620042 245.112434 
L 324.474642 243.27081 
L 325.329242 240.920004 
L 326.183842 237.997869 
L 327.323309 233.105536 
L 328.462776 226.939705 
L 329.602242 219.35306 
L 330.741709 210.198287 
L 331.881176 199.328071 
L 332.450909 193.203636 
L 332.450909 193.203636 
" clip-path="url(#p9bcca7813e)" style="fill: none; stroke: #ff7f0e; stroke-width: 1.5; stroke-linecap: square"/>
   </g>
   <g id="patch_3">
    <path d="M 33.64 260.12 
L 33.64 14.76 
" style="fill: none; stroke: #000000; stroke-width: 0.8; stroke-linejoin: miter; stroke-linecap: square"/>
   </g>
   <g id="patch_4">
    <path d="M 346.68 260.12 
L 346.68 14.76 
" style="fill: none; stroke: #000000; stroke-width: 0.8; stroke-linejoin: miter; stroke-linecap: square"/>
   </g>
   <g id="patch_5">
    <path d="M 33.64 260.12 
L 346.68 260.12 
" style="fill: none; stroke: #000000; stroke-width: 0.8; stroke-linejoin: miter; stroke-linecap: square"/>
   </g>
   <g id="patch_6">
    <path d="M 33.64 14.76 
L 346.68 14.76 
" style="fill: none; stroke: #000000; stroke-width: 0.8; stroke-linejoin: miter; stroke-linecap: square"/>
   </g>
  </g>
  <g id="axes_2">
   <g id="patch_7">
    <path d="M 388.24 260.12 
L 701.28 260.12 
L 701.28 14.76 
L 388.24 14.76 
z
" style="fill: #ffffff"/>
   </g>
   <g id="matplotlib.axis_3">
    <g id="xtick_7">
     <g id="line2d_37">
      <g>
       <use xlink:href="#m72a723abd6" x="431.236181" y="260.12" style="stroke: #000000; stroke-width: 0.8"/>
      </g>
     </g>
     <g id="text_15">
      <!-- −2 -->
      <g transform="translate(423.865087 274.718437) scale(0.1 -0.1)">
       <use xlink:href="#DejaVuSans-2212"/>
       <use xlink:href="#DejaVuSans-32" x="83.789062"/>
      </g>
     </g>
    </g>
    <g id="xtick_8">
     <g id="line2d_38">
      <g>
       <use xlink:href="#m72a723abd6" x="484.311884" y="260.12" style="stroke: #000000; stroke-width: 0.8"/>
      </g>
     </g>
     <g id="text_16">
      <!-- 0 -->
      <g transform="translate(481.130634 274.718437) scale(0.1 -0.1)">
       <use xlink:href="#DejaVuSans-30"/>
      </g>
     </g>
    </g>
    <g id="xtick_9">
     <g id="line2d_39">
      <g>
       <use xlink:href="#m72a723abd6" x="537.387587" y="260.12" style="stroke: #000000; stroke-width: 0.8"/>
      </g>
     </g>
     <g id="text_17">
      <!-- 2 -->
      <g transform="translate(534.206337 274.718437) scale(0.1 -0.1)">
       <use xlink:href="#DejaVuSans-32"/>
      </g>
     </g>
    </g>
    <g id="xtick_10">
     <g id="line2d_40">
      <g>
       <use xlink:href="#m72a723abd6" x="590.46329" y="260.12" style="stroke: #000000; stroke-width: 0.8"/>
      </g>
     </g>
     <g id="text_18">
      <!-- 4 -->
      <g transform="translate(587.28204 274.718437) scale(0.1 -0.1)">
       <use xlink:href="#DejaVuSans-34"/>
      </g>
     </g>
    </g>
    <g id="xtick_11">
     <g id="line2d_41">
      <g>
       <use xlink:href="#m72a723abd6" x="643.538993" y="260.12" style="stroke: #000000; stroke-width: 0.8"/>
      </g>
     </g>
     <g id="text_19">
      <!-- 6 -->
      <g transform="translate(640.357743 274.718437) scale(0.1 -0.1)">
       <use xlink:href="#DejaVuSans-36"/>
      </g>
     </g>
    </g>
    <g id="xtick_12">
     <g id="line2d_42">
      <g>
       <use xlink:href="#m72a723abd6" x="696.614696" y="260.12" style="stroke: #000000; stroke-width: 0.8"/>
      </g>
     </g>
     <g id="text_20">
      <!-- 8 -->
      <g transform="translate(693.433446 274.718437) scale(0.1 -0.1)">
       <use xlink:href="#DejaVuSans-38"/>
      </g>
     </g>
    </g>
   </g>
   <g id="matplotlib.axis_4">
    <g id="ytick_9">
     <g id="line2d_43">
      <g>
       <use xlink:href="#m18647a5756" x="388.24" y="248.967273" style="stroke: #000000; stroke-width: 0.8"/>
      </g>
     </g>
     <g id="text_21">
      <!-- 0 -->
      <g transform="translate(374.8775 252.766491) scale(0.1 -0.1)">
       <use xlink:href="#DejaVuSans-30"/>
      </g>
     </g>
    </g>
    <g id="ytick_10">
     <g id="line2d_44">
      <g>
       <use xlink:href="#m18647a5756" x="388.24" y="218.959935" style="stroke: #000000; stroke-width: 0.8"/>
      </g>
     </g>
     <g id="text_22">
      <!-- 2 -->
      <g transform="translate(374.8775 222.759154) scale(0.1 -0.1)">
       <use xlink:href="#DejaVuSans-32"/>
      </g>
     </g>
    </g>
    <g id="ytick_11">
     <g id="line2d_45">
      <g>
       <use xlink:href="#m18647a5756" x="388.24" y="188.952597" style="stroke: #000000; stroke-width: 0.8"/>
      </g>
     </g>
     <g id="text_23">
      <!-- 4 -->
      <g transform="translate(374.8775 192.751816) scale(0.1 -0.1)">
       <use xlink:href="#DejaVuSans-34"/>
      </g>
     </g>
    </g>
    <g id="ytick_12">
     <g id="line2d_46">
      <g>
       <use xlink:href="#m18647a5756" x="388.24" y="158.945259" style="stroke: #000000; stroke-width: 0.8"/>
      </g>
     </g>
     <g id="text_24">
      <!-- 6 -->
      <g transform="translate(374.8775 162.744478) scale(0.1 -0.1)">
       <use xlink:href="#DejaVuSans-36"/>
      </g>
     </g>
    </g>
    <g id="ytick_13">
     <g id="line2d_47">
      <g>
       <use xlink:href="#m18647a5756" x="388.24" y="128.937921" style="stroke: #000000; stroke-width: 0.8"/>
      </g>
     </g>
     <g id="text_25">
      <!-- 8 -->
      <g transform="translate(374.8775 132.73714) scale(0.1 -0.1)">
       <use xlink:href="#DejaVuSans-38"/>
      </g>
     </g>
    </g>
    <g id="ytick_14">
     <g id="line2d_48">
      <g>
       <use xlink:href="#m18647a5756" x="388.24" y="98.930583" style="stroke: #000000; stroke-width: 0.8"/>
      </g>
     </g>
     <g id="text_26">
      <!-- 10 -->
      <g transform="translate(368.515 102.729802) scale(0.1 -0.1)">
       <use xlink:href="#DejaVuSans-31"/>
       <use xlink:href="#DejaVuSans-30" x="63.623047"/>
      </g>
     </g>
    </g>
    <g id="ytick_15">
     <g id="line2d_49">
      <g>
       <use xlink:href="#m18647a5756" x="388.24" y="68.923245" style="stroke: #000000; stroke-width: 0.8"/>
      </g>
     </g>
     <g id="text_27">
      <!-- 12 -->
      <g transform="translate(368.515 72.722464) scale(0.1 -0.1)">
       <use xlink:href="#DejaVuSans-31"/>
       <use xlink:href="#DejaVuSans-32" x="63.623047"/>
      </g>
     </g>
    </g>
    <g id="ytick_16">
     <g id="line2d_50">
      <g>
       <use xlink:href="#m18647a5756" x="388.24" y="38.915907" style="stroke: #000000; stroke-width: 0.8"/>
      </g>
     </g>
     <g id="text_28">
      <!-- 14 -->
      <g transform="translate(368.515 42.715126) scale(0.1 -0.1)">
       <use xlink:href="#DejaVuSans-31"/>
       <use xlink:href="#DejaVuSans-34" x="63.623047"/>
      </g>
     </g>
    </g>
   </g>
   <g id="line2d_51">
    <path d="M 402.469091 246.466661 
L 404.463158 247.338339 
L 406.457224 247.979489 
L 408.736158 248.475371 
L 411.299958 248.79441 
L 414.433492 248.946905 
L 421.555159 248.967273 
L 687.050909 248.967273 
L 687.050909 248.967273 
" clip-path="url(#p4065895bb9)" style="fill: none; stroke: #1f77b4; stroke-width: 1.5; stroke-linecap: square"/>
   </g>
   <g id="line2d_52">
    <path d="M 402.469091 228.462258 
L 403.893424 228.591487 
L 405.317758 228.953366 
L 407.026958 229.640221 
L 409.021025 230.705297 
L 411.869692 232.51775 
L 416.142692 235.25884 
L 418.136759 236.293861 
L 420.130825 237.081803 
L 422.409759 237.717087 
L 424.688692 238.120117 
L 427.537359 238.377808 
L 431.240626 238.463468 
L 477.104162 238.464704 
L 687.050909 238.464704 
L 687.050909 238.464704 
" clip-path="url(#p4065895bb9)" style="fill: none; stroke: #ff7f0e; stroke-width: 1.5; stroke-linecap: square"/>
   </g>
   <g id="line2d_53">
    <path d="M 402.469091 225.461525 
L 404.463158 224.347518 
L 407.881558 222.125038 
L 411.299958 219.968271 
L 413.294025 218.95329 
L 415.003225 218.326535 
L 416.427558 218.02684 
L 417.851892 217.970502 
L 419.276225 218.169789 
L 420.700559 218.590727 
L 422.409759 219.33393 
L 424.403826 220.444724 
L 427.822226 222.665413 
L 431.240626 224.825084 
L 433.234693 225.845505 
L 435.22876 226.619316 
L 437.507693 227.241059 
L 439.786627 227.633329 
L 442.635293 227.881481 
L 446.623427 227.961783 
L 567.406901 227.962136 
L 687.050909 227.962136 
L 687.050909 227.962136 
" clip-path="url(#p4065895bb9)" style="fill: none; stroke: #2ca02c; stroke-width: 1.5; stroke-linecap: square"/>
   </g>
   <g id="line2d_54">
    <path d="M 402.469091 217.459568 
L 407.596691 217.359239 
L 410.445358 217.081922 
L 412.724292 216.656933 
L 415.003225 215.994126 
L 416.997292 215.177539 
L 418.991359 214.11397 
L 421.840025 212.30267 
L 426.397892 209.397811 
L 428.391959 208.398514 
L 430.101159 207.790287 
L 431.525493 207.509618 
L 432.949826 207.475216 
L 434.37416 207.694661 
L 435.798493 208.132497 
L 437.507693 208.891676 
L 439.786627 210.190799 
L 444.059627 212.994009 
L 446.908294 214.703233 
L 448.902361 215.63723 
L 450.896427 216.332277 
L 453.175361 216.878997 
L 455.739161 217.241515 
L 458.872695 217.427431 
L 464.285162 217.459568 
L 687.050909 217.459568 
L 687.050909 217.459568 
" clip-path="url(#p4065895bb9)" style="fill: none; stroke: #d62728; stroke-width: 1.5; stroke-linecap: square"/>
   </g>
   <g id="line2d_55">
    <path d="M 402.469091 206.957 
L 422.694626 206.849464 
L 425.543292 206.56206 
L 427.822226 206.125871 
L 430.101159 205.449084 
L 432.095226 204.617982 
L 434.089293 203.540526 
L 436.93796 201.720237 
L 441.21096 198.988785 
L 443.205027 197.968022 
L 444.914227 197.334404 
L 446.33856 197.027646 
L 447.762894 196.963109 
L 449.187227 197.154766 
L 450.611561 197.569296 
L 452.320761 198.306424 
L 454.314828 199.412355 
L 457.448361 201.440135 
L 461.151628 203.794227 
L 463.145695 204.820146 
L 465.139762 205.599241 
L 467.418695 206.226045 
L 469.697629 206.622333 
L 472.546295 206.87404 
L 476.249562 206.955983 
L 529.519632 206.957 
L 687.050909 206.957 
L 687.050909 206.957 
" clip-path="url(#p4065895bb9)" style="fill: none; stroke: #9467bd; stroke-width: 1.5; stroke-linecap: square"/>
   </g>
   <g id="line2d_56">
    <path d="M 402.469091 196.454431 
L 437.507693 196.356719 
L 440.35636 196.083138 
L 442.635293 195.662311 
L 444.914227 195.004709 
L 446.908294 194.193532 
L 448.902361 193.135241 
L 451.751027 191.327454 
L 456.308894 188.418046 
L 458.302961 187.412822 
L 460.012161 186.797609 
L 461.436495 186.509773 
L 462.860828 186.467133 
L 464.285162 186.679051 
L 465.709495 187.110583 
L 467.418695 187.863809 
L 469.697629 189.157735 
L 473.685762 191.773486 
L 476.534429 193.519319 
L 478.528496 194.495006 
L 480.522563 195.227194 
L 482.801496 195.809192 
L 485.365296 196.202252 
L 488.213963 196.40227 
L 492.77183 196.454431 
L 687.050909 196.454431 
L 687.050909 196.454431 
" clip-path="url(#p4065895bb9)" style="fill: none; stroke: #8c564b; stroke-width: 1.5; stroke-linecap: square"/>
   </g>
   <g id="line2d_57">
    <path d="M 402.469091 185.951863 
L 452.605627 185.847069 
L 455.454294 185.563469 
L 457.733228 185.131497 
L 460.012161 184.45997 
L 462.006228 183.634326 
L 464.000295 182.562044 
L 466.848962 180.745062 
L 471.121962 178.009402 
L 473.116029 176.982911 
L 474.825229 176.342476 
L 476.249562 176.028693 
L 477.673896 175.955977 
L 479.098229 176.139966 
L 480.522563 176.54805 
L 482.231763 177.279056 
L 484.225829 178.380069 
L 487.359363 180.404961 
L 491.06263 182.763269 
L 493.056697 183.794659 
L 495.050763 184.579055 
L 497.329697 185.210941 
L 499.60863 185.611267 
L 502.457297 185.866556 
L 506.160564 185.950718 
L 554.872767 185.951863 
L 687.050909 185.951863 
L 687.050909 185.951863 
" clip-path="url(#p4065895bb9)" style="fill: none; stroke: #e377c2; stroke-width: 1.5; stroke-linecap: square"/>
   </g>
   <g id="line2d_58">
    <path d="M 402.469091 175.449295 
L 467.418695 175.354154 
L 470.267362 175.084283 
L 472.546295 174.667597 
L 474.825229 174.01518 
L 476.819296 173.209395 
L 478.813362 172.156418 
L 481.662029 170.352221 
L 486.219896 167.438386 
L 488.213963 166.42729 
L 489.923163 165.805136 
L 491.347497 165.510172 
L 492.77183 165.459309 
L 494.196163 165.663661 
L 495.620497 166.088849 
L 497.329697 166.836077 
L 499.323764 167.950084 
L 502.742164 170.172564 
L 506.160564 172.329331 
L 508.154631 173.346074 
L 510.148698 174.116372 
L 512.427631 174.734753 
L 514.706565 175.124356 
L 517.555232 175.370152 
L 521.543365 175.448981 
L 654.29124 175.449295 
L 687.050909 175.449295 
L 687.050909 175.449295 
" clip-path="url(#p4065895bb9)" style="fill: none; stroke: #7f7f7f; stroke-width: 1.5; stroke-linecap: square"/>
   </g>
   <g id="line2d_59">
    <path d="M 402.469091 164.946726 
L 482.516629 164.844627 
L 485.365296 164.564805 
L 487.64423 164.13703 
L 489.923163 163.470742 
L 491.91723 162.650538 
L 493.911297 161.583471 
L 496.759964 159.769873 
L 501.032964 157.030121 
L 503.027031 155.997956 
L 504.736231 155.350751 
L 506.160564 155.02998 
L 507.584898 154.949108 
L 509.009231 155.125389 
L 510.433564 155.526988 
L 512.142765 156.251826 
L 514.136831 157.347867 
L 517.270365 159.369787 
L 520.973632 161.73221 
L 522.967699 162.769042 
L 524.961765 163.558759 
L 527.240699 164.195747 
L 529.519632 164.600132 
L 532.368299 164.859028 
L 536.071566 164.945442 
L 580.795636 164.946726 
L 687.050909 164.946726 
L 687.050909 164.946726 
" clip-path="url(#p4065895bb9)" style="fill: none; stroke: #bcbd22; stroke-width: 1.5; stroke-linecap: square"/>
   </g>
   <g id="line2d_60">
    <path d="M 402.469091 154.444158 
L 497.614564 154.334768 
L 500.463231 154.044814 
L 502.742164 153.605803 
L 505.021097 152.925497 
L 507.015164 152.090747 
L 509.009231 151.009865 
L 512.142765 148.997371 
L 516.130898 146.458831 
L 518.124965 145.441917 
L 519.834165 144.81287 
L 521.258498 144.510816 
L 522.682832 144.451743 
L 524.107165 144.648491 
L 525.531499 145.067297 
L 527.240699 145.808481 
L 529.234766 146.917659 
L 532.653166 149.137438 
L 536.071566 151.298544 
L 538.065633 152.3208 
L 540.0597 153.096371 
L 542.338633 153.719799 
L 544.617567 154.113406 
L 547.466234 154.36274 
L 551.454367 154.443785 
L 666.825374 154.444158 
L 687.050909 154.444158 
L 687.050909 154.444158 
" clip-path="url(#p4065895bb9)" style="fill: none; stroke: #17becf; stroke-width: 1.5; stroke-linecap: square"/>
   </g>
   <g id="line2d_61">
    <path d="M 402.469091 143.94159 
L 512.427631 143.842138 
L 515.276298 143.56607 
L 517.555232 143.14247 
L 519.834165 142.481401 
L 521.828232 141.666619 
L 523.822299 140.604805 
L 526.670966 138.794668 
L 531.228832 135.888278 
L 533.222899 134.887 
L 534.932099 134.276439 
L 536.356433 133.993376 
L 537.780766 133.956227 
L 539.2051 134.173168 
L 540.629433 134.608906 
L 542.338633 135.366106 
L 544.617567 136.663504 
L 548.890567 139.466289 
L 551.739234 141.177267 
L 553.733301 142.113164 
L 555.727367 142.809878 
L 558.006301 143.358178 
L 560.570101 143.722057 
L 563.703635 143.90904 
L 569.116102 143.94159 
L 687.050909 143.94159 
L 687.050909 143.94159 
" clip-path="url(#p4065895bb9)" style="fill: none; stroke: #1f77b4; stroke-width: 1.5; stroke-linecap: square"/>
   </g>
   <g id="line2d_62">
    <path d="M 402.469091 133.439022 
L 527.525566 133.332405 
L 530.374232 133.046272 
L 532.653166 132.611491 
L 534.932099 131.936459 
L 536.926166 131.107179 
L 538.920233 130.031443 
L 541.7689 128.212248 
L 546.0419 125.47938 
L 548.035967 124.456702 
L 549.745167 123.820807 
L 551.1695 123.511702 
L 552.593834 123.444437 
L 554.018167 123.633542 
L 555.442501 124.045928 
L 557.151701 124.78102 
L 559.145768 125.885318 
L 562.279301 127.912144 
L 565.982568 130.267653 
L 567.976635 131.295399 
L 569.970702 132.076259 
L 572.249635 132.704755 
L 574.528569 133.102386 
L 577.377235 133.355285 
L 581.080502 133.437963 
L 632.641372 133.439022 
L 687.050909 133.439022 
L 687.050909 133.439022 
" clip-path="url(#p4065895bb9)" style="fill: none; stroke: #ff7f0e; stroke-width: 1.5; stroke-linecap: square"/>
   </g>
   <g id="line2d_63">
    <path d="M 402.469091 122.936453 
L 542.338633 122.839603 
L 545.1873 122.567262 
L 547.466234 122.147818 
L 549.745167 121.491946 
L 551.739234 120.682569 
L 553.733301 119.626045 
L 556.581967 117.819446 
L 561.139834 114.908548 
L 563.133901 113.901361 
L 564.843101 113.283829 
L 566.267435 112.993613 
L 567.691768 112.948231 
L 569.116102 113.157631 
L 570.540435 113.587052 
L 572.249635 114.338285 
L 574.243702 115.455479 
L 577.662102 117.679709 
L 581.080502 119.833533 
L 583.074569 120.846586 
L 585.068636 121.61338 
L 587.347569 122.228408 
L 589.626503 122.615353 
L 592.47517 122.858804 
L 596.463303 122.936176 
L 687.050909 122.936453 
L 687.050909 122.936453 
" clip-path="url(#p4065895bb9)" style="fill: none; stroke: #2ca02c; stroke-width: 1.5; stroke-linecap: square"/>
   </g>
   <g id="line2d_64">
    <path d="M 402.469091 112.433885 
L 557.436567 112.329994 
L 560.285234 112.047657 
L 562.564168 111.617086 
L 564.843101 110.947307 
L 566.837168 110.123479 
L 568.831235 109.052931 
L 571.679902 107.237068 
L 575.952902 104.500032 
L 577.946969 103.471643 
L 579.656169 102.828946 
L 581.080502 102.512829 
L 582.504836 102.437392 
L 583.929169 102.618816 
L 585.353503 103.024743 
L 587.062703 103.753698 
L 589.056769 104.853059 
L 592.190303 106.876971 
L 595.89357 109.236661 
L 597.887637 110.269868 
L 599.881704 111.056037 
L 602.160637 111.689621 
L 604.43957 112.091298 
L 607.288237 112.347786 
L 610.991504 112.432695 
L 658.279374 112.433885 
L 687.050909 112.433885 
L 687.050909 112.433885 
" clip-path="url(#p4065895bb9)" style="fill: none; stroke: #d62728; stroke-width: 1.5; stroke-linecap: square"/>
   </g>
   <g id="line2d_65">
    <path d="M 402.469091 101.931317 
L 572.249635 101.837023 
L 575.098302 101.568383 
L 577.377235 101.153073 
L 579.656169 100.502379 
L 581.650236 99.698387 
L 583.644302 98.64719 
L 586.492969 96.844207 
L 591.050836 93.928924 
L 593.044903 92.915883 
L 594.754103 92.291426 
L 596.178437 91.994094 
L 597.60277 91.940492 
L 599.027103 92.142314 
L 600.451437 92.565379 
L 602.160637 93.310598 
L 604.154704 94.423001 
L 607.573104 96.644591 
L 610.991504 98.802815 
L 612.985571 99.821398 
L 614.979638 100.593452 
L 617.258571 101.213513 
L 619.537505 101.604448 
L 622.386172 101.85142 
L 626.374305 101.930984 
L 687.050909 101.931317 
L 687.050909 101.931317 
" clip-path="url(#p4065895bb9)" style="fill: none; stroke: #9467bd; stroke-width: 1.5; stroke-linecap: square"/>
   </g>
   <g id="line2d_66">
    <path d="M 402.469091 91.428748 
L 587.347569 91.327536 
L 590.196236 91.048969 
L 592.47517 90.622588 
L 594.754103 89.958042 
L 596.74817 89.139647 
L 598.742237 88.074327 
L 601.590904 86.261874 
L 605.863904 83.520784 
L 607.857971 82.486739 
L 609.567171 81.837288 
L 610.991504 81.514197 
L 612.415838 81.43061 
L 613.840171 81.604314 
L 615.264505 82.003743 
L 616.973705 82.726514 
L 618.967771 83.820886 
L 622.101305 85.841797 
L 625.804572 88.205569 
L 627.798639 89.244209 
L 629.792705 90.035703 
L 632.071639 90.674396 
L 634.350572 91.080139 
L 637.199239 91.340243 
L 640.902506 91.427416 
L 684.202242 91.428748 
L 687.050909 91.428748 
L 687.050909 91.428748 
" clip-path="url(#p4065895bb9)" style="fill: none; stroke: #8c564b; stroke-width: 1.5; stroke-linecap: square"/>
   </g>
   <g id="line2d_67">
    <path d="M 402.469091 80.92618 
L 602.445504 80.81772 
L 605.294171 80.529042 
L 607.573104 80.091444 
L 609.852037 79.412898 
L 611.846104 78.579973 
L 613.840171 77.500802 
L 616.688838 75.679428 
L 620.961838 72.949404 
L 622.955905 71.930562 
L 624.665105 71.299227 
L 626.089439 70.994819 
L 627.513772 70.933013 
L 628.938105 71.127218 
L 630.362439 71.543888 
L 632.071639 72.283046 
L 634.065706 73.390604 
L 637.199239 75.419327 
L 640.902506 77.771992 
L 642.896573 78.796082 
L 644.89064 79.573413 
L 647.169573 80.198528 
L 649.448507 80.593474 
L 652.297174 80.843994 
L 656.285307 80.925785 
L 687.050909 80.92618 
L 687.050909 80.92618 
" clip-path="url(#p4065895bb9)" style="fill: none; stroke: #e377c2; stroke-width: 1.5; stroke-linecap: square"/>
   </g>
   <g id="line2d_68">
    <path d="M 402.469091 70.423612 
L 617.258571 70.325032 
L 620.107238 70.050209 
L 622.386172 69.627997 
L 624.665105 68.968662 
L 626.659172 68.155684 
L 628.653239 67.09563 
L 631.501906 65.286663 
L 636.059772 62.378757 
L 638.053839 61.375503 
L 639.763039 60.762614 
L 641.187373 60.477162 
L 642.611706 60.437267 
L 644.03604 60.651699 
L 645.460373 61.085336 
L 647.169573 61.840552 
L 649.448507 63.136217 
L 653.721507 65.938564 
L 656.570174 67.651288 
L 658.564241 68.589085 
L 660.558307 69.287468 
L 662.837241 69.83735 
L 665.401041 70.202593 
L 668.534575 70.390644 
L 673.947042 70.423612 
L 687.050909 70.423612 
L 687.050909 70.423612 
" clip-path="url(#p4065895bb9)" style="fill: none; stroke: #7f7f7f; stroke-width: 1.5; stroke-linecap: square"/>
   </g>
   <g id="line2d_69">
    <path d="M 402.469091 59.921044 
L 632.356506 59.815341 
L 635.205172 59.530476 
L 637.484106 59.097101 
L 639.763039 58.423822 
L 641.757106 57.596361 
L 643.751173 56.52235 
L 646.59984 54.704257 
L 650.87284 51.969987 
L 652.866907 50.945399 
L 654.576107 50.307232 
L 656.00044 49.995785 
L 657.424774 49.925794 
L 658.849107 50.112343 
L 660.273441 50.52258 
L 661.982641 51.255632 
L 663.976708 52.35829 
L 667.110241 54.384154 
L 670.813508 56.741068 
L 672.807575 57.770637 
L 674.801642 58.553265 
L 677.080575 59.183454 
L 679.359509 59.582432 
L 682.208175 59.836524 
L 685.911442 59.919943 
L 687.050909 59.921044 
L 687.050909 59.921044 
" clip-path="url(#p4065895bb9)" style="fill: none; stroke: #bcbd22; stroke-width: 1.5; stroke-linecap: square"/>
   </g>
   <g id="line2d_70">
    <path d="M 402.469091 49.418475 
L 647.169573 49.322482 
L 650.01824 49.051378 
L 652.297174 48.633314 
L 654.576107 47.97917 
L 656.570174 47.17159 
L 658.564241 46.116838 
L 661.412907 44.311436 
L 665.970774 41.399063 
L 667.964841 40.389918 
L 669.674041 39.770073 
L 671.098375 39.47748 
L 672.522708 39.429357 
L 673.947042 39.636235 
L 675.371375 40.063542 
L 677.080575 40.812775 
L 679.074642 41.928378 
L 682.493042 44.151739 
L 685.911442 46.307039 
L 687.050909 46.917864 
L 687.050909 46.917864 
" clip-path="url(#p4065895bb9)" style="fill: none; stroke: #17becf; stroke-width: 1.5; stroke-linecap: square"/>
   </g>
   <g id="line2d_71">
    <path d="M 402.469091 38.915907 
L 662.267508 38.812914 
L 665.116174 38.531836 
L 667.395108 38.102665 
L 669.674041 37.434632 
L 671.668108 36.612617 
L 673.662175 35.543807 
L 676.510842 33.729072 
L 680.783842 30.990672 
L 682.777909 29.960392 
L 684.487109 29.315439 
L 685.911442 28.996993 
L 687.050909 28.913461 
L 687.050909 28.913461 
" clip-path="url(#p4065895bb9)" style="fill: none; stroke: #1f77b4; stroke-width: 1.5; stroke-linecap: square"/>
   </g>
   <g id="line2d_72">
    <path d="M 402.469091 28.413339 
L 677.365442 28.303014 
L 680.214109 28.01178 
L 682.493042 27.571354 
L 684.771976 26.889286 
L 686.766042 26.052708 
L 687.050909 25.912727 
L 687.050909 25.912727 
" clip-path="url(#p4065895bb9)" style="fill: none; stroke: #ff7f0e; stroke-width: 1.5; stroke-linecap: square"/>
   </g>
   <g id="patch_8">
    <path d="M 388.24 260.12 
L 388.24 14.76 
" style="fill: none; stroke: #000000; stroke-width: 0.8; stroke-linejoin: miter; stroke-linecap: square"/>
   </g>
   <g id="patch_9">
    <path d="M 701.28 260.12 
L 701.28 14.76 
" style="fill: none; stroke: #000000; stroke-width: 0.8; stroke-linejoin: miter; stroke-linecap: square"/>
   </g>
   <g id="patch_10">
    <path d="M 388.24 260.12 
L 701.28 260.12 
" style="fill: none; stroke: #000000; stroke-width: 0.8; stroke-linejoin: miter; stroke-linecap: square"/>
   </g>
   <g id="patch_11">
    <path d="M 388.24 14.76 
L 701.28 14.76 
" style="fill: none; stroke: #000000; stroke-width: 0.8; stroke-linejoin: miter; stroke-linecap: square"/>
   </g>
  </g>
 </g>
 <defs>
  <clipPath id="p9bcca7813e">
   <rect x="33.64" y="14.76" width="313.04" height="245.36"/>
  </clipPath>
  <clipPath id="p4065895bb9">
   <rect x="388.24" y="14.76" width="313.04" height="245.36"/>
  </clipPath>
 </defs>
</svg>
