<?xml version="1.0" encoding="utf-8" standalone="no"?>
<!DOCTYPE svg PUBLIC "-//W3C//DTD SVG 1.1//EN"
  "http://www.w3.org/Graphics/SVG/1.1/DTD/svg11.dtd">
<svg xmlns:xlink="http://www.w3.org/1999/xlink" width="2880pt" height="1080pt" viewBox="0 0 2880 1080" xmlns="http://www.w3.org/2000/svg" version="1.1">
 <metadata>
  <rdf:RDF xmlns:dc="http://purl.org/dc/elements/1.1/" xmlns:cc="http://creativecommons.org/ns#" xmlns:rdf="http://www.w3.org/1999/02/22-rdf-syntax-ns#">
   <cc:Work>
    <dc:type rdf:resource="http://purl.org/dc/dcmitype/StillImage"/>
    <dc:date>2022-11-29T09:06:16.776756</dc:date>
    <dc:format>image/svg+xml</dc:format>
    <dc:creator>
     <cc:Agent>
      <dc:title>Matplotlib v3.6.2, https://matplotlib.org/</dc:title>
     </cc:Agent>
    </dc:creator>
   </cc:Work>
  </rdf:RDF>
 </metadata>
 <defs>
  <style type="text/css">*{stroke-linejoin: round; stroke-linecap: butt}</style>
 </defs>
 <g id="figure_1">
  <g id="patch_1">
   <path d="M 0 1080 
L 2880 1080 
L 2880 0 
L 0 0 
z
" style="fill: #ffffff"/>
  </g>
  <g id="axes_1">
   <g id="patch_2">
    <path d="M 360 961.2 
L 1374.545455 961.2 
L 1374.545455 129.6 
L 360 129.6 
z
" style="fill: #ffffff"/>
   </g>
   <g id="matplotlib.axis_1">
    <g id="xtick_1">
     <g id="line2d_1">
      <defs>
       <path id="meda2aec5d5" d="M 0 0 
L 0 3.5 
" style="stroke: #000000; stroke-width: 0.8"/>
      </defs>
      <g>
       <use xlink:href="#meda2aec5d5" x="499.348262" y="961.2" style="stroke: #000000; stroke-width: 0.8"/>
      </g>
     </g>
     <g id="text_1">
      <!-- −2 -->
      <g transform="translate(472.812325 995.554375) scale(0.36 -0.36)">
       <defs>
        <path id="DejaVuSans-2212" d="M 678 2272 
L 4684 2272 
L 4684 1741 
L 678 1741 
L 678 2272 
z
" transform="scale(0.015625)"/>
        <path id="DejaVuSans-32" d="M 1228 531 
L 3431 531 
L 3431 0 
L 469 0 
L 469 531 
Q 828 903 1448 1529 
Q 2069 2156 2228 2338 
Q 2531 2678 2651 2914 
Q 2772 3150 2772 3378 
Q 2772 3750 2511 3984 
Q 2250 4219 1831 4219 
Q 1534 4219 1204 4116 
Q 875 4013 500 3803 
L 500 4441 
Q 881 4594 1212 4672 
Q 1544 4750 1819 4750 
Q 2544 4750 2975 4387 
Q 3406 4025 3406 3419 
Q 3406 3131 3298 2873 
Q 3191 2616 2906 2266 
Q 2828 2175 2409 1742 
Q 1991 1309 1228 531 
z
" transform="scale(0.015625)"/>
       </defs>
       <use xlink:href="#DejaVuSans-2212"/>
       <use xlink:href="#DejaVuSans-32" x="83.789062"/>
      </g>
     </g>
    </g>
    <g id="xtick_2">
     <g id="line2d_2">
      <g>
       <use xlink:href="#meda2aec5d5" x="671.363702" y="961.2" style="stroke: #000000; stroke-width: 0.8"/>
      </g>
     </g>
     <g id="text_2">
      <!-- 0 -->
      <g transform="translate(659.911202 995.554375) scale(0.36 -0.36)">
       <defs>
        <path id="DejaVuSans-30" d="M 2034 4250 
Q 1547 4250 1301 3770 
Q 1056 3291 1056 2328 
Q 1056 1369 1301 889 
Q 1547 409 2034 409 
Q 2525 409 2770 889 
Q 3016 1369 3016 2328 
Q 3016 3291 2770 3770 
Q 2525 4250 2034 4250 
z
M 2034 4750 
Q 2819 4750 3233 4129 
Q 3647 3509 3647 2328 
Q 3647 1150 3233 529 
Q 2819 -91 2034 -91 
Q 1250 -91 836 529 
Q 422 1150 422 2328 
Q 422 3509 836 4129 
Q 1250 4750 2034 4750 
z
" transform="scale(0.015625)"/>
       </defs>
       <use xlink:href="#DejaVuSans-30"/>
      </g>
     </g>
    </g>
    <g id="xtick_3">
     <g id="line2d_3">
      <g>
       <use xlink:href="#meda2aec5d5" x="843.379141" y="961.2" style="stroke: #000000; stroke-width: 0.8"/>
      </g>
     </g>
     <g id="text_3">
      <!-- 2 -->
      <g transform="translate(831.926641 995.554375) scale(0.36 -0.36)">
       <use xlink:href="#DejaVuSans-32"/>
      </g>
     </g>
    </g>
    <g id="xtick_4">
     <g id="line2d_4">
      <g>
       <use xlink:href="#meda2aec5d5" x="1015.394581" y="961.2" style="stroke: #000000; stroke-width: 0.8"/>
      </g>
     </g>
     <g id="text_4">
      <!-- 4 -->
      <g transform="translate(1003.942081 995.554375) scale(0.36 -0.36)">
       <defs>
        <path id="DejaVuSans-34" d="M 2419 4116 
L 825 1625 
L 2419 1625 
L 2419 4116 
z
M 2253 4666 
L 3047 4666 
L 3047 1625 
L 3713 1625 
L 3713 1100 
L 3047 1100 
L 3047 0 
L 2419 0 
L 2419 1100 
L 313 1100 
L 313 1709 
L 2253 4666 
z
" transform="scale(0.015625)"/>
       </defs>
       <use xlink:href="#DejaVuSans-34"/>
      </g>
     </g>
    </g>
    <g id="xtick_5">
     <g id="line2d_5">
      <g>
       <use xlink:href="#meda2aec5d5" x="1187.410021" y="961.2" style="stroke: #000000; stroke-width: 0.8"/>
      </g>
     </g>
     <g id="text_5">
      <!-- 6 -->
      <g transform="translate(1175.957521 995.554375) scale(0.36 -0.36)">
       <defs>
        <path id="DejaVuSans-36" d="M 2113 2584 
Q 1688 2584 1439 2293 
Q 1191 2003 1191 1497 
Q 1191 994 1439 701 
Q 1688 409 2113 409 
Q 2538 409 2786 701 
Q 3034 994 3034 1497 
Q 3034 2003 2786 2293 
Q 2538 2584 2113 2584 
z
M 3366 4563 
L 3366 3988 
Q 3128 4100 2886 4159 
Q 2644 4219 2406 4219 
Q 1781 4219 1451 3797 
Q 1122 3375 1075 2522 
Q 1259 2794 1537 2939 
Q 1816 3084 2150 3084 
Q 2853 3084 3261 2657 
Q 3669 2231 3669 1497 
Q 3669 778 3244 343 
Q 2819 -91 2113 -91 
Q 1303 -91 875 529 
Q 447 1150 447 2328 
Q 447 3434 972 4092 
Q 1497 4750 2381 4750 
Q 2619 4750 2861 4703 
Q 3103 4656 3366 4563 
z
" transform="scale(0.015625)"/>
       </defs>
       <use xlink:href="#DejaVuSans-36"/>
      </g>
     </g>
    </g>
    <g id="xtick_6">
     <g id="line2d_6">
      <g>
       <use xlink:href="#meda2aec5d5" x="1359.42546" y="961.2" style="stroke: #000000; stroke-width: 0.8"/>
      </g>
     </g>
     <g id="text_6">
      <!-- 8 -->
      <g transform="translate(1347.97296 995.554375) scale(0.36 -0.36)">
       <defs>
        <path id="DejaVuSans-38" d="M 2034 2216 
Q 1584 2216 1326 1975 
Q 1069 1734 1069 1313 
Q 1069 891 1326 650 
Q 1584 409 2034 409 
Q 2484 409 2743 651 
Q 3003 894 3003 1313 
Q 3003 1734 2745 1975 
Q 2488 2216 2034 2216 
z
M 1403 2484 
Q 997 2584 770 2862 
Q 544 3141 544 3541 
Q 544 4100 942 4425 
Q 1341 4750 2034 4750 
Q 2731 4750 3128 4425 
Q 3525 4100 3525 3541 
Q 3525 3141 3298 2862 
Q 3072 2584 2669 2484 
Q 3125 2378 3379 2068 
Q 3634 1759 3634 1313 
Q 3634 634 3220 271 
Q 2806 -91 2034 -91 
Q 1263 -91 848 271 
Q 434 634 434 1313 
Q 434 1759 690 2068 
Q 947 2378 1403 2484 
z
M 1172 3481 
Q 1172 3119 1398 2916 
Q 1625 2713 2034 2713 
Q 2441 2713 2670 2916 
Q 2900 3119 2900 3481 
Q 2900 3844 2670 4047 
Q 2441 4250 2034 4250 
Q 1625 4250 1398 4047 
Q 1172 3844 1172 3481 
z
" transform="scale(0.015625)"/>
       </defs>
       <use xlink:href="#DejaVuSans-38"/>
      </g>
     </g>
    </g>
   </g>
   <g id="matplotlib.axis_2">
    <g id="ytick_1">
     <g id="line2d_7">
      <defs>
       <path id="mecb123f595" d="M 0 0 
L -3.5 0 
" style="stroke: #000000; stroke-width: 0.8"/>
      </defs>
      <g>
       <use xlink:href="#mecb123f595" x="360" y="923.4" style="stroke: #000000; stroke-width: 0.8"/>
      </g>
     </g>
     <g id="text_7">
      <!-- 0.0 -->
      <g transform="translate(295.74875 937.077188) scale(0.36 -0.36)">
       <defs>
        <path id="DejaVuSans-2e" d="M 684 794 
L 1344 794 
L 1344 0 
L 684 0 
L 684 794 
z
" transform="scale(0.015625)"/>
       </defs>
       <use xlink:href="#DejaVuSans-30"/>
       <use xlink:href="#DejaVuSans-2e" x="63.623047"/>
       <use xlink:href="#DejaVuSans-30" x="95.410156"/>
      </g>
     </g>
    </g>
    <g id="ytick_2">
     <g id="line2d_8">
      <g>
       <use xlink:href="#mecb123f595" x="360" y="810" style="stroke: #000000; stroke-width: 0.8"/>
      </g>
     </g>
     <g id="text_8">
      <!-- 0.1 -->
      <g transform="translate(295.74875 823.677187) scale(0.36 -0.36)">
       <defs>
        <path id="DejaVuSans-31" d="M 794 531 
L 1825 531 
L 1825 4091 
L 703 3866 
L 703 4441 
L 1819 4666 
L 2450 4666 
L 2450 531 
L 3481 531 
L 3481 0 
L 794 0 
L 794 531 
z
" transform="scale(0.015625)"/>
       </defs>
       <use xlink:href="#DejaVuSans-30"/>
       <use xlink:href="#DejaVuSans-2e" x="63.623047"/>
       <use xlink:href="#DejaVuSans-31" x="95.410156"/>
      </g>
     </g>
    </g>
    <g id="ytick_3">
     <g id="line2d_9">
      <g>
       <use xlink:href="#mecb123f595" x="360" y="696.6" style="stroke: #000000; stroke-width: 0.8"/>
      </g>
     </g>
     <g id="text_9">
      <!-- 0.2 -->
      <g transform="translate(295.74875 710.277187) scale(0.36 -0.36)">
       <use xlink:href="#DejaVuSans-30"/>
       <use xlink:href="#DejaVuSans-2e" x="63.623047"/>
       <use xlink:href="#DejaVuSans-32" x="95.410156"/>
      </g>
     </g>
    </g>
    <g id="ytick_4">
     <g id="line2d_10">
      <g>
       <use xlink:href="#mecb123f595" x="360" y="583.2" style="stroke: #000000; stroke-width: 0.8"/>
      </g>
     </g>
     <g id="text_10">
      <!-- 0.3 -->
      <g transform="translate(295.74875 596.877187) scale(0.36 -0.36)">
       <defs>
        <path id="DejaVuSans-33" d="M 2597 2516 
Q 3050 2419 3304 2112 
Q 3559 1806 3559 1356 
Q 3559 666 3084 287 
Q 2609 -91 1734 -91 
Q 1441 -91 1130 -33 
Q 819 25 488 141 
L 488 750 
Q 750 597 1062 519 
Q 1375 441 1716 441 
Q 2309 441 2620 675 
Q 2931 909 2931 1356 
Q 2931 1769 2642 2001 
Q 2353 2234 1838 2234 
L 1294 2234 
L 1294 2753 
L 1863 2753 
Q 2328 2753 2575 2939 
Q 2822 3125 2822 3475 
Q 2822 3834 2567 4026 
Q 2313 4219 1838 4219 
Q 1578 4219 1281 4162 
Q 984 4106 628 3988 
L 628 4550 
Q 988 4650 1302 4700 
Q 1616 4750 1894 4750 
Q 2613 4750 3031 4423 
Q 3450 4097 3450 3541 
Q 3450 3153 3228 2886 
Q 3006 2619 2597 2516 
z
" transform="scale(0.015625)"/>
       </defs>
       <use xlink:href="#DejaVuSans-30"/>
       <use xlink:href="#DejaVuSans-2e" x="63.623047"/>
       <use xlink:href="#DejaVuSans-33" x="95.410156"/>
      </g>
     </g>
    </g>
    <g id="ytick_5">
     <g id="line2d_11">
      <g>
       <use xlink:href="#mecb123f595" x="360" y="469.8" style="stroke: #000000; stroke-width: 0.8"/>
      </g>
     </g>
     <g id="text_11">
      <!-- 0.4 -->
      <g transform="translate(295.74875 483.477187) scale(0.36 -0.36)">
       <use xlink:href="#DejaVuSans-30"/>
       <use xlink:href="#DejaVuSans-2e" x="63.623047"/>
       <use xlink:href="#DejaVuSans-34" x="95.410156"/>
      </g>
     </g>
    </g>
    <g id="ytick_6">
     <g id="line2d_12">
      <g>
       <use xlink:href="#mecb123f595" x="360" y="356.4" style="stroke: #000000; stroke-width: 0.8"/>
      </g>
     </g>
     <g id="text_12">
      <!-- 0.5 -->
      <g transform="translate(295.74875 370.077187) scale(0.36 -0.36)">
       <defs>
        <path id="DejaVuSans-35" d="M 691 4666 
L 3169 4666 
L 3169 4134 
L 1269 4134 
L 1269 2991 
Q 1406 3038 1543 3061 
Q 1681 3084 1819 3084 
Q 2600 3084 3056 2656 
Q 3513 2228 3513 1497 
Q 3513 744 3044 326 
Q 2575 -91 1722 -91 
Q 1428 -91 1123 -41 
Q 819 9 494 109 
L 494 744 
Q 775 591 1075 516 
Q 1375 441 1709 441 
Q 2250 441 2565 725 
Q 2881 1009 2881 1497 
Q 2881 1984 2565 2268 
Q 2250 2553 1709 2553 
Q 1456 2553 1204 2497 
Q 953 2441 691 2322 
L 691 4666 
z
" transform="scale(0.015625)"/>
       </defs>
       <use xlink:href="#DejaVuSans-30"/>
       <use xlink:href="#DejaVuSans-2e" x="63.623047"/>
       <use xlink:href="#DejaVuSans-35" x="95.410156"/>
      </g>
     </g>
    </g>
    <g id="ytick_7">
     <g id="line2d_13">
      <g>
       <use xlink:href="#mecb123f595" x="360" y="243" style="stroke: #000000; stroke-width: 0.8"/>
      </g>
     </g>
     <g id="text_13">
      <!-- 0.6 -->
      <g transform="translate(295.74875 256.677187) scale(0.36 -0.36)">
       <use xlink:href="#DejaVuSans-30"/>
       <use xlink:href="#DejaVuSans-2e" x="63.623047"/>
       <use xlink:href="#DejaVuSans-36" x="95.410156"/>
      </g>
     </g>
    </g>
    <g id="ytick_8">
     <g id="line2d_14">
      <g>
       <use xlink:href="#mecb123f595" x="360" y="129.6" style="stroke: #000000; stroke-width: 0.8"/>
      </g>
     </g>
     <g id="text_14">
      <!-- 0.7 -->
      <g transform="translate(295.74875 143.277187) scale(0.36 -0.36)">
       <defs>
        <path id="DejaVuSans-37" d="M 525 4666 
L 3525 4666 
L 3525 4397 
L 1831 0 
L 1172 0 
L 2766 4134 
L 525 4134 
L 525 4666 
z
" transform="scale(0.015625)"/>
       </defs>
       <use xlink:href="#DejaVuSans-30"/>
       <use xlink:href="#DejaVuSans-2e" x="63.623047"/>
       <use xlink:href="#DejaVuSans-37" x="95.410156"/>
      </g>
     </g>
    </g>
   </g>
   <g id="line2d_15">
    <path d="M 406.115702 734.4 
L 408.885414 764.940585 
L 411.655126 792.000065 
L 413.501601 808.20979 
L 415.348075 823.028387 
L 417.19455 836.518267 
L 419.041024 848.741843 
L 420.887499 859.761527 
L 422.733974 869.639729 
L 424.580448 878.438863 
L 426.426923 886.22134 
L 428.273397 893.049571 
L 430.119872 898.98597 
L 431.966347 904.092947 
L 433.812821 908.432915 
L 435.659296 912.068286 
L 437.50577 915.061471 
L 439.352245 917.474882 
L 441.198719 919.370932 
L 443.045194 920.812031 
L 444.891669 921.860593 
L 446.738143 922.579028 
L 448.584618 923.02975 
L 450.431092 923.275169 
L 453.200804 923.394882 
L 474.435262 923.4 
L 1328.429752 923.4 
L 1328.429752 923.4 
" clip-path="url(#p2f358d4927)" style="fill: none; stroke: #1f77b4; stroke-width: 6; stroke-linecap: square"/>
   </g>
   <g id="line2d_16">
    <path d="M 406.115702 167.4 
L 407.03894 167.806293 
L 407.962177 169.00957 
L 408.885414 170.986426 
L 409.808652 173.713456 
L 410.731889 177.167257 
L 411.655126 181.324423 
L 412.578363 186.16155 
L 414.424838 197.78207 
L 416.271313 211.841582 
L 418.117787 228.152849 
L 419.964262 246.528636 
L 421.810736 266.781707 
L 424.580448 300.271643 
L 427.35016 336.932268 
L 431.043109 389.653075 
L 435.659296 459.619069 
L 445.814906 615.712249 
L 449.507855 668.531601 
L 452.277567 705.292003 
L 455.047279 738.904277 
L 457.816991 768.943579 
L 459.663465 787.039254 
L 461.50994 803.663322 
L 463.356414 818.878196 
L 465.202889 832.746287 
L 467.049363 845.330006 
L 468.895838 856.691766 
L 470.742313 866.893979 
L 472.588787 875.999056 
L 474.435262 884.06941 
L 476.281736 891.167452 
L 478.128211 897.355595 
L 479.974685 902.696249 
L 481.82116 907.251828 
L 483.667635 911.084742 
L 485.514109 914.257405 
L 487.360584 916.832227 
L 489.207058 918.871621 
L 491.053533 920.437998 
L 492.900007 921.593771 
L 494.746482 922.401351 
L 496.592957 922.92315 
L 498.439431 923.22158 
L 501.209143 923.386935 
L 511.364753 923.4 
L 1328.429752 923.4 
L 1328.429752 923.4 
" clip-path="url(#p2f358d4927)" style="fill: none; stroke: #ff7f0e; stroke-width: 6; stroke-linecap: square"/>
   </g>
   <g id="line2d_17">
    <path d="M 406.115702 734.4 
L 408.885414 700.308096 
L 411.655126 663.156366 
L 415.348075 609.953207 
L 419.964262 539.66143 
L 429.196635 397.568905 
L 432.889584 344.318937 
L 435.659296 307.119166 
L 438.429008 272.968135 
L 440.275482 252.206584 
L 442.121957 233.268118 
L 443.968431 216.339972 
L 445.814906 201.609381 
L 447.66138 189.263582 
L 448.584618 184.04349 
L 449.507855 179.489809 
L 450.431092 175.625945 
L 451.35433 172.4753 
L 452.277567 170.06128 
L 453.200804 168.407289 
L 454.124041 167.536732 
L 455.047279 167.47243 
L 455.970516 168.217148 
L 456.893753 169.748995 
L 457.816991 172.044566 
L 458.740228 175.080458 
L 459.663465 178.833265 
L 460.586702 183.279583 
L 461.50994 188.396008 
L 463.356414 200.54556 
L 465.202889 215.094685 
L 467.049363 231.856147 
L 468.895838 250.642712 
L 470.742313 271.267142 
L 473.512024 305.240209 
L 476.281736 342.295273 
L 479.974685 395.404037 
L 484.590872 465.63325 
L 493.823245 607.785421 
L 497.516194 661.128229 
L 500.285906 698.423498 
L 503.055618 732.692199 
L 505.825329 763.421815 
L 508.595041 790.659259 
L 510.441516 806.981469 
L 512.28799 821.907622 
L 514.134465 835.500132 
L 515.98094 847.821411 
L 517.827414 858.933869 
L 519.673889 868.899919 
L 521.520363 877.781973 
L 523.366838 885.642444 
L 525.213312 892.543741 
L 527.059787 898.548279 
L 528.906262 903.718467 
L 530.752736 908.11672 
L 532.599211 911.805447 
L 534.445685 914.847062 
L 536.29216 917.303976 
L 538.138635 919.2386 
L 539.985109 920.713348 
L 541.831584 921.79063 
L 543.678058 922.532859 
L 545.524533 923.002447 
L 547.371007 923.261805 
L 550.140719 923.393187 
L 566.75899 923.4 
L 1328.429752 923.4 
L 1328.429752 923.4 
" clip-path="url(#p2f358d4927)" style="fill: none; stroke: #2ca02c; stroke-width: 6; stroke-linecap: square"/>
   </g>
   <g id="line2d_18">
    <path d="M 406.115702 923.4 
L 409.808652 923.316784 
L 411.655126 923.119146 
L 413.501601 922.734273 
L 415.348075 922.099752 
L 417.19455 921.153172 
L 419.041024 919.83212 
L 420.887499 918.074185 
L 422.733974 915.816955 
L 424.580448 912.998017 
L 426.426923 909.554961 
L 428.273397 905.425374 
L 430.119872 900.546844 
L 431.966347 894.856959 
L 433.812821 888.293308 
L 435.659296 880.793479 
L 437.50577 872.295059 
L 439.352245 862.735637 
L 441.198719 852.0528 
L 443.045194 840.184138 
L 444.891669 827.067238 
L 446.738143 812.639688 
L 448.584618 796.839076 
L 450.431092 779.60299 
L 452.277567 760.869019 
L 455.047279 729.82339 
L 457.816991 695.263915 
L 460.586702 657.733306 
L 464.279652 604.162936 
L 468.895838 533.633873 
L 478.128211 391.805864 
L 481.82116 338.937628 
L 484.590872 302.12763 
L 487.360584 268.455061 
L 489.207058 248.061757 
L 491.053533 229.530957 
L 492.900007 213.049894 
L 494.746482 198.805805 
L 496.592957 186.985925 
L 497.516194 182.043575 
L 498.439431 177.777491 
L 499.362668 174.211076 
L 500.285906 171.367737 
L 501.209143 169.270877 
L 502.13238 167.9439 
L 503.055618 167.410211 
L 503.978855 167.688556 
L 504.902092 168.767549 
L 505.825329 170.623817 
L 506.748567 173.233955 
L 507.671804 176.574558 
L 508.595041 180.622222 
L 509.518279 185.353543 
L 511.364753 196.773537 
L 513.211228 210.647304 
L 515.057702 226.787608 
L 516.904177 245.007214 
L 518.750651 265.118886 
L 521.520363 298.424439 
L 524.290075 334.93394 
L 527.983024 387.504984 
L 532.599211 457.366923 
L 542.754821 613.556379 
L 546.44777 666.521604 
L 549.217482 703.430212 
L 551.987194 737.223658 
L 554.756906 767.450455 
L 557.526618 794.214623 
L 559.373092 810.23774 
L 561.219567 824.87794 
L 563.066041 838.197635 
L 564.912516 850.259239 
L 566.75899 861.125161 
L 568.605465 870.857815 
L 570.45194 879.519613 
L 572.298414 887.172965 
L 574.144889 893.880285 
L 575.991363 899.703983 
L 577.837838 904.706472 
L 579.684312 908.950164 
L 581.530787 912.497471 
L 583.377262 915.410804 
L 585.223736 917.752576 
L 587.070211 919.585198 
L 588.916685 920.971082 
L 590.76316 921.97264 
L 592.609634 922.652284 
L 594.456109 923.072426 
L 596.302584 923.295478 
L 599.072295 923.397038 
L 635.07855 923.4 
L 1328.429752 923.4 
L 1328.429752 923.4 
" clip-path="url(#p2f358d4927)" style="fill: none; stroke: #d62728; stroke-width: 6; stroke-linecap: square"/>
   </g>
   <g id="line2d_19">
    <path d="M 406.115702 923.4 
L 457.816991 923.34794 
L 460.586702 923.055773 
L 462.433177 922.623529 
L 464.279652 921.928498 
L 466.126126 920.908268 
L 467.972601 919.500427 
L 469.819075 917.642564 
L 471.66555 915.272266 
L 473.512024 912.327122 
L 475.358499 908.744719 
L 477.204974 904.462647 
L 479.051448 899.418492 
L 480.897923 893.549843 
L 482.744397 886.794288 
L 484.590872 879.089416 
L 486.437346 870.372814 
L 488.283821 860.58207 
L 490.130296 849.654772 
L 491.97677 837.52851 
L 493.823245 824.14087 
L 495.669719 809.429441 
L 497.516194 793.331811 
L 499.362668 775.785567 
L 501.209143 756.728299 
L 503.978855 725.175806 
L 506.748567 690.161208 
L 509.518279 652.264166 
L 513.211228 598.343184 
L 518.750651 513.236588 
L 526.13655 399.738134 
L 529.829499 346.349295 
L 532.599211 309.006569 
L 535.368923 274.679324 
L 537.215397 253.78182 
L 539.061872 234.692618 
L 540.908346 217.598955 
L 542.754821 202.688066 
L 544.601296 190.147186 
L 545.524533 184.824011 
L 546.44777 180.163552 
L 547.371007 176.189213 
L 548.294245 172.924399 
L 549.217482 170.392513 
L 550.140719 168.616962 
L 551.063957 167.621149 
L 551.987194 167.428336 
L 552.910431 168.046631 
L 553.833668 169.45575 
L 554.756906 171.632289 
L 555.680143 174.552844 
L 556.60338 178.19401 
L 557.526618 182.532382 
L 558.449855 187.544557 
L 560.296329 199.496694 
L 562.142804 213.863187 
L 563.989279 230.456798 
L 565.835753 249.090293 
L 567.682228 269.576437 
L 570.45194 303.369788 
L 573.221651 340.278396 
L 576.914601 393.243621 
L 581.530787 463.376559 
L 591.686397 619.295016 
L 595.379346 671.86606 
L 598.149058 708.375561 
L 600.91877 741.68278 
L 603.688482 771.410887 
L 605.534956 789.309364 
L 607.381431 805.744446 
L 609.227906 820.778546 
L 611.07438 834.474074 
L 612.920855 846.893444 
L 614.767329 858.099066 
L 616.613804 868.153353 
L 618.460278 877.118717 
L 620.306753 885.057569 
L 622.153228 892.032322 
L 623.999702 898.105387 
L 625.846177 903.339176 
L 627.692651 907.796102 
L 629.539126 911.538575 
L 631.3856 914.629009 
L 633.232075 917.129814 
L 635.07855 919.103403 
L 636.925024 920.612187 
L 638.771499 921.718579 
L 640.617973 922.484991 
L 642.464448 922.973834 
L 644.310922 923.24752 
L 647.080634 923.391156 
L 660.929194 923.4 
L 1328.429752 923.4 
L 1328.429752 923.4 
" clip-path="url(#p2f358d4927)" style="fill: none; stroke: #9467bd; stroke-width: 6; stroke-linecap: square"/>
   </g>
   <g id="line2d_20">
    <path d="M 406.115702 923.4 
L 506.748567 923.326255 
L 508.595041 923.140741 
L 510.441516 922.772918 
L 512.28799 922.160375 
L 514.134465 921.2407 
L 515.98094 919.951481 
L 517.827414 918.230306 
L 519.673889 916.014763 
L 521.520363 913.24244 
L 523.366838 909.850926 
L 525.213312 905.777807 
L 527.059787 900.960674 
L 528.906262 895.337112 
L 530.752736 888.844712 
L 532.599211 881.42106 
L 534.445685 873.003746 
L 536.29216 863.530356 
L 538.138635 852.93848 
L 539.985109 841.165704 
L 541.831584 828.149618 
L 543.678058 813.82781 
L 545.524533 798.137866 
L 547.371007 781.017377 
L 549.217482 762.403929 
L 551.063957 742.235112 
L 553.833668 708.989328 
L 556.60338 672.530591 
L 560.296329 620.009986 
L 564.912516 550.183381 
L 575.991363 380.379801 
L 579.684312 328.324821 
L 582.454024 292.33171 
L 585.223736 259.653409 
L 587.070211 240.021496 
L 588.916685 222.330922 
L 590.76316 206.768922 
L 592.609634 193.522732 
L 594.456109 182.779587 
L 595.379346 178.405168 
L 596.302584 174.726724 
L 597.225821 171.767658 
L 598.149058 169.551377 
L 599.072295 168.101284 
L 599.995533 167.440783 
L 600.91877 167.59078 
L 601.842007 168.544907 
L 602.765245 170.280003 
L 603.688482 172.772664 
L 604.611719 175.999487 
L 605.534956 179.937066 
L 606.458194 184.561997 
L 608.304668 195.780298 
L 610.151143 209.467153 
L 611.997617 225.435328 
L 613.844092 243.497586 
L 615.690567 263.466691 
L 618.460278 296.586111 
L 621.22999 332.942737 
L 624.922939 385.361685 
L 629.539126 455.11665 
L 640.617973 624.999585 
L 644.310922 677.159852 
L 647.080634 713.257797 
L 649.850346 746.070127 
L 652.620058 775.303693 
L 654.466533 792.8889 
L 656.313007 809.023852 
L 658.159482 823.77096 
L 660.005956 837.192637 
L 661.852431 849.351295 
L 663.698906 860.309344 
L 665.54538 870.129197 
L 667.391855 878.873267 
L 669.238329 886.603964 
L 671.084804 893.383702 
L 672.931278 899.27489 
L 674.777753 904.339943 
L 676.624228 908.641271 
L 678.470702 912.241286 
L 680.317177 915.202401 
L 682.163651 917.587026 
L 684.010126 919.457575 
L 685.8566 920.876459 
L 687.703075 921.90609 
L 689.54955 922.608879 
L 691.396024 923.047239 
L 693.242499 923.283581 
L 696.012211 923.395839 
L 721.862855 923.4 
L 1328.429752 923.4 
L 1328.429752 923.4 
" clip-path="url(#p2f358d4927)" style="fill: none; stroke: #8c564b; stroke-width: 6; stroke-linecap: square"/>
   </g>
   <g id="line2d_21">
    <path d="M 406.115702 923.4 
L 555.680143 923.299256 
L 557.526618 923.080548 
L 559.373092 922.666392 
L 561.219567 921.994376 
L 563.066041 921.002089 
L 564.912516 919.627118 
L 566.75899 917.807052 
L 568.605465 915.479479 
L 570.45194 912.581986 
L 572.298414 909.052163 
L 574.144889 904.827596 
L 575.991363 899.845875 
L 577.837838 894.044587 
L 579.684312 887.36132 
L 581.530787 879.733663 
L 583.377262 871.099203 
L 585.223736 861.395529 
L 587.070211 850.560229 
L 588.916685 838.530891 
L 590.76316 825.245102 
L 592.609634 810.640452 
L 594.456109 794.654528 
L 596.302584 777.224918 
L 598.149058 758.28921 
L 600.91877 726.926856 
L 603.688482 692.081471 
L 606.458194 654.320383 
L 610.151143 600.528935 
L 615.690567 515.505779 
L 623.076465 401.911632 
L 626.769414 348.386256 
L 629.539126 310.902326 
L 632.308838 276.400617 
L 634.155312 255.368326 
L 636.001787 236.129556 
L 637.848261 218.871543 
L 639.694736 203.781522 
L 641.541211 191.046729 
L 643.387685 180.8544 
L 644.310922 176.77017 
L 645.23416 173.39177 
L 646.157397 170.742603 
L 647.080634 168.846074 
L 648.003872 167.725588 
L 648.927109 167.404541 
L 649.850346 167.895829 
L 650.773584 169.181637 
L 651.696821 171.238561 
L 652.620058 174.043195 
L 653.543295 177.572137 
L 654.466533 181.80198 
L 655.38977 186.70932 
L 657.236245 198.462876 
L 659.082719 212.645569 
L 660.929194 229.070163 
L 662.775668 247.549422 
L 664.622143 267.896111 
L 667.391855 301.507997 
L 670.161567 338.268399 
L 673.854516 391.087751 
L 678.470702 461.121495 
L 688.626312 617.146925 
L 692.319261 669.867732 
L 695.088973 706.528357 
L 697.858685 740.019052 
L 700.628397 769.933681 
L 702.474872 787.950347 
L 704.321346 804.498692 
L 706.167821 819.641126 
L 708.014295 833.440062 
L 709.86077 845.957912 
L 711.707244 857.257087 
L 713.553719 867.4 
L 715.400194 876.449062 
L 717.246668 884.466686 
L 719.093143 891.515283 
L 720.939617 897.657264 
L 722.786092 902.955043 
L 724.632566 907.471031 
L 726.479041 911.267639 
L 728.325516 914.40728 
L 730.17199 916.952366 
L 732.018465 918.965308 
L 733.864939 920.508519 
L 735.711414 921.644409 
L 737.557888 922.435392 
L 739.404363 922.943879 
L 741.250838 923.232282 
L 744.020549 923.388755 
L 755.099397 923.4 
L 1328.429752 923.4 
L 1328.429752 923.4 
" clip-path="url(#p2f358d4927)" style="fill: none; stroke: #e377c2; stroke-width: 6; stroke-linecap: square"/>
   </g>
   <g id="line2d_22">
    <path d="M 406.115702 923.4 
L 603.688482 923.334978 
L 605.534956 923.161199 
L 607.381431 922.810038 
L 609.227906 922.219085 
L 611.07438 921.325926 
L 612.920855 920.06815 
L 614.767329 918.383346 
L 616.613804 916.209101 
L 618.460278 913.483004 
L 620.306753 910.142642 
L 622.153228 906.125604 
L 623.999702 901.369477 
L 625.846177 895.81185 
L 627.692651 889.390312 
L 629.539126 882.042449 
L 631.3856 873.705851 
L 633.232075 864.318104 
L 635.07855 853.816799 
L 636.925024 842.139521 
L 638.771499 829.22386 
L 640.617973 815.007404 
L 642.464448 799.427741 
L 644.310922 782.422459 
L 646.157397 763.929145 
L 648.003872 743.885389 
L 650.773584 710.824677 
L 653.543295 674.519398 
L 657.236245 622.151668 
L 661.852431 552.433009 
L 672.931278 382.511564 
L 676.624228 330.299042 
L 679.393939 294.148971 
L 682.163651 261.280453 
L 684.010126 241.503251 
L 685.8566 223.652605 
L 687.703075 207.915753 
L 689.54955 194.479928 
L 691.396024 183.532367 
L 692.319261 179.050196 
L 693.242499 175.260305 
L 694.165736 172.186098 
L 695.088973 169.850979 
L 696.012211 168.278353 
L 696.935448 167.491623 
L 697.858685 167.513058 
L 698.781922 168.341734 
L 699.70516 169.955075 
L 700.628397 172.329677 
L 701.551634 175.442135 
L 702.474872 179.269046 
L 703.398109 183.787004 
L 704.321346 188.972605 
L 706.167821 201.253118 
L 708.014295 215.923349 
L 709.86077 232.796064 
L 711.707244 251.684026 
L 713.553719 272.4 
L 716.323431 306.491904 
L 719.093143 343.643634 
L 722.786092 396.846793 
L 727.402278 467.13857 
L 736.634651 609.231095 
L 740.3276 662.481063 
L 743.097312 699.680834 
L 745.867024 733.831865 
L 748.636736 764.435401 
L 751.406448 791.554138 
L 753.252922 807.801314 
L 755.099397 822.65572 
L 756.945871 836.179767 
L 758.792346 848.435868 
L 760.638821 859.486433 
L 762.485295 869.393875 
L 764.33177 878.220605 
L 766.178244 886.029037 
L 768.024719 892.88158 
L 769.871194 898.840649 
L 771.717668 903.968653 
L 773.564143 908.328006 
L 775.410617 911.981119 
L 777.257092 914.990404 
L 779.103566 917.418273 
L 780.950041 919.327138 
L 782.796516 920.77941 
L 784.64299 921.837502 
L 786.489465 922.563826 
L 788.335939 923.020792 
L 790.182414 923.270815 
L 792.952126 923.394353 
L 812.340109 923.4 
L 1328.429752 923.4 
L 1328.429752 923.4 
" clip-path="url(#p2f358d4927)" style="fill: none; stroke: #7f7f7f; stroke-width: 6; stroke-linecap: square"/>
   </g>
   <g id="line2d_23">
    <path d="M 406.115702 923.4 
L 652.620058 923.31004 
L 654.466533 923.104104 
L 656.313007 922.707647 
L 658.159482 922.058258 
L 660.005956 921.093524 
L 661.852431 919.751035 
L 663.698906 917.968377 
L 665.54538 915.683139 
L 667.391855 912.832909 
L 669.238329 909.355276 
L 671.084804 905.187827 
L 672.931278 900.26815 
L 674.777753 894.533834 
L 676.624228 887.922466 
L 678.470702 880.371635 
L 680.317177 871.818929 
L 682.163651 862.201936 
L 684.010126 851.458243 
L 685.8566 839.52544 
L 687.703075 826.341114 
L 689.54955 811.842854 
L 691.396024 795.968247 
L 693.242499 778.654881 
L 695.088973 759.840345 
L 697.858685 728.668079 
L 700.628397 693.993657 
L 703.398109 656.370273 
L 707.091058 602.710694 
L 712.630482 517.774478 
L 720.01638 404.089306 
L 723.709329 350.429727 
L 726.479041 312.806343 
L 729.248753 278.131921 
L 732.018465 247.038381 
L 733.864939 228.610793 
L 735.711414 212.242798 
L 737.557888 198.12163 
L 739.404363 186.434527 
L 740.3276 181.562261 
L 741.250838 177.368724 
L 742.174075 173.877321 
L 743.097312 171.111456 
L 744.020549 169.094534 
L 744.943787 167.849959 
L 745.867024 167.401136 
L 746.790261 167.764835 
L 747.713499 168.926749 
L 748.636736 170.863474 
L 749.559973 173.551604 
L 750.48321 176.967737 
L 751.406448 181.088468 
L 752.329685 185.890391 
L 754.17616 197.444199 
L 756.022634 211.441925 
L 757.869109 227.696334 
L 759.715583 246.020191 
L 761.562058 266.226258 
L 764.33177 299.654928 
L 767.101482 336.265372 
L 770.794431 388.936518 
L 775.410617 458.868151 
L 785.566227 614.994136 
L 789.259177 667.862372 
L 792.028888 704.67237 
L 794.7986 738.345199 
L 797.568312 768.446935 
L 799.414787 786.582179 
L 801.261261 803.244175 
L 803.107736 818.495333 
L 804.95421 832.398065 
L 806.800685 845.014784 
L 808.64716 856.407902 
L 810.493634 866.639829 
L 812.340109 875.772979 
L 814.186583 883.869763 
L 816.033058 890.992593 
L 817.879532 897.20388 
L 819.726007 902.566037 
L 821.572482 907.141476 
L 823.418956 910.992609 
L 825.265431 914.181847 
L 827.111905 916.771602 
L 828.95838 918.824286 
L 830.804854 920.402311 
L 832.651329 921.56809 
L 834.497804 922.384033 
L 836.344278 922.912553 
L 838.190753 923.216062 
L 840.960465 923.385955 
L 850.192837 923.4 
L 1328.429752 923.4 
L 1328.429752 923.4 
" clip-path="url(#p2f358d4927)" style="fill: none; stroke: #bcbd22; stroke-width: 6; stroke-linecap: square"/>
   </g>
   <g id="line2d_24">
    <path d="M 406.115702 923.4 
L 700.628397 923.342985 
L 702.474872 923.180551 
L 704.321346 922.845664 
L 706.167821 922.27591 
L 708.014295 921.408879 
L 709.86077 920.182158 
L 711.707244 918.533336 
L 713.553719 916.4 
L 715.400194 913.719739 
L 717.246668 910.430141 
L 719.093143 906.468793 
L 720.939617 901.773285 
L 722.786092 896.281204 
L 724.632566 889.930138 
L 726.479041 882.657675 
L 728.325516 874.401404 
L 730.17199 865.098912 
L 732.018465 854.687788 
L 733.864939 843.10562 
L 735.711414 830.289995 
L 737.557888 816.178503 
L 739.404363 800.70873 
L 741.250838 783.818266 
L 743.097312 765.444697 
L 744.943787 745.525614 
L 747.713499 712.651029 
L 750.48321 676.500958 
L 753.252922 637.701257 
L 756.945871 582.93888 
L 764.33177 468.644545 
L 769.871194 384.648332 
L 773.564143 332.280602 
L 776.333855 295.975323 
L 779.103566 262.918337 
L 780.950041 242.997012 
L 782.796516 224.987463 
L 784.64299 209.076925 
L 786.489465 195.452632 
L 788.335939 184.301822 
L 789.259177 179.712484 
L 790.182414 175.81173 
L 791.105651 172.622964 
L 792.028888 170.16959 
L 792.952126 168.475015 
L 793.875363 167.56264 
L 794.7986 167.455482 
L 795.721838 168.158124 
L 796.645075 169.649126 
L 797.568312 171.905085 
L 798.491549 174.902596 
L 799.414787 178.618254 
L 800.338024 183.028655 
L 801.261261 188.110395 
L 803.107736 200.194271 
L 804.95421 214.682649 
L 806.800685 231.388291 
L 808.64716 250.123962 
L 810.493634 270.702426 
L 813.263346 304.615782 
L 816.033058 341.622222 
L 819.726007 394.683399 
L 824.342193 464.880845 
L 834.497804 620.72442 
L 838.190753 673.194326 
L 840.960465 709.602105 
L 843.730176 742.786323 
L 846.499888 772.390405 
L 848.346363 790.210306 
L 850.192837 806.570096 
L 852.039312 821.532188 
L 853.885787 835.158995 
L 855.732261 847.512927 
L 857.578736 858.656397 
L 859.42521 868.651816 
L 861.271685 877.561597 
L 863.118159 885.448151 
L 864.964634 892.373891 
L 866.811109 898.401227 
L 868.657583 903.592573 
L 870.504058 908.01034 
L 872.350532 911.716939 
L 874.197007 914.774784 
L 876.043481 917.246285 
L 877.889956 919.193854 
L 879.736431 920.679904 
L 881.582905 921.766847 
L 883.42938 922.517093 
L 885.275854 922.993056 
L 887.122329 923.257147 
L 889.892041 923.392549 
L 905.587075 923.4 
L 1328.429752 923.4 
L 1328.429752 923.4 
" clip-path="url(#p2f358d4927)" style="fill: none; stroke: #17becf; stroke-width: 6; stroke-linecap: square"/>
   </g>
   <g id="line2d_25">
    <path d="M 406.115702 923.4 
L 749.559973 923.320026 
L 751.406448 923.126473 
L 753.252922 922.747326 
L 755.099397 922.120175 
L 756.945871 921.182606 
L 758.792346 919.872208 
L 760.638821 918.12657 
L 762.485295 915.883278 
L 764.33177 913.079922 
L 766.178244 909.65409 
L 768.024719 905.543369 
L 769.871194 900.685347 
L 771.717668 895.017614 
L 773.564143 888.477756 
L 775.410617 881.003363 
L 777.257092 872.532021 
L 779.103566 863.00132 
L 780.950041 852.348846 
L 782.796516 840.51219 
L 784.64299 827.428937 
L 786.489465 813.036678 
L 788.335939 797.272999 
L 790.182414 780.075488 
L 792.028888 761.381735 
L 793.875363 741.129327 
L 796.645075 707.760808 
L 799.414787 671.200738 
L 803.107736 618.579513 
L 807.723922 548.682565 
L 817.879532 392.524488 
L 821.572482 339.607628 
L 824.342193 302.748228 
L 827.111905 269.01517 
L 828.95838 248.575382 
L 830.804854 229.993169 
L 832.651329 213.455767 
L 834.497804 199.150412 
L 836.344278 187.264338 
L 837.267515 182.287044 
L 838.190753 177.984783 
L 839.11399 174.38096 
L 840.037227 171.498981 
L 840.960465 169.362249 
L 841.883702 167.994168 
L 842.806939 167.418144 
L 843.730176 167.653742 
L 844.653414 168.691177 
L 845.576651 170.507119 
L 846.499888 173.078163 
L 847.423126 176.380904 
L 848.346363 180.391938 
L 849.2696 185.087861 
L 851.116075 196.440754 
L 852.962549 210.252346 
L 854.809024 226.335404 
L 856.655498 244.50269 
L 858.501973 264.566969 
L 861.271685 297.810672 
L 864.041397 334.269409 
L 867.734346 386.790014 
L 872.350532 456.616619 
L 883.42938 626.420199 
L 887.122329 678.475179 
L 889.892041 714.46829 
L 892.661753 747.155817 
L 895.431465 776.266396 
L 897.277939 793.773718 
L 899.124414 809.83407 
L 900.970888 824.509863 
L 902.817363 837.863509 
L 904.663837 849.95742 
L 906.510312 860.854008 
L 908.356787 870.615686 
L 910.203261 879.304864 
L 912.049736 886.983955 
L 913.89621 893.71537 
L 915.742685 899.561522 
L 917.589159 904.584823 
L 919.435634 908.847684 
L 921.282109 912.412517 
L 923.128583 915.341734 
L 924.975058 917.697747 
L 926.821532 919.542968 
L 928.668007 920.939808 
L 930.514481 921.950681 
L 932.360956 922.637997 
L 934.207431 923.064168 
L 936.053905 923.291607 
L 938.823617 923.396668 
L 971.136922 923.4 
L 1328.429752 923.4 
L 1328.429752 923.4 
" clip-path="url(#p2f358d4927)" style="fill: none; stroke: #1f77b4; stroke-width: 6; stroke-linecap: square"/>
   </g>
   <g id="line2d_26">
    <path d="M 406.115702 923.4 
L 798.491549 923.291607 
L 800.338024 923.064168 
L 802.184499 922.637997 
L 804.030973 921.950681 
L 805.877448 920.939808 
L 807.723922 919.542968 
L 809.570397 917.697747 
L 811.416871 915.341734 
L 813.263346 912.412517 
L 815.109821 908.847684 
L 816.956295 904.584823 
L 818.80277 899.561522 
L 820.649244 893.71537 
L 822.495719 886.983955 
L 824.342193 879.304864 
L 826.188668 870.615686 
L 828.035143 860.854008 
L 829.881617 849.95742 
L 831.728092 837.863509 
L 833.574566 824.509863 
L 835.421041 809.83407 
L 837.267515 793.773718 
L 839.11399 776.266396 
L 840.960465 757.249691 
L 843.730176 725.760575 
L 846.499888 690.802187 
L 849.2696 652.950269 
L 852.962549 599.072205 
L 858.501973 513.993034 
L 865.887871 400.462164 
L 869.58082 347.027553 
L 872.350532 309.637565 
L 875.120244 275.25197 
L 876.966719 254.309408 
L 878.813193 235.17022 
L 880.659668 218.021644 
L 882.506143 203.050915 
L 884.352617 190.445267 
L 885.275854 185.087861 
L 886.199092 180.391938 
L 887.122329 176.380904 
L 888.045566 173.078163 
L 888.968804 170.507119 
L 889.892041 168.691177 
L 890.815278 167.653742 
L 891.738515 167.418144 
L 892.661753 167.994168 
L 893.58499 169.362249 
L 894.508227 171.498981 
L 895.431465 174.38096 
L 896.354702 177.984783 
L 897.277939 182.287044 
L 898.201176 187.264338 
L 900.047651 199.150412 
L 901.894126 213.455767 
L 903.7406 229.993169 
L 905.587075 248.575382 
L 907.433549 269.01517 
L 910.203261 302.748228 
L 912.972973 339.607628 
L 916.665922 392.524488 
L 921.282109 462.624686 
L 931.437719 618.579513 
L 935.130668 671.200738 
L 937.90038 707.760808 
L 940.670092 741.129327 
L 943.439803 770.919543 
L 945.286278 788.857373 
L 947.132753 805.330166 
L 948.979227 820.400334 
L 950.825702 834.130289 
L 952.672176 846.582442 
L 954.518651 857.819205 
L 956.365125 867.902991 
L 958.2116 876.896211 
L 960.058075 884.861277 
L 961.904549 891.860601 
L 963.751024 897.956595 
L 965.597498 903.211671 
L 967.443973 907.688241 
L 969.290447 911.448716 
L 971.136922 914.555509 
L 972.983397 917.071031 
L 974.829871 919.057695 
L 976.676346 920.577911 
L 978.52282 921.694093 
L 980.369295 922.468652 
L 982.215769 922.963999 
L 984.062244 923.242548 
L 986.831956 923.390398 
L 999.757278 923.4 
L 1328.429752 923.4 
L 1328.429752 923.4 
" clip-path="url(#p2f358d4927)" style="fill: none; stroke: #ff7f0e; stroke-width: 6; stroke-linecap: square"/>
   </g>
   <g id="line2d_27">
    <path d="M 406.115702 923.4 
L 846.499888 923.329244 
L 848.346363 923.147685 
L 850.192837 922.78546 
L 852.039312 922.180156 
L 853.885787 921.269363 
L 855.732261 919.990669 
L 857.578736 918.28166 
L 859.42521 916.079927 
L 861.271685 913.323055 
L 863.118159 909.948635 
L 864.964634 905.894253 
L 866.811109 901.097498 
L 868.657583 895.495959 
L 870.504058 889.027222 
L 872.350532 881.628877 
L 874.197007 873.238511 
L 876.043481 863.793712 
L 877.889956 853.232069 
L 879.736431 841.491169 
L 881.582905 828.508602 
L 883.42938 814.221954 
L 885.275854 798.568814 
L 887.122329 781.48677 
L 888.968804 762.91341 
L 890.815278 742.786323 
L 893.58499 709.602105 
L 896.354702 673.194326 
L 900.047651 620.72442 
L 904.663837 550.933473 
L 915.742685 381.089826 
L 919.435634 328.982074 
L 922.205346 292.936448 
L 924.975058 260.194547 
L 926.821532 240.514075 
L 928.668007 222.770014 
L 930.514481 207.1496 
L 932.360956 193.840068 
L 934.207431 183.028655 
L 935.130668 178.618254 
L 936.053905 174.902596 
L 936.977142 171.905085 
L 937.90038 169.649126 
L 938.823617 168.158124 
L 939.746854 167.455482 
L 940.670092 167.56264 
L 941.593329 168.475015 
L 942.516566 170.16959 
L 943.439803 172.622964 
L 944.363041 175.81173 
L 945.286278 179.712484 
L 946.209515 184.301822 
L 948.05599 195.452632 
L 949.902464 209.076925 
L 951.748939 224.987463 
L 953.595414 242.997012 
L 955.441888 262.918337 
L 958.2116 295.975323 
L 960.981312 332.280602 
L 964.674261 384.648332 
L 969.290447 454.366991 
L 980.369295 624.288436 
L 984.062244 676.500958 
L 986.831956 712.651029 
L 989.601668 745.525614 
L 992.37138 774.82077 
L 994.217854 792.444985 
L 996.064329 808.617302 
L 997.910803 823.400133 
L 999.757278 836.85589 
L 1001.603753 849.046985 
L 1003.450227 860.03583 
L 1005.296702 869.884836 
L 1007.143176 878.656416 
L 1008.989651 886.412982 
L 1010.836125 893.216945 
L 1012.6826 899.130717 
L 1014.529075 904.21671 
L 1016.375549 908.537336 
L 1018.222024 912.155008 
L 1020.068498 915.132136 
L 1021.914973 917.531133 
L 1023.761447 919.41441 
L 1025.607922 920.84438 
L 1027.454397 921.883455 
L 1029.300871 922.594046 
L 1031.147346 923.038565 
L 1032.99382 923.279424 
L 1035.763532 923.395377 
L 1059.767702 923.4 
L 1328.429752 923.4 
L 1328.429752 923.4 
" clip-path="url(#p2f358d4927)" style="fill: none; stroke: #2ca02c; stroke-width: 6; stroke-linecap: square"/>
   </g>
   <g id="line2d_28">
    <path d="M 406.115702 923.4 
L 895.431465 923.302941 
L 897.277939 923.088533 
L 899.124414 922.68032 
L 900.970888 922.01589 
L 902.817363 921.032831 
L 904.663837 919.66873 
L 906.510312 917.861177 
L 908.356787 915.547759 
L 910.203261 912.666064 
L 912.049736 909.15368 
L 913.89621 904.948196 
L 915.742685 899.987199 
L 917.589159 894.208278 
L 919.435634 887.549021 
L 921.282109 879.947016 
L 923.128583 871.339851 
L 924.975058 861.665113 
L 926.821532 850.860392 
L 928.668007 838.863276 
L 930.514481 825.611351 
L 932.360956 811.042208 
L 934.207431 795.093432 
L 936.053905 777.702614 
L 937.90038 758.80734 
L 940.670092 727.50836 
L 943.439803 692.719768 
L 946.209515 655.004387 
L 949.902464 601.256636 
L 955.441888 516.262071 
L 962.827786 402.637064 
L 966.520736 349.066694 
L 969.290447 311.536085 
L 972.060159 276.97661 
L 974.829871 246.020191 
L 976.676346 227.696334 
L 978.52282 211.441925 
L 980.369295 197.444199 
L 982.215769 185.890391 
L 983.139007 181.088468 
L 984.062244 176.967737 
L 984.985481 173.551604 
L 985.908719 170.863474 
L 986.831956 168.926749 
L 987.755193 167.764835 
L 988.67843 167.401136 
L 989.601668 167.849959 
L 990.524905 169.094534 
L 991.448142 171.111456 
L 992.37138 173.877321 
L 993.294617 177.368724 
L 994.217854 181.562261 
L 995.141092 186.434527 
L 996.987566 198.12163 
L 998.834041 212.242798 
L 1000.680515 228.610793 
L 1002.52699 247.038381 
L 1004.373464 267.338325 
L 1007.143176 300.889334 
L 1009.912888 337.599944 
L 1013.605837 390.370154 
L 1018.222024 460.370185 
L 1028.377634 616.429846 
L 1032.070583 669.200056 
L 1034.840295 705.910666 
L 1037.610007 739.462227 
L 1040.379719 769.43916 
L 1042.226193 787.49531 
L 1044.072668 804.081494 
L 1045.919142 819.260127 
L 1047.765617 833.093618 
L 1049.612091 845.644381 
L 1051.458566 856.974828 
L 1053.305041 867.147369 
L 1055.151515 876.224417 
L 1056.99799 884.268384 
L 1058.844464 891.341682 
L 1060.690939 897.506722 
L 1062.537413 902.825918 
L 1064.383888 907.361679 
L 1066.230363 911.176419 
L 1068.076837 914.332549 
L 1069.923312 916.892481 
L 1071.769786 918.918628 
L 1073.616261 920.4734 
L 1075.462735 921.61921 
L 1077.30921 922.41847 
L 1079.155685 922.933591 
L 1081.002159 923.226986 
L 1083.771871 923.387868 
L 1093.927481 923.4 
L 1328.429752 923.4 
L 1328.429752 923.4 
" clip-path="url(#p2f358d4927)" style="fill: none; stroke: #d62728; stroke-width: 6; stroke-linecap: square"/>
   </g>
   <g id="line2d_29">
    <path d="M 406.115702 923.4 
L 943.439803 923.337725 
L 945.286278 923.167771 
L 947.132753 922.822078 
L 948.979227 922.238234 
L 950.825702 921.353828 
L 952.672176 920.106447 
L 954.518651 918.43368 
L 956.365125 916.273115 
L 958.2116 913.562339 
L 960.058075 910.238942 
L 961.904549 906.240511 
L 963.751024 901.504633 
L 965.597498 895.968898 
L 967.443973 889.570894 
L 969.290447 882.248208 
L 971.136922 873.938428 
L 972.983397 864.579143 
L 974.829871 854.107941 
L 976.676346 842.46241 
L 978.52282 829.580138 
L 980.369295 815.398713 
L 982.215769 799.855723 
L 984.062244 782.888757 
L 985.908719 764.435401 
L 987.755193 744.433246 
L 990.524905 711.434465 
L 993.294617 675.180728 
L 996.987566 622.864475 
L 1001.603753 553.182446 
L 1012.6826 383.223268 
L 1016.375549 330.958751 
L 1019.145261 294.75675 
L 1021.914973 261.825214 
L 1023.761447 241.999842 
L 1025.607922 224.096099 
L 1027.454397 208.301221 
L 1029.300871 194.802444 
L 1031.147346 183.787004 
L 1032.070583 179.269046 
L 1032.99382 175.442135 
L 1033.917058 172.329677 
L 1034.840295 169.955075 
L 1035.763532 168.341734 
L 1036.686769 167.513058 
L 1037.610007 167.491623 
L 1038.533244 168.278353 
L 1039.456481 169.850979 
L 1040.379719 172.186098 
L 1041.302956 175.260305 
L 1042.226193 179.050196 
L 1043.14943 183.532367 
L 1044.072668 188.683412 
L 1045.919142 200.898509 
L 1047.765617 215.508253 
L 1049.612091 232.325406 
L 1051.458566 251.162734 
L 1053.305041 271.833001 
L 1056.074752 305.865584 
L 1058.844464 342.969078 
L 1062.537413 396.125169 
L 1067.1536 466.385826 
L 1076.385973 608.508499 
L 1080.078922 661.805017 
L 1082.848634 699.052633 
L 1085.618346 733.262597 
L 1088.388057 763.929145 
L 1091.157769 791.107203 
L 1093.004244 807.391874 
L 1094.850718 822.282132 
L 1096.697193 835.840389 
L 1098.543668 848.129057 
L 1100.390142 859.210547 
L 1102.236617 869.147272 
L 1104.083091 878.001643 
L 1105.929566 885.836072 
L 1107.776041 892.712971 
L 1109.622515 898.694752 
L 1111.46899 903.843827 
L 1113.315464 908.222608 
L 1115.161939 911.893507 
L 1117.008413 914.918935 
L 1118.854888 917.361305 
L 1120.701363 919.283028 
L 1122.547837 920.746516 
L 1124.394312 921.814182 
L 1126.240786 922.548436 
L 1128.087261 923.011692 
L 1129.933735 923.26636 
L 1132.703447 923.393788 
L 1151.168193 923.4 
L 1328.429752 923.4 
L 1328.429752 923.4 
" clip-path="url(#p2f358d4927)" style="fill: none; stroke: #9467bd; stroke-width: 6; stroke-linecap: square"/>
   </g>
   <g id="line2d_30">
    <path d="M 406.115702 923.4 
L 992.37138 923.313456 
L 994.217854 923.111691 
L 996.064329 922.721047 
L 997.910803 922.079114 
L 999.757278 921.123478 
L 1001.603753 919.791729 
L 1003.450227 918.021454 
L 1005.296702 915.750242 
L 1007.143176 912.91568 
L 1008.989651 909.455357 
L 1010.836125 905.30686 
L 1012.6826 900.407778 
L 1014.529075 894.6957 
L 1016.375549 888.108212 
L 1018.222024 880.582903 
L 1020.068498 872.057362 
L 1021.914973 862.469176 
L 1023.761447 851.755933 
L 1025.607922 839.855222 
L 1027.454397 826.70463 
L 1029.300871 812.241747 
L 1031.147346 796.404159 
L 1032.99382 779.129455 
L 1034.840295 760.355223 
L 1037.610007 729.246287 
L 1040.379719 694.629242 
L 1043.14943 657.052147 
L 1046.84238 603.437043 
L 1052.381803 518.530585 
L 1059.767702 404.81611 
L 1063.460651 351.112316 
L 1066.230363 313.442835 
L 1069.000074 278.711231 
L 1071.769786 247.549422 
L 1073.616261 229.070163 
L 1075.462735 212.645569 
L 1077.30921 198.462876 
L 1079.155685 186.70932 
L 1080.078922 181.80198 
L 1081.002159 177.572137 
L 1081.925396 174.043195 
L 1082.848634 171.238561 
L 1083.771871 169.181637 
L 1084.695108 167.895829 
L 1085.618346 167.404541 
L 1086.541583 167.725588 
L 1087.46482 168.846074 
L 1088.388057 170.742603 
L 1089.311295 173.39177 
L 1090.234532 176.77017 
L 1091.157769 180.8544 
L 1092.081007 185.621054 
L 1093.927481 197.10802 
L 1095.773956 211.043832 
L 1097.62043 227.241253 
L 1099.466905 245.513049 
L 1101.313379 265.671983 
L 1104.083091 299.039192 
L 1106.852803 335.599262 
L 1110.545752 388.220487 
L 1115.161939 458.117435 
L 1125.317549 614.275512 
L 1129.010498 667.192372 
L 1131.78021 704.051772 
L 1134.549922 737.784993 
L 1137.319634 767.949227 
L 1140.089346 794.654528 
L 1141.93582 810.640452 
L 1143.782295 825.245102 
L 1145.628769 838.530891 
L 1147.475244 850.560229 
L 1149.321718 861.395529 
L 1151.168193 871.099203 
L 1153.014668 879.733663 
L 1154.861142 887.36132 
L 1156.707617 894.044587 
L 1158.554091 899.845875 
L 1160.400566 904.827596 
L 1162.24704 909.052163 
L 1164.093515 912.581986 
L 1165.93999 915.479479 
L 1167.786464 917.807052 
L 1169.632939 919.627118 
L 1171.479413 921.002089 
L 1173.325888 921.994376 
L 1175.172362 922.666392 
L 1177.018837 923.080548 
L 1178.865312 923.299256 
L 1181.635023 923.397379 
L 1221.334227 923.4 
L 1328.429752 923.4 
L 1328.429752 923.4 
" clip-path="url(#p2f358d4927)" style="fill: none; stroke: #8c564b; stroke-width: 6; stroke-linecap: square"/>
   </g>
   <g id="line2d_31">
    <path d="M 406.115702 923.4 
L 1040.379719 923.3455 
L 1042.226193 923.186762 
L 1044.072668 922.857212 
L 1045.919142 922.294439 
L 1047.765617 921.43603 
L 1049.612091 920.219574 
L 1051.458566 918.58266 
L 1053.305041 916.462874 
L 1055.151515 913.797805 
L 1056.99799 910.525042 
L 1058.844464 906.582172 
L 1060.690939 901.906783 
L 1062.537413 896.436464 
L 1064.383888 890.108802 
L 1066.230363 882.861386 
L 1068.076837 874.631804 
L 1069.923312 865.357644 
L 1071.769786 854.976494 
L 1073.616261 843.425943 
L 1075.462735 830.643577 
L 1077.30921 816.566986 
L 1079.155685 801.133757 
L 1081.002159 784.281479 
L 1082.848634 765.947739 
L 1084.695108 746.070127 
L 1087.46482 713.257797 
L 1090.234532 677.159852 
L 1093.004244 638.401189 
L 1096.697193 583.676286 
L 1103.159854 483.73432 
L 1108.699278 399.014579 
L 1112.392227 345.671771 
L 1115.161939 308.376502 
L 1117.931651 274.107801 
L 1119.778125 253.255485 
L 1121.6246 234.216398 
L 1123.471074 217.177778 
L 1125.317549 202.326858 
L 1127.164024 189.850876 
L 1128.087261 184.561997 
L 1129.010498 179.937066 
L 1129.933735 175.999487 
L 1130.856973 172.772664 
L 1131.78021 170.280003 
L 1132.703447 168.544907 
L 1133.626685 167.59078 
L 1134.549922 167.440783 
L 1135.473159 168.101284 
L 1136.396396 169.551377 
L 1137.319634 171.767658 
L 1138.242871 174.726724 
L 1139.166108 178.405168 
L 1140.089346 182.779587 
L 1141.012583 187.826576 
L 1142.859057 199.844648 
L 1144.705532 214.272148 
L 1146.552007 230.92184 
L 1148.398481 249.606488 
L 1150.244956 270.138856 
L 1153.014668 303.992307 
L 1155.784379 340.949929 
L 1159.477329 393.963259 
L 1164.093515 464.128613 
L 1174.249125 620.009986 
L 1177.942074 672.530591 
L 1180.711786 708.989328 
L 1183.481498 742.235112 
L 1186.25121 771.901174 
L 1188.097684 789.760341 
L 1189.944159 806.157756 
L 1191.790634 821.15583 
L 1193.637108 834.816976 
L 1195.483583 847.203605 
L 1197.330057 858.378129 
L 1199.176532 868.402961 
L 1201.023006 877.340512 
L 1202.869481 885.253193 
L 1204.715956 892.203418 
L 1206.56243 898.253597 
L 1208.408905 903.466143 
L 1210.255379 907.903468 
L 1212.101854 911.627983 
L 1213.948328 914.7021 
L 1215.794803 917.188231 
L 1217.641278 919.148789 
L 1219.487752 920.646185 
L 1221.334227 921.74283 
L 1223.180701 922.501138 
L 1225.027176 922.983519 
L 1226.873651 923.252386 
L 1229.643362 923.391872 
L 1244.415159 923.4 
L 1328.429752 923.4 
L 1328.429752 923.4 
" clip-path="url(#p2f358d4927)" style="fill: none; stroke: #e377c2; stroke-width: 6; stroke-linecap: square"/>
   </g>
   <g id="line2d_32">
    <path d="M 406.115702 923.4 
L 1089.311295 923.323182 
L 1091.157769 923.13367 
L 1093.004244 922.760208 
L 1094.850718 922.140382 
L 1096.697193 921.211782 
L 1098.543668 919.911995 
L 1100.390142 918.17861 
L 1102.236617 915.949214 
L 1104.083091 913.161396 
L 1105.929566 909.752744 
L 1107.776041 905.660846 
L 1109.622515 900.82329 
L 1111.46899 895.177665 
L 1113.315464 888.661557 
L 1115.161939 881.212556 
L 1117.008413 872.76825 
L 1118.854888 863.266226 
L 1120.701363 852.644072 
L 1122.547837 840.839378 
L 1124.394312 827.78973 
L 1126.240786 813.432718 
L 1128.087261 797.705928 
L 1129.933735 780.54695 
L 1131.78021 761.893371 
L 1133.626685 741.68278 
L 1136.396396 708.375561 
L 1139.166108 671.86606 
L 1142.859057 619.295016 
L 1147.475244 549.433077 
L 1157.630854 393.243621 
L 1161.323803 340.278396 
L 1164.093515 303.369788 
L 1166.863227 269.576437 
L 1168.709701 249.090293 
L 1170.556176 230.456798 
L 1172.402651 213.863187 
L 1174.249125 199.496694 
L 1176.0956 187.544557 
L 1177.018837 182.532382 
L 1177.942074 178.19401 
L 1178.865312 174.552844 
L 1179.788549 171.632289 
L 1180.711786 169.45575 
L 1181.635023 168.046631 
L 1182.558261 167.428336 
L 1183.481498 167.621149 
L 1184.404735 168.616962 
L 1185.327973 170.392513 
L 1186.25121 172.924399 
L 1187.174447 176.189213 
L 1188.097684 180.163552 
L 1189.020922 184.824011 
L 1190.867396 196.109673 
L 1192.713871 209.858962 
L 1194.560345 225.884642 
L 1196.40682 243.999479 
L 1198.253295 264.016236 
L 1201.023006 297.197895 
L 1203.792718 333.605674 
L 1207.485667 386.07558 
L 1212.101854 455.866527 
L 1223.180701 625.710174 
L 1226.873651 677.817926 
L 1229.643362 713.863552 
L 1232.413074 746.613527 
L 1235.182786 775.785567 
L 1237.029261 793.331811 
L 1238.875735 809.429441 
L 1240.72221 824.14087 
L 1242.568684 837.52851 
L 1244.415159 849.654772 
L 1246.261634 860.58207 
L 1248.108108 870.372814 
L 1249.954583 879.089416 
L 1251.801057 886.794288 
L 1253.647532 893.549843 
L 1255.494006 899.418492 
L 1257.340481 904.462647 
L 1259.186956 908.744719 
L 1261.03343 912.327122 
L 1262.879905 915.272266 
L 1264.726379 917.642564 
L 1266.572854 919.500427 
L 1268.419328 920.908268 
L 1270.265803 921.928498 
L 1272.112278 922.623529 
L 1273.958752 923.055773 
L 1275.805227 923.287642 
L 1278.574939 923.396269 
L 1307.195294 923.4 
L 1328.429752 923.4 
L 1328.429752 923.4 
" clip-path="url(#p2f358d4927)" style="fill: none; stroke: #7f7f7f; stroke-width: 6; stroke-linecap: square"/>
   </g>
   <g id="line2d_33">
    <path d="M 406.115702 923.4 
L 1138.242871 923.295478 
L 1140.089346 923.072426 
L 1141.93582 922.652284 
L 1143.782295 921.97264 
L 1145.628769 920.971082 
L 1147.475244 919.585198 
L 1149.321718 917.752576 
L 1151.168193 915.410804 
L 1153.014668 912.497471 
L 1154.861142 908.950164 
L 1156.707617 904.706472 
L 1158.554091 899.703983 
L 1160.400566 893.880285 
L 1162.24704 887.172965 
L 1164.093515 879.519613 
L 1165.93999 870.857815 
L 1167.786464 861.125161 
L 1169.632939 850.259239 
L 1171.479413 838.197635 
L 1173.325888 824.87794 
L 1175.172362 810.23774 
L 1177.018837 794.214623 
L 1178.865312 776.746179 
L 1180.711786 757.769994 
L 1183.481498 726.34426 
L 1186.25121 691.442276 
L 1189.020922 653.635676 
L 1192.713871 599.80079 
L 1198.253295 514.749432 
L 1205.639193 401.186664 
L 1209.332142 347.706541 
L 1212.101854 310.269485 
L 1214.871566 275.825735 
L 1216.71804 254.838244 
L 1218.564515 235.649201 
L 1220.41099 218.445841 
L 1222.257464 203.415401 
L 1224.103939 190.745116 
L 1225.027176 185.353543 
L 1225.950413 180.622222 
L 1226.873651 176.574558 
L 1227.796888 173.233955 
L 1228.720125 170.623817 
L 1229.643362 168.767549 
L 1230.5666 167.688556 
L 1231.489837 167.410211 
L 1232.413074 167.9439 
L 1233.336312 169.270877 
L 1234.259549 171.367737 
L 1235.182786 174.211076 
L 1236.106023 177.777491 
L 1237.029261 182.043575 
L 1237.952498 186.985925 
L 1239.798973 198.805805 
L 1241.645447 213.049894 
L 1243.491922 229.530957 
L 1245.338396 248.061757 
L 1247.184871 268.455061 
L 1249.954583 302.12763 
L 1252.724295 338.937628 
L 1256.417244 391.805864 
L 1261.03343 461.872997 
L 1271.18904 617.863482 
L 1274.881989 670.534628 
L 1277.651701 707.145072 
L 1280.421413 740.574751 
L 1283.191125 770.427141 
L 1285.0376 788.404368 
L 1286.884074 804.914915 
L 1288.730549 820.021195 
L 1290.577023 833.785618 
L 1292.423498 846.270598 
L 1294.269972 857.538546 
L 1296.116447 867.651874 
L 1297.962922 876.672993 
L 1299.809396 884.664316 
L 1301.655871 891.688255 
L 1303.502345 897.807222 
L 1305.34882 903.083627 
L 1307.195294 907.579884 
L 1309.041769 911.358405 
L 1310.888244 914.4816 
L 1312.734718 917.011882 
L 1314.581193 919.011664 
L 1316.427667 920.543355 
L 1318.274142 921.66937 
L 1320.120616 922.452119 
L 1321.967091 922.954015 
L 1323.813566 923.237469 
L 1326.583277 923.389598 
L 1328.429752 923.4 
L 1328.429752 923.4 
" clip-path="url(#p2f358d4927)" style="fill: none; stroke: #bcbd22; stroke-width: 6; stroke-linecap: square"/>
   </g>
   <g id="line2d_34">
    <path d="M 406.115702 923.4 
L 1186.25121 923.332151 
L 1188.097684 923.154504 
L 1189.944159 922.797832 
L 1191.790634 922.199726 
L 1193.637108 921.297771 
L 1195.483583 920.029558 
L 1197.330057 918.332673 
L 1199.176532 916.144706 
L 1201.023006 913.403243 
L 1202.869481 910.045873 
L 1204.715956 906.010185 
L 1206.56243 901.233766 
L 1208.408905 895.654204 
L 1210.255379 889.209088 
L 1212.101854 881.836006 
L 1213.948328 873.472545 
L 1215.794803 864.056294 
L 1217.641278 853.524841 
L 1219.487752 841.815775 
L 1221.334227 828.866682 
L 1223.180701 814.615152 
L 1225.027176 798.998772 
L 1226.873651 781.95513 
L 1228.720125 763.421815 
L 1230.5666 743.336415 
L 1233.336312 710.213889 
L 1236.106023 673.857263 
L 1239.798973 621.438315 
L 1244.415159 551.68335 
L 1255.494006 381.800415 
L 1259.186956 329.640148 
L 1261.956667 293.542203 
L 1264.726379 260.736896 
L 1266.572854 241.007994 
L 1268.419328 223.210576 
L 1270.265803 207.531878 
L 1272.112278 194.159135 
L 1273.958752 183.279583 
L 1274.881989 178.833265 
L 1275.805227 175.080458 
L 1276.728464 172.044566 
L 1277.651701 169.748995 
L 1278.574939 168.217148 
L 1279.498176 167.47243 
L 1280.421413 167.536732 
L 1281.34465 168.407289 
L 1282.267888 170.06128 
L 1283.191125 172.4753 
L 1284.114362 175.625945 
L 1285.0376 179.489809 
L 1285.960837 184.04349 
L 1286.884074 189.263582 
L 1288.730549 201.609381 
L 1290.577023 216.339972 
L 1292.423498 233.268118 
L 1294.269972 252.206584 
L 1296.116447 272.968135 
L 1298.886159 307.119166 
L 1301.655871 344.318937 
L 1305.34882 397.568905 
L 1309.965006 467.891477 
L 1319.197379 609.953207 
L 1322.890328 663.156366 
L 1325.66004 700.308096 
L 1328.429752 734.4 
L 1328.429752 734.4 
" clip-path="url(#p2f358d4927)" style="fill: none; stroke: #17becf; stroke-width: 6; stroke-linecap: square"/>
   </g>
   <g id="line2d_35">
    <path d="M 406.115702 923.4 
L 1235.182786 923.306536 
L 1237.029261 923.096385 
L 1238.875735 922.694072 
L 1240.72221 922.037184 
L 1242.568684 921.063309 
L 1244.415159 919.710036 
L 1246.261634 917.914952 
L 1248.108108 915.615645 
L 1249.954583 912.749704 
L 1251.801057 909.254717 
L 1253.647532 905.068272 
L 1255.494006 900.127957 
L 1257.340481 894.37136 
L 1259.186956 887.736069 
L 1261.03343 880.159673 
L 1262.879905 871.579759 
L 1264.726379 861.933915 
L 1266.572854 851.15973 
L 1268.419328 839.194792 
L 1270.265803 825.976688 
L 1272.112278 811.443008 
L 1273.958752 795.531338 
L 1275.805227 778.179268 
L 1277.651701 759.324385 
L 1280.421413 728.088769 
L 1283.191125 693.357165 
L 1285.960837 655.687684 
L 1289.653786 601.98389 
L 1295.19321 517.018305 
L 1302.579108 403.362957 
L 1306.272057 349.747853 
L 1309.041769 312.170758 
L 1311.811481 277.553713 
L 1314.581193 246.528636 
L 1316.427667 228.152849 
L 1318.274142 211.841582 
L 1320.120616 197.78207 
L 1321.967091 186.16155 
L 1322.890328 181.324423 
L 1323.813566 177.167257 
L 1324.736803 173.713456 
L 1325.66004 170.986426 
L 1326.583277 169.00957 
L 1327.506515 167.806293 
L 1328.429752 167.4 
L 1328.429752 167.4 
" clip-path="url(#p2f358d4927)" style="fill: none; stroke: #1f77b4; stroke-width: 6; stroke-linecap: square"/>
   </g>
   <g id="line2d_36">
    <path d="M 406.115702 923.4 
L 1283.191125 923.340394 
L 1285.0376 923.174221 
L 1286.884074 922.833953 
L 1288.730549 922.257176 
L 1290.577023 921.381478 
L 1292.423498 920.144449 
L 1294.269972 918.483676 
L 1296.116447 916.336747 
L 1297.962922 913.641251 
L 1299.809396 910.334775 
L 1301.655871 906.354907 
L 1303.502345 901.639236 
L 1305.34882 896.125349 
L 1307.195294 889.750835 
L 1309.041769 882.453283 
L 1310.888244 874.170279 
L 1312.734718 864.839412 
L 1314.581193 854.398271 
L 1316.427667 842.784443 
L 1318.274142 829.935516 
L 1320.120616 815.789079 
L 1321.967091 800.282719 
L 1323.813566 783.354025 
L 1325.66004 764.940585 
L 1327.506515 744.979987 
L 1328.429752 734.4 
L 1328.429752 734.4 
" clip-path="url(#p2f358d4927)" style="fill: none; stroke: #ff7f0e; stroke-width: 6; stroke-linecap: square"/>
   </g>
   <g id="patch_3">
    <path d="M 360 961.2 
L 360 129.6 
" style="fill: none; stroke: #000000; stroke-width: 0.8; stroke-linejoin: miter; stroke-linecap: square"/>
   </g>
   <g id="patch_4">
    <path d="M 1374.545455 961.2 
L 1374.545455 129.6 
" style="fill: none; stroke: #000000; stroke-width: 0.8; stroke-linejoin: miter; stroke-linecap: square"/>
   </g>
   <g id="patch_5">
    <path d="M 360 961.2 
L 1374.545455 961.2 
" style="fill: none; stroke: #000000; stroke-width: 0.8; stroke-linejoin: miter; stroke-linecap: square"/>
   </g>
   <g id="patch_6">
    <path d="M 360 129.6 
L 1374.545455 129.6 
" style="fill: none; stroke: #000000; stroke-width: 0.8; stroke-linejoin: miter; stroke-linecap: square"/>
   </g>
  </g>
  <g id="axes_2">
   <g id="patch_7">
    <path d="M 1577.454545 961.2 
L 2592 961.2 
L 2592 129.6 
L 1577.454545 129.6 
z
" style="fill: #ffffff"/>
   </g>
   <g id="matplotlib.axis_3">
    <g id="xtick_7">
     <g id="line2d_37">
      <g>
       <use xlink:href="#meda2aec5d5" x="1716.802808" y="961.2" style="stroke: #000000; stroke-width: 0.8"/>
      </g>
     </g>
     <g id="text_15">
      <!-- −2 -->
      <g transform="translate(1690.26687 995.554375) scale(0.36 -0.36)">
       <use xlink:href="#DejaVuSans-2212"/>
       <use xlink:href="#DejaVuSans-32" x="83.789062"/>
      </g>
     </g>
    </g>
    <g id="xtick_8">
     <g id="line2d_38">
      <g>
       <use xlink:href="#meda2aec5d5" x="1888.818247" y="961.2" style="stroke: #000000; stroke-width: 0.8"/>
      </g>
     </g>
     <g id="text_16">
      <!-- 0 -->
      <g transform="translate(1877.365747 995.554375) scale(0.36 -0.36)">
       <use xlink:href="#DejaVuSans-30"/>
      </g>
     </g>
    </g>
    <g id="xtick_9">
     <g id="line2d_39">
      <g>
       <use xlink:href="#meda2aec5d5" x="2060.833687" y="961.2" style="stroke: #000000; stroke-width: 0.8"/>
      </g>
     </g>
     <g id="text_17">
      <!-- 2 -->
      <g transform="translate(2049.381187 995.554375) scale(0.36 -0.36)">
       <use xlink:href="#DejaVuSans-32"/>
      </g>
     </g>
    </g>
    <g id="xtick_10">
     <g id="line2d_40">
      <g>
       <use xlink:href="#meda2aec5d5" x="2232.849127" y="961.2" style="stroke: #000000; stroke-width: 0.8"/>
      </g>
     </g>
     <g id="text_18">
      <!-- 4 -->
      <g transform="translate(2221.396627 995.554375) scale(0.36 -0.36)">
       <use xlink:href="#DejaVuSans-34"/>
      </g>
     </g>
    </g>
    <g id="xtick_11">
     <g id="line2d_41">
      <g>
       <use xlink:href="#meda2aec5d5" x="2404.864566" y="961.2" style="stroke: #000000; stroke-width: 0.8"/>
      </g>
     </g>
     <g id="text_19">
      <!-- 6 -->
      <g transform="translate(2393.412066 995.554375) scale(0.36 -0.36)">
       <use xlink:href="#DejaVuSans-36"/>
      </g>
     </g>
    </g>
    <g id="xtick_12">
     <g id="line2d_42">
      <g>
       <use xlink:href="#meda2aec5d5" x="2576.880006" y="961.2" style="stroke: #000000; stroke-width: 0.8"/>
      </g>
     </g>
     <g id="text_20">
      <!-- 8 -->
      <g transform="translate(2565.427506 995.554375) scale(0.36 -0.36)">
       <use xlink:href="#DejaVuSans-38"/>
      </g>
     </g>
    </g>
   </g>
   <g id="matplotlib.axis_4">
    <g id="ytick_9">
     <g id="line2d_43">
      <g>
       <use xlink:href="#mecb123f595" x="1577.454545" y="889.036364" style="stroke: #000000; stroke-width: 0.8"/>
      </g>
     </g>
     <g id="text_21">
      <!-- 0 -->
      <g transform="translate(1547.549545 902.713551) scale(0.36 -0.36)">
       <use xlink:href="#DejaVuSans-30"/>
      </g>
     </g>
    </g>
    <g id="ytick_10">
     <g id="line2d_44">
      <g>
       <use xlink:href="#mecb123f595" x="1577.454545" y="796.578149" style="stroke: #000000; stroke-width: 0.8"/>
      </g>
     </g>
     <g id="text_22">
      <!-- 2 -->
      <g transform="translate(1547.549545 810.255337) scale(0.36 -0.36)">
       <use xlink:href="#DejaVuSans-32"/>
      </g>
     </g>
    </g>
    <g id="ytick_11">
     <g id="line2d_45">
      <g>
       <use xlink:href="#mecb123f595" x="1577.454545" y="704.119935" style="stroke: #000000; stroke-width: 0.8"/>
      </g>
     </g>
     <g id="text_23">
      <!-- 4 -->
      <g transform="translate(1547.549545 717.797122) scale(0.36 -0.36)">
       <use xlink:href="#DejaVuSans-34"/>
      </g>
     </g>
    </g>
    <g id="ytick_12">
     <g id="line2d_46">
      <g>
       <use xlink:href="#mecb123f595" x="1577.454545" y="611.66172" style="stroke: #000000; stroke-width: 0.8"/>
      </g>
     </g>
     <g id="text_24">
      <!-- 6 -->
      <g transform="translate(1547.549545 625.338908) scale(0.36 -0.36)">
       <use xlink:href="#DejaVuSans-36"/>
      </g>
     </g>
    </g>
    <g id="ytick_13">
     <g id="line2d_47">
      <g>
       <use xlink:href="#mecb123f595" x="1577.454545" y="519.203506" style="stroke: #000000; stroke-width: 0.8"/>
      </g>
     </g>
     <g id="text_25">
      <!-- 8 -->
      <g transform="translate(1547.549545 532.880693) scale(0.36 -0.36)">
       <use xlink:href="#DejaVuSans-38"/>
      </g>
     </g>
    </g>
    <g id="ytick_14">
     <g id="line2d_48">
      <g>
       <use xlink:href="#mecb123f595" x="1577.454545" y="426.745291" style="stroke: #000000; stroke-width: 0.8"/>
      </g>
     </g>
     <g id="text_26">
      <!-- 10 -->
      <g transform="translate(1524.644545 440.422479) scale(0.36 -0.36)">
       <use xlink:href="#DejaVuSans-31"/>
       <use xlink:href="#DejaVuSans-30" x="63.623047"/>
      </g>
     </g>
    </g>
    <g id="ytick_15">
     <g id="line2d_49">
      <g>
       <use xlink:href="#mecb123f595" x="1577.454545" y="334.287077" style="stroke: #000000; stroke-width: 0.8"/>
      </g>
     </g>
     <g id="text_27">
      <!-- 12 -->
      <g transform="translate(1524.644545 347.964265) scale(0.36 -0.36)">
       <use xlink:href="#DejaVuSans-31"/>
       <use xlink:href="#DejaVuSans-32" x="63.623047"/>
      </g>
     </g>
    </g>
    <g id="ytick_16">
     <g id="line2d_50">
      <g>
       <use xlink:href="#mecb123f595" x="1577.454545" y="241.828863" style="stroke: #000000; stroke-width: 0.8"/>
      </g>
     </g>
     <g id="text_28">
      <!-- 14 -->
      <g transform="translate(1524.644545 255.50605) scale(0.36 -0.36)">
       <use xlink:href="#DejaVuSans-31"/>
       <use xlink:href="#DejaVuSans-34" x="63.623047"/>
      </g>
     </g>
    </g>
    <g id="ytick_17">
     <g id="line2d_51">
      <g>
       <use xlink:href="#mecb123f595" x="1577.454545" y="149.370648" style="stroke: #000000; stroke-width: 0.8"/>
      </g>
     </g>
     <g id="text_29">
      <!-- 16 -->
      <g transform="translate(1524.644545 163.047836) scale(0.36 -0.36)">
       <use xlink:href="#DejaVuSans-31"/>
       <use xlink:href="#DejaVuSans-36" x="63.623047"/>
      </g>
     </g>
    </g>
   </g>
   <g id="line2d_52">
    <path d="M 1623.570248 881.331512 
L 1627.263197 882.959592 
L 1630.956146 884.340472 
L 1634.649095 885.494507 
L 1638.342045 886.442052 
L 1642.958231 887.367113 
L 1647.574417 888.041091 
L 1652.190604 888.503741 
L 1657.730028 888.835943 
L 1664.192689 889.002896 
L 1676.194773 889.036364 
L 2545.884298 889.036364 
L 2545.884298 889.036364 
" clip-path="url(#p4c368b26de)" style="fill: none; stroke: #1f77b4; stroke-width: 6; stroke-linecap: square"/>
   </g>
   <g id="line2d_53">
    <path d="M 1623.570248 825.856584 
L 1626.33996 826.002789 
L 1629.109672 826.424232 
L 1631.879384 827.095152 
L 1634.649095 827.989786 
L 1637.418807 829.082374 
L 1641.111756 830.802561 
L 1644.804706 832.767805 
L 1649.420892 835.475946 
L 1657.730028 840.694382 
L 1664.192689 844.684737 
L 1668.808875 847.297968 
L 1672.501824 849.154761 
L 1676.194773 850.755861 
L 1679.887722 852.111904 
L 1683.580672 853.243245 
L 1687.273621 854.170237 
L 1691.889807 855.072622 
L 1696.505994 855.727271 
L 1701.12218 856.17394 
L 1706.661604 856.491383 
L 1714.047502 856.656549 
L 1730.665773 856.675989 
L 2545.884298 856.675989 
L 2545.884298 856.675989 
" clip-path="url(#p4c368b26de)" style="fill: none; stroke: #ff7f0e; stroke-width: 6; stroke-linecap: square"/>
   </g>
   <g id="line2d_54">
    <path d="M 1623.570248 816.610762 
L 1627.263197 814.728698 
L 1631.879384 812.092896 
L 1638.342045 808.087814 
L 1648.497655 801.775885 
L 1653.113841 799.192057 
L 1656.80679 797.367842 
L 1660.499739 795.825644 
L 1663.269451 794.890802 
L 1666.039163 794.174704 
L 1668.808875 793.70311 
L 1671.578587 793.501783 
L 1674.348299 793.591969 
L 1677.118011 793.962302 
L 1679.887722 794.587083 
L 1682.657434 795.44055 
L 1685.427146 796.496942 
L 1689.120095 798.176602 
L 1692.813044 800.110157 
L 1697.429231 802.791114 
L 1704.815129 807.409666 
L 1713.124265 812.554315 
L 1717.740451 815.14413 
L 1721.4334 816.975068 
L 1725.126349 818.549414 
L 1728.819299 819.880846 
L 1732.512248 820.989718 
L 1736.205197 821.896384 
L 1740.821383 822.776374 
L 1745.43757 823.411976 
L 1750.976994 823.908082 
L 1756.516417 824.178213 
L 1763.902316 824.305606 
L 1788.829722 824.315614 
L 2545.884298 824.315614 
L 2545.884298 824.315614 
" clip-path="url(#p4c368b26de)" style="fill: none; stroke: #2ca02c; stroke-width: 6; stroke-linecap: square"/>
   </g>
   <g id="line2d_55">
    <path d="M 1623.570248 791.955238 
L 1634.649095 791.863643 
L 1641.111756 791.591667 
L 1646.65118 791.127013 
L 1651.267367 790.524065 
L 1655.883553 789.682588 
L 1659.576502 788.81095 
L 1663.269451 787.740856 
L 1666.9624 786.451951 
L 1670.65535 784.923882 
L 1674.348299 783.139302 
L 1678.964485 780.592502 
L 1684.503909 777.228665 
L 1698.352468 768.652981 
L 1702.968655 766.155142 
L 1706.661604 764.424124 
L 1709.431316 763.321831 
L 1712.201027 762.416136 
L 1714.970739 761.7328 
L 1717.740451 761.297584 
L 1720.510163 761.13625 
L 1723.279875 761.267257 
L 1726.049587 761.674856 
L 1728.819299 762.333287 
L 1731.58901 763.216789 
L 1734.358722 764.299601 
L 1738.051672 766.008862 
L 1741.744621 767.965591 
L 1746.360807 770.666476 
L 1753.746705 775.296023 
L 1761.132604 779.877361 
L 1765.74879 782.499155 
L 1769.441739 784.365498 
L 1773.134688 785.976689 
L 1776.827638 787.34202 
L 1780.520587 788.481844 
L 1784.213536 789.416517 
L 1788.829722 790.327372 
L 1793.445909 790.989237 
L 1798.062095 791.441866 
L 1803.601519 791.764803 
L 1810.987417 791.934484 
L 1826.682451 791.955238 
L 2545.884298 791.955238 
L 2545.884298 791.955238 
" clip-path="url(#p4c368b26de)" style="fill: none; stroke: #d62728; stroke-width: 6; stroke-linecap: square"/>
   </g>
   <g id="line2d_56">
    <path d="M 1623.570248 759.594863 
L 1683.580672 759.493284 
L 1690.043333 759.206582 
L 1695.582756 758.724082 
L 1700.198943 758.10258 
L 1704.815129 757.239201 
L 1708.508078 756.347632 
L 1712.201027 755.255464 
L 1715.893977 753.942343 
L 1719.586926 752.387914 
L 1723.279875 750.576691 
L 1727.896061 748.004994 
L 1733.435485 744.624538 
L 1746.360807 736.600887 
L 1750.976994 734.066853 
L 1754.669943 732.296935 
L 1758.362892 730.82189 
L 1761.132604 729.945849 
L 1763.902316 729.295783 
L 1766.672027 728.897453 
L 1769.441739 728.776614 
L 1772.211451 728.947994 
L 1774.981163 729.392351 
L 1777.750875 730.083926 
L 1780.520587 730.996955 
L 1783.290299 732.105678 
L 1786.983248 733.843864 
L 1790.676197 735.82309 
L 1795.292383 738.543058 
L 1803.601519 743.766965 
L 1810.06418 747.747515 
L 1814.680366 750.346209 
L 1818.373315 752.186905 
L 1822.066265 753.771258 
L 1825.759214 755.111892 
L 1829.452163 756.229163 
L 1833.145112 757.143425 
L 1837.761298 758.03178 
L 1842.377485 758.674492 
L 1846.993671 759.111316 
L 1852.533095 759.419707 
L 1859.918993 759.57749 
L 1877.460502 759.594863 
L 2545.884298 759.594863 
L 2545.884298 759.594863 
" clip-path="url(#p4c368b26de)" style="fill: none; stroke: #9467bd; stroke-width: 6; stroke-linecap: square"/>
   </g>
   <g id="line2d_57">
    <path d="M 1623.570248 727.234488 
L 1731.58901 727.146461 
L 1738.051672 726.879906 
L 1743.591095 726.421857 
L 1748.207282 725.825793 
L 1752.823468 724.992457 
L 1756.516417 724.128235 
L 1760.209366 723.066361 
L 1763.902316 721.786479 
L 1767.595265 720.268237 
L 1771.288214 718.493735 
L 1774.981163 716.48734 
L 1780.520587 713.174438 
L 1796.215621 703.490091 
L 1799.90857 701.508101 
L 1803.601519 699.766347 
L 1806.371231 698.65442 
L 1809.140943 697.737735 
L 1811.910654 697.042054 
L 1814.680366 696.593137 
L 1817.450078 696.416746 
L 1820.21979 696.532491 
L 1822.989502 696.926175 
L 1825.759214 697.572046 
L 1828.528926 698.444345 
L 1831.298637 699.517309 
L 1834.991587 701.215549 
L 1838.684536 703.163666 
L 1843.300722 705.857178 
L 1850.686621 710.48276 
L 1858.072519 715.069775 
L 1862.688705 717.700014 
L 1866.381654 719.57582 
L 1870.074604 721.197134 
L 1873.767553 722.571784 
L 1877.460502 723.720124 
L 1881.153451 724.662509 
L 1885.769637 725.581875 
L 1890.385824 726.250994 
L 1895.00201 726.709623 
L 1900.541434 727.038103 
L 1907.927332 727.212361 
L 1923.622366 727.234488 
L 2545.884298 727.234488 
L 2545.884298 727.234488 
" clip-path="url(#p4c368b26de)" style="fill: none; stroke: #8c564b; stroke-width: 6; stroke-linecap: square"/>
   </g>
   <g id="line2d_58">
    <path d="M 1623.570248 694.874113 
L 1780.520587 694.776359 
L 1786.983248 694.495225 
L 1792.522671 694.019457 
L 1797.138858 693.404946 
L 1801.755044 692.549813 
L 1805.447993 691.665745 
L 1809.140943 690.581881 
L 1812.833892 689.277867 
L 1816.526841 687.73335 
L 1820.21979 685.932074 
L 1824.835976 683.369614 
L 1830.3754 679.995271 
L 1843.300722 671.964794 
L 1847.916909 669.421166 
L 1851.609858 667.640861 
L 1855.302807 666.153018 
L 1858.072519 665.265798 
L 1860.842231 664.603196 
L 1863.611943 664.190974 
L 1866.381654 664.054894 
L 1869.151366 664.211193 
L 1871.921078 664.641826 
L 1874.69079 665.32103 
L 1877.460502 666.223047 
L 1880.230214 667.322113 
L 1883.923163 669.049531 
L 1887.616112 671.020399 
L 1892.232298 673.733311 
L 1900.541434 678.954006 
L 1907.004095 682.940495 
L 1911.620281 685.547951 
L 1915.313231 687.398331 
L 1919.00618 688.992721 
L 1922.699129 690.342591 
L 1926.392078 691.468293 
L 1930.085027 692.390182 
L 1934.701214 693.286942 
L 1939.3174 693.936803 
L 1943.933586 694.379521 
L 1949.47301 694.693327 
L 1956.858908 694.855519 
L 1973.47718 694.874113 
L 2545.884298 694.874113 
L 2545.884298 694.874113 
" clip-path="url(#p4c368b26de)" style="fill: none; stroke: #e377c2; stroke-width: 6; stroke-linecap: square"/>
   </g>
   <g id="line2d_59">
    <path d="M 1623.570248 662.513738 
L 1829.452163 662.405565 
L 1835.914824 662.109458 
L 1841.454248 661.615633 
L 1846.070434 660.982392 
L 1850.686621 660.105182 
L 1854.37957 659.20104 
L 1858.072519 658.094961 
L 1861.765468 656.76659 
L 1865.458417 655.195572 
L 1869.151366 653.367902 
L 1873.767553 650.781074 
L 1879.306976 647.390746 
L 1891.309061 639.916867 
L 1895.925248 637.339078 
L 1899.618197 635.521502 
L 1903.311146 633.98755 
L 1906.080858 633.059947 
L 1908.85057 632.351992 
L 1911.620281 631.889445 
L 1914.389993 631.698069 
L 1917.159705 631.798495 
L 1919.929417 632.178192 
L 1922.699129 632.811433 
L 1925.468841 633.672456 
L 1928.238553 634.735501 
L 1931.931502 636.422625 
L 1935.624451 638.362036 
L 1940.240637 641.048055 
L 1947.626536 645.669482 
L 1955.935671 650.809683 
L 1960.551858 653.393511 
L 1964.244807 655.217906 
L 1967.937756 656.7856 
L 1971.630705 658.110914 
L 1975.323654 659.214203 
L 1979.016603 660.115823 
L 1983.63279 660.990258 
L 1988.248976 661.621143 
L 1993.7884 662.112692 
L 1999.327824 662.379472 
L 2006.713722 662.504271 
L 2032.564366 662.513738 
L 2545.884298 662.513738 
L 2545.884298 662.513738 
" clip-path="url(#p4c368b26de)" style="fill: none; stroke: #7f7f7f; stroke-width: 6; stroke-linecap: square"/>
   </g>
   <g id="line2d_60">
    <path d="M 1623.570248 630.153363 
L 1877.460502 630.059337 
L 1883.923163 629.783716 
L 1889.462587 629.314632 
L 1894.078773 628.707072 
L 1898.694959 627.860145 
L 1902.387909 626.983546 
L 1906.080858 625.907955 
L 1909.773807 624.613017 
L 1913.466756 623.078379 
L 1917.159705 621.287104 
L 1921.775892 618.734001 
L 1927.315315 615.365914 
L 1940.240637 607.328943 
L 1944.856824 604.775839 
L 1948.549773 602.985243 
L 1952.242722 601.484698 
L 1955.012434 600.586369 
L 1957.782146 599.911303 
L 1960.551858 599.485261 
L 1963.32157 599.334005 
L 1966.091281 599.475152 
L 1968.860993 599.891988 
L 1971.630705 600.558753 
L 1974.400417 601.449684 
L 1977.170129 602.539021 
L 1980.863078 604.255577 
L 1984.556027 606.217993 
L 1989.172214 608.923729 
L 1997.481349 614.140999 
L 2004.867247 618.677269 
L 2009.483434 621.236623 
L 2013.176383 623.034571 
L 2016.869332 624.575792 
L 2020.562281 625.876777 
L 2024.25523 626.95788 
L 2027.94818 627.839455 
L 2032.564366 628.691848 
L 2037.180552 629.304037 
L 2042.719976 629.777572 
L 2049.182637 630.056862 
L 2057.491773 630.151609 
L 2145.199315 630.153363 
L 2545.884298 630.153363 
L 2545.884298 630.153363 
" clip-path="url(#p4c368b26de)" style="fill: none; stroke: #bcbd22; stroke-width: 6; stroke-linecap: square"/>
   </g>
   <g id="line2d_61">
    <path d="M 1623.570248 597.792988 
L 1926.392078 597.688805 
L 1932.854739 597.398359 
L 1938.394163 596.911345 
L 1943.010349 596.28516 
L 1947.626536 595.416262 
L 1951.319485 594.519675 
L 1955.012434 593.421953 
L 1958.705383 592.102742 
L 1962.398332 590.541688 
L 1966.091281 588.723865 
L 1970.707468 586.146076 
L 1976.246892 582.761624 
L 1989.172214 574.74271 
L 1993.7884 572.215137 
L 1997.481349 570.452198 
L 2001.174298 568.985736 
L 2003.94401 568.117188 
L 2006.713722 567.475519 
L 2009.483434 567.08649 
L 2012.253146 566.975845 
L 2015.022858 567.15724 
L 2017.792569 567.610708 
L 2020.562281 568.310488 
L 2023.331993 569.23082 
L 2026.101705 570.345942 
L 2029.794654 572.091253 
L 2033.487603 574.075998 
L 2038.10379 576.800604 
L 2047.336163 582.608866 
L 2053.798824 586.543182 
L 2058.41501 589.077216 
L 2062.107959 590.848348 
L 2065.800908 592.363323 
L 2069.493857 593.640203 
L 2073.186807 594.699345 
L 2076.879756 595.561101 
L 2081.495942 596.391733 
L 2086.112129 596.985511 
L 2091.651552 597.441369 
L 2098.114213 597.70613 
L 2106.423349 597.791838 
L 2228.290671 597.792988 
L 2545.884298 597.792988 
L 2545.884298 597.792988 
" clip-path="url(#p4c368b26de)" style="fill: none; stroke: #17becf; stroke-width: 6; stroke-linecap: square"/>
   </g>
   <g id="line2d_62">
    <path d="M 1623.570248 565.432613 
L 1974.400417 565.342218 
L 1980.863078 565.072055 
L 1986.402502 564.609607 
L 1991.018688 564.008959 
L 1995.634875 563.170199 
L 1999.327824 562.301037 
L 2003.020773 561.233687 
L 2006.713722 559.947793 
L 2010.406671 558.423003 
L 2014.09962 556.641778 
L 2017.792569 554.630075 
L 2023.331993 551.312226 
L 2039.027027 541.633495 
L 2042.719976 539.657044 
L 2046.412925 537.922437 
L 2049.182637 536.816925 
L 2051.952349 535.907559 
L 2054.722061 535.2201 
L 2057.491773 534.780309 
L 2060.261485 534.613948 
L 2063.031196 534.739874 
L 2065.800908 535.142843 
L 2068.57062 535.797096 
L 2071.340332 536.676871 
L 2074.110044 537.756408 
L 2077.802993 539.462006 
L 2081.495942 541.415875 
L 2086.112129 544.114316 
L 2093.498027 548.742562 
L 2100.883925 553.325813 
L 2105.500112 555.950436 
L 2109.193061 557.819943 
L 2112.88601 559.434505 
L 2116.578959 560.802938 
L 2120.271908 561.945598 
L 2123.964857 562.882838 
L 2128.581044 563.796525 
L 2133.19723 564.460804 
L 2137.813417 564.915428 
L 2143.35284 565.240208 
L 2150.738739 565.411407 
L 2166.433773 565.432613 
L 2545.884298 565.432613 
L 2545.884298 565.432613 
" clip-path="url(#p4c368b26de)" style="fill: none; stroke: #1f77b4; stroke-width: 6; stroke-linecap: square"/>
   </g>
   <g id="line2d_63">
    <path d="M 1623.570248 533.072238 
L 2023.331993 532.971945 
L 2029.794654 532.687105 
L 2035.334078 532.206854 
L 2039.950264 531.587687 
L 2044.566451 530.727061 
L 2048.2594 529.837996 
L 2051.952349 528.748599 
L 2055.645298 527.438517 
L 2059.338247 525.887396 
L 2063.031196 524.079482 
L 2067.647383 521.510851 
L 2073.186807 518.132417 
L 2086.112129 510.106454 
L 2090.728315 507.569208 
L 2094.421264 505.795818 
L 2098.114213 504.316496 
L 2100.883925 503.43672 
L 2103.653637 502.782468 
L 2106.423349 502.379499 
L 2109.193061 502.253573 
L 2111.962773 502.419934 
L 2114.732485 502.859725 
L 2117.502196 503.547184 
L 2120.271908 504.45655 
L 2123.04162 505.562062 
L 2126.734569 507.296669 
L 2130.427518 509.27312 
L 2135.043705 511.990749 
L 2143.35284 517.213609 
L 2149.815501 521.196157 
L 2154.431688 523.797785 
L 2158.124637 525.641717 
L 2161.817586 527.229412 
L 2165.510535 528.573122 
L 2169.203484 529.6932 
L 2172.896434 530.610001 
L 2177.51262 531.501153 
L 2182.128806 532.146243 
L 2186.744993 532.585027 
L 2192.284417 532.895218 
L 2199.670315 533.054464 
L 2217.211823 533.072238 
L 2545.884298 533.072238 
L 2545.884298 533.072238 
" clip-path="url(#p4c368b26de)" style="fill: none; stroke: #ff7f0e; stroke-width: 6; stroke-linecap: square"/>
   </g>
   <g id="line2d_64">
    <path d="M 1623.570248 500.711863 
L 2072.263569 500.600974 
L 2078.72623 500.301062 
L 2084.265654 499.80267 
L 2088.881841 499.164702 
L 2093.498027 498.281929 
L 2097.190976 497.372734 
L 2100.883925 496.261066 
L 2104.576874 494.92657 
L 2108.269824 493.348892 
L 2111.962773 491.514693 
L 2116.578959 488.921906 
L 2122.118383 485.52774 
L 2134.120468 478.05795 
L 2138.736654 475.486253 
L 2142.429603 473.675359 
L 2146.122552 472.149695 
L 2148.892264 471.229363 
L 2151.661976 470.529582 
L 2154.431688 470.076114 
L 2157.2014 469.89472 
L 2159.971112 470.005364 
L 2162.740823 470.394394 
L 2165.510535 471.036063 
L 2168.280247 471.904611 
L 2171.049959 472.974277 
L 2174.742908 474.668822 
L 2178.435857 476.614048 
L 2183.052044 479.305075 
L 2190.437942 483.929293 
L 2197.82384 488.518159 
L 2202.440027 491.151186 
L 2206.132976 493.030126 
L 2209.825925 494.654821 
L 2213.518874 496.032585 
L 2217.211823 497.18377 
L 2220.904773 498.128733 
L 2225.520959 499.050945 
L 2230.137145 499.722492 
L 2234.753332 500.183128 
L 2240.292756 500.513467 
L 2246.755417 500.679007 
L 2259.680739 500.711863 
L 2545.884298 500.711863 
L 2545.884298 500.711863 
" clip-path="url(#p4c368b26de)" style="fill: none; stroke: #2ca02c; stroke-width: 6; stroke-linecap: square"/>
   </g>
   <g id="line2d_65">
    <path d="M 1623.570248 468.351488 
L 2120.271908 468.254987 
L 2126.734569 467.975697 
L 2132.273993 467.502162 
L 2136.890179 466.889972 
L 2141.506366 466.03758 
L 2145.199315 465.156004 
L 2148.892264 464.074901 
L 2152.585213 462.773917 
L 2156.278162 461.232696 
L 2159.971112 459.434748 
L 2164.587298 456.875394 
L 2170.126722 453.503121 
L 2183.052044 445.470441 
L 2187.66823 442.923642 
L 2191.361179 441.139896 
L 2195.054129 439.647809 
L 2197.82384 438.756877 
L 2200.593552 438.090113 
L 2203.363264 437.673277 
L 2206.132976 437.532129 
L 2208.902688 437.683386 
L 2211.6724 438.109428 
L 2214.442112 438.784494 
L 2217.211823 439.682823 
L 2219.981535 440.778654 
L 2223.674484 442.502462 
L 2227.367434 444.470524 
L 2231.98362 447.181056 
L 2240.292756 452.400634 
L 2246.755417 456.389065 
L 2251.371603 458.999415 
L 2255.064552 460.853006 
L 2258.757501 462.450749 
L 2262.45045 463.803704 
L 2266.1434 464.932223 
L 2269.836349 465.856663 
L 2274.452535 466.756233 
L 2279.068722 467.408486 
L 2283.684908 467.853176 
L 2289.224332 468.168799 
L 2296.61023 468.332474 
L 2313.228501 468.351488 
L 2545.884298 468.351488 
L 2545.884298 468.351488 
" clip-path="url(#p4c368b26de)" style="fill: none; stroke: #d62728; stroke-width: 6; stroke-linecap: square"/>
   </g>
   <g id="line2d_66">
    <path d="M 1623.570248 435.991113 
L 2169.203484 435.884281 
L 2175.666145 435.590067 
L 2181.205569 435.098517 
L 2185.821756 434.467633 
L 2190.437942 433.593198 
L 2194.130891 432.691578 
L 2197.82384 431.588288 
L 2201.51679 430.262974 
L 2205.209739 428.695281 
L 2208.902688 426.870886 
L 2213.518874 424.287058 
L 2219.058298 420.898673 
L 2231.060383 413.422801 
L 2235.676569 410.841985 
L 2239.369518 409.021085 
L 2243.062467 407.483004 
L 2245.832179 406.551778 
L 2248.601891 405.839747 
L 2251.371603 405.372673 
L 2254.141315 405.176317 
L 2256.911027 405.271626 
L 2259.680739 405.646645 
L 2262.45045 406.27566 
L 2265.220162 407.132909 
L 2267.989874 408.192631 
L 2271.682823 409.876028 
L 2275.375772 411.812517 
L 2279.991959 414.496012 
L 2287.377857 419.116012 
L 2295.686993 424.258449 
L 2300.303179 426.845277 
L 2303.996128 428.672947 
L 2307.689078 430.243965 
L 2311.382027 431.572336 
L 2315.074976 432.678415 
L 2318.767925 433.582556 
L 2323.384111 434.459766 
L 2328.000298 435.093008 
L 2333.539722 435.586833 
L 2339.079145 435.855285 
L 2346.465044 435.981378 
L 2372.315688 435.991113 
L 2545.884298 435.991113 
L 2545.884298 435.991113 
" clip-path="url(#p4c368b26de)" style="fill: none; stroke: #9467bd; stroke-width: 6; stroke-linecap: square"/>
   </g>
   <g id="line2d_67">
    <path d="M 1623.570248 403.630738 
L 2217.211823 403.537932 
L 2223.674484 403.264137 
L 2229.213908 402.79727 
L 2233.830095 402.192018 
L 2238.446281 401.347819 
L 2242.13923 400.473702 
L 2245.832179 399.400861 
L 2249.525128 398.108942 
L 2253.218078 396.57759 
L 2256.911027 394.78966 
L 2261.527213 392.239702 
L 2267.066637 388.873732 
L 2280.915196 380.300624 
L 2285.531383 377.806155 
L 2289.224332 376.078737 
L 2291.994044 374.979671 
L 2294.763755 374.077655 
L 2297.533467 373.39845 
L 2300.303179 372.967817 
L 2303.072891 372.811518 
L 2305.842603 372.947599 
L 2308.612315 373.359821 
L 2311.382027 374.022422 
L 2314.151739 374.909643 
L 2316.92145 375.995722 
L 2320.6144 377.708635 
L 2324.307349 379.668213 
L 2328.923535 382.37153 
L 2336.309433 387.002355 
L 2343.695332 391.581759 
L 2348.311518 394.200712 
L 2352.004467 396.063881 
L 2355.697416 397.671705 
L 2359.390366 399.033936 
L 2363.083315 400.170929 
L 2366.776264 401.103038 
L 2371.39245 402.011066 
L 2376.008637 402.670521 
L 2380.624823 403.121158 
L 2386.164247 403.442259 
L 2393.550145 403.610428 
L 2410.168416 403.630738 
L 2545.884298 403.630738 
L 2545.884298 403.630738 
" clip-path="url(#p4c368b26de)" style="fill: none; stroke: #8c564b; stroke-width: 6; stroke-linecap: square"/>
   </g>
   <g id="line2d_68">
    <path d="M 1623.570248 371.270363 
L 2266.1434 371.167487 
L 2272.606061 370.878916 
L 2278.145484 370.394162 
L 2282.761671 369.770321 
L 2287.377857 368.904184 
L 2291.070806 368.010108 
L 2294.763755 366.915165 
L 2298.456705 365.599 
L 2302.149654 364.041261 
L 2305.842603 362.226734 
L 2310.458789 359.651985 
L 2315.998213 356.269523 
L 2328.923535 348.248222 
L 2333.539722 345.717412 
L 2337.232671 343.950978 
L 2340.92562 342.480219 
L 2343.695332 341.607921 
L 2346.465044 340.962049 
L 2349.234755 340.568365 
L 2352.004467 340.452621 
L 2354.774179 340.629012 
L 2357.543891 341.077929 
L 2360.313603 341.77361 
L 2363.083315 342.690294 
L 2365.853027 343.802221 
L 2369.545976 345.543975 
L 2373.238925 347.525965 
L 2377.855111 350.248259 
L 2386.164247 355.473189 
L 2392.626908 359.451722 
L 2397.243094 362.04747 
L 2400.936043 363.884921 
L 2404.628993 365.465935 
L 2408.321942 366.803498 
L 2412.014891 367.917966 
L 2415.70784 368.829692 
L 2420.324027 369.715255 
L 2424.940213 370.355592 
L 2429.556399 370.79046 
L 2435.095823 371.097056 
L 2442.481721 371.253384 
L 2460.02323 371.270363 
L 2545.884298 371.270363 
L 2545.884298 371.270363 
" clip-path="url(#p4c368b26de)" style="fill: none; stroke: #e377c2; stroke-width: 6; stroke-linecap: square"/>
   </g>
   <g id="line2d_69">
    <path d="M 1623.570248 338.909988 
L 2314.151739 338.820782 
L 2320.6144 338.552426 
L 2326.153823 338.09218 
L 2330.77001 337.493826 
L 2335.386196 336.65778 
L 2339.079145 335.79109 
L 2342.772094 334.72648 
L 2346.465044 333.443594 
L 2350.157993 331.922079 
L 2353.850942 330.144214 
L 2357.543891 328.135159 
L 2363.083315 324.819776 
L 2378.778349 315.138214 
L 2382.471298 313.158989 
L 2386.164247 311.420803 
L 2388.933959 310.312079 
L 2391.703671 309.39905 
L 2394.473382 308.707476 
L 2397.243094 308.263118 
L 2400.012806 308.091738 
L 2402.782518 308.212577 
L 2405.55223 308.610907 
L 2408.321942 309.260973 
L 2411.091654 310.137014 
L 2413.861365 311.213269 
L 2417.554315 312.915193 
L 2421.247264 314.866191 
L 2425.86345 317.562174 
L 2433.249349 322.189099 
L 2440.635247 326.774243 
L 2445.251433 329.40168 
L 2448.944382 331.274341 
L 2452.637332 332.892278 
L 2456.330281 334.263817 
L 2460.02323 335.409316 
L 2463.716179 336.349126 
L 2468.332365 337.265651 
L 2472.948552 337.932348 
L 2477.564738 338.388972 
L 2483.104162 338.715599 
L 2490.49006 338.888324 
L 2506.185094 338.909988 
L 2545.884298 338.909988 
L 2545.884298 338.909988 
" clip-path="url(#p4c368b26de)" style="fill: none; stroke: #7f7f7f; stroke-width: 6; stroke-linecap: square"/>
   </g>
   <g id="line2d_70">
    <path d="M 1623.570248 306.549613 
L 2363.083315 306.450594 
L 2369.545976 306.16761 
L 2375.085399 305.689604 
L 2379.701586 305.072767 
L 2384.317772 304.21489 
L 2388.010721 303.328324 
L 2391.703671 302.241696 
L 2395.39662 300.93465 
L 2399.089569 299.386832 
L 2402.782518 297.582234 
L 2407.398704 295.016683 
L 2412.938128 291.640286 
L 2425.86345 283.612047 
L 2430.479637 281.071604 
L 2434.172586 279.294751 
L 2437.865535 277.811164 
L 2440.635247 276.927662 
L 2443.404959 276.26923 
L 2446.174671 275.861631 
L 2448.944382 275.730624 
L 2451.714094 275.891958 
L 2454.483806 276.327174 
L 2457.253518 277.01051 
L 2460.02323 277.916205 
L 2462.792942 279.018498 
L 2466.485891 280.749516 
L 2470.17884 282.723181 
L 2474.795026 285.438458 
L 2483.104162 290.660248 
L 2489.566823 294.644775 
L 2494.183009 297.249324 
L 2497.875959 299.096484 
L 2501.568908 300.687525 
L 2505.261857 302.034313 
L 2508.954806 303.157201 
L 2512.647755 304.076545 
L 2517.263942 304.970498 
L 2521.880128 305.617972 
L 2526.496314 306.05872 
L 2532.035738 306.370716 
L 2539.421637 306.531432 
L 2545.884298 306.549613 
L 2545.884298 306.549613 
" clip-path="url(#p4c368b26de)" style="fill: none; stroke: #bcbd22; stroke-width: 6; stroke-linecap: square"/>
   </g>
   <g id="line2d_71">
    <path d="M 1623.570248 274.189238 
L 2412.014891 274.079713 
L 2418.477552 273.781706 
L 2424.016976 273.2856 
L 2428.633162 272.649998 
L 2433.249349 271.770008 
L 2436.942298 270.863342 
L 2440.635247 269.75447 
L 2444.328196 268.423038 
L 2448.021145 266.848692 
L 2451.714094 265.017754 
L 2456.330281 262.427939 
L 2461.869704 259.035685 
L 2473.871789 251.563832 
L 2478.487976 248.989083 
L 2482.180925 247.174843 
L 2485.873874 245.64503 
L 2488.643586 244.721058 
L 2491.413298 244.017186 
L 2494.183009 243.559175 
L 2496.952721 243.372786 
L 2499.722433 243.478324 
L 2502.492145 243.862691 
L 2505.261857 244.50015 
L 2508.031569 245.36494 
L 2510.801281 246.431299 
L 2514.49423 248.122138 
L 2518.187179 250.064463 
L 2522.803365 252.752992 
L 2530.189264 257.375825 
L 2537.575162 261.96652 
L 2542.191348 264.602322 
L 2545.884298 266.484386 
L 2545.884298 266.484386 
" clip-path="url(#p4c368b26de)" style="fill: none; stroke: #17becf; stroke-width: 6; stroke-linecap: square"/>
   </g>
   <g id="line2d_72">
    <path d="M 1623.570248 241.828863 
L 2460.02323 241.733604 
L 2466.485891 241.456152 
L 2472.025315 240.984845 
L 2476.641501 240.374972 
L 2481.257687 239.525315 
L 2484.950637 238.646229 
L 2488.643586 237.567884 
L 2492.336535 236.269925 
L 2496.029484 234.731997 
L 2499.722433 232.937383 
L 2504.33862 230.381148 
L 2509.878043 227.010959 
L 2522.803365 218.976116 
L 2527.419552 216.426157 
L 2531.112501 214.638981 
L 2534.80545 213.14266 
L 2537.575162 212.248026 
L 2540.344874 211.577107 
L 2543.114586 211.155664 
L 2545.884298 211.009458 
L 2545.884298 211.009458 
" clip-path="url(#p4c368b26de)" style="fill: none; stroke: #1f77b4; stroke-width: 6; stroke-linecap: square"/>
   </g>
   <g id="line2d_73">
    <path d="M 1623.570248 209.468488 
L 2508.954806 209.362985 
L 2515.417467 209.070658 
L 2520.956891 208.581379 
L 2525.573077 207.952847 
L 2530.189264 207.081183 
L 2533.882213 206.182081 
L 2537.575162 205.081577 
L 2541.268111 203.759316 
L 2544.96106 202.194944 
L 2545.884298 201.763636 
L 2545.884298 201.763636 
" clip-path="url(#p4c368b26de)" style="fill: none; stroke: #ff7f0e; stroke-width: 6; stroke-linecap: square"/>
   </g>
   <g id="LineCollection_1">
    <path d="M 1623.570248 923.4 
L 1623.570248 167.4 
" clip-path="url(#p4c368b26de)" style="fill: none; stroke: #808080; stroke-opacity: 0.5; stroke-width: 0.25"/>
   </g>
   <g id="LineCollection_2">
    <path d="M 1672.113093 923.4 
L 1672.113093 167.4 
" clip-path="url(#p4c368b26de)" style="fill: none; stroke: #808080; stroke-opacity: 0.5; stroke-width: 0.25"/>
   </g>
   <g id="LineCollection_3">
    <path d="M 1720.655937 923.4 
L 1720.655937 167.4 
" clip-path="url(#p4c368b26de)" style="fill: none; stroke: #808080; stroke-opacity: 0.5; stroke-width: 0.25"/>
   </g>
   <g id="LineCollection_4">
    <path d="M 1769.198782 923.4 
L 1769.198782 167.4 
" clip-path="url(#p4c368b26de)" style="fill: none; stroke: #808080; stroke-opacity: 0.5; stroke-width: 0.25"/>
   </g>
   <g id="LineCollection_5">
    <path d="M 1817.741627 923.4 
L 1817.741627 167.4 
" clip-path="url(#p4c368b26de)" style="fill: none; stroke: #808080; stroke-opacity: 0.5; stroke-width: 0.25"/>
   </g>
   <g id="LineCollection_6">
    <path d="M 1866.284472 923.4 
L 1866.284472 167.4 
" clip-path="url(#p4c368b26de)" style="fill: none; stroke: #808080; stroke-opacity: 0.5; stroke-width: 0.25"/>
   </g>
   <g id="LineCollection_7">
    <path d="M 1914.827316 923.4 
L 1914.827316 167.4 
" clip-path="url(#p4c368b26de)" style="fill: none; stroke: #808080; stroke-opacity: 0.5; stroke-width: 0.25"/>
   </g>
   <g id="LineCollection_8">
    <path d="M 1963.370161 923.4 
L 1963.370161 167.4 
" clip-path="url(#p4c368b26de)" style="fill: none; stroke: #808080; stroke-opacity: 0.5; stroke-width: 0.25"/>
   </g>
   <g id="LineCollection_9">
    <path d="M 2011.913006 923.4 
L 2011.913006 167.4 
" clip-path="url(#p4c368b26de)" style="fill: none; stroke: #808080; stroke-opacity: 0.5; stroke-width: 0.25"/>
   </g>
   <g id="LineCollection_10">
    <path d="M 2060.45585 923.4 
L 2060.45585 167.4 
" clip-path="url(#p4c368b26de)" style="fill: none; stroke: #808080; stroke-opacity: 0.5; stroke-width: 0.25"/>
   </g>
   <g id="LineCollection_11">
    <path d="M 2108.998695 923.4 
L 2108.998695 167.4 
" clip-path="url(#p4c368b26de)" style="fill: none; stroke: #808080; stroke-opacity: 0.5; stroke-width: 0.25"/>
   </g>
   <g id="LineCollection_12">
    <path d="M 2157.54154 923.4 
L 2157.54154 167.4 
" clip-path="url(#p4c368b26de)" style="fill: none; stroke: #808080; stroke-opacity: 0.5; stroke-width: 0.25"/>
   </g>
   <g id="LineCollection_13">
    <path d="M 2206.084385 923.4 
L 2206.084385 167.4 
" clip-path="url(#p4c368b26de)" style="fill: none; stroke: #808080; stroke-opacity: 0.5; stroke-width: 0.25"/>
   </g>
   <g id="LineCollection_14">
    <path d="M 2254.627229 923.4 
L 2254.627229 167.4 
" clip-path="url(#p4c368b26de)" style="fill: none; stroke: #808080; stroke-opacity: 0.5; stroke-width: 0.25"/>
   </g>
   <g id="LineCollection_15">
    <path d="M 2303.170074 923.4 
L 2303.170074 167.4 
" clip-path="url(#p4c368b26de)" style="fill: none; stroke: #808080; stroke-opacity: 0.5; stroke-width: 0.25"/>
   </g>
   <g id="LineCollection_16">
    <path d="M 2351.712919 923.4 
L 2351.712919 167.4 
" clip-path="url(#p4c368b26de)" style="fill: none; stroke: #808080; stroke-opacity: 0.5; stroke-width: 0.25"/>
   </g>
   <g id="LineCollection_17">
    <path d="M 2400.255763 923.4 
L 2400.255763 167.4 
" clip-path="url(#p4c368b26de)" style="fill: none; stroke: #808080; stroke-opacity: 0.5; stroke-width: 0.25"/>
   </g>
   <g id="LineCollection_18">
    <path d="M 2448.798608 923.4 
L 2448.798608 167.4 
" clip-path="url(#p4c368b26de)" style="fill: none; stroke: #808080; stroke-opacity: 0.5; stroke-width: 0.25"/>
   </g>
   <g id="LineCollection_19">
    <path d="M 2497.341453 923.4 
L 2497.341453 167.4 
" clip-path="url(#p4c368b26de)" style="fill: none; stroke: #808080; stroke-opacity: 0.5; stroke-width: 0.25"/>
   </g>
   <g id="LineCollection_20">
    <path d="M 2545.884298 923.4 
L 2545.884298 167.4 
" clip-path="url(#p4c368b26de)" style="fill: none; stroke: #808080; stroke-opacity: 0.5; stroke-width: 0.25"/>
   </g>
   <g id="patch_8">
    <path d="M 1577.454545 961.2 
L 1577.454545 129.6 
" style="fill: none; stroke: #000000; stroke-width: 0.8; stroke-linejoin: miter; stroke-linecap: square"/>
   </g>
   <g id="patch_9">
    <path d="M 2592 961.2 
L 2592 129.6 
" style="fill: none; stroke: #000000; stroke-width: 0.8; stroke-linejoin: miter; stroke-linecap: square"/>
   </g>
   <g id="patch_10">
    <path d="M 1577.454545 961.2 
L 2592 961.2 
" style="fill: none; stroke: #000000; stroke-width: 0.8; stroke-linejoin: miter; stroke-linecap: square"/>
   </g>
   <g id="patch_11">
    <path d="M 1577.454545 129.6 
L 2592 129.6 
" style="fill: none; stroke: #000000; stroke-width: 0.8; stroke-linejoin: miter; stroke-linecap: square"/>
   </g>
  </g>
 </g>
 <defs>
  <clipPath id="p2f358d4927">
   <rect x="360" y="129.6" width="1014.545455" height="831.6"/>
  </clipPath>
  <clipPath id="p4c368b26de">
   <rect x="1577.454545" y="129.6" width="1014.545455" height="831.6"/>
  </clipPath>
 </defs>
</svg>
