<?xml version="1.0" encoding="utf-8" standalone="no"?>
<!DOCTYPE svg PUBLIC "-//W3C//DTD SVG 1.1//EN"
  "http://www.w3.org/Graphics/SVG/1.1/DTD/svg11.dtd">
<svg xmlns:xlink="http://www.w3.org/1999/xlink" width="460.8pt" height="345.6pt" viewBox="0 0 460.8 345.6" xmlns="http://www.w3.org/2000/svg" version="1.1">
 <metadata>
  <rdf:RDF xmlns:dc="http://purl.org/dc/elements/1.1/" xmlns:cc="http://creativecommons.org/ns#" xmlns:rdf="http://www.w3.org/1999/02/22-rdf-syntax-ns#">
   <cc:Work>
    <dc:type rdf:resource="http://purl.org/dc/dcmitype/StillImage"/>
    <dc:date>2022-11-28T13:01:29.252685</dc:date>
    <dc:format>image/svg+xml</dc:format>
    <dc:creator>
     <cc:Agent>
      <dc:title>Matplotlib v3.6.2, https://matplotlib.org/</dc:title>
     </cc:Agent>
    </dc:creator>
   </cc:Work>
  </rdf:RDF>
 </metadata>
 <defs>
  <style type="text/css">*{stroke-linejoin: round; stroke-linecap: butt}</style>
 </defs>
 <g id="figure_1">
  <g id="patch_1">
   <path d="M 0 345.6 
L 460.8 345.6 
L 460.8 0 
L 0 0 
z
" style="fill: #ffffff"/>
  </g>
  <g id="axes_1">
   <g id="patch_2">
    <path d="M 57.6 307.584 
L 414.72 307.584 
L 414.72 41.472 
L 57.6 41.472 
z
" style="fill: #ffffff"/>
   </g>
   <g id="PathCollection_1">
    <defs>
     <path id="med4af9d12e" d="M 0 3 
C 0.795609 3 1.55874 2.683901 2.12132 2.12132 
C 2.683901 1.55874 3 0.795609 3 0 
C 3 -0.795609 2.683901 -1.55874 2.12132 -2.12132 
C 1.55874 -2.683901 0.795609 -3 0 -3 
C -0.795609 -3 -1.55874 -2.683901 -2.12132 -2.12132 
C -2.683901 -1.55874 -3 -0.795609 -3 0 
C -3 0.795609 -2.683901 1.55874 -2.12132 2.12132 
C -1.55874 2.683901 -0.795609 3 0 3 
z
" style="stroke: #1f77b4"/>
    </defs>
    <g clip-path="url(#pa1d3dbb966)">
     <use xlink:href="#med4af9d12e" x="197.275784" y="205.030465" style="fill: #1f77b4; stroke: #1f77b4"/>
     <use xlink:href="#med4af9d12e" x="160.557486" y="184.935695" style="fill: #1f77b4; stroke: #1f77b4"/>
     <use xlink:href="#med4af9d12e" x="209.875774" y="159.926638" style="fill: #1f77b4; stroke: #1f77b4"/>
     <use xlink:href="#med4af9d12e" x="264.606483" y="202.527666" style="fill: #1f77b4; stroke: #1f77b4"/>
     <use xlink:href="#med4af9d12e" x="159.93932" y="176.130435" style="fill: #1f77b4; stroke: #1f77b4"/>
     <use xlink:href="#med4af9d12e" x="161.669602" y="157.668844" style="fill: #1f77b4; stroke: #1f77b4"/>
     <use xlink:href="#med4af9d12e" x="273.196193" y="129.32842" style="fill: #1f77b4; stroke: #1f77b4"/>
     <use xlink:href="#med4af9d12e" x="225.772777" y="135.72162" style="fill: #1f77b4; stroke: #1f77b4"/>
     <use xlink:href="#med4af9d12e" x="152.607917" y="159.382799" style="fill: #1f77b4; stroke: #1f77b4"/>
     <use xlink:href="#med4af9d12e" x="215.615317" y="147.521877" style="fill: #1f77b4; stroke: #1f77b4"/>
     <use xlink:href="#med4af9d12e" x="156.433222" y="233.64073" style="fill: #1f77b4; stroke: #1f77b4"/>
     <use xlink:href="#med4af9d12e" x="158.022516" y="171.075599" style="fill: #1f77b4; stroke: #1f77b4"/>
     <use xlink:href="#med4af9d12e" x="202.602156" y="151.738289" style="fill: #1f77b4; stroke: #1f77b4"/>
     <use xlink:href="#med4af9d12e" x="73.832727" y="86.572036" style="fill: #1f77b4; stroke: #1f77b4"/>
     <use xlink:href="#med4af9d12e" x="86.967253" y="157.258899" style="fill: #1f77b4; stroke: #1f77b4"/>
     <use xlink:href="#med4af9d12e" x="159.093148" y="160.45989" style="fill: #1f77b4; stroke: #1f77b4"/>
     <use xlink:href="#med4af9d12e" x="133.542276" y="156.235489" style="fill: #1f77b4; stroke: #1f77b4"/>
     <use xlink:href="#med4af9d12e" x="215.625414" y="184.0175" style="fill: #1f77b4; stroke: #1f77b4"/>
     <use xlink:href="#med4af9d12e" x="143.346859" y="124.263423" style="fill: #1f77b4; stroke: #1f77b4"/>
     <use xlink:href="#med4af9d12e" x="114.542301" y="118.018925" style="fill: #1f77b4; stroke: #1f77b4"/>
     <use xlink:href="#med4af9d12e" x="290.529984" y="199.864342" style="fill: #1f77b4; stroke: #1f77b4"/>
     <use xlink:href="#med4af9d12e" x="189.84444" y="193.550497" style="fill: #1f77b4; stroke: #1f77b4"/>
     <use xlink:href="#med4af9d12e" x="209.33315" y="102.066206" style="fill: #1f77b4; stroke: #1f77b4"/>
     <use xlink:href="#med4af9d12e" x="120.705945" y="192.864299" style="fill: #1f77b4; stroke: #1f77b4"/>
     <use xlink:href="#med4af9d12e" x="175.740864" y="150.814479" style="fill: #1f77b4; stroke: #1f77b4"/>
     <use xlink:href="#med4af9d12e" x="217.148518" y="71.200758" style="fill: #1f77b4; stroke: #1f77b4"/>
     <use xlink:href="#med4af9d12e" x="142.469496" y="194.810074" style="fill: #1f77b4; stroke: #1f77b4"/>
     <use xlink:href="#med4af9d12e" x="236.639097" y="161.902122" style="fill: #1f77b4; stroke: #1f77b4"/>
     <use xlink:href="#med4af9d12e" x="179.251749" y="165.802574" style="fill: #1f77b4; stroke: #1f77b4"/>
     <use xlink:href="#med4af9d12e" x="199.687478" y="172.768768" style="fill: #1f77b4; stroke: #1f77b4"/>
     <use xlink:href="#med4af9d12e" x="182.645662" y="219.271482" style="fill: #1f77b4; stroke: #1f77b4"/>
     <use xlink:href="#med4af9d12e" x="332.962342" y="235.424394" style="fill: #1f77b4; stroke: #1f77b4"/>
     <use xlink:href="#med4af9d12e" x="221.719984" y="177.891768" style="fill: #1f77b4; stroke: #1f77b4"/>
     <use xlink:href="#med4af9d12e" x="160.222722" y="155.02452" style="fill: #1f77b4; stroke: #1f77b4"/>
     <use xlink:href="#med4af9d12e" x="275.800438" y="228.15527" style="fill: #1f77b4; stroke: #1f77b4"/>
     <use xlink:href="#med4af9d12e" x="153.803704" y="116.83827" style="fill: #1f77b4; stroke: #1f77b4"/>
     <use xlink:href="#med4af9d12e" x="242.100957" y="172.282839" style="fill: #1f77b4; stroke: #1f77b4"/>
     <use xlink:href="#med4af9d12e" x="112.526754" y="153.152005" style="fill: #1f77b4; stroke: #1f77b4"/>
     <use xlink:href="#med4af9d12e" x="152.492045" y="140.780052" style="fill: #1f77b4; stroke: #1f77b4"/>
     <use xlink:href="#med4af9d12e" x="246.562084" y="191.027258" style="fill: #1f77b4; stroke: #1f77b4"/>
     <use xlink:href="#med4af9d12e" x="281.08527" y="200.574631" style="fill: #1f77b4; stroke: #1f77b4"/>
     <use xlink:href="#med4af9d12e" x="248.477076" y="108.341633" style="fill: #1f77b4; stroke: #1f77b4"/>
     <use xlink:href="#med4af9d12e" x="232.827673" y="195.419718" style="fill: #1f77b4; stroke: #1f77b4"/>
     <use xlink:href="#med4af9d12e" x="223.32774" y="135.851257" style="fill: #1f77b4; stroke: #1f77b4"/>
     <use xlink:href="#med4af9d12e" x="153.765016" y="159.85359" style="fill: #1f77b4; stroke: #1f77b4"/>
     <use xlink:href="#med4af9d12e" x="201.431815" y="128.558968" style="fill: #1f77b4; stroke: #1f77b4"/>
     <use xlink:href="#med4af9d12e" x="218.855845" y="184.764822" style="fill: #1f77b4; stroke: #1f77b4"/>
     <use xlink:href="#med4af9d12e" x="312.484704" y="295.488" style="fill: #1f77b4; stroke: #1f77b4"/>
     <use xlink:href="#med4af9d12e" x="271.011731" y="170.501104" style="fill: #1f77b4; stroke: #1f77b4"/>
     <use xlink:href="#med4af9d12e" x="145.184041" y="153.730656" style="fill: #1f77b4; stroke: #1f77b4"/>
     <use xlink:href="#med4af9d12e" x="273.287515" y="184.073802" style="fill: #1f77b4; stroke: #1f77b4"/>
     <use xlink:href="#med4af9d12e" x="232.077187" y="130.09435" style="fill: #1f77b4; stroke: #1f77b4"/>
     <use xlink:href="#med4af9d12e" x="216.135745" y="167.453063" style="fill: #1f77b4; stroke: #1f77b4"/>
     <use xlink:href="#med4af9d12e" x="295.888931" y="227.42707" style="fill: #1f77b4; stroke: #1f77b4"/>
     <use xlink:href="#med4af9d12e" x="323.008003" y="239.800357" style="fill: #1f77b4; stroke: #1f77b4"/>
     <use xlink:href="#med4af9d12e" x="318.699338" y="275.465388" style="fill: #1f77b4; stroke: #1f77b4"/>
     <use xlink:href="#med4af9d12e" x="213.225994" y="84.138737" style="fill: #1f77b4; stroke: #1f77b4"/>
     <use xlink:href="#med4af9d12e" x="247.046794" y="134.643858" style="fill: #1f77b4; stroke: #1f77b4"/>
     <use xlink:href="#med4af9d12e" x="287.55653" y="260.542421" style="fill: #1f77b4; stroke: #1f77b4"/>
     <use xlink:href="#med4af9d12e" x="328.29671" y="222.605953" style="fill: #1f77b4; stroke: #1f77b4"/>
     <use xlink:href="#med4af9d12e" x="241.943563" y="178.554328" style="fill: #1f77b4; stroke: #1f77b4"/>
     <use xlink:href="#med4af9d12e" x="261.445034" y="143.960576" style="fill: #1f77b4; stroke: #1f77b4"/>
     <use xlink:href="#med4af9d12e" x="207.42791" y="111.536384" style="fill: #1f77b4; stroke: #1f77b4"/>
     <use xlink:href="#med4af9d12e" x="203.71552" y="180.282301" style="fill: #1f77b4; stroke: #1f77b4"/>
     <use xlink:href="#med4af9d12e" x="327.072422" y="213.794982" style="fill: #1f77b4; stroke: #1f77b4"/>
     <use xlink:href="#med4af9d12e" x="361.723298" y="142.755536" style="fill: #1f77b4; stroke: #1f77b4"/>
     <use xlink:href="#med4af9d12e" x="276.972847" y="172.435166" style="fill: #1f77b4; stroke: #1f77b4"/>
     <use xlink:href="#med4af9d12e" x="343.825656" y="150.672792" style="fill: #1f77b4; stroke: #1f77b4"/>
     <use xlink:href="#med4af9d12e" x="306.688451" y="256.309307" style="fill: #1f77b4; stroke: #1f77b4"/>
     <use xlink:href="#med4af9d12e" x="247.459246" y="176.012206" style="fill: #1f77b4; stroke: #1f77b4"/>
     <use xlink:href="#med4af9d12e" x="310.13247" y="280.113066" style="fill: #1f77b4; stroke: #1f77b4"/>
     <use xlink:href="#med4af9d12e" x="383.106702" y="109.67786" style="fill: #1f77b4; stroke: #1f77b4"/>
     <use xlink:href="#med4af9d12e" x="289.539499" y="227.041808" style="fill: #1f77b4; stroke: #1f77b4"/>
     <use xlink:href="#med4af9d12e" x="388.176322" y="56.850784" style="fill: #1f77b4; stroke: #1f77b4"/>
     <use xlink:href="#med4af9d12e" x="136.543236" y="148.144886" style="fill: #1f77b4; stroke: #1f77b4"/>
     <use xlink:href="#med4af9d12e" x="346.662341" y="178.50955" style="fill: #1f77b4; stroke: #1f77b4"/>
     <use xlink:href="#med4af9d12e" x="303.896548" y="245.11557" style="fill: #1f77b4; stroke: #1f77b4"/>
     <use xlink:href="#med4af9d12e" x="282.250459" y="162.006264" style="fill: #1f77b4; stroke: #1f77b4"/>
     <use xlink:href="#med4af9d12e" x="307.640536" y="257.690539" style="fill: #1f77b4; stroke: #1f77b4"/>
     <use xlink:href="#med4af9d12e" x="183.467586" y="76.375059" style="fill: #1f77b4; stroke: #1f77b4"/>
     <use xlink:href="#med4af9d12e" x="292.242039" y="208.370494" style="fill: #1f77b4; stroke: #1f77b4"/>
     <use xlink:href="#med4af9d12e" x="328.8953" y="272.348781" style="fill: #1f77b4; stroke: #1f77b4"/>
     <use xlink:href="#med4af9d12e" x="398.487273" y="82.919718" style="fill: #1f77b4; stroke: #1f77b4"/>
     <use xlink:href="#med4af9d12e" x="279.349943" y="188.573004" style="fill: #1f77b4; stroke: #1f77b4"/>
     <use xlink:href="#med4af9d12e" x="263.506369" y="181.24926" style="fill: #1f77b4; stroke: #1f77b4"/>
     <use xlink:href="#med4af9d12e" x="283.808382" y="189.76177" style="fill: #1f77b4; stroke: #1f77b4"/>
     <use xlink:href="#med4af9d12e" x="371.345856" y="105.99225" style="fill: #1f77b4; stroke: #1f77b4"/>
     <use xlink:href="#med4af9d12e" x="337.553757" y="231.393042" style="fill: #1f77b4; stroke: #1f77b4"/>
     <use xlink:href="#med4af9d12e" x="287.30067" y="248.568509" style="fill: #1f77b4; stroke: #1f77b4"/>
     <use xlink:href="#med4af9d12e" x="352.184691" y="239.773086" style="fill: #1f77b4; stroke: #1f77b4"/>
     <use xlink:href="#med4af9d12e" x="328.713917" y="258.882065" style="fill: #1f77b4; stroke: #1f77b4"/>
     <use xlink:href="#med4af9d12e" x="383.216121" y="53.568" style="fill: #1f77b4; stroke: #1f77b4"/>
     <use xlink:href="#med4af9d12e" x="283.785584" y="206.39257" style="fill: #1f77b4; stroke: #1f77b4"/>
     <use xlink:href="#med4af9d12e" x="308.184032" y="290.805593" style="fill: #1f77b4; stroke: #1f77b4"/>
     <use xlink:href="#med4af9d12e" x="306.01115" y="241.777511" style="fill: #1f77b4; stroke: #1f77b4"/>
     <use xlink:href="#med4af9d12e" x="242.867362" y="133.877714" style="fill: #1f77b4; stroke: #1f77b4"/>
     <use xlink:href="#med4af9d12e" x="351.141568" y="222.054304" style="fill: #1f77b4; stroke: #1f77b4"/>
     <use xlink:href="#med4af9d12e" x="350.74769" y="188.683949" style="fill: #1f77b4; stroke: #1f77b4"/>
     <use xlink:href="#med4af9d12e" x="336.979846" y="228.223492" style="fill: #1f77b4; stroke: #1f77b4"/>
     <use xlink:href="#med4af9d12e" x="324.195398" y="286.810062" style="fill: #1f77b4; stroke: #1f77b4"/>
    </g>
   </g>
   <g id="matplotlib.axis_1">
    <g id="xtick_1">
     <g id="line2d_1">
      <defs>
       <path id="mc9ee550c37" d="M 0 0 
L 0 3.5 
" style="stroke: #000000; stroke-width: 0.8"/>
      </defs>
      <g>
       <use xlink:href="#mc9ee550c37" x="106.650588" y="307.584" style="stroke: #000000; stroke-width: 0.8"/>
      </g>
     </g>
     <g id="text_1">
      <!-- −2 -->
      <g transform="translate(99.279495 322.182437) scale(0.1 -0.1)">
       <defs>
        <path id="DejaVuSans-2212" d="M 678 2272 
L 4684 2272 
L 4684 1741 
L 678 1741 
L 678 2272 
z
" transform="scale(0.015625)"/>
        <path id="DejaVuSans-32" d="M 1228 531 
L 3431 531 
L 3431 0 
L 469 0 
L 469 531 
Q 828 903 1448 1529 
Q 2069 2156 2228 2338 
Q 2531 2678 2651 2914 
Q 2772 3150 2772 3378 
Q 2772 3750 2511 3984 
Q 2250 4219 1831 4219 
Q 1534 4219 1204 4116 
Q 875 4013 500 3803 
L 500 4441 
Q 881 4594 1212 4672 
Q 1544 4750 1819 4750 
Q 2544 4750 2975 4387 
Q 3406 4025 3406 3419 
Q 3406 3131 3298 2873 
Q 3191 2616 2906 2266 
Q 2828 2175 2409 1742 
Q 1991 1309 1228 531 
z
" transform="scale(0.015625)"/>
       </defs>
       <use xlink:href="#DejaVuSans-2212"/>
       <use xlink:href="#DejaVuSans-32" x="83.789062"/>
      </g>
     </g>
    </g>
    <g id="xtick_2">
     <g id="line2d_2">
      <g>
       <use xlink:href="#mc9ee550c37" x="167.200023" y="307.584" style="stroke: #000000; stroke-width: 0.8"/>
      </g>
     </g>
     <g id="text_2">
      <!-- 0 -->
      <g transform="translate(164.018773 322.182437) scale(0.1 -0.1)">
       <defs>
        <path id="DejaVuSans-30" d="M 2034 4250 
Q 1547 4250 1301 3770 
Q 1056 3291 1056 2328 
Q 1056 1369 1301 889 
Q 1547 409 2034 409 
Q 2525 409 2770 889 
Q 3016 1369 3016 2328 
Q 3016 3291 2770 3770 
Q 2525 4250 2034 4250 
z
M 2034 4750 
Q 2819 4750 3233 4129 
Q 3647 3509 3647 2328 
Q 3647 1150 3233 529 
Q 2819 -91 2034 -91 
Q 1250 -91 836 529 
Q 422 1150 422 2328 
Q 422 3509 836 4129 
Q 1250 4750 2034 4750 
z
" transform="scale(0.015625)"/>
       </defs>
       <use xlink:href="#DejaVuSans-30"/>
      </g>
     </g>
    </g>
    <g id="xtick_3">
     <g id="line2d_3">
      <g>
       <use xlink:href="#mc9ee550c37" x="227.749458" y="307.584" style="stroke: #000000; stroke-width: 0.8"/>
      </g>
     </g>
     <g id="text_3">
      <!-- 2 -->
      <g transform="translate(224.568208 322.182437) scale(0.1 -0.1)">
       <use xlink:href="#DejaVuSans-32"/>
      </g>
     </g>
    </g>
    <g id="xtick_4">
     <g id="line2d_4">
      <g>
       <use xlink:href="#mc9ee550c37" x="288.298893" y="307.584" style="stroke: #000000; stroke-width: 0.8"/>
      </g>
     </g>
     <g id="text_4">
      <!-- 4 -->
      <g transform="translate(285.117643 322.182437) scale(0.1 -0.1)">
       <defs>
        <path id="DejaVuSans-34" d="M 2419 4116 
L 825 1625 
L 2419 1625 
L 2419 4116 
z
M 2253 4666 
L 3047 4666 
L 3047 1625 
L 3713 1625 
L 3713 1100 
L 3047 1100 
L 3047 0 
L 2419 0 
L 2419 1100 
L 313 1100 
L 313 1709 
L 2253 4666 
z
" transform="scale(0.015625)"/>
       </defs>
       <use xlink:href="#DejaVuSans-34"/>
      </g>
     </g>
    </g>
    <g id="xtick_5">
     <g id="line2d_5">
      <g>
       <use xlink:href="#mc9ee550c37" x="348.848327" y="307.584" style="stroke: #000000; stroke-width: 0.8"/>
      </g>
     </g>
     <g id="text_5">
      <!-- 6 -->
      <g transform="translate(345.667077 322.182437) scale(0.1 -0.1)">
       <defs>
        <path id="DejaVuSans-36" d="M 2113 2584 
Q 1688 2584 1439 2293 
Q 1191 2003 1191 1497 
Q 1191 994 1439 701 
Q 1688 409 2113 409 
Q 2538 409 2786 701 
Q 3034 994 3034 1497 
Q 3034 2003 2786 2293 
Q 2538 2584 2113 2584 
z
M 3366 4563 
L 3366 3988 
Q 3128 4100 2886 4159 
Q 2644 4219 2406 4219 
Q 1781 4219 1451 3797 
Q 1122 3375 1075 2522 
Q 1259 2794 1537 2939 
Q 1816 3084 2150 3084 
Q 2853 3084 3261 2657 
Q 3669 2231 3669 1497 
Q 3669 778 3244 343 
Q 2819 -91 2113 -91 
Q 1303 -91 875 529 
Q 447 1150 447 2328 
Q 447 3434 972 4092 
Q 1497 4750 2381 4750 
Q 2619 4750 2861 4703 
Q 3103 4656 3366 4563 
z
" transform="scale(0.015625)"/>
       </defs>
       <use xlink:href="#DejaVuSans-36"/>
      </g>
     </g>
    </g>
    <g id="xtick_6">
     <g id="line2d_6">
      <g>
       <use xlink:href="#mc9ee550c37" x="409.397762" y="307.584" style="stroke: #000000; stroke-width: 0.8"/>
      </g>
     </g>
     <g id="text_6">
      <!-- 8 -->
      <g transform="translate(406.216512 322.182437) scale(0.1 -0.1)">
       <defs>
        <path id="DejaVuSans-38" d="M 2034 2216 
Q 1584 2216 1326 1975 
Q 1069 1734 1069 1313 
Q 1069 891 1326 650 
Q 1584 409 2034 409 
Q 2484 409 2743 651 
Q 3003 894 3003 1313 
Q 3003 1734 2745 1975 
Q 2488 2216 2034 2216 
z
M 1403 2484 
Q 997 2584 770 2862 
Q 544 3141 544 3541 
Q 544 4100 942 4425 
Q 1341 4750 2034 4750 
Q 2731 4750 3128 4425 
Q 3525 4100 3525 3541 
Q 3525 3141 3298 2862 
Q 3072 2584 2669 2484 
Q 3125 2378 3379 2068 
Q 3634 1759 3634 1313 
Q 3634 634 3220 271 
Q 2806 -91 2034 -91 
Q 1263 -91 848 271 
Q 434 634 434 1313 
Q 434 1759 690 2068 
Q 947 2378 1403 2484 
z
M 1172 3481 
Q 1172 3119 1398 2916 
Q 1625 2713 2034 2713 
Q 2441 2713 2670 2916 
Q 2900 3119 2900 3481 
Q 2900 3844 2670 4047 
Q 2441 4250 2034 4250 
Q 1625 4250 1398 4047 
Q 1172 3844 1172 3481 
z
" transform="scale(0.015625)"/>
       </defs>
       <use xlink:href="#DejaVuSans-38"/>
      </g>
     </g>
    </g>
    <g id="text_7">
     <!-- $x$ -->
     <g transform="translate(233.16 335.860562) scale(0.1 -0.1)">
      <defs>
       <path id="DejaVuSans-Oblique-78" d="M 3841 3500 
L 2234 1784 
L 3219 0 
L 2559 0 
L 1819 1388 
L 531 0 
L -166 0 
L 1556 1844 
L 641 3500 
L 1300 3500 
L 1972 2234 
L 3144 3500 
L 3841 3500 
z
" transform="scale(0.015625)"/>
      </defs>
      <use xlink:href="#DejaVuSans-Oblique-78" transform="translate(0 0.3125)"/>
     </g>
    </g>
   </g>
   <g id="matplotlib.axis_2">
    <g id="ytick_1">
     <g id="line2d_7">
      <defs>
       <path id="m711b9db6d1" d="M 0 0 
L -3.5 0 
" style="stroke: #000000; stroke-width: 0.8"/>
      </defs>
      <g>
       <use xlink:href="#m711b9db6d1" x="57.6" y="305.130776" style="stroke: #000000; stroke-width: 0.8"/>
      </g>
     </g>
     <g id="text_8">
      <!-- −8 -->
      <g transform="translate(35.857813 308.929995) scale(0.1 -0.1)">
       <use xlink:href="#DejaVuSans-2212"/>
       <use xlink:href="#DejaVuSans-38" x="83.789062"/>
      </g>
     </g>
    </g>
    <g id="ytick_2">
     <g id="line2d_8">
      <g>
       <use xlink:href="#m711b9db6d1" x="57.6" y="271.773202" style="stroke: #000000; stroke-width: 0.8"/>
      </g>
     </g>
     <g id="text_9">
      <!-- −6 -->
      <g transform="translate(35.857813 275.572421) scale(0.1 -0.1)">
       <use xlink:href="#DejaVuSans-2212"/>
       <use xlink:href="#DejaVuSans-36" x="83.789062"/>
      </g>
     </g>
    </g>
    <g id="ytick_3">
     <g id="line2d_9">
      <g>
       <use xlink:href="#m711b9db6d1" x="57.6" y="238.415629" style="stroke: #000000; stroke-width: 0.8"/>
      </g>
     </g>
     <g id="text_10">
      <!-- −4 -->
      <g transform="translate(35.857813 242.214848) scale(0.1 -0.1)">
       <use xlink:href="#DejaVuSans-2212"/>
       <use xlink:href="#DejaVuSans-34" x="83.789062"/>
      </g>
     </g>
    </g>
    <g id="ytick_4">
     <g id="line2d_10">
      <g>
       <use xlink:href="#m711b9db6d1" x="57.6" y="205.058055" style="stroke: #000000; stroke-width: 0.8"/>
      </g>
     </g>
     <g id="text_11">
      <!-- −2 -->
      <g transform="translate(35.857813 208.857274) scale(0.1 -0.1)">
       <use xlink:href="#DejaVuSans-2212"/>
       <use xlink:href="#DejaVuSans-32" x="83.789062"/>
      </g>
     </g>
    </g>
    <g id="ytick_5">
     <g id="line2d_11">
      <g>
       <use xlink:href="#m711b9db6d1" x="57.6" y="171.700482" style="stroke: #000000; stroke-width: 0.8"/>
      </g>
     </g>
     <g id="text_12">
      <!-- 0 -->
      <g transform="translate(44.2375 175.4997) scale(0.1 -0.1)">
       <use xlink:href="#DejaVuSans-30"/>
      </g>
     </g>
    </g>
    <g id="ytick_6">
     <g id="line2d_12">
      <g>
       <use xlink:href="#m711b9db6d1" x="57.6" y="138.342908" style="stroke: #000000; stroke-width: 0.8"/>
      </g>
     </g>
     <g id="text_13">
      <!-- 2 -->
      <g transform="translate(44.2375 142.142127) scale(0.1 -0.1)">
       <use xlink:href="#DejaVuSans-32"/>
      </g>
     </g>
    </g>
    <g id="ytick_7">
     <g id="line2d_13">
      <g>
       <use xlink:href="#m711b9db6d1" x="57.6" y="104.985334" style="stroke: #000000; stroke-width: 0.8"/>
      </g>
     </g>
     <g id="text_14">
      <!-- 4 -->
      <g transform="translate(44.2375 108.784553) scale(0.1 -0.1)">
       <use xlink:href="#DejaVuSans-34"/>
      </g>
     </g>
    </g>
    <g id="ytick_8">
     <g id="line2d_14">
      <g>
       <use xlink:href="#m711b9db6d1" x="57.6" y="71.627761" style="stroke: #000000; stroke-width: 0.8"/>
      </g>
     </g>
     <g id="text_15">
      <!-- 6 -->
      <g transform="translate(44.2375 75.426979) scale(0.1 -0.1)">
       <use xlink:href="#DejaVuSans-36"/>
      </g>
     </g>
    </g>
    <g id="text_16">
     <!-- $y$ -->
     <g transform="translate(29.757812 177.528) rotate(-90) scale(0.1 -0.1)">
      <defs>
       <path id="DejaVuSans-Oblique-79" d="M 1588 -325 
Q 1188 -997 936 -1164 
Q 684 -1331 294 -1331 
L -159 -1331 
L -63 -850 
L 269 -850 
Q 509 -850 678 -719 
Q 847 -588 1056 -206 
L 1234 128 
L 459 3500 
L 1069 3500 
L 1650 819 
L 3256 3500 
L 3859 3500 
L 1588 -325 
z
" transform="scale(0.015625)"/>
      </defs>
      <use xlink:href="#DejaVuSans-Oblique-79" transform="translate(0 0.3125)"/>
     </g>
    </g>
   </g>
   <g id="patch_3">
    <path d="M 57.6 307.584 
L 57.6 41.472 
" style="fill: none; stroke: #000000; stroke-width: 0.8; stroke-linejoin: miter; stroke-linecap: square"/>
   </g>
   <g id="patch_4">
    <path d="M 414.72 307.584 
L 414.72 41.472 
" style="fill: none; stroke: #000000; stroke-width: 0.8; stroke-linejoin: miter; stroke-linecap: square"/>
   </g>
   <g id="patch_5">
    <path d="M 57.6 307.584 
L 414.72 307.584 
" style="fill: none; stroke: #000000; stroke-width: 0.8; stroke-linejoin: miter; stroke-linecap: square"/>
   </g>
   <g id="patch_6">
    <path d="M 57.6 41.472 
L 414.72 41.472 
" style="fill: none; stroke: #000000; stroke-width: 0.8; stroke-linejoin: miter; stroke-linecap: square"/>
   </g>
  </g>
 </g>
 <defs>
  <clipPath id="pa1d3dbb966">
   <rect x="57.6" y="41.472" width="357.12" height="266.112"/>
  </clipPath>
 </defs>
</svg>
