<?xml version="1.0" encoding="UTF-8" standalone="no"?>
<svg
   width="576.00pt"
   height="432.00pt"
   viewBox="0 0 576.00 432.00"
   version="1.1"
   id="svg50"
   sodipodi:docname="surv_portion_censored_multi_pval_cdf.svg"
   inkscape:version="1.4.2 (ebf0e940, 2025-05-08)"
   xmlns:inkscape="http://www.inkscape.org/namespaces/inkscape"
   xmlns:sodipodi="http://sodipodi.sourceforge.net/DTD/sodipodi-0.dtd"
   xmlns="http://www.w3.org/2000/svg"
   xmlns:svg="http://www.w3.org/2000/svg">
  <defs
     id="defs50" />
  <sodipodi:namedview
     id="namedview50"
     pagecolor="#ffffff"
     bordercolor="#000000"
     borderopacity="0.25"
     inkscape:showpageshadow="2"
     inkscape:pageopacity="0.0"
     inkscape:pagecheckerboard="0"
     inkscape:deskcolor="#d1d1d1"
     inkscape:document-units="pt"
     inkscape:zoom="1.0213765"
     inkscape:cx="376.94231"
     inkscape:cy="287.84685"
     inkscape:window-width="1408"
     inkscape:window-height="805"
     inkscape:window-x="41"
     inkscape:window-y="38"
     inkscape:window-maximized="0"
     inkscape:current-layer="g49" />
  <g
     class="svglite"
     id="g50">
    <defs
       id="defs1">
      <style
         type="text/css"
         id="style1"><![CDATA[
    .svglite line, .svglite polyline, .svglite polygon, .svglite path, .svglite rect, .svglite circle {
      fill: none;
      stroke: #000000;
      stroke-linecap: round;
      stroke-linejoin: round;
      stroke-miterlimit: 10.00;
    }
    .svglite text {
      white-space: pre;
    }
    .svglite g.glyphgroup path {
      fill: inherit;
      stroke: none;
    }
  ]]></style>
    </defs>
    <rect
       width="100%"
       height="100%"
       style="stroke: none; fill: #FFFFFF;"
       id="rect1" />
    <defs
       id="defs2">
      <clipPath
         id="cpMC4wMHw1NzYuMDB8MC4wMHw0MzIuMDA=">
        <rect
           x="0.00"
           y="0.00"
           width="576.00"
           height="432.00"
           id="rect2" />
      </clipPath>
    </defs>
    <g
       clip-path="url(#cpMC4wMHw1NzYuMDB8MC4wMHw0MzIuMDA=)"
       id="g3">
      <rect
         x="0.00"
         y="0.00"
         width="576.00"
         height="432.00"
         style="stroke-width: 1.26; stroke: #FFFFFF; fill: #FFFFFF;"
         id="rect3" />
    </g>
    <defs
       id="defs4">
      <clipPath
         id="cpNjUuMjV8Mzg3Ljk3fDYuNDh8MzgzLjEw">
        <rect
           x="65.25"
           y="6.48"
           width="322.72"
           height="376.62"
           id="rect4" />
      </clipPath>
    </defs>
    <g
       clip-path="url(#cpNjUuMjV8Mzg3Ljk3fDYuNDh8MzgzLjEw)"
       id="g25">
      <rect
         x="65.25"
         y="6.48"
         width="322.72"
         height="376.62"
         style="stroke-width: 1.26; stroke: none; fill: #FFFFFF;"
         id="rect5" />
      <polyline
         points="65.25,323.18 387.97,323.18 "
         style="stroke-width: 0.63; stroke: #EBEBEB; stroke-linecap: butt;"
         id="polyline5" />
      <polyline
         points="65.25,237.59 387.97,237.59 "
         style="stroke-width: 0.63; stroke: #EBEBEB; stroke-linecap: butt;"
         id="polyline6" />
      <polyline
         points="65.25,151.99 387.97,151.99 "
         style="stroke-width: 0.63; stroke: #EBEBEB; stroke-linecap: butt;"
         id="polyline7" />
      <polyline
         points="65.25,66.39 387.97,66.39 "
         style="stroke-width: 0.63; stroke: #EBEBEB; stroke-linecap: butt;"
         id="polyline8" />
      <polyline
         points="116.48,383.10 116.48,6.48 "
         style="stroke-width: 0.63; stroke: #EBEBEB; stroke-linecap: butt;"
         id="polyline9" />
      <polyline
         points="189.86,383.10 189.86,6.48 "
         style="stroke-width: 0.63; stroke: #EBEBEB; stroke-linecap: butt;"
         id="polyline10" />
      <polyline
         points="263.24,383.10 263.24,6.48 "
         style="stroke-width: 0.63; stroke: #EBEBEB; stroke-linecap: butt;"
         id="polyline11" />
      <polyline
         points="336.62,383.10 336.62,6.48 "
         style="stroke-width: 0.63; stroke: #EBEBEB; stroke-linecap: butt;"
         id="polyline12" />
      <polyline
         points="65.25,365.98 387.97,365.98 "
         style="stroke-width: 1.26; stroke: #EBEBEB; stroke-linecap: butt;"
         id="polyline13" />
      <polyline
         points="65.25,280.38 387.97,280.38 "
         style="stroke-width: 1.26; stroke: #EBEBEB; stroke-linecap: butt;"
         id="polyline14" />
      <polyline
         points="65.25,194.79 387.97,194.79 "
         style="stroke-width: 1.26; stroke: #EBEBEB; stroke-linecap: butt;"
         id="polyline15" />
      <polyline
         points="65.25,109.19 387.97,109.19 "
         style="stroke-width: 1.26; stroke: #EBEBEB; stroke-linecap: butt;"
         id="polyline16" />
      <polyline
         points="65.25,23.60 387.97,23.60 "
         style="stroke-width: 1.26; stroke: #EBEBEB; stroke-linecap: butt;"
         id="polyline17" />
      <polyline
         points="79.79,383.10 79.79,6.48 "
         style="stroke-width: 1.26; stroke: #EBEBEB; stroke-linecap: butt;"
         id="polyline18" />
      <polyline
         points="153.17,383.10 153.17,6.48 "
         style="stroke-width: 1.26; stroke: #EBEBEB; stroke-linecap: butt;"
         id="polyline19" />
      <polyline
         points="226.55,383.10 226.55,6.48 "
         style="stroke-width: 1.26; stroke: #EBEBEB; stroke-linecap: butt;"
         id="polyline20" />
      <polyline
         points="299.93,383.10 299.93,6.48 "
         style="stroke-width: 1.26; stroke: #EBEBEB; stroke-linecap: butt;"
         id="polyline21" />
      <polyline
         points="373.30,383.10 373.30,6.48 "
         style="stroke-width: 1.26; stroke: #EBEBEB; stroke-linecap: butt;"
         id="polyline22" />
      <polyline
         points="65.25,365.98 79.97,365.98 79.97,365.64 80.20,365.64 80.20,365.30 80.78,365.30 80.78,364.95 81.39,364.95 81.39,364.61 81.42,364.61 81.42,364.27 81.64,364.27 81.64,363.93 82.16,363.93 82.16,363.58 82.49,363.58 82.49,363.24 82.81,363.24 82.81,362.90 82.84,362.90 82.84,362.56 82.93,362.56 82.93,362.22 82.93,362.22 82.93,361.87 83.04,361.87 83.04,361.53 83.54,361.53 83.54,361.19 83.93,361.19 83.93,360.85 83.95,360.85 83.95,360.50 83.96,360.50 83.96,360.16 84.51,360.16 84.51,359.82 84.63,359.82 84.63,359.48 85.38,359.48 85.38,359.13 85.55,359.13 85.55,358.79 85.62,358.79 85.62,358.45 85.76,358.45 85.76,358.11 85.80,358.11 85.80,357.76 86.13,357.76 86.13,357.42 86.47,357.42 86.47,357.08 86.87,357.08 86.87,356.74 87.04,356.74 87.04,356.39 87.50,356.39 87.50,356.05 87.77,356.05 87.77,355.71 88.02,355.71 88.02,355.37 88.22,355.37 88.22,355.03 88.66,355.03 88.66,354.68 88.69,354.68 88.69,354.34 88.95,354.34 88.95,354.00 89.07,354.00 89.07,353.66 89.07,353.66 89.07,353.31 89.14,353.31 89.14,352.97 89.14,352.97 89.14,352.63 89.41,352.63 89.41,352.29 89.44,352.29 89.44,351.94 89.66,351.94 89.66,351.60 89.77,351.60 89.77,351.26 90.43,351.26 90.43,350.92 90.76,350.92 90.76,350.57 91.26,350.57 91.26,350.23 91.55,350.23 91.55,349.89 91.69,349.89 91.69,349.55 91.77,349.55 91.77,349.20 91.89,349.20 91.89,348.86 92.07,348.86 92.07,348.52 92.13,348.52 92.13,348.18 93.13,348.18 93.13,347.83 93.84,347.83 93.84,347.49 93.88,347.49 93.88,347.15 94.22,347.15 94.22,346.81 94.58,346.81 94.58,346.47 94.83,346.47 94.83,346.12 94.94,346.12 94.94,345.78 95.41,345.78 95.41,345.44 95.43,345.44 95.43,345.10 96.88,345.10 96.88,344.75 97.37,344.75 97.37,344.41 97.58,344.41 97.58,344.07 97.70,344.07 97.70,343.73 97.83,343.73 97.83,343.38 98.33,343.38 98.33,343.04 98.47,343.04 98.47,342.70 98.96,342.70 98.96,342.36 99.28,342.36 99.28,342.01 99.52,342.01 99.52,341.67 99.60,341.67 99.60,341.33 99.86,341.33 99.86,340.99 99.98,340.99 99.98,340.64 100.12,340.64 100.12,340.30 100.55,340.30 100.55,339.96 100.80,339.96 100.80,339.62 100.98,339.62 100.98,339.28 101.22,339.28 101.22,338.93 101.23,338.93 101.23,338.59 101.62,338.59 101.62,338.25 101.80,338.25 101.80,337.91 102.78,337.91 102.78,337.56 103.37,337.56 103.37,337.22 103.77,337.22 103.77,336.88 104.09,336.88 104.09,336.54 104.14,336.54 104.14,336.19 104.53,336.19 104.53,335.85 104.59,335.85 104.59,335.51 104.62,335.51 104.62,335.17 104.72,335.17 104.72,334.82 105.10,334.82 105.10,334.48 105.11,334.48 105.11,334.14 105.14,334.14 105.14,333.80 105.98,333.80 105.98,333.45 106.50,333.45 106.50,333.11 106.77,333.11 106.77,332.77 107.03,332.77 107.03,332.43 107.25,332.43 107.25,332.09 108.12,332.09 108.12,331.74 108.28,331.74 108.28,331.40 108.35,331.40 108.35,331.06 108.44,331.06 108.44,330.72 108.45,330.72 108.45,330.37 108.55,330.37 108.55,330.03 109.19,330.03 109.19,329.69 109.22,329.69 109.22,329.35 109.34,329.35 109.34,329.00 109.48,329.00 109.48,328.66 110.32,328.66 110.32,328.32 110.54,328.32 110.54,327.98 110.58,327.98 110.58,327.63 110.93,327.63 110.93,327.29 111.09,327.29 111.09,326.95 111.11,326.95 111.11,326.61 111.25,326.61 111.25,326.26 111.48,326.26 111.48,325.92 111.88,325.92 111.88,325.58 112.09,325.58 112.09,325.24 112.20,325.24 112.20,324.90 112.75,324.90 112.75,324.55 112.85,324.55 112.85,324.21 113.57,324.21 113.57,323.87 113.76,323.87 113.76,323.53 114.15,323.53 114.15,323.18 114.17,323.18 114.17,322.84 114.84,322.84 114.84,322.50 115.00,322.50 115.00,322.16 115.15,322.16 115.15,321.81 115.28,321.81 115.28,321.47 115.34,321.47 115.34,321.13 115.55,321.13 115.55,320.79 115.86,320.79 115.86,320.44 115.87,320.44 115.87,320.10 116.14,320.10 116.14,319.76 116.17,319.76 116.17,319.42 116.84,319.42 116.84,319.07 117.50,319.07 117.50,318.73 118.03,318.73 118.03,318.39 118.04,318.39 118.04,318.05 118.13,318.05 118.13,317.70 118.16,317.70 118.16,317.36 118.29,317.36 118.29,317.02 118.31,317.02 118.31,316.68 119.12,316.68 119.12,316.34 119.66,316.34 119.66,315.99 119.95,315.99 119.95,315.65 120.57,315.65 120.57,315.31 120.79,315.31 120.79,314.97 120.79,314.97 120.79,314.62 120.88,314.62 120.88,314.28 121.08,314.28 121.08,313.94 121.51,313.94 121.51,313.60 121.86,313.60 121.86,313.25 122.07,313.25 122.07,312.91 122.40,312.91 122.40,312.57 122.65,312.57 122.65,312.23 122.72,312.23 122.72,311.88 123.37,311.88 123.37,311.54 123.49,311.54 123.49,311.20 123.94,311.20 123.94,310.86 124.24,310.86 124.24,310.51 124.55,310.51 124.55,310.17 124.95,310.17 124.95,309.83 125.83,309.83 125.83,309.49 126.21,309.49 126.21,309.15 126.57,309.15 126.57,308.80 126.58,308.80 126.58,308.46 126.95,308.46 126.95,308.12 127.03,308.12 127.03,307.78 127.03,307.78 127.03,307.43 127.14,307.43 127.14,307.09 127.50,307.09 127.50,306.75 127.73,306.75 127.73,306.41 127.91,306.41 127.91,306.06 128.28,306.06 128.28,305.72 128.36,305.72 128.36,305.38 129.02,305.38 129.02,305.04 129.20,305.04 129.20,304.69 129.29,304.69 129.29,304.35 129.46,304.35 129.46,304.01 129.68,304.01 129.68,303.67 129.75,303.67 129.75,303.32 130.07,303.32 130.07,302.98 130.20,302.98 130.20,302.64 130.24,302.64 130.24,302.30 130.25,302.30 130.25,301.96 130.58,301.96 130.58,301.61 130.69,301.61 130.69,301.27 131.14,301.27 131.14,300.93 132.06,300.93 132.06,300.59 132.21,300.59 132.21,300.24 132.24,300.24 132.24,299.90 132.35,299.90 132.35,299.56 132.50,299.56 132.50,299.22 133.12,299.22 133.12,298.87 133.23,298.87 133.23,298.53 133.27,298.53 133.27,298.19 133.33,298.19 133.33,297.85 133.36,297.85 133.36,297.50 133.41,297.50 133.41,297.16 134.38,297.16 134.38,296.82 134.81,296.82 134.81,296.48 134.88,296.48 134.88,296.13 134.95,296.13 134.95,295.79 135.00,295.79 135.00,295.45 135.73,295.45 135.73,295.11 135.80,295.11 135.80,294.77 136.63,294.77 136.63,294.42 136.77,294.42 136.77,294.08 136.93,294.08 136.93,293.74 136.97,293.74 136.97,293.40 137.14,293.40 137.14,293.05 137.56,293.05 137.56,292.71 137.77,292.71 137.77,292.37 138.20,292.37 138.20,292.03 138.25,292.03 138.25,291.68 138.27,291.68 138.27,291.34 138.77,291.34 138.77,291.00 139.42,291.00 139.42,290.66 140.10,290.66 140.10,290.31 140.52,290.31 140.52,289.97 141.79,289.97 141.79,289.63 141.85,289.63 141.85,289.29 141.92,289.29 141.92,288.94 142.09,288.94 142.09,288.60 142.09,288.60 142.09,288.26 142.11,288.26 142.11,287.92 142.31,287.92 142.31,287.57 142.33,287.57 142.33,287.23 143.05,287.23 143.05,286.89 143.22,286.89 143.22,286.55 143.40,286.55 143.40,286.21 143.65,286.21 143.65,285.86 143.65,285.86 143.65,285.52 143.83,285.52 143.83,285.18 145.63,285.18 145.63,284.84 145.64,284.84 145.64,284.49 146.22,284.49 146.22,284.15 146.43,284.15 146.43,283.81 146.74,283.81 146.74,283.47 146.86,283.47 146.86,283.12 147.08,283.12 147.08,282.78 147.19,282.78 147.19,282.44 147.90,282.44 147.90,282.10 147.93,282.10 147.93,281.75 148.26,281.75 148.26,281.41 148.82,281.41 148.82,281.07 149.16,281.07 149.16,280.73 149.30,280.73 149.30,280.38 150.30,280.38 150.30,280.04 150.45,280.04 150.45,279.70 150.56,279.70 150.56,279.36 150.56,279.36 150.56,279.02 150.99,279.02 150.99,278.67 151.07,278.67 151.07,278.33 151.23,278.33 151.23,277.99 151.50,277.99 151.50,277.65 151.94,277.65 151.94,277.30 152.19,277.30 152.19,276.96 152.25,276.96 152.25,276.62 152.25,276.62 152.25,276.28 152.65,276.28 152.65,275.93 153.69,275.93 153.69,275.59 153.81,275.59 153.81,275.25 155.10,275.25 155.10,274.91 155.85,274.91 155.85,274.56 155.88,274.56 155.88,274.22 156.10,274.22 156.10,273.88 156.17,273.88 156.17,273.54 156.37,273.54 156.37,273.19 156.55,273.19 156.55,272.85 156.69,272.85 156.69,272.51 156.92,272.51 156.92,272.17 157.78,272.17 157.78,271.83 157.81,271.83 157.81,271.48 158.33,271.48 158.33,271.14 158.52,271.14 158.52,270.80 158.67,270.80 158.67,270.46 158.74,270.46 158.74,270.11 158.91,270.11 158.91,269.77 158.92,269.77 158.92,269.43 158.96,269.43 158.96,269.09 159.00,269.09 159.00,268.74 159.53,268.74 159.53,268.40 159.85,268.40 159.85,268.06 159.91,268.06 159.91,267.72 160.11,267.72 160.11,267.37 160.56,267.37 160.56,267.03 160.75,267.03 160.75,266.69 161.54,266.69 161.54,266.35 161.55,266.35 161.55,266.00 161.57,266.00 161.57,265.66 161.98,265.66 161.98,265.32 163.38,265.32 163.38,264.98 163.62,264.98 163.62,264.64 164.47,264.64 164.47,264.29 164.61,264.29 164.61,263.95 164.90,263.95 164.90,263.61 165.02,263.61 165.02,263.27 165.50,263.27 165.50,262.92 165.81,262.92 165.81,262.58 166.45,262.58 166.45,262.24 166.74,262.24 166.74,261.90 166.82,261.90 166.82,261.55 166.91,261.55 166.91,261.21 166.96,261.21 166.96,260.87 167.31,260.87 167.31,260.53 167.41,260.53 167.41,260.18 167.41,260.18 167.41,259.84 167.57,259.84 167.57,259.50 167.96,259.50 167.96,259.16 168.36,259.16 168.36,258.81 168.47,258.81 168.47,258.47 169.22,258.47 169.22,258.13 169.27,258.13 169.27,257.79 169.93,257.79 169.93,257.44 171.32,257.44 171.32,257.10 171.64,257.10 171.64,256.76 171.87,256.76 171.87,256.42 172.07,256.42 172.07,256.08 172.13,256.08 172.13,255.73 172.17,255.73 172.17,255.39 172.20,255.39 172.20,255.05 172.26,255.05 172.26,254.71 173.29,254.71 173.29,254.36 173.33,254.36 173.33,254.02 173.36,254.02 173.36,253.68 173.53,253.68 173.53,253.34 174.12,253.34 174.12,252.99 174.31,252.99 174.31,252.65 174.48,252.65 174.48,252.31 174.69,252.31 174.69,251.97 174.75,251.97 174.75,251.62 176.05,251.62 176.05,251.28 176.51,251.28 176.51,250.94 176.98,250.94 176.98,250.60 176.98,250.60 176.98,250.25 176.99,250.25 176.99,249.91 177.05,249.91 177.05,249.57 177.47,249.57 177.47,249.23 177.73,249.23 177.73,248.89 177.80,248.89 177.80,248.54 177.80,248.54 177.80,248.20 177.91,248.20 177.91,247.86 178.62,247.86 178.62,247.52 178.65,247.52 178.65,247.17 178.68,247.17 178.68,246.83 179.25,246.83 179.25,246.49 179.97,246.49 179.97,246.15 180.45,246.15 180.45,245.80 180.72,245.80 180.72,245.46 180.81,245.46 180.81,245.12 181.23,245.12 181.23,244.78 181.38,244.78 181.38,244.43 181.83,244.43 181.83,244.09 181.90,244.09 181.90,243.75 182.22,243.75 182.22,243.41 182.42,243.41 182.42,243.06 182.64,243.06 182.64,242.72 183.19,242.72 183.19,242.38 183.30,242.38 183.30,242.04 183.38,242.04 183.38,241.70 183.39,241.70 183.39,241.35 183.50,241.35 183.50,241.01 183.90,241.01 183.90,240.67 184.38,240.67 184.38,240.33 184.48,240.33 184.48,239.98 184.67,239.98 184.67,239.64 184.94,239.64 184.94,239.30 185.26,239.30 185.26,238.96 185.33,238.96 185.33,238.61 185.45,238.61 185.45,238.27 185.64,238.27 185.64,237.93 186.42,237.93 186.42,237.59 186.51,237.59 186.51,237.24 186.70,237.24 186.70,236.90 186.94,236.90 186.94,236.56 187.29,236.56 187.29,236.22 187.47,236.22 187.47,235.87 187.78,235.87 187.78,235.53 187.80,235.53 187.80,235.19 188.11,235.19 188.11,234.85 188.29,234.85 188.29,234.51 188.37,234.51 188.37,234.16 188.69,234.16 188.69,233.82 188.98,233.82 188.98,233.48 189.48,233.48 189.48,233.14 189.49,233.14 189.49,232.79 189.79,232.79 189.79,232.45 189.97,232.45 189.97,232.11 190.33,232.11 190.33,231.77 190.88,231.77 190.88,231.42 191.25,231.42 191.25,231.08 191.52,231.08 191.52,230.74 191.69,230.74 191.69,230.40 191.84,230.40 191.84,230.05 192.18,230.05 192.18,229.71 192.42,229.71 192.42,229.37 192.61,229.37 192.61,229.03 192.70,229.03 192.70,228.68 193.23,228.68 193.23,228.34 193.36,228.34 193.36,228.00 193.70,228.00 193.70,227.66 193.79,227.66 193.79,227.31 193.93,227.31 193.93,226.97 194.06,226.97 194.06,226.63 194.33,226.63 194.33,226.29 194.88,226.29 194.88,225.95 195.23,225.95 195.23,225.60 195.66,225.60 195.66,225.26 195.73,225.26 195.73,224.92 195.93,224.92 195.93,224.58 196.10,224.58 196.10,224.23 196.18,224.23 196.18,223.89 196.65,223.89 196.65,223.55 196.71,223.55 196.71,223.21 197.36,223.21 197.36,222.86 198.67,222.86 198.67,222.52 198.69,222.52 198.69,222.18 198.93,222.18 198.93,221.84 199.30,221.84 199.30,221.49 199.38,221.49 199.38,221.15 199.90,221.15 199.90,220.81 200.16,220.81 200.16,220.47 200.40,220.47 200.40,220.12 200.46,220.12 200.46,219.78 200.46,219.78 200.46,219.44 201.04,219.44 201.04,219.10 201.12,219.10 201.12,218.76 201.40,218.76 201.40,218.41 201.85,218.41 201.85,218.07 202.69,218.07 202.69,217.73 202.81,217.73 202.81,217.39 203.03,217.39 203.03,217.04 203.52,217.04 203.52,216.70 203.92,216.70 203.92,216.36 204.04,216.36 204.04,216.02 204.24,216.02 204.24,215.67 204.33,215.67 204.33,215.33 205.17,215.33 205.17,214.99 205.20,214.99 205.20,214.65 205.38,214.65 205.38,214.30 205.42,214.30 205.42,213.96 205.85,213.96 205.85,213.62 206.16,213.62 206.16,213.28 206.24,213.28 206.24,212.93 206.45,212.93 206.45,212.59 206.85,212.59 206.85,212.25 206.93,212.25 206.93,211.91 207.18,211.91 207.18,211.57 207.64,211.57 207.64,211.22 207.67,211.22 207.67,210.88 208.16,210.88 208.16,210.54 208.16,210.54 208.16,210.20 208.74,210.20 208.74,209.85 209.08,209.85 209.08,209.51 209.58,209.51 209.58,209.17 209.91,209.17 209.91,208.83 210.09,208.83 210.09,208.48 210.97,208.48 210.97,208.14 211.12,208.14 211.12,207.80 211.26,207.80 211.26,207.46 211.80,207.46 211.80,207.11 212.15,207.11 212.15,206.77 212.31,206.77 212.31,206.43 212.52,206.43 212.52,206.09 212.96,206.09 212.96,205.74 213.20,205.74 213.20,205.40 213.28,205.40 213.28,205.06 213.55,205.06 213.55,204.72 213.73,204.72 213.73,204.38 213.98,204.38 213.98,204.03 214.95,204.03 214.95,203.69 215.42,203.69 215.42,203.35 215.61,203.35 215.61,203.01 215.64,203.01 215.64,202.66 216.31,202.66 216.31,202.32 216.37,202.32 216.37,201.98 216.53,201.98 216.53,201.64 217.04,201.64 217.04,201.29 217.36,201.29 217.36,200.95 217.72,200.95 217.72,200.61 217.96,200.61 217.96,200.27 218.18,200.27 218.18,199.92 218.26,199.92 218.26,199.58 218.47,199.58 218.47,199.24 218.88,199.24 218.88,198.90 219.04,198.90 219.04,198.55 219.19,198.55 219.19,198.21 219.27,198.21 219.27,197.87 220.27,197.87 220.27,197.53 220.27,197.53 220.27,197.18 220.35,197.18 220.35,196.84 221.21,196.84 221.21,196.50 221.60,196.50 221.60,196.16 222.06,196.16 222.06,195.82 222.41,195.82 222.41,195.47 222.71,195.47 222.71,195.13 222.75,195.13 222.75,194.79 222.77,194.79 222.77,194.45 222.78,194.45 222.78,194.10 222.95,194.10 222.95,193.76 224.32,193.76 224.32,193.42 224.44,193.42 224.44,193.08 224.58,193.08 224.58,192.73 224.70,192.73 224.70,192.39 225.15,192.39 225.15,192.05 225.19,192.05 225.19,191.71 225.78,191.71 225.78,191.36 225.89,191.36 225.89,191.02 225.96,191.02 225.96,190.68 226.07,190.68 226.07,190.34 226.09,190.34 226.09,189.99 226.10,189.99 226.10,189.65 226.18,189.65 226.18,189.31 226.46,189.31 226.46,188.97 226.91,188.97 226.91,188.63 227.20,188.63 227.20,188.28 227.92,188.28 227.92,187.94 228.33,187.94 228.33,187.60 228.62,187.60 228.62,187.26 228.98,187.26 228.98,186.91 229.05,186.91 229.05,186.57 229.17,186.57 229.17,186.23 229.53,186.23 229.53,185.89 229.69,185.89 229.69,185.54 229.94,185.54 229.94,185.20 231.22,185.20 231.22,184.86 231.30,184.86 231.30,184.52 231.50,184.52 231.50,184.17 232.37,184.17 232.37,183.83 232.80,183.83 232.80,183.49 232.91,183.49 232.91,183.15 232.93,183.15 232.93,182.80 233.11,182.80 233.11,182.46 233.31,182.46 233.31,182.12 233.34,182.12 233.34,181.78 233.98,181.78 233.98,181.44 234.06,181.44 234.06,181.09 234.16,181.09 234.16,180.75 234.42,180.75 234.42,180.41 234.69,180.41 234.69,180.07 234.92,180.07 234.92,179.72 235.06,179.72 235.06,179.38 235.64,179.38 235.64,179.04 235.72,179.04 235.72,178.70 235.81,178.70 235.81,178.35 236.19,178.35 236.19,178.01 236.27,178.01 236.27,177.67 236.27,177.67 236.27,177.33 236.72,177.33 236.72,176.98 236.75,176.98 236.75,176.64 236.91,176.64 236.91,176.30 236.94,176.30 236.94,175.96 236.98,175.96 236.98,175.61 237.01,175.61 237.01,175.27 237.02,175.27 237.02,174.93 237.13,174.93 237.13,174.59 237.25,174.59 237.25,174.25 237.42,174.25 237.42,173.90 237.50,173.90 237.50,173.56 237.77,173.56 237.77,173.22 237.97,173.22 237.97,172.88 238.77,172.88 238.77,172.53 240.31,172.53 240.31,172.19 240.35,172.19 240.35,171.85 240.38,171.85 240.38,171.51 240.65,171.51 240.65,171.16 240.97,171.16 240.97,170.82 241.23,170.82 241.23,170.48 241.35,170.48 241.35,170.14 241.38,170.14 241.38,169.79 241.70,169.79 241.70,169.45 241.72,169.45 241.72,169.11 241.86,169.11 241.86,168.77 242.14,168.77 242.14,168.42 242.49,168.42 242.49,168.08 242.90,168.08 242.90,167.74 243.13,167.74 243.13,167.40 243.70,167.40 243.70,167.05 244.02,167.05 244.02,166.71 244.26,166.71 244.26,166.37 244.28,166.37 244.28,166.03 244.35,166.03 244.35,165.69 244.45,165.69 244.45,165.34 245.41,165.34 245.41,165.00 246.61,165.00 246.61,164.66 246.64,164.66 246.64,164.32 247.01,164.32 247.01,163.97 247.02,163.97 247.02,163.63 247.05,163.63 247.05,163.29 247.93,163.29 247.93,162.95 248.01,162.95 248.01,162.60 248.59,162.60 248.59,162.26 248.76,162.26 248.76,161.92 249.15,161.92 249.15,161.58 249.44,161.58 249.44,161.23 249.74,161.23 249.74,160.89 249.85,160.89 249.85,160.55 249.96,160.55 249.96,160.21 249.96,160.21 249.96,159.86 250.00,159.86 250.00,159.52 250.07,159.52 250.07,159.18 250.09,159.18 250.09,158.84 250.60,158.84 250.60,158.50 251.08,158.50 251.08,158.15 251.66,158.15 251.66,157.81 251.72,157.81 251.72,157.47 251.74,157.47 251.74,157.13 252.17,157.13 252.17,156.78 252.46,156.78 252.46,156.44 252.48,156.44 252.48,156.10 253.16,156.10 253.16,155.76 254.09,155.76 254.09,155.41 254.13,155.41 254.13,155.07 255.24,155.07 255.24,154.73 256.04,154.73 256.04,154.39 256.90,154.39 256.90,154.04 257.27,154.04 257.27,153.70 258.11,153.70 258.11,153.36 258.29,153.36 258.29,153.02 258.48,153.02 258.48,152.67 258.67,152.67 258.67,152.33 260.25,152.33 260.25,151.99 260.37,151.99 260.37,151.65 260.41,151.65 260.41,151.31 260.54,151.31 260.54,150.96 261.17,150.96 261.17,150.62 261.54,150.62 261.54,150.28 261.58,150.28 261.58,149.94 262.18,149.94 262.18,149.59 262.19,149.59 262.19,149.25 262.73,149.25 262.73,148.91 262.81,148.91 262.81,148.57 262.83,148.57 262.83,148.22 262.98,148.22 262.98,147.88 263.45,147.88 263.45,147.54 263.45,147.54 263.45,147.20 263.66,147.20 263.66,146.85 263.70,146.85 263.70,146.51 264.01,146.51 264.01,146.17 264.38,146.17 264.38,145.83 264.72,145.83 264.72,145.48 265.02,145.48 265.02,145.14 265.03,145.14 265.03,144.80 266.20,144.80 266.20,144.46 266.45,144.46 266.45,144.12 266.48,144.12 266.48,143.77 267.03,143.77 267.03,143.43 267.32,143.43 267.32,143.09 267.51,143.09 267.51,142.75 267.52,142.75 267.52,142.40 267.68,142.40 267.68,142.06 268.09,142.06 268.09,141.72 268.15,141.72 268.15,141.38 268.16,141.38 268.16,141.03 268.25,141.03 268.25,140.69 268.89,140.69 268.89,140.35 269.57,140.35 269.57,140.01 270.73,140.01 270.73,139.66 271.51,139.66 271.51,139.32 271.66,139.32 271.66,138.98 271.84,138.98 271.84,138.64 272.29,138.64 272.29,138.29 272.33,138.29 272.33,137.95 272.93,137.95 272.93,137.61 273.01,137.61 273.01,137.27 273.12,137.27 273.12,136.92 273.27,136.92 273.27,136.58 273.82,136.58 273.82,136.24 274.07,136.24 274.07,135.90 274.13,135.90 274.13,135.56 274.31,135.56 274.31,135.21 274.39,135.21 274.39,134.87 274.41,134.87 274.41,134.53 275.41,134.53 275.41,134.19 276.27,134.19 276.27,133.84 276.65,133.84 276.65,133.50 276.93,133.50 276.93,133.16 277.71,133.16 277.71,132.82 277.79,132.82 277.79,132.47 277.83,132.47 277.83,132.13 278.09,132.13 278.09,131.79 278.27,131.79 278.27,131.45 278.46,131.45 278.46,131.10 278.50,131.10 278.50,130.76 278.95,130.76 278.95,130.42 279.13,130.42 279.13,130.08 280.44,130.08 280.44,129.73 280.78,129.73 280.78,129.39 281.00,129.39 281.00,129.05 281.24,129.05 281.24,128.71 282.26,128.71 282.26,128.37 282.61,128.37 282.61,128.02 282.67,128.02 282.67,127.68 282.88,127.68 282.88,127.34 283.81,127.34 283.81,127.00 284.24,127.00 284.24,126.65 284.71,126.65 284.71,126.31 284.90,126.31 284.90,125.97 285.06,125.97 285.06,125.63 285.54,125.63 285.54,125.28 286.09,125.28 286.09,124.94 286.40,124.94 286.40,124.60 286.44,124.60 286.44,124.26 287.28,124.26 287.28,123.91 287.82,123.91 287.82,123.57 288.14,123.57 288.14,123.23 288.50,123.23 288.50,122.89 289.12,122.89 289.12,122.54 289.68,122.54 289.68,122.20 290.04,122.20 290.04,121.86 290.57,121.86 290.57,121.52 291.28,121.52 291.28,121.18 291.43,121.18 291.43,120.83 291.94,120.83 291.94,120.49 292.11,120.49 292.11,120.15 292.22,120.15 292.22,119.81 292.37,119.81 292.37,119.46 292.43,119.46 292.43,119.12 292.51,119.12 292.51,118.78 292.55,118.78 292.55,118.44 292.63,118.44 292.63,118.09 292.87,118.09 292.87,117.75 293.08,117.75 293.08,117.41 294.25,117.41 294.25,117.07 294.66,117.07 294.66,116.72 294.75,116.72 294.75,116.38 294.79,116.38 294.79,116.04 294.80,116.04 294.80,115.70 295.61,115.70 295.61,115.35 295.86,115.35 295.86,115.01 295.94,115.01 295.94,114.67 296.45,114.67 296.45,114.33 296.62,114.33 296.62,113.99 296.80,113.99 296.80,113.64 296.84,113.64 296.84,113.30 297.62,113.30 297.62,112.96 297.81,112.96 297.81,112.62 298.15,112.62 298.15,112.27 298.68,112.27 298.68,111.93 298.85,111.93 298.85,111.59 298.85,111.59 298.85,111.25 299.30,111.25 299.30,110.90 299.39,110.90 299.39,110.56 299.48,110.56 299.48,110.22 299.54,110.22 299.54,109.88 300.61,109.88 300.61,109.53 300.96,109.53 300.96,109.19 301.07,109.19 301.07,108.85 301.40,108.85 301.40,108.51 302.11,108.51 302.11,108.16 302.33,108.16 302.33,107.82 302.35,107.82 302.35,107.48 302.88,107.48 302.88,107.14 302.93,107.14 302.93,106.79 303.32,106.79 303.32,106.45 304.22,106.45 304.22,106.11 304.60,106.11 304.60,105.77 304.88,105.77 304.88,105.43 305.04,105.43 305.04,105.08 305.11,105.08 305.11,104.74 305.43,104.74 305.43,104.40 305.71,104.40 305.71,104.06 305.89,104.06 305.89,103.71 306.77,103.71 306.77,103.37 307.16,103.37 307.16,103.03 307.27,103.03 307.27,102.69 307.28,102.69 307.28,102.34 307.80,102.34 307.80,102.00 307.92,102.00 307.92,101.66 308.10,101.66 308.10,101.32 308.31,101.32 308.31,100.97 308.33,100.97 308.33,100.63 308.58,100.63 308.58,100.29 308.59,100.29 308.59,99.95 308.85,99.95 308.85,99.60 309.07,99.60 309.07,99.26 309.48,99.26 309.48,98.92 309.78,98.92 309.78,98.58 310.57,98.58 310.57,98.24 310.79,98.24 310.79,97.89 310.93,97.89 310.93,97.55 311.56,97.55 311.56,97.21 311.74,97.21 311.74,96.87 311.95,96.87 311.95,96.52 312.50,96.52 312.50,96.18 312.76,96.18 312.76,95.84 312.79,95.84 312.79,95.50 312.99,95.50 312.99,95.15 313.26,95.15 313.26,94.81 314.01,94.81 314.01,94.47 314.72,94.47 314.72,94.13 314.86,94.13 314.86,93.78 315.07,93.78 315.07,93.44 315.19,93.44 315.19,93.10 315.64,93.10 315.64,92.76 316.59,92.76 316.59,92.41 316.83,92.41 316.83,92.07 317.19,92.07 317.19,91.73 317.74,91.73 317.74,91.39 318.03,91.39 318.03,91.05 318.33,91.05 318.33,90.70 319.01,90.70 319.01,90.36 319.15,90.36 319.15,90.02 319.22,90.02 319.22,89.68 319.33,89.68 319.33,89.33 319.86,89.33 319.86,88.99 319.96,88.99 319.96,88.65 320.39,88.65 320.39,88.31 320.81,88.31 320.81,87.96 321.09,87.96 321.09,87.62 321.28,87.62 321.28,87.28 321.39,87.28 321.39,86.94 321.48,86.94 321.48,86.59 321.69,86.59 321.69,86.25 322.20,86.25 322.20,85.91 322.35,85.91 322.35,85.57 322.54,85.57 322.54,85.22 322.67,85.22 322.67,84.88 323.06,84.88 323.06,84.54 323.07,84.54 323.07,84.20 323.93,84.20 323.93,83.86 324.11,83.86 324.11,83.51 324.29,83.51 324.29,83.17 324.43,83.17 324.43,82.83 324.70,82.83 324.70,82.49 324.85,82.49 324.85,82.14 325.19,82.14 325.19,81.80 325.20,81.80 325.20,81.46 325.29,81.46 325.29,81.12 325.43,81.12 325.43,80.77 325.96,80.77 325.96,80.43 326.32,80.43 326.32,80.09 326.52,80.09 326.52,79.75 326.81,79.75 326.81,79.40 327.45,79.40 327.45,79.06 327.88,79.06 327.88,78.72 328.13,78.72 328.13,78.38 328.96,78.38 328.96,78.03 329.52,78.03 329.52,77.69 329.83,77.69 329.83,77.35 329.93,77.35 329.93,77.01 330.01,77.01 330.01,76.66 330.39,76.66 330.39,76.32 330.51,76.32 330.51,75.98 331.25,75.98 331.25,75.64 331.33,75.64 331.33,75.30 331.64,75.30 331.64,74.95 331.91,74.95 331.91,74.61 332.02,74.61 332.02,74.27 332.22,74.27 332.22,73.93 332.29,73.93 332.29,73.58 332.60,73.58 332.60,73.24 332.64,73.24 332.64,72.90 332.93,72.90 332.93,72.56 333.01,72.56 333.01,72.21 333.72,72.21 333.72,71.87 333.81,71.87 333.81,71.53 334.07,71.53 334.07,71.19 334.30,71.19 334.30,70.84 334.40,70.84 334.40,70.50 334.76,70.50 334.76,70.16 334.78,70.16 334.78,69.82 335.58,69.82 335.58,69.47 336.33,69.47 336.33,69.13 336.56,69.13 336.56,68.79 336.60,68.79 336.60,68.45 336.64,68.45 336.64,68.11 337.23,68.11 337.23,67.76 337.29,67.76 337.29,67.42 337.48,67.42 337.48,67.08 337.84,67.08 337.84,66.74 337.85,66.74 337.85,66.39 337.86,66.39 337.86,66.05 338.34,66.05 338.34,65.71 339.15,65.71 339.15,65.37 340.05,65.37 340.05,65.02 340.14,65.02 340.14,64.68 340.15,64.68 340.15,64.34 340.21,64.34 340.21,64.00 340.29,64.00 340.29,63.65 340.30,63.65 340.30,63.31 340.38,63.31 340.38,62.97 340.55,62.97 340.55,62.63 341.00,62.63 341.00,62.28 341.10,62.28 341.10,61.94 341.24,61.94 341.24,61.60 341.38,61.60 341.38,61.26 341.84,61.26 341.84,60.92 342.17,60.92 342.17,60.57 342.47,60.57 342.47,60.23 342.54,60.23 342.54,59.89 342.61,59.89 342.61,59.55 342.95,59.55 342.95,59.20 343.01,59.20 343.01,58.86 343.09,58.86 343.09,58.52 343.27,58.52 343.27,58.18 343.28,58.18 343.28,57.83 343.59,57.83 343.59,57.49 343.77,57.49 343.77,57.15 344.28,57.15 344.28,56.81 344.67,56.81 344.67,56.46 344.97,56.46 344.97,56.12 345.12,56.12 345.12,55.78 345.14,55.78 345.14,55.44 345.78,55.44 345.78,55.09 346.46,55.09 346.46,54.75 346.53,54.75 346.53,54.41 346.86,54.41 346.86,54.07 347.22,54.07 347.22,53.73 347.82,53.73 347.82,53.38 347.99,53.38 347.99,53.04 349.61,53.04 349.61,52.70 350.18,52.70 350.18,52.36 350.35,52.36 350.35,52.01 350.49,52.01 350.49,51.67 350.98,51.67 350.98,51.33 351.14,51.33 351.14,50.99 351.15,50.99 351.15,50.64 351.55,50.64 351.55,50.30 352.17,50.30 352.17,49.96 352.43,49.96 352.43,49.62 352.96,49.62 352.96,49.27 353.44,49.27 353.44,48.93 353.53,48.93 353.53,48.59 353.57,48.59 353.57,48.25 353.72,48.25 353.72,47.90 353.78,47.90 353.78,47.56 353.92,47.56 353.92,47.22 353.92,47.22 353.92,46.88 354.28,46.88 354.28,46.53 354.39,46.53 354.39,46.19 354.53,46.19 354.53,45.85 354.82,45.85 354.82,45.51 355.10,45.51 355.10,45.17 355.14,45.17 355.14,44.82 355.17,44.82 355.17,44.48 356.07,44.48 356.07,44.14 356.26,44.14 356.26,43.80 356.31,43.80 356.31,43.45 356.55,43.45 356.55,43.11 356.62,43.11 356.62,42.77 356.77,42.77 356.77,42.43 356.92,42.43 356.92,42.08 357.25,42.08 357.25,41.74 357.53,41.74 357.53,41.40 357.90,41.40 357.90,41.06 357.97,41.06 357.97,40.71 359.31,40.71 359.31,40.37 359.81,40.37 359.81,40.03 359.85,40.03 359.85,39.69 360.21,39.69 360.21,39.34 360.45,39.34 360.45,39.00 360.61,39.00 360.61,38.66 360.64,38.66 360.64,38.32 361.42,38.32 361.42,37.98 361.52,37.98 361.52,37.63 361.54,37.63 361.54,37.29 361.95,37.29 361.95,36.95 362.51,36.95 362.51,36.61 363.32,36.61 363.32,36.26 363.43,36.26 363.43,35.92 363.70,35.92 363.70,35.58 363.95,35.58 363.95,35.24 364.02,35.24 364.02,34.89 364.83,34.89 364.83,34.55 364.92,34.55 364.92,34.21 366.28,34.21 366.28,33.87 366.28,33.87 366.28,33.52 366.88,33.52 366.88,33.18 367.27,33.18 367.27,32.84 367.46,32.84 367.46,32.50 367.70,32.50 367.70,32.15 367.71,32.15 367.71,31.81 367.78,31.81 367.78,31.47 367.89,31.47 367.89,31.13 368.48,31.13 368.48,30.79 368.74,30.79 368.74,30.44 368.92,30.44 368.92,30.10 369.10,30.10 369.10,29.76 369.14,29.76 369.14,29.42 369.24,29.42 369.24,29.07 369.67,29.07 369.67,28.73 369.72,28.73 369.72,28.39 369.91,28.39 369.91,28.05 370.10,28.05 370.10,27.70 370.11,27.70 370.11,27.36 370.18,27.36 370.18,27.02 371.03,27.02 371.03,26.68 371.04,26.68 371.04,26.33 371.07,26.33 371.07,25.99 371.49,25.99 371.49,25.65 371.61,25.65 371.61,25.31 371.85,25.31 371.85,24.96 372.42,24.96 372.42,24.62 372.65,24.62 372.65,24.28 372.91,24.28 372.91,23.94 373.14,23.94 373.14,23.60 387.97,23.60 387.97,23.60 "
         style="stroke-width: 2.13; stroke: #E41A1C; stroke-linecap: butt;"
         id="polyline23" />
      <polyline
         points="65.25,365.98 80.01,365.98 80.01,365.64 80.46,365.64 80.46,365.30 80.63,365.30 80.63,364.95 81.06,364.95 81.06,364.61 81.06,364.61 81.06,364.27 81.66,364.27 81.66,363.93 81.97,363.93 81.97,363.58 82.06,363.58 82.06,363.24 82.52,363.24 82.52,362.90 82.56,362.90 82.56,362.56 82.90,362.56 82.90,362.22 83.06,362.22 83.06,361.87 83.18,361.87 83.18,361.53 83.22,361.53 83.22,361.19 83.25,361.19 83.25,360.85 83.33,360.85 83.33,360.50 83.52,360.50 83.52,360.16 83.55,360.16 83.55,359.82 84.31,359.82 84.31,359.48 84.40,359.48 84.40,359.13 85.23,359.13 85.23,358.79 85.35,358.79 85.35,358.45 85.41,358.45 85.41,358.11 85.51,358.11 85.51,357.76 85.58,357.76 85.58,357.42 85.65,357.42 85.65,357.08 86.93,357.08 86.93,356.74 87.00,356.74 87.00,356.39 87.20,356.39 87.20,356.05 87.30,356.05 87.30,355.71 87.39,355.71 87.39,355.37 87.44,355.37 87.44,355.03 87.85,355.03 87.85,354.68 88.23,354.68 88.23,354.34 88.69,354.34 88.69,354.00 88.79,354.00 88.79,353.66 89.21,353.66 89.21,353.31 89.36,353.31 89.36,352.97 89.48,352.97 89.48,352.63 89.64,352.63 89.64,352.29 89.91,352.29 89.91,351.94 89.96,351.94 89.96,351.60 90.29,351.60 90.29,351.26 90.33,351.26 90.33,350.92 90.43,350.92 90.43,350.57 90.46,350.57 90.46,350.23 92.02,350.23 92.02,349.89 93.18,349.89 93.18,349.55 93.25,349.55 93.25,349.20 93.33,349.20 93.33,348.86 93.70,348.86 93.70,348.52 94.44,348.52 94.44,348.18 94.46,348.18 94.46,347.83 94.85,347.83 94.85,347.49 95.32,347.49 95.32,347.15 95.91,347.15 95.91,346.81 95.93,346.81 95.93,346.47 96.53,346.47 96.53,346.12 96.96,346.12 96.96,345.78 97.24,345.78 97.24,345.44 97.80,345.44 97.80,345.10 97.80,345.10 97.80,344.75 97.85,344.75 97.85,344.41 98.08,344.41 98.08,344.07 98.59,344.07 98.59,343.73 98.67,343.73 98.67,343.38 99.90,343.38 99.90,343.04 100.05,343.04 100.05,342.70 100.35,342.70 100.35,342.36 101.35,342.36 101.35,342.01 101.65,342.01 101.65,341.67 101.73,341.67 101.73,341.33 102.85,341.33 102.85,340.99 103.09,340.99 103.09,340.64 103.47,340.64 103.47,340.30 103.92,340.30 103.92,339.96 103.96,339.96 103.96,339.62 104.47,339.62 104.47,339.28 104.79,339.28 104.79,338.93 104.85,338.93 104.85,338.59 104.89,338.59 104.89,338.25 105.39,338.25 105.39,337.91 105.45,337.91 105.45,337.56 105.93,337.56 105.93,337.22 105.95,337.22 105.95,336.88 106.32,336.88 106.32,336.54 106.81,336.54 106.81,336.19 106.83,336.19 106.83,335.85 106.88,335.85 106.88,335.51 107.02,335.51 107.02,335.17 107.87,335.17 107.87,334.82 108.13,334.82 108.13,334.48 108.61,334.48 108.61,334.14 108.99,334.14 108.99,333.80 109.43,333.80 109.43,333.45 109.58,333.45 109.58,333.11 110.24,333.11 110.24,332.77 110.39,332.77 110.39,332.43 110.54,332.43 110.54,332.09 110.83,332.09 110.83,331.74 110.96,331.74 110.96,331.40 111.44,331.40 111.44,331.06 111.49,331.06 111.49,330.72 111.75,330.72 111.75,330.37 111.99,330.37 111.99,330.03 112.08,330.03 112.08,329.69 112.55,329.69 112.55,329.35 112.88,329.35 112.88,329.00 113.13,329.00 113.13,328.66 113.35,328.66 113.35,328.32 113.38,328.32 113.38,327.98 114.13,327.98 114.13,327.63 114.35,327.63 114.35,327.29 115.50,327.29 115.50,326.95 115.84,326.95 115.84,326.61 116.00,326.61 116.00,326.26 116.03,326.26 116.03,325.92 116.28,325.92 116.28,325.58 116.36,325.58 116.36,325.24 116.49,325.24 116.49,324.90 116.53,324.90 116.53,324.55 117.26,324.55 117.26,324.21 117.49,324.21 117.49,323.87 117.84,323.87 117.84,323.53 119.02,323.53 119.02,323.18 119.52,323.18 119.52,322.84 119.71,322.84 119.71,322.50 119.98,322.50 119.98,322.16 120.07,322.16 120.07,321.81 120.19,321.81 120.19,321.47 120.19,321.47 120.19,321.13 120.47,321.13 120.47,320.79 120.51,320.79 120.51,320.44 121.15,320.44 121.15,320.10 122.43,320.10 122.43,319.76 122.70,319.76 122.70,319.42 123.02,319.42 123.02,319.07 123.38,319.07 123.38,318.73 123.45,318.73 123.45,318.39 123.56,318.39 123.56,318.05 123.72,318.05 123.72,317.70 124.20,317.70 124.20,317.36 124.21,317.36 124.21,317.02 124.62,317.02 124.62,316.68 124.67,316.68 124.67,316.34 125.39,316.34 125.39,315.99 125.48,315.99 125.48,315.65 126.18,315.65 126.18,315.31 126.38,315.31 126.38,314.97 126.55,314.97 126.55,314.62 126.60,314.62 126.60,314.28 126.67,314.28 126.67,313.94 126.72,313.94 126.72,313.60 126.97,313.60 126.97,313.25 127.03,313.25 127.03,312.91 127.73,312.91 127.73,312.57 127.75,312.57 127.75,312.23 128.05,312.23 128.05,311.88 128.32,311.88 128.32,311.54 128.59,311.54 128.59,311.20 128.91,311.20 128.91,310.86 129.26,310.86 129.26,310.51 129.84,310.51 129.84,310.17 130.58,310.17 130.58,309.83 131.14,309.83 131.14,309.49 131.34,309.49 131.34,309.15 132.01,309.15 132.01,308.80 132.21,308.80 132.21,308.46 132.23,308.46 132.23,308.12 132.45,308.12 132.45,307.78 132.45,307.78 132.45,307.43 133.44,307.43 133.44,307.09 133.58,307.09 133.58,306.75 133.61,306.75 133.61,306.41 134.02,306.41 134.02,306.06 134.34,306.06 134.34,305.72 134.59,305.72 134.59,305.38 134.64,305.38 134.64,305.04 135.08,305.04 135.08,304.69 135.19,304.69 135.19,304.35 135.33,304.35 135.33,304.01 135.42,304.01 135.42,303.67 135.73,303.67 135.73,303.32 135.74,303.32 135.74,302.98 135.83,302.98 135.83,302.64 135.85,302.64 135.85,302.30 136.05,302.30 136.05,301.96 136.35,301.96 136.35,301.61 136.38,301.61 136.38,301.27 136.86,301.27 136.86,300.93 137.22,300.93 137.22,300.59 137.26,300.59 137.26,300.24 137.46,300.24 137.46,299.90 137.67,299.90 137.67,299.56 138.12,299.56 138.12,299.22 138.16,299.22 138.16,298.87 138.68,298.87 138.68,298.53 138.87,298.53 138.87,298.19 140.18,298.19 140.18,297.85 140.22,297.85 140.22,297.50 140.58,297.50 140.58,297.16 140.59,297.16 140.59,296.82 140.91,296.82 140.91,296.48 141.29,296.48 141.29,296.13 141.73,296.13 141.73,295.79 141.87,295.79 141.87,295.45 142.16,295.45 142.16,295.11 142.30,295.11 142.30,294.77 142.38,294.77 142.38,294.42 142.60,294.42 142.60,294.08 142.65,294.08 142.65,293.74 143.12,293.74 143.12,293.40 143.22,293.40 143.22,293.05 143.24,293.05 143.24,292.71 143.92,292.71 143.92,292.37 143.97,292.37 143.97,292.03 144.36,292.03 144.36,291.68 144.50,291.68 144.50,291.34 144.65,291.34 144.65,291.00 144.73,291.00 144.73,290.66 144.87,290.66 144.87,290.31 145.32,290.31 145.32,289.97 146.25,289.97 146.25,289.63 146.75,289.63 146.75,289.29 146.94,289.29 146.94,288.94 147.21,288.94 147.21,288.60 147.39,288.60 147.39,288.26 147.50,288.26 147.50,287.92 147.50,287.92 147.50,287.57 147.99,287.57 147.99,287.23 148.03,287.23 148.03,286.89 148.29,286.89 148.29,286.55 148.54,286.55 148.54,286.21 148.57,286.21 148.57,285.86 149.07,285.86 149.07,285.52 149.33,285.52 149.33,285.18 150.06,285.18 150.06,284.84 150.11,284.84 150.11,284.49 151.12,284.49 151.12,284.15 151.93,284.15 151.93,283.81 151.95,283.81 151.95,283.47 152.47,283.47 152.47,283.12 152.78,283.12 152.78,282.78 152.95,282.78 152.95,282.44 153.12,282.44 153.12,282.10 153.93,282.10 153.93,281.75 154.07,281.75 154.07,281.41 154.26,281.41 154.26,281.07 154.58,281.07 154.58,280.73 154.61,280.73 154.61,280.38 154.79,280.38 154.79,280.04 154.80,280.04 154.80,279.70 155.20,279.70 155.20,279.36 155.21,279.36 155.21,279.02 155.61,279.02 155.61,278.67 155.62,278.67 155.62,278.33 156.00,278.33 156.00,277.99 156.43,277.99 156.43,277.65 156.51,277.65 156.51,277.30 157.21,277.30 157.21,276.96 157.23,276.96 157.23,276.62 157.51,276.62 157.51,276.28 157.57,276.28 157.57,275.93 157.59,275.93 157.59,275.59 158.17,275.59 158.17,275.25 158.74,275.25 158.74,274.91 159.14,274.91 159.14,274.56 160.46,274.56 160.46,274.22 160.76,274.22 160.76,273.88 162.65,273.88 162.65,273.54 162.70,273.54 162.70,273.19 162.78,273.19 162.78,272.85 163.37,272.85 163.37,272.51 163.46,272.51 163.46,272.17 163.54,272.17 163.54,271.83 163.86,271.83 163.86,271.48 164.04,271.48 164.04,271.14 164.69,271.14 164.69,270.80 164.76,270.80 164.76,270.46 165.50,270.46 165.50,270.11 166.24,270.11 166.24,269.77 166.32,269.77 166.32,269.43 166.40,269.43 166.40,269.09 166.68,269.09 166.68,268.74 166.79,268.74 166.79,268.40 167.47,268.40 167.47,268.06 167.72,268.06 167.72,267.72 168.38,267.72 168.38,267.37 169.02,267.37 169.02,267.03 169.10,267.03 169.10,266.69 169.14,266.69 169.14,266.35 169.57,266.35 169.57,266.00 170.10,266.00 170.10,265.66 170.26,265.66 170.26,265.32 170.81,265.32 170.81,264.98 170.93,264.98 170.93,264.64 170.97,264.64 170.97,264.29 172.24,264.29 172.24,263.95 172.33,263.95 172.33,263.61 172.68,263.61 172.68,263.27 172.90,263.27 172.90,262.92 173.20,262.92 173.20,262.58 173.32,262.58 173.32,262.24 173.48,262.24 173.48,261.90 173.65,261.90 173.65,261.55 174.23,261.55 174.23,261.21 174.52,261.21 174.52,260.87 174.57,260.87 174.57,260.53 176.15,260.53 176.15,260.18 176.25,260.18 176.25,259.84 176.32,259.84 176.32,259.50 177.34,259.50 177.34,259.16 177.44,259.16 177.44,258.81 177.64,258.81 177.64,258.47 177.68,258.47 177.68,258.13 177.91,258.13 177.91,257.79 178.38,257.79 178.38,257.44 178.55,257.44 178.55,257.10 179.00,257.10 179.00,256.76 179.23,256.76 179.23,256.42 179.50,256.42 179.50,256.08 179.56,256.08 179.56,255.73 179.67,255.73 179.67,255.39 180.53,255.39 180.53,255.05 180.59,255.05 180.59,254.71 181.17,254.71 181.17,254.36 181.39,254.36 181.39,254.02 181.66,254.02 181.66,253.68 182.10,253.68 182.10,253.34 182.14,253.34 182.14,252.99 182.42,252.99 182.42,252.65 182.56,252.65 182.56,252.31 182.88,252.31 182.88,251.97 183.19,251.97 183.19,251.62 183.75,251.62 183.75,251.28 183.77,251.28 183.77,250.94 184.02,250.94 184.02,250.60 184.35,250.60 184.35,250.25 184.37,250.25 184.37,249.91 184.42,249.91 184.42,249.57 184.51,249.57 184.51,249.23 184.68,249.23 184.68,248.89 184.79,248.89 184.79,248.54 185.01,248.54 185.01,248.20 185.04,248.20 185.04,247.86 185.28,247.86 185.28,247.52 185.33,247.52 185.33,247.17 185.46,247.17 185.46,246.83 185.70,246.83 185.70,246.49 185.70,246.49 185.70,246.15 185.84,246.15 185.84,245.80 186.36,245.80 186.36,245.46 186.99,245.46 186.99,245.12 187.10,245.12 187.10,244.78 187.12,244.78 187.12,244.43 189.10,244.43 189.10,244.09 190.01,244.09 190.01,243.75 190.49,243.75 190.49,243.41 190.52,243.41 190.52,243.06 190.56,243.06 190.56,242.72 190.65,242.72 190.65,242.38 190.85,242.38 190.85,242.04 191.09,242.04 191.09,241.70 191.21,241.70 191.21,241.35 191.29,241.35 191.29,241.01 191.89,241.01 191.89,240.67 192.08,240.67 192.08,240.33 192.16,240.33 192.16,239.98 192.18,239.98 192.18,239.64 192.39,239.64 192.39,239.30 192.41,239.30 192.41,238.96 192.69,238.96 192.69,238.61 192.76,238.61 192.76,238.27 192.98,238.27 192.98,237.93 193.78,237.93 193.78,237.59 193.88,237.59 193.88,237.24 193.90,237.24 193.90,236.90 194.02,236.90 194.02,236.56 194.54,236.56 194.54,236.22 194.57,236.22 194.57,235.87 194.71,235.87 194.71,235.53 195.00,235.53 195.00,235.19 195.24,235.19 195.24,234.85 195.37,234.85 195.37,234.51 195.96,234.51 195.96,234.16 196.14,234.16 196.14,233.82 196.50,233.82 196.50,233.48 196.59,233.48 196.59,233.14 196.93,233.14 196.93,232.79 196.95,232.79 196.95,232.45 197.04,232.45 197.04,232.11 197.68,232.11 197.68,231.77 197.81,231.77 197.81,231.42 198.32,231.42 198.32,231.08 198.34,231.08 198.34,230.74 198.35,230.74 198.35,230.40 198.80,230.40 198.80,230.05 199.11,230.05 199.11,229.71 199.22,229.71 199.22,229.37 199.23,229.37 199.23,229.03 199.64,229.03 199.64,228.68 200.25,228.68 200.25,228.34 200.41,228.34 200.41,228.00 200.45,228.00 200.45,227.66 200.57,227.66 200.57,227.31 200.73,227.31 200.73,226.97 200.93,226.97 200.93,226.63 201.68,226.63 201.68,226.29 202.02,226.29 202.02,225.95 202.14,225.95 202.14,225.60 202.45,225.60 202.45,225.26 202.76,225.26 202.76,224.92 203.02,224.92 203.02,224.58 203.23,224.58 203.23,224.23 203.24,224.23 203.24,223.89 203.75,223.89 203.75,223.55 203.92,223.55 203.92,223.21 203.94,223.21 203.94,222.86 203.98,222.86 203.98,222.52 204.11,222.52 204.11,222.18 204.15,222.18 204.15,221.84 204.86,221.84 204.86,221.49 205.00,221.49 205.00,221.15 205.01,221.15 205.01,220.81 205.18,220.81 205.18,220.47 205.22,220.47 205.22,220.12 205.26,220.12 205.26,219.78 205.85,219.78 205.85,219.44 205.93,219.44 205.93,219.10 206.49,219.10 206.49,218.76 206.54,218.76 206.54,218.41 206.95,218.41 206.95,218.07 207.07,218.07 207.07,217.73 207.72,217.73 207.72,217.39 207.79,217.39 207.79,217.04 207.93,217.04 207.93,216.70 208.27,216.70 208.27,216.36 209.58,216.36 209.58,216.02 209.94,216.02 209.94,215.67 209.97,215.67 209.97,215.33 210.21,215.33 210.21,214.99 210.26,214.99 210.26,214.65 210.45,214.65 210.45,214.30 210.55,214.30 210.55,213.96 210.64,213.96 210.64,213.62 210.73,213.62 210.73,213.28 211.31,213.28 211.31,212.93 211.45,212.93 211.45,212.59 211.54,212.59 211.54,212.25 211.58,212.25 211.58,211.91 211.68,211.91 211.68,211.57 212.38,211.57 212.38,211.22 212.43,211.22 212.43,210.88 212.64,210.88 212.64,210.54 212.69,210.54 212.69,210.20 213.09,210.20 213.09,209.85 213.35,209.85 213.35,209.51 213.50,209.51 213.50,209.17 213.58,209.17 213.58,208.83 214.74,208.83 214.74,208.48 214.93,208.48 214.93,208.14 214.94,208.14 214.94,207.80 214.96,207.80 214.96,207.46 215.31,207.46 215.31,207.11 215.36,207.11 215.36,206.77 215.56,206.77 215.56,206.43 215.58,206.43 215.58,206.09 215.73,206.09 215.73,205.74 216.22,205.74 216.22,205.40 216.25,205.40 216.25,205.06 216.71,205.06 216.71,204.72 216.91,204.72 216.91,204.38 217.74,204.38 217.74,204.03 217.82,204.03 217.82,203.69 218.94,203.69 218.94,203.35 219.01,203.35 219.01,203.01 219.35,203.01 219.35,202.66 219.61,202.66 219.61,202.32 219.75,202.32 219.75,201.98 219.77,201.98 219.77,201.64 219.98,201.64 219.98,201.29 220.05,201.29 220.05,200.95 220.40,200.95 220.40,200.61 220.67,200.61 220.67,200.27 220.69,200.27 220.69,199.92 220.82,199.92 220.82,199.58 221.09,199.58 221.09,199.24 221.20,199.24 221.20,198.90 221.28,198.90 221.28,198.55 221.67,198.55 221.67,198.21 221.89,198.21 221.89,197.87 222.72,197.87 222.72,197.53 222.98,197.53 222.98,197.18 223.09,197.18 223.09,196.84 223.48,196.84 223.48,196.50 223.74,196.50 223.74,196.16 224.05,196.16 224.05,195.82 224.38,195.82 224.38,195.47 224.45,195.47 224.45,195.13 224.49,195.13 224.49,194.79 224.67,194.79 224.67,194.45 224.69,194.45 224.69,194.10 225.15,194.10 225.15,193.76 225.92,193.76 225.92,193.42 226.70,193.42 226.70,193.08 227.16,193.08 227.16,192.73 228.25,192.73 228.25,192.39 228.50,192.39 228.50,192.05 228.67,192.05 228.67,191.71 229.17,191.71 229.17,191.36 229.69,191.36 229.69,191.02 230.14,191.02 230.14,190.68 230.91,190.68 230.91,190.34 230.93,190.34 230.93,189.99 231.36,189.99 231.36,189.65 231.39,189.65 231.39,189.31 231.61,189.31 231.61,188.97 231.88,188.97 231.88,188.63 232.33,188.63 232.33,188.28 233.03,188.28 233.03,187.94 233.95,187.94 233.95,187.60 234.30,187.60 234.30,187.26 235.09,187.26 235.09,186.91 235.20,186.91 235.20,186.57 235.33,186.57 235.33,186.23 235.38,186.23 235.38,185.89 235.40,185.89 235.40,185.54 236.28,185.54 236.28,185.20 236.35,185.20 236.35,184.86 236.37,184.86 236.37,184.52 236.45,184.52 236.45,184.17 236.50,184.17 236.50,183.83 236.65,183.83 236.65,183.49 236.75,183.49 236.75,183.15 236.85,183.15 236.85,182.80 237.37,182.80 237.37,182.46 237.39,182.46 237.39,182.12 237.47,182.12 237.47,181.78 237.93,181.78 237.93,181.44 237.98,181.44 237.98,181.09 238.18,181.09 238.18,180.75 238.39,180.75 238.39,180.41 238.45,180.41 238.45,180.07 238.53,180.07 238.53,179.72 238.60,179.72 238.60,179.38 238.91,179.38 238.91,179.04 239.03,179.04 239.03,178.70 239.13,178.70 239.13,178.35 239.62,178.35 239.62,178.01 240.92,178.01 240.92,177.67 241.13,177.67 241.13,177.33 241.20,177.33 241.20,176.98 241.36,176.98 241.36,176.64 241.49,176.64 241.49,176.30 242.11,176.30 242.11,175.96 242.30,175.96 242.30,175.61 242.31,175.61 242.31,175.27 242.65,175.27 242.65,174.93 243.39,174.93 243.39,174.59 244.00,174.59 244.00,174.25 245.01,174.25 245.01,173.90 245.23,173.90 245.23,173.56 245.55,173.56 245.55,173.22 246.91,173.22 246.91,172.88 247.59,172.88 247.59,172.53 247.71,172.53 247.71,172.19 247.88,172.19 247.88,171.85 248.04,171.85 248.04,171.51 248.08,171.51 248.08,171.16 248.31,171.16 248.31,170.82 248.52,170.82 248.52,170.48 248.55,170.48 248.55,170.14 248.84,170.14 248.84,169.79 248.92,169.79 248.92,169.45 249.21,169.45 249.21,169.11 249.39,169.11 249.39,168.77 249.57,168.77 249.57,168.42 250.04,168.42 250.04,168.08 250.52,168.08 250.52,167.74 250.61,167.74 250.61,167.40 251.11,167.40 251.11,167.05 251.21,167.05 251.21,166.71 251.31,166.71 251.31,166.37 251.83,166.37 251.83,166.03 251.95,166.03 251.95,165.69 252.74,165.69 252.74,165.34 253.25,165.34 253.25,165.00 253.89,165.00 253.89,164.66 253.97,164.66 253.97,164.32 254.28,164.32 254.28,163.97 254.35,163.97 254.35,163.63 254.61,163.63 254.61,163.29 254.62,163.29 254.62,162.95 255.33,162.95 255.33,162.60 255.41,162.60 255.41,162.26 255.69,162.26 255.69,161.92 256.05,161.92 256.05,161.58 256.29,161.58 256.29,161.23 256.47,161.23 256.47,160.89 256.52,160.89 256.52,160.55 256.53,160.55 256.53,160.21 256.73,160.21 256.73,159.86 256.74,159.86 256.74,159.52 256.78,159.52 256.78,159.18 256.78,159.18 256.78,158.84 256.93,158.84 256.93,158.50 257.05,158.50 257.05,158.15 257.70,158.15 257.70,157.81 258.85,157.81 258.85,157.47 258.88,157.47 258.88,157.13 258.89,157.13 258.89,156.78 258.99,156.78 258.99,156.44 259.11,156.44 259.11,156.10 259.56,156.10 259.56,155.76 259.69,155.76 259.69,155.41 260.15,155.41 260.15,155.07 260.66,155.07 260.66,154.73 261.44,154.73 261.44,154.39 261.94,154.39 261.94,154.04 262.20,154.04 262.20,153.70 262.22,153.70 262.22,153.36 262.37,153.36 262.37,153.02 262.49,153.02 262.49,152.67 262.65,152.67 262.65,152.33 263.16,152.33 263.16,151.99 263.19,151.99 263.19,151.65 263.22,151.65 263.22,151.31 263.54,151.31 263.54,150.96 263.98,150.96 263.98,150.62 264.42,150.62 264.42,150.28 264.46,150.28 264.46,149.94 264.49,149.94 264.49,149.59 264.81,149.59 264.81,149.25 265.08,149.25 265.08,148.91 265.27,148.91 265.27,148.57 265.45,148.57 265.45,148.22 265.50,148.22 265.50,147.88 266.29,147.88 266.29,147.54 266.40,147.54 266.40,147.20 266.49,147.20 266.49,146.85 266.55,146.85 266.55,146.51 266.76,146.51 266.76,146.17 267.02,146.17 267.02,145.83 267.05,145.83 267.05,145.48 267.06,145.48 267.06,145.14 267.82,145.14 267.82,144.80 267.82,144.80 267.82,144.46 267.90,144.46 267.90,144.12 268.02,144.12 268.02,143.77 268.16,143.77 268.16,143.43 268.84,143.43 268.84,143.09 269.27,143.09 269.27,142.75 269.62,142.75 269.62,142.40 269.64,142.40 269.64,142.06 269.99,142.06 269.99,141.72 270.00,141.72 270.00,141.38 270.01,141.38 270.01,141.03 270.12,141.03 270.12,140.69 270.17,140.69 270.17,140.35 270.38,140.35 270.38,140.01 270.65,140.01 270.65,139.66 271.54,139.66 271.54,139.32 271.79,139.32 271.79,138.98 271.88,138.98 271.88,138.64 272.09,138.64 272.09,138.29 272.16,138.29 272.16,137.95 272.71,137.95 272.71,137.61 272.90,137.61 272.90,137.27 273.12,137.27 273.12,136.92 273.21,136.92 273.21,136.58 273.34,136.58 273.34,136.24 273.40,136.24 273.40,135.90 273.50,135.90 273.50,135.56 273.59,135.56 273.59,135.21 275.18,135.21 275.18,134.87 275.21,134.87 275.21,134.53 275.50,134.53 275.50,134.19 276.10,134.19 276.10,133.84 276.44,133.84 276.44,133.50 276.60,133.50 276.60,133.16 276.67,133.16 276.67,132.82 277.01,132.82 277.01,132.47 277.19,132.47 277.19,132.13 277.27,132.13 277.27,131.79 277.37,131.79 277.37,131.45 277.71,131.45 277.71,131.10 277.83,131.10 277.83,130.76 277.88,130.76 277.88,130.42 278.00,130.42 278.00,130.08 278.33,130.08 278.33,129.73 278.40,129.73 278.40,129.39 279.60,129.39 279.60,129.05 279.73,129.05 279.73,128.71 280.02,128.71 280.02,128.37 280.62,128.37 280.62,128.02 280.88,128.02 280.88,127.68 281.09,127.68 281.09,127.34 281.15,127.34 281.15,127.00 281.61,127.00 281.61,126.65 282.04,126.65 282.04,126.31 282.18,126.31 282.18,125.97 282.89,125.97 282.89,125.63 283.04,125.63 283.04,125.28 283.61,125.28 283.61,124.94 283.64,124.94 283.64,124.60 283.73,124.60 283.73,124.26 284.09,124.26 284.09,123.91 284.11,123.91 284.11,123.57 284.43,123.57 284.43,123.23 284.54,123.23 284.54,122.89 285.03,122.89 285.03,122.54 285.84,122.54 285.84,122.20 286.13,122.20 286.13,121.86 286.16,121.86 286.16,121.52 286.21,121.52 286.21,121.18 286.34,121.18 286.34,120.83 286.77,120.83 286.77,120.49 286.88,120.49 286.88,120.15 286.93,120.15 286.93,119.81 287.13,119.81 287.13,119.46 287.55,119.46 287.55,119.12 287.72,119.12 287.72,118.78 287.74,118.78 287.74,118.44 288.70,118.44 288.70,118.09 288.78,118.09 288.78,117.75 289.01,117.75 289.01,117.41 289.06,117.41 289.06,117.07 289.92,117.07 289.92,116.72 290.05,116.72 290.05,116.38 290.14,116.38 290.14,116.04 290.90,116.04 290.90,115.70 291.44,115.70 291.44,115.35 292.49,115.35 292.49,115.01 293.67,115.01 293.67,114.67 293.72,114.67 293.72,114.33 293.91,114.33 293.91,113.99 294.31,113.99 294.31,113.64 294.81,113.64 294.81,113.30 295.83,113.30 295.83,112.96 296.23,112.96 296.23,112.62 296.26,112.62 296.26,112.27 296.41,112.27 296.41,111.93 296.61,111.93 296.61,111.59 296.93,111.59 296.93,111.25 297.47,111.25 297.47,110.90 298.06,110.90 298.06,110.56 298.62,110.56 298.62,110.22 298.82,110.22 298.82,109.88 298.83,109.88 298.83,109.53 299.15,109.53 299.15,109.19 299.23,109.19 299.23,108.85 301.06,108.85 301.06,108.51 301.41,108.51 301.41,108.16 302.20,108.16 302.20,107.82 302.42,107.82 302.42,107.48 302.46,107.48 302.46,107.14 302.76,107.14 302.76,106.79 303.14,106.79 303.14,106.45 303.30,106.45 303.30,106.11 303.31,106.11 303.31,105.77 303.44,105.77 303.44,105.43 303.46,105.43 303.46,105.08 303.98,105.08 303.98,104.74 304.06,104.74 304.06,104.40 304.41,104.40 304.41,104.06 304.53,104.06 304.53,103.71 304.59,103.71 304.59,103.37 305.05,103.37 305.05,103.03 305.25,103.03 305.25,102.69 305.27,102.69 305.27,102.34 305.31,102.34 305.31,102.00 305.77,102.00 305.77,101.66 305.80,101.66 305.80,101.32 305.99,101.32 305.99,100.97 306.34,100.97 306.34,100.63 307.18,100.63 307.18,100.29 307.19,100.29 307.19,99.95 307.86,99.95 307.86,99.60 307.93,99.60 307.93,99.26 308.42,99.26 308.42,98.92 308.50,98.92 308.50,98.58 308.52,98.58 308.52,98.24 308.60,98.24 308.60,97.89 308.82,97.89 308.82,97.55 308.82,97.55 308.82,97.21 308.89,97.21 308.89,96.87 309.38,96.87 309.38,96.52 309.86,96.52 309.86,96.18 310.06,96.18 310.06,95.84 310.08,95.84 310.08,95.50 310.19,95.50 310.19,95.15 310.31,95.15 310.31,94.81 310.87,94.81 310.87,94.47 311.37,94.47 311.37,94.13 311.72,94.13 311.72,93.78 311.74,93.78 311.74,93.44 311.75,93.44 311.75,93.10 311.81,93.10 311.81,92.76 311.99,92.76 311.99,92.41 312.53,92.41 312.53,92.07 312.96,92.07 312.96,91.73 313.03,91.73 313.03,91.39 313.22,91.39 313.22,91.05 313.27,91.05 313.27,90.70 313.41,90.70 313.41,90.36 313.76,90.36 313.76,90.02 313.88,90.02 313.88,89.68 314.17,89.68 314.17,89.33 314.18,89.33 314.18,88.99 314.27,88.99 314.27,88.65 314.45,88.65 314.45,88.31 315.24,88.31 315.24,87.96 315.37,87.96 315.37,87.62 315.45,87.62 315.45,87.28 315.81,87.28 315.81,86.94 316.05,86.94 316.05,86.59 316.10,86.59 316.10,86.25 316.54,86.25 316.54,85.91 316.56,85.91 316.56,85.57 316.65,85.57 316.65,85.22 316.88,85.22 316.88,84.88 316.99,84.88 316.99,84.54 317.20,84.54 317.20,84.20 317.34,84.20 317.34,83.86 318.23,83.86 318.23,83.51 318.34,83.51 318.34,83.17 318.57,83.17 318.57,82.83 319.22,82.83 319.22,82.49 319.29,82.49 319.29,82.14 319.48,82.14 319.48,81.80 319.52,81.80 319.52,81.46 321.12,81.46 321.12,81.12 321.34,81.12 321.34,80.77 321.57,80.77 321.57,80.43 321.58,80.43 321.58,80.09 322.22,80.09 322.22,79.75 322.44,79.75 322.44,79.40 323.44,79.40 323.44,79.06 324.43,79.06 324.43,78.72 324.44,78.72 324.44,78.38 324.47,78.38 324.47,78.03 324.51,78.03 324.51,77.69 324.54,77.69 324.54,77.35 324.58,77.35 324.58,77.01 324.99,77.01 324.99,76.66 325.00,76.66 325.00,76.32 325.57,76.32 325.57,75.98 325.81,75.98 325.81,75.64 325.98,75.64 325.98,75.30 327.58,75.30 327.58,74.95 328.98,74.95 328.98,74.61 329.09,74.61 329.09,74.27 329.40,74.27 329.40,73.93 329.68,73.93 329.68,73.58 331.55,73.58 331.55,73.24 331.63,73.24 331.63,72.90 332.05,72.90 332.05,72.56 333.27,72.56 333.27,72.21 333.29,72.21 333.29,71.87 333.37,71.87 333.37,71.53 333.64,71.53 333.64,71.19 333.91,71.19 333.91,70.84 333.93,70.84 333.93,70.50 334.08,70.50 334.08,70.16 334.55,70.16 334.55,69.82 334.85,69.82 334.85,69.47 335.57,69.47 335.57,69.13 335.69,69.13 335.69,68.79 336.73,68.79 336.73,68.45 336.84,68.45 336.84,68.11 337.06,68.11 337.06,67.76 337.13,67.76 337.13,67.42 337.29,67.42 337.29,67.08 338.03,67.08 338.03,66.74 338.47,66.74 338.47,66.39 338.97,66.39 338.97,66.05 339.38,66.05 339.38,65.71 339.63,65.71 339.63,65.37 340.17,65.37 340.17,65.02 340.64,65.02 340.64,64.68 341.45,64.68 341.45,64.34 341.53,64.34 341.53,64.00 341.94,64.00 341.94,63.65 342.11,63.65 342.11,63.31 342.37,63.31 342.37,62.97 342.55,62.97 342.55,62.63 342.69,62.63 342.69,62.28 342.97,62.28 342.97,61.94 343.19,61.94 343.19,61.60 343.63,61.60 343.63,61.26 343.90,61.26 343.90,60.92 343.94,60.92 343.94,60.57 344.01,60.57 344.01,60.23 344.03,60.23 344.03,59.89 344.05,59.89 344.05,59.55 344.12,59.55 344.12,59.20 344.84,59.20 344.84,58.86 344.93,58.86 344.93,58.52 345.30,58.52 345.30,58.18 345.49,58.18 345.49,57.83 345.59,57.83 345.59,57.49 346.00,57.49 346.00,57.15 346.28,57.15 346.28,56.81 346.45,56.81 346.45,56.46 346.88,56.46 346.88,56.12 346.91,56.12 346.91,55.78 346.94,55.78 346.94,55.44 347.25,55.44 347.25,55.09 347.52,55.09 347.52,54.75 347.81,54.75 347.81,54.41 347.94,54.41 347.94,54.07 348.83,54.07 348.83,53.73 348.84,53.73 348.84,53.38 349.21,53.38 349.21,53.04 349.32,53.04 349.32,52.70 349.53,52.70 349.53,52.36 349.65,52.36 349.65,52.01 350.03,52.01 350.03,51.67 350.29,51.67 350.29,51.33 350.52,51.33 350.52,50.99 351.48,50.99 351.48,50.64 351.66,50.64 351.66,50.30 351.75,50.30 351.75,49.96 351.79,49.96 351.79,49.62 351.94,49.62 351.94,49.27 351.96,49.27 351.96,48.93 352.11,48.93 352.11,48.59 352.15,48.59 352.15,48.25 352.40,48.25 352.40,47.90 353.05,47.90 353.05,47.56 353.11,47.56 353.11,47.22 353.38,47.22 353.38,46.88 353.74,46.88 353.74,46.53 353.90,46.53 353.90,46.19 353.92,46.19 353.92,45.85 354.43,45.85 354.43,45.51 354.51,45.51 354.51,45.17 354.76,45.17 354.76,44.82 354.83,44.82 354.83,44.48 355.64,44.48 355.64,44.14 355.76,44.14 355.76,43.80 355.88,43.80 355.88,43.45 356.30,43.45 356.30,43.11 356.38,43.11 356.38,42.77 356.75,42.77 356.75,42.43 356.76,42.43 356.76,42.08 356.79,42.08 356.79,41.74 357.20,41.74 357.20,41.40 357.77,41.40 357.77,41.06 357.86,41.06 357.86,40.71 357.97,40.71 357.97,40.37 358.26,40.37 358.26,40.03 358.52,40.03 358.52,39.69 358.79,39.69 358.79,39.34 358.93,39.34 358.93,39.00 359.15,39.00 359.15,38.66 359.17,38.66 359.17,38.32 359.50,38.32 359.50,37.98 359.91,37.98 359.91,37.63 360.87,37.63 360.87,37.29 361.09,37.29 361.09,36.95 361.26,36.95 361.26,36.61 361.36,36.61 361.36,36.26 361.97,36.26 361.97,35.92 362.43,35.92 362.43,35.58 362.49,35.58 362.49,35.24 362.79,35.24 362.79,34.89 363.74,34.89 363.74,34.55 364.21,34.55 364.21,34.21 364.24,34.21 364.24,33.87 364.36,33.87 364.36,33.52 364.51,33.52 364.51,33.18 364.53,33.18 364.53,32.84 364.91,32.84 364.91,32.50 365.18,32.50 365.18,32.15 365.36,32.15 365.36,31.81 365.64,31.81 365.64,31.47 365.67,31.47 365.67,31.13 366.09,31.13 366.09,30.79 366.26,30.79 366.26,30.44 366.95,30.44 366.95,30.10 367.52,30.10 367.52,29.76 367.96,29.76 367.96,29.42 368.12,29.42 368.12,29.07 368.37,29.07 368.37,28.73 368.52,28.73 368.52,28.39 368.65,28.39 368.65,28.05 368.66,28.05 368.66,27.70 368.99,27.70 368.99,27.36 369.51,27.36 369.51,27.02 369.75,27.02 369.75,26.68 369.94,26.68 369.94,26.33 369.95,26.33 369.95,25.99 370.12,25.99 370.12,25.65 371.30,25.65 371.30,25.31 371.78,25.31 371.78,24.96 372.21,24.96 372.21,24.62 372.64,24.62 372.64,24.28 373.20,24.28 373.20,23.94 373.30,23.94 373.30,23.60 387.97,23.60 387.97,23.60 "
         style="stroke-width: 2.13; stroke: #377EB8; stroke-linecap: butt;"
         id="polyline24" />
      <polyline
         points="65.25,365.98 79.92,365.98 79.92,365.64 80.06,365.64 80.06,365.30 80.44,365.30 80.44,364.95 80.47,364.95 80.47,364.61 80.88,364.61 80.88,364.27 81.28,364.27 81.28,363.93 81.29,363.93 81.29,363.58 81.56,363.58 81.56,363.24 81.64,363.24 81.64,362.90 81.78,362.90 81.78,362.56 82.12,362.56 82.12,362.22 82.14,362.22 82.14,361.87 82.27,361.87 82.27,361.53 82.90,361.53 82.90,361.19 82.92,361.19 82.92,360.85 82.99,360.85 82.99,360.50 82.99,360.50 82.99,360.16 83.17,360.16 83.17,359.82 83.40,359.82 83.40,359.48 84.03,359.48 84.03,359.13 85.12,359.13 85.12,358.79 85.74,358.79 85.74,358.45 85.77,358.45 85.77,358.11 86.08,358.11 86.08,357.76 86.08,357.76 86.08,357.42 86.25,357.42 86.25,357.08 86.90,357.08 86.90,356.74 87.01,356.74 87.01,356.39 87.04,356.39 87.04,356.05 88.12,356.05 88.12,355.71 89.67,355.71 89.67,355.37 90.28,355.37 90.28,355.03 91.28,355.03 91.28,354.68 91.40,354.68 91.40,354.34 91.83,354.34 91.83,354.00 92.61,354.00 92.61,353.66 92.79,353.66 92.79,353.31 92.80,353.31 92.80,352.97 93.08,352.97 93.08,352.63 93.13,352.63 93.13,352.29 93.78,352.29 93.78,351.94 94.25,351.94 94.25,351.60 94.26,351.60 94.26,351.26 94.98,351.26 94.98,350.92 95.05,350.92 95.05,350.57 95.17,350.57 95.17,350.23 95.82,350.23 95.82,349.89 96.10,349.89 96.10,349.55 97.74,349.55 97.74,349.20 98.02,349.20 98.02,348.86 98.57,348.86 98.57,348.52 98.60,348.52 98.60,348.18 98.83,348.18 98.83,347.83 99.37,347.83 99.37,347.49 101.82,347.49 101.82,347.15 102.15,347.15 102.15,346.81 102.25,346.81 102.25,346.47 102.30,346.47 102.30,346.12 102.61,346.12 102.61,345.78 103.06,345.78 103.06,345.44 103.13,345.44 103.13,345.10 103.38,345.10 103.38,344.75 103.53,344.75 103.53,344.41 103.54,344.41 103.54,344.07 103.65,344.07 103.65,343.73 103.71,343.73 103.71,343.38 104.42,343.38 104.42,343.04 105.05,343.04 105.05,342.70 105.17,342.70 105.17,342.36 105.43,342.36 105.43,342.01 105.78,342.01 105.78,341.67 106.57,341.67 106.57,341.33 106.67,341.33 106.67,340.99 106.81,340.99 106.81,340.64 107.13,340.64 107.13,340.30 107.33,340.30 107.33,339.96 107.66,339.96 107.66,339.62 108.06,339.62 108.06,339.28 108.27,339.28 108.27,338.93 108.66,338.93 108.66,338.59 108.86,338.59 108.86,338.25 109.32,338.25 109.32,337.91 109.36,337.91 109.36,337.56 109.88,337.56 109.88,337.22 110.04,337.22 110.04,336.88 110.48,336.88 110.48,336.54 110.69,336.54 110.69,336.19 110.75,336.19 110.75,335.85 110.96,335.85 110.96,335.51 111.03,335.51 111.03,335.17 111.25,335.17 111.25,334.82 111.30,334.82 111.30,334.48 111.79,334.48 111.79,334.14 112.04,334.14 112.04,333.80 112.05,333.80 112.05,333.45 112.52,333.45 112.52,333.11 112.78,333.11 112.78,332.77 113.29,332.77 113.29,332.43 113.30,332.43 113.30,332.09 113.36,332.09 113.36,331.74 113.53,331.74 113.53,331.40 113.76,331.40 113.76,331.06 114.70,331.06 114.70,330.72 114.73,330.72 114.73,330.37 114.79,330.37 114.79,330.03 115.11,330.03 115.11,329.69 115.13,329.69 115.13,329.35 115.15,329.35 115.15,329.00 115.61,329.00 115.61,328.66 115.82,328.66 115.82,328.32 115.85,328.32 115.85,327.98 116.22,327.98 116.22,327.63 116.24,327.63 116.24,327.29 116.40,327.29 116.40,326.95 116.82,326.95 116.82,326.61 116.84,326.61 116.84,326.26 117.49,326.26 117.49,325.92 117.85,325.92 117.85,325.58 117.90,325.58 117.90,325.24 118.30,325.24 118.30,324.90 118.51,324.90 118.51,324.55 118.63,324.55 118.63,324.21 118.96,324.21 118.96,323.87 119.18,323.87 119.18,323.53 119.62,323.53 119.62,323.18 120.03,323.18 120.03,322.84 121.03,322.84 121.03,322.50 121.07,322.50 121.07,322.16 121.16,322.16 121.16,321.81 121.24,321.81 121.24,321.47 121.61,321.47 121.61,321.13 122.18,321.13 122.18,320.79 122.31,320.79 122.31,320.44 122.32,320.44 122.32,320.10 122.67,320.10 122.67,319.76 123.32,319.76 123.32,319.42 123.42,319.42 123.42,319.07 123.45,319.07 123.45,318.73 123.64,318.73 123.64,318.39 123.75,318.39 123.75,318.05 124.11,318.05 124.11,317.70 124.13,317.70 124.13,317.36 124.30,317.36 124.30,317.02 124.45,317.02 124.45,316.68 124.55,316.68 124.55,316.34 124.55,316.34 124.55,315.99 125.02,315.99 125.02,315.65 125.48,315.65 125.48,315.31 125.62,315.31 125.62,314.97 125.93,314.97 125.93,314.62 126.23,314.62 126.23,314.28 126.24,314.28 126.24,313.94 126.28,313.94 126.28,313.60 126.66,313.60 126.66,313.25 126.76,313.25 126.76,312.91 127.47,312.91 127.47,312.57 127.48,312.57 127.48,312.23 127.64,312.23 127.64,311.88 128.33,311.88 128.33,311.54 128.93,311.54 128.93,311.20 128.97,311.20 128.97,310.86 129.34,310.86 129.34,310.51 129.40,310.51 129.40,310.17 129.64,310.17 129.64,309.83 130.02,309.83 130.02,309.49 130.19,309.49 130.19,309.15 130.34,309.15 130.34,308.80 130.50,308.80 130.50,308.46 131.10,308.46 131.10,308.12 131.22,308.12 131.22,307.78 131.99,307.78 131.99,307.43 132.54,307.43 132.54,307.09 132.87,307.09 132.87,306.75 132.97,306.75 132.97,306.41 133.02,306.41 133.02,306.06 133.04,306.06 133.04,305.72 133.65,305.72 133.65,305.38 133.70,305.38 133.70,305.04 133.70,305.04 133.70,304.69 134.05,304.69 134.05,304.35 134.26,304.35 134.26,304.01 134.30,304.01 134.30,303.67 134.33,303.67 134.33,303.32 134.82,303.32 134.82,302.98 135.19,302.98 135.19,302.64 135.23,302.64 135.23,302.30 135.36,302.30 135.36,301.96 135.66,301.96 135.66,301.61 136.55,301.61 136.55,301.27 136.59,301.27 136.59,300.93 136.66,300.93 136.66,300.59 136.67,300.59 136.67,300.24 136.90,300.24 136.90,299.90 137.00,299.90 137.00,299.56 137.05,299.56 137.05,299.22 137.08,299.22 137.08,298.87 137.18,298.87 137.18,298.53 137.24,298.53 137.24,298.19 137.41,298.19 137.41,297.85 137.76,297.85 137.76,297.50 137.80,297.50 137.80,297.16 137.96,297.16 137.96,296.82 138.02,296.82 138.02,296.48 138.52,296.48 138.52,296.13 138.75,296.13 138.75,295.79 138.97,295.79 138.97,295.45 138.99,295.45 138.99,295.11 139.26,295.11 139.26,294.77 139.27,294.77 139.27,294.42 139.35,294.42 139.35,294.08 139.94,294.08 139.94,293.74 140.08,293.74 140.08,293.40 140.20,293.40 140.20,293.05 140.63,293.05 140.63,292.71 140.71,292.71 140.71,292.37 140.80,292.37 140.80,292.03 140.91,292.03 140.91,291.68 141.34,291.68 141.34,291.34 141.82,291.34 141.82,291.00 141.92,291.00 141.92,290.66 142.28,290.66 142.28,290.31 142.37,290.31 142.37,289.97 142.41,289.97 142.41,289.63 142.94,289.63 142.94,289.29 143.09,289.29 143.09,288.94 143.29,288.94 143.29,288.60 143.35,288.60 143.35,288.26 143.39,288.26 143.39,287.92 143.39,287.92 143.39,287.57 143.53,287.57 143.53,287.23 143.77,287.23 143.77,286.89 143.81,286.89 143.81,286.55 144.05,286.55 144.05,286.21 144.25,286.21 144.25,285.86 144.41,285.86 144.41,285.52 144.92,285.52 144.92,285.18 145.00,285.18 145.00,284.84 145.52,284.84 145.52,284.49 145.85,284.49 145.85,284.15 146.13,284.15 146.13,283.81 146.69,283.81 146.69,283.47 147.49,283.47 147.49,283.12 148.15,283.12 148.15,282.78 148.41,282.78 148.41,282.44 148.59,282.44 148.59,282.10 148.84,282.10 148.84,281.75 149.05,281.75 149.05,281.41 149.11,281.41 149.11,281.07 150.02,281.07 150.02,280.73 150.12,280.73 150.12,280.38 150.34,280.38 150.34,280.04 150.47,280.04 150.47,279.70 151.43,279.70 151.43,279.36 151.86,279.36 151.86,279.02 152.04,279.02 152.04,278.67 152.95,278.67 152.95,278.33 153.16,278.33 153.16,277.99 154.71,277.99 154.71,277.65 155.14,277.65 155.14,277.30 155.31,277.30 155.31,276.96 155.38,276.96 155.38,276.62 155.81,276.62 155.81,276.28 155.97,276.28 155.97,275.93 156.01,275.93 156.01,275.59 156.26,275.59 156.26,275.25 156.56,275.25 156.56,274.91 156.83,274.91 156.83,274.56 156.90,274.56 156.90,274.22 157.39,274.22 157.39,273.88 157.54,273.88 157.54,273.54 157.84,273.54 157.84,273.19 158.16,273.19 158.16,272.85 158.75,272.85 158.75,272.51 158.82,272.51 158.82,272.17 159.16,272.17 159.16,271.83 159.49,271.83 159.49,271.48 159.83,271.48 159.83,271.14 159.84,271.14 159.84,270.80 160.53,270.80 160.53,270.46 160.81,270.46 160.81,270.11 161.41,270.11 161.41,269.77 161.57,269.77 161.57,269.43 161.57,269.43 161.57,269.09 162.38,269.09 162.38,268.74 163.58,268.74 163.58,268.40 163.65,268.40 163.65,268.06 163.93,268.06 163.93,267.72 164.25,267.72 164.25,267.37 164.50,267.37 164.50,267.03 164.59,267.03 164.59,266.69 165.16,266.69 165.16,266.35 166.05,266.35 166.05,266.00 166.13,266.00 166.13,265.66 166.25,265.66 166.25,265.32 166.36,265.32 166.36,264.98 166.62,264.98 166.62,264.64 166.81,264.64 166.81,264.29 166.93,264.29 166.93,263.95 167.45,263.95 167.45,263.61 167.56,263.61 167.56,263.27 167.58,263.27 167.58,262.92 167.82,262.92 167.82,262.58 168.65,262.58 168.65,262.24 169.26,262.24 169.26,261.90 169.56,261.90 169.56,261.55 169.92,261.55 169.92,261.21 170.22,261.21 170.22,260.87 170.79,260.87 170.79,260.53 171.07,260.53 171.07,260.18 172.21,260.18 172.21,259.84 172.64,259.84 172.64,259.50 172.84,259.50 172.84,259.16 172.86,259.16 172.86,258.81 172.94,258.81 172.94,258.47 173.29,258.47 173.29,258.13 173.65,258.13 173.65,257.79 174.28,257.79 174.28,257.44 174.65,257.44 174.65,257.10 175.43,257.10 175.43,256.76 175.46,256.76 175.46,256.42 175.51,256.42 175.51,256.08 175.78,256.08 175.78,255.73 176.03,255.73 176.03,255.39 176.35,255.39 176.35,255.05 176.89,255.05 176.89,254.71 177.44,254.71 177.44,254.36 179.15,254.36 179.15,254.02 179.37,254.02 179.37,253.68 180.15,253.68 180.15,253.34 180.32,253.34 180.32,252.99 180.33,252.99 180.33,252.65 180.46,252.65 180.46,252.31 180.54,252.31 180.54,251.97 180.79,251.97 180.79,251.62 181.08,251.62 181.08,251.28 181.67,251.28 181.67,250.94 181.76,250.94 181.76,250.60 182.07,250.60 182.07,250.25 183.32,250.25 183.32,249.91 183.58,249.91 183.58,249.57 183.59,249.57 183.59,249.23 183.97,249.23 183.97,248.89 184.51,248.89 184.51,248.54 185.51,248.54 185.51,248.20 186.02,248.20 186.02,247.86 186.15,247.86 186.15,247.52 186.27,247.52 186.27,247.17 186.67,247.17 186.67,246.83 186.85,246.83 186.85,246.49 187.22,246.49 187.22,246.15 187.28,246.15 187.28,245.80 187.45,245.80 187.45,245.46 187.83,245.46 187.83,245.12 187.89,245.12 187.89,244.78 187.99,244.78 187.99,244.43 188.47,244.43 188.47,244.09 188.62,244.09 188.62,243.75 188.94,243.75 188.94,243.41 189.35,243.41 189.35,243.06 189.41,243.06 189.41,242.72 189.46,242.72 189.46,242.38 189.61,242.38 189.61,242.04 190.08,242.04 190.08,241.70 190.27,241.70 190.27,241.35 190.28,241.35 190.28,241.01 190.48,241.01 190.48,240.67 190.49,240.67 190.49,240.33 190.51,240.33 190.51,239.98 190.86,239.98 190.86,239.64 192.22,239.64 192.22,239.30 192.38,239.30 192.38,238.96 192.68,238.96 192.68,238.61 192.76,238.61 192.76,238.27 192.84,238.27 192.84,237.93 192.90,237.93 192.90,237.59 193.09,237.59 193.09,237.24 193.59,237.24 193.59,236.90 193.62,236.90 193.62,236.56 193.65,236.56 193.65,236.22 193.70,236.22 193.70,235.87 194.03,235.87 194.03,235.53 194.04,235.53 194.04,235.19 194.06,235.19 194.06,234.85 194.39,234.85 194.39,234.51 195.55,234.51 195.55,234.16 196.32,234.16 196.32,233.82 196.42,233.82 196.42,233.48 196.80,233.48 196.80,233.14 198.10,233.14 198.10,232.79 198.32,232.79 198.32,232.45 198.34,232.45 198.34,232.11 198.40,232.11 198.40,231.77 198.61,231.77 198.61,231.42 198.84,231.42 198.84,231.08 199.06,231.08 199.06,230.74 199.27,230.74 199.27,230.40 199.52,230.40 199.52,230.05 199.75,230.05 199.75,229.71 200.07,229.71 200.07,229.37 200.14,229.37 200.14,229.03 200.63,229.03 200.63,228.68 200.99,228.68 200.99,228.34 201.29,228.34 201.29,228.00 201.74,228.00 201.74,227.66 201.76,227.66 201.76,227.31 201.97,227.31 201.97,226.97 202.00,226.97 202.00,226.63 202.46,226.63 202.46,226.29 202.51,226.29 202.51,225.95 202.81,225.95 202.81,225.60 202.99,225.60 202.99,225.26 203.43,225.26 203.43,224.92 203.67,224.92 203.67,224.58 203.74,224.58 203.74,224.23 204.17,224.23 204.17,223.89 204.51,223.89 204.51,223.55 205.25,223.55 205.25,223.21 206.01,223.21 206.01,222.86 206.09,222.86 206.09,222.52 206.32,222.52 206.32,222.18 206.45,222.18 206.45,221.84 206.59,221.84 206.59,221.49 206.81,221.49 206.81,221.15 206.93,221.15 206.93,220.81 207.79,220.81 207.79,220.47 207.97,220.47 207.97,220.12 208.18,220.12 208.18,219.78 208.52,219.78 208.52,219.44 208.59,219.44 208.59,219.10 208.87,219.10 208.87,218.76 209.92,218.76 209.92,218.41 210.25,218.41 210.25,218.07 210.27,218.07 210.27,217.73 210.28,217.73 210.28,217.39 210.47,217.39 210.47,217.04 211.01,217.04 211.01,216.70 211.27,216.70 211.27,216.36 211.52,216.36 211.52,216.02 211.61,216.02 211.61,215.67 211.80,215.67 211.80,215.33 211.92,215.33 211.92,214.99 212.07,214.99 212.07,214.65 212.43,214.65 212.43,214.30 213.77,214.30 213.77,213.96 214.28,213.96 214.28,213.62 214.50,213.62 214.50,213.28 214.55,213.28 214.55,212.93 214.76,212.93 214.76,212.59 215.43,212.59 215.43,212.25 215.62,212.25 215.62,211.91 215.77,211.91 215.77,211.57 216.16,211.57 216.16,211.22 217.04,211.22 217.04,210.88 217.55,210.88 217.55,210.54 217.83,210.54 217.83,210.20 217.92,210.20 217.92,209.85 218.00,209.85 218.00,209.51 218.05,209.51 218.05,209.17 218.22,209.17 218.22,208.83 218.30,208.83 218.30,208.48 218.59,208.48 218.59,208.14 218.61,208.14 218.61,207.80 218.83,207.80 218.83,207.46 218.95,207.46 218.95,207.11 219.11,207.11 219.11,206.77 219.30,206.77 219.30,206.43 219.34,206.43 219.34,206.09 219.80,206.09 219.80,205.74 219.85,205.74 219.85,205.40 220.50,205.40 220.50,205.06 220.76,205.06 220.76,204.72 221.05,204.72 221.05,204.38 221.09,204.38 221.09,204.03 221.16,204.03 221.16,203.69 221.68,203.69 221.68,203.35 221.78,203.35 221.78,203.01 222.00,203.01 222.00,202.66 222.04,202.66 222.04,202.32 222.58,202.32 222.58,201.98 223.75,201.98 223.75,201.64 223.79,201.64 223.79,201.29 224.22,201.29 224.22,200.95 224.26,200.95 224.26,200.61 224.61,200.61 224.61,200.27 224.63,200.27 224.63,199.92 224.86,199.92 224.86,199.58 224.94,199.58 224.94,199.24 224.98,199.24 224.98,198.90 225.30,198.90 225.30,198.55 226.07,198.55 226.07,198.21 228.38,198.21 228.38,197.87 228.54,197.87 228.54,197.53 228.75,197.53 228.75,197.18 229.30,197.18 229.30,196.84 229.45,196.84 229.45,196.50 229.57,196.50 229.57,196.16 229.64,196.16 229.64,195.82 229.71,195.82 229.71,195.47 231.07,195.47 231.07,195.13 231.36,195.13 231.36,194.79 231.79,194.79 231.79,194.45 231.89,194.45 231.89,194.10 232.20,194.10 232.20,193.76 232.24,193.76 232.24,193.42 232.32,193.42 232.32,193.08 232.38,193.08 232.38,192.73 232.51,192.73 232.51,192.39 232.54,192.39 232.54,192.05 232.74,192.05 232.74,191.71 232.79,191.71 232.79,191.36 232.90,191.36 232.90,191.02 233.64,191.02 233.64,190.68 234.18,190.68 234.18,190.34 234.21,190.34 234.21,189.99 234.57,189.99 234.57,189.65 234.85,189.65 234.85,189.31 235.22,189.31 235.22,188.97 235.25,188.97 235.25,188.63 235.77,188.63 235.77,188.28 236.27,188.28 236.27,187.94 236.65,187.94 236.65,187.60 237.16,187.60 237.16,187.26 237.27,187.26 237.27,186.91 237.87,186.91 237.87,186.57 238.56,186.57 238.56,186.23 239.30,186.23 239.30,185.89 239.63,185.89 239.63,185.54 240.03,185.54 240.03,185.20 240.05,185.20 240.05,184.86 240.19,184.86 240.19,184.52 240.81,184.52 240.81,184.17 241.30,184.17 241.30,183.83 241.81,183.83 241.81,183.49 241.89,183.49 241.89,183.15 242.65,183.15 242.65,182.80 242.83,182.80 242.83,182.46 242.88,182.46 242.88,182.12 243.02,182.12 243.02,181.78 243.33,181.78 243.33,181.44 243.42,181.44 243.42,181.09 243.69,181.09 243.69,180.75 244.06,180.75 244.06,180.41 244.12,180.41 244.12,180.07 244.13,180.07 244.13,179.72 245.09,179.72 245.09,179.38 245.40,179.38 245.40,179.04 245.66,179.04 245.66,178.70 245.87,178.70 245.87,178.35 245.90,178.35 245.90,178.01 245.97,178.01 245.97,177.67 247.05,177.67 247.05,177.33 247.15,177.33 247.15,176.98 247.68,176.98 247.68,176.64 247.69,176.64 247.69,176.30 247.92,176.30 247.92,175.96 248.23,175.96 248.23,175.61 248.26,175.61 248.26,175.27 248.30,175.27 248.30,174.93 248.39,174.93 248.39,174.59 248.81,174.59 248.81,174.25 249.31,174.25 249.31,173.90 249.77,173.90 249.77,173.56 250.19,173.56 250.19,173.22 250.31,173.22 250.31,172.88 250.68,172.88 250.68,172.53 250.71,172.53 250.71,172.19 250.81,172.19 250.81,171.85 250.85,171.85 250.85,171.51 250.96,171.51 250.96,171.16 251.38,171.16 251.38,170.82 251.49,170.82 251.49,170.48 251.75,170.48 251.75,170.14 252.02,170.14 252.02,169.79 252.42,169.79 252.42,169.45 252.49,169.45 252.49,169.11 252.50,169.11 252.50,168.77 252.68,168.77 252.68,168.42 252.98,168.42 252.98,168.08 252.99,168.08 252.99,167.74 253.43,167.74 253.43,167.40 253.51,167.40 253.51,167.05 253.81,167.05 253.81,166.71 253.97,166.71 253.97,166.37 254.33,166.37 254.33,166.03 254.56,166.03 254.56,165.69 255.20,165.69 255.20,165.34 255.27,165.34 255.27,165.00 255.55,165.00 255.55,164.66 255.79,164.66 255.79,164.32 255.95,164.32 255.95,163.97 256.03,163.97 256.03,163.63 256.40,163.63 256.40,163.29 256.50,163.29 256.50,162.95 256.92,162.95 256.92,162.60 257.03,162.60 257.03,162.26 257.03,162.26 257.03,161.92 257.04,161.92 257.04,161.58 257.87,161.58 257.87,161.23 258.64,161.23 258.64,160.89 259.81,160.89 259.81,160.55 259.82,160.55 259.82,160.21 259.96,160.21 259.96,159.86 260.22,159.86 260.22,159.52 261.23,159.52 261.23,159.18 261.95,159.18 261.95,158.84 261.96,158.84 261.96,158.50 262.36,158.50 262.36,158.15 262.69,158.15 262.69,157.81 263.63,157.81 263.63,157.47 263.91,157.47 263.91,157.13 264.09,157.13 264.09,156.78 264.17,156.78 264.17,156.44 264.46,156.44 264.46,156.10 264.74,156.10 264.74,155.76 265.10,155.76 265.10,155.41 265.57,155.41 265.57,155.07 266.13,155.07 266.13,154.73 266.37,154.73 266.37,154.39 266.78,154.39 266.78,154.04 266.99,154.04 266.99,153.70 267.00,153.70 267.00,153.36 267.26,153.36 267.26,153.02 267.38,153.02 267.38,152.67 267.75,152.67 267.75,152.33 268.23,152.33 268.23,151.99 268.40,151.99 268.40,151.65 268.78,151.65 268.78,151.31 268.82,151.31 268.82,150.96 268.95,150.96 268.95,150.62 269.10,150.62 269.10,150.28 269.52,150.28 269.52,149.94 270.36,149.94 270.36,149.59 271.08,149.59 271.08,149.25 271.58,149.25 271.58,148.91 271.75,148.91 271.75,148.57 272.26,148.57 272.26,148.22 272.48,148.22 272.48,147.88 273.27,147.88 273.27,147.54 273.90,147.54 273.90,147.20 274.20,147.20 274.20,146.85 274.24,146.85 274.24,146.51 274.32,146.51 274.32,146.17 274.88,146.17 274.88,145.83 275.07,145.83 275.07,145.48 275.37,145.48 275.37,145.14 275.96,145.14 275.96,144.80 275.98,144.80 275.98,144.46 276.19,144.46 276.19,144.12 276.82,144.12 276.82,143.77 276.83,143.77 276.83,143.43 276.86,143.43 276.86,143.09 277.56,143.09 277.56,142.75 277.81,142.75 277.81,142.40 277.90,142.40 277.90,142.06 278.09,142.06 278.09,141.72 279.38,141.72 279.38,141.38 280.09,141.38 280.09,141.03 280.48,141.03 280.48,140.69 280.78,140.69 280.78,140.35 280.79,140.35 280.79,140.01 281.09,140.01 281.09,139.66 281.22,139.66 281.22,139.32 281.76,139.32 281.76,138.98 281.87,138.98 281.87,138.64 282.52,138.64 282.52,138.29 282.53,138.29 282.53,137.95 282.58,137.95 282.58,137.61 282.76,137.61 282.76,137.27 282.85,137.27 282.85,136.92 283.20,136.92 283.20,136.58 283.43,136.58 283.43,136.24 283.74,136.24 283.74,135.90 283.98,135.90 283.98,135.56 284.02,135.56 284.02,135.21 284.34,135.21 284.34,134.87 284.45,134.87 284.45,134.53 285.45,134.53 285.45,134.19 285.69,134.19 285.69,133.84 285.84,133.84 285.84,133.50 286.44,133.50 286.44,133.16 286.50,133.16 286.50,132.82 286.69,132.82 286.69,132.47 286.87,132.47 286.87,132.13 287.25,132.13 287.25,131.79 287.58,131.79 287.58,131.45 287.83,131.45 287.83,131.10 287.93,131.10 287.93,130.76 288.59,130.76 288.59,130.42 288.62,130.42 288.62,130.08 288.78,130.08 288.78,129.73 288.81,129.73 288.81,129.39 288.95,129.39 288.95,129.05 289.21,129.05 289.21,128.71 289.21,128.71 289.21,128.37 289.35,128.37 289.35,128.02 290.18,128.02 290.18,127.68 290.67,127.68 290.67,127.34 290.89,127.34 290.89,127.00 291.52,127.00 291.52,126.65 291.72,126.65 291.72,126.31 291.78,126.31 291.78,125.97 292.08,125.97 292.08,125.63 292.21,125.63 292.21,125.28 292.22,125.28 292.22,124.94 292.26,124.94 292.26,124.60 292.36,124.60 292.36,124.26 292.45,124.26 292.45,123.91 293.17,123.91 293.17,123.57 293.49,123.57 293.49,123.23 293.50,123.23 293.50,122.89 293.75,122.89 293.75,122.54 294.19,122.54 294.19,122.20 294.64,122.20 294.64,121.86 294.72,121.86 294.72,121.52 294.78,121.52 294.78,121.18 295.11,121.18 295.11,120.83 295.19,120.83 295.19,120.49 295.59,120.49 295.59,120.15 295.69,120.15 295.69,119.81 296.39,119.81 296.39,119.46 296.54,119.46 296.54,119.12 297.31,119.12 297.31,118.78 297.81,118.78 297.81,118.44 297.84,118.44 297.84,118.09 298.11,118.09 298.11,117.75 298.29,117.75 298.29,117.41 298.30,117.41 298.30,117.07 298.57,117.07 298.57,116.72 298.62,116.72 298.62,116.38 298.92,116.38 298.92,116.04 299.49,116.04 299.49,115.70 300.14,115.70 300.14,115.35 300.48,115.35 300.48,115.01 300.50,115.01 300.50,114.67 300.80,114.67 300.80,114.33 301.13,114.33 301.13,113.99 301.25,113.99 301.25,113.64 301.29,113.64 301.29,113.30 301.76,113.30 301.76,112.96 301.77,112.96 301.77,112.62 301.86,112.62 301.86,112.27 302.01,112.27 302.01,111.93 302.26,111.93 302.26,111.59 302.35,111.59 302.35,111.25 302.38,111.25 302.38,110.90 302.78,110.90 302.78,110.56 302.87,110.56 302.87,110.22 302.94,110.22 302.94,109.88 303.15,109.88 303.15,109.53 303.24,109.53 303.24,109.19 303.44,109.19 303.44,108.85 303.58,108.85 303.58,108.51 303.77,108.51 303.77,108.16 303.86,108.16 303.86,107.82 304.50,107.82 304.50,107.48 305.57,107.48 305.57,107.14 305.58,107.14 305.58,106.79 305.70,106.79 305.70,106.45 306.25,106.45 306.25,106.11 306.33,106.11 306.33,105.77 306.78,105.77 306.78,105.43 307.11,105.43 307.11,105.08 307.17,105.08 307.17,104.74 307.37,104.74 307.37,104.40 307.54,104.40 307.54,104.06 307.72,104.06 307.72,103.71 308.88,103.71 308.88,103.37 309.00,103.37 309.00,103.03 309.23,103.03 309.23,102.69 309.40,102.69 309.40,102.34 309.47,102.34 309.47,102.00 309.69,102.00 309.69,101.66 310.35,101.66 310.35,101.32 310.44,101.32 310.44,100.97 310.83,100.97 310.83,100.63 310.87,100.63 310.87,100.29 310.93,100.29 310.93,99.95 311.52,99.95 311.52,99.60 311.76,99.60 311.76,99.26 312.55,99.26 312.55,98.92 312.73,98.92 312.73,98.58 313.46,98.58 313.46,98.24 314.27,98.24 314.27,97.89 314.54,97.89 314.54,97.55 314.97,97.55 314.97,97.21 315.15,97.21 315.15,96.87 316.31,96.87 316.31,96.52 316.34,96.52 316.34,96.18 316.39,96.18 316.39,95.84 316.91,95.84 316.91,95.50 317.56,95.50 317.56,95.15 317.96,95.15 317.96,94.81 318.41,94.81 318.41,94.47 318.72,94.47 318.72,94.13 318.77,94.13 318.77,93.78 318.99,93.78 318.99,93.44 319.50,93.44 319.50,93.10 320.26,93.10 320.26,92.76 320.35,92.76 320.35,92.41 320.55,92.41 320.55,92.07 320.99,92.07 320.99,91.73 321.43,91.73 321.43,91.39 321.59,91.39 321.59,91.05 322.17,91.05 322.17,90.70 322.25,90.70 322.25,90.36 322.38,90.36 322.38,90.02 322.97,90.02 322.97,89.68 323.11,89.68 323.11,89.33 323.13,89.33 323.13,88.99 323.75,88.99 323.75,88.65 323.76,88.65 323.76,88.31 323.87,88.31 323.87,87.96 323.98,87.96 323.98,87.62 324.54,87.62 324.54,87.28 324.59,87.28 324.59,86.94 324.63,86.94 324.63,86.59 324.76,86.59 324.76,86.25 324.82,86.25 324.82,85.91 325.07,85.91 325.07,85.57 325.20,85.57 325.20,85.22 325.25,85.22 325.25,84.88 325.71,84.88 325.71,84.54 325.81,84.54 325.81,84.20 325.92,84.20 325.92,83.86 326.17,83.86 326.17,83.51 326.23,83.51 326.23,83.17 326.84,83.17 326.84,82.83 327.30,82.83 327.30,82.49 327.57,82.49 327.57,82.14 328.04,82.14 328.04,81.80 328.05,81.80 328.05,81.46 328.36,81.46 328.36,81.12 328.56,81.12 328.56,80.77 329.50,80.77 329.50,80.43 329.65,80.43 329.65,80.09 330.01,80.09 330.01,79.75 330.04,79.75 330.04,79.40 330.39,79.40 330.39,79.06 331.06,79.06 331.06,78.72 331.84,78.72 331.84,78.38 332.67,78.38 332.67,78.03 333.06,78.03 333.06,77.69 333.14,77.69 333.14,77.35 333.56,77.35 333.56,77.01 333.64,77.01 333.64,76.66 333.96,76.66 333.96,76.32 334.01,76.32 334.01,75.98 334.58,75.98 334.58,75.64 334.85,75.64 334.85,75.30 335.11,75.30 335.11,74.95 335.13,74.95 335.13,74.61 335.45,74.61 335.45,74.27 335.51,74.27 335.51,73.93 335.77,73.93 335.77,73.58 335.91,73.58 335.91,73.24 336.22,73.24 336.22,72.90 336.63,72.90 336.63,72.56 336.84,72.56 336.84,72.21 336.96,72.21 336.96,71.87 337.13,71.87 337.13,71.53 337.20,71.53 337.20,71.19 337.37,71.19 337.37,70.84 337.55,70.84 337.55,70.50 337.71,70.50 337.71,70.16 338.23,70.16 338.23,69.82 339.56,69.82 339.56,69.47 339.57,69.47 339.57,69.13 340.40,69.13 340.40,68.79 340.55,68.79 340.55,68.45 341.04,68.45 341.04,68.11 341.14,68.11 341.14,67.76 341.27,67.76 341.27,67.42 341.33,67.42 341.33,67.08 341.43,67.08 341.43,66.74 341.72,66.74 341.72,66.39 341.91,66.39 341.91,66.05 342.37,66.05 342.37,65.71 342.46,65.71 342.46,65.37 342.81,65.37 342.81,65.02 342.95,65.02 342.95,64.68 343.09,64.68 343.09,64.34 343.21,64.34 343.21,64.00 343.35,64.00 343.35,63.65 344.07,63.65 344.07,63.31 344.21,63.31 344.21,62.97 344.67,62.97 344.67,62.63 344.86,62.63 344.86,62.28 344.97,62.28 344.97,61.94 345.01,61.94 345.01,61.60 345.34,61.60 345.34,61.26 345.82,61.26 345.82,60.92 347.49,60.92 347.49,60.57 347.66,60.57 347.66,60.23 347.88,60.23 347.88,59.89 348.10,59.89 348.10,59.55 348.51,59.55 348.51,59.20 348.59,59.20 348.59,58.86 348.75,58.86 348.75,58.52 348.98,58.52 348.98,58.18 349.03,58.18 349.03,57.83 349.69,57.83 349.69,57.49 350.13,57.49 350.13,57.15 350.28,57.15 350.28,56.81 350.43,56.81 350.43,56.46 350.62,56.46 350.62,56.12 350.80,56.12 350.80,55.78 351.08,55.78 351.08,55.44 351.15,55.44 351.15,55.09 351.61,55.09 351.61,54.75 351.75,54.75 351.75,54.41 351.80,54.41 351.80,54.07 352.06,54.07 352.06,53.73 352.56,53.73 352.56,53.38 352.75,53.38 352.75,53.04 352.83,53.04 352.83,52.70 353.18,52.70 353.18,52.36 353.38,52.36 353.38,52.01 353.75,52.01 353.75,51.67 353.85,51.67 353.85,51.33 354.02,51.33 354.02,50.99 354.07,50.99 354.07,50.64 354.17,50.64 354.17,50.30 354.20,50.30 354.20,49.96 354.44,49.96 354.44,49.62 354.77,49.62 354.77,49.27 354.98,49.27 354.98,48.93 354.98,48.93 354.98,48.59 355.30,48.59 355.30,48.25 355.45,48.25 355.45,47.90 355.46,47.90 355.46,47.56 355.74,47.56 355.74,47.22 355.84,47.22 355.84,46.88 355.88,46.88 355.88,46.53 355.96,46.53 355.96,46.19 356.02,46.19 356.02,45.85 356.07,45.85 356.07,45.51 356.25,45.51 356.25,45.17 356.65,45.17 356.65,44.82 356.70,44.82 356.70,44.48 356.87,44.48 356.87,44.14 357.06,44.14 357.06,43.80 357.07,43.80 357.07,43.45 357.65,43.45 357.65,43.11 357.67,43.11 357.67,42.77 357.71,42.77 357.71,42.43 357.71,42.43 357.71,42.08 358.19,42.08 358.19,41.74 358.30,41.74 358.30,41.40 358.93,41.40 358.93,41.06 358.96,41.06 358.96,40.71 359.23,40.71 359.23,40.37 359.48,40.37 359.48,40.03 359.74,40.03 359.74,39.69 359.90,39.69 359.90,39.34 360.05,39.34 360.05,39.00 360.39,39.00 360.39,38.66 360.56,38.66 360.56,38.32 360.68,38.32 360.68,37.98 360.91,37.98 360.91,37.63 361.34,37.63 361.34,37.29 361.52,37.29 361.52,36.95 361.85,36.95 361.85,36.61 362.04,36.61 362.04,36.26 362.16,36.26 362.16,35.92 362.64,35.92 362.64,35.58 362.91,35.58 362.91,35.24 363.21,35.24 363.21,34.89 363.55,34.89 363.55,34.55 364.21,34.55 364.21,34.21 364.40,34.21 364.40,33.87 364.50,33.87 364.50,33.52 364.65,33.52 364.65,33.18 364.70,33.18 364.70,32.84 365.70,32.84 365.70,32.50 365.71,32.50 365.71,32.15 365.84,32.15 365.84,31.81 365.85,31.81 365.85,31.47 365.86,31.47 365.86,31.13 366.12,31.13 366.12,30.79 366.41,30.79 366.41,30.44 366.55,30.44 366.55,30.10 366.60,30.10 366.60,29.76 366.67,29.76 366.67,29.42 367.20,29.42 367.20,29.07 367.61,29.07 367.61,28.73 367.62,28.73 367.62,28.39 368.31,28.39 368.31,28.05 368.54,28.05 368.54,27.70 368.56,27.70 368.56,27.36 368.69,27.36 368.69,27.02 369.14,27.02 369.14,26.68 369.28,26.68 369.28,26.33 369.73,26.33 369.73,25.99 370.09,25.99 370.09,25.65 370.29,25.65 370.29,25.31 370.90,25.31 370.90,24.96 371.21,24.96 371.21,24.62 372.22,24.62 372.22,24.28 372.42,24.28 372.42,23.94 373.11,23.94 373.11,23.60 387.97,23.60 387.97,23.60 "
         style="stroke-width: 2.13; stroke: #4DAF4A; stroke-linecap: butt;"
         id="polyline25" />
      <rect
         x="65.25"
         y="6.48"
         width="322.72"
         height="376.62"
         style="stroke-width: 1.26; stroke: #333333;"
         id="rect25" />
    </g>
    <g
       clip-path="url(#cpMC4wMHw1NzYuMDB8MC4wMHw0MzIuMDA=)"
       id="g49">
      <text
         x="59.42"
         y="371.71"
         text-anchor="end"
         style="font-size: 16.00px;fill: #4D4D4D; font-family: &quot;Arial&quot;;"
         textLength="31.17px"
         lengthAdjust="spacingAndGlyphs"
         id="text25">0.00</text>
      <text
         x="59.42"
         y="286.11"
         text-anchor="end"
         style="font-size: 16.00px;fill: #4D4D4D; font-family: &quot;Arial&quot;;"
         textLength="31.17px"
         lengthAdjust="spacingAndGlyphs"
         id="text26">0.25</text>
      <text
         x="59.42"
         y="200.52"
         text-anchor="end"
         style="font-size: 16.00px;fill: #4D4D4D; font-family: &quot;Arial&quot;;"
         textLength="31.17px"
         lengthAdjust="spacingAndGlyphs"
         id="text27">0.50</text>
      <text
         x="59.42"
         y="114.92"
         text-anchor="end"
         style="font-size: 16.00px;fill: #4D4D4D; font-family: &quot;Arial&quot;;"
         textLength="31.17px"
         lengthAdjust="spacingAndGlyphs"
         id="text28">0.75</text>
      <text
         x="59.42"
         y="29.32"
         text-anchor="end"
         style="font-size: 16.00px;fill: #4D4D4D; font-family: &quot;Arial&quot;;"
         textLength="31.17px"
         lengthAdjust="spacingAndGlyphs"
         id="text29">1.00</text>
      <polyline
         points="62.01,365.98 65.25,365.98 "
         style="stroke-width: 1.26; stroke: #333333; stroke-linecap: butt;"
         id="polyline29" />
      <polyline
         points="62.01,280.38 65.25,280.38 "
         style="stroke-width: 1.26; stroke: #333333; stroke-linecap: butt;"
         id="polyline30" />
      <polyline
         points="62.01,194.79 65.25,194.79 "
         style="stroke-width: 1.26; stroke: #333333; stroke-linecap: butt;"
         id="polyline31" />
      <polyline
         points="62.01,109.19 65.25,109.19 "
         style="stroke-width: 1.26; stroke: #333333; stroke-linecap: butt;"
         id="polyline32" />
      <polyline
         points="62.01,23.60 65.25,23.60 "
         style="stroke-width: 1.26; stroke: #333333; stroke-linecap: butt;"
         id="polyline33" />
      <polyline
         points="79.79,386.34 79.79,383.10 "
         style="stroke-width: 1.26; stroke: #333333; stroke-linecap: butt;"
         id="polyline34" />
      <polyline
         points="153.17,386.34 153.17,383.10 "
         style="stroke-width: 1.26; stroke: #333333; stroke-linecap: butt;"
         id="polyline35" />
      <polyline
         points="226.55,386.34 226.55,383.10 "
         style="stroke-width: 1.26; stroke: #333333; stroke-linecap: butt;"
         id="polyline36" />
      <polyline
         points="299.93,386.34 299.93,383.10 "
         style="stroke-width: 1.26; stroke: #333333; stroke-linecap: butt;"
         id="polyline37" />
      <polyline
         points="373.30,386.34 373.30,383.10 "
         style="stroke-width: 1.26; stroke: #333333; stroke-linecap: butt;"
         id="polyline38" />
      <text
         x="79.79"
         y="400.38"
         text-anchor="middle"
         style="font-size: 16.00px;fill: #4D4D4D; font-family: &quot;Arial&quot;;"
         textLength="31.17px"
         lengthAdjust="spacingAndGlyphs"
         id="text38">0.00</text>
      <text
         x="153.17"
         y="400.38"
         text-anchor="middle"
         style="font-size: 16.00px;fill: #4D4D4D; font-family: &quot;Arial&quot;;"
         textLength="31.17px"
         lengthAdjust="spacingAndGlyphs"
         id="text39">0.25</text>
      <text
         x="226.55"
         y="400.38"
         text-anchor="middle"
         style="font-size: 16.00px;fill: #4D4D4D; font-family: &quot;Arial&quot;;"
         textLength="31.17px"
         lengthAdjust="spacingAndGlyphs"
         id="text40">0.50</text>
      <text
         x="299.93"
         y="400.38"
         text-anchor="middle"
         style="font-size: 16.00px;fill: #4D4D4D; font-family: &quot;Arial&quot;;"
         textLength="31.17px"
         lengthAdjust="spacingAndGlyphs"
         id="text41">0.75</text>
      <text
         x="373.30"
         y="400.38"
         text-anchor="middle"
         style="font-size: 16.00px;fill: #4D4D4D; font-family: &quot;Arial&quot;;"
         textLength="31.17px"
         lengthAdjust="spacingAndGlyphs"
         id="text42">1.00</text>
      <text
         x="226.61"
         y="421.31"
         text-anchor="middle"
         style="font-size: 20.00px; font-family: &quot;Arial&quot;;"
         textLength="65.59px"
         lengthAdjust="spacingAndGlyphs"
         id="text43">p-value</text>
      <text
         transform="translate(20.80,194.79) rotate(-90)"
         text-anchor="middle"
         style="font-size: 20.00px; font-family: &quot;Arial&quot;;"
         textLength="37.81px"
         lengthAdjust="spacingAndGlyphs"
         id="text44">ecdf</text>
      <rect
         x="400.92"
         y="149.89"
         width="168.61"
         height="89.80"
         style="stroke-width: 1.26; stroke: none; fill: #FFFFFF;"
         id="rect44" />
      <text
         x="407.39001"
         y="172.78999"
         style="font-size:20px;font-family:Arial"
         textLength="155.66"
         lengthAdjust="spacingAndGlyphs"
         id="text45">Proportion Censored</text>
      <rect
         x="407.39"
         y="181.37"
         width="17.28"
         height="17.28"
         style="stroke-width: 1.26; stroke: none; fill: #FFFFFF;"
         id="rect45" />
      <line
         x1="409.12"
         y1="190.01"
         x2="422.94"
         y2="190.01"
         style="stroke-width: 2.13; stroke: #E41A1C; stroke-linecap: butt;"
         id="line45" />
      <rect
         x="407.39"
         y="198.65"
         width="17.28"
         height="17.28"
         style="stroke-width: 1.26; stroke: none; fill: #FFFFFF;"
         id="rect46" />
      <line
         x1="409.12"
         y1="207.29"
         x2="422.94"
         y2="207.29"
         style="stroke-width: 2.13; stroke: #377EB8; stroke-linecap: butt;"
         id="line46" />
      <rect
         x="407.39"
         y="215.93"
         width="17.28"
         height="17.28"
         style="stroke-width: 1.26; stroke: none; fill: #FFFFFF;"
         id="rect47" />
      <line
         x1="409.12"
         y1="224.57"
         x2="422.94"
         y2="224.57"
         style="stroke-width: 2.13; stroke: #4DAF4A; stroke-linecap: butt;"
         id="line47" />
      <text
         x="431.15"
         y="195.74"
         style="font-size: 16.00px; font-family: &quot;Arial&quot;;"
         textLength="8.91px"
         lengthAdjust="spacingAndGlyphs"
         id="text47">0</text>
      <text
         x="431.15"
         y="213.02"
         style="font-size: 16.00px; font-family: &quot;Arial&quot;;"
         textLength="22.27px"
         lengthAdjust="spacingAndGlyphs"
         id="text48">0.4</text>
      <text
         x="431.15"
         y="230.30"
         style="font-size: 16.00px; font-family: &quot;Arial&quot;;"
         textLength="22.27px"
         lengthAdjust="spacingAndGlyphs"
         id="text49">0.6</text>
    </g>
  </g>
</svg>
