<?xml version="1.0" encoding="UTF-8" standalone="no"?>
<svg
   width="576.00pt"
   height="432.00pt"
   viewBox="0 0 576.00 432.00"
   version="1.1"
   id="svg42"
   sodipodi:docname="surv_portion_censored_multi_hr_cdf.svg"
   inkscape:version="1.4.2 (ebf0e940, 2025-05-08)"
   xmlns:inkscape="http://www.inkscape.org/namespaces/inkscape"
   xmlns:sodipodi="http://sodipodi.sourceforge.net/DTD/sodipodi-0.dtd"
   xmlns="http://www.w3.org/2000/svg"
   xmlns:svg="http://www.w3.org/2000/svg">
  <defs
     id="defs42" />
  <sodipodi:namedview
     id="namedview42"
     pagecolor="#ffffff"
     bordercolor="#000000"
     borderopacity="0.25"
     inkscape:showpageshadow="2"
     inkscape:pageopacity="0.0"
     inkscape:pagecheckerboard="0"
     inkscape:deskcolor="#d1d1d1"
     inkscape:document-units="pt"
     inkscape:zoom="1.0213765"
     inkscape:cx="492.47268"
     inkscape:cy="287.84685"
     inkscape:window-width="1328"
     inkscape:window-height="893"
     inkscape:window-x="96"
     inkscape:window-y="61"
     inkscape:window-maximized="0"
     inkscape:current-layer="g41" />
  <g
     class="svglite"
     id="g42">
    <defs
       id="defs1">
      <style
         type="text/css"
         id="style1"><![CDATA[
    .svglite line, .svglite polyline, .svglite polygon, .svglite path, .svglite rect, .svglite circle {
      fill: none;
      stroke: #000000;
      stroke-linecap: round;
      stroke-linejoin: round;
      stroke-miterlimit: 10.00;
    }
    .svglite text {
      white-space: pre;
    }
    .svglite g.glyphgroup path {
      fill: inherit;
      stroke: none;
    }
  ]]></style>
    </defs>
    <rect
       width="100%"
       height="100%"
       style="stroke: none; fill: #FFFFFF;"
       id="rect1" />
    <defs
       id="defs2">
      <clipPath
         id="cpMC4wMHw1NzYuMDB8MC4wMHw0MzIuMDA=">
        <rect
           x="0.00"
           y="0.00"
           width="576.00"
           height="432.00"
           id="rect2" />
      </clipPath>
    </defs>
    <g
       clip-path="url(#cpMC4wMHw1NzYuMDB8MC4wMHw0MzIuMDA=)"
       id="g3">
      <rect
         x="0.00"
         y="0.00"
         width="576.00"
         height="432.00"
         style="stroke-width: 1.26; stroke: #FFFFFF; fill: #FFFFFF;"
         id="rect3" />
    </g>
    <defs
       id="defs4">
      <clipPath
         id="cpNjUuMjV8Mzg3Ljk3fDYuNDh8MzgzLjEw">
        <rect
           x="65.25"
           y="6.48"
           width="322.72"
           height="376.62"
           id="rect4" />
      </clipPath>
    </defs>
    <g
       clip-path="url(#cpNjUuMjV8Mzg3Ljk3fDYuNDh8MzgzLjEw)"
       id="g21">
      <rect
         x="65.25"
         y="6.48"
         width="322.72"
         height="376.62"
         style="stroke-width: 1.26; stroke: none; fill: #FFFFFF;"
         id="rect5" />
      <polyline
         points="65.25,323.18 387.97,323.18 "
         style="stroke-width: 0.63; stroke: #EBEBEB; stroke-linecap: butt;"
         id="polyline5" />
      <polyline
         points="65.25,237.59 387.97,237.59 "
         style="stroke-width: 0.63; stroke: #EBEBEB; stroke-linecap: butt;"
         id="polyline6" />
      <polyline
         points="65.25,151.99 387.97,151.99 "
         style="stroke-width: 0.63; stroke: #EBEBEB; stroke-linecap: butt;"
         id="polyline7" />
      <polyline
         points="65.25,66.39 387.97,66.39 "
         style="stroke-width: 0.63; stroke: #EBEBEB; stroke-linecap: butt;"
         id="polyline8" />
      <polyline
         points="152.79,383.10 152.79,6.48 "
         style="stroke-width: 0.63; stroke: #EBEBEB; stroke-linecap: butt;"
         id="polyline9" />
      <polyline
         points="277.38,383.10 277.38,6.48 "
         style="stroke-width: 0.63; stroke: #EBEBEB; stroke-linecap: butt;"
         id="polyline10" />
      <polyline
         points="65.25,365.98 387.97,365.98 "
         style="stroke-width: 1.26; stroke: #EBEBEB; stroke-linecap: butt;"
         id="polyline11" />
      <polyline
         points="65.25,280.38 387.97,280.38 "
         style="stroke-width: 1.26; stroke: #EBEBEB; stroke-linecap: butt;"
         id="polyline12" />
      <polyline
         points="65.25,194.79 387.97,194.79 "
         style="stroke-width: 1.26; stroke: #EBEBEB; stroke-linecap: butt;"
         id="polyline13" />
      <polyline
         points="65.25,109.19 387.97,109.19 "
         style="stroke-width: 1.26; stroke: #EBEBEB; stroke-linecap: butt;"
         id="polyline14" />
      <polyline
         points="65.25,23.60 387.97,23.60 "
         style="stroke-width: 1.26; stroke: #EBEBEB; stroke-linecap: butt;"
         id="polyline15" />
      <polyline
         points="79.91,383.10 79.91,6.48 "
         style="stroke-width: 1.26; stroke: #EBEBEB; stroke-linecap: butt;"
         id="polyline16" />
      <polyline
         points="225.67,383.10 225.67,6.48 "
         style="stroke-width: 1.26; stroke: #EBEBEB; stroke-linecap: butt;"
         id="polyline17" />
      <polyline
         points="329.09,383.10 329.09,6.48 "
         style="stroke-width: 1.26; stroke: #EBEBEB; stroke-linecap: butt;"
         id="polyline18" />
      <polyline
         points="65.25,365.98 79.95,365.98 79.95,365.64 80.00,365.64 80.00,365.30 80.06,365.30 80.06,364.95 80.11,364.95 80.11,364.61 80.23,364.61 80.23,364.27 80.29,364.27 80.29,363.93 80.31,363.93 80.31,363.58 80.40,363.58 80.40,363.24 80.41,363.24 80.41,362.90 80.41,362.90 80.41,362.56 80.60,362.56 80.60,362.22 80.61,362.22 80.61,361.87 80.61,361.87 80.61,361.53 80.65,361.53 80.65,361.19 80.69,361.19 80.69,360.85 80.71,360.85 80.71,360.50 80.80,360.50 80.80,360.16 80.83,360.16 80.83,359.82 80.83,359.82 80.83,359.48 80.87,359.48 80.87,359.13 80.91,359.13 80.91,358.79 80.97,358.79 80.97,358.45 81.10,358.45 81.10,358.11 81.13,358.11 81.13,357.76 81.13,357.76 81.13,357.42 81.14,357.42 81.14,357.08 81.19,357.08 81.19,356.74 81.23,356.74 81.23,356.39 81.32,356.39 81.32,356.05 81.45,356.05 81.45,355.71 81.46,355.71 81.46,355.37 81.75,355.37 81.75,355.03 81.77,355.03 81.77,354.68 81.96,354.68 81.96,354.34 81.96,354.34 81.96,354.00 82.02,354.00 82.02,353.66 82.09,353.66 82.09,353.31 82.09,353.31 82.09,352.97 82.28,352.97 82.28,352.63 82.40,352.63 82.40,352.29 82.48,352.29 82.48,351.94 82.50,351.94 82.50,351.60 82.51,351.60 82.51,351.26 82.68,351.26 82.68,350.92 82.68,350.92 82.68,350.57 82.72,350.57 82.72,350.23 82.78,350.23 82.78,349.89 82.86,349.89 82.86,349.55 82.87,349.55 82.87,349.20 82.97,349.20 82.97,348.86 83.27,348.86 83.27,348.52 83.29,348.52 83.29,348.18 83.36,348.18 83.36,347.83 83.43,347.83 83.43,347.49 83.52,347.49 83.52,347.15 83.52,347.15 83.52,346.81 83.58,346.81 83.58,346.47 83.58,346.47 83.58,346.12 83.65,346.12 83.65,345.78 83.66,345.78 83.66,345.44 83.67,345.44 83.67,345.10 83.88,345.10 83.88,344.75 83.88,344.75 83.88,344.41 83.88,344.41 83.88,344.07 83.95,344.07 83.95,343.73 84.03,343.73 84.03,343.38 84.04,343.38 84.04,343.04 84.07,343.04 84.07,342.70 84.17,342.70 84.17,342.36 84.19,342.36 84.19,342.01 84.21,342.01 84.21,341.67 84.22,341.67 84.22,341.33 84.23,341.33 84.23,340.99 84.23,340.99 84.23,340.64 84.28,340.64 84.28,340.30 84.37,340.30 84.37,339.96 84.47,339.96 84.47,339.62 84.55,339.62 84.55,339.28 84.68,339.28 84.68,338.93 84.77,338.93 84.77,338.59 84.78,338.59 84.78,338.25 84.79,338.25 84.79,337.91 84.89,337.91 84.89,337.56 84.94,337.56 84.94,337.22 84.98,337.22 84.98,336.88 85.10,336.88 85.10,336.54 85.48,336.54 85.48,336.19 85.49,336.19 85.49,335.85 85.62,335.85 85.62,335.51 85.71,335.51 85.71,335.17 85.77,335.17 85.77,334.82 85.79,334.82 85.79,334.48 85.94,334.48 85.94,334.14 86.07,334.14 86.07,333.80 86.09,333.80 86.09,333.45 86.15,333.45 86.15,333.11 86.17,333.11 86.17,332.77 86.32,332.77 86.32,332.43 86.44,332.43 86.44,332.09 86.48,332.09 86.48,331.74 86.48,331.74 86.48,331.40 86.51,331.40 86.51,331.06 86.52,331.06 86.52,330.72 86.56,330.72 86.56,330.37 86.60,330.37 86.60,330.03 86.64,330.03 86.64,329.69 86.65,329.69 86.65,329.35 86.66,329.35 86.66,329.00 86.75,329.00 86.75,328.66 86.80,328.66 86.80,328.32 86.91,328.32 86.91,327.98 86.92,327.98 86.92,327.63 86.98,327.63 86.98,327.29 87.06,327.29 87.06,326.95 87.14,326.95 87.14,326.61 87.14,326.61 87.14,326.26 87.15,326.26 87.15,325.92 87.16,325.92 87.16,325.58 87.17,325.58 87.17,325.24 87.19,325.24 87.19,324.90 87.22,324.90 87.22,324.55 87.24,324.55 87.24,324.21 87.43,324.21 87.43,323.87 87.58,323.87 87.58,323.53 87.68,323.53 87.68,323.18 87.68,323.18 87.68,322.84 87.70,322.84 87.70,322.50 87.81,322.50 87.81,322.16 87.82,322.16 87.82,321.81 87.83,321.81 87.83,321.47 87.96,321.47 87.96,321.13 87.98,321.13 87.98,320.79 88.00,320.79 88.00,320.44 88.01,320.44 88.01,320.10 88.21,320.10 88.21,319.76 88.37,319.76 88.37,319.42 88.38,319.42 88.38,319.07 88.48,319.07 88.48,318.73 88.50,318.73 88.50,318.39 88.57,318.39 88.57,318.05 88.61,318.05 88.61,317.70 88.72,317.70 88.72,317.36 88.76,317.36 88.76,317.02 88.80,317.02 88.80,316.68 88.85,316.68 88.85,316.34 88.93,316.34 88.93,315.99 88.93,315.99 88.93,315.65 88.94,315.65 88.94,315.31 88.98,315.31 88.98,314.97 89.00,314.97 89.00,314.62 89.06,314.62 89.06,314.28 89.15,314.28 89.15,313.94 89.19,313.94 89.19,313.60 89.33,313.60 89.33,313.25 89.35,313.25 89.35,312.91 89.40,312.91 89.40,312.57 89.45,312.57 89.45,312.23 89.46,312.23 89.46,311.88 89.58,311.88 89.58,311.54 89.65,311.54 89.65,311.20 89.83,311.20 89.83,310.86 89.92,310.86 89.92,310.51 89.99,310.51 89.99,310.17 90.14,310.17 90.14,309.83 90.20,309.83 90.20,309.49 90.25,309.49 90.25,309.15 90.34,309.15 90.34,308.80 90.47,308.80 90.47,308.46 90.48,308.46 90.48,308.12 90.49,308.12 90.49,307.78 90.50,307.78 90.50,307.43 90.55,307.43 90.55,307.09 90.65,307.09 90.65,306.75 90.71,306.75 90.71,306.41 90.72,306.41 90.72,306.06 90.75,306.06 90.75,305.72 90.81,305.72 90.81,305.38 90.97,305.38 90.97,305.04 90.98,305.04 90.98,304.69 91.04,304.69 91.04,304.35 91.13,304.35 91.13,304.01 91.17,304.01 91.17,303.67 91.28,303.67 91.28,303.32 91.35,303.32 91.35,302.98 91.38,302.98 91.38,302.64 91.40,302.64 91.40,302.30 91.42,302.30 91.42,301.96 91.43,301.96 91.43,301.61 91.48,301.61 91.48,301.27 91.54,301.27 91.54,300.93 91.65,300.93 91.65,300.59 91.72,300.59 91.72,300.24 91.82,300.24 91.82,299.90 91.83,299.90 91.83,299.56 91.83,299.56 91.83,299.22 91.88,299.22 91.88,298.87 92.03,298.87 92.03,298.53 92.11,298.53 92.11,298.19 92.18,298.19 92.18,297.85 92.37,297.85 92.37,297.50 92.38,297.50 92.38,297.16 92.49,297.16 92.49,296.82 92.63,296.82 92.63,296.48 92.76,296.48 92.76,296.13 92.81,296.13 92.81,295.79 92.82,295.79 92.82,295.45 92.96,295.45 92.96,295.11 93.07,295.11 93.07,294.77 93.22,294.77 93.22,294.42 93.35,294.42 93.35,294.08 93.38,294.08 93.38,293.74 93.38,293.74 93.38,293.40 93.41,293.40 93.41,293.05 93.45,293.05 93.45,292.71 93.60,292.71 93.60,292.37 93.62,292.37 93.62,292.03 93.71,292.03 93.71,291.68 93.72,291.68 93.72,291.34 93.81,291.34 93.81,291.00 93.95,291.00 93.95,290.66 94.08,290.66 94.08,290.31 94.12,290.31 94.12,289.97 94.22,289.97 94.22,289.63 94.22,289.63 94.22,289.29 94.26,289.29 94.26,288.94 94.26,288.94 94.26,288.60 94.32,288.60 94.32,288.26 94.44,288.26 94.44,287.92 94.47,287.92 94.47,287.57 94.53,287.57 94.53,287.23 94.56,287.23 94.56,286.89 94.58,286.89 94.58,286.55 94.61,286.55 94.61,286.21 94.64,286.21 94.64,285.86 94.92,285.86 94.92,285.52 94.94,285.52 94.94,285.18 94.94,285.18 94.94,284.84 95.04,284.84 95.04,284.49 95.09,284.49 95.09,284.15 95.11,284.15 95.11,283.81 95.21,283.81 95.21,283.47 95.23,283.47 95.23,283.12 95.47,283.12 95.47,282.78 95.53,282.78 95.53,282.44 95.54,282.44 95.54,282.10 95.66,282.10 95.66,281.75 95.72,281.75 95.72,281.41 95.81,281.41 95.81,281.07 95.91,281.07 95.91,280.73 95.95,280.73 95.95,280.38 96.07,280.38 96.07,280.04 96.14,280.04 96.14,279.70 96.28,279.70 96.28,279.36 96.36,279.36 96.36,279.02 96.36,279.02 96.36,278.67 96.38,278.67 96.38,278.33 96.46,278.33 96.46,277.99 96.49,277.99 96.49,277.65 96.66,277.65 96.66,277.30 96.71,277.30 96.71,276.96 96.76,276.96 96.76,276.62 96.88,276.62 96.88,276.28 96.91,276.28 96.91,275.93 96.98,275.93 96.98,275.59 97.00,275.59 97.00,275.25 97.07,275.25 97.07,274.91 97.11,274.91 97.11,274.56 97.20,274.56 97.20,274.22 97.23,274.22 97.23,273.88 97.38,273.88 97.38,273.54 97.46,273.54 97.46,273.19 97.53,273.19 97.53,272.85 97.55,272.85 97.55,272.51 97.56,272.51 97.56,272.17 97.83,272.17 97.83,271.83 97.87,271.83 97.87,271.48 97.91,271.48 97.91,271.14 97.92,271.14 97.92,270.80 97.92,270.80 97.92,270.46 97.92,270.46 97.92,270.11 97.93,270.11 97.93,269.77 98.14,269.77 98.14,269.43 98.19,269.43 98.19,269.09 98.23,269.09 98.23,268.74 98.30,268.74 98.30,268.40 98.31,268.40 98.31,268.06 98.38,268.06 98.38,267.72 98.53,267.72 98.53,267.37 98.57,267.37 98.57,267.03 98.70,267.03 98.70,266.69 98.82,266.69 98.82,266.35 99.01,266.35 99.01,266.00 99.13,266.00 99.13,265.66 99.16,265.66 99.16,265.32 99.35,265.32 99.35,264.98 99.38,264.98 99.38,264.64 99.55,264.64 99.55,264.29 99.59,264.29 99.59,263.95 99.67,263.95 99.67,263.61 99.73,263.61 99.73,263.27 99.85,263.27 99.85,262.92 99.95,262.92 99.95,262.58 99.96,262.58 99.96,262.24 100.14,262.24 100.14,261.90 100.20,261.90 100.20,261.55 100.43,261.55 100.43,261.21 100.43,261.21 100.43,260.87 100.60,260.87 100.60,260.53 100.63,260.53 100.63,260.18 100.78,260.18 100.78,259.84 100.82,259.84 100.82,259.50 101.06,259.50 101.06,259.16 101.08,259.16 101.08,258.81 101.27,258.81 101.27,258.47 101.30,258.47 101.30,258.13 101.31,258.13 101.31,257.79 101.41,257.79 101.41,257.44 101.43,257.44 101.43,257.10 101.45,257.10 101.45,256.76 101.50,256.76 101.50,256.42 101.69,256.42 101.69,256.08 101.73,256.08 101.73,255.73 101.78,255.73 101.78,255.39 102.03,255.39 102.03,255.05 102.22,255.05 102.22,254.71 102.23,254.71 102.23,254.36 102.28,254.36 102.28,254.02 102.32,254.02 102.32,253.68 102.33,253.68 102.33,253.34 102.37,253.34 102.37,252.99 102.48,252.99 102.48,252.65 102.49,252.65 102.49,252.31 102.50,252.31 102.50,251.97 102.68,251.97 102.68,251.62 102.68,251.62 102.68,251.28 102.70,251.28 102.70,250.94 102.80,250.94 102.80,250.60 102.90,250.60 102.90,250.25 102.91,250.25 102.91,249.91 103.06,249.91 103.06,249.57 103.32,249.57 103.32,249.23 103.56,249.23 103.56,248.89 103.66,248.89 103.66,248.54 103.72,248.54 103.72,248.20 103.76,248.20 103.76,247.86 103.84,247.86 103.84,247.52 103.92,247.52 103.92,247.17 103.94,247.17 103.94,246.83 103.94,246.83 103.94,246.49 103.96,246.49 103.96,246.15 103.96,246.15 103.96,245.80 104.20,245.80 104.20,245.46 104.24,245.46 104.24,245.12 104.34,245.12 104.34,244.78 104.49,244.78 104.49,244.43 104.54,244.43 104.54,244.09 104.59,244.09 104.59,243.75 104.76,243.75 104.76,243.41 104.84,243.41 104.84,243.06 104.84,243.06 104.84,242.72 104.92,242.72 104.92,242.38 104.94,242.38 104.94,242.04 104.97,242.04 104.97,241.70 104.99,241.70 104.99,241.35 105.01,241.35 105.01,241.01 105.08,241.01 105.08,240.67 105.14,240.67 105.14,240.33 105.16,240.33 105.16,239.98 105.30,239.98 105.30,239.64 105.40,239.64 105.40,239.30 105.41,239.30 105.41,238.96 105.46,238.96 105.46,238.61 105.63,238.61 105.63,238.27 105.63,238.27 105.63,237.93 105.76,237.93 105.76,237.59 105.84,237.59 105.84,237.24 106.17,237.24 106.17,236.90 106.23,236.90 106.23,236.56 106.27,236.56 106.27,236.22 106.32,236.22 106.32,235.87 106.51,235.87 106.51,235.53 106.57,235.53 106.57,235.19 106.72,235.19 106.72,234.85 106.95,234.85 106.95,234.51 107.11,234.51 107.11,234.16 107.28,234.16 107.28,233.82 107.44,233.82 107.44,233.48 107.62,233.48 107.62,233.14 107.63,233.14 107.63,232.79 107.65,232.79 107.65,232.45 107.74,232.45 107.74,232.11 107.82,232.11 107.82,231.77 107.87,231.77 107.87,231.42 107.93,231.42 107.93,231.08 108.22,231.08 108.22,230.74 108.23,230.74 108.23,230.40 108.25,230.40 108.25,230.05 108.28,230.05 108.28,229.71 108.31,229.71 108.31,229.37 108.32,229.37 108.32,229.03 108.34,229.03 108.34,228.68 108.36,228.68 108.36,228.34 108.53,228.34 108.53,228.00 108.57,228.00 108.57,227.66 108.63,227.66 108.63,227.31 108.69,227.31 108.69,226.97 108.85,226.97 108.85,226.63 108.87,226.63 108.87,226.29 108.92,226.29 108.92,225.95 108.94,225.95 108.94,225.60 109.16,225.60 109.16,225.26 109.32,225.26 109.32,224.92 109.39,224.92 109.39,224.58 109.46,224.58 109.46,224.23 109.60,224.23 109.60,223.89 109.70,223.89 109.70,223.55 109.72,223.55 109.72,223.21 109.79,223.21 109.79,222.86 109.90,222.86 109.90,222.52 109.92,222.52 109.92,222.18 110.07,222.18 110.07,221.84 110.22,221.84 110.22,221.49 110.24,221.49 110.24,221.15 110.27,221.15 110.27,220.81 110.33,220.81 110.33,220.47 110.38,220.47 110.38,220.12 110.41,220.12 110.41,219.78 110.47,219.78 110.47,219.44 110.53,219.44 110.53,219.10 110.55,219.10 110.55,218.76 110.66,218.76 110.66,218.41 110.68,218.41 110.68,218.07 110.76,218.07 110.76,217.73 110.80,217.73 110.80,217.39 110.91,217.39 110.91,217.04 111.14,217.04 111.14,216.70 111.40,216.70 111.40,216.36 111.44,216.36 111.44,216.02 111.56,216.02 111.56,215.67 111.58,215.67 111.58,215.33 111.58,215.33 111.58,214.99 111.62,214.99 111.62,214.65 111.63,214.65 111.63,214.30 111.65,214.30 111.65,213.96 111.71,213.96 111.71,213.62 111.71,213.62 111.71,213.28 111.72,213.28 111.72,212.93 111.72,212.93 111.72,212.59 111.75,212.59 111.75,212.25 111.78,212.25 111.78,211.91 111.79,211.91 111.79,211.57 111.79,211.57 111.79,211.22 111.91,211.22 111.91,210.88 111.99,210.88 111.99,210.54 112.05,210.54 112.05,210.20 112.16,210.20 112.16,209.85 112.26,209.85 112.26,209.51 112.27,209.51 112.27,209.17 112.34,209.17 112.34,208.83 112.38,208.83 112.38,208.48 112.40,208.48 112.40,208.14 112.51,208.14 112.51,207.80 112.65,207.80 112.65,207.46 112.69,207.46 112.69,207.11 112.74,207.11 112.74,206.77 112.75,206.77 112.75,206.43 112.84,206.43 112.84,206.09 112.88,206.09 112.88,205.74 112.99,205.74 112.99,205.40 113.07,205.40 113.07,205.06 113.20,205.06 113.20,204.72 113.21,204.72 113.21,204.38 113.54,204.38 113.54,204.03 113.64,204.03 113.64,203.69 113.68,203.69 113.68,203.35 113.74,203.35 113.74,203.01 113.76,203.01 113.76,202.66 113.80,202.66 113.80,202.32 113.82,202.32 113.82,201.98 113.91,201.98 113.91,201.64 114.28,201.64 114.28,201.29 114.38,201.29 114.38,200.95 114.41,200.95 114.41,200.61 114.46,200.61 114.46,200.27 114.47,200.27 114.47,199.92 114.56,199.92 114.56,199.58 114.57,199.58 114.57,199.24 114.59,199.24 114.59,198.90 114.65,198.90 114.65,198.55 114.65,198.55 114.65,198.21 114.68,198.21 114.68,197.87 114.74,197.87 114.74,197.53 114.79,197.53 114.79,197.18 114.93,197.18 114.93,196.84 114.95,196.84 114.95,196.50 115.06,196.50 115.06,196.16 115.07,196.16 115.07,195.82 115.39,195.82 115.39,195.47 115.47,195.47 115.47,195.13 115.59,195.13 115.59,194.79 115.66,194.79 115.66,194.45 115.75,194.45 115.75,194.10 115.81,194.10 115.81,193.76 115.91,193.76 115.91,193.42 116.04,193.42 116.04,193.08 116.12,193.08 116.12,192.73 116.13,192.73 116.13,192.39 116.14,192.39 116.14,192.05 116.19,192.05 116.19,191.71 116.57,191.71 116.57,191.36 116.68,191.36 116.68,191.02 116.71,191.02 116.71,190.68 116.72,190.68 116.72,190.34 116.76,190.34 116.76,189.99 116.82,189.99 116.82,189.65 116.86,189.65 116.86,189.31 116.90,189.31 116.90,188.97 116.97,188.97 116.97,188.63 117.02,188.63 117.02,188.28 117.18,188.28 117.18,187.94 117.22,187.94 117.22,187.60 117.31,187.60 117.31,187.26 117.35,187.26 117.35,186.91 117.43,186.91 117.43,186.57 117.47,186.57 117.47,186.23 117.61,186.23 117.61,185.89 117.63,185.89 117.63,185.54 117.97,185.54 117.97,185.20 118.22,185.20 118.22,184.86 118.30,184.86 118.30,184.52 118.37,184.52 118.37,184.17 118.37,184.17 118.37,183.83 118.39,183.83 118.39,183.49 118.43,183.49 118.43,183.15 118.52,183.15 118.52,182.80 118.65,182.80 118.65,182.46 118.88,182.46 118.88,182.12 118.90,182.12 118.90,181.78 118.97,181.78 118.97,181.44 119.05,181.44 119.05,181.09 119.32,181.09 119.32,180.75 119.36,180.75 119.36,180.41 119.39,180.41 119.39,180.07 119.65,180.07 119.65,179.72 119.75,179.72 119.75,179.38 119.94,179.38 119.94,179.04 120.00,179.04 120.00,178.70 120.01,178.70 120.01,178.35 120.07,178.35 120.07,178.01 120.18,178.01 120.18,177.67 120.20,177.67 120.20,177.33 120.22,177.33 120.22,176.98 120.31,176.98 120.31,176.64 120.36,176.64 120.36,176.30 120.38,176.30 120.38,175.96 120.43,175.96 120.43,175.61 120.48,175.61 120.48,175.27 120.52,175.27 120.52,174.93 120.73,174.93 120.73,174.59 120.79,174.59 120.79,174.25 120.88,174.25 120.88,173.90 120.98,173.90 120.98,173.56 121.02,173.56 121.02,173.22 121.17,173.22 121.17,172.88 121.17,172.88 121.17,172.53 121.19,172.53 121.19,172.19 121.22,172.19 121.22,171.85 121.23,171.85 121.23,171.51 121.66,171.51 121.66,171.16 121.71,171.16 121.71,170.82 121.72,170.82 121.72,170.48 122.00,170.48 122.00,170.14 122.01,170.14 122.01,169.79 122.08,169.79 122.08,169.45 122.09,169.45 122.09,169.11 122.18,169.11 122.18,168.77 122.18,168.77 122.18,168.42 122.22,168.42 122.22,168.08 122.28,168.08 122.28,167.74 122.38,167.74 122.38,167.40 122.42,167.40 122.42,167.05 122.68,167.05 122.68,166.71 123.04,166.71 123.04,166.37 123.11,166.37 123.11,166.03 123.13,166.03 123.13,165.69 123.23,165.69 123.23,165.34 123.26,165.34 123.26,165.00 123.44,165.00 123.44,164.66 123.49,164.66 123.49,164.32 123.68,164.32 123.68,163.97 123.77,163.97 123.77,163.63 123.83,163.63 123.83,163.29 123.85,163.29 123.85,162.95 123.88,162.95 123.88,162.60 124.14,162.60 124.14,162.26 124.22,162.26 124.22,161.92 124.28,161.92 124.28,161.58 124.44,161.58 124.44,161.23 124.45,161.23 124.45,160.89 124.45,160.89 124.45,160.55 124.64,160.55 124.64,160.21 124.80,160.21 124.80,159.86 124.80,159.86 124.80,159.52 124.81,159.52 124.81,159.18 124.85,159.18 124.85,158.84 124.90,158.84 124.90,158.50 125.05,158.50 125.05,158.15 125.06,158.15 125.06,157.81 125.32,157.81 125.32,157.47 125.33,157.47 125.33,157.13 125.39,157.13 125.39,156.78 125.45,156.78 125.45,156.44 125.66,156.44 125.66,156.10 125.77,156.10 125.77,155.76 125.80,155.76 125.80,155.41 126.00,155.41 126.00,155.07 126.08,155.07 126.08,154.73 126.09,154.73 126.09,154.39 126.10,154.39 126.10,154.04 126.13,154.04 126.13,153.70 126.21,153.70 126.21,153.36 126.23,153.36 126.23,153.02 126.23,153.02 126.23,152.67 126.35,152.67 126.35,152.33 126.39,152.33 126.39,151.99 126.51,151.99 126.51,151.65 126.68,151.65 126.68,151.31 126.82,151.31 126.82,150.96 126.83,150.96 126.83,150.62 126.93,150.62 126.93,150.28 126.97,150.28 126.97,149.94 127.12,149.94 127.12,149.59 127.15,149.59 127.15,149.25 127.15,149.25 127.15,148.91 127.49,148.91 127.49,148.57 127.53,148.57 127.53,148.22 127.55,148.22 127.55,147.88 127.66,147.88 127.66,147.54 127.72,147.54 127.72,147.20 127.79,147.20 127.79,146.85 127.92,146.85 127.92,146.51 128.07,146.51 128.07,146.17 128.16,146.17 128.16,145.83 128.27,145.83 128.27,145.48 128.29,145.48 128.29,145.14 128.37,145.14 128.37,144.80 128.38,144.80 128.38,144.46 128.40,144.46 128.40,144.12 128.45,144.12 128.45,143.77 128.78,143.77 128.78,143.43 128.83,143.43 128.83,143.09 129.08,143.09 129.08,142.75 129.09,142.75 129.09,142.40 129.13,142.40 129.13,142.06 129.31,142.06 129.31,141.72 129.31,141.72 129.31,141.38 129.35,141.38 129.35,141.03 129.41,141.03 129.41,140.69 129.46,140.69 129.46,140.35 129.56,140.35 129.56,140.01 129.74,140.01 129.74,139.66 129.82,139.66 129.82,139.32 129.85,139.32 129.85,138.98 130.03,138.98 130.03,138.64 130.07,138.64 130.07,138.29 130.29,138.29 130.29,137.95 130.37,137.95 130.37,137.61 130.44,137.61 130.44,137.27 130.55,137.27 130.55,136.92 130.60,136.92 130.60,136.58 130.67,136.58 130.67,136.24 130.79,136.24 130.79,135.90 130.96,135.90 130.96,135.56 131.20,135.56 131.20,135.21 131.27,135.21 131.27,134.87 131.33,134.87 131.33,134.53 131.40,134.53 131.40,134.19 131.40,134.19 131.40,133.84 131.47,133.84 131.47,133.50 131.64,133.50 131.64,133.16 131.66,133.16 131.66,132.82 131.93,132.82 131.93,132.47 132.09,132.47 132.09,132.13 132.37,132.13 132.37,131.79 132.63,131.79 132.63,131.45 132.89,131.45 132.89,131.10 132.94,131.10 132.94,130.76 133.12,130.76 133.12,130.42 133.15,130.42 133.15,130.08 133.33,130.08 133.33,129.73 133.37,129.73 133.37,129.39 133.38,129.39 133.38,129.05 133.40,129.05 133.40,128.71 133.41,128.71 133.41,128.37 133.43,128.37 133.43,128.02 133.46,128.02 133.46,127.68 133.55,127.68 133.55,127.34 133.77,127.34 133.77,127.00 133.88,127.00 133.88,126.65 133.89,126.65 133.89,126.31 134.29,126.31 134.29,125.97 134.32,125.97 134.32,125.63 134.32,125.63 134.32,125.28 134.52,125.28 134.52,124.94 134.75,124.94 134.75,124.60 134.83,124.60 134.83,124.26 135.27,124.26 135.27,123.91 135.28,123.91 135.28,123.57 135.59,123.57 135.59,123.23 135.66,123.23 135.66,122.89 135.74,122.89 135.74,122.54 135.77,122.54 135.77,122.20 136.00,122.20 136.00,121.86 136.00,121.86 136.00,121.52 136.07,121.52 136.07,121.18 136.30,121.18 136.30,120.83 136.36,120.83 136.36,120.49 136.40,120.49 136.40,120.15 136.43,120.15 136.43,119.81 136.58,119.81 136.58,119.46 136.60,119.46 136.60,119.12 136.71,119.12 136.71,118.78 136.85,118.78 136.85,118.44 136.85,118.44 136.85,118.09 136.87,118.09 136.87,117.75 137.18,117.75 137.18,117.41 137.34,117.41 137.34,117.07 137.42,117.07 137.42,116.72 137.47,116.72 137.47,116.38 137.48,116.38 137.48,116.04 137.49,116.04 137.49,115.70 137.64,115.70 137.64,115.35 137.88,115.35 137.88,115.01 138.12,115.01 138.12,114.67 138.39,114.67 138.39,114.33 138.97,114.33 138.97,113.99 138.97,113.99 138.97,113.64 139.12,113.64 139.12,113.30 139.27,113.30 139.27,112.96 139.44,112.96 139.44,112.62 139.50,112.62 139.50,112.27 139.57,112.27 139.57,111.93 139.65,111.93 139.65,111.59 139.76,111.59 139.76,111.25 139.92,111.25 139.92,110.90 140.01,110.90 140.01,110.56 140.04,110.56 140.04,110.22 140.15,110.22 140.15,109.88 140.25,109.88 140.25,109.53 140.41,109.53 140.41,109.19 140.55,109.19 140.55,108.85 140.62,108.85 140.62,108.51 140.96,108.51 140.96,108.16 140.97,108.16 140.97,107.82 140.98,107.82 140.98,107.48 141.03,107.48 141.03,107.14 141.42,107.14 141.42,106.79 141.44,106.79 141.44,106.45 141.48,106.45 141.48,106.11 141.57,106.11 141.57,105.77 142.00,105.77 142.00,105.43 142.40,105.43 142.40,105.08 142.73,105.08 142.73,104.74 142.74,104.74 142.74,104.40 143.26,104.40 143.26,104.06 143.34,104.06 143.34,103.71 143.38,103.71 143.38,103.37 143.39,103.37 143.39,103.03 143.52,103.03 143.52,102.69 143.61,102.69 143.61,102.34 143.72,102.34 143.72,102.00 143.90,102.00 143.90,101.66 143.95,101.66 143.95,101.32 144.11,101.32 144.11,100.97 144.14,100.97 144.14,100.63 144.43,100.63 144.43,100.29 144.46,100.29 144.46,99.95 144.68,99.95 144.68,99.60 144.70,99.60 144.70,99.26 144.78,99.26 144.78,98.92 145.18,98.92 145.18,98.58 145.40,98.58 145.40,98.24 145.88,98.24 145.88,97.89 145.92,97.89 145.92,97.55 145.97,97.55 145.97,97.21 146.13,97.21 146.13,96.87 146.23,96.87 146.23,96.52 146.24,96.52 146.24,96.18 146.26,96.18 146.26,95.84 146.28,95.84 146.28,95.50 146.77,95.50 146.77,95.15 146.91,95.15 146.91,94.81 147.12,94.81 147.12,94.47 147.54,94.47 147.54,94.13 147.58,94.13 147.58,93.78 147.63,93.78 147.63,93.44 147.70,93.44 147.70,93.10 147.74,93.10 147.74,92.76 148.07,92.76 148.07,92.41 148.09,92.41 148.09,92.07 148.10,92.07 148.10,91.73 148.13,91.73 148.13,91.39 148.33,91.39 148.33,91.05 148.45,91.05 148.45,90.70 148.55,90.70 148.55,90.36 148.86,90.36 148.86,90.02 148.91,90.02 148.91,89.68 148.96,89.68 148.96,89.33 149.12,89.33 149.12,88.99 149.37,88.99 149.37,88.65 149.44,88.65 149.44,88.31 149.66,88.31 149.66,87.96 149.75,87.96 149.75,87.62 149.84,87.62 149.84,87.28 149.87,87.28 149.87,86.94 150.19,86.94 150.19,86.59 150.34,86.59 150.34,86.25 150.56,86.25 150.56,85.91 150.62,85.91 150.62,85.57 151.06,85.57 151.06,85.22 151.07,85.22 151.07,84.88 151.11,84.88 151.11,84.54 151.13,84.54 151.13,84.20 151.46,84.20 151.46,83.86 151.54,83.86 151.54,83.51 151.62,83.51 151.62,83.17 151.63,83.17 151.63,82.83 151.64,82.83 151.64,82.49 151.69,82.49 151.69,82.14 151.96,82.14 151.96,81.80 151.96,81.80 151.96,81.46 152.07,81.46 152.07,81.12 152.26,81.12 152.26,80.77 152.30,80.77 152.30,80.43 152.40,80.43 152.40,80.09 152.40,80.09 152.40,79.75 153.42,79.75 153.42,79.40 153.47,79.40 153.47,79.06 153.57,79.06 153.57,78.72 153.71,78.72 153.71,78.38 154.08,78.38 154.08,78.03 154.26,78.03 154.26,77.69 154.66,77.69 154.66,77.35 155.25,77.35 155.25,77.01 155.29,77.01 155.29,76.66 155.29,76.66 155.29,76.32 155.49,76.32 155.49,75.98 155.61,75.98 155.61,75.64 155.63,75.64 155.63,75.30 155.99,75.30 155.99,74.95 156.07,74.95 156.07,74.61 156.11,74.61 156.11,74.27 156.15,74.27 156.15,73.93 156.55,73.93 156.55,73.58 156.86,73.58 156.86,73.24 156.86,73.24 156.86,72.90 157.52,72.90 157.52,72.56 157.67,72.56 157.67,72.21 157.81,72.21 157.81,71.87 157.81,71.87 157.81,71.53 157.84,71.53 157.84,71.19 158.21,71.19 158.21,70.84 158.38,70.84 158.38,70.50 158.40,70.50 158.40,70.16 158.81,70.16 158.81,69.82 159.02,69.82 159.02,69.47 159.04,69.47 159.04,69.13 159.20,69.13 159.20,68.79 159.21,68.79 159.21,68.45 159.35,68.45 159.35,68.11 159.38,68.11 159.38,67.76 159.67,67.76 159.67,67.42 159.71,67.42 159.71,67.08 160.37,67.08 160.37,66.74 160.54,66.74 160.54,66.39 160.59,66.39 160.59,66.05 160.81,66.05 160.81,65.71 161.09,65.71 161.09,65.37 161.13,65.37 161.13,65.02 161.38,65.02 161.38,64.68 161.78,64.68 161.78,64.34 162.23,64.34 162.23,64.00 162.42,64.00 162.42,63.65 162.61,63.65 162.61,63.31 162.62,63.31 162.62,62.97 162.97,62.97 162.97,62.63 163.15,62.63 163.15,62.28 163.20,62.28 163.20,61.94 163.57,61.94 163.57,61.60 164.05,61.60 164.05,61.26 164.16,61.26 164.16,60.92 164.39,60.92 164.39,60.57 164.49,60.57 164.49,60.23 164.52,60.23 164.52,59.89 164.67,59.89 164.67,59.55 164.80,59.55 164.80,59.20 164.91,59.20 164.91,58.86 164.99,58.86 164.99,58.52 165.43,58.52 165.43,58.18 165.51,58.18 165.51,57.83 166.05,57.83 166.05,57.49 166.41,57.49 166.41,57.15 166.43,57.15 166.43,56.81 167.25,56.81 167.25,56.46 167.41,56.46 167.41,56.12 167.81,56.12 167.81,55.78 167.94,55.78 167.94,55.44 168.04,55.44 168.04,55.09 168.12,55.09 168.12,54.75 168.16,54.75 168.16,54.41 168.44,54.41 168.44,54.07 168.59,54.07 168.59,53.73 168.66,53.73 168.66,53.38 168.98,53.38 168.98,53.04 169.13,53.04 169.13,52.70 169.29,52.70 169.29,52.36 169.99,52.36 169.99,52.01 171.11,52.01 171.11,51.67 171.57,51.67 171.57,51.33 171.58,51.33 171.58,50.99 171.73,50.99 171.73,50.64 171.86,50.64 171.86,50.30 171.93,50.30 171.93,49.96 172.05,49.96 172.05,49.62 173.19,49.62 173.19,49.27 173.21,49.27 173.21,48.93 173.74,48.93 173.74,48.59 173.87,48.59 173.87,48.25 174.22,48.25 174.22,47.90 174.40,47.90 174.40,47.56 174.69,47.56 174.69,47.22 174.75,47.22 174.75,46.88 175.37,46.88 175.37,46.53 175.45,46.53 175.45,46.19 175.91,46.19 175.91,45.85 175.93,45.85 175.93,45.51 176.12,45.51 176.12,45.17 176.42,45.17 176.42,44.82 176.91,44.82 176.91,44.48 179.50,44.48 179.50,44.14 179.53,44.14 179.53,43.80 180.04,43.80 180.04,43.45 180.29,43.45 180.29,43.11 180.91,43.11 180.91,42.77 181.13,42.77 181.13,42.43 181.58,42.43 181.58,42.08 181.63,42.08 181.63,41.74 183.03,41.74 183.03,41.40 184.72,41.40 184.72,41.06 184.90,41.06 184.90,40.71 185.82,40.71 185.82,40.37 185.88,40.37 185.88,40.03 185.98,40.03 185.98,39.69 186.05,39.69 186.05,39.34 186.12,39.34 186.12,39.00 187.43,39.00 187.43,38.66 188.69,38.66 188.69,38.32 189.40,38.32 189.40,37.98 190.31,37.98 190.31,37.63 190.41,37.63 190.41,37.29 190.63,37.29 190.63,36.95 190.64,36.95 190.64,36.61 191.32,36.61 191.32,36.26 191.37,36.26 191.37,35.92 191.79,35.92 191.79,35.58 191.98,35.58 191.98,35.24 192.33,35.24 192.33,34.89 192.40,34.89 192.40,34.55 193.34,34.55 193.34,34.21 193.35,34.21 193.35,33.87 193.44,33.87 193.44,33.52 193.92,33.52 193.92,33.18 194.84,33.18 194.84,32.84 196.85,32.84 196.85,32.50 197.85,32.50 197.85,32.15 198.73,32.15 198.73,31.81 199.07,31.81 199.07,31.47 199.15,31.47 199.15,31.13 199.65,31.13 199.65,30.79 201.06,30.79 201.06,30.44 201.24,30.44 201.24,30.10 204.38,30.10 204.38,29.76 205.89,29.76 205.89,29.42 206.54,29.42 206.54,29.07 207.21,29.07 207.21,28.73 207.23,28.73 207.23,28.39 207.59,28.39 207.59,28.05 210.40,28.05 210.40,27.70 210.92,27.70 210.92,27.36 211.31,27.36 211.31,27.02 211.37,27.02 211.37,26.68 213.40,26.68 213.40,26.33 214.73,26.33 214.73,25.99 215.16,25.99 215.16,25.65 220.81,25.65 220.81,25.31 222.97,25.31 222.97,24.96 225.33,24.96 225.33,24.62 230.16,24.62 230.16,24.28 246.78,24.28 246.78,23.94 258.51,23.94 258.51,23.60 387.97,23.60 387.97,23.60 "
         style="stroke-width: 2.13; stroke: #E41A1C; stroke-linecap: butt;"
         id="polyline19" />
      <polyline
         points="65.25,365.98 79.92,365.98 79.92,365.64 79.94,365.64 79.94,365.30 80.10,365.30 80.10,364.95 80.24,364.95 80.24,364.61 80.35,364.61 80.35,364.27 80.50,364.27 80.50,363.93 80.81,363.93 80.81,363.58 80.83,363.58 80.83,363.24 80.85,363.24 80.85,362.90 80.92,362.90 80.92,362.56 80.98,362.56 80.98,362.22 81.07,362.22 81.07,361.87 81.19,361.87 81.19,361.53 81.22,361.53 81.22,361.19 81.28,361.19 81.28,360.85 81.30,360.85 81.30,360.50 81.34,360.50 81.34,360.16 81.39,360.16 81.39,359.82 81.52,359.82 81.52,359.48 81.67,359.48 81.67,359.13 81.83,359.13 81.83,358.79 82.00,358.79 82.00,358.45 82.11,358.45 82.11,358.11 82.13,358.11 82.13,357.76 82.16,357.76 82.16,357.42 82.18,357.42 82.18,357.08 82.28,357.08 82.28,356.74 82.28,356.74 82.28,356.39 82.35,356.39 82.35,356.05 82.47,356.05 82.47,355.71 82.52,355.71 82.52,355.37 82.56,355.37 82.56,355.03 82.60,355.03 82.60,354.68 82.96,354.68 82.96,354.34 83.02,354.34 83.02,354.00 83.10,354.00 83.10,353.66 83.22,353.66 83.22,353.31 83.22,353.31 83.22,352.97 83.33,352.97 83.33,352.63 83.34,352.63 83.34,352.29 83.45,352.29 83.45,351.94 83.72,351.94 83.72,351.60 83.79,351.60 83.79,351.26 83.85,351.26 83.85,350.92 83.85,350.92 83.85,350.57 83.86,350.57 83.86,350.23 83.86,350.23 83.86,349.89 84.03,349.89 84.03,349.55 84.14,349.55 84.14,349.20 84.15,349.20 84.15,348.86 84.16,348.86 84.16,348.52 84.38,348.52 84.38,348.18 84.49,348.18 84.49,347.83 84.58,347.83 84.58,347.49 84.68,347.49 84.68,347.15 84.70,347.15 84.70,346.81 84.77,346.81 84.77,346.47 84.77,346.47 84.77,346.12 84.95,346.12 84.95,345.78 84.99,345.78 84.99,345.44 85.02,345.44 85.02,345.10 85.06,345.10 85.06,344.75 85.10,344.75 85.10,344.41 85.12,344.41 85.12,344.07 85.16,344.07 85.16,343.73 85.31,343.73 85.31,343.38 85.35,343.38 85.35,343.04 85.43,343.04 85.43,342.70 85.51,342.70 85.51,342.36 85.53,342.36 85.53,342.01 85.68,342.01 85.68,341.67 85.73,341.67 85.73,341.33 85.75,341.33 85.75,340.99 85.80,340.99 85.80,340.64 85.88,340.64 85.88,340.30 85.93,340.30 85.93,339.96 85.99,339.96 85.99,339.62 86.03,339.62 86.03,339.28 86.04,339.28 86.04,338.93 86.07,338.93 86.07,338.59 86.17,338.59 86.17,338.25 86.49,338.25 86.49,337.91 86.57,337.91 86.57,337.56 86.67,337.56 86.67,337.22 86.70,337.22 86.70,336.88 86.74,336.88 86.74,336.54 86.76,336.54 86.76,336.19 86.76,336.19 86.76,335.85 86.86,335.85 86.86,335.51 86.86,335.51 86.86,335.17 86.87,335.17 86.87,334.82 86.99,334.82 86.99,334.48 87.14,334.48 87.14,334.14 87.21,334.14 87.21,333.80 87.35,333.80 87.35,333.45 87.46,333.45 87.46,333.11 87.47,333.11 87.47,332.77 87.49,332.77 87.49,332.43 87.69,332.43 87.69,332.09 87.71,332.09 87.71,331.74 87.73,331.74 87.73,331.40 87.73,331.40 87.73,331.06 87.79,331.06 87.79,330.72 87.80,330.72 87.80,330.37 87.81,330.37 87.81,330.03 87.82,330.03 87.82,329.69 88.03,329.69 88.03,329.35 88.24,329.35 88.24,329.00 88.32,329.00 88.32,328.66 88.32,328.66 88.32,328.32 88.39,328.32 88.39,327.98 88.43,327.98 88.43,327.63 88.44,327.63 88.44,327.29 88.45,327.29 88.45,326.95 88.45,326.95 88.45,326.61 88.45,326.61 88.45,326.26 88.48,326.26 88.48,325.92 88.52,325.92 88.52,325.58 88.54,325.58 88.54,325.24 88.67,325.24 88.67,324.90 88.95,324.90 88.95,324.55 89.23,324.55 89.23,324.21 89.27,324.21 89.27,323.87 89.31,323.87 89.31,323.53 89.66,323.53 89.66,323.18 89.75,323.18 89.75,322.84 89.92,322.84 89.92,322.50 90.14,322.50 90.14,322.16 90.14,322.16 90.14,321.81 90.25,321.81 90.25,321.47 90.69,321.47 90.69,321.13 90.78,321.13 90.78,320.79 90.79,320.79 90.79,320.44 90.80,320.44 90.80,320.10 90.82,320.10 90.82,319.76 90.92,319.76 90.92,319.42 90.93,319.42 90.93,319.07 91.19,319.07 91.19,318.73 91.20,318.73 91.20,318.39 91.20,318.39 91.20,318.05 91.25,318.05 91.25,317.70 91.28,317.70 91.28,317.36 91.45,317.36 91.45,317.02 91.48,317.02 91.48,316.68 91.69,316.68 91.69,316.34 91.76,316.34 91.76,315.99 92.19,315.99 92.19,315.65 92.31,315.65 92.31,315.31 92.63,315.31 92.63,314.97 92.82,314.97 92.82,314.62 92.92,314.62 92.92,314.28 92.96,314.28 92.96,313.94 93.07,313.94 93.07,313.60 93.15,313.60 93.15,313.25 93.18,313.25 93.18,312.91 93.22,312.91 93.22,312.57 93.26,312.57 93.26,312.23 93.32,312.23 93.32,311.88 93.40,311.88 93.40,311.54 93.61,311.54 93.61,311.20 93.69,311.20 93.69,310.86 94.12,310.86 94.12,310.51 94.13,310.51 94.13,310.17 94.47,310.17 94.47,309.83 94.59,309.83 94.59,309.49 94.59,309.49 94.59,309.15 94.60,309.15 94.60,308.80 94.60,308.80 94.60,308.46 94.82,308.46 94.82,308.12 94.91,308.12 94.91,307.78 95.11,307.78 95.11,307.43 95.21,307.43 95.21,307.09 95.31,307.09 95.31,306.75 95.39,306.75 95.39,306.41 95.62,306.41 95.62,306.06 95.63,306.06 95.63,305.72 95.72,305.72 95.72,305.38 95.80,305.38 95.80,305.04 95.81,305.04 95.81,304.69 95.88,304.69 95.88,304.35 95.93,304.35 95.93,304.01 95.94,304.01 95.94,303.67 95.98,303.67 95.98,303.32 96.03,303.32 96.03,302.98 96.16,302.98 96.16,302.64 96.48,302.64 96.48,302.30 96.60,302.30 96.60,301.96 96.64,301.96 96.64,301.61 96.65,301.61 96.65,301.27 96.66,301.27 96.66,300.93 96.72,300.93 96.72,300.59 96.82,300.59 96.82,300.24 96.86,300.24 96.86,299.90 96.88,299.90 96.88,299.56 96.93,299.56 96.93,299.22 96.95,299.22 96.95,298.87 97.04,298.87 97.04,298.53 97.09,298.53 97.09,298.19 97.10,298.19 97.10,297.85 97.13,297.85 97.13,297.50 97.23,297.50 97.23,297.16 97.35,297.16 97.35,296.82 97.37,296.82 97.37,296.48 97.46,296.48 97.46,296.13 97.47,296.13 97.47,295.79 97.54,295.79 97.54,295.45 97.68,295.45 97.68,295.11 97.69,295.11 97.69,294.77 97.71,294.77 97.71,294.42 97.80,294.42 97.80,294.08 97.86,294.08 97.86,293.74 97.91,293.74 97.91,293.40 98.00,293.40 98.00,293.05 98.08,293.05 98.08,292.71 98.13,292.71 98.13,292.37 98.17,292.37 98.17,292.03 98.30,292.03 98.30,291.68 98.41,291.68 98.41,291.34 98.47,291.34 98.47,291.00 98.50,291.00 98.50,290.66 98.53,290.66 98.53,290.31 98.56,290.31 98.56,289.97 98.58,289.97 98.58,289.63 98.62,289.63 98.62,289.29 98.93,289.29 98.93,288.94 99.01,288.94 99.01,288.60 99.05,288.60 99.05,288.26 99.18,288.26 99.18,287.92 99.33,287.92 99.33,287.57 99.36,287.57 99.36,287.23 99.38,287.23 99.38,286.89 99.44,286.89 99.44,286.55 99.56,286.55 99.56,286.21 99.63,286.21 99.63,285.86 99.67,285.86 99.67,285.52 99.70,285.52 99.70,285.18 99.73,285.18 99.73,284.84 99.74,284.84 99.74,284.49 99.75,284.49 99.75,284.15 99.76,284.15 99.76,283.81 99.80,283.81 99.80,283.47 99.84,283.47 99.84,283.12 100.13,283.12 100.13,282.78 100.22,282.78 100.22,282.44 100.23,282.44 100.23,282.10 100.24,282.10 100.24,281.75 100.27,281.75 100.27,281.41 100.31,281.41 100.31,281.07 100.62,281.07 100.62,280.73 100.98,280.73 100.98,280.38 101.07,280.38 101.07,280.04 101.40,280.04 101.40,279.70 101.40,279.70 101.40,279.36 101.45,279.36 101.45,279.02 101.71,279.02 101.71,278.67 101.80,278.67 101.80,278.33 101.80,278.33 101.80,277.99 101.92,277.99 101.92,277.65 101.92,277.65 101.92,277.30 102.04,277.30 102.04,276.96 102.22,276.96 102.22,276.62 102.31,276.62 102.31,276.28 102.51,276.28 102.51,275.93 102.64,275.93 102.64,275.59 102.77,275.59 102.77,275.25 103.12,275.25 103.12,274.91 103.13,274.91 103.13,274.56 103.14,274.56 103.14,274.22 103.16,274.22 103.16,273.88 103.30,273.88 103.30,273.54 103.60,273.54 103.60,273.19 103.81,273.19 103.81,272.85 103.82,272.85 103.82,272.51 103.86,272.51 103.86,272.17 104.00,272.17 104.00,271.83 104.03,271.83 104.03,271.48 104.04,271.48 104.04,271.14 104.09,271.14 104.09,270.80 104.25,270.80 104.25,270.46 104.36,270.46 104.36,270.11 104.47,270.11 104.47,269.77 104.63,269.77 104.63,269.43 104.64,269.43 104.64,269.09 104.65,269.09 104.65,268.74 104.72,268.74 104.72,268.40 104.83,268.40 104.83,268.06 104.94,268.06 104.94,267.72 104.94,267.72 104.94,267.37 105.06,267.37 105.06,267.03 105.14,267.03 105.14,266.69 105.14,266.69 105.14,266.35 105.33,266.35 105.33,266.00 105.34,266.00 105.34,265.66 105.65,265.66 105.65,265.32 105.77,265.32 105.77,264.98 105.83,264.98 105.83,264.64 105.91,264.64 105.91,264.29 106.04,264.29 106.04,263.95 106.12,263.95 106.12,263.61 106.15,263.61 106.15,263.27 106.23,263.27 106.23,262.92 106.30,262.92 106.30,262.58 106.36,262.58 106.36,262.24 106.41,262.24 106.41,261.90 106.48,261.90 106.48,261.55 106.67,261.55 106.67,261.21 106.76,261.21 106.76,260.87 106.81,260.87 106.81,260.53 106.94,260.53 106.94,260.18 107.10,260.18 107.10,259.84 107.11,259.84 107.11,259.50 107.34,259.50 107.34,259.16 107.38,259.16 107.38,258.81 107.39,258.81 107.39,258.47 107.68,258.47 107.68,258.13 107.70,258.13 107.70,257.79 107.72,257.79 107.72,257.44 107.77,257.44 107.77,257.10 107.85,257.10 107.85,256.76 107.88,256.76 107.88,256.42 108.12,256.42 108.12,256.08 108.15,256.08 108.15,255.73 108.20,255.73 108.20,255.39 108.56,255.39 108.56,255.05 108.58,255.05 108.58,254.71 108.62,254.71 108.62,254.36 108.69,254.36 108.69,254.02 108.71,254.02 108.71,253.68 108.82,253.68 108.82,253.34 108.90,253.34 108.90,252.99 108.95,252.99 108.95,252.65 109.00,252.65 109.00,252.31 109.04,252.31 109.04,251.97 109.07,251.97 109.07,251.62 109.10,251.62 109.10,251.28 109.21,251.28 109.21,250.94 109.24,250.94 109.24,250.60 109.39,250.60 109.39,250.25 109.40,250.25 109.40,249.91 109.40,249.91 109.40,249.57 109.41,249.57 109.41,249.23 109.45,249.23 109.45,248.89 109.61,248.89 109.61,248.54 109.62,248.54 109.62,248.20 109.83,248.20 109.83,247.86 109.85,247.86 109.85,247.52 109.92,247.52 109.92,247.17 110.03,247.17 110.03,246.83 110.04,246.83 110.04,246.49 110.09,246.49 110.09,246.15 110.24,246.15 110.24,245.80 110.25,245.80 110.25,245.46 110.35,245.46 110.35,245.12 110.37,245.12 110.37,244.78 110.77,244.78 110.77,244.43 110.78,244.43 110.78,244.09 110.78,244.09 110.78,243.75 110.79,243.75 110.79,243.41 110.95,243.41 110.95,243.06 110.99,243.06 110.99,242.72 111.00,242.72 111.00,242.38 111.10,242.38 111.10,242.04 111.14,242.04 111.14,241.70 111.20,241.70 111.20,241.35 111.29,241.35 111.29,241.01 111.30,241.01 111.30,240.67 111.30,240.67 111.30,240.33 111.36,240.33 111.36,239.98 111.37,239.98 111.37,239.64 111.48,239.64 111.48,239.30 111.62,239.30 111.62,238.96 111.72,238.96 111.72,238.61 111.81,238.61 111.81,238.27 111.85,238.27 111.85,237.93 112.04,237.93 112.04,237.59 112.06,237.59 112.06,237.24 112.21,237.24 112.21,236.90 112.27,236.90 112.27,236.56 112.30,236.56 112.30,236.22 112.42,236.22 112.42,235.87 112.54,235.87 112.54,235.53 112.55,235.53 112.55,235.19 112.57,235.19 112.57,234.85 112.60,234.85 112.60,234.51 112.77,234.51 112.77,234.16 113.10,234.16 113.10,233.82 113.11,233.82 113.11,233.48 113.13,233.48 113.13,233.14 113.14,233.14 113.14,232.79 113.32,232.79 113.32,232.45 113.41,232.45 113.41,232.11 113.47,232.11 113.47,231.77 113.66,231.77 113.66,231.42 113.73,231.42 113.73,231.08 113.82,231.08 113.82,230.74 113.85,230.74 113.85,230.40 114.03,230.40 114.03,230.05 114.05,230.05 114.05,229.71 114.21,229.71 114.21,229.37 114.21,229.37 114.21,229.03 114.35,229.03 114.35,228.68 114.36,228.68 114.36,228.34 114.51,228.34 114.51,228.00 114.54,228.00 114.54,227.66 114.61,227.66 114.61,227.31 114.67,227.31 114.67,226.97 114.70,226.97 114.70,226.63 114.73,226.63 114.73,226.29 114.84,226.29 114.84,225.95 114.89,225.95 114.89,225.60 114.95,225.60 114.95,225.26 115.27,225.26 115.27,224.92 115.29,224.92 115.29,224.58 115.62,224.58 115.62,224.23 115.67,224.23 115.67,223.89 115.68,223.89 115.68,223.55 115.78,223.55 115.78,223.21 115.86,223.21 115.86,222.86 115.98,222.86 115.98,222.52 116.00,222.52 116.00,222.18 116.06,222.18 116.06,221.84 116.24,221.84 116.24,221.49 116.28,221.49 116.28,221.15 116.38,221.15 116.38,220.81 116.44,220.81 116.44,220.47 116.54,220.47 116.54,220.12 116.55,220.12 116.55,219.78 116.56,219.78 116.56,219.44 116.73,219.44 116.73,219.10 116.79,219.10 116.79,218.76 116.94,218.76 116.94,218.41 116.98,218.41 116.98,218.07 117.04,218.07 117.04,217.73 117.15,217.73 117.15,217.39 117.23,217.39 117.23,217.04 117.72,217.04 117.72,216.70 118.06,216.70 118.06,216.36 118.09,216.36 118.09,216.02 118.14,216.02 118.14,215.67 118.24,215.67 118.24,215.33 118.61,215.33 118.61,214.99 118.74,214.99 118.74,214.65 118.79,214.65 118.79,214.30 118.86,214.30 118.86,213.96 118.91,213.96 118.91,213.62 118.98,213.62 118.98,213.28 119.03,213.28 119.03,212.93 119.03,212.93 119.03,212.59 119.13,212.59 119.13,212.25 119.31,212.25 119.31,211.91 119.54,211.91 119.54,211.57 119.64,211.57 119.64,211.22 119.69,211.22 119.69,210.88 119.80,210.88 119.80,210.54 119.90,210.54 119.90,210.20 120.13,210.20 120.13,209.85 120.15,209.85 120.15,209.51 120.19,209.51 120.19,209.17 120.36,209.17 120.36,208.83 120.50,208.83 120.50,208.48 120.58,208.48 120.58,208.14 120.69,208.14 120.69,207.80 120.71,207.80 120.71,207.46 120.78,207.46 120.78,207.11 120.97,207.11 120.97,206.77 121.15,206.77 121.15,206.43 121.26,206.43 121.26,206.09 121.28,206.09 121.28,205.74 121.34,205.74 121.34,205.40 121.46,205.40 121.46,205.06 121.49,205.06 121.49,204.72 121.50,204.72 121.50,204.38 121.54,204.38 121.54,204.03 121.57,204.03 121.57,203.69 121.84,203.69 121.84,203.35 121.92,203.35 121.92,203.01 122.08,203.01 122.08,202.66 122.13,202.66 122.13,202.32 122.22,202.32 122.22,201.98 122.23,201.98 122.23,201.64 122.27,201.64 122.27,201.29 122.27,201.29 122.27,200.95 122.28,200.95 122.28,200.61 122.37,200.61 122.37,200.27 122.47,200.27 122.47,199.92 122.55,199.92 122.55,199.58 122.85,199.58 122.85,199.24 123.09,199.24 123.09,198.90 123.13,198.90 123.13,198.55 123.23,198.55 123.23,198.21 123.37,198.21 123.37,197.87 123.49,197.87 123.49,197.53 123.69,197.53 123.69,197.18 123.78,197.18 123.78,196.84 123.80,196.84 123.80,196.50 123.88,196.50 123.88,196.16 123.96,196.16 123.96,195.82 124.06,195.82 124.06,195.47 124.13,195.47 124.13,195.13 124.31,195.13 124.31,194.79 124.33,194.79 124.33,194.45 124.35,194.45 124.35,194.10 124.69,194.10 124.69,193.76 124.97,193.76 124.97,193.42 125.07,193.42 125.07,193.08 125.14,193.08 125.14,192.73 125.59,192.73 125.59,192.39 125.67,192.39 125.67,192.05 125.68,192.05 125.68,191.71 125.69,191.71 125.69,191.36 125.73,191.36 125.73,191.02 125.75,191.02 125.75,190.68 125.84,190.68 125.84,190.34 125.98,190.34 125.98,189.99 126.15,189.99 126.15,189.65 126.17,189.65 126.17,189.31 126.33,189.31 126.33,188.97 126.37,188.97 126.37,188.63 126.48,188.63 126.48,188.28 126.69,188.28 126.69,187.94 126.71,187.94 126.71,187.60 126.78,187.60 126.78,187.26 126.78,187.26 126.78,186.91 126.91,186.91 126.91,186.57 126.99,186.57 126.99,186.23 127.06,186.23 127.06,185.89 127.09,185.89 127.09,185.54 127.16,185.54 127.16,185.20 127.48,185.20 127.48,184.86 127.50,184.86 127.50,184.52 127.57,184.52 127.57,184.17 127.61,184.17 127.61,183.83 127.76,183.83 127.76,183.49 127.93,183.49 127.93,183.15 127.95,183.15 127.95,182.80 127.97,182.80 127.97,182.46 128.02,182.46 128.02,182.12 128.14,182.12 128.14,181.78 128.26,181.78 128.26,181.44 128.45,181.44 128.45,181.09 128.51,181.09 128.51,180.75 128.53,180.75 128.53,180.41 128.55,180.41 128.55,180.07 128.61,180.07 128.61,179.72 128.89,179.72 128.89,179.38 128.99,179.38 128.99,179.04 129.05,179.04 129.05,178.70 129.21,178.70 129.21,178.35 129.22,178.35 129.22,178.01 129.23,178.01 129.23,177.67 129.47,177.67 129.47,177.33 129.47,177.33 129.47,176.98 129.53,176.98 129.53,176.64 129.54,176.64 129.54,176.30 129.59,176.30 129.59,175.96 129.68,175.96 129.68,175.61 129.73,175.61 129.73,175.27 129.75,175.27 129.75,174.93 129.82,174.93 129.82,174.59 129.84,174.59 129.84,174.25 129.93,174.25 129.93,173.90 130.04,173.90 130.04,173.56 130.15,173.56 130.15,173.22 130.20,173.22 130.20,172.88 130.48,172.88 130.48,172.53 130.62,172.53 130.62,172.19 130.79,172.19 130.79,171.85 130.87,171.85 130.87,171.51 131.04,171.51 131.04,171.16 131.11,171.16 131.11,170.82 131.19,170.82 131.19,170.48 131.30,170.48 131.30,170.14 131.70,170.14 131.70,169.79 131.88,169.79 131.88,169.45 131.89,169.45 131.89,169.11 132.02,169.11 132.02,168.77 132.06,168.77 132.06,168.42 132.18,168.42 132.18,168.08 132.19,168.08 132.19,167.74 132.24,167.74 132.24,167.40 132.35,167.40 132.35,167.05 132.38,167.05 132.38,166.71 132.44,166.71 132.44,166.37 132.83,166.37 132.83,166.03 132.86,166.03 132.86,165.69 132.88,165.69 132.88,165.34 132.99,165.34 132.99,165.00 133.02,165.00 133.02,164.66 133.20,164.66 133.20,164.32 133.30,164.32 133.30,163.97 133.49,163.97 133.49,163.63 133.65,163.63 133.65,163.29 133.71,163.29 133.71,162.95 133.77,162.95 133.77,162.60 133.84,162.60 133.84,162.26 133.87,162.26 133.87,161.92 134.03,161.92 134.03,161.58 134.21,161.58 134.21,161.23 134.23,161.23 134.23,160.89 134.51,160.89 134.51,160.55 134.53,160.55 134.53,160.21 134.61,160.21 134.61,159.86 134.76,159.86 134.76,159.52 134.81,159.52 134.81,159.18 135.00,159.18 135.00,158.84 135.01,158.84 135.01,158.50 135.02,158.50 135.02,158.15 135.07,158.15 135.07,157.81 135.18,157.81 135.18,157.47 135.32,157.47 135.32,157.13 135.34,157.13 135.34,156.78 135.49,156.78 135.49,156.44 135.56,156.44 135.56,156.10 135.64,156.10 135.64,155.76 135.90,155.76 135.90,155.41 135.94,155.41 135.94,155.07 135.97,155.07 135.97,154.73 135.98,154.73 135.98,154.39 136.05,154.39 136.05,154.04 136.06,154.04 136.06,153.70 136.13,153.70 136.13,153.36 136.15,153.36 136.15,153.02 136.26,153.02 136.26,152.67 136.34,152.67 136.34,152.33 136.40,152.33 136.40,151.99 136.51,151.99 136.51,151.65 136.52,151.65 136.52,151.31 136.70,151.31 136.70,150.96 136.94,150.96 136.94,150.62 137.02,150.62 137.02,150.28 137.27,150.28 137.27,149.94 137.33,149.94 137.33,149.59 137.43,149.59 137.43,149.25 137.62,149.25 137.62,148.91 137.64,148.91 137.64,148.57 137.71,148.57 137.71,148.22 137.88,148.22 137.88,147.88 137.94,147.88 137.94,147.54 137.95,147.54 137.95,147.20 137.96,147.20 137.96,146.85 138.18,146.85 138.18,146.51 138.28,146.51 138.28,146.17 138.34,146.17 138.34,145.83 138.43,145.83 138.43,145.48 138.45,145.48 138.45,145.14 138.66,145.14 138.66,144.80 138.74,144.80 138.74,144.46 138.76,144.46 138.76,144.12 138.85,144.12 138.85,143.77 138.89,143.77 138.89,143.43 138.96,143.43 138.96,143.09 138.96,143.09 138.96,142.75 139.00,142.75 139.00,142.40 139.49,142.40 139.49,142.06 139.50,142.06 139.50,141.72 139.50,141.72 139.50,141.38 139.57,141.38 139.57,141.03 139.60,141.03 139.60,140.69 139.93,140.69 139.93,140.35 140.05,140.35 140.05,140.01 140.07,140.01 140.07,139.66 140.14,139.66 140.14,139.32 140.20,139.32 140.20,138.98 140.42,138.98 140.42,138.64 140.51,138.64 140.51,138.29 140.65,138.29 140.65,137.95 140.70,137.95 140.70,137.61 140.72,137.61 140.72,137.27 140.91,137.27 140.91,136.92 141.13,136.92 141.13,136.58 141.33,136.58 141.33,136.24 141.48,136.24 141.48,135.90 141.55,135.90 141.55,135.56 141.72,135.56 141.72,135.21 141.76,135.21 141.76,134.87 141.77,134.87 141.77,134.53 141.83,134.53 141.83,134.19 142.02,134.19 142.02,133.84 142.12,133.84 142.12,133.50 142.62,133.50 142.62,133.16 143.06,133.16 143.06,132.82 143.43,132.82 143.43,132.47 143.52,132.47 143.52,132.13 143.56,132.13 143.56,131.79 143.80,131.79 143.80,131.45 143.80,131.45 143.80,131.10 143.91,131.10 143.91,130.76 143.91,130.76 143.91,130.42 143.94,130.42 143.94,130.08 144.31,130.08 144.31,129.73 144.38,129.73 144.38,129.39 144.57,129.39 144.57,129.05 144.77,129.05 144.77,128.71 144.87,128.71 144.87,128.37 145.24,128.37 145.24,128.02 145.34,128.02 145.34,127.68 145.37,127.68 145.37,127.34 145.42,127.34 145.42,127.00 145.60,127.00 145.60,126.65 145.79,126.65 145.79,126.31 146.12,126.31 146.12,125.97 146.33,125.97 146.33,125.63 146.38,125.63 146.38,125.28 146.50,125.28 146.50,124.94 146.57,124.94 146.57,124.60 146.85,124.60 146.85,124.26 146.98,124.26 146.98,123.91 147.12,123.91 147.12,123.57 147.28,123.57 147.28,123.23 147.35,123.23 147.35,122.89 147.50,122.89 147.50,122.54 147.61,122.54 147.61,122.20 147.96,122.20 147.96,121.86 147.97,121.86 147.97,121.52 148.23,121.52 148.23,121.18 148.81,121.18 148.81,120.83 148.91,120.83 148.91,120.49 148.99,120.49 148.99,120.15 149.23,120.15 149.23,119.81 149.54,119.81 149.54,119.46 149.57,119.46 149.57,119.12 149.62,119.12 149.62,118.78 149.71,118.78 149.71,118.44 149.88,118.44 149.88,118.09 150.05,118.09 150.05,117.75 150.20,117.75 150.20,117.41 150.42,117.41 150.42,117.07 150.46,117.07 150.46,116.72 150.48,116.72 150.48,116.38 150.66,116.38 150.66,116.04 150.73,116.04 150.73,115.70 151.12,115.70 151.12,115.35 151.16,115.35 151.16,115.01 151.17,115.01 151.17,114.67 151.42,114.67 151.42,114.33 151.98,114.33 151.98,113.99 152.12,113.99 152.12,113.64 152.46,113.64 152.46,113.30 152.58,113.30 152.58,112.96 152.81,112.96 152.81,112.62 152.92,112.62 152.92,112.27 152.93,112.27 152.93,111.93 153.04,111.93 153.04,111.59 153.28,111.59 153.28,111.25 153.29,111.25 153.29,110.90 153.49,110.90 153.49,110.56 153.89,110.56 153.89,110.22 153.92,110.22 153.92,109.88 154.04,109.88 154.04,109.53 154.29,109.53 154.29,109.19 154.37,109.19 154.37,108.85 154.40,108.85 154.40,108.51 155.03,108.51 155.03,108.16 155.06,108.16 155.06,107.82 155.29,107.82 155.29,107.48 155.46,107.48 155.46,107.14 155.62,107.14 155.62,106.79 155.78,106.79 155.78,106.45 156.12,106.45 156.12,106.11 156.31,106.11 156.31,105.77 156.37,105.77 156.37,105.43 156.70,105.43 156.70,105.08 156.78,105.08 156.78,104.74 156.98,104.74 156.98,104.40 157.34,104.40 157.34,104.06 157.47,104.06 157.47,103.71 157.51,103.71 157.51,103.37 157.55,103.37 157.55,103.03 157.69,103.03 157.69,102.69 157.84,102.69 157.84,102.34 157.97,102.34 157.97,102.00 158.04,102.00 158.04,101.66 158.05,101.66 158.05,101.32 158.14,101.32 158.14,100.97 158.18,100.97 158.18,100.63 158.33,100.63 158.33,100.29 158.78,100.29 158.78,99.95 158.87,99.95 158.87,99.60 158.89,99.60 158.89,99.26 159.02,99.26 159.02,98.92 159.42,98.92 159.42,98.58 159.60,98.58 159.60,98.24 159.74,98.24 159.74,97.89 159.85,97.89 159.85,97.55 160.10,97.55 160.10,97.21 160.15,97.21 160.15,96.87 160.34,96.87 160.34,96.52 160.63,96.52 160.63,96.18 160.68,96.18 160.68,95.84 160.99,95.84 160.99,95.50 161.04,95.50 161.04,95.15 161.64,95.15 161.64,94.81 161.77,94.81 161.77,94.47 162.02,94.47 162.02,94.13 162.08,94.13 162.08,93.78 162.15,93.78 162.15,93.44 162.28,93.44 162.28,93.10 162.40,93.10 162.40,92.76 162.66,92.76 162.66,92.41 163.04,92.41 163.04,92.07 163.10,92.07 163.10,91.73 163.13,91.73 163.13,91.39 163.15,91.39 163.15,91.05 163.16,91.05 163.16,90.70 163.19,90.70 163.19,90.36 163.54,90.36 163.54,90.02 163.81,90.02 163.81,89.68 163.97,89.68 163.97,89.33 164.12,89.33 164.12,88.99 164.23,88.99 164.23,88.65 164.42,88.65 164.42,88.31 164.45,88.31 164.45,87.96 164.54,87.96 164.54,87.62 164.55,87.62 164.55,87.28 164.73,87.28 164.73,86.94 164.78,86.94 164.78,86.59 164.81,86.59 164.81,86.25 165.00,86.25 165.00,85.91 165.03,85.91 165.03,85.57 165.21,85.57 165.21,85.22 165.30,85.22 165.30,84.88 166.01,84.88 166.01,84.54 166.02,84.54 166.02,84.20 166.13,84.20 166.13,83.86 166.15,83.86 166.15,83.51 166.19,83.51 166.19,83.17 166.36,83.17 166.36,82.83 166.43,82.83 166.43,82.49 166.45,82.49 166.45,82.14 166.71,82.14 166.71,81.80 167.02,81.80 167.02,81.46 167.20,81.46 167.20,81.12 168.28,81.12 168.28,80.77 168.40,80.77 168.40,80.43 168.56,80.43 168.56,80.09 168.61,80.09 168.61,79.75 168.78,79.75 168.78,79.40 168.91,79.40 168.91,79.06 170.04,79.06 170.04,78.72 170.69,78.72 170.69,78.38 170.74,78.38 170.74,78.03 170.79,78.03 170.79,77.69 170.89,77.69 170.89,77.35 171.02,77.35 171.02,77.01 171.08,77.01 171.08,76.66 171.72,76.66 171.72,76.32 172.80,76.32 172.80,75.98 172.87,75.98 172.87,75.64 173.47,75.64 173.47,75.30 173.89,75.30 173.89,74.95 173.96,74.95 173.96,74.61 174.14,74.61 174.14,74.27 174.21,74.27 174.21,73.93 174.34,73.93 174.34,73.58 174.47,73.58 174.47,73.24 174.51,73.24 174.51,72.90 174.58,72.90 174.58,72.56 174.75,72.56 174.75,72.21 175.01,72.21 175.01,71.87 175.10,71.87 175.10,71.53 175.48,71.53 175.48,71.19 175.84,71.19 175.84,70.84 176.19,70.84 176.19,70.50 176.27,70.50 176.27,70.16 176.32,70.16 176.32,69.82 176.38,69.82 176.38,69.47 176.42,69.47 176.42,69.13 176.85,69.13 176.85,68.79 177.19,68.79 177.19,68.45 177.19,68.45 177.19,68.11 177.23,68.11 177.23,67.76 178.00,67.76 178.00,67.42 178.29,67.42 178.29,67.08 178.40,67.08 178.40,66.74 178.47,66.74 178.47,66.39 178.58,66.39 178.58,66.05 178.61,66.05 178.61,65.71 178.66,65.71 178.66,65.37 179.30,65.37 179.30,65.02 179.58,65.02 179.58,64.68 179.87,64.68 179.87,64.34 180.37,64.34 180.37,64.00 180.49,64.00 180.49,63.65 180.62,63.65 180.62,63.31 180.64,63.31 180.64,62.97 180.67,62.97 180.67,62.63 180.94,62.63 180.94,62.28 181.19,62.28 181.19,61.94 181.21,61.94 181.21,61.60 181.39,61.60 181.39,61.26 181.94,61.26 181.94,60.92 182.66,60.92 182.66,60.57 183.88,60.57 183.88,60.23 184.31,60.23 184.31,59.89 184.45,59.89 184.45,59.55 184.99,59.55 184.99,59.20 185.00,59.20 185.00,58.86 185.47,58.86 185.47,58.52 185.58,58.52 185.58,58.18 185.98,58.18 185.98,57.83 186.38,57.83 186.38,57.49 186.43,57.49 186.43,57.15 187.24,57.15 187.24,56.81 187.31,56.81 187.31,56.46 188.57,56.46 188.57,56.12 189.16,56.12 189.16,55.78 189.28,55.78 189.28,55.44 189.76,55.44 189.76,55.09 189.81,55.09 189.81,54.75 189.86,54.75 189.86,54.41 190.35,54.41 190.35,54.07 191.10,54.07 191.10,53.73 191.55,53.73 191.55,53.38 191.63,53.38 191.63,53.04 192.21,53.04 192.21,52.70 192.43,52.70 192.43,52.36 192.65,52.36 192.65,52.01 192.93,52.01 192.93,51.67 193.15,51.67 193.15,51.33 193.68,51.33 193.68,50.99 193.77,50.99 193.77,50.64 194.15,50.64 194.15,50.30 194.54,50.30 194.54,49.96 194.65,49.96 194.65,49.62 195.03,49.62 195.03,49.27 195.35,49.27 195.35,48.93 195.96,48.93 195.96,48.59 196.96,48.59 196.96,48.25 197.08,48.25 197.08,47.90 198.18,47.90 198.18,47.56 198.84,47.56 198.84,47.22 200.68,47.22 200.68,46.88 200.94,46.88 200.94,46.53 201.47,46.53 201.47,46.19 201.76,46.19 201.76,45.85 201.86,45.85 201.86,45.51 201.88,45.51 201.88,45.17 201.92,45.17 201.92,44.82 202.76,44.82 202.76,44.48 203.46,44.48 203.46,44.14 203.68,44.14 203.68,43.80 204.67,43.80 204.67,43.45 205.05,43.45 205.05,43.11 205.31,43.11 205.31,42.77 205.93,42.77 205.93,42.43 206.31,42.43 206.31,42.08 207.10,42.08 207.10,41.74 207.50,41.74 207.50,41.40 209.40,41.40 209.40,41.06 211.02,41.06 211.02,40.71 212.32,40.71 212.32,40.37 214.40,40.37 214.40,40.03 214.75,40.03 214.75,39.69 215.45,39.69 215.45,39.34 215.67,39.34 215.67,39.00 216.91,39.00 216.91,38.66 218.37,38.66 218.37,38.32 218.56,38.32 218.56,37.98 220.34,37.98 220.34,37.63 221.51,37.63 221.51,37.29 221.64,37.29 221.64,36.95 222.24,36.95 222.24,36.61 222.42,36.61 222.42,36.26 222.79,36.26 222.79,35.92 223.73,35.92 223.73,35.58 224.42,35.58 224.42,35.24 225.01,35.24 225.01,34.89 226.33,34.89 226.33,34.55 226.34,34.55 226.34,34.21 227.56,34.21 227.56,33.87 228.50,33.87 228.50,33.52 229.03,33.52 229.03,33.18 229.42,33.18 229.42,32.84 230.17,32.84 230.17,32.50 230.51,32.50 230.51,32.15 231.31,32.15 231.31,31.81 237.06,31.81 237.06,31.47 240.65,31.47 240.65,31.13 240.67,31.13 240.67,30.79 241.45,30.79 241.45,30.44 241.57,30.44 241.57,30.10 242.66,30.10 242.66,29.76 244.43,29.76 244.43,29.42 244.50,29.42 244.50,29.07 245.08,29.07 245.08,28.73 246.96,28.73 246.96,28.39 249.28,28.39 249.28,28.05 249.43,28.05 249.43,27.70 251.10,27.70 251.10,27.36 251.73,27.36 251.73,27.02 253.43,27.02 253.43,26.68 254.05,26.68 254.05,26.33 254.44,26.33 254.44,25.99 256.12,25.99 256.12,25.65 258.41,25.65 258.41,25.31 266.52,25.31 266.52,24.96 269.46,24.96 269.46,24.62 271.75,24.62 271.75,24.28 287.50,24.28 287.50,23.94 307.40,23.94 307.40,23.60 387.97,23.60 387.97,23.60 "
         style="stroke-width: 2.13; stroke: #377EB8; stroke-linecap: butt;"
         id="polyline20" />
      <polyline
         points="65.25,365.98 79.98,365.98 79.98,365.64 80.22,365.64 80.22,365.30 80.27,365.30 80.27,364.95 80.62,364.95 80.62,364.61 80.76,364.61 80.76,364.27 80.91,364.27 80.91,363.93 80.99,363.93 80.99,363.58 81.21,363.58 81.21,363.24 81.28,363.24 81.28,362.90 81.42,362.90 81.42,362.56 81.46,362.56 81.46,362.22 81.54,362.22 81.54,361.87 81.61,361.87 81.61,361.53 81.72,361.53 81.72,361.19 81.85,361.19 81.85,360.85 81.87,360.85 81.87,360.50 81.97,360.50 81.97,360.16 82.12,360.16 82.12,359.82 82.14,359.82 82.14,359.48 82.20,359.48 82.20,359.13 82.29,359.13 82.29,358.79 82.31,358.79 82.31,358.45 82.34,358.45 82.34,358.11 82.44,358.11 82.44,357.76 82.59,357.76 82.59,357.42 82.61,357.42 82.61,357.08 82.78,357.08 82.78,356.74 82.78,356.74 82.78,356.39 82.81,356.39 82.81,356.05 82.92,356.05 82.92,355.71 83.01,355.71 83.01,355.37 83.21,355.37 83.21,355.03 83.26,355.03 83.26,354.68 83.35,354.68 83.35,354.34 83.55,354.34 83.55,354.00 83.62,354.00 83.62,353.66 83.79,353.66 83.79,353.31 84.06,353.31 84.06,352.97 84.07,352.97 84.07,352.63 84.08,352.63 84.08,352.29 84.17,352.29 84.17,351.94 84.20,351.94 84.20,351.60 84.23,351.60 84.23,351.26 84.25,351.26 84.25,350.92 84.26,350.92 84.26,350.57 84.29,350.57 84.29,350.23 84.30,350.23 84.30,349.89 84.37,349.89 84.37,349.55 84.40,349.55 84.40,349.20 84.69,349.20 84.69,348.86 84.75,348.86 84.75,348.52 84.82,348.52 84.82,348.18 84.83,348.18 84.83,347.83 84.91,347.83 84.91,347.49 85.14,347.49 85.14,347.15 85.25,347.15 85.25,346.81 85.33,346.81 85.33,346.47 85.35,346.47 85.35,346.12 85.39,346.12 85.39,345.78 85.49,345.78 85.49,345.44 85.59,345.44 85.59,345.10 85.71,345.10 85.71,344.75 85.75,344.75 85.75,344.41 85.84,344.41 85.84,344.07 85.84,344.07 85.84,343.73 85.95,343.73 85.95,343.38 85.97,343.38 85.97,343.04 86.07,343.04 86.07,342.70 86.08,342.70 86.08,342.36 86.10,342.36 86.10,342.01 86.14,342.01 86.14,341.67 86.17,341.67 86.17,341.33 86.25,341.33 86.25,340.99 86.27,340.99 86.27,340.64 86.37,340.64 86.37,340.30 86.38,340.30 86.38,339.96 86.42,339.96 86.42,339.62 86.44,339.62 86.44,339.28 86.48,339.28 86.48,338.93 86.49,338.93 86.49,338.59 86.51,338.59 86.51,338.25 86.51,338.25 86.51,337.91 86.81,337.91 86.81,337.56 86.86,337.56 86.86,337.22 86.93,337.22 86.93,336.88 86.99,336.88 86.99,336.54 87.08,336.54 87.08,336.19 87.18,336.19 87.18,335.85 87.28,335.85 87.28,335.51 87.36,335.51 87.36,335.17 87.41,335.17 87.41,334.82 87.53,334.82 87.53,334.48 87.55,334.48 87.55,334.14 87.60,334.14 87.60,333.80 87.67,333.80 87.67,333.45 87.70,333.45 87.70,333.11 87.93,333.11 87.93,332.77 87.97,332.77 87.97,332.43 88.03,332.43 88.03,332.09 88.13,332.09 88.13,331.74 88.13,331.74 88.13,331.40 88.30,331.40 88.30,331.06 88.31,331.06 88.31,330.72 88.44,330.72 88.44,330.37 88.55,330.37 88.55,330.03 88.74,330.03 88.74,329.69 88.77,329.69 88.77,329.35 88.91,329.35 88.91,329.00 89.04,329.00 89.04,328.66 89.10,328.66 89.10,328.32 89.19,328.32 89.19,327.98 89.36,327.98 89.36,327.63 89.60,327.63 89.60,327.29 89.84,327.29 89.84,326.95 89.86,326.95 89.86,326.61 89.88,326.61 89.88,326.26 90.04,326.26 90.04,325.92 90.13,325.92 90.13,325.58 90.17,325.58 90.17,325.24 90.23,325.24 90.23,324.90 90.34,324.90 90.34,324.55 90.50,324.55 90.50,324.21 90.53,324.21 90.53,323.87 90.59,323.87 90.59,323.53 90.74,323.53 90.74,323.18 90.86,323.18 90.86,322.84 90.95,322.84 90.95,322.50 91.03,322.50 91.03,322.16 91.14,322.16 91.14,321.81 91.14,321.81 91.14,321.47 91.17,321.47 91.17,321.13 91.23,321.13 91.23,320.79 91.50,320.79 91.50,320.44 91.74,320.44 91.74,320.10 92.07,320.10 92.07,319.76 92.14,319.76 92.14,319.42 92.25,319.42 92.25,319.07 92.28,319.07 92.28,318.73 92.40,318.73 92.40,318.39 92.43,318.39 92.43,318.05 92.48,318.05 92.48,317.70 92.54,317.70 92.54,317.36 92.55,317.36 92.55,317.02 92.64,317.02 92.64,316.68 92.69,316.68 92.69,316.34 92.71,316.34 92.71,315.99 92.72,315.99 92.72,315.65 92.77,315.65 92.77,315.31 92.79,315.31 92.79,314.97 93.05,314.97 93.05,314.62 93.28,314.62 93.28,314.28 93.34,314.28 93.34,313.94 93.73,313.94 93.73,313.60 93.79,313.60 93.79,313.25 93.79,313.25 93.79,312.91 93.80,312.91 93.80,312.57 93.95,312.57 93.95,312.23 93.98,312.23 93.98,311.88 94.07,311.88 94.07,311.54 94.08,311.54 94.08,311.20 94.22,311.20 94.22,310.86 94.55,310.86 94.55,310.51 94.57,310.51 94.57,310.17 94.57,310.17 94.57,309.83 94.77,309.83 94.77,309.49 94.89,309.49 94.89,309.15 94.92,309.15 94.92,308.80 94.97,308.80 94.97,308.46 95.12,308.46 95.12,308.12 95.35,308.12 95.35,307.78 95.37,307.78 95.37,307.43 95.40,307.43 95.40,307.09 95.54,307.09 95.54,306.75 95.64,306.75 95.64,306.41 95.71,306.41 95.71,306.06 95.94,306.06 95.94,305.72 95.94,305.72 95.94,305.38 96.00,305.38 96.00,305.04 96.36,305.04 96.36,304.69 96.41,304.69 96.41,304.35 96.57,304.35 96.57,304.01 96.61,304.01 96.61,303.67 96.80,303.67 96.80,303.32 96.89,303.32 96.89,302.98 97.00,302.98 97.00,302.64 97.10,302.64 97.10,302.30 97.26,302.30 97.26,301.96 97.31,301.96 97.31,301.61 97.43,301.61 97.43,301.27 97.48,301.27 97.48,300.93 97.50,300.93 97.50,300.59 97.55,300.59 97.55,300.24 97.55,300.24 97.55,299.90 97.63,299.90 97.63,299.56 97.73,299.56 97.73,299.22 97.76,299.22 97.76,298.87 97.85,298.87 97.85,298.53 97.99,298.53 97.99,298.19 98.07,298.19 98.07,297.85 98.12,297.85 98.12,297.50 98.26,297.50 98.26,297.16 98.31,297.16 98.31,296.82 98.42,296.82 98.42,296.48 98.51,296.48 98.51,296.13 98.81,296.13 98.81,295.79 98.98,295.79 98.98,295.45 99.04,295.45 99.04,295.11 99.09,295.11 99.09,294.77 99.34,294.77 99.34,294.42 99.58,294.42 99.58,294.08 99.72,294.08 99.72,293.74 99.73,293.74 99.73,293.40 99.86,293.40 99.86,293.05 99.88,293.05 99.88,292.71 99.93,292.71 99.93,292.37 99.93,292.37 99.93,292.03 100.16,292.03 100.16,291.68 100.29,291.68 100.29,291.34 100.30,291.34 100.30,291.00 100.35,291.00 100.35,290.66 100.35,290.66 100.35,290.31 100.54,290.31 100.54,289.97 100.56,289.97 100.56,289.63 100.74,289.63 100.74,289.29 100.96,289.29 100.96,288.94 101.09,288.94 101.09,288.60 101.09,288.60 101.09,288.26 101.11,288.26 101.11,287.92 101.63,287.92 101.63,287.57 101.78,287.57 101.78,287.23 102.30,287.23 102.30,286.89 102.40,286.89 102.40,286.55 102.41,286.55 102.41,286.21 102.50,286.21 102.50,285.86 102.61,285.86 102.61,285.52 102.69,285.52 102.69,285.18 102.71,285.18 102.71,284.84 102.85,284.84 102.85,284.49 102.94,284.49 102.94,284.15 103.07,284.15 103.07,283.81 103.11,283.81 103.11,283.47 103.20,283.47 103.20,283.12 103.21,283.12 103.21,282.78 103.32,282.78 103.32,282.44 103.35,282.44 103.35,282.10 103.55,282.10 103.55,281.75 103.73,281.75 103.73,281.41 103.80,281.41 103.80,281.07 103.85,281.07 103.85,280.73 103.96,280.73 103.96,280.38 103.97,280.38 103.97,280.04 104.03,280.04 104.03,279.70 104.07,279.70 104.07,279.36 104.12,279.36 104.12,279.02 104.20,279.02 104.20,278.67 104.29,278.67 104.29,278.33 104.36,278.33 104.36,277.99 104.55,277.99 104.55,277.65 104.70,277.65 104.70,277.30 104.94,277.30 104.94,276.96 104.96,276.96 104.96,276.62 105.07,276.62 105.07,276.28 105.27,276.28 105.27,275.93 105.29,275.93 105.29,275.59 105.48,275.59 105.48,275.25 105.49,275.25 105.49,274.91 105.49,274.91 105.49,274.56 105.60,274.56 105.60,274.22 105.69,274.22 105.69,273.88 105.84,273.88 105.84,273.54 105.85,273.54 105.85,273.19 105.98,273.19 105.98,272.85 106.03,272.85 106.03,272.51 106.23,272.51 106.23,272.17 106.29,272.17 106.29,271.83 106.42,271.83 106.42,271.48 106.52,271.48 106.52,271.14 106.53,271.14 106.53,270.80 106.55,270.80 106.55,270.46 106.62,270.46 106.62,270.11 106.98,270.11 106.98,269.77 107.26,269.77 107.26,269.43 107.37,269.43 107.37,269.09 107.55,269.09 107.55,268.74 107.57,268.74 107.57,268.40 107.61,268.40 107.61,268.06 107.64,268.06 107.64,267.72 107.69,267.72 107.69,267.37 107.74,267.37 107.74,267.03 107.86,267.03 107.86,266.69 107.88,266.69 107.88,266.35 107.93,266.35 107.93,266.00 107.97,266.00 107.97,265.66 107.98,265.66 107.98,265.32 107.98,265.32 107.98,264.98 108.18,264.98 108.18,264.64 108.32,264.64 108.32,264.29 108.34,264.29 108.34,263.95 108.38,263.95 108.38,263.61 108.57,263.61 108.57,263.27 108.57,263.27 108.57,262.92 108.64,262.92 108.64,262.58 108.70,262.58 108.70,262.24 108.89,262.24 108.89,261.90 109.03,261.90 109.03,261.55 109.14,261.55 109.14,261.21 109.36,261.21 109.36,260.87 109.39,260.87 109.39,260.53 109.63,260.53 109.63,260.18 109.83,260.18 109.83,259.84 109.85,259.84 109.85,259.50 110.00,259.50 110.00,259.16 110.12,259.16 110.12,258.81 110.18,258.81 110.18,258.47 110.20,258.47 110.20,258.13 110.21,258.13 110.21,257.79 110.28,257.79 110.28,257.44 110.35,257.44 110.35,257.10 110.41,257.10 110.41,256.76 110.58,256.76 110.58,256.42 110.60,256.42 110.60,256.08 110.61,256.08 110.61,255.73 110.82,255.73 110.82,255.39 110.85,255.39 110.85,255.05 111.18,255.05 111.18,254.71 111.40,254.71 111.40,254.36 111.51,254.36 111.51,254.02 111.63,254.02 111.63,253.68 111.68,253.68 111.68,253.34 111.87,253.34 111.87,252.99 111.88,252.99 111.88,252.65 112.17,252.65 112.17,252.31 112.17,252.31 112.17,251.97 112.34,251.97 112.34,251.62 112.46,251.62 112.46,251.28 112.62,251.28 112.62,250.94 112.62,250.94 112.62,250.60 112.64,250.60 112.64,250.25 112.71,250.25 112.71,249.91 112.97,249.91 112.97,249.57 112.98,249.57 112.98,249.23 113.00,249.23 113.00,248.89 113.06,248.89 113.06,248.54 113.17,248.54 113.17,248.20 113.24,248.20 113.24,247.86 113.29,247.86 113.29,247.52 113.34,247.52 113.34,247.17 114.14,247.17 114.14,246.83 114.17,246.83 114.17,246.49 114.37,246.49 114.37,246.15 114.57,246.15 114.57,245.80 114.66,245.80 114.66,245.46 114.71,245.46 114.71,245.12 114.85,245.12 114.85,244.78 114.93,244.78 114.93,244.43 115.11,244.43 115.11,244.09 115.21,244.09 115.21,243.75 115.34,243.75 115.34,243.41 115.39,243.41 115.39,243.06 115.41,243.06 115.41,242.72 115.42,242.72 115.42,242.38 115.71,242.38 115.71,242.04 115.76,242.04 115.76,241.70 115.84,241.70 115.84,241.35 115.96,241.35 115.96,241.01 116.08,241.01 116.08,240.67 116.23,240.67 116.23,240.33 116.34,240.33 116.34,239.98 116.47,239.98 116.47,239.64 116.50,239.64 116.50,239.30 116.52,239.30 116.52,238.96 116.54,238.96 116.54,238.61 116.70,238.61 116.70,238.27 117.04,238.27 117.04,237.93 117.07,237.93 117.07,237.59 117.11,237.59 117.11,237.24 117.20,237.24 117.20,236.90 117.21,236.90 117.21,236.56 117.36,236.56 117.36,236.22 117.38,236.22 117.38,235.87 117.48,235.87 117.48,235.53 117.49,235.53 117.49,235.19 117.54,235.19 117.54,234.85 117.58,234.85 117.58,234.51 117.98,234.51 117.98,234.16 118.00,234.16 118.00,233.82 118.24,233.82 118.24,233.48 118.26,233.48 118.26,233.14 118.52,233.14 118.52,232.79 118.65,232.79 118.65,232.45 118.79,232.45 118.79,232.11 119.11,232.11 119.11,231.77 119.49,231.77 119.49,231.42 119.83,231.42 119.83,231.08 119.91,231.08 119.91,230.74 119.94,230.74 119.94,230.40 120.11,230.40 120.11,230.05 120.23,230.05 120.23,229.71 120.29,229.71 120.29,229.37 120.29,229.37 120.29,229.03 120.51,229.03 120.51,228.68 120.88,228.68 120.88,228.34 121.03,228.34 121.03,228.00 121.03,228.00 121.03,227.66 121.05,227.66 121.05,227.31 121.06,227.31 121.06,226.97 121.26,226.97 121.26,226.63 121.62,226.63 121.62,226.29 121.78,226.29 121.78,225.95 121.88,225.95 121.88,225.60 121.88,225.60 121.88,225.26 121.89,225.26 121.89,224.92 122.30,224.92 122.30,224.58 122.30,224.58 122.30,224.23 122.54,224.23 122.54,223.89 122.59,223.89 122.59,223.55 122.71,223.55 122.71,223.21 122.89,223.21 122.89,222.86 122.93,222.86 122.93,222.52 123.00,222.52 123.00,222.18 123.12,222.18 123.12,221.84 123.18,221.84 123.18,221.49 123.21,221.49 123.21,221.15 123.27,221.15 123.27,220.81 123.35,220.81 123.35,220.47 123.43,220.47 123.43,220.12 123.53,220.12 123.53,219.78 123.53,219.78 123.53,219.44 123.63,219.44 123.63,219.10 123.72,219.10 123.72,218.76 123.79,218.76 123.79,218.41 123.92,218.41 123.92,218.07 123.96,218.07 123.96,217.73 124.12,217.73 124.12,217.39 124.12,217.39 124.12,217.04 124.13,217.04 124.13,216.70 124.18,216.70 124.18,216.36 124.18,216.36 124.18,216.02 124.22,216.02 124.22,215.67 124.33,215.67 124.33,215.33 124.36,215.33 124.36,214.99 124.55,214.99 124.55,214.65 124.61,214.65 124.61,214.30 124.71,214.30 124.71,213.96 124.77,213.96 124.77,213.62 124.85,213.62 124.85,213.28 124.98,213.28 124.98,212.93 125.12,212.93 125.12,212.59 125.29,212.59 125.29,212.25 125.30,212.25 125.30,211.91 125.37,211.91 125.37,211.57 125.83,211.57 125.83,211.22 125.84,211.22 125.84,210.88 125.85,210.88 125.85,210.54 126.01,210.54 126.01,210.20 126.21,210.20 126.21,209.85 126.25,209.85 126.25,209.51 126.31,209.51 126.31,209.17 126.44,209.17 126.44,208.83 126.46,208.83 126.46,208.48 126.68,208.48 126.68,208.14 126.74,208.14 126.74,207.80 126.75,207.80 126.75,207.46 126.93,207.46 126.93,207.11 127.20,207.11 127.20,206.77 127.65,206.77 127.65,206.43 127.68,206.43 127.68,206.09 127.74,206.09 127.74,205.74 127.80,205.74 127.80,205.40 127.89,205.40 127.89,205.06 127.90,205.06 127.90,204.72 128.78,204.72 128.78,204.38 128.83,204.38 128.83,204.03 128.99,204.03 128.99,203.69 129.01,203.69 129.01,203.35 129.30,203.35 129.30,203.01 129.59,203.01 129.59,202.66 129.71,202.66 129.71,202.32 129.75,202.32 129.75,201.98 129.79,201.98 129.79,201.64 129.99,201.64 129.99,201.29 130.04,201.29 130.04,200.95 130.16,200.95 130.16,200.61 130.27,200.61 130.27,200.27 130.53,200.27 130.53,199.92 130.55,199.92 130.55,199.58 130.93,199.58 130.93,199.24 131.04,199.24 131.04,198.90 131.07,198.90 131.07,198.55 131.39,198.55 131.39,198.21 131.43,198.21 131.43,197.87 131.51,197.87 131.51,197.53 131.52,197.53 131.52,197.18 131.61,197.18 131.61,196.84 131.69,196.84 131.69,196.50 131.73,196.50 131.73,196.16 131.82,196.16 131.82,195.82 131.92,195.82 131.92,195.47 132.11,195.47 132.11,195.13 132.35,195.13 132.35,194.79 132.59,194.79 132.59,194.45 132.63,194.45 132.63,194.10 132.83,194.10 132.83,193.76 132.84,193.76 132.84,193.42 132.91,193.42 132.91,193.08 133.10,193.08 133.10,192.73 133.14,192.73 133.14,192.39 133.16,192.39 133.16,192.05 133.24,192.05 133.24,191.71 133.36,191.71 133.36,191.36 133.38,191.36 133.38,191.02 133.68,191.02 133.68,190.68 133.72,190.68 133.72,190.34 133.74,190.34 133.74,189.99 133.91,189.99 133.91,189.65 134.10,189.65 134.10,189.31 134.26,189.31 134.26,188.97 134.52,188.97 134.52,188.63 134.58,188.63 134.58,188.28 134.81,188.28 134.81,187.94 134.86,187.94 134.86,187.60 134.89,187.60 134.89,187.26 134.93,187.26 134.93,186.91 135.03,186.91 135.03,186.57 135.25,186.57 135.25,186.23 135.34,186.23 135.34,185.89 135.37,185.89 135.37,185.54 135.41,185.54 135.41,185.20 135.58,185.20 135.58,184.86 135.68,184.86 135.68,184.52 135.80,184.52 135.80,184.17 136.02,184.17 136.02,183.83 136.04,183.83 136.04,183.49 136.12,183.49 136.12,183.15 136.48,183.15 136.48,182.80 136.61,182.80 136.61,182.46 136.72,182.46 136.72,182.12 136.77,182.12 136.77,181.78 136.91,181.78 136.91,181.44 136.96,181.44 136.96,181.09 137.36,181.09 137.36,180.75 137.68,180.75 137.68,180.41 137.70,180.41 137.70,180.07 137.77,180.07 137.77,179.72 137.79,179.72 137.79,179.38 137.82,179.38 137.82,179.04 137.83,179.04 137.83,178.70 137.94,178.70 137.94,178.35 138.12,178.35 138.12,178.01 138.73,178.01 138.73,177.67 138.79,177.67 138.79,177.33 138.97,177.33 138.97,176.98 139.24,176.98 139.24,176.64 139.50,176.64 139.50,176.30 139.88,176.30 139.88,175.96 140.08,175.96 140.08,175.61 140.20,175.61 140.20,175.27 140.23,175.27 140.23,174.93 140.50,174.93 140.50,174.59 140.58,174.59 140.58,174.25 140.67,174.25 140.67,173.90 140.70,173.90 140.70,173.56 140.73,173.56 140.73,173.22 141.20,173.22 141.20,172.88 141.35,172.88 141.35,172.53 141.69,172.53 141.69,172.19 142.16,172.19 142.16,171.85 142.17,171.85 142.17,171.51 142.24,171.51 142.24,171.16 142.52,171.16 142.52,170.82 142.56,170.82 142.56,170.48 142.64,170.48 142.64,170.14 142.97,170.14 142.97,169.79 143.11,169.79 143.11,169.45 143.43,169.45 143.43,169.11 143.48,169.11 143.48,168.77 143.51,168.77 143.51,168.42 143.60,168.42 143.60,168.08 143.62,168.08 143.62,167.74 143.96,167.74 143.96,167.40 144.00,167.40 144.00,167.05 144.08,167.05 144.08,166.71 144.38,166.71 144.38,166.37 144.50,166.37 144.50,166.03 144.60,166.03 144.60,165.69 144.72,165.69 144.72,165.34 144.95,165.34 144.95,165.00 145.00,165.00 145.00,164.66 145.00,164.66 145.00,164.32 145.14,164.32 145.14,163.97 145.23,163.97 145.23,163.63 145.25,163.63 145.25,163.29 145.34,163.29 145.34,162.95 145.37,162.95 145.37,162.60 145.53,162.60 145.53,162.26 145.53,162.26 145.53,161.92 145.55,161.92 145.55,161.58 145.66,161.58 145.66,161.23 145.84,161.23 145.84,160.89 145.88,160.89 145.88,160.55 146.04,160.55 146.04,160.21 146.29,160.21 146.29,159.86 146.33,159.86 146.33,159.52 146.41,159.52 146.41,159.18 146.42,159.18 146.42,158.84 146.45,158.84 146.45,158.50 146.59,158.50 146.59,158.15 146.80,158.15 146.80,157.81 146.84,157.81 146.84,157.47 147.11,157.47 147.11,157.13 147.26,157.13 147.26,156.78 147.38,156.78 147.38,156.44 147.46,156.44 147.46,156.10 147.63,156.10 147.63,155.76 147.72,155.76 147.72,155.41 147.94,155.41 147.94,155.07 148.00,155.07 148.00,154.73 148.10,154.73 148.10,154.39 148.19,154.39 148.19,154.04 148.25,154.04 148.25,153.70 148.49,153.70 148.49,153.36 148.81,153.36 148.81,153.02 148.98,153.02 148.98,152.67 149.34,152.67 149.34,152.33 149.38,152.33 149.38,151.99 149.38,151.99 149.38,151.65 149.63,151.65 149.63,151.31 149.71,151.31 149.71,150.96 149.73,150.96 149.73,150.62 149.78,150.62 149.78,150.28 149.86,150.28 149.86,149.94 150.28,149.94 150.28,149.59 150.44,149.59 150.44,149.25 150.51,149.25 150.51,148.91 150.86,148.91 150.86,148.57 151.01,148.57 151.01,148.22 151.04,148.22 151.04,147.88 151.07,147.88 151.07,147.54 151.34,147.54 151.34,147.20 151.85,147.20 151.85,146.85 151.95,146.85 151.95,146.51 151.95,146.51 151.95,146.17 152.14,146.17 152.14,145.83 152.47,145.83 152.47,145.48 152.72,145.48 152.72,145.14 152.81,145.14 152.81,144.80 152.90,144.80 152.90,144.46 153.13,144.46 153.13,144.12 153.32,144.12 153.32,143.77 153.61,143.77 153.61,143.43 153.86,143.43 153.86,143.09 154.26,143.09 154.26,142.75 154.42,142.75 154.42,142.40 154.54,142.40 154.54,142.06 154.56,142.06 154.56,141.72 154.61,141.72 154.61,141.38 155.26,141.38 155.26,141.03 155.40,141.03 155.40,140.69 155.52,140.69 155.52,140.35 156.00,140.35 156.00,140.01 156.22,140.01 156.22,139.66 156.30,139.66 156.30,139.32 156.40,139.32 156.40,138.98 156.49,138.98 156.49,138.64 156.66,138.64 156.66,138.29 156.78,138.29 156.78,137.95 156.92,137.95 156.92,137.61 157.00,137.61 157.00,137.27 157.40,137.27 157.40,136.92 157.48,136.92 157.48,136.58 157.53,136.58 157.53,136.24 157.76,136.24 157.76,135.90 157.82,135.90 157.82,135.56 157.92,135.56 157.92,135.21 157.95,135.21 157.95,134.87 158.12,134.87 158.12,134.53 158.33,134.53 158.33,134.19 158.38,134.19 158.38,133.84 158.87,133.84 158.87,133.50 159.12,133.50 159.12,133.16 159.49,133.16 159.49,132.82 159.53,132.82 159.53,132.47 159.95,132.47 159.95,132.13 160.32,132.13 160.32,131.79 160.57,131.79 160.57,131.45 160.67,131.45 160.67,131.10 160.83,131.10 160.83,130.76 160.97,130.76 160.97,130.42 160.99,130.42 160.99,130.08 161.20,130.08 161.20,129.73 161.59,129.73 161.59,129.39 161.80,129.39 161.80,129.05 161.82,129.05 161.82,128.71 162.26,128.71 162.26,128.37 162.48,128.37 162.48,128.02 162.52,128.02 162.52,127.68 163.44,127.68 163.44,127.34 163.48,127.34 163.48,127.00 163.85,127.00 163.85,126.65 163.91,126.65 163.91,126.31 164.01,126.31 164.01,125.97 164.51,125.97 164.51,125.63 164.52,125.63 164.52,125.28 164.53,125.28 164.53,124.94 164.61,124.94 164.61,124.60 164.73,124.60 164.73,124.26 164.78,124.26 164.78,123.91 164.98,123.91 164.98,123.57 165.02,123.57 165.02,123.23 165.17,123.23 165.17,122.89 165.21,122.89 165.21,122.54 165.34,122.54 165.34,122.20 165.52,122.20 165.52,121.86 165.96,121.86 165.96,121.52 165.97,121.52 165.97,121.18 165.99,121.18 165.99,120.83 166.31,120.83 166.31,120.49 166.34,120.49 166.34,120.15 166.51,120.15 166.51,119.81 166.57,119.81 166.57,119.46 166.58,119.46 166.58,119.12 166.75,119.12 166.75,118.78 166.86,118.78 166.86,118.44 167.07,118.44 167.07,118.09 167.25,118.09 167.25,117.75 167.38,117.75 167.38,117.41 167.78,117.41 167.78,117.07 167.85,117.07 167.85,116.72 168.26,116.72 168.26,116.38 168.52,116.38 168.52,116.04 168.56,116.04 168.56,115.70 169.07,115.70 169.07,115.35 169.39,115.35 169.39,115.01 169.48,115.01 169.48,114.67 169.62,114.67 169.62,114.33 169.84,114.33 169.84,113.99 170.05,113.99 170.05,113.64 170.14,113.64 170.14,113.30 170.98,113.30 170.98,112.96 171.32,112.96 171.32,112.62 171.93,112.62 171.93,112.27 171.94,112.27 171.94,111.93 172.04,111.93 172.04,111.59 172.06,111.59 172.06,111.25 172.55,111.25 172.55,110.90 172.79,110.90 172.79,110.56 172.87,110.56 172.87,110.22 173.72,110.22 173.72,109.88 175.17,109.88 175.17,109.53 175.89,109.53 175.89,109.19 176.45,109.19 176.45,108.85 176.89,108.85 176.89,108.51 176.90,108.51 176.90,108.16 177.02,108.16 177.02,107.82 177.04,107.82 177.04,107.48 177.25,107.48 177.25,107.14 177.28,107.14 177.28,106.79 177.63,106.79 177.63,106.45 177.81,106.45 177.81,106.11 177.97,106.11 177.97,105.77 178.22,105.77 178.22,105.43 178.48,105.43 178.48,105.08 178.61,105.08 178.61,104.74 178.63,104.74 178.63,104.40 178.86,104.40 178.86,104.06 179.00,104.06 179.00,103.71 179.15,103.71 179.15,103.37 179.41,103.37 179.41,103.03 179.45,103.03 179.45,102.69 179.52,102.69 179.52,102.34 179.76,102.34 179.76,102.00 179.80,102.00 179.80,101.66 179.86,101.66 179.86,101.32 180.19,101.32 180.19,100.97 180.67,100.97 180.67,100.63 180.79,100.63 180.79,100.29 181.13,100.29 181.13,99.95 181.34,99.95 181.34,99.60 181.38,99.60 181.38,99.26 181.46,99.26 181.46,98.92 181.47,98.92 181.47,98.58 181.76,98.58 181.76,98.24 181.88,98.24 181.88,97.89 181.91,97.89 181.91,97.55 182.26,97.55 182.26,97.21 182.37,97.21 182.37,96.87 182.51,96.87 182.51,96.52 182.82,96.52 182.82,96.18 182.86,96.18 182.86,95.84 183.01,95.84 183.01,95.50 183.33,95.50 183.33,95.15 183.47,95.15 183.47,94.81 183.55,94.81 183.55,94.47 183.71,94.47 183.71,94.13 184.06,94.13 184.06,93.78 184.39,93.78 184.39,93.44 184.75,93.44 184.75,93.10 184.92,93.10 184.92,92.76 184.93,92.76 184.93,92.41 185.29,92.41 185.29,92.07 185.43,92.07 185.43,91.73 185.51,91.73 185.51,91.39 185.65,91.39 185.65,91.05 186.01,91.05 186.01,90.70 186.02,90.70 186.02,90.36 186.04,90.36 186.04,90.02 186.18,90.02 186.18,89.68 186.22,89.68 186.22,89.33 186.43,89.33 186.43,88.99 186.47,88.99 186.47,88.65 186.47,88.65 186.47,88.31 186.53,88.31 186.53,87.96 186.96,87.96 186.96,87.62 187.05,87.62 187.05,87.28 187.06,87.28 187.06,86.94 187.61,86.94 187.61,86.59 187.85,86.59 187.85,86.25 187.86,86.25 187.86,85.91 187.87,85.91 187.87,85.57 188.01,85.57 188.01,85.22 188.26,85.22 188.26,84.88 188.26,84.88 188.26,84.54 188.57,84.54 188.57,84.20 188.73,84.20 188.73,83.86 188.77,83.86 188.77,83.51 188.85,83.51 188.85,83.17 189.11,83.17 189.11,82.83 189.36,82.83 189.36,82.49 189.44,82.49 189.44,82.14 189.53,82.14 189.53,81.80 190.00,81.80 190.00,81.46 190.44,81.46 190.44,81.12 190.49,81.12 190.49,80.77 190.69,80.77 190.69,80.43 190.76,80.43 190.76,80.09 190.90,80.09 190.90,79.75 191.10,79.75 191.10,79.40 191.28,79.40 191.28,79.06 191.42,79.06 191.42,78.72 191.66,78.72 191.66,78.38 191.77,78.38 191.77,78.03 191.86,78.03 191.86,77.69 191.96,77.69 191.96,77.35 192.48,77.35 192.48,77.01 192.73,77.01 192.73,76.66 192.79,76.66 192.79,76.32 193.71,76.32 193.71,75.98 194.08,75.98 194.08,75.64 194.51,75.64 194.51,75.30 194.79,75.30 194.79,74.95 194.93,74.95 194.93,74.61 195.05,74.61 195.05,74.27 195.43,74.27 195.43,73.93 195.55,73.93 195.55,73.58 195.65,73.58 195.65,73.24 196.13,73.24 196.13,72.90 196.23,72.90 196.23,72.56 196.24,72.56 196.24,72.21 196.34,72.21 196.34,71.87 196.48,71.87 196.48,71.53 196.78,71.53 196.78,71.19 196.86,71.19 196.86,70.84 197.08,70.84 197.08,70.50 197.40,70.50 197.40,70.16 197.46,70.16 197.46,69.82 197.72,69.82 197.72,69.47 198.04,69.47 198.04,69.13 198.56,69.13 198.56,68.79 198.59,68.79 198.59,68.45 198.68,68.45 198.68,68.11 198.87,68.11 198.87,67.76 199.05,67.76 199.05,67.42 199.26,67.42 199.26,67.08 200.14,67.08 200.14,66.74 200.16,66.74 200.16,66.39 200.21,66.39 200.21,66.05 200.22,66.05 200.22,65.71 200.53,65.71 200.53,65.37 200.80,65.37 200.80,65.02 200.96,65.02 200.96,64.68 201.25,64.68 201.25,64.34 201.34,64.34 201.34,64.00 201.58,64.00 201.58,63.65 201.59,63.65 201.59,63.31 202.00,63.31 202.00,62.97 202.42,62.97 202.42,62.63 202.51,62.63 202.51,62.28 202.92,62.28 202.92,61.94 203.47,61.94 203.47,61.60 204.67,61.60 204.67,61.26 204.75,61.26 204.75,60.92 204.84,60.92 204.84,60.57 205.17,60.57 205.17,60.23 205.36,60.23 205.36,59.89 205.45,59.89 205.45,59.55 205.45,59.55 205.45,59.20 205.61,59.20 205.61,58.86 206.25,58.86 206.25,58.52 206.29,58.52 206.29,58.18 206.54,58.18 206.54,57.83 206.70,57.83 206.70,57.49 206.82,57.49 206.82,57.15 207.15,57.15 207.15,56.81 207.27,56.81 207.27,56.46 207.38,56.46 207.38,56.12 208.19,56.12 208.19,55.78 208.52,55.78 208.52,55.44 208.63,55.44 208.63,55.09 208.75,55.09 208.75,54.75 208.86,54.75 208.86,54.41 209.25,54.41 209.25,54.07 210.12,54.07 210.12,53.73 210.69,53.73 210.69,53.38 211.90,53.38 211.90,53.04 212.36,53.04 212.36,52.70 212.56,52.70 212.56,52.36 212.72,52.36 212.72,52.01 213.15,52.01 213.15,51.67 213.67,51.67 213.67,51.33 213.84,51.33 213.84,50.99 214.06,50.99 214.06,50.64 214.57,50.64 214.57,50.30 214.96,50.30 214.96,49.96 214.99,49.96 214.99,49.62 215.84,49.62 215.84,49.27 216.08,49.27 216.08,48.93 216.90,48.93 216.90,48.59 216.90,48.59 216.90,48.25 217.31,48.25 217.31,47.90 217.38,47.90 217.38,47.56 217.51,47.56 217.51,47.22 217.57,47.22 217.57,46.88 218.34,46.88 218.34,46.53 219.09,46.53 219.09,46.19 220.22,46.19 220.22,45.85 221.18,45.85 221.18,45.51 222.07,45.51 222.07,45.17 222.36,45.17 222.36,44.82 223.06,44.82 223.06,44.48 223.15,44.48 223.15,44.14 223.34,44.14 223.34,43.80 223.82,43.80 223.82,43.45 225.16,43.45 225.16,43.11 226.41,43.11 226.41,42.77 226.52,42.77 226.52,42.43 228.43,42.43 228.43,42.08 229.27,42.08 229.27,41.74 229.45,41.74 229.45,41.40 230.28,41.40 230.28,41.06 230.62,41.06 230.62,40.71 230.72,40.71 230.72,40.37 231.49,40.37 231.49,40.03 234.33,40.03 234.33,39.69 236.80,39.69 236.80,39.34 237.82,39.34 237.82,39.00 238.05,39.00 238.05,38.66 238.54,38.66 238.54,38.32 239.55,38.32 239.55,37.98 240.24,37.98 240.24,37.63 244.94,37.63 244.94,37.29 245.34,37.29 245.34,36.95 245.45,36.95 245.45,36.61 246.11,36.61 246.11,36.26 246.55,36.26 246.55,35.92 246.80,35.92 246.80,35.58 248.21,35.58 248.21,35.24 248.87,35.24 248.87,34.89 252.89,34.89 252.89,34.55 253.77,34.55 253.77,34.21 256.41,34.21 256.41,33.87 259.79,33.87 259.79,33.52 262.92,33.52 262.92,33.18 263.10,33.18 263.10,32.84 266.70,32.84 266.70,32.50 266.79,32.50 266.79,32.15 269.85,32.15 269.85,31.81 274.34,31.81 274.34,31.47 274.66,31.47 274.66,31.13 276.99,31.13 276.99,30.79 278.60,30.79 278.60,30.44 280.07,30.44 280.07,30.10 282.63,30.10 282.63,29.76 284.20,29.76 284.20,29.42 285.13,29.42 285.13,29.07 286.94,29.07 286.94,28.73 287.81,28.73 287.81,28.39 288.06,28.39 288.06,28.05 289.47,28.05 289.47,27.70 290.88,27.70 290.88,27.36 292.24,27.36 292.24,27.02 293.99,27.02 293.99,26.68 298.85,26.68 298.85,26.33 299.40,26.33 299.40,25.99 308.55,25.99 308.55,25.65 310.52,25.65 310.52,25.31 318.86,25.31 318.86,24.96 323.87,24.96 323.87,24.62 326.08,24.62 326.08,24.28 358.29,24.28 358.29,23.94 373.30,23.94 373.30,23.60 387.97,23.60 387.97,23.60 "
         style="stroke-width: 2.13; stroke: #4DAF4A; stroke-linecap: butt;"
         id="polyline21" />
      <rect
         x="65.25"
         y="6.48"
         width="322.72"
         height="376.62"
         style="stroke-width: 1.26; stroke: #333333;"
         id="rect21" />
    </g>
    <g
       clip-path="url(#cpMC4wMHw1NzYuMDB8MC4wMHw0MzIuMDA=)"
       id="g41">
      <text
         x="59.42"
         y="371.71"
         text-anchor="end"
         style="font-size: 16.00px;fill: #4D4D4D; font-family: &quot;Arial&quot;;"
         textLength="31.17px"
         lengthAdjust="spacingAndGlyphs"
         id="text21">0.00</text>
      <text
         x="59.42"
         y="286.11"
         text-anchor="end"
         style="font-size: 16.00px;fill: #4D4D4D; font-family: &quot;Arial&quot;;"
         textLength="31.17px"
         lengthAdjust="spacingAndGlyphs"
         id="text22">0.25</text>
      <text
         x="59.42"
         y="200.52"
         text-anchor="end"
         style="font-size: 16.00px;fill: #4D4D4D; font-family: &quot;Arial&quot;;"
         textLength="31.17px"
         lengthAdjust="spacingAndGlyphs"
         id="text23">0.50</text>
      <text
         x="59.42"
         y="114.92"
         text-anchor="end"
         style="font-size: 16.00px;fill: #4D4D4D; font-family: &quot;Arial&quot;;"
         textLength="31.17px"
         lengthAdjust="spacingAndGlyphs"
         id="text24">0.75</text>
      <text
         x="59.42"
         y="29.32"
         text-anchor="end"
         style="font-size: 16.00px;fill: #4D4D4D; font-family: &quot;Arial&quot;;"
         textLength="31.17px"
         lengthAdjust="spacingAndGlyphs"
         id="text25">1.00</text>
      <polyline
         points="62.01,365.98 65.25,365.98 "
         style="stroke-width: 1.26; stroke: #333333; stroke-linecap: butt;"
         id="polyline25" />
      <polyline
         points="62.01,280.38 65.25,280.38 "
         style="stroke-width: 1.26; stroke: #333333; stroke-linecap: butt;"
         id="polyline26" />
      <polyline
         points="62.01,194.79 65.25,194.79 "
         style="stroke-width: 1.26; stroke: #333333; stroke-linecap: butt;"
         id="polyline27" />
      <polyline
         points="62.01,109.19 65.25,109.19 "
         style="stroke-width: 1.26; stroke: #333333; stroke-linecap: butt;"
         id="polyline28" />
      <polyline
         points="62.01,23.60 65.25,23.60 "
         style="stroke-width: 1.26; stroke: #333333; stroke-linecap: butt;"
         id="polyline29" />
      <polyline
         points="79.91,386.34 79.91,383.10 "
         style="stroke-width: 1.26; stroke: #333333; stroke-linecap: butt;"
         id="polyline30" />
      <polyline
         points="225.67,386.34 225.67,383.10 "
         style="stroke-width: 1.26; stroke: #333333; stroke-linecap: butt;"
         id="polyline31" />
      <polyline
         points="329.09,386.34 329.09,383.10 "
         style="stroke-width: 1.26; stroke: #333333; stroke-linecap: butt;"
         id="polyline32" />
      <text
         x="79.91"
         y="400.38"
         text-anchor="middle"
         style="font-size: 16.00px;fill: #4D4D4D; font-family: &quot;Arial&quot;;"
         textLength="22.27px"
         lengthAdjust="spacingAndGlyphs"
         id="text32">1.0</text>
      <text
         x="225.67"
         y="400.38"
         text-anchor="middle"
         style="font-size: 16.00px;fill: #4D4D4D; font-family: &quot;Arial&quot;;"
         textLength="22.27px"
         lengthAdjust="spacingAndGlyphs"
         id="text33">1.5</text>
      <text
         x="329.09"
         y="400.38"
         text-anchor="middle"
         style="font-size: 16.00px;fill: #4D4D4D; font-family: &quot;Arial&quot;;"
         textLength="22.27px"
         lengthAdjust="spacingAndGlyphs"
         id="text34">2.0</text>
      <text
         x="226.61"
         y="421.31"
         text-anchor="middle"
         style="font-size: 20.00px; font-family: &quot;Arial&quot;;"
         textLength="116.72px"
         lengthAdjust="spacingAndGlyphs"
         id="text35">Hazard Ratio</text>
      <text
         transform="translate(20.80,194.79) rotate(-90)"
         text-anchor="middle"
         style="font-size: 20.00px; font-family: &quot;Arial&quot;;"
         textLength="37.81px"
         lengthAdjust="spacingAndGlyphs"
         id="text36">ecdf</text>
      <rect
         x="400.92"
         y="149.89"
         width="168.61"
         height="89.80"
         style="stroke-width: 1.26; stroke: none; fill: #FFFFFF;"
         id="rect36" />
      <text
         x="407.39001"
         y="172.78999"
         style="font-size:20px;font-family:Arial"
         textLength="155.66"
         lengthAdjust="spacingAndGlyphs"
         id="text37">Proportion Censored</text>
      <rect
         x="407.39"
         y="181.37"
         width="17.28"
         height="17.28"
         style="stroke-width: 1.26; stroke: none; fill: #FFFFFF;"
         id="rect37" />
      <line
         x1="409.12"
         y1="190.01"
         x2="422.94"
         y2="190.01"
         style="stroke-width: 2.13; stroke: #E41A1C; stroke-linecap: butt;"
         id="line37" />
      <rect
         x="407.39"
         y="198.65"
         width="17.28"
         height="17.28"
         style="stroke-width: 1.26; stroke: none; fill: #FFFFFF;"
         id="rect38" />
      <line
         x1="409.12"
         y1="207.29"
         x2="422.94"
         y2="207.29"
         style="stroke-width: 2.13; stroke: #377EB8; stroke-linecap: butt;"
         id="line38" />
      <rect
         x="407.39"
         y="215.93"
         width="17.28"
         height="17.28"
         style="stroke-width: 1.26; stroke: none; fill: #FFFFFF;"
         id="rect39" />
      <line
         x1="409.12"
         y1="224.57"
         x2="422.94"
         y2="224.57"
         style="stroke-width: 2.13; stroke: #4DAF4A; stroke-linecap: butt;"
         id="line39" />
      <text
         x="431.15"
         y="195.74"
         style="font-size: 16.00px; font-family: &quot;Arial&quot;;"
         textLength="8.91px"
         lengthAdjust="spacingAndGlyphs"
         id="text39">0</text>
      <text
         x="431.15"
         y="213.02"
         style="font-size: 16.00px; font-family: &quot;Arial&quot;;"
         textLength="22.27px"
         lengthAdjust="spacingAndGlyphs"
         id="text40">0.4</text>
      <text
         x="431.15"
         y="230.30"
         style="font-size: 16.00px; font-family: &quot;Arial&quot;;"
         textLength="22.27px"
         lengthAdjust="spacingAndGlyphs"
         id="text41">0.6</text>
    </g>
  </g>
</svg>
