<svg width="2190" height="2228" xmlns="http://www.w3.org/2000/svg" xmlns:xlink="http://www.w3.org/1999/xlink" xml:space="preserve" overflow="hidden"><g transform="translate(-1980 -132)"><g><g><g><g><path d="M1980 136 3082 136 3082 1238 1980 1238Z" fill="#FFFFFF" fill-rule="nonzero" fill-opacity="1"/><g><path d="M1980 136 3082 136 3082 1238 1980 1238Z" stroke="#FFFFFF" stroke-width="2.89275" stroke-linecap="round" stroke-linejoin="round" stroke-miterlimit="10" stroke-opacity="1" fill="#FFFFFF" fill-rule="nonzero" fill-opacity="1"/></g><g><path d="M2129.8 216.79 2880.04 216.79 2880.04 1125.76 2129.8 1125.76Z" fill="#FFFFFF" fill-rule="nonzero" fill-opacity="1"/><path d="M2129.8 981.119 2880.04 981.119" stroke="#EBEBEB" stroke-width="1.44638" stroke-linecap="butt" stroke-linejoin="round" stroke-miterlimit="10" stroke-opacity="1" fill="none" fill-rule="nonzero"/><path d="M2129.8 774.54 2880.04 774.54" stroke="#EBEBEB" stroke-width="1.44638" stroke-linecap="butt" stroke-linejoin="round" stroke-miterlimit="10" stroke-opacity="1" fill="none" fill-rule="nonzero"/><path d="M2129.8 567.961 2880.04 567.961" stroke="#EBEBEB" stroke-width="1.44638" stroke-linecap="butt" stroke-linejoin="round" stroke-miterlimit="10" stroke-opacity="1" fill="none" fill-rule="nonzero"/><path d="M2129.8 361.382 2880.04 361.382" stroke="#EBEBEB" stroke-width="1.44638" stroke-linecap="butt" stroke-linejoin="round" stroke-miterlimit="10" stroke-opacity="1" fill="none" fill-rule="nonzero"/><path d="M2294.67 1125.73 2294.67 216.79" stroke="#EBEBEB" stroke-width="1.44638" stroke-linecap="butt" stroke-linejoin="round" stroke-miterlimit="10" stroke-opacity="1" fill="none" fill-rule="nonzero"/><path d="M2556.23 1125.73 2556.23 216.79" stroke="#EBEBEB" stroke-width="1.44638" stroke-linecap="butt" stroke-linejoin="round" stroke-miterlimit="10" stroke-opacity="1" fill="none" fill-rule="nonzero"/><path d="M2817.77 1125.73 2817.77 216.79" stroke="#EBEBEB" stroke-width="1.44638" stroke-linecap="butt" stroke-linejoin="round" stroke-miterlimit="10" stroke-opacity="1" fill="none" fill-rule="nonzero"/><path d="M2129.8 1084.41 2880.04 1084.41" stroke="#EBEBEB" stroke-width="2.89275" stroke-linecap="butt" stroke-linejoin="round" stroke-miterlimit="10" stroke-opacity="1" fill="none" fill-rule="nonzero"/><path d="M2129.8 877.83 2880.04 877.83" stroke="#EBEBEB" stroke-width="2.89275" stroke-linecap="butt" stroke-linejoin="round" stroke-miterlimit="10" stroke-opacity="1" fill="none" fill-rule="nonzero"/><path d="M2129.8 671.251 2880.04 671.251" stroke="#EBEBEB" stroke-width="2.89275" stroke-linecap="butt" stroke-linejoin="round" stroke-miterlimit="10" stroke-opacity="1" fill="none" fill-rule="nonzero"/><path d="M2129.8 464.672 2880.04 464.672" stroke="#EBEBEB" stroke-width="2.89275" stroke-linecap="butt" stroke-linejoin="round" stroke-miterlimit="10" stroke-opacity="1" fill="none" fill-rule="nonzero"/><path d="M2129.8 258.093 2880.04 258.093" stroke="#EBEBEB" stroke-width="2.89275" stroke-linecap="butt" stroke-linejoin="round" stroke-miterlimit="10" stroke-opacity="1" fill="none" fill-rule="nonzero"/><path d="M2163.9 1125.73 2163.9 216.79" stroke="#EBEBEB" stroke-width="2.89275" stroke-linecap="butt" stroke-linejoin="round" stroke-miterlimit="10" stroke-opacity="1" fill="none" fill-rule="nonzero"/><path d="M2425.44 1125.73 2425.44 216.79" stroke="#EBEBEB" stroke-width="2.89275" stroke-linecap="butt" stroke-linejoin="round" stroke-miterlimit="10" stroke-opacity="1" fill="none" fill-rule="nonzero"/><path d="M2687 1125.73 2687 216.79" stroke="#EBEBEB" stroke-width="2.89275" stroke-linecap="butt" stroke-linejoin="round" stroke-miterlimit="10" stroke-opacity="1" fill="none" fill-rule="nonzero"/><path d="M2163.9 258.093 2165.53 258.093 2165.53 274.623 2165.66 274.623 2165.66 291.152 2184.79 291.152 2184.79 307.682 2185.57 307.682 2185.57 324.212 2191.15 324.212 2191.15 340.72 2201.82 340.72 2201.82 357.25 2202.95 357.25 2202.95 373.78 2213.12 373.78 2213.12 390.31 2224.55 390.31 2224.55 406.84 2227.79 406.84 2227.79 423.37 2230.64 423.37 2230.64 439.877 2242.25 439.877 2242.25 456.407 2247.72 456.407 2247.72 472.937 2249.71 472.937 2249.71 489.467 2252.22 489.467 2252.22 505.997 2252.65 505.997 2252.65 522.527 2255.48 522.527 2255.48 539.057 2262.59 539.057 2262.59 555.564 2264.22 555.564 2264.22 572.094 2264.75 572.094 2264.75 588.624 2265.92 588.624 2265.92 605.154 2271 605.154 2271 621.684 2286.22 621.684 2286.22 638.214 2290.28 638.214 2290.28 654.721 2298.89 654.721 2298.89 671.251 2305.73 671.251 2305.73 687.781 2309.93 687.781 2309.93 704.311 2315.26 704.311 2315.26 720.841 2326.42 720.841 2326.42 737.371 2329.98 737.371 2329.98 753.901 2336.22 753.901 2336.22 770.408 2342.88 770.408 2342.88 786.938 2343.04 786.938 2343.04 803.468 2356.79 803.468 2356.79 819.998 2358.54 819.998 2358.54 836.528 2382.76 836.528 2382.76 853.057 2383.06 853.057 2383.06 869.565 2397.66 869.565 2397.66 886.095 2403.9 886.095 2403.9 902.625 2420.57 902.625 2420.57 919.155 2424.47 919.155 2424.47 935.685 2427.18 935.685 2427.18 952.215 2451.15 952.215 2451.15 968.745 2459 968.745 2459 985.252 2471.38 985.252 2471.38 1001.78 2480.68 1001.78 2480.68 1018.31 2508.02 1018.31 2508.02 1034.84 2525.9 1034.84 2525.9 1051.37 2580.22 1051.37 2580.22 1067.9 2780.1 1067.9 2780.1 1084.41" stroke="#F8766D" stroke-width="4.89013" stroke-linecap="butt" stroke-linejoin="round" stroke-miterlimit="10" stroke-opacity="1" fill="none" fill-rule="nonzero"/><path d="M2163.9 258.093 2209.03 258.093 2209.03 274.623 2209.42 274.623 2209.42 291.152 2210 291.152 2210 307.682 2219.82 307.682 2219.82 324.212 2226.41 324.212 2226.41 340.72 2228.89 340.72 2228.89 357.25 2249.46 357.25 2249.46 373.78 2259.66 373.78 2259.66 390.31 2267.3 390.31 2267.3 406.84 2296.09 406.84 2296.09 423.37 2297.47 423.37 2297.47 439.877 2310.37 439.877 2310.37 456.407 2313.91 456.407 2313.91 472.937 2316.09 472.937 2316.09 489.467 2318.08 489.467 2318.08 505.997 2333.33 505.997 2333.33 522.527 2349.01 522.527 2349.01 539.057 2363.47 539.057 2363.47 555.564 2368.2 555.564 2368.2 572.094 2368.23 572.094 2368.23 588.624 2379.8 588.624 2379.8 605.154 2392.77 605.154 2392.77 621.684 2393.66 621.684 2393.66 638.214 2401.72 638.214 2401.72 654.721 2409.6 654.721 2409.6 671.251 2438.57 671.251 2438.57 687.781 2452.21 687.781 2452.21 704.311 2457.49 704.311 2457.49 720.841 2466.49 720.841 2466.49 737.371 2468.19 737.371 2468.19 753.901 2472.62 753.901 2472.62 770.408 2475.88 770.408 2475.88 786.938 2492.73 786.938 2492.73 803.468 2493.14 803.468 2493.14 819.998 2506.11 819.998 2506.11 836.528 2506.41 836.528 2506.41 853.057 2519.5 853.057 2519.5 869.565 2544.73 869.565 2544.73 886.095 2547.39 886.095 2547.39 902.625 2549.71 902.625 2549.71 919.155 2558.11 919.155 2558.11 935.685 2564.82 935.685 2564.82 952.215 2572.65 952.215 2572.65 968.745 2589.75 968.745 2589.75 985.252 2592.46 985.252 2592.46 1001.78 2597.4 1001.78 2597.4 1018.31 2630.66 1018.31 2630.66 1034.84 2663.49 1034.84 2663.49 1051.37 2706.31 1051.37 2706.31 1067.9 2845.92 1067.9 2845.92 1084.41" stroke="#00BFC4" stroke-width="4.89013" stroke-linecap="butt" stroke-linejoin="round" stroke-miterlimit="10" stroke-opacity="1" fill="none" fill-rule="nonzero"/><path d="M2163.9 258.093 2165.53 258.093 2165.66 258.093 2184.79 258.093 2185.57 258.093 2185.57 259.447 2191.15 259.447 2191.15 268.745 2201.82 268.745 2201.82 278.893 2202.95 278.893 2202.95 289.683 2213.12 289.683 2213.12 301.048 2224.55 301.048 2224.55 312.871 2227.79 312.871 2227.79 325.085 2230.64 325.085 2230.64 337.666 2242.25 337.666 2242.25 350.569 2247.72 350.569 2247.72 363.747 2249.71 363.747 2249.71 377.2 2252.22 377.2 2252.22 390.906 2252.65 390.906 2252.65 404.842 2255.48 404.842 2255.48 419.007 2262.59 419.007 2262.59 433.379 2264.22 433.379 2264.22 447.935 2264.75 447.935 2264.75 462.697 2265.92 462.697 2265.92 477.666 2271 477.666 2271 492.796 2286.22 492.796 2286.22 508.109 2290.28 508.109 2290.28 523.629 2298.89 523.629 2298.89 539.286 2305.73 539.286 2305.73 555.15 2309.93 555.15 2309.93 571.152 2315.26 571.152 2315.26 587.361 2326.42 587.361 2326.42 603.73 2329.98 603.73 2329.98 620.283 2336.22 620.283 2336.22 637.02 2342.88 637.02 2342.88 653.94 2343.04 653.94 2343.04 671.044 2356.79 671.044 2356.79 688.332 2358.54 688.332 2358.54 705.849 2382.76 705.849 2382.76 723.55 2383.06 723.55 2383.06 741.48 2397.66 741.48 2397.66 759.64 2403.9 759.64 2403.9 778.053 2420.57 778.053 2420.57 796.718 2424.47 796.718 2424.47 815.658 2427.18 815.658 2427.18 834.898 2451.15 834.898 2451.15 854.458 2459 854.458 2459 874.363 2471.38 874.363 2471.38 894.635 2480.68 894.635 2480.68 915.206 2508.02 915.206 2508.02 935.914 2525.9 935.914 2525.9 955.911 2580.22 955.911 2580.22 969.387 2580.22 1082.04 2580.22 1075.91 2525.9 1075.91 2525.9 1067.88 2508.02 1067.88 2508.02 1058.6 2480.68 1058.6 2480.68 1048.43 2471.38 1048.43 2471.38 1037.62 2459 1037.62 2459 1026.21 2451.15 1026.21 2451.15 1014.36 2427.18 1014.36 2427.18 1002.1 2424.47 1002.1 2424.47 989.476 2420.57 989.476 2420.57 976.55 2403.9 976.55 2403.9 963.326 2397.66 963.326 2397.66 949.827 2383.06 949.827 2383.06 936.075 2382.76 936.075 2382.76 922.093 2358.54 922.093 2358.54 907.882 2356.79 907.882 2356.79 893.464 2343.04 893.464 2343.04 878.863 2342.88 878.863 2342.88 864.032 2336.22 864.032 2336.22 849.04 2329.98 849.04 2329.98 833.841 2326.42 833.841 2326.42 818.459 2315.26 818.459 2315.26 802.917 2309.93 802.917 2309.93 787.19 2305.73 787.19 2305.73 771.28 2298.89 771.28 2298.89 755.186 2290.28 755.186 2290.28 738.932 2286.22 738.932 2286.22 722.471 2271 722.471 2271 705.849 2265.92 705.849 2265.92 689.043 2264.75 689.043 2264.75 672.031 2264.22 672.031 2264.22 654.835 2262.59 654.835 2262.59 637.433 2255.48 637.433 2255.48 619.824 2252.65 619.824 2252.65 601.985 2252.22 601.985 2252.22 583.917 2249.71 583.917 2249.71 565.596 2247.72 565.596 2247.72 547 2242.25 547 2242.25 528.105 2230.64 528.105 2230.64 508.912 2227.79 508.912 2227.79 489.352 2224.55 489.352 2224.55 469.401 2213.12 469.401 2213.12 448.968 2202.95 448.968 2202.95 428.007 2201.82 428.007 2201.82 406.357 2191.15 406.357 2191.15 383.858 2185.57 383.858 2185.57 360.211 2184.79 360.211 2184.79 334.773 2165.66 334.773 2165.66 306.052 2165.53 306.052 2165.53 258.093 2163.9 258.093Z" fill="#F8766D" fill-rule="nonzero" fill-opacity="0.2"/><path d="M2163.9 258.093 2209.03 258.093 2209.42 258.093 2210 258.093 2219.82 258.093 2219.82 259.447 2226.41 259.447 2226.41 268.745 2228.89 268.745 2228.89 278.893 2249.46 278.893 2249.46 289.683 2259.66 289.683 2259.66 301.048 2267.3 301.048 2267.3 312.871 2296.09 312.871 2296.09 325.085 2297.47 325.085 2297.47 337.666 2310.37 337.666 2310.37 350.569 2313.91 350.569 2313.91 363.747 2316.09 363.747 2316.09 377.2 2318.08 377.2 2318.08 390.906 2333.33 390.906 2333.33 404.842 2349.01 404.842 2349.01 419.007 2363.47 419.007 2363.47 433.379 2368.2 433.379 2368.2 447.935 2368.23 447.935 2368.23 462.697 2379.8 462.697 2379.8 477.666 2392.77 477.666 2392.77 492.796 2393.66 492.796 2393.66 508.109 2401.72 508.109 2401.72 523.629 2409.6 523.629 2409.6 539.286 2438.57 539.286 2438.57 555.15 2452.21 555.15 2452.21 571.152 2457.49 571.152 2457.49 587.361 2466.49 587.361 2466.49 603.73 2468.19 603.73 2468.19 620.283 2472.62 620.283 2472.62 637.02 2475.88 637.02 2475.88 653.94 2492.73 653.94 2492.73 671.044 2493.14 671.044 2493.14 688.332 2506.11 688.332 2506.11 705.849 2506.41 705.849 2506.41 723.55 2519.5 723.55 2519.5 741.48 2544.73 741.48 2544.73 759.64 2547.39 759.64 2547.39 778.053 2549.71 778.053 2549.71 796.718 2558.11 796.718 2558.11 815.658 2564.82 815.658 2564.82 834.898 2572.65 834.898 2572.65 854.458 2589.75 854.458 2589.75 874.363 2592.46 874.363 2592.46 894.635 2597.4 894.635 2597.4 915.206 2630.66 915.206 2630.66 935.914 2663.49 935.914 2663.49 955.911 2706.31 955.911 2706.31 969.387 2706.31 1082.04 2706.31 1075.91 2663.49 1075.91 2663.49 1067.88 2630.66 1067.88 2630.66 1058.6 2597.4 1058.6 2597.4 1048.43 2592.46 1048.43 2592.46 1037.62 2589.75 1037.62 2589.75 1026.21 2572.65 1026.21 2572.65 1014.36 2564.82 1014.36 2564.82 1002.1 2558.11 1002.1 2558.11 989.476 2549.71 989.476 2549.71 976.55 2547.39 976.55 2547.39 963.326 2544.73 963.326 2544.73 949.827 2519.5 949.827 2519.5 936.075 2506.41 936.075 2506.41 922.093 2506.11 922.093 2506.11 907.882 2493.14 907.882 2493.14 893.464 2492.73 893.464 2492.73 878.863 2475.88 878.863 2475.88 864.032 2472.62 864.032 2472.62 849.04 2468.19 849.04 2468.19 833.841 2466.49 833.841 2466.49 818.459 2457.49 818.459 2457.49 802.917 2452.21 802.917 2452.21 787.19 2438.57 787.19 2438.57 771.28 2409.6 771.28 2409.6 755.186 2401.72 755.186 2401.72 738.932 2393.66 738.932 2393.66 722.471 2392.77 722.471 2392.77 705.849 2379.8 705.849 2379.8 689.043 2368.23 689.043 2368.23 672.031 2368.2 672.031 2368.2 654.835 2363.47 654.835 2363.47 637.433 2349.01 637.433 2349.01 619.824 2333.33 619.824 2333.33 601.985 2318.08 601.985 2318.08 583.917 2316.09 583.917 2316.09 565.596 2313.91 565.596 2313.91 547 2310.37 547 2310.37 528.105 2297.47 528.105 2297.47 508.912 2296.09 508.912 2296.09 489.352 2267.3 489.352 2267.3 469.401 2259.66 469.401 2259.66 448.968 2249.46 448.968 2249.46 428.007 2228.89 428.007 2228.89 406.357 2226.41 406.357 2226.41 383.858 2219.82 383.858 2219.82 360.211 2210 360.211 2210 334.773 2209.42 334.773 2209.42 306.052 2209.03 306.052 2209.03 258.093 2163.9 258.093Z" fill="#00BFC4" fill-rule="nonzero" fill-opacity="0.2"/><path d="M2129.8 216.79 2880.04 216.79 2880.04 1125.76 2129.8 1125.76Z" stroke="#333333" stroke-width="2.89275" stroke-linecap="round" stroke-linejoin="round" stroke-miterlimit="10" stroke-opacity="1" fill="none" fill-rule="nonzero"/></g><g><text fill="#4D4D4D" fill-opacity="1" font-family="Arial,Arial_MSFontService,sans-serif" font-style="normal" font-variant="normal" font-weight="400" font-stretch="normal" font-size="16" text-anchor="start" direction="ltr" writing-mode="lr-tb" unicode-bidi="normal" text-decoration="none" transform="matrix(2.29583 0 0 2.29583 2044.92 1098)">0.00</text><text fill="#4D4D4D" fill-opacity="1" font-family="Arial,Arial_MSFontService,sans-serif" font-style="normal" font-variant="normal" font-weight="400" font-stretch="normal" font-size="16" text-anchor="start" direction="ltr" writing-mode="lr-tb" unicode-bidi="normal" text-decoration="none" transform="matrix(2.29583 0 0 2.29583 2044.92 891)">0.25</text><text fill="#4D4D4D" fill-opacity="1" font-family="Arial,Arial_MSFontService,sans-serif" font-style="normal" font-variant="normal" font-weight="400" font-stretch="normal" font-size="16" text-anchor="start" direction="ltr" writing-mode="lr-tb" unicode-bidi="normal" text-decoration="none" transform="matrix(2.29583 0 0 2.29583 2044.92 684)">0.50</text><text fill="#4D4D4D" fill-opacity="1" font-family="Arial,Arial_MSFontService,sans-serif" font-style="normal" font-variant="normal" font-weight="400" font-stretch="normal" font-size="16" text-anchor="start" direction="ltr" writing-mode="lr-tb" unicode-bidi="normal" text-decoration="none" transform="matrix(2.29583 0 0 2.29583 2044.92 478)">0.75</text><text fill="#4D4D4D" fill-opacity="1" font-family="Arial,Arial_MSFontService,sans-serif" font-style="normal" font-variant="normal" font-weight="400" font-stretch="normal" font-size="16" text-anchor="start" direction="ltr" writing-mode="lr-tb" unicode-bidi="normal" text-decoration="none" transform="matrix(2.29583 0 0 2.29583 2044.92 271)">1.00</text><path d="M2122.36 1084.41 2129.8 1084.41" stroke="#333333" stroke-width="2.89275" stroke-linecap="butt" stroke-linejoin="round" stroke-miterlimit="10" stroke-opacity="1" fill="none" fill-rule="nonzero"/><path d="M2122.36 877.83 2129.8 877.83" stroke="#333333" stroke-width="2.89275" stroke-linecap="butt" stroke-linejoin="round" stroke-miterlimit="10" stroke-opacity="1" fill="none" fill-rule="nonzero"/><path d="M2122.36 671.251 2129.8 671.251" stroke="#333333" stroke-width="2.89275" stroke-linecap="butt" stroke-linejoin="round" stroke-miterlimit="10" stroke-opacity="1" fill="none" fill-rule="nonzero"/><path d="M2122.36 464.672 2129.8 464.672" stroke="#333333" stroke-width="2.89275" stroke-linecap="butt" stroke-linejoin="round" stroke-miterlimit="10" stroke-opacity="1" fill="none" fill-rule="nonzero"/><path d="M2122.36 258.093 2129.8 258.093" stroke="#333333" stroke-width="2.89275" stroke-linecap="butt" stroke-linejoin="round" stroke-miterlimit="10" stroke-opacity="1" fill="none" fill-rule="nonzero"/><path d="M2163.9 1133.17 2163.9 1125.73" stroke="#333333" stroke-width="2.89275" stroke-linecap="butt" stroke-linejoin="round" stroke-miterlimit="10" stroke-opacity="1" fill="none" fill-rule="nonzero"/><path d="M2425.44 1133.17 2425.44 1125.73" stroke="#333333" stroke-width="2.89275" stroke-linecap="butt" stroke-linejoin="round" stroke-miterlimit="10" stroke-opacity="1" fill="none" fill-rule="nonzero"/><path d="M2687 1133.17 2687 1125.73" stroke="#333333" stroke-width="2.89275" stroke-linecap="butt" stroke-linejoin="round" stroke-miterlimit="10" stroke-opacity="1" fill="none" fill-rule="nonzero"/><text fill="#4D4D4D" fill-opacity="1" font-family="Arial,Arial_MSFontService,sans-serif" font-style="normal" font-variant="normal" font-weight="400" font-stretch="normal" font-size="16" text-anchor="start" direction="ltr" writing-mode="lr-tb" unicode-bidi="normal" text-decoration="none" transform="matrix(2.29583 0 0 2.29583 2153.68 1165)">0</text><text fill="#4D4D4D" fill-opacity="1" font-family="Arial,Arial_MSFontService,sans-serif" font-style="normal" font-variant="normal" font-weight="400" font-stretch="normal" font-size="16" text-anchor="start" direction="ltr" writing-mode="lr-tb" unicode-bidi="normal" text-decoration="none" transform="matrix(2.29583 0 0 2.29583 2415.22 1165)">1</text><text fill="#4D4D4D" fill-opacity="1" font-family="Arial,Arial_MSFontService,sans-serif" font-style="normal" font-variant="normal" font-weight="400" font-stretch="normal" font-size="16" text-anchor="start" direction="ltr" writing-mode="lr-tb" unicode-bidi="normal" text-decoration="none" transform="matrix(2.29583 0 0 2.29583 2676.79 1165)">2</text><text fill="#000000" fill-opacity="1" font-family="Arial,Arial_MSFontService,sans-serif" font-style="normal" font-variant="normal" font-weight="400" font-stretch="normal" font-size="20" text-anchor="start" direction="ltr" writing-mode="lr-tb" unicode-bidi="normal" text-decoration="none" transform="matrix(2.29583 0 0 2.29583 2454.75 1213)">Time</text><text fill="#000000" fill-opacity="1" font-family="Arial,Arial_MSFontService,sans-serif" font-style="normal" font-variant="normal" font-weight="400" font-stretch="normal" font-size="20" text-anchor="start" direction="ltr" writing-mode="lr-tb" unicode-bidi="normal" text-decoration="none" transform="matrix(1.40579e-16 -2.29583 2.29583 1.40579e-16 2027.75 866)">Survival Probability</text><path d="M2909.77 588.004 3067.15 588.004 3067.15 754.497 2909.77 754.497Z" fill="#FFFFFF" fill-rule="nonzero" fill-opacity="1"/><text fill="#000000" fill-opacity="1" font-family="Arial,Arial_MSFontService,sans-serif" font-style="normal" font-variant="normal" font-weight="400" font-stretch="normal" font-size="20" text-anchor="start" direction="ltr" writing-mode="lr-tb" unicode-bidi="normal" text-decoration="none" transform="matrix(2.29583 0 0 2.29583 2924.62 641)">Group</text><path d="M2924.62 660.299 2964.29 660.299 2964.29 699.971 2924.62 699.971Z" fill="#FFFFFF" fill-rule="nonzero" fill-opacity="1"/><path d="M2928.59 680.135 2960.34 680.135" stroke="#F8766D" stroke-width="4.89013" stroke-linecap="butt" stroke-linejoin="round" stroke-miterlimit="10" stroke-opacity="1" fill="none" fill-rule="nonzero"/><path d="M2926.55 662.205 2962.36 662.205 2962.36 698.02 2926.55 698.02Z" fill="#F8766D" fill-rule="nonzero" fill-opacity="0.2"/><path d="M2924.62 699.971 2964.29 699.971 2964.29 739.643 2924.62 739.643Z" fill="#FFFFFF" fill-rule="nonzero" fill-opacity="1"/><path d="M2928.59 719.807 2960.34 719.807" stroke="#00BFC4" stroke-width="4.89013" stroke-linecap="butt" stroke-linejoin="round" stroke-miterlimit="10" stroke-opacity="1" fill="none" fill-rule="nonzero"/><path d="M2926.55 701.877 2962.36 701.877 2962.36 737.692 2926.55 737.692Z" fill="#00BFC4" fill-rule="nonzero" fill-opacity="0.2"/><text fill="#000000" fill-opacity="1" font-family="Arial,Arial_MSFontService,sans-serif" font-style="normal" font-variant="normal" font-weight="400" font-stretch="normal" font-size="16" text-anchor="start" direction="ltr" writing-mode="lr-tb" unicode-bidi="normal" text-decoration="none" transform="matrix(2.29583 0 0 2.29583 2979.17 693)">0</text><text fill="#000000" fill-opacity="1" font-family="Arial,Arial_MSFontService,sans-serif" font-style="normal" font-variant="normal" font-weight="400" font-stretch="normal" font-size="16" text-anchor="start" direction="ltr" writing-mode="lr-tb" unicode-bidi="normal" text-decoration="none" transform="matrix(2.29583 0 0 2.29583 2979.17 733)">1</text><text fill="#000000" fill-opacity="1" font-family="Arial,Arial_MSFontService,sans-serif" font-style="normal" font-variant="normal" font-weight="400" font-stretch="normal" font-size="24" text-anchor="start" direction="ltr" writing-mode="lr-tb" unicode-bidi="normal" text-decoration="none" transform="matrix(2.29583 0 0 2.29583 2404.57 190)">p&lt;0.001</text></g></g></g></g><g><g><g><path d="M3065 136 4167 136 4167 1238 3065 1238Z" fill="#FFFFFF" fill-rule="nonzero" fill-opacity="1"/><g><path d="M3065 136 4167 136 4167 1238 3065 1238Z" stroke="#FFFFFF" stroke-width="2.89275" stroke-linecap="round" stroke-linejoin="round" stroke-miterlimit="10" stroke-opacity="1" fill="#FFFFFF" fill-rule="nonzero" fill-opacity="1"/></g><g><path d="M3214.8 216.79 3965.04 216.79 3965.04 1125.76 3214.8 1125.76Z" fill="#FFFFFF" fill-rule="nonzero" fill-opacity="1"/><path d="M3214.8 981.119 3965.04 981.119" stroke="#EBEBEB" stroke-width="1.44638" stroke-linecap="butt" stroke-linejoin="round" stroke-miterlimit="10" stroke-opacity="1" fill="none" fill-rule="nonzero"/><path d="M3214.8 774.54 3965.04 774.54" stroke="#EBEBEB" stroke-width="1.44638" stroke-linecap="butt" stroke-linejoin="round" stroke-miterlimit="10" stroke-opacity="1" fill="none" fill-rule="nonzero"/><path d="M3214.8 567.961 3965.04 567.961" stroke="#EBEBEB" stroke-width="1.44638" stroke-linecap="butt" stroke-linejoin="round" stroke-miterlimit="10" stroke-opacity="1" fill="none" fill-rule="nonzero"/><path d="M3214.8 361.382 3965.04 361.382" stroke="#EBEBEB" stroke-width="1.44638" stroke-linecap="butt" stroke-linejoin="round" stroke-miterlimit="10" stroke-opacity="1" fill="none" fill-rule="nonzero"/><path d="M3357.26 1125.73 3357.26 216.79" stroke="#EBEBEB" stroke-width="1.44638" stroke-linecap="butt" stroke-linejoin="round" stroke-miterlimit="10" stroke-opacity="1" fill="none" fill-rule="nonzero"/><path d="M3574.01 1125.73 3574.01 216.79" stroke="#EBEBEB" stroke-width="1.44638" stroke-linecap="butt" stroke-linejoin="round" stroke-miterlimit="10" stroke-opacity="1" fill="none" fill-rule="nonzero"/><path d="M3790.76 1125.73 3790.76 216.79" stroke="#EBEBEB" stroke-width="1.44638" stroke-linecap="butt" stroke-linejoin="round" stroke-miterlimit="10" stroke-opacity="1" fill="none" fill-rule="nonzero"/><path d="M3214.8 1084.41 3965.04 1084.41" stroke="#EBEBEB" stroke-width="2.89275" stroke-linecap="butt" stroke-linejoin="round" stroke-miterlimit="10" stroke-opacity="1" fill="none" fill-rule="nonzero"/><path d="M3214.8 877.83 3965.04 877.83" stroke="#EBEBEB" stroke-width="2.89275" stroke-linecap="butt" stroke-linejoin="round" stroke-miterlimit="10" stroke-opacity="1" fill="none" fill-rule="nonzero"/><path d="M3214.8 671.251 3965.04 671.251" stroke="#EBEBEB" stroke-width="2.89275" stroke-linecap="butt" stroke-linejoin="round" stroke-miterlimit="10" stroke-opacity="1" fill="none" fill-rule="nonzero"/><path d="M3214.8 464.672 3965.04 464.672" stroke="#EBEBEB" stroke-width="2.89275" stroke-linecap="butt" stroke-linejoin="round" stroke-miterlimit="10" stroke-opacity="1" fill="none" fill-rule="nonzero"/><path d="M3214.8 258.093 3965.04 258.093" stroke="#EBEBEB" stroke-width="2.89275" stroke-linecap="butt" stroke-linejoin="round" stroke-miterlimit="10" stroke-opacity="1" fill="none" fill-rule="nonzero"/><path d="M3248.9 1125.73 3248.9 216.79" stroke="#EBEBEB" stroke-width="2.89275" stroke-linecap="butt" stroke-linejoin="round" stroke-miterlimit="10" stroke-opacity="1" fill="none" fill-rule="nonzero"/><path d="M3465.65 1125.73 3465.65 216.79" stroke="#EBEBEB" stroke-width="2.89275" stroke-linecap="butt" stroke-linejoin="round" stroke-miterlimit="10" stroke-opacity="1" fill="none" fill-rule="nonzero"/><path d="M3682.4 1125.73 3682.4 216.79" stroke="#EBEBEB" stroke-width="2.89275" stroke-linecap="butt" stroke-linejoin="round" stroke-miterlimit="10" stroke-opacity="1" fill="none" fill-rule="nonzero"/><path d="M3899.12 1125.73 3899.12 216.79" stroke="#EBEBEB" stroke-width="2.89275" stroke-linecap="butt" stroke-linejoin="round" stroke-miterlimit="10" stroke-opacity="1" fill="none" fill-rule="nonzero"/><path d="M3248.9 258.093 3277.89 258.093 3277.89 274.623 3290.18 274.623 3290.18 291.152 3293.14 291.152 3293.14 307.682 3304.59 307.682 3304.59 324.212 3314.53 324.212 3314.53 340.72 3324.41 340.72 3324.41 357.25 3336.48 357.25 3336.48 373.78 3337.93 373.78 3337.93 390.31 3338.34 390.31 3338.34 406.84 3347.69 406.84 3347.69 423.37 3353.63 423.37 3353.63 439.877 3358.22 439.877 3358.22 456.407 3367.89 456.407 3367.89 472.937 3371.59 472.937 3371.59 489.467 3374.27 489.467 3374.27 505.997 3376.45 505.997 3376.45 522.527 3377.44 522.527 3377.44 539.057 3387.08 539.057 3387.08 555.564 3393.42 555.564 3393.42 572.094 3395.42 572.094 3395.42 588.624 3401.59 588.624 3401.59 605.154 3405.93 605.154 3405.93 621.684 3426.98 621.684 3426.98 638.214 3428.8 638.214 3428.8 654.721 3437.02 654.721 3437.02 671.251 3451.64 671.251 3451.64 687.781 3457.7 687.781 3457.7 704.311 3461.38 704.311 3461.38 720.841 3475.54 720.841 3475.54 737.371 3479.67 737.371 3479.67 753.901 3497.4 753.901 3497.4 770.408 3502.77 770.408 3502.77 786.938 3506.1 786.938 3506.1 803.468 3525.64 803.468 3525.64 819.998 3536.75 819.998 3536.75 836.528 3551.3 836.528 3551.3 853.057 3555.76 853.057 3555.76 869.565 3565.24 869.565 3565.24 886.095 3565.81 886.095 3565.81 902.625 3566.82 902.625 3566.82 919.155 3568.43 919.155 3568.43 935.685 3570.29 935.685 3570.29 952.215 3585.01 952.215 3585.01 968.745 3589.55 968.745 3589.55 985.252 3618.69 985.252 3618.69 1001.78 3627.46 1001.78 3627.46 1018.31 3696.56 1018.31 3696.56 1034.84 3746.2 1034.84 3746.2 1051.37 3800.75 1051.37 3800.75 1067.9 3930.92 1067.9 3930.92 1084.41" stroke="#F8766D" stroke-width="4.89013" stroke-linecap="butt" stroke-linejoin="round" stroke-miterlimit="10" stroke-opacity="1" fill="none" fill-rule="nonzero"/><path d="M3248.9 258.093 3255 258.093 3255 274.623 3264.76 274.623 3264.76 291.152 3272.7 291.152 3272.7 307.682 3275.6 307.682 3275.6 324.212 3289.58 324.212 3289.58 340.72 3294.72 340.72 3294.72 357.25 3304.85 357.25 3304.85 373.78 3315.15 373.78 3315.15 390.31 3324.08 390.31 3324.08 406.84 3324.73 406.84 3324.73 423.37 3327.51 423.37 3327.51 439.877 3333.8 439.877 3333.8 456.407 3334.76 456.407 3334.76 472.937 3338.46 472.937 3338.46 489.467 3340.71 489.467 3340.71 505.997 3346.45 505.997 3346.45 522.527 3347.16 522.527 3347.16 539.057 3359.99 539.057 3359.99 555.564 3371.13 555.564 3371.13 572.094 3381.57 572.094 3381.57 588.624 3388.9 588.624 3388.9 605.154 3389.24 605.154 3389.24 621.684 3391.63 621.684 3391.63 638.214 3393.33 638.214 3393.33 654.721 3396.24 654.721 3396.24 671.251 3402.51 671.251 3402.51 687.781 3412.66 687.781 3412.66 704.311 3414.7 704.311 3414.7 720.841 3417.27 720.841 3417.27 737.371 3422.39 737.371 3422.39 753.901 3428.5 753.901 3428.5 770.408 3430.96 770.408 3430.96 786.938 3432.03 786.938 3432.03 803.468 3432.47 803.468 3432.47 819.998 3433.76 819.998 3433.76 836.528 3439.17 836.528 3439.17 853.057 3441.33 853.057 3441.33 869.565 3447.97 869.565 3447.97 886.095 3461.93 886.095 3461.93 902.625 3479.54 902.625 3479.54 919.155 3511.29 919.155 3511.29 935.685 3514.55 935.685 3514.55 952.215 3515.01 952.215 3515.01 968.745 3515.69 968.745 3515.69 985.252 3524.01 985.252 3524.01 1001.78 3526.23 1001.78 3526.23 1018.31 3546.96 1018.31 3546.96 1034.84 3550.5 1034.84 3550.5 1051.37 3688.5 1051.37 3688.5 1067.9 3768.17 1067.9 3768.17 1084.41" stroke="#00BFC4" stroke-width="4.89013" stroke-linecap="butt" stroke-linejoin="round" stroke-miterlimit="10" stroke-opacity="1" fill="none" fill-rule="nonzero"/><path d="M3248.9 258.093 3277.89 258.093 3290.18 258.093 3293.14 258.093 3304.59 258.093 3304.59 259.447 3314.53 259.447 3314.53 268.745 3324.41 268.745 3324.41 278.893 3336.48 278.893 3336.48 289.683 3337.93 289.683 3337.93 301.048 3338.34 301.048 3338.34 312.871 3347.69 312.871 3347.69 325.085 3353.63 325.085 3353.63 337.666 3358.22 337.666 3358.22 350.569 3367.89 350.569 3367.89 363.747 3371.59 363.747 3371.59 377.2 3374.27 377.2 3374.27 390.906 3376.45 390.906 3376.45 404.842 3377.44 404.842 3377.44 419.007 3387.08 419.007 3387.08 433.379 3393.42 433.379 3393.42 447.935 3395.42 447.935 3395.42 462.697 3401.59 462.697 3401.59 477.666 3405.93 477.666 3405.93 492.796 3426.98 492.796 3426.98 508.109 3428.8 508.109 3428.8 523.629 3437.02 523.629 3437.02 539.286 3451.64 539.286 3451.64 555.15 3457.7 555.15 3457.7 571.152 3461.38 571.152 3461.38 587.361 3475.54 587.361 3475.54 603.73 3479.67 603.73 3479.67 620.283 3497.4 620.283 3497.4 637.02 3502.77 637.02 3502.77 653.94 3506.1 653.94 3506.1 671.044 3525.64 671.044 3525.64 688.332 3536.75 688.332 3536.75 705.849 3551.3 705.849 3551.3 723.55 3555.76 723.55 3555.76 741.48 3565.24 741.48 3565.24 759.64 3565.81 759.64 3565.81 778.053 3566.82 778.053 3566.82 796.718 3568.43 796.718 3568.43 815.658 3570.29 815.658 3570.29 834.898 3585.01 834.898 3585.01 854.458 3589.55 854.458 3589.55 874.363 3618.69 874.363 3618.69 894.635 3627.46 894.635 3627.46 915.206 3696.56 915.206 3696.56 935.914 3746.2 935.914 3746.2 955.911 3800.75 955.911 3800.75 969.387 3800.75 1082.04 3800.75 1075.91 3746.2 1075.91 3746.2 1067.88 3696.56 1067.88 3696.56 1058.6 3627.46 1058.6 3627.46 1048.43 3618.69 1048.43 3618.69 1037.62 3589.55 1037.62 3589.55 1026.21 3585.01 1026.21 3585.01 1014.36 3570.29 1014.36 3570.29 1002.1 3568.43 1002.1 3568.43 989.476 3566.82 989.476 3566.82 976.55 3565.81 976.55 3565.81 963.326 3565.24 963.326 3565.24 949.827 3555.76 949.827 3555.76 936.075 3551.3 936.075 3551.3 922.093 3536.75 922.093 3536.75 907.882 3525.64 907.882 3525.64 893.464 3506.1 893.464 3506.1 878.863 3502.77 878.863 3502.77 864.032 3497.4 864.032 3497.4 849.04 3479.67 849.04 3479.67 833.841 3475.54 833.841 3475.54 818.459 3461.38 818.459 3461.38 802.917 3457.7 802.917 3457.7 787.19 3451.64 787.19 3451.64 771.28 3437.02 771.28 3437.02 755.186 3428.8 755.186 3428.8 738.932 3426.98 738.932 3426.98 722.471 3405.93 722.471 3405.93 705.849 3401.59 705.849 3401.59 689.043 3395.42 689.043 3395.42 672.031 3393.42 672.031 3393.42 654.835 3387.08 654.835 3387.08 637.433 3377.44 637.433 3377.44 619.824 3376.45 619.824 3376.45 601.985 3374.27 601.985 3374.27 583.917 3371.59 583.917 3371.59 565.596 3367.89 565.596 3367.89 547 3358.22 547 3358.22 528.105 3353.63 528.105 3353.63 508.912 3347.69 508.912 3347.69 489.352 3338.34 489.352 3338.34 469.401 3337.93 469.401 3337.93 448.968 3336.48 448.968 3336.48 428.007 3324.41 428.007 3324.41 406.357 3314.53 406.357 3314.53 383.858 3304.59 383.858 3304.59 360.211 3293.14 360.211 3293.14 334.773 3290.18 334.773 3290.18 306.052 3277.89 306.052 3277.89 258.093 3248.9 258.093Z" fill="#F8766D" fill-rule="nonzero" fill-opacity="0.2"/><path d="M3248.9 258.093 3255 258.093 3264.76 258.093 3272.7 258.093 3275.6 258.093 3275.6 259.447 3289.58 259.447 3289.58 268.745 3294.72 268.745 3294.72 278.893 3304.85 278.893 3304.85 289.683 3315.15 289.683 3315.15 301.048 3324.08 301.048 3324.08 312.871 3324.73 312.871 3324.73 325.085 3327.51 325.085 3327.51 337.666 3333.8 337.666 3333.8 350.569 3334.76 350.569 3334.76 363.747 3338.46 363.747 3338.46 377.2 3340.71 377.2 3340.71 390.906 3346.45 390.906 3346.45 404.842 3347.16 404.842 3347.16 419.007 3359.99 419.007 3359.99 433.379 3371.13 433.379 3371.13 447.935 3381.57 447.935 3381.57 462.697 3388.9 462.697 3388.9 477.666 3389.24 477.666 3389.24 492.796 3391.63 492.796 3391.63 508.109 3393.33 508.109 3393.33 523.629 3396.24 523.629 3396.24 539.286 3402.51 539.286 3402.51 555.15 3412.66 555.15 3412.66 571.152 3414.7 571.152 3414.7 587.361 3417.27 587.361 3417.27 603.73 3422.39 603.73 3422.39 620.283 3428.5 620.283 3428.5 637.02 3430.96 637.02 3430.96 653.94 3432.03 653.94 3432.03 671.044 3432.47 671.044 3432.47 688.332 3433.76 688.332 3433.76 705.849 3439.17 705.849 3439.17 723.55 3441.33 723.55 3441.33 741.48 3447.97 741.48 3447.97 759.64 3461.93 759.64 3461.93 778.053 3479.54 778.053 3479.54 796.718 3511.29 796.718 3511.29 815.658 3514.55 815.658 3514.55 834.898 3515.01 834.898 3515.01 854.458 3515.69 854.458 3515.69 874.363 3524.01 874.363 3524.01 894.635 3526.23 894.635 3526.23 915.206 3546.96 915.206 3546.96 935.914 3550.5 935.914 3550.5 955.911 3688.5 955.911 3688.5 969.387 3688.5 1082.04 3688.5 1075.91 3550.5 1075.91 3550.5 1067.88 3546.96 1067.88 3546.96 1058.6 3526.23 1058.6 3526.23 1048.43 3524.01 1048.43 3524.01 1037.62 3515.69 1037.62 3515.69 1026.21 3515.01 1026.21 3515.01 1014.36 3514.55 1014.36 3514.55 1002.1 3511.29 1002.1 3511.29 989.476 3479.54 989.476 3479.54 976.55 3461.93 976.55 3461.93 963.326 3447.97 963.326 3447.97 949.827 3441.33 949.827 3441.33 936.075 3439.17 936.075 3439.17 922.093 3433.76 922.093 3433.76 907.882 3432.47 907.882 3432.47 893.464 3432.03 893.464 3432.03 878.863 3430.96 878.863 3430.96 864.032 3428.5 864.032 3428.5 849.04 3422.39 849.04 3422.39 833.841 3417.27 833.841 3417.27 818.459 3414.7 818.459 3414.7 802.917 3412.66 802.917 3412.66 787.19 3402.51 787.19 3402.51 771.28 3396.24 771.28 3396.24 755.186 3393.33 755.186 3393.33 738.932 3391.63 738.932 3391.63 722.471 3389.24 722.471 3389.24 705.849 3388.9 705.849 3388.9 689.043 3381.57 689.043 3381.57 672.031 3371.13 672.031 3371.13 654.835 3359.99 654.835 3359.99 637.433 3347.16 637.433 3347.16 619.824 3346.45 619.824 3346.45 601.985 3340.71 601.985 3340.71 583.917 3338.46 583.917 3338.46 565.596 3334.76 565.596 3334.76 547 3333.8 547 3333.8 528.105 3327.51 528.105 3327.51 508.912 3324.73 508.912 3324.73 489.352 3324.08 489.352 3324.08 469.401 3315.15 469.401 3315.15 448.968 3304.85 448.968 3304.85 428.007 3294.72 428.007 3294.72 406.357 3289.58 406.357 3289.58 383.858 3275.6 383.858 3275.6 360.211 3272.7 360.211 3272.7 334.773 3264.76 334.773 3264.76 306.052 3255 306.052 3255 258.093 3248.9 258.093Z" fill="#00BFC4" fill-rule="nonzero" fill-opacity="0.2"/><path d="M3214.8 216.79 3965.04 216.79 3965.04 1125.76 3214.8 1125.76Z" stroke="#333333" stroke-width="2.89275" stroke-linecap="round" stroke-linejoin="round" stroke-miterlimit="10" stroke-opacity="1" fill="none" fill-rule="nonzero"/></g><g><text fill="#4D4D4D" fill-opacity="1" font-family="Arial,Arial_MSFontService,sans-serif" font-style="normal" font-variant="normal" font-weight="400" font-stretch="normal" font-size="16" text-anchor="start" direction="ltr" writing-mode="lr-tb" unicode-bidi="normal" text-decoration="none" transform="matrix(2.29583 0 0 2.29583 3129.92 1098)">0.00</text><text fill="#4D4D4D" fill-opacity="1" font-family="Arial,Arial_MSFontService,sans-serif" font-style="normal" font-variant="normal" font-weight="400" font-stretch="normal" font-size="16" text-anchor="start" direction="ltr" writing-mode="lr-tb" unicode-bidi="normal" text-decoration="none" transform="matrix(2.29583 0 0 2.29583 3129.92 891)">0.25</text><text fill="#4D4D4D" fill-opacity="1" font-family="Arial,Arial_MSFontService,sans-serif" font-style="normal" font-variant="normal" font-weight="400" font-stretch="normal" font-size="16" text-anchor="start" direction="ltr" writing-mode="lr-tb" unicode-bidi="normal" text-decoration="none" transform="matrix(2.29583 0 0 2.29583 3129.92 684)">0.50</text><text fill="#4D4D4D" fill-opacity="1" font-family="Arial,Arial_MSFontService,sans-serif" font-style="normal" font-variant="normal" font-weight="400" font-stretch="normal" font-size="16" text-anchor="start" direction="ltr" writing-mode="lr-tb" unicode-bidi="normal" text-decoration="none" transform="matrix(2.29583 0 0 2.29583 3129.92 478)">0.75</text><text fill="#4D4D4D" fill-opacity="1" font-family="Arial,Arial_MSFontService,sans-serif" font-style="normal" font-variant="normal" font-weight="400" font-stretch="normal" font-size="16" text-anchor="start" direction="ltr" writing-mode="lr-tb" unicode-bidi="normal" text-decoration="none" transform="matrix(2.29583 0 0 2.29583 3129.92 271)">1.00</text><path d="M3207.36 1084.41 3214.8 1084.41" stroke="#333333" stroke-width="2.89275" stroke-linecap="butt" stroke-linejoin="round" stroke-miterlimit="10" stroke-opacity="1" fill="none" fill-rule="nonzero"/><path d="M3207.36 877.83 3214.8 877.83" stroke="#333333" stroke-width="2.89275" stroke-linecap="butt" stroke-linejoin="round" stroke-miterlimit="10" stroke-opacity="1" fill="none" fill-rule="nonzero"/><path d="M3207.36 671.251 3214.8 671.251" stroke="#333333" stroke-width="2.89275" stroke-linecap="butt" stroke-linejoin="round" stroke-miterlimit="10" stroke-opacity="1" fill="none" fill-rule="nonzero"/><path d="M3207.36 464.672 3214.8 464.672" stroke="#333333" stroke-width="2.89275" stroke-linecap="butt" stroke-linejoin="round" stroke-miterlimit="10" stroke-opacity="1" fill="none" fill-rule="nonzero"/><path d="M3207.36 258.093 3214.8 258.093" stroke="#333333" stroke-width="2.89275" stroke-linecap="butt" stroke-linejoin="round" stroke-miterlimit="10" stroke-opacity="1" fill="none" fill-rule="nonzero"/><path d="M3248.9 1133.17 3248.9 1125.73" stroke="#333333" stroke-width="2.89275" stroke-linecap="butt" stroke-linejoin="round" stroke-miterlimit="10" stroke-opacity="1" fill="none" fill-rule="nonzero"/><path d="M3465.65 1133.17 3465.65 1125.73" stroke="#333333" stroke-width="2.89275" stroke-linecap="butt" stroke-linejoin="round" stroke-miterlimit="10" stroke-opacity="1" fill="none" fill-rule="nonzero"/><path d="M3682.4 1133.17 3682.4 1125.73" stroke="#333333" stroke-width="2.89275" stroke-linecap="butt" stroke-linejoin="round" stroke-miterlimit="10" stroke-opacity="1" fill="none" fill-rule="nonzero"/><path d="M3899.12 1133.17 3899.12 1125.73" stroke="#333333" stroke-width="2.89275" stroke-linecap="butt" stroke-linejoin="round" stroke-miterlimit="10" stroke-opacity="1" fill="none" fill-rule="nonzero"/><text fill="#4D4D4D" fill-opacity="1" font-family="Arial,Arial_MSFontService,sans-serif" font-style="normal" font-variant="normal" font-weight="400" font-stretch="normal" font-size="16" text-anchor="start" direction="ltr" writing-mode="lr-tb" unicode-bidi="normal" text-decoration="none" transform="matrix(2.29583 0 0 2.29583 3238.68 1165)">0</text><text fill="#4D4D4D" fill-opacity="1" font-family="Arial,Arial_MSFontService,sans-serif" font-style="normal" font-variant="normal" font-weight="400" font-stretch="normal" font-size="16" text-anchor="start" direction="ltr" writing-mode="lr-tb" unicode-bidi="normal" text-decoration="none" transform="matrix(2.29583 0 0 2.29583 3455.43 1165)">1</text><text fill="#4D4D4D" fill-opacity="1" font-family="Arial,Arial_MSFontService,sans-serif" font-style="normal" font-variant="normal" font-weight="400" font-stretch="normal" font-size="16" text-anchor="start" direction="ltr" writing-mode="lr-tb" unicode-bidi="normal" text-decoration="none" transform="matrix(2.29583 0 0 2.29583 3672.18 1165)">2</text><text fill="#4D4D4D" fill-opacity="1" font-family="Arial,Arial_MSFontService,sans-serif" font-style="normal" font-variant="normal" font-weight="400" font-stretch="normal" font-size="16" text-anchor="start" direction="ltr" writing-mode="lr-tb" unicode-bidi="normal" text-decoration="none" transform="matrix(2.29583 0 0 2.29583 3888.91 1165)">3</text><text fill="#000000" fill-opacity="1" font-family="Arial,Arial_MSFontService,sans-serif" font-style="normal" font-variant="normal" font-weight="400" font-stretch="normal" font-size="20" text-anchor="start" direction="ltr" writing-mode="lr-tb" unicode-bidi="normal" text-decoration="none" transform="matrix(2.29583 0 0 2.29583 3539.75 1213)">Time</text><text fill="#000000" fill-opacity="1" font-family="Arial,Arial_MSFontService,sans-serif" font-style="normal" font-variant="normal" font-weight="400" font-stretch="normal" font-size="20" text-anchor="start" direction="ltr" writing-mode="lr-tb" unicode-bidi="normal" text-decoration="none" transform="matrix(1.40579e-16 -2.29583 2.29583 1.40579e-16 3112.75 866)">Survival Probability</text><path d="M3994.77 588.004 4152.15 588.004 4152.15 754.497 3994.77 754.497Z" fill="#FFFFFF" fill-rule="nonzero" fill-opacity="1"/><text fill="#000000" fill-opacity="1" font-family="Arial,Arial_MSFontService,sans-serif" font-style="normal" font-variant="normal" font-weight="400" font-stretch="normal" font-size="20" text-anchor="start" direction="ltr" writing-mode="lr-tb" unicode-bidi="normal" text-decoration="none" transform="matrix(2.29583 0 0 2.29583 4009.62 641)">Group</text><path d="M4009.62 660.299 4049.29 660.299 4049.29 699.971 4009.62 699.971Z" fill="#FFFFFF" fill-rule="nonzero" fill-opacity="1"/><path d="M4013.59 680.135 4045.34 680.135" stroke="#F8766D" stroke-width="4.89013" stroke-linecap="butt" stroke-linejoin="round" stroke-miterlimit="10" stroke-opacity="1" fill="none" fill-rule="nonzero"/><path d="M4011.55 662.205 4047.36 662.205 4047.36 698.02 4011.55 698.02Z" fill="#F8766D" fill-rule="nonzero" fill-opacity="0.2"/><path d="M4009.62 699.971 4049.29 699.971 4049.29 739.643 4009.62 739.643Z" fill="#FFFFFF" fill-rule="nonzero" fill-opacity="1"/><path d="M4013.59 719.807 4045.34 719.807" stroke="#00BFC4" stroke-width="4.89013" stroke-linecap="butt" stroke-linejoin="round" stroke-miterlimit="10" stroke-opacity="1" fill="none" fill-rule="nonzero"/><path d="M4011.55 701.877 4047.36 701.877 4047.36 737.692 4011.55 737.692Z" fill="#00BFC4" fill-rule="nonzero" fill-opacity="0.2"/><text fill="#000000" fill-opacity="1" font-family="Arial,Arial_MSFontService,sans-serif" font-style="normal" font-variant="normal" font-weight="400" font-stretch="normal" font-size="16" text-anchor="start" direction="ltr" writing-mode="lr-tb" unicode-bidi="normal" text-decoration="none" transform="matrix(2.29583 0 0 2.29583 4064.17 693)">0</text><text fill="#000000" fill-opacity="1" font-family="Arial,Arial_MSFontService,sans-serif" font-style="normal" font-variant="normal" font-weight="400" font-stretch="normal" font-size="16" text-anchor="start" direction="ltr" writing-mode="lr-tb" unicode-bidi="normal" text-decoration="none" transform="matrix(2.29583 0 0 2.29583 4064.17 733)">1</text><text fill="#000000" fill-opacity="1" font-family="Arial,Arial_MSFontService,sans-serif" font-style="normal" font-variant="normal" font-weight="400" font-stretch="normal" font-size="24" text-anchor="start" direction="ltr" writing-mode="lr-tb" unicode-bidi="normal" text-decoration="none" transform="matrix(2.29583 0 0 2.29583 3504.89 190)">p=0.01</text></g></g></g></g><g><g><g><path d="M1980 1254 3082 1254 3082 2356 1980 2356Z" fill="#FFFFFF" fill-rule="nonzero" fill-opacity="1"/><g><path d="M1980 1254 3082 1254 3082 2356 1980 2356Z" stroke="#FFFFFF" stroke-width="2.89275" stroke-linecap="round" stroke-linejoin="round" stroke-miterlimit="10" stroke-opacity="1" fill="#FFFFFF" fill-rule="nonzero" fill-opacity="1"/></g><g><path d="M2129.8 1334.79 2880.04 1334.79 2880.04 2243.76 2129.8 2243.76Z" fill="#FFFFFF" fill-rule="nonzero" fill-opacity="1"/><path d="M2129.8 2099.12 2880.04 2099.12" stroke="#EBEBEB" stroke-width="1.44638" stroke-linecap="butt" stroke-linejoin="round" stroke-miterlimit="10" stroke-opacity="1" fill="none" fill-rule="nonzero"/><path d="M2129.8 1892.54 2880.04 1892.54" stroke="#EBEBEB" stroke-width="1.44638" stroke-linecap="butt" stroke-linejoin="round" stroke-miterlimit="10" stroke-opacity="1" fill="none" fill-rule="nonzero"/><path d="M2129.8 1685.96 2880.04 1685.96" stroke="#EBEBEB" stroke-width="1.44638" stroke-linecap="butt" stroke-linejoin="round" stroke-miterlimit="10" stroke-opacity="1" fill="none" fill-rule="nonzero"/><path d="M2129.8 1479.38 2880.04 1479.38" stroke="#EBEBEB" stroke-width="1.44638" stroke-linecap="butt" stroke-linejoin="round" stroke-miterlimit="10" stroke-opacity="1" fill="none" fill-rule="nonzero"/><path d="M2268.36 2243.73 2268.36 1334.79" stroke="#EBEBEB" stroke-width="1.44638" stroke-linecap="butt" stroke-linejoin="round" stroke-miterlimit="10" stroke-opacity="1" fill="none" fill-rule="nonzero"/><path d="M2477.25 2243.73 2477.25 1334.79" stroke="#EBEBEB" stroke-width="1.44638" stroke-linecap="butt" stroke-linejoin="round" stroke-miterlimit="10" stroke-opacity="1" fill="none" fill-rule="nonzero"/><path d="M2686.15 2243.73 2686.15 1334.79" stroke="#EBEBEB" stroke-width="1.44638" stroke-linecap="butt" stroke-linejoin="round" stroke-miterlimit="10" stroke-opacity="1" fill="none" fill-rule="nonzero"/><path d="M2129.8 2202.41 2880.04 2202.41" stroke="#EBEBEB" stroke-width="2.89275" stroke-linecap="butt" stroke-linejoin="round" stroke-miterlimit="10" stroke-opacity="1" fill="none" fill-rule="nonzero"/><path d="M2129.8 1995.83 2880.04 1995.83" stroke="#EBEBEB" stroke-width="2.89275" stroke-linecap="butt" stroke-linejoin="round" stroke-miterlimit="10" stroke-opacity="1" fill="none" fill-rule="nonzero"/><path d="M2129.8 1789.25 2880.04 1789.25" stroke="#EBEBEB" stroke-width="2.89275" stroke-linecap="butt" stroke-linejoin="round" stroke-miterlimit="10" stroke-opacity="1" fill="none" fill-rule="nonzero"/><path d="M2129.8 1582.67 2880.04 1582.67" stroke="#EBEBEB" stroke-width="2.89275" stroke-linecap="butt" stroke-linejoin="round" stroke-miterlimit="10" stroke-opacity="1" fill="none" fill-rule="nonzero"/><path d="M2129.8 1376.09 2880.04 1376.09" stroke="#EBEBEB" stroke-width="2.89275" stroke-linecap="butt" stroke-linejoin="round" stroke-miterlimit="10" stroke-opacity="1" fill="none" fill-rule="nonzero"/><path d="M2163.9 2243.73 2163.9 1334.79" stroke="#EBEBEB" stroke-width="2.89275" stroke-linecap="butt" stroke-linejoin="round" stroke-miterlimit="10" stroke-opacity="1" fill="none" fill-rule="nonzero"/><path d="M2372.79 2243.73 2372.79 1334.79" stroke="#EBEBEB" stroke-width="2.89275" stroke-linecap="butt" stroke-linejoin="round" stroke-miterlimit="10" stroke-opacity="1" fill="none" fill-rule="nonzero"/><path d="M2581.72 2243.73 2581.72 1334.79" stroke="#EBEBEB" stroke-width="2.89275" stroke-linecap="butt" stroke-linejoin="round" stroke-miterlimit="10" stroke-opacity="1" fill="none" fill-rule="nonzero"/><path d="M2790.61 2243.73 2790.61 1334.79" stroke="#EBEBEB" stroke-width="2.89275" stroke-linecap="butt" stroke-linejoin="round" stroke-miterlimit="10" stroke-opacity="1" fill="none" fill-rule="nonzero"/><path d="M2163.9 1376.09 2170.44 1376.09 2170.44 1392.62 2173.08 1392.62 2173.08 1409.15 2173.54 1409.15 2173.54 1425.68 2192.85 1425.68 2192.85 1442.21 2193.99 1442.21 2193.99 1458.72 2196.86 1458.72 2196.86 1475.25 2218.74 1475.25 2218.74 1491.78 2233.3 1491.78 2233.3 1508.31 2239.18 1508.31 2239.18 1524.84 2243.24 1524.84 2243.24 1541.37 2248.59 1541.37 2248.59 1557.88 2249.85 1557.88 2249.85 1574.41 2251.34 1574.41 2251.34 1590.94 2263.56 1590.94 2263.56 1607.47 2278.32 1607.47 2278.32 1624 2282.68 1624 2282.68 1640.53 2291.93 1640.53 2291.93 1657.06 2296.07 1657.06 2296.07 1673.56 2297.51 1673.56 2297.51 1690.09 2302.47 1690.09 2302.47 1706.62 2304.93 1706.62 2304.93 1723.15 2305.96 1723.15 2305.96 1739.68 2309.02 1739.68 2309.02 1756.21 2311.79 1756.21 2311.79 1772.72 2315.77 1772.72 2315.77 1789.25 2324.56 1789.25 2324.56 1805.78 2327.93 1805.78 2327.93 1822.31 2328.76 1822.31 2328.76 1838.84 2337.85 1838.84 2337.85 1855.37 2349.15 1855.37 2349.15 1871.9 2352.5 1871.9 2352.5 1888.41 2352.94 1888.41 2352.94 1904.94 2354.82 1904.94 2354.82 1921.47 2359.34 1921.47 2359.34 1938 2373.23 1938 2373.23 1954.53 2374.52 1954.53 2374.52 1971.06 2390.33 1971.06 2390.33 1987.56 2399.52 1987.56 2399.52 2004.09 2408.1 2004.09 2408.1 2020.62 2412.17 2020.62 2412.17 2037.15 2427.04 2037.15 2427.04 2053.68 2441.97 2053.68 2441.97 2070.21 2453.88 2070.21 2453.88 2086.74 2455.38 2086.74 2455.38 2103.25 2501.87 2103.25 2501.87 2119.78 2517.75 2119.78 2517.75 2136.31 2548.45 2136.31 2548.45 2152.84 2555.91 2152.84 2555.91 2169.37 2727.8 2169.37 2727.8 2185.9 2845.92 2185.9 2845.92 2202.41" stroke="#F8766D" stroke-width="4.89013" stroke-linecap="butt" stroke-linejoin="round" stroke-miterlimit="10" stroke-opacity="1" fill="none" fill-rule="nonzero"/><path d="M2163.9 1376.09 2193.26 1376.09 2193.26 1392.62 2204.03 1392.62 2204.03 1409.15 2205.57 1409.15 2205.57 1425.68 2211.4 1425.68 2211.4 1442.21 2213.56 1442.21 2213.56 1458.72 2220.17 1458.72 2220.17 1475.25 2237.34 1475.25 2237.34 1491.78 2238.1 1491.78 2238.1 1508.31 2242.16 1508.31 2242.16 1524.84 2243.63 1524.84 2243.63 1541.37 2255.18 1541.37 2255.18 1557.88 2262.07 1557.88 2262.07 1574.41 2262.46 1574.41 2262.46 1590.94 2277.24 1590.94 2277.24 1607.47 2286.93 1607.47 2286.93 1624 2290.56 1624 2290.56 1640.53 2290.65 1640.53 2290.65 1657.06 2306.31 1657.06 2306.31 1673.56 2308.03 1673.56 2308.03 1690.09 2309.61 1690.09 2309.61 1706.62 2312.44 1706.62 2312.44 1723.15 2319.92 1723.15 2319.92 1739.68 2329.91 1739.68 2329.91 1756.21 2334.48 1756.21 2334.48 1772.72 2360.72 1772.72 2360.72 1789.25 2376.26 1789.25 2376.26 1805.78 2380.58 1805.78 2380.58 1822.31 2381.24 1822.31 2381.24 1838.84 2386.48 1838.84 2386.48 1855.37 2407.3 1855.37 2407.3 1871.9 2419.72 1871.9 2419.72 1888.41 2432.72 1888.41 2432.72 1904.94 2462.84 1904.94 2462.84 1921.47 2471.77 1921.47 2471.77 1938 2472.09 1938 2472.09 1954.53 2508.87 1954.53 2508.87 1971.06 2519.87 1971.06 2519.87 1987.56 2520.65 1987.56 2520.65 2004.09 2535.34 2004.09 2535.34 2020.62 2547.16 2020.62 2547.16 2037.15 2566.91 2037.15 2566.91 2053.68 2585.78 2053.68 2585.78 2070.21 2594.32 2070.21 2594.32 2086.74 2602.68 2086.74 2602.68 2103.25 2626.41 2103.25 2626.41 2119.78 2630.57 2119.78 2630.57 2136.31 2638.08 2136.31 2638.08 2152.84 2640.79 2152.84 2640.79 2169.37 2686.2 2169.37 2686.2 2185.9 2720.43 2185.9 2720.43 2202.41" stroke="#00BFC4" stroke-width="4.89013" stroke-linecap="butt" stroke-linejoin="round" stroke-miterlimit="10" stroke-opacity="1" fill="none" fill-rule="nonzero"/><path d="M2163.9 1376.09 2170.44 1376.09 2173.08 1376.09 2173.54 1376.09 2192.85 1376.09 2192.85 1377.45 2193.99 1377.45 2193.99 1386.75 2196.86 1386.75 2196.86 1396.89 2218.74 1396.89 2218.74 1407.68 2233.3 1407.68 2233.3 1419.05 2239.18 1419.05 2239.18 1430.87 2243.24 1430.87 2243.24 1443.08 2248.59 1443.08 2248.59 1455.67 2249.85 1455.67 2249.85 1468.57 2251.34 1468.57 2251.34 1481.75 2263.56 1481.75 2263.56 1495.2 2278.32 1495.2 2278.32 1508.91 2282.68 1508.91 2282.68 1522.84 2291.93 1522.84 2291.93 1537.01 2296.07 1537.01 2296.07 1551.38 2297.51 1551.38 2297.51 1565.93 2302.47 1565.93 2302.47 1580.7 2304.93 1580.7 2304.93 1595.67 2305.96 1595.67 2305.96 1610.8 2309.02 1610.8 2309.02 1626.11 2311.79 1626.11 2311.79 1641.63 2315.77 1641.63 2315.77 1657.29 2324.56 1657.29 2324.56 1673.15 2327.93 1673.15 2327.93 1689.15 2328.76 1689.15 2328.76 1705.36 2337.85 1705.36 2337.85 1721.73 2349.15 1721.73 2349.15 1738.28 2352.5 1738.28 2352.5 1755.02 2352.94 1755.02 2352.94 1771.94 2354.82 1771.94 2354.82 1789.04 2359.34 1789.04 2359.34 1806.33 2373.23 1806.33 2373.23 1823.85 2374.52 1823.85 2374.52 1841.55 2390.33 1841.55 2390.33 1859.48 2399.52 1859.48 2399.52 1877.64 2408.1 1877.64 2408.1 1896.05 2412.17 1896.05 2412.17 1914.72 2427.04 1914.72 2427.04 1933.66 2441.97 1933.66 2441.97 1952.9 2453.88 1952.9 2453.88 1972.46 2455.38 1972.46 2455.38 1992.36 2501.87 1992.36 2501.87 2012.64 2517.75 2012.64 2517.75 2033.21 2548.45 2033.21 2548.45 2053.91 2555.91 2053.91 2555.91 2073.91 2727.8 2073.91 2727.8 2087.39 2727.8 2200.04 2727.8 2193.91 2555.91 2193.91 2555.91 2185.88 2548.45 2185.88 2548.45 2176.6 2517.75 2176.6 2517.75 2166.43 2501.87 2166.43 2501.87 2155.62 2455.38 2155.62 2455.38 2144.21 2453.88 2144.21 2453.88 2132.36 2441.97 2132.36 2441.97 2120.1 2427.04 2120.1 2427.04 2107.48 2412.17 2107.48 2412.17 2094.55 2408.1 2094.55 2408.1 2081.33 2399.52 2081.33 2399.52 2067.83 2390.33 2067.83 2390.33 2054.07 2374.52 2054.07 2374.52 2040.09 2373.23 2040.09 2373.23 2025.88 2359.34 2025.88 2359.34 2011.46 2354.82 2011.46 2354.82 1996.86 2352.94 1996.86 2352.94 1982.03 2352.5 1982.03 2352.5 1967.04 2349.15 1967.04 2349.15 1951.84 2337.85 1951.84 2337.85 1936.46 2328.76 1936.46 2328.76 1920.92 2327.93 1920.92 2327.93 1905.19 2324.56 1905.19 2324.56 1889.28 2315.77 1889.28 2315.77 1873.19 2311.79 1873.19 2311.79 1856.93 2309.02 1856.93 2309.02 1840.47 2305.96 1840.47 2305.96 1823.85 2304.93 1823.85 2304.93 1807.04 2302.47 1807.04 2302.47 1790.03 2297.51 1790.03 2297.51 1772.84 2296.07 1772.84 2296.07 1755.43 2291.93 1755.43 2291.93 1737.82 2282.68 1737.82 2282.68 1719.99 2278.32 1719.99 2278.32 1701.92 2263.56 1701.92 2263.56 1683.6 2251.34 1683.6 2251.34 1665 2249.85 1665 2249.85 1646.11 2248.59 1646.11 2248.59 1626.91 2243.24 1626.91 2243.24 1607.35 2239.18 1607.35 2239.18 1587.4 2233.3 1587.4 2233.3 1566.97 2218.74 1566.97 2218.74 1546.01 2196.86 1546.01 2196.86 1524.36 2193.99 1524.36 2193.99 1501.86 2192.85 1501.86 2192.85 1478.21 2173.54 1478.21 2173.54 1452.77 2173.08 1452.77 2173.08 1424.05 2170.44 1424.05 2170.44 1376.09 2163.9 1376.09Z" fill="#F8766D" fill-rule="nonzero" fill-opacity="0.2"/><path d="M2163.9 1376.09 2193.26 1376.09 2204.03 1376.09 2205.57 1376.09 2211.4 1376.09 2211.4 1377.45 2213.56 1377.45 2213.56 1386.75 2220.17 1386.75 2220.17 1396.89 2237.34 1396.89 2237.34 1407.68 2238.1 1407.68 2238.1 1419.05 2242.16 1419.05 2242.16 1430.87 2243.63 1430.87 2243.63 1443.08 2255.18 1443.08 2255.18 1455.67 2262.07 1455.67 2262.07 1468.57 2262.46 1468.57 2262.46 1481.75 2277.24 1481.75 2277.24 1495.2 2286.93 1495.2 2286.93 1508.91 2290.56 1508.91 2290.56 1522.84 2290.65 1522.84 2290.65 1537.01 2306.31 1537.01 2306.31 1551.38 2308.03 1551.38 2308.03 1565.93 2309.61 1565.93 2309.61 1580.7 2312.44 1580.7 2312.44 1595.67 2319.92 1595.67 2319.92 1610.8 2329.91 1610.8 2329.91 1626.11 2334.48 1626.11 2334.48 1641.63 2360.72 1641.63 2360.72 1657.29 2376.26 1657.29 2376.26 1673.15 2380.58 1673.15 2380.58 1689.15 2381.24 1689.15 2381.24 1705.36 2386.48 1705.36 2386.48 1721.73 2407.3 1721.73 2407.3 1738.28 2419.72 1738.28 2419.72 1755.02 2432.72 1755.02 2432.72 1771.94 2462.84 1771.94 2462.84 1789.04 2471.77 1789.04 2471.77 1806.33 2472.09 1806.33 2472.09 1823.85 2508.87 1823.85 2508.87 1841.55 2519.87 1841.55 2519.87 1859.48 2520.65 1859.48 2520.65 1877.64 2535.34 1877.64 2535.34 1896.05 2547.16 1896.05 2547.16 1914.72 2566.91 1914.72 2566.91 1933.66 2585.78 1933.66 2585.78 1952.9 2594.32 1952.9 2594.32 1972.46 2602.68 1972.46 2602.68 1992.36 2626.41 1992.36 2626.41 2012.64 2630.57 2012.64 2630.57 2033.21 2638.08 2033.21 2638.08 2053.91 2640.79 2053.91 2640.79 2073.91 2686.2 2073.91 2686.2 2087.39 2686.2 2200.04 2686.2 2193.91 2640.79 2193.91 2640.79 2185.88 2638.08 2185.88 2638.08 2176.6 2630.57 2176.6 2630.57 2166.43 2626.41 2166.43 2626.41 2155.62 2602.68 2155.62 2602.68 2144.21 2594.32 2144.21 2594.32 2132.36 2585.78 2132.36 2585.78 2120.1 2566.91 2120.1 2566.91 2107.48 2547.16 2107.48 2547.16 2094.55 2535.34 2094.55 2535.34 2081.33 2520.65 2081.33 2520.65 2067.83 2519.87 2067.83 2519.87 2054.07 2508.87 2054.07 2508.87 2040.09 2472.09 2040.09 2472.09 2025.88 2471.77 2025.88 2471.77 2011.46 2462.84 2011.46 2462.84 1996.86 2432.72 1996.86 2432.72 1982.03 2419.72 1982.03 2419.72 1967.04 2407.3 1967.04 2407.3 1951.84 2386.48 1951.84 2386.48 1936.46 2381.24 1936.46 2381.24 1920.92 2380.58 1920.92 2380.58 1905.19 2376.26 1905.19 2376.26 1889.28 2360.72 1889.28 2360.72 1873.19 2334.48 1873.19 2334.48 1856.93 2329.91 1856.93 2329.91 1840.47 2319.92 1840.47 2319.92 1823.85 2312.44 1823.85 2312.44 1807.04 2309.61 1807.04 2309.61 1790.03 2308.03 1790.03 2308.03 1772.84 2306.31 1772.84 2306.31 1755.43 2290.65 1755.43 2290.65 1737.82 2290.56 1737.82 2290.56 1719.99 2286.93 1719.99 2286.93 1701.92 2277.24 1701.92 2277.24 1683.6 2262.46 1683.6 2262.46 1665 2262.07 1665 2262.07 1646.11 2255.18 1646.11 2255.18 1626.91 2243.63 1626.91 2243.63 1607.35 2242.16 1607.35 2242.16 1587.4 2238.1 1587.4 2238.1 1566.97 2237.34 1566.97 2237.34 1546.01 2220.17 1546.01 2220.17 1524.36 2213.56 1524.36 2213.56 1501.86 2211.4 1501.86 2211.4 1478.21 2205.57 1478.21 2205.57 1452.77 2204.03 1452.77 2204.03 1424.05 2193.26 1424.05 2193.26 1376.09 2163.9 1376.09Z" fill="#00BFC4" fill-rule="nonzero" fill-opacity="0.2"/><path d="M2129.8 1334.79 2880.04 1334.79 2880.04 2243.76 2129.8 2243.76Z" stroke="#333333" stroke-width="2.89275" stroke-linecap="round" stroke-linejoin="round" stroke-miterlimit="10" stroke-opacity="1" fill="none" fill-rule="nonzero"/></g><g><text fill="#4D4D4D" fill-opacity="1" font-family="Arial,Arial_MSFontService,sans-serif" font-style="normal" font-variant="normal" font-weight="400" font-stretch="normal" font-size="16" text-anchor="start" direction="ltr" writing-mode="lr-tb" unicode-bidi="normal" text-decoration="none" transform="matrix(2.29583 0 0 2.29583 2044.92 2216)">0.00</text><text fill="#4D4D4D" fill-opacity="1" font-family="Arial,Arial_MSFontService,sans-serif" font-style="normal" font-variant="normal" font-weight="400" font-stretch="normal" font-size="16" text-anchor="start" direction="ltr" writing-mode="lr-tb" unicode-bidi="normal" text-decoration="none" transform="matrix(2.29583 0 0 2.29583 2044.92 2009)">0.25</text><text fill="#4D4D4D" fill-opacity="1" font-family="Arial,Arial_MSFontService,sans-serif" font-style="normal" font-variant="normal" font-weight="400" font-stretch="normal" font-size="16" text-anchor="start" direction="ltr" writing-mode="lr-tb" unicode-bidi="normal" text-decoration="none" transform="matrix(2.29583 0 0 2.29583 2044.92 1802)">0.50</text><text fill="#4D4D4D" fill-opacity="1" font-family="Arial,Arial_MSFontService,sans-serif" font-style="normal" font-variant="normal" font-weight="400" font-stretch="normal" font-size="16" text-anchor="start" direction="ltr" writing-mode="lr-tb" unicode-bidi="normal" text-decoration="none" transform="matrix(2.29583 0 0 2.29583 2044.92 1596)">0.75</text><text fill="#4D4D4D" fill-opacity="1" font-family="Arial,Arial_MSFontService,sans-serif" font-style="normal" font-variant="normal" font-weight="400" font-stretch="normal" font-size="16" text-anchor="start" direction="ltr" writing-mode="lr-tb" unicode-bidi="normal" text-decoration="none" transform="matrix(2.29583 0 0 2.29583 2044.92 1389)">1.00</text><path d="M2122.36 2202.41 2129.8 2202.41" stroke="#333333" stroke-width="2.89275" stroke-linecap="butt" stroke-linejoin="round" stroke-miterlimit="10" stroke-opacity="1" fill="none" fill-rule="nonzero"/><path d="M2122.36 1995.83 2129.8 1995.83" stroke="#333333" stroke-width="2.89275" stroke-linecap="butt" stroke-linejoin="round" stroke-miterlimit="10" stroke-opacity="1" fill="none" fill-rule="nonzero"/><path d="M2122.36 1789.25 2129.8 1789.25" stroke="#333333" stroke-width="2.89275" stroke-linecap="butt" stroke-linejoin="round" stroke-miterlimit="10" stroke-opacity="1" fill="none" fill-rule="nonzero"/><path d="M2122.36 1582.67 2129.8 1582.67" stroke="#333333" stroke-width="2.89275" stroke-linecap="butt" stroke-linejoin="round" stroke-miterlimit="10" stroke-opacity="1" fill="none" fill-rule="nonzero"/><path d="M2122.36 1376.09 2129.8 1376.09" stroke="#333333" stroke-width="2.89275" stroke-linecap="butt" stroke-linejoin="round" stroke-miterlimit="10" stroke-opacity="1" fill="none" fill-rule="nonzero"/><path d="M2163.9 2251.17 2163.9 2243.73" stroke="#333333" stroke-width="2.89275" stroke-linecap="butt" stroke-linejoin="round" stroke-miterlimit="10" stroke-opacity="1" fill="none" fill-rule="nonzero"/><path d="M2372.79 2251.17 2372.79 2243.73" stroke="#333333" stroke-width="2.89275" stroke-linecap="butt" stroke-linejoin="round" stroke-miterlimit="10" stroke-opacity="1" fill="none" fill-rule="nonzero"/><path d="M2581.72 2251.17 2581.72 2243.73" stroke="#333333" stroke-width="2.89275" stroke-linecap="butt" stroke-linejoin="round" stroke-miterlimit="10" stroke-opacity="1" fill="none" fill-rule="nonzero"/><path d="M2790.61 2251.17 2790.61 2243.73" stroke="#333333" stroke-width="2.89275" stroke-linecap="butt" stroke-linejoin="round" stroke-miterlimit="10" stroke-opacity="1" fill="none" fill-rule="nonzero"/><text fill="#4D4D4D" fill-opacity="1" font-family="Arial,Arial_MSFontService,sans-serif" font-style="normal" font-variant="normal" font-weight="400" font-stretch="normal" font-size="16" text-anchor="start" direction="ltr" writing-mode="lr-tb" unicode-bidi="normal" text-decoration="none" transform="matrix(2.29583 0 0 2.29583 2153.68 2283)">0</text><text fill="#4D4D4D" fill-opacity="1" font-family="Arial,Arial_MSFontService,sans-serif" font-style="normal" font-variant="normal" font-weight="400" font-stretch="normal" font-size="16" text-anchor="start" direction="ltr" writing-mode="lr-tb" unicode-bidi="normal" text-decoration="none" transform="matrix(2.29583 0 0 2.29583 2362.58 2283)">1</text><text fill="#4D4D4D" fill-opacity="1" font-family="Arial,Arial_MSFontService,sans-serif" font-style="normal" font-variant="normal" font-weight="400" font-stretch="normal" font-size="16" text-anchor="start" direction="ltr" writing-mode="lr-tb" unicode-bidi="normal" text-decoration="none" transform="matrix(2.29583 0 0 2.29583 2571.5 2283)">2</text><text fill="#4D4D4D" fill-opacity="1" font-family="Arial,Arial_MSFontService,sans-serif" font-style="normal" font-variant="normal" font-weight="400" font-stretch="normal" font-size="16" text-anchor="start" direction="ltr" writing-mode="lr-tb" unicode-bidi="normal" text-decoration="none" transform="matrix(2.29583 0 0 2.29583 2780.4 2283)">3</text><text fill="#000000" fill-opacity="1" font-family="Arial,Arial_MSFontService,sans-serif" font-style="normal" font-variant="normal" font-weight="400" font-stretch="normal" font-size="20" text-anchor="start" direction="ltr" writing-mode="lr-tb" unicode-bidi="normal" text-decoration="none" transform="matrix(2.29583 0 0 2.29583 2454.75 2331)">Time</text><text fill="#000000" fill-opacity="1" font-family="Arial,Arial_MSFontService,sans-serif" font-style="normal" font-variant="normal" font-weight="400" font-stretch="normal" font-size="20" text-anchor="start" direction="ltr" writing-mode="lr-tb" unicode-bidi="normal" text-decoration="none" transform="matrix(1.40579e-16 -2.29583 2.29583 1.40579e-16 2027.75 1984)">Survival Probability</text><path d="M2909.77 1706 3067.15 1706 3067.15 1872.5 2909.77 1872.5Z" fill="#FFFFFF" fill-rule="nonzero" fill-opacity="1"/><text fill="#000000" fill-opacity="1" font-family="Arial,Arial_MSFontService,sans-serif" font-style="normal" font-variant="normal" font-weight="400" font-stretch="normal" font-size="20" text-anchor="start" direction="ltr" writing-mode="lr-tb" unicode-bidi="normal" text-decoration="none" transform="matrix(2.29583 0 0 2.29583 2924.62 1759)">Group</text><path d="M2924.62 1778.3 2964.29 1778.3 2964.29 1817.97 2924.62 1817.97Z" fill="#FFFFFF" fill-rule="nonzero" fill-opacity="1"/><path d="M2928.59 1798.14 2960.34 1798.14" stroke="#F8766D" stroke-width="4.89013" stroke-linecap="butt" stroke-linejoin="round" stroke-miterlimit="10" stroke-opacity="1" fill="none" fill-rule="nonzero"/><path d="M2926.55 1780.21 2962.36 1780.21 2962.36 1816.02 2926.55 1816.02Z" fill="#F8766D" fill-rule="nonzero" fill-opacity="0.2"/><path d="M2924.62 1817.97 2964.29 1817.97 2964.29 1857.64 2924.62 1857.64Z" fill="#FFFFFF" fill-rule="nonzero" fill-opacity="1"/><path d="M2928.59 1837.81 2960.34 1837.81" stroke="#00BFC4" stroke-width="4.89013" stroke-linecap="butt" stroke-linejoin="round" stroke-miterlimit="10" stroke-opacity="1" fill="none" fill-rule="nonzero"/><path d="M2926.55 1819.88 2962.36 1819.88 2962.36 1855.69 2926.55 1855.69Z" fill="#00BFC4" fill-rule="nonzero" fill-opacity="0.2"/><text fill="#000000" fill-opacity="1" font-family="Arial,Arial_MSFontService,sans-serif" font-style="normal" font-variant="normal" font-weight="400" font-stretch="normal" font-size="16" text-anchor="start" direction="ltr" writing-mode="lr-tb" unicode-bidi="normal" text-decoration="none" transform="matrix(2.29583 0 0 2.29583 2979.17 1811)">0</text><text fill="#000000" fill-opacity="1" font-family="Arial,Arial_MSFontService,sans-serif" font-style="normal" font-variant="normal" font-weight="400" font-stretch="normal" font-size="16" text-anchor="start" direction="ltr" writing-mode="lr-tb" unicode-bidi="normal" text-decoration="none" transform="matrix(2.29583 0 0 2.29583 2979.17 1851)">1</text><text fill="#000000" fill-opacity="1" font-family="Arial,Arial_MSFontService,sans-serif" font-style="normal" font-variant="normal" font-weight="400" font-stretch="normal" font-size="24" text-anchor="start" direction="ltr" writing-mode="lr-tb" unicode-bidi="normal" text-decoration="none" transform="matrix(2.29583 0 0 2.29583 2421.93 1308)">p=0.11</text></g></g></g></g><g><g><g><path d="M3065 1254 4167 1254 4167 2356 3065 2356Z" fill="#FFFFFF" fill-rule="nonzero" fill-opacity="1"/><g><path d="M3065 1254 4167 1254 4167 2356 3065 2356Z" stroke="#FFFFFF" stroke-width="2.89275" stroke-linecap="round" stroke-linejoin="round" stroke-miterlimit="10" stroke-opacity="1" fill="#FFFFFF" fill-rule="nonzero" fill-opacity="1"/></g><g><path d="M3214.8 1334.79 3965.04 1334.79 3965.04 2243.76 3214.8 2243.76Z" fill="#FFFFFF" fill-rule="nonzero" fill-opacity="1"/><path d="M3214.8 2099.12 3965.04 2099.12" stroke="#EBEBEB" stroke-width="1.44638" stroke-linecap="butt" stroke-linejoin="round" stroke-miterlimit="10" stroke-opacity="1" fill="none" fill-rule="nonzero"/><path d="M3214.8 1892.54 3965.04 1892.54" stroke="#EBEBEB" stroke-width="1.44638" stroke-linecap="butt" stroke-linejoin="round" stroke-miterlimit="10" stroke-opacity="1" fill="none" fill-rule="nonzero"/><path d="M3214.8 1685.96 3965.04 1685.96" stroke="#EBEBEB" stroke-width="1.44638" stroke-linecap="butt" stroke-linejoin="round" stroke-miterlimit="10" stroke-opacity="1" fill="none" fill-rule="nonzero"/><path d="M3214.8 1479.38 3965.04 1479.38" stroke="#EBEBEB" stroke-width="1.44638" stroke-linecap="butt" stroke-linejoin="round" stroke-miterlimit="10" stroke-opacity="1" fill="none" fill-rule="nonzero"/><path d="M3357.1 2243.73 3357.1 1334.79" stroke="#EBEBEB" stroke-width="1.44638" stroke-linecap="butt" stroke-linejoin="round" stroke-miterlimit="10" stroke-opacity="1" fill="none" fill-rule="nonzero"/><path d="M3573.48 2243.73 3573.48 1334.79" stroke="#EBEBEB" stroke-width="1.44638" stroke-linecap="butt" stroke-linejoin="round" stroke-miterlimit="10" stroke-opacity="1" fill="none" fill-rule="nonzero"/><path d="M3789.86 2243.73 3789.86 1334.79" stroke="#EBEBEB" stroke-width="1.44638" stroke-linecap="butt" stroke-linejoin="round" stroke-miterlimit="10" stroke-opacity="1" fill="none" fill-rule="nonzero"/><path d="M3214.8 2202.41 3965.04 2202.41" stroke="#EBEBEB" stroke-width="2.89275" stroke-linecap="butt" stroke-linejoin="round" stroke-miterlimit="10" stroke-opacity="1" fill="none" fill-rule="nonzero"/><path d="M3214.8 1995.83 3965.04 1995.83" stroke="#EBEBEB" stroke-width="2.89275" stroke-linecap="butt" stroke-linejoin="round" stroke-miterlimit="10" stroke-opacity="1" fill="none" fill-rule="nonzero"/><path d="M3214.8 1789.25 3965.04 1789.25" stroke="#EBEBEB" stroke-width="2.89275" stroke-linecap="butt" stroke-linejoin="round" stroke-miterlimit="10" stroke-opacity="1" fill="none" fill-rule="nonzero"/><path d="M3214.8 1582.67 3965.04 1582.67" stroke="#EBEBEB" stroke-width="2.89275" stroke-linecap="butt" stroke-linejoin="round" stroke-miterlimit="10" stroke-opacity="1" fill="none" fill-rule="nonzero"/><path d="M3214.8 1376.09 3965.04 1376.09" stroke="#EBEBEB" stroke-width="2.89275" stroke-linecap="butt" stroke-linejoin="round" stroke-miterlimit="10" stroke-opacity="1" fill="none" fill-rule="nonzero"/><path d="M3248.9 2243.73 3248.9 1334.79" stroke="#EBEBEB" stroke-width="2.89275" stroke-linecap="butt" stroke-linejoin="round" stroke-miterlimit="10" stroke-opacity="1" fill="none" fill-rule="nonzero"/><path d="M3465.28 2243.73 3465.28 1334.79" stroke="#EBEBEB" stroke-width="2.89275" stroke-linecap="butt" stroke-linejoin="round" stroke-miterlimit="10" stroke-opacity="1" fill="none" fill-rule="nonzero"/><path d="M3681.68 2243.73 3681.68 1334.79" stroke="#EBEBEB" stroke-width="2.89275" stroke-linecap="butt" stroke-linejoin="round" stroke-miterlimit="10" stroke-opacity="1" fill="none" fill-rule="nonzero"/><path d="M3898.07 2243.73 3898.07 1334.79" stroke="#EBEBEB" stroke-width="2.89275" stroke-linecap="butt" stroke-linejoin="round" stroke-miterlimit="10" stroke-opacity="1" fill="none" fill-rule="nonzero"/><path d="M3248.9 1376.09 3261.25 1376.09 3261.25 1392.62 3262.42 1392.62 3262.42 1409.15 3263.59 1409.15 3263.59 1425.68 3269.08 1425.68 3269.08 1442.21 3269.74 1442.21 3269.74 1458.72 3269.83 1458.72 3269.83 1475.25 3273.21 1475.25 3273.21 1491.78 3281.82 1491.78 3281.82 1508.31 3283.36 1508.31 3283.36 1524.84 3296.95 1524.84 3296.95 1541.37 3315.8 1541.37 3315.8 1557.88 3323.37 1557.88 3323.37 1574.41 3325.78 1574.41 3325.78 1590.94 3337.42 1590.94 3337.42 1607.47 3338.89 1607.47 3338.89 1624 3340.06 1624 3340.06 1640.53 3343.97 1640.53 3343.97 1657.06 3345.44 1657.06 3345.44 1673.56 3366.83 1673.56 3366.83 1690.09 3368.28 1690.09 3368.28 1706.62 3374.11 1706.62 3374.11 1723.15 3377.05 1723.15 3377.05 1739.68 3390.89 1739.68 3390.89 1756.21 3399.78 1756.21 3399.78 1772.72 3407.95 1772.72 3407.95 1789.25 3419.43 1789.25 3419.43 1805.78 3420.46 1805.78 3420.46 1822.31 3427.95 1822.31 3427.95 1838.84 3430.75 1838.84 3430.75 1855.37 3432.13 1855.37 3432.13 1871.9 3432.68 1871.9 3432.68 1888.41 3435.66 1888.41 3435.66 1904.94 3436.65 1904.94 3436.65 1921.47 3446.02 1921.47 3446.02 1938 3446.29 1938 3446.29 1954.53 3447.88 1954.53 3447.88 1971.06 3472.6 1971.06 3472.6 1987.56 3481.58 1987.56 3481.58 2004.09 3500.29 2004.09 3500.29 2020.62 3512.07 2020.62 3512.07 2037.15 3519.02 2037.15 3519.02 2053.68 3527.17 2053.68 3527.17 2070.21 3541.8 2070.21 3541.8 2086.74 3558.81 2086.74 3558.81 2103.25 3582.8 2103.25 3582.8 2119.78 3621.97 2119.78 3621.97 2136.31 3665.2 2136.31 3665.2 2152.84 3740.66 2152.84 3740.66 2169.37 3750.21 2169.37 3750.21 2185.9 3930.92 2185.9 3930.92 2202.41" stroke="#F8766D" stroke-width="4.89013" stroke-linecap="butt" stroke-linejoin="round" stroke-miterlimit="10" stroke-opacity="1" fill="none" fill-rule="nonzero"/><path d="M3248.9 1376.09 3269.05 1376.09 3269.05 1392.62 3269.56 1392.62 3269.56 1409.15 3290.36 1409.15 3290.36 1425.68 3295.59 1425.68 3295.59 1442.21 3303.95 1442.21 3303.95 1458.72 3305.37 1458.72 3305.37 1475.25 3309.83 1475.25 3309.83 1491.78 3319.24 1491.78 3319.24 1508.31 3337.95 1508.31 3337.95 1524.84 3339.15 1524.84 3339.15 1541.37 3363.21 1541.37 3363.21 1557.88 3369.13 1557.88 3369.13 1574.41 3370.62 1574.41 3370.62 1590.94 3381.07 1590.94 3381.07 1607.47 3382.49 1607.47 3382.49 1624 3384.51 1624 3384.51 1640.53 3384.67 1640.53 3384.67 1657.06 3387.4 1657.06 3387.4 1673.56 3388.16 1673.56 3388.16 1690.09 3390.59 1690.09 3390.59 1706.62 3395.94 1706.62 3395.94 1723.15 3400.79 1723.15 3400.79 1739.68 3404.37 1739.68 3404.37 1756.21 3418.79 1756.21 3418.79 1772.72 3431.97 1772.72 3431.97 1789.25 3441.47 1789.25 3441.47 1805.78 3445.72 1805.78 3445.72 1822.31 3450.54 1822.31 3450.54 1838.84 3451.64 1838.84 3451.64 1855.37 3453.59 1855.37 3453.59 1871.9 3469.71 1871.9 3469.71 1888.41 3478.96 1888.41 3478.96 1904.94 3490.42 1904.94 3490.42 1921.47 3495.51 1921.47 3495.51 1938 3507.45 1938 3507.45 1954.53 3509.17 1954.53 3509.17 1971.06 3509.4 1971.06 3509.4 1987.56 3512.32 1987.56 3512.32 2004.09 3535.83 2004.09 3535.83 2020.62 3546.07 2020.62 3546.07 2037.15 3572.68 2037.15 3572.68 2053.68 3574.74 2053.68 3574.74 2070.21 3578.58 2070.21 3578.58 2086.74 3584.78 2086.74 3584.78 2103.25 3598.57 2103.25 3598.57 2119.78 3604.31 2119.78 3604.31 2136.31 3609.66 2136.31 3609.66 2152.84 3678.63 2152.84 3678.63 2169.37 3715.73 2169.37 3715.73 2185.9 3916.25 2185.9 3916.25 2202.41" stroke="#00BFC4" stroke-width="4.89013" stroke-linecap="butt" stroke-linejoin="round" stroke-miterlimit="10" stroke-opacity="1" fill="none" fill-rule="nonzero"/><path d="M3248.9 1376.09 3261.25 1376.09 3262.42 1376.09 3263.59 1376.09 3269.08 1376.09 3269.08 1377.45 3269.74 1377.45 3269.74 1386.75 3269.83 1386.75 3269.83 1396.89 3273.21 1396.89 3273.21 1407.68 3281.82 1407.68 3281.82 1419.05 3283.36 1419.05 3283.36 1430.87 3296.95 1430.87 3296.95 1443.08 3315.8 1443.08 3315.8 1455.67 3323.37 1455.67 3323.37 1468.57 3325.78 1468.57 3325.78 1481.75 3337.42 1481.75 3337.42 1495.2 3338.89 1495.2 3338.89 1508.91 3340.06 1508.91 3340.06 1522.84 3343.97 1522.84 3343.97 1537.01 3345.44 1537.01 3345.44 1551.38 3366.83 1551.38 3366.83 1565.93 3368.28 1565.93 3368.28 1580.7 3374.11 1580.7 3374.11 1595.67 3377.05 1595.67 3377.05 1610.8 3390.89 1610.8 3390.89 1626.11 3399.78 1626.11 3399.78 1641.63 3407.95 1641.63 3407.95 1657.29 3419.43 1657.29 3419.43 1673.15 3420.46 1673.15 3420.46 1689.15 3427.95 1689.15 3427.95 1705.36 3430.75 1705.36 3430.75 1721.73 3432.13 1721.73 3432.13 1738.28 3432.68 1738.28 3432.68 1755.02 3435.66 1755.02 3435.66 1771.94 3436.65 1771.94 3436.65 1789.04 3446.02 1789.04 3446.02 1806.33 3446.29 1806.33 3446.29 1823.85 3447.88 1823.85 3447.88 1841.55 3472.6 1841.55 3472.6 1859.48 3481.58 1859.48 3481.58 1877.64 3500.29 1877.64 3500.29 1896.05 3512.07 1896.05 3512.07 1914.72 3519.02 1914.72 3519.02 1933.66 3527.17 1933.66 3527.17 1952.9 3541.8 1952.9 3541.8 1972.46 3558.81 1972.46 3558.81 1992.36 3582.8 1992.36 3582.8 2012.64 3621.97 2012.64 3621.97 2033.21 3665.2 2033.21 3665.2 2053.91 3740.66 2053.91 3740.66 2073.91 3750.21 2073.91 3750.21 2087.39 3750.21 2200.04 3750.21 2193.91 3740.66 2193.91 3740.66 2185.88 3665.2 2185.88 3665.2 2176.6 3621.97 2176.6 3621.97 2166.43 3582.8 2166.43 3582.8 2155.62 3558.81 2155.62 3558.81 2144.21 3541.8 2144.21 3541.8 2132.36 3527.17 2132.36 3527.17 2120.1 3519.02 2120.1 3519.02 2107.48 3512.07 2107.48 3512.07 2094.55 3500.29 2094.55 3500.29 2081.33 3481.58 2081.33 3481.58 2067.83 3472.6 2067.83 3472.6 2054.07 3447.88 2054.07 3447.88 2040.09 3446.29 2040.09 3446.29 2025.88 3446.02 2025.88 3446.02 2011.46 3436.65 2011.46 3436.65 1996.86 3435.66 1996.86 3435.66 1982.03 3432.68 1982.03 3432.68 1967.04 3432.13 1967.04 3432.13 1951.84 3430.75 1951.84 3430.75 1936.46 3427.95 1936.46 3427.95 1920.92 3420.46 1920.92 3420.46 1905.19 3419.43 1905.19 3419.43 1889.28 3407.95 1889.28 3407.95 1873.19 3399.78 1873.19 3399.78 1856.93 3390.89 1856.93 3390.89 1840.47 3377.05 1840.47 3377.05 1823.85 3374.11 1823.85 3374.11 1807.04 3368.28 1807.04 3368.28 1790.03 3366.83 1790.03 3366.83 1772.84 3345.44 1772.84 3345.44 1755.43 3343.97 1755.43 3343.97 1737.82 3340.06 1737.82 3340.06 1719.99 3338.89 1719.99 3338.89 1701.92 3337.42 1701.92 3337.42 1683.6 3325.78 1683.6 3325.78 1665 3323.37 1665 3323.37 1646.11 3315.8 1646.11 3315.8 1626.91 3296.95 1626.91 3296.95 1607.35 3283.36 1607.35 3283.36 1587.4 3281.82 1587.4 3281.82 1566.97 3273.21 1566.97 3273.21 1546.01 3269.83 1546.01 3269.83 1524.36 3269.74 1524.36 3269.74 1501.86 3269.08 1501.86 3269.08 1478.21 3263.59 1478.21 3263.59 1452.77 3262.42 1452.77 3262.42 1424.05 3261.25 1424.05 3261.25 1376.09 3248.9 1376.09Z" fill="#F8766D" fill-rule="nonzero" fill-opacity="0.2"/><path d="M3248.9 1376.09 3269.05 1376.09 3269.56 1376.09 3290.36 1376.09 3295.59 1376.09 3295.59 1377.45 3303.95 1377.45 3303.95 1386.75 3305.37 1386.75 3305.37 1396.89 3309.83 1396.89 3309.83 1407.68 3319.24 1407.68 3319.24 1419.05 3337.95 1419.05 3337.95 1430.87 3339.15 1430.87 3339.15 1443.08 3363.21 1443.08 3363.21 1455.67 3369.13 1455.67 3369.13 1468.57 3370.62 1468.57 3370.62 1481.75 3381.07 1481.75 3381.07 1495.2 3382.49 1495.2 3382.49 1508.91 3384.51 1508.91 3384.51 1522.84 3384.67 1522.84 3384.67 1537.01 3387.4 1537.01 3387.4 1551.38 3388.16 1551.38 3388.16 1565.93 3390.59 1565.93 3390.59 1580.7 3395.94 1580.7 3395.94 1595.67 3400.79 1595.67 3400.79 1610.8 3404.37 1610.8 3404.37 1626.11 3418.79 1626.11 3418.79 1641.63 3431.97 1641.63 3431.97 1657.29 3441.47 1657.29 3441.47 1673.15 3445.72 1673.15 3445.72 1689.15 3450.54 1689.15 3450.54 1705.36 3451.64 1705.36 3451.64 1721.73 3453.59 1721.73 3453.59 1738.28 3469.71 1738.28 3469.71 1755.02 3478.96 1755.02 3478.96 1771.94 3490.42 1771.94 3490.42 1789.04 3495.51 1789.04 3495.51 1806.33 3507.45 1806.33 3507.45 1823.85 3509.17 1823.85 3509.17 1841.55 3509.4 1841.55 3509.4 1859.48 3512.32 1859.48 3512.32 1877.64 3535.83 1877.64 3535.83 1896.05 3546.07 1896.05 3546.07 1914.72 3572.68 1914.72 3572.68 1933.66 3574.74 1933.66 3574.74 1952.9 3578.58 1952.9 3578.58 1972.46 3584.78 1972.46 3584.78 1992.36 3598.57 1992.36 3598.57 2012.64 3604.31 2012.64 3604.31 2033.21 3609.66 2033.21 3609.66 2053.91 3678.63 2053.91 3678.63 2073.91 3715.73 2073.91 3715.73 2087.39 3715.73 2200.04 3715.73 2193.91 3678.63 2193.91 3678.63 2185.88 3609.66 2185.88 3609.66 2176.6 3604.31 2176.6 3604.31 2166.43 3598.57 2166.43 3598.57 2155.62 3584.78 2155.62 3584.78 2144.21 3578.58 2144.21 3578.58 2132.36 3574.74 2132.36 3574.74 2120.1 3572.68 2120.1 3572.68 2107.48 3546.07 2107.48 3546.07 2094.55 3535.83 2094.55 3535.83 2081.33 3512.32 2081.33 3512.32 2067.83 3509.4 2067.83 3509.4 2054.07 3509.17 2054.07 3509.17 2040.09 3507.45 2040.09 3507.45 2025.88 3495.51 2025.88 3495.51 2011.46 3490.42 2011.46 3490.42 1996.86 3478.96 1996.86 3478.96 1982.03 3469.71 1982.03 3469.71 1967.04 3453.59 1967.04 3453.59 1951.84 3451.64 1951.84 3451.64 1936.46 3450.54 1936.46 3450.54 1920.92 3445.72 1920.92 3445.72 1905.19 3441.47 1905.19 3441.47 1889.28 3431.97 1889.28 3431.97 1873.19 3418.79 1873.19 3418.79 1856.93 3404.37 1856.93 3404.37 1840.47 3400.79 1840.47 3400.79 1823.85 3395.94 1823.85 3395.94 1807.04 3390.59 1807.04 3390.59 1790.03 3388.16 1790.03 3388.16 1772.84 3387.4 1772.84 3387.4 1755.43 3384.67 1755.43 3384.67 1737.82 3384.51 1737.82 3384.51 1719.99 3382.49 1719.99 3382.49 1701.92 3381.07 1701.92 3381.07 1683.6 3370.62 1683.6 3370.62 1665 3369.13 1665 3369.13 1646.11 3363.21 1646.11 3363.21 1626.91 3339.15 1626.91 3339.15 1607.35 3337.95 1607.35 3337.95 1587.4 3319.24 1587.4 3319.24 1566.97 3309.83 1566.97 3309.83 1546.01 3305.37 1546.01 3305.37 1524.36 3303.95 1524.36 3303.95 1501.86 3295.59 1501.86 3295.59 1478.21 3290.36 1478.21 3290.36 1452.77 3269.56 1452.77 3269.56 1424.05 3269.05 1424.05 3269.05 1376.09 3248.9 1376.09Z" fill="#00BFC4" fill-rule="nonzero" fill-opacity="0.2"/><path d="M3214.8 1334.79 3965.04 1334.79 3965.04 2243.76 3214.8 2243.76Z" stroke="#333333" stroke-width="2.89275" stroke-linecap="round" stroke-linejoin="round" stroke-miterlimit="10" stroke-opacity="1" fill="none" fill-rule="nonzero"/></g><g><text fill="#4D4D4D" fill-opacity="1" font-family="Arial,Arial_MSFontService,sans-serif" font-style="normal" font-variant="normal" font-weight="400" font-stretch="normal" font-size="16" text-anchor="start" direction="ltr" writing-mode="lr-tb" unicode-bidi="normal" text-decoration="none" transform="matrix(2.29583 0 0 2.29583 3129.92 2216)">0.00</text><text fill="#4D4D4D" fill-opacity="1" font-family="Arial,Arial_MSFontService,sans-serif" font-style="normal" font-variant="normal" font-weight="400" font-stretch="normal" font-size="16" text-anchor="start" direction="ltr" writing-mode="lr-tb" unicode-bidi="normal" text-decoration="none" transform="matrix(2.29583 0 0 2.29583 3129.92 2009)">0.25</text><text fill="#4D4D4D" fill-opacity="1" font-family="Arial,Arial_MSFontService,sans-serif" font-style="normal" font-variant="normal" font-weight="400" font-stretch="normal" font-size="16" text-anchor="start" direction="ltr" writing-mode="lr-tb" unicode-bidi="normal" text-decoration="none" transform="matrix(2.29583 0 0 2.29583 3129.92 1802)">0.50</text><text fill="#4D4D4D" fill-opacity="1" font-family="Arial,Arial_MSFontService,sans-serif" font-style="normal" font-variant="normal" font-weight="400" font-stretch="normal" font-size="16" text-anchor="start" direction="ltr" writing-mode="lr-tb" unicode-bidi="normal" text-decoration="none" transform="matrix(2.29583 0 0 2.29583 3129.92 1596)">0.75</text><text fill="#4D4D4D" fill-opacity="1" font-family="Arial,Arial_MSFontService,sans-serif" font-style="normal" font-variant="normal" font-weight="400" font-stretch="normal" font-size="16" text-anchor="start" direction="ltr" writing-mode="lr-tb" unicode-bidi="normal" text-decoration="none" transform="matrix(2.29583 0 0 2.29583 3129.92 1389)">1.00</text><path d="M3207.36 2202.41 3214.8 2202.41" stroke="#333333" stroke-width="2.89275" stroke-linecap="butt" stroke-linejoin="round" stroke-miterlimit="10" stroke-opacity="1" fill="none" fill-rule="nonzero"/><path d="M3207.36 1995.83 3214.8 1995.83" stroke="#333333" stroke-width="2.89275" stroke-linecap="butt" stroke-linejoin="round" stroke-miterlimit="10" stroke-opacity="1" fill="none" fill-rule="nonzero"/><path d="M3207.36 1789.25 3214.8 1789.25" stroke="#333333" stroke-width="2.89275" stroke-linecap="butt" stroke-linejoin="round" stroke-miterlimit="10" stroke-opacity="1" fill="none" fill-rule="nonzero"/><path d="M3207.36 1582.67 3214.8 1582.67" stroke="#333333" stroke-width="2.89275" stroke-linecap="butt" stroke-linejoin="round" stroke-miterlimit="10" stroke-opacity="1" fill="none" fill-rule="nonzero"/><path d="M3207.36 1376.09 3214.8 1376.09" stroke="#333333" stroke-width="2.89275" stroke-linecap="butt" stroke-linejoin="round" stroke-miterlimit="10" stroke-opacity="1" fill="none" fill-rule="nonzero"/><path d="M3248.9 2251.17 3248.9 2243.73" stroke="#333333" stroke-width="2.89275" stroke-linecap="butt" stroke-linejoin="round" stroke-miterlimit="10" stroke-opacity="1" fill="none" fill-rule="nonzero"/><path d="M3465.28 2251.17 3465.28 2243.73" stroke="#333333" stroke-width="2.89275" stroke-linecap="butt" stroke-linejoin="round" stroke-miterlimit="10" stroke-opacity="1" fill="none" fill-rule="nonzero"/><path d="M3681.68 2251.17 3681.68 2243.73" stroke="#333333" stroke-width="2.89275" stroke-linecap="butt" stroke-linejoin="round" stroke-miterlimit="10" stroke-opacity="1" fill="none" fill-rule="nonzero"/><path d="M3898.07 2251.17 3898.07 2243.73" stroke="#333333" stroke-width="2.89275" stroke-linecap="butt" stroke-linejoin="round" stroke-miterlimit="10" stroke-opacity="1" fill="none" fill-rule="nonzero"/><text fill="#4D4D4D" fill-opacity="1" font-family="Arial,Arial_MSFontService,sans-serif" font-style="normal" font-variant="normal" font-weight="400" font-stretch="normal" font-size="16" text-anchor="start" direction="ltr" writing-mode="lr-tb" unicode-bidi="normal" text-decoration="none" transform="matrix(2.29583 0 0 2.29583 3238.68 2283)">0</text><text fill="#4D4D4D" fill-opacity="1" font-family="Arial,Arial_MSFontService,sans-serif" font-style="normal" font-variant="normal" font-weight="400" font-stretch="normal" font-size="16" text-anchor="start" direction="ltr" writing-mode="lr-tb" unicode-bidi="normal" text-decoration="none" transform="matrix(2.29583 0 0 2.29583 3455.06 2283)">1</text><text fill="#4D4D4D" fill-opacity="1" font-family="Arial,Arial_MSFontService,sans-serif" font-style="normal" font-variant="normal" font-weight="400" font-stretch="normal" font-size="16" text-anchor="start" direction="ltr" writing-mode="lr-tb" unicode-bidi="normal" text-decoration="none" transform="matrix(2.29583 0 0 2.29583 3671.47 2283)">2</text><text fill="#4D4D4D" fill-opacity="1" font-family="Arial,Arial_MSFontService,sans-serif" font-style="normal" font-variant="normal" font-weight="400" font-stretch="normal" font-size="16" text-anchor="start" direction="ltr" writing-mode="lr-tb" unicode-bidi="normal" text-decoration="none" transform="matrix(2.29583 0 0 2.29583 3887.85 2283)">3</text><text fill="#000000" fill-opacity="1" font-family="Arial,Arial_MSFontService,sans-serif" font-style="normal" font-variant="normal" font-weight="400" font-stretch="normal" font-size="20" text-anchor="start" direction="ltr" writing-mode="lr-tb" unicode-bidi="normal" text-decoration="none" transform="matrix(2.29583 0 0 2.29583 3539.75 2331)">Time</text><text fill="#000000" fill-opacity="1" font-family="Arial,Arial_MSFontService,sans-serif" font-style="normal" font-variant="normal" font-weight="400" font-stretch="normal" font-size="20" text-anchor="start" direction="ltr" writing-mode="lr-tb" unicode-bidi="normal" text-decoration="none" transform="matrix(1.40579e-16 -2.29583 2.29583 1.40579e-16 3112.75 1984)">Survival Probability</text><path d="M3994.77 1706 4152.15 1706 4152.15 1872.5 3994.77 1872.5Z" fill="#FFFFFF" fill-rule="nonzero" fill-opacity="1"/><text fill="#000000" fill-opacity="1" font-family="Arial,Arial_MSFontService,sans-serif" font-style="normal" font-variant="normal" font-weight="400" font-stretch="normal" font-size="20" text-anchor="start" direction="ltr" writing-mode="lr-tb" unicode-bidi="normal" text-decoration="none" transform="matrix(2.29583 0 0 2.29583 4009.62 1759)">Group</text><path d="M4009.62 1778.3 4049.29 1778.3 4049.29 1817.97 4009.62 1817.97Z" fill="#FFFFFF" fill-rule="nonzero" fill-opacity="1"/><path d="M4013.59 1798.14 4045.34 1798.14" stroke="#F8766D" stroke-width="4.89013" stroke-linecap="butt" stroke-linejoin="round" stroke-miterlimit="10" stroke-opacity="1" fill="none" fill-rule="nonzero"/><path d="M4011.55 1780.21 4047.36 1780.21 4047.36 1816.02 4011.55 1816.02Z" fill="#F8766D" fill-rule="nonzero" fill-opacity="0.2"/><path d="M4009.62 1817.97 4049.29 1817.97 4049.29 1857.64 4009.62 1857.64Z" fill="#FFFFFF" fill-rule="nonzero" fill-opacity="1"/><path d="M4013.59 1837.81 4045.34 1837.81" stroke="#00BFC4" stroke-width="4.89013" stroke-linecap="butt" stroke-linejoin="round" stroke-miterlimit="10" stroke-opacity="1" fill="none" fill-rule="nonzero"/><path d="M4011.55 1819.88 4047.36 1819.88 4047.36 1855.69 4011.55 1855.69Z" fill="#00BFC4" fill-rule="nonzero" fill-opacity="0.2"/><text fill="#000000" fill-opacity="1" font-family="Arial,Arial_MSFontService,sans-serif" font-style="normal" font-variant="normal" font-weight="400" font-stretch="normal" font-size="16" text-anchor="start" direction="ltr" writing-mode="lr-tb" unicode-bidi="normal" text-decoration="none" transform="matrix(2.29583 0 0 2.29583 4064.17 1811)">0</text><text fill="#000000" fill-opacity="1" font-family="Arial,Arial_MSFontService,sans-serif" font-style="normal" font-variant="normal" font-weight="400" font-stretch="normal" font-size="16" text-anchor="start" direction="ltr" writing-mode="lr-tb" unicode-bidi="normal" text-decoration="none" transform="matrix(2.29583 0 0 2.29583 4064.17 1851)">1</text><text fill="#000000" fill-opacity="1" font-family="Arial,Arial_MSFontService,sans-serif" font-style="normal" font-variant="normal" font-weight="400" font-stretch="normal" font-size="24" text-anchor="start" direction="ltr" writing-mode="lr-tb" unicode-bidi="normal" text-decoration="none" transform="matrix(2.29583 0 0 2.29583 3520.21 1308)">p=0.5</text></g></g></g></g></g></g></svg>